G04 #@! TF.GenerationSoftware,KiCad,Pcbnew,(5.1.9)-1*
G04 #@! TF.CreationDate,2021-03-28T08:59:04+01:00*
G04 #@! TF.ProjectId,Greaseweazle F1 3.5 Inch Rev 2,47726561-7365-4776-9561-7a6c65204631,2*
G04 #@! TF.SameCoordinates,PX6312cb0PY6bcb370*
G04 #@! TF.FileFunction,Profile,NP*
%FSLAX46Y46*%
G04 Gerber Fmt 4.6, Leading zero omitted, Abs format (unit mm)*
G04 Created by KiCad (PCBNEW (5.1.9)-1) date 2021-03-28 08:59:04*
%MOMM*%
%LPD*%
G01*
G04 APERTURE LIST*
G04 #@! TA.AperFunction,Profile*
%ADD10C,0.381000*%
G04 #@! TD*
G04 APERTURE END LIST*
D10*
X115824000Y30480000D02*
X113284000Y30480000D01*
X115824000Y-7620000D02*
X113284000Y-7620000D01*
X117094000Y-36664900D02*
X117094000Y-8890000D01*
X117094000Y-8890000D02*
G75*
G03*
X115824000Y-7620000I-1270000J0D01*
G01*
X113284000Y30480000D02*
X113284000Y-7620000D01*
X115824000Y30480000D02*
G75*
G03*
X117094000Y31750000I0J1270000D01*
G01*
X-53086000Y-15303500D02*
X-53086000Y-36664900D01*
X-51816000Y-14033500D02*
X-46609000Y-14033500D01*
X-51816000Y-8890000D02*
X-46609000Y-8890000D01*
X-46609000Y-8890000D02*
X-46609000Y-14033500D01*
X-51816000Y-14033500D02*
G75*
G03*
X-53086000Y-15303500I0J-1270000D01*
G01*
X-53086000Y-7620000D02*
G75*
G03*
X-51816000Y-8890000I1270000J0D01*
G01*
X115824000Y-37934900D02*
G75*
G03*
X117094000Y-36664900I0J1270000D01*
G01*
X-51816000Y62064900D02*
G75*
G03*
X-53086000Y60794900I0J-1270000D01*
G01*
X117094000Y60794900D02*
G75*
G03*
X115824000Y62064900I-1270000J0D01*
G01*
X-53086000Y-36664900D02*
G75*
G03*
X-51816000Y-37934900I1270000J0D01*
G01*
X-53086000Y60794900D02*
X-53086000Y-7620000D01*
X-51816000Y-37934900D02*
X115824000Y-37934900D01*
X115824000Y62064900D02*
X-51816000Y62064900D01*
X117094000Y31750000D02*
X117094000Y60794900D01*
M02*
