G04 #@! TF.GenerationSoftware,KiCad,Pcbnew,(5.1.9)-1*
G04 #@! TF.CreationDate,2021-02-01T20:54:34+00:00*
G04 #@! TF.ProjectId,Amiga DF0 DF1 Switcher - Design B,416d6967-6120-4444-9630-204446312053,1*
G04 #@! TF.SameCoordinates,Original*
G04 #@! TF.FileFunction,Soldermask,Bot*
G04 #@! TF.FilePolarity,Negative*
%FSLAX46Y46*%
G04 Gerber Fmt 4.6, Leading zero omitted, Abs format (unit mm)*
G04 Created by KiCad (PCBNEW (5.1.9)-1) date 2021-02-01 20:54:34*
%MOMM*%
%LPD*%
G01*
G04 APERTURE LIST*
%ADD10O,1.802000X1.802000*%
%ADD11C,1.802000*%
G04 APERTURE END LIST*
D10*
X122682000Y-142240000D03*
X125222000Y-142240000D03*
X127762000Y-142240000D03*
G36*
G01*
X129452000Y-141339000D02*
X131152000Y-141339000D01*
G75*
G02*
X131203000Y-141390000I0J-51000D01*
G01*
X131203000Y-143090000D01*
G75*
G02*
X131152000Y-143141000I-51000J0D01*
G01*
X129452000Y-143141000D01*
G75*
G02*
X129401000Y-143090000I0J51000D01*
G01*
X129401000Y-141390000D01*
G75*
G02*
X129452000Y-141339000I51000J0D01*
G01*
G37*
X172720000Y-146304000D03*
G36*
G01*
X171870000Y-142863000D02*
X173570000Y-142863000D01*
G75*
G02*
X173621000Y-142914000I0J-51000D01*
G01*
X173621000Y-144614000D01*
G75*
G02*
X173570000Y-144665000I-51000J0D01*
G01*
X171870000Y-144665000D01*
G75*
G02*
X171819000Y-144614000I0J51000D01*
G01*
X171819000Y-142914000D01*
G75*
G02*
X171870000Y-142863000I51000J0D01*
G01*
G37*
X175260000Y-146304000D03*
X175260000Y-143764000D03*
X177800000Y-146304000D03*
D11*
X177800000Y-143764000D03*
D10*
X122732800Y-137350500D03*
X125272800Y-137350500D03*
X127812800Y-137350500D03*
G36*
G01*
X131202800Y-138251500D02*
X129502800Y-138251500D01*
G75*
G02*
X129451800Y-138200500I0J51000D01*
G01*
X129451800Y-136500500D01*
G75*
G02*
X129502800Y-136449500I51000J0D01*
G01*
X131202800Y-136449500D01*
G75*
G02*
X131253800Y-136500500I0J-51000D01*
G01*
X131253800Y-138200500D01*
G75*
G02*
X131202800Y-138251500I-51000J0D01*
G01*
G37*
X137160000Y-139890500D03*
X137160000Y-137350500D03*
X139700000Y-139890500D03*
X139700000Y-137350500D03*
X142240000Y-139890500D03*
X142240000Y-137350500D03*
X144780000Y-139890500D03*
X144780000Y-137350500D03*
X147320000Y-139890500D03*
X147320000Y-137350500D03*
X149860000Y-139890500D03*
X149860000Y-137350500D03*
X152400000Y-139890500D03*
X152400000Y-137350500D03*
X154940000Y-139890500D03*
X154940000Y-137350500D03*
X157480000Y-139890500D03*
X157480000Y-137350500D03*
X160020000Y-139890500D03*
X160020000Y-137350500D03*
X162560000Y-139890500D03*
X162560000Y-137350500D03*
X165100000Y-139890500D03*
X165100000Y-137350500D03*
X167640000Y-139890500D03*
X167640000Y-137350500D03*
X170180000Y-139890500D03*
X170180000Y-137350500D03*
X172720000Y-139890500D03*
X172720000Y-137350500D03*
X175260000Y-139890500D03*
X175260000Y-137350500D03*
X177800000Y-139890500D03*
G36*
G01*
X178650000Y-138251500D02*
X176950000Y-138251500D01*
G75*
G02*
X176899000Y-138200500I0J51000D01*
G01*
X176899000Y-136500500D01*
G75*
G02*
X176950000Y-136449500I51000J0D01*
G01*
X178650000Y-136449500D01*
G75*
G02*
X178701000Y-136500500I0J-51000D01*
G01*
X178701000Y-138200500D01*
G75*
G02*
X178650000Y-138251500I-51000J0D01*
G01*
G37*
G36*
G01*
X176950000Y-128639000D02*
X178650000Y-128639000D01*
G75*
G02*
X178701000Y-128690000I0J-51000D01*
G01*
X178701000Y-130390000D01*
G75*
G02*
X178650000Y-130441000I-51000J0D01*
G01*
X176950000Y-130441000D01*
G75*
G02*
X176899000Y-130390000I0J51000D01*
G01*
X176899000Y-128690000D01*
G75*
G02*
X176950000Y-128639000I51000J0D01*
G01*
G37*
X177800000Y-132080000D03*
X175260000Y-129540000D03*
X175260000Y-132080000D03*
X172720000Y-129540000D03*
X172720000Y-132080000D03*
X170180000Y-129540000D03*
X170180000Y-132080000D03*
X167640000Y-129540000D03*
X167640000Y-132080000D03*
X165100000Y-129540000D03*
X165100000Y-132080000D03*
X162560000Y-129540000D03*
X162560000Y-132080000D03*
X160020000Y-129540000D03*
X160020000Y-132080000D03*
X157480000Y-129540000D03*
X157480000Y-132080000D03*
X154940000Y-129540000D03*
X154940000Y-132080000D03*
X152400000Y-129540000D03*
X152400000Y-132080000D03*
X149860000Y-129540000D03*
X149860000Y-132080000D03*
X147320000Y-129540000D03*
X147320000Y-132080000D03*
X144780000Y-129540000D03*
X144780000Y-132080000D03*
X142240000Y-129540000D03*
X142240000Y-132080000D03*
X139700000Y-129540000D03*
X139700000Y-132080000D03*
X137160000Y-129540000D03*
X137160000Y-132080000D03*
G36*
G01*
X176950000Y-121019000D02*
X178650000Y-121019000D01*
G75*
G02*
X178701000Y-121070000I0J-51000D01*
G01*
X178701000Y-122770000D01*
G75*
G02*
X178650000Y-122821000I-51000J0D01*
G01*
X176950000Y-122821000D01*
G75*
G02*
X176899000Y-122770000I0J51000D01*
G01*
X176899000Y-121070000D01*
G75*
G02*
X176950000Y-121019000I51000J0D01*
G01*
G37*
X177800000Y-124460000D03*
X175260000Y-121920000D03*
X175260000Y-124460000D03*
X172720000Y-121920000D03*
X172720000Y-124460000D03*
X170180000Y-121920000D03*
X170180000Y-124460000D03*
X167640000Y-121920000D03*
X167640000Y-124460000D03*
X165100000Y-121920000D03*
X165100000Y-124460000D03*
X162560000Y-121920000D03*
X162560000Y-124460000D03*
X160020000Y-121920000D03*
X160020000Y-124460000D03*
X157480000Y-121920000D03*
X157480000Y-124460000D03*
X154940000Y-121920000D03*
X154940000Y-124460000D03*
X152400000Y-121920000D03*
X152400000Y-124460000D03*
X149860000Y-121920000D03*
X149860000Y-124460000D03*
X147320000Y-121920000D03*
X147320000Y-124460000D03*
X144780000Y-121920000D03*
X144780000Y-124460000D03*
X142240000Y-121920000D03*
X142240000Y-124460000D03*
X139700000Y-121920000D03*
X139700000Y-124460000D03*
X137160000Y-121920000D03*
X137160000Y-124460000D03*
G36*
G01*
X164250000Y-145022000D02*
X165950000Y-145022000D01*
G75*
G02*
X166001000Y-145073000I0J-51000D01*
G01*
X166001000Y-146773000D01*
G75*
G02*
X165950000Y-146824000I-51000J0D01*
G01*
X164250000Y-146824000D01*
G75*
G02*
X164199000Y-146773000I0J51000D01*
G01*
X164199000Y-145073000D01*
G75*
G02*
X164250000Y-145022000I51000J0D01*
G01*
G37*
X162560000Y-145923000D03*
X160020000Y-145923000D03*
X157480000Y-145923000D03*
G36*
G01*
X149010000Y-145022000D02*
X150710000Y-145022000D01*
G75*
G02*
X150761000Y-145073000I0J-51000D01*
G01*
X150761000Y-146773000D01*
G75*
G02*
X150710000Y-146824000I-51000J0D01*
G01*
X149010000Y-146824000D01*
G75*
G02*
X148959000Y-146773000I0J51000D01*
G01*
X148959000Y-145073000D01*
G75*
G02*
X149010000Y-145022000I51000J0D01*
G01*
G37*
X147320000Y-145923000D03*
X144780000Y-145923000D03*
X142240000Y-145923000D03*
M02*
