G04 #@! TF.GenerationSoftware,KiCad,Pcbnew,(5.1.9)-1*
G04 #@! TF.CreationDate,2021-02-01T20:54:34+00:00*
G04 #@! TF.ProjectId,Amiga DF0 DF1 Switcher - Design B,416d6967-6120-4444-9630-204446312053,1*
G04 #@! TF.SameCoordinates,Original*
G04 #@! TF.FileFunction,Legend,Bot*
G04 #@! TF.FilePolarity,Positive*
%FSLAX46Y46*%
G04 Gerber Fmt 4.6, Leading zero omitted, Abs format (unit mm)*
G04 Created by KiCad (PCBNEW (5.1.9)-1) date 2021-02-01 20:54:34*
%MOMM*%
%LPD*%
G01*
G04 APERTURE LIST*
%ADD10C,0.125000*%
%ADD11C,0.120000*%
%ADD12C,0.150000*%
G04 APERTURE END LIST*
D10*
X131865714Y-139531285D02*
X132294285Y-139531285D01*
X132080000Y-139531285D02*
X132080000Y-138781285D01*
X132151428Y-138888428D01*
X132222857Y-138959857D01*
X132294285Y-138995571D01*
X136751142Y-126081285D02*
X136286857Y-126081285D01*
X136536857Y-126367000D01*
X136429714Y-126367000D01*
X136358285Y-126402714D01*
X136322571Y-126438428D01*
X136286857Y-126509857D01*
X136286857Y-126688428D01*
X136322571Y-126759857D01*
X136358285Y-126795571D01*
X136429714Y-126831285D01*
X136644000Y-126831285D01*
X136715428Y-126795571D01*
X136751142Y-126759857D01*
X135644000Y-126331285D02*
X135644000Y-126831285D01*
X135822571Y-126045571D02*
X136001142Y-126581285D01*
X135536857Y-126581285D01*
X136751142Y-133701285D02*
X136286857Y-133701285D01*
X136536857Y-133987000D01*
X136429714Y-133987000D01*
X136358285Y-134022714D01*
X136322571Y-134058428D01*
X136286857Y-134129857D01*
X136286857Y-134308428D01*
X136322571Y-134379857D01*
X136358285Y-134415571D01*
X136429714Y-134451285D01*
X136644000Y-134451285D01*
X136715428Y-134415571D01*
X136751142Y-134379857D01*
X135644000Y-133951285D02*
X135644000Y-134451285D01*
X135822571Y-133665571D02*
X136001142Y-134201285D01*
X135536857Y-134201285D01*
X179292285Y-128595380D02*
X179863714Y-128595380D01*
X179578000Y-128595380D02*
X179578000Y-127595380D01*
X179673238Y-127738238D01*
X179768476Y-127833476D01*
X179863714Y-127881095D01*
X179292285Y-121102380D02*
X179863714Y-121102380D01*
X179578000Y-121102380D02*
X179578000Y-120102380D01*
X179673238Y-120245238D01*
X179768476Y-120340476D01*
X179863714Y-120388095D01*
X180443142Y-122499523D02*
X180490761Y-122451904D01*
X180538380Y-122309047D01*
X180538380Y-122213809D01*
X180490761Y-122070952D01*
X180395523Y-121975714D01*
X180300285Y-121928095D01*
X180109809Y-121880476D01*
X179966952Y-121880476D01*
X179776476Y-121928095D01*
X179681238Y-121975714D01*
X179586000Y-122070952D01*
X179538380Y-122213809D01*
X179538380Y-122309047D01*
X179586000Y-122451904D01*
X179633619Y-122499523D01*
X180538380Y-122928095D02*
X179538380Y-122928095D01*
X180538380Y-123499523D01*
X179538380Y-123499523D01*
X179633619Y-123928095D02*
X179586000Y-123975714D01*
X179538380Y-124070952D01*
X179538380Y-124309047D01*
X179586000Y-124404285D01*
X179633619Y-124451904D01*
X179728857Y-124499523D01*
X179824095Y-124499523D01*
X179966952Y-124451904D01*
X180538380Y-123880476D01*
X180538380Y-124499523D01*
X180443142Y-130119523D02*
X180490761Y-130071904D01*
X180538380Y-129929047D01*
X180538380Y-129833809D01*
X180490761Y-129690952D01*
X180395523Y-129595714D01*
X180300285Y-129548095D01*
X180109809Y-129500476D01*
X179966952Y-129500476D01*
X179776476Y-129548095D01*
X179681238Y-129595714D01*
X179586000Y-129690952D01*
X179538380Y-129833809D01*
X179538380Y-129929047D01*
X179586000Y-130071904D01*
X179633619Y-130119523D01*
X180538380Y-130548095D02*
X179538380Y-130548095D01*
X180538380Y-131119523D01*
X179538380Y-131119523D01*
X180538380Y-132119523D02*
X180538380Y-131548095D01*
X180538380Y-131833809D02*
X179538380Y-131833809D01*
X179681238Y-131738571D01*
X179776476Y-131643333D01*
X179824095Y-131548095D01*
X179546285Y-136342380D02*
X180117714Y-136342380D01*
X179832000Y-136342380D02*
X179832000Y-135342380D01*
X179927238Y-135485238D01*
X180022476Y-135580476D01*
X180117714Y-135628095D01*
X137017023Y-141882880D02*
X136397976Y-141882880D01*
X136731309Y-142263833D01*
X136588452Y-142263833D01*
X136493214Y-142311452D01*
X136445595Y-142359071D01*
X136397976Y-142454309D01*
X136397976Y-142692404D01*
X136445595Y-142787642D01*
X136493214Y-142835261D01*
X136588452Y-142882880D01*
X136874166Y-142882880D01*
X136969404Y-142835261D01*
X137017023Y-142787642D01*
X135540833Y-142216214D02*
X135540833Y-142882880D01*
X135778928Y-141835261D02*
X136017023Y-142549547D01*
X135397976Y-142549547D01*
D11*
X129082800Y-138680500D02*
X129082800Y-136020500D01*
X129082800Y-138680500D02*
X121402800Y-138680500D01*
X121402800Y-138680500D02*
X121402800Y-136020500D01*
X129082800Y-136020500D02*
X121402800Y-136020500D01*
X131682800Y-136020500D02*
X130352800Y-136020500D01*
X131682800Y-137350500D02*
X131682800Y-136020500D01*
X179130000Y-141220500D02*
X179130000Y-138620500D01*
X179130000Y-141220500D02*
X135830000Y-141220500D01*
X135830000Y-141220500D02*
X135830000Y-136020500D01*
X176530000Y-136020500D02*
X135830000Y-136020500D01*
X176530000Y-138620500D02*
X176530000Y-136020500D01*
X179130000Y-138620500D02*
X176530000Y-138620500D01*
X179130000Y-136020500D02*
X177800000Y-136020500D01*
X179130000Y-137350500D02*
X179130000Y-136020500D01*
D12*
X133575180Y-136612404D02*
X132575180Y-136612404D01*
X132575180Y-136993357D01*
X132622800Y-137088595D01*
X132670419Y-137136214D01*
X132765657Y-137183833D01*
X132908514Y-137183833D01*
X133003752Y-137136214D01*
X133051371Y-137088595D01*
X133098990Y-136993357D01*
X133098990Y-136612404D01*
X132575180Y-137802880D02*
X132575180Y-137898119D01*
X132622800Y-137993357D01*
X132670419Y-138040976D01*
X132765657Y-138088595D01*
X132956133Y-138136214D01*
X133194228Y-138136214D01*
X133384704Y-138088595D01*
X133479942Y-138040976D01*
X133527561Y-137993357D01*
X133575180Y-137898119D01*
X133575180Y-137802880D01*
X133527561Y-137707642D01*
X133479942Y-137660023D01*
X133384704Y-137612404D01*
X133194228Y-137564785D01*
X132956133Y-137564785D01*
X132765657Y-137612404D01*
X132670419Y-137660023D01*
X132622800Y-137707642D01*
X132575180Y-137802880D01*
X180443142Y-137993523D02*
X180490761Y-137945904D01*
X180538380Y-137803047D01*
X180538380Y-137707809D01*
X180490761Y-137564952D01*
X180395523Y-137469714D01*
X180300285Y-137422095D01*
X180109809Y-137374476D01*
X179966952Y-137374476D01*
X179776476Y-137422095D01*
X179681238Y-137469714D01*
X179586000Y-137564952D01*
X179538380Y-137707809D01*
X179538380Y-137803047D01*
X179586000Y-137945904D01*
X179633619Y-137993523D01*
X180538380Y-138422095D02*
X179538380Y-138422095D01*
X180538380Y-138993523D01*
X179538380Y-138993523D01*
X179538380Y-139660190D02*
X179538380Y-139755428D01*
X179586000Y-139850666D01*
X179633619Y-139898285D01*
X179728857Y-139945904D01*
X179919333Y-139993523D01*
X180157428Y-139993523D01*
X180347904Y-139945904D01*
X180443142Y-139898285D01*
X180490761Y-139850666D01*
X180538380Y-139755428D01*
X180538380Y-139660190D01*
X180490761Y-139564952D01*
X180443142Y-139517333D01*
X180347904Y-139469714D01*
X180157428Y-139422095D01*
X179919333Y-139422095D01*
X179728857Y-139469714D01*
X179633619Y-139517333D01*
X179586000Y-139564952D01*
X179538380Y-139660190D01*
M02*
