G04 #@! TF.GenerationSoftware,KiCad,Pcbnew,(5.1.2)-2*
G04 #@! TF.CreationDate,2020-12-20T10:54:08+00:00*
G04 #@! TF.ProjectId,Greaseweazle F1 Gotek (+ USB B),47726561-7365-4776-9561-7a6c65204631,1*
G04 #@! TF.SameCoordinates,PX6312cb0PY6bcb370*
G04 #@! TF.FileFunction,Legend,Bot*
G04 #@! TF.FilePolarity,Positive*
%FSLAX46Y46*%
G04 Gerber Fmt 4.6, Leading zero omitted, Abs format (unit mm)*
G04 Created by KiCad (PCBNEW (5.1.2)-2) date 2020-12-20 10:54:08*
%MOMM*%
%LPD*%
G04 APERTURE LIST*
%ADD10C,0.125000*%
%ADD11C,0.187500*%
%ADD12C,0.150000*%
G04 APERTURE END LIST*
D10*
X2757428Y35288572D02*
X2757428Y35888572D01*
X2414571Y35288572D01*
X2414571Y35888572D01*
X1786000Y35345715D02*
X1814571Y35317143D01*
X1900285Y35288572D01*
X1957428Y35288572D01*
X2043142Y35317143D01*
X2100285Y35374286D01*
X2128857Y35431429D01*
X2157428Y35545715D01*
X2157428Y35631429D01*
X2128857Y35745715D01*
X2100285Y35802858D01*
X2043142Y35860000D01*
X1957428Y35888572D01*
X1900285Y35888572D01*
X1814571Y35860000D01*
X1786000Y35831429D01*
X61704571Y41184572D02*
X62304571Y41184572D01*
X61704571Y41527429D01*
X62304571Y41527429D01*
X61761714Y42156000D02*
X61733142Y42127429D01*
X61704571Y42041715D01*
X61704571Y41984572D01*
X61733142Y41898858D01*
X61790285Y41841715D01*
X61847428Y41813143D01*
X61961714Y41784572D01*
X62047428Y41784572D01*
X62161714Y41813143D01*
X62218857Y41841715D01*
X62276000Y41898858D01*
X62304571Y41984572D01*
X62304571Y42041715D01*
X62276000Y42127429D01*
X62247428Y42156000D01*
X49258571Y40930572D02*
X49858571Y40930572D01*
X49258571Y41273429D01*
X49858571Y41273429D01*
X49315714Y41902000D02*
X49287142Y41873429D01*
X49258571Y41787715D01*
X49258571Y41730572D01*
X49287142Y41644858D01*
X49344285Y41587715D01*
X49401428Y41559143D01*
X49515714Y41530572D01*
X49601428Y41530572D01*
X49715714Y41559143D01*
X49772857Y41587715D01*
X49830000Y41644858D01*
X49858571Y41730572D01*
X49858571Y41787715D01*
X49830000Y41873429D01*
X49801428Y41902000D01*
X23477571Y14641572D02*
X24077571Y14641572D01*
X23477571Y14984429D01*
X24077571Y14984429D01*
X23534714Y15613000D02*
X23506142Y15584429D01*
X23477571Y15498715D01*
X23477571Y15441572D01*
X23506142Y15355858D01*
X23563285Y15298715D01*
X23620428Y15270143D01*
X23734714Y15241572D01*
X23820428Y15241572D01*
X23934714Y15270143D01*
X23991857Y15298715D01*
X24049000Y15355858D01*
X24077571Y15441572D01*
X24077571Y15498715D01*
X24049000Y15584429D01*
X24020428Y15613000D01*
X28557571Y14641572D02*
X29157571Y14641572D01*
X28557571Y14984429D01*
X29157571Y14984429D01*
X28614714Y15613000D02*
X28586142Y15584429D01*
X28557571Y15498715D01*
X28557571Y15441572D01*
X28586142Y15355858D01*
X28643285Y15298715D01*
X28700428Y15270143D01*
X28814714Y15241572D01*
X28900428Y15241572D01*
X29014714Y15270143D01*
X29071857Y15298715D01*
X29129000Y15355858D01*
X29157571Y15441572D01*
X29157571Y15498715D01*
X29129000Y15584429D01*
X29100428Y15613000D01*
X31097571Y14641572D02*
X31697571Y14641572D01*
X31097571Y14984429D01*
X31697571Y14984429D01*
X31154714Y15613000D02*
X31126142Y15584429D01*
X31097571Y15498715D01*
X31097571Y15441572D01*
X31126142Y15355858D01*
X31183285Y15298715D01*
X31240428Y15270143D01*
X31354714Y15241572D01*
X31440428Y15241572D01*
X31554714Y15270143D01*
X31611857Y15298715D01*
X31669000Y15355858D01*
X31697571Y15441572D01*
X31697571Y15498715D01*
X31669000Y15584429D01*
X31640428Y15613000D01*
X36177571Y14641572D02*
X36777571Y14641572D01*
X36177571Y14984429D01*
X36777571Y14984429D01*
X36234714Y15613000D02*
X36206142Y15584429D01*
X36177571Y15498715D01*
X36177571Y15441572D01*
X36206142Y15355858D01*
X36263285Y15298715D01*
X36320428Y15270143D01*
X36434714Y15241572D01*
X36520428Y15241572D01*
X36634714Y15270143D01*
X36691857Y15298715D01*
X36749000Y15355858D01*
X36777571Y15441572D01*
X36777571Y15498715D01*
X36749000Y15584429D01*
X36720428Y15613000D01*
X38971571Y14641572D02*
X39571571Y14641572D01*
X38971571Y14984429D01*
X39571571Y14984429D01*
X39028714Y15613000D02*
X39000142Y15584429D01*
X38971571Y15498715D01*
X38971571Y15441572D01*
X39000142Y15355858D01*
X39057285Y15298715D01*
X39114428Y15270143D01*
X39228714Y15241572D01*
X39314428Y15241572D01*
X39428714Y15270143D01*
X39485857Y15298715D01*
X39543000Y15355858D01*
X39571571Y15441572D01*
X39571571Y15498715D01*
X39543000Y15584429D01*
X39514428Y15613000D01*
X41511571Y14641572D02*
X42111571Y14641572D01*
X41511571Y14984429D01*
X42111571Y14984429D01*
X41568714Y15613000D02*
X41540142Y15584429D01*
X41511571Y15498715D01*
X41511571Y15441572D01*
X41540142Y15355858D01*
X41597285Y15298715D01*
X41654428Y15270143D01*
X41768714Y15241572D01*
X41854428Y15241572D01*
X41968714Y15270143D01*
X42025857Y15298715D01*
X42083000Y15355858D01*
X42111571Y15441572D01*
X42111571Y15498715D01*
X42083000Y15584429D01*
X42054428Y15613000D01*
X44051571Y14641572D02*
X44651571Y14641572D01*
X44051571Y14984429D01*
X44651571Y14984429D01*
X44108714Y15613000D02*
X44080142Y15584429D01*
X44051571Y15498715D01*
X44051571Y15441572D01*
X44080142Y15355858D01*
X44137285Y15298715D01*
X44194428Y15270143D01*
X44308714Y15241572D01*
X44394428Y15241572D01*
X44508714Y15270143D01*
X44565857Y15298715D01*
X44623000Y15355858D01*
X44651571Y15441572D01*
X44651571Y15498715D01*
X44623000Y15584429D01*
X44594428Y15613000D01*
X46591571Y14641572D02*
X47191571Y14641572D01*
X46591571Y14984429D01*
X47191571Y14984429D01*
X46648714Y15613000D02*
X46620142Y15584429D01*
X46591571Y15498715D01*
X46591571Y15441572D01*
X46620142Y15355858D01*
X46677285Y15298715D01*
X46734428Y15270143D01*
X46848714Y15241572D01*
X46934428Y15241572D01*
X47048714Y15270143D01*
X47105857Y15298715D01*
X47163000Y15355858D01*
X47191571Y15441572D01*
X47191571Y15498715D01*
X47163000Y15584429D01*
X47134428Y15613000D01*
X48877571Y14641572D02*
X49477571Y14641572D01*
X48877571Y14984429D01*
X49477571Y14984429D01*
X48934714Y15613000D02*
X48906142Y15584429D01*
X48877571Y15498715D01*
X48877571Y15441572D01*
X48906142Y15355858D01*
X48963285Y15298715D01*
X49020428Y15270143D01*
X49134714Y15241572D01*
X49220428Y15241572D01*
X49334714Y15270143D01*
X49391857Y15298715D01*
X49449000Y15355858D01*
X49477571Y15441572D01*
X49477571Y15498715D01*
X49449000Y15584429D01*
X49420428Y15613000D01*
X51671571Y14641572D02*
X52271571Y14641572D01*
X51671571Y14984429D01*
X52271571Y14984429D01*
X51728714Y15613000D02*
X51700142Y15584429D01*
X51671571Y15498715D01*
X51671571Y15441572D01*
X51700142Y15355858D01*
X51757285Y15298715D01*
X51814428Y15270143D01*
X51928714Y15241572D01*
X52014428Y15241572D01*
X52128714Y15270143D01*
X52185857Y15298715D01*
X52243000Y15355858D01*
X52271571Y15441572D01*
X52271571Y15498715D01*
X52243000Y15584429D01*
X52214428Y15613000D01*
X53957571Y14641572D02*
X54557571Y14641572D01*
X53957571Y14984429D01*
X54557571Y14984429D01*
X54014714Y15613000D02*
X53986142Y15584429D01*
X53957571Y15498715D01*
X53957571Y15441572D01*
X53986142Y15355858D01*
X54043285Y15298715D01*
X54100428Y15270143D01*
X54214714Y15241572D01*
X54300428Y15241572D01*
X54414714Y15270143D01*
X54471857Y15298715D01*
X54529000Y15355858D01*
X54557571Y15441572D01*
X54557571Y15498715D01*
X54529000Y15584429D01*
X54500428Y15613000D01*
X89106142Y-4113571D02*
X88999000Y-4149285D01*
X88820428Y-4149285D01*
X88749000Y-4113571D01*
X88713285Y-4077857D01*
X88677571Y-4006428D01*
X88677571Y-3935000D01*
X88713285Y-3863571D01*
X88749000Y-3827857D01*
X88820428Y-3792142D01*
X88963285Y-3756428D01*
X89034714Y-3720714D01*
X89070428Y-3685000D01*
X89106142Y-3613571D01*
X89106142Y-3542142D01*
X89070428Y-3470714D01*
X89034714Y-3435000D01*
X88963285Y-3399285D01*
X88784714Y-3399285D01*
X88677571Y-3435000D01*
X88356142Y-3756428D02*
X88106142Y-3756428D01*
X87999000Y-4149285D02*
X88356142Y-4149285D01*
X88356142Y-3399285D01*
X87999000Y-3399285D01*
X87249000Y-4149285D02*
X87499000Y-3792142D01*
X87677571Y-4149285D02*
X87677571Y-3399285D01*
X87391857Y-3399285D01*
X87320428Y-3435000D01*
X87284714Y-3470714D01*
X87249000Y-3542142D01*
X87249000Y-3649285D01*
X87284714Y-3720714D01*
X87320428Y-3756428D01*
X87391857Y-3792142D01*
X87677571Y-3792142D01*
X87106142Y-4220714D02*
X86534714Y-4220714D01*
X86463285Y-3399285D02*
X86034714Y-3399285D01*
X86249000Y-4149285D02*
X86249000Y-3399285D01*
X85856142Y-3399285D02*
X85356142Y-4149285D01*
X85356142Y-3399285D02*
X85856142Y-4149285D01*
X89195428Y-1319571D02*
X89088285Y-1355285D01*
X88909714Y-1355285D01*
X88838285Y-1319571D01*
X88802571Y-1283857D01*
X88766857Y-1212428D01*
X88766857Y-1141000D01*
X88802571Y-1069571D01*
X88838285Y-1033857D01*
X88909714Y-998142D01*
X89052571Y-962428D01*
X89124000Y-926714D01*
X89159714Y-891000D01*
X89195428Y-819571D01*
X89195428Y-748142D01*
X89159714Y-676714D01*
X89124000Y-641000D01*
X89052571Y-605285D01*
X88874000Y-605285D01*
X88766857Y-641000D01*
X88445428Y-962428D02*
X88195428Y-962428D01*
X88088285Y-1355285D02*
X88445428Y-1355285D01*
X88445428Y-605285D01*
X88088285Y-605285D01*
X87338285Y-1355285D02*
X87588285Y-998142D01*
X87766857Y-1355285D02*
X87766857Y-605285D01*
X87481142Y-605285D01*
X87409714Y-641000D01*
X87374000Y-676714D01*
X87338285Y-748142D01*
X87338285Y-855285D01*
X87374000Y-926714D01*
X87409714Y-962428D01*
X87481142Y-998142D01*
X87766857Y-998142D01*
X87195428Y-1426714D02*
X86624000Y-1426714D01*
X86016857Y-1355285D02*
X86266857Y-998142D01*
X86445428Y-1355285D02*
X86445428Y-605285D01*
X86159714Y-605285D01*
X86088285Y-641000D01*
X86052571Y-676714D01*
X86016857Y-748142D01*
X86016857Y-855285D01*
X86052571Y-926714D01*
X86088285Y-962428D01*
X86159714Y-998142D01*
X86445428Y-998142D01*
X85766857Y-605285D02*
X85266857Y-1355285D01*
X85266857Y-605285D02*
X85766857Y-1355285D01*
X87947428Y-5898800D02*
X88018857Y-5863085D01*
X88126000Y-5863085D01*
X88233142Y-5898800D01*
X88304571Y-5970228D01*
X88340285Y-6041657D01*
X88376000Y-6184514D01*
X88376000Y-6291657D01*
X88340285Y-6434514D01*
X88304571Y-6505942D01*
X88233142Y-6577371D01*
X88126000Y-6613085D01*
X88054571Y-6613085D01*
X87947428Y-6577371D01*
X87911714Y-6541657D01*
X87911714Y-6291657D01*
X88054571Y-6291657D01*
X87590285Y-6613085D02*
X87590285Y-5863085D01*
X87161714Y-6613085D01*
X87161714Y-5863085D01*
X86804571Y-6613085D02*
X86804571Y-5863085D01*
X86626000Y-5863085D01*
X86518857Y-5898800D01*
X86447428Y-5970228D01*
X86411714Y-6041657D01*
X86376000Y-6184514D01*
X86376000Y-6291657D01*
X86411714Y-6434514D01*
X86447428Y-6505942D01*
X86518857Y-6577371D01*
X86626000Y-6613085D01*
X86804571Y-6613085D01*
X88416485Y-8968971D02*
X87845057Y-8968971D01*
X88130771Y-9254685D02*
X88130771Y-8683257D01*
X87130771Y-8504685D02*
X87487914Y-8504685D01*
X87523628Y-8861828D01*
X87487914Y-8826114D01*
X87416485Y-8790400D01*
X87237914Y-8790400D01*
X87166485Y-8826114D01*
X87130771Y-8861828D01*
X87095057Y-8933257D01*
X87095057Y-9111828D01*
X87130771Y-9183257D01*
X87166485Y-9218971D01*
X87237914Y-9254685D01*
X87416485Y-9254685D01*
X87487914Y-9218971D01*
X87523628Y-9183257D01*
X86880771Y-8504685D02*
X86630771Y-9254685D01*
X86380771Y-8504685D01*
X101895428Y-1319571D02*
X101788285Y-1355285D01*
X101609714Y-1355285D01*
X101538285Y-1319571D01*
X101502571Y-1283857D01*
X101466857Y-1212428D01*
X101466857Y-1141000D01*
X101502571Y-1069571D01*
X101538285Y-1033857D01*
X101609714Y-998142D01*
X101752571Y-962428D01*
X101824000Y-926714D01*
X101859714Y-891000D01*
X101895428Y-819571D01*
X101895428Y-748142D01*
X101859714Y-676714D01*
X101824000Y-641000D01*
X101752571Y-605285D01*
X101574000Y-605285D01*
X101466857Y-641000D01*
X101145428Y-962428D02*
X100895428Y-962428D01*
X100788285Y-1355285D02*
X101145428Y-1355285D01*
X101145428Y-605285D01*
X100788285Y-605285D01*
X100038285Y-1355285D02*
X100288285Y-998142D01*
X100466857Y-1355285D02*
X100466857Y-605285D01*
X100181142Y-605285D01*
X100109714Y-641000D01*
X100074000Y-676714D01*
X100038285Y-748142D01*
X100038285Y-855285D01*
X100074000Y-926714D01*
X100109714Y-962428D01*
X100181142Y-998142D01*
X100466857Y-998142D01*
X99895428Y-1426714D02*
X99324000Y-1426714D01*
X98716857Y-1355285D02*
X98966857Y-998142D01*
X99145428Y-1355285D02*
X99145428Y-605285D01*
X98859714Y-605285D01*
X98788285Y-641000D01*
X98752571Y-676714D01*
X98716857Y-748142D01*
X98716857Y-855285D01*
X98752571Y-926714D01*
X98788285Y-962428D01*
X98859714Y-998142D01*
X99145428Y-998142D01*
X98466857Y-605285D02*
X97966857Y-1355285D01*
X97966857Y-605285D02*
X98466857Y-1355285D01*
X101116485Y-8968971D02*
X100545057Y-8968971D01*
X100830771Y-9254685D02*
X100830771Y-8683257D01*
X99830771Y-8504685D02*
X100187914Y-8504685D01*
X100223628Y-8861828D01*
X100187914Y-8826114D01*
X100116485Y-8790400D01*
X99937914Y-8790400D01*
X99866485Y-8826114D01*
X99830771Y-8861828D01*
X99795057Y-8933257D01*
X99795057Y-9111828D01*
X99830771Y-9183257D01*
X99866485Y-9218971D01*
X99937914Y-9254685D01*
X100116485Y-9254685D01*
X100187914Y-9218971D01*
X100223628Y-9183257D01*
X99580771Y-8504685D02*
X99330771Y-9254685D01*
X99080771Y-8504685D01*
X101806142Y-4113571D02*
X101699000Y-4149285D01*
X101520428Y-4149285D01*
X101449000Y-4113571D01*
X101413285Y-4077857D01*
X101377571Y-4006428D01*
X101377571Y-3935000D01*
X101413285Y-3863571D01*
X101449000Y-3827857D01*
X101520428Y-3792142D01*
X101663285Y-3756428D01*
X101734714Y-3720714D01*
X101770428Y-3685000D01*
X101806142Y-3613571D01*
X101806142Y-3542142D01*
X101770428Y-3470714D01*
X101734714Y-3435000D01*
X101663285Y-3399285D01*
X101484714Y-3399285D01*
X101377571Y-3435000D01*
X101056142Y-3756428D02*
X100806142Y-3756428D01*
X100699000Y-4149285D02*
X101056142Y-4149285D01*
X101056142Y-3399285D01*
X100699000Y-3399285D01*
X99949000Y-4149285D02*
X100199000Y-3792142D01*
X100377571Y-4149285D02*
X100377571Y-3399285D01*
X100091857Y-3399285D01*
X100020428Y-3435000D01*
X99984714Y-3470714D01*
X99949000Y-3542142D01*
X99949000Y-3649285D01*
X99984714Y-3720714D01*
X100020428Y-3756428D01*
X100091857Y-3792142D01*
X100377571Y-3792142D01*
X99806142Y-4220714D02*
X99234714Y-4220714D01*
X99163285Y-3399285D02*
X98734714Y-3399285D01*
X98949000Y-4149285D02*
X98949000Y-3399285D01*
X98556142Y-3399285D02*
X98056142Y-4149285D01*
X98056142Y-3399285D02*
X98556142Y-4149285D01*
X100647428Y-5898800D02*
X100718857Y-5863085D01*
X100826000Y-5863085D01*
X100933142Y-5898800D01*
X101004571Y-5970228D01*
X101040285Y-6041657D01*
X101076000Y-6184514D01*
X101076000Y-6291657D01*
X101040285Y-6434514D01*
X101004571Y-6505942D01*
X100933142Y-6577371D01*
X100826000Y-6613085D01*
X100754571Y-6613085D01*
X100647428Y-6577371D01*
X100611714Y-6541657D01*
X100611714Y-6291657D01*
X100754571Y-6291657D01*
X100290285Y-6613085D02*
X100290285Y-5863085D01*
X99861714Y-6613085D01*
X99861714Y-5863085D01*
X99504571Y-6613085D02*
X99504571Y-5863085D01*
X99326000Y-5863085D01*
X99218857Y-5898800D01*
X99147428Y-5970228D01*
X99111714Y-6041657D01*
X99076000Y-6184514D01*
X99076000Y-6291657D01*
X99111714Y-6434514D01*
X99147428Y-6505942D01*
X99218857Y-6577371D01*
X99326000Y-6613085D01*
X99504571Y-6613085D01*
X56497571Y14895572D02*
X57097571Y14895572D01*
X56497571Y15238429D01*
X57097571Y15238429D01*
X56554714Y15867000D02*
X56526142Y15838429D01*
X56497571Y15752715D01*
X56497571Y15695572D01*
X56526142Y15609858D01*
X56583285Y15552715D01*
X56640428Y15524143D01*
X56754714Y15495572D01*
X56840428Y15495572D01*
X56954714Y15524143D01*
X57011857Y15552715D01*
X57069000Y15609858D01*
X57097571Y15695572D01*
X57097571Y15752715D01*
X57069000Y15838429D01*
X57040428Y15867000D01*
X64005666Y14150334D02*
X64005666Y14683667D01*
X64072333Y15250334D02*
X64405666Y15017000D01*
X64072333Y14850334D02*
X64772333Y14850334D01*
X64772333Y15117000D01*
X64739000Y15183667D01*
X64705666Y15217000D01*
X64639000Y15250334D01*
X64539000Y15250334D01*
X64472333Y15217000D01*
X64439000Y15183667D01*
X64405666Y15117000D01*
X64405666Y14850334D01*
X64105666Y15517000D02*
X64072333Y15617000D01*
X64072333Y15783667D01*
X64105666Y15850334D01*
X64139000Y15883667D01*
X64205666Y15917000D01*
X64272333Y15917000D01*
X64339000Y15883667D01*
X64372333Y15850334D01*
X64405666Y15783667D01*
X64439000Y15650334D01*
X64472333Y15583667D01*
X64505666Y15550334D01*
X64572333Y15517000D01*
X64639000Y15517000D01*
X64705666Y15550334D01*
X64739000Y15583667D01*
X64772333Y15650334D01*
X64772333Y15817000D01*
X64739000Y15917000D01*
X64772333Y16117000D02*
X64772333Y16517000D01*
X64072333Y16317000D02*
X64772333Y16317000D01*
X61465666Y14083667D02*
X61465666Y14617000D01*
X61532333Y14783667D02*
X62232333Y14783667D01*
X61732333Y15017000D01*
X62232333Y15250334D01*
X61532333Y15250334D01*
X62232333Y15483667D02*
X62232333Y15883667D01*
X61532333Y15683667D02*
X62232333Y15683667D01*
X61532333Y16517000D02*
X61865666Y16283667D01*
X61532333Y16117000D02*
X62232333Y16117000D01*
X62232333Y16383667D01*
X62199000Y16450334D01*
X62165666Y16483667D01*
X62099000Y16517000D01*
X61999000Y16517000D01*
X61932333Y16483667D01*
X61899000Y16450334D01*
X61865666Y16383667D01*
X61865666Y16117000D01*
X66875428Y13486000D02*
X66875428Y14057429D01*
X66589714Y13771715D02*
X67161142Y13771715D01*
X67339714Y14343143D02*
X67339714Y14807429D01*
X67054000Y14557429D01*
X67054000Y14664572D01*
X67018285Y14736000D01*
X66982571Y14771715D01*
X66911142Y14807429D01*
X66732571Y14807429D01*
X66661142Y14771715D01*
X66625428Y14736000D01*
X66589714Y14664572D01*
X66589714Y14450286D01*
X66625428Y14378858D01*
X66661142Y14343143D01*
X66661142Y15128858D02*
X66625428Y15164572D01*
X66589714Y15128858D01*
X66625428Y15093143D01*
X66661142Y15128858D01*
X66589714Y15128858D01*
X67339714Y15414572D02*
X67339714Y15878858D01*
X67054000Y15628858D01*
X67054000Y15736000D01*
X67018285Y15807429D01*
X66982571Y15843143D01*
X66911142Y15878858D01*
X66732571Y15878858D01*
X66661142Y15843143D01*
X66625428Y15807429D01*
X66589714Y15736000D01*
X66589714Y15521715D01*
X66625428Y15450286D01*
X66661142Y15414572D01*
X67339714Y16093143D02*
X66589714Y16343143D01*
X67339714Y16593143D01*
X34191530Y12351509D02*
X33786768Y12351509D01*
X33739149Y12375318D01*
X33715340Y12399128D01*
X33691530Y12446747D01*
X33691530Y12541985D01*
X33715340Y12589604D01*
X33739149Y12613413D01*
X33786768Y12637223D01*
X34191530Y12637223D01*
X33715340Y12851509D02*
X33691530Y12922937D01*
X33691530Y13041985D01*
X33715340Y13089604D01*
X33739149Y13113413D01*
X33786768Y13137223D01*
X33834387Y13137223D01*
X33882006Y13113413D01*
X33905816Y13089604D01*
X33929625Y13041985D01*
X33953435Y12946747D01*
X33977244Y12899128D01*
X34001054Y12875318D01*
X34048673Y12851509D01*
X34096292Y12851509D01*
X34143911Y12875318D01*
X34167721Y12899128D01*
X34191530Y12946747D01*
X34191530Y13065794D01*
X34167721Y13137223D01*
X33953435Y13518175D02*
X33929625Y13589604D01*
X33905816Y13613413D01*
X33858197Y13637223D01*
X33786768Y13637223D01*
X33739149Y13613413D01*
X33715340Y13589604D01*
X33691530Y13541985D01*
X33691530Y13351509D01*
X34191530Y13351509D01*
X34191530Y13518175D01*
X34167721Y13565794D01*
X34143911Y13589604D01*
X34096292Y13613413D01*
X34048673Y13613413D01*
X34001054Y13589604D01*
X33977244Y13565794D01*
X33953435Y13518175D01*
X33953435Y13351509D01*
X33643911Y13732461D02*
X33643911Y14113413D01*
X33739149Y14518175D02*
X33715340Y14494366D01*
X33691530Y14422937D01*
X33691530Y14375318D01*
X33715340Y14303890D01*
X33762959Y14256271D01*
X33810578Y14232461D01*
X33905816Y14208651D01*
X33977244Y14208651D01*
X34072482Y14232461D01*
X34120101Y14256271D01*
X34167721Y14303890D01*
X34191530Y14375318D01*
X34191530Y14422937D01*
X34167721Y14494366D01*
X34143911Y14518175D01*
X34191530Y14827699D02*
X34191530Y14922937D01*
X34167721Y14970556D01*
X34120101Y15018175D01*
X34024863Y15041985D01*
X33858197Y15041985D01*
X33762959Y15018175D01*
X33715340Y14970556D01*
X33691530Y14922937D01*
X33691530Y14827699D01*
X33715340Y14780080D01*
X33762959Y14732461D01*
X33858197Y14708651D01*
X34024863Y14708651D01*
X34120101Y14732461D01*
X34167721Y14780080D01*
X34191530Y14827699D01*
X33691530Y15256271D02*
X34191530Y15256271D01*
X33691530Y15541985D01*
X34191530Y15541985D01*
X33691530Y15780080D02*
X34191530Y15780080D01*
X33691530Y16065794D01*
X34191530Y16065794D01*
X58925666Y14167000D02*
X58925666Y14700334D01*
X59025666Y14833667D02*
X58992333Y14933667D01*
X58992333Y15100334D01*
X59025666Y15167000D01*
X59059000Y15200334D01*
X59125666Y15233667D01*
X59192333Y15233667D01*
X59259000Y15200334D01*
X59292333Y15167000D01*
X59325666Y15100334D01*
X59359000Y14967000D01*
X59392333Y14900334D01*
X59425666Y14867000D01*
X59492333Y14833667D01*
X59559000Y14833667D01*
X59625666Y14867000D01*
X59659000Y14900334D01*
X59692333Y14967000D01*
X59692333Y15133667D01*
X59659000Y15233667D01*
X59359000Y15533667D02*
X59359000Y15767000D01*
X58992333Y15867000D02*
X58992333Y15533667D01*
X59692333Y15533667D01*
X59692333Y15867000D01*
X58992333Y16500334D02*
X58992333Y16167000D01*
X59692333Y16167000D01*
X69844000Y14414572D02*
X69879714Y14343143D01*
X69879714Y14236000D01*
X69844000Y14128858D01*
X69772571Y14057429D01*
X69701142Y14021715D01*
X69558285Y13986000D01*
X69451142Y13986000D01*
X69308285Y14021715D01*
X69236857Y14057429D01*
X69165428Y14128858D01*
X69129714Y14236000D01*
X69129714Y14307429D01*
X69165428Y14414572D01*
X69201142Y14450286D01*
X69451142Y14450286D01*
X69451142Y14307429D01*
X69129714Y14771715D02*
X69879714Y14771715D01*
X69129714Y15200286D01*
X69879714Y15200286D01*
X69129714Y15557429D02*
X69879714Y15557429D01*
X69879714Y15736000D01*
X69844000Y15843143D01*
X69772571Y15914572D01*
X69701142Y15950286D01*
X69558285Y15986000D01*
X69451142Y15986000D01*
X69308285Y15950286D01*
X69236857Y15914572D01*
X69165428Y15843143D01*
X69129714Y15736000D01*
X69129714Y15557429D01*
X72384000Y14414572D02*
X72419714Y14343143D01*
X72419714Y14236000D01*
X72384000Y14128858D01*
X72312571Y14057429D01*
X72241142Y14021715D01*
X72098285Y13986000D01*
X71991142Y13986000D01*
X71848285Y14021715D01*
X71776857Y14057429D01*
X71705428Y14128858D01*
X71669714Y14236000D01*
X71669714Y14307429D01*
X71705428Y14414572D01*
X71741142Y14450286D01*
X71991142Y14450286D01*
X71991142Y14307429D01*
X71669714Y14771715D02*
X72419714Y14771715D01*
X71669714Y15200286D01*
X72419714Y15200286D01*
X71669714Y15557429D02*
X72419714Y15557429D01*
X72419714Y15736000D01*
X72384000Y15843143D01*
X72312571Y15914572D01*
X72241142Y15950286D01*
X72098285Y15986000D01*
X71991142Y15986000D01*
X71848285Y15950286D01*
X71776857Y15914572D01*
X71705428Y15843143D01*
X71669714Y15736000D01*
X71669714Y15557429D01*
X26015190Y14521762D02*
X26015190Y14902715D01*
X26205666Y14997953D02*
X26205666Y15236048D01*
X26062809Y14950334D02*
X26562809Y15117000D01*
X26062809Y15283667D01*
X26110428Y15736048D02*
X26086619Y15712239D01*
X26062809Y15640810D01*
X26062809Y15593191D01*
X26086619Y15521762D01*
X26134238Y15474143D01*
X26181857Y15450334D01*
X26277095Y15426524D01*
X26348523Y15426524D01*
X26443761Y15450334D01*
X26491380Y15474143D01*
X26539000Y15521762D01*
X26562809Y15593191D01*
X26562809Y15640810D01*
X26539000Y15712239D01*
X26515190Y15736048D01*
X26562809Y15878905D02*
X26562809Y16164620D01*
X26062809Y16021762D02*
X26562809Y16021762D01*
X31112666Y39930667D02*
X31112666Y40464000D01*
X31179333Y40630667D02*
X31879333Y40630667D01*
X31879333Y40797334D01*
X31846000Y40897334D01*
X31779333Y40964000D01*
X31712666Y40997334D01*
X31579333Y41030667D01*
X31479333Y41030667D01*
X31346000Y40997334D01*
X31279333Y40964000D01*
X31212666Y40897334D01*
X31179333Y40797334D01*
X31179333Y40630667D01*
X31546000Y41330667D02*
X31546000Y41564000D01*
X31179333Y41664000D02*
X31179333Y41330667D01*
X31879333Y41330667D01*
X31879333Y41664000D01*
X31179333Y41964000D02*
X31879333Y41964000D01*
X31179333Y42364000D01*
X31879333Y42364000D01*
X31212666Y42664000D02*
X31179333Y42764000D01*
X31179333Y42930667D01*
X31212666Y42997334D01*
X31246000Y43030667D01*
X31312666Y43064000D01*
X31379333Y43064000D01*
X31446000Y43030667D01*
X31479333Y42997334D01*
X31512666Y42930667D01*
X31546000Y42797334D01*
X31579333Y42730667D01*
X31612666Y42697334D01*
X31679333Y42664000D01*
X31746000Y42664000D01*
X31812666Y42697334D01*
X31846000Y42730667D01*
X31879333Y42797334D01*
X31879333Y42964000D01*
X31846000Y43064000D01*
X31546000Y43364000D02*
X31546000Y43597334D01*
X31179333Y43697334D02*
X31179333Y43364000D01*
X31879333Y43364000D01*
X31879333Y43697334D01*
X31179333Y44330667D02*
X31179333Y43997334D01*
X31879333Y43997334D01*
X26791000Y40894072D02*
X26826714Y40822643D01*
X26826714Y40715500D01*
X26791000Y40608358D01*
X26719571Y40536929D01*
X26648142Y40501215D01*
X26505285Y40465500D01*
X26398142Y40465500D01*
X26255285Y40501215D01*
X26183857Y40536929D01*
X26112428Y40608358D01*
X26076714Y40715500D01*
X26076714Y40786929D01*
X26112428Y40894072D01*
X26148142Y40929786D01*
X26398142Y40929786D01*
X26398142Y40786929D01*
X26076714Y41251215D02*
X26826714Y41251215D01*
X26076714Y41679786D01*
X26826714Y41679786D01*
X26076714Y42036929D02*
X26826714Y42036929D01*
X26826714Y42215500D01*
X26791000Y42322643D01*
X26719571Y42394072D01*
X26648142Y42429786D01*
X26505285Y42465500D01*
X26398142Y42465500D01*
X26255285Y42429786D01*
X26183857Y42394072D01*
X26112428Y42322643D01*
X26076714Y42215500D01*
X26076714Y42036929D01*
X28902428Y40501215D02*
X28902428Y41072643D01*
X28616714Y40786929D02*
X29188142Y40786929D01*
X29366714Y41786929D02*
X29366714Y41429786D01*
X29009571Y41394072D01*
X29045285Y41429786D01*
X29081000Y41501215D01*
X29081000Y41679786D01*
X29045285Y41751215D01*
X29009571Y41786929D01*
X28938142Y41822643D01*
X28759571Y41822643D01*
X28688142Y41786929D01*
X28652428Y41751215D01*
X28616714Y41679786D01*
X28616714Y41501215D01*
X28652428Y41429786D01*
X28688142Y41394072D01*
X29366714Y42036929D02*
X28616714Y42286929D01*
X29366714Y42536929D01*
X59193142Y40170286D02*
X59164571Y40256000D01*
X59164571Y40398858D01*
X59193142Y40456000D01*
X59221714Y40484572D01*
X59278857Y40513143D01*
X59336000Y40513143D01*
X59393142Y40484572D01*
X59421714Y40456000D01*
X59450285Y40398858D01*
X59478857Y40284572D01*
X59507428Y40227429D01*
X59536000Y40198858D01*
X59593142Y40170286D01*
X59650285Y40170286D01*
X59707428Y40198858D01*
X59736000Y40227429D01*
X59764571Y40284572D01*
X59764571Y40427429D01*
X59736000Y40513143D01*
X59478857Y40770286D02*
X59478857Y40970286D01*
X59164571Y41056000D02*
X59164571Y40770286D01*
X59764571Y40770286D01*
X59764571Y41056000D01*
X59164571Y41656000D02*
X59450285Y41456000D01*
X59164571Y41313143D02*
X59764571Y41313143D01*
X59764571Y41541715D01*
X59736000Y41598858D01*
X59707428Y41627429D01*
X59650285Y41656000D01*
X59564571Y41656000D01*
X59507428Y41627429D01*
X59478857Y41598858D01*
X59450285Y41541715D01*
X59450285Y41313143D01*
X59107428Y41770286D02*
X59107428Y42227429D01*
X59764571Y42284572D02*
X59764571Y42627429D01*
X59164571Y42456000D02*
X59764571Y42456000D01*
X59764571Y42770286D02*
X59164571Y43170286D01*
X59764571Y43170286D02*
X59164571Y42770286D01*
X46407428Y40036929D02*
X46407428Y40494072D01*
X46464571Y40636929D02*
X47064571Y40636929D01*
X47064571Y40779786D01*
X47036000Y40865500D01*
X46978857Y40922643D01*
X46921714Y40951215D01*
X46807428Y40979786D01*
X46721714Y40979786D01*
X46607428Y40951215D01*
X46550285Y40922643D01*
X46493142Y40865500D01*
X46464571Y40779786D01*
X46464571Y40636929D01*
X46464571Y41236929D02*
X47064571Y41236929D01*
X46464571Y41579786D02*
X46807428Y41322643D01*
X47064571Y41579786D02*
X46721714Y41236929D01*
X46464571Y42179786D02*
X46750285Y41979786D01*
X46464571Y41836929D02*
X47064571Y41836929D01*
X47064571Y42065500D01*
X47036000Y42122643D01*
X47007428Y42151215D01*
X46950285Y42179786D01*
X46864571Y42179786D01*
X46807428Y42151215D01*
X46778857Y42122643D01*
X46750285Y42065500D01*
X46750285Y41836929D01*
X46464571Y42436929D02*
X47064571Y42436929D01*
X47064571Y42579786D01*
X47036000Y42665500D01*
X46978857Y42722643D01*
X46921714Y42751215D01*
X46807428Y42779786D01*
X46721714Y42779786D01*
X46607428Y42751215D01*
X46550285Y42722643D01*
X46493142Y42665500D01*
X46464571Y42579786D01*
X46464571Y42436929D01*
X69267428Y40087715D02*
X69267428Y40544858D01*
X69353142Y40659143D02*
X69324571Y40744858D01*
X69324571Y40887715D01*
X69353142Y40944858D01*
X69381714Y40973429D01*
X69438857Y41002000D01*
X69496000Y41002000D01*
X69553142Y40973429D01*
X69581714Y40944858D01*
X69610285Y40887715D01*
X69638857Y40773429D01*
X69667428Y40716286D01*
X69696000Y40687715D01*
X69753142Y40659143D01*
X69810285Y40659143D01*
X69867428Y40687715D01*
X69896000Y40716286D01*
X69924571Y40773429D01*
X69924571Y40916286D01*
X69896000Y41002000D01*
X69924571Y41173429D02*
X69924571Y41516286D01*
X69324571Y41344858D02*
X69924571Y41344858D01*
X69638857Y41716286D02*
X69638857Y41916286D01*
X69324571Y42002000D02*
X69324571Y41716286D01*
X69924571Y41716286D01*
X69924571Y42002000D01*
X69324571Y42259143D02*
X69924571Y42259143D01*
X69924571Y42487715D01*
X69896000Y42544858D01*
X69867428Y42573429D01*
X69810285Y42602000D01*
X69724571Y42602000D01*
X69667428Y42573429D01*
X69638857Y42544858D01*
X69610285Y42487715D01*
X69610285Y42259143D01*
X52144571Y40062358D02*
X51658857Y40062358D01*
X51601714Y40090929D01*
X51573142Y40119500D01*
X51544571Y40176643D01*
X51544571Y40290929D01*
X51573142Y40348072D01*
X51601714Y40376643D01*
X51658857Y40405215D01*
X52144571Y40405215D01*
X51573142Y40662358D02*
X51544571Y40748072D01*
X51544571Y40890929D01*
X51573142Y40948072D01*
X51601714Y40976643D01*
X51658857Y41005215D01*
X51716000Y41005215D01*
X51773142Y40976643D01*
X51801714Y40948072D01*
X51830285Y40890929D01*
X51858857Y40776643D01*
X51887428Y40719500D01*
X51916000Y40690929D01*
X51973142Y40662358D01*
X52030285Y40662358D01*
X52087428Y40690929D01*
X52116000Y40719500D01*
X52144571Y40776643D01*
X52144571Y40919500D01*
X52116000Y41005215D01*
X51858857Y41462358D02*
X51830285Y41548072D01*
X51801714Y41576643D01*
X51744571Y41605215D01*
X51658857Y41605215D01*
X51601714Y41576643D01*
X51573142Y41548072D01*
X51544571Y41490929D01*
X51544571Y41262358D01*
X52144571Y41262358D01*
X52144571Y41462358D01*
X52116000Y41519500D01*
X52087428Y41548072D01*
X52030285Y41576643D01*
X51973142Y41576643D01*
X51916000Y41548072D01*
X51887428Y41519500D01*
X51858857Y41462358D01*
X51858857Y41262358D01*
X51487428Y41719500D02*
X51487428Y42176643D01*
X51544571Y42319500D02*
X52144571Y42319500D01*
X52144571Y42462358D01*
X52116000Y42548072D01*
X52058857Y42605215D01*
X52001714Y42633786D01*
X51887428Y42662358D01*
X51801714Y42662358D01*
X51687428Y42633786D01*
X51630285Y42605215D01*
X51573142Y42548072D01*
X51544571Y42462358D01*
X51544571Y42319500D01*
X51773142Y42919500D02*
X51773142Y43376643D01*
X51544571Y43148072D02*
X52001714Y43148072D01*
X71752666Y40078167D02*
X71752666Y40611500D01*
X71819333Y40778167D02*
X72519333Y40778167D01*
X72519333Y40944834D01*
X72486000Y41044834D01*
X72419333Y41111500D01*
X72352666Y41144834D01*
X72219333Y41178167D01*
X72119333Y41178167D01*
X71986000Y41144834D01*
X71919333Y41111500D01*
X71852666Y41044834D01*
X71819333Y40944834D01*
X71819333Y40778167D01*
X71819333Y41478167D02*
X72519333Y41478167D01*
X71819333Y42211500D02*
X72152666Y41978167D01*
X71819333Y41811500D02*
X72519333Y41811500D01*
X72519333Y42078167D01*
X72486000Y42144834D01*
X72452666Y42178167D01*
X72386000Y42211500D01*
X72286000Y42211500D01*
X72219333Y42178167D01*
X72186000Y42144834D01*
X72152666Y42078167D01*
X72152666Y41811500D01*
X64187428Y40300429D02*
X64187428Y40757572D01*
X64273142Y40871858D02*
X64244571Y40957572D01*
X64244571Y41100429D01*
X64273142Y41157572D01*
X64301714Y41186143D01*
X64358857Y41214715D01*
X64416000Y41214715D01*
X64473142Y41186143D01*
X64501714Y41157572D01*
X64530285Y41100429D01*
X64558857Y40986143D01*
X64587428Y40929000D01*
X64616000Y40900429D01*
X64673142Y40871858D01*
X64730285Y40871858D01*
X64787428Y40900429D01*
X64816000Y40929000D01*
X64844571Y40986143D01*
X64844571Y41129000D01*
X64816000Y41214715D01*
X64244571Y41471858D02*
X64844571Y41471858D01*
X64244571Y41757572D02*
X64844571Y41757572D01*
X64844571Y41900429D01*
X64816000Y41986143D01*
X64758857Y42043286D01*
X64701714Y42071858D01*
X64587428Y42100429D01*
X64501714Y42100429D01*
X64387428Y42071858D01*
X64330285Y42043286D01*
X64273142Y41986143D01*
X64244571Y41900429D01*
X64244571Y41757572D01*
X64558857Y42357572D02*
X64558857Y42557572D01*
X64244571Y42643286D02*
X64244571Y42357572D01*
X64844571Y42357572D01*
X64844571Y42643286D01*
X56653142Y40035358D02*
X56624571Y40121072D01*
X56624571Y40263929D01*
X56653142Y40321072D01*
X56681714Y40349643D01*
X56738857Y40378215D01*
X56796000Y40378215D01*
X56853142Y40349643D01*
X56881714Y40321072D01*
X56910285Y40263929D01*
X56938857Y40149643D01*
X56967428Y40092500D01*
X56996000Y40063929D01*
X57053142Y40035358D01*
X57110285Y40035358D01*
X57167428Y40063929D01*
X57196000Y40092500D01*
X57224571Y40149643D01*
X57224571Y40292500D01*
X57196000Y40378215D01*
X56938857Y40635358D02*
X56938857Y40835358D01*
X56624571Y40921072D02*
X56624571Y40635358D01*
X57224571Y40635358D01*
X57224571Y40921072D01*
X56624571Y41521072D02*
X56910285Y41321072D01*
X56624571Y41178215D02*
X57224571Y41178215D01*
X57224571Y41406786D01*
X57196000Y41463929D01*
X57167428Y41492500D01*
X57110285Y41521072D01*
X57024571Y41521072D01*
X56967428Y41492500D01*
X56938857Y41463929D01*
X56910285Y41406786D01*
X56910285Y41178215D01*
X56567428Y41635358D02*
X56567428Y42092500D01*
X56624571Y42578215D02*
X56910285Y42378215D01*
X56624571Y42235358D02*
X57224571Y42235358D01*
X57224571Y42463929D01*
X57196000Y42521072D01*
X57167428Y42549643D01*
X57110285Y42578215D01*
X57024571Y42578215D01*
X56967428Y42549643D01*
X56938857Y42521072D01*
X56910285Y42463929D01*
X56910285Y42235358D01*
X57224571Y42778215D02*
X56624571Y43178215D01*
X57224571Y43178215D02*
X56624571Y42778215D01*
X54684571Y40062358D02*
X54198857Y40062358D01*
X54141714Y40090929D01*
X54113142Y40119500D01*
X54084571Y40176643D01*
X54084571Y40290929D01*
X54113142Y40348072D01*
X54141714Y40376643D01*
X54198857Y40405215D01*
X54684571Y40405215D01*
X54113142Y40662358D02*
X54084571Y40748072D01*
X54084571Y40890929D01*
X54113142Y40948072D01*
X54141714Y40976643D01*
X54198857Y41005215D01*
X54256000Y41005215D01*
X54313142Y40976643D01*
X54341714Y40948072D01*
X54370285Y40890929D01*
X54398857Y40776643D01*
X54427428Y40719500D01*
X54456000Y40690929D01*
X54513142Y40662358D01*
X54570285Y40662358D01*
X54627428Y40690929D01*
X54656000Y40719500D01*
X54684571Y40776643D01*
X54684571Y40919500D01*
X54656000Y41005215D01*
X54398857Y41462358D02*
X54370285Y41548072D01*
X54341714Y41576643D01*
X54284571Y41605215D01*
X54198857Y41605215D01*
X54141714Y41576643D01*
X54113142Y41548072D01*
X54084571Y41490929D01*
X54084571Y41262358D01*
X54684571Y41262358D01*
X54684571Y41462358D01*
X54656000Y41519500D01*
X54627428Y41548072D01*
X54570285Y41576643D01*
X54513142Y41576643D01*
X54456000Y41548072D01*
X54427428Y41519500D01*
X54398857Y41462358D01*
X54398857Y41262358D01*
X54027428Y41719500D02*
X54027428Y42176643D01*
X54084571Y42319500D02*
X54684571Y42319500D01*
X54684571Y42462358D01*
X54656000Y42548072D01*
X54598857Y42605215D01*
X54541714Y42633786D01*
X54427428Y42662358D01*
X54341714Y42662358D01*
X54227428Y42633786D01*
X54170285Y42605215D01*
X54113142Y42548072D01*
X54084571Y42462358D01*
X54084571Y42319500D01*
X54313142Y42919500D02*
X54313142Y43376643D01*
X66727428Y39959143D02*
X66727428Y40416286D01*
X66784571Y40559143D02*
X67384571Y40559143D01*
X67384571Y40702000D01*
X67356000Y40787715D01*
X67298857Y40844858D01*
X67241714Y40873429D01*
X67127428Y40902000D01*
X67041714Y40902000D01*
X66927428Y40873429D01*
X66870285Y40844858D01*
X66813142Y40787715D01*
X66784571Y40702000D01*
X66784571Y40559143D01*
X66784571Y41159143D02*
X67384571Y41159143D01*
X66784571Y41502000D02*
X67127428Y41244858D01*
X67384571Y41502000D02*
X67041714Y41159143D01*
X67384571Y41702000D02*
X66784571Y41844858D01*
X67213142Y41959143D01*
X66784571Y42073429D01*
X67384571Y42216286D01*
X67098857Y42444858D02*
X67098857Y42644858D01*
X66784571Y42730572D02*
X66784571Y42444858D01*
X67384571Y42444858D01*
X67384571Y42730572D01*
X33707428Y40149715D02*
X33707428Y40606858D01*
X34364571Y40692572D02*
X33764571Y40835429D01*
X34193142Y40949715D01*
X33764571Y41064000D01*
X34364571Y41206858D01*
X33764571Y41778286D02*
X34050285Y41578286D01*
X33764571Y41435429D02*
X34364571Y41435429D01*
X34364571Y41664000D01*
X34336000Y41721143D01*
X34307428Y41749715D01*
X34250285Y41778286D01*
X34164571Y41778286D01*
X34107428Y41749715D01*
X34078857Y41721143D01*
X34050285Y41664000D01*
X34050285Y41435429D01*
X33764571Y42035429D02*
X34364571Y42035429D01*
X34364571Y42264000D01*
X34336000Y42321143D01*
X34307428Y42349715D01*
X34250285Y42378286D01*
X34164571Y42378286D01*
X34107428Y42349715D01*
X34078857Y42321143D01*
X34050285Y42264000D01*
X34050285Y42035429D01*
X33764571Y42978286D02*
X34050285Y42778286D01*
X33764571Y42635429D02*
X34364571Y42635429D01*
X34364571Y42864000D01*
X34336000Y42921143D01*
X34307428Y42949715D01*
X34250285Y42978286D01*
X34164571Y42978286D01*
X34107428Y42949715D01*
X34078857Y42921143D01*
X34050285Y42864000D01*
X34050285Y42635429D01*
X34364571Y43349715D02*
X34364571Y43464000D01*
X34336000Y43521143D01*
X34278857Y43578286D01*
X34164571Y43606858D01*
X33964571Y43606858D01*
X33850285Y43578286D01*
X33793142Y43521143D01*
X33764571Y43464000D01*
X33764571Y43349715D01*
X33793142Y43292572D01*
X33850285Y43235429D01*
X33964571Y43206858D01*
X34164571Y43206858D01*
X34278857Y43235429D01*
X34336000Y43292572D01*
X34364571Y43349715D01*
X34364571Y43778286D02*
X34364571Y44121143D01*
X33764571Y43949715D02*
X34364571Y43949715D01*
X43812666Y39939334D02*
X43812666Y40472667D01*
X43879333Y40639334D02*
X44579333Y40639334D01*
X44579333Y40806000D01*
X44546000Y40906000D01*
X44479333Y40972667D01*
X44412666Y41006000D01*
X44279333Y41039334D01*
X44179333Y41039334D01*
X44046000Y41006000D01*
X43979333Y40972667D01*
X43912666Y40906000D01*
X43879333Y40806000D01*
X43879333Y40639334D01*
X43879333Y41339334D02*
X44579333Y41339334D01*
X43879333Y41739334D02*
X44279333Y41439334D01*
X44579333Y41739334D02*
X44179333Y41339334D01*
X44579333Y41972667D02*
X43879333Y42139334D01*
X44379333Y42272667D01*
X43879333Y42406000D01*
X44579333Y42572667D01*
X43879333Y42839334D02*
X44579333Y42839334D01*
X44579333Y43006000D01*
X44546000Y43106000D01*
X44479333Y43172667D01*
X44412666Y43206000D01*
X44279333Y43239334D01*
X44179333Y43239334D01*
X44046000Y43206000D01*
X43979333Y43172667D01*
X43912666Y43106000D01*
X43879333Y43006000D01*
X43879333Y42839334D01*
X41384571Y40930572D02*
X41984571Y40930572D01*
X41384571Y41273429D01*
X41984571Y41273429D01*
X41441714Y41902000D02*
X41413142Y41873429D01*
X41384571Y41787715D01*
X41384571Y41730572D01*
X41413142Y41644858D01*
X41470285Y41587715D01*
X41527428Y41559143D01*
X41641714Y41530572D01*
X41727428Y41530572D01*
X41841714Y41559143D01*
X41898857Y41587715D01*
X41956000Y41644858D01*
X41984571Y41730572D01*
X41984571Y41787715D01*
X41956000Y41873429D01*
X41927428Y41902000D01*
X38787428Y39986143D02*
X38787428Y40443286D01*
X38844571Y40586143D02*
X39444571Y40586143D01*
X38844571Y40871858D02*
X39444571Y40871858D01*
X38844571Y41214715D01*
X39444571Y41214715D01*
X38844571Y41500429D02*
X39444571Y41500429D01*
X39444571Y41643286D01*
X39416000Y41729000D01*
X39358857Y41786143D01*
X39301714Y41814715D01*
X39187428Y41843286D01*
X39101714Y41843286D01*
X38987428Y41814715D01*
X38930285Y41786143D01*
X38873142Y41729000D01*
X38844571Y41643286D01*
X38844571Y41500429D01*
X39158857Y42100429D02*
X39158857Y42300429D01*
X38844571Y42386143D02*
X38844571Y42100429D01*
X39444571Y42100429D01*
X39444571Y42386143D01*
X39444571Y42586143D02*
X38844571Y42986143D01*
X39444571Y42986143D02*
X38844571Y42586143D01*
X36192666Y40089334D02*
X36192666Y40622667D01*
X36959333Y40689334D02*
X36959333Y41089334D01*
X36259333Y40889334D02*
X36959333Y40889334D01*
X36259333Y41722667D02*
X36592666Y41489334D01*
X36259333Y41322667D02*
X36959333Y41322667D01*
X36959333Y41589334D01*
X36926000Y41656000D01*
X36892666Y41689334D01*
X36826000Y41722667D01*
X36726000Y41722667D01*
X36659333Y41689334D01*
X36626000Y41656000D01*
X36592666Y41589334D01*
X36592666Y41322667D01*
X36259333Y42022667D02*
X36959333Y42022667D01*
X36259333Y42422667D02*
X36659333Y42122667D01*
X36959333Y42422667D02*
X36559333Y42022667D01*
X36959333Y42856000D02*
X36959333Y42922667D01*
X36926000Y42989334D01*
X36892666Y43022667D01*
X36826000Y43056000D01*
X36692666Y43089334D01*
X36526000Y43089334D01*
X36392666Y43056000D01*
X36326000Y43022667D01*
X36292666Y42989334D01*
X36259333Y42922667D01*
X36259333Y42856000D01*
X36292666Y42789334D01*
X36326000Y42756000D01*
X36392666Y42722667D01*
X36526000Y42689334D01*
X36692666Y42689334D01*
X36826000Y42722667D01*
X36892666Y42756000D01*
X36926000Y42789334D01*
X36959333Y42856000D01*
X23822428Y39965500D02*
X23822428Y40536929D01*
X23536714Y40251215D02*
X24108142Y40251215D01*
X24286714Y40822643D02*
X24286714Y41286929D01*
X24001000Y41036929D01*
X24001000Y41144072D01*
X23965285Y41215500D01*
X23929571Y41251215D01*
X23858142Y41286929D01*
X23679571Y41286929D01*
X23608142Y41251215D01*
X23572428Y41215500D01*
X23536714Y41144072D01*
X23536714Y40929786D01*
X23572428Y40858358D01*
X23608142Y40822643D01*
X23608142Y41608358D02*
X23572428Y41644072D01*
X23536714Y41608358D01*
X23572428Y41572643D01*
X23608142Y41608358D01*
X23536714Y41608358D01*
X24286714Y41894072D02*
X24286714Y42358358D01*
X24001000Y42108358D01*
X24001000Y42215500D01*
X23965285Y42286929D01*
X23929571Y42322643D01*
X23858142Y42358358D01*
X23679571Y42358358D01*
X23608142Y42322643D01*
X23572428Y42286929D01*
X23536714Y42215500D01*
X23536714Y42001215D01*
X23572428Y41929786D01*
X23608142Y41894072D01*
X24286714Y42572643D02*
X23536714Y42822643D01*
X24286714Y43072643D01*
D11*
X88899085Y24089129D02*
X88327657Y24089129D01*
X88613371Y23803415D02*
X88613371Y24374843D01*
X87613371Y24553415D02*
X87970514Y24553415D01*
X88006228Y24196272D01*
X87970514Y24231986D01*
X87899085Y24267700D01*
X87720514Y24267700D01*
X87649085Y24231986D01*
X87613371Y24196272D01*
X87577657Y24124843D01*
X87577657Y23946272D01*
X87613371Y23874843D01*
X87649085Y23839129D01*
X87720514Y23803415D01*
X87899085Y23803415D01*
X87970514Y23839129D01*
X88006228Y23874843D01*
X87363371Y24553415D02*
X87113371Y23803415D01*
X86863371Y24553415D01*
X88888628Y27029915D02*
X88888628Y26422772D01*
X88852914Y26351343D01*
X88817200Y26315629D01*
X88745771Y26279915D01*
X88602914Y26279915D01*
X88531485Y26315629D01*
X88495771Y26351343D01*
X88460057Y26422772D01*
X88460057Y27029915D01*
X88138628Y26315629D02*
X88031485Y26279915D01*
X87852914Y26279915D01*
X87781485Y26315629D01*
X87745771Y26351343D01*
X87710057Y26422772D01*
X87710057Y26494200D01*
X87745771Y26565629D01*
X87781485Y26601343D01*
X87852914Y26637058D01*
X87995771Y26672772D01*
X88067200Y26708486D01*
X88102914Y26744200D01*
X88138628Y26815629D01*
X88138628Y26887058D01*
X88102914Y26958486D01*
X88067200Y26994200D01*
X87995771Y27029915D01*
X87817200Y27029915D01*
X87710057Y26994200D01*
X87138628Y26672772D02*
X87031485Y26637058D01*
X86995771Y26601343D01*
X86960057Y26529915D01*
X86960057Y26422772D01*
X86995771Y26351343D01*
X87031485Y26315629D01*
X87102914Y26279915D01*
X87388628Y26279915D01*
X87388628Y27029915D01*
X87138628Y27029915D01*
X87067200Y26994200D01*
X87031485Y26958486D01*
X86995771Y26887058D01*
X86995771Y26815629D01*
X87031485Y26744200D01*
X87067200Y26708486D01*
X87138628Y26672772D01*
X87388628Y26672772D01*
X86817200Y26208486D02*
X86245771Y26208486D01*
X86067200Y26279915D02*
X86067200Y27029915D01*
X85888628Y27029915D01*
X85781485Y26994200D01*
X85710057Y26922772D01*
X85674342Y26851343D01*
X85638628Y26708486D01*
X85638628Y26601343D01*
X85674342Y26458486D01*
X85710057Y26387058D01*
X85781485Y26315629D01*
X85888628Y26279915D01*
X86067200Y26279915D01*
X85317200Y26565629D02*
X84745771Y26565629D01*
X88888628Y29442915D02*
X88888628Y28835772D01*
X88852914Y28764343D01*
X88817200Y28728629D01*
X88745771Y28692915D01*
X88602914Y28692915D01*
X88531485Y28728629D01*
X88495771Y28764343D01*
X88460057Y28835772D01*
X88460057Y29442915D01*
X88138628Y28728629D02*
X88031485Y28692915D01*
X87852914Y28692915D01*
X87781485Y28728629D01*
X87745771Y28764343D01*
X87710057Y28835772D01*
X87710057Y28907200D01*
X87745771Y28978629D01*
X87781485Y29014343D01*
X87852914Y29050058D01*
X87995771Y29085772D01*
X88067200Y29121486D01*
X88102914Y29157200D01*
X88138628Y29228629D01*
X88138628Y29300058D01*
X88102914Y29371486D01*
X88067200Y29407200D01*
X87995771Y29442915D01*
X87817200Y29442915D01*
X87710057Y29407200D01*
X87138628Y29085772D02*
X87031485Y29050058D01*
X86995771Y29014343D01*
X86960057Y28942915D01*
X86960057Y28835772D01*
X86995771Y28764343D01*
X87031485Y28728629D01*
X87102914Y28692915D01*
X87388628Y28692915D01*
X87388628Y29442915D01*
X87138628Y29442915D01*
X87067200Y29407200D01*
X87031485Y29371486D01*
X86995771Y29300058D01*
X86995771Y29228629D01*
X87031485Y29157200D01*
X87067200Y29121486D01*
X87138628Y29085772D01*
X87388628Y29085772D01*
X86817200Y28621486D02*
X86245771Y28621486D01*
X86067200Y28692915D02*
X86067200Y29442915D01*
X85888628Y29442915D01*
X85781485Y29407200D01*
X85710057Y29335772D01*
X85674342Y29264343D01*
X85638628Y29121486D01*
X85638628Y29014343D01*
X85674342Y28871486D01*
X85710057Y28800058D01*
X85781485Y28728629D01*
X85888628Y28692915D01*
X86067200Y28692915D01*
X85317200Y28978629D02*
X84745771Y28978629D01*
X85031485Y28692915D02*
X85031485Y29264343D01*
X88455428Y31782100D02*
X88526857Y31817815D01*
X88634000Y31817815D01*
X88741142Y31782100D01*
X88812571Y31710672D01*
X88848285Y31639243D01*
X88884000Y31496386D01*
X88884000Y31389243D01*
X88848285Y31246386D01*
X88812571Y31174958D01*
X88741142Y31103529D01*
X88634000Y31067815D01*
X88562571Y31067815D01*
X88455428Y31103529D01*
X88419714Y31139243D01*
X88419714Y31389243D01*
X88562571Y31389243D01*
X88098285Y31067815D02*
X88098285Y31817815D01*
X87669714Y31067815D01*
X87669714Y31817815D01*
X87312571Y31067815D02*
X87312571Y31817815D01*
X87134000Y31817815D01*
X87026857Y31782100D01*
X86955428Y31710672D01*
X86919714Y31639243D01*
X86884000Y31496386D01*
X86884000Y31389243D01*
X86919714Y31246386D01*
X86955428Y31174958D01*
X87026857Y31103529D01*
X87134000Y31067815D01*
X87312571Y31067815D01*
D10*
X2757428Y-271428D02*
X2757428Y328572D01*
X2414571Y-271428D01*
X2414571Y328572D01*
X1786000Y-214285D02*
X1814571Y-242857D01*
X1900285Y-271428D01*
X1957428Y-271428D01*
X2043142Y-242857D01*
X2100285Y-185714D01*
X2128857Y-128571D01*
X2157428Y-14285D01*
X2157428Y71429D01*
X2128857Y185715D01*
X2100285Y242858D01*
X2043142Y300000D01*
X1957428Y328572D01*
X1900285Y328572D01*
X1814571Y300000D01*
X1786000Y271429D01*
X3719333Y2156667D02*
X3186000Y2156667D01*
X3052666Y2256667D02*
X2952666Y2223334D01*
X2786000Y2223334D01*
X2719333Y2256667D01*
X2686000Y2290000D01*
X2652666Y2356667D01*
X2652666Y2423334D01*
X2686000Y2490000D01*
X2719333Y2523334D01*
X2786000Y2556667D01*
X2919333Y2590000D01*
X2986000Y2623334D01*
X3019333Y2656667D01*
X3052666Y2723334D01*
X3052666Y2790000D01*
X3019333Y2856667D01*
X2986000Y2890000D01*
X2919333Y2923334D01*
X2752666Y2923334D01*
X2652666Y2890000D01*
X2352666Y2223334D02*
X2352666Y2923334D01*
X2019333Y2223334D02*
X2019333Y2923334D01*
X1852666Y2923334D01*
X1752666Y2890000D01*
X1686000Y2823334D01*
X1652666Y2756667D01*
X1619333Y2623334D01*
X1619333Y2523334D01*
X1652666Y2390000D01*
X1686000Y2323334D01*
X1752666Y2256667D01*
X1852666Y2223334D01*
X2019333Y2223334D01*
X1319333Y2590000D02*
X1086000Y2590000D01*
X986000Y2223334D02*
X1319333Y2223334D01*
X1319333Y2923334D01*
X986000Y2923334D01*
X4206666Y4696667D02*
X3673333Y4696667D01*
X3506666Y4763334D02*
X3506666Y5463334D01*
X3340000Y5463334D01*
X3240000Y5430000D01*
X3173333Y5363334D01*
X3140000Y5296667D01*
X3106666Y5163334D01*
X3106666Y5063334D01*
X3140000Y4930000D01*
X3173333Y4863334D01*
X3240000Y4796667D01*
X3340000Y4763334D01*
X3506666Y4763334D01*
X2806666Y4763334D02*
X2806666Y5463334D01*
X2406666Y4763334D02*
X2706666Y5163334D01*
X2406666Y5463334D02*
X2806666Y5063334D01*
X1706666Y4763334D02*
X1940000Y5096667D01*
X2106666Y4763334D02*
X2106666Y5463334D01*
X1840000Y5463334D01*
X1773333Y5430000D01*
X1740000Y5396667D01*
X1706666Y5330000D01*
X1706666Y5230000D01*
X1740000Y5163334D01*
X1773333Y5130000D01*
X1840000Y5096667D01*
X2106666Y5096667D01*
X1406666Y4763334D02*
X1406666Y5463334D01*
X1240000Y5463334D01*
X1140000Y5430000D01*
X1073333Y5363334D01*
X1040000Y5296667D01*
X1006666Y5163334D01*
X1006666Y5063334D01*
X1040000Y4930000D01*
X1073333Y4863334D01*
X1140000Y4796667D01*
X1240000Y4763334D01*
X1406666Y4763334D01*
X5398000Y7236667D02*
X4864666Y7236667D01*
X4764666Y8003334D02*
X4598000Y7303334D01*
X4464666Y7803334D01*
X4331333Y7303334D01*
X4164666Y8003334D01*
X3498000Y7303334D02*
X3731333Y7636667D01*
X3898000Y7303334D02*
X3898000Y8003334D01*
X3631333Y8003334D01*
X3564666Y7970000D01*
X3531333Y7936667D01*
X3498000Y7870000D01*
X3498000Y7770000D01*
X3531333Y7703334D01*
X3564666Y7670000D01*
X3631333Y7636667D01*
X3898000Y7636667D01*
X3198000Y7303334D02*
X3198000Y8003334D01*
X2931333Y8003334D01*
X2864666Y7970000D01*
X2831333Y7936667D01*
X2798000Y7870000D01*
X2798000Y7770000D01*
X2831333Y7703334D01*
X2864666Y7670000D01*
X2931333Y7636667D01*
X3198000Y7636667D01*
X2098000Y7303334D02*
X2331333Y7636667D01*
X2498000Y7303334D02*
X2498000Y8003334D01*
X2231333Y8003334D01*
X2164666Y7970000D01*
X2131333Y7936667D01*
X2098000Y7870000D01*
X2098000Y7770000D01*
X2131333Y7703334D01*
X2164666Y7670000D01*
X2231333Y7636667D01*
X2498000Y7636667D01*
X1664666Y8003334D02*
X1531333Y8003334D01*
X1464666Y7970000D01*
X1398000Y7903334D01*
X1364666Y7770000D01*
X1364666Y7536667D01*
X1398000Y7403334D01*
X1464666Y7336667D01*
X1531333Y7303334D01*
X1664666Y7303334D01*
X1731333Y7336667D01*
X1798000Y7403334D01*
X1831333Y7536667D01*
X1831333Y7770000D01*
X1798000Y7903334D01*
X1731333Y7970000D01*
X1664666Y8003334D01*
X1164666Y8003334D02*
X764666Y8003334D01*
X964666Y7303334D02*
X964666Y8003334D01*
X3852666Y9776667D02*
X3319333Y9776667D01*
X3252666Y10543334D02*
X2852666Y10543334D01*
X3052666Y9843334D02*
X3052666Y10543334D01*
X2219333Y9843334D02*
X2452666Y10176667D01*
X2619333Y9843334D02*
X2619333Y10543334D01*
X2352666Y10543334D01*
X2286000Y10510000D01*
X2252666Y10476667D01*
X2219333Y10410000D01*
X2219333Y10310000D01*
X2252666Y10243334D01*
X2286000Y10210000D01*
X2352666Y10176667D01*
X2619333Y10176667D01*
X1919333Y9843334D02*
X1919333Y10543334D01*
X1519333Y9843334D02*
X1819333Y10243334D01*
X1519333Y10543334D02*
X1919333Y10143334D01*
X1086000Y10543334D02*
X1019333Y10543334D01*
X952666Y10510000D01*
X919333Y10476667D01*
X886000Y10410000D01*
X852666Y10276667D01*
X852666Y10110000D01*
X886000Y9976667D01*
X919333Y9910000D01*
X952666Y9876667D01*
X1019333Y9843334D01*
X1086000Y9843334D01*
X1152666Y9876667D01*
X1186000Y9910000D01*
X1219333Y9976667D01*
X1252666Y10110000D01*
X1252666Y10276667D01*
X1219333Y10410000D01*
X1186000Y10476667D01*
X1152666Y10510000D01*
X1086000Y10543334D01*
X4223333Y12316667D02*
X3690000Y12316667D01*
X3523333Y12383334D02*
X3523333Y13083334D01*
X3356666Y13083334D01*
X3256666Y13050000D01*
X3190000Y12983334D01*
X3156666Y12916667D01*
X3123333Y12783334D01*
X3123333Y12683334D01*
X3156666Y12550000D01*
X3190000Y12483334D01*
X3256666Y12416667D01*
X3356666Y12383334D01*
X3523333Y12383334D01*
X2823333Y12383334D02*
X2823333Y13083334D01*
X2423333Y12383334D02*
X2723333Y12783334D01*
X2423333Y13083334D02*
X2823333Y12683334D01*
X2190000Y13083334D02*
X2023333Y12383334D01*
X1890000Y12883334D01*
X1756666Y12383334D01*
X1590000Y13083334D01*
X1323333Y12750000D02*
X1090000Y12750000D01*
X990000Y12383334D02*
X1323333Y12383334D01*
X1323333Y13083334D01*
X990000Y13083334D01*
X4002666Y14856667D02*
X3469333Y14856667D01*
X3302666Y14923334D02*
X3302666Y15623334D01*
X3136000Y15623334D01*
X3036000Y15590000D01*
X2969333Y15523334D01*
X2936000Y15456667D01*
X2902666Y15323334D01*
X2902666Y15223334D01*
X2936000Y15090000D01*
X2969333Y15023334D01*
X3036000Y14956667D01*
X3136000Y14923334D01*
X3302666Y14923334D01*
X2602666Y14923334D02*
X2602666Y15623334D01*
X2202666Y14923334D02*
X2502666Y15323334D01*
X2202666Y15623334D02*
X2602666Y15223334D01*
X1969333Y15623334D02*
X1802666Y14923334D01*
X1669333Y15423334D01*
X1536000Y14923334D01*
X1369333Y15623334D01*
X1102666Y14923334D02*
X1102666Y15623334D01*
X936000Y15623334D01*
X836000Y15590000D01*
X769333Y15523334D01*
X736000Y15456667D01*
X702666Y15323334D01*
X702666Y15223334D01*
X736000Y15090000D01*
X769333Y15023334D01*
X836000Y14956667D01*
X936000Y14923334D01*
X1102666Y14923334D01*
X3819333Y17396667D02*
X3286000Y17396667D01*
X3152666Y17496667D02*
X3052666Y17463334D01*
X2886000Y17463334D01*
X2819333Y17496667D01*
X2786000Y17530000D01*
X2752666Y17596667D01*
X2752666Y17663334D01*
X2786000Y17730000D01*
X2819333Y17763334D01*
X2886000Y17796667D01*
X3019333Y17830000D01*
X3086000Y17863334D01*
X3119333Y17896667D01*
X3152666Y17963334D01*
X3152666Y18030000D01*
X3119333Y18096667D01*
X3086000Y18130000D01*
X3019333Y18163334D01*
X2852666Y18163334D01*
X2752666Y18130000D01*
X2552666Y18163334D02*
X2152666Y18163334D01*
X2352666Y17463334D02*
X2352666Y18163334D01*
X1919333Y17830000D02*
X1686000Y17830000D01*
X1586000Y17463334D02*
X1919333Y17463334D01*
X1919333Y18163334D01*
X1586000Y18163334D01*
X1286000Y17463334D02*
X1286000Y18163334D01*
X1019333Y18163334D01*
X952666Y18130000D01*
X919333Y18096667D01*
X886000Y18030000D01*
X886000Y17930000D01*
X919333Y17863334D01*
X952666Y17830000D01*
X1019333Y17796667D01*
X1286000Y17796667D01*
X2911333Y19936667D02*
X2378000Y19936667D01*
X2211333Y20003334D02*
X2211333Y20703334D01*
X2044666Y20703334D01*
X1944666Y20670000D01*
X1878000Y20603334D01*
X1844666Y20536667D01*
X1811333Y20403334D01*
X1811333Y20303334D01*
X1844666Y20170000D01*
X1878000Y20103334D01*
X1944666Y20036667D01*
X2044666Y20003334D01*
X2211333Y20003334D01*
X1511333Y20003334D02*
X1511333Y20703334D01*
X778000Y20003334D02*
X1011333Y20336667D01*
X1178000Y20003334D02*
X1178000Y20703334D01*
X911333Y20703334D01*
X844666Y20670000D01*
X811333Y20636667D01*
X778000Y20570000D01*
X778000Y20470000D01*
X811333Y20403334D01*
X844666Y20370000D01*
X911333Y20336667D01*
X1178000Y20336667D01*
X3315333Y22476667D02*
X2782000Y22476667D01*
X2615333Y22543334D02*
X2615333Y23243334D01*
X2382000Y22743334D01*
X2148666Y23243334D01*
X2148666Y22543334D01*
X1915333Y23243334D02*
X1515333Y23243334D01*
X1715333Y22543334D02*
X1715333Y23243334D01*
X882000Y22543334D02*
X1115333Y22876667D01*
X1282000Y22543334D02*
X1282000Y23243334D01*
X1015333Y23243334D01*
X948666Y23210000D01*
X915333Y23176667D01*
X882000Y23110000D01*
X882000Y23010000D01*
X915333Y22943334D01*
X948666Y22910000D01*
X1015333Y22876667D01*
X1282000Y22876667D01*
X3232000Y25016667D02*
X2698666Y25016667D01*
X2565333Y25116667D02*
X2465333Y25083334D01*
X2298666Y25083334D01*
X2232000Y25116667D01*
X2198666Y25150000D01*
X2165333Y25216667D01*
X2165333Y25283334D01*
X2198666Y25350000D01*
X2232000Y25383334D01*
X2298666Y25416667D01*
X2432000Y25450000D01*
X2498666Y25483334D01*
X2532000Y25516667D01*
X2565333Y25583334D01*
X2565333Y25650000D01*
X2532000Y25716667D01*
X2498666Y25750000D01*
X2432000Y25783334D01*
X2265333Y25783334D01*
X2165333Y25750000D01*
X1865333Y25450000D02*
X1632000Y25450000D01*
X1532000Y25083334D02*
X1865333Y25083334D01*
X1865333Y25783334D01*
X1532000Y25783334D01*
X898666Y25083334D02*
X1232000Y25083334D01*
X1232000Y25783334D01*
X3232000Y27556667D02*
X2698666Y27556667D01*
X2565333Y27656667D02*
X2465333Y27623334D01*
X2298666Y27623334D01*
X2232000Y27656667D01*
X2198666Y27690000D01*
X2165333Y27756667D01*
X2165333Y27823334D01*
X2198666Y27890000D01*
X2232000Y27923334D01*
X2298666Y27956667D01*
X2432000Y27990000D01*
X2498666Y28023334D01*
X2532000Y28056667D01*
X2565333Y28123334D01*
X2565333Y28190000D01*
X2532000Y28256667D01*
X2498666Y28290000D01*
X2432000Y28323334D01*
X2265333Y28323334D01*
X2165333Y28290000D01*
X1865333Y27990000D02*
X1632000Y27990000D01*
X1532000Y27623334D02*
X1865333Y27623334D01*
X1865333Y28323334D01*
X1532000Y28323334D01*
X898666Y27623334D02*
X1232000Y27623334D01*
X1232000Y28323334D01*
X3569333Y30096667D02*
X3036000Y30096667D01*
X2869333Y30163334D02*
X2869333Y30863334D01*
X2636000Y30363334D01*
X2402666Y30863334D01*
X2402666Y30163334D01*
X2169333Y30863334D02*
X1769333Y30863334D01*
X1969333Y30163334D02*
X1969333Y30863334D01*
X1136000Y30163334D02*
X1369333Y30496667D01*
X1536000Y30163334D02*
X1536000Y30863334D01*
X1269333Y30863334D01*
X1202666Y30830000D01*
X1169333Y30796667D01*
X1136000Y30730000D01*
X1136000Y30630000D01*
X1169333Y30563334D01*
X1202666Y30530000D01*
X1269333Y30496667D01*
X1536000Y30496667D01*
X4594000Y32636667D02*
X4060666Y32636667D01*
X3894000Y32703334D02*
X3894000Y33403334D01*
X3560666Y32703334D02*
X3560666Y33403334D01*
X3160666Y32703334D01*
X3160666Y33403334D01*
X2827333Y32703334D02*
X2827333Y33403334D01*
X2660666Y33403334D01*
X2560666Y33370000D01*
X2494000Y33303334D01*
X2460666Y33236667D01*
X2427333Y33103334D01*
X2427333Y33003334D01*
X2460666Y32870000D01*
X2494000Y32803334D01*
X2560666Y32736667D01*
X2660666Y32703334D01*
X2827333Y32703334D01*
X2127333Y33070000D02*
X1894000Y33070000D01*
X1794000Y32703334D02*
X2127333Y32703334D01*
X2127333Y33403334D01*
X1794000Y33403334D01*
X1560666Y33403334D02*
X1094000Y32703334D01*
X1094000Y33403334D02*
X1560666Y32703334D01*
X2757428Y37828572D02*
X2757428Y38428572D01*
X2414571Y37828572D01*
X2414571Y38428572D01*
X1786000Y37885715D02*
X1814571Y37857143D01*
X1900285Y37828572D01*
X1957428Y37828572D01*
X2043142Y37857143D01*
X2100285Y37914286D01*
X2128857Y37971429D01*
X2157428Y38085715D01*
X2157428Y38171429D01*
X2128857Y38285715D01*
X2100285Y38342858D01*
X2043142Y38400000D01*
X1957428Y38428572D01*
X1900285Y38428572D01*
X1814571Y38400000D01*
X1786000Y38371429D01*
X5281333Y40256667D02*
X4748000Y40256667D01*
X4581333Y40323334D02*
X4581333Y41023334D01*
X4414666Y41023334D01*
X4314666Y40990000D01*
X4248000Y40923334D01*
X4214666Y40856667D01*
X4181333Y40723334D01*
X4181333Y40623334D01*
X4214666Y40490000D01*
X4248000Y40423334D01*
X4314666Y40356667D01*
X4414666Y40323334D01*
X4581333Y40323334D01*
X3881333Y40690000D02*
X3648000Y40690000D01*
X3548000Y40323334D02*
X3881333Y40323334D01*
X3881333Y41023334D01*
X3548000Y41023334D01*
X3248000Y40323334D02*
X3248000Y41023334D01*
X2848000Y40323334D01*
X2848000Y41023334D01*
X2548000Y40356667D02*
X2448000Y40323334D01*
X2281333Y40323334D01*
X2214666Y40356667D01*
X2181333Y40390000D01*
X2148000Y40456667D01*
X2148000Y40523334D01*
X2181333Y40590000D01*
X2214666Y40623334D01*
X2281333Y40656667D01*
X2414666Y40690000D01*
X2481333Y40723334D01*
X2514666Y40756667D01*
X2548000Y40823334D01*
X2548000Y40890000D01*
X2514666Y40956667D01*
X2481333Y40990000D01*
X2414666Y41023334D01*
X2248000Y41023334D01*
X2148000Y40990000D01*
X1848000Y40690000D02*
X1614666Y40690000D01*
X1514666Y40323334D02*
X1848000Y40323334D01*
X1848000Y41023334D01*
X1514666Y41023334D01*
X881333Y40323334D02*
X1214666Y40323334D01*
X1214666Y41023334D01*
D12*
X3825714Y46918572D02*
X3063809Y46918572D01*
X3444761Y46537620D02*
X3444761Y47299524D01*
X2111428Y47537620D02*
X2587619Y47537620D01*
X2635238Y47061429D01*
X2587619Y47109048D01*
X2492380Y47156667D01*
X2254285Y47156667D01*
X2159047Y47109048D01*
X2111428Y47061429D01*
X2063809Y46966191D01*
X2063809Y46728096D01*
X2111428Y46632858D01*
X2159047Y46585239D01*
X2254285Y46537620D01*
X2492380Y46537620D01*
X2587619Y46585239D01*
X2635238Y46632858D01*
X1778095Y47537620D02*
X1444761Y46537620D01*
X1111428Y47537620D01*
X3301904Y50030000D02*
X3397142Y50077620D01*
X3540000Y50077620D01*
X3682857Y50030000D01*
X3778095Y49934762D01*
X3825714Y49839524D01*
X3873333Y49649048D01*
X3873333Y49506191D01*
X3825714Y49315715D01*
X3778095Y49220477D01*
X3682857Y49125239D01*
X3540000Y49077620D01*
X3444761Y49077620D01*
X3301904Y49125239D01*
X3254285Y49172858D01*
X3254285Y49506191D01*
X3444761Y49506191D01*
X2825714Y49077620D02*
X2825714Y50077620D01*
X2254285Y49077620D01*
X2254285Y50077620D01*
X1778095Y49077620D02*
X1778095Y50077620D01*
X1540000Y50077620D01*
X1397142Y50030000D01*
X1301904Y49934762D01*
X1254285Y49839524D01*
X1206666Y49649048D01*
X1206666Y49506191D01*
X1254285Y49315715D01*
X1301904Y49220477D01*
X1397142Y49125239D01*
X1540000Y49077620D01*
X1778095Y49077620D01*
X3301904Y52570000D02*
X3397142Y52617620D01*
X3540000Y52617620D01*
X3682857Y52570000D01*
X3778095Y52474762D01*
X3825714Y52379524D01*
X3873333Y52189048D01*
X3873333Y52046191D01*
X3825714Y51855715D01*
X3778095Y51760477D01*
X3682857Y51665239D01*
X3540000Y51617620D01*
X3444761Y51617620D01*
X3301904Y51665239D01*
X3254285Y51712858D01*
X3254285Y52046191D01*
X3444761Y52046191D01*
X2825714Y51617620D02*
X2825714Y52617620D01*
X2254285Y51617620D01*
X2254285Y52617620D01*
X1778095Y51617620D02*
X1778095Y52617620D01*
X1540000Y52617620D01*
X1397142Y52570000D01*
X1301904Y52474762D01*
X1254285Y52379524D01*
X1206666Y52189048D01*
X1206666Y52046191D01*
X1254285Y51855715D01*
X1301904Y51760477D01*
X1397142Y51665239D01*
X1540000Y51617620D01*
X1778095Y51617620D01*
X3325714Y54157620D02*
X3325714Y55157620D01*
X2754285Y54157620D01*
X2754285Y55157620D01*
X1706666Y54252858D02*
X1754285Y54205239D01*
X1897142Y54157620D01*
X1992380Y54157620D01*
X2135238Y54205239D01*
X2230476Y54300477D01*
X2278095Y54395715D01*
X2325714Y54586191D01*
X2325714Y54729048D01*
X2278095Y54919524D01*
X2230476Y55014762D01*
X2135238Y55110000D01*
X1992380Y55157620D01*
X1897142Y55157620D01*
X1754285Y55110000D01*
X1706666Y55062381D01*
M02*
