G04 #@! TF.GenerationSoftware,KiCad,Pcbnew,(5.1.2)-2*
G04 #@! TF.CreationDate,2020-12-20T14:31:03+00:00*
G04 #@! TF.ProjectId,Greaseweazle F1 Gotek (+ USB B),47726561-7365-4776-9561-7a6c65204631,1*
G04 #@! TF.SameCoordinates,PX6312cb0PY6bcb370*
G04 #@! TF.FileFunction,Soldermask,Bot*
G04 #@! TF.FilePolarity,Negative*
%FSLAX46Y46*%
G04 Gerber Fmt 4.6, Leading zero omitted, Abs format (unit mm)*
G04 Created by KiCad (PCBNEW (5.1.2)-2) date 2020-12-20 14:31:03*
%MOMM*%
%LPD*%
G04 APERTURE LIST*
%ADD10C,0.100000*%
G04 APERTURE END LIST*
D10*
G36*
X94400627Y-8052299D02*
G01*
X94480742Y-8076601D01*
X94560855Y-8100903D01*
X94560857Y-8100904D01*
X94708518Y-8179831D01*
X94837949Y-8286051D01*
X94944169Y-8415482D01*
X95023096Y-8563143D01*
X95023097Y-8563145D01*
X95047398Y-8643258D01*
X95071701Y-8723373D01*
X95088112Y-8890000D01*
X95071701Y-9056627D01*
X95047399Y-9136742D01*
X95025562Y-9208730D01*
X95023096Y-9216857D01*
X94944169Y-9364518D01*
X94837949Y-9493949D01*
X94708518Y-9600169D01*
X94560857Y-9679096D01*
X94560855Y-9679097D01*
X94480742Y-9703399D01*
X94400627Y-9727701D01*
X94275752Y-9740000D01*
X94192248Y-9740000D01*
X94067373Y-9727701D01*
X93987258Y-9703399D01*
X93907145Y-9679097D01*
X93907143Y-9679096D01*
X93759482Y-9600169D01*
X93630051Y-9493949D01*
X93523831Y-9364518D01*
X93444904Y-9216857D01*
X93442439Y-9208730D01*
X93420601Y-9136742D01*
X93396299Y-9056627D01*
X93379888Y-8890000D01*
X93396299Y-8723373D01*
X93420602Y-8643258D01*
X93444903Y-8563145D01*
X93444904Y-8563143D01*
X93523831Y-8415482D01*
X93630051Y-8286051D01*
X93759482Y-8179831D01*
X93907143Y-8100904D01*
X93907145Y-8100903D01*
X93987258Y-8076601D01*
X94067373Y-8052299D01*
X94192248Y-8040000D01*
X94275752Y-8040000D01*
X94400627Y-8052299D01*
X94400627Y-8052299D01*
G37*
G36*
X90569843Y-8409214D02*
G01*
X90584975Y-8415482D01*
X90660839Y-8446906D01*
X90702063Y-8474451D01*
X90742730Y-8501624D01*
X90812376Y-8571270D01*
X90867095Y-8653163D01*
X90904786Y-8744157D01*
X90924000Y-8840753D01*
X90924000Y-8939247D01*
X90904786Y-9035843D01*
X90904785Y-9035845D01*
X90867094Y-9126839D01*
X90812375Y-9208731D01*
X90742731Y-9278375D01*
X90660839Y-9333094D01*
X90660838Y-9333095D01*
X90660837Y-9333095D01*
X90569843Y-9370786D01*
X90473247Y-9390000D01*
X90374753Y-9390000D01*
X90278157Y-9370786D01*
X90187163Y-9333095D01*
X90187162Y-9333095D01*
X90187161Y-9333094D01*
X90105269Y-9278375D01*
X90035625Y-9208731D01*
X89980906Y-9126839D01*
X89943215Y-9035845D01*
X89943214Y-9035843D01*
X89924000Y-8939247D01*
X89924000Y-8840753D01*
X89943214Y-8744157D01*
X89980905Y-8653163D01*
X90035624Y-8571270D01*
X90105270Y-8501624D01*
X90145937Y-8474451D01*
X90187161Y-8446906D01*
X90263025Y-8415482D01*
X90278157Y-8409214D01*
X90374753Y-8390000D01*
X90473247Y-8390000D01*
X90569843Y-8409214D01*
X90569843Y-8409214D01*
G37*
G36*
X94400627Y-5512299D02*
G01*
X94480742Y-5536602D01*
X94560855Y-5560903D01*
X94560857Y-5560904D01*
X94708518Y-5639831D01*
X94837949Y-5746051D01*
X94944169Y-5875482D01*
X95023096Y-6023143D01*
X95023097Y-6023145D01*
X95047399Y-6103258D01*
X95071701Y-6183373D01*
X95088112Y-6350000D01*
X95071701Y-6516627D01*
X95047398Y-6596742D01*
X95025562Y-6668730D01*
X95023096Y-6676857D01*
X94944169Y-6824518D01*
X94837949Y-6953949D01*
X94708518Y-7060169D01*
X94560857Y-7139096D01*
X94560855Y-7139097D01*
X94480742Y-7163398D01*
X94400627Y-7187701D01*
X94275752Y-7200000D01*
X94192248Y-7200000D01*
X94067373Y-7187701D01*
X93987258Y-7163398D01*
X93907145Y-7139097D01*
X93907143Y-7139096D01*
X93759482Y-7060169D01*
X93630051Y-6953949D01*
X93523831Y-6824518D01*
X93444904Y-6676857D01*
X93442439Y-6668730D01*
X93420602Y-6596742D01*
X93396299Y-6516627D01*
X93379888Y-6350000D01*
X93396299Y-6183373D01*
X93420601Y-6103258D01*
X93444903Y-6023145D01*
X93444904Y-6023143D01*
X93523831Y-5875482D01*
X93630051Y-5746051D01*
X93759482Y-5639831D01*
X93907143Y-5560904D01*
X93907145Y-5560903D01*
X93987258Y-5536602D01*
X94067373Y-5512299D01*
X94192248Y-5500000D01*
X94275752Y-5500000D01*
X94400627Y-5512299D01*
X94400627Y-5512299D01*
G37*
G36*
X90569843Y-5869214D02*
G01*
X90584975Y-5875482D01*
X90660839Y-5906906D01*
X90702063Y-5934451D01*
X90742730Y-5961624D01*
X90812376Y-6031270D01*
X90867095Y-6113163D01*
X90904786Y-6204157D01*
X90924000Y-6300753D01*
X90924000Y-6399247D01*
X90904786Y-6495843D01*
X90904785Y-6495845D01*
X90867094Y-6586839D01*
X90812375Y-6668731D01*
X90742731Y-6738375D01*
X90660839Y-6793094D01*
X90660838Y-6793095D01*
X90660837Y-6793095D01*
X90569843Y-6830786D01*
X90473247Y-6850000D01*
X90374753Y-6850000D01*
X90278157Y-6830786D01*
X90187163Y-6793095D01*
X90187162Y-6793095D01*
X90187161Y-6793094D01*
X90105269Y-6738375D01*
X90035625Y-6668731D01*
X89980906Y-6586839D01*
X89943215Y-6495845D01*
X89943214Y-6495843D01*
X89924000Y-6399247D01*
X89924000Y-6300753D01*
X89943214Y-6204157D01*
X89980905Y-6113163D01*
X90035624Y-6031270D01*
X90105270Y-5961624D01*
X90145937Y-5934451D01*
X90187161Y-5906906D01*
X90263025Y-5875482D01*
X90278157Y-5869214D01*
X90374753Y-5850000D01*
X90473247Y-5850000D01*
X90569843Y-5869214D01*
X90569843Y-5869214D01*
G37*
G36*
X94400627Y-2972299D02*
G01*
X94480742Y-2996601D01*
X94560855Y-3020903D01*
X94560857Y-3020904D01*
X94708518Y-3099831D01*
X94837949Y-3206051D01*
X94944169Y-3335482D01*
X95023096Y-3483143D01*
X95023097Y-3483145D01*
X95041601Y-3544147D01*
X95071701Y-3643373D01*
X95088112Y-3810000D01*
X95071701Y-3976627D01*
X95047398Y-4056742D01*
X95025562Y-4128730D01*
X95023096Y-4136857D01*
X94944169Y-4284518D01*
X94837949Y-4413949D01*
X94708518Y-4520169D01*
X94560857Y-4599096D01*
X94560855Y-4599097D01*
X94480742Y-4623398D01*
X94400627Y-4647701D01*
X94275752Y-4660000D01*
X94192248Y-4660000D01*
X94067373Y-4647701D01*
X93987258Y-4623398D01*
X93907145Y-4599097D01*
X93907143Y-4599096D01*
X93759482Y-4520169D01*
X93630051Y-4413949D01*
X93523831Y-4284518D01*
X93444904Y-4136857D01*
X93442439Y-4128730D01*
X93420602Y-4056742D01*
X93396299Y-3976627D01*
X93379888Y-3810000D01*
X93396299Y-3643373D01*
X93426399Y-3544147D01*
X93444903Y-3483145D01*
X93444904Y-3483143D01*
X93523831Y-3335482D01*
X93630051Y-3206051D01*
X93759482Y-3099831D01*
X93907143Y-3020904D01*
X93907145Y-3020903D01*
X93987258Y-2996602D01*
X94067373Y-2972299D01*
X94192248Y-2960000D01*
X94275752Y-2960000D01*
X94400627Y-2972299D01*
X94400627Y-2972299D01*
G37*
G36*
X90569843Y-3329214D02*
G01*
X90584975Y-3335482D01*
X90660839Y-3366906D01*
X90702063Y-3394451D01*
X90742730Y-3421624D01*
X90812376Y-3491270D01*
X90867095Y-3573163D01*
X90904786Y-3664157D01*
X90924000Y-3760753D01*
X90924000Y-3859247D01*
X90904786Y-3955843D01*
X90904785Y-3955845D01*
X90867094Y-4046839D01*
X90812375Y-4128731D01*
X90742731Y-4198375D01*
X90660839Y-4253094D01*
X90660838Y-4253095D01*
X90660837Y-4253095D01*
X90569843Y-4290786D01*
X90473247Y-4310000D01*
X90374753Y-4310000D01*
X90278157Y-4290786D01*
X90187163Y-4253095D01*
X90187162Y-4253095D01*
X90187161Y-4253094D01*
X90105269Y-4198375D01*
X90035625Y-4128731D01*
X89980906Y-4046839D01*
X89943215Y-3955845D01*
X89943214Y-3955843D01*
X89924000Y-3859247D01*
X89924000Y-3760753D01*
X89943214Y-3664157D01*
X89980905Y-3573163D01*
X90035624Y-3491270D01*
X90105270Y-3421624D01*
X90145937Y-3394451D01*
X90187161Y-3366906D01*
X90263025Y-3335482D01*
X90278157Y-3329214D01*
X90374753Y-3310000D01*
X90473247Y-3310000D01*
X90569843Y-3329214D01*
X90569843Y-3329214D01*
G37*
G36*
X84161507Y-3521532D02*
G01*
X84216103Y-3544147D01*
X84265239Y-3576978D01*
X84307026Y-3618765D01*
X84339857Y-3667901D01*
X84362472Y-3722497D01*
X84374000Y-3780457D01*
X84374000Y-3839551D01*
X84362472Y-3897511D01*
X84339857Y-3952107D01*
X84307026Y-4001243D01*
X84265239Y-4043030D01*
X84216103Y-4075861D01*
X84161507Y-4098476D01*
X84103547Y-4110004D01*
X84044453Y-4110004D01*
X83986493Y-4098476D01*
X83931897Y-4075861D01*
X83882761Y-4043030D01*
X83840974Y-4001243D01*
X83808143Y-3952107D01*
X83785528Y-3897511D01*
X83774000Y-3839551D01*
X83774000Y-3780457D01*
X83785528Y-3722497D01*
X83808143Y-3667901D01*
X83840974Y-3618765D01*
X83882761Y-3576978D01*
X83931897Y-3544147D01*
X83986493Y-3521532D01*
X84044453Y-3510004D01*
X84103547Y-3510004D01*
X84161507Y-3521532D01*
X84161507Y-3521532D01*
G37*
G36*
X95084000Y-2120000D02*
G01*
X93384000Y-2120000D01*
X93384000Y-420000D01*
X95084000Y-420000D01*
X95084000Y-2120000D01*
X95084000Y-2120000D01*
G37*
G36*
X90569843Y-789214D02*
G01*
X90569846Y-789215D01*
X90569845Y-789215D01*
X90660839Y-826906D01*
X90695401Y-850000D01*
X90742730Y-881624D01*
X90812376Y-951270D01*
X90867095Y-1033163D01*
X90904786Y-1124157D01*
X90924000Y-1220753D01*
X90924000Y-1319247D01*
X90904786Y-1415843D01*
X90904785Y-1415845D01*
X90867094Y-1506839D01*
X90812375Y-1588731D01*
X90742731Y-1658375D01*
X90660839Y-1713094D01*
X90660838Y-1713095D01*
X90660837Y-1713095D01*
X90569843Y-1750786D01*
X90473247Y-1770000D01*
X90374753Y-1770000D01*
X90278157Y-1750786D01*
X90187163Y-1713095D01*
X90187162Y-1713095D01*
X90187161Y-1713094D01*
X90105269Y-1658375D01*
X90035625Y-1588731D01*
X89980906Y-1506839D01*
X89943215Y-1415845D01*
X89943214Y-1415843D01*
X89924000Y-1319247D01*
X89924000Y-1220753D01*
X89943214Y-1124157D01*
X89980905Y-1033163D01*
X90035624Y-951270D01*
X90105270Y-881624D01*
X90152599Y-850000D01*
X90187161Y-826906D01*
X90278155Y-789215D01*
X90278154Y-789215D01*
X90278157Y-789214D01*
X90374753Y-770000D01*
X90473247Y-770000D01*
X90569843Y-789214D01*
X90569843Y-789214D01*
G37*
G36*
X-3389373Y837701D02*
G01*
X-3309258Y813399D01*
X-3229145Y789097D01*
X-3229143Y789096D01*
X-3081482Y710169D01*
X-2952051Y603949D01*
X-2845831Y474518D01*
X-2766904Y326857D01*
X-2766903Y326855D01*
X-2747556Y263074D01*
X-2718299Y166627D01*
X-2701888Y0D01*
X-2718299Y-166627D01*
X-2742601Y-246742D01*
X-2764438Y-318730D01*
X-2766904Y-326857D01*
X-2845831Y-474518D01*
X-2952051Y-603949D01*
X-3081482Y-710169D01*
X-3193417Y-770000D01*
X-3229145Y-789097D01*
X-3309258Y-813398D01*
X-3389373Y-837701D01*
X-3514248Y-850000D01*
X-3597752Y-850000D01*
X-3722627Y-837701D01*
X-3802742Y-813398D01*
X-3882855Y-789097D01*
X-3918583Y-770000D01*
X-4030518Y-710169D01*
X-4159949Y-603949D01*
X-4266169Y-474518D01*
X-4345096Y-326857D01*
X-4347561Y-318730D01*
X-4369399Y-246742D01*
X-4393701Y-166627D01*
X-4410112Y0D01*
X-4393701Y166627D01*
X-4364444Y263074D01*
X-4345097Y326855D01*
X-4345096Y326857D01*
X-4266169Y474518D01*
X-4159949Y603949D01*
X-4030518Y710169D01*
X-3882857Y789096D01*
X-3882855Y789097D01*
X-3802742Y813399D01*
X-3722627Y837701D01*
X-3597752Y850000D01*
X-3514248Y850000D01*
X-3389373Y837701D01*
X-3389373Y837701D01*
G37*
G36*
X-5929373Y837701D02*
G01*
X-5849258Y813399D01*
X-5769145Y789097D01*
X-5769143Y789096D01*
X-5621482Y710169D01*
X-5492051Y603949D01*
X-5385831Y474518D01*
X-5306904Y326857D01*
X-5306903Y326855D01*
X-5287556Y263074D01*
X-5258299Y166627D01*
X-5241888Y0D01*
X-5258299Y-166627D01*
X-5282601Y-246742D01*
X-5304438Y-318730D01*
X-5306904Y-326857D01*
X-5385831Y-474518D01*
X-5492051Y-603949D01*
X-5621482Y-710169D01*
X-5733417Y-770000D01*
X-5769145Y-789097D01*
X-5849258Y-813398D01*
X-5929373Y-837701D01*
X-6054248Y-850000D01*
X-6137752Y-850000D01*
X-6262627Y-837701D01*
X-6342742Y-813398D01*
X-6422855Y-789097D01*
X-6458583Y-770000D01*
X-6570518Y-710169D01*
X-6699949Y-603949D01*
X-6806169Y-474518D01*
X-6885096Y-326857D01*
X-6887561Y-318730D01*
X-6909399Y-246742D01*
X-6933701Y-166627D01*
X-6950112Y0D01*
X-6933701Y166627D01*
X-6904444Y263074D01*
X-6885097Y326855D01*
X-6885096Y326857D01*
X-6806169Y474518D01*
X-6699949Y603949D01*
X-6570518Y710169D01*
X-6422857Y789096D01*
X-6422855Y789097D01*
X-6342742Y813399D01*
X-6262627Y837701D01*
X-6137752Y850000D01*
X-6054248Y850000D01*
X-5929373Y837701D01*
X-5929373Y837701D01*
G37*
G36*
X-362157Y480786D02*
G01*
X-291522Y451528D01*
X-271161Y443094D01*
X-229937Y415549D01*
X-189270Y388376D01*
X-119624Y318730D01*
X-64905Y236837D01*
X-27214Y145843D01*
X-8000Y49247D01*
X-8000Y-49247D01*
X-27214Y-145843D01*
X-27215Y-145845D01*
X-64906Y-236839D01*
X-119625Y-318731D01*
X-189269Y-388375D01*
X-271161Y-443094D01*
X-271162Y-443095D01*
X-271163Y-443095D01*
X-362157Y-480786D01*
X-458753Y-500000D01*
X-557247Y-500000D01*
X-653843Y-480786D01*
X-744837Y-443095D01*
X-744838Y-443095D01*
X-744839Y-443094D01*
X-826731Y-388375D01*
X-896375Y-318731D01*
X-951094Y-236839D01*
X-988785Y-145845D01*
X-988786Y-145843D01*
X-1008000Y-49247D01*
X-1008000Y49247D01*
X-988786Y145843D01*
X-951095Y236837D01*
X-896376Y318730D01*
X-826730Y388376D01*
X-786063Y415549D01*
X-744839Y443094D01*
X-724478Y451528D01*
X-653843Y480786D01*
X-557247Y500000D01*
X-458753Y500000D01*
X-362157Y480786D01*
X-362157Y480786D01*
G37*
G36*
X36416222Y5070927D02*
G01*
X36746418Y4934155D01*
X36871194Y4882471D01*
X36896603Y4865493D01*
X37280656Y4608877D01*
X37628877Y4260656D01*
X37902472Y3851192D01*
X38090927Y3396222D01*
X38187000Y2913230D01*
X38187000Y2420770D01*
X38090927Y1937778D01*
X37902472Y1482808D01*
X37628877Y1073344D01*
X37280656Y725123D01*
X37258274Y710168D01*
X36871194Y451529D01*
X36871193Y451528D01*
X36871192Y451528D01*
X36416222Y263073D01*
X35933230Y167000D01*
X35440770Y167000D01*
X34957778Y263073D01*
X34502808Y451528D01*
X34502807Y451528D01*
X34502806Y451529D01*
X34115726Y710168D01*
X34093344Y725123D01*
X33745123Y1073344D01*
X33471528Y1482808D01*
X33283073Y1937778D01*
X33187000Y2420770D01*
X33187000Y2913230D01*
X33283073Y3396222D01*
X33471528Y3851192D01*
X33745123Y4260656D01*
X34093344Y4608877D01*
X34477397Y4865493D01*
X34502806Y4882471D01*
X34627582Y4934155D01*
X34957778Y5070927D01*
X35440770Y5167000D01*
X35933230Y5167000D01*
X36416222Y5070927D01*
X36416222Y5070927D01*
G37*
G36*
X15334222Y5070927D02*
G01*
X15664418Y4934155D01*
X15789194Y4882471D01*
X15814603Y4865493D01*
X16198656Y4608877D01*
X16546877Y4260656D01*
X16820472Y3851192D01*
X17008927Y3396222D01*
X17105000Y2913230D01*
X17105000Y2420770D01*
X17008927Y1937778D01*
X16820472Y1482808D01*
X16546877Y1073344D01*
X16198656Y725123D01*
X16176274Y710168D01*
X15789194Y451529D01*
X15789193Y451528D01*
X15789192Y451528D01*
X15334222Y263073D01*
X14851230Y167000D01*
X14358770Y167000D01*
X13875778Y263073D01*
X13420808Y451528D01*
X13420807Y451528D01*
X13420806Y451529D01*
X13033726Y710168D01*
X13011344Y725123D01*
X12663123Y1073344D01*
X12389528Y1482808D01*
X12201073Y1937778D01*
X12105000Y2420770D01*
X12105000Y2913230D01*
X12201073Y3396222D01*
X12389528Y3851192D01*
X12663123Y4260656D01*
X13011344Y4608877D01*
X13395397Y4865493D01*
X13420806Y4882471D01*
X13545582Y4934155D01*
X13875778Y5070927D01*
X14358770Y5167000D01*
X14851230Y5167000D01*
X15334222Y5070927D01*
X15334222Y5070927D01*
G37*
G36*
X-5929373Y3377701D02*
G01*
X-5849258Y3353398D01*
X-5769145Y3329097D01*
X-5769143Y3329096D01*
X-5621482Y3250169D01*
X-5492051Y3143949D01*
X-5385831Y3014518D01*
X-5331691Y2913230D01*
X-5306903Y2866855D01*
X-5282602Y2786742D01*
X-5258299Y2706627D01*
X-5241888Y2540000D01*
X-5258299Y2373373D01*
X-5282601Y2293258D01*
X-5304438Y2221270D01*
X-5306904Y2213143D01*
X-5385831Y2065482D01*
X-5492051Y1936051D01*
X-5621482Y1829831D01*
X-5769143Y1750904D01*
X-5769145Y1750903D01*
X-5849258Y1726602D01*
X-5929373Y1702299D01*
X-6054248Y1690000D01*
X-6137752Y1690000D01*
X-6262627Y1702299D01*
X-6342742Y1726602D01*
X-6422855Y1750903D01*
X-6422857Y1750904D01*
X-6570518Y1829831D01*
X-6699949Y1936051D01*
X-6806169Y2065482D01*
X-6885096Y2213143D01*
X-6887561Y2221270D01*
X-6909398Y2293258D01*
X-6933701Y2373373D01*
X-6950112Y2540000D01*
X-6933701Y2706627D01*
X-6909399Y2786742D01*
X-6885097Y2866855D01*
X-6860309Y2913230D01*
X-6806169Y3014518D01*
X-6699949Y3143949D01*
X-6570518Y3250169D01*
X-6422857Y3329096D01*
X-6422855Y3329097D01*
X-6342742Y3353398D01*
X-6262627Y3377701D01*
X-6137752Y3390000D01*
X-6054248Y3390000D01*
X-5929373Y3377701D01*
X-5929373Y3377701D01*
G37*
G36*
X-3389373Y3377701D02*
G01*
X-3309258Y3353398D01*
X-3229145Y3329097D01*
X-3229143Y3329096D01*
X-3081482Y3250169D01*
X-2952051Y3143949D01*
X-2845831Y3014518D01*
X-2791691Y2913230D01*
X-2766903Y2866855D01*
X-2742601Y2786742D01*
X-2718299Y2706627D01*
X-2701888Y2540000D01*
X-2718299Y2373373D01*
X-2742601Y2293258D01*
X-2764438Y2221270D01*
X-2766904Y2213143D01*
X-2845831Y2065482D01*
X-2952051Y1936051D01*
X-3081482Y1829831D01*
X-3229143Y1750904D01*
X-3229145Y1750903D01*
X-3309258Y1726602D01*
X-3389373Y1702299D01*
X-3514248Y1690000D01*
X-3597752Y1690000D01*
X-3722627Y1702299D01*
X-3802742Y1726602D01*
X-3882855Y1750903D01*
X-3882857Y1750904D01*
X-4030518Y1829831D01*
X-4159949Y1936051D01*
X-4266169Y2065482D01*
X-4345096Y2213143D01*
X-4347561Y2221270D01*
X-4369398Y2293258D01*
X-4393701Y2373373D01*
X-4410112Y2540000D01*
X-4393701Y2706627D01*
X-4369399Y2786742D01*
X-4345097Y2866855D01*
X-4320309Y2913230D01*
X-4266169Y3014518D01*
X-4159949Y3143949D01*
X-4030518Y3250169D01*
X-3882857Y3329096D01*
X-3882855Y3329097D01*
X-3802742Y3353398D01*
X-3722627Y3377701D01*
X-3597752Y3390000D01*
X-3514248Y3390000D01*
X-3389373Y3377701D01*
X-3389373Y3377701D01*
G37*
G36*
X-362157Y3020786D02*
G01*
X-271163Y2983095D01*
X-271161Y2983094D01*
X-229937Y2955549D01*
X-189270Y2928376D01*
X-119624Y2858730D01*
X-64905Y2776837D01*
X-27214Y2685843D01*
X-8000Y2589247D01*
X-8000Y2490753D01*
X-27214Y2394157D01*
X-27215Y2394155D01*
X-64906Y2303161D01*
X-119625Y2221269D01*
X-189269Y2151625D01*
X-271161Y2096906D01*
X-271162Y2096905D01*
X-271163Y2096905D01*
X-362157Y2059214D01*
X-458753Y2040000D01*
X-557247Y2040000D01*
X-653843Y2059214D01*
X-744837Y2096905D01*
X-744838Y2096905D01*
X-744839Y2096906D01*
X-826731Y2151625D01*
X-896375Y2221269D01*
X-951094Y2303161D01*
X-988785Y2394155D01*
X-988786Y2394157D01*
X-1008000Y2490753D01*
X-1008000Y2589247D01*
X-988786Y2685843D01*
X-951095Y2776837D01*
X-896376Y2858730D01*
X-826730Y2928376D01*
X-786063Y2955549D01*
X-744839Y2983094D01*
X-744837Y2983095D01*
X-653843Y3020786D01*
X-557247Y3040000D01*
X-458753Y3040000D01*
X-362157Y3020786D01*
X-362157Y3020786D01*
G37*
G36*
X70191501Y3463466D02*
G01*
X70246097Y3440851D01*
X70295233Y3408020D01*
X70337020Y3366233D01*
X70369851Y3317097D01*
X70392466Y3262501D01*
X70403994Y3204541D01*
X70403994Y3145447D01*
X70392466Y3087487D01*
X70369851Y3032891D01*
X70337020Y2983755D01*
X70295233Y2941968D01*
X70246097Y2909137D01*
X70191501Y2886522D01*
X70133541Y2874994D01*
X70074447Y2874994D01*
X70016487Y2886522D01*
X69961891Y2909137D01*
X69912755Y2941968D01*
X69870968Y2983755D01*
X69838137Y3032891D01*
X69815522Y3087487D01*
X69803994Y3145447D01*
X69803994Y3204541D01*
X69815522Y3262501D01*
X69838137Y3317097D01*
X69870968Y3366233D01*
X69912755Y3408020D01*
X69961891Y3440851D01*
X70016487Y3463466D01*
X70074447Y3474994D01*
X70133541Y3474994D01*
X70191501Y3463466D01*
X70191501Y3463466D01*
G37*
G36*
X-3389373Y5917701D02*
G01*
X-3309258Y5893399D01*
X-3229145Y5869097D01*
X-3229143Y5869096D01*
X-3081482Y5790169D01*
X-2952051Y5683949D01*
X-2845831Y5554518D01*
X-2766904Y5406857D01*
X-2766903Y5406855D01*
X-2742602Y5326742D01*
X-2718299Y5246627D01*
X-2701888Y5080000D01*
X-2718299Y4913373D01*
X-2742602Y4833258D01*
X-2764438Y4761270D01*
X-2766904Y4753143D01*
X-2845831Y4605482D01*
X-2952051Y4476051D01*
X-3081482Y4369831D01*
X-3229143Y4290904D01*
X-3229145Y4290903D01*
X-3309258Y4266601D01*
X-3389373Y4242299D01*
X-3514248Y4230000D01*
X-3597752Y4230000D01*
X-3722627Y4242299D01*
X-3802742Y4266601D01*
X-3882855Y4290903D01*
X-3882857Y4290904D01*
X-4030518Y4369831D01*
X-4159949Y4476051D01*
X-4266169Y4605482D01*
X-4345096Y4753143D01*
X-4347561Y4761270D01*
X-4369398Y4833258D01*
X-4393701Y4913373D01*
X-4410112Y5080000D01*
X-4393701Y5246627D01*
X-4369398Y5326742D01*
X-4345097Y5406855D01*
X-4345096Y5406857D01*
X-4266169Y5554518D01*
X-4159949Y5683949D01*
X-4030518Y5790169D01*
X-3882857Y5869096D01*
X-3882855Y5869097D01*
X-3802742Y5893399D01*
X-3722627Y5917701D01*
X-3597752Y5930000D01*
X-3514248Y5930000D01*
X-3389373Y5917701D01*
X-3389373Y5917701D01*
G37*
G36*
X-5929373Y5917701D02*
G01*
X-5849258Y5893399D01*
X-5769145Y5869097D01*
X-5769143Y5869096D01*
X-5621482Y5790169D01*
X-5492051Y5683949D01*
X-5385831Y5554518D01*
X-5306904Y5406857D01*
X-5306903Y5406855D01*
X-5282602Y5326742D01*
X-5258299Y5246627D01*
X-5241888Y5080000D01*
X-5258299Y4913373D01*
X-5282602Y4833258D01*
X-5304438Y4761270D01*
X-5306904Y4753143D01*
X-5385831Y4605482D01*
X-5492051Y4476051D01*
X-5621482Y4369831D01*
X-5769143Y4290904D01*
X-5769145Y4290903D01*
X-5849258Y4266601D01*
X-5929373Y4242299D01*
X-6054248Y4230000D01*
X-6137752Y4230000D01*
X-6262627Y4242299D01*
X-6342742Y4266601D01*
X-6422855Y4290903D01*
X-6422857Y4290904D01*
X-6570518Y4369831D01*
X-6699949Y4476051D01*
X-6806169Y4605482D01*
X-6885096Y4753143D01*
X-6887561Y4761270D01*
X-6909398Y4833258D01*
X-6933701Y4913373D01*
X-6950112Y5080000D01*
X-6933701Y5246627D01*
X-6909398Y5326742D01*
X-6885097Y5406855D01*
X-6885096Y5406857D01*
X-6806169Y5554518D01*
X-6699949Y5683949D01*
X-6570518Y5790169D01*
X-6422857Y5869096D01*
X-6422855Y5869097D01*
X-6342742Y5893399D01*
X-6262627Y5917701D01*
X-6137752Y5930000D01*
X-6054248Y5930000D01*
X-5929373Y5917701D01*
X-5929373Y5917701D01*
G37*
G36*
X-362157Y5560786D02*
G01*
X-347025Y5554518D01*
X-271161Y5523094D01*
X-229937Y5495549D01*
X-189270Y5468376D01*
X-119624Y5398730D01*
X-64905Y5316837D01*
X-27214Y5225843D01*
X-8000Y5129247D01*
X-8000Y5030753D01*
X-27214Y4934157D01*
X-64905Y4843163D01*
X-119624Y4761270D01*
X-189270Y4691624D01*
X-229821Y4664529D01*
X-271161Y4636906D01*
X-271162Y4636905D01*
X-271163Y4636905D01*
X-362157Y4599214D01*
X-458753Y4580000D01*
X-557247Y4580000D01*
X-653843Y4599214D01*
X-744837Y4636905D01*
X-744838Y4636905D01*
X-744839Y4636906D01*
X-786179Y4664529D01*
X-826730Y4691624D01*
X-896376Y4761270D01*
X-951095Y4843163D01*
X-988786Y4934157D01*
X-1008000Y5030753D01*
X-1008000Y5129247D01*
X-988786Y5225843D01*
X-951095Y5316837D01*
X-896376Y5398730D01*
X-826730Y5468376D01*
X-786063Y5495549D01*
X-744839Y5523094D01*
X-668975Y5554518D01*
X-653843Y5560786D01*
X-557247Y5580000D01*
X-458753Y5580000D01*
X-362157Y5560786D01*
X-362157Y5560786D01*
G37*
G36*
X54824511Y5241472D02*
G01*
X54879107Y5218857D01*
X54928243Y5186026D01*
X54970030Y5144239D01*
X55002861Y5095103D01*
X55025476Y5040507D01*
X55037004Y4982547D01*
X55037004Y4923453D01*
X55025476Y4865493D01*
X55002861Y4810897D01*
X54970030Y4761761D01*
X54928243Y4719974D01*
X54879107Y4687143D01*
X54824511Y4664528D01*
X54766551Y4653000D01*
X54707457Y4653000D01*
X54649497Y4664528D01*
X54594901Y4687143D01*
X54545765Y4719974D01*
X54503978Y4761761D01*
X54471147Y4810897D01*
X54448532Y4865493D01*
X54437004Y4923453D01*
X54437004Y4982547D01*
X54448532Y5040507D01*
X54471147Y5095103D01*
X54503978Y5144239D01*
X54545765Y5186026D01*
X54594901Y5218857D01*
X54649497Y5241472D01*
X54707457Y5253000D01*
X54766551Y5253000D01*
X54824511Y5241472D01*
X54824511Y5241472D01*
G37*
G36*
X-3389373Y8457701D02*
G01*
X-3309258Y8433398D01*
X-3229145Y8409097D01*
X-3229143Y8409096D01*
X-3081482Y8330169D01*
X-2952051Y8223949D01*
X-2845831Y8094518D01*
X-2766904Y7946857D01*
X-2766903Y7946855D01*
X-2758757Y7920000D01*
X-2718299Y7786627D01*
X-2701888Y7620000D01*
X-2718299Y7453373D01*
X-2742601Y7373258D01*
X-2764438Y7301270D01*
X-2766904Y7293143D01*
X-2845831Y7145482D01*
X-2952051Y7016051D01*
X-3081482Y6909831D01*
X-3229143Y6830904D01*
X-3229145Y6830903D01*
X-3309258Y6806601D01*
X-3389373Y6782299D01*
X-3514248Y6770000D01*
X-3597752Y6770000D01*
X-3722627Y6782299D01*
X-3802742Y6806601D01*
X-3882855Y6830903D01*
X-3882857Y6830904D01*
X-4030518Y6909831D01*
X-4159949Y7016051D01*
X-4266169Y7145482D01*
X-4345096Y7293143D01*
X-4347561Y7301270D01*
X-4369399Y7373258D01*
X-4393701Y7453373D01*
X-4410112Y7620000D01*
X-4393701Y7786627D01*
X-4353243Y7920000D01*
X-4345097Y7946855D01*
X-4345096Y7946857D01*
X-4266169Y8094518D01*
X-4159949Y8223949D01*
X-4030518Y8330169D01*
X-3882857Y8409096D01*
X-3882855Y8409097D01*
X-3802742Y8433398D01*
X-3722627Y8457701D01*
X-3597752Y8470000D01*
X-3514248Y8470000D01*
X-3389373Y8457701D01*
X-3389373Y8457701D01*
G37*
G36*
X-5929373Y8457701D02*
G01*
X-5849258Y8433398D01*
X-5769145Y8409097D01*
X-5769143Y8409096D01*
X-5621482Y8330169D01*
X-5492051Y8223949D01*
X-5385831Y8094518D01*
X-5306904Y7946857D01*
X-5306903Y7946855D01*
X-5298757Y7920000D01*
X-5258299Y7786627D01*
X-5241888Y7620000D01*
X-5258299Y7453373D01*
X-5282601Y7373258D01*
X-5304438Y7301270D01*
X-5306904Y7293143D01*
X-5385831Y7145482D01*
X-5492051Y7016051D01*
X-5621482Y6909831D01*
X-5769143Y6830904D01*
X-5769145Y6830903D01*
X-5849258Y6806601D01*
X-5929373Y6782299D01*
X-6054248Y6770000D01*
X-6137752Y6770000D01*
X-6262627Y6782299D01*
X-6342742Y6806601D01*
X-6422855Y6830903D01*
X-6422857Y6830904D01*
X-6570518Y6909831D01*
X-6699949Y7016051D01*
X-6806169Y7145482D01*
X-6885096Y7293143D01*
X-6887561Y7301270D01*
X-6909399Y7373258D01*
X-6933701Y7453373D01*
X-6950112Y7620000D01*
X-6933701Y7786627D01*
X-6893243Y7920000D01*
X-6885097Y7946855D01*
X-6885096Y7946857D01*
X-6806169Y8094518D01*
X-6699949Y8223949D01*
X-6570518Y8330169D01*
X-6422857Y8409096D01*
X-6422855Y8409097D01*
X-6342742Y8433398D01*
X-6262627Y8457701D01*
X-6137752Y8470000D01*
X-6054248Y8470000D01*
X-5929373Y8457701D01*
X-5929373Y8457701D01*
G37*
G36*
X-362157Y8100786D02*
G01*
X-347025Y8094518D01*
X-271161Y8063094D01*
X-229937Y8035549D01*
X-189270Y8008376D01*
X-119624Y7938730D01*
X-64905Y7856837D01*
X-27214Y7765843D01*
X-8000Y7669247D01*
X-8000Y7570753D01*
X-27214Y7474157D01*
X-63327Y7386973D01*
X-64906Y7383161D01*
X-119625Y7301269D01*
X-189269Y7231625D01*
X-271161Y7176906D01*
X-271162Y7176905D01*
X-271163Y7176905D01*
X-362157Y7139214D01*
X-458753Y7120000D01*
X-557247Y7120000D01*
X-653843Y7139214D01*
X-744837Y7176905D01*
X-744838Y7176905D01*
X-744839Y7176906D01*
X-826731Y7231625D01*
X-896375Y7301269D01*
X-951094Y7383161D01*
X-952673Y7386973D01*
X-988786Y7474157D01*
X-1008000Y7570753D01*
X-1008000Y7669247D01*
X-988786Y7765843D01*
X-951095Y7856837D01*
X-896376Y7938730D01*
X-826730Y8008376D01*
X-786063Y8035549D01*
X-744839Y8063094D01*
X-668975Y8094518D01*
X-653843Y8100786D01*
X-557247Y8120000D01*
X-458753Y8120000D01*
X-362157Y8100786D01*
X-362157Y8100786D01*
G37*
G36*
X13549507Y7908472D02*
G01*
X13604103Y7885857D01*
X13653239Y7853026D01*
X13695026Y7811239D01*
X13727857Y7762103D01*
X13750472Y7707507D01*
X13762000Y7649547D01*
X13762000Y7590453D01*
X13750472Y7532493D01*
X13727857Y7477897D01*
X13695026Y7428761D01*
X13653239Y7386974D01*
X13604103Y7354143D01*
X13549507Y7331528D01*
X13491547Y7320000D01*
X13432453Y7320000D01*
X13374493Y7331528D01*
X13319897Y7354143D01*
X13270761Y7386974D01*
X13228974Y7428761D01*
X13196143Y7477897D01*
X13173528Y7532493D01*
X13162000Y7590453D01*
X13162000Y7649547D01*
X13173528Y7707507D01*
X13196143Y7762103D01*
X13228974Y7811239D01*
X13270761Y7853026D01*
X13319897Y7885857D01*
X13374493Y7908472D01*
X13432453Y7920000D01*
X13491547Y7920000D01*
X13549507Y7908472D01*
X13549507Y7908472D01*
G37*
G36*
X-5929373Y10997701D02*
G01*
X-5849258Y10973399D01*
X-5769145Y10949097D01*
X-5769143Y10949096D01*
X-5621482Y10870169D01*
X-5492051Y10763949D01*
X-5385831Y10634518D01*
X-5328531Y10527318D01*
X-5306903Y10486855D01*
X-5298757Y10460000D01*
X-5258299Y10326627D01*
X-5241888Y10160000D01*
X-5258299Y9993373D01*
X-5282601Y9913258D01*
X-5304438Y9841270D01*
X-5306904Y9833143D01*
X-5385831Y9685482D01*
X-5492051Y9556051D01*
X-5621482Y9449831D01*
X-5769143Y9370904D01*
X-5769145Y9370903D01*
X-5849258Y9346601D01*
X-5929373Y9322299D01*
X-6054248Y9310000D01*
X-6137752Y9310000D01*
X-6262627Y9322299D01*
X-6342742Y9346601D01*
X-6422855Y9370903D01*
X-6422857Y9370904D01*
X-6570518Y9449831D01*
X-6699949Y9556051D01*
X-6806169Y9685482D01*
X-6885096Y9833143D01*
X-6887561Y9841270D01*
X-6909399Y9913258D01*
X-6933701Y9993373D01*
X-6950112Y10160000D01*
X-6933701Y10326627D01*
X-6893243Y10460000D01*
X-6885097Y10486855D01*
X-6863469Y10527318D01*
X-6806169Y10634518D01*
X-6699949Y10763949D01*
X-6570518Y10870169D01*
X-6422857Y10949096D01*
X-6422855Y10949097D01*
X-6342742Y10973399D01*
X-6262627Y10997701D01*
X-6137752Y11010000D01*
X-6054248Y11010000D01*
X-5929373Y10997701D01*
X-5929373Y10997701D01*
G37*
G36*
X-3389373Y10997701D02*
G01*
X-3309258Y10973399D01*
X-3229145Y10949097D01*
X-3229143Y10949096D01*
X-3081482Y10870169D01*
X-2952051Y10763949D01*
X-2845831Y10634518D01*
X-2788531Y10527318D01*
X-2766903Y10486855D01*
X-2758757Y10460000D01*
X-2718299Y10326627D01*
X-2701888Y10160000D01*
X-2718299Y9993373D01*
X-2742601Y9913258D01*
X-2764438Y9841270D01*
X-2766904Y9833143D01*
X-2845831Y9685482D01*
X-2952051Y9556051D01*
X-3081482Y9449831D01*
X-3229143Y9370904D01*
X-3229145Y9370903D01*
X-3309258Y9346601D01*
X-3389373Y9322299D01*
X-3514248Y9310000D01*
X-3597752Y9310000D01*
X-3722627Y9322299D01*
X-3802742Y9346601D01*
X-3882855Y9370903D01*
X-3882857Y9370904D01*
X-4030518Y9449831D01*
X-4159949Y9556051D01*
X-4266169Y9685482D01*
X-4345096Y9833143D01*
X-4347561Y9841270D01*
X-4369399Y9913258D01*
X-4393701Y9993373D01*
X-4410112Y10160000D01*
X-4393701Y10326627D01*
X-4353243Y10460000D01*
X-4345097Y10486855D01*
X-4323469Y10527318D01*
X-4266169Y10634518D01*
X-4159949Y10763949D01*
X-4030518Y10870169D01*
X-3882857Y10949096D01*
X-3882855Y10949097D01*
X-3802742Y10973399D01*
X-3722627Y10997701D01*
X-3597752Y11010000D01*
X-3514248Y11010000D01*
X-3389373Y10997701D01*
X-3389373Y10997701D01*
G37*
G36*
X-362157Y10640786D02*
G01*
X-347025Y10634518D01*
X-271161Y10603094D01*
X-189269Y10548375D01*
X-119625Y10478731D01*
X-66969Y10399927D01*
X-64905Y10396837D01*
X-27214Y10305843D01*
X-8000Y10209247D01*
X-8000Y10110753D01*
X-27214Y10014157D01*
X-63327Y9926973D01*
X-64906Y9923161D01*
X-119625Y9841269D01*
X-189269Y9771625D01*
X-271161Y9716906D01*
X-271162Y9716905D01*
X-271163Y9716905D01*
X-362157Y9679214D01*
X-458753Y9660000D01*
X-557247Y9660000D01*
X-653843Y9679214D01*
X-744837Y9716905D01*
X-744838Y9716905D01*
X-744839Y9716906D01*
X-826731Y9771625D01*
X-896375Y9841269D01*
X-951094Y9923161D01*
X-952673Y9926973D01*
X-988786Y10014157D01*
X-1008000Y10110753D01*
X-1008000Y10209247D01*
X-988786Y10305843D01*
X-951095Y10396837D01*
X-949030Y10399927D01*
X-896375Y10478731D01*
X-826731Y10548375D01*
X-744839Y10603094D01*
X-668975Y10634518D01*
X-653843Y10640786D01*
X-557247Y10660000D01*
X-458753Y10660000D01*
X-362157Y10640786D01*
X-362157Y10640786D01*
G37*
G36*
X16089507Y10448472D02*
G01*
X16144103Y10425857D01*
X16193239Y10393026D01*
X16235026Y10351239D01*
X16267857Y10302103D01*
X16290472Y10247507D01*
X16302000Y10189547D01*
X16302000Y10130453D01*
X16290472Y10072493D01*
X16267857Y10017897D01*
X16235026Y9968761D01*
X16193239Y9926974D01*
X16144103Y9894143D01*
X16089507Y9871528D01*
X16031547Y9860000D01*
X15972453Y9860000D01*
X15914493Y9871528D01*
X15859897Y9894143D01*
X15810761Y9926974D01*
X15768974Y9968761D01*
X15736143Y10017897D01*
X15713528Y10072493D01*
X15702000Y10130453D01*
X15702000Y10189547D01*
X15713528Y10247507D01*
X15736143Y10302103D01*
X15768974Y10351239D01*
X15810761Y10393026D01*
X15859897Y10425857D01*
X15914493Y10448472D01*
X15972453Y10460000D01*
X16031547Y10460000D01*
X16089507Y10448472D01*
X16089507Y10448472D01*
G37*
G36*
X46622682Y11404600D02*
G01*
X46750073Y11351833D01*
X46750074Y11351832D01*
X46864724Y11275226D01*
X46962226Y11177724D01*
X46962227Y11177722D01*
X47038833Y11063073D01*
X47091600Y10935682D01*
X47118500Y10800445D01*
X47118500Y10662555D01*
X47091600Y10527318D01*
X47038833Y10399927D01*
X47034222Y10393026D01*
X46962226Y10285276D01*
X46864724Y10187774D01*
X46823157Y10160000D01*
X46750073Y10111167D01*
X46622682Y10058400D01*
X46487445Y10031500D01*
X46349555Y10031500D01*
X46214318Y10058400D01*
X46086927Y10111167D01*
X46013843Y10160000D01*
X45972276Y10187774D01*
X45874774Y10285276D01*
X45802778Y10393026D01*
X45798167Y10399927D01*
X45745400Y10527318D01*
X45718500Y10662555D01*
X45718500Y10800445D01*
X45745400Y10935682D01*
X45798167Y11063073D01*
X45874773Y11177722D01*
X45874774Y11177724D01*
X45972276Y11275226D01*
X46086926Y11351832D01*
X46086927Y11351833D01*
X46214318Y11404600D01*
X46349555Y11431500D01*
X46487445Y11431500D01*
X46622682Y11404600D01*
X46622682Y11404600D01*
G37*
G36*
X38935724Y11421372D02*
G01*
X39067675Y11381345D01*
X39189281Y11316345D01*
X39295870Y11228870D01*
X39383345Y11122281D01*
X39448345Y11000675D01*
X39488372Y10868724D01*
X39501887Y10731500D01*
X39488372Y10594276D01*
X39448345Y10462325D01*
X39383345Y10340719D01*
X39295870Y10234130D01*
X39189281Y10146655D01*
X39067675Y10081655D01*
X38935724Y10041628D01*
X38832890Y10031500D01*
X38764110Y10031500D01*
X38661276Y10041628D01*
X38529325Y10081655D01*
X38407719Y10146655D01*
X38301130Y10234130D01*
X38213655Y10340719D01*
X38148655Y10462325D01*
X38108628Y10594276D01*
X38095113Y10731500D01*
X38108628Y10868724D01*
X38148655Y11000675D01*
X38213655Y11122281D01*
X38301130Y11228870D01*
X38407719Y11316345D01*
X38529325Y11381345D01*
X38661276Y11421372D01*
X38764110Y11431500D01*
X38832890Y11431500D01*
X38935724Y11421372D01*
X38935724Y11421372D01*
G37*
G36*
X-5929373Y13537701D02*
G01*
X-5849258Y13513398D01*
X-5769145Y13489097D01*
X-5769143Y13489096D01*
X-5621482Y13410169D01*
X-5492051Y13303949D01*
X-5385831Y13174518D01*
X-5306904Y13026857D01*
X-5306903Y13026855D01*
X-5282602Y12946742D01*
X-5258299Y12866627D01*
X-5241888Y12700000D01*
X-5258299Y12533373D01*
X-5282601Y12453258D01*
X-5304438Y12381270D01*
X-5306904Y12373143D01*
X-5385831Y12225482D01*
X-5492051Y12096051D01*
X-5621482Y11989831D01*
X-5769143Y11910904D01*
X-5769145Y11910903D01*
X-5849258Y11886602D01*
X-5929373Y11862299D01*
X-6054248Y11850000D01*
X-6137752Y11850000D01*
X-6262627Y11862299D01*
X-6342742Y11886602D01*
X-6422855Y11910903D01*
X-6422857Y11910904D01*
X-6570518Y11989831D01*
X-6699949Y12096051D01*
X-6806169Y12225482D01*
X-6885096Y12373143D01*
X-6887561Y12381270D01*
X-6909399Y12453258D01*
X-6933701Y12533373D01*
X-6950112Y12700000D01*
X-6933701Y12866627D01*
X-6909398Y12946742D01*
X-6885097Y13026855D01*
X-6885096Y13026857D01*
X-6806169Y13174518D01*
X-6699949Y13303949D01*
X-6570518Y13410169D01*
X-6422857Y13489096D01*
X-6422855Y13489097D01*
X-6342742Y13513398D01*
X-6262627Y13537701D01*
X-6137752Y13550000D01*
X-6054248Y13550000D01*
X-5929373Y13537701D01*
X-5929373Y13537701D01*
G37*
G36*
X-3389373Y13537701D02*
G01*
X-3309258Y13513398D01*
X-3229145Y13489097D01*
X-3229143Y13489096D01*
X-3081482Y13410169D01*
X-2952051Y13303949D01*
X-2845831Y13174518D01*
X-2766904Y13026857D01*
X-2766903Y13026855D01*
X-2742602Y12946742D01*
X-2718299Y12866627D01*
X-2701888Y12700000D01*
X-2718299Y12533373D01*
X-2742601Y12453258D01*
X-2764438Y12381270D01*
X-2766904Y12373143D01*
X-2845831Y12225482D01*
X-2952051Y12096051D01*
X-3081482Y11989831D01*
X-3229143Y11910904D01*
X-3229145Y11910903D01*
X-3309258Y11886602D01*
X-3389373Y11862299D01*
X-3514248Y11850000D01*
X-3597752Y11850000D01*
X-3722627Y11862299D01*
X-3802742Y11886602D01*
X-3882855Y11910903D01*
X-3882857Y11910904D01*
X-4030518Y11989831D01*
X-4159949Y12096051D01*
X-4266169Y12225482D01*
X-4345096Y12373143D01*
X-4347561Y12381270D01*
X-4369399Y12453258D01*
X-4393701Y12533373D01*
X-4410112Y12700000D01*
X-4393701Y12866627D01*
X-4369398Y12946742D01*
X-4345097Y13026855D01*
X-4345096Y13026857D01*
X-4266169Y13174518D01*
X-4159949Y13303949D01*
X-4030518Y13410169D01*
X-3882857Y13489096D01*
X-3882855Y13489097D01*
X-3802742Y13513398D01*
X-3722627Y13537701D01*
X-3597752Y13550000D01*
X-3514248Y13550000D01*
X-3389373Y13537701D01*
X-3389373Y13537701D01*
G37*
G36*
X-362157Y13180786D02*
G01*
X-347025Y13174518D01*
X-271161Y13143094D01*
X-229937Y13115549D01*
X-189270Y13088376D01*
X-119624Y13018730D01*
X-64905Y12936837D01*
X-27214Y12845843D01*
X-8000Y12749247D01*
X-8000Y12650753D01*
X-27214Y12554157D01*
X-27215Y12554155D01*
X-64906Y12463161D01*
X-119625Y12381269D01*
X-189269Y12311625D01*
X-271161Y12256906D01*
X-271162Y12256905D01*
X-271163Y12256905D01*
X-362157Y12219214D01*
X-458753Y12200000D01*
X-557247Y12200000D01*
X-653843Y12219214D01*
X-744837Y12256905D01*
X-744838Y12256905D01*
X-744839Y12256906D01*
X-826731Y12311625D01*
X-896375Y12381269D01*
X-951094Y12463161D01*
X-988785Y12554155D01*
X-988786Y12554157D01*
X-1008000Y12650753D01*
X-1008000Y12749247D01*
X-988786Y12845843D01*
X-951095Y12936837D01*
X-896376Y13018730D01*
X-826730Y13088376D01*
X-786063Y13115549D01*
X-744839Y13143094D01*
X-668975Y13174518D01*
X-653843Y13180786D01*
X-557247Y13200000D01*
X-458753Y13200000D01*
X-362157Y13180786D01*
X-362157Y13180786D01*
G37*
G36*
X-3389373Y16077701D02*
G01*
X-3309258Y16053399D01*
X-3229145Y16029097D01*
X-3229143Y16029096D01*
X-3081482Y15950169D01*
X-2952051Y15843949D01*
X-2845831Y15714518D01*
X-2766904Y15566857D01*
X-2766903Y15566855D01*
X-2742602Y15486742D01*
X-2718299Y15406627D01*
X-2701888Y15240000D01*
X-2718299Y15073373D01*
X-2742601Y14993258D01*
X-2764438Y14921270D01*
X-2766904Y14913143D01*
X-2845831Y14765482D01*
X-2952051Y14636051D01*
X-3081482Y14529831D01*
X-3229143Y14450904D01*
X-3229145Y14450903D01*
X-3309258Y14426602D01*
X-3389373Y14402299D01*
X-3514248Y14390000D01*
X-3597752Y14390000D01*
X-3722627Y14402299D01*
X-3802742Y14426602D01*
X-3882855Y14450903D01*
X-3882857Y14450904D01*
X-4030518Y14529831D01*
X-4159949Y14636051D01*
X-4266169Y14765482D01*
X-4345096Y14913143D01*
X-4347561Y14921270D01*
X-4369399Y14993258D01*
X-4393701Y15073373D01*
X-4410112Y15240000D01*
X-4393701Y15406627D01*
X-4369398Y15486742D01*
X-4345097Y15566855D01*
X-4345096Y15566857D01*
X-4266169Y15714518D01*
X-4159949Y15843949D01*
X-4030518Y15950169D01*
X-3882857Y16029096D01*
X-3882855Y16029097D01*
X-3802742Y16053399D01*
X-3722627Y16077701D01*
X-3597752Y16090000D01*
X-3514248Y16090000D01*
X-3389373Y16077701D01*
X-3389373Y16077701D01*
G37*
G36*
X-5929373Y16077701D02*
G01*
X-5849258Y16053399D01*
X-5769145Y16029097D01*
X-5769143Y16029096D01*
X-5621482Y15950169D01*
X-5492051Y15843949D01*
X-5385831Y15714518D01*
X-5306904Y15566857D01*
X-5306903Y15566855D01*
X-5282602Y15486742D01*
X-5258299Y15406627D01*
X-5241888Y15240000D01*
X-5258299Y15073373D01*
X-5282601Y14993258D01*
X-5304438Y14921270D01*
X-5306904Y14913143D01*
X-5385831Y14765482D01*
X-5492051Y14636051D01*
X-5621482Y14529831D01*
X-5769143Y14450904D01*
X-5769145Y14450903D01*
X-5849258Y14426602D01*
X-5929373Y14402299D01*
X-6054248Y14390000D01*
X-6137752Y14390000D01*
X-6262627Y14402299D01*
X-6342742Y14426602D01*
X-6422855Y14450903D01*
X-6422857Y14450904D01*
X-6570518Y14529831D01*
X-6699949Y14636051D01*
X-6806169Y14765482D01*
X-6885096Y14913143D01*
X-6887561Y14921270D01*
X-6909399Y14993258D01*
X-6933701Y15073373D01*
X-6950112Y15240000D01*
X-6933701Y15406627D01*
X-6909398Y15486742D01*
X-6885097Y15566855D01*
X-6885096Y15566857D01*
X-6806169Y15714518D01*
X-6699949Y15843949D01*
X-6570518Y15950169D01*
X-6422857Y16029096D01*
X-6422855Y16029097D01*
X-6342742Y16053399D01*
X-6262627Y16077701D01*
X-6137752Y16090000D01*
X-6054248Y16090000D01*
X-5929373Y16077701D01*
X-5929373Y16077701D01*
G37*
G36*
X-362157Y15720786D02*
G01*
X-347025Y15714518D01*
X-271161Y15683094D01*
X-229937Y15655549D01*
X-189270Y15628376D01*
X-119624Y15558730D01*
X-64905Y15476837D01*
X-27214Y15385843D01*
X-8000Y15289247D01*
X-8000Y15190753D01*
X-27214Y15094157D01*
X-27215Y15094155D01*
X-64906Y15003161D01*
X-119625Y14921269D01*
X-189269Y14851625D01*
X-271161Y14796906D01*
X-271162Y14796905D01*
X-271163Y14796905D01*
X-362157Y14759214D01*
X-458753Y14740000D01*
X-557247Y14740000D01*
X-653843Y14759214D01*
X-744837Y14796905D01*
X-744838Y14796905D01*
X-744839Y14796906D01*
X-826731Y14851625D01*
X-896375Y14921269D01*
X-951094Y15003161D01*
X-988785Y15094155D01*
X-988786Y15094157D01*
X-1008000Y15190753D01*
X-1008000Y15289247D01*
X-988786Y15385843D01*
X-951095Y15476837D01*
X-896376Y15558730D01*
X-826730Y15628376D01*
X-786063Y15655549D01*
X-744839Y15683094D01*
X-668975Y15714518D01*
X-653843Y15720786D01*
X-557247Y15740000D01*
X-458753Y15740000D01*
X-362157Y15720786D01*
X-362157Y15720786D01*
G37*
G36*
X97699707Y16722272D02*
G01*
X97754303Y16699657D01*
X97803439Y16666826D01*
X97845226Y16625039D01*
X97878057Y16575903D01*
X97900672Y16521307D01*
X97912200Y16463347D01*
X97912200Y16404253D01*
X97900672Y16346293D01*
X97878057Y16291697D01*
X97845226Y16242561D01*
X97803439Y16200774D01*
X97754303Y16167943D01*
X97699707Y16145328D01*
X97641747Y16133800D01*
X97582653Y16133800D01*
X97524693Y16145328D01*
X97470097Y16167943D01*
X97420961Y16200774D01*
X97379174Y16242561D01*
X97346343Y16291697D01*
X97323728Y16346293D01*
X97312200Y16404253D01*
X97312200Y16463347D01*
X97323728Y16521307D01*
X97346343Y16575903D01*
X97379174Y16625039D01*
X97420961Y16666826D01*
X97470097Y16699657D01*
X97524693Y16722272D01*
X97582653Y16733800D01*
X97641747Y16733800D01*
X97699707Y16722272D01*
X97699707Y16722272D01*
G37*
G36*
X-3389373Y18617701D02*
G01*
X-3309258Y18593398D01*
X-3229145Y18569097D01*
X-3229143Y18569096D01*
X-3081482Y18490169D01*
X-2952051Y18383949D01*
X-2845831Y18254518D01*
X-2766904Y18106857D01*
X-2766903Y18106855D01*
X-2742601Y18026742D01*
X-2718299Y17946627D01*
X-2701888Y17780000D01*
X-2718299Y17613373D01*
X-2742602Y17533258D01*
X-2764438Y17461270D01*
X-2766904Y17453143D01*
X-2845831Y17305482D01*
X-2952051Y17176051D01*
X-3081482Y17069831D01*
X-3229143Y16990904D01*
X-3229145Y16990903D01*
X-3309258Y16966601D01*
X-3389373Y16942299D01*
X-3514248Y16930000D01*
X-3597752Y16930000D01*
X-3722627Y16942299D01*
X-3802742Y16966601D01*
X-3882855Y16990903D01*
X-3882857Y16990904D01*
X-4030518Y17069831D01*
X-4159949Y17176051D01*
X-4266169Y17305482D01*
X-4345096Y17453143D01*
X-4347561Y17461270D01*
X-4369398Y17533258D01*
X-4393701Y17613373D01*
X-4410112Y17780000D01*
X-4393701Y17946627D01*
X-4369399Y18026742D01*
X-4345097Y18106855D01*
X-4345096Y18106857D01*
X-4266169Y18254518D01*
X-4159949Y18383949D01*
X-4030518Y18490169D01*
X-3882857Y18569096D01*
X-3882855Y18569097D01*
X-3802742Y18593398D01*
X-3722627Y18617701D01*
X-3597752Y18630000D01*
X-3514248Y18630000D01*
X-3389373Y18617701D01*
X-3389373Y18617701D01*
G37*
G36*
X-5929373Y18617701D02*
G01*
X-5849258Y18593398D01*
X-5769145Y18569097D01*
X-5769143Y18569096D01*
X-5621482Y18490169D01*
X-5492051Y18383949D01*
X-5385831Y18254518D01*
X-5306904Y18106857D01*
X-5306903Y18106855D01*
X-5282601Y18026742D01*
X-5258299Y17946627D01*
X-5241888Y17780000D01*
X-5258299Y17613373D01*
X-5282602Y17533258D01*
X-5304438Y17461270D01*
X-5306904Y17453143D01*
X-5385831Y17305482D01*
X-5492051Y17176051D01*
X-5621482Y17069831D01*
X-5769143Y16990904D01*
X-5769145Y16990903D01*
X-5849258Y16966601D01*
X-5929373Y16942299D01*
X-6054248Y16930000D01*
X-6137752Y16930000D01*
X-6262627Y16942299D01*
X-6342742Y16966601D01*
X-6422855Y16990903D01*
X-6422857Y16990904D01*
X-6570518Y17069831D01*
X-6699949Y17176051D01*
X-6806169Y17305482D01*
X-6885096Y17453143D01*
X-6887561Y17461270D01*
X-6909398Y17533258D01*
X-6933701Y17613373D01*
X-6950112Y17780000D01*
X-6933701Y17946627D01*
X-6909399Y18026742D01*
X-6885097Y18106855D01*
X-6885096Y18106857D01*
X-6806169Y18254518D01*
X-6699949Y18383949D01*
X-6570518Y18490169D01*
X-6422857Y18569096D01*
X-6422855Y18569097D01*
X-6342742Y18593398D01*
X-6262627Y18617701D01*
X-6137752Y18630000D01*
X-6054248Y18630000D01*
X-5929373Y18617701D01*
X-5929373Y18617701D01*
G37*
G36*
X-362157Y18260786D02*
G01*
X-347025Y18254518D01*
X-271161Y18223094D01*
X-229937Y18195549D01*
X-189270Y18168376D01*
X-119624Y18098730D01*
X-64905Y18016837D01*
X-27214Y17925843D01*
X-8000Y17829247D01*
X-8000Y17730753D01*
X-27214Y17634157D01*
X-64905Y17543163D01*
X-119624Y17461270D01*
X-189270Y17391624D01*
X-229821Y17364529D01*
X-271161Y17336906D01*
X-271162Y17336905D01*
X-271163Y17336905D01*
X-362157Y17299214D01*
X-458753Y17280000D01*
X-557247Y17280000D01*
X-653843Y17299214D01*
X-744837Y17336905D01*
X-744838Y17336905D01*
X-744839Y17336906D01*
X-786179Y17364529D01*
X-826730Y17391624D01*
X-896376Y17461270D01*
X-951095Y17543163D01*
X-988786Y17634157D01*
X-1008000Y17730753D01*
X-1008000Y17829247D01*
X-988786Y17925843D01*
X-951095Y18016837D01*
X-896376Y18098730D01*
X-826730Y18168376D01*
X-786063Y18195549D01*
X-744839Y18223094D01*
X-668975Y18254518D01*
X-653843Y18260786D01*
X-557247Y18280000D01*
X-458753Y18280000D01*
X-362157Y18260786D01*
X-362157Y18260786D01*
G37*
G36*
X81113507Y17941472D02*
G01*
X81168103Y17918857D01*
X81217239Y17886026D01*
X81259026Y17844239D01*
X81291857Y17795103D01*
X81314472Y17740507D01*
X81326000Y17682547D01*
X81326000Y17623453D01*
X81314472Y17565493D01*
X81291857Y17510897D01*
X81259026Y17461761D01*
X81217239Y17419974D01*
X81168103Y17387143D01*
X81113507Y17364528D01*
X81055547Y17353000D01*
X80996453Y17353000D01*
X80938493Y17364528D01*
X80883897Y17387143D01*
X80834761Y17419974D01*
X80792974Y17461761D01*
X80760143Y17510897D01*
X80737528Y17565493D01*
X80726000Y17623453D01*
X80726000Y17682547D01*
X80737528Y17740507D01*
X80760143Y17795103D01*
X80792974Y17844239D01*
X80834761Y17886026D01*
X80883897Y17918857D01*
X80938493Y17941472D01*
X80996453Y17953000D01*
X81055547Y17953000D01*
X81113507Y17941472D01*
X81113507Y17941472D01*
G37*
G36*
X50633507Y19084472D02*
G01*
X50688103Y19061857D01*
X50737239Y19029026D01*
X50779026Y18987239D01*
X50811857Y18938103D01*
X50834472Y18883507D01*
X50846000Y18825547D01*
X50846000Y18766453D01*
X50834472Y18708493D01*
X50811857Y18653897D01*
X50779026Y18604761D01*
X50737239Y18562974D01*
X50688103Y18530143D01*
X50633507Y18507528D01*
X50575547Y18496000D01*
X50516453Y18496000D01*
X50458493Y18507528D01*
X50403897Y18530143D01*
X50354761Y18562974D01*
X50312974Y18604761D01*
X50280143Y18653897D01*
X50257528Y18708493D01*
X50246000Y18766453D01*
X50246000Y18825547D01*
X50257528Y18883507D01*
X50280143Y18938103D01*
X50312974Y18987239D01*
X50354761Y19029026D01*
X50403897Y19061857D01*
X50458493Y19084472D01*
X50516453Y19096000D01*
X50575547Y19096000D01*
X50633507Y19084472D01*
X50633507Y19084472D01*
G37*
G36*
X-3389373Y21157701D02*
G01*
X-3309258Y21133398D01*
X-3229145Y21109097D01*
X-3229143Y21109096D01*
X-3081482Y21030169D01*
X-2952051Y20923949D01*
X-2845831Y20794518D01*
X-2766904Y20646857D01*
X-2766903Y20646855D01*
X-2742602Y20566742D01*
X-2718299Y20486627D01*
X-2701888Y20320000D01*
X-2718299Y20153373D01*
X-2742602Y20073258D01*
X-2764438Y20001270D01*
X-2766904Y19993143D01*
X-2845831Y19845482D01*
X-2952051Y19716051D01*
X-3081482Y19609831D01*
X-3229143Y19530904D01*
X-3229145Y19530903D01*
X-3309258Y19506602D01*
X-3389373Y19482299D01*
X-3514248Y19470000D01*
X-3597752Y19470000D01*
X-3722627Y19482299D01*
X-3802742Y19506602D01*
X-3882855Y19530903D01*
X-3882857Y19530904D01*
X-4030518Y19609831D01*
X-4159949Y19716051D01*
X-4266169Y19845482D01*
X-4345096Y19993143D01*
X-4347561Y20001270D01*
X-4369398Y20073258D01*
X-4393701Y20153373D01*
X-4410112Y20320000D01*
X-4393701Y20486627D01*
X-4369398Y20566742D01*
X-4345097Y20646855D01*
X-4345096Y20646857D01*
X-4266169Y20794518D01*
X-4159949Y20923949D01*
X-4030518Y21030169D01*
X-3882857Y21109096D01*
X-3882855Y21109097D01*
X-3802742Y21133398D01*
X-3722627Y21157701D01*
X-3597752Y21170000D01*
X-3514248Y21170000D01*
X-3389373Y21157701D01*
X-3389373Y21157701D01*
G37*
G36*
X-5929373Y21157701D02*
G01*
X-5849258Y21133398D01*
X-5769145Y21109097D01*
X-5769143Y21109096D01*
X-5621482Y21030169D01*
X-5492051Y20923949D01*
X-5385831Y20794518D01*
X-5306904Y20646857D01*
X-5306903Y20646855D01*
X-5282602Y20566742D01*
X-5258299Y20486627D01*
X-5241888Y20320000D01*
X-5258299Y20153373D01*
X-5282602Y20073258D01*
X-5304438Y20001270D01*
X-5306904Y19993143D01*
X-5385831Y19845482D01*
X-5492051Y19716051D01*
X-5621482Y19609831D01*
X-5769143Y19530904D01*
X-5769145Y19530903D01*
X-5849258Y19506602D01*
X-5929373Y19482299D01*
X-6054248Y19470000D01*
X-6137752Y19470000D01*
X-6262627Y19482299D01*
X-6342742Y19506602D01*
X-6422855Y19530903D01*
X-6422857Y19530904D01*
X-6570518Y19609831D01*
X-6699949Y19716051D01*
X-6806169Y19845482D01*
X-6885096Y19993143D01*
X-6887561Y20001270D01*
X-6909398Y20073258D01*
X-6933701Y20153373D01*
X-6950112Y20320000D01*
X-6933701Y20486627D01*
X-6909398Y20566742D01*
X-6885097Y20646855D01*
X-6885096Y20646857D01*
X-6806169Y20794518D01*
X-6699949Y20923949D01*
X-6570518Y21030169D01*
X-6422857Y21109096D01*
X-6422855Y21109097D01*
X-6342742Y21133398D01*
X-6262627Y21157701D01*
X-6137752Y21170000D01*
X-6054248Y21170000D01*
X-5929373Y21157701D01*
X-5929373Y21157701D01*
G37*
G36*
X24123935Y21264336D02*
G01*
X24278624Y21200261D01*
X24278626Y21200260D01*
X24417844Y21107238D01*
X24536238Y20988844D01*
X24629260Y20849626D01*
X24629261Y20849624D01*
X24693336Y20694935D01*
X24726000Y20530719D01*
X24726000Y20363281D01*
X24693336Y20199065D01*
X24645327Y20083163D01*
X24629260Y20044374D01*
X24536238Y19905156D01*
X24417844Y19786762D01*
X24278626Y19693740D01*
X24278625Y19693739D01*
X24278624Y19693739D01*
X24123935Y19629664D01*
X23959719Y19597000D01*
X23792281Y19597000D01*
X23628065Y19629664D01*
X23473376Y19693739D01*
X23473375Y19693739D01*
X23473374Y19693740D01*
X23334156Y19786762D01*
X23215762Y19905156D01*
X23122740Y20044374D01*
X23106673Y20083163D01*
X23058664Y20199065D01*
X23026000Y20363281D01*
X23026000Y20530719D01*
X23058664Y20694935D01*
X23122739Y20849624D01*
X23122740Y20849626D01*
X23215762Y20988844D01*
X23334156Y21107238D01*
X23473374Y21200260D01*
X23473376Y21200261D01*
X23628065Y21264336D01*
X23792281Y21297000D01*
X23959719Y21297000D01*
X24123935Y21264336D01*
X24123935Y21264336D01*
G37*
G36*
X54603935Y21264336D02*
G01*
X54758624Y21200261D01*
X54758626Y21200260D01*
X54897844Y21107238D01*
X55016238Y20988844D01*
X55109260Y20849626D01*
X55109261Y20849624D01*
X55173336Y20694935D01*
X55206000Y20530719D01*
X55206000Y20363281D01*
X55173336Y20199065D01*
X55125327Y20083163D01*
X55109260Y20044374D01*
X55016238Y19905156D01*
X54897844Y19786762D01*
X54758626Y19693740D01*
X54758625Y19693739D01*
X54758624Y19693739D01*
X54603935Y19629664D01*
X54439719Y19597000D01*
X54272281Y19597000D01*
X54108065Y19629664D01*
X53953376Y19693739D01*
X53953375Y19693739D01*
X53953374Y19693740D01*
X53814156Y19786762D01*
X53695762Y19905156D01*
X53602740Y20044374D01*
X53586673Y20083163D01*
X53538664Y20199065D01*
X53506000Y20363281D01*
X53506000Y20530719D01*
X53538664Y20694935D01*
X53602739Y20849624D01*
X53602740Y20849626D01*
X53695762Y20988844D01*
X53814156Y21107238D01*
X53953374Y21200260D01*
X53953376Y21200261D01*
X54108065Y21264336D01*
X54272281Y21297000D01*
X54439719Y21297000D01*
X54603935Y21264336D01*
X54603935Y21264336D01*
G37*
G36*
X69843935Y21264336D02*
G01*
X69998624Y21200261D01*
X69998626Y21200260D01*
X70137844Y21107238D01*
X70256238Y20988844D01*
X70349260Y20849626D01*
X70349261Y20849624D01*
X70413336Y20694935D01*
X70446000Y20530719D01*
X70446000Y20363281D01*
X70413336Y20199065D01*
X70365327Y20083163D01*
X70349260Y20044374D01*
X70256238Y19905156D01*
X70137844Y19786762D01*
X69998626Y19693740D01*
X69998625Y19693739D01*
X69998624Y19693739D01*
X69843935Y19629664D01*
X69679719Y19597000D01*
X69512281Y19597000D01*
X69348065Y19629664D01*
X69193376Y19693739D01*
X69193375Y19693739D01*
X69193374Y19693740D01*
X69054156Y19786762D01*
X68935762Y19905156D01*
X68842740Y20044374D01*
X68826673Y20083163D01*
X68778664Y20199065D01*
X68746000Y20363281D01*
X68746000Y20530719D01*
X68778664Y20694935D01*
X68842739Y20849624D01*
X68842740Y20849626D01*
X68935762Y20988844D01*
X69054156Y21107238D01*
X69193374Y21200260D01*
X69193376Y21200261D01*
X69348065Y21264336D01*
X69512281Y21297000D01*
X69679719Y21297000D01*
X69843935Y21264336D01*
X69843935Y21264336D01*
G37*
G36*
X67303935Y21264336D02*
G01*
X67458624Y21200261D01*
X67458626Y21200260D01*
X67597844Y21107238D01*
X67716238Y20988844D01*
X67809260Y20849626D01*
X67809261Y20849624D01*
X67873336Y20694935D01*
X67906000Y20530719D01*
X67906000Y20363281D01*
X67873336Y20199065D01*
X67825327Y20083163D01*
X67809260Y20044374D01*
X67716238Y19905156D01*
X67597844Y19786762D01*
X67458626Y19693740D01*
X67458625Y19693739D01*
X67458624Y19693739D01*
X67303935Y19629664D01*
X67139719Y19597000D01*
X66972281Y19597000D01*
X66808065Y19629664D01*
X66653376Y19693739D01*
X66653375Y19693739D01*
X66653374Y19693740D01*
X66514156Y19786762D01*
X66395762Y19905156D01*
X66302740Y20044374D01*
X66286673Y20083163D01*
X66238664Y20199065D01*
X66206000Y20363281D01*
X66206000Y20530719D01*
X66238664Y20694935D01*
X66302739Y20849624D01*
X66302740Y20849626D01*
X66395762Y20988844D01*
X66514156Y21107238D01*
X66653374Y21200260D01*
X66653376Y21200261D01*
X66808065Y21264336D01*
X66972281Y21297000D01*
X67139719Y21297000D01*
X67303935Y21264336D01*
X67303935Y21264336D01*
G37*
G36*
X64763935Y21264336D02*
G01*
X64918624Y21200261D01*
X64918626Y21200260D01*
X65057844Y21107238D01*
X65176238Y20988844D01*
X65269260Y20849626D01*
X65269261Y20849624D01*
X65333336Y20694935D01*
X65366000Y20530719D01*
X65366000Y20363281D01*
X65333336Y20199065D01*
X65285327Y20083163D01*
X65269260Y20044374D01*
X65176238Y19905156D01*
X65057844Y19786762D01*
X64918626Y19693740D01*
X64918625Y19693739D01*
X64918624Y19693739D01*
X64763935Y19629664D01*
X64599719Y19597000D01*
X64432281Y19597000D01*
X64268065Y19629664D01*
X64113376Y19693739D01*
X64113375Y19693739D01*
X64113374Y19693740D01*
X63974156Y19786762D01*
X63855762Y19905156D01*
X63762740Y20044374D01*
X63746673Y20083163D01*
X63698664Y20199065D01*
X63666000Y20363281D01*
X63666000Y20530719D01*
X63698664Y20694935D01*
X63762739Y20849624D01*
X63762740Y20849626D01*
X63855762Y20988844D01*
X63974156Y21107238D01*
X64113374Y21200260D01*
X64113376Y21200261D01*
X64268065Y21264336D01*
X64432281Y21297000D01*
X64599719Y21297000D01*
X64763935Y21264336D01*
X64763935Y21264336D01*
G37*
G36*
X62223935Y21264336D02*
G01*
X62378624Y21200261D01*
X62378626Y21200260D01*
X62517844Y21107238D01*
X62636238Y20988844D01*
X62729260Y20849626D01*
X62729261Y20849624D01*
X62793336Y20694935D01*
X62826000Y20530719D01*
X62826000Y20363281D01*
X62793336Y20199065D01*
X62745327Y20083163D01*
X62729260Y20044374D01*
X62636238Y19905156D01*
X62517844Y19786762D01*
X62378626Y19693740D01*
X62378625Y19693739D01*
X62378624Y19693739D01*
X62223935Y19629664D01*
X62059719Y19597000D01*
X61892281Y19597000D01*
X61728065Y19629664D01*
X61573376Y19693739D01*
X61573375Y19693739D01*
X61573374Y19693740D01*
X61434156Y19786762D01*
X61315762Y19905156D01*
X61222740Y20044374D01*
X61206673Y20083163D01*
X61158664Y20199065D01*
X61126000Y20363281D01*
X61126000Y20530719D01*
X61158664Y20694935D01*
X61222739Y20849624D01*
X61222740Y20849626D01*
X61315762Y20988844D01*
X61434156Y21107238D01*
X61573374Y21200260D01*
X61573376Y21200261D01*
X61728065Y21264336D01*
X61892281Y21297000D01*
X62059719Y21297000D01*
X62223935Y21264336D01*
X62223935Y21264336D01*
G37*
G36*
X59683935Y21264336D02*
G01*
X59838624Y21200261D01*
X59838626Y21200260D01*
X59977844Y21107238D01*
X60096238Y20988844D01*
X60189260Y20849626D01*
X60189261Y20849624D01*
X60253336Y20694935D01*
X60286000Y20530719D01*
X60286000Y20363281D01*
X60253336Y20199065D01*
X60205327Y20083163D01*
X60189260Y20044374D01*
X60096238Y19905156D01*
X59977844Y19786762D01*
X59838626Y19693740D01*
X59838625Y19693739D01*
X59838624Y19693739D01*
X59683935Y19629664D01*
X59519719Y19597000D01*
X59352281Y19597000D01*
X59188065Y19629664D01*
X59033376Y19693739D01*
X59033375Y19693739D01*
X59033374Y19693740D01*
X58894156Y19786762D01*
X58775762Y19905156D01*
X58682740Y20044374D01*
X58666673Y20083163D01*
X58618664Y20199065D01*
X58586000Y20363281D01*
X58586000Y20530719D01*
X58618664Y20694935D01*
X58682739Y20849624D01*
X58682740Y20849626D01*
X58775762Y20988844D01*
X58894156Y21107238D01*
X59033374Y21200260D01*
X59033376Y21200261D01*
X59188065Y21264336D01*
X59352281Y21297000D01*
X59519719Y21297000D01*
X59683935Y21264336D01*
X59683935Y21264336D01*
G37*
G36*
X57143935Y21264336D02*
G01*
X57298624Y21200261D01*
X57298626Y21200260D01*
X57437844Y21107238D01*
X57556238Y20988844D01*
X57649260Y20849626D01*
X57649261Y20849624D01*
X57713336Y20694935D01*
X57746000Y20530719D01*
X57746000Y20363281D01*
X57713336Y20199065D01*
X57665327Y20083163D01*
X57649260Y20044374D01*
X57556238Y19905156D01*
X57437844Y19786762D01*
X57298626Y19693740D01*
X57298625Y19693739D01*
X57298624Y19693739D01*
X57143935Y19629664D01*
X56979719Y19597000D01*
X56812281Y19597000D01*
X56648065Y19629664D01*
X56493376Y19693739D01*
X56493375Y19693739D01*
X56493374Y19693740D01*
X56354156Y19786762D01*
X56235762Y19905156D01*
X56142740Y20044374D01*
X56126673Y20083163D01*
X56078664Y20199065D01*
X56046000Y20363281D01*
X56046000Y20530719D01*
X56078664Y20694935D01*
X56142739Y20849624D01*
X56142740Y20849626D01*
X56235762Y20988844D01*
X56354156Y21107238D01*
X56493374Y21200260D01*
X56493376Y21200261D01*
X56648065Y21264336D01*
X56812281Y21297000D01*
X56979719Y21297000D01*
X57143935Y21264336D01*
X57143935Y21264336D01*
G37*
G36*
X52063935Y21264336D02*
G01*
X52218624Y21200261D01*
X52218626Y21200260D01*
X52357844Y21107238D01*
X52476238Y20988844D01*
X52569260Y20849626D01*
X52569261Y20849624D01*
X52633336Y20694935D01*
X52666000Y20530719D01*
X52666000Y20363281D01*
X52633336Y20199065D01*
X52585327Y20083163D01*
X52569260Y20044374D01*
X52476238Y19905156D01*
X52357844Y19786762D01*
X52218626Y19693740D01*
X52218625Y19693739D01*
X52218624Y19693739D01*
X52063935Y19629664D01*
X51899719Y19597000D01*
X51732281Y19597000D01*
X51568065Y19629664D01*
X51413376Y19693739D01*
X51413375Y19693739D01*
X51413374Y19693740D01*
X51274156Y19786762D01*
X51155762Y19905156D01*
X51062740Y20044374D01*
X51046673Y20083163D01*
X50998664Y20199065D01*
X50966000Y20363281D01*
X50966000Y20530719D01*
X50998664Y20694935D01*
X51062739Y20849624D01*
X51062740Y20849626D01*
X51155762Y20988844D01*
X51274156Y21107238D01*
X51413374Y21200260D01*
X51413376Y21200261D01*
X51568065Y21264336D01*
X51732281Y21297000D01*
X51899719Y21297000D01*
X52063935Y21264336D01*
X52063935Y21264336D01*
G37*
G36*
X49523935Y21264336D02*
G01*
X49678624Y21200261D01*
X49678626Y21200260D01*
X49817844Y21107238D01*
X49936238Y20988844D01*
X50029260Y20849626D01*
X50029261Y20849624D01*
X50093336Y20694935D01*
X50126000Y20530719D01*
X50126000Y20363281D01*
X50093336Y20199065D01*
X50045327Y20083163D01*
X50029260Y20044374D01*
X49936238Y19905156D01*
X49817844Y19786762D01*
X49678626Y19693740D01*
X49678625Y19693739D01*
X49678624Y19693739D01*
X49523935Y19629664D01*
X49359719Y19597000D01*
X49192281Y19597000D01*
X49028065Y19629664D01*
X48873376Y19693739D01*
X48873375Y19693739D01*
X48873374Y19693740D01*
X48734156Y19786762D01*
X48615762Y19905156D01*
X48522740Y20044374D01*
X48506673Y20083163D01*
X48458664Y20199065D01*
X48426000Y20363281D01*
X48426000Y20530719D01*
X48458664Y20694935D01*
X48522739Y20849624D01*
X48522740Y20849626D01*
X48615762Y20988844D01*
X48734156Y21107238D01*
X48873374Y21200260D01*
X48873376Y21200261D01*
X49028065Y21264336D01*
X49192281Y21297000D01*
X49359719Y21297000D01*
X49523935Y21264336D01*
X49523935Y21264336D01*
G37*
G36*
X72383935Y21264336D02*
G01*
X72538624Y21200261D01*
X72538626Y21200260D01*
X72677844Y21107238D01*
X72796238Y20988844D01*
X72889260Y20849626D01*
X72889261Y20849624D01*
X72953336Y20694935D01*
X72986000Y20530719D01*
X72986000Y20363281D01*
X72953336Y20199065D01*
X72905327Y20083163D01*
X72889260Y20044374D01*
X72796238Y19905156D01*
X72677844Y19786762D01*
X72538626Y19693740D01*
X72538625Y19693739D01*
X72538624Y19693739D01*
X72383935Y19629664D01*
X72219719Y19597000D01*
X72052281Y19597000D01*
X71888065Y19629664D01*
X71733376Y19693739D01*
X71733375Y19693739D01*
X71733374Y19693740D01*
X71594156Y19786762D01*
X71475762Y19905156D01*
X71382740Y20044374D01*
X71366673Y20083163D01*
X71318664Y20199065D01*
X71286000Y20363281D01*
X71286000Y20530719D01*
X71318664Y20694935D01*
X71382739Y20849624D01*
X71382740Y20849626D01*
X71475762Y20988844D01*
X71594156Y21107238D01*
X71733374Y21200260D01*
X71733376Y21200261D01*
X71888065Y21264336D01*
X72052281Y21297000D01*
X72219719Y21297000D01*
X72383935Y21264336D01*
X72383935Y21264336D01*
G37*
G36*
X46983935Y21264336D02*
G01*
X47138624Y21200261D01*
X47138626Y21200260D01*
X47277844Y21107238D01*
X47396238Y20988844D01*
X47489260Y20849626D01*
X47489261Y20849624D01*
X47553336Y20694935D01*
X47586000Y20530719D01*
X47586000Y20363281D01*
X47553336Y20199065D01*
X47505327Y20083163D01*
X47489260Y20044374D01*
X47396238Y19905156D01*
X47277844Y19786762D01*
X47138626Y19693740D01*
X47138625Y19693739D01*
X47138624Y19693739D01*
X46983935Y19629664D01*
X46819719Y19597000D01*
X46652281Y19597000D01*
X46488065Y19629664D01*
X46333376Y19693739D01*
X46333375Y19693739D01*
X46333374Y19693740D01*
X46194156Y19786762D01*
X46075762Y19905156D01*
X45982740Y20044374D01*
X45966673Y20083163D01*
X45918664Y20199065D01*
X45886000Y20363281D01*
X45886000Y20530719D01*
X45918664Y20694935D01*
X45982739Y20849624D01*
X45982740Y20849626D01*
X46075762Y20988844D01*
X46194156Y21107238D01*
X46333374Y21200260D01*
X46333376Y21200261D01*
X46488065Y21264336D01*
X46652281Y21297000D01*
X46819719Y21297000D01*
X46983935Y21264336D01*
X46983935Y21264336D01*
G37*
G36*
X26663935Y21264336D02*
G01*
X26818624Y21200261D01*
X26818626Y21200260D01*
X26957844Y21107238D01*
X27076238Y20988844D01*
X27169260Y20849626D01*
X27169261Y20849624D01*
X27233336Y20694935D01*
X27266000Y20530719D01*
X27266000Y20363281D01*
X27233336Y20199065D01*
X27185327Y20083163D01*
X27169260Y20044374D01*
X27076238Y19905156D01*
X26957844Y19786762D01*
X26818626Y19693740D01*
X26818625Y19693739D01*
X26818624Y19693739D01*
X26663935Y19629664D01*
X26499719Y19597000D01*
X26332281Y19597000D01*
X26168065Y19629664D01*
X26013376Y19693739D01*
X26013375Y19693739D01*
X26013374Y19693740D01*
X25874156Y19786762D01*
X25755762Y19905156D01*
X25662740Y20044374D01*
X25646673Y20083163D01*
X25598664Y20199065D01*
X25566000Y20363281D01*
X25566000Y20530719D01*
X25598664Y20694935D01*
X25662739Y20849624D01*
X25662740Y20849626D01*
X25755762Y20988844D01*
X25874156Y21107238D01*
X26013374Y21200260D01*
X26013376Y21200261D01*
X26168065Y21264336D01*
X26332281Y21297000D01*
X26499719Y21297000D01*
X26663935Y21264336D01*
X26663935Y21264336D01*
G37*
G36*
X29203935Y21264336D02*
G01*
X29358624Y21200261D01*
X29358626Y21200260D01*
X29497844Y21107238D01*
X29616238Y20988844D01*
X29709260Y20849626D01*
X29709261Y20849624D01*
X29773336Y20694935D01*
X29806000Y20530719D01*
X29806000Y20363281D01*
X29773336Y20199065D01*
X29725327Y20083163D01*
X29709260Y20044374D01*
X29616238Y19905156D01*
X29497844Y19786762D01*
X29358626Y19693740D01*
X29358625Y19693739D01*
X29358624Y19693739D01*
X29203935Y19629664D01*
X29039719Y19597000D01*
X28872281Y19597000D01*
X28708065Y19629664D01*
X28553376Y19693739D01*
X28553375Y19693739D01*
X28553374Y19693740D01*
X28414156Y19786762D01*
X28295762Y19905156D01*
X28202740Y20044374D01*
X28186673Y20083163D01*
X28138664Y20199065D01*
X28106000Y20363281D01*
X28106000Y20530719D01*
X28138664Y20694935D01*
X28202739Y20849624D01*
X28202740Y20849626D01*
X28295762Y20988844D01*
X28414156Y21107238D01*
X28553374Y21200260D01*
X28553376Y21200261D01*
X28708065Y21264336D01*
X28872281Y21297000D01*
X29039719Y21297000D01*
X29203935Y21264336D01*
X29203935Y21264336D01*
G37*
G36*
X31743935Y21264336D02*
G01*
X31898624Y21200261D01*
X31898626Y21200260D01*
X32037844Y21107238D01*
X32156238Y20988844D01*
X32249260Y20849626D01*
X32249261Y20849624D01*
X32313336Y20694935D01*
X32346000Y20530719D01*
X32346000Y20363281D01*
X32313336Y20199065D01*
X32265327Y20083163D01*
X32249260Y20044374D01*
X32156238Y19905156D01*
X32037844Y19786762D01*
X31898626Y19693740D01*
X31898625Y19693739D01*
X31898624Y19693739D01*
X31743935Y19629664D01*
X31579719Y19597000D01*
X31412281Y19597000D01*
X31248065Y19629664D01*
X31093376Y19693739D01*
X31093375Y19693739D01*
X31093374Y19693740D01*
X30954156Y19786762D01*
X30835762Y19905156D01*
X30742740Y20044374D01*
X30726673Y20083163D01*
X30678664Y20199065D01*
X30646000Y20363281D01*
X30646000Y20530719D01*
X30678664Y20694935D01*
X30742739Y20849624D01*
X30742740Y20849626D01*
X30835762Y20988844D01*
X30954156Y21107238D01*
X31093374Y21200260D01*
X31093376Y21200261D01*
X31248065Y21264336D01*
X31412281Y21297000D01*
X31579719Y21297000D01*
X31743935Y21264336D01*
X31743935Y21264336D01*
G37*
G36*
X34283935Y21264336D02*
G01*
X34438624Y21200261D01*
X34438626Y21200260D01*
X34577844Y21107238D01*
X34696238Y20988844D01*
X34789260Y20849626D01*
X34789261Y20849624D01*
X34853336Y20694935D01*
X34886000Y20530719D01*
X34886000Y20363281D01*
X34853336Y20199065D01*
X34805327Y20083163D01*
X34789260Y20044374D01*
X34696238Y19905156D01*
X34577844Y19786762D01*
X34438626Y19693740D01*
X34438625Y19693739D01*
X34438624Y19693739D01*
X34283935Y19629664D01*
X34119719Y19597000D01*
X33952281Y19597000D01*
X33788065Y19629664D01*
X33633376Y19693739D01*
X33633375Y19693739D01*
X33633374Y19693740D01*
X33494156Y19786762D01*
X33375762Y19905156D01*
X33282740Y20044374D01*
X33266673Y20083163D01*
X33218664Y20199065D01*
X33186000Y20363281D01*
X33186000Y20530719D01*
X33218664Y20694935D01*
X33282739Y20849624D01*
X33282740Y20849626D01*
X33375762Y20988844D01*
X33494156Y21107238D01*
X33633374Y21200260D01*
X33633376Y21200261D01*
X33788065Y21264336D01*
X33952281Y21297000D01*
X34119719Y21297000D01*
X34283935Y21264336D01*
X34283935Y21264336D01*
G37*
G36*
X36823935Y21264336D02*
G01*
X36978624Y21200261D01*
X36978626Y21200260D01*
X37117844Y21107238D01*
X37236238Y20988844D01*
X37329260Y20849626D01*
X37329261Y20849624D01*
X37393336Y20694935D01*
X37426000Y20530719D01*
X37426000Y20363281D01*
X37393336Y20199065D01*
X37345327Y20083163D01*
X37329260Y20044374D01*
X37236238Y19905156D01*
X37117844Y19786762D01*
X36978626Y19693740D01*
X36978625Y19693739D01*
X36978624Y19693739D01*
X36823935Y19629664D01*
X36659719Y19597000D01*
X36492281Y19597000D01*
X36328065Y19629664D01*
X36173376Y19693739D01*
X36173375Y19693739D01*
X36173374Y19693740D01*
X36034156Y19786762D01*
X35915762Y19905156D01*
X35822740Y20044374D01*
X35806673Y20083163D01*
X35758664Y20199065D01*
X35726000Y20363281D01*
X35726000Y20530719D01*
X35758664Y20694935D01*
X35822739Y20849624D01*
X35822740Y20849626D01*
X35915762Y20988844D01*
X36034156Y21107238D01*
X36173374Y21200260D01*
X36173376Y21200261D01*
X36328065Y21264336D01*
X36492281Y21297000D01*
X36659719Y21297000D01*
X36823935Y21264336D01*
X36823935Y21264336D01*
G37*
G36*
X39363935Y21264336D02*
G01*
X39518624Y21200261D01*
X39518626Y21200260D01*
X39657844Y21107238D01*
X39776238Y20988844D01*
X39869260Y20849626D01*
X39869261Y20849624D01*
X39933336Y20694935D01*
X39966000Y20530719D01*
X39966000Y20363281D01*
X39933336Y20199065D01*
X39885327Y20083163D01*
X39869260Y20044374D01*
X39776238Y19905156D01*
X39657844Y19786762D01*
X39518626Y19693740D01*
X39518625Y19693739D01*
X39518624Y19693739D01*
X39363935Y19629664D01*
X39199719Y19597000D01*
X39032281Y19597000D01*
X38868065Y19629664D01*
X38713376Y19693739D01*
X38713375Y19693739D01*
X38713374Y19693740D01*
X38574156Y19786762D01*
X38455762Y19905156D01*
X38362740Y20044374D01*
X38346673Y20083163D01*
X38298664Y20199065D01*
X38266000Y20363281D01*
X38266000Y20530719D01*
X38298664Y20694935D01*
X38362739Y20849624D01*
X38362740Y20849626D01*
X38455762Y20988844D01*
X38574156Y21107238D01*
X38713374Y21200260D01*
X38713376Y21200261D01*
X38868065Y21264336D01*
X39032281Y21297000D01*
X39199719Y21297000D01*
X39363935Y21264336D01*
X39363935Y21264336D01*
G37*
G36*
X41903935Y21264336D02*
G01*
X42058624Y21200261D01*
X42058626Y21200260D01*
X42197844Y21107238D01*
X42316238Y20988844D01*
X42409260Y20849626D01*
X42409261Y20849624D01*
X42473336Y20694935D01*
X42506000Y20530719D01*
X42506000Y20363281D01*
X42473336Y20199065D01*
X42425327Y20083163D01*
X42409260Y20044374D01*
X42316238Y19905156D01*
X42197844Y19786762D01*
X42058626Y19693740D01*
X42058625Y19693739D01*
X42058624Y19693739D01*
X41903935Y19629664D01*
X41739719Y19597000D01*
X41572281Y19597000D01*
X41408065Y19629664D01*
X41253376Y19693739D01*
X41253375Y19693739D01*
X41253374Y19693740D01*
X41114156Y19786762D01*
X40995762Y19905156D01*
X40902740Y20044374D01*
X40886673Y20083163D01*
X40838664Y20199065D01*
X40806000Y20363281D01*
X40806000Y20530719D01*
X40838664Y20694935D01*
X40902739Y20849624D01*
X40902740Y20849626D01*
X40995762Y20988844D01*
X41114156Y21107238D01*
X41253374Y21200260D01*
X41253376Y21200261D01*
X41408065Y21264336D01*
X41572281Y21297000D01*
X41739719Y21297000D01*
X41903935Y21264336D01*
X41903935Y21264336D01*
G37*
G36*
X44443935Y21264336D02*
G01*
X44598624Y21200261D01*
X44598626Y21200260D01*
X44737844Y21107238D01*
X44856238Y20988844D01*
X44949260Y20849626D01*
X44949261Y20849624D01*
X45013336Y20694935D01*
X45046000Y20530719D01*
X45046000Y20363281D01*
X45013336Y20199065D01*
X44965327Y20083163D01*
X44949260Y20044374D01*
X44856238Y19905156D01*
X44737844Y19786762D01*
X44598626Y19693740D01*
X44598625Y19693739D01*
X44598624Y19693739D01*
X44443935Y19629664D01*
X44279719Y19597000D01*
X44112281Y19597000D01*
X43948065Y19629664D01*
X43793376Y19693739D01*
X43793375Y19693739D01*
X43793374Y19693740D01*
X43654156Y19786762D01*
X43535762Y19905156D01*
X43442740Y20044374D01*
X43426673Y20083163D01*
X43378664Y20199065D01*
X43346000Y20363281D01*
X43346000Y20530719D01*
X43378664Y20694935D01*
X43442739Y20849624D01*
X43442740Y20849626D01*
X43535762Y20988844D01*
X43654156Y21107238D01*
X43793374Y21200260D01*
X43793376Y21200261D01*
X43948065Y21264336D01*
X44112281Y21297000D01*
X44279719Y21297000D01*
X44443935Y21264336D01*
X44443935Y21264336D01*
G37*
G36*
X93798598Y22744857D02*
G01*
X93932356Y22718251D01*
X94125367Y22638303D01*
X94161918Y22623163D01*
X94205315Y22605187D01*
X94450971Y22441045D01*
X94659885Y22232131D01*
X94800090Y22022300D01*
X94824028Y21986473D01*
X94937091Y21713515D01*
X94994730Y21423746D01*
X94994730Y21128294D01*
X94975211Y21030168D01*
X94937091Y20838524D01*
X94824027Y20565565D01*
X94659885Y20319909D01*
X94450971Y20110995D01*
X94205315Y19946853D01*
X93932356Y19833789D01*
X93835765Y19814576D01*
X93642586Y19776150D01*
X93347134Y19776150D01*
X93153955Y19814576D01*
X93057364Y19833789D01*
X92784405Y19946853D01*
X92538749Y20110995D01*
X92329835Y20319909D01*
X92165693Y20565565D01*
X92052629Y20838524D01*
X92014509Y21030168D01*
X91994990Y21128294D01*
X91994990Y21423746D01*
X92052629Y21713515D01*
X92165692Y21986473D01*
X92189631Y22022300D01*
X92329835Y22232131D01*
X92538749Y22441045D01*
X92784405Y22605187D01*
X92827803Y22623163D01*
X92864353Y22638303D01*
X93057364Y22718251D01*
X93191122Y22744857D01*
X93347134Y22775890D01*
X93642586Y22775890D01*
X93798598Y22744857D01*
X93798598Y22744857D01*
G37*
G36*
X-362157Y20800786D02*
G01*
X-347025Y20794518D01*
X-271161Y20763094D01*
X-229937Y20735549D01*
X-189270Y20708376D01*
X-119624Y20638730D01*
X-64905Y20556837D01*
X-27214Y20465843D01*
X-8000Y20369247D01*
X-8000Y20270753D01*
X-27214Y20174157D01*
X-27215Y20174155D01*
X-64906Y20083161D01*
X-119625Y20001269D01*
X-189269Y19931625D01*
X-271161Y19876906D01*
X-271162Y19876905D01*
X-271163Y19876905D01*
X-362157Y19839214D01*
X-458753Y19820000D01*
X-557247Y19820000D01*
X-653843Y19839214D01*
X-744837Y19876905D01*
X-744838Y19876905D01*
X-744839Y19876906D01*
X-826731Y19931625D01*
X-896375Y20001269D01*
X-951094Y20083161D01*
X-988785Y20174155D01*
X-988786Y20174157D01*
X-1008000Y20270753D01*
X-1008000Y20369247D01*
X-988786Y20465843D01*
X-951095Y20556837D01*
X-896376Y20638730D01*
X-826730Y20708376D01*
X-786063Y20735549D01*
X-744839Y20763094D01*
X-668975Y20794518D01*
X-653843Y20800786D01*
X-557247Y20820000D01*
X-458753Y20820000D01*
X-362157Y20800786D01*
X-362157Y20800786D01*
G37*
G36*
X-5929373Y23697701D02*
G01*
X-5876730Y23681732D01*
X-5769145Y23649097D01*
X-5769143Y23649096D01*
X-5621482Y23570169D01*
X-5492051Y23463949D01*
X-5385831Y23334518D01*
X-5306904Y23186857D01*
X-5306903Y23186855D01*
X-5282602Y23106742D01*
X-5258299Y23026627D01*
X-5241888Y22860000D01*
X-5258299Y22693373D01*
X-5280221Y22621104D01*
X-5304438Y22541270D01*
X-5306904Y22533143D01*
X-5385831Y22385482D01*
X-5492051Y22256051D01*
X-5621482Y22149831D01*
X-5769143Y22070904D01*
X-5769145Y22070903D01*
X-5849258Y22046601D01*
X-5929373Y22022299D01*
X-6054248Y22010000D01*
X-6137752Y22010000D01*
X-6262627Y22022299D01*
X-6342742Y22046601D01*
X-6422855Y22070903D01*
X-6422857Y22070904D01*
X-6570518Y22149831D01*
X-6699949Y22256051D01*
X-6806169Y22385482D01*
X-6885096Y22533143D01*
X-6887561Y22541270D01*
X-6911779Y22621104D01*
X-6933701Y22693373D01*
X-6950112Y22860000D01*
X-6933701Y23026627D01*
X-6909398Y23106742D01*
X-6885097Y23186855D01*
X-6885096Y23186857D01*
X-6806169Y23334518D01*
X-6699949Y23463949D01*
X-6570518Y23570169D01*
X-6422857Y23649096D01*
X-6422855Y23649097D01*
X-6315270Y23681732D01*
X-6262627Y23697701D01*
X-6137752Y23710000D01*
X-6054248Y23710000D01*
X-5929373Y23697701D01*
X-5929373Y23697701D01*
G37*
G36*
X-3389373Y23697701D02*
G01*
X-3336730Y23681732D01*
X-3229145Y23649097D01*
X-3229143Y23649096D01*
X-3081482Y23570169D01*
X-2952051Y23463949D01*
X-2845831Y23334518D01*
X-2766904Y23186857D01*
X-2766903Y23186855D01*
X-2742602Y23106742D01*
X-2718299Y23026627D01*
X-2701888Y22860000D01*
X-2718299Y22693373D01*
X-2740221Y22621104D01*
X-2764438Y22541270D01*
X-2766904Y22533143D01*
X-2845831Y22385482D01*
X-2952051Y22256051D01*
X-3081482Y22149831D01*
X-3229143Y22070904D01*
X-3229145Y22070903D01*
X-3309258Y22046601D01*
X-3389373Y22022299D01*
X-3514248Y22010000D01*
X-3597752Y22010000D01*
X-3722627Y22022299D01*
X-3802742Y22046601D01*
X-3882855Y22070903D01*
X-3882857Y22070904D01*
X-4030518Y22149831D01*
X-4159949Y22256051D01*
X-4266169Y22385482D01*
X-4345096Y22533143D01*
X-4347561Y22541270D01*
X-4371779Y22621104D01*
X-4393701Y22693373D01*
X-4410112Y22860000D01*
X-4393701Y23026627D01*
X-4369398Y23106742D01*
X-4345097Y23186855D01*
X-4345096Y23186857D01*
X-4266169Y23334518D01*
X-4159949Y23463949D01*
X-4030518Y23570169D01*
X-3882857Y23649096D01*
X-3882855Y23649097D01*
X-3775270Y23681732D01*
X-3722627Y23697701D01*
X-3597752Y23710000D01*
X-3514248Y23710000D01*
X-3389373Y23697701D01*
X-3389373Y23697701D01*
G37*
G36*
X16089507Y22767472D02*
G01*
X16144103Y22744857D01*
X16193239Y22712026D01*
X16235026Y22670239D01*
X16267857Y22621103D01*
X16290472Y22566507D01*
X16302000Y22508547D01*
X16302000Y22449453D01*
X16290472Y22391493D01*
X16267857Y22336897D01*
X16235026Y22287761D01*
X16193239Y22245974D01*
X16144103Y22213143D01*
X16089507Y22190528D01*
X16031547Y22179000D01*
X15972453Y22179000D01*
X15914493Y22190528D01*
X15859897Y22213143D01*
X15810761Y22245974D01*
X15768974Y22287761D01*
X15736143Y22336897D01*
X15713528Y22391493D01*
X15702000Y22449453D01*
X15702000Y22508547D01*
X15713528Y22566507D01*
X15736143Y22621103D01*
X15768974Y22670239D01*
X15810761Y22712026D01*
X15859897Y22744857D01*
X15914493Y22767472D01*
X15972453Y22779000D01*
X16031547Y22779000D01*
X16089507Y22767472D01*
X16089507Y22767472D01*
G37*
G36*
X-362157Y23340786D02*
G01*
X-347025Y23334518D01*
X-271161Y23303094D01*
X-229937Y23275549D01*
X-189270Y23248376D01*
X-119624Y23178730D01*
X-64905Y23096837D01*
X-27214Y23005843D01*
X-8000Y22909247D01*
X-8000Y22810753D01*
X-27214Y22714157D01*
X-45407Y22670236D01*
X-64906Y22623161D01*
X-119625Y22541269D01*
X-189269Y22471625D01*
X-271161Y22416906D01*
X-271162Y22416905D01*
X-271163Y22416905D01*
X-362157Y22379214D01*
X-458753Y22360000D01*
X-557247Y22360000D01*
X-653843Y22379214D01*
X-744837Y22416905D01*
X-744838Y22416905D01*
X-744839Y22416906D01*
X-826731Y22471625D01*
X-896375Y22541269D01*
X-951094Y22623161D01*
X-970593Y22670236D01*
X-988786Y22714157D01*
X-1008000Y22810753D01*
X-1008000Y22909247D01*
X-988786Y23005843D01*
X-951095Y23096837D01*
X-896376Y23178730D01*
X-826730Y23248376D01*
X-786063Y23275549D01*
X-744839Y23303094D01*
X-668975Y23334518D01*
X-653843Y23340786D01*
X-557247Y23360000D01*
X-458753Y23360000D01*
X-362157Y23340786D01*
X-362157Y23340786D01*
G37*
G36*
X101002200Y23508600D02*
G01*
X99302200Y23508600D01*
X99302200Y25208600D01*
X101002200Y25208600D01*
X101002200Y23508600D01*
X101002200Y23508600D01*
G37*
G36*
X13549507Y24164472D02*
G01*
X13604103Y24141857D01*
X13653239Y24109026D01*
X13695026Y24067239D01*
X13727857Y24018103D01*
X13750472Y23963507D01*
X13762000Y23905547D01*
X13762000Y23846453D01*
X13750472Y23788493D01*
X13727857Y23733897D01*
X13695026Y23684761D01*
X13653239Y23642974D01*
X13604103Y23610143D01*
X13549507Y23587528D01*
X13491547Y23576000D01*
X13432453Y23576000D01*
X13374493Y23587528D01*
X13319897Y23610143D01*
X13270761Y23642974D01*
X13228974Y23684761D01*
X13196143Y23733897D01*
X13173528Y23788493D01*
X13162000Y23846453D01*
X13162000Y23905547D01*
X13173528Y23963507D01*
X13196143Y24018103D01*
X13228974Y24067239D01*
X13270761Y24109026D01*
X13319897Y24141857D01*
X13374493Y24164472D01*
X13432453Y24176000D01*
X13491547Y24176000D01*
X13549507Y24164472D01*
X13549507Y24164472D01*
G37*
G36*
X91003613Y25068607D02*
G01*
X91140207Y25012028D01*
X91201256Y24971236D01*
X91263141Y24929886D01*
X91367686Y24825341D01*
X91367687Y24825339D01*
X91449828Y24702407D01*
X91506407Y24565813D01*
X91535250Y24420806D01*
X91535250Y24272954D01*
X91506407Y24127947D01*
X91449828Y23991353D01*
X91449827Y23991352D01*
X91367686Y23868419D01*
X91263141Y23763874D01*
X91218277Y23733897D01*
X91140207Y23681732D01*
X91003613Y23625153D01*
X90858606Y23596310D01*
X90710754Y23596310D01*
X90565747Y23625153D01*
X90429153Y23681732D01*
X90351083Y23733897D01*
X90306219Y23763874D01*
X90201674Y23868419D01*
X90119533Y23991352D01*
X90119532Y23991353D01*
X90062953Y24127947D01*
X90034110Y24272954D01*
X90034110Y24420806D01*
X90062953Y24565813D01*
X90119532Y24702407D01*
X90201673Y24825339D01*
X90201674Y24825341D01*
X90306219Y24929886D01*
X90368104Y24971236D01*
X90429153Y25012028D01*
X90565747Y25068607D01*
X90710754Y25097450D01*
X90858606Y25097450D01*
X91003613Y25068607D01*
X91003613Y25068607D01*
G37*
G36*
X-5929373Y26237701D02*
G01*
X-5849258Y26213399D01*
X-5769145Y26189097D01*
X-5769143Y26189096D01*
X-5621482Y26110169D01*
X-5492051Y26003949D01*
X-5385831Y25874518D01*
X-5306904Y25726857D01*
X-5306903Y25726855D01*
X-5298757Y25700000D01*
X-5258299Y25566627D01*
X-5241888Y25400000D01*
X-5258299Y25233373D01*
X-5282601Y25153258D01*
X-5304438Y25081270D01*
X-5306904Y25073143D01*
X-5385831Y24925482D01*
X-5492051Y24796051D01*
X-5621482Y24689831D01*
X-5769143Y24610904D01*
X-5769145Y24610903D01*
X-5849258Y24586601D01*
X-5929373Y24562299D01*
X-6054248Y24550000D01*
X-6137752Y24550000D01*
X-6262627Y24562299D01*
X-6342742Y24586601D01*
X-6422855Y24610903D01*
X-6422857Y24610904D01*
X-6570518Y24689831D01*
X-6699949Y24796051D01*
X-6806169Y24925482D01*
X-6885096Y25073143D01*
X-6887561Y25081270D01*
X-6909399Y25153258D01*
X-6933701Y25233373D01*
X-6950112Y25400000D01*
X-6933701Y25566627D01*
X-6893243Y25700000D01*
X-6885097Y25726855D01*
X-6885096Y25726857D01*
X-6806169Y25874518D01*
X-6699949Y26003949D01*
X-6570518Y26110169D01*
X-6422857Y26189096D01*
X-6422855Y26189097D01*
X-6342742Y26213399D01*
X-6262627Y26237701D01*
X-6137752Y26250000D01*
X-6054248Y26250000D01*
X-5929373Y26237701D01*
X-5929373Y26237701D01*
G37*
G36*
X-3389373Y26237701D02*
G01*
X-3309258Y26213399D01*
X-3229145Y26189097D01*
X-3229143Y26189096D01*
X-3081482Y26110169D01*
X-2952051Y26003949D01*
X-2845831Y25874518D01*
X-2766904Y25726857D01*
X-2766903Y25726855D01*
X-2758757Y25700000D01*
X-2718299Y25566627D01*
X-2701888Y25400000D01*
X-2718299Y25233373D01*
X-2742601Y25153258D01*
X-2764438Y25081270D01*
X-2766904Y25073143D01*
X-2845831Y24925482D01*
X-2952051Y24796051D01*
X-3081482Y24689831D01*
X-3229143Y24610904D01*
X-3229145Y24610903D01*
X-3309258Y24586601D01*
X-3389373Y24562299D01*
X-3514248Y24550000D01*
X-3597752Y24550000D01*
X-3722627Y24562299D01*
X-3802742Y24586601D01*
X-3882855Y24610903D01*
X-3882857Y24610904D01*
X-4030518Y24689831D01*
X-4159949Y24796051D01*
X-4266169Y24925482D01*
X-4345096Y25073143D01*
X-4347561Y25081270D01*
X-4369399Y25153258D01*
X-4393701Y25233373D01*
X-4410112Y25400000D01*
X-4393701Y25566627D01*
X-4353243Y25700000D01*
X-4345097Y25726855D01*
X-4345096Y25726857D01*
X-4266169Y25874518D01*
X-4159949Y26003949D01*
X-4030518Y26110169D01*
X-3882857Y26189096D01*
X-3882855Y26189097D01*
X-3802742Y26213399D01*
X-3722627Y26237701D01*
X-3597752Y26250000D01*
X-3514248Y26250000D01*
X-3389373Y26237701D01*
X-3389373Y26237701D01*
G37*
G36*
X-362157Y25880786D02*
G01*
X-347025Y25874518D01*
X-271161Y25843094D01*
X-229937Y25815549D01*
X-189270Y25788376D01*
X-119624Y25718730D01*
X-64905Y25636837D01*
X-27214Y25545843D01*
X-8000Y25449247D01*
X-8000Y25350753D01*
X-27214Y25254157D01*
X-63327Y25166973D01*
X-64906Y25163161D01*
X-119625Y25081269D01*
X-189269Y25011625D01*
X-271161Y24956906D01*
X-271162Y24956905D01*
X-271163Y24956905D01*
X-362157Y24919214D01*
X-458753Y24900000D01*
X-557247Y24900000D01*
X-653843Y24919214D01*
X-744837Y24956905D01*
X-744838Y24956905D01*
X-744839Y24956906D01*
X-826731Y25011625D01*
X-896375Y25081269D01*
X-951094Y25163161D01*
X-952673Y25166973D01*
X-988786Y25254157D01*
X-1008000Y25350753D01*
X-1008000Y25449247D01*
X-988786Y25545843D01*
X-951095Y25636837D01*
X-896376Y25718730D01*
X-826730Y25788376D01*
X-786063Y25815549D01*
X-744839Y25843094D01*
X-668975Y25874518D01*
X-653843Y25880786D01*
X-557247Y25900000D01*
X-458753Y25900000D01*
X-362157Y25880786D01*
X-362157Y25880786D01*
G37*
G36*
X13549507Y25688472D02*
G01*
X13604103Y25665857D01*
X13653239Y25633026D01*
X13695026Y25591239D01*
X13727857Y25542103D01*
X13750472Y25487507D01*
X13762000Y25429547D01*
X13762000Y25370453D01*
X13750472Y25312493D01*
X13727857Y25257897D01*
X13695026Y25208761D01*
X13653239Y25166974D01*
X13604103Y25134143D01*
X13549507Y25111528D01*
X13491547Y25100000D01*
X13432453Y25100000D01*
X13374493Y25111528D01*
X13319897Y25134143D01*
X13270761Y25166974D01*
X13228974Y25208761D01*
X13196143Y25257897D01*
X13173528Y25312493D01*
X13162000Y25370453D01*
X13162000Y25429547D01*
X13173528Y25487507D01*
X13196143Y25542103D01*
X13228974Y25591239D01*
X13270761Y25633026D01*
X13319897Y25665857D01*
X13374493Y25688472D01*
X13432453Y25700000D01*
X13491547Y25700000D01*
X13549507Y25688472D01*
X13549507Y25688472D01*
G37*
G36*
X100318827Y27736301D02*
G01*
X100398942Y27711998D01*
X100479055Y27687697D01*
X100479057Y27687696D01*
X100626718Y27608769D01*
X100756149Y27502549D01*
X100862369Y27373118D01*
X100938957Y27229832D01*
X100941297Y27225455D01*
X100963911Y27150904D01*
X100989901Y27065227D01*
X101006312Y26898600D01*
X100989901Y26731973D01*
X100941296Y26571743D01*
X100862369Y26424082D01*
X100756149Y26294651D01*
X100626718Y26188431D01*
X100480301Y26110169D01*
X100479055Y26109503D01*
X100398942Y26085202D01*
X100318827Y26060899D01*
X100193952Y26048600D01*
X100110448Y26048600D01*
X99985573Y26060899D01*
X99905458Y26085202D01*
X99825345Y26109503D01*
X99824099Y26110169D01*
X99677682Y26188431D01*
X99548251Y26294651D01*
X99442031Y26424082D01*
X99363104Y26571743D01*
X99314499Y26731973D01*
X99298088Y26898600D01*
X99314499Y27065227D01*
X99340489Y27150904D01*
X99363103Y27225455D01*
X99365443Y27229832D01*
X99442031Y27373118D01*
X99548251Y27502549D01*
X99677682Y27608769D01*
X99825343Y27687696D01*
X99825345Y27687697D01*
X99905458Y27711998D01*
X99985573Y27736301D01*
X100110448Y27748600D01*
X100193952Y27748600D01*
X100318827Y27736301D01*
X100318827Y27736301D01*
G37*
G36*
X91003613Y27567967D02*
G01*
X91140207Y27511388D01*
X91161882Y27496905D01*
X91263141Y27429246D01*
X91367686Y27324701D01*
X91367687Y27324699D01*
X91449828Y27201767D01*
X91506407Y27065173D01*
X91535250Y26920166D01*
X91535250Y26772314D01*
X91506407Y26627307D01*
X91449828Y26490713D01*
X91449827Y26490712D01*
X91367686Y26367779D01*
X91263141Y26263234D01*
X91201256Y26221884D01*
X91140207Y26181092D01*
X91003613Y26124513D01*
X90858606Y26095670D01*
X90710754Y26095670D01*
X90565747Y26124513D01*
X90429153Y26181092D01*
X90368104Y26221884D01*
X90306219Y26263234D01*
X90201674Y26367779D01*
X90119533Y26490712D01*
X90119532Y26490713D01*
X90062953Y26627307D01*
X90034110Y26772314D01*
X90034110Y26920166D01*
X90062953Y27065173D01*
X90119532Y27201767D01*
X90201673Y27324699D01*
X90201674Y27324701D01*
X90306219Y27429246D01*
X90407478Y27496905D01*
X90429153Y27511388D01*
X90565747Y27567967D01*
X90710754Y27596810D01*
X90858606Y27596810D01*
X91003613Y27567967D01*
X91003613Y27567967D01*
G37*
G36*
X-5929373Y28777701D02*
G01*
X-5849258Y28753399D01*
X-5769145Y28729097D01*
X-5769143Y28729096D01*
X-5621482Y28650169D01*
X-5492051Y28543949D01*
X-5385831Y28414518D01*
X-5306904Y28266857D01*
X-5306903Y28266855D01*
X-5282601Y28186742D01*
X-5258299Y28106627D01*
X-5241888Y27940000D01*
X-5258299Y27773373D01*
X-5282601Y27693258D01*
X-5304438Y27621270D01*
X-5306904Y27613143D01*
X-5385831Y27465482D01*
X-5492051Y27336051D01*
X-5621482Y27229831D01*
X-5673984Y27201768D01*
X-5769145Y27150903D01*
X-5849258Y27126602D01*
X-5929373Y27102299D01*
X-6054248Y27090000D01*
X-6137752Y27090000D01*
X-6262627Y27102299D01*
X-6342742Y27126602D01*
X-6422855Y27150903D01*
X-6518016Y27201768D01*
X-6570518Y27229831D01*
X-6699949Y27336051D01*
X-6806169Y27465482D01*
X-6885096Y27613143D01*
X-6887561Y27621270D01*
X-6909399Y27693258D01*
X-6933701Y27773373D01*
X-6950112Y27940000D01*
X-6933701Y28106627D01*
X-6909399Y28186742D01*
X-6885097Y28266855D01*
X-6885096Y28266857D01*
X-6806169Y28414518D01*
X-6699949Y28543949D01*
X-6570518Y28650169D01*
X-6422857Y28729096D01*
X-6422855Y28729097D01*
X-6342742Y28753399D01*
X-6262627Y28777701D01*
X-6137752Y28790000D01*
X-6054248Y28790000D01*
X-5929373Y28777701D01*
X-5929373Y28777701D01*
G37*
G36*
X-3389373Y28777701D02*
G01*
X-3309258Y28753399D01*
X-3229145Y28729097D01*
X-3229143Y28729096D01*
X-3081482Y28650169D01*
X-2952051Y28543949D01*
X-2845831Y28414518D01*
X-2766904Y28266857D01*
X-2766903Y28266855D01*
X-2742601Y28186742D01*
X-2718299Y28106627D01*
X-2701888Y27940000D01*
X-2718299Y27773373D01*
X-2742601Y27693258D01*
X-2764438Y27621270D01*
X-2766904Y27613143D01*
X-2845831Y27465482D01*
X-2952051Y27336051D01*
X-3081482Y27229831D01*
X-3133984Y27201768D01*
X-3229145Y27150903D01*
X-3309258Y27126602D01*
X-3389373Y27102299D01*
X-3514248Y27090000D01*
X-3597752Y27090000D01*
X-3722627Y27102299D01*
X-3802742Y27126602D01*
X-3882855Y27150903D01*
X-3978016Y27201768D01*
X-4030518Y27229831D01*
X-4159949Y27336051D01*
X-4266169Y27465482D01*
X-4345096Y27613143D01*
X-4347561Y27621270D01*
X-4369399Y27693258D01*
X-4393701Y27773373D01*
X-4410112Y27940000D01*
X-4393701Y28106627D01*
X-4369399Y28186742D01*
X-4345097Y28266855D01*
X-4345096Y28266857D01*
X-4266169Y28414518D01*
X-4159949Y28543949D01*
X-4030518Y28650169D01*
X-3882857Y28729096D01*
X-3882855Y28729097D01*
X-3802742Y28753399D01*
X-3722627Y28777701D01*
X-3597752Y28790000D01*
X-3514248Y28790000D01*
X-3389373Y28777701D01*
X-3389373Y28777701D01*
G37*
G36*
X-362157Y28420786D02*
G01*
X-347025Y28414518D01*
X-271161Y28383094D01*
X-189269Y28328375D01*
X-119625Y28258731D01*
X-68763Y28182612D01*
X-64905Y28176837D01*
X-27214Y28085843D01*
X-8000Y27989247D01*
X-8000Y27890753D01*
X-27214Y27794157D01*
X-51179Y27736301D01*
X-64906Y27703161D01*
X-119625Y27621269D01*
X-189269Y27551625D01*
X-271161Y27496906D01*
X-271162Y27496905D01*
X-271163Y27496905D01*
X-362157Y27459214D01*
X-458753Y27440000D01*
X-557247Y27440000D01*
X-653843Y27459214D01*
X-744837Y27496905D01*
X-744838Y27496905D01*
X-744839Y27496906D01*
X-826731Y27551625D01*
X-896375Y27621269D01*
X-951094Y27703161D01*
X-964821Y27736301D01*
X-988786Y27794157D01*
X-1008000Y27890753D01*
X-1008000Y27989247D01*
X-988786Y28085843D01*
X-951095Y28176837D01*
X-947236Y28182612D01*
X-896375Y28258731D01*
X-826731Y28328375D01*
X-744839Y28383094D01*
X-668975Y28414518D01*
X-653843Y28420786D01*
X-557247Y28440000D01*
X-458753Y28440000D01*
X-362157Y28420786D01*
X-362157Y28420786D01*
G37*
G36*
X91003613Y29569487D02*
G01*
X91140207Y29512908D01*
X91140208Y29512907D01*
X91263141Y29430766D01*
X91367686Y29326221D01*
X91367687Y29326219D01*
X91449828Y29203287D01*
X91506407Y29066693D01*
X91535250Y28921686D01*
X91535250Y28773834D01*
X91506407Y28628827D01*
X91449828Y28492233D01*
X91449827Y28492232D01*
X91367686Y28369299D01*
X91263141Y28264754D01*
X91254125Y28258730D01*
X91140207Y28182612D01*
X91003613Y28126033D01*
X90858606Y28097190D01*
X90710754Y28097190D01*
X90565747Y28126033D01*
X90429153Y28182612D01*
X90315235Y28258730D01*
X90306219Y28264754D01*
X90201674Y28369299D01*
X90119533Y28492232D01*
X90119532Y28492233D01*
X90062953Y28628827D01*
X90034110Y28773834D01*
X90034110Y28921686D01*
X90062953Y29066693D01*
X90119532Y29203287D01*
X90201673Y29326219D01*
X90201674Y29326221D01*
X90306219Y29430766D01*
X90429152Y29512907D01*
X90429153Y29512908D01*
X90565747Y29569487D01*
X90710754Y29598330D01*
X90858606Y29598330D01*
X91003613Y29569487D01*
X91003613Y29569487D01*
G37*
G36*
X100318827Y30276301D02*
G01*
X100398942Y30251999D01*
X100479055Y30227697D01*
X100479057Y30227696D01*
X100626718Y30148769D01*
X100756149Y30042549D01*
X100862369Y29913118D01*
X100941296Y29765457D01*
X100989901Y29605227D01*
X101006312Y29438600D01*
X100989901Y29271973D01*
X100941296Y29111743D01*
X100862369Y28964082D01*
X100756149Y28834651D01*
X100626718Y28728431D01*
X100480301Y28650169D01*
X100479055Y28649503D01*
X100410894Y28628827D01*
X100318827Y28600899D01*
X100193952Y28588600D01*
X100110448Y28588600D01*
X99985573Y28600899D01*
X99893506Y28628827D01*
X99825345Y28649503D01*
X99824099Y28650169D01*
X99677682Y28728431D01*
X99548251Y28834651D01*
X99442031Y28964082D01*
X99363104Y29111743D01*
X99314499Y29271973D01*
X99298088Y29438600D01*
X99314499Y29605227D01*
X99363104Y29765457D01*
X99442031Y29913118D01*
X99548251Y30042549D01*
X99677682Y30148769D01*
X99825343Y30227696D01*
X99825345Y30227697D01*
X99905458Y30251999D01*
X99985573Y30276301D01*
X100110448Y30288600D01*
X100193952Y30288600D01*
X100318827Y30276301D01*
X100318827Y30276301D01*
G37*
G36*
X-5929373Y31317701D02*
G01*
X-5849258Y31293398D01*
X-5769145Y31269097D01*
X-5769143Y31269096D01*
X-5621482Y31190169D01*
X-5492051Y31083949D01*
X-5385831Y30954518D01*
X-5306904Y30806857D01*
X-5306903Y30806855D01*
X-5293938Y30764114D01*
X-5258299Y30646627D01*
X-5241888Y30480000D01*
X-5258299Y30313373D01*
X-5282602Y30233258D01*
X-5304438Y30161270D01*
X-5306904Y30153143D01*
X-5385831Y30005482D01*
X-5492051Y29876051D01*
X-5621482Y29769831D01*
X-5769143Y29690904D01*
X-5769145Y29690903D01*
X-5849258Y29666602D01*
X-5929373Y29642299D01*
X-6054248Y29630000D01*
X-6137752Y29630000D01*
X-6262627Y29642299D01*
X-6342742Y29666602D01*
X-6422855Y29690903D01*
X-6422857Y29690904D01*
X-6570518Y29769831D01*
X-6699949Y29876051D01*
X-6806169Y30005482D01*
X-6885096Y30153143D01*
X-6887561Y30161270D01*
X-6909398Y30233258D01*
X-6933701Y30313373D01*
X-6950112Y30480000D01*
X-6933701Y30646627D01*
X-6898062Y30764114D01*
X-6885097Y30806855D01*
X-6885096Y30806857D01*
X-6806169Y30954518D01*
X-6699949Y31083949D01*
X-6570518Y31190169D01*
X-6422857Y31269096D01*
X-6422855Y31269097D01*
X-6342742Y31293398D01*
X-6262627Y31317701D01*
X-6137752Y31330000D01*
X-6054248Y31330000D01*
X-5929373Y31317701D01*
X-5929373Y31317701D01*
G37*
G36*
X-3389373Y31317701D02*
G01*
X-3309258Y31293398D01*
X-3229145Y31269097D01*
X-3229143Y31269096D01*
X-3081482Y31190169D01*
X-2952051Y31083949D01*
X-2845831Y30954518D01*
X-2766904Y30806857D01*
X-2766903Y30806855D01*
X-2753938Y30764114D01*
X-2718299Y30646627D01*
X-2701888Y30480000D01*
X-2718299Y30313373D01*
X-2742602Y30233258D01*
X-2764438Y30161270D01*
X-2766904Y30153143D01*
X-2845831Y30005482D01*
X-2952051Y29876051D01*
X-3081482Y29769831D01*
X-3229143Y29690904D01*
X-3229145Y29690903D01*
X-3309258Y29666602D01*
X-3389373Y29642299D01*
X-3514248Y29630000D01*
X-3597752Y29630000D01*
X-3722627Y29642299D01*
X-3802742Y29666602D01*
X-3882855Y29690903D01*
X-3882857Y29690904D01*
X-4030518Y29769831D01*
X-4159949Y29876051D01*
X-4266169Y30005482D01*
X-4345096Y30153143D01*
X-4347561Y30161270D01*
X-4369398Y30233258D01*
X-4393701Y30313373D01*
X-4410112Y30480000D01*
X-4393701Y30646627D01*
X-4358062Y30764114D01*
X-4345097Y30806855D01*
X-4345096Y30806857D01*
X-4266169Y30954518D01*
X-4159949Y31083949D01*
X-4030518Y31190169D01*
X-3882857Y31269096D01*
X-3882855Y31269097D01*
X-3802742Y31293398D01*
X-3722627Y31317701D01*
X-3597752Y31330000D01*
X-3514248Y31330000D01*
X-3389373Y31317701D01*
X-3389373Y31317701D01*
G37*
G36*
X-362157Y30960786D02*
G01*
X-347025Y30954518D01*
X-271161Y30923094D01*
X-229937Y30895549D01*
X-189270Y30868376D01*
X-119624Y30798730D01*
X-64905Y30716837D01*
X-27214Y30625843D01*
X-8000Y30529247D01*
X-8000Y30430753D01*
X-27214Y30334157D01*
X-51179Y30276301D01*
X-64906Y30243161D01*
X-119625Y30161269D01*
X-189269Y30091625D01*
X-271161Y30036906D01*
X-271162Y30036905D01*
X-271163Y30036905D01*
X-362157Y29999214D01*
X-458753Y29980000D01*
X-557247Y29980000D01*
X-653843Y29999214D01*
X-744837Y30036905D01*
X-744838Y30036905D01*
X-744839Y30036906D01*
X-826731Y30091625D01*
X-896375Y30161269D01*
X-951094Y30243161D01*
X-964821Y30276301D01*
X-988786Y30334157D01*
X-1008000Y30430753D01*
X-1008000Y30529247D01*
X-988786Y30625843D01*
X-951095Y30716837D01*
X-896376Y30798730D01*
X-826730Y30868376D01*
X-786063Y30895549D01*
X-744839Y30923094D01*
X-668975Y30954518D01*
X-653843Y30960786D01*
X-557247Y30980000D01*
X-458753Y30980000D01*
X-362157Y30960786D01*
X-362157Y30960786D01*
G37*
G36*
X91003613Y32068847D02*
G01*
X91140207Y32012268D01*
X91140208Y32012267D01*
X91263141Y31930126D01*
X91367686Y31825581D01*
X91376780Y31811971D01*
X91449828Y31702647D01*
X91506407Y31566053D01*
X91535250Y31421046D01*
X91535250Y31273194D01*
X91506407Y31128187D01*
X91449828Y30991593D01*
X91425056Y30954519D01*
X91367686Y30868659D01*
X91263141Y30764114D01*
X91201256Y30722764D01*
X91140207Y30681972D01*
X91003613Y30625393D01*
X90858606Y30596550D01*
X90710754Y30596550D01*
X90565747Y30625393D01*
X90429153Y30681972D01*
X90368104Y30722764D01*
X90306219Y30764114D01*
X90201674Y30868659D01*
X90144304Y30954519D01*
X90119532Y30991593D01*
X90062953Y31128187D01*
X90034110Y31273194D01*
X90034110Y31421046D01*
X90062953Y31566053D01*
X90119532Y31702647D01*
X90192580Y31811971D01*
X90201674Y31825581D01*
X90306219Y31930126D01*
X90429152Y32012267D01*
X90429153Y32012268D01*
X90565747Y32068847D01*
X90710754Y32097690D01*
X90858606Y32097690D01*
X91003613Y32068847D01*
X91003613Y32068847D01*
G37*
G36*
X100318827Y32816301D02*
G01*
X100398942Y32791999D01*
X100479055Y32767697D01*
X100479057Y32767696D01*
X100626718Y32688769D01*
X100756149Y32582549D01*
X100862369Y32453118D01*
X100941296Y32305457D01*
X100989901Y32145227D01*
X101006312Y31978600D01*
X100989901Y31811973D01*
X100989900Y31811971D01*
X100956738Y31702647D01*
X100941296Y31651743D01*
X100862369Y31504082D01*
X100756149Y31374651D01*
X100626718Y31268431D01*
X100480301Y31190169D01*
X100479055Y31189503D01*
X100398942Y31165202D01*
X100318827Y31140899D01*
X100193952Y31128600D01*
X100110448Y31128600D01*
X99985573Y31140899D01*
X99905458Y31165202D01*
X99825345Y31189503D01*
X99824099Y31190169D01*
X99677682Y31268431D01*
X99548251Y31374651D01*
X99442031Y31504082D01*
X99363104Y31651743D01*
X99347663Y31702647D01*
X99314500Y31811971D01*
X99314499Y31811973D01*
X99298088Y31978600D01*
X99314499Y32145227D01*
X99363104Y32305457D01*
X99442031Y32453118D01*
X99548251Y32582549D01*
X99677682Y32688769D01*
X99825343Y32767696D01*
X99825345Y32767697D01*
X99905458Y32791999D01*
X99985573Y32816301D01*
X100110448Y32828600D01*
X100193952Y32828600D01*
X100318827Y32816301D01*
X100318827Y32816301D01*
G37*
G36*
X-5929373Y33857701D02*
G01*
X-5849258Y33833398D01*
X-5769145Y33809097D01*
X-5769143Y33809096D01*
X-5621482Y33730169D01*
X-5492051Y33623949D01*
X-5385831Y33494518D01*
X-5306904Y33346857D01*
X-5306903Y33346855D01*
X-5282601Y33266742D01*
X-5258299Y33186627D01*
X-5241888Y33020000D01*
X-5258299Y32853373D01*
X-5282602Y32773258D01*
X-5304438Y32701270D01*
X-5306904Y32693143D01*
X-5385831Y32545482D01*
X-5492051Y32416051D01*
X-5621482Y32309831D01*
X-5769143Y32230904D01*
X-5769145Y32230903D01*
X-5849258Y32206602D01*
X-5929373Y32182299D01*
X-6054248Y32170000D01*
X-6137752Y32170000D01*
X-6262627Y32182299D01*
X-6342742Y32206602D01*
X-6422855Y32230903D01*
X-6422857Y32230904D01*
X-6570518Y32309831D01*
X-6699949Y32416051D01*
X-6806169Y32545482D01*
X-6885096Y32693143D01*
X-6887561Y32701270D01*
X-6909398Y32773258D01*
X-6933701Y32853373D01*
X-6950112Y33020000D01*
X-6933701Y33186627D01*
X-6909399Y33266742D01*
X-6885097Y33346855D01*
X-6885096Y33346857D01*
X-6806169Y33494518D01*
X-6699949Y33623949D01*
X-6570518Y33730169D01*
X-6422857Y33809096D01*
X-6422855Y33809097D01*
X-6342742Y33833398D01*
X-6262627Y33857701D01*
X-6137752Y33870000D01*
X-6054248Y33870000D01*
X-5929373Y33857701D01*
X-5929373Y33857701D01*
G37*
G36*
X-3389373Y33857701D02*
G01*
X-3309258Y33833398D01*
X-3229145Y33809097D01*
X-3229143Y33809096D01*
X-3081482Y33730169D01*
X-2952051Y33623949D01*
X-2845831Y33494518D01*
X-2766904Y33346857D01*
X-2766903Y33346855D01*
X-2742601Y33266742D01*
X-2718299Y33186627D01*
X-2701888Y33020000D01*
X-2718299Y32853373D01*
X-2742602Y32773258D01*
X-2764438Y32701270D01*
X-2766904Y32693143D01*
X-2845831Y32545482D01*
X-2952051Y32416051D01*
X-3081482Y32309831D01*
X-3229143Y32230904D01*
X-3229145Y32230903D01*
X-3309258Y32206602D01*
X-3389373Y32182299D01*
X-3514248Y32170000D01*
X-3597752Y32170000D01*
X-3722627Y32182299D01*
X-3802742Y32206602D01*
X-3882855Y32230903D01*
X-3882857Y32230904D01*
X-4030518Y32309831D01*
X-4159949Y32416051D01*
X-4266169Y32545482D01*
X-4345096Y32693143D01*
X-4347561Y32701270D01*
X-4369398Y32773258D01*
X-4393701Y32853373D01*
X-4410112Y33020000D01*
X-4393701Y33186627D01*
X-4369399Y33266742D01*
X-4345097Y33346855D01*
X-4345096Y33346857D01*
X-4266169Y33494518D01*
X-4159949Y33623949D01*
X-4030518Y33730169D01*
X-3882857Y33809096D01*
X-3882855Y33809097D01*
X-3802742Y33833398D01*
X-3722627Y33857701D01*
X-3597752Y33870000D01*
X-3514248Y33870000D01*
X-3389373Y33857701D01*
X-3389373Y33857701D01*
G37*
G36*
X-362157Y33500786D02*
G01*
X-347025Y33494518D01*
X-271161Y33463094D01*
X-269328Y33461869D01*
X-189270Y33408376D01*
X-119624Y33338730D01*
X-64905Y33256837D01*
X-27214Y33165843D01*
X-8000Y33069247D01*
X-8000Y32970753D01*
X-27214Y32874157D01*
X-51179Y32816301D01*
X-64906Y32783161D01*
X-119625Y32701269D01*
X-189269Y32631625D01*
X-271161Y32576906D01*
X-271162Y32576905D01*
X-271163Y32576905D01*
X-362157Y32539214D01*
X-458753Y32520000D01*
X-557247Y32520000D01*
X-653843Y32539214D01*
X-744837Y32576905D01*
X-744838Y32576905D01*
X-744839Y32576906D01*
X-826731Y32631625D01*
X-896375Y32701269D01*
X-951094Y32783161D01*
X-964821Y32816301D01*
X-988786Y32874157D01*
X-1008000Y32970753D01*
X-1008000Y33069247D01*
X-988786Y33165843D01*
X-951095Y33256837D01*
X-896376Y33338730D01*
X-826730Y33408376D01*
X-746672Y33461869D01*
X-744839Y33463094D01*
X-668975Y33494518D01*
X-653843Y33500786D01*
X-557247Y33520000D01*
X-458753Y33520000D01*
X-362157Y33500786D01*
X-362157Y33500786D01*
G37*
G36*
X93798397Y35886857D02*
G01*
X93932356Y35860211D01*
X94205315Y35747147D01*
X94450971Y35583005D01*
X94659885Y35374091D01*
X94812854Y35145157D01*
X94824028Y35128433D01*
X94828803Y35116905D01*
X94937091Y34855476D01*
X94938214Y34849831D01*
X94963582Y34722299D01*
X94994730Y34565704D01*
X94994730Y34270256D01*
X94937091Y33980484D01*
X94824027Y33707525D01*
X94659885Y33461869D01*
X94450971Y33252955D01*
X94205315Y33088813D01*
X94205314Y33088812D01*
X94205313Y33088812D01*
X94125367Y33055697D01*
X93932356Y32975749D01*
X93907244Y32970754D01*
X93642586Y32918110D01*
X93347134Y32918110D01*
X93082476Y32970754D01*
X93057364Y32975749D01*
X92864353Y33055697D01*
X92784407Y33088812D01*
X92784406Y33088812D01*
X92784405Y33088813D01*
X92538749Y33252955D01*
X92329835Y33461869D01*
X92165693Y33707525D01*
X92052629Y33980484D01*
X91994990Y34270256D01*
X91994990Y34565704D01*
X92026139Y34722299D01*
X92051506Y34849831D01*
X92052629Y34855476D01*
X92160917Y35116905D01*
X92165692Y35128433D01*
X92176867Y35145157D01*
X92329835Y35374091D01*
X92538749Y35583005D01*
X92784405Y35747147D01*
X93057364Y35860211D01*
X93191323Y35886857D01*
X93347134Y35917850D01*
X93642586Y35917850D01*
X93798397Y35886857D01*
X93798397Y35886857D01*
G37*
G36*
X-3389373Y36397701D02*
G01*
X-3309258Y36373398D01*
X-3229145Y36349097D01*
X-3229143Y36349096D01*
X-3081482Y36270169D01*
X-2952051Y36163949D01*
X-2845831Y36034518D01*
X-2783470Y35917850D01*
X-2766903Y35886855D01*
X-2758821Y35860211D01*
X-2718299Y35726627D01*
X-2701888Y35560000D01*
X-2718299Y35393373D01*
X-2742601Y35313258D01*
X-2764438Y35241270D01*
X-2766904Y35233143D01*
X-2845831Y35085482D01*
X-2952051Y34956051D01*
X-3081482Y34849831D01*
X-3229143Y34770904D01*
X-3229145Y34770903D01*
X-3309258Y34746602D01*
X-3389373Y34722299D01*
X-3514248Y34710000D01*
X-3597752Y34710000D01*
X-3722627Y34722299D01*
X-3802742Y34746602D01*
X-3882855Y34770903D01*
X-3882857Y34770904D01*
X-4030518Y34849831D01*
X-4159949Y34956051D01*
X-4266169Y35085482D01*
X-4345096Y35233143D01*
X-4347561Y35241270D01*
X-4369399Y35313258D01*
X-4393701Y35393373D01*
X-4410112Y35560000D01*
X-4393701Y35726627D01*
X-4353179Y35860211D01*
X-4345097Y35886855D01*
X-4328530Y35917850D01*
X-4266169Y36034518D01*
X-4159949Y36163949D01*
X-4030518Y36270169D01*
X-3882857Y36349096D01*
X-3882855Y36349097D01*
X-3802742Y36373399D01*
X-3722627Y36397701D01*
X-3597752Y36410000D01*
X-3514248Y36410000D01*
X-3389373Y36397701D01*
X-3389373Y36397701D01*
G37*
G36*
X-5929373Y36397701D02*
G01*
X-5849258Y36373398D01*
X-5769145Y36349097D01*
X-5769143Y36349096D01*
X-5621482Y36270169D01*
X-5492051Y36163949D01*
X-5385831Y36034518D01*
X-5323470Y35917850D01*
X-5306903Y35886855D01*
X-5298821Y35860211D01*
X-5258299Y35726627D01*
X-5241888Y35560000D01*
X-5258299Y35393373D01*
X-5282601Y35313258D01*
X-5304438Y35241270D01*
X-5306904Y35233143D01*
X-5385831Y35085482D01*
X-5492051Y34956051D01*
X-5621482Y34849831D01*
X-5769143Y34770904D01*
X-5769145Y34770903D01*
X-5849258Y34746602D01*
X-5929373Y34722299D01*
X-6054248Y34710000D01*
X-6137752Y34710000D01*
X-6262627Y34722299D01*
X-6342742Y34746602D01*
X-6422855Y34770903D01*
X-6422857Y34770904D01*
X-6570518Y34849831D01*
X-6699949Y34956051D01*
X-6806169Y35085482D01*
X-6885096Y35233143D01*
X-6887561Y35241270D01*
X-6909399Y35313258D01*
X-6933701Y35393373D01*
X-6950112Y35560000D01*
X-6933701Y35726627D01*
X-6893179Y35860211D01*
X-6885097Y35886855D01*
X-6868530Y35917850D01*
X-6806169Y36034518D01*
X-6699949Y36163949D01*
X-6570518Y36270169D01*
X-6422857Y36349096D01*
X-6422855Y36349097D01*
X-6342742Y36373399D01*
X-6262627Y36397701D01*
X-6137752Y36410000D01*
X-6054248Y36410000D01*
X-5929373Y36397701D01*
X-5929373Y36397701D01*
G37*
G36*
X62223935Y36504336D02*
G01*
X62378624Y36440261D01*
X62378626Y36440260D01*
X62517844Y36347238D01*
X62636238Y36228844D01*
X62729260Y36089626D01*
X62729261Y36089624D01*
X62793336Y35934935D01*
X62826000Y35770719D01*
X62826000Y35603281D01*
X62793336Y35439065D01*
X62745327Y35323163D01*
X62729260Y35284374D01*
X62636238Y35145156D01*
X62517844Y35026762D01*
X62378626Y34933740D01*
X62378625Y34933739D01*
X62378624Y34933739D01*
X62223935Y34869664D01*
X62059719Y34837000D01*
X61892281Y34837000D01*
X61728065Y34869664D01*
X61573376Y34933739D01*
X61573375Y34933739D01*
X61573374Y34933740D01*
X61434156Y35026762D01*
X61315762Y35145156D01*
X61222740Y35284374D01*
X61206673Y35323163D01*
X61158664Y35439065D01*
X61126000Y35603281D01*
X61126000Y35770719D01*
X61158664Y35934935D01*
X61222739Y36089624D01*
X61222740Y36089626D01*
X61315762Y36228844D01*
X61434156Y36347238D01*
X61573374Y36440260D01*
X61573376Y36440261D01*
X61728065Y36504336D01*
X61892281Y36537000D01*
X62059719Y36537000D01*
X62223935Y36504336D01*
X62223935Y36504336D01*
G37*
G36*
X54603935Y36504336D02*
G01*
X54758624Y36440261D01*
X54758626Y36440260D01*
X54897844Y36347238D01*
X55016238Y36228844D01*
X55109260Y36089626D01*
X55109261Y36089624D01*
X55173336Y35934935D01*
X55206000Y35770719D01*
X55206000Y35603281D01*
X55173336Y35439065D01*
X55125327Y35323163D01*
X55109260Y35284374D01*
X55016238Y35145156D01*
X54897844Y35026762D01*
X54758626Y34933740D01*
X54758625Y34933739D01*
X54758624Y34933739D01*
X54603935Y34869664D01*
X54439719Y34837000D01*
X54272281Y34837000D01*
X54108065Y34869664D01*
X53953376Y34933739D01*
X53953375Y34933739D01*
X53953374Y34933740D01*
X53814156Y35026762D01*
X53695762Y35145156D01*
X53602740Y35284374D01*
X53586673Y35323163D01*
X53538664Y35439065D01*
X53506000Y35603281D01*
X53506000Y35770719D01*
X53538664Y35934935D01*
X53602739Y36089624D01*
X53602740Y36089626D01*
X53695762Y36228844D01*
X53814156Y36347238D01*
X53953374Y36440260D01*
X53953376Y36440261D01*
X54108065Y36504336D01*
X54272281Y36537000D01*
X54439719Y36537000D01*
X54603935Y36504336D01*
X54603935Y36504336D01*
G37*
G36*
X57143935Y36504336D02*
G01*
X57298624Y36440261D01*
X57298626Y36440260D01*
X57437844Y36347238D01*
X57556238Y36228844D01*
X57649260Y36089626D01*
X57649261Y36089624D01*
X57713336Y35934935D01*
X57746000Y35770719D01*
X57746000Y35603281D01*
X57713336Y35439065D01*
X57665327Y35323163D01*
X57649260Y35284374D01*
X57556238Y35145156D01*
X57437844Y35026762D01*
X57298626Y34933740D01*
X57298625Y34933739D01*
X57298624Y34933739D01*
X57143935Y34869664D01*
X56979719Y34837000D01*
X56812281Y34837000D01*
X56648065Y34869664D01*
X56493376Y34933739D01*
X56493375Y34933739D01*
X56493374Y34933740D01*
X56354156Y35026762D01*
X56235762Y35145156D01*
X56142740Y35284374D01*
X56126673Y35323163D01*
X56078664Y35439065D01*
X56046000Y35603281D01*
X56046000Y35770719D01*
X56078664Y35934935D01*
X56142739Y36089624D01*
X56142740Y36089626D01*
X56235762Y36228844D01*
X56354156Y36347238D01*
X56493374Y36440260D01*
X56493376Y36440261D01*
X56648065Y36504336D01*
X56812281Y36537000D01*
X56979719Y36537000D01*
X57143935Y36504336D01*
X57143935Y36504336D01*
G37*
G36*
X59683935Y36504336D02*
G01*
X59838624Y36440261D01*
X59838626Y36440260D01*
X59977844Y36347238D01*
X60096238Y36228844D01*
X60189260Y36089626D01*
X60189261Y36089624D01*
X60253336Y35934935D01*
X60286000Y35770719D01*
X60286000Y35603281D01*
X60253336Y35439065D01*
X60205327Y35323163D01*
X60189260Y35284374D01*
X60096238Y35145156D01*
X59977844Y35026762D01*
X59838626Y34933740D01*
X59838625Y34933739D01*
X59838624Y34933739D01*
X59683935Y34869664D01*
X59519719Y34837000D01*
X59352281Y34837000D01*
X59188065Y34869664D01*
X59033376Y34933739D01*
X59033375Y34933739D01*
X59033374Y34933740D01*
X58894156Y35026762D01*
X58775762Y35145156D01*
X58682740Y35284374D01*
X58666673Y35323163D01*
X58618664Y35439065D01*
X58586000Y35603281D01*
X58586000Y35770719D01*
X58618664Y35934935D01*
X58682739Y36089624D01*
X58682740Y36089626D01*
X58775762Y36228844D01*
X58894156Y36347238D01*
X59033374Y36440260D01*
X59033376Y36440261D01*
X59188065Y36504336D01*
X59352281Y36537000D01*
X59519719Y36537000D01*
X59683935Y36504336D01*
X59683935Y36504336D01*
G37*
G36*
X64763935Y36504336D02*
G01*
X64918624Y36440261D01*
X64918626Y36440260D01*
X65057844Y36347238D01*
X65176238Y36228844D01*
X65269260Y36089626D01*
X65269261Y36089624D01*
X65333336Y35934935D01*
X65366000Y35770719D01*
X65366000Y35603281D01*
X65333336Y35439065D01*
X65285327Y35323163D01*
X65269260Y35284374D01*
X65176238Y35145156D01*
X65057844Y35026762D01*
X64918626Y34933740D01*
X64918625Y34933739D01*
X64918624Y34933739D01*
X64763935Y34869664D01*
X64599719Y34837000D01*
X64432281Y34837000D01*
X64268065Y34869664D01*
X64113376Y34933739D01*
X64113375Y34933739D01*
X64113374Y34933740D01*
X63974156Y35026762D01*
X63855762Y35145156D01*
X63762740Y35284374D01*
X63746673Y35323163D01*
X63698664Y35439065D01*
X63666000Y35603281D01*
X63666000Y35770719D01*
X63698664Y35934935D01*
X63762739Y36089624D01*
X63762740Y36089626D01*
X63855762Y36228844D01*
X63974156Y36347238D01*
X64113374Y36440260D01*
X64113376Y36440261D01*
X64268065Y36504336D01*
X64432281Y36537000D01*
X64599719Y36537000D01*
X64763935Y36504336D01*
X64763935Y36504336D01*
G37*
G36*
X67303935Y36504336D02*
G01*
X67458624Y36440261D01*
X67458626Y36440260D01*
X67597844Y36347238D01*
X67716238Y36228844D01*
X67809260Y36089626D01*
X67809261Y36089624D01*
X67873336Y35934935D01*
X67906000Y35770719D01*
X67906000Y35603281D01*
X67873336Y35439065D01*
X67825327Y35323163D01*
X67809260Y35284374D01*
X67716238Y35145156D01*
X67597844Y35026762D01*
X67458626Y34933740D01*
X67458625Y34933739D01*
X67458624Y34933739D01*
X67303935Y34869664D01*
X67139719Y34837000D01*
X66972281Y34837000D01*
X66808065Y34869664D01*
X66653376Y34933739D01*
X66653375Y34933739D01*
X66653374Y34933740D01*
X66514156Y35026762D01*
X66395762Y35145156D01*
X66302740Y35284374D01*
X66286673Y35323163D01*
X66238664Y35439065D01*
X66206000Y35603281D01*
X66206000Y35770719D01*
X66238664Y35934935D01*
X66302739Y36089624D01*
X66302740Y36089626D01*
X66395762Y36228844D01*
X66514156Y36347238D01*
X66653374Y36440260D01*
X66653376Y36440261D01*
X66808065Y36504336D01*
X66972281Y36537000D01*
X67139719Y36537000D01*
X67303935Y36504336D01*
X67303935Y36504336D01*
G37*
G36*
X69843935Y36504336D02*
G01*
X69998624Y36440261D01*
X69998626Y36440260D01*
X70137844Y36347238D01*
X70256238Y36228844D01*
X70349260Y36089626D01*
X70349261Y36089624D01*
X70413336Y35934935D01*
X70446000Y35770719D01*
X70446000Y35603281D01*
X70413336Y35439065D01*
X70365327Y35323163D01*
X70349260Y35284374D01*
X70256238Y35145156D01*
X70137844Y35026762D01*
X69998626Y34933740D01*
X69998625Y34933739D01*
X69998624Y34933739D01*
X69843935Y34869664D01*
X69679719Y34837000D01*
X69512281Y34837000D01*
X69348065Y34869664D01*
X69193376Y34933739D01*
X69193375Y34933739D01*
X69193374Y34933740D01*
X69054156Y35026762D01*
X68935762Y35145156D01*
X68842740Y35284374D01*
X68826673Y35323163D01*
X68778664Y35439065D01*
X68746000Y35603281D01*
X68746000Y35770719D01*
X68778664Y35934935D01*
X68842739Y36089624D01*
X68842740Y36089626D01*
X68935762Y36228844D01*
X69054156Y36347238D01*
X69193374Y36440260D01*
X69193376Y36440261D01*
X69348065Y36504336D01*
X69512281Y36537000D01*
X69679719Y36537000D01*
X69843935Y36504336D01*
X69843935Y36504336D01*
G37*
G36*
X44443935Y36504336D02*
G01*
X44598624Y36440261D01*
X44598626Y36440260D01*
X44737844Y36347238D01*
X44856238Y36228844D01*
X44949260Y36089626D01*
X44949261Y36089624D01*
X45013336Y35934935D01*
X45046000Y35770719D01*
X45046000Y35603281D01*
X45013336Y35439065D01*
X44965327Y35323163D01*
X44949260Y35284374D01*
X44856238Y35145156D01*
X44737844Y35026762D01*
X44598626Y34933740D01*
X44598625Y34933739D01*
X44598624Y34933739D01*
X44443935Y34869664D01*
X44279719Y34837000D01*
X44112281Y34837000D01*
X43948065Y34869664D01*
X43793376Y34933739D01*
X43793375Y34933739D01*
X43793374Y34933740D01*
X43654156Y35026762D01*
X43535762Y35145156D01*
X43442740Y35284374D01*
X43426673Y35323163D01*
X43378664Y35439065D01*
X43346000Y35603281D01*
X43346000Y35770719D01*
X43378664Y35934935D01*
X43442739Y36089624D01*
X43442740Y36089626D01*
X43535762Y36228844D01*
X43654156Y36347238D01*
X43793374Y36440260D01*
X43793376Y36440261D01*
X43948065Y36504336D01*
X44112281Y36537000D01*
X44279719Y36537000D01*
X44443935Y36504336D01*
X44443935Y36504336D01*
G37*
G36*
X41903935Y36504336D02*
G01*
X42058624Y36440261D01*
X42058626Y36440260D01*
X42197844Y36347238D01*
X42316238Y36228844D01*
X42409260Y36089626D01*
X42409261Y36089624D01*
X42473336Y35934935D01*
X42506000Y35770719D01*
X42506000Y35603281D01*
X42473336Y35439065D01*
X42425327Y35323163D01*
X42409260Y35284374D01*
X42316238Y35145156D01*
X42197844Y35026762D01*
X42058626Y34933740D01*
X42058625Y34933739D01*
X42058624Y34933739D01*
X41903935Y34869664D01*
X41739719Y34837000D01*
X41572281Y34837000D01*
X41408065Y34869664D01*
X41253376Y34933739D01*
X41253375Y34933739D01*
X41253374Y34933740D01*
X41114156Y35026762D01*
X40995762Y35145156D01*
X40902740Y35284374D01*
X40886673Y35323163D01*
X40838664Y35439065D01*
X40806000Y35603281D01*
X40806000Y35770719D01*
X40838664Y35934935D01*
X40902739Y36089624D01*
X40902740Y36089626D01*
X40995762Y36228844D01*
X41114156Y36347238D01*
X41253374Y36440260D01*
X41253376Y36440261D01*
X41408065Y36504336D01*
X41572281Y36537000D01*
X41739719Y36537000D01*
X41903935Y36504336D01*
X41903935Y36504336D01*
G37*
G36*
X39363935Y36504336D02*
G01*
X39518624Y36440261D01*
X39518626Y36440260D01*
X39657844Y36347238D01*
X39776238Y36228844D01*
X39869260Y36089626D01*
X39869261Y36089624D01*
X39933336Y35934935D01*
X39966000Y35770719D01*
X39966000Y35603281D01*
X39933336Y35439065D01*
X39885327Y35323163D01*
X39869260Y35284374D01*
X39776238Y35145156D01*
X39657844Y35026762D01*
X39518626Y34933740D01*
X39518625Y34933739D01*
X39518624Y34933739D01*
X39363935Y34869664D01*
X39199719Y34837000D01*
X39032281Y34837000D01*
X38868065Y34869664D01*
X38713376Y34933739D01*
X38713375Y34933739D01*
X38713374Y34933740D01*
X38574156Y35026762D01*
X38455762Y35145156D01*
X38362740Y35284374D01*
X38346673Y35323163D01*
X38298664Y35439065D01*
X38266000Y35603281D01*
X38266000Y35770719D01*
X38298664Y35934935D01*
X38362739Y36089624D01*
X38362740Y36089626D01*
X38455762Y36228844D01*
X38574156Y36347238D01*
X38713374Y36440260D01*
X38713376Y36440261D01*
X38868065Y36504336D01*
X39032281Y36537000D01*
X39199719Y36537000D01*
X39363935Y36504336D01*
X39363935Y36504336D01*
G37*
G36*
X34283935Y36504336D02*
G01*
X34438624Y36440261D01*
X34438626Y36440260D01*
X34577844Y36347238D01*
X34696238Y36228844D01*
X34789260Y36089626D01*
X34789261Y36089624D01*
X34853336Y35934935D01*
X34886000Y35770719D01*
X34886000Y35603281D01*
X34853336Y35439065D01*
X34805327Y35323163D01*
X34789260Y35284374D01*
X34696238Y35145156D01*
X34577844Y35026762D01*
X34438626Y34933740D01*
X34438625Y34933739D01*
X34438624Y34933739D01*
X34283935Y34869664D01*
X34119719Y34837000D01*
X33952281Y34837000D01*
X33788065Y34869664D01*
X33633376Y34933739D01*
X33633375Y34933739D01*
X33633374Y34933740D01*
X33494156Y35026762D01*
X33375762Y35145156D01*
X33282740Y35284374D01*
X33266673Y35323163D01*
X33218664Y35439065D01*
X33186000Y35603281D01*
X33186000Y35770719D01*
X33218664Y35934935D01*
X33282739Y36089624D01*
X33282740Y36089626D01*
X33375762Y36228844D01*
X33494156Y36347238D01*
X33633374Y36440260D01*
X33633376Y36440261D01*
X33788065Y36504336D01*
X33952281Y36537000D01*
X34119719Y36537000D01*
X34283935Y36504336D01*
X34283935Y36504336D01*
G37*
G36*
X24123935Y36504336D02*
G01*
X24278624Y36440261D01*
X24278626Y36440260D01*
X24417844Y36347238D01*
X24536238Y36228844D01*
X24629260Y36089626D01*
X24629261Y36089624D01*
X24693336Y35934935D01*
X24726000Y35770719D01*
X24726000Y35603281D01*
X24693336Y35439065D01*
X24645327Y35323163D01*
X24629260Y35284374D01*
X24536238Y35145156D01*
X24417844Y35026762D01*
X24278626Y34933740D01*
X24278625Y34933739D01*
X24278624Y34933739D01*
X24123935Y34869664D01*
X23959719Y34837000D01*
X23792281Y34837000D01*
X23628065Y34869664D01*
X23473376Y34933739D01*
X23473375Y34933739D01*
X23473374Y34933740D01*
X23334156Y35026762D01*
X23215762Y35145156D01*
X23122740Y35284374D01*
X23106673Y35323163D01*
X23058664Y35439065D01*
X23026000Y35603281D01*
X23026000Y35770719D01*
X23058664Y35934935D01*
X23122739Y36089624D01*
X23122740Y36089626D01*
X23215762Y36228844D01*
X23334156Y36347238D01*
X23473374Y36440260D01*
X23473376Y36440261D01*
X23628065Y36504336D01*
X23792281Y36537000D01*
X23959719Y36537000D01*
X24123935Y36504336D01*
X24123935Y36504336D01*
G37*
G36*
X49523935Y36504336D02*
G01*
X49678624Y36440261D01*
X49678626Y36440260D01*
X49817844Y36347238D01*
X49936238Y36228844D01*
X50029260Y36089626D01*
X50029261Y36089624D01*
X50093336Y35934935D01*
X50126000Y35770719D01*
X50126000Y35603281D01*
X50093336Y35439065D01*
X50045327Y35323163D01*
X50029260Y35284374D01*
X49936238Y35145156D01*
X49817844Y35026762D01*
X49678626Y34933740D01*
X49678625Y34933739D01*
X49678624Y34933739D01*
X49523935Y34869664D01*
X49359719Y34837000D01*
X49192281Y34837000D01*
X49028065Y34869664D01*
X48873376Y34933739D01*
X48873375Y34933739D01*
X48873374Y34933740D01*
X48734156Y35026762D01*
X48615762Y35145156D01*
X48522740Y35284374D01*
X48506673Y35323163D01*
X48458664Y35439065D01*
X48426000Y35603281D01*
X48426000Y35770719D01*
X48458664Y35934935D01*
X48522739Y36089624D01*
X48522740Y36089626D01*
X48615762Y36228844D01*
X48734156Y36347238D01*
X48873374Y36440260D01*
X48873376Y36440261D01*
X49028065Y36504336D01*
X49192281Y36537000D01*
X49359719Y36537000D01*
X49523935Y36504336D01*
X49523935Y36504336D01*
G37*
G36*
X29203935Y36504336D02*
G01*
X29358624Y36440261D01*
X29358626Y36440260D01*
X29497844Y36347238D01*
X29616238Y36228844D01*
X29709260Y36089626D01*
X29709261Y36089624D01*
X29773336Y35934935D01*
X29806000Y35770719D01*
X29806000Y35603281D01*
X29773336Y35439065D01*
X29725327Y35323163D01*
X29709260Y35284374D01*
X29616238Y35145156D01*
X29497844Y35026762D01*
X29358626Y34933740D01*
X29358625Y34933739D01*
X29358624Y34933739D01*
X29203935Y34869664D01*
X29039719Y34837000D01*
X28872281Y34837000D01*
X28708065Y34869664D01*
X28553376Y34933739D01*
X28553375Y34933739D01*
X28553374Y34933740D01*
X28414156Y35026762D01*
X28295762Y35145156D01*
X28202740Y35284374D01*
X28186673Y35323163D01*
X28138664Y35439065D01*
X28106000Y35603281D01*
X28106000Y35770719D01*
X28138664Y35934935D01*
X28202739Y36089624D01*
X28202740Y36089626D01*
X28295762Y36228844D01*
X28414156Y36347238D01*
X28553374Y36440260D01*
X28553376Y36440261D01*
X28708065Y36504336D01*
X28872281Y36537000D01*
X29039719Y36537000D01*
X29203935Y36504336D01*
X29203935Y36504336D01*
G37*
G36*
X26663935Y36504336D02*
G01*
X26818624Y36440261D01*
X26818626Y36440260D01*
X26957844Y36347238D01*
X27076238Y36228844D01*
X27169260Y36089626D01*
X27169261Y36089624D01*
X27233336Y35934935D01*
X27266000Y35770719D01*
X27266000Y35603281D01*
X27233336Y35439065D01*
X27185327Y35323163D01*
X27169260Y35284374D01*
X27076238Y35145156D01*
X26957844Y35026762D01*
X26818626Y34933740D01*
X26818625Y34933739D01*
X26818624Y34933739D01*
X26663935Y34869664D01*
X26499719Y34837000D01*
X26332281Y34837000D01*
X26168065Y34869664D01*
X26013376Y34933739D01*
X26013375Y34933739D01*
X26013374Y34933740D01*
X25874156Y35026762D01*
X25755762Y35145156D01*
X25662740Y35284374D01*
X25646673Y35323163D01*
X25598664Y35439065D01*
X25566000Y35603281D01*
X25566000Y35770719D01*
X25598664Y35934935D01*
X25662739Y36089624D01*
X25662740Y36089626D01*
X25755762Y36228844D01*
X25874156Y36347238D01*
X26013374Y36440260D01*
X26013376Y36440261D01*
X26168065Y36504336D01*
X26332281Y36537000D01*
X26499719Y36537000D01*
X26663935Y36504336D01*
X26663935Y36504336D01*
G37*
G36*
X31743935Y36504336D02*
G01*
X31898624Y36440261D01*
X31898626Y36440260D01*
X32037844Y36347238D01*
X32156238Y36228844D01*
X32249260Y36089626D01*
X32249261Y36089624D01*
X32313336Y35934935D01*
X32346000Y35770719D01*
X32346000Y35603281D01*
X32313336Y35439065D01*
X32265327Y35323163D01*
X32249260Y35284374D01*
X32156238Y35145156D01*
X32037844Y35026762D01*
X31898626Y34933740D01*
X31898625Y34933739D01*
X31898624Y34933739D01*
X31743935Y34869664D01*
X31579719Y34837000D01*
X31412281Y34837000D01*
X31248065Y34869664D01*
X31093376Y34933739D01*
X31093375Y34933739D01*
X31093374Y34933740D01*
X30954156Y35026762D01*
X30835762Y35145156D01*
X30742740Y35284374D01*
X30726673Y35323163D01*
X30678664Y35439065D01*
X30646000Y35603281D01*
X30646000Y35770719D01*
X30678664Y35934935D01*
X30742739Y36089624D01*
X30742740Y36089626D01*
X30835762Y36228844D01*
X30954156Y36347238D01*
X31093374Y36440260D01*
X31093376Y36440261D01*
X31248065Y36504336D01*
X31412281Y36537000D01*
X31579719Y36537000D01*
X31743935Y36504336D01*
X31743935Y36504336D01*
G37*
G36*
X52063935Y36504336D02*
G01*
X52218624Y36440261D01*
X52218626Y36440260D01*
X52357844Y36347238D01*
X52476238Y36228844D01*
X52569260Y36089626D01*
X52569261Y36089624D01*
X52633336Y35934935D01*
X52666000Y35770719D01*
X52666000Y35603281D01*
X52633336Y35439065D01*
X52585327Y35323163D01*
X52569260Y35284374D01*
X52476238Y35145156D01*
X52357844Y35026762D01*
X52218626Y34933740D01*
X52218625Y34933739D01*
X52218624Y34933739D01*
X52063935Y34869664D01*
X51899719Y34837000D01*
X51732281Y34837000D01*
X51568065Y34869664D01*
X51413376Y34933739D01*
X51413375Y34933739D01*
X51413374Y34933740D01*
X51274156Y35026762D01*
X51155762Y35145156D01*
X51062740Y35284374D01*
X51046673Y35323163D01*
X50998664Y35439065D01*
X50966000Y35603281D01*
X50966000Y35770719D01*
X50998664Y35934935D01*
X51062739Y36089624D01*
X51062740Y36089626D01*
X51155762Y36228844D01*
X51274156Y36347238D01*
X51413374Y36440260D01*
X51413376Y36440261D01*
X51568065Y36504336D01*
X51732281Y36537000D01*
X51899719Y36537000D01*
X52063935Y36504336D01*
X52063935Y36504336D01*
G37*
G36*
X46983935Y36504336D02*
G01*
X47138624Y36440261D01*
X47138626Y36440260D01*
X47277844Y36347238D01*
X47396238Y36228844D01*
X47489260Y36089626D01*
X47489261Y36089624D01*
X47553336Y35934935D01*
X47586000Y35770719D01*
X47586000Y35603281D01*
X47553336Y35439065D01*
X47505327Y35323163D01*
X47489260Y35284374D01*
X47396238Y35145156D01*
X47277844Y35026762D01*
X47138626Y34933740D01*
X47138625Y34933739D01*
X47138624Y34933739D01*
X46983935Y34869664D01*
X46819719Y34837000D01*
X46652281Y34837000D01*
X46488065Y34869664D01*
X46333376Y34933739D01*
X46333375Y34933739D01*
X46333374Y34933740D01*
X46194156Y35026762D01*
X46075762Y35145156D01*
X45982740Y35284374D01*
X45966673Y35323163D01*
X45918664Y35439065D01*
X45886000Y35603281D01*
X45886000Y35770719D01*
X45918664Y35934935D01*
X45982739Y36089624D01*
X45982740Y36089626D01*
X46075762Y36228844D01*
X46194156Y36347238D01*
X46333374Y36440260D01*
X46333376Y36440261D01*
X46488065Y36504336D01*
X46652281Y36537000D01*
X46819719Y36537000D01*
X46983935Y36504336D01*
X46983935Y36504336D01*
G37*
G36*
X72986000Y34837000D02*
G01*
X71286000Y34837000D01*
X71286000Y36537000D01*
X72986000Y36537000D01*
X72986000Y34837000D01*
X72986000Y34837000D01*
G37*
G36*
X36823935Y36504336D02*
G01*
X36978624Y36440261D01*
X36978626Y36440260D01*
X37117844Y36347238D01*
X37236238Y36228844D01*
X37329260Y36089626D01*
X37329261Y36089624D01*
X37393336Y35934935D01*
X37426000Y35770719D01*
X37426000Y35603281D01*
X37393336Y35439065D01*
X37345327Y35323163D01*
X37329260Y35284374D01*
X37236238Y35145156D01*
X37117844Y35026762D01*
X36978626Y34933740D01*
X36978625Y34933739D01*
X36978624Y34933739D01*
X36823935Y34869664D01*
X36659719Y34837000D01*
X36492281Y34837000D01*
X36328065Y34869664D01*
X36173376Y34933739D01*
X36173375Y34933739D01*
X36173374Y34933740D01*
X36034156Y35026762D01*
X35915762Y35145156D01*
X35822740Y35284374D01*
X35806673Y35323163D01*
X35758664Y35439065D01*
X35726000Y35603281D01*
X35726000Y35770719D01*
X35758664Y35934935D01*
X35822739Y36089624D01*
X35822740Y36089626D01*
X35915762Y36228844D01*
X36034156Y36347238D01*
X36173374Y36440260D01*
X36173376Y36440261D01*
X36328065Y36504336D01*
X36492281Y36537000D01*
X36659719Y36537000D01*
X36823935Y36504336D01*
X36823935Y36504336D01*
G37*
G36*
X-362157Y36040786D02*
G01*
X-347025Y36034518D01*
X-271161Y36003094D01*
X-229937Y35975549D01*
X-189270Y35948376D01*
X-119624Y35878730D01*
X-64905Y35796837D01*
X-27214Y35705843D01*
X-8000Y35609247D01*
X-8000Y35510753D01*
X-27214Y35414157D01*
X-27215Y35414155D01*
X-64906Y35323161D01*
X-119625Y35241269D01*
X-189269Y35171625D01*
X-271161Y35116906D01*
X-271162Y35116905D01*
X-271163Y35116905D01*
X-362157Y35079214D01*
X-458753Y35060000D01*
X-557247Y35060000D01*
X-653843Y35079214D01*
X-744837Y35116905D01*
X-744838Y35116905D01*
X-744839Y35116906D01*
X-826731Y35171625D01*
X-896375Y35241269D01*
X-951094Y35323161D01*
X-988785Y35414155D01*
X-988786Y35414157D01*
X-1008000Y35510753D01*
X-1008000Y35609247D01*
X-988786Y35705843D01*
X-951095Y35796837D01*
X-896376Y35878730D01*
X-826730Y35948376D01*
X-786063Y35975549D01*
X-744839Y36003094D01*
X-668975Y36034518D01*
X-653843Y36040786D01*
X-557247Y36060000D01*
X-458753Y36060000D01*
X-362157Y36040786D01*
X-362157Y36040786D01*
G37*
G36*
X-5929373Y38937701D02*
G01*
X-5849411Y38913445D01*
X-5769145Y38889097D01*
X-5769143Y38889096D01*
X-5621482Y38810169D01*
X-5492051Y38703949D01*
X-5385831Y38574518D01*
X-5306904Y38426857D01*
X-5306903Y38426855D01*
X-5300213Y38404800D01*
X-5258299Y38266627D01*
X-5241888Y38100000D01*
X-5258299Y37933373D01*
X-5282602Y37853258D01*
X-5304438Y37781270D01*
X-5306904Y37773143D01*
X-5385831Y37625482D01*
X-5492051Y37496051D01*
X-5621482Y37389831D01*
X-5769143Y37310904D01*
X-5769145Y37310903D01*
X-5849258Y37286601D01*
X-5929373Y37262299D01*
X-6054248Y37250000D01*
X-6137752Y37250000D01*
X-6262627Y37262299D01*
X-6342742Y37286601D01*
X-6422855Y37310903D01*
X-6422857Y37310904D01*
X-6570518Y37389831D01*
X-6699949Y37496051D01*
X-6806169Y37625482D01*
X-6885096Y37773143D01*
X-6887561Y37781270D01*
X-6909398Y37853258D01*
X-6933701Y37933373D01*
X-6950112Y38100000D01*
X-6933701Y38266627D01*
X-6891787Y38404800D01*
X-6885097Y38426855D01*
X-6885096Y38426857D01*
X-6806169Y38574518D01*
X-6699949Y38703949D01*
X-6570518Y38810169D01*
X-6422857Y38889096D01*
X-6422855Y38889097D01*
X-6342589Y38913445D01*
X-6262627Y38937701D01*
X-6137752Y38950000D01*
X-6054248Y38950000D01*
X-5929373Y38937701D01*
X-5929373Y38937701D01*
G37*
G36*
X-3389373Y38937701D02*
G01*
X-3309411Y38913445D01*
X-3229145Y38889097D01*
X-3229143Y38889096D01*
X-3081482Y38810169D01*
X-2952051Y38703949D01*
X-2845831Y38574518D01*
X-2766904Y38426857D01*
X-2766903Y38426855D01*
X-2760213Y38404800D01*
X-2718299Y38266627D01*
X-2701888Y38100000D01*
X-2718299Y37933373D01*
X-2742602Y37853258D01*
X-2764438Y37781270D01*
X-2766904Y37773143D01*
X-2845831Y37625482D01*
X-2952051Y37496051D01*
X-3081482Y37389831D01*
X-3229143Y37310904D01*
X-3229145Y37310903D01*
X-3309258Y37286601D01*
X-3389373Y37262299D01*
X-3514248Y37250000D01*
X-3597752Y37250000D01*
X-3722627Y37262299D01*
X-3802742Y37286601D01*
X-3882855Y37310903D01*
X-3882857Y37310904D01*
X-4030518Y37389831D01*
X-4159949Y37496051D01*
X-4266169Y37625482D01*
X-4345096Y37773143D01*
X-4347561Y37781270D01*
X-4369398Y37853258D01*
X-4393701Y37933373D01*
X-4410112Y38100000D01*
X-4393701Y38266627D01*
X-4351787Y38404800D01*
X-4345097Y38426855D01*
X-4345096Y38426857D01*
X-4266169Y38574518D01*
X-4159949Y38703949D01*
X-4030518Y38810169D01*
X-3882857Y38889096D01*
X-3882855Y38889097D01*
X-3802589Y38913445D01*
X-3722627Y38937701D01*
X-3597752Y38950000D01*
X-3514248Y38950000D01*
X-3389373Y38937701D01*
X-3389373Y38937701D01*
G37*
G36*
X-362157Y38580786D02*
G01*
X-347025Y38574518D01*
X-271161Y38543094D01*
X-269560Y38542024D01*
X-189270Y38488376D01*
X-119624Y38418730D01*
X-64905Y38336837D01*
X-27214Y38245843D01*
X-8000Y38149247D01*
X-8000Y38050753D01*
X-27214Y37954157D01*
X-35823Y37933373D01*
X-64906Y37863161D01*
X-119625Y37781269D01*
X-189269Y37711625D01*
X-271161Y37656906D01*
X-271162Y37656905D01*
X-271163Y37656905D01*
X-362157Y37619214D01*
X-458753Y37600000D01*
X-557247Y37600000D01*
X-653843Y37619214D01*
X-744837Y37656905D01*
X-744838Y37656905D01*
X-744839Y37656906D01*
X-826731Y37711625D01*
X-896375Y37781269D01*
X-951094Y37863161D01*
X-980177Y37933373D01*
X-988786Y37954157D01*
X-1008000Y38050753D01*
X-1008000Y38149247D01*
X-988786Y38245843D01*
X-951095Y38336837D01*
X-896376Y38418730D01*
X-826730Y38488376D01*
X-746440Y38542024D01*
X-744839Y38543094D01*
X-668975Y38574518D01*
X-653843Y38580786D01*
X-557247Y38600000D01*
X-458753Y38600000D01*
X-362157Y38580786D01*
X-362157Y38580786D01*
G37*
G36*
X81087024Y39018472D02*
G01*
X81218975Y38978445D01*
X81340581Y38913445D01*
X81447170Y38825970D01*
X81534645Y38719381D01*
X81599645Y38597775D01*
X81639672Y38465824D01*
X81653187Y38328600D01*
X81639672Y38191376D01*
X81599645Y38059425D01*
X81534645Y37937819D01*
X81447170Y37831230D01*
X81340581Y37743755D01*
X81218975Y37678755D01*
X81087024Y37638728D01*
X80984190Y37628600D01*
X80915410Y37628600D01*
X80812576Y37638728D01*
X80680625Y37678755D01*
X80559019Y37743755D01*
X80452430Y37831230D01*
X80364955Y37937819D01*
X80299955Y38059425D01*
X80259928Y38191376D01*
X80246413Y38328600D01*
X80259928Y38465824D01*
X80299955Y38597775D01*
X80364955Y38719381D01*
X80452430Y38825970D01*
X80559019Y38913445D01*
X80680625Y38978445D01*
X80812576Y39018472D01*
X80915410Y39028600D01*
X80984190Y39028600D01*
X81087024Y39018472D01*
X81087024Y39018472D01*
G37*
G36*
X84236624Y39094672D02*
G01*
X84368575Y39054645D01*
X84490181Y38989645D01*
X84596770Y38902170D01*
X84684245Y38795581D01*
X84749245Y38673975D01*
X84789272Y38542024D01*
X84802787Y38404800D01*
X84789272Y38267576D01*
X84749245Y38135625D01*
X84684245Y38014019D01*
X84596770Y37907430D01*
X84490181Y37819955D01*
X84368575Y37754955D01*
X84236624Y37714928D01*
X84133790Y37704800D01*
X84065010Y37704800D01*
X83962176Y37714928D01*
X83830225Y37754955D01*
X83708619Y37819955D01*
X83602030Y37907430D01*
X83514555Y38014019D01*
X83449555Y38135625D01*
X83409528Y38267576D01*
X83396013Y38404800D01*
X83409528Y38542024D01*
X83449555Y38673975D01*
X83514555Y38795581D01*
X83602030Y38902170D01*
X83708619Y38989645D01*
X83830225Y39054645D01*
X83962176Y39094672D01*
X84065010Y39104800D01*
X84133790Y39104800D01*
X84236624Y39094672D01*
X84236624Y39094672D01*
G37*
G36*
X100721224Y39805872D02*
G01*
X100853175Y39765845D01*
X100974781Y39700845D01*
X101081370Y39613370D01*
X101168845Y39506781D01*
X101233845Y39385175D01*
X101273872Y39253224D01*
X101287387Y39116000D01*
X101273872Y38978776D01*
X101233845Y38846825D01*
X101168845Y38725219D01*
X101081370Y38618630D01*
X100974781Y38531155D01*
X100853175Y38466155D01*
X100721224Y38426128D01*
X100618390Y38416000D01*
X100549610Y38416000D01*
X100446776Y38426128D01*
X100314825Y38466155D01*
X100193219Y38531155D01*
X100086630Y38618630D01*
X99999155Y38725219D01*
X99934155Y38846825D01*
X99894128Y38978776D01*
X99880613Y39116000D01*
X99894128Y39253224D01*
X99934155Y39385175D01*
X99999155Y39506781D01*
X100086630Y39613370D01*
X100193219Y39700845D01*
X100314825Y39765845D01*
X100446776Y39805872D01*
X100549610Y39816000D01*
X100618390Y39816000D01*
X100721224Y39805872D01*
X100721224Y39805872D01*
G37*
G36*
X-3389373Y41477701D02*
G01*
X-3309258Y41453398D01*
X-3229145Y41429097D01*
X-3229143Y41429096D01*
X-3081482Y41350169D01*
X-2952051Y41243949D01*
X-2845831Y41114518D01*
X-2766904Y40966857D01*
X-2766903Y40966855D01*
X-2742602Y40886742D01*
X-2718299Y40806627D01*
X-2701888Y40640000D01*
X-2718299Y40473373D01*
X-2742602Y40393258D01*
X-2764438Y40321270D01*
X-2766904Y40313143D01*
X-2845831Y40165482D01*
X-2952051Y40036051D01*
X-3081482Y39929831D01*
X-3229143Y39850904D01*
X-3229145Y39850903D01*
X-3309258Y39826602D01*
X-3389373Y39802299D01*
X-3514248Y39790000D01*
X-3597752Y39790000D01*
X-3722627Y39802299D01*
X-3802742Y39826602D01*
X-3882855Y39850903D01*
X-3882857Y39850904D01*
X-4030518Y39929831D01*
X-4159949Y40036051D01*
X-4266169Y40165482D01*
X-4345096Y40313143D01*
X-4347561Y40321270D01*
X-4369398Y40393258D01*
X-4393701Y40473373D01*
X-4410112Y40640000D01*
X-4393701Y40806627D01*
X-4369398Y40886742D01*
X-4345097Y40966855D01*
X-4345096Y40966857D01*
X-4266169Y41114518D01*
X-4159949Y41243949D01*
X-4030518Y41350169D01*
X-3882857Y41429096D01*
X-3882855Y41429097D01*
X-3802742Y41453398D01*
X-3722627Y41477701D01*
X-3597752Y41490000D01*
X-3514248Y41490000D01*
X-3389373Y41477701D01*
X-3389373Y41477701D01*
G37*
G36*
X-5246000Y39790000D02*
G01*
X-6946000Y39790000D01*
X-6946000Y41490000D01*
X-5246000Y41490000D01*
X-5246000Y39790000D01*
X-5246000Y39790000D01*
G37*
G36*
X-362157Y41120786D02*
G01*
X-347025Y41114518D01*
X-271161Y41083094D01*
X-229937Y41055549D01*
X-189270Y41028376D01*
X-119624Y40958730D01*
X-64905Y40876837D01*
X-27214Y40785843D01*
X-8000Y40689247D01*
X-8000Y40590753D01*
X-27214Y40494157D01*
X-27215Y40494155D01*
X-64906Y40403161D01*
X-119625Y40321269D01*
X-189269Y40251625D01*
X-271161Y40196906D01*
X-271162Y40196905D01*
X-271163Y40196905D01*
X-362157Y40159214D01*
X-458753Y40140000D01*
X-557247Y40140000D01*
X-653843Y40159214D01*
X-744837Y40196905D01*
X-744838Y40196905D01*
X-744839Y40196906D01*
X-826731Y40251625D01*
X-896375Y40321269D01*
X-951094Y40403161D01*
X-988785Y40494155D01*
X-988786Y40494157D01*
X-1008000Y40590753D01*
X-1008000Y40689247D01*
X-988786Y40785843D01*
X-951095Y40876837D01*
X-896376Y40958730D01*
X-826730Y41028376D01*
X-786063Y41055549D01*
X-744839Y41083094D01*
X-668975Y41114518D01*
X-653843Y41120786D01*
X-557247Y41140000D01*
X-458753Y41140000D01*
X-362157Y41120786D01*
X-362157Y41120786D01*
G37*
G36*
X97674000Y43296000D02*
G01*
X95874000Y43296000D01*
X95874000Y45096000D01*
X97674000Y45096000D01*
X97674000Y43296000D01*
X97674000Y43296000D01*
G37*
G36*
X93610000Y45048600D02*
G01*
X91810000Y45048600D01*
X91810000Y46848600D01*
X93610000Y46848600D01*
X93610000Y45048600D01*
X93610000Y45048600D01*
G37*
G36*
X81153982Y46621700D02*
G01*
X81281373Y46568933D01*
X81281982Y46568526D01*
X81396024Y46492326D01*
X81493526Y46394824D01*
X81493527Y46394822D01*
X81570133Y46280173D01*
X81622900Y46152782D01*
X81649800Y46017545D01*
X81649800Y45879655D01*
X81622900Y45744418D01*
X81570133Y45617027D01*
X81570132Y45617026D01*
X81493526Y45502376D01*
X81396024Y45404874D01*
X81338310Y45366311D01*
X81281373Y45328267D01*
X81153982Y45275500D01*
X81018745Y45248600D01*
X80880855Y45248600D01*
X80745618Y45275500D01*
X80618227Y45328267D01*
X80561290Y45366311D01*
X80503576Y45404874D01*
X80406074Y45502376D01*
X80329468Y45617026D01*
X80329467Y45617027D01*
X80276700Y45744418D01*
X80249800Y45879655D01*
X80249800Y46017545D01*
X80276700Y46152782D01*
X80329467Y46280173D01*
X80406073Y46394822D01*
X80406074Y46394824D01*
X80503576Y46492326D01*
X80617618Y46568526D01*
X80618227Y46568933D01*
X80745618Y46621700D01*
X80880855Y46648600D01*
X81018745Y46648600D01*
X81153982Y46621700D01*
X81153982Y46621700D01*
G37*
G36*
X84303582Y46697900D02*
G01*
X84430973Y46645133D01*
X84463099Y46623667D01*
X84545624Y46568526D01*
X84643126Y46471024D01*
X84643127Y46471022D01*
X84719733Y46356373D01*
X84772500Y46228982D01*
X84799400Y46093745D01*
X84799400Y45955855D01*
X84772500Y45820618D01*
X84719733Y45693227D01*
X84719732Y45693226D01*
X84643126Y45578576D01*
X84545624Y45481074D01*
X84487910Y45442511D01*
X84430973Y45404467D01*
X84303582Y45351700D01*
X84168345Y45324800D01*
X84030455Y45324800D01*
X83895218Y45351700D01*
X83767827Y45404467D01*
X83710890Y45442511D01*
X83653176Y45481074D01*
X83555674Y45578576D01*
X83479068Y45693226D01*
X83479067Y45693227D01*
X83426300Y45820618D01*
X83399400Y45955855D01*
X83399400Y46093745D01*
X83426300Y46228982D01*
X83479067Y46356373D01*
X83555673Y46471022D01*
X83555674Y46471024D01*
X83653176Y46568526D01*
X83735701Y46623667D01*
X83767827Y46645133D01*
X83895218Y46697900D01*
X84030455Y46724800D01*
X84168345Y46724800D01*
X84303582Y46697900D01*
X84303582Y46697900D01*
G37*
G36*
X97036520Y47601414D02*
G01*
X97200310Y47533570D01*
X97347717Y47435076D01*
X97473076Y47309717D01*
X97558264Y47182224D01*
X97571571Y47162308D01*
X97639414Y46998520D01*
X97674000Y46824644D01*
X97674000Y46647356D01*
X97658320Y46568527D01*
X97639414Y46473480D01*
X97571570Y46309690D01*
X97473076Y46162283D01*
X97347717Y46036924D01*
X97200310Y45938430D01*
X97200309Y45938429D01*
X97200308Y45938429D01*
X97036520Y45870586D01*
X96862644Y45836000D01*
X96685356Y45836000D01*
X96511480Y45870586D01*
X96347692Y45938429D01*
X96347691Y45938429D01*
X96347690Y45938430D01*
X96200283Y46036924D01*
X96074924Y46162283D01*
X95976430Y46309690D01*
X95908586Y46473480D01*
X95889680Y46568527D01*
X95874000Y46647356D01*
X95874000Y46824644D01*
X95908586Y46998520D01*
X95976429Y47162308D01*
X95989736Y47182224D01*
X96074924Y47309717D01*
X96200283Y47435076D01*
X96347690Y47533570D01*
X96511480Y47601414D01*
X96685356Y47636000D01*
X96862644Y47636000D01*
X97036520Y47601414D01*
X97036520Y47601414D01*
G37*
G36*
X100788182Y47409100D02*
G01*
X100915573Y47356333D01*
X100915574Y47356332D01*
X101030224Y47279726D01*
X101127726Y47182224D01*
X101127727Y47182222D01*
X101204333Y47067573D01*
X101257100Y46940182D01*
X101284000Y46804945D01*
X101284000Y46667055D01*
X101257100Y46531818D01*
X101204333Y46404427D01*
X101204332Y46404426D01*
X101127726Y46289776D01*
X101030224Y46192274D01*
X100985340Y46162284D01*
X100915573Y46115667D01*
X100788182Y46062900D01*
X100652945Y46036000D01*
X100515055Y46036000D01*
X100379818Y46062900D01*
X100252427Y46115667D01*
X100182660Y46162284D01*
X100137776Y46192274D01*
X100040274Y46289776D01*
X99963668Y46404426D01*
X99963667Y46404427D01*
X99910900Y46531818D01*
X99884000Y46667055D01*
X99884000Y46804945D01*
X99910900Y46940182D01*
X99963667Y47067573D01*
X100040273Y47182222D01*
X100040274Y47182224D01*
X100137776Y47279726D01*
X100252426Y47356332D01*
X100252427Y47356333D01*
X100379818Y47409100D01*
X100515055Y47436000D01*
X100652945Y47436000D01*
X100788182Y47409100D01*
X100788182Y47409100D01*
G37*
G36*
X54687182Y47917100D02*
G01*
X54814573Y47864333D01*
X54834189Y47851226D01*
X54929224Y47787726D01*
X55026726Y47690224D01*
X55028700Y47687269D01*
X55103333Y47575573D01*
X55156100Y47448182D01*
X55183000Y47312945D01*
X55183000Y47175055D01*
X55156100Y47039818D01*
X55103333Y46912427D01*
X55103332Y46912426D01*
X55026726Y46797776D01*
X54929224Y46700274D01*
X54885412Y46671000D01*
X54814573Y46623667D01*
X54687182Y46570900D01*
X54551945Y46544000D01*
X54414055Y46544000D01*
X54278818Y46570900D01*
X54151427Y46623667D01*
X54080588Y46671000D01*
X54036776Y46700274D01*
X53939274Y46797776D01*
X53862668Y46912426D01*
X53862667Y46912427D01*
X53809900Y47039818D01*
X53783000Y47175055D01*
X53783000Y47312945D01*
X53809900Y47448182D01*
X53862667Y47575573D01*
X53937300Y47687269D01*
X53939274Y47690224D01*
X54036776Y47787726D01*
X54131811Y47851226D01*
X54151427Y47864333D01*
X54278818Y47917100D01*
X54414055Y47944000D01*
X54551945Y47944000D01*
X54687182Y47917100D01*
X54687182Y47917100D01*
G37*
G36*
X49607182Y47917100D02*
G01*
X49734573Y47864333D01*
X49754189Y47851226D01*
X49849224Y47787726D01*
X49946726Y47690224D01*
X49948700Y47687269D01*
X50023333Y47575573D01*
X50076100Y47448182D01*
X50103000Y47312945D01*
X50103000Y47175055D01*
X50076100Y47039818D01*
X50023333Y46912427D01*
X50023332Y46912426D01*
X49946726Y46797776D01*
X49849224Y46700274D01*
X49805412Y46671000D01*
X49734573Y46623667D01*
X49607182Y46570900D01*
X49471945Y46544000D01*
X49334055Y46544000D01*
X49198818Y46570900D01*
X49071427Y46623667D01*
X49000588Y46671000D01*
X48956776Y46700274D01*
X48859274Y46797776D01*
X48782668Y46912426D01*
X48782667Y46912427D01*
X48729900Y47039818D01*
X48703000Y47175055D01*
X48703000Y47312945D01*
X48729900Y47448182D01*
X48782667Y47575573D01*
X48857300Y47687269D01*
X48859274Y47690224D01*
X48956776Y47787726D01*
X49051811Y47851226D01*
X49071427Y47864333D01*
X49198818Y47917100D01*
X49334055Y47944000D01*
X49471945Y47944000D01*
X49607182Y47917100D01*
X49607182Y47917100D01*
G37*
G36*
X44463682Y47980600D02*
G01*
X44591073Y47927833D01*
X44610689Y47914726D01*
X44705724Y47851226D01*
X44803226Y47753724D01*
X44803227Y47753722D01*
X44879833Y47639073D01*
X44932600Y47511682D01*
X44959500Y47376445D01*
X44959500Y47238555D01*
X44932600Y47103318D01*
X44879833Y46975927D01*
X44879832Y46975926D01*
X44803226Y46861276D01*
X44705724Y46763774D01*
X44648010Y46725211D01*
X44591073Y46687167D01*
X44463682Y46634400D01*
X44328445Y46607500D01*
X44190555Y46607500D01*
X44055318Y46634400D01*
X43927927Y46687167D01*
X43870990Y46725211D01*
X43813276Y46763774D01*
X43715774Y46861276D01*
X43639168Y46975926D01*
X43639167Y46975927D01*
X43586400Y47103318D01*
X43559500Y47238555D01*
X43559500Y47376445D01*
X43586400Y47511682D01*
X43639167Y47639073D01*
X43715773Y47753722D01*
X43715774Y47753724D01*
X43813276Y47851226D01*
X43908311Y47914726D01*
X43927927Y47927833D01*
X44055318Y47980600D01*
X44190555Y48007500D01*
X44328445Y48007500D01*
X44463682Y47980600D01*
X44463682Y47980600D01*
G37*
G36*
X59767182Y48044100D02*
G01*
X59894573Y47991333D01*
X59946324Y47956754D01*
X60009224Y47914726D01*
X60106726Y47817224D01*
X60106727Y47817222D01*
X60183333Y47702573D01*
X60236100Y47575182D01*
X60263000Y47439945D01*
X60263000Y47302055D01*
X60236100Y47166818D01*
X60183333Y47039427D01*
X60183332Y47039426D01*
X60106726Y46924776D01*
X60009224Y46827274D01*
X59975806Y46804945D01*
X59894573Y46750667D01*
X59767182Y46697900D01*
X59631945Y46671000D01*
X59494055Y46671000D01*
X59358818Y46697900D01*
X59231427Y46750667D01*
X59150194Y46804945D01*
X59116776Y46827274D01*
X59019274Y46924776D01*
X58942668Y47039426D01*
X58942667Y47039427D01*
X58889900Y47166818D01*
X58863000Y47302055D01*
X58863000Y47439945D01*
X58889900Y47575182D01*
X58942667Y47702573D01*
X59019273Y47817222D01*
X59019274Y47817224D01*
X59116776Y47914726D01*
X59179676Y47956754D01*
X59231427Y47991333D01*
X59358818Y48044100D01*
X59494055Y48071000D01*
X59631945Y48071000D01*
X59767182Y48044100D01*
X59767182Y48044100D01*
G37*
G36*
X-3468000Y47156000D02*
G01*
X-5168000Y47156000D01*
X-5168000Y48856000D01*
X-3468000Y48856000D01*
X-3468000Y47156000D01*
X-3468000Y47156000D01*
G37*
G36*
X-362157Y48486786D02*
G01*
X-362154Y48486785D01*
X-362155Y48486785D01*
X-271161Y48449094D01*
X-229937Y48421549D01*
X-189270Y48394376D01*
X-119624Y48324730D01*
X-64905Y48242837D01*
X-27214Y48151843D01*
X-8000Y48055247D01*
X-8000Y47956753D01*
X-27214Y47860157D01*
X-64905Y47769163D01*
X-117650Y47690224D01*
X-119625Y47687269D01*
X-189269Y47617625D01*
X-271161Y47562906D01*
X-271162Y47562905D01*
X-271163Y47562905D01*
X-362157Y47525214D01*
X-458753Y47506000D01*
X-557247Y47506000D01*
X-653843Y47525214D01*
X-744837Y47562905D01*
X-744838Y47562905D01*
X-744839Y47562906D01*
X-826731Y47617625D01*
X-896375Y47687269D01*
X-898349Y47690224D01*
X-951095Y47769163D01*
X-988786Y47860157D01*
X-1008000Y47956753D01*
X-1008000Y48055247D01*
X-988786Y48151843D01*
X-951095Y48242837D01*
X-896376Y48324730D01*
X-826730Y48394376D01*
X-786063Y48421549D01*
X-744839Y48449094D01*
X-653845Y48486785D01*
X-653846Y48486785D01*
X-653843Y48486786D01*
X-557247Y48506000D01*
X-458753Y48506000D01*
X-362157Y48486786D01*
X-362157Y48486786D01*
G37*
G36*
X92972520Y49354014D02*
G01*
X93136310Y49286170D01*
X93283717Y49187676D01*
X93409076Y49062317D01*
X93507570Y48914910D01*
X93507571Y48914908D01*
X93575414Y48751120D01*
X93610000Y48577244D01*
X93610000Y48399956D01*
X93578748Y48242839D01*
X93575414Y48226080D01*
X93507570Y48062290D01*
X93409076Y47914883D01*
X93283717Y47789524D01*
X93136310Y47691030D01*
X93136309Y47691029D01*
X93136308Y47691029D01*
X92972520Y47623186D01*
X92798644Y47588600D01*
X92621356Y47588600D01*
X92447480Y47623186D01*
X92283692Y47691029D01*
X92283691Y47691029D01*
X92283690Y47691030D01*
X92136283Y47789524D01*
X92010924Y47914883D01*
X91912430Y48062290D01*
X91844586Y48226080D01*
X91841252Y48242839D01*
X91810000Y48399956D01*
X91810000Y48577244D01*
X91844586Y48751120D01*
X91912429Y48914908D01*
X91912430Y48914910D01*
X92010924Y49062317D01*
X92136283Y49187676D01*
X92283690Y49286170D01*
X92447480Y49354014D01*
X92621356Y49388600D01*
X92798644Y49388600D01*
X92972520Y49354014D01*
X92972520Y49354014D01*
G37*
G36*
X96936834Y50301668D02*
G01*
X97098397Y50269532D01*
X97275836Y50196034D01*
X97435527Y50089332D01*
X97571332Y49953527D01*
X97678034Y49793836D01*
X97751532Y49616397D01*
X97789000Y49428029D01*
X97789000Y49235971D01*
X97751532Y49047603D01*
X97678034Y48870164D01*
X97571332Y48710473D01*
X97435527Y48574668D01*
X97275836Y48467966D01*
X97098397Y48394468D01*
X96936834Y48362332D01*
X96910030Y48357000D01*
X96717970Y48357000D01*
X96691166Y48362332D01*
X96529603Y48394468D01*
X96352164Y48467966D01*
X96192473Y48574668D01*
X96056668Y48710473D01*
X95949966Y48870164D01*
X95876468Y49047603D01*
X95839000Y49235971D01*
X95839000Y49428029D01*
X95876468Y49616397D01*
X95949966Y49793836D01*
X96056668Y49953527D01*
X96192473Y50089332D01*
X96352164Y50196034D01*
X96529603Y50269532D01*
X96691166Y50301668D01*
X96717970Y50307000D01*
X96910030Y50307000D01*
X96936834Y50301668D01*
X96936834Y50301668D01*
G37*
G36*
X-4151373Y51383701D02*
G01*
X-4071258Y51359399D01*
X-3991145Y51335097D01*
X-3991143Y51335096D01*
X-3843482Y51256169D01*
X-3714051Y51149949D01*
X-3607831Y51020518D01*
X-3550976Y50914151D01*
X-3528903Y50872855D01*
X-3521915Y50849818D01*
X-3480299Y50712627D01*
X-3463888Y50546000D01*
X-3480299Y50379373D01*
X-3502253Y50307000D01*
X-3526438Y50227270D01*
X-3528904Y50219143D01*
X-3607831Y50071482D01*
X-3714051Y49942051D01*
X-3843482Y49835831D01*
X-3991143Y49756904D01*
X-3991145Y49756903D01*
X-4071258Y49732601D01*
X-4151373Y49708299D01*
X-4276248Y49696000D01*
X-4359752Y49696000D01*
X-4484627Y49708299D01*
X-4564742Y49732601D01*
X-4644855Y49756903D01*
X-4644857Y49756904D01*
X-4792518Y49835831D01*
X-4921949Y49942051D01*
X-5028169Y50071482D01*
X-5107096Y50219143D01*
X-5109561Y50227270D01*
X-5133747Y50307000D01*
X-5155701Y50379373D01*
X-5172112Y50546000D01*
X-5155701Y50712627D01*
X-5114085Y50849818D01*
X-5107097Y50872855D01*
X-5085024Y50914151D01*
X-5028169Y51020518D01*
X-4921949Y51149949D01*
X-4792518Y51256169D01*
X-4644857Y51335096D01*
X-4644855Y51335097D01*
X-4564742Y51359399D01*
X-4484627Y51383701D01*
X-4359752Y51396000D01*
X-4276248Y51396000D01*
X-4151373Y51383701D01*
X-4151373Y51383701D01*
G37*
G36*
X99461098Y51296512D02*
G01*
X99533934Y51282024D01*
X99671153Y51225186D01*
X99794647Y51142670D01*
X99899670Y51037647D01*
X99982186Y50914153D01*
X100032020Y50793844D01*
X100039024Y50776933D01*
X100068000Y50631263D01*
X100068000Y50482737D01*
X100039024Y50337067D01*
X99990180Y50219145D01*
X99982186Y50199847D01*
X99899670Y50076353D01*
X99794647Y49971330D01*
X99671153Y49888814D01*
X99533934Y49831976D01*
X99461098Y49817488D01*
X99388263Y49803000D01*
X99239737Y49803000D01*
X99166902Y49817488D01*
X99094066Y49831976D01*
X98956847Y49888814D01*
X98833353Y49971330D01*
X98728330Y50076353D01*
X98645814Y50199847D01*
X98637821Y50219145D01*
X98588976Y50337067D01*
X98560000Y50482737D01*
X98560000Y50631263D01*
X98588976Y50776933D01*
X98595981Y50793844D01*
X98645814Y50914153D01*
X98728330Y51037647D01*
X98833353Y51142670D01*
X98956847Y51225186D01*
X99094066Y51282024D01*
X99166902Y51296512D01*
X99239737Y51311000D01*
X99388263Y51311000D01*
X99461098Y51296512D01*
X99461098Y51296512D01*
G37*
G36*
X15334222Y54791427D02*
G01*
X15732745Y54626353D01*
X15789194Y54602971D01*
X15952834Y54493630D01*
X16198656Y54329377D01*
X16546877Y53981156D01*
X16820472Y53571692D01*
X17008927Y53116722D01*
X17105000Y52633730D01*
X17105000Y52141270D01*
X17008927Y51658278D01*
X16829534Y51225186D01*
X16820471Y51203306D01*
X16784819Y51149949D01*
X16546877Y50793844D01*
X16198656Y50445623D01*
X16076690Y50364128D01*
X15789194Y50172029D01*
X15789193Y50172028D01*
X15789192Y50172028D01*
X15334222Y49983573D01*
X14851230Y49887500D01*
X14358770Y49887500D01*
X13875778Y49983573D01*
X13420808Y50172028D01*
X13420807Y50172028D01*
X13420806Y50172029D01*
X13133310Y50364128D01*
X13011344Y50445623D01*
X12663123Y50793844D01*
X12425181Y51149949D01*
X12389529Y51203306D01*
X12380466Y51225186D01*
X12201073Y51658278D01*
X12105000Y52141270D01*
X12105000Y52633730D01*
X12201073Y53116722D01*
X12389528Y53571692D01*
X12663123Y53981156D01*
X13011344Y54329377D01*
X13257166Y54493630D01*
X13420806Y54602971D01*
X13477255Y54626353D01*
X13875778Y54791427D01*
X14358770Y54887500D01*
X14851230Y54887500D01*
X15334222Y54791427D01*
X15334222Y54791427D01*
G37*
G36*
X36416222Y54791427D02*
G01*
X36814745Y54626353D01*
X36871194Y54602971D01*
X37034834Y54493630D01*
X37280656Y54329377D01*
X37628877Y53981156D01*
X37902472Y53571692D01*
X38090927Y53116722D01*
X38187000Y52633730D01*
X38187000Y52141270D01*
X38090927Y51658278D01*
X37911534Y51225186D01*
X37902471Y51203306D01*
X37866819Y51149949D01*
X37628877Y50793844D01*
X37280656Y50445623D01*
X37158690Y50364128D01*
X36871194Y50172029D01*
X36871193Y50172028D01*
X36871192Y50172028D01*
X36416222Y49983573D01*
X35933230Y49887500D01*
X35440770Y49887500D01*
X34957778Y49983573D01*
X34502808Y50172028D01*
X34502807Y50172028D01*
X34502806Y50172029D01*
X34215310Y50364128D01*
X34093344Y50445623D01*
X33745123Y50793844D01*
X33507181Y51149949D01*
X33471529Y51203306D01*
X33462466Y51225186D01*
X33283073Y51658278D01*
X33187000Y52141270D01*
X33187000Y52633730D01*
X33283073Y53116722D01*
X33471528Y53571692D01*
X33745123Y53981156D01*
X34093344Y54329377D01*
X34339166Y54493630D01*
X34502806Y54602971D01*
X34559255Y54626353D01*
X34957778Y54791427D01*
X35440770Y54887500D01*
X35933230Y54887500D01*
X36416222Y54791427D01*
X36416222Y54791427D01*
G37*
G36*
X86200222Y54791427D02*
G01*
X86598745Y54626353D01*
X86655194Y54602971D01*
X86818834Y54493630D01*
X87064656Y54329377D01*
X87412877Y53981156D01*
X87686472Y53571692D01*
X87874927Y53116722D01*
X87971000Y52633730D01*
X87971000Y52141270D01*
X87874927Y51658278D01*
X87695534Y51225186D01*
X87686471Y51203306D01*
X87650819Y51149949D01*
X87412877Y50793844D01*
X87064656Y50445623D01*
X86942690Y50364128D01*
X86655194Y50172029D01*
X86655193Y50172028D01*
X86655192Y50172028D01*
X86200222Y49983573D01*
X85717230Y49887500D01*
X85224770Y49887500D01*
X84741778Y49983573D01*
X84286808Y50172028D01*
X84286807Y50172028D01*
X84286806Y50172029D01*
X83999310Y50364128D01*
X83877344Y50445623D01*
X83529123Y50793844D01*
X83291181Y51149949D01*
X83255529Y51203306D01*
X83246466Y51225186D01*
X83067073Y51658278D01*
X82971000Y52141270D01*
X82971000Y52633730D01*
X83067073Y53116722D01*
X83255528Y53571692D01*
X83529123Y53981156D01*
X83877344Y54329377D01*
X84123166Y54493630D01*
X84286806Y54602971D01*
X84343255Y54626353D01*
X84741778Y54791427D01*
X85224770Y54887500D01*
X85717230Y54887500D01*
X86200222Y54791427D01*
X86200222Y54791427D01*
G37*
G36*
X-362157Y51026786D02*
G01*
X-347025Y51020518D01*
X-271161Y50989094D01*
X-189269Y50934375D01*
X-119625Y50864731D01*
X-72259Y50793844D01*
X-64905Y50782837D01*
X-27214Y50691843D01*
X-8000Y50595247D01*
X-8000Y50496753D01*
X-27214Y50400157D01*
X-27215Y50400155D01*
X-64906Y50309161D01*
X-119625Y50227269D01*
X-189269Y50157625D01*
X-271161Y50102906D01*
X-271162Y50102905D01*
X-271163Y50102905D01*
X-362157Y50065214D01*
X-458753Y50046000D01*
X-557247Y50046000D01*
X-653843Y50065214D01*
X-744837Y50102905D01*
X-744838Y50102905D01*
X-744839Y50102906D01*
X-826731Y50157625D01*
X-896375Y50227269D01*
X-951094Y50309161D01*
X-988785Y50400155D01*
X-988786Y50400157D01*
X-1008000Y50496753D01*
X-1008000Y50595247D01*
X-988786Y50691843D01*
X-951095Y50782837D01*
X-943740Y50793844D01*
X-896375Y50864731D01*
X-826731Y50934375D01*
X-744839Y50989094D01*
X-668975Y51020518D01*
X-653843Y51026786D01*
X-557247Y51046000D01*
X-458753Y51046000D01*
X-362157Y51026786D01*
X-362157Y51026786D01*
G37*
G36*
X93610000Y50103200D02*
G01*
X91810000Y50103200D01*
X91810000Y51903200D01*
X93610000Y51903200D01*
X93610000Y50103200D01*
X93610000Y50103200D01*
G37*
G36*
X66812224Y51743872D02*
G01*
X66944175Y51703845D01*
X67065781Y51638845D01*
X67172370Y51551370D01*
X67259845Y51444781D01*
X67324845Y51323175D01*
X67364872Y51191224D01*
X67378387Y51054000D01*
X67364872Y50916776D01*
X67324845Y50784825D01*
X67259845Y50663219D01*
X67172370Y50556630D01*
X67065781Y50469155D01*
X66944175Y50404155D01*
X66812224Y50364128D01*
X66709390Y50354000D01*
X66640610Y50354000D01*
X66537776Y50364128D01*
X66405825Y50404155D01*
X66284219Y50469155D01*
X66177630Y50556630D01*
X66090155Y50663219D01*
X66025155Y50784825D01*
X65985128Y50916776D01*
X65971613Y51054000D01*
X65985128Y51191224D01*
X66025155Y51323175D01*
X66090155Y51444781D01*
X66177630Y51551370D01*
X66284219Y51638845D01*
X66405825Y51703845D01*
X66537776Y51743872D01*
X66640610Y51754000D01*
X66709390Y51754000D01*
X66812224Y51743872D01*
X66812224Y51743872D01*
G37*
G36*
X74499182Y51727100D02*
G01*
X74626573Y51674333D01*
X74679685Y51638845D01*
X74741224Y51597726D01*
X74838726Y51500224D01*
X74838727Y51500222D01*
X74915333Y51385573D01*
X74968100Y51258182D01*
X74995000Y51122945D01*
X74995000Y50985055D01*
X74968100Y50849818D01*
X74915333Y50722427D01*
X74915332Y50722426D01*
X74838726Y50607776D01*
X74741224Y50510274D01*
X74683510Y50471711D01*
X74626573Y50433667D01*
X74499182Y50380900D01*
X74363945Y50354000D01*
X74226055Y50354000D01*
X74090818Y50380900D01*
X73963427Y50433667D01*
X73906490Y50471711D01*
X73848776Y50510274D01*
X73751274Y50607776D01*
X73674668Y50722426D01*
X73674667Y50722427D01*
X73621900Y50849818D01*
X73595000Y50985055D01*
X73595000Y51122945D01*
X73621900Y51258182D01*
X73674667Y51385573D01*
X73751273Y51500222D01*
X73751274Y51500224D01*
X73848776Y51597726D01*
X73910315Y51638845D01*
X73963427Y51674333D01*
X74090818Y51727100D01*
X74226055Y51754000D01*
X74363945Y51754000D01*
X74499182Y51727100D01*
X74499182Y51727100D01*
G37*
G36*
X22684471Y53374141D02*
G01*
X22762827Y53366424D01*
X22913628Y53320679D01*
X22913630Y53320678D01*
X23052605Y53246394D01*
X23174422Y53146422D01*
X23274394Y53024605D01*
X23330642Y52919373D01*
X23348679Y52885628D01*
X23394424Y52734827D01*
X23409870Y52578000D01*
X23394424Y52421173D01*
X23356727Y52296904D01*
X23348678Y52270370D01*
X23274394Y52131395D01*
X23174422Y52009578D01*
X23052605Y51909606D01*
X22913630Y51835322D01*
X22913628Y51835321D01*
X22762827Y51789576D01*
X22684471Y51781859D01*
X22645294Y51778000D01*
X22566706Y51778000D01*
X22527529Y51781859D01*
X22449173Y51789576D01*
X22298372Y51835321D01*
X22298370Y51835322D01*
X22159395Y51909606D01*
X22037578Y52009578D01*
X21937606Y52131395D01*
X21863322Y52270370D01*
X21855273Y52296904D01*
X21817576Y52421173D01*
X21802130Y52578000D01*
X21817576Y52734827D01*
X21863321Y52885628D01*
X21881358Y52919373D01*
X21937606Y53024605D01*
X22037578Y53146422D01*
X22159395Y53246394D01*
X22298370Y53320678D01*
X22298372Y53320679D01*
X22449173Y53366424D01*
X22527529Y53374141D01*
X22566706Y53378000D01*
X22645294Y53378000D01*
X22684471Y53374141D01*
X22684471Y53374141D01*
G37*
G36*
X25224471Y53374141D02*
G01*
X25302827Y53366424D01*
X25453628Y53320679D01*
X25453630Y53320678D01*
X25592605Y53246394D01*
X25714422Y53146422D01*
X25814394Y53024605D01*
X25870642Y52919373D01*
X25888679Y52885628D01*
X25934424Y52734827D01*
X25949870Y52578000D01*
X25934424Y52421173D01*
X25896727Y52296904D01*
X25888678Y52270370D01*
X25814394Y52131395D01*
X25714422Y52009578D01*
X25592605Y51909606D01*
X25453630Y51835322D01*
X25453628Y51835321D01*
X25302827Y51789576D01*
X25224471Y51781859D01*
X25185294Y51778000D01*
X25106706Y51778000D01*
X25067529Y51781859D01*
X24989173Y51789576D01*
X24838372Y51835321D01*
X24838370Y51835322D01*
X24699395Y51909606D01*
X24577578Y52009578D01*
X24477606Y52131395D01*
X24403322Y52270370D01*
X24395273Y52296904D01*
X24357576Y52421173D01*
X24342130Y52578000D01*
X24357576Y52734827D01*
X24403321Y52885628D01*
X24421358Y52919373D01*
X24477606Y53024605D01*
X24577578Y53146422D01*
X24699395Y53246394D01*
X24838370Y53320678D01*
X24838372Y53320679D01*
X24989173Y53366424D01*
X25067529Y53374141D01*
X25106706Y53378000D01*
X25185294Y53378000D01*
X25224471Y53374141D01*
X25224471Y53374141D01*
G37*
G36*
X27764471Y53374141D02*
G01*
X27842827Y53366424D01*
X27993628Y53320679D01*
X27993630Y53320678D01*
X28132605Y53246394D01*
X28254422Y53146422D01*
X28354394Y53024605D01*
X28410642Y52919373D01*
X28428679Y52885628D01*
X28474424Y52734827D01*
X28489870Y52578000D01*
X28474424Y52421173D01*
X28436727Y52296904D01*
X28428678Y52270370D01*
X28354394Y52131395D01*
X28254422Y52009578D01*
X28132605Y51909606D01*
X27993630Y51835322D01*
X27993628Y51835321D01*
X27842827Y51789576D01*
X27764471Y51781859D01*
X27725294Y51778000D01*
X27646706Y51778000D01*
X27607529Y51781859D01*
X27529173Y51789576D01*
X27378372Y51835321D01*
X27378370Y51835322D01*
X27239395Y51909606D01*
X27117578Y52009578D01*
X27017606Y52131395D01*
X26943322Y52270370D01*
X26935273Y52296904D01*
X26897576Y52421173D01*
X26882130Y52578000D01*
X26897576Y52734827D01*
X26943321Y52885628D01*
X26961358Y52919373D01*
X27017606Y53024605D01*
X27117578Y53146422D01*
X27239395Y53246394D01*
X27378370Y53320678D01*
X27378372Y53320679D01*
X27529173Y53366424D01*
X27607529Y53374141D01*
X27646706Y53378000D01*
X27725294Y53378000D01*
X27764471Y53374141D01*
X27764471Y53374141D01*
G37*
G36*
X31026000Y51778000D02*
G01*
X29426000Y51778000D01*
X29426000Y53378000D01*
X31026000Y53378000D01*
X31026000Y51778000D01*
X31026000Y51778000D01*
G37*
G36*
X20144471Y53374141D02*
G01*
X20222827Y53366424D01*
X20373628Y53320679D01*
X20373630Y53320678D01*
X20512605Y53246394D01*
X20634422Y53146422D01*
X20734394Y53024605D01*
X20790642Y52919373D01*
X20808679Y52885628D01*
X20854424Y52734827D01*
X20869870Y52578000D01*
X20854424Y52421173D01*
X20816727Y52296904D01*
X20808678Y52270370D01*
X20734394Y52131395D01*
X20634422Y52009578D01*
X20512605Y51909606D01*
X20373630Y51835322D01*
X20373628Y51835321D01*
X20222827Y51789576D01*
X20144471Y51781859D01*
X20105294Y51778000D01*
X20026706Y51778000D01*
X19987529Y51781859D01*
X19909173Y51789576D01*
X19758372Y51835321D01*
X19758370Y51835322D01*
X19619395Y51909606D01*
X19497578Y52009578D01*
X19397606Y52131395D01*
X19323322Y52270370D01*
X19315273Y52296904D01*
X19277576Y52421173D01*
X19262130Y52578000D01*
X19277576Y52734827D01*
X19323321Y52885628D01*
X19341358Y52919373D01*
X19397606Y53024605D01*
X19497578Y53146422D01*
X19619395Y53246394D01*
X19758370Y53320678D01*
X19758372Y53320679D01*
X19909173Y53366424D01*
X19987529Y53374141D01*
X20026706Y53378000D01*
X20105294Y53378000D01*
X20144471Y53374141D01*
X20144471Y53374141D01*
G37*
G36*
X-4151373Y53923701D02*
G01*
X-4071258Y53899398D01*
X-3991145Y53875097D01*
X-3991143Y53875096D01*
X-3843482Y53796169D01*
X-3714051Y53689949D01*
X-3607831Y53560518D01*
X-3551194Y53454558D01*
X-3528903Y53412855D01*
X-3518330Y53378000D01*
X-3480299Y53252627D01*
X-3463888Y53086000D01*
X-3480299Y52919373D01*
X-3503125Y52844124D01*
X-3526438Y52767270D01*
X-3528904Y52759143D01*
X-3607831Y52611482D01*
X-3714051Y52482051D01*
X-3843482Y52375831D01*
X-3991143Y52296904D01*
X-3991145Y52296903D01*
X-4071258Y52272601D01*
X-4151373Y52248299D01*
X-4276248Y52236000D01*
X-4359752Y52236000D01*
X-4484627Y52248299D01*
X-4564742Y52272602D01*
X-4644855Y52296903D01*
X-4644857Y52296904D01*
X-4792518Y52375831D01*
X-4921949Y52482051D01*
X-5028169Y52611482D01*
X-5107096Y52759143D01*
X-5109561Y52767270D01*
X-5132875Y52844124D01*
X-5155701Y52919373D01*
X-5172112Y53086000D01*
X-5155701Y53252627D01*
X-5117670Y53378000D01*
X-5107097Y53412855D01*
X-5084806Y53454558D01*
X-5028169Y53560518D01*
X-4921949Y53689949D01*
X-4792518Y53796169D01*
X-4644857Y53875096D01*
X-4644855Y53875097D01*
X-4564742Y53899398D01*
X-4484627Y53923701D01*
X-4359752Y53936000D01*
X-4276248Y53936000D01*
X-4151373Y53923701D01*
X-4151373Y53923701D01*
G37*
G36*
X-362157Y53566786D02*
G01*
X-347025Y53560518D01*
X-271161Y53529094D01*
X-229937Y53501549D01*
X-189270Y53474376D01*
X-119624Y53404730D01*
X-64905Y53322837D01*
X-27214Y53231843D01*
X-8000Y53135247D01*
X-8000Y53036753D01*
X-27214Y52940157D01*
X-27215Y52940155D01*
X-64906Y52849161D01*
X-119625Y52767269D01*
X-189269Y52697625D01*
X-271161Y52642906D01*
X-271162Y52642905D01*
X-271163Y52642905D01*
X-362157Y52605214D01*
X-458753Y52586000D01*
X-557247Y52586000D01*
X-653843Y52605214D01*
X-744837Y52642905D01*
X-744838Y52642905D01*
X-744839Y52642906D01*
X-826731Y52697625D01*
X-896375Y52767269D01*
X-951094Y52849161D01*
X-988785Y52940155D01*
X-988786Y52940157D01*
X-1008000Y53036753D01*
X-1008000Y53135247D01*
X-988786Y53231843D01*
X-951095Y53322837D01*
X-896376Y53404730D01*
X-826730Y53474376D01*
X-786063Y53501549D01*
X-744839Y53529094D01*
X-668975Y53560518D01*
X-653843Y53566786D01*
X-557247Y53586000D01*
X-458753Y53586000D01*
X-362157Y53566786D01*
X-362157Y53566786D01*
G37*
G36*
X92972520Y54408614D02*
G01*
X93131760Y54342655D01*
X93136310Y54340770D01*
X93283717Y54242276D01*
X93409076Y54116917D01*
X93499788Y53981156D01*
X93507571Y53969508D01*
X93575414Y53805720D01*
X93610000Y53631844D01*
X93610000Y53454556D01*
X93583370Y53320679D01*
X93575414Y53280680D01*
X93507570Y53116890D01*
X93409076Y52969483D01*
X93283717Y52844124D01*
X93136310Y52745630D01*
X93136309Y52745629D01*
X93136308Y52745629D01*
X92972520Y52677786D01*
X92798644Y52643200D01*
X92621356Y52643200D01*
X92447480Y52677786D01*
X92283692Y52745629D01*
X92283691Y52745629D01*
X92283690Y52745630D01*
X92136283Y52844124D01*
X92010924Y52969483D01*
X91912430Y53116890D01*
X91844586Y53280680D01*
X91836630Y53320679D01*
X91810000Y53454556D01*
X91810000Y53631844D01*
X91844586Y53805720D01*
X91912429Y53969508D01*
X91920212Y53981156D01*
X92010924Y54116917D01*
X92136283Y54242276D01*
X92283690Y54340770D01*
X92288241Y54342655D01*
X92447480Y54408614D01*
X92621356Y54443200D01*
X92798644Y54443200D01*
X92972520Y54408614D01*
X92972520Y54408614D01*
G37*
G36*
X49540224Y55553872D02*
G01*
X49672175Y55513845D01*
X49793781Y55448845D01*
X49900370Y55361370D01*
X49987845Y55254781D01*
X50052845Y55133175D01*
X50092872Y55001224D01*
X50106387Y54864000D01*
X50092872Y54726776D01*
X50052845Y54594825D01*
X49987845Y54473219D01*
X49900370Y54366630D01*
X49793781Y54279155D01*
X49672175Y54214155D01*
X49540224Y54174128D01*
X49437390Y54164000D01*
X49368610Y54164000D01*
X49265776Y54174128D01*
X49133825Y54214155D01*
X49012219Y54279155D01*
X48905630Y54366630D01*
X48818155Y54473219D01*
X48753155Y54594825D01*
X48713128Y54726776D01*
X48699613Y54864000D01*
X48713128Y55001224D01*
X48753155Y55133175D01*
X48818155Y55254781D01*
X48905630Y55361370D01*
X49012219Y55448845D01*
X49133825Y55513845D01*
X49265776Y55553872D01*
X49368610Y55564000D01*
X49437390Y55564000D01*
X49540224Y55553872D01*
X49540224Y55553872D01*
G37*
G36*
X54620224Y55553872D02*
G01*
X54752175Y55513845D01*
X54873781Y55448845D01*
X54980370Y55361370D01*
X55067845Y55254781D01*
X55132845Y55133175D01*
X55172872Y55001224D01*
X55186387Y54864000D01*
X55172872Y54726776D01*
X55132845Y54594825D01*
X55067845Y54473219D01*
X54980370Y54366630D01*
X54873781Y54279155D01*
X54752175Y54214155D01*
X54620224Y54174128D01*
X54517390Y54164000D01*
X54448610Y54164000D01*
X54345776Y54174128D01*
X54213825Y54214155D01*
X54092219Y54279155D01*
X53985630Y54366630D01*
X53898155Y54473219D01*
X53833155Y54594825D01*
X53793128Y54726776D01*
X53779613Y54864000D01*
X53793128Y55001224D01*
X53833155Y55133175D01*
X53898155Y55254781D01*
X53985630Y55361370D01*
X54092219Y55448845D01*
X54213825Y55513845D01*
X54345776Y55553872D01*
X54448610Y55564000D01*
X54517390Y55564000D01*
X54620224Y55553872D01*
X54620224Y55553872D01*
G37*
G36*
X44396724Y55617372D02*
G01*
X44528675Y55577345D01*
X44650281Y55512345D01*
X44756870Y55424870D01*
X44844345Y55318281D01*
X44909345Y55196675D01*
X44949372Y55064724D01*
X44962887Y54927500D01*
X44949372Y54790276D01*
X44909345Y54658325D01*
X44844345Y54536719D01*
X44756870Y54430130D01*
X44650281Y54342655D01*
X44528675Y54277655D01*
X44396724Y54237628D01*
X44293890Y54227500D01*
X44225110Y54227500D01*
X44122276Y54237628D01*
X43990325Y54277655D01*
X43868719Y54342655D01*
X43762130Y54430130D01*
X43674655Y54536719D01*
X43609655Y54658325D01*
X43569628Y54790276D01*
X43556113Y54927500D01*
X43569628Y55064724D01*
X43609655Y55196675D01*
X43674655Y55318281D01*
X43762130Y55424870D01*
X43868719Y55512345D01*
X43990325Y55577345D01*
X44122276Y55617372D01*
X44225110Y55627500D01*
X44293890Y55627500D01*
X44396724Y55617372D01*
X44396724Y55617372D01*
G37*
G36*
X59700224Y55680872D02*
G01*
X59832175Y55640845D01*
X59953781Y55575845D01*
X60060370Y55488370D01*
X60147845Y55381781D01*
X60212845Y55260175D01*
X60252872Y55128224D01*
X60266387Y54991000D01*
X60252872Y54853776D01*
X60212845Y54721825D01*
X60147845Y54600219D01*
X60060370Y54493630D01*
X59953781Y54406155D01*
X59832175Y54341155D01*
X59700224Y54301128D01*
X59597390Y54291000D01*
X59528610Y54291000D01*
X59425776Y54301128D01*
X59293825Y54341155D01*
X59172219Y54406155D01*
X59065630Y54493630D01*
X58978155Y54600219D01*
X58913155Y54721825D01*
X58873128Y54853776D01*
X58859613Y54991000D01*
X58873128Y55128224D01*
X58913155Y55260175D01*
X58978155Y55381781D01*
X59065630Y55488370D01*
X59172219Y55575845D01*
X59293825Y55640845D01*
X59425776Y55680872D01*
X59528610Y55691000D01*
X59597390Y55691000D01*
X59700224Y55680872D01*
X59700224Y55680872D01*
G37*
G36*
X66812224Y55680872D02*
G01*
X66944175Y55640845D01*
X67065781Y55575845D01*
X67172370Y55488370D01*
X67259845Y55381781D01*
X67324845Y55260175D01*
X67364872Y55128224D01*
X67378387Y54991000D01*
X67364872Y54853776D01*
X67324845Y54721825D01*
X67259845Y54600219D01*
X67172370Y54493630D01*
X67065781Y54406155D01*
X66944175Y54341155D01*
X66812224Y54301128D01*
X66709390Y54291000D01*
X66640610Y54291000D01*
X66537776Y54301128D01*
X66405825Y54341155D01*
X66284219Y54406155D01*
X66177630Y54493630D01*
X66090155Y54600219D01*
X66025155Y54721825D01*
X65985128Y54853776D01*
X65971613Y54991000D01*
X65985128Y55128224D01*
X66025155Y55260175D01*
X66090155Y55381781D01*
X66177630Y55488370D01*
X66284219Y55575845D01*
X66405825Y55640845D01*
X66537776Y55680872D01*
X66640610Y55691000D01*
X66709390Y55691000D01*
X66812224Y55680872D01*
X66812224Y55680872D01*
G37*
G36*
X74499182Y55664100D02*
G01*
X74626573Y55611333D01*
X74677440Y55577345D01*
X74741224Y55534726D01*
X74838726Y55437224D01*
X74846981Y55424869D01*
X74915333Y55322573D01*
X74968100Y55195182D01*
X74995000Y55059945D01*
X74995000Y54922055D01*
X74968100Y54786818D01*
X74915333Y54659427D01*
X74914595Y54658323D01*
X74838726Y54544776D01*
X74741224Y54447274D01*
X74728561Y54438813D01*
X74626573Y54370667D01*
X74499182Y54317900D01*
X74363945Y54291000D01*
X74226055Y54291000D01*
X74090818Y54317900D01*
X73963427Y54370667D01*
X73861439Y54438813D01*
X73848776Y54447274D01*
X73751274Y54544776D01*
X73675405Y54658323D01*
X73674667Y54659427D01*
X73621900Y54786818D01*
X73595000Y54922055D01*
X73595000Y55059945D01*
X73621900Y55195182D01*
X73674667Y55322573D01*
X73743019Y55424869D01*
X73751274Y55437224D01*
X73848776Y55534726D01*
X73912560Y55577345D01*
X73963427Y55611333D01*
X74090818Y55664100D01*
X74226055Y55691000D01*
X74363945Y55691000D01*
X74499182Y55664100D01*
X74499182Y55664100D01*
G37*
G36*
X99461098Y55846512D02*
G01*
X99533934Y55832024D01*
X99671153Y55775186D01*
X99794647Y55692670D01*
X99899670Y55587647D01*
X99982186Y55464153D01*
X100039024Y55326934D01*
X100044552Y55299143D01*
X100068000Y55181263D01*
X100068000Y55032737D01*
X100061731Y55001222D01*
X100039024Y54887066D01*
X99982186Y54749847D01*
X99899670Y54626353D01*
X99794647Y54521330D01*
X99671153Y54438814D01*
X99671152Y54438813D01*
X99671151Y54438813D01*
X99650188Y54430130D01*
X99533934Y54381976D01*
X99477085Y54370668D01*
X99388263Y54353000D01*
X99239737Y54353000D01*
X99150915Y54370668D01*
X99094066Y54381976D01*
X98977812Y54430130D01*
X98956849Y54438813D01*
X98956848Y54438813D01*
X98956847Y54438814D01*
X98833353Y54521330D01*
X98728330Y54626353D01*
X98645814Y54749847D01*
X98588976Y54887066D01*
X98566269Y55001222D01*
X98560000Y55032737D01*
X98560000Y55181263D01*
X98583448Y55299143D01*
X98588976Y55326934D01*
X98645814Y55464153D01*
X98728330Y55587647D01*
X98833353Y55692670D01*
X98956847Y55775186D01*
X99094066Y55832024D01*
X99166902Y55846512D01*
X99239737Y55861000D01*
X99388263Y55861000D01*
X99461098Y55846512D01*
X99461098Y55846512D01*
G37*
G36*
X-4151373Y56463701D02*
G01*
X-4071258Y56439399D01*
X-3991145Y56415097D01*
X-3991143Y56415096D01*
X-3843482Y56336169D01*
X-3714051Y56229949D01*
X-3607831Y56100518D01*
X-3528904Y55952857D01*
X-3528903Y55952855D01*
X-3504601Y55872742D01*
X-3480299Y55792627D01*
X-3463888Y55626000D01*
X-3480299Y55459373D01*
X-3503836Y55381781D01*
X-3526438Y55307270D01*
X-3528904Y55299143D01*
X-3607831Y55151482D01*
X-3714051Y55022051D01*
X-3843482Y54915831D01*
X-3959574Y54853778D01*
X-3991145Y54836903D01*
X-4071258Y54812601D01*
X-4151373Y54788299D01*
X-4276248Y54776000D01*
X-4359752Y54776000D01*
X-4484627Y54788299D01*
X-4564742Y54812601D01*
X-4644855Y54836903D01*
X-4676426Y54853778D01*
X-4792518Y54915831D01*
X-4921949Y55022051D01*
X-5028169Y55151482D01*
X-5107096Y55299143D01*
X-5109561Y55307270D01*
X-5132164Y55381781D01*
X-5155701Y55459373D01*
X-5172112Y55626000D01*
X-5155701Y55792627D01*
X-5131399Y55872742D01*
X-5107097Y55952855D01*
X-5107096Y55952857D01*
X-5028169Y56100518D01*
X-4921949Y56229949D01*
X-4792518Y56336169D01*
X-4644857Y56415096D01*
X-4644855Y56415097D01*
X-4564742Y56439399D01*
X-4484627Y56463701D01*
X-4359752Y56476000D01*
X-4276248Y56476000D01*
X-4151373Y56463701D01*
X-4151373Y56463701D01*
G37*
G36*
X-362157Y56106786D02*
G01*
X-347025Y56100518D01*
X-271161Y56069094D01*
X-189269Y56014375D01*
X-119625Y55944731D01*
X-69800Y55870164D01*
X-64905Y55862837D01*
X-27214Y55771843D01*
X-8000Y55675247D01*
X-8000Y55576753D01*
X-27214Y55480157D01*
X-44998Y55437222D01*
X-64906Y55389161D01*
X-119625Y55307269D01*
X-189269Y55237625D01*
X-271161Y55182906D01*
X-271162Y55182905D01*
X-271163Y55182905D01*
X-362157Y55145214D01*
X-458753Y55126000D01*
X-557247Y55126000D01*
X-653843Y55145214D01*
X-744837Y55182905D01*
X-744838Y55182905D01*
X-744839Y55182906D01*
X-826731Y55237625D01*
X-896375Y55307269D01*
X-951094Y55389161D01*
X-971002Y55437222D01*
X-988786Y55480157D01*
X-1008000Y55576753D01*
X-1008000Y55675247D01*
X-988786Y55771843D01*
X-951095Y55862837D01*
X-946199Y55870164D01*
X-896375Y55944731D01*
X-826731Y56014375D01*
X-744839Y56069094D01*
X-668975Y56100518D01*
X-653843Y56106786D01*
X-557247Y56126000D01*
X-458753Y56126000D01*
X-362157Y56106786D01*
X-362157Y56106786D01*
G37*
G36*
X96936834Y57301668D02*
G01*
X97098397Y57269532D01*
X97275836Y57196034D01*
X97435527Y57089332D01*
X97571332Y56953527D01*
X97678034Y56793836D01*
X97751532Y56616397D01*
X97789000Y56428029D01*
X97789000Y56235971D01*
X97751532Y56047603D01*
X97678034Y55870164D01*
X97571332Y55710473D01*
X97435527Y55574668D01*
X97275836Y55467966D01*
X97098397Y55394468D01*
X96936834Y55362332D01*
X96910030Y55357000D01*
X96717970Y55357000D01*
X96691166Y55362332D01*
X96529603Y55394468D01*
X96352164Y55467966D01*
X96192473Y55574668D01*
X96056668Y55710473D01*
X95949966Y55870164D01*
X95876468Y56047603D01*
X95839000Y56235971D01*
X95839000Y56428029D01*
X95876468Y56616397D01*
X95949966Y56793836D01*
X96056668Y56953527D01*
X96192473Y57089332D01*
X96352164Y57196034D01*
X96529603Y57269532D01*
X96691166Y57301668D01*
X96717970Y57307000D01*
X96910030Y57307000D01*
X96936834Y57301668D01*
X96936834Y57301668D01*
G37*
G36*
X-5585527Y61957007D02*
G01*
X-5267037Y61825084D01*
X-4980402Y61633561D01*
X-4736639Y61389798D01*
X-4545116Y61103163D01*
X-4413193Y60784673D01*
X-4345940Y60446567D01*
X-4345940Y60101833D01*
X-4413193Y59763727D01*
X-4545116Y59445237D01*
X-4736639Y59158602D01*
X-4980402Y58914839D01*
X-5267037Y58723316D01*
X-5585527Y58591393D01*
X-5923633Y58524140D01*
X-6268367Y58524140D01*
X-6606473Y58591393D01*
X-6924963Y58723316D01*
X-7211598Y58914839D01*
X-7455361Y59158602D01*
X-7646884Y59445237D01*
X-7778807Y59763727D01*
X-7846060Y60101833D01*
X-7846060Y60446567D01*
X-7778807Y60784673D01*
X-7646884Y61103163D01*
X-7455361Y61389798D01*
X-7211598Y61633561D01*
X-6924963Y61825084D01*
X-6606473Y61957007D01*
X-6268367Y62024260D01*
X-5923633Y62024260D01*
X-5585527Y61957007D01*
X-5585527Y61957007D01*
G37*
G36*
X4717843Y62964786D02*
G01*
X4717846Y62964785D01*
X4717845Y62964785D01*
X4808839Y62927094D01*
X4850063Y62899549D01*
X4890730Y62872376D01*
X4960376Y62802730D01*
X5015095Y62720837D01*
X5052786Y62629843D01*
X5072000Y62533247D01*
X5072000Y62434753D01*
X5052786Y62338157D01*
X5052785Y62338155D01*
X5015094Y62247161D01*
X4960375Y62165269D01*
X4890731Y62095625D01*
X4808839Y62040906D01*
X4808838Y62040905D01*
X4808837Y62040905D01*
X4717843Y62003214D01*
X4621247Y61984000D01*
X4522753Y61984000D01*
X4426157Y62003214D01*
X4335163Y62040905D01*
X4335162Y62040905D01*
X4335161Y62040906D01*
X4253269Y62095625D01*
X4183625Y62165269D01*
X4128906Y62247161D01*
X4091215Y62338155D01*
X4091214Y62338157D01*
X4072000Y62434753D01*
X4072000Y62533247D01*
X4091214Y62629843D01*
X4128905Y62720837D01*
X4183624Y62802730D01*
X4253270Y62872376D01*
X4293937Y62899549D01*
X4335161Y62927094D01*
X4426155Y62964785D01*
X4426154Y62964785D01*
X4426157Y62964786D01*
X4522753Y62984000D01*
X4621247Y62984000D01*
X4717843Y62964786D01*
X4717843Y62964786D01*
G37*
G36*
X-1152667Y65771127D02*
G01*
X-1016073Y65714548D01*
X-1016072Y65714547D01*
X-893139Y65632406D01*
X-788594Y65527861D01*
X-788593Y65527859D01*
X-706452Y65404927D01*
X-649873Y65268333D01*
X-621030Y65123326D01*
X-621030Y64975474D01*
X-649873Y64830467D01*
X-706452Y64693873D01*
X-706453Y64693872D01*
X-788594Y64570939D01*
X-893139Y64466394D01*
X-955024Y64425044D01*
X-1016073Y64384252D01*
X-1152667Y64327673D01*
X-1297674Y64298830D01*
X-1445526Y64298830D01*
X-1590533Y64327673D01*
X-1727127Y64384252D01*
X-1788176Y64425044D01*
X-1850061Y64466394D01*
X-1954606Y64570939D01*
X-2036747Y64693872D01*
X-2036748Y64693873D01*
X-2093327Y64830467D01*
X-2122170Y64975474D01*
X-2122170Y65123326D01*
X-2093327Y65268333D01*
X-2036748Y65404927D01*
X-1954607Y65527859D01*
X-1954606Y65527861D01*
X-1850061Y65632406D01*
X-1727128Y65714547D01*
X-1727127Y65714548D01*
X-1590533Y65771127D01*
X-1445526Y65799970D01*
X-1297674Y65799970D01*
X-1152667Y65771127D01*
X-1152667Y65771127D01*
G37*
G36*
X-3159267Y65771127D02*
G01*
X-3022673Y65714548D01*
X-3022672Y65714547D01*
X-2899739Y65632406D01*
X-2795194Y65527861D01*
X-2795193Y65527859D01*
X-2713052Y65404927D01*
X-2656473Y65268333D01*
X-2627630Y65123326D01*
X-2627630Y64975474D01*
X-2656473Y64830467D01*
X-2713052Y64693873D01*
X-2713053Y64693872D01*
X-2795194Y64570939D01*
X-2899739Y64466394D01*
X-2961624Y64425044D01*
X-3022673Y64384252D01*
X-3159267Y64327673D01*
X-3304274Y64298830D01*
X-3452126Y64298830D01*
X-3597133Y64327673D01*
X-3733727Y64384252D01*
X-3794776Y64425044D01*
X-3856661Y64466394D01*
X-3961206Y64570939D01*
X-4043347Y64693872D01*
X-4043348Y64693873D01*
X-4099927Y64830467D01*
X-4128770Y64975474D01*
X-4128770Y65123326D01*
X-4099927Y65268333D01*
X-4043348Y65404927D01*
X-3961207Y65527859D01*
X-3961206Y65527861D01*
X-3856661Y65632406D01*
X-3733728Y65714547D01*
X-3733727Y65714548D01*
X-3597133Y65771127D01*
X-3452126Y65799970D01*
X-3304274Y65799970D01*
X-3159267Y65771127D01*
X-3159267Y65771127D01*
G37*
G36*
X4717843Y65504786D02*
G01*
X4717846Y65504785D01*
X4717845Y65504785D01*
X4808839Y65467094D01*
X4890731Y65412375D01*
X4960375Y65342731D01*
X5010087Y65268333D01*
X5015095Y65260837D01*
X5052786Y65169843D01*
X5072000Y65073247D01*
X5072000Y64974753D01*
X5052786Y64878157D01*
X5052785Y64878155D01*
X5015094Y64787161D01*
X4960375Y64705269D01*
X4890731Y64635625D01*
X4808839Y64580906D01*
X4808838Y64580905D01*
X4808837Y64580905D01*
X4717843Y64543214D01*
X4621247Y64524000D01*
X4522753Y64524000D01*
X4426157Y64543214D01*
X4335163Y64580905D01*
X4335162Y64580905D01*
X4335161Y64580906D01*
X4253269Y64635625D01*
X4183625Y64705269D01*
X4128906Y64787161D01*
X4091215Y64878155D01*
X4091214Y64878157D01*
X4072000Y64974753D01*
X4072000Y65073247D01*
X4091214Y65169843D01*
X4128905Y65260837D01*
X4133914Y65268333D01*
X4183625Y65342731D01*
X4253269Y65412375D01*
X4335161Y65467094D01*
X4426155Y65504785D01*
X4426154Y65504785D01*
X4426157Y65504786D01*
X4522753Y65524000D01*
X4621247Y65524000D01*
X4717843Y65504786D01*
X4717843Y65504786D01*
G37*
G36*
X-1152667Y68260327D02*
G01*
X-1016073Y68203748D01*
X-1016072Y68203747D01*
X-893139Y68121606D01*
X-788594Y68017061D01*
X-747244Y67955176D01*
X-706452Y67894127D01*
X-649873Y67757533D01*
X-621030Y67612526D01*
X-621030Y67464674D01*
X-649873Y67319667D01*
X-706452Y67183073D01*
X-747244Y67122024D01*
X-788594Y67060139D01*
X-893139Y66955594D01*
X-955024Y66914244D01*
X-1016073Y66873452D01*
X-1152667Y66816873D01*
X-1297674Y66788030D01*
X-1445526Y66788030D01*
X-1590533Y66816873D01*
X-1727127Y66873452D01*
X-1788176Y66914244D01*
X-1850061Y66955594D01*
X-1954606Y67060139D01*
X-1995956Y67122024D01*
X-2036748Y67183073D01*
X-2093327Y67319667D01*
X-2122170Y67464674D01*
X-2122170Y67612526D01*
X-2093327Y67757533D01*
X-2036748Y67894127D01*
X-1995956Y67955176D01*
X-1954606Y68017061D01*
X-1850061Y68121606D01*
X-1727128Y68203747D01*
X-1727127Y68203748D01*
X-1590533Y68260327D01*
X-1445526Y68289170D01*
X-1297674Y68289170D01*
X-1152667Y68260327D01*
X-1152667Y68260327D01*
G37*
G36*
X-3159267Y68260327D02*
G01*
X-3022673Y68203748D01*
X-3022672Y68203747D01*
X-2899739Y68121606D01*
X-2795194Y68017061D01*
X-2753844Y67955176D01*
X-2713052Y67894127D01*
X-2656473Y67757533D01*
X-2627630Y67612526D01*
X-2627630Y67464674D01*
X-2656473Y67319667D01*
X-2713052Y67183073D01*
X-2753844Y67122024D01*
X-2795194Y67060139D01*
X-2899739Y66955594D01*
X-2961624Y66914244D01*
X-3022673Y66873452D01*
X-3159267Y66816873D01*
X-3304274Y66788030D01*
X-3452126Y66788030D01*
X-3597133Y66816873D01*
X-3733727Y66873452D01*
X-3794776Y66914244D01*
X-3856661Y66955594D01*
X-3961206Y67060139D01*
X-4002556Y67122024D01*
X-4043348Y67183073D01*
X-4099927Y67319667D01*
X-4128770Y67464674D01*
X-4128770Y67612526D01*
X-4099927Y67757533D01*
X-4043348Y67894127D01*
X-4002556Y67955176D01*
X-3961206Y68017061D01*
X-3856661Y68121606D01*
X-3733728Y68203747D01*
X-3733727Y68203748D01*
X-3597133Y68260327D01*
X-3452126Y68289170D01*
X-3304274Y68289170D01*
X-3159267Y68260327D01*
X-3159267Y68260327D01*
G37*
G36*
X4717843Y68044786D02*
G01*
X4808837Y68007095D01*
X4808839Y68007094D01*
X4850063Y67979549D01*
X4890730Y67952376D01*
X4960376Y67882730D01*
X5015095Y67800837D01*
X5052786Y67709843D01*
X5072000Y67613247D01*
X5072000Y67514753D01*
X5052786Y67418157D01*
X5052785Y67418155D01*
X5015094Y67327161D01*
X4960375Y67245269D01*
X4890731Y67175625D01*
X4808839Y67120906D01*
X4808838Y67120905D01*
X4808837Y67120905D01*
X4717843Y67083214D01*
X4621247Y67064000D01*
X4522753Y67064000D01*
X4426157Y67083214D01*
X4335163Y67120905D01*
X4335162Y67120905D01*
X4335161Y67120906D01*
X4253269Y67175625D01*
X4183625Y67245269D01*
X4128906Y67327161D01*
X4091215Y67418155D01*
X4091214Y67418157D01*
X4072000Y67514753D01*
X4072000Y67613247D01*
X4091214Y67709843D01*
X4128905Y67800837D01*
X4183624Y67882730D01*
X4253270Y67952376D01*
X4293937Y67979549D01*
X4335161Y68007094D01*
X4335163Y68007095D01*
X4426157Y68044786D01*
X4522753Y68064000D01*
X4621247Y68064000D01*
X4717843Y68044786D01*
X4717843Y68044786D01*
G37*
G36*
X4717843Y70584786D02*
G01*
X4717846Y70584785D01*
X4717845Y70584785D01*
X4808839Y70547094D01*
X4850063Y70519549D01*
X4890730Y70492376D01*
X4960376Y70422730D01*
X5015095Y70340837D01*
X5052786Y70249843D01*
X5072000Y70153247D01*
X5072000Y70054753D01*
X5052786Y69958157D01*
X5052785Y69958155D01*
X5015094Y69867161D01*
X4960375Y69785269D01*
X4890731Y69715625D01*
X4808839Y69660906D01*
X4808838Y69660905D01*
X4808837Y69660905D01*
X4717843Y69623214D01*
X4621247Y69604000D01*
X4522753Y69604000D01*
X4426157Y69623214D01*
X4335163Y69660905D01*
X4335162Y69660905D01*
X4335161Y69660906D01*
X4253269Y69715625D01*
X4183625Y69785269D01*
X4128906Y69867161D01*
X4091215Y69958155D01*
X4091214Y69958157D01*
X4072000Y70054753D01*
X4072000Y70153247D01*
X4091214Y70249843D01*
X4128905Y70340837D01*
X4183624Y70422730D01*
X4253270Y70492376D01*
X4293937Y70519549D01*
X4335161Y70547094D01*
X4426155Y70584785D01*
X4426154Y70584785D01*
X4426157Y70584786D01*
X4522753Y70604000D01*
X4621247Y70604000D01*
X4717843Y70584786D01*
X4717843Y70584786D01*
G37*
G36*
X-5585527Y73996607D02*
G01*
X-5267037Y73864684D01*
X-4980402Y73673161D01*
X-4736639Y73429398D01*
X-4545116Y73142763D01*
X-4413193Y72824273D01*
X-4345940Y72486167D01*
X-4345940Y72141433D01*
X-4413193Y71803327D01*
X-4545116Y71484837D01*
X-4736639Y71198202D01*
X-4980402Y70954439D01*
X-5267037Y70762916D01*
X-5585527Y70630993D01*
X-5923633Y70563740D01*
X-6268367Y70563740D01*
X-6606473Y70630993D01*
X-6924963Y70762916D01*
X-7211598Y70954439D01*
X-7455361Y71198202D01*
X-7646884Y71484837D01*
X-7778807Y71803327D01*
X-7846060Y72141433D01*
X-7846060Y72486167D01*
X-7778807Y72824273D01*
X-7646884Y73142763D01*
X-7455361Y73429398D01*
X-7211598Y73673161D01*
X-6924963Y73864684D01*
X-6606473Y73996607D01*
X-6268367Y74063860D01*
X-5923633Y74063860D01*
X-5585527Y73996607D01*
X-5585527Y73996607D01*
G37*
M02*
