G04 #@! TF.GenerationSoftware,KiCad,Pcbnew,(5.1.2)-2*
G04 #@! TF.CreationDate,2020-11-22T10:01:50+00:00*
G04 #@! TF.ProjectId,26-pin to 34-pin Amiga Floppy Adapter,32362d70-696e-4207-946f-2033342d7069,rev?*
G04 #@! TF.SameCoordinates,Original*
G04 #@! TF.FileFunction,Legend,Top*
G04 #@! TF.FilePolarity,Positive*
%FSLAX46Y46*%
G04 Gerber Fmt 4.6, Leading zero omitted, Abs format (unit mm)*
G04 Created by KiCad (PCBNEW (5.1.2)-2) date 2020-11-22 10:01:50*
%MOMM*%
%LPD*%
G04 APERTURE LIST*
%ADD10C,0.125000*%
%ADD11C,0.250000*%
%ADD12C,0.120000*%
%ADD13C,0.150000*%
G04 APERTURE END LIST*
D10*
X97413000Y-107822952D02*
X97389190Y-107870571D01*
X97389190Y-107942000D01*
X97413000Y-108013428D01*
X97460619Y-108061047D01*
X97508238Y-108084857D01*
X97603476Y-108108666D01*
X97674904Y-108108666D01*
X97770142Y-108084857D01*
X97817761Y-108061047D01*
X97865380Y-108013428D01*
X97889190Y-107942000D01*
X97889190Y-107894380D01*
X97865380Y-107822952D01*
X97841571Y-107799142D01*
X97674904Y-107799142D01*
X97674904Y-107894380D01*
X97889190Y-107584857D02*
X97389190Y-107584857D01*
X97889190Y-107299142D01*
X97389190Y-107299142D01*
X97889190Y-107061047D02*
X97389190Y-107061047D01*
X97389190Y-106942000D01*
X97413000Y-106870571D01*
X97460619Y-106822952D01*
X97508238Y-106799142D01*
X97603476Y-106775333D01*
X97674904Y-106775333D01*
X97770142Y-106799142D01*
X97817761Y-106822952D01*
X97865380Y-106870571D01*
X97889190Y-106942000D01*
X97889190Y-107061047D01*
X95349190Y-107834857D02*
X94849190Y-107834857D01*
X95349190Y-107549142D01*
X94849190Y-107549142D01*
X95301571Y-107025333D02*
X95325380Y-107049142D01*
X95349190Y-107120571D01*
X95349190Y-107168190D01*
X95325380Y-107239619D01*
X95277761Y-107287238D01*
X95230142Y-107311047D01*
X95134904Y-107334857D01*
X95063476Y-107334857D01*
X94968238Y-107311047D01*
X94920619Y-107287238D01*
X94873000Y-107239619D01*
X94849190Y-107168190D01*
X94849190Y-107120571D01*
X94873000Y-107049142D01*
X94896809Y-107025333D01*
X102469190Y-107283238D02*
X102469190Y-107521333D01*
X102707285Y-107545142D01*
X102683476Y-107521333D01*
X102659666Y-107473714D01*
X102659666Y-107354666D01*
X102683476Y-107307047D01*
X102707285Y-107283238D01*
X102754904Y-107259428D01*
X102873952Y-107259428D01*
X102921571Y-107283238D01*
X102945380Y-107307047D01*
X102969190Y-107354666D01*
X102969190Y-107473714D01*
X102945380Y-107521333D01*
X102921571Y-107545142D01*
X102469190Y-107116571D02*
X102969190Y-106949904D01*
X102469190Y-106783238D01*
X99953000Y-107822952D02*
X99929190Y-107870571D01*
X99929190Y-107942000D01*
X99953000Y-108013428D01*
X100000619Y-108061047D01*
X100048238Y-108084857D01*
X100143476Y-108108666D01*
X100214904Y-108108666D01*
X100310142Y-108084857D01*
X100357761Y-108061047D01*
X100405380Y-108013428D01*
X100429190Y-107942000D01*
X100429190Y-107894380D01*
X100405380Y-107822952D01*
X100381571Y-107799142D01*
X100214904Y-107799142D01*
X100214904Y-107894380D01*
X100429190Y-107584857D02*
X99929190Y-107584857D01*
X100429190Y-107299142D01*
X99929190Y-107299142D01*
X100429190Y-107061047D02*
X99929190Y-107061047D01*
X99929190Y-106942000D01*
X99953000Y-106870571D01*
X100000619Y-106822952D01*
X100048238Y-106799142D01*
X100143476Y-106775333D01*
X100214904Y-106775333D01*
X100310142Y-106799142D01*
X100357761Y-106822952D01*
X100405380Y-106870571D01*
X100429190Y-106942000D01*
X100429190Y-107061047D01*
D11*
X94766666Y-93867380D02*
X94433333Y-93391190D01*
X94195238Y-93867380D02*
X94195238Y-92867380D01*
X94576190Y-92867380D01*
X94671428Y-92915000D01*
X94719047Y-92962619D01*
X94766666Y-93057857D01*
X94766666Y-93200714D01*
X94719047Y-93295952D01*
X94671428Y-93343571D01*
X94576190Y-93391190D01*
X94195238Y-93391190D01*
X95338095Y-93867380D02*
X95242857Y-93819761D01*
X95195238Y-93772142D01*
X95147619Y-93676904D01*
X95147619Y-93391190D01*
X95195238Y-93295952D01*
X95242857Y-93248333D01*
X95338095Y-93200714D01*
X95480952Y-93200714D01*
X95576190Y-93248333D01*
X95623809Y-93295952D01*
X95671428Y-93391190D01*
X95671428Y-93676904D01*
X95623809Y-93772142D01*
X95576190Y-93819761D01*
X95480952Y-93867380D01*
X95338095Y-93867380D01*
X96528571Y-93819761D02*
X96433333Y-93867380D01*
X96242857Y-93867380D01*
X96147619Y-93819761D01*
X96100000Y-93772142D01*
X96052380Y-93676904D01*
X96052380Y-93391190D01*
X96100000Y-93295952D01*
X96147619Y-93248333D01*
X96242857Y-93200714D01*
X96433333Y-93200714D01*
X96528571Y-93248333D01*
X96814285Y-93200714D02*
X97195238Y-93200714D01*
X96957142Y-92867380D02*
X96957142Y-93724523D01*
X97004761Y-93819761D01*
X97100000Y-93867380D01*
X97195238Y-93867380D01*
X97909523Y-93819761D02*
X97814285Y-93867380D01*
X97623809Y-93867380D01*
X97528571Y-93819761D01*
X97480952Y-93724523D01*
X97480952Y-93343571D01*
X97528571Y-93248333D01*
X97623809Y-93200714D01*
X97814285Y-93200714D01*
X97909523Y-93248333D01*
X97957142Y-93343571D01*
X97957142Y-93438809D01*
X97480952Y-93534047D01*
X98814285Y-93819761D02*
X98719047Y-93867380D01*
X98528571Y-93867380D01*
X98433333Y-93819761D01*
X98385714Y-93772142D01*
X98338095Y-93676904D01*
X98338095Y-93391190D01*
X98385714Y-93295952D01*
X98433333Y-93248333D01*
X98528571Y-93200714D01*
X98719047Y-93200714D01*
X98814285Y-93248333D01*
X99957142Y-93819761D02*
X100100000Y-93867380D01*
X100338095Y-93867380D01*
X100433333Y-93819761D01*
X100480952Y-93772142D01*
X100528571Y-93676904D01*
X100528571Y-93581666D01*
X100480952Y-93486428D01*
X100433333Y-93438809D01*
X100338095Y-93391190D01*
X100147619Y-93343571D01*
X100052380Y-93295952D01*
X100004761Y-93248333D01*
X99957142Y-93153095D01*
X99957142Y-93057857D01*
X100004761Y-92962619D01*
X100052380Y-92915000D01*
X100147619Y-92867380D01*
X100385714Y-92867380D01*
X100528571Y-92915000D01*
X101100000Y-93867380D02*
X101004761Y-93819761D01*
X100957142Y-93724523D01*
X100957142Y-92867380D01*
X101480952Y-93867380D02*
X101480952Y-93200714D01*
X101480952Y-92867380D02*
X101433333Y-92915000D01*
X101480952Y-92962619D01*
X101528571Y-92915000D01*
X101480952Y-92867380D01*
X101480952Y-92962619D01*
X101957142Y-93867380D02*
X101957142Y-93200714D01*
X101957142Y-93295952D02*
X102004761Y-93248333D01*
X102099999Y-93200714D01*
X102242857Y-93200714D01*
X102338095Y-93248333D01*
X102385714Y-93343571D01*
X102385714Y-93867380D01*
X102385714Y-93343571D02*
X102433333Y-93248333D01*
X102528571Y-93200714D01*
X102671428Y-93200714D01*
X102766666Y-93248333D01*
X102814285Y-93343571D01*
X102814285Y-93867380D01*
X104004761Y-92962619D02*
X104052380Y-92915000D01*
X104147619Y-92867380D01*
X104385714Y-92867380D01*
X104480952Y-92915000D01*
X104528571Y-92962619D01*
X104576190Y-93057857D01*
X104576190Y-93153095D01*
X104528571Y-93295952D01*
X103957142Y-93867380D01*
X104576190Y-93867380D01*
X105433333Y-92867380D02*
X105242857Y-92867380D01*
X105147619Y-92915000D01*
X105099999Y-92962619D01*
X105004761Y-93105476D01*
X104957142Y-93295952D01*
X104957142Y-93676904D01*
X105004761Y-93772142D01*
X105052380Y-93819761D01*
X105147619Y-93867380D01*
X105338095Y-93867380D01*
X105433333Y-93819761D01*
X105480952Y-93772142D01*
X105528571Y-93676904D01*
X105528571Y-93438809D01*
X105480952Y-93343571D01*
X105433333Y-93295952D01*
X105338095Y-93248333D01*
X105147619Y-93248333D01*
X105052380Y-93295952D01*
X105004761Y-93343571D01*
X104957142Y-93438809D01*
X105957142Y-93486428D02*
X106719047Y-93486428D01*
X107195238Y-93200714D02*
X107195238Y-94200714D01*
X107195238Y-93248333D02*
X107290476Y-93200714D01*
X107480952Y-93200714D01*
X107576190Y-93248333D01*
X107623809Y-93295952D01*
X107671428Y-93391190D01*
X107671428Y-93676904D01*
X107623809Y-93772142D01*
X107576190Y-93819761D01*
X107480952Y-93867380D01*
X107290476Y-93867380D01*
X107195238Y-93819761D01*
X108099999Y-93867380D02*
X108099999Y-93200714D01*
X108099999Y-92867380D02*
X108052380Y-92915000D01*
X108099999Y-92962619D01*
X108147619Y-92915000D01*
X108099999Y-92867380D01*
X108099999Y-92962619D01*
X108576190Y-93200714D02*
X108576190Y-93867380D01*
X108576190Y-93295952D02*
X108623809Y-93248333D01*
X108719047Y-93200714D01*
X108861904Y-93200714D01*
X108957142Y-93248333D01*
X109004761Y-93343571D01*
X109004761Y-93867380D01*
X100957142Y-94950714D02*
X101338095Y-94950714D01*
X101100000Y-94617380D02*
X101100000Y-95474523D01*
X101147619Y-95569761D01*
X101242857Y-95617380D01*
X101338095Y-95617380D01*
X101814285Y-95617380D02*
X101719047Y-95569761D01*
X101671428Y-95522142D01*
X101623809Y-95426904D01*
X101623809Y-95141190D01*
X101671428Y-95045952D01*
X101719047Y-94998333D01*
X101814285Y-94950714D01*
X101957142Y-94950714D01*
X102052380Y-94998333D01*
X102100000Y-95045952D01*
X102147619Y-95141190D01*
X102147619Y-95426904D01*
X102100000Y-95522142D01*
X102052380Y-95569761D01*
X101957142Y-95617380D01*
X101814285Y-95617380D01*
X96457142Y-97081666D02*
X96933333Y-97081666D01*
X96361904Y-97367380D02*
X96695238Y-96367380D01*
X97028571Y-97367380D01*
X97361904Y-97367380D02*
X97361904Y-96700714D01*
X97361904Y-96795952D02*
X97409523Y-96748333D01*
X97504761Y-96700714D01*
X97647619Y-96700714D01*
X97742857Y-96748333D01*
X97790476Y-96843571D01*
X97790476Y-97367380D01*
X97790476Y-96843571D02*
X97838095Y-96748333D01*
X97933333Y-96700714D01*
X98076190Y-96700714D01*
X98171428Y-96748333D01*
X98219047Y-96843571D01*
X98219047Y-97367380D01*
X98695238Y-97367380D02*
X98695238Y-96700714D01*
X98695238Y-96367380D02*
X98647619Y-96415000D01*
X98695238Y-96462619D01*
X98742857Y-96415000D01*
X98695238Y-96367380D01*
X98695238Y-96462619D01*
X99600000Y-96700714D02*
X99600000Y-97510238D01*
X99552380Y-97605476D01*
X99504761Y-97653095D01*
X99409523Y-97700714D01*
X99266666Y-97700714D01*
X99171428Y-97653095D01*
X99600000Y-97319761D02*
X99504761Y-97367380D01*
X99314285Y-97367380D01*
X99219047Y-97319761D01*
X99171428Y-97272142D01*
X99123809Y-97176904D01*
X99123809Y-96891190D01*
X99171428Y-96795952D01*
X99219047Y-96748333D01*
X99314285Y-96700714D01*
X99504761Y-96700714D01*
X99600000Y-96748333D01*
X100504761Y-97367380D02*
X100504761Y-96843571D01*
X100457142Y-96748333D01*
X100361904Y-96700714D01*
X100171428Y-96700714D01*
X100076190Y-96748333D01*
X100504761Y-97319761D02*
X100409523Y-97367380D01*
X100171428Y-97367380D01*
X100076190Y-97319761D01*
X100028571Y-97224523D01*
X100028571Y-97129285D01*
X100076190Y-97034047D01*
X100171428Y-96986428D01*
X100409523Y-96986428D01*
X100504761Y-96938809D01*
X101647619Y-96367380D02*
X102266666Y-96367380D01*
X101933333Y-96748333D01*
X102076190Y-96748333D01*
X102171428Y-96795952D01*
X102219047Y-96843571D01*
X102266666Y-96938809D01*
X102266666Y-97176904D01*
X102219047Y-97272142D01*
X102171428Y-97319761D01*
X102076190Y-97367380D01*
X101790476Y-97367380D01*
X101695238Y-97319761D01*
X101647619Y-97272142D01*
X103123809Y-96700714D02*
X103123809Y-97367380D01*
X102885714Y-96319761D02*
X102647619Y-97034047D01*
X103266666Y-97034047D01*
X103647619Y-96986428D02*
X104409523Y-96986428D01*
X104885714Y-96700714D02*
X104885714Y-97700714D01*
X104885714Y-96748333D02*
X104980952Y-96700714D01*
X105171428Y-96700714D01*
X105266666Y-96748333D01*
X105314285Y-96795952D01*
X105361904Y-96891190D01*
X105361904Y-97176904D01*
X105314285Y-97272142D01*
X105266666Y-97319761D01*
X105171428Y-97367380D01*
X104980952Y-97367380D01*
X104885714Y-97319761D01*
X105790476Y-97367380D02*
X105790476Y-96700714D01*
X105790476Y-96367380D02*
X105742857Y-96415000D01*
X105790476Y-96462619D01*
X105838095Y-96415000D01*
X105790476Y-96367380D01*
X105790476Y-96462619D01*
X106266666Y-96700714D02*
X106266666Y-97367380D01*
X106266666Y-96795952D02*
X106314285Y-96748333D01*
X106409523Y-96700714D01*
X106552380Y-96700714D01*
X106647619Y-96748333D01*
X106695238Y-96843571D01*
X106695238Y-97367380D01*
X96552380Y-98593571D02*
X96219047Y-98593571D01*
X96219047Y-99117380D02*
X96219047Y-98117380D01*
X96695238Y-98117380D01*
X97219047Y-99117380D02*
X97123809Y-99069761D01*
X97076190Y-98974523D01*
X97076190Y-98117380D01*
X97742857Y-99117380D02*
X97647619Y-99069761D01*
X97600000Y-99022142D01*
X97552380Y-98926904D01*
X97552380Y-98641190D01*
X97600000Y-98545952D01*
X97647619Y-98498333D01*
X97742857Y-98450714D01*
X97885714Y-98450714D01*
X97980952Y-98498333D01*
X98028571Y-98545952D01*
X98076190Y-98641190D01*
X98076190Y-98926904D01*
X98028571Y-99022142D01*
X97980952Y-99069761D01*
X97885714Y-99117380D01*
X97742857Y-99117380D01*
X98504761Y-98450714D02*
X98504761Y-99450714D01*
X98504761Y-98498333D02*
X98600000Y-98450714D01*
X98790476Y-98450714D01*
X98885714Y-98498333D01*
X98933333Y-98545952D01*
X98980952Y-98641190D01*
X98980952Y-98926904D01*
X98933333Y-99022142D01*
X98885714Y-99069761D01*
X98790476Y-99117380D01*
X98600000Y-99117380D01*
X98504761Y-99069761D01*
X99409523Y-98450714D02*
X99409523Y-99450714D01*
X99409523Y-98498333D02*
X99504761Y-98450714D01*
X99695238Y-98450714D01*
X99790476Y-98498333D01*
X99838095Y-98545952D01*
X99885714Y-98641190D01*
X99885714Y-98926904D01*
X99838095Y-99022142D01*
X99790476Y-99069761D01*
X99695238Y-99117380D01*
X99504761Y-99117380D01*
X99409523Y-99069761D01*
X100219047Y-98450714D02*
X100457142Y-99117380D01*
X100695238Y-98450714D02*
X100457142Y-99117380D01*
X100361904Y-99355476D01*
X100314285Y-99403095D01*
X100219047Y-99450714D01*
X101790476Y-98831666D02*
X102266666Y-98831666D01*
X101695238Y-99117380D02*
X102028571Y-98117380D01*
X102361904Y-99117380D01*
X103123809Y-99117380D02*
X103123809Y-98117380D01*
X103123809Y-99069761D02*
X103028571Y-99117380D01*
X102838095Y-99117380D01*
X102742857Y-99069761D01*
X102695238Y-99022142D01*
X102647619Y-98926904D01*
X102647619Y-98641190D01*
X102695238Y-98545952D01*
X102742857Y-98498333D01*
X102838095Y-98450714D01*
X103028571Y-98450714D01*
X103123809Y-98498333D01*
X104028571Y-99117380D02*
X104028571Y-98593571D01*
X103980952Y-98498333D01*
X103885714Y-98450714D01*
X103695238Y-98450714D01*
X103600000Y-98498333D01*
X104028571Y-99069761D02*
X103933333Y-99117380D01*
X103695238Y-99117380D01*
X103600000Y-99069761D01*
X103552380Y-98974523D01*
X103552380Y-98879285D01*
X103600000Y-98784047D01*
X103695238Y-98736428D01*
X103933333Y-98736428D01*
X104028571Y-98688809D01*
X104504761Y-98450714D02*
X104504761Y-99450714D01*
X104504761Y-98498333D02*
X104600000Y-98450714D01*
X104790476Y-98450714D01*
X104885714Y-98498333D01*
X104933333Y-98545952D01*
X104980952Y-98641190D01*
X104980952Y-98926904D01*
X104933333Y-99022142D01*
X104885714Y-99069761D01*
X104790476Y-99117380D01*
X104600000Y-99117380D01*
X104504761Y-99069761D01*
X105266666Y-98450714D02*
X105647619Y-98450714D01*
X105409523Y-98117380D02*
X105409523Y-98974523D01*
X105457142Y-99069761D01*
X105552380Y-99117380D01*
X105647619Y-99117380D01*
X106361904Y-99069761D02*
X106266666Y-99117380D01*
X106076190Y-99117380D01*
X105980952Y-99069761D01*
X105933333Y-98974523D01*
X105933333Y-98593571D01*
X105980952Y-98498333D01*
X106076190Y-98450714D01*
X106266666Y-98450714D01*
X106361904Y-98498333D01*
X106409523Y-98593571D01*
X106409523Y-98688809D01*
X105933333Y-98784047D01*
X106838095Y-99117380D02*
X106838095Y-98450714D01*
X106838095Y-98641190D02*
X106885714Y-98545952D01*
X106933333Y-98498333D01*
X107028571Y-98450714D01*
X107123809Y-98450714D01*
X96052380Y-102569761D02*
X96147619Y-102617380D01*
X96338095Y-102617380D01*
X96433333Y-102569761D01*
X96480952Y-102474523D01*
X96480952Y-102426904D01*
X96433333Y-102331666D01*
X96338095Y-102284047D01*
X96195238Y-102284047D01*
X96100000Y-102236428D01*
X96052380Y-102141190D01*
X96052380Y-102093571D01*
X96100000Y-101998333D01*
X96195238Y-101950714D01*
X96338095Y-101950714D01*
X96433333Y-101998333D01*
X97052380Y-102617380D02*
X96957142Y-102569761D01*
X96909523Y-102522142D01*
X96861904Y-102426904D01*
X96861904Y-102141190D01*
X96909523Y-102045952D01*
X96957142Y-101998333D01*
X97052380Y-101950714D01*
X97195238Y-101950714D01*
X97290476Y-101998333D01*
X97338095Y-102045952D01*
X97385714Y-102141190D01*
X97385714Y-102426904D01*
X97338095Y-102522142D01*
X97290476Y-102569761D01*
X97195238Y-102617380D01*
X97052380Y-102617380D01*
X97957142Y-102617380D02*
X97861904Y-102569761D01*
X97814285Y-102474523D01*
X97814285Y-101617380D01*
X98766666Y-102617380D02*
X98766666Y-102093571D01*
X98719047Y-101998333D01*
X98623809Y-101950714D01*
X98433333Y-101950714D01*
X98338095Y-101998333D01*
X98766666Y-102569761D02*
X98671428Y-102617380D01*
X98433333Y-102617380D01*
X98338095Y-102569761D01*
X98290476Y-102474523D01*
X98290476Y-102379285D01*
X98338095Y-102284047D01*
X98433333Y-102236428D01*
X98671428Y-102236428D01*
X98766666Y-102188809D01*
X99242857Y-102617380D02*
X99242857Y-101950714D01*
X99242857Y-102141190D02*
X99290476Y-102045952D01*
X99338095Y-101998333D01*
X99433333Y-101950714D01*
X99528571Y-101950714D01*
X99861904Y-102617380D02*
X99861904Y-101950714D01*
X99861904Y-102045952D02*
X99909523Y-101998333D01*
X100004761Y-101950714D01*
X100147619Y-101950714D01*
X100242857Y-101998333D01*
X100290476Y-102093571D01*
X100290476Y-102617380D01*
X100290476Y-102093571D02*
X100338095Y-101998333D01*
X100433333Y-101950714D01*
X100576190Y-101950714D01*
X100671428Y-101998333D01*
X100719047Y-102093571D01*
X100719047Y-102617380D01*
X101338095Y-102617380D02*
X101242857Y-102569761D01*
X101195238Y-102522142D01*
X101147619Y-102426904D01*
X101147619Y-102141190D01*
X101195238Y-102045952D01*
X101242857Y-101998333D01*
X101338095Y-101950714D01*
X101480952Y-101950714D01*
X101576190Y-101998333D01*
X101623809Y-102045952D01*
X101671428Y-102141190D01*
X101671428Y-102426904D01*
X101623809Y-102522142D01*
X101576190Y-102569761D01*
X101480952Y-102617380D01*
X101338095Y-102617380D01*
X102100000Y-101950714D02*
X102100000Y-102617380D01*
X102100000Y-102045952D02*
X102147619Y-101998333D01*
X102242857Y-101950714D01*
X102385714Y-101950714D01*
X102480952Y-101998333D01*
X102528571Y-102093571D01*
X102528571Y-102617380D01*
X103719047Y-101712619D02*
X103766666Y-101665000D01*
X103861904Y-101617380D01*
X104100000Y-101617380D01*
X104195238Y-101665000D01*
X104242857Y-101712619D01*
X104290476Y-101807857D01*
X104290476Y-101903095D01*
X104242857Y-102045952D01*
X103671428Y-102617380D01*
X104290476Y-102617380D01*
X104909523Y-101617380D02*
X105004761Y-101617380D01*
X105100000Y-101665000D01*
X105147619Y-101712619D01*
X105195238Y-101807857D01*
X105242857Y-101998333D01*
X105242857Y-102236428D01*
X105195238Y-102426904D01*
X105147619Y-102522142D01*
X105100000Y-102569761D01*
X105004761Y-102617380D01*
X104909523Y-102617380D01*
X104814285Y-102569761D01*
X104766666Y-102522142D01*
X104719047Y-102426904D01*
X104671428Y-102236428D01*
X104671428Y-101998333D01*
X104719047Y-101807857D01*
X104766666Y-101712619D01*
X104814285Y-101665000D01*
X104909523Y-101617380D01*
X105623809Y-101712619D02*
X105671428Y-101665000D01*
X105766666Y-101617380D01*
X106004761Y-101617380D01*
X106100000Y-101665000D01*
X106147619Y-101712619D01*
X106195238Y-101807857D01*
X106195238Y-101903095D01*
X106147619Y-102045952D01*
X105576190Y-102617380D01*
X106195238Y-102617380D01*
X106814285Y-101617380D02*
X106909523Y-101617380D01*
X107004761Y-101665000D01*
X107052380Y-101712619D01*
X107100000Y-101807857D01*
X107147619Y-101998333D01*
X107147619Y-102236428D01*
X107100000Y-102426904D01*
X107052380Y-102522142D01*
X107004761Y-102569761D01*
X106909523Y-102617380D01*
X106814285Y-102617380D01*
X106719047Y-102569761D01*
X106671428Y-102522142D01*
X106623809Y-102426904D01*
X106576190Y-102236428D01*
X106576190Y-101998333D01*
X106623809Y-101807857D01*
X106671428Y-101712619D01*
X106719047Y-101665000D01*
X106814285Y-101617380D01*
D10*
X127273809Y-88546666D02*
X127273809Y-88165714D01*
X127226190Y-88046666D02*
X126726190Y-88046666D01*
X127083333Y-87880000D01*
X126726190Y-87713333D01*
X127226190Y-87713333D01*
X126726190Y-87546666D02*
X126726190Y-87260952D01*
X127226190Y-87403809D02*
X126726190Y-87403809D01*
X127226190Y-86808571D02*
X126988095Y-86975238D01*
X127226190Y-87094285D02*
X126726190Y-87094285D01*
X126726190Y-86903809D01*
X126750000Y-86856190D01*
X126773809Y-86832380D01*
X126821428Y-86808571D01*
X126892857Y-86808571D01*
X126940476Y-86832380D01*
X126964285Y-86856190D01*
X126988095Y-86903809D01*
X126988095Y-87094285D01*
X124733809Y-88534761D02*
X124733809Y-88153809D01*
X124686190Y-87749047D02*
X124448095Y-87915714D01*
X124686190Y-88034761D02*
X124186190Y-88034761D01*
X124186190Y-87844285D01*
X124210000Y-87796666D01*
X124233809Y-87772857D01*
X124281428Y-87749047D01*
X124352857Y-87749047D01*
X124400476Y-87772857D01*
X124424285Y-87796666D01*
X124448095Y-87844285D01*
X124448095Y-88034761D01*
X124686190Y-87534761D02*
X124186190Y-87534761D01*
X124186190Y-87415714D01*
X124210000Y-87344285D01*
X124257619Y-87296666D01*
X124305238Y-87272857D01*
X124400476Y-87249047D01*
X124471904Y-87249047D01*
X124567142Y-87272857D01*
X124614761Y-87296666D01*
X124662380Y-87344285D01*
X124686190Y-87415714D01*
X124686190Y-87534761D01*
X124448095Y-86939523D02*
X124686190Y-86939523D01*
X124186190Y-87106190D02*
X124448095Y-86939523D01*
X124186190Y-86772857D01*
X122193809Y-88844285D02*
X122193809Y-88463333D01*
X122098571Y-88058571D02*
X122122380Y-88082380D01*
X122146190Y-88153809D01*
X122146190Y-88201428D01*
X122122380Y-88272857D01*
X122074761Y-88320476D01*
X122027142Y-88344285D01*
X121931904Y-88368095D01*
X121860476Y-88368095D01*
X121765238Y-88344285D01*
X121717619Y-88320476D01*
X121670000Y-88272857D01*
X121646190Y-88201428D01*
X121646190Y-88153809D01*
X121670000Y-88082380D01*
X121693809Y-88058571D01*
X122146190Y-87844285D02*
X121646190Y-87844285D01*
X121884285Y-87844285D02*
X121884285Y-87558571D01*
X122146190Y-87558571D02*
X121646190Y-87558571D01*
X122146190Y-87320476D02*
X121646190Y-87320476D01*
X122146190Y-87034761D01*
X121646190Y-87034761D01*
X121670000Y-86534761D02*
X121646190Y-86582380D01*
X121646190Y-86653809D01*
X121670000Y-86725238D01*
X121717619Y-86772857D01*
X121765238Y-86796666D01*
X121860476Y-86820476D01*
X121931904Y-86820476D01*
X122027142Y-86796666D01*
X122074761Y-86772857D01*
X122122380Y-86725238D01*
X122146190Y-86653809D01*
X122146190Y-86606190D01*
X122122380Y-86534761D01*
X122098571Y-86510952D01*
X121931904Y-86510952D01*
X121931904Y-86606190D01*
X119653809Y-88725238D02*
X119653809Y-88344285D01*
X119582380Y-88249047D02*
X119606190Y-88177619D01*
X119606190Y-88058571D01*
X119582380Y-88010952D01*
X119558571Y-87987142D01*
X119510952Y-87963333D01*
X119463333Y-87963333D01*
X119415714Y-87987142D01*
X119391904Y-88010952D01*
X119368095Y-88058571D01*
X119344285Y-88153809D01*
X119320476Y-88201428D01*
X119296666Y-88225238D01*
X119249047Y-88249047D01*
X119201428Y-88249047D01*
X119153809Y-88225238D01*
X119130000Y-88201428D01*
X119106190Y-88153809D01*
X119106190Y-88034761D01*
X119130000Y-87963333D01*
X119344285Y-87749047D02*
X119344285Y-87582380D01*
X119606190Y-87510952D02*
X119606190Y-87749047D01*
X119106190Y-87749047D01*
X119106190Y-87510952D01*
X119606190Y-87058571D02*
X119606190Y-87296666D01*
X119106190Y-87296666D01*
X119106190Y-86796666D02*
X119106190Y-86749047D01*
X119130000Y-86701428D01*
X119153809Y-86677619D01*
X119201428Y-86653809D01*
X119296666Y-86630000D01*
X119415714Y-86630000D01*
X119510952Y-86653809D01*
X119558571Y-86677619D01*
X119582380Y-86701428D01*
X119606190Y-86749047D01*
X119606190Y-86796666D01*
X119582380Y-86844285D01*
X119558571Y-86868095D01*
X119510952Y-86891904D01*
X119415714Y-86915714D01*
X119296666Y-86915714D01*
X119201428Y-86891904D01*
X119153809Y-86868095D01*
X119130000Y-86844285D01*
X119106190Y-86796666D01*
X117113809Y-88915714D02*
X117113809Y-88534761D01*
X117066190Y-88415714D02*
X116566190Y-88415714D01*
X117066190Y-88177619D02*
X116566190Y-88177619D01*
X117066190Y-87891904D01*
X116566190Y-87891904D01*
X117066190Y-87653809D02*
X116566190Y-87653809D01*
X116566190Y-87534761D01*
X116590000Y-87463333D01*
X116637619Y-87415714D01*
X116685238Y-87391904D01*
X116780476Y-87368095D01*
X116851904Y-87368095D01*
X116947142Y-87391904D01*
X116994761Y-87415714D01*
X117042380Y-87463333D01*
X117066190Y-87534761D01*
X117066190Y-87653809D01*
X116804285Y-87153809D02*
X116804285Y-86987142D01*
X117066190Y-86915714D02*
X117066190Y-87153809D01*
X116566190Y-87153809D01*
X116566190Y-86915714D01*
X116566190Y-86749047D02*
X117066190Y-86415714D01*
X116566190Y-86415714D02*
X117066190Y-86749047D01*
X119683095Y-102179380D02*
X119349761Y-101703190D01*
X119111666Y-102179380D02*
X119111666Y-101179380D01*
X119492619Y-101179380D01*
X119587857Y-101227000D01*
X119635476Y-101274619D01*
X119683095Y-101369857D01*
X119683095Y-101512714D01*
X119635476Y-101607952D01*
X119587857Y-101655571D01*
X119492619Y-101703190D01*
X119111666Y-101703190D01*
X120254523Y-102179380D02*
X120159285Y-102131761D01*
X120111666Y-102084142D01*
X120064047Y-101988904D01*
X120064047Y-101703190D01*
X120111666Y-101607952D01*
X120159285Y-101560333D01*
X120254523Y-101512714D01*
X120397380Y-101512714D01*
X120492619Y-101560333D01*
X120540238Y-101607952D01*
X120587857Y-101703190D01*
X120587857Y-101988904D01*
X120540238Y-102084142D01*
X120492619Y-102131761D01*
X120397380Y-102179380D01*
X120254523Y-102179380D01*
X121445000Y-102131761D02*
X121349761Y-102179380D01*
X121159285Y-102179380D01*
X121064047Y-102131761D01*
X121016428Y-102084142D01*
X120968809Y-101988904D01*
X120968809Y-101703190D01*
X121016428Y-101607952D01*
X121064047Y-101560333D01*
X121159285Y-101512714D01*
X121349761Y-101512714D01*
X121445000Y-101560333D01*
X121730714Y-101512714D02*
X122111666Y-101512714D01*
X121873571Y-101179380D02*
X121873571Y-102036523D01*
X121921190Y-102131761D01*
X122016428Y-102179380D01*
X122111666Y-102179380D01*
X122825952Y-102131761D02*
X122730714Y-102179380D01*
X122540238Y-102179380D01*
X122445000Y-102131761D01*
X122397380Y-102036523D01*
X122397380Y-101655571D01*
X122445000Y-101560333D01*
X122540238Y-101512714D01*
X122730714Y-101512714D01*
X122825952Y-101560333D01*
X122873571Y-101655571D01*
X122873571Y-101750809D01*
X122397380Y-101846047D01*
X123730714Y-102131761D02*
X123635476Y-102179380D01*
X123445000Y-102179380D01*
X123349761Y-102131761D01*
X123302142Y-102084142D01*
X123254523Y-101988904D01*
X123254523Y-101703190D01*
X123302142Y-101607952D01*
X123349761Y-101560333D01*
X123445000Y-101512714D01*
X123635476Y-101512714D01*
X123730714Y-101560333D01*
X124873571Y-101274619D02*
X124921190Y-101227000D01*
X125016428Y-101179380D01*
X125254523Y-101179380D01*
X125349761Y-101227000D01*
X125397380Y-101274619D01*
X125445000Y-101369857D01*
X125445000Y-101465095D01*
X125397380Y-101607952D01*
X124825952Y-102179380D01*
X125445000Y-102179380D01*
X126302142Y-101179380D02*
X126111666Y-101179380D01*
X126016428Y-101227000D01*
X125968809Y-101274619D01*
X125873571Y-101417476D01*
X125825952Y-101607952D01*
X125825952Y-101988904D01*
X125873571Y-102084142D01*
X125921190Y-102131761D01*
X126016428Y-102179380D01*
X126206904Y-102179380D01*
X126302142Y-102131761D01*
X126349761Y-102084142D01*
X126397380Y-101988904D01*
X126397380Y-101750809D01*
X126349761Y-101655571D01*
X126302142Y-101607952D01*
X126206904Y-101560333D01*
X126016428Y-101560333D01*
X125921190Y-101607952D01*
X125873571Y-101655571D01*
X125825952Y-101750809D01*
X126825952Y-101798428D02*
X127587857Y-101798428D01*
X128064047Y-101512714D02*
X128064047Y-102512714D01*
X128064047Y-101560333D02*
X128159285Y-101512714D01*
X128349761Y-101512714D01*
X128445000Y-101560333D01*
X128492619Y-101607952D01*
X128540238Y-101703190D01*
X128540238Y-101988904D01*
X128492619Y-102084142D01*
X128445000Y-102131761D01*
X128349761Y-102179380D01*
X128159285Y-102179380D01*
X128064047Y-102131761D01*
X128968809Y-102179380D02*
X128968809Y-101512714D01*
X128968809Y-101179380D02*
X128921190Y-101227000D01*
X128968809Y-101274619D01*
X129016428Y-101227000D01*
X128968809Y-101179380D01*
X128968809Y-101274619D01*
X129445000Y-101512714D02*
X129445000Y-102179380D01*
X129445000Y-101607952D02*
X129492619Y-101560333D01*
X129587857Y-101512714D01*
X129730714Y-101512714D01*
X129825952Y-101560333D01*
X129873571Y-101655571D01*
X129873571Y-102179380D01*
X131445000Y-101655571D02*
X131111666Y-101655571D01*
X131111666Y-102179380D02*
X131111666Y-101179380D01*
X131587857Y-101179380D01*
X132111666Y-102179380D02*
X132016428Y-102131761D01*
X131968809Y-102036523D01*
X131968809Y-101179380D01*
X132635476Y-102179380D02*
X132540238Y-102131761D01*
X132492619Y-102084142D01*
X132445000Y-101988904D01*
X132445000Y-101703190D01*
X132492619Y-101607952D01*
X132540238Y-101560333D01*
X132635476Y-101512714D01*
X132778333Y-101512714D01*
X132873571Y-101560333D01*
X132921190Y-101607952D01*
X132968809Y-101703190D01*
X132968809Y-101988904D01*
X132921190Y-102084142D01*
X132873571Y-102131761D01*
X132778333Y-102179380D01*
X132635476Y-102179380D01*
X133397380Y-101512714D02*
X133397380Y-102512714D01*
X133397380Y-101560333D02*
X133492619Y-101512714D01*
X133683095Y-101512714D01*
X133778333Y-101560333D01*
X133825952Y-101607952D01*
X133873571Y-101703190D01*
X133873571Y-101988904D01*
X133825952Y-102084142D01*
X133778333Y-102131761D01*
X133683095Y-102179380D01*
X133492619Y-102179380D01*
X133397380Y-102131761D01*
X134302142Y-101512714D02*
X134302142Y-102512714D01*
X134302142Y-101560333D02*
X134397380Y-101512714D01*
X134587857Y-101512714D01*
X134683095Y-101560333D01*
X134730714Y-101607952D01*
X134778333Y-101703190D01*
X134778333Y-101988904D01*
X134730714Y-102084142D01*
X134683095Y-102131761D01*
X134587857Y-102179380D01*
X134397380Y-102179380D01*
X134302142Y-102131761D01*
X135111666Y-101512714D02*
X135349761Y-102179380D01*
X135587857Y-101512714D02*
X135349761Y-102179380D01*
X135254523Y-102417476D01*
X135206904Y-102465095D01*
X135111666Y-102512714D01*
X137302142Y-102084142D02*
X137254523Y-102131761D01*
X137111666Y-102179380D01*
X137016428Y-102179380D01*
X136873571Y-102131761D01*
X136778333Y-102036523D01*
X136730714Y-101941285D01*
X136683095Y-101750809D01*
X136683095Y-101607952D01*
X136730714Y-101417476D01*
X136778333Y-101322238D01*
X136873571Y-101227000D01*
X137016428Y-101179380D01*
X137111666Y-101179380D01*
X137254523Y-101227000D01*
X137302142Y-101274619D01*
X137873571Y-102179380D02*
X137778333Y-102131761D01*
X137730714Y-102084142D01*
X137683095Y-101988904D01*
X137683095Y-101703190D01*
X137730714Y-101607952D01*
X137778333Y-101560333D01*
X137873571Y-101512714D01*
X138016428Y-101512714D01*
X138111666Y-101560333D01*
X138159285Y-101607952D01*
X138206904Y-101703190D01*
X138206904Y-101988904D01*
X138159285Y-102084142D01*
X138111666Y-102131761D01*
X138016428Y-102179380D01*
X137873571Y-102179380D01*
X138635476Y-101512714D02*
X138635476Y-102179380D01*
X138635476Y-101607952D02*
X138683095Y-101560333D01*
X138778333Y-101512714D01*
X138921190Y-101512714D01*
X139016428Y-101560333D01*
X139064047Y-101655571D01*
X139064047Y-102179380D01*
X139540238Y-101512714D02*
X139540238Y-102179380D01*
X139540238Y-101607952D02*
X139587857Y-101560333D01*
X139683095Y-101512714D01*
X139825952Y-101512714D01*
X139921190Y-101560333D01*
X139968809Y-101655571D01*
X139968809Y-102179380D01*
X140825952Y-102131761D02*
X140730714Y-102179380D01*
X140540238Y-102179380D01*
X140445000Y-102131761D01*
X140397380Y-102036523D01*
X140397380Y-101655571D01*
X140445000Y-101560333D01*
X140540238Y-101512714D01*
X140730714Y-101512714D01*
X140825952Y-101560333D01*
X140873571Y-101655571D01*
X140873571Y-101750809D01*
X140397380Y-101846047D01*
X141730714Y-102131761D02*
X141635476Y-102179380D01*
X141445000Y-102179380D01*
X141349761Y-102131761D01*
X141302142Y-102084142D01*
X141254523Y-101988904D01*
X141254523Y-101703190D01*
X141302142Y-101607952D01*
X141349761Y-101560333D01*
X141445000Y-101512714D01*
X141635476Y-101512714D01*
X141730714Y-101560333D01*
X142016428Y-101512714D02*
X142397380Y-101512714D01*
X142159285Y-101179380D02*
X142159285Y-102036523D01*
X142206904Y-102131761D01*
X142302142Y-102179380D01*
X142397380Y-102179380D01*
X142873571Y-102179380D02*
X142778333Y-102131761D01*
X142730714Y-102084142D01*
X142683095Y-101988904D01*
X142683095Y-101703190D01*
X142730714Y-101607952D01*
X142778333Y-101560333D01*
X142873571Y-101512714D01*
X143016428Y-101512714D01*
X143111666Y-101560333D01*
X143159285Y-101607952D01*
X143206904Y-101703190D01*
X143206904Y-101988904D01*
X143159285Y-102084142D01*
X143111666Y-102131761D01*
X143016428Y-102179380D01*
X142873571Y-102179380D01*
X143635476Y-102179380D02*
X143635476Y-101512714D01*
X143635476Y-101703190D02*
X143683095Y-101607952D01*
X143730714Y-101560333D01*
X143825952Y-101512714D01*
X143921190Y-101512714D01*
X118968761Y-120816666D02*
X119444952Y-120816666D01*
X118873523Y-121102380D02*
X119206857Y-120102380D01*
X119540190Y-121102380D01*
X119873523Y-121102380D02*
X119873523Y-120435714D01*
X119873523Y-120530952D02*
X119921142Y-120483333D01*
X120016380Y-120435714D01*
X120159238Y-120435714D01*
X120254476Y-120483333D01*
X120302095Y-120578571D01*
X120302095Y-121102380D01*
X120302095Y-120578571D02*
X120349714Y-120483333D01*
X120444952Y-120435714D01*
X120587809Y-120435714D01*
X120683047Y-120483333D01*
X120730666Y-120578571D01*
X120730666Y-121102380D01*
X121206857Y-121102380D02*
X121206857Y-120435714D01*
X121206857Y-120102380D02*
X121159238Y-120150000D01*
X121206857Y-120197619D01*
X121254476Y-120150000D01*
X121206857Y-120102380D01*
X121206857Y-120197619D01*
X122111619Y-120435714D02*
X122111619Y-121245238D01*
X122064000Y-121340476D01*
X122016380Y-121388095D01*
X121921142Y-121435714D01*
X121778285Y-121435714D01*
X121683047Y-121388095D01*
X122111619Y-121054761D02*
X122016380Y-121102380D01*
X121825904Y-121102380D01*
X121730666Y-121054761D01*
X121683047Y-121007142D01*
X121635428Y-120911904D01*
X121635428Y-120626190D01*
X121683047Y-120530952D01*
X121730666Y-120483333D01*
X121825904Y-120435714D01*
X122016380Y-120435714D01*
X122111619Y-120483333D01*
X123016380Y-121102380D02*
X123016380Y-120578571D01*
X122968761Y-120483333D01*
X122873523Y-120435714D01*
X122683047Y-120435714D01*
X122587809Y-120483333D01*
X123016380Y-121054761D02*
X122921142Y-121102380D01*
X122683047Y-121102380D01*
X122587809Y-121054761D01*
X122540190Y-120959523D01*
X122540190Y-120864285D01*
X122587809Y-120769047D01*
X122683047Y-120721428D01*
X122921142Y-120721428D01*
X123016380Y-120673809D01*
X124159238Y-120102380D02*
X124778285Y-120102380D01*
X124444952Y-120483333D01*
X124587809Y-120483333D01*
X124683047Y-120530952D01*
X124730666Y-120578571D01*
X124778285Y-120673809D01*
X124778285Y-120911904D01*
X124730666Y-121007142D01*
X124683047Y-121054761D01*
X124587809Y-121102380D01*
X124302095Y-121102380D01*
X124206857Y-121054761D01*
X124159238Y-121007142D01*
X125635428Y-120435714D02*
X125635428Y-121102380D01*
X125397333Y-120054761D02*
X125159238Y-120769047D01*
X125778285Y-120769047D01*
X126159238Y-120721428D02*
X126921142Y-120721428D01*
X127397333Y-120435714D02*
X127397333Y-121435714D01*
X127397333Y-120483333D02*
X127492571Y-120435714D01*
X127683047Y-120435714D01*
X127778285Y-120483333D01*
X127825904Y-120530952D01*
X127873523Y-120626190D01*
X127873523Y-120911904D01*
X127825904Y-121007142D01*
X127778285Y-121054761D01*
X127683047Y-121102380D01*
X127492571Y-121102380D01*
X127397333Y-121054761D01*
X128302095Y-121102380D02*
X128302095Y-120435714D01*
X128302095Y-120102380D02*
X128254476Y-120150000D01*
X128302095Y-120197619D01*
X128349714Y-120150000D01*
X128302095Y-120102380D01*
X128302095Y-120197619D01*
X128778285Y-120435714D02*
X128778285Y-121102380D01*
X128778285Y-120530952D02*
X128825904Y-120483333D01*
X128921142Y-120435714D01*
X129064000Y-120435714D01*
X129159238Y-120483333D01*
X129206857Y-120578571D01*
X129206857Y-121102380D01*
X130778285Y-120578571D02*
X130444952Y-120578571D01*
X130444952Y-121102380D02*
X130444952Y-120102380D01*
X130921142Y-120102380D01*
X131444952Y-121102380D02*
X131349714Y-121054761D01*
X131302095Y-120959523D01*
X131302095Y-120102380D01*
X131968761Y-121102380D02*
X131873523Y-121054761D01*
X131825904Y-121007142D01*
X131778285Y-120911904D01*
X131778285Y-120626190D01*
X131825904Y-120530952D01*
X131873523Y-120483333D01*
X131968761Y-120435714D01*
X132111619Y-120435714D01*
X132206857Y-120483333D01*
X132254476Y-120530952D01*
X132302095Y-120626190D01*
X132302095Y-120911904D01*
X132254476Y-121007142D01*
X132206857Y-121054761D01*
X132111619Y-121102380D01*
X131968761Y-121102380D01*
X132730666Y-120435714D02*
X132730666Y-121435714D01*
X132730666Y-120483333D02*
X132825904Y-120435714D01*
X133016380Y-120435714D01*
X133111619Y-120483333D01*
X133159238Y-120530952D01*
X133206857Y-120626190D01*
X133206857Y-120911904D01*
X133159238Y-121007142D01*
X133111619Y-121054761D01*
X133016380Y-121102380D01*
X132825904Y-121102380D01*
X132730666Y-121054761D01*
X133635428Y-120435714D02*
X133635428Y-121435714D01*
X133635428Y-120483333D02*
X133730666Y-120435714D01*
X133921142Y-120435714D01*
X134016380Y-120483333D01*
X134064000Y-120530952D01*
X134111619Y-120626190D01*
X134111619Y-120911904D01*
X134064000Y-121007142D01*
X134016380Y-121054761D01*
X133921142Y-121102380D01*
X133730666Y-121102380D01*
X133635428Y-121054761D01*
X134444952Y-120435714D02*
X134683047Y-121102380D01*
X134921142Y-120435714D02*
X134683047Y-121102380D01*
X134587809Y-121340476D01*
X134540190Y-121388095D01*
X134444952Y-121435714D01*
X136635428Y-121007142D02*
X136587809Y-121054761D01*
X136444952Y-121102380D01*
X136349714Y-121102380D01*
X136206857Y-121054761D01*
X136111619Y-120959523D01*
X136064000Y-120864285D01*
X136016380Y-120673809D01*
X136016380Y-120530952D01*
X136064000Y-120340476D01*
X136111619Y-120245238D01*
X136206857Y-120150000D01*
X136349714Y-120102380D01*
X136444952Y-120102380D01*
X136587809Y-120150000D01*
X136635428Y-120197619D01*
X137206857Y-121102380D02*
X137111619Y-121054761D01*
X137064000Y-121007142D01*
X137016380Y-120911904D01*
X137016380Y-120626190D01*
X137064000Y-120530952D01*
X137111619Y-120483333D01*
X137206857Y-120435714D01*
X137349714Y-120435714D01*
X137444952Y-120483333D01*
X137492571Y-120530952D01*
X137540190Y-120626190D01*
X137540190Y-120911904D01*
X137492571Y-121007142D01*
X137444952Y-121054761D01*
X137349714Y-121102380D01*
X137206857Y-121102380D01*
X137968761Y-120435714D02*
X137968761Y-121102380D01*
X137968761Y-120530952D02*
X138016380Y-120483333D01*
X138111619Y-120435714D01*
X138254476Y-120435714D01*
X138349714Y-120483333D01*
X138397333Y-120578571D01*
X138397333Y-121102380D01*
X138873523Y-120435714D02*
X138873523Y-121102380D01*
X138873523Y-120530952D02*
X138921142Y-120483333D01*
X139016380Y-120435714D01*
X139159238Y-120435714D01*
X139254476Y-120483333D01*
X139302095Y-120578571D01*
X139302095Y-121102380D01*
X140159238Y-121054761D02*
X140064000Y-121102380D01*
X139873523Y-121102380D01*
X139778285Y-121054761D01*
X139730666Y-120959523D01*
X139730666Y-120578571D01*
X139778285Y-120483333D01*
X139873523Y-120435714D01*
X140064000Y-120435714D01*
X140159238Y-120483333D01*
X140206857Y-120578571D01*
X140206857Y-120673809D01*
X139730666Y-120769047D01*
X141064000Y-121054761D02*
X140968761Y-121102380D01*
X140778285Y-121102380D01*
X140683047Y-121054761D01*
X140635428Y-121007142D01*
X140587809Y-120911904D01*
X140587809Y-120626190D01*
X140635428Y-120530952D01*
X140683047Y-120483333D01*
X140778285Y-120435714D01*
X140968761Y-120435714D01*
X141064000Y-120483333D01*
X141349714Y-120435714D02*
X141730666Y-120435714D01*
X141492571Y-120102380D02*
X141492571Y-120959523D01*
X141540190Y-121054761D01*
X141635428Y-121102380D01*
X141730666Y-121102380D01*
X142206857Y-121102380D02*
X142111619Y-121054761D01*
X142064000Y-121007142D01*
X142016380Y-120911904D01*
X142016380Y-120626190D01*
X142064000Y-120530952D01*
X142111619Y-120483333D01*
X142206857Y-120435714D01*
X142349714Y-120435714D01*
X142444952Y-120483333D01*
X142492571Y-120530952D01*
X142540190Y-120626190D01*
X142540190Y-120911904D01*
X142492571Y-121007142D01*
X142444952Y-121054761D01*
X142349714Y-121102380D01*
X142206857Y-121102380D01*
X142968761Y-121102380D02*
X142968761Y-120435714D01*
X142968761Y-120626190D02*
X143016380Y-120530952D01*
X143064000Y-120483333D01*
X143159238Y-120435714D01*
X143254476Y-120435714D01*
X94734619Y-118673571D02*
X94401285Y-118673571D01*
X94401285Y-119197380D02*
X94401285Y-118197380D01*
X94877476Y-118197380D01*
X95401285Y-119197380D02*
X95306047Y-119149761D01*
X95258428Y-119054523D01*
X95258428Y-118197380D01*
X95925095Y-119197380D02*
X95829857Y-119149761D01*
X95782238Y-119102142D01*
X95734619Y-119006904D01*
X95734619Y-118721190D01*
X95782238Y-118625952D01*
X95829857Y-118578333D01*
X95925095Y-118530714D01*
X96067952Y-118530714D01*
X96163190Y-118578333D01*
X96210809Y-118625952D01*
X96258428Y-118721190D01*
X96258428Y-119006904D01*
X96210809Y-119102142D01*
X96163190Y-119149761D01*
X96067952Y-119197380D01*
X95925095Y-119197380D01*
X96687000Y-118530714D02*
X96687000Y-119530714D01*
X96687000Y-118578333D02*
X96782238Y-118530714D01*
X96972714Y-118530714D01*
X97067952Y-118578333D01*
X97115571Y-118625952D01*
X97163190Y-118721190D01*
X97163190Y-119006904D01*
X97115571Y-119102142D01*
X97067952Y-119149761D01*
X96972714Y-119197380D01*
X96782238Y-119197380D01*
X96687000Y-119149761D01*
X97591761Y-118530714D02*
X97591761Y-119530714D01*
X97591761Y-118578333D02*
X97687000Y-118530714D01*
X97877476Y-118530714D01*
X97972714Y-118578333D01*
X98020333Y-118625952D01*
X98067952Y-118721190D01*
X98067952Y-119006904D01*
X98020333Y-119102142D01*
X97972714Y-119149761D01*
X97877476Y-119197380D01*
X97687000Y-119197380D01*
X97591761Y-119149761D01*
X98401285Y-118530714D02*
X98639380Y-119197380D01*
X98877476Y-118530714D02*
X98639380Y-119197380D01*
X98544142Y-119435476D01*
X98496523Y-119483095D01*
X98401285Y-119530714D01*
X100020333Y-119197380D02*
X100020333Y-118197380D01*
X100401285Y-118197380D01*
X100496523Y-118245000D01*
X100544142Y-118292619D01*
X100591761Y-118387857D01*
X100591761Y-118530714D01*
X100544142Y-118625952D01*
X100496523Y-118673571D01*
X100401285Y-118721190D01*
X100020333Y-118721190D01*
X101163190Y-119197380D02*
X101067952Y-119149761D01*
X101020333Y-119102142D01*
X100972714Y-119006904D01*
X100972714Y-118721190D01*
X101020333Y-118625952D01*
X101067952Y-118578333D01*
X101163190Y-118530714D01*
X101306047Y-118530714D01*
X101401285Y-118578333D01*
X101448904Y-118625952D01*
X101496523Y-118721190D01*
X101496523Y-119006904D01*
X101448904Y-119102142D01*
X101401285Y-119149761D01*
X101306047Y-119197380D01*
X101163190Y-119197380D01*
X101829857Y-118530714D02*
X102020333Y-119197380D01*
X102210809Y-118721190D01*
X102401285Y-119197380D01*
X102591761Y-118530714D01*
X103353666Y-119149761D02*
X103258428Y-119197380D01*
X103067952Y-119197380D01*
X102972714Y-119149761D01*
X102925095Y-119054523D01*
X102925095Y-118673571D01*
X102972714Y-118578333D01*
X103067952Y-118530714D01*
X103258428Y-118530714D01*
X103353666Y-118578333D01*
X103401285Y-118673571D01*
X103401285Y-118768809D01*
X102925095Y-118864047D01*
X103829857Y-119197380D02*
X103829857Y-118530714D01*
X103829857Y-118721190D02*
X103877476Y-118625952D01*
X103925095Y-118578333D01*
X104020333Y-118530714D01*
X104115571Y-118530714D01*
X147546190Y-118502857D02*
X147046190Y-118502857D01*
X147546190Y-118217142D01*
X147046190Y-118217142D01*
X147498571Y-117693333D02*
X147522380Y-117717142D01*
X147546190Y-117788571D01*
X147546190Y-117836190D01*
X147522380Y-117907619D01*
X147474761Y-117955238D01*
X147427142Y-117979047D01*
X147331904Y-118002857D01*
X147260476Y-118002857D01*
X147165238Y-117979047D01*
X147117619Y-117955238D01*
X147070000Y-117907619D01*
X147046190Y-117836190D01*
X147046190Y-117788571D01*
X147070000Y-117717142D01*
X147093809Y-117693333D01*
X137386190Y-118502857D02*
X136886190Y-118502857D01*
X137386190Y-118217142D01*
X136886190Y-118217142D01*
X137338571Y-117693333D02*
X137362380Y-117717142D01*
X137386190Y-117788571D01*
X137386190Y-117836190D01*
X137362380Y-117907619D01*
X137314761Y-117955238D01*
X137267142Y-117979047D01*
X137171904Y-118002857D01*
X137100476Y-118002857D01*
X137005238Y-117979047D01*
X136957619Y-117955238D01*
X136910000Y-117907619D01*
X136886190Y-117836190D01*
X136886190Y-117788571D01*
X136910000Y-117717142D01*
X136933809Y-117693333D01*
X129766190Y-100214857D02*
X129266190Y-100214857D01*
X129766190Y-99929142D01*
X129266190Y-99929142D01*
X129718571Y-99405333D02*
X129742380Y-99429142D01*
X129766190Y-99500571D01*
X129766190Y-99548190D01*
X129742380Y-99619619D01*
X129694761Y-99667238D01*
X129647142Y-99691047D01*
X129551904Y-99714857D01*
X129480476Y-99714857D01*
X129385238Y-99691047D01*
X129337619Y-99667238D01*
X129290000Y-99619619D01*
X129266190Y-99548190D01*
X129266190Y-99500571D01*
X129290000Y-99429142D01*
X129313809Y-99405333D01*
X127226190Y-100214857D02*
X126726190Y-100214857D01*
X127226190Y-99929142D01*
X126726190Y-99929142D01*
X127178571Y-99405333D02*
X127202380Y-99429142D01*
X127226190Y-99500571D01*
X127226190Y-99548190D01*
X127202380Y-99619619D01*
X127154761Y-99667238D01*
X127107142Y-99691047D01*
X127011904Y-99714857D01*
X126940476Y-99714857D01*
X126845238Y-99691047D01*
X126797619Y-99667238D01*
X126750000Y-99619619D01*
X126726190Y-99548190D01*
X126726190Y-99500571D01*
X126750000Y-99429142D01*
X126773809Y-99405333D01*
X124186190Y-100488666D02*
X124686190Y-100322000D01*
X124186190Y-100155333D01*
X124638571Y-99702952D02*
X124662380Y-99726761D01*
X124686190Y-99798190D01*
X124686190Y-99845809D01*
X124662380Y-99917238D01*
X124614761Y-99964857D01*
X124567142Y-99988666D01*
X124471904Y-100012476D01*
X124400476Y-100012476D01*
X124305238Y-99988666D01*
X124257619Y-99964857D01*
X124210000Y-99917238D01*
X124186190Y-99845809D01*
X124186190Y-99798190D01*
X124210000Y-99726761D01*
X124233809Y-99702952D01*
X124638571Y-99202952D02*
X124662380Y-99226761D01*
X124686190Y-99298190D01*
X124686190Y-99345809D01*
X124662380Y-99417238D01*
X124614761Y-99464857D01*
X124567142Y-99488666D01*
X124471904Y-99512476D01*
X124400476Y-99512476D01*
X124305238Y-99488666D01*
X124257619Y-99464857D01*
X124210000Y-99417238D01*
X124186190Y-99345809D01*
X124186190Y-99298190D01*
X124210000Y-99226761D01*
X124233809Y-99202952D01*
X121646190Y-100488666D02*
X122146190Y-100322000D01*
X121646190Y-100155333D01*
X122098571Y-99702952D02*
X122122380Y-99726761D01*
X122146190Y-99798190D01*
X122146190Y-99845809D01*
X122122380Y-99917238D01*
X122074761Y-99964857D01*
X122027142Y-99988666D01*
X121931904Y-100012476D01*
X121860476Y-100012476D01*
X121765238Y-99988666D01*
X121717619Y-99964857D01*
X121670000Y-99917238D01*
X121646190Y-99845809D01*
X121646190Y-99798190D01*
X121670000Y-99726761D01*
X121693809Y-99702952D01*
X122098571Y-99202952D02*
X122122380Y-99226761D01*
X122146190Y-99298190D01*
X122146190Y-99345809D01*
X122122380Y-99417238D01*
X122074761Y-99464857D01*
X122027142Y-99488666D01*
X121931904Y-99512476D01*
X121860476Y-99512476D01*
X121765238Y-99488666D01*
X121717619Y-99464857D01*
X121670000Y-99417238D01*
X121646190Y-99345809D01*
X121646190Y-99298190D01*
X121670000Y-99226761D01*
X121693809Y-99202952D01*
X119106190Y-100488666D02*
X119606190Y-100322000D01*
X119106190Y-100155333D01*
X119558571Y-99702952D02*
X119582380Y-99726761D01*
X119606190Y-99798190D01*
X119606190Y-99845809D01*
X119582380Y-99917238D01*
X119534761Y-99964857D01*
X119487142Y-99988666D01*
X119391904Y-100012476D01*
X119320476Y-100012476D01*
X119225238Y-99988666D01*
X119177619Y-99964857D01*
X119130000Y-99917238D01*
X119106190Y-99845809D01*
X119106190Y-99798190D01*
X119130000Y-99726761D01*
X119153809Y-99702952D01*
X119558571Y-99202952D02*
X119582380Y-99226761D01*
X119606190Y-99298190D01*
X119606190Y-99345809D01*
X119582380Y-99417238D01*
X119534761Y-99464857D01*
X119487142Y-99488666D01*
X119391904Y-99512476D01*
X119320476Y-99512476D01*
X119225238Y-99488666D01*
X119177619Y-99464857D01*
X119130000Y-99417238D01*
X119106190Y-99345809D01*
X119106190Y-99298190D01*
X119130000Y-99226761D01*
X119153809Y-99202952D01*
X116566190Y-100488666D02*
X117066190Y-100322000D01*
X116566190Y-100155333D01*
X117018571Y-99702952D02*
X117042380Y-99726761D01*
X117066190Y-99798190D01*
X117066190Y-99845809D01*
X117042380Y-99917238D01*
X116994761Y-99964857D01*
X116947142Y-99988666D01*
X116851904Y-100012476D01*
X116780476Y-100012476D01*
X116685238Y-99988666D01*
X116637619Y-99964857D01*
X116590000Y-99917238D01*
X116566190Y-99845809D01*
X116566190Y-99798190D01*
X116590000Y-99726761D01*
X116613809Y-99702952D01*
X117018571Y-99202952D02*
X117042380Y-99226761D01*
X117066190Y-99298190D01*
X117066190Y-99345809D01*
X117042380Y-99417238D01*
X116994761Y-99464857D01*
X116947142Y-99488666D01*
X116851904Y-99512476D01*
X116780476Y-99512476D01*
X116685238Y-99488666D01*
X116637619Y-99464857D01*
X116590000Y-99417238D01*
X116566190Y-99345809D01*
X116566190Y-99298190D01*
X116590000Y-99226761D01*
X116613809Y-99202952D01*
X144530000Y-106298952D02*
X144506190Y-106346571D01*
X144506190Y-106418000D01*
X144530000Y-106489428D01*
X144577619Y-106537047D01*
X144625238Y-106560857D01*
X144720476Y-106584666D01*
X144791904Y-106584666D01*
X144887142Y-106560857D01*
X144934761Y-106537047D01*
X144982380Y-106489428D01*
X145006190Y-106418000D01*
X145006190Y-106370380D01*
X144982380Y-106298952D01*
X144958571Y-106275142D01*
X144791904Y-106275142D01*
X144791904Y-106370380D01*
X145006190Y-106060857D02*
X144506190Y-106060857D01*
X145006190Y-105775142D01*
X144506190Y-105775142D01*
X145006190Y-105537047D02*
X144506190Y-105537047D01*
X144506190Y-105418000D01*
X144530000Y-105346571D01*
X144577619Y-105298952D01*
X144625238Y-105275142D01*
X144720476Y-105251333D01*
X144791904Y-105251333D01*
X144887142Y-105275142D01*
X144934761Y-105298952D01*
X144982380Y-105346571D01*
X145006190Y-105418000D01*
X145006190Y-105537047D01*
X147070000Y-106298952D02*
X147046190Y-106346571D01*
X147046190Y-106418000D01*
X147070000Y-106489428D01*
X147117619Y-106537047D01*
X147165238Y-106560857D01*
X147260476Y-106584666D01*
X147331904Y-106584666D01*
X147427142Y-106560857D01*
X147474761Y-106537047D01*
X147522380Y-106489428D01*
X147546190Y-106418000D01*
X147546190Y-106370380D01*
X147522380Y-106298952D01*
X147498571Y-106275142D01*
X147331904Y-106275142D01*
X147331904Y-106370380D01*
X147546190Y-106060857D02*
X147046190Y-106060857D01*
X147546190Y-105775142D01*
X147046190Y-105775142D01*
X147546190Y-105537047D02*
X147046190Y-105537047D01*
X147046190Y-105418000D01*
X147070000Y-105346571D01*
X147117619Y-105298952D01*
X147165238Y-105275142D01*
X147260476Y-105251333D01*
X147331904Y-105251333D01*
X147427142Y-105275142D01*
X147474761Y-105298952D01*
X147522380Y-105346571D01*
X147546190Y-105418000D01*
X147546190Y-105537047D01*
X149610000Y-106298952D02*
X149586190Y-106346571D01*
X149586190Y-106418000D01*
X149610000Y-106489428D01*
X149657619Y-106537047D01*
X149705238Y-106560857D01*
X149800476Y-106584666D01*
X149871904Y-106584666D01*
X149967142Y-106560857D01*
X150014761Y-106537047D01*
X150062380Y-106489428D01*
X150086190Y-106418000D01*
X150086190Y-106370380D01*
X150062380Y-106298952D01*
X150038571Y-106275142D01*
X149871904Y-106275142D01*
X149871904Y-106370380D01*
X150086190Y-106060857D02*
X149586190Y-106060857D01*
X150086190Y-105775142D01*
X149586190Y-105775142D01*
X150086190Y-105537047D02*
X149586190Y-105537047D01*
X149586190Y-105418000D01*
X149610000Y-105346571D01*
X149657619Y-105298952D01*
X149705238Y-105275142D01*
X149800476Y-105251333D01*
X149871904Y-105251333D01*
X149967142Y-105275142D01*
X150014761Y-105298952D01*
X150062380Y-105346571D01*
X150086190Y-105418000D01*
X150086190Y-105537047D01*
X129290000Y-106298952D02*
X129266190Y-106346571D01*
X129266190Y-106418000D01*
X129290000Y-106489428D01*
X129337619Y-106537047D01*
X129385238Y-106560857D01*
X129480476Y-106584666D01*
X129551904Y-106584666D01*
X129647142Y-106560857D01*
X129694761Y-106537047D01*
X129742380Y-106489428D01*
X129766190Y-106418000D01*
X129766190Y-106370380D01*
X129742380Y-106298952D01*
X129718571Y-106275142D01*
X129551904Y-106275142D01*
X129551904Y-106370380D01*
X129766190Y-106060857D02*
X129266190Y-106060857D01*
X129766190Y-105775142D01*
X129266190Y-105775142D01*
X129766190Y-105537047D02*
X129266190Y-105537047D01*
X129266190Y-105418000D01*
X129290000Y-105346571D01*
X129337619Y-105298952D01*
X129385238Y-105275142D01*
X129480476Y-105251333D01*
X129551904Y-105251333D01*
X129647142Y-105275142D01*
X129694761Y-105298952D01*
X129742380Y-105346571D01*
X129766190Y-105418000D01*
X129766190Y-105537047D01*
X126750000Y-106298952D02*
X126726190Y-106346571D01*
X126726190Y-106418000D01*
X126750000Y-106489428D01*
X126797619Y-106537047D01*
X126845238Y-106560857D01*
X126940476Y-106584666D01*
X127011904Y-106584666D01*
X127107142Y-106560857D01*
X127154761Y-106537047D01*
X127202380Y-106489428D01*
X127226190Y-106418000D01*
X127226190Y-106370380D01*
X127202380Y-106298952D01*
X127178571Y-106275142D01*
X127011904Y-106275142D01*
X127011904Y-106370380D01*
X127226190Y-106060857D02*
X126726190Y-106060857D01*
X127226190Y-105775142D01*
X126726190Y-105775142D01*
X127226190Y-105537047D02*
X126726190Y-105537047D01*
X126726190Y-105418000D01*
X126750000Y-105346571D01*
X126797619Y-105298952D01*
X126845238Y-105275142D01*
X126940476Y-105251333D01*
X127011904Y-105251333D01*
X127107142Y-105275142D01*
X127154761Y-105298952D01*
X127202380Y-105346571D01*
X127226190Y-105418000D01*
X127226190Y-105537047D01*
X136910000Y-106298952D02*
X136886190Y-106346571D01*
X136886190Y-106418000D01*
X136910000Y-106489428D01*
X136957619Y-106537047D01*
X137005238Y-106560857D01*
X137100476Y-106584666D01*
X137171904Y-106584666D01*
X137267142Y-106560857D01*
X137314761Y-106537047D01*
X137362380Y-106489428D01*
X137386190Y-106418000D01*
X137386190Y-106370380D01*
X137362380Y-106298952D01*
X137338571Y-106275142D01*
X137171904Y-106275142D01*
X137171904Y-106370380D01*
X137386190Y-106060857D02*
X136886190Y-106060857D01*
X137386190Y-105775142D01*
X136886190Y-105775142D01*
X137386190Y-105537047D02*
X136886190Y-105537047D01*
X136886190Y-105418000D01*
X136910000Y-105346571D01*
X136957619Y-105298952D01*
X137005238Y-105275142D01*
X137100476Y-105251333D01*
X137171904Y-105251333D01*
X137267142Y-105275142D01*
X137314761Y-105298952D01*
X137362380Y-105346571D01*
X137386190Y-105418000D01*
X137386190Y-105537047D01*
X131830000Y-106298952D02*
X131806190Y-106346571D01*
X131806190Y-106418000D01*
X131830000Y-106489428D01*
X131877619Y-106537047D01*
X131925238Y-106560857D01*
X132020476Y-106584666D01*
X132091904Y-106584666D01*
X132187142Y-106560857D01*
X132234761Y-106537047D01*
X132282380Y-106489428D01*
X132306190Y-106418000D01*
X132306190Y-106370380D01*
X132282380Y-106298952D01*
X132258571Y-106275142D01*
X132091904Y-106275142D01*
X132091904Y-106370380D01*
X132306190Y-106060857D02*
X131806190Y-106060857D01*
X132306190Y-105775142D01*
X131806190Y-105775142D01*
X132306190Y-105537047D02*
X131806190Y-105537047D01*
X131806190Y-105418000D01*
X131830000Y-105346571D01*
X131877619Y-105298952D01*
X131925238Y-105275142D01*
X132020476Y-105251333D01*
X132091904Y-105251333D01*
X132187142Y-105275142D01*
X132234761Y-105298952D01*
X132282380Y-105346571D01*
X132306190Y-105418000D01*
X132306190Y-105537047D01*
X134370000Y-106298952D02*
X134346190Y-106346571D01*
X134346190Y-106418000D01*
X134370000Y-106489428D01*
X134417619Y-106537047D01*
X134465238Y-106560857D01*
X134560476Y-106584666D01*
X134631904Y-106584666D01*
X134727142Y-106560857D01*
X134774761Y-106537047D01*
X134822380Y-106489428D01*
X134846190Y-106418000D01*
X134846190Y-106370380D01*
X134822380Y-106298952D01*
X134798571Y-106275142D01*
X134631904Y-106275142D01*
X134631904Y-106370380D01*
X134846190Y-106060857D02*
X134346190Y-106060857D01*
X134846190Y-105775142D01*
X134346190Y-105775142D01*
X134846190Y-105537047D02*
X134346190Y-105537047D01*
X134346190Y-105418000D01*
X134370000Y-105346571D01*
X134417619Y-105298952D01*
X134465238Y-105275142D01*
X134560476Y-105251333D01*
X134631904Y-105251333D01*
X134727142Y-105275142D01*
X134774761Y-105298952D01*
X134822380Y-105346571D01*
X134846190Y-105418000D01*
X134846190Y-105537047D01*
X139450000Y-106298952D02*
X139426190Y-106346571D01*
X139426190Y-106418000D01*
X139450000Y-106489428D01*
X139497619Y-106537047D01*
X139545238Y-106560857D01*
X139640476Y-106584666D01*
X139711904Y-106584666D01*
X139807142Y-106560857D01*
X139854761Y-106537047D01*
X139902380Y-106489428D01*
X139926190Y-106418000D01*
X139926190Y-106370380D01*
X139902380Y-106298952D01*
X139878571Y-106275142D01*
X139711904Y-106275142D01*
X139711904Y-106370380D01*
X139926190Y-106060857D02*
X139426190Y-106060857D01*
X139926190Y-105775142D01*
X139426190Y-105775142D01*
X139926190Y-105537047D02*
X139426190Y-105537047D01*
X139426190Y-105418000D01*
X139450000Y-105346571D01*
X139497619Y-105298952D01*
X139545238Y-105275142D01*
X139640476Y-105251333D01*
X139711904Y-105251333D01*
X139807142Y-105275142D01*
X139854761Y-105298952D01*
X139902380Y-105346571D01*
X139926190Y-105418000D01*
X139926190Y-105537047D01*
X141990000Y-106298952D02*
X141966190Y-106346571D01*
X141966190Y-106418000D01*
X141990000Y-106489428D01*
X142037619Y-106537047D01*
X142085238Y-106560857D01*
X142180476Y-106584666D01*
X142251904Y-106584666D01*
X142347142Y-106560857D01*
X142394761Y-106537047D01*
X142442380Y-106489428D01*
X142466190Y-106418000D01*
X142466190Y-106370380D01*
X142442380Y-106298952D01*
X142418571Y-106275142D01*
X142251904Y-106275142D01*
X142251904Y-106370380D01*
X142466190Y-106060857D02*
X141966190Y-106060857D01*
X142466190Y-105775142D01*
X141966190Y-105775142D01*
X142466190Y-105537047D02*
X141966190Y-105537047D01*
X141966190Y-105418000D01*
X141990000Y-105346571D01*
X142037619Y-105298952D01*
X142085238Y-105275142D01*
X142180476Y-105251333D01*
X142251904Y-105251333D01*
X142347142Y-105275142D01*
X142394761Y-105298952D01*
X142442380Y-105346571D01*
X142466190Y-105418000D01*
X142466190Y-105537047D01*
X121670000Y-106298952D02*
X121646190Y-106346571D01*
X121646190Y-106418000D01*
X121670000Y-106489428D01*
X121717619Y-106537047D01*
X121765238Y-106560857D01*
X121860476Y-106584666D01*
X121931904Y-106584666D01*
X122027142Y-106560857D01*
X122074761Y-106537047D01*
X122122380Y-106489428D01*
X122146190Y-106418000D01*
X122146190Y-106370380D01*
X122122380Y-106298952D01*
X122098571Y-106275142D01*
X121931904Y-106275142D01*
X121931904Y-106370380D01*
X122146190Y-106060857D02*
X121646190Y-106060857D01*
X122146190Y-105775142D01*
X121646190Y-105775142D01*
X122146190Y-105537047D02*
X121646190Y-105537047D01*
X121646190Y-105418000D01*
X121670000Y-105346571D01*
X121717619Y-105298952D01*
X121765238Y-105275142D01*
X121860476Y-105251333D01*
X121931904Y-105251333D01*
X122027142Y-105275142D01*
X122074761Y-105298952D01*
X122122380Y-105346571D01*
X122146190Y-105418000D01*
X122146190Y-105537047D01*
X114050000Y-106298952D02*
X114026190Y-106346571D01*
X114026190Y-106418000D01*
X114050000Y-106489428D01*
X114097619Y-106537047D01*
X114145238Y-106560857D01*
X114240476Y-106584666D01*
X114311904Y-106584666D01*
X114407142Y-106560857D01*
X114454761Y-106537047D01*
X114502380Y-106489428D01*
X114526190Y-106418000D01*
X114526190Y-106370380D01*
X114502380Y-106298952D01*
X114478571Y-106275142D01*
X114311904Y-106275142D01*
X114311904Y-106370380D01*
X114526190Y-106060857D02*
X114026190Y-106060857D01*
X114526190Y-105775142D01*
X114026190Y-105775142D01*
X114526190Y-105537047D02*
X114026190Y-105537047D01*
X114026190Y-105418000D01*
X114050000Y-105346571D01*
X114097619Y-105298952D01*
X114145238Y-105275142D01*
X114240476Y-105251333D01*
X114311904Y-105251333D01*
X114407142Y-105275142D01*
X114454761Y-105298952D01*
X114502380Y-105346571D01*
X114526190Y-105418000D01*
X114526190Y-105537047D01*
X111510000Y-106298952D02*
X111486190Y-106346571D01*
X111486190Y-106418000D01*
X111510000Y-106489428D01*
X111557619Y-106537047D01*
X111605238Y-106560857D01*
X111700476Y-106584666D01*
X111771904Y-106584666D01*
X111867142Y-106560857D01*
X111914761Y-106537047D01*
X111962380Y-106489428D01*
X111986190Y-106418000D01*
X111986190Y-106370380D01*
X111962380Y-106298952D01*
X111938571Y-106275142D01*
X111771904Y-106275142D01*
X111771904Y-106370380D01*
X111986190Y-106060857D02*
X111486190Y-106060857D01*
X111986190Y-105775142D01*
X111486190Y-105775142D01*
X111986190Y-105537047D02*
X111486190Y-105537047D01*
X111486190Y-105418000D01*
X111510000Y-105346571D01*
X111557619Y-105298952D01*
X111605238Y-105275142D01*
X111700476Y-105251333D01*
X111771904Y-105251333D01*
X111867142Y-105275142D01*
X111914761Y-105298952D01*
X111962380Y-105346571D01*
X111986190Y-105418000D01*
X111986190Y-105537047D01*
X126750000Y-106298952D02*
X126726190Y-106346571D01*
X126726190Y-106418000D01*
X126750000Y-106489428D01*
X126797619Y-106537047D01*
X126845238Y-106560857D01*
X126940476Y-106584666D01*
X127011904Y-106584666D01*
X127107142Y-106560857D01*
X127154761Y-106537047D01*
X127202380Y-106489428D01*
X127226190Y-106418000D01*
X127226190Y-106370380D01*
X127202380Y-106298952D01*
X127178571Y-106275142D01*
X127011904Y-106275142D01*
X127011904Y-106370380D01*
X127226190Y-106060857D02*
X126726190Y-106060857D01*
X127226190Y-105775142D01*
X126726190Y-105775142D01*
X127226190Y-105537047D02*
X126726190Y-105537047D01*
X126726190Y-105418000D01*
X126750000Y-105346571D01*
X126797619Y-105298952D01*
X126845238Y-105275142D01*
X126940476Y-105251333D01*
X127011904Y-105251333D01*
X127107142Y-105275142D01*
X127154761Y-105298952D01*
X127202380Y-105346571D01*
X127226190Y-105418000D01*
X127226190Y-105537047D01*
X119130000Y-106298952D02*
X119106190Y-106346571D01*
X119106190Y-106418000D01*
X119130000Y-106489428D01*
X119177619Y-106537047D01*
X119225238Y-106560857D01*
X119320476Y-106584666D01*
X119391904Y-106584666D01*
X119487142Y-106560857D01*
X119534761Y-106537047D01*
X119582380Y-106489428D01*
X119606190Y-106418000D01*
X119606190Y-106370380D01*
X119582380Y-106298952D01*
X119558571Y-106275142D01*
X119391904Y-106275142D01*
X119391904Y-106370380D01*
X119606190Y-106060857D02*
X119106190Y-106060857D01*
X119606190Y-105775142D01*
X119106190Y-105775142D01*
X119606190Y-105537047D02*
X119106190Y-105537047D01*
X119106190Y-105418000D01*
X119130000Y-105346571D01*
X119177619Y-105298952D01*
X119225238Y-105275142D01*
X119320476Y-105251333D01*
X119391904Y-105251333D01*
X119487142Y-105275142D01*
X119534761Y-105298952D01*
X119582380Y-105346571D01*
X119606190Y-105418000D01*
X119606190Y-105537047D01*
X116590000Y-106298952D02*
X116566190Y-106346571D01*
X116566190Y-106418000D01*
X116590000Y-106489428D01*
X116637619Y-106537047D01*
X116685238Y-106560857D01*
X116780476Y-106584666D01*
X116851904Y-106584666D01*
X116947142Y-106560857D01*
X116994761Y-106537047D01*
X117042380Y-106489428D01*
X117066190Y-106418000D01*
X117066190Y-106370380D01*
X117042380Y-106298952D01*
X117018571Y-106275142D01*
X116851904Y-106275142D01*
X116851904Y-106370380D01*
X117066190Y-106060857D02*
X116566190Y-106060857D01*
X117066190Y-105775142D01*
X116566190Y-105775142D01*
X117066190Y-105537047D02*
X116566190Y-105537047D01*
X116566190Y-105418000D01*
X116590000Y-105346571D01*
X116637619Y-105298952D01*
X116685238Y-105275142D01*
X116780476Y-105251333D01*
X116851904Y-105251333D01*
X116947142Y-105275142D01*
X116994761Y-105298952D01*
X117042380Y-105346571D01*
X117066190Y-105418000D01*
X117066190Y-105537047D01*
X124210000Y-106298952D02*
X124186190Y-106346571D01*
X124186190Y-106418000D01*
X124210000Y-106489428D01*
X124257619Y-106537047D01*
X124305238Y-106560857D01*
X124400476Y-106584666D01*
X124471904Y-106584666D01*
X124567142Y-106560857D01*
X124614761Y-106537047D01*
X124662380Y-106489428D01*
X124686190Y-106418000D01*
X124686190Y-106370380D01*
X124662380Y-106298952D01*
X124638571Y-106275142D01*
X124471904Y-106275142D01*
X124471904Y-106370380D01*
X124686190Y-106060857D02*
X124186190Y-106060857D01*
X124686190Y-105775142D01*
X124186190Y-105775142D01*
X124686190Y-105537047D02*
X124186190Y-105537047D01*
X124186190Y-105418000D01*
X124210000Y-105346571D01*
X124257619Y-105298952D01*
X124305238Y-105275142D01*
X124400476Y-105251333D01*
X124471904Y-105251333D01*
X124567142Y-105275142D01*
X124614761Y-105298952D01*
X124662380Y-105346571D01*
X124686190Y-105418000D01*
X124686190Y-105537047D01*
X152150000Y-106298952D02*
X152126190Y-106346571D01*
X152126190Y-106418000D01*
X152150000Y-106489428D01*
X152197619Y-106537047D01*
X152245238Y-106560857D01*
X152340476Y-106584666D01*
X152411904Y-106584666D01*
X152507142Y-106560857D01*
X152554761Y-106537047D01*
X152602380Y-106489428D01*
X152626190Y-106418000D01*
X152626190Y-106370380D01*
X152602380Y-106298952D01*
X152578571Y-106275142D01*
X152411904Y-106275142D01*
X152411904Y-106370380D01*
X152626190Y-106060857D02*
X152126190Y-106060857D01*
X152626190Y-105775142D01*
X152126190Y-105775142D01*
X152626190Y-105537047D02*
X152126190Y-105537047D01*
X152126190Y-105418000D01*
X152150000Y-105346571D01*
X152197619Y-105298952D01*
X152245238Y-105275142D01*
X152340476Y-105251333D01*
X152411904Y-105251333D01*
X152507142Y-105275142D01*
X152554761Y-105298952D01*
X152602380Y-105346571D01*
X152626190Y-105418000D01*
X152626190Y-105537047D01*
X147070000Y-100202952D02*
X147046190Y-100250571D01*
X147046190Y-100322000D01*
X147070000Y-100393428D01*
X147117619Y-100441047D01*
X147165238Y-100464857D01*
X147260476Y-100488666D01*
X147331904Y-100488666D01*
X147427142Y-100464857D01*
X147474761Y-100441047D01*
X147522380Y-100393428D01*
X147546190Y-100322000D01*
X147546190Y-100274380D01*
X147522380Y-100202952D01*
X147498571Y-100179142D01*
X147331904Y-100179142D01*
X147331904Y-100274380D01*
X147546190Y-99964857D02*
X147046190Y-99964857D01*
X147546190Y-99679142D01*
X147046190Y-99679142D01*
X147546190Y-99441047D02*
X147046190Y-99441047D01*
X147046190Y-99322000D01*
X147070000Y-99250571D01*
X147117619Y-99202952D01*
X147165238Y-99179142D01*
X147260476Y-99155333D01*
X147331904Y-99155333D01*
X147427142Y-99179142D01*
X147474761Y-99202952D01*
X147522380Y-99250571D01*
X147546190Y-99322000D01*
X147546190Y-99441047D01*
X144530000Y-100202952D02*
X144506190Y-100250571D01*
X144506190Y-100322000D01*
X144530000Y-100393428D01*
X144577619Y-100441047D01*
X144625238Y-100464857D01*
X144720476Y-100488666D01*
X144791904Y-100488666D01*
X144887142Y-100464857D01*
X144934761Y-100441047D01*
X144982380Y-100393428D01*
X145006190Y-100322000D01*
X145006190Y-100274380D01*
X144982380Y-100202952D01*
X144958571Y-100179142D01*
X144791904Y-100179142D01*
X144791904Y-100274380D01*
X145006190Y-99964857D02*
X144506190Y-99964857D01*
X145006190Y-99679142D01*
X144506190Y-99679142D01*
X145006190Y-99441047D02*
X144506190Y-99441047D01*
X144506190Y-99322000D01*
X144530000Y-99250571D01*
X144577619Y-99202952D01*
X144625238Y-99179142D01*
X144720476Y-99155333D01*
X144791904Y-99155333D01*
X144887142Y-99179142D01*
X144934761Y-99202952D01*
X144982380Y-99250571D01*
X145006190Y-99322000D01*
X145006190Y-99441047D01*
X141990000Y-100202952D02*
X141966190Y-100250571D01*
X141966190Y-100322000D01*
X141990000Y-100393428D01*
X142037619Y-100441047D01*
X142085238Y-100464857D01*
X142180476Y-100488666D01*
X142251904Y-100488666D01*
X142347142Y-100464857D01*
X142394761Y-100441047D01*
X142442380Y-100393428D01*
X142466190Y-100322000D01*
X142466190Y-100274380D01*
X142442380Y-100202952D01*
X142418571Y-100179142D01*
X142251904Y-100179142D01*
X142251904Y-100274380D01*
X142466190Y-99964857D02*
X141966190Y-99964857D01*
X142466190Y-99679142D01*
X141966190Y-99679142D01*
X142466190Y-99441047D02*
X141966190Y-99441047D01*
X141966190Y-99322000D01*
X141990000Y-99250571D01*
X142037619Y-99202952D01*
X142085238Y-99179142D01*
X142180476Y-99155333D01*
X142251904Y-99155333D01*
X142347142Y-99179142D01*
X142394761Y-99202952D01*
X142442380Y-99250571D01*
X142466190Y-99322000D01*
X142466190Y-99441047D01*
X139450000Y-100202952D02*
X139426190Y-100250571D01*
X139426190Y-100322000D01*
X139450000Y-100393428D01*
X139497619Y-100441047D01*
X139545238Y-100464857D01*
X139640476Y-100488666D01*
X139711904Y-100488666D01*
X139807142Y-100464857D01*
X139854761Y-100441047D01*
X139902380Y-100393428D01*
X139926190Y-100322000D01*
X139926190Y-100274380D01*
X139902380Y-100202952D01*
X139878571Y-100179142D01*
X139711904Y-100179142D01*
X139711904Y-100274380D01*
X139926190Y-99964857D02*
X139426190Y-99964857D01*
X139926190Y-99679142D01*
X139426190Y-99679142D01*
X139926190Y-99441047D02*
X139426190Y-99441047D01*
X139426190Y-99322000D01*
X139450000Y-99250571D01*
X139497619Y-99202952D01*
X139545238Y-99179142D01*
X139640476Y-99155333D01*
X139711904Y-99155333D01*
X139807142Y-99179142D01*
X139854761Y-99202952D01*
X139902380Y-99250571D01*
X139926190Y-99322000D01*
X139926190Y-99441047D01*
X136910000Y-100202952D02*
X136886190Y-100250571D01*
X136886190Y-100322000D01*
X136910000Y-100393428D01*
X136957619Y-100441047D01*
X137005238Y-100464857D01*
X137100476Y-100488666D01*
X137171904Y-100488666D01*
X137267142Y-100464857D01*
X137314761Y-100441047D01*
X137362380Y-100393428D01*
X137386190Y-100322000D01*
X137386190Y-100274380D01*
X137362380Y-100202952D01*
X137338571Y-100179142D01*
X137171904Y-100179142D01*
X137171904Y-100274380D01*
X137386190Y-99964857D02*
X136886190Y-99964857D01*
X137386190Y-99679142D01*
X136886190Y-99679142D01*
X137386190Y-99441047D02*
X136886190Y-99441047D01*
X136886190Y-99322000D01*
X136910000Y-99250571D01*
X136957619Y-99202952D01*
X137005238Y-99179142D01*
X137100476Y-99155333D01*
X137171904Y-99155333D01*
X137267142Y-99179142D01*
X137314761Y-99202952D01*
X137362380Y-99250571D01*
X137386190Y-99322000D01*
X137386190Y-99441047D01*
X134370000Y-100202952D02*
X134346190Y-100250571D01*
X134346190Y-100322000D01*
X134370000Y-100393428D01*
X134417619Y-100441047D01*
X134465238Y-100464857D01*
X134560476Y-100488666D01*
X134631904Y-100488666D01*
X134727142Y-100464857D01*
X134774761Y-100441047D01*
X134822380Y-100393428D01*
X134846190Y-100322000D01*
X134846190Y-100274380D01*
X134822380Y-100202952D01*
X134798571Y-100179142D01*
X134631904Y-100179142D01*
X134631904Y-100274380D01*
X134846190Y-99964857D02*
X134346190Y-99964857D01*
X134846190Y-99679142D01*
X134346190Y-99679142D01*
X134846190Y-99441047D02*
X134346190Y-99441047D01*
X134346190Y-99322000D01*
X134370000Y-99250571D01*
X134417619Y-99202952D01*
X134465238Y-99179142D01*
X134560476Y-99155333D01*
X134631904Y-99155333D01*
X134727142Y-99179142D01*
X134774761Y-99202952D01*
X134822380Y-99250571D01*
X134846190Y-99322000D01*
X134846190Y-99441047D01*
X131830000Y-100202952D02*
X131806190Y-100250571D01*
X131806190Y-100322000D01*
X131830000Y-100393428D01*
X131877619Y-100441047D01*
X131925238Y-100464857D01*
X132020476Y-100488666D01*
X132091904Y-100488666D01*
X132187142Y-100464857D01*
X132234761Y-100441047D01*
X132282380Y-100393428D01*
X132306190Y-100322000D01*
X132306190Y-100274380D01*
X132282380Y-100202952D01*
X132258571Y-100179142D01*
X132091904Y-100179142D01*
X132091904Y-100274380D01*
X132306190Y-99964857D02*
X131806190Y-99964857D01*
X132306190Y-99679142D01*
X131806190Y-99679142D01*
X132306190Y-99441047D02*
X131806190Y-99441047D01*
X131806190Y-99322000D01*
X131830000Y-99250571D01*
X131877619Y-99202952D01*
X131925238Y-99179142D01*
X132020476Y-99155333D01*
X132091904Y-99155333D01*
X132187142Y-99179142D01*
X132234761Y-99202952D01*
X132282380Y-99250571D01*
X132306190Y-99322000D01*
X132306190Y-99441047D01*
X95603190Y-116724857D02*
X95103190Y-116724857D01*
X95603190Y-116439142D01*
X95103190Y-116439142D01*
X95555571Y-115915333D02*
X95579380Y-115939142D01*
X95603190Y-116010571D01*
X95603190Y-116058190D01*
X95579380Y-116129619D01*
X95531761Y-116177238D01*
X95484142Y-116201047D01*
X95388904Y-116224857D01*
X95317476Y-116224857D01*
X95222238Y-116201047D01*
X95174619Y-116177238D01*
X95127000Y-116129619D01*
X95103190Y-116058190D01*
X95103190Y-116010571D01*
X95127000Y-115939142D01*
X95150809Y-115915333D01*
X97667000Y-116712952D02*
X97643190Y-116760571D01*
X97643190Y-116832000D01*
X97667000Y-116903428D01*
X97714619Y-116951047D01*
X97762238Y-116974857D01*
X97857476Y-116998666D01*
X97928904Y-116998666D01*
X98024142Y-116974857D01*
X98071761Y-116951047D01*
X98119380Y-116903428D01*
X98143190Y-116832000D01*
X98143190Y-116784380D01*
X98119380Y-116712952D01*
X98095571Y-116689142D01*
X97928904Y-116689142D01*
X97928904Y-116784380D01*
X98143190Y-116474857D02*
X97643190Y-116474857D01*
X98143190Y-116189142D01*
X97643190Y-116189142D01*
X98143190Y-115951047D02*
X97643190Y-115951047D01*
X97643190Y-115832000D01*
X97667000Y-115760571D01*
X97714619Y-115712952D01*
X97762238Y-115689142D01*
X97857476Y-115665333D01*
X97928904Y-115665333D01*
X98024142Y-115689142D01*
X98071761Y-115712952D01*
X98119380Y-115760571D01*
X98143190Y-115832000D01*
X98143190Y-115951047D01*
X100207000Y-116712952D02*
X100183190Y-116760571D01*
X100183190Y-116832000D01*
X100207000Y-116903428D01*
X100254619Y-116951047D01*
X100302238Y-116974857D01*
X100397476Y-116998666D01*
X100468904Y-116998666D01*
X100564142Y-116974857D01*
X100611761Y-116951047D01*
X100659380Y-116903428D01*
X100683190Y-116832000D01*
X100683190Y-116784380D01*
X100659380Y-116712952D01*
X100635571Y-116689142D01*
X100468904Y-116689142D01*
X100468904Y-116784380D01*
X100683190Y-116474857D02*
X100183190Y-116474857D01*
X100683190Y-116189142D01*
X100183190Y-116189142D01*
X100683190Y-115951047D02*
X100183190Y-115951047D01*
X100183190Y-115832000D01*
X100207000Y-115760571D01*
X100254619Y-115712952D01*
X100302238Y-115689142D01*
X100397476Y-115665333D01*
X100468904Y-115665333D01*
X100564142Y-115689142D01*
X100611761Y-115712952D01*
X100659380Y-115760571D01*
X100683190Y-115832000D01*
X100683190Y-115951047D01*
X102723190Y-116173238D02*
X102723190Y-116411333D01*
X102961285Y-116435142D01*
X102937476Y-116411333D01*
X102913666Y-116363714D01*
X102913666Y-116244666D01*
X102937476Y-116197047D01*
X102961285Y-116173238D01*
X103008904Y-116149428D01*
X103127952Y-116149428D01*
X103175571Y-116173238D01*
X103199380Y-116197047D01*
X103223190Y-116244666D01*
X103223190Y-116363714D01*
X103199380Y-116411333D01*
X103175571Y-116435142D01*
X102723190Y-116006571D02*
X103223190Y-115839904D01*
X102723190Y-115673238D01*
X105346428Y-109489761D02*
X104203571Y-109489761D01*
X104775000Y-109489761D02*
X104775000Y-107489761D01*
X104584523Y-107775476D01*
X104394047Y-107965952D01*
X104203571Y-108061190D01*
X149606190Y-89265238D02*
X149701428Y-89170000D01*
X149891904Y-89074761D01*
X150368095Y-89074761D01*
X150558571Y-89170000D01*
X150653809Y-89265238D01*
X150749047Y-89455714D01*
X150749047Y-89646190D01*
X150653809Y-89931904D01*
X149510952Y-91074761D01*
X150749047Y-91074761D01*
X152463333Y-89074761D02*
X152082380Y-89074761D01*
X151891904Y-89170000D01*
X151796666Y-89265238D01*
X151606190Y-89550952D01*
X151510952Y-89931904D01*
X151510952Y-90693809D01*
X151606190Y-90884285D01*
X151701428Y-90979523D01*
X151891904Y-91074761D01*
X152272857Y-91074761D01*
X152463333Y-90979523D01*
X152558571Y-90884285D01*
X152653809Y-90693809D01*
X152653809Y-90217619D01*
X152558571Y-90027142D01*
X152463333Y-89931904D01*
X152272857Y-89836666D01*
X151891904Y-89836666D01*
X151701428Y-89931904D01*
X151606190Y-90027142D01*
X151510952Y-90217619D01*
X106330952Y-114474761D02*
X107569047Y-114474761D01*
X106902380Y-115236666D01*
X107188095Y-115236666D01*
X107378571Y-115331904D01*
X107473809Y-115427142D01*
X107569047Y-115617619D01*
X107569047Y-116093809D01*
X107473809Y-116284285D01*
X107378571Y-116379523D01*
X107188095Y-116474761D01*
X106616666Y-116474761D01*
X106426190Y-116379523D01*
X106330952Y-116284285D01*
X109283333Y-115141428D02*
X109283333Y-116474761D01*
X108807142Y-114379523D02*
X108330952Y-115808095D01*
X109569047Y-115808095D01*
X114871428Y-99964761D02*
X113728571Y-99964761D01*
X114300000Y-99964761D02*
X114300000Y-97964761D01*
X114109523Y-98250476D01*
X113919047Y-98440952D01*
X113728571Y-98536190D01*
X155511428Y-108854761D02*
X154368571Y-108854761D01*
X154940000Y-108854761D02*
X154940000Y-106854761D01*
X154749523Y-107140476D01*
X154559047Y-107330952D01*
X154368571Y-107426190D01*
X150133809Y-119407619D02*
X150133809Y-119026666D01*
X150086190Y-118907619D02*
X149586190Y-118907619D01*
X150086190Y-118669523D02*
X149586190Y-118669523D01*
X150086190Y-118383809D01*
X149586190Y-118383809D01*
X149586190Y-118145714D02*
X149990952Y-118145714D01*
X150038571Y-118121904D01*
X150062380Y-118098095D01*
X150086190Y-118050476D01*
X150086190Y-117955238D01*
X150062380Y-117907619D01*
X150038571Y-117883809D01*
X149990952Y-117860000D01*
X149586190Y-117860000D01*
X150062380Y-117645714D02*
X150086190Y-117574285D01*
X150086190Y-117455238D01*
X150062380Y-117407619D01*
X150038571Y-117383809D01*
X149990952Y-117360000D01*
X149943333Y-117360000D01*
X149895714Y-117383809D01*
X149871904Y-117407619D01*
X149848095Y-117455238D01*
X149824285Y-117550476D01*
X149800476Y-117598095D01*
X149776666Y-117621904D01*
X149729047Y-117645714D01*
X149681428Y-117645714D01*
X149633809Y-117621904D01*
X149610000Y-117598095D01*
X149586190Y-117550476D01*
X149586190Y-117431428D01*
X149610000Y-117360000D01*
X149824285Y-117145714D02*
X149824285Y-116979047D01*
X150086190Y-116907619D02*
X150086190Y-117145714D01*
X149586190Y-117145714D01*
X149586190Y-116907619D01*
X142513809Y-119205238D02*
X142513809Y-118824285D01*
X142442380Y-118729047D02*
X142466190Y-118657619D01*
X142466190Y-118538571D01*
X142442380Y-118490952D01*
X142418571Y-118467142D01*
X142370952Y-118443333D01*
X142323333Y-118443333D01*
X142275714Y-118467142D01*
X142251904Y-118490952D01*
X142228095Y-118538571D01*
X142204285Y-118633809D01*
X142180476Y-118681428D01*
X142156666Y-118705238D01*
X142109047Y-118729047D01*
X142061428Y-118729047D01*
X142013809Y-118705238D01*
X141990000Y-118681428D01*
X141966190Y-118633809D01*
X141966190Y-118514761D01*
X141990000Y-118443333D01*
X142204285Y-118229047D02*
X142204285Y-118062380D01*
X142466190Y-117990952D02*
X142466190Y-118229047D01*
X141966190Y-118229047D01*
X141966190Y-117990952D01*
X142466190Y-117538571D02*
X142466190Y-117776666D01*
X141966190Y-117776666D01*
X141966190Y-117276666D02*
X141966190Y-117229047D01*
X141990000Y-117181428D01*
X142013809Y-117157619D01*
X142061428Y-117133809D01*
X142156666Y-117110000D01*
X142275714Y-117110000D01*
X142370952Y-117133809D01*
X142418571Y-117157619D01*
X142442380Y-117181428D01*
X142466190Y-117229047D01*
X142466190Y-117276666D01*
X142442380Y-117324285D01*
X142418571Y-117348095D01*
X142370952Y-117371904D01*
X142275714Y-117395714D01*
X142156666Y-117395714D01*
X142061428Y-117371904D01*
X142013809Y-117348095D01*
X141990000Y-117324285D01*
X141966190Y-117276666D01*
X145053809Y-119395714D02*
X145053809Y-119014761D01*
X145006190Y-118895714D02*
X144506190Y-118895714D01*
X145006190Y-118657619D02*
X144506190Y-118657619D01*
X145006190Y-118371904D01*
X144506190Y-118371904D01*
X145006190Y-118133809D02*
X144506190Y-118133809D01*
X144506190Y-118014761D01*
X144530000Y-117943333D01*
X144577619Y-117895714D01*
X144625238Y-117871904D01*
X144720476Y-117848095D01*
X144791904Y-117848095D01*
X144887142Y-117871904D01*
X144934761Y-117895714D01*
X144982380Y-117943333D01*
X145006190Y-118014761D01*
X145006190Y-118133809D01*
X144744285Y-117633809D02*
X144744285Y-117467142D01*
X145006190Y-117395714D02*
X145006190Y-117633809D01*
X144506190Y-117633809D01*
X144506190Y-117395714D01*
X144506190Y-117229047D02*
X145006190Y-116895714D01*
X144506190Y-116895714D02*
X145006190Y-117229047D01*
X139973809Y-119205238D02*
X139973809Y-118824285D01*
X139902380Y-118729047D02*
X139926190Y-118657619D01*
X139926190Y-118538571D01*
X139902380Y-118490952D01*
X139878571Y-118467142D01*
X139830952Y-118443333D01*
X139783333Y-118443333D01*
X139735714Y-118467142D01*
X139711904Y-118490952D01*
X139688095Y-118538571D01*
X139664285Y-118633809D01*
X139640476Y-118681428D01*
X139616666Y-118705238D01*
X139569047Y-118729047D01*
X139521428Y-118729047D01*
X139473809Y-118705238D01*
X139450000Y-118681428D01*
X139426190Y-118633809D01*
X139426190Y-118514761D01*
X139450000Y-118443333D01*
X139664285Y-118229047D02*
X139664285Y-118062380D01*
X139926190Y-117990952D02*
X139926190Y-118229047D01*
X139426190Y-118229047D01*
X139426190Y-117990952D01*
X139926190Y-117538571D02*
X139926190Y-117776666D01*
X139426190Y-117776666D01*
X139926190Y-117110000D02*
X139926190Y-117395714D01*
X139926190Y-117252857D02*
X139426190Y-117252857D01*
X139497619Y-117300476D01*
X139545238Y-117348095D01*
X139569047Y-117395714D01*
X127273809Y-119336190D02*
X127273809Y-118955238D01*
X127226190Y-118836190D02*
X126726190Y-118836190D01*
X126726190Y-118717142D01*
X126750000Y-118645714D01*
X126797619Y-118598095D01*
X126845238Y-118574285D01*
X126940476Y-118550476D01*
X127011904Y-118550476D01*
X127107142Y-118574285D01*
X127154761Y-118598095D01*
X127202380Y-118645714D01*
X127226190Y-118717142D01*
X127226190Y-118836190D01*
X127226190Y-118336190D02*
X126726190Y-118336190D01*
X127226190Y-118050476D02*
X126940476Y-118264761D01*
X126726190Y-118050476D02*
X127011904Y-118336190D01*
X126726190Y-117883809D02*
X127226190Y-117764761D01*
X126869047Y-117669523D01*
X127226190Y-117574285D01*
X126726190Y-117455238D01*
X127226190Y-117264761D02*
X126726190Y-117264761D01*
X126726190Y-117145714D01*
X126750000Y-117074285D01*
X126797619Y-117026666D01*
X126845238Y-117002857D01*
X126940476Y-116979047D01*
X127011904Y-116979047D01*
X127107142Y-117002857D01*
X127154761Y-117026666D01*
X127202380Y-117074285D01*
X127226190Y-117145714D01*
X127226190Y-117264761D01*
X132306190Y-118610000D02*
X131806190Y-118610000D01*
X131806190Y-118490952D01*
X131830000Y-118419523D01*
X131877619Y-118371904D01*
X131925238Y-118348095D01*
X132020476Y-118324285D01*
X132091904Y-118324285D01*
X132187142Y-118348095D01*
X132234761Y-118371904D01*
X132282380Y-118419523D01*
X132306190Y-118490952D01*
X132306190Y-118610000D01*
X132306190Y-118110000D02*
X131806190Y-118110000D01*
X132306190Y-117586190D02*
X132068095Y-117752857D01*
X132306190Y-117871904D02*
X131806190Y-117871904D01*
X131806190Y-117681428D01*
X131830000Y-117633809D01*
X131853809Y-117610000D01*
X131901428Y-117586190D01*
X131972857Y-117586190D01*
X132020476Y-117610000D01*
X132044285Y-117633809D01*
X132068095Y-117681428D01*
X132068095Y-117871904D01*
X134893809Y-119026666D02*
X134893809Y-118645714D01*
X134846190Y-118526666D02*
X134346190Y-118526666D01*
X134703333Y-118360000D01*
X134346190Y-118193333D01*
X134846190Y-118193333D01*
X134346190Y-118026666D02*
X134346190Y-117740952D01*
X134846190Y-117883809D02*
X134346190Y-117883809D01*
X134846190Y-117288571D02*
X134608095Y-117455238D01*
X134846190Y-117574285D02*
X134346190Y-117574285D01*
X134346190Y-117383809D01*
X134370000Y-117336190D01*
X134393809Y-117312380D01*
X134441428Y-117288571D01*
X134512857Y-117288571D01*
X134560476Y-117312380D01*
X134584285Y-117336190D01*
X134608095Y-117383809D01*
X134608095Y-117574285D01*
X152673809Y-119324285D02*
X152673809Y-118943333D01*
X152578571Y-118538571D02*
X152602380Y-118562380D01*
X152626190Y-118633809D01*
X152626190Y-118681428D01*
X152602380Y-118752857D01*
X152554761Y-118800476D01*
X152507142Y-118824285D01*
X152411904Y-118848095D01*
X152340476Y-118848095D01*
X152245238Y-118824285D01*
X152197619Y-118800476D01*
X152150000Y-118752857D01*
X152126190Y-118681428D01*
X152126190Y-118633809D01*
X152150000Y-118562380D01*
X152173809Y-118538571D01*
X152626190Y-118324285D02*
X152126190Y-118324285D01*
X152364285Y-118324285D02*
X152364285Y-118038571D01*
X152626190Y-118038571D02*
X152126190Y-118038571D01*
X152626190Y-117800476D02*
X152126190Y-117800476D01*
X152626190Y-117514761D01*
X152126190Y-117514761D01*
X152150000Y-117014761D02*
X152126190Y-117062380D01*
X152126190Y-117133809D01*
X152150000Y-117205238D01*
X152197619Y-117252857D01*
X152245238Y-117276666D01*
X152340476Y-117300476D01*
X152411904Y-117300476D01*
X152507142Y-117276666D01*
X152554761Y-117252857D01*
X152602380Y-117205238D01*
X152626190Y-117133809D01*
X152626190Y-117086190D01*
X152602380Y-117014761D01*
X152578571Y-116990952D01*
X152411904Y-116990952D01*
X152411904Y-117086190D01*
X129813809Y-119205238D02*
X129813809Y-118824285D01*
X129742380Y-118729047D02*
X129766190Y-118657619D01*
X129766190Y-118538571D01*
X129742380Y-118490952D01*
X129718571Y-118467142D01*
X129670952Y-118443333D01*
X129623333Y-118443333D01*
X129575714Y-118467142D01*
X129551904Y-118490952D01*
X129528095Y-118538571D01*
X129504285Y-118633809D01*
X129480476Y-118681428D01*
X129456666Y-118705238D01*
X129409047Y-118729047D01*
X129361428Y-118729047D01*
X129313809Y-118705238D01*
X129290000Y-118681428D01*
X129266190Y-118633809D01*
X129266190Y-118514761D01*
X129290000Y-118443333D01*
X129266190Y-118300476D02*
X129266190Y-118014761D01*
X129766190Y-118157619D02*
X129266190Y-118157619D01*
X129504285Y-117848095D02*
X129504285Y-117681428D01*
X129766190Y-117610000D02*
X129766190Y-117848095D01*
X129266190Y-117848095D01*
X129266190Y-117610000D01*
X129766190Y-117395714D02*
X129266190Y-117395714D01*
X129266190Y-117205238D01*
X129290000Y-117157619D01*
X129313809Y-117133809D01*
X129361428Y-117110000D01*
X129432857Y-117110000D01*
X129480476Y-117133809D01*
X129504285Y-117157619D01*
X129528095Y-117205238D01*
X129528095Y-117395714D01*
X112033809Y-119014761D02*
X112033809Y-118633809D01*
X111986190Y-118229047D02*
X111748095Y-118395714D01*
X111986190Y-118514761D02*
X111486190Y-118514761D01*
X111486190Y-118324285D01*
X111510000Y-118276666D01*
X111533809Y-118252857D01*
X111581428Y-118229047D01*
X111652857Y-118229047D01*
X111700476Y-118252857D01*
X111724285Y-118276666D01*
X111748095Y-118324285D01*
X111748095Y-118514761D01*
X111986190Y-118014761D02*
X111486190Y-118014761D01*
X111486190Y-117895714D01*
X111510000Y-117824285D01*
X111557619Y-117776666D01*
X111605238Y-117752857D01*
X111700476Y-117729047D01*
X111771904Y-117729047D01*
X111867142Y-117752857D01*
X111914761Y-117776666D01*
X111962380Y-117824285D01*
X111986190Y-117895714D01*
X111986190Y-118014761D01*
X111748095Y-117419523D02*
X111986190Y-117419523D01*
X111486190Y-117586190D02*
X111748095Y-117419523D01*
X111486190Y-117252857D01*
X117113809Y-119300476D02*
X117113809Y-118919523D01*
X117066190Y-118800476D02*
X116566190Y-118800476D01*
X116566190Y-118681428D01*
X116590000Y-118610000D01*
X116637619Y-118562380D01*
X116685238Y-118538571D01*
X116780476Y-118514761D01*
X116851904Y-118514761D01*
X116947142Y-118538571D01*
X116994761Y-118562380D01*
X117042380Y-118610000D01*
X117066190Y-118681428D01*
X117066190Y-118800476D01*
X117066190Y-118300476D02*
X116566190Y-118300476D01*
X117066190Y-118014761D02*
X116780476Y-118229047D01*
X116566190Y-118014761D02*
X116851904Y-118300476D01*
X117066190Y-117514761D02*
X116828095Y-117681428D01*
X117066190Y-117800476D02*
X116566190Y-117800476D01*
X116566190Y-117610000D01*
X116590000Y-117562380D01*
X116613809Y-117538571D01*
X116661428Y-117514761D01*
X116732857Y-117514761D01*
X116780476Y-117538571D01*
X116804285Y-117562380D01*
X116828095Y-117610000D01*
X116828095Y-117800476D01*
X117066190Y-117300476D02*
X116566190Y-117300476D01*
X116566190Y-117181428D01*
X116590000Y-117110000D01*
X116637619Y-117062380D01*
X116685238Y-117038571D01*
X116780476Y-117014761D01*
X116851904Y-117014761D01*
X116947142Y-117038571D01*
X116994761Y-117062380D01*
X117042380Y-117110000D01*
X117066190Y-117181428D01*
X117066190Y-117300476D01*
X119653809Y-119788571D02*
X119653809Y-119407619D01*
X119106190Y-119336190D02*
X119606190Y-119217142D01*
X119249047Y-119121904D01*
X119606190Y-119026666D01*
X119106190Y-118907619D01*
X119606190Y-118431428D02*
X119368095Y-118598095D01*
X119606190Y-118717142D02*
X119106190Y-118717142D01*
X119106190Y-118526666D01*
X119130000Y-118479047D01*
X119153809Y-118455238D01*
X119201428Y-118431428D01*
X119272857Y-118431428D01*
X119320476Y-118455238D01*
X119344285Y-118479047D01*
X119368095Y-118526666D01*
X119368095Y-118717142D01*
X119606190Y-118217142D02*
X119106190Y-118217142D01*
X119106190Y-118026666D01*
X119130000Y-117979047D01*
X119153809Y-117955238D01*
X119201428Y-117931428D01*
X119272857Y-117931428D01*
X119320476Y-117955238D01*
X119344285Y-117979047D01*
X119368095Y-118026666D01*
X119368095Y-118217142D01*
X119606190Y-117431428D02*
X119368095Y-117598095D01*
X119606190Y-117717142D02*
X119106190Y-117717142D01*
X119106190Y-117526666D01*
X119130000Y-117479047D01*
X119153809Y-117455238D01*
X119201428Y-117431428D01*
X119272857Y-117431428D01*
X119320476Y-117455238D01*
X119344285Y-117479047D01*
X119368095Y-117526666D01*
X119368095Y-117717142D01*
X119106190Y-117121904D02*
X119106190Y-117026666D01*
X119130000Y-116979047D01*
X119177619Y-116931428D01*
X119272857Y-116907619D01*
X119439523Y-116907619D01*
X119534761Y-116931428D01*
X119582380Y-116979047D01*
X119606190Y-117026666D01*
X119606190Y-117121904D01*
X119582380Y-117169523D01*
X119534761Y-117217142D01*
X119439523Y-117240952D01*
X119272857Y-117240952D01*
X119177619Y-117217142D01*
X119130000Y-117169523D01*
X119106190Y-117121904D01*
X119106190Y-116764761D02*
X119106190Y-116479047D01*
X119606190Y-116621904D02*
X119106190Y-116621904D01*
X124733809Y-119312380D02*
X124733809Y-118931428D01*
X124686190Y-118812380D02*
X124186190Y-118812380D01*
X124186190Y-118693333D01*
X124210000Y-118621904D01*
X124257619Y-118574285D01*
X124305238Y-118550476D01*
X124400476Y-118526666D01*
X124471904Y-118526666D01*
X124567142Y-118550476D01*
X124614761Y-118574285D01*
X124662380Y-118621904D01*
X124686190Y-118693333D01*
X124686190Y-118812380D01*
X124686190Y-118312380D02*
X124186190Y-118312380D01*
X124686190Y-118026666D02*
X124400476Y-118240952D01*
X124186190Y-118026666D02*
X124471904Y-118312380D01*
X124186190Y-117860000D02*
X124686190Y-117740952D01*
X124329047Y-117645714D01*
X124686190Y-117550476D01*
X124186190Y-117431428D01*
X124424285Y-117240952D02*
X124424285Y-117074285D01*
X124686190Y-117002857D02*
X124686190Y-117240952D01*
X124186190Y-117240952D01*
X124186190Y-117002857D01*
X122193809Y-119229047D02*
X122193809Y-118848095D01*
X121646190Y-118800476D02*
X121646190Y-118514761D01*
X122146190Y-118657619D02*
X121646190Y-118657619D01*
X122146190Y-118062380D02*
X121908095Y-118229047D01*
X122146190Y-118348095D02*
X121646190Y-118348095D01*
X121646190Y-118157619D01*
X121670000Y-118110000D01*
X121693809Y-118086190D01*
X121741428Y-118062380D01*
X121812857Y-118062380D01*
X121860476Y-118086190D01*
X121884285Y-118110000D01*
X121908095Y-118157619D01*
X121908095Y-118348095D01*
X122146190Y-117848095D02*
X121646190Y-117848095D01*
X122146190Y-117562380D02*
X121860476Y-117776666D01*
X121646190Y-117562380D02*
X121931904Y-117848095D01*
X121646190Y-117252857D02*
X121646190Y-117205238D01*
X121670000Y-117157619D01*
X121693809Y-117133809D01*
X121741428Y-117110000D01*
X121836666Y-117086190D01*
X121955714Y-117086190D01*
X122050952Y-117110000D01*
X122098571Y-117133809D01*
X122122380Y-117157619D01*
X122146190Y-117205238D01*
X122146190Y-117252857D01*
X122122380Y-117300476D01*
X122098571Y-117324285D01*
X122050952Y-117348095D01*
X121955714Y-117371904D01*
X121836666Y-117371904D01*
X121741428Y-117348095D01*
X121693809Y-117324285D01*
X121670000Y-117300476D01*
X121646190Y-117252857D01*
X114573809Y-119133809D02*
X114573809Y-118752857D01*
X114502380Y-118657619D02*
X114526190Y-118586190D01*
X114526190Y-118467142D01*
X114502380Y-118419523D01*
X114478571Y-118395714D01*
X114430952Y-118371904D01*
X114383333Y-118371904D01*
X114335714Y-118395714D01*
X114311904Y-118419523D01*
X114288095Y-118467142D01*
X114264285Y-118562380D01*
X114240476Y-118610000D01*
X114216666Y-118633809D01*
X114169047Y-118657619D01*
X114121428Y-118657619D01*
X114073809Y-118633809D01*
X114050000Y-118610000D01*
X114026190Y-118562380D01*
X114026190Y-118443333D01*
X114050000Y-118371904D01*
X114526190Y-118157619D02*
X114026190Y-118157619D01*
X114526190Y-117919523D02*
X114026190Y-117919523D01*
X114026190Y-117800476D01*
X114050000Y-117729047D01*
X114097619Y-117681428D01*
X114145238Y-117657619D01*
X114240476Y-117633809D01*
X114311904Y-117633809D01*
X114407142Y-117657619D01*
X114454761Y-117681428D01*
X114502380Y-117729047D01*
X114526190Y-117800476D01*
X114526190Y-117919523D01*
X114264285Y-117419523D02*
X114264285Y-117252857D01*
X114526190Y-117181428D02*
X114526190Y-117419523D01*
X114026190Y-117419523D01*
X114026190Y-117181428D01*
X137433809Y-88832380D02*
X137433809Y-88451428D01*
X137386190Y-88332380D02*
X136886190Y-88332380D01*
X136886190Y-88213333D01*
X136910000Y-88141904D01*
X136957619Y-88094285D01*
X137005238Y-88070476D01*
X137100476Y-88046666D01*
X137171904Y-88046666D01*
X137267142Y-88070476D01*
X137314761Y-88094285D01*
X137362380Y-88141904D01*
X137386190Y-88213333D01*
X137386190Y-88332380D01*
X137386190Y-87832380D02*
X136886190Y-87832380D01*
X137386190Y-87546666D02*
X137100476Y-87760952D01*
X136886190Y-87546666D02*
X137171904Y-87832380D01*
X136886190Y-87380000D02*
X137386190Y-87260952D01*
X137029047Y-87165714D01*
X137386190Y-87070476D01*
X136886190Y-86951428D01*
X137124285Y-86760952D02*
X137124285Y-86594285D01*
X137386190Y-86522857D02*
X137386190Y-86760952D01*
X136886190Y-86760952D01*
X136886190Y-86522857D01*
X139973809Y-88749047D02*
X139973809Y-88368095D01*
X139426190Y-88320476D02*
X139426190Y-88034761D01*
X139926190Y-88177619D02*
X139426190Y-88177619D01*
X139926190Y-87582380D02*
X139688095Y-87749047D01*
X139926190Y-87868095D02*
X139426190Y-87868095D01*
X139426190Y-87677619D01*
X139450000Y-87630000D01*
X139473809Y-87606190D01*
X139521428Y-87582380D01*
X139592857Y-87582380D01*
X139640476Y-87606190D01*
X139664285Y-87630000D01*
X139688095Y-87677619D01*
X139688095Y-87868095D01*
X139926190Y-87368095D02*
X139426190Y-87368095D01*
X139926190Y-87082380D02*
X139640476Y-87296666D01*
X139426190Y-87082380D02*
X139711904Y-87368095D01*
X139426190Y-86772857D02*
X139426190Y-86725238D01*
X139450000Y-86677619D01*
X139473809Y-86653809D01*
X139521428Y-86630000D01*
X139616666Y-86606190D01*
X139735714Y-86606190D01*
X139830952Y-86630000D01*
X139878571Y-86653809D01*
X139902380Y-86677619D01*
X139926190Y-86725238D01*
X139926190Y-86772857D01*
X139902380Y-86820476D01*
X139878571Y-86844285D01*
X139830952Y-86868095D01*
X139735714Y-86891904D01*
X139616666Y-86891904D01*
X139521428Y-86868095D01*
X139473809Y-86844285D01*
X139450000Y-86820476D01*
X139426190Y-86772857D01*
X147593809Y-88653809D02*
X147593809Y-88272857D01*
X147522380Y-88177619D02*
X147546190Y-88106190D01*
X147546190Y-87987142D01*
X147522380Y-87939523D01*
X147498571Y-87915714D01*
X147450952Y-87891904D01*
X147403333Y-87891904D01*
X147355714Y-87915714D01*
X147331904Y-87939523D01*
X147308095Y-87987142D01*
X147284285Y-88082380D01*
X147260476Y-88130000D01*
X147236666Y-88153809D01*
X147189047Y-88177619D01*
X147141428Y-88177619D01*
X147093809Y-88153809D01*
X147070000Y-88130000D01*
X147046190Y-88082380D01*
X147046190Y-87963333D01*
X147070000Y-87891904D01*
X147546190Y-87677619D02*
X147046190Y-87677619D01*
X147546190Y-87439523D02*
X147046190Y-87439523D01*
X147046190Y-87320476D01*
X147070000Y-87249047D01*
X147117619Y-87201428D01*
X147165238Y-87177619D01*
X147260476Y-87153809D01*
X147331904Y-87153809D01*
X147427142Y-87177619D01*
X147474761Y-87201428D01*
X147522380Y-87249047D01*
X147546190Y-87320476D01*
X147546190Y-87439523D01*
X147284285Y-86939523D02*
X147284285Y-86772857D01*
X147546190Y-86701428D02*
X147546190Y-86939523D01*
X147046190Y-86939523D01*
X147046190Y-86701428D01*
X145053809Y-88820476D02*
X145053809Y-88439523D01*
X145006190Y-88320476D02*
X144506190Y-88320476D01*
X144506190Y-88201428D01*
X144530000Y-88130000D01*
X144577619Y-88082380D01*
X144625238Y-88058571D01*
X144720476Y-88034761D01*
X144791904Y-88034761D01*
X144887142Y-88058571D01*
X144934761Y-88082380D01*
X144982380Y-88130000D01*
X145006190Y-88201428D01*
X145006190Y-88320476D01*
X145006190Y-87820476D02*
X144506190Y-87820476D01*
X145006190Y-87534761D02*
X144720476Y-87749047D01*
X144506190Y-87534761D02*
X144791904Y-87820476D01*
X145006190Y-87034761D02*
X144768095Y-87201428D01*
X145006190Y-87320476D02*
X144506190Y-87320476D01*
X144506190Y-87130000D01*
X144530000Y-87082380D01*
X144553809Y-87058571D01*
X144601428Y-87034761D01*
X144672857Y-87034761D01*
X144720476Y-87058571D01*
X144744285Y-87082380D01*
X144768095Y-87130000D01*
X144768095Y-87320476D01*
X145006190Y-86820476D02*
X144506190Y-86820476D01*
X144506190Y-86701428D01*
X144530000Y-86630000D01*
X144577619Y-86582380D01*
X144625238Y-86558571D01*
X144720476Y-86534761D01*
X144791904Y-86534761D01*
X144887142Y-86558571D01*
X144934761Y-86582380D01*
X144982380Y-86630000D01*
X145006190Y-86701428D01*
X145006190Y-86820476D01*
X142513809Y-89308571D02*
X142513809Y-88927619D01*
X141966190Y-88856190D02*
X142466190Y-88737142D01*
X142109047Y-88641904D01*
X142466190Y-88546666D01*
X141966190Y-88427619D01*
X142466190Y-87951428D02*
X142228095Y-88118095D01*
X142466190Y-88237142D02*
X141966190Y-88237142D01*
X141966190Y-88046666D01*
X141990000Y-87999047D01*
X142013809Y-87975238D01*
X142061428Y-87951428D01*
X142132857Y-87951428D01*
X142180476Y-87975238D01*
X142204285Y-87999047D01*
X142228095Y-88046666D01*
X142228095Y-88237142D01*
X142466190Y-87737142D02*
X141966190Y-87737142D01*
X141966190Y-87546666D01*
X141990000Y-87499047D01*
X142013809Y-87475238D01*
X142061428Y-87451428D01*
X142132857Y-87451428D01*
X142180476Y-87475238D01*
X142204285Y-87499047D01*
X142228095Y-87546666D01*
X142228095Y-87737142D01*
X142466190Y-86951428D02*
X142228095Y-87118095D01*
X142466190Y-87237142D02*
X141966190Y-87237142D01*
X141966190Y-87046666D01*
X141990000Y-86999047D01*
X142013809Y-86975238D01*
X142061428Y-86951428D01*
X142132857Y-86951428D01*
X142180476Y-86975238D01*
X142204285Y-86999047D01*
X142228095Y-87046666D01*
X142228095Y-87237142D01*
X141966190Y-86641904D02*
X141966190Y-86546666D01*
X141990000Y-86499047D01*
X142037619Y-86451428D01*
X142132857Y-86427619D01*
X142299523Y-86427619D01*
X142394761Y-86451428D01*
X142442380Y-86499047D01*
X142466190Y-86546666D01*
X142466190Y-86641904D01*
X142442380Y-86689523D01*
X142394761Y-86737142D01*
X142299523Y-86760952D01*
X142132857Y-86760952D01*
X142037619Y-86737142D01*
X141990000Y-86689523D01*
X141966190Y-86641904D01*
X141966190Y-86284761D02*
X141966190Y-85999047D01*
X142466190Y-86141904D02*
X141966190Y-86141904D01*
X134893809Y-88856190D02*
X134893809Y-88475238D01*
X134846190Y-88356190D02*
X134346190Y-88356190D01*
X134346190Y-88237142D01*
X134370000Y-88165714D01*
X134417619Y-88118095D01*
X134465238Y-88094285D01*
X134560476Y-88070476D01*
X134631904Y-88070476D01*
X134727142Y-88094285D01*
X134774761Y-88118095D01*
X134822380Y-88165714D01*
X134846190Y-88237142D01*
X134846190Y-88356190D01*
X134846190Y-87856190D02*
X134346190Y-87856190D01*
X134846190Y-87570476D02*
X134560476Y-87784761D01*
X134346190Y-87570476D02*
X134631904Y-87856190D01*
X134346190Y-87403809D02*
X134846190Y-87284761D01*
X134489047Y-87189523D01*
X134846190Y-87094285D01*
X134346190Y-86975238D01*
X134846190Y-86784761D02*
X134346190Y-86784761D01*
X134346190Y-86665714D01*
X134370000Y-86594285D01*
X134417619Y-86546666D01*
X134465238Y-86522857D01*
X134560476Y-86499047D01*
X134631904Y-86499047D01*
X134727142Y-86522857D01*
X134774761Y-86546666D01*
X134822380Y-86594285D01*
X134846190Y-86665714D01*
X134846190Y-86784761D01*
X132353809Y-88725238D02*
X132353809Y-88344285D01*
X132282380Y-88249047D02*
X132306190Y-88177619D01*
X132306190Y-88058571D01*
X132282380Y-88010952D01*
X132258571Y-87987142D01*
X132210952Y-87963333D01*
X132163333Y-87963333D01*
X132115714Y-87987142D01*
X132091904Y-88010952D01*
X132068095Y-88058571D01*
X132044285Y-88153809D01*
X132020476Y-88201428D01*
X131996666Y-88225238D01*
X131949047Y-88249047D01*
X131901428Y-88249047D01*
X131853809Y-88225238D01*
X131830000Y-88201428D01*
X131806190Y-88153809D01*
X131806190Y-88034761D01*
X131830000Y-87963333D01*
X131806190Y-87820476D02*
X131806190Y-87534761D01*
X132306190Y-87677619D02*
X131806190Y-87677619D01*
X132044285Y-87368095D02*
X132044285Y-87201428D01*
X132306190Y-87130000D02*
X132306190Y-87368095D01*
X131806190Y-87368095D01*
X131806190Y-87130000D01*
X132306190Y-86915714D02*
X131806190Y-86915714D01*
X131806190Y-86725238D01*
X131830000Y-86677619D01*
X131853809Y-86653809D01*
X131901428Y-86630000D01*
X131972857Y-86630000D01*
X132020476Y-86653809D01*
X132044285Y-86677619D01*
X132068095Y-86725238D01*
X132068095Y-86915714D01*
X129766190Y-88130000D02*
X129266190Y-88130000D01*
X129266190Y-88010952D01*
X129290000Y-87939523D01*
X129337619Y-87891904D01*
X129385238Y-87868095D01*
X129480476Y-87844285D01*
X129551904Y-87844285D01*
X129647142Y-87868095D01*
X129694761Y-87891904D01*
X129742380Y-87939523D01*
X129766190Y-88010952D01*
X129766190Y-88130000D01*
X129766190Y-87630000D02*
X129266190Y-87630000D01*
X129766190Y-87106190D02*
X129528095Y-87272857D01*
X129766190Y-87391904D02*
X129266190Y-87391904D01*
X129266190Y-87201428D01*
X129290000Y-87153809D01*
X129313809Y-87130000D01*
X129361428Y-87106190D01*
X129432857Y-87106190D01*
X129480476Y-87130000D01*
X129504285Y-87153809D01*
X129528095Y-87201428D01*
X129528095Y-87391904D01*
D12*
X132780000Y-97790000D02*
G75*
G03X132780000Y-97790000I-700000J0D01*
G01*
X135320000Y-97790000D02*
G75*
G03X135320000Y-97790000I-700000J0D01*
G01*
X137860000Y-97790000D02*
G75*
G03X137860000Y-97790000I-700000J0D01*
G01*
X140400000Y-97790000D02*
G75*
G03X140400000Y-97790000I-700000J0D01*
G01*
X142940000Y-97790000D02*
G75*
G03X142940000Y-97790000I-700000J0D01*
G01*
X145480000Y-97790000D02*
G75*
G03X145480000Y-97790000I-700000J0D01*
G01*
X148020000Y-97790000D02*
G75*
G03X148020000Y-97790000I-700000J0D01*
G01*
X112460000Y-107950000D02*
G75*
G03X112460000Y-107950000I-700000J0D01*
G01*
X115000000Y-107950000D02*
G75*
G03X115000000Y-107950000I-700000J0D01*
G01*
X117540000Y-107950000D02*
G75*
G03X117540000Y-107950000I-700000J0D01*
G01*
X120080000Y-107950000D02*
G75*
G03X120080000Y-107950000I-700000J0D01*
G01*
X122620000Y-107950000D02*
G75*
G03X122620000Y-107950000I-700000J0D01*
G01*
X125160000Y-107950000D02*
G75*
G03X125160000Y-107950000I-700000J0D01*
G01*
X127700000Y-107950000D02*
G75*
G03X127700000Y-107950000I-700000J0D01*
G01*
X130240000Y-107950000D02*
G75*
G03X130240000Y-107950000I-700000J0D01*
G01*
X132780000Y-107950000D02*
G75*
G03X132780000Y-107950000I-700000J0D01*
G01*
X135320000Y-107950000D02*
G75*
G03X135320000Y-107950000I-700000J0D01*
G01*
X137860000Y-107950000D02*
G75*
G03X137860000Y-107950000I-700000J0D01*
G01*
X140400000Y-107950000D02*
G75*
G03X140400000Y-107950000I-700000J0D01*
G01*
X142940000Y-107950000D02*
G75*
G03X142940000Y-107950000I-700000J0D01*
G01*
X145480000Y-107950000D02*
G75*
G03X145480000Y-107950000I-700000J0D01*
G01*
X148020000Y-90170000D02*
G75*
G03X148020000Y-90170000I-700000J0D01*
G01*
X145480000Y-90170000D02*
G75*
G03X145480000Y-90170000I-700000J0D01*
G01*
X142940000Y-90170000D02*
G75*
G03X142940000Y-90170000I-700000J0D01*
G01*
X140400000Y-90170000D02*
G75*
G03X140400000Y-90170000I-700000J0D01*
G01*
X137860000Y-90170000D02*
G75*
G03X137860000Y-90170000I-700000J0D01*
G01*
X135320000Y-90170000D02*
G75*
G03X135320000Y-90170000I-700000J0D01*
G01*
X132780000Y-90170000D02*
G75*
G03X132780000Y-90170000I-700000J0D01*
G01*
X130240000Y-90170000D02*
G75*
G03X130240000Y-90170000I-700000J0D01*
G01*
X127700000Y-90170000D02*
G75*
G03X127700000Y-90170000I-700000J0D01*
G01*
X125160000Y-90170000D02*
G75*
G03X125160000Y-90170000I-700000J0D01*
G01*
X122620000Y-90170000D02*
G75*
G03X122620000Y-90170000I-700000J0D01*
G01*
X120080000Y-90170000D02*
G75*
G03X120080000Y-90170000I-700000J0D01*
G01*
X117540000Y-90170000D02*
G75*
G03X117540000Y-90170000I-700000J0D01*
G01*
X130240000Y-97790000D02*
G75*
G03X130240000Y-97790000I-700000J0D01*
G01*
X127700000Y-97790000D02*
G75*
G03X127700000Y-97790000I-700000J0D01*
G01*
X125160000Y-97790000D02*
G75*
G03X125160000Y-97790000I-700000J0D01*
G01*
X122620000Y-97790000D02*
G75*
G03X122620000Y-97790000I-700000J0D01*
G01*
X120080000Y-97790000D02*
G75*
G03X120080000Y-97790000I-700000J0D01*
G01*
X117540000Y-97790000D02*
G75*
G03X117540000Y-97790000I-700000J0D01*
G01*
X103570000Y-114300000D02*
G75*
G03X103570000Y-114300000I-700000J0D01*
G01*
X101030000Y-114300000D02*
G75*
G03X101030000Y-114300000I-700000J0D01*
G01*
X98490000Y-114300000D02*
G75*
G03X98490000Y-114300000I-700000J0D01*
G01*
X95950000Y-114300000D02*
G75*
G03X95950000Y-114300000I-700000J0D01*
G01*
X95950000Y-109220000D02*
G75*
G03X95950000Y-109220000I-700000J0D01*
G01*
X103570000Y-109220000D02*
G75*
G03X103570000Y-109220000I-700000J0D01*
G01*
X101030000Y-109220000D02*
G75*
G03X101030000Y-109220000I-700000J0D01*
G01*
X98490000Y-109220000D02*
G75*
G03X98490000Y-109220000I-700000J0D01*
G01*
X148020000Y-107950000D02*
G75*
G03X148020000Y-107950000I-700000J0D01*
G01*
X150560000Y-107950000D02*
G75*
G03X150560000Y-107950000I-700000J0D01*
G01*
X153100000Y-107950000D02*
G75*
G03X153100000Y-107950000I-700000J0D01*
G01*
X112460000Y-115570000D02*
G75*
G03X112460000Y-115570000I-700000J0D01*
G01*
X115000000Y-115570000D02*
G75*
G03X115000000Y-115570000I-700000J0D01*
G01*
X117540000Y-115570000D02*
G75*
G03X117540000Y-115570000I-700000J0D01*
G01*
X120080000Y-115570000D02*
G75*
G03X120080000Y-115570000I-700000J0D01*
G01*
X122620000Y-115570000D02*
G75*
G03X122620000Y-115570000I-700000J0D01*
G01*
X125160000Y-115570000D02*
G75*
G03X125160000Y-115570000I-700000J0D01*
G01*
X127700000Y-115570000D02*
G75*
G03X127700000Y-115570000I-700000J0D01*
G01*
X130240000Y-115570000D02*
G75*
G03X130240000Y-115570000I-700000J0D01*
G01*
X132780000Y-115570000D02*
G75*
G03X132780000Y-115570000I-700000J0D01*
G01*
X135320000Y-115570000D02*
G75*
G03X135320000Y-115570000I-700000J0D01*
G01*
X137860000Y-115570000D02*
G75*
G03X137860000Y-115570000I-700000J0D01*
G01*
X140400000Y-115570000D02*
G75*
G03X140400000Y-115570000I-700000J0D01*
G01*
X142940000Y-115570000D02*
G75*
G03X142940000Y-115570000I-700000J0D01*
G01*
X145480000Y-115570000D02*
G75*
G03X145480000Y-115570000I-700000J0D01*
G01*
X148020000Y-115570000D02*
G75*
G03X148020000Y-115570000I-700000J0D01*
G01*
X150560000Y-115570000D02*
G75*
G03X150560000Y-115570000I-700000J0D01*
G01*
X153100000Y-115570000D02*
G75*
G03X153100000Y-115570000I-700000J0D01*
G01*
X153730000Y-109160000D02*
X153730000Y-110490000D01*
X152400000Y-109160000D02*
X153730000Y-109160000D01*
X153730000Y-111760000D02*
X153730000Y-114360000D01*
X151130000Y-111760000D02*
X153730000Y-111760000D01*
X151130000Y-109160000D02*
X151130000Y-111760000D01*
X153730000Y-114360000D02*
X110430000Y-114360000D01*
X151130000Y-109160000D02*
X110430000Y-109160000D01*
X110430000Y-109160000D02*
X110430000Y-114360000D01*
X115510000Y-96580000D02*
X115510000Y-95250000D01*
X116840000Y-96580000D02*
X115510000Y-96580000D01*
X115510000Y-93980000D02*
X115510000Y-91380000D01*
X118110000Y-93980000D02*
X115510000Y-93980000D01*
X118110000Y-96580000D02*
X118110000Y-93980000D01*
X115510000Y-91380000D02*
X148650000Y-91380000D01*
X118110000Y-96580000D02*
X148650000Y-96580000D01*
X148650000Y-96580000D02*
X148650000Y-91380000D01*
X104200000Y-110430000D02*
X104200000Y-111760000D01*
X102870000Y-110430000D02*
X104200000Y-110430000D01*
X101600000Y-110430000D02*
X101600000Y-113090000D01*
X101600000Y-113090000D02*
X93920000Y-113090000D01*
X101600000Y-110430000D02*
X93920000Y-110430000D01*
X93920000Y-110430000D02*
X93920000Y-113090000D01*
D13*
X155087142Y-112450476D02*
X155134761Y-112498095D01*
X155182380Y-112640952D01*
X155182380Y-112736190D01*
X155134761Y-112879047D01*
X155039523Y-112974285D01*
X154944285Y-113021904D01*
X154753809Y-113069523D01*
X154610952Y-113069523D01*
X154420476Y-113021904D01*
X154325238Y-112974285D01*
X154230000Y-112879047D01*
X154182380Y-112736190D01*
X154182380Y-112640952D01*
X154230000Y-112498095D01*
X154277619Y-112450476D01*
X155182380Y-112021904D02*
X154182380Y-112021904D01*
X155182380Y-111450476D01*
X154182380Y-111450476D01*
X154277619Y-111021904D02*
X154230000Y-110974285D01*
X154182380Y-110879047D01*
X154182380Y-110640952D01*
X154230000Y-110545714D01*
X154277619Y-110498095D01*
X154372857Y-110450476D01*
X154468095Y-110450476D01*
X154610952Y-110498095D01*
X155182380Y-111069523D01*
X155182380Y-110450476D01*
X114867142Y-94670476D02*
X114914761Y-94718095D01*
X114962380Y-94860952D01*
X114962380Y-94956190D01*
X114914761Y-95099047D01*
X114819523Y-95194285D01*
X114724285Y-95241904D01*
X114533809Y-95289523D01*
X114390952Y-95289523D01*
X114200476Y-95241904D01*
X114105238Y-95194285D01*
X114010000Y-95099047D01*
X113962380Y-94956190D01*
X113962380Y-94860952D01*
X114010000Y-94718095D01*
X114057619Y-94670476D01*
X114962380Y-94241904D02*
X113962380Y-94241904D01*
X114962380Y-93670476D01*
X113962380Y-93670476D01*
X114962380Y-92670476D02*
X114962380Y-93241904D01*
X114962380Y-92956190D02*
X113962380Y-92956190D01*
X114105238Y-93051428D01*
X114200476Y-93146666D01*
X114248095Y-93241904D01*
X105557142Y-112450476D02*
X105604761Y-112498095D01*
X105652380Y-112640952D01*
X105652380Y-112736190D01*
X105604761Y-112879047D01*
X105509523Y-112974285D01*
X105414285Y-113021904D01*
X105223809Y-113069523D01*
X105080952Y-113069523D01*
X104890476Y-113021904D01*
X104795238Y-112974285D01*
X104700000Y-112879047D01*
X104652380Y-112736190D01*
X104652380Y-112640952D01*
X104700000Y-112498095D01*
X104747619Y-112450476D01*
X105652380Y-112021904D02*
X104652380Y-112021904D01*
X105652380Y-111450476D01*
X104652380Y-111450476D01*
X104652380Y-111069523D02*
X104652380Y-110450476D01*
X105033333Y-110783809D01*
X105033333Y-110640952D01*
X105080952Y-110545714D01*
X105128571Y-110498095D01*
X105223809Y-110450476D01*
X105461904Y-110450476D01*
X105557142Y-110498095D01*
X105604761Y-110545714D01*
X105652380Y-110640952D01*
X105652380Y-110926666D01*
X105604761Y-111021904D01*
X105557142Y-111069523D01*
M02*
