G04 #@! TF.GenerationSoftware,KiCad,Pcbnew,(5.1.2)-2*
G04 #@! TF.CreationDate,2020-12-29T16:45:58+00:00*
G04 #@! TF.ProjectId,LEDC68 and 0.9 Inch OLED Adapter,4c454443-3638-4206-916e-6420302e3920,rev?*
G04 #@! TF.SameCoordinates,Original*
G04 #@! TF.FileFunction,Soldermask,Bot*
G04 #@! TF.FilePolarity,Negative*
%FSLAX46Y46*%
G04 Gerber Fmt 4.6, Leading zero omitted, Abs format (unit mm)*
G04 Created by KiCad (PCBNEW (5.1.2)-2) date 2020-12-29 16:45:58*
%MOMM*%
%LPD*%
G04 APERTURE LIST*
%ADD10C,0.100000*%
G04 APERTURE END LIST*
D10*
G36*
X86470442Y-37205518D02*
G01*
X86536627Y-37212037D01*
X86706466Y-37263557D01*
X86862991Y-37347222D01*
X86898729Y-37376552D01*
X87000186Y-37459814D01*
X87083448Y-37561271D01*
X87112778Y-37597009D01*
X87196443Y-37753534D01*
X87247963Y-37923373D01*
X87265359Y-38100000D01*
X87247963Y-38276627D01*
X87196443Y-38446466D01*
X87112778Y-38602991D01*
X87083448Y-38638729D01*
X87000186Y-38740186D01*
X86898729Y-38823448D01*
X86862991Y-38852778D01*
X86706466Y-38936443D01*
X86536627Y-38987963D01*
X86470443Y-38994481D01*
X86404260Y-39001000D01*
X86315740Y-39001000D01*
X86249557Y-38994481D01*
X86183373Y-38987963D01*
X86013534Y-38936443D01*
X85857009Y-38852778D01*
X85821271Y-38823448D01*
X85719814Y-38740186D01*
X85636552Y-38638729D01*
X85607222Y-38602991D01*
X85523557Y-38446466D01*
X85472037Y-38276627D01*
X85454641Y-38100000D01*
X85472037Y-37923373D01*
X85523557Y-37753534D01*
X85607222Y-37597009D01*
X85636552Y-37561271D01*
X85719814Y-37459814D01*
X85821271Y-37376552D01*
X85857009Y-37347222D01*
X86013534Y-37263557D01*
X86183373Y-37212037D01*
X86249558Y-37205518D01*
X86315740Y-37199000D01*
X86404260Y-37199000D01*
X86470442Y-37205518D01*
X86470442Y-37205518D01*
G37*
G36*
X79641000Y-39001000D02*
G01*
X77839000Y-39001000D01*
X77839000Y-37199000D01*
X79641000Y-37199000D01*
X79641000Y-39001000D01*
X79641000Y-39001000D01*
G37*
G36*
X81390442Y-37205518D02*
G01*
X81456627Y-37212037D01*
X81626466Y-37263557D01*
X81782991Y-37347222D01*
X81818729Y-37376552D01*
X81920186Y-37459814D01*
X82003448Y-37561271D01*
X82032778Y-37597009D01*
X82116443Y-37753534D01*
X82167963Y-37923373D01*
X82185359Y-38100000D01*
X82167963Y-38276627D01*
X82116443Y-38446466D01*
X82032778Y-38602991D01*
X82003448Y-38638729D01*
X81920186Y-38740186D01*
X81818729Y-38823448D01*
X81782991Y-38852778D01*
X81626466Y-38936443D01*
X81456627Y-38987963D01*
X81390443Y-38994481D01*
X81324260Y-39001000D01*
X81235740Y-39001000D01*
X81169557Y-38994481D01*
X81103373Y-38987963D01*
X80933534Y-38936443D01*
X80777009Y-38852778D01*
X80741271Y-38823448D01*
X80639814Y-38740186D01*
X80556552Y-38638729D01*
X80527222Y-38602991D01*
X80443557Y-38446466D01*
X80392037Y-38276627D01*
X80374641Y-38100000D01*
X80392037Y-37923373D01*
X80443557Y-37753534D01*
X80527222Y-37597009D01*
X80556552Y-37561271D01*
X80639814Y-37459814D01*
X80741271Y-37376552D01*
X80777009Y-37347222D01*
X80933534Y-37263557D01*
X81103373Y-37212037D01*
X81169558Y-37205518D01*
X81235740Y-37199000D01*
X81324260Y-37199000D01*
X81390442Y-37205518D01*
X81390442Y-37205518D01*
G37*
G36*
X83930442Y-37205518D02*
G01*
X83996627Y-37212037D01*
X84166466Y-37263557D01*
X84322991Y-37347222D01*
X84358729Y-37376552D01*
X84460186Y-37459814D01*
X84543448Y-37561271D01*
X84572778Y-37597009D01*
X84656443Y-37753534D01*
X84707963Y-37923373D01*
X84725359Y-38100000D01*
X84707963Y-38276627D01*
X84656443Y-38446466D01*
X84572778Y-38602991D01*
X84543448Y-38638729D01*
X84460186Y-38740186D01*
X84358729Y-38823448D01*
X84322991Y-38852778D01*
X84166466Y-38936443D01*
X83996627Y-38987963D01*
X83930443Y-38994481D01*
X83864260Y-39001000D01*
X83775740Y-39001000D01*
X83709557Y-38994481D01*
X83643373Y-38987963D01*
X83473534Y-38936443D01*
X83317009Y-38852778D01*
X83281271Y-38823448D01*
X83179814Y-38740186D01*
X83096552Y-38638729D01*
X83067222Y-38602991D01*
X82983557Y-38446466D01*
X82932037Y-38276627D01*
X82914641Y-38100000D01*
X82932037Y-37923373D01*
X82983557Y-37753534D01*
X83067222Y-37597009D01*
X83096552Y-37561271D01*
X83179814Y-37459814D01*
X83281271Y-37376552D01*
X83317009Y-37347222D01*
X83473534Y-37263557D01*
X83643373Y-37212037D01*
X83709558Y-37205518D01*
X83775740Y-37199000D01*
X83864260Y-37199000D01*
X83930442Y-37205518D01*
X83930442Y-37205518D01*
G37*
G36*
X89010442Y-37205518D02*
G01*
X89076627Y-37212037D01*
X89246466Y-37263557D01*
X89402991Y-37347222D01*
X89438729Y-37376552D01*
X89540186Y-37459814D01*
X89623448Y-37561271D01*
X89652778Y-37597009D01*
X89736443Y-37753534D01*
X89787963Y-37923373D01*
X89805359Y-38100000D01*
X89787963Y-38276627D01*
X89736443Y-38446466D01*
X89652778Y-38602991D01*
X89623448Y-38638729D01*
X89540186Y-38740186D01*
X89438729Y-38823448D01*
X89402991Y-38852778D01*
X89246466Y-38936443D01*
X89076627Y-38987963D01*
X89010443Y-38994481D01*
X88944260Y-39001000D01*
X88855740Y-39001000D01*
X88789557Y-38994481D01*
X88723373Y-38987963D01*
X88553534Y-38936443D01*
X88397009Y-38852778D01*
X88361271Y-38823448D01*
X88259814Y-38740186D01*
X88176552Y-38638729D01*
X88147222Y-38602991D01*
X88063557Y-38446466D01*
X88012037Y-38276627D01*
X87994641Y-38100000D01*
X88012037Y-37923373D01*
X88063557Y-37753534D01*
X88147222Y-37597009D01*
X88176552Y-37561271D01*
X88259814Y-37459814D01*
X88361271Y-37376552D01*
X88397009Y-37347222D01*
X88553534Y-37263557D01*
X88723373Y-37212037D01*
X88789558Y-37205518D01*
X88855740Y-37199000D01*
X88944260Y-37199000D01*
X89010442Y-37205518D01*
X89010442Y-37205518D01*
G37*
G36*
X89010443Y-34665519D02*
G01*
X89076627Y-34672037D01*
X89246466Y-34723557D01*
X89402991Y-34807222D01*
X89438729Y-34836552D01*
X89540186Y-34919814D01*
X89623448Y-35021271D01*
X89652778Y-35057009D01*
X89736443Y-35213534D01*
X89787963Y-35383373D01*
X89805359Y-35560000D01*
X89787963Y-35736627D01*
X89736443Y-35906466D01*
X89652778Y-36062991D01*
X89623448Y-36098729D01*
X89540186Y-36200186D01*
X89438729Y-36283448D01*
X89402991Y-36312778D01*
X89246466Y-36396443D01*
X89076627Y-36447963D01*
X89010442Y-36454482D01*
X88944260Y-36461000D01*
X88855740Y-36461000D01*
X88789558Y-36454482D01*
X88723373Y-36447963D01*
X88553534Y-36396443D01*
X88397009Y-36312778D01*
X88361271Y-36283448D01*
X88259814Y-36200186D01*
X88176552Y-36098729D01*
X88147222Y-36062991D01*
X88063557Y-35906466D01*
X88012037Y-35736627D01*
X87994641Y-35560000D01*
X88012037Y-35383373D01*
X88063557Y-35213534D01*
X88147222Y-35057009D01*
X88176552Y-35021271D01*
X88259814Y-34919814D01*
X88361271Y-34836552D01*
X88397009Y-34807222D01*
X88553534Y-34723557D01*
X88723373Y-34672037D01*
X88789557Y-34665519D01*
X88855740Y-34659000D01*
X88944260Y-34659000D01*
X89010443Y-34665519D01*
X89010443Y-34665519D01*
G37*
G36*
X86470443Y-32125519D02*
G01*
X86536627Y-32132037D01*
X86706466Y-32183557D01*
X86862991Y-32267222D01*
X86898729Y-32296552D01*
X87000186Y-32379814D01*
X87083448Y-32481271D01*
X87112778Y-32517009D01*
X87196443Y-32673534D01*
X87247963Y-32843373D01*
X87265359Y-33020000D01*
X87247963Y-33196627D01*
X87196443Y-33366466D01*
X87112778Y-33522991D01*
X87083448Y-33558729D01*
X87000186Y-33660186D01*
X86898729Y-33743448D01*
X86862991Y-33772778D01*
X86706466Y-33856443D01*
X86536627Y-33907963D01*
X86470443Y-33914481D01*
X86404260Y-33921000D01*
X86315740Y-33921000D01*
X86249557Y-33914481D01*
X86183373Y-33907963D01*
X86013534Y-33856443D01*
X85857009Y-33772778D01*
X85821271Y-33743448D01*
X85719814Y-33660186D01*
X85636552Y-33558729D01*
X85607222Y-33522991D01*
X85523557Y-33366466D01*
X85472037Y-33196627D01*
X85454641Y-33020000D01*
X85472037Y-32843373D01*
X85523557Y-32673534D01*
X85607222Y-32517009D01*
X85636552Y-32481271D01*
X85719814Y-32379814D01*
X85821271Y-32296552D01*
X85857009Y-32267222D01*
X86013534Y-32183557D01*
X86183373Y-32132037D01*
X86249557Y-32125519D01*
X86315740Y-32119000D01*
X86404260Y-32119000D01*
X86470443Y-32125519D01*
X86470443Y-32125519D01*
G37*
G36*
X89010443Y-32125519D02*
G01*
X89076627Y-32132037D01*
X89246466Y-32183557D01*
X89402991Y-32267222D01*
X89438729Y-32296552D01*
X89540186Y-32379814D01*
X89623448Y-32481271D01*
X89652778Y-32517009D01*
X89736443Y-32673534D01*
X89787963Y-32843373D01*
X89805359Y-33020000D01*
X89787963Y-33196627D01*
X89736443Y-33366466D01*
X89652778Y-33522991D01*
X89623448Y-33558729D01*
X89540186Y-33660186D01*
X89438729Y-33743448D01*
X89402991Y-33772778D01*
X89246466Y-33856443D01*
X89076627Y-33907963D01*
X89010443Y-33914481D01*
X88944260Y-33921000D01*
X88855740Y-33921000D01*
X88789557Y-33914481D01*
X88723373Y-33907963D01*
X88553534Y-33856443D01*
X88397009Y-33772778D01*
X88361271Y-33743448D01*
X88259814Y-33660186D01*
X88176552Y-33558729D01*
X88147222Y-33522991D01*
X88063557Y-33366466D01*
X88012037Y-33196627D01*
X87994641Y-33020000D01*
X88012037Y-32843373D01*
X88063557Y-32673534D01*
X88147222Y-32517009D01*
X88176552Y-32481271D01*
X88259814Y-32379814D01*
X88361271Y-32296552D01*
X88397009Y-32267222D01*
X88553534Y-32183557D01*
X88723373Y-32132037D01*
X88789557Y-32125519D01*
X88855740Y-32119000D01*
X88944260Y-32119000D01*
X89010443Y-32125519D01*
X89010443Y-32125519D01*
G37*
G36*
X83930443Y-32125519D02*
G01*
X83996627Y-32132037D01*
X84166466Y-32183557D01*
X84322991Y-32267222D01*
X84358729Y-32296552D01*
X84460186Y-32379814D01*
X84543448Y-32481271D01*
X84572778Y-32517009D01*
X84656443Y-32673534D01*
X84707963Y-32843373D01*
X84725359Y-33020000D01*
X84707963Y-33196627D01*
X84656443Y-33366466D01*
X84572778Y-33522991D01*
X84543448Y-33558729D01*
X84460186Y-33660186D01*
X84358729Y-33743448D01*
X84322991Y-33772778D01*
X84166466Y-33856443D01*
X83996627Y-33907963D01*
X83930443Y-33914481D01*
X83864260Y-33921000D01*
X83775740Y-33921000D01*
X83709557Y-33914481D01*
X83643373Y-33907963D01*
X83473534Y-33856443D01*
X83317009Y-33772778D01*
X83281271Y-33743448D01*
X83179814Y-33660186D01*
X83096552Y-33558729D01*
X83067222Y-33522991D01*
X82983557Y-33366466D01*
X82932037Y-33196627D01*
X82914641Y-33020000D01*
X82932037Y-32843373D01*
X82983557Y-32673534D01*
X83067222Y-32517009D01*
X83096552Y-32481271D01*
X83179814Y-32379814D01*
X83281271Y-32296552D01*
X83317009Y-32267222D01*
X83473534Y-32183557D01*
X83643373Y-32132037D01*
X83709557Y-32125519D01*
X83775740Y-32119000D01*
X83864260Y-32119000D01*
X83930443Y-32125519D01*
X83930443Y-32125519D01*
G37*
G36*
X84721000Y-31381000D02*
G01*
X82919000Y-31381000D01*
X82919000Y-29579000D01*
X84721000Y-29579000D01*
X84721000Y-31381000D01*
X84721000Y-31381000D01*
G37*
G36*
X86473512Y-29583927D02*
G01*
X86622812Y-29613624D01*
X86786784Y-29681544D01*
X86934354Y-29780147D01*
X87059853Y-29905646D01*
X87158456Y-30053216D01*
X87226376Y-30217188D01*
X87261000Y-30391259D01*
X87261000Y-30568741D01*
X87226376Y-30742812D01*
X87158456Y-30906784D01*
X87059853Y-31054354D01*
X86934354Y-31179853D01*
X86786784Y-31278456D01*
X86622812Y-31346376D01*
X86473512Y-31376073D01*
X86448742Y-31381000D01*
X86271258Y-31381000D01*
X86246488Y-31376073D01*
X86097188Y-31346376D01*
X85933216Y-31278456D01*
X85785646Y-31179853D01*
X85660147Y-31054354D01*
X85561544Y-30906784D01*
X85493624Y-30742812D01*
X85459000Y-30568741D01*
X85459000Y-30391259D01*
X85493624Y-30217188D01*
X85561544Y-30053216D01*
X85660147Y-29905646D01*
X85785646Y-29780147D01*
X85933216Y-29681544D01*
X86097188Y-29613624D01*
X86246488Y-29583927D01*
X86271258Y-29579000D01*
X86448742Y-29579000D01*
X86473512Y-29583927D01*
X86473512Y-29583927D01*
G37*
G36*
X89801000Y-31381000D02*
G01*
X87999000Y-31381000D01*
X87999000Y-29579000D01*
X89801000Y-29579000D01*
X89801000Y-31381000D01*
X89801000Y-31381000D01*
G37*
M02*
