G04 #@! TF.GenerationSoftware,KiCad,Pcbnew,(5.1.2)-2*
G04 #@! TF.CreationDate,2020-12-29T16:45:58+00:00*
G04 #@! TF.ProjectId,LEDC68 and 0.9 Inch OLED Adapter,4c454443-3638-4206-916e-6420302e3920,rev?*
G04 #@! TF.SameCoordinates,Original*
G04 #@! TF.FileFunction,Copper,L2,Bot*
G04 #@! TF.FilePolarity,Positive*
%FSLAX46Y46*%
G04 Gerber Fmt 4.6, Leading zero omitted, Abs format (unit mm)*
G04 Created by KiCad (PCBNEW (5.1.2)-2) date 2020-12-29 16:45:58*
%MOMM*%
%LPD*%
G04 APERTURE LIST*
%ADD10O,1.700000X1.700000*%
%ADD11R,1.700000X1.700000*%
%ADD12C,1.700000*%
%ADD13C,0.250000*%
%ADD14C,0.254000*%
G04 APERTURE END LIST*
D10*
X83820000Y-33020000D03*
X86360000Y-33020000D03*
D11*
X83820000Y-30480000D03*
D12*
X86360000Y-30480000D03*
D10*
X88900000Y-38100000D03*
X88900000Y-35560000D03*
X88900000Y-33020000D03*
D11*
X88900000Y-30480000D03*
D10*
X86360000Y-38100000D03*
X83820000Y-38100000D03*
X81280000Y-38100000D03*
D11*
X78740000Y-38100000D03*
D13*
X85510001Y-31329999D02*
X86360000Y-30480000D01*
X85115400Y-31724600D02*
X85510001Y-31329999D01*
X85115400Y-35602519D02*
X85115400Y-31724600D01*
X83820000Y-38100000D02*
X83820000Y-36897919D01*
X83820000Y-36897919D02*
X85115400Y-35602519D01*
D14*
G36*
X91607441Y-28999364D02*
G01*
X91768501Y-29047992D01*
X91917054Y-29126979D01*
X92047430Y-29233310D01*
X92154674Y-29362946D01*
X92234695Y-29510942D01*
X92284446Y-29671661D01*
X92304001Y-29857716D01*
X92304000Y-38334146D01*
X92285636Y-38521441D01*
X92237008Y-38682503D01*
X92158023Y-38831051D01*
X92051689Y-38961430D01*
X91922054Y-39068674D01*
X91774058Y-39148695D01*
X91613339Y-39198446D01*
X91427293Y-39218000D01*
X89419757Y-39218000D01*
X89587216Y-39128491D01*
X89774660Y-38974660D01*
X89928491Y-38787216D01*
X90042798Y-38573363D01*
X90113188Y-38341318D01*
X90136956Y-38100000D01*
X90113188Y-37858682D01*
X90042798Y-37626637D01*
X89928491Y-37412784D01*
X89774660Y-37225340D01*
X89587216Y-37071509D01*
X89373363Y-36957202D01*
X89141318Y-36886812D01*
X88960472Y-36869000D01*
X88839528Y-36869000D01*
X88658682Y-36886812D01*
X88426637Y-36957202D01*
X88212784Y-37071509D01*
X88025340Y-37225340D01*
X87871509Y-37412784D01*
X87757202Y-37626637D01*
X87686812Y-37858682D01*
X87663044Y-38100000D01*
X87686812Y-38341318D01*
X87757202Y-38573363D01*
X87871509Y-38787216D01*
X88025340Y-38974660D01*
X88212784Y-39128491D01*
X88380243Y-39218000D01*
X86879757Y-39218000D01*
X87047216Y-39128491D01*
X87234660Y-38974660D01*
X87388491Y-38787216D01*
X87502798Y-38573363D01*
X87573188Y-38341318D01*
X87596956Y-38100000D01*
X87573188Y-37858682D01*
X87502798Y-37626637D01*
X87388491Y-37412784D01*
X87234660Y-37225340D01*
X87047216Y-37071509D01*
X86833363Y-36957202D01*
X86601318Y-36886812D01*
X86420472Y-36869000D01*
X86299528Y-36869000D01*
X86118682Y-36886812D01*
X85886637Y-36957202D01*
X85672784Y-37071509D01*
X85485340Y-37225340D01*
X85331509Y-37412784D01*
X85217202Y-37626637D01*
X85146812Y-37858682D01*
X85123044Y-38100000D01*
X85146812Y-38341318D01*
X85217202Y-38573363D01*
X85331509Y-38787216D01*
X85485340Y-38974660D01*
X85672784Y-39128491D01*
X85840243Y-39218000D01*
X84339757Y-39218000D01*
X84507216Y-39128491D01*
X84694660Y-38974660D01*
X84848491Y-38787216D01*
X84962798Y-38573363D01*
X85033188Y-38341318D01*
X85056956Y-38100000D01*
X85033188Y-37858682D01*
X84962798Y-37626637D01*
X84848491Y-37412784D01*
X84694660Y-37225340D01*
X84507216Y-37071509D01*
X84412583Y-37020927D01*
X85455620Y-35977891D01*
X85474927Y-35962046D01*
X85538159Y-35884998D01*
X85585145Y-35797094D01*
X85614078Y-35701712D01*
X85621400Y-35627373D01*
X85621400Y-35627366D01*
X85623847Y-35602520D01*
X85621400Y-35577674D01*
X85621400Y-35560000D01*
X87663044Y-35560000D01*
X87686812Y-35801318D01*
X87757202Y-36033363D01*
X87871509Y-36247216D01*
X88025340Y-36434660D01*
X88212784Y-36588491D01*
X88426637Y-36702798D01*
X88658682Y-36773188D01*
X88839528Y-36791000D01*
X88960472Y-36791000D01*
X89141318Y-36773188D01*
X89373363Y-36702798D01*
X89587216Y-36588491D01*
X89774660Y-36434660D01*
X89928491Y-36247216D01*
X90042798Y-36033363D01*
X90113188Y-35801318D01*
X90136956Y-35560000D01*
X90113188Y-35318682D01*
X90042798Y-35086637D01*
X89928491Y-34872784D01*
X89774660Y-34685340D01*
X89587216Y-34531509D01*
X89373363Y-34417202D01*
X89141318Y-34346812D01*
X88960472Y-34329000D01*
X88839528Y-34329000D01*
X88658682Y-34346812D01*
X88426637Y-34417202D01*
X88212784Y-34531509D01*
X88025340Y-34685340D01*
X87871509Y-34872784D01*
X87757202Y-35086637D01*
X87686812Y-35318682D01*
X87663044Y-35560000D01*
X85621400Y-35560000D01*
X85621400Y-34006321D01*
X85672784Y-34048491D01*
X85886637Y-34162798D01*
X86118682Y-34233188D01*
X86299528Y-34251000D01*
X86420472Y-34251000D01*
X86601318Y-34233188D01*
X86833363Y-34162798D01*
X87047216Y-34048491D01*
X87234660Y-33894660D01*
X87388491Y-33707216D01*
X87502798Y-33493363D01*
X87573188Y-33261318D01*
X87596956Y-33020000D01*
X87663044Y-33020000D01*
X87686812Y-33261318D01*
X87757202Y-33493363D01*
X87871509Y-33707216D01*
X88025340Y-33894660D01*
X88212784Y-34048491D01*
X88426637Y-34162798D01*
X88658682Y-34233188D01*
X88839528Y-34251000D01*
X88960472Y-34251000D01*
X89141318Y-34233188D01*
X89373363Y-34162798D01*
X89587216Y-34048491D01*
X89774660Y-33894660D01*
X89928491Y-33707216D01*
X90042798Y-33493363D01*
X90113188Y-33261318D01*
X90136956Y-33020000D01*
X90113188Y-32778682D01*
X90042798Y-32546637D01*
X89928491Y-32332784D01*
X89774660Y-32145340D01*
X89587216Y-31991509D01*
X89373363Y-31877202D01*
X89141318Y-31806812D01*
X88960472Y-31789000D01*
X88839528Y-31789000D01*
X88658682Y-31806812D01*
X88426637Y-31877202D01*
X88212784Y-31991509D01*
X88025340Y-32145340D01*
X87871509Y-32332784D01*
X87757202Y-32546637D01*
X87686812Y-32778682D01*
X87663044Y-33020000D01*
X87596956Y-33020000D01*
X87573188Y-32778682D01*
X87502798Y-32546637D01*
X87388491Y-32332784D01*
X87234660Y-32145340D01*
X87047216Y-31991509D01*
X86833363Y-31877202D01*
X86601318Y-31806812D01*
X86420472Y-31789000D01*
X86299528Y-31789000D01*
X86118682Y-31806812D01*
X85886637Y-31877202D01*
X85672784Y-31991509D01*
X85621400Y-32033679D01*
X85621400Y-31934191D01*
X85885371Y-31670221D01*
X85885375Y-31670216D01*
X85923833Y-31631758D01*
X86000931Y-31663693D01*
X86238757Y-31711000D01*
X86481243Y-31711000D01*
X86719069Y-31663693D01*
X86943097Y-31570898D01*
X87144717Y-31436180D01*
X87250897Y-31330000D01*
X87667157Y-31330000D01*
X87674513Y-31404689D01*
X87696299Y-31476508D01*
X87731678Y-31542696D01*
X87779289Y-31600711D01*
X87837304Y-31648322D01*
X87903492Y-31683701D01*
X87975311Y-31705487D01*
X88050000Y-31712843D01*
X88677750Y-31711000D01*
X88773000Y-31615750D01*
X88773000Y-30607000D01*
X89027000Y-30607000D01*
X89027000Y-31615750D01*
X89122250Y-31711000D01*
X89750000Y-31712843D01*
X89824689Y-31705487D01*
X89896508Y-31683701D01*
X89962696Y-31648322D01*
X90020711Y-31600711D01*
X90068322Y-31542696D01*
X90103701Y-31476508D01*
X90125487Y-31404689D01*
X90132843Y-31330000D01*
X90131000Y-30702250D01*
X90035750Y-30607000D01*
X89027000Y-30607000D01*
X88773000Y-30607000D01*
X87764250Y-30607000D01*
X87669000Y-30702250D01*
X87667157Y-31330000D01*
X87250897Y-31330000D01*
X87316180Y-31264717D01*
X87450898Y-31063097D01*
X87543693Y-30839069D01*
X87591000Y-30601243D01*
X87591000Y-30358757D01*
X87543693Y-30120931D01*
X87450898Y-29896903D01*
X87316180Y-29695283D01*
X87250897Y-29630000D01*
X87667157Y-29630000D01*
X87669000Y-30257750D01*
X87764250Y-30353000D01*
X88773000Y-30353000D01*
X88773000Y-29344250D01*
X89027000Y-29344250D01*
X89027000Y-30353000D01*
X90035750Y-30353000D01*
X90131000Y-30257750D01*
X90132843Y-29630000D01*
X90125487Y-29555311D01*
X90103701Y-29483492D01*
X90068322Y-29417304D01*
X90020711Y-29359289D01*
X89962696Y-29311678D01*
X89896508Y-29276299D01*
X89824689Y-29254513D01*
X89750000Y-29247157D01*
X89122250Y-29249000D01*
X89027000Y-29344250D01*
X88773000Y-29344250D01*
X88677750Y-29249000D01*
X88050000Y-29247157D01*
X87975311Y-29254513D01*
X87903492Y-29276299D01*
X87837304Y-29311678D01*
X87779289Y-29359289D01*
X87731678Y-29417304D01*
X87696299Y-29483492D01*
X87674513Y-29555311D01*
X87667157Y-29630000D01*
X87250897Y-29630000D01*
X87144717Y-29523820D01*
X86943097Y-29389102D01*
X86719069Y-29296307D01*
X86481243Y-29249000D01*
X86238757Y-29249000D01*
X86000931Y-29296307D01*
X85776903Y-29389102D01*
X85575283Y-29523820D01*
X85403820Y-29695283D01*
X85269102Y-29896903D01*
X85176307Y-30120931D01*
X85129000Y-30358757D01*
X85129000Y-30601243D01*
X85176307Y-30839069D01*
X85208242Y-30916167D01*
X85169784Y-30954625D01*
X85169779Y-30954629D01*
X85052086Y-31072322D01*
X85051000Y-30702250D01*
X84955750Y-30607000D01*
X83947000Y-30607000D01*
X83947000Y-31615750D01*
X84042250Y-31711000D01*
X84608129Y-31712661D01*
X84606953Y-31724600D01*
X84609401Y-31749456D01*
X84609401Y-32075370D01*
X84507216Y-31991509D01*
X84293363Y-31877202D01*
X84061318Y-31806812D01*
X83880472Y-31789000D01*
X83759528Y-31789000D01*
X83578682Y-31806812D01*
X83346637Y-31877202D01*
X83132784Y-31991509D01*
X82945340Y-32145340D01*
X82791509Y-32332784D01*
X82677202Y-32546637D01*
X82606812Y-32778682D01*
X82583044Y-33020000D01*
X82606812Y-33261318D01*
X82677202Y-33493363D01*
X82791509Y-33707216D01*
X82945340Y-33894660D01*
X83132784Y-34048491D01*
X83346637Y-34162798D01*
X83578682Y-34233188D01*
X83759528Y-34251000D01*
X83880472Y-34251000D01*
X84061318Y-34233188D01*
X84293363Y-34162798D01*
X84507216Y-34048491D01*
X84609400Y-33964631D01*
X84609400Y-35392927D01*
X83479780Y-36522548D01*
X83460474Y-36538392D01*
X83397242Y-36615440D01*
X83372127Y-36662427D01*
X83350255Y-36703345D01*
X83321322Y-36798727D01*
X83311553Y-36897919D01*
X83314001Y-36922775D01*
X83314001Y-36974646D01*
X83132784Y-37071509D01*
X82945340Y-37225340D01*
X82791509Y-37412784D01*
X82677202Y-37626637D01*
X82606812Y-37858682D01*
X82583044Y-38100000D01*
X82606812Y-38341318D01*
X82677202Y-38573363D01*
X82791509Y-38787216D01*
X82945340Y-38974660D01*
X83132784Y-39128491D01*
X83300243Y-39218000D01*
X81799757Y-39218000D01*
X81967216Y-39128491D01*
X82154660Y-38974660D01*
X82308491Y-38787216D01*
X82422798Y-38573363D01*
X82493188Y-38341318D01*
X82516956Y-38100000D01*
X82493188Y-37858682D01*
X82422798Y-37626637D01*
X82308491Y-37412784D01*
X82154660Y-37225340D01*
X81967216Y-37071509D01*
X81753363Y-36957202D01*
X81521318Y-36886812D01*
X81340472Y-36869000D01*
X81219528Y-36869000D01*
X81038682Y-36886812D01*
X80806637Y-36957202D01*
X80592784Y-37071509D01*
X80405340Y-37225340D01*
X80251509Y-37412784D01*
X80137202Y-37626637D01*
X80066812Y-37858682D01*
X80043044Y-38100000D01*
X80066812Y-38341318D01*
X80137202Y-38573363D01*
X80251509Y-38787216D01*
X80405340Y-38974660D01*
X80592784Y-39128491D01*
X80760243Y-39218000D01*
X79862936Y-39218000D01*
X79908322Y-39162696D01*
X79943701Y-39096508D01*
X79965487Y-39024689D01*
X79972843Y-38950000D01*
X79971000Y-38322250D01*
X79875750Y-38227000D01*
X78867000Y-38227000D01*
X78867000Y-38247000D01*
X78613000Y-38247000D01*
X78613000Y-38227000D01*
X77604250Y-38227000D01*
X77509000Y-38322250D01*
X77507157Y-38950000D01*
X77514513Y-39024689D01*
X77534241Y-39089725D01*
X77500949Y-39072023D01*
X77370570Y-38965689D01*
X77263326Y-38836054D01*
X77183305Y-38688058D01*
X77133554Y-38527339D01*
X77114000Y-38341293D01*
X77114000Y-37250000D01*
X77507157Y-37250000D01*
X77509000Y-37877750D01*
X77604250Y-37973000D01*
X78613000Y-37973000D01*
X78613000Y-36964250D01*
X78867000Y-36964250D01*
X78867000Y-37973000D01*
X79875750Y-37973000D01*
X79971000Y-37877750D01*
X79972843Y-37250000D01*
X79965487Y-37175311D01*
X79943701Y-37103492D01*
X79908322Y-37037304D01*
X79860711Y-36979289D01*
X79802696Y-36931678D01*
X79736508Y-36896299D01*
X79664689Y-36874513D01*
X79590000Y-36867157D01*
X78962250Y-36869000D01*
X78867000Y-36964250D01*
X78613000Y-36964250D01*
X78517750Y-36869000D01*
X77890000Y-36867157D01*
X77815311Y-36874513D01*
X77743492Y-36896299D01*
X77677304Y-36931678D01*
X77619289Y-36979289D01*
X77571678Y-37037304D01*
X77536299Y-37103492D01*
X77514513Y-37175311D01*
X77507157Y-37250000D01*
X77114000Y-37250000D01*
X77114000Y-31330000D01*
X82587157Y-31330000D01*
X82594513Y-31404689D01*
X82616299Y-31476508D01*
X82651678Y-31542696D01*
X82699289Y-31600711D01*
X82757304Y-31648322D01*
X82823492Y-31683701D01*
X82895311Y-31705487D01*
X82970000Y-31712843D01*
X83597750Y-31711000D01*
X83693000Y-31615750D01*
X83693000Y-30607000D01*
X82684250Y-30607000D01*
X82589000Y-30702250D01*
X82587157Y-31330000D01*
X77114000Y-31330000D01*
X77114000Y-29864854D01*
X77132364Y-29677559D01*
X77146723Y-29630000D01*
X82587157Y-29630000D01*
X82589000Y-30257750D01*
X82684250Y-30353000D01*
X83693000Y-30353000D01*
X83693000Y-29344250D01*
X83947000Y-29344250D01*
X83947000Y-30353000D01*
X84955750Y-30353000D01*
X85051000Y-30257750D01*
X85052843Y-29630000D01*
X85045487Y-29555311D01*
X85023701Y-29483492D01*
X84988322Y-29417304D01*
X84940711Y-29359289D01*
X84882696Y-29311678D01*
X84816508Y-29276299D01*
X84744689Y-29254513D01*
X84670000Y-29247157D01*
X84042250Y-29249000D01*
X83947000Y-29344250D01*
X83693000Y-29344250D01*
X83597750Y-29249000D01*
X82970000Y-29247157D01*
X82895311Y-29254513D01*
X82823492Y-29276299D01*
X82757304Y-29311678D01*
X82699289Y-29359289D01*
X82651678Y-29417304D01*
X82616299Y-29483492D01*
X82594513Y-29555311D01*
X82587157Y-29630000D01*
X77146723Y-29630000D01*
X77180992Y-29516499D01*
X77259979Y-29367946D01*
X77366310Y-29237570D01*
X77495946Y-29130326D01*
X77643942Y-29050305D01*
X77804661Y-29000554D01*
X77990707Y-28981000D01*
X91420146Y-28981000D01*
X91607441Y-28999364D01*
X91607441Y-28999364D01*
G37*
X91607441Y-28999364D02*
X91768501Y-29047992D01*
X91917054Y-29126979D01*
X92047430Y-29233310D01*
X92154674Y-29362946D01*
X92234695Y-29510942D01*
X92284446Y-29671661D01*
X92304001Y-29857716D01*
X92304000Y-38334146D01*
X92285636Y-38521441D01*
X92237008Y-38682503D01*
X92158023Y-38831051D01*
X92051689Y-38961430D01*
X91922054Y-39068674D01*
X91774058Y-39148695D01*
X91613339Y-39198446D01*
X91427293Y-39218000D01*
X89419757Y-39218000D01*
X89587216Y-39128491D01*
X89774660Y-38974660D01*
X89928491Y-38787216D01*
X90042798Y-38573363D01*
X90113188Y-38341318D01*
X90136956Y-38100000D01*
X90113188Y-37858682D01*
X90042798Y-37626637D01*
X89928491Y-37412784D01*
X89774660Y-37225340D01*
X89587216Y-37071509D01*
X89373363Y-36957202D01*
X89141318Y-36886812D01*
X88960472Y-36869000D01*
X88839528Y-36869000D01*
X88658682Y-36886812D01*
X88426637Y-36957202D01*
X88212784Y-37071509D01*
X88025340Y-37225340D01*
X87871509Y-37412784D01*
X87757202Y-37626637D01*
X87686812Y-37858682D01*
X87663044Y-38100000D01*
X87686812Y-38341318D01*
X87757202Y-38573363D01*
X87871509Y-38787216D01*
X88025340Y-38974660D01*
X88212784Y-39128491D01*
X88380243Y-39218000D01*
X86879757Y-39218000D01*
X87047216Y-39128491D01*
X87234660Y-38974660D01*
X87388491Y-38787216D01*
X87502798Y-38573363D01*
X87573188Y-38341318D01*
X87596956Y-38100000D01*
X87573188Y-37858682D01*
X87502798Y-37626637D01*
X87388491Y-37412784D01*
X87234660Y-37225340D01*
X87047216Y-37071509D01*
X86833363Y-36957202D01*
X86601318Y-36886812D01*
X86420472Y-36869000D01*
X86299528Y-36869000D01*
X86118682Y-36886812D01*
X85886637Y-36957202D01*
X85672784Y-37071509D01*
X85485340Y-37225340D01*
X85331509Y-37412784D01*
X85217202Y-37626637D01*
X85146812Y-37858682D01*
X85123044Y-38100000D01*
X85146812Y-38341318D01*
X85217202Y-38573363D01*
X85331509Y-38787216D01*
X85485340Y-38974660D01*
X85672784Y-39128491D01*
X85840243Y-39218000D01*
X84339757Y-39218000D01*
X84507216Y-39128491D01*
X84694660Y-38974660D01*
X84848491Y-38787216D01*
X84962798Y-38573363D01*
X85033188Y-38341318D01*
X85056956Y-38100000D01*
X85033188Y-37858682D01*
X84962798Y-37626637D01*
X84848491Y-37412784D01*
X84694660Y-37225340D01*
X84507216Y-37071509D01*
X84412583Y-37020927D01*
X85455620Y-35977891D01*
X85474927Y-35962046D01*
X85538159Y-35884998D01*
X85585145Y-35797094D01*
X85614078Y-35701712D01*
X85621400Y-35627373D01*
X85621400Y-35627366D01*
X85623847Y-35602520D01*
X85621400Y-35577674D01*
X85621400Y-35560000D01*
X87663044Y-35560000D01*
X87686812Y-35801318D01*
X87757202Y-36033363D01*
X87871509Y-36247216D01*
X88025340Y-36434660D01*
X88212784Y-36588491D01*
X88426637Y-36702798D01*
X88658682Y-36773188D01*
X88839528Y-36791000D01*
X88960472Y-36791000D01*
X89141318Y-36773188D01*
X89373363Y-36702798D01*
X89587216Y-36588491D01*
X89774660Y-36434660D01*
X89928491Y-36247216D01*
X90042798Y-36033363D01*
X90113188Y-35801318D01*
X90136956Y-35560000D01*
X90113188Y-35318682D01*
X90042798Y-35086637D01*
X89928491Y-34872784D01*
X89774660Y-34685340D01*
X89587216Y-34531509D01*
X89373363Y-34417202D01*
X89141318Y-34346812D01*
X88960472Y-34329000D01*
X88839528Y-34329000D01*
X88658682Y-34346812D01*
X88426637Y-34417202D01*
X88212784Y-34531509D01*
X88025340Y-34685340D01*
X87871509Y-34872784D01*
X87757202Y-35086637D01*
X87686812Y-35318682D01*
X87663044Y-35560000D01*
X85621400Y-35560000D01*
X85621400Y-34006321D01*
X85672784Y-34048491D01*
X85886637Y-34162798D01*
X86118682Y-34233188D01*
X86299528Y-34251000D01*
X86420472Y-34251000D01*
X86601318Y-34233188D01*
X86833363Y-34162798D01*
X87047216Y-34048491D01*
X87234660Y-33894660D01*
X87388491Y-33707216D01*
X87502798Y-33493363D01*
X87573188Y-33261318D01*
X87596956Y-33020000D01*
X87663044Y-33020000D01*
X87686812Y-33261318D01*
X87757202Y-33493363D01*
X87871509Y-33707216D01*
X88025340Y-33894660D01*
X88212784Y-34048491D01*
X88426637Y-34162798D01*
X88658682Y-34233188D01*
X88839528Y-34251000D01*
X88960472Y-34251000D01*
X89141318Y-34233188D01*
X89373363Y-34162798D01*
X89587216Y-34048491D01*
X89774660Y-33894660D01*
X89928491Y-33707216D01*
X90042798Y-33493363D01*
X90113188Y-33261318D01*
X90136956Y-33020000D01*
X90113188Y-32778682D01*
X90042798Y-32546637D01*
X89928491Y-32332784D01*
X89774660Y-32145340D01*
X89587216Y-31991509D01*
X89373363Y-31877202D01*
X89141318Y-31806812D01*
X88960472Y-31789000D01*
X88839528Y-31789000D01*
X88658682Y-31806812D01*
X88426637Y-31877202D01*
X88212784Y-31991509D01*
X88025340Y-32145340D01*
X87871509Y-32332784D01*
X87757202Y-32546637D01*
X87686812Y-32778682D01*
X87663044Y-33020000D01*
X87596956Y-33020000D01*
X87573188Y-32778682D01*
X87502798Y-32546637D01*
X87388491Y-32332784D01*
X87234660Y-32145340D01*
X87047216Y-31991509D01*
X86833363Y-31877202D01*
X86601318Y-31806812D01*
X86420472Y-31789000D01*
X86299528Y-31789000D01*
X86118682Y-31806812D01*
X85886637Y-31877202D01*
X85672784Y-31991509D01*
X85621400Y-32033679D01*
X85621400Y-31934191D01*
X85885371Y-31670221D01*
X85885375Y-31670216D01*
X85923833Y-31631758D01*
X86000931Y-31663693D01*
X86238757Y-31711000D01*
X86481243Y-31711000D01*
X86719069Y-31663693D01*
X86943097Y-31570898D01*
X87144717Y-31436180D01*
X87250897Y-31330000D01*
X87667157Y-31330000D01*
X87674513Y-31404689D01*
X87696299Y-31476508D01*
X87731678Y-31542696D01*
X87779289Y-31600711D01*
X87837304Y-31648322D01*
X87903492Y-31683701D01*
X87975311Y-31705487D01*
X88050000Y-31712843D01*
X88677750Y-31711000D01*
X88773000Y-31615750D01*
X88773000Y-30607000D01*
X89027000Y-30607000D01*
X89027000Y-31615750D01*
X89122250Y-31711000D01*
X89750000Y-31712843D01*
X89824689Y-31705487D01*
X89896508Y-31683701D01*
X89962696Y-31648322D01*
X90020711Y-31600711D01*
X90068322Y-31542696D01*
X90103701Y-31476508D01*
X90125487Y-31404689D01*
X90132843Y-31330000D01*
X90131000Y-30702250D01*
X90035750Y-30607000D01*
X89027000Y-30607000D01*
X88773000Y-30607000D01*
X87764250Y-30607000D01*
X87669000Y-30702250D01*
X87667157Y-31330000D01*
X87250897Y-31330000D01*
X87316180Y-31264717D01*
X87450898Y-31063097D01*
X87543693Y-30839069D01*
X87591000Y-30601243D01*
X87591000Y-30358757D01*
X87543693Y-30120931D01*
X87450898Y-29896903D01*
X87316180Y-29695283D01*
X87250897Y-29630000D01*
X87667157Y-29630000D01*
X87669000Y-30257750D01*
X87764250Y-30353000D01*
X88773000Y-30353000D01*
X88773000Y-29344250D01*
X89027000Y-29344250D01*
X89027000Y-30353000D01*
X90035750Y-30353000D01*
X90131000Y-30257750D01*
X90132843Y-29630000D01*
X90125487Y-29555311D01*
X90103701Y-29483492D01*
X90068322Y-29417304D01*
X90020711Y-29359289D01*
X89962696Y-29311678D01*
X89896508Y-29276299D01*
X89824689Y-29254513D01*
X89750000Y-29247157D01*
X89122250Y-29249000D01*
X89027000Y-29344250D01*
X88773000Y-29344250D01*
X88677750Y-29249000D01*
X88050000Y-29247157D01*
X87975311Y-29254513D01*
X87903492Y-29276299D01*
X87837304Y-29311678D01*
X87779289Y-29359289D01*
X87731678Y-29417304D01*
X87696299Y-29483492D01*
X87674513Y-29555311D01*
X87667157Y-29630000D01*
X87250897Y-29630000D01*
X87144717Y-29523820D01*
X86943097Y-29389102D01*
X86719069Y-29296307D01*
X86481243Y-29249000D01*
X86238757Y-29249000D01*
X86000931Y-29296307D01*
X85776903Y-29389102D01*
X85575283Y-29523820D01*
X85403820Y-29695283D01*
X85269102Y-29896903D01*
X85176307Y-30120931D01*
X85129000Y-30358757D01*
X85129000Y-30601243D01*
X85176307Y-30839069D01*
X85208242Y-30916167D01*
X85169784Y-30954625D01*
X85169779Y-30954629D01*
X85052086Y-31072322D01*
X85051000Y-30702250D01*
X84955750Y-30607000D01*
X83947000Y-30607000D01*
X83947000Y-31615750D01*
X84042250Y-31711000D01*
X84608129Y-31712661D01*
X84606953Y-31724600D01*
X84609401Y-31749456D01*
X84609401Y-32075370D01*
X84507216Y-31991509D01*
X84293363Y-31877202D01*
X84061318Y-31806812D01*
X83880472Y-31789000D01*
X83759528Y-31789000D01*
X83578682Y-31806812D01*
X83346637Y-31877202D01*
X83132784Y-31991509D01*
X82945340Y-32145340D01*
X82791509Y-32332784D01*
X82677202Y-32546637D01*
X82606812Y-32778682D01*
X82583044Y-33020000D01*
X82606812Y-33261318D01*
X82677202Y-33493363D01*
X82791509Y-33707216D01*
X82945340Y-33894660D01*
X83132784Y-34048491D01*
X83346637Y-34162798D01*
X83578682Y-34233188D01*
X83759528Y-34251000D01*
X83880472Y-34251000D01*
X84061318Y-34233188D01*
X84293363Y-34162798D01*
X84507216Y-34048491D01*
X84609400Y-33964631D01*
X84609400Y-35392927D01*
X83479780Y-36522548D01*
X83460474Y-36538392D01*
X83397242Y-36615440D01*
X83372127Y-36662427D01*
X83350255Y-36703345D01*
X83321322Y-36798727D01*
X83311553Y-36897919D01*
X83314001Y-36922775D01*
X83314001Y-36974646D01*
X83132784Y-37071509D01*
X82945340Y-37225340D01*
X82791509Y-37412784D01*
X82677202Y-37626637D01*
X82606812Y-37858682D01*
X82583044Y-38100000D01*
X82606812Y-38341318D01*
X82677202Y-38573363D01*
X82791509Y-38787216D01*
X82945340Y-38974660D01*
X83132784Y-39128491D01*
X83300243Y-39218000D01*
X81799757Y-39218000D01*
X81967216Y-39128491D01*
X82154660Y-38974660D01*
X82308491Y-38787216D01*
X82422798Y-38573363D01*
X82493188Y-38341318D01*
X82516956Y-38100000D01*
X82493188Y-37858682D01*
X82422798Y-37626637D01*
X82308491Y-37412784D01*
X82154660Y-37225340D01*
X81967216Y-37071509D01*
X81753363Y-36957202D01*
X81521318Y-36886812D01*
X81340472Y-36869000D01*
X81219528Y-36869000D01*
X81038682Y-36886812D01*
X80806637Y-36957202D01*
X80592784Y-37071509D01*
X80405340Y-37225340D01*
X80251509Y-37412784D01*
X80137202Y-37626637D01*
X80066812Y-37858682D01*
X80043044Y-38100000D01*
X80066812Y-38341318D01*
X80137202Y-38573363D01*
X80251509Y-38787216D01*
X80405340Y-38974660D01*
X80592784Y-39128491D01*
X80760243Y-39218000D01*
X79862936Y-39218000D01*
X79908322Y-39162696D01*
X79943701Y-39096508D01*
X79965487Y-39024689D01*
X79972843Y-38950000D01*
X79971000Y-38322250D01*
X79875750Y-38227000D01*
X78867000Y-38227000D01*
X78867000Y-38247000D01*
X78613000Y-38247000D01*
X78613000Y-38227000D01*
X77604250Y-38227000D01*
X77509000Y-38322250D01*
X77507157Y-38950000D01*
X77514513Y-39024689D01*
X77534241Y-39089725D01*
X77500949Y-39072023D01*
X77370570Y-38965689D01*
X77263326Y-38836054D01*
X77183305Y-38688058D01*
X77133554Y-38527339D01*
X77114000Y-38341293D01*
X77114000Y-37250000D01*
X77507157Y-37250000D01*
X77509000Y-37877750D01*
X77604250Y-37973000D01*
X78613000Y-37973000D01*
X78613000Y-36964250D01*
X78867000Y-36964250D01*
X78867000Y-37973000D01*
X79875750Y-37973000D01*
X79971000Y-37877750D01*
X79972843Y-37250000D01*
X79965487Y-37175311D01*
X79943701Y-37103492D01*
X79908322Y-37037304D01*
X79860711Y-36979289D01*
X79802696Y-36931678D01*
X79736508Y-36896299D01*
X79664689Y-36874513D01*
X79590000Y-36867157D01*
X78962250Y-36869000D01*
X78867000Y-36964250D01*
X78613000Y-36964250D01*
X78517750Y-36869000D01*
X77890000Y-36867157D01*
X77815311Y-36874513D01*
X77743492Y-36896299D01*
X77677304Y-36931678D01*
X77619289Y-36979289D01*
X77571678Y-37037304D01*
X77536299Y-37103492D01*
X77514513Y-37175311D01*
X77507157Y-37250000D01*
X77114000Y-37250000D01*
X77114000Y-31330000D01*
X82587157Y-31330000D01*
X82594513Y-31404689D01*
X82616299Y-31476508D01*
X82651678Y-31542696D01*
X82699289Y-31600711D01*
X82757304Y-31648322D01*
X82823492Y-31683701D01*
X82895311Y-31705487D01*
X82970000Y-31712843D01*
X83597750Y-31711000D01*
X83693000Y-31615750D01*
X83693000Y-30607000D01*
X82684250Y-30607000D01*
X82589000Y-30702250D01*
X82587157Y-31330000D01*
X77114000Y-31330000D01*
X77114000Y-29864854D01*
X77132364Y-29677559D01*
X77146723Y-29630000D01*
X82587157Y-29630000D01*
X82589000Y-30257750D01*
X82684250Y-30353000D01*
X83693000Y-30353000D01*
X83693000Y-29344250D01*
X83947000Y-29344250D01*
X83947000Y-30353000D01*
X84955750Y-30353000D01*
X85051000Y-30257750D01*
X85052843Y-29630000D01*
X85045487Y-29555311D01*
X85023701Y-29483492D01*
X84988322Y-29417304D01*
X84940711Y-29359289D01*
X84882696Y-29311678D01*
X84816508Y-29276299D01*
X84744689Y-29254513D01*
X84670000Y-29247157D01*
X84042250Y-29249000D01*
X83947000Y-29344250D01*
X83693000Y-29344250D01*
X83597750Y-29249000D01*
X82970000Y-29247157D01*
X82895311Y-29254513D01*
X82823492Y-29276299D01*
X82757304Y-29311678D01*
X82699289Y-29359289D01*
X82651678Y-29417304D01*
X82616299Y-29483492D01*
X82594513Y-29555311D01*
X82587157Y-29630000D01*
X77146723Y-29630000D01*
X77180992Y-29516499D01*
X77259979Y-29367946D01*
X77366310Y-29237570D01*
X77495946Y-29130326D01*
X77643942Y-29050305D01*
X77804661Y-29000554D01*
X77990707Y-28981000D01*
X91420146Y-28981000D01*
X91607441Y-28999364D01*
M02*
