G04 #@! TF.GenerationSoftware,KiCad,Pcbnew,(5.1.2)-2*
G04 #@! TF.CreationDate,2020-12-29T16:45:58+00:00*
G04 #@! TF.ProjectId,LEDC68 and 0.9 Inch OLED Adapter,4c454443-3638-4206-916e-6420302e3920,rev?*
G04 #@! TF.SameCoordinates,Original*
G04 #@! TF.FileFunction,Legend,Top*
G04 #@! TF.FilePolarity,Positive*
%FSLAX46Y46*%
G04 Gerber Fmt 4.6, Leading zero omitted, Abs format (unit mm)*
G04 Created by KiCad (PCBNEW (5.1.2)-2) date 2020-12-29 16:45:58*
%MOMM*%
%LPD*%
G04 APERTURE LIST*
%ADD10C,0.120000*%
%ADD11C,0.125000*%
%ADD12C,0.100000*%
G04 APERTURE END LIST*
D10*
X90424000Y-36830000D02*
X92329000Y-36830000D01*
X90424000Y-34290000D02*
X92329000Y-34290000D01*
X90424000Y-31623000D02*
X92329000Y-31623000D01*
X90424000Y-39116000D02*
X90424000Y-29591000D01*
X92329000Y-39116000D02*
X90424000Y-39116000D01*
X92329000Y-29591000D02*
X92329000Y-39116000D01*
X90424000Y-29591000D02*
X92329000Y-29591000D01*
D11*
X90586809Y-28936190D02*
X90682047Y-28936190D01*
X90729666Y-28960000D01*
X90777285Y-29007619D01*
X90801095Y-29102857D01*
X90801095Y-29269523D01*
X90777285Y-29364761D01*
X90729666Y-29412380D01*
X90682047Y-29436190D01*
X90586809Y-29436190D01*
X90539190Y-29412380D01*
X90491571Y-29364761D01*
X90467761Y-29269523D01*
X90467761Y-29102857D01*
X90491571Y-29007619D01*
X90539190Y-28960000D01*
X90586809Y-28936190D01*
X91253476Y-29436190D02*
X91015380Y-29436190D01*
X91015380Y-28936190D01*
X91420142Y-29174285D02*
X91586809Y-29174285D01*
X91658238Y-29436190D02*
X91420142Y-29436190D01*
X91420142Y-28936190D01*
X91658238Y-28936190D01*
X91872523Y-29436190D02*
X91872523Y-28936190D01*
X91991571Y-28936190D01*
X92063000Y-28960000D01*
X92110619Y-29007619D01*
X92134428Y-29055238D01*
X92158238Y-29150476D01*
X92158238Y-29221904D01*
X92134428Y-29317142D01*
X92110619Y-29364761D01*
X92063000Y-29412380D01*
X91991571Y-29436190D01*
X91872523Y-29436190D01*
X78530580Y-32382590D02*
X78292485Y-32382590D01*
X78292485Y-31882590D01*
X78697247Y-32120685D02*
X78863914Y-32120685D01*
X78935342Y-32382590D02*
X78697247Y-32382590D01*
X78697247Y-31882590D01*
X78935342Y-31882590D01*
X79149628Y-32382590D02*
X79149628Y-31882590D01*
X79268676Y-31882590D01*
X79340104Y-31906400D01*
X79387723Y-31954019D01*
X79411533Y-32001638D01*
X79435342Y-32096876D01*
X79435342Y-32168304D01*
X79411533Y-32263542D01*
X79387723Y-32311161D01*
X79340104Y-32358780D01*
X79268676Y-32382590D01*
X79149628Y-32382590D01*
X79935342Y-32334971D02*
X79911533Y-32358780D01*
X79840104Y-32382590D01*
X79792485Y-32382590D01*
X79721057Y-32358780D01*
X79673438Y-32311161D01*
X79649628Y-32263542D01*
X79625819Y-32168304D01*
X79625819Y-32096876D01*
X79649628Y-32001638D01*
X79673438Y-31954019D01*
X79721057Y-31906400D01*
X79792485Y-31882590D01*
X79840104Y-31882590D01*
X79911533Y-31906400D01*
X79935342Y-31930209D01*
X80363914Y-31882590D02*
X80268676Y-31882590D01*
X80221057Y-31906400D01*
X80197247Y-31930209D01*
X80149628Y-32001638D01*
X80125819Y-32096876D01*
X80125819Y-32287352D01*
X80149628Y-32334971D01*
X80173438Y-32358780D01*
X80221057Y-32382590D01*
X80316295Y-32382590D01*
X80363914Y-32358780D01*
X80387723Y-32334971D01*
X80411533Y-32287352D01*
X80411533Y-32168304D01*
X80387723Y-32120685D01*
X80363914Y-32096876D01*
X80316295Y-32073066D01*
X80221057Y-32073066D01*
X80173438Y-32096876D01*
X80149628Y-32120685D01*
X80125819Y-32168304D01*
X80697247Y-32096876D02*
X80649628Y-32073066D01*
X80625819Y-32049257D01*
X80602009Y-32001638D01*
X80602009Y-31977828D01*
X80625819Y-31930209D01*
X80649628Y-31906400D01*
X80697247Y-31882590D01*
X80792485Y-31882590D01*
X80840104Y-31906400D01*
X80863914Y-31930209D01*
X80887723Y-31977828D01*
X80887723Y-32001638D01*
X80863914Y-32049257D01*
X80840104Y-32073066D01*
X80792485Y-32096876D01*
X80697247Y-32096876D01*
X80649628Y-32120685D01*
X80625819Y-32144495D01*
X80602009Y-32192114D01*
X80602009Y-32287352D01*
X80625819Y-32334971D01*
X80649628Y-32358780D01*
X80697247Y-32382590D01*
X80792485Y-32382590D01*
X80840104Y-32358780D01*
X80863914Y-32334971D01*
X80887723Y-32287352D01*
X80887723Y-32192114D01*
X80863914Y-32144495D01*
X80840104Y-32120685D01*
X80792485Y-32096876D01*
D10*
X81483200Y-29235400D02*
X77800200Y-29235400D01*
X81483200Y-31648400D02*
X81483200Y-29235400D01*
X77800200Y-31648400D02*
X81483200Y-31648400D01*
X77800200Y-29235400D02*
X77800200Y-31648400D01*
X77800200Y-30505400D02*
X81483200Y-30505400D01*
X79705200Y-29235400D02*
X79705200Y-31648400D01*
D11*
X85633809Y-36548190D02*
X85633809Y-36048190D01*
X85752857Y-36048190D01*
X85824285Y-36072000D01*
X85871904Y-36119619D01*
X85895714Y-36167238D01*
X85919523Y-36262476D01*
X85919523Y-36333904D01*
X85895714Y-36429142D01*
X85871904Y-36476761D01*
X85824285Y-36524380D01*
X85752857Y-36548190D01*
X85633809Y-36548190D01*
X86348095Y-36548190D02*
X86348095Y-36286285D01*
X86324285Y-36238666D01*
X86276666Y-36214857D01*
X86181428Y-36214857D01*
X86133809Y-36238666D01*
X86348095Y-36524380D02*
X86300476Y-36548190D01*
X86181428Y-36548190D01*
X86133809Y-36524380D01*
X86110000Y-36476761D01*
X86110000Y-36429142D01*
X86133809Y-36381523D01*
X86181428Y-36357714D01*
X86300476Y-36357714D01*
X86348095Y-36333904D01*
X86514761Y-36214857D02*
X86705238Y-36214857D01*
X86586190Y-36048190D02*
X86586190Y-36476761D01*
X86610000Y-36524380D01*
X86657619Y-36548190D01*
X86705238Y-36548190D01*
X87086190Y-36548190D02*
X87086190Y-36286285D01*
X87062380Y-36238666D01*
X87014761Y-36214857D01*
X86919523Y-36214857D01*
X86871904Y-36238666D01*
X87086190Y-36524380D02*
X87038571Y-36548190D01*
X86919523Y-36548190D01*
X86871904Y-36524380D01*
X86848095Y-36476761D01*
X86848095Y-36429142D01*
X86871904Y-36381523D01*
X86919523Y-36357714D01*
X87038571Y-36357714D01*
X87086190Y-36333904D01*
X83200952Y-36500571D02*
X83177142Y-36524380D01*
X83105714Y-36548190D01*
X83058095Y-36548190D01*
X82986666Y-36524380D01*
X82939047Y-36476761D01*
X82915238Y-36429142D01*
X82891428Y-36333904D01*
X82891428Y-36262476D01*
X82915238Y-36167238D01*
X82939047Y-36119619D01*
X82986666Y-36072000D01*
X83058095Y-36048190D01*
X83105714Y-36048190D01*
X83177142Y-36072000D01*
X83200952Y-36095809D01*
X83486666Y-36548190D02*
X83439047Y-36524380D01*
X83415238Y-36476761D01*
X83415238Y-36048190D01*
X83748571Y-36548190D02*
X83700952Y-36524380D01*
X83677142Y-36500571D01*
X83653333Y-36452952D01*
X83653333Y-36310095D01*
X83677142Y-36262476D01*
X83700952Y-36238666D01*
X83748571Y-36214857D01*
X83820000Y-36214857D01*
X83867619Y-36238666D01*
X83891428Y-36262476D01*
X83915238Y-36310095D01*
X83915238Y-36452952D01*
X83891428Y-36500571D01*
X83867619Y-36524380D01*
X83820000Y-36548190D01*
X83748571Y-36548190D01*
X84343809Y-36524380D02*
X84296190Y-36548190D01*
X84200952Y-36548190D01*
X84153333Y-36524380D01*
X84129523Y-36500571D01*
X84105714Y-36452952D01*
X84105714Y-36310095D01*
X84129523Y-36262476D01*
X84153333Y-36238666D01*
X84200952Y-36214857D01*
X84296190Y-36214857D01*
X84343809Y-36238666D01*
X84558095Y-36548190D02*
X84558095Y-36048190D01*
X84605714Y-36357714D02*
X84748571Y-36548190D01*
X84748571Y-36214857D02*
X84558095Y-36405333D01*
X78359047Y-36072000D02*
X78311428Y-36048190D01*
X78240000Y-36048190D01*
X78168571Y-36072000D01*
X78120952Y-36119619D01*
X78097142Y-36167238D01*
X78073333Y-36262476D01*
X78073333Y-36333904D01*
X78097142Y-36429142D01*
X78120952Y-36476761D01*
X78168571Y-36524380D01*
X78240000Y-36548190D01*
X78287619Y-36548190D01*
X78359047Y-36524380D01*
X78382857Y-36500571D01*
X78382857Y-36333904D01*
X78287619Y-36333904D01*
X78597142Y-36548190D02*
X78597142Y-36048190D01*
X78882857Y-36548190D01*
X78882857Y-36048190D01*
X79120952Y-36548190D02*
X79120952Y-36048190D01*
X79240000Y-36048190D01*
X79311428Y-36072000D01*
X79359047Y-36119619D01*
X79382857Y-36167238D01*
X79406666Y-36262476D01*
X79406666Y-36333904D01*
X79382857Y-36429142D01*
X79359047Y-36476761D01*
X79311428Y-36524380D01*
X79240000Y-36548190D01*
X79120952Y-36548190D01*
X80613333Y-36048190D02*
X80780000Y-36548190D01*
X80946666Y-36048190D01*
X81399047Y-36500571D02*
X81375238Y-36524380D01*
X81303809Y-36548190D01*
X81256190Y-36548190D01*
X81184761Y-36524380D01*
X81137142Y-36476761D01*
X81113333Y-36429142D01*
X81089523Y-36333904D01*
X81089523Y-36262476D01*
X81113333Y-36167238D01*
X81137142Y-36119619D01*
X81184761Y-36072000D01*
X81256190Y-36048190D01*
X81303809Y-36048190D01*
X81375238Y-36072000D01*
X81399047Y-36095809D01*
X81899047Y-36500571D02*
X81875238Y-36524380D01*
X81803809Y-36548190D01*
X81756190Y-36548190D01*
X81684761Y-36524380D01*
X81637142Y-36476761D01*
X81613333Y-36429142D01*
X81589523Y-36333904D01*
X81589523Y-36262476D01*
X81613333Y-36167238D01*
X81637142Y-36119619D01*
X81684761Y-36072000D01*
X81756190Y-36048190D01*
X81803809Y-36048190D01*
X81875238Y-36072000D01*
X81899047Y-36095809D01*
X90773333Y-32746190D02*
X90940000Y-33246190D01*
X91106666Y-32746190D01*
X91559047Y-33198571D02*
X91535238Y-33222380D01*
X91463809Y-33246190D01*
X91416190Y-33246190D01*
X91344761Y-33222380D01*
X91297142Y-33174761D01*
X91273333Y-33127142D01*
X91249523Y-33031904D01*
X91249523Y-32960476D01*
X91273333Y-32865238D01*
X91297142Y-32817619D01*
X91344761Y-32770000D01*
X91416190Y-32746190D01*
X91463809Y-32746190D01*
X91535238Y-32770000D01*
X91559047Y-32793809D01*
X92059047Y-33198571D02*
X92035238Y-33222380D01*
X91963809Y-33246190D01*
X91916190Y-33246190D01*
X91844761Y-33222380D01*
X91797142Y-33174761D01*
X91773333Y-33127142D01*
X91749523Y-33031904D01*
X91749523Y-32960476D01*
X91773333Y-32865238D01*
X91797142Y-32817619D01*
X91844761Y-32770000D01*
X91916190Y-32746190D01*
X91963809Y-32746190D01*
X92035238Y-32770000D01*
X92059047Y-32793809D01*
X91059047Y-30230000D02*
X91011428Y-30206190D01*
X90940000Y-30206190D01*
X90868571Y-30230000D01*
X90820952Y-30277619D01*
X90797142Y-30325238D01*
X90773333Y-30420476D01*
X90773333Y-30491904D01*
X90797142Y-30587142D01*
X90820952Y-30634761D01*
X90868571Y-30682380D01*
X90940000Y-30706190D01*
X90987619Y-30706190D01*
X91059047Y-30682380D01*
X91082857Y-30658571D01*
X91082857Y-30491904D01*
X90987619Y-30491904D01*
X91297142Y-30706190D02*
X91297142Y-30206190D01*
X91582857Y-30706190D01*
X91582857Y-30206190D01*
X91820952Y-30706190D02*
X91820952Y-30206190D01*
X91940000Y-30206190D01*
X92011428Y-30230000D01*
X92059047Y-30277619D01*
X92082857Y-30325238D01*
X92106666Y-30420476D01*
X92106666Y-30491904D01*
X92082857Y-30587142D01*
X92059047Y-30634761D01*
X92011428Y-30682380D01*
X91940000Y-30706190D01*
X91820952Y-30706190D01*
D12*
X77406771Y-33663752D02*
X77216295Y-33663752D01*
X77216295Y-33263752D01*
X77540104Y-33454228D02*
X77673438Y-33454228D01*
X77730580Y-33663752D02*
X77540104Y-33663752D01*
X77540104Y-33263752D01*
X77730580Y-33263752D01*
X77902009Y-33663752D02*
X77902009Y-33263752D01*
X77997247Y-33263752D01*
X78054390Y-33282800D01*
X78092485Y-33320895D01*
X78111533Y-33358990D01*
X78130580Y-33435180D01*
X78130580Y-33492323D01*
X78111533Y-33568514D01*
X78092485Y-33606609D01*
X78054390Y-33644704D01*
X77997247Y-33663752D01*
X77902009Y-33663752D01*
X78530580Y-33625657D02*
X78511533Y-33644704D01*
X78454390Y-33663752D01*
X78416295Y-33663752D01*
X78359152Y-33644704D01*
X78321057Y-33606609D01*
X78302009Y-33568514D01*
X78282961Y-33492323D01*
X78282961Y-33435180D01*
X78302009Y-33358990D01*
X78321057Y-33320895D01*
X78359152Y-33282800D01*
X78416295Y-33263752D01*
X78454390Y-33263752D01*
X78511533Y-33282800D01*
X78530580Y-33301847D01*
X78873438Y-33263752D02*
X78797247Y-33263752D01*
X78759152Y-33282800D01*
X78740104Y-33301847D01*
X78702009Y-33358990D01*
X78682961Y-33435180D01*
X78682961Y-33587561D01*
X78702009Y-33625657D01*
X78721057Y-33644704D01*
X78759152Y-33663752D01*
X78835342Y-33663752D01*
X78873438Y-33644704D01*
X78892485Y-33625657D01*
X78911533Y-33587561D01*
X78911533Y-33492323D01*
X78892485Y-33454228D01*
X78873438Y-33435180D01*
X78835342Y-33416133D01*
X78759152Y-33416133D01*
X78721057Y-33435180D01*
X78702009Y-33454228D01*
X78682961Y-33492323D01*
X79140104Y-33435180D02*
X79102009Y-33416133D01*
X79082961Y-33397085D01*
X79063914Y-33358990D01*
X79063914Y-33339942D01*
X79082961Y-33301847D01*
X79102009Y-33282800D01*
X79140104Y-33263752D01*
X79216295Y-33263752D01*
X79254390Y-33282800D01*
X79273438Y-33301847D01*
X79292485Y-33339942D01*
X79292485Y-33358990D01*
X79273438Y-33397085D01*
X79254390Y-33416133D01*
X79216295Y-33435180D01*
X79140104Y-33435180D01*
X79102009Y-33454228D01*
X79082961Y-33473276D01*
X79063914Y-33511371D01*
X79063914Y-33587561D01*
X79082961Y-33625657D01*
X79102009Y-33644704D01*
X79140104Y-33663752D01*
X79216295Y-33663752D01*
X79254390Y-33644704D01*
X79273438Y-33625657D01*
X79292485Y-33587561D01*
X79292485Y-33511371D01*
X79273438Y-33473276D01*
X79254390Y-33454228D01*
X79216295Y-33435180D01*
X80054390Y-33244704D02*
X79711533Y-33758990D01*
X80568676Y-33263752D02*
X80606771Y-33263752D01*
X80644866Y-33282800D01*
X80663914Y-33301847D01*
X80682961Y-33339942D01*
X80702009Y-33416133D01*
X80702009Y-33511371D01*
X80682961Y-33587561D01*
X80663914Y-33625657D01*
X80644866Y-33644704D01*
X80606771Y-33663752D01*
X80568676Y-33663752D01*
X80530580Y-33644704D01*
X80511533Y-33625657D01*
X80492485Y-33587561D01*
X80473438Y-33511371D01*
X80473438Y-33416133D01*
X80492485Y-33339942D01*
X80511533Y-33301847D01*
X80530580Y-33282800D01*
X80568676Y-33263752D01*
X80873438Y-33625657D02*
X80892485Y-33644704D01*
X80873438Y-33663752D01*
X80854390Y-33644704D01*
X80873438Y-33625657D01*
X80873438Y-33663752D01*
X81082961Y-33663752D02*
X81159152Y-33663752D01*
X81197247Y-33644704D01*
X81216295Y-33625657D01*
X81254390Y-33568514D01*
X81273438Y-33492323D01*
X81273438Y-33339942D01*
X81254390Y-33301847D01*
X81235342Y-33282800D01*
X81197247Y-33263752D01*
X81121057Y-33263752D01*
X81082961Y-33282800D01*
X81063914Y-33301847D01*
X81044866Y-33339942D01*
X81044866Y-33435180D01*
X81063914Y-33473276D01*
X81082961Y-33492323D01*
X81121057Y-33511371D01*
X81197247Y-33511371D01*
X81235342Y-33492323D01*
X81254390Y-33473276D01*
X81273438Y-33435180D01*
X81654390Y-33663752D02*
X81425819Y-33663752D01*
X81540104Y-33663752D02*
X81540104Y-33263752D01*
X81502009Y-33320895D01*
X81463914Y-33358990D01*
X81425819Y-33378038D01*
X81806771Y-33263752D02*
X81806771Y-33339942D01*
X81959152Y-33263752D02*
X81959152Y-33339942D01*
X77721057Y-33963752D02*
X77797247Y-33963752D01*
X77835342Y-33982800D01*
X77873438Y-34020895D01*
X77892485Y-34097085D01*
X77892485Y-34230419D01*
X77873438Y-34306609D01*
X77835342Y-34344704D01*
X77797247Y-34363752D01*
X77721057Y-34363752D01*
X77682961Y-34344704D01*
X77644866Y-34306609D01*
X77625819Y-34230419D01*
X77625819Y-34097085D01*
X77644866Y-34020895D01*
X77682961Y-33982800D01*
X77721057Y-33963752D01*
X78254390Y-34363752D02*
X78063914Y-34363752D01*
X78063914Y-33963752D01*
X78387723Y-34154228D02*
X78521057Y-34154228D01*
X78578200Y-34363752D02*
X78387723Y-34363752D01*
X78387723Y-33963752D01*
X78578200Y-33963752D01*
X78749628Y-34363752D02*
X78749628Y-33963752D01*
X78844866Y-33963752D01*
X78902009Y-33982800D01*
X78940104Y-34020895D01*
X78959152Y-34058990D01*
X78978200Y-34135180D01*
X78978200Y-34192323D01*
X78959152Y-34268514D01*
X78940104Y-34306609D01*
X78902009Y-34344704D01*
X78844866Y-34363752D01*
X78749628Y-34363752D01*
X79435342Y-34249466D02*
X79625819Y-34249466D01*
X79397247Y-34363752D02*
X79530580Y-33963752D01*
X79663914Y-34363752D01*
X79968676Y-34363752D02*
X79968676Y-33963752D01*
X79968676Y-34344704D02*
X79930580Y-34363752D01*
X79854390Y-34363752D01*
X79816295Y-34344704D01*
X79797247Y-34325657D01*
X79778200Y-34287561D01*
X79778200Y-34173276D01*
X79797247Y-34135180D01*
X79816295Y-34116133D01*
X79854390Y-34097085D01*
X79930580Y-34097085D01*
X79968676Y-34116133D01*
X80330580Y-34363752D02*
X80330580Y-34154228D01*
X80311533Y-34116133D01*
X80273438Y-34097085D01*
X80197247Y-34097085D01*
X80159152Y-34116133D01*
X80330580Y-34344704D02*
X80292485Y-34363752D01*
X80197247Y-34363752D01*
X80159152Y-34344704D01*
X80140104Y-34306609D01*
X80140104Y-34268514D01*
X80159152Y-34230419D01*
X80197247Y-34211371D01*
X80292485Y-34211371D01*
X80330580Y-34192323D01*
X80521057Y-34097085D02*
X80521057Y-34497085D01*
X80521057Y-34116133D02*
X80559152Y-34097085D01*
X80635342Y-34097085D01*
X80673438Y-34116133D01*
X80692485Y-34135180D01*
X80711533Y-34173276D01*
X80711533Y-34287561D01*
X80692485Y-34325657D01*
X80673438Y-34344704D01*
X80635342Y-34363752D01*
X80559152Y-34363752D01*
X80521057Y-34344704D01*
X80825819Y-34097085D02*
X80978200Y-34097085D01*
X80882961Y-33963752D02*
X80882961Y-34306609D01*
X80902009Y-34344704D01*
X80940104Y-34363752D01*
X80978200Y-34363752D01*
X81263914Y-34344704D02*
X81225819Y-34363752D01*
X81149628Y-34363752D01*
X81111533Y-34344704D01*
X81092485Y-34306609D01*
X81092485Y-34154228D01*
X81111533Y-34116133D01*
X81149628Y-34097085D01*
X81225819Y-34097085D01*
X81263914Y-34116133D01*
X81282961Y-34154228D01*
X81282961Y-34192323D01*
X81092485Y-34230419D01*
X81454390Y-34363752D02*
X81454390Y-34097085D01*
X81454390Y-34173276D02*
X81473438Y-34135180D01*
X81492485Y-34116133D01*
X81530580Y-34097085D01*
X81568676Y-34097085D01*
D11*
X80082295Y-31366590D02*
X80082295Y-30866590D01*
X80201342Y-30866590D01*
X80272771Y-30890400D01*
X80320390Y-30938019D01*
X80344200Y-30985638D01*
X80368009Y-31080876D01*
X80368009Y-31152304D01*
X80344200Y-31247542D01*
X80320390Y-31295161D01*
X80272771Y-31342780D01*
X80201342Y-31366590D01*
X80082295Y-31366590D01*
X80582295Y-31366590D02*
X80582295Y-30866590D01*
X80915628Y-30866590D02*
X81010866Y-30866590D01*
X81058485Y-30890400D01*
X81106104Y-30938019D01*
X81129914Y-31033257D01*
X81129914Y-31199923D01*
X81106104Y-31295161D01*
X81058485Y-31342780D01*
X81010866Y-31366590D01*
X80915628Y-31366590D01*
X80868009Y-31342780D01*
X80820390Y-31295161D01*
X80796580Y-31199923D01*
X80796580Y-31033257D01*
X80820390Y-30938019D01*
X80868009Y-30890400D01*
X80915628Y-30866590D01*
X80296580Y-30048971D02*
X80272771Y-30072780D01*
X80201342Y-30096590D01*
X80153723Y-30096590D01*
X80082295Y-30072780D01*
X80034676Y-30025161D01*
X80010866Y-29977542D01*
X79987057Y-29882304D01*
X79987057Y-29810876D01*
X80010866Y-29715638D01*
X80034676Y-29668019D01*
X80082295Y-29620400D01*
X80153723Y-29596590D01*
X80201342Y-29596590D01*
X80272771Y-29620400D01*
X80296580Y-29644209D01*
X80748961Y-30096590D02*
X80510866Y-30096590D01*
X80510866Y-29596590D01*
X80915628Y-30096590D02*
X80915628Y-29596590D01*
X81201342Y-30096590D02*
X80987057Y-29810876D01*
X81201342Y-29596590D02*
X80915628Y-29882304D01*
X90756657Y-38302380D02*
X90828085Y-38326190D01*
X90947133Y-38326190D01*
X90994752Y-38302380D01*
X91018561Y-38278571D01*
X91042371Y-38230952D01*
X91042371Y-38183333D01*
X91018561Y-38135714D01*
X90994752Y-38111904D01*
X90947133Y-38088095D01*
X90851895Y-38064285D01*
X90804276Y-38040476D01*
X90780466Y-38016666D01*
X90756657Y-37969047D01*
X90756657Y-37921428D01*
X90780466Y-37873809D01*
X90804276Y-37850000D01*
X90851895Y-37826190D01*
X90970942Y-37826190D01*
X91042371Y-37850000D01*
X91256657Y-38326190D02*
X91256657Y-37826190D01*
X91375704Y-37826190D01*
X91447133Y-37850000D01*
X91494752Y-37897619D01*
X91518561Y-37945238D01*
X91542371Y-38040476D01*
X91542371Y-38111904D01*
X91518561Y-38207142D01*
X91494752Y-38254761D01*
X91447133Y-38302380D01*
X91375704Y-38326190D01*
X91256657Y-38326190D01*
X91732847Y-38183333D02*
X91970942Y-38183333D01*
X91685228Y-38326190D02*
X91851895Y-37826190D01*
X92018561Y-38326190D01*
X90793961Y-35762380D02*
X90865390Y-35786190D01*
X90984438Y-35786190D01*
X91032057Y-35762380D01*
X91055866Y-35738571D01*
X91079676Y-35690952D01*
X91079676Y-35643333D01*
X91055866Y-35595714D01*
X91032057Y-35571904D01*
X90984438Y-35548095D01*
X90889200Y-35524285D01*
X90841580Y-35500476D01*
X90817771Y-35476666D01*
X90793961Y-35429047D01*
X90793961Y-35381428D01*
X90817771Y-35333809D01*
X90841580Y-35310000D01*
X90889200Y-35286190D01*
X91008247Y-35286190D01*
X91079676Y-35310000D01*
X91579676Y-35738571D02*
X91555866Y-35762380D01*
X91484438Y-35786190D01*
X91436819Y-35786190D01*
X91365390Y-35762380D01*
X91317771Y-35714761D01*
X91293961Y-35667142D01*
X91270152Y-35571904D01*
X91270152Y-35500476D01*
X91293961Y-35405238D01*
X91317771Y-35357619D01*
X91365390Y-35310000D01*
X91436819Y-35286190D01*
X91484438Y-35286190D01*
X91555866Y-35310000D01*
X91579676Y-35333809D01*
X92032057Y-35786190D02*
X91793961Y-35786190D01*
X91793961Y-35286190D01*
X78022533Y-30866590D02*
X78189200Y-31366590D01*
X78355866Y-30866590D01*
X78808247Y-31318971D02*
X78784438Y-31342780D01*
X78713009Y-31366590D01*
X78665390Y-31366590D01*
X78593961Y-31342780D01*
X78546342Y-31295161D01*
X78522533Y-31247542D01*
X78498723Y-31152304D01*
X78498723Y-31080876D01*
X78522533Y-30985638D01*
X78546342Y-30938019D01*
X78593961Y-30890400D01*
X78665390Y-30866590D01*
X78713009Y-30866590D01*
X78784438Y-30890400D01*
X78808247Y-30914209D01*
X79308247Y-31318971D02*
X79284438Y-31342780D01*
X79213009Y-31366590D01*
X79165390Y-31366590D01*
X79093961Y-31342780D01*
X79046342Y-31295161D01*
X79022533Y-31247542D01*
X78998723Y-31152304D01*
X78998723Y-31080876D01*
X79022533Y-30985638D01*
X79046342Y-30938019D01*
X79093961Y-30890400D01*
X79165390Y-30866590D01*
X79213009Y-30866590D01*
X79284438Y-30890400D01*
X79308247Y-30914209D01*
X78308247Y-29620400D02*
X78260628Y-29596590D01*
X78189200Y-29596590D01*
X78117771Y-29620400D01*
X78070152Y-29668019D01*
X78046342Y-29715638D01*
X78022533Y-29810876D01*
X78022533Y-29882304D01*
X78046342Y-29977542D01*
X78070152Y-30025161D01*
X78117771Y-30072780D01*
X78189200Y-30096590D01*
X78236819Y-30096590D01*
X78308247Y-30072780D01*
X78332057Y-30048971D01*
X78332057Y-29882304D01*
X78236819Y-29882304D01*
X78546342Y-30096590D02*
X78546342Y-29596590D01*
X78832057Y-30096590D01*
X78832057Y-29596590D01*
X79070152Y-30096590D02*
X79070152Y-29596590D01*
X79189200Y-29596590D01*
X79260628Y-29620400D01*
X79308247Y-29668019D01*
X79332057Y-29715638D01*
X79355866Y-29810876D01*
X79355866Y-29882304D01*
X79332057Y-29977542D01*
X79308247Y-30025161D01*
X79260628Y-30072780D01*
X79189200Y-30096590D01*
X79070152Y-30096590D01*
D10*
X82490000Y-29150000D02*
X83820000Y-29150000D01*
X82490000Y-29150000D02*
X82490000Y-30480000D01*
X85090000Y-29150000D02*
X85090000Y-31750000D01*
X82490000Y-31750000D02*
X85090000Y-31750000D01*
X87690000Y-29150000D02*
X87690000Y-34350000D01*
X82490000Y-34350000D02*
X87690000Y-34350000D01*
X82490000Y-31750000D02*
X82490000Y-34350000D01*
X85090000Y-29150000D02*
X87690000Y-29150000D01*
X88900000Y-29150000D02*
X90230000Y-29150000D01*
X90230000Y-29150000D02*
X90230000Y-30480000D01*
X90230000Y-31750000D02*
X90230000Y-39430000D01*
X87570000Y-39430000D02*
X90230000Y-39430000D01*
X87570000Y-31750000D02*
X87570000Y-39430000D01*
X87570000Y-31750000D02*
X90230000Y-31750000D01*
X77410000Y-39430000D02*
X77410000Y-38100000D01*
X78740000Y-39430000D02*
X77410000Y-39430000D01*
X80010000Y-39430000D02*
X80010000Y-36770000D01*
X80010000Y-36770000D02*
X87690000Y-36770000D01*
X80010000Y-39430000D02*
X87690000Y-39430000D01*
X87690000Y-39430000D02*
X87690000Y-36770000D01*
M02*
