M48
; DRILL file {KiCad (5.1.9)-1} date 05/15/21 15:00:19
; FORMAT={-:-/ absolute / inch / decimal}
; #@! TF.CreationDate,2021-05-15T15:00:19+01:00
; #@! TF.GenerationSoftware,Kicad,Pcbnew,(5.1.9)-1
; #@! TF.FileFunction,Plated,1,2,PTH
FMAT,2
INCH
T1C0.0157
T2C0.0394
%
G90
G05
T1
X5.5Y-3.8
X5.85Y-3.8
X6.2Y-3.8
T2
X5.5Y-3.2
X5.5Y-3.35
X5.5Y-3.5
X5.6Y-3.2
X5.6Y-3.35
X5.6Y-3.5
X5.7Y-3.2
X5.7Y-3.35
X5.7Y-3.5
X5.7Y-3.8
X5.7Y-3.9
X5.8Y-3.2
X5.8Y-3.35
X5.8Y-3.5
X5.9Y-3.2
X5.9Y-3.35
X5.9Y-3.5
X6.0Y-3.2
X6.0Y-3.35
X6.0Y-3.5
X6.0Y-3.8
X6.0Y-3.9
X6.1Y-3.2
X6.1Y-3.35
X6.1Y-3.5
X6.2Y-3.2
X6.2Y-3.35
X6.2Y-3.5
T0
M30
