%TF.GenerationSoftware,KiCad,Pcbnew,(5.1.9)-1*%
%TF.CreationDate,2021-05-15T15:00:21+01:00*%
%TF.ProjectId,Amiga A500 Keyboard Connector Breakout,416d6967-6120-4413-9530-30204b657962,rev?*%
%TF.SameCoordinates,Original*%
%TF.FileFunction,Legend,Top*%
%TF.FilePolarity,Positive*%
%FSLAX46Y46*%
G04 Gerber Fmt 4.6, Leading zero omitted, Abs format (unit mm)*
G04 Created by KiCad (PCBNEW (5.1.9)-1) date 2021-05-15 15:00:21*
%MOMM*%
%LPD*%
G01*
G04 APERTURE LIST*
%ADD10C,0.150000*%
%ADD11C,0.125000*%
%ADD12C,0.120000*%
G04 APERTURE END LIST*
D10*
X149289500Y-97197857D02*
X149746642Y-97197857D01*
X149518071Y-97426428D02*
X149518071Y-96969285D01*
X146404285Y-101928571D02*
X146861428Y-101928571D01*
X147004285Y-101871428D02*
X147004285Y-101271428D01*
X147347142Y-101871428D02*
X147090000Y-101528571D01*
X147347142Y-101271428D02*
X147004285Y-101614285D01*
X147804285Y-101557142D02*
X147890000Y-101585714D01*
X147918571Y-101614285D01*
X147947142Y-101671428D01*
X147947142Y-101757142D01*
X147918571Y-101814285D01*
X147890000Y-101842857D01*
X147832857Y-101871428D01*
X147604285Y-101871428D01*
X147604285Y-101271428D01*
X147804285Y-101271428D01*
X147861428Y-101300000D01*
X147890000Y-101328571D01*
X147918571Y-101385714D01*
X147918571Y-101442857D01*
X147890000Y-101500000D01*
X147861428Y-101528571D01*
X147804285Y-101557142D01*
X147604285Y-101557142D01*
X148547142Y-101871428D02*
X148347142Y-101585714D01*
X148204285Y-101871428D02*
X148204285Y-101271428D01*
X148432857Y-101271428D01*
X148490000Y-101300000D01*
X148518571Y-101328571D01*
X148547142Y-101385714D01*
X148547142Y-101471428D01*
X148518571Y-101528571D01*
X148490000Y-101557142D01*
X148432857Y-101585714D01*
X148204285Y-101585714D01*
X148804285Y-101557142D02*
X149004285Y-101557142D01*
X149090000Y-101871428D02*
X148804285Y-101871428D01*
X148804285Y-101271428D01*
X149090000Y-101271428D01*
X149318571Y-101842857D02*
X149404285Y-101871428D01*
X149547142Y-101871428D01*
X149604285Y-101842857D01*
X149632857Y-101814285D01*
X149661428Y-101757142D01*
X149661428Y-101700000D01*
X149632857Y-101642857D01*
X149604285Y-101614285D01*
X149547142Y-101585714D01*
X149432857Y-101557142D01*
X149375714Y-101528571D01*
X149347142Y-101500000D01*
X149318571Y-101442857D01*
X149318571Y-101385714D01*
X149347142Y-101328571D01*
X149375714Y-101300000D01*
X149432857Y-101271428D01*
X149575714Y-101271428D01*
X149661428Y-101300000D01*
X149918571Y-101557142D02*
X150118571Y-101557142D01*
X150204285Y-101871428D02*
X149918571Y-101871428D01*
X149918571Y-101271428D01*
X150204285Y-101271428D01*
X150375714Y-101271428D02*
X150718571Y-101271428D01*
X150547142Y-101871428D02*
X150547142Y-101271428D01*
X151828571Y-101225000D02*
X151757142Y-101189285D01*
X151650000Y-101189285D01*
X151542857Y-101225000D01*
X151471428Y-101296428D01*
X151435714Y-101367857D01*
X151400000Y-101510714D01*
X151400000Y-101617857D01*
X151435714Y-101760714D01*
X151471428Y-101832142D01*
X151542857Y-101903571D01*
X151650000Y-101939285D01*
X151721428Y-101939285D01*
X151828571Y-101903571D01*
X151864285Y-101867857D01*
X151864285Y-101617857D01*
X151721428Y-101617857D01*
X152185714Y-101939285D02*
X152185714Y-101189285D01*
X152614285Y-101939285D01*
X152614285Y-101189285D01*
X152971428Y-101939285D02*
X152971428Y-101189285D01*
X153150000Y-101189285D01*
X153257142Y-101225000D01*
X153328571Y-101296428D01*
X153364285Y-101367857D01*
X153400000Y-101510714D01*
X153400000Y-101617857D01*
X153364285Y-101760714D01*
X153328571Y-101832142D01*
X153257142Y-101903571D01*
X153150000Y-101939285D01*
X152971428Y-101939285D01*
X143815714Y-101653571D02*
X144387142Y-101653571D01*
X144101428Y-101939285D02*
X144101428Y-101367857D01*
X145101428Y-101189285D02*
X144744285Y-101189285D01*
X144708571Y-101546428D01*
X144744285Y-101510714D01*
X144815714Y-101475000D01*
X144994285Y-101475000D01*
X145065714Y-101510714D01*
X145101428Y-101546428D01*
X145137142Y-101617857D01*
X145137142Y-101796428D01*
X145101428Y-101867857D01*
X145065714Y-101903571D01*
X144994285Y-101939285D01*
X144815714Y-101939285D01*
X144744285Y-101903571D01*
X144708571Y-101867857D01*
X145351428Y-101189285D02*
X145601428Y-101939285D01*
X145851428Y-101189285D01*
X158179500Y-97197857D02*
X158636642Y-97197857D01*
X158408071Y-97426428D02*
X158408071Y-96969285D01*
X140399500Y-97197857D02*
X140856642Y-97197857D01*
X140628071Y-97426428D02*
X140628071Y-96969285D01*
X157751428Y-92908785D02*
X157151428Y-92908785D01*
X157751428Y-92623071D02*
X157151428Y-92623071D01*
X157751428Y-92280214D01*
X157151428Y-92280214D01*
X157151428Y-91994500D02*
X157637142Y-91994500D01*
X157694285Y-91965928D01*
X157722857Y-91937357D01*
X157751428Y-91880214D01*
X157751428Y-91765928D01*
X157722857Y-91708785D01*
X157694285Y-91680214D01*
X157637142Y-91651642D01*
X157151428Y-91651642D01*
X157722857Y-91394500D02*
X157751428Y-91308785D01*
X157751428Y-91165928D01*
X157722857Y-91108785D01*
X157694285Y-91080214D01*
X157637142Y-91051642D01*
X157580000Y-91051642D01*
X157522857Y-91080214D01*
X157494285Y-91108785D01*
X157465714Y-91165928D01*
X157437142Y-91280214D01*
X157408571Y-91337357D01*
X157380000Y-91365928D01*
X157322857Y-91394500D01*
X157265714Y-91394500D01*
X157208571Y-91365928D01*
X157180000Y-91337357D01*
X157151428Y-91280214D01*
X157151428Y-91137357D01*
X157180000Y-91051642D01*
X157437142Y-90794500D02*
X157437142Y-90594500D01*
X157751428Y-90508785D02*
X157751428Y-90794500D01*
X157151428Y-90794500D01*
X157151428Y-90508785D01*
X155182857Y-93480214D02*
X155211428Y-93394500D01*
X155211428Y-93251642D01*
X155182857Y-93194500D01*
X155154285Y-93165928D01*
X155097142Y-93137357D01*
X155040000Y-93137357D01*
X154982857Y-93165928D01*
X154954285Y-93194500D01*
X154925714Y-93251642D01*
X154897142Y-93365928D01*
X154868571Y-93423071D01*
X154840000Y-93451642D01*
X154782857Y-93480214D01*
X154725714Y-93480214D01*
X154668571Y-93451642D01*
X154640000Y-93423071D01*
X154611428Y-93365928D01*
X154611428Y-93223071D01*
X154640000Y-93137357D01*
X154611428Y-92965928D02*
X154611428Y-92623071D01*
X155211428Y-92794500D02*
X154611428Y-92794500D01*
X155040000Y-92451642D02*
X155040000Y-92165928D01*
X155211428Y-92508785D02*
X154611428Y-92308785D01*
X155211428Y-92108785D01*
X154611428Y-91994500D02*
X154611428Y-91651642D01*
X155211428Y-91823071D02*
X154611428Y-91823071D01*
X154611428Y-91451642D02*
X155097142Y-91451642D01*
X155154285Y-91423071D01*
X155182857Y-91394500D01*
X155211428Y-91337357D01*
X155211428Y-91223071D01*
X155182857Y-91165928D01*
X155154285Y-91137357D01*
X155097142Y-91108785D01*
X154611428Y-91108785D01*
X155182857Y-90851642D02*
X155211428Y-90765928D01*
X155211428Y-90623071D01*
X155182857Y-90565928D01*
X155154285Y-90537357D01*
X155097142Y-90508785D01*
X155040000Y-90508785D01*
X154982857Y-90537357D01*
X154954285Y-90565928D01*
X154925714Y-90623071D01*
X154897142Y-90737357D01*
X154868571Y-90794500D01*
X154840000Y-90823071D01*
X154782857Y-90851642D01*
X154725714Y-90851642D01*
X154668571Y-90823071D01*
X154640000Y-90794500D01*
X154611428Y-90737357D01*
X154611428Y-90594500D01*
X154640000Y-90508785D01*
X152100000Y-91765928D02*
X152071428Y-91823071D01*
X152071428Y-91908785D01*
X152100000Y-91994500D01*
X152157142Y-92051642D01*
X152214285Y-92080214D01*
X152328571Y-92108785D01*
X152414285Y-92108785D01*
X152528571Y-92080214D01*
X152585714Y-92051642D01*
X152642857Y-91994500D01*
X152671428Y-91908785D01*
X152671428Y-91851642D01*
X152642857Y-91765928D01*
X152614285Y-91737357D01*
X152414285Y-91737357D01*
X152414285Y-91851642D01*
X152671428Y-91480214D02*
X152071428Y-91480214D01*
X152671428Y-91137357D01*
X152071428Y-91137357D01*
X152671428Y-90851642D02*
X152071428Y-90851642D01*
X152071428Y-90708785D01*
X152100000Y-90623071D01*
X152157142Y-90565928D01*
X152214285Y-90537357D01*
X152328571Y-90508785D01*
X152414285Y-90508785D01*
X152528571Y-90537357D01*
X152585714Y-90565928D01*
X152642857Y-90623071D01*
X152671428Y-90708785D01*
X152671428Y-90851642D01*
X147362857Y-92207214D02*
X147362857Y-91750071D01*
X147591428Y-91978642D02*
X147134285Y-91978642D01*
X146991428Y-91178642D02*
X146991428Y-91464357D01*
X147277142Y-91492928D01*
X147248571Y-91464357D01*
X147220000Y-91407214D01*
X147220000Y-91264357D01*
X147248571Y-91207214D01*
X147277142Y-91178642D01*
X147334285Y-91150071D01*
X147477142Y-91150071D01*
X147534285Y-91178642D01*
X147562857Y-91207214D01*
X147591428Y-91264357D01*
X147591428Y-91407214D01*
X147562857Y-91464357D01*
X147534285Y-91492928D01*
X146991428Y-90978642D02*
X147591428Y-90778642D01*
X146991428Y-90578642D01*
D11*
X145108571Y-94749678D02*
X145108571Y-94292535D01*
X145051428Y-94149678D02*
X144451428Y-94149678D01*
X145051428Y-93806821D02*
X144708571Y-94063964D01*
X144451428Y-93806821D02*
X144794285Y-94149678D01*
X144737142Y-93349678D02*
X144765714Y-93263964D01*
X144794285Y-93235392D01*
X144851428Y-93206821D01*
X144937142Y-93206821D01*
X144994285Y-93235392D01*
X145022857Y-93263964D01*
X145051428Y-93321107D01*
X145051428Y-93549678D01*
X144451428Y-93549678D01*
X144451428Y-93349678D01*
X144480000Y-93292535D01*
X144508571Y-93263964D01*
X144565714Y-93235392D01*
X144622857Y-93235392D01*
X144680000Y-93263964D01*
X144708571Y-93292535D01*
X144737142Y-93349678D01*
X144737142Y-93549678D01*
X145051428Y-92606821D02*
X144765714Y-92806821D01*
X145051428Y-92949678D02*
X144451428Y-92949678D01*
X144451428Y-92721107D01*
X144480000Y-92663964D01*
X144508571Y-92635392D01*
X144565714Y-92606821D01*
X144651428Y-92606821D01*
X144708571Y-92635392D01*
X144737142Y-92663964D01*
X144765714Y-92721107D01*
X144765714Y-92949678D01*
X144737142Y-92349678D02*
X144737142Y-92149678D01*
X145051428Y-92063964D02*
X145051428Y-92349678D01*
X144451428Y-92349678D01*
X144451428Y-92063964D01*
X145022857Y-91835392D02*
X145051428Y-91749678D01*
X145051428Y-91606821D01*
X145022857Y-91549678D01*
X144994285Y-91521107D01*
X144937142Y-91492535D01*
X144880000Y-91492535D01*
X144822857Y-91521107D01*
X144794285Y-91549678D01*
X144765714Y-91606821D01*
X144737142Y-91721107D01*
X144708571Y-91778250D01*
X144680000Y-91806821D01*
X144622857Y-91835392D01*
X144565714Y-91835392D01*
X144508571Y-91806821D01*
X144480000Y-91778250D01*
X144451428Y-91721107D01*
X144451428Y-91578250D01*
X144480000Y-91492535D01*
X144737142Y-91235392D02*
X144737142Y-91035392D01*
X145051428Y-90949678D02*
X145051428Y-91235392D01*
X144451428Y-91235392D01*
X144451428Y-90949678D01*
X144451428Y-90778250D02*
X144451428Y-90435392D01*
X145051428Y-90606821D02*
X144451428Y-90606821D01*
X142568571Y-94121107D02*
X142568571Y-93663964D01*
X142511428Y-93521107D02*
X141911428Y-93521107D01*
X142511428Y-93178250D02*
X142168571Y-93435392D01*
X141911428Y-93178250D02*
X142254285Y-93521107D01*
X142197142Y-92721107D02*
X142225714Y-92635392D01*
X142254285Y-92606821D01*
X142311428Y-92578250D01*
X142397142Y-92578250D01*
X142454285Y-92606821D01*
X142482857Y-92635392D01*
X142511428Y-92692535D01*
X142511428Y-92921107D01*
X141911428Y-92921107D01*
X141911428Y-92721107D01*
X141940000Y-92663964D01*
X141968571Y-92635392D01*
X142025714Y-92606821D01*
X142082857Y-92606821D01*
X142140000Y-92635392D01*
X142168571Y-92663964D01*
X142197142Y-92721107D01*
X142197142Y-92921107D01*
X142511428Y-92321107D02*
X141911428Y-92321107D01*
X141911428Y-92178250D01*
X141940000Y-92092535D01*
X141997142Y-92035392D01*
X142054285Y-92006821D01*
X142168571Y-91978250D01*
X142254285Y-91978250D01*
X142368571Y-92006821D01*
X142425714Y-92035392D01*
X142482857Y-92092535D01*
X142511428Y-92178250D01*
X142511428Y-92321107D01*
X142340000Y-91749678D02*
X142340000Y-91463964D01*
X142511428Y-91806821D02*
X141911428Y-91606821D01*
X142511428Y-91406821D01*
X141911428Y-91292535D02*
X141911428Y-90949678D01*
X142511428Y-91121107D02*
X141911428Y-91121107D01*
X142340000Y-90778250D02*
X142340000Y-90492535D01*
X142511428Y-90835392D02*
X141911428Y-90635392D01*
X142511428Y-90435392D01*
X140028571Y-94949678D02*
X140028571Y-94492535D01*
X139971428Y-94349678D02*
X139371428Y-94349678D01*
X139971428Y-94006821D02*
X139628571Y-94263964D01*
X139371428Y-94006821D02*
X139714285Y-94349678D01*
X139657142Y-93549678D02*
X139685714Y-93463964D01*
X139714285Y-93435392D01*
X139771428Y-93406821D01*
X139857142Y-93406821D01*
X139914285Y-93435392D01*
X139942857Y-93463964D01*
X139971428Y-93521107D01*
X139971428Y-93749678D01*
X139371428Y-93749678D01*
X139371428Y-93549678D01*
X139400000Y-93492535D01*
X139428571Y-93463964D01*
X139485714Y-93435392D01*
X139542857Y-93435392D01*
X139600000Y-93463964D01*
X139628571Y-93492535D01*
X139657142Y-93549678D01*
X139657142Y-93749678D01*
X139914285Y-92806821D02*
X139942857Y-92835392D01*
X139971428Y-92921107D01*
X139971428Y-92978250D01*
X139942857Y-93063964D01*
X139885714Y-93121107D01*
X139828571Y-93149678D01*
X139714285Y-93178250D01*
X139628571Y-93178250D01*
X139514285Y-93149678D01*
X139457142Y-93121107D01*
X139400000Y-93063964D01*
X139371428Y-92978250D01*
X139371428Y-92921107D01*
X139400000Y-92835392D01*
X139428571Y-92806821D01*
X139971428Y-92263964D02*
X139971428Y-92549678D01*
X139371428Y-92549678D01*
X139371428Y-91949678D02*
X139371428Y-91835392D01*
X139400000Y-91778250D01*
X139457142Y-91721107D01*
X139571428Y-91692535D01*
X139771428Y-91692535D01*
X139885714Y-91721107D01*
X139942857Y-91778250D01*
X139971428Y-91835392D01*
X139971428Y-91949678D01*
X139942857Y-92006821D01*
X139885714Y-92063964D01*
X139771428Y-92092535D01*
X139571428Y-92092535D01*
X139457142Y-92063964D01*
X139400000Y-92006821D01*
X139371428Y-91949678D01*
X139914285Y-91092535D02*
X139942857Y-91121107D01*
X139971428Y-91206821D01*
X139971428Y-91263964D01*
X139942857Y-91349678D01*
X139885714Y-91406821D01*
X139828571Y-91435392D01*
X139714285Y-91463964D01*
X139628571Y-91463964D01*
X139514285Y-91435392D01*
X139457142Y-91406821D01*
X139400000Y-91349678D01*
X139371428Y-91263964D01*
X139371428Y-91206821D01*
X139400000Y-91121107D01*
X139428571Y-91092535D01*
X139971428Y-90835392D02*
X139371428Y-90835392D01*
X139971428Y-90492535D02*
X139628571Y-90749678D01*
X139371428Y-90492535D02*
X139714285Y-90835392D01*
D10*
X155997857Y-101939285D02*
X155997857Y-101189285D01*
X156355000Y-101939285D02*
X156355000Y-101189285D01*
X156783571Y-101939285D01*
X156783571Y-101189285D01*
X157140714Y-101189285D02*
X157140714Y-101796428D01*
X157176428Y-101867857D01*
X157212142Y-101903571D01*
X157283571Y-101939285D01*
X157426428Y-101939285D01*
X157497857Y-101903571D01*
X157533571Y-101867857D01*
X157569285Y-101796428D01*
X157569285Y-101189285D01*
X157890714Y-101903571D02*
X157997857Y-101939285D01*
X158176428Y-101939285D01*
X158247857Y-101903571D01*
X158283571Y-101867857D01*
X158319285Y-101796428D01*
X158319285Y-101725000D01*
X158283571Y-101653571D01*
X158247857Y-101617857D01*
X158176428Y-101582142D01*
X158033571Y-101546428D01*
X157962142Y-101510714D01*
X157926428Y-101475000D01*
X157890714Y-101403571D01*
X157890714Y-101332142D01*
X157926428Y-101260714D01*
X157962142Y-101225000D01*
X158033571Y-101189285D01*
X158212142Y-101189285D01*
X158319285Y-101225000D01*
X158640714Y-101546428D02*
X158890714Y-101546428D01*
X158997857Y-101939285D02*
X158640714Y-101939285D01*
X158640714Y-101189285D01*
X158997857Y-101189285D01*
X137842857Y-101903571D02*
X137950000Y-101939285D01*
X138128571Y-101939285D01*
X138200000Y-101903571D01*
X138235714Y-101867857D01*
X138271428Y-101796428D01*
X138271428Y-101725000D01*
X138235714Y-101653571D01*
X138200000Y-101617857D01*
X138128571Y-101582142D01*
X137985714Y-101546428D01*
X137914285Y-101510714D01*
X137878571Y-101475000D01*
X137842857Y-101403571D01*
X137842857Y-101332142D01*
X137878571Y-101260714D01*
X137914285Y-101225000D01*
X137985714Y-101189285D01*
X138164285Y-101189285D01*
X138271428Y-101225000D01*
X138485714Y-101189285D02*
X138914285Y-101189285D01*
X138700000Y-101939285D02*
X138700000Y-101189285D01*
X139128571Y-101725000D02*
X139485714Y-101725000D01*
X139057142Y-101939285D02*
X139307142Y-101189285D01*
X139557142Y-101939285D01*
X139700000Y-101189285D02*
X140128571Y-101189285D01*
X139914285Y-101939285D02*
X139914285Y-101189285D01*
X140378571Y-101189285D02*
X140378571Y-101796428D01*
X140414285Y-101867857D01*
X140450000Y-101903571D01*
X140521428Y-101939285D01*
X140664285Y-101939285D01*
X140735714Y-101903571D01*
X140771428Y-101867857D01*
X140807142Y-101796428D01*
X140807142Y-101189285D01*
X141128571Y-101903571D02*
X141235714Y-101939285D01*
X141414285Y-101939285D01*
X141485714Y-101903571D01*
X141521428Y-101867857D01*
X141557142Y-101796428D01*
X141557142Y-101725000D01*
X141521428Y-101653571D01*
X141485714Y-101617857D01*
X141414285Y-101582142D01*
X141271428Y-101546428D01*
X141200000Y-101510714D01*
X141164285Y-101475000D01*
X141128571Y-101403571D01*
X141128571Y-101332142D01*
X141164285Y-101260714D01*
X141200000Y-101225000D01*
X141271428Y-101189285D01*
X141450000Y-101189285D01*
X141557142Y-101225000D01*
D12*
%TO.C,D3*%
X147630000Y-98060000D02*
X147630000Y-100920000D01*
X147630000Y-100920000D02*
X149550000Y-100920000D01*
X149550000Y-100920000D02*
X149550000Y-98060000D01*
%TO.C,P2*%
X151070000Y-100390000D02*
X153730000Y-100390000D01*
X151070000Y-97790000D02*
X151070000Y-100390000D01*
X153730000Y-97790000D02*
X153730000Y-100390000D01*
X151070000Y-97790000D02*
X153730000Y-97790000D01*
X151070000Y-96520000D02*
X151070000Y-95190000D01*
X151070000Y-95190000D02*
X152400000Y-95190000D01*
%TO.C,P1*%
X143450000Y-100390000D02*
X146110000Y-100390000D01*
X143450000Y-97790000D02*
X143450000Y-100390000D01*
X146110000Y-97790000D02*
X146110000Y-100390000D01*
X143450000Y-97790000D02*
X146110000Y-97790000D01*
X143450000Y-96520000D02*
X143450000Y-95190000D01*
X143450000Y-95190000D02*
X144780000Y-95190000D01*
%TO.C,D2*%
X156520000Y-98060000D02*
X156520000Y-100920000D01*
X156520000Y-100920000D02*
X158440000Y-100920000D01*
X158440000Y-100920000D02*
X158440000Y-98060000D01*
%TO.C,D1*%
X138740000Y-98060000D02*
X138740000Y-100920000D01*
X138740000Y-100920000D02*
X140660000Y-100920000D01*
X140660000Y-100920000D02*
X140660000Y-98060000D01*
%TO.C,J3*%
X158810000Y-90230000D02*
X158810000Y-87570000D01*
X140970000Y-90230000D02*
X158810000Y-90230000D01*
X140970000Y-87570000D02*
X158810000Y-87570000D01*
X140970000Y-90230000D02*
X140970000Y-87570000D01*
X139700000Y-90230000D02*
X138370000Y-90230000D01*
X138370000Y-90230000D02*
X138370000Y-88900000D01*
%TO.C,J2*%
X158810000Y-86420000D02*
X158810000Y-83760000D01*
X140970000Y-86420000D02*
X158810000Y-86420000D01*
X140970000Y-83760000D02*
X158810000Y-83760000D01*
X140970000Y-86420000D02*
X140970000Y-83760000D01*
X139700000Y-86420000D02*
X138370000Y-86420000D01*
X138370000Y-86420000D02*
X138370000Y-85090000D01*
%TO.C,J3*%
D10*
X137036666Y-88352380D02*
X137036666Y-89066666D01*
X136989047Y-89209523D01*
X136893809Y-89304761D01*
X136750952Y-89352380D01*
X136655714Y-89352380D01*
X137417619Y-88352380D02*
X138036666Y-88352380D01*
X137703333Y-88733333D01*
X137846190Y-88733333D01*
X137941428Y-88780952D01*
X137989047Y-88828571D01*
X138036666Y-88923809D01*
X138036666Y-89161904D01*
X137989047Y-89257142D01*
X137941428Y-89304761D01*
X137846190Y-89352380D01*
X137560476Y-89352380D01*
X137465238Y-89304761D01*
X137417619Y-89257142D01*
%TO.C,J2*%
X137036666Y-84542380D02*
X137036666Y-85256666D01*
X136989047Y-85399523D01*
X136893809Y-85494761D01*
X136750952Y-85542380D01*
X136655714Y-85542380D01*
X137465238Y-84637619D02*
X137512857Y-84590000D01*
X137608095Y-84542380D01*
X137846190Y-84542380D01*
X137941428Y-84590000D01*
X137989047Y-84637619D01*
X138036666Y-84732857D01*
X138036666Y-84828095D01*
X137989047Y-84970952D01*
X137417619Y-85542380D01*
X138036666Y-85542380D01*
%TD*%
M02*
