%TF.GenerationSoftware,KiCad,Pcbnew,(5.1.9)-1*%
%TF.CreationDate,2021-05-15T15:00:21+01:00*%
%TF.ProjectId,Amiga A500 Keyboard Connector Breakout,416d6967-6120-4413-9530-30204b657962,rev?*%
%TF.SameCoordinates,Original*%
%TF.FileFunction,Legend,Bot*%
%TF.FilePolarity,Positive*%
%FSLAX46Y46*%
G04 Gerber Fmt 4.6, Leading zero omitted, Abs format (unit mm)*
G04 Created by KiCad (PCBNEW (5.1.9)-1) date 2021-05-15 15:00:21*
%MOMM*%
%LPD*%
G01*
G04 APERTURE LIST*
%ADD10C,0.150000*%
%ADD11C,0.200000*%
%ADD12C,0.120000*%
G04 APERTURE END LIST*
D10*
X159613809Y-93543380D02*
X159613809Y-92543380D01*
X159185238Y-93543380D02*
X159185238Y-93019571D01*
X159232857Y-92924333D01*
X159328095Y-92876714D01*
X159470952Y-92876714D01*
X159566190Y-92924333D01*
X159613809Y-92971952D01*
X158851904Y-92876714D02*
X158470952Y-92876714D01*
X158709047Y-92543380D02*
X158709047Y-93400523D01*
X158661428Y-93495761D01*
X158566190Y-93543380D01*
X158470952Y-93543380D01*
X158280476Y-92876714D02*
X157899523Y-92876714D01*
X158137619Y-92543380D02*
X158137619Y-93400523D01*
X158090000Y-93495761D01*
X157994761Y-93543380D01*
X157899523Y-93543380D01*
X157566190Y-92876714D02*
X157566190Y-93876714D01*
X157566190Y-92924333D02*
X157470952Y-92876714D01*
X157280476Y-92876714D01*
X157185238Y-92924333D01*
X157137619Y-92971952D01*
X157090000Y-93067190D01*
X157090000Y-93352904D01*
X157137619Y-93448142D01*
X157185238Y-93495761D01*
X157280476Y-93543380D01*
X157470952Y-93543380D01*
X157566190Y-93495761D01*
X156709047Y-93495761D02*
X156613809Y-93543380D01*
X156423333Y-93543380D01*
X156328095Y-93495761D01*
X156280476Y-93400523D01*
X156280476Y-93352904D01*
X156328095Y-93257666D01*
X156423333Y-93210047D01*
X156566190Y-93210047D01*
X156661428Y-93162428D01*
X156709047Y-93067190D01*
X156709047Y-93019571D01*
X156661428Y-92924333D01*
X156566190Y-92876714D01*
X156423333Y-92876714D01*
X156328095Y-92924333D01*
X155851904Y-93448142D02*
X155804285Y-93495761D01*
X155851904Y-93543380D01*
X155899523Y-93495761D01*
X155851904Y-93448142D01*
X155851904Y-93543380D01*
X155851904Y-92924333D02*
X155804285Y-92971952D01*
X155851904Y-93019571D01*
X155899523Y-92971952D01*
X155851904Y-92924333D01*
X155851904Y-93019571D01*
X154661428Y-92495761D02*
X155518571Y-93781476D01*
X153613809Y-92495761D02*
X154470952Y-93781476D01*
X152851904Y-92876714D02*
X152851904Y-93686238D01*
X152899523Y-93781476D01*
X152947142Y-93829095D01*
X153042380Y-93876714D01*
X153185238Y-93876714D01*
X153280476Y-93829095D01*
X152851904Y-93495761D02*
X152947142Y-93543380D01*
X153137619Y-93543380D01*
X153232857Y-93495761D01*
X153280476Y-93448142D01*
X153328095Y-93352904D01*
X153328095Y-93067190D01*
X153280476Y-92971952D01*
X153232857Y-92924333D01*
X153137619Y-92876714D01*
X152947142Y-92876714D01*
X152851904Y-92924333D01*
X152375714Y-93543380D02*
X152375714Y-92876714D01*
X152375714Y-92543380D02*
X152423333Y-92591000D01*
X152375714Y-92638619D01*
X152328095Y-92591000D01*
X152375714Y-92543380D01*
X152375714Y-92638619D01*
X152042380Y-92876714D02*
X151661428Y-92876714D01*
X151899523Y-92543380D02*
X151899523Y-93400523D01*
X151851904Y-93495761D01*
X151756666Y-93543380D01*
X151661428Y-93543380D01*
X151328095Y-93543380D02*
X151328095Y-92543380D01*
X150899523Y-93543380D02*
X150899523Y-93019571D01*
X150947142Y-92924333D01*
X151042380Y-92876714D01*
X151185238Y-92876714D01*
X151280476Y-92924333D01*
X151328095Y-92971952D01*
X149994761Y-92876714D02*
X149994761Y-93543380D01*
X150423333Y-92876714D02*
X150423333Y-93400523D01*
X150375714Y-93495761D01*
X150280476Y-93543380D01*
X150137619Y-93543380D01*
X150042380Y-93495761D01*
X149994761Y-93448142D01*
X149518571Y-93543380D02*
X149518571Y-92543380D01*
X149518571Y-92924333D02*
X149423333Y-92876714D01*
X149232857Y-92876714D01*
X149137619Y-92924333D01*
X149090000Y-92971952D01*
X149042380Y-93067190D01*
X149042380Y-93352904D01*
X149090000Y-93448142D01*
X149137619Y-93495761D01*
X149232857Y-93543380D01*
X149423333Y-93543380D01*
X149518571Y-93495761D01*
X148613809Y-93448142D02*
X148566190Y-93495761D01*
X148613809Y-93543380D01*
X148661428Y-93495761D01*
X148613809Y-93448142D01*
X148613809Y-93543380D01*
X147709047Y-93495761D02*
X147804285Y-93543380D01*
X147994761Y-93543380D01*
X148090000Y-93495761D01*
X148137619Y-93448142D01*
X148185238Y-93352904D01*
X148185238Y-93067190D01*
X148137619Y-92971952D01*
X148090000Y-92924333D01*
X147994761Y-92876714D01*
X147804285Y-92876714D01*
X147709047Y-92924333D01*
X147137619Y-93543380D02*
X147232857Y-93495761D01*
X147280476Y-93448142D01*
X147328095Y-93352904D01*
X147328095Y-93067190D01*
X147280476Y-92971952D01*
X147232857Y-92924333D01*
X147137619Y-92876714D01*
X146994761Y-92876714D01*
X146899523Y-92924333D01*
X146851904Y-92971952D01*
X146804285Y-93067190D01*
X146804285Y-93352904D01*
X146851904Y-93448142D01*
X146899523Y-93495761D01*
X146994761Y-93543380D01*
X147137619Y-93543380D01*
X146375714Y-93543380D02*
X146375714Y-92876714D01*
X146375714Y-92971952D02*
X146328095Y-92924333D01*
X146232857Y-92876714D01*
X146090000Y-92876714D01*
X145994761Y-92924333D01*
X145947142Y-93019571D01*
X145947142Y-93543380D01*
X145947142Y-93019571D02*
X145899523Y-92924333D01*
X145804285Y-92876714D01*
X145661428Y-92876714D01*
X145566190Y-92924333D01*
X145518571Y-93019571D01*
X145518571Y-93543380D01*
X144328095Y-92495761D02*
X145185238Y-93781476D01*
X144042380Y-93495761D02*
X143947142Y-93543380D01*
X143756666Y-93543380D01*
X143661428Y-93495761D01*
X143613809Y-93400523D01*
X143613809Y-93352904D01*
X143661428Y-93257666D01*
X143756666Y-93210047D01*
X143899523Y-93210047D01*
X143994761Y-93162428D01*
X144042380Y-93067190D01*
X144042380Y-93019571D01*
X143994761Y-92924333D01*
X143899523Y-92876714D01*
X143756666Y-92876714D01*
X143661428Y-92924333D01*
X143042380Y-93543380D02*
X143137619Y-93495761D01*
X143185238Y-93448142D01*
X143232857Y-93352904D01*
X143232857Y-93067190D01*
X143185238Y-92971952D01*
X143137619Y-92924333D01*
X143042380Y-92876714D01*
X142899523Y-92876714D01*
X142804285Y-92924333D01*
X142756666Y-92971952D01*
X142709047Y-93067190D01*
X142709047Y-93352904D01*
X142756666Y-93448142D01*
X142804285Y-93495761D01*
X142899523Y-93543380D01*
X143042380Y-93543380D01*
X142137619Y-93543380D02*
X142232857Y-93495761D01*
X142280476Y-93400523D01*
X142280476Y-92543380D01*
X141328095Y-93543380D02*
X141328095Y-93019571D01*
X141375714Y-92924333D01*
X141470952Y-92876714D01*
X141661428Y-92876714D01*
X141756666Y-92924333D01*
X141328095Y-93495761D02*
X141423333Y-93543380D01*
X141661428Y-93543380D01*
X141756666Y-93495761D01*
X141804285Y-93400523D01*
X141804285Y-93305285D01*
X141756666Y-93210047D01*
X141661428Y-93162428D01*
X141423333Y-93162428D01*
X141328095Y-93114809D01*
X140851904Y-93543380D02*
X140851904Y-92876714D01*
X140851904Y-93067190D02*
X140804285Y-92971952D01*
X140756666Y-92924333D01*
X140661428Y-92876714D01*
X140566190Y-92876714D01*
X140232857Y-93543380D02*
X140232857Y-92876714D01*
X140232857Y-92971952D02*
X140185238Y-92924333D01*
X140090000Y-92876714D01*
X139947142Y-92876714D01*
X139851904Y-92924333D01*
X139804285Y-93019571D01*
X139804285Y-93543380D01*
X139804285Y-93019571D02*
X139756666Y-92924333D01*
X139661428Y-92876714D01*
X139518571Y-92876714D01*
X139423333Y-92924333D01*
X139375714Y-93019571D01*
X139375714Y-93543380D01*
X138756666Y-93543380D02*
X138851904Y-93495761D01*
X138899523Y-93448142D01*
X138947142Y-93352904D01*
X138947142Y-93067190D01*
X138899523Y-92971952D01*
X138851904Y-92924333D01*
X138756666Y-92876714D01*
X138613809Y-92876714D01*
X138518571Y-92924333D01*
X138470952Y-92971952D01*
X138423333Y-93067190D01*
X138423333Y-93352904D01*
X138470952Y-93448142D01*
X138518571Y-93495761D01*
X138613809Y-93543380D01*
X138756666Y-93543380D01*
X137994761Y-92876714D02*
X137994761Y-93543380D01*
X137994761Y-92971952D02*
X137947142Y-92924333D01*
X137851904Y-92876714D01*
X137709047Y-92876714D01*
X137613809Y-92924333D01*
X137566190Y-93019571D01*
X137566190Y-93543380D01*
D11*
X159447142Y-91606666D02*
X158970952Y-91606666D01*
X159542380Y-91892380D02*
X159209047Y-90892380D01*
X158875714Y-91892380D01*
X158066190Y-90892380D02*
X158542380Y-90892380D01*
X158590000Y-91368571D01*
X158542380Y-91320952D01*
X158447142Y-91273333D01*
X158209047Y-91273333D01*
X158113809Y-91320952D01*
X158066190Y-91368571D01*
X158018571Y-91463809D01*
X158018571Y-91701904D01*
X158066190Y-91797142D01*
X158113809Y-91844761D01*
X158209047Y-91892380D01*
X158447142Y-91892380D01*
X158542380Y-91844761D01*
X158590000Y-91797142D01*
X157399523Y-90892380D02*
X157304285Y-90892380D01*
X157209047Y-90940000D01*
X157161428Y-90987619D01*
X157113809Y-91082857D01*
X157066190Y-91273333D01*
X157066190Y-91511428D01*
X157113809Y-91701904D01*
X157161428Y-91797142D01*
X157209047Y-91844761D01*
X157304285Y-91892380D01*
X157399523Y-91892380D01*
X157494761Y-91844761D01*
X157542380Y-91797142D01*
X157590000Y-91701904D01*
X157637619Y-91511428D01*
X157637619Y-91273333D01*
X157590000Y-91082857D01*
X157542380Y-90987619D01*
X157494761Y-90940000D01*
X157399523Y-90892380D01*
X156447142Y-90892380D02*
X156351904Y-90892380D01*
X156256666Y-90940000D01*
X156209047Y-90987619D01*
X156161428Y-91082857D01*
X156113809Y-91273333D01*
X156113809Y-91511428D01*
X156161428Y-91701904D01*
X156209047Y-91797142D01*
X156256666Y-91844761D01*
X156351904Y-91892380D01*
X156447142Y-91892380D01*
X156542380Y-91844761D01*
X156590000Y-91797142D01*
X156637619Y-91701904D01*
X156685238Y-91511428D01*
X156685238Y-91273333D01*
X156637619Y-91082857D01*
X156590000Y-90987619D01*
X156542380Y-90940000D01*
X156447142Y-90892380D01*
X154923333Y-91892380D02*
X154923333Y-90892380D01*
X154351904Y-91892380D02*
X154780476Y-91320952D01*
X154351904Y-90892380D02*
X154923333Y-91463809D01*
X153590000Y-91368571D02*
X153447142Y-91416190D01*
X153399523Y-91463809D01*
X153351904Y-91559047D01*
X153351904Y-91701904D01*
X153399523Y-91797142D01*
X153447142Y-91844761D01*
X153542380Y-91892380D01*
X153923333Y-91892380D01*
X153923333Y-90892380D01*
X153590000Y-90892380D01*
X153494761Y-90940000D01*
X153447142Y-90987619D01*
X153399523Y-91082857D01*
X153399523Y-91178095D01*
X153447142Y-91273333D01*
X153494761Y-91320952D01*
X153590000Y-91368571D01*
X153923333Y-91368571D01*
X151590000Y-91797142D02*
X151637619Y-91844761D01*
X151780476Y-91892380D01*
X151875714Y-91892380D01*
X152018571Y-91844761D01*
X152113809Y-91749523D01*
X152161428Y-91654285D01*
X152209047Y-91463809D01*
X152209047Y-91320952D01*
X152161428Y-91130476D01*
X152113809Y-91035238D01*
X152018571Y-90940000D01*
X151875714Y-90892380D01*
X151780476Y-90892380D01*
X151637619Y-90940000D01*
X151590000Y-90987619D01*
X151018571Y-91892380D02*
X151113809Y-91844761D01*
X151161428Y-91797142D01*
X151209047Y-91701904D01*
X151209047Y-91416190D01*
X151161428Y-91320952D01*
X151113809Y-91273333D01*
X151018571Y-91225714D01*
X150875714Y-91225714D01*
X150780476Y-91273333D01*
X150732857Y-91320952D01*
X150685238Y-91416190D01*
X150685238Y-91701904D01*
X150732857Y-91797142D01*
X150780476Y-91844761D01*
X150875714Y-91892380D01*
X151018571Y-91892380D01*
X150256666Y-91225714D02*
X150256666Y-91892380D01*
X150256666Y-91320952D02*
X150209047Y-91273333D01*
X150113809Y-91225714D01*
X149970952Y-91225714D01*
X149875714Y-91273333D01*
X149828095Y-91368571D01*
X149828095Y-91892380D01*
X149351904Y-91225714D02*
X149351904Y-91892380D01*
X149351904Y-91320952D02*
X149304285Y-91273333D01*
X149209047Y-91225714D01*
X149066190Y-91225714D01*
X148970952Y-91273333D01*
X148923333Y-91368571D01*
X148923333Y-91892380D01*
X148066190Y-91844761D02*
X148161428Y-91892380D01*
X148351904Y-91892380D01*
X148447142Y-91844761D01*
X148494761Y-91749523D01*
X148494761Y-91368571D01*
X148447142Y-91273333D01*
X148351904Y-91225714D01*
X148161428Y-91225714D01*
X148066190Y-91273333D01*
X148018571Y-91368571D01*
X148018571Y-91463809D01*
X148494761Y-91559047D01*
X147161428Y-91844761D02*
X147256666Y-91892380D01*
X147447142Y-91892380D01*
X147542380Y-91844761D01*
X147590000Y-91797142D01*
X147637619Y-91701904D01*
X147637619Y-91416190D01*
X147590000Y-91320952D01*
X147542380Y-91273333D01*
X147447142Y-91225714D01*
X147256666Y-91225714D01*
X147161428Y-91273333D01*
X146875714Y-91225714D02*
X146494761Y-91225714D01*
X146732857Y-90892380D02*
X146732857Y-91749523D01*
X146685238Y-91844761D01*
X146590000Y-91892380D01*
X146494761Y-91892380D01*
X146018571Y-91892380D02*
X146113809Y-91844761D01*
X146161428Y-91797142D01*
X146209047Y-91701904D01*
X146209047Y-91416190D01*
X146161428Y-91320952D01*
X146113809Y-91273333D01*
X146018571Y-91225714D01*
X145875714Y-91225714D01*
X145780476Y-91273333D01*
X145732857Y-91320952D01*
X145685238Y-91416190D01*
X145685238Y-91701904D01*
X145732857Y-91797142D01*
X145780476Y-91844761D01*
X145875714Y-91892380D01*
X146018571Y-91892380D01*
X145256666Y-91892380D02*
X145256666Y-91225714D01*
X145256666Y-91416190D02*
X145209047Y-91320952D01*
X145161428Y-91273333D01*
X145066190Y-91225714D01*
X144970952Y-91225714D01*
X143542380Y-91368571D02*
X143399523Y-91416190D01*
X143351904Y-91463809D01*
X143304285Y-91559047D01*
X143304285Y-91701904D01*
X143351904Y-91797142D01*
X143399523Y-91844761D01*
X143494761Y-91892380D01*
X143875714Y-91892380D01*
X143875714Y-90892380D01*
X143542380Y-90892380D01*
X143447142Y-90940000D01*
X143399523Y-90987619D01*
X143351904Y-91082857D01*
X143351904Y-91178095D01*
X143399523Y-91273333D01*
X143447142Y-91320952D01*
X143542380Y-91368571D01*
X143875714Y-91368571D01*
X142875714Y-91892380D02*
X142875714Y-91225714D01*
X142875714Y-91416190D02*
X142828095Y-91320952D01*
X142780476Y-91273333D01*
X142685238Y-91225714D01*
X142590000Y-91225714D01*
X141875714Y-91844761D02*
X141970952Y-91892380D01*
X142161428Y-91892380D01*
X142256666Y-91844761D01*
X142304285Y-91749523D01*
X142304285Y-91368571D01*
X142256666Y-91273333D01*
X142161428Y-91225714D01*
X141970952Y-91225714D01*
X141875714Y-91273333D01*
X141828095Y-91368571D01*
X141828095Y-91463809D01*
X142304285Y-91559047D01*
X140970952Y-91892380D02*
X140970952Y-91368571D01*
X141018571Y-91273333D01*
X141113809Y-91225714D01*
X141304285Y-91225714D01*
X141399523Y-91273333D01*
X140970952Y-91844761D02*
X141066190Y-91892380D01*
X141304285Y-91892380D01*
X141399523Y-91844761D01*
X141447142Y-91749523D01*
X141447142Y-91654285D01*
X141399523Y-91559047D01*
X141304285Y-91511428D01*
X141066190Y-91511428D01*
X140970952Y-91463809D01*
X140494761Y-91892380D02*
X140494761Y-90892380D01*
X140399523Y-91511428D02*
X140113809Y-91892380D01*
X140113809Y-91225714D02*
X140494761Y-91606666D01*
X139542380Y-91892380D02*
X139637619Y-91844761D01*
X139685238Y-91797142D01*
X139732857Y-91701904D01*
X139732857Y-91416190D01*
X139685238Y-91320952D01*
X139637619Y-91273333D01*
X139542380Y-91225714D01*
X139399523Y-91225714D01*
X139304285Y-91273333D01*
X139256666Y-91320952D01*
X139209047Y-91416190D01*
X139209047Y-91701904D01*
X139256666Y-91797142D01*
X139304285Y-91844761D01*
X139399523Y-91892380D01*
X139542380Y-91892380D01*
X138351904Y-91225714D02*
X138351904Y-91892380D01*
X138780476Y-91225714D02*
X138780476Y-91749523D01*
X138732857Y-91844761D01*
X138637619Y-91892380D01*
X138494761Y-91892380D01*
X138399523Y-91844761D01*
X138351904Y-91797142D01*
X138018571Y-91225714D02*
X137637619Y-91225714D01*
X137875714Y-90892380D02*
X137875714Y-91749523D01*
X137828095Y-91844761D01*
X137732857Y-91892380D01*
X137637619Y-91892380D01*
D12*
%TO.C,R3*%
X149325000Y-99287064D02*
X149325000Y-98832936D01*
X147855000Y-99287064D02*
X147855000Y-98832936D01*
%TO.C,R1*%
X140435000Y-99287064D02*
X140435000Y-98832936D01*
X138965000Y-99287064D02*
X138965000Y-98832936D01*
%TO.C,R2*%
X158215000Y-99287064D02*
X158215000Y-98832936D01*
X156745000Y-99287064D02*
X156745000Y-98832936D01*
%TO.C,J1*%
X140970000Y-79950000D02*
X140970000Y-82610000D01*
X140970000Y-79950000D02*
X158810000Y-79950000D01*
X158810000Y-79950000D02*
X158810000Y-82610000D01*
X140970000Y-82610000D02*
X158810000Y-82610000D01*
X138370000Y-82610000D02*
X139700000Y-82610000D01*
X138370000Y-81280000D02*
X138370000Y-82610000D01*
%TO.C,R3*%
D10*
X148715000Y-95208285D02*
X148965000Y-94851142D01*
X149143571Y-95208285D02*
X149143571Y-94458285D01*
X148857857Y-94458285D01*
X148786428Y-94494000D01*
X148750714Y-94529714D01*
X148715000Y-94601142D01*
X148715000Y-94708285D01*
X148750714Y-94779714D01*
X148786428Y-94815428D01*
X148857857Y-94851142D01*
X149143571Y-94851142D01*
X148465000Y-94458285D02*
X148000714Y-94458285D01*
X148250714Y-94744000D01*
X148143571Y-94744000D01*
X148072142Y-94779714D01*
X148036428Y-94815428D01*
X148000714Y-94886857D01*
X148000714Y-95065428D01*
X148036428Y-95136857D01*
X148072142Y-95172571D01*
X148143571Y-95208285D01*
X148357857Y-95208285D01*
X148429285Y-95172571D01*
X148465000Y-95136857D01*
X149179285Y-95724285D02*
X149179285Y-96224285D01*
X149357857Y-95438571D02*
X149536428Y-95974285D01*
X149072142Y-95974285D01*
X148786428Y-96224285D02*
X148786428Y-95474285D01*
X148357857Y-96224285D02*
X148679285Y-95795714D01*
X148357857Y-95474285D02*
X148786428Y-95902857D01*
X148107857Y-95474285D02*
X147607857Y-95474285D01*
X147929285Y-96224285D01*
%TO.C,R1*%
X139825000Y-95208285D02*
X140075000Y-94851142D01*
X140253571Y-95208285D02*
X140253571Y-94458285D01*
X139967857Y-94458285D01*
X139896428Y-94494000D01*
X139860714Y-94529714D01*
X139825000Y-94601142D01*
X139825000Y-94708285D01*
X139860714Y-94779714D01*
X139896428Y-94815428D01*
X139967857Y-94851142D01*
X140253571Y-94851142D01*
X139110714Y-95208285D02*
X139539285Y-95208285D01*
X139325000Y-95208285D02*
X139325000Y-94458285D01*
X139396428Y-94565428D01*
X139467857Y-94636857D01*
X139539285Y-94672571D01*
X140289285Y-95724285D02*
X140289285Y-96224285D01*
X140467857Y-95438571D02*
X140646428Y-95974285D01*
X140182142Y-95974285D01*
X139896428Y-96224285D02*
X139896428Y-95474285D01*
X139467857Y-96224285D02*
X139789285Y-95795714D01*
X139467857Y-95474285D02*
X139896428Y-95902857D01*
X139217857Y-95474285D02*
X138717857Y-95474285D01*
X139039285Y-96224285D01*
%TO.C,R2*%
X157605000Y-95208285D02*
X157855000Y-94851142D01*
X158033571Y-95208285D02*
X158033571Y-94458285D01*
X157747857Y-94458285D01*
X157676428Y-94494000D01*
X157640714Y-94529714D01*
X157605000Y-94601142D01*
X157605000Y-94708285D01*
X157640714Y-94779714D01*
X157676428Y-94815428D01*
X157747857Y-94851142D01*
X158033571Y-94851142D01*
X157319285Y-94529714D02*
X157283571Y-94494000D01*
X157212142Y-94458285D01*
X157033571Y-94458285D01*
X156962142Y-94494000D01*
X156926428Y-94529714D01*
X156890714Y-94601142D01*
X156890714Y-94672571D01*
X156926428Y-94779714D01*
X157355000Y-95208285D01*
X156890714Y-95208285D01*
X158069285Y-95724285D02*
X158069285Y-96224285D01*
X158247857Y-95438571D02*
X158426428Y-95974285D01*
X157962142Y-95974285D01*
X157676428Y-96224285D02*
X157676428Y-95474285D01*
X157247857Y-96224285D02*
X157569285Y-95795714D01*
X157247857Y-95474285D02*
X157676428Y-95902857D01*
X156997857Y-95474285D02*
X156497857Y-95474285D01*
X156819285Y-96224285D01*
%TO.C,J1*%
X137263333Y-80732380D02*
X137263333Y-81446666D01*
X137310952Y-81589523D01*
X137406190Y-81684761D01*
X137549047Y-81732380D01*
X137644285Y-81732380D01*
X136263333Y-81732380D02*
X136834761Y-81732380D01*
X136549047Y-81732380D02*
X136549047Y-80732380D01*
X136644285Y-80875238D01*
X136739523Y-80970476D01*
X136834761Y-81018095D01*
%TD*%
M02*
