%TF.GenerationSoftware,KiCad,Pcbnew,(5.1.9)-1*%
%TF.CreationDate,2021-05-15T15:00:21+01:00*%
%TF.ProjectId,Amiga A500 Keyboard Connector Breakout,416d6967-6120-4413-9530-30204b657962,rev?*%
%TF.SameCoordinates,Original*%
%TF.FileFunction,Paste,Bot*%
%TF.FilePolarity,Positive*%
%FSLAX46Y46*%
G04 Gerber Fmt 4.6, Leading zero omitted, Abs format (unit mm)*
G04 Created by KiCad (PCBNEW (5.1.9)-1) date 2021-05-15 15:00:21*
%MOMM*%
%LPD*%
G01*
G04 APERTURE LIST*
G04 APERTURE END LIST*
%TO.C,R3*%
G36*
G01*
X149040001Y-98660000D02*
X148139999Y-98660000D01*
G75*
G02*
X147890000Y-98410001I0J249999D01*
G01*
X147890000Y-97709999D01*
G75*
G02*
X148139999Y-97460000I249999J0D01*
G01*
X149040001Y-97460000D01*
G75*
G02*
X149290000Y-97709999I0J-249999D01*
G01*
X149290000Y-98410001D01*
G75*
G02*
X149040001Y-98660000I-249999J0D01*
G01*
G37*
G36*
G01*
X149040001Y-100660000D02*
X148139999Y-100660000D01*
G75*
G02*
X147890000Y-100410001I0J249999D01*
G01*
X147890000Y-99709999D01*
G75*
G02*
X148139999Y-99460000I249999J0D01*
G01*
X149040001Y-99460000D01*
G75*
G02*
X149290000Y-99709999I0J-249999D01*
G01*
X149290000Y-100410001D01*
G75*
G02*
X149040001Y-100660000I-249999J0D01*
G01*
G37*
%TD*%
%TO.C,R1*%
G36*
G01*
X140150001Y-98660000D02*
X139249999Y-98660000D01*
G75*
G02*
X139000000Y-98410001I0J249999D01*
G01*
X139000000Y-97709999D01*
G75*
G02*
X139249999Y-97460000I249999J0D01*
G01*
X140150001Y-97460000D01*
G75*
G02*
X140400000Y-97709999I0J-249999D01*
G01*
X140400000Y-98410001D01*
G75*
G02*
X140150001Y-98660000I-249999J0D01*
G01*
G37*
G36*
G01*
X140150001Y-100660000D02*
X139249999Y-100660000D01*
G75*
G02*
X139000000Y-100410001I0J249999D01*
G01*
X139000000Y-99709999D01*
G75*
G02*
X139249999Y-99460000I249999J0D01*
G01*
X140150001Y-99460000D01*
G75*
G02*
X140400000Y-99709999I0J-249999D01*
G01*
X140400000Y-100410001D01*
G75*
G02*
X140150001Y-100660000I-249999J0D01*
G01*
G37*
%TD*%
%TO.C,R2*%
G36*
G01*
X157930001Y-98660000D02*
X157029999Y-98660000D01*
G75*
G02*
X156780000Y-98410001I0J249999D01*
G01*
X156780000Y-97709999D01*
G75*
G02*
X157029999Y-97460000I249999J0D01*
G01*
X157930001Y-97460000D01*
G75*
G02*
X158180000Y-97709999I0J-249999D01*
G01*
X158180000Y-98410001D01*
G75*
G02*
X157930001Y-98660000I-249999J0D01*
G01*
G37*
G36*
G01*
X157930001Y-100660000D02*
X157029999Y-100660000D01*
G75*
G02*
X156780000Y-100410001I0J249999D01*
G01*
X156780000Y-99709999D01*
G75*
G02*
X157029999Y-99460000I249999J0D01*
G01*
X157930001Y-99460000D01*
G75*
G02*
X158180000Y-99709999I0J-249999D01*
G01*
X158180000Y-100410001D01*
G75*
G02*
X157930001Y-100660000I-249999J0D01*
G01*
G37*
%TD*%
M02*
