M48
INCH,TZ
T1C0.0157
T2C0.0197
T3C0.0276
T4C0.0315
T5C0.0354
T6C0.0354
T7C0.0394
T8C0.0512
T9C0.0787
T10C0.1260
%
G90
G05
T1
X5300Y10000
X5300Y9400
X5300Y3000
X6300Y8850
X6300Y4000
X19900Y7400
X31200Y-500
X32870Y15090
X32875Y6950
X33700Y-1500
T2
X-200Y9000
X-200Y15000
X-200Y0
X-200Y14000
X-200Y10000
X35600Y-500
X-200Y5000
X35600Y-1500
X-200Y6000
X35600Y-2500
X-200Y4000
X-200Y20600
X-200Y11000
X-200Y21600
X-200Y2000
X-200Y16000
X-200Y8000
X-200Y3000
X-200Y13000
X-200Y12000
X-200Y7000
X-200Y19600
X-200Y1000
X35600Y-3500
X-200Y18600
T3
X21450Y21600
X21450Y18600
X34510Y18120
X34510Y15120
X15275Y4225
X18275Y4225
X17425Y21625
X17425Y18625
X23450Y21650
X23450Y18650
X26000Y21650
X29000Y21650
X19450Y21600
X19450Y18600
X32870Y18090
X32870Y15090
X26000Y20100
X29000Y20100
T4
X7900Y20700
X8900Y20700
X9900Y20700
X10900Y20700
X11900Y20700
T5
X35742Y12341
X35742Y11357
X35742Y10569
X35742Y9585
T6
X36000Y19090
X36000Y18090
X36000Y21080
X36000Y20080
T7
X39430Y12590
X39430Y11590
X39430Y10590
X39430Y9590
X39100Y21696
X39100Y19904
X9400Y14050
X9400Y8050
X10400Y14050
X10400Y8050
X11400Y14050
X11400Y8050
X12400Y14050
X12400Y8050
X13400Y14050
X13400Y8050
X14400Y14050
X14400Y8050
X15400Y14050
X15400Y8050
X16400Y14050
X16400Y8050
X17400Y14050
X17400Y8050
X18400Y14050
X18400Y8050
X19400Y14050
X19400Y8050
X20400Y14050
X20400Y8050
X21400Y14050
X21400Y8050
X22400Y14050
X22400Y8050
X23400Y14050
X23400Y8050
X24400Y14050
X24400Y8050
X25400Y14050
X25400Y8050
X26400Y14050
X26400Y8050
X27400Y14050
X27400Y8050
X28400Y14050
X28400Y8050
X-1700Y21600
X-1700Y20600
X-1700Y19600
X-1700Y18600
X36700Y-500
X36700Y-1500
X36700Y-2500
X36700Y-3500
X-2400Y16000
X-2400Y15000
X-2400Y14000
X-2400Y13000
X-2400Y12000
X-2400Y11000
X-2400Y10000
X-2400Y9000
X-2400Y8000
X-2400Y7000
X-2400Y6000
X-2400Y5000
X-2400Y4000
X-2400Y3000
X-2400Y2000
X-2400Y1000
X-2400Y0
X-1400Y16000
X-1400Y15000
X-1400Y14000
X-1400Y13000
X-1400Y12000
X-1400Y11000
X-1400Y10000
X-1400Y9000
X-1400Y8000
X-1400Y7000
X-1400Y6000
X-1400Y5000
X-1400Y4000
X-1400Y3000
X-1400Y2000
X-1400Y1000
X-1400Y0
T8
X38116Y22178
X38116Y19422
T9
X36809Y13550
X36809Y8376
T10
X33650Y20625
X14050Y20625
X14050Y1050
X5750Y1050
X5750Y20625
T0
M30
