G04 #@! TF.GenerationSoftware,KiCad,Pcbnew,(5.1.2)-2*
G04 #@! TF.CreationDate,2020-11-29T16:33:28+00:00*
G04 #@! TF.ProjectId,Greaseweazle F1 Gotek (USB-A),47726561-7365-4776-9561-7a6c65204631,1*
G04 #@! TF.SameCoordinates,PX6312cb0PY6bcb370*
G04 #@! TF.FileFunction,Legend,Bot*
G04 #@! TF.FilePolarity,Positive*
%FSLAX46Y46*%
G04 Gerber Fmt 4.6, Leading zero omitted, Abs format (unit mm)*
G04 Created by KiCad (PCBNEW (5.1.2)-2) date 2020-11-29 16:33:28*
%MOMM*%
%LPD*%
G04 APERTURE LIST*
%ADD10C,0.125000*%
%ADD11C,0.187500*%
%ADD12C,0.150000*%
G04 APERTURE END LIST*
D10*
X56542809Y14974143D02*
X57042809Y14974143D01*
X56542809Y15259858D01*
X57042809Y15259858D01*
X56590428Y15783667D02*
X56566619Y15759858D01*
X56542809Y15688429D01*
X56542809Y15640810D01*
X56566619Y15569381D01*
X56614238Y15521762D01*
X56661857Y15497953D01*
X56757095Y15474143D01*
X56828523Y15474143D01*
X56923761Y15497953D01*
X56971380Y15521762D01*
X57019000Y15569381D01*
X57042809Y15640810D01*
X57042809Y15688429D01*
X57019000Y15759858D01*
X56995190Y15783667D01*
X64115190Y14497953D02*
X64115190Y14878905D01*
X64162809Y15283667D02*
X64400904Y15117000D01*
X64162809Y14997953D02*
X64662809Y14997953D01*
X64662809Y15188429D01*
X64639000Y15236048D01*
X64615190Y15259858D01*
X64567571Y15283667D01*
X64496142Y15283667D01*
X64448523Y15259858D01*
X64424714Y15236048D01*
X64400904Y15188429D01*
X64400904Y14997953D01*
X64186619Y15474143D02*
X64162809Y15545572D01*
X64162809Y15664620D01*
X64186619Y15712239D01*
X64210428Y15736048D01*
X64258047Y15759858D01*
X64305666Y15759858D01*
X64353285Y15736048D01*
X64377095Y15712239D01*
X64400904Y15664620D01*
X64424714Y15569381D01*
X64448523Y15521762D01*
X64472333Y15497953D01*
X64519952Y15474143D01*
X64567571Y15474143D01*
X64615190Y15497953D01*
X64639000Y15521762D01*
X64662809Y15569381D01*
X64662809Y15688429D01*
X64639000Y15759858D01*
X64662809Y15902715D02*
X64662809Y16188429D01*
X64162809Y16045572D02*
X64662809Y16045572D01*
X61575190Y14450334D02*
X61575190Y14831286D01*
X61622809Y14950334D02*
X62122809Y14950334D01*
X61765666Y15117000D01*
X62122809Y15283667D01*
X61622809Y15283667D01*
X62122809Y15450334D02*
X62122809Y15736048D01*
X61622809Y15593191D02*
X62122809Y15593191D01*
X61622809Y16188429D02*
X61860904Y16021762D01*
X61622809Y15902715D02*
X62122809Y15902715D01*
X62122809Y16093191D01*
X62099000Y16140810D01*
X62075190Y16164620D01*
X62027571Y16188429D01*
X61956142Y16188429D01*
X61908523Y16164620D01*
X61884714Y16140810D01*
X61860904Y16093191D01*
X61860904Y15902715D01*
X66875428Y13486000D02*
X66875428Y14057429D01*
X66589714Y13771715D02*
X67161142Y13771715D01*
X67339714Y14343143D02*
X67339714Y14807429D01*
X67054000Y14557429D01*
X67054000Y14664572D01*
X67018285Y14736000D01*
X66982571Y14771715D01*
X66911142Y14807429D01*
X66732571Y14807429D01*
X66661142Y14771715D01*
X66625428Y14736000D01*
X66589714Y14664572D01*
X66589714Y14450286D01*
X66625428Y14378858D01*
X66661142Y14343143D01*
X66661142Y15128858D02*
X66625428Y15164572D01*
X66589714Y15128858D01*
X66625428Y15093143D01*
X66661142Y15128858D01*
X66589714Y15128858D01*
X67339714Y15414572D02*
X67339714Y15878858D01*
X67054000Y15628858D01*
X67054000Y15736000D01*
X67018285Y15807429D01*
X66982571Y15843143D01*
X66911142Y15878858D01*
X66732571Y15878858D01*
X66661142Y15843143D01*
X66625428Y15807429D01*
X66589714Y15736000D01*
X66589714Y15521715D01*
X66625428Y15450286D01*
X66661142Y15414572D01*
X67339714Y16093143D02*
X66589714Y16343143D01*
X67339714Y16593143D01*
X34191530Y12351509D02*
X33786768Y12351509D01*
X33739149Y12375318D01*
X33715340Y12399128D01*
X33691530Y12446747D01*
X33691530Y12541985D01*
X33715340Y12589604D01*
X33739149Y12613413D01*
X33786768Y12637223D01*
X34191530Y12637223D01*
X33715340Y12851509D02*
X33691530Y12922937D01*
X33691530Y13041985D01*
X33715340Y13089604D01*
X33739149Y13113413D01*
X33786768Y13137223D01*
X33834387Y13137223D01*
X33882006Y13113413D01*
X33905816Y13089604D01*
X33929625Y13041985D01*
X33953435Y12946747D01*
X33977244Y12899128D01*
X34001054Y12875318D01*
X34048673Y12851509D01*
X34096292Y12851509D01*
X34143911Y12875318D01*
X34167721Y12899128D01*
X34191530Y12946747D01*
X34191530Y13065794D01*
X34167721Y13137223D01*
X33953435Y13518175D02*
X33929625Y13589604D01*
X33905816Y13613413D01*
X33858197Y13637223D01*
X33786768Y13637223D01*
X33739149Y13613413D01*
X33715340Y13589604D01*
X33691530Y13541985D01*
X33691530Y13351509D01*
X34191530Y13351509D01*
X34191530Y13518175D01*
X34167721Y13565794D01*
X34143911Y13589604D01*
X34096292Y13613413D01*
X34048673Y13613413D01*
X34001054Y13589604D01*
X33977244Y13565794D01*
X33953435Y13518175D01*
X33953435Y13351509D01*
X33643911Y13732461D02*
X33643911Y14113413D01*
X33739149Y14518175D02*
X33715340Y14494366D01*
X33691530Y14422937D01*
X33691530Y14375318D01*
X33715340Y14303890D01*
X33762959Y14256271D01*
X33810578Y14232461D01*
X33905816Y14208651D01*
X33977244Y14208651D01*
X34072482Y14232461D01*
X34120101Y14256271D01*
X34167721Y14303890D01*
X34191530Y14375318D01*
X34191530Y14422937D01*
X34167721Y14494366D01*
X34143911Y14518175D01*
X34191530Y14827699D02*
X34191530Y14922937D01*
X34167721Y14970556D01*
X34120101Y15018175D01*
X34024863Y15041985D01*
X33858197Y15041985D01*
X33762959Y15018175D01*
X33715340Y14970556D01*
X33691530Y14922937D01*
X33691530Y14827699D01*
X33715340Y14780080D01*
X33762959Y14732461D01*
X33858197Y14708651D01*
X34024863Y14708651D01*
X34120101Y14732461D01*
X34167721Y14780080D01*
X34191530Y14827699D01*
X33691530Y15256271D02*
X34191530Y15256271D01*
X33691530Y15541985D01*
X34191530Y15541985D01*
X33691530Y15780080D02*
X34191530Y15780080D01*
X33691530Y16065794D01*
X34191530Y16065794D01*
X59035190Y14509858D02*
X59035190Y14890810D01*
X59106619Y14986048D02*
X59082809Y15057477D01*
X59082809Y15176524D01*
X59106619Y15224143D01*
X59130428Y15247953D01*
X59178047Y15271762D01*
X59225666Y15271762D01*
X59273285Y15247953D01*
X59297095Y15224143D01*
X59320904Y15176524D01*
X59344714Y15081286D01*
X59368523Y15033667D01*
X59392333Y15009858D01*
X59439952Y14986048D01*
X59487571Y14986048D01*
X59535190Y15009858D01*
X59559000Y15033667D01*
X59582809Y15081286D01*
X59582809Y15200334D01*
X59559000Y15271762D01*
X59344714Y15486048D02*
X59344714Y15652715D01*
X59082809Y15724143D02*
X59082809Y15486048D01*
X59582809Y15486048D01*
X59582809Y15724143D01*
X59082809Y16176524D02*
X59082809Y15938429D01*
X59582809Y15938429D01*
X69844000Y14414572D02*
X69879714Y14343143D01*
X69879714Y14236000D01*
X69844000Y14128858D01*
X69772571Y14057429D01*
X69701142Y14021715D01*
X69558285Y13986000D01*
X69451142Y13986000D01*
X69308285Y14021715D01*
X69236857Y14057429D01*
X69165428Y14128858D01*
X69129714Y14236000D01*
X69129714Y14307429D01*
X69165428Y14414572D01*
X69201142Y14450286D01*
X69451142Y14450286D01*
X69451142Y14307429D01*
X69129714Y14771715D02*
X69879714Y14771715D01*
X69129714Y15200286D01*
X69879714Y15200286D01*
X69129714Y15557429D02*
X69879714Y15557429D01*
X69879714Y15736000D01*
X69844000Y15843143D01*
X69772571Y15914572D01*
X69701142Y15950286D01*
X69558285Y15986000D01*
X69451142Y15986000D01*
X69308285Y15950286D01*
X69236857Y15914572D01*
X69165428Y15843143D01*
X69129714Y15736000D01*
X69129714Y15557429D01*
X72384000Y14414572D02*
X72419714Y14343143D01*
X72419714Y14236000D01*
X72384000Y14128858D01*
X72312571Y14057429D01*
X72241142Y14021715D01*
X72098285Y13986000D01*
X71991142Y13986000D01*
X71848285Y14021715D01*
X71776857Y14057429D01*
X71705428Y14128858D01*
X71669714Y14236000D01*
X71669714Y14307429D01*
X71705428Y14414572D01*
X71741142Y14450286D01*
X71991142Y14450286D01*
X71991142Y14307429D01*
X71669714Y14771715D02*
X72419714Y14771715D01*
X71669714Y15200286D01*
X72419714Y15200286D01*
X71669714Y15557429D02*
X72419714Y15557429D01*
X72419714Y15736000D01*
X72384000Y15843143D01*
X72312571Y15914572D01*
X72241142Y15950286D01*
X72098285Y15986000D01*
X71991142Y15986000D01*
X71848285Y15950286D01*
X71776857Y15914572D01*
X71705428Y15843143D01*
X71669714Y15736000D01*
X71669714Y15557429D01*
X43842809Y14974143D02*
X44342809Y14974143D01*
X43842809Y15259858D01*
X44342809Y15259858D01*
X43890428Y15783667D02*
X43866619Y15759858D01*
X43842809Y15688429D01*
X43842809Y15640810D01*
X43866619Y15569381D01*
X43914238Y15521762D01*
X43961857Y15497953D01*
X44057095Y15474143D01*
X44128523Y15474143D01*
X44223761Y15497953D01*
X44271380Y15521762D01*
X44319000Y15569381D01*
X44342809Y15640810D01*
X44342809Y15688429D01*
X44319000Y15759858D01*
X44295190Y15783667D01*
X23522809Y14974143D02*
X24022809Y14974143D01*
X23522809Y15259858D01*
X24022809Y15259858D01*
X23570428Y15783667D02*
X23546619Y15759858D01*
X23522809Y15688429D01*
X23522809Y15640810D01*
X23546619Y15569381D01*
X23594238Y15521762D01*
X23641857Y15497953D01*
X23737095Y15474143D01*
X23808523Y15474143D01*
X23903761Y15497953D01*
X23951380Y15521762D01*
X23999000Y15569381D01*
X24022809Y15640810D01*
X24022809Y15688429D01*
X23999000Y15759858D01*
X23975190Y15783667D01*
X36222809Y14974143D02*
X36722809Y14974143D01*
X36222809Y15259858D01*
X36722809Y15259858D01*
X36270428Y15783667D02*
X36246619Y15759858D01*
X36222809Y15688429D01*
X36222809Y15640810D01*
X36246619Y15569381D01*
X36294238Y15521762D01*
X36341857Y15497953D01*
X36437095Y15474143D01*
X36508523Y15474143D01*
X36603761Y15497953D01*
X36651380Y15521762D01*
X36699000Y15569381D01*
X36722809Y15640810D01*
X36722809Y15688429D01*
X36699000Y15759858D01*
X36675190Y15783667D01*
X51462809Y14974143D02*
X51962809Y14974143D01*
X51462809Y15259858D01*
X51962809Y15259858D01*
X51510428Y15783667D02*
X51486619Y15759858D01*
X51462809Y15688429D01*
X51462809Y15640810D01*
X51486619Y15569381D01*
X51534238Y15521762D01*
X51581857Y15497953D01*
X51677095Y15474143D01*
X51748523Y15474143D01*
X51843761Y15497953D01*
X51891380Y15521762D01*
X51939000Y15569381D01*
X51962809Y15640810D01*
X51962809Y15688429D01*
X51939000Y15759858D01*
X51915190Y15783667D01*
X38762809Y14974143D02*
X39262809Y14974143D01*
X38762809Y15259858D01*
X39262809Y15259858D01*
X38810428Y15783667D02*
X38786619Y15759858D01*
X38762809Y15688429D01*
X38762809Y15640810D01*
X38786619Y15569381D01*
X38834238Y15521762D01*
X38881857Y15497953D01*
X38977095Y15474143D01*
X39048523Y15474143D01*
X39143761Y15497953D01*
X39191380Y15521762D01*
X39239000Y15569381D01*
X39262809Y15640810D01*
X39262809Y15688429D01*
X39239000Y15759858D01*
X39215190Y15783667D01*
X41302809Y14974143D02*
X41802809Y14974143D01*
X41302809Y15259858D01*
X41802809Y15259858D01*
X41350428Y15783667D02*
X41326619Y15759858D01*
X41302809Y15688429D01*
X41302809Y15640810D01*
X41326619Y15569381D01*
X41374238Y15521762D01*
X41421857Y15497953D01*
X41517095Y15474143D01*
X41588523Y15474143D01*
X41683761Y15497953D01*
X41731380Y15521762D01*
X41779000Y15569381D01*
X41802809Y15640810D01*
X41802809Y15688429D01*
X41779000Y15759858D01*
X41755190Y15783667D01*
X46382809Y14974143D02*
X46882809Y14974143D01*
X46382809Y15259858D01*
X46882809Y15259858D01*
X46430428Y15783667D02*
X46406619Y15759858D01*
X46382809Y15688429D01*
X46382809Y15640810D01*
X46406619Y15569381D01*
X46454238Y15521762D01*
X46501857Y15497953D01*
X46597095Y15474143D01*
X46668523Y15474143D01*
X46763761Y15497953D01*
X46811380Y15521762D01*
X46859000Y15569381D01*
X46882809Y15640810D01*
X46882809Y15688429D01*
X46859000Y15759858D01*
X46835190Y15783667D01*
X31142809Y14974143D02*
X31642809Y14974143D01*
X31142809Y15259858D01*
X31642809Y15259858D01*
X31190428Y15783667D02*
X31166619Y15759858D01*
X31142809Y15688429D01*
X31142809Y15640810D01*
X31166619Y15569381D01*
X31214238Y15521762D01*
X31261857Y15497953D01*
X31357095Y15474143D01*
X31428523Y15474143D01*
X31523761Y15497953D01*
X31571380Y15521762D01*
X31619000Y15569381D01*
X31642809Y15640810D01*
X31642809Y15688429D01*
X31619000Y15759858D01*
X31595190Y15783667D01*
X26015190Y14521762D02*
X26015190Y14902715D01*
X26205666Y14997953D02*
X26205666Y15236048D01*
X26062809Y14950334D02*
X26562809Y15117000D01*
X26062809Y15283667D01*
X26110428Y15736048D02*
X26086619Y15712239D01*
X26062809Y15640810D01*
X26062809Y15593191D01*
X26086619Y15521762D01*
X26134238Y15474143D01*
X26181857Y15450334D01*
X26277095Y15426524D01*
X26348523Y15426524D01*
X26443761Y15450334D01*
X26491380Y15474143D01*
X26539000Y15521762D01*
X26562809Y15593191D01*
X26562809Y15640810D01*
X26539000Y15712239D01*
X26515190Y15736048D01*
X26562809Y15878905D02*
X26562809Y16164620D01*
X26062809Y16021762D02*
X26562809Y16021762D01*
X54002809Y14974143D02*
X54502809Y14974143D01*
X54002809Y15259858D01*
X54502809Y15259858D01*
X54050428Y15783667D02*
X54026619Y15759858D01*
X54002809Y15688429D01*
X54002809Y15640810D01*
X54026619Y15569381D01*
X54074238Y15521762D01*
X54121857Y15497953D01*
X54217095Y15474143D01*
X54288523Y15474143D01*
X54383761Y15497953D01*
X54431380Y15521762D01*
X54479000Y15569381D01*
X54502809Y15640810D01*
X54502809Y15688429D01*
X54479000Y15759858D01*
X54455190Y15783667D01*
X48922809Y14974143D02*
X49422809Y14974143D01*
X48922809Y15259858D01*
X49422809Y15259858D01*
X48970428Y15783667D02*
X48946619Y15759858D01*
X48922809Y15688429D01*
X48922809Y15640810D01*
X48946619Y15569381D01*
X48994238Y15521762D01*
X49041857Y15497953D01*
X49137095Y15474143D01*
X49208523Y15474143D01*
X49303761Y15497953D01*
X49351380Y15521762D01*
X49399000Y15569381D01*
X49422809Y15640810D01*
X49422809Y15688429D01*
X49399000Y15759858D01*
X49375190Y15783667D01*
X28602809Y14974143D02*
X29102809Y14974143D01*
X28602809Y15259858D01*
X29102809Y15259858D01*
X28650428Y15783667D02*
X28626619Y15759858D01*
X28602809Y15688429D01*
X28602809Y15640810D01*
X28626619Y15569381D01*
X28674238Y15521762D01*
X28721857Y15497953D01*
X28817095Y15474143D01*
X28888523Y15474143D01*
X28983761Y15497953D01*
X29031380Y15521762D01*
X29079000Y15569381D01*
X29102809Y15640810D01*
X29102809Y15688429D01*
X29079000Y15759858D01*
X29055190Y15783667D01*
X31222190Y40124262D02*
X31222190Y40505215D01*
X31269809Y40624262D02*
X31769809Y40624262D01*
X31769809Y40743310D01*
X31746000Y40814739D01*
X31698380Y40862358D01*
X31650761Y40886167D01*
X31555523Y40909977D01*
X31484095Y40909977D01*
X31388857Y40886167D01*
X31341238Y40862358D01*
X31293619Y40814739D01*
X31269809Y40743310D01*
X31269809Y40624262D01*
X31531714Y41124262D02*
X31531714Y41290929D01*
X31269809Y41362358D02*
X31269809Y41124262D01*
X31769809Y41124262D01*
X31769809Y41362358D01*
X31269809Y41576643D02*
X31769809Y41576643D01*
X31269809Y41862358D01*
X31769809Y41862358D01*
X31293619Y42076643D02*
X31269809Y42148072D01*
X31269809Y42267120D01*
X31293619Y42314739D01*
X31317428Y42338548D01*
X31365047Y42362358D01*
X31412666Y42362358D01*
X31460285Y42338548D01*
X31484095Y42314739D01*
X31507904Y42267120D01*
X31531714Y42171881D01*
X31555523Y42124262D01*
X31579333Y42100453D01*
X31626952Y42076643D01*
X31674571Y42076643D01*
X31722190Y42100453D01*
X31746000Y42124262D01*
X31769809Y42171881D01*
X31769809Y42290929D01*
X31746000Y42362358D01*
X31531714Y42576643D02*
X31531714Y42743310D01*
X31269809Y42814739D02*
X31269809Y42576643D01*
X31769809Y42576643D01*
X31769809Y42814739D01*
X31269809Y43267120D02*
X31269809Y43029024D01*
X31769809Y43029024D01*
X26791000Y40894072D02*
X26826714Y40822643D01*
X26826714Y40715500D01*
X26791000Y40608358D01*
X26719571Y40536929D01*
X26648142Y40501215D01*
X26505285Y40465500D01*
X26398142Y40465500D01*
X26255285Y40501215D01*
X26183857Y40536929D01*
X26112428Y40608358D01*
X26076714Y40715500D01*
X26076714Y40786929D01*
X26112428Y40894072D01*
X26148142Y40929786D01*
X26398142Y40929786D01*
X26398142Y40786929D01*
X26076714Y41251215D02*
X26826714Y41251215D01*
X26076714Y41679786D01*
X26826714Y41679786D01*
X26076714Y42036929D02*
X26826714Y42036929D01*
X26826714Y42215500D01*
X26791000Y42322643D01*
X26719571Y42394072D01*
X26648142Y42429786D01*
X26505285Y42465500D01*
X26398142Y42465500D01*
X26255285Y42429786D01*
X26183857Y42394072D01*
X26112428Y42322643D01*
X26076714Y42215500D01*
X26076714Y42036929D01*
X28902428Y40501215D02*
X28902428Y41072643D01*
X28616714Y40786929D02*
X29188142Y40786929D01*
X29366714Y41786929D02*
X29366714Y41429786D01*
X29009571Y41394072D01*
X29045285Y41429786D01*
X29081000Y41501215D01*
X29081000Y41679786D01*
X29045285Y41751215D01*
X29009571Y41786929D01*
X28938142Y41822643D01*
X28759571Y41822643D01*
X28688142Y41786929D01*
X28652428Y41751215D01*
X28616714Y41679786D01*
X28616714Y41501215D01*
X28652428Y41429786D01*
X28688142Y41394072D01*
X29366714Y42036929D02*
X28616714Y42286929D01*
X29366714Y42536929D01*
X59233619Y40417905D02*
X59209809Y40489334D01*
X59209809Y40608381D01*
X59233619Y40656000D01*
X59257428Y40679810D01*
X59305047Y40703620D01*
X59352666Y40703620D01*
X59400285Y40679810D01*
X59424095Y40656000D01*
X59447904Y40608381D01*
X59471714Y40513143D01*
X59495523Y40465524D01*
X59519333Y40441715D01*
X59566952Y40417905D01*
X59614571Y40417905D01*
X59662190Y40441715D01*
X59686000Y40465524D01*
X59709809Y40513143D01*
X59709809Y40632191D01*
X59686000Y40703620D01*
X59471714Y40917905D02*
X59471714Y41084572D01*
X59209809Y41156000D02*
X59209809Y40917905D01*
X59709809Y40917905D01*
X59709809Y41156000D01*
X59209809Y41656000D02*
X59447904Y41489334D01*
X59209809Y41370286D02*
X59709809Y41370286D01*
X59709809Y41560762D01*
X59686000Y41608381D01*
X59662190Y41632191D01*
X59614571Y41656000D01*
X59543142Y41656000D01*
X59495523Y41632191D01*
X59471714Y41608381D01*
X59447904Y41560762D01*
X59447904Y41370286D01*
X59162190Y41751239D02*
X59162190Y42132191D01*
X59709809Y42179810D02*
X59709809Y42465524D01*
X59209809Y42322667D02*
X59709809Y42322667D01*
X59709809Y42584572D02*
X59209809Y42917905D01*
X59709809Y42917905D02*
X59209809Y42584572D01*
X46462190Y40275024D02*
X46462190Y40655977D01*
X46509809Y40775024D02*
X47009809Y40775024D01*
X47009809Y40894072D01*
X46986000Y40965500D01*
X46938380Y41013120D01*
X46890761Y41036929D01*
X46795523Y41060739D01*
X46724095Y41060739D01*
X46628857Y41036929D01*
X46581238Y41013120D01*
X46533619Y40965500D01*
X46509809Y40894072D01*
X46509809Y40775024D01*
X46509809Y41275024D02*
X47009809Y41275024D01*
X46509809Y41560739D02*
X46795523Y41346453D01*
X47009809Y41560739D02*
X46724095Y41275024D01*
X46509809Y42060739D02*
X46747904Y41894072D01*
X46509809Y41775024D02*
X47009809Y41775024D01*
X47009809Y41965500D01*
X46986000Y42013120D01*
X46962190Y42036929D01*
X46914571Y42060739D01*
X46843142Y42060739D01*
X46795523Y42036929D01*
X46771714Y42013120D01*
X46747904Y41965500D01*
X46747904Y41775024D01*
X46509809Y42275024D02*
X47009809Y42275024D01*
X47009809Y42394072D01*
X46986000Y42465500D01*
X46938380Y42513120D01*
X46890761Y42536929D01*
X46795523Y42560739D01*
X46724095Y42560739D01*
X46628857Y42536929D01*
X46581238Y42513120D01*
X46533619Y42465500D01*
X46509809Y42394072D01*
X46509809Y42275024D01*
X49049809Y41263143D02*
X49549809Y41263143D01*
X49049809Y41548858D01*
X49549809Y41548858D01*
X49097428Y42072667D02*
X49073619Y42048858D01*
X49049809Y41977429D01*
X49049809Y41929810D01*
X49073619Y41858381D01*
X49121238Y41810762D01*
X49168857Y41786953D01*
X49264095Y41763143D01*
X49335523Y41763143D01*
X49430761Y41786953D01*
X49478380Y41810762D01*
X49526000Y41858381D01*
X49549809Y41929810D01*
X49549809Y41977429D01*
X49526000Y42048858D01*
X49502190Y42072667D01*
X69322190Y40116262D02*
X69322190Y40497215D01*
X69393619Y40592453D02*
X69369809Y40663881D01*
X69369809Y40782929D01*
X69393619Y40830548D01*
X69417428Y40854358D01*
X69465047Y40878167D01*
X69512666Y40878167D01*
X69560285Y40854358D01*
X69584095Y40830548D01*
X69607904Y40782929D01*
X69631714Y40687691D01*
X69655523Y40640072D01*
X69679333Y40616262D01*
X69726952Y40592453D01*
X69774571Y40592453D01*
X69822190Y40616262D01*
X69846000Y40640072D01*
X69869809Y40687691D01*
X69869809Y40806739D01*
X69846000Y40878167D01*
X69869809Y41021024D02*
X69869809Y41306739D01*
X69369809Y41163881D02*
X69869809Y41163881D01*
X69631714Y41473405D02*
X69631714Y41640072D01*
X69369809Y41711500D02*
X69369809Y41473405D01*
X69869809Y41473405D01*
X69869809Y41711500D01*
X69369809Y41925786D02*
X69869809Y41925786D01*
X69869809Y42116262D01*
X69846000Y42163881D01*
X69822190Y42187691D01*
X69774571Y42211500D01*
X69703142Y42211500D01*
X69655523Y42187691D01*
X69631714Y42163881D01*
X69607904Y42116262D01*
X69607904Y41925786D01*
X61749809Y41326643D02*
X62249809Y41326643D01*
X61749809Y41612358D01*
X62249809Y41612358D01*
X61797428Y42136167D02*
X61773619Y42112358D01*
X61749809Y42040929D01*
X61749809Y41993310D01*
X61773619Y41921881D01*
X61821238Y41874262D01*
X61868857Y41850453D01*
X61964095Y41826643D01*
X62035523Y41826643D01*
X62130761Y41850453D01*
X62178380Y41874262D01*
X62226000Y41921881D01*
X62249809Y41993310D01*
X62249809Y42040929D01*
X62226000Y42112358D01*
X62202190Y42136167D01*
X52089809Y40338548D02*
X51685047Y40338548D01*
X51637428Y40362358D01*
X51613619Y40386167D01*
X51589809Y40433786D01*
X51589809Y40529024D01*
X51613619Y40576643D01*
X51637428Y40600453D01*
X51685047Y40624262D01*
X52089809Y40624262D01*
X51613619Y40838548D02*
X51589809Y40909977D01*
X51589809Y41029024D01*
X51613619Y41076643D01*
X51637428Y41100453D01*
X51685047Y41124262D01*
X51732666Y41124262D01*
X51780285Y41100453D01*
X51804095Y41076643D01*
X51827904Y41029024D01*
X51851714Y40933786D01*
X51875523Y40886167D01*
X51899333Y40862358D01*
X51946952Y40838548D01*
X51994571Y40838548D01*
X52042190Y40862358D01*
X52066000Y40886167D01*
X52089809Y40933786D01*
X52089809Y41052834D01*
X52066000Y41124262D01*
X51851714Y41505215D02*
X51827904Y41576643D01*
X51804095Y41600453D01*
X51756476Y41624262D01*
X51685047Y41624262D01*
X51637428Y41600453D01*
X51613619Y41576643D01*
X51589809Y41529024D01*
X51589809Y41338548D01*
X52089809Y41338548D01*
X52089809Y41505215D01*
X52066000Y41552834D01*
X52042190Y41576643D01*
X51994571Y41600453D01*
X51946952Y41600453D01*
X51899333Y41576643D01*
X51875523Y41552834D01*
X51851714Y41505215D01*
X51851714Y41338548D01*
X51542190Y41719500D02*
X51542190Y42100453D01*
X51589809Y42219500D02*
X52089809Y42219500D01*
X52089809Y42338548D01*
X52066000Y42409977D01*
X52018380Y42457596D01*
X51970761Y42481405D01*
X51875523Y42505215D01*
X51804095Y42505215D01*
X51708857Y42481405D01*
X51661238Y42457596D01*
X51613619Y42409977D01*
X51589809Y42338548D01*
X51589809Y42219500D01*
X51780285Y42719500D02*
X51780285Y43100453D01*
X51589809Y42909977D02*
X51970761Y42909977D01*
X71862190Y40401977D02*
X71862190Y40782929D01*
X71909809Y40901977D02*
X72409809Y40901977D01*
X72409809Y41021024D01*
X72386000Y41092453D01*
X72338380Y41140072D01*
X72290761Y41163881D01*
X72195523Y41187691D01*
X72124095Y41187691D01*
X72028857Y41163881D01*
X71981238Y41140072D01*
X71933619Y41092453D01*
X71909809Y41021024D01*
X71909809Y40901977D01*
X71909809Y41401977D02*
X72409809Y41401977D01*
X71909809Y41925786D02*
X72147904Y41759120D01*
X71909809Y41640072D02*
X72409809Y41640072D01*
X72409809Y41830548D01*
X72386000Y41878167D01*
X72362190Y41901977D01*
X72314571Y41925786D01*
X72243142Y41925786D01*
X72195523Y41901977D01*
X72171714Y41878167D01*
X72147904Y41830548D01*
X72147904Y41640072D01*
X64242190Y40505191D02*
X64242190Y40886143D01*
X64313619Y40981381D02*
X64289809Y41052810D01*
X64289809Y41171858D01*
X64313619Y41219477D01*
X64337428Y41243286D01*
X64385047Y41267096D01*
X64432666Y41267096D01*
X64480285Y41243286D01*
X64504095Y41219477D01*
X64527904Y41171858D01*
X64551714Y41076620D01*
X64575523Y41029000D01*
X64599333Y41005191D01*
X64646952Y40981381D01*
X64694571Y40981381D01*
X64742190Y41005191D01*
X64766000Y41029000D01*
X64789809Y41076620D01*
X64789809Y41195667D01*
X64766000Y41267096D01*
X64289809Y41481381D02*
X64789809Y41481381D01*
X64289809Y41719477D02*
X64789809Y41719477D01*
X64789809Y41838524D01*
X64766000Y41909953D01*
X64718380Y41957572D01*
X64670761Y41981381D01*
X64575523Y42005191D01*
X64504095Y42005191D01*
X64408857Y41981381D01*
X64361238Y41957572D01*
X64313619Y41909953D01*
X64289809Y41838524D01*
X64289809Y41719477D01*
X64551714Y42219477D02*
X64551714Y42386143D01*
X64289809Y42457572D02*
X64289809Y42219477D01*
X64789809Y42219477D01*
X64789809Y42457572D01*
X56693619Y40294881D02*
X56669809Y40366310D01*
X56669809Y40485358D01*
X56693619Y40532977D01*
X56717428Y40556786D01*
X56765047Y40580596D01*
X56812666Y40580596D01*
X56860285Y40556786D01*
X56884095Y40532977D01*
X56907904Y40485358D01*
X56931714Y40390120D01*
X56955523Y40342500D01*
X56979333Y40318691D01*
X57026952Y40294881D01*
X57074571Y40294881D01*
X57122190Y40318691D01*
X57146000Y40342500D01*
X57169809Y40390120D01*
X57169809Y40509167D01*
X57146000Y40580596D01*
X56931714Y40794881D02*
X56931714Y40961548D01*
X56669809Y41032977D02*
X56669809Y40794881D01*
X57169809Y40794881D01*
X57169809Y41032977D01*
X56669809Y41532977D02*
X56907904Y41366310D01*
X56669809Y41247262D02*
X57169809Y41247262D01*
X57169809Y41437739D01*
X57146000Y41485358D01*
X57122190Y41509167D01*
X57074571Y41532977D01*
X57003142Y41532977D01*
X56955523Y41509167D01*
X56931714Y41485358D01*
X56907904Y41437739D01*
X56907904Y41247262D01*
X56622190Y41628215D02*
X56622190Y42009167D01*
X56669809Y42413929D02*
X56907904Y42247262D01*
X56669809Y42128215D02*
X57169809Y42128215D01*
X57169809Y42318691D01*
X57146000Y42366310D01*
X57122190Y42390120D01*
X57074571Y42413929D01*
X57003142Y42413929D01*
X56955523Y42390120D01*
X56931714Y42366310D01*
X56907904Y42318691D01*
X56907904Y42128215D01*
X57169809Y42580596D02*
X56669809Y42913929D01*
X57169809Y42913929D02*
X56669809Y42580596D01*
X54629809Y40338548D02*
X54225047Y40338548D01*
X54177428Y40362358D01*
X54153619Y40386167D01*
X54129809Y40433786D01*
X54129809Y40529024D01*
X54153619Y40576643D01*
X54177428Y40600453D01*
X54225047Y40624262D01*
X54629809Y40624262D01*
X54153619Y40838548D02*
X54129809Y40909977D01*
X54129809Y41029024D01*
X54153619Y41076643D01*
X54177428Y41100453D01*
X54225047Y41124262D01*
X54272666Y41124262D01*
X54320285Y41100453D01*
X54344095Y41076643D01*
X54367904Y41029024D01*
X54391714Y40933786D01*
X54415523Y40886167D01*
X54439333Y40862358D01*
X54486952Y40838548D01*
X54534571Y40838548D01*
X54582190Y40862358D01*
X54606000Y40886167D01*
X54629809Y40933786D01*
X54629809Y41052834D01*
X54606000Y41124262D01*
X54391714Y41505215D02*
X54367904Y41576643D01*
X54344095Y41600453D01*
X54296476Y41624262D01*
X54225047Y41624262D01*
X54177428Y41600453D01*
X54153619Y41576643D01*
X54129809Y41529024D01*
X54129809Y41338548D01*
X54629809Y41338548D01*
X54629809Y41505215D01*
X54606000Y41552834D01*
X54582190Y41576643D01*
X54534571Y41600453D01*
X54486952Y41600453D01*
X54439333Y41576643D01*
X54415523Y41552834D01*
X54391714Y41505215D01*
X54391714Y41338548D01*
X54082190Y41719500D02*
X54082190Y42100453D01*
X54129809Y42219500D02*
X54629809Y42219500D01*
X54629809Y42338548D01*
X54606000Y42409977D01*
X54558380Y42457596D01*
X54510761Y42481405D01*
X54415523Y42505215D01*
X54344095Y42505215D01*
X54248857Y42481405D01*
X54201238Y42457596D01*
X54153619Y42409977D01*
X54129809Y42338548D01*
X54129809Y42219500D01*
X54320285Y42719500D02*
X54320285Y43100453D01*
X66782190Y40009120D02*
X66782190Y40390072D01*
X66829809Y40509120D02*
X67329809Y40509120D01*
X67329809Y40628167D01*
X67306000Y40699596D01*
X67258380Y40747215D01*
X67210761Y40771024D01*
X67115523Y40794834D01*
X67044095Y40794834D01*
X66948857Y40771024D01*
X66901238Y40747215D01*
X66853619Y40699596D01*
X66829809Y40628167D01*
X66829809Y40509120D01*
X66829809Y41009120D02*
X67329809Y41009120D01*
X66829809Y41294834D02*
X67115523Y41080548D01*
X67329809Y41294834D02*
X67044095Y41009120D01*
X67329809Y41461500D02*
X66829809Y41580548D01*
X67186952Y41675786D01*
X66829809Y41771024D01*
X67329809Y41890072D01*
X67091714Y42080548D02*
X67091714Y42247215D01*
X66829809Y42318643D02*
X66829809Y42080548D01*
X67329809Y42080548D01*
X67329809Y42318643D01*
X33762190Y40294929D02*
X33762190Y40675881D01*
X34309809Y40747310D02*
X33809809Y40866358D01*
X34166952Y40961596D01*
X33809809Y41056834D01*
X34309809Y41175881D01*
X33809809Y41652072D02*
X34047904Y41485405D01*
X33809809Y41366358D02*
X34309809Y41366358D01*
X34309809Y41556834D01*
X34286000Y41604453D01*
X34262190Y41628262D01*
X34214571Y41652072D01*
X34143142Y41652072D01*
X34095523Y41628262D01*
X34071714Y41604453D01*
X34047904Y41556834D01*
X34047904Y41366358D01*
X33809809Y41866358D02*
X34309809Y41866358D01*
X34309809Y42056834D01*
X34286000Y42104453D01*
X34262190Y42128262D01*
X34214571Y42152072D01*
X34143142Y42152072D01*
X34095523Y42128262D01*
X34071714Y42104453D01*
X34047904Y42056834D01*
X34047904Y41866358D01*
X33809809Y42652072D02*
X34047904Y42485405D01*
X33809809Y42366358D02*
X34309809Y42366358D01*
X34309809Y42556834D01*
X34286000Y42604453D01*
X34262190Y42628262D01*
X34214571Y42652072D01*
X34143142Y42652072D01*
X34095523Y42628262D01*
X34071714Y42604453D01*
X34047904Y42556834D01*
X34047904Y42366358D01*
X34309809Y42961596D02*
X34309809Y43056834D01*
X34286000Y43104453D01*
X34238380Y43152072D01*
X34143142Y43175881D01*
X33976476Y43175881D01*
X33881238Y43152072D01*
X33833619Y43104453D01*
X33809809Y43056834D01*
X33809809Y42961596D01*
X33833619Y42913977D01*
X33881238Y42866358D01*
X33976476Y42842548D01*
X34143142Y42842548D01*
X34238380Y42866358D01*
X34286000Y42913977D01*
X34309809Y42961596D01*
X34309809Y43318739D02*
X34309809Y43604453D01*
X33809809Y43461596D02*
X34309809Y43461596D01*
X43922190Y40239310D02*
X43922190Y40620262D01*
X43969809Y40739310D02*
X44469809Y40739310D01*
X44469809Y40858358D01*
X44446000Y40929786D01*
X44398380Y40977405D01*
X44350761Y41001215D01*
X44255523Y41025024D01*
X44184095Y41025024D01*
X44088857Y41001215D01*
X44041238Y40977405D01*
X43993619Y40929786D01*
X43969809Y40858358D01*
X43969809Y40739310D01*
X43969809Y41239310D02*
X44469809Y41239310D01*
X43969809Y41525024D02*
X44255523Y41310739D01*
X44469809Y41525024D02*
X44184095Y41239310D01*
X44469809Y41691691D02*
X43969809Y41810739D01*
X44326952Y41905977D01*
X43969809Y42001215D01*
X44469809Y42120262D01*
X43969809Y42310739D02*
X44469809Y42310739D01*
X44469809Y42429786D01*
X44446000Y42501215D01*
X44398380Y42548834D01*
X44350761Y42572643D01*
X44255523Y42596453D01*
X44184095Y42596453D01*
X44088857Y42572643D01*
X44041238Y42548834D01*
X43993619Y42501215D01*
X43969809Y42429786D01*
X43969809Y42310739D01*
X41429809Y40818643D02*
X41929809Y40818643D01*
X41429809Y41104358D01*
X41929809Y41104358D01*
X41477428Y41628167D02*
X41453619Y41604358D01*
X41429809Y41532929D01*
X41429809Y41485310D01*
X41453619Y41413881D01*
X41501238Y41366262D01*
X41548857Y41342453D01*
X41644095Y41318643D01*
X41715523Y41318643D01*
X41810761Y41342453D01*
X41858380Y41366262D01*
X41906000Y41413881D01*
X41929809Y41485310D01*
X41929809Y41532929D01*
X41906000Y41604358D01*
X41882190Y41628167D01*
X38842190Y40243286D02*
X38842190Y40624239D01*
X38889809Y40743286D02*
X39389809Y40743286D01*
X38889809Y40981381D02*
X39389809Y40981381D01*
X38889809Y41267096D01*
X39389809Y41267096D01*
X38889809Y41505191D02*
X39389809Y41505191D01*
X39389809Y41624239D01*
X39366000Y41695667D01*
X39318380Y41743286D01*
X39270761Y41767096D01*
X39175523Y41790905D01*
X39104095Y41790905D01*
X39008857Y41767096D01*
X38961238Y41743286D01*
X38913619Y41695667D01*
X38889809Y41624239D01*
X38889809Y41505191D01*
X39151714Y42005191D02*
X39151714Y42171858D01*
X38889809Y42243286D02*
X38889809Y42005191D01*
X39389809Y42005191D01*
X39389809Y42243286D01*
X39389809Y42409953D02*
X38889809Y42743286D01*
X39389809Y42743286D02*
X38889809Y42409953D01*
X36302190Y40346453D02*
X36302190Y40727405D01*
X36849809Y40775024D02*
X36849809Y41060739D01*
X36349809Y40917881D02*
X36849809Y40917881D01*
X36349809Y41513120D02*
X36587904Y41346453D01*
X36349809Y41227405D02*
X36849809Y41227405D01*
X36849809Y41417881D01*
X36826000Y41465500D01*
X36802190Y41489310D01*
X36754571Y41513120D01*
X36683142Y41513120D01*
X36635523Y41489310D01*
X36611714Y41465500D01*
X36587904Y41417881D01*
X36587904Y41227405D01*
X36349809Y41727405D02*
X36849809Y41727405D01*
X36349809Y42013120D02*
X36635523Y41798834D01*
X36849809Y42013120D02*
X36564095Y41727405D01*
X36849809Y42322643D02*
X36849809Y42370262D01*
X36826000Y42417881D01*
X36802190Y42441691D01*
X36754571Y42465500D01*
X36659333Y42489310D01*
X36540285Y42489310D01*
X36445047Y42465500D01*
X36397428Y42441691D01*
X36373619Y42417881D01*
X36349809Y42370262D01*
X36349809Y42322643D01*
X36373619Y42275024D01*
X36397428Y42251215D01*
X36445047Y42227405D01*
X36540285Y42203596D01*
X36659333Y42203596D01*
X36754571Y42227405D01*
X36802190Y42251215D01*
X36826000Y42275024D01*
X36849809Y42322643D01*
X23822428Y39965500D02*
X23822428Y40536929D01*
X23536714Y40251215D02*
X24108142Y40251215D01*
X24286714Y40822643D02*
X24286714Y41286929D01*
X24001000Y41036929D01*
X24001000Y41144072D01*
X23965285Y41215500D01*
X23929571Y41251215D01*
X23858142Y41286929D01*
X23679571Y41286929D01*
X23608142Y41251215D01*
X23572428Y41215500D01*
X23536714Y41144072D01*
X23536714Y40929786D01*
X23572428Y40858358D01*
X23608142Y40822643D01*
X23608142Y41608358D02*
X23572428Y41644072D01*
X23536714Y41608358D01*
X23572428Y41572643D01*
X23608142Y41608358D01*
X23536714Y41608358D01*
X24286714Y41894072D02*
X24286714Y42358358D01*
X24001000Y42108358D01*
X24001000Y42215500D01*
X23965285Y42286929D01*
X23929571Y42322643D01*
X23858142Y42358358D01*
X23679571Y42358358D01*
X23608142Y42322643D01*
X23572428Y42286929D01*
X23536714Y42215500D01*
X23536714Y42001215D01*
X23572428Y41929786D01*
X23608142Y41894072D01*
X24286714Y42572643D02*
X23536714Y42822643D01*
X24286714Y43072643D01*
X88518952Y-8640000D02*
X88566571Y-8616190D01*
X88638000Y-8616190D01*
X88709428Y-8640000D01*
X88757047Y-8687619D01*
X88780857Y-8735238D01*
X88804666Y-8830476D01*
X88804666Y-8901904D01*
X88780857Y-8997142D01*
X88757047Y-9044761D01*
X88709428Y-9092380D01*
X88638000Y-9116190D01*
X88590380Y-9116190D01*
X88518952Y-9092380D01*
X88495142Y-9068571D01*
X88495142Y-8901904D01*
X88590380Y-8901904D01*
X88280857Y-9116190D02*
X88280857Y-8616190D01*
X87995142Y-9116190D01*
X87995142Y-8616190D01*
X87757047Y-9116190D02*
X87757047Y-8616190D01*
X87638000Y-8616190D01*
X87566571Y-8640000D01*
X87518952Y-8687619D01*
X87495142Y-8735238D01*
X87471333Y-8830476D01*
X87471333Y-8901904D01*
X87495142Y-8997142D01*
X87518952Y-9044761D01*
X87566571Y-9092380D01*
X87638000Y-9116190D01*
X87757047Y-9116190D01*
X88780857Y-6385714D02*
X88399904Y-6385714D01*
X88590380Y-6576190D02*
X88590380Y-6195238D01*
X87923714Y-6076190D02*
X88161809Y-6076190D01*
X88185619Y-6314285D01*
X88161809Y-6290476D01*
X88114190Y-6266666D01*
X87995142Y-6266666D01*
X87947523Y-6290476D01*
X87923714Y-6314285D01*
X87899904Y-6361904D01*
X87899904Y-6480952D01*
X87923714Y-6528571D01*
X87947523Y-6552380D01*
X87995142Y-6576190D01*
X88114190Y-6576190D01*
X88161809Y-6552380D01*
X88185619Y-6528571D01*
X87757047Y-6076190D02*
X87590380Y-6576190D01*
X87423714Y-6076190D01*
X89122095Y-4012380D02*
X89050666Y-4036190D01*
X88931619Y-4036190D01*
X88884000Y-4012380D01*
X88860190Y-3988571D01*
X88836380Y-3940952D01*
X88836380Y-3893333D01*
X88860190Y-3845714D01*
X88884000Y-3821904D01*
X88931619Y-3798095D01*
X89026857Y-3774285D01*
X89074476Y-3750476D01*
X89098285Y-3726666D01*
X89122095Y-3679047D01*
X89122095Y-3631428D01*
X89098285Y-3583809D01*
X89074476Y-3560000D01*
X89026857Y-3536190D01*
X88907809Y-3536190D01*
X88836380Y-3560000D01*
X88622095Y-3774285D02*
X88455428Y-3774285D01*
X88384000Y-4036190D02*
X88622095Y-4036190D01*
X88622095Y-3536190D01*
X88384000Y-3536190D01*
X87884000Y-4036190D02*
X88050666Y-3798095D01*
X88169714Y-4036190D02*
X88169714Y-3536190D01*
X87979238Y-3536190D01*
X87931619Y-3560000D01*
X87907809Y-3583809D01*
X87884000Y-3631428D01*
X87884000Y-3702857D01*
X87907809Y-3750476D01*
X87931619Y-3774285D01*
X87979238Y-3798095D01*
X88169714Y-3798095D01*
X87788761Y-4083809D02*
X87407809Y-4083809D01*
X87360190Y-3536190D02*
X87074476Y-3536190D01*
X87217333Y-4036190D02*
X87217333Y-3536190D01*
X86955428Y-3536190D02*
X86622095Y-4036190D01*
X86622095Y-3536190D02*
X86955428Y-4036190D01*
X89181619Y-1218380D02*
X89110190Y-1242190D01*
X88991142Y-1242190D01*
X88943523Y-1218380D01*
X88919714Y-1194571D01*
X88895904Y-1146952D01*
X88895904Y-1099333D01*
X88919714Y-1051714D01*
X88943523Y-1027904D01*
X88991142Y-1004095D01*
X89086380Y-980285D01*
X89134000Y-956476D01*
X89157809Y-932666D01*
X89181619Y-885047D01*
X89181619Y-837428D01*
X89157809Y-789809D01*
X89134000Y-766000D01*
X89086380Y-742190D01*
X88967333Y-742190D01*
X88895904Y-766000D01*
X88681619Y-980285D02*
X88514952Y-980285D01*
X88443523Y-1242190D02*
X88681619Y-1242190D01*
X88681619Y-742190D01*
X88443523Y-742190D01*
X87943523Y-1242190D02*
X88110190Y-1004095D01*
X88229238Y-1242190D02*
X88229238Y-742190D01*
X88038761Y-742190D01*
X87991142Y-766000D01*
X87967333Y-789809D01*
X87943523Y-837428D01*
X87943523Y-908857D01*
X87967333Y-956476D01*
X87991142Y-980285D01*
X88038761Y-1004095D01*
X88229238Y-1004095D01*
X87848285Y-1289809D02*
X87467333Y-1289809D01*
X87062571Y-1242190D02*
X87229238Y-1004095D01*
X87348285Y-1242190D02*
X87348285Y-742190D01*
X87157809Y-742190D01*
X87110190Y-766000D01*
X87086380Y-789809D01*
X87062571Y-837428D01*
X87062571Y-908857D01*
X87086380Y-956476D01*
X87110190Y-980285D01*
X87157809Y-1004095D01*
X87348285Y-1004095D01*
X86895904Y-742190D02*
X86562571Y-1242190D01*
X86562571Y-742190D02*
X86895904Y-1242190D01*
D11*
X88899085Y24089129D02*
X88327657Y24089129D01*
X88613371Y23803415D02*
X88613371Y24374843D01*
X87613371Y24553415D02*
X87970514Y24553415D01*
X88006228Y24196272D01*
X87970514Y24231986D01*
X87899085Y24267700D01*
X87720514Y24267700D01*
X87649085Y24231986D01*
X87613371Y24196272D01*
X87577657Y24124843D01*
X87577657Y23946272D01*
X87613371Y23874843D01*
X87649085Y23839129D01*
X87720514Y23803415D01*
X87899085Y23803415D01*
X87970514Y23839129D01*
X88006228Y23874843D01*
X87363371Y24553415D02*
X87113371Y23803415D01*
X86863371Y24553415D01*
X88888628Y27029915D02*
X88888628Y26422772D01*
X88852914Y26351343D01*
X88817200Y26315629D01*
X88745771Y26279915D01*
X88602914Y26279915D01*
X88531485Y26315629D01*
X88495771Y26351343D01*
X88460057Y26422772D01*
X88460057Y27029915D01*
X88138628Y26315629D02*
X88031485Y26279915D01*
X87852914Y26279915D01*
X87781485Y26315629D01*
X87745771Y26351343D01*
X87710057Y26422772D01*
X87710057Y26494200D01*
X87745771Y26565629D01*
X87781485Y26601343D01*
X87852914Y26637058D01*
X87995771Y26672772D01*
X88067200Y26708486D01*
X88102914Y26744200D01*
X88138628Y26815629D01*
X88138628Y26887058D01*
X88102914Y26958486D01*
X88067200Y26994200D01*
X87995771Y27029915D01*
X87817200Y27029915D01*
X87710057Y26994200D01*
X87138628Y26672772D02*
X87031485Y26637058D01*
X86995771Y26601343D01*
X86960057Y26529915D01*
X86960057Y26422772D01*
X86995771Y26351343D01*
X87031485Y26315629D01*
X87102914Y26279915D01*
X87388628Y26279915D01*
X87388628Y27029915D01*
X87138628Y27029915D01*
X87067200Y26994200D01*
X87031485Y26958486D01*
X86995771Y26887058D01*
X86995771Y26815629D01*
X87031485Y26744200D01*
X87067200Y26708486D01*
X87138628Y26672772D01*
X87388628Y26672772D01*
X86817200Y26208486D02*
X86245771Y26208486D01*
X86067200Y26279915D02*
X86067200Y27029915D01*
X85888628Y27029915D01*
X85781485Y26994200D01*
X85710057Y26922772D01*
X85674342Y26851343D01*
X85638628Y26708486D01*
X85638628Y26601343D01*
X85674342Y26458486D01*
X85710057Y26387058D01*
X85781485Y26315629D01*
X85888628Y26279915D01*
X86067200Y26279915D01*
X85317200Y26565629D02*
X84745771Y26565629D01*
X88888628Y29442915D02*
X88888628Y28835772D01*
X88852914Y28764343D01*
X88817200Y28728629D01*
X88745771Y28692915D01*
X88602914Y28692915D01*
X88531485Y28728629D01*
X88495771Y28764343D01*
X88460057Y28835772D01*
X88460057Y29442915D01*
X88138628Y28728629D02*
X88031485Y28692915D01*
X87852914Y28692915D01*
X87781485Y28728629D01*
X87745771Y28764343D01*
X87710057Y28835772D01*
X87710057Y28907200D01*
X87745771Y28978629D01*
X87781485Y29014343D01*
X87852914Y29050058D01*
X87995771Y29085772D01*
X88067200Y29121486D01*
X88102914Y29157200D01*
X88138628Y29228629D01*
X88138628Y29300058D01*
X88102914Y29371486D01*
X88067200Y29407200D01*
X87995771Y29442915D01*
X87817200Y29442915D01*
X87710057Y29407200D01*
X87138628Y29085772D02*
X87031485Y29050058D01*
X86995771Y29014343D01*
X86960057Y28942915D01*
X86960057Y28835772D01*
X86995771Y28764343D01*
X87031485Y28728629D01*
X87102914Y28692915D01*
X87388628Y28692915D01*
X87388628Y29442915D01*
X87138628Y29442915D01*
X87067200Y29407200D01*
X87031485Y29371486D01*
X86995771Y29300058D01*
X86995771Y29228629D01*
X87031485Y29157200D01*
X87067200Y29121486D01*
X87138628Y29085772D01*
X87388628Y29085772D01*
X86817200Y28621486D02*
X86245771Y28621486D01*
X86067200Y28692915D02*
X86067200Y29442915D01*
X85888628Y29442915D01*
X85781485Y29407200D01*
X85710057Y29335772D01*
X85674342Y29264343D01*
X85638628Y29121486D01*
X85638628Y29014343D01*
X85674342Y28871486D01*
X85710057Y28800058D01*
X85781485Y28728629D01*
X85888628Y28692915D01*
X86067200Y28692915D01*
X85317200Y28978629D02*
X84745771Y28978629D01*
X85031485Y28692915D02*
X85031485Y29264343D01*
X88455428Y31782100D02*
X88526857Y31817815D01*
X88634000Y31817815D01*
X88741142Y31782100D01*
X88812571Y31710672D01*
X88848285Y31639243D01*
X88884000Y31496386D01*
X88884000Y31389243D01*
X88848285Y31246386D01*
X88812571Y31174958D01*
X88741142Y31103529D01*
X88634000Y31067815D01*
X88562571Y31067815D01*
X88455428Y31103529D01*
X88419714Y31139243D01*
X88419714Y31389243D01*
X88562571Y31389243D01*
X88098285Y31067815D02*
X88098285Y31817815D01*
X87669714Y31067815D01*
X87669714Y31817815D01*
X87312571Y31067815D02*
X87312571Y31817815D01*
X87134000Y31817815D01*
X87026857Y31782100D01*
X86955428Y31710672D01*
X86919714Y31639243D01*
X86884000Y31496386D01*
X86884000Y31389243D01*
X86919714Y31246386D01*
X86955428Y31174958D01*
X87026857Y31103529D01*
X87134000Y31067815D01*
X87312571Y31067815D01*
D10*
X2678857Y-226190D02*
X2678857Y273810D01*
X2393142Y-226190D01*
X2393142Y273810D01*
X1869333Y-178571D02*
X1893142Y-202380D01*
X1964571Y-226190D01*
X2012190Y-226190D01*
X2083619Y-202380D01*
X2131238Y-154761D01*
X2155047Y-107142D01*
X2178857Y-11904D01*
X2178857Y59524D01*
X2155047Y154762D01*
X2131238Y202381D01*
X2083619Y250000D01*
X2012190Y273810D01*
X1964571Y273810D01*
X1893142Y250000D01*
X1869333Y226191D01*
X3309809Y2266191D02*
X2928857Y2266191D01*
X2833619Y2337620D02*
X2762190Y2313810D01*
X2643142Y2313810D01*
X2595523Y2337620D01*
X2571714Y2361429D01*
X2547904Y2409048D01*
X2547904Y2456667D01*
X2571714Y2504286D01*
X2595523Y2528096D01*
X2643142Y2551905D01*
X2738380Y2575715D01*
X2786000Y2599524D01*
X2809809Y2623334D01*
X2833619Y2670953D01*
X2833619Y2718572D01*
X2809809Y2766191D01*
X2786000Y2790000D01*
X2738380Y2813810D01*
X2619333Y2813810D01*
X2547904Y2790000D01*
X2333619Y2313810D02*
X2333619Y2813810D01*
X2095523Y2313810D02*
X2095523Y2813810D01*
X1976476Y2813810D01*
X1905047Y2790000D01*
X1857428Y2742381D01*
X1833619Y2694762D01*
X1809809Y2599524D01*
X1809809Y2528096D01*
X1833619Y2432858D01*
X1857428Y2385239D01*
X1905047Y2337620D01*
X1976476Y2313810D01*
X2095523Y2313810D01*
X1595523Y2575715D02*
X1428857Y2575715D01*
X1357428Y2313810D02*
X1595523Y2313810D01*
X1595523Y2813810D01*
X1357428Y2813810D01*
X3476476Y4806191D02*
X3095523Y4806191D01*
X2976476Y4853810D02*
X2976476Y5353810D01*
X2857428Y5353810D01*
X2786000Y5330000D01*
X2738380Y5282381D01*
X2714571Y5234762D01*
X2690761Y5139524D01*
X2690761Y5068096D01*
X2714571Y4972858D01*
X2738380Y4925239D01*
X2786000Y4877620D01*
X2857428Y4853810D01*
X2976476Y4853810D01*
X2476476Y4853810D02*
X2476476Y5353810D01*
X2190761Y4853810D02*
X2405047Y5139524D01*
X2190761Y5353810D02*
X2476476Y5068096D01*
X1690761Y4853810D02*
X1857428Y5091905D01*
X1976476Y4853810D02*
X1976476Y5353810D01*
X1786000Y5353810D01*
X1738380Y5330000D01*
X1714571Y5306191D01*
X1690761Y5258572D01*
X1690761Y5187143D01*
X1714571Y5139524D01*
X1738380Y5115715D01*
X1786000Y5091905D01*
X1976476Y5091905D01*
X1476476Y4853810D02*
X1476476Y5353810D01*
X1357428Y5353810D01*
X1286000Y5330000D01*
X1238380Y5282381D01*
X1214571Y5234762D01*
X1190761Y5139524D01*
X1190761Y5068096D01*
X1214571Y4972858D01*
X1238380Y4925239D01*
X1286000Y4877620D01*
X1357428Y4853810D01*
X1476476Y4853810D01*
X3964571Y7346191D02*
X3583619Y7346191D01*
X3512190Y7893810D02*
X3393142Y7393810D01*
X3297904Y7750953D01*
X3202666Y7393810D01*
X3083619Y7893810D01*
X2607428Y7393810D02*
X2774095Y7631905D01*
X2893142Y7393810D02*
X2893142Y7893810D01*
X2702666Y7893810D01*
X2655047Y7870000D01*
X2631238Y7846191D01*
X2607428Y7798572D01*
X2607428Y7727143D01*
X2631238Y7679524D01*
X2655047Y7655715D01*
X2702666Y7631905D01*
X2893142Y7631905D01*
X2393142Y7393810D02*
X2393142Y7893810D01*
X2202666Y7893810D01*
X2155047Y7870000D01*
X2131238Y7846191D01*
X2107428Y7798572D01*
X2107428Y7727143D01*
X2131238Y7679524D01*
X2155047Y7655715D01*
X2202666Y7631905D01*
X2393142Y7631905D01*
X1607428Y7393810D02*
X1774095Y7631905D01*
X1893142Y7393810D02*
X1893142Y7893810D01*
X1702666Y7893810D01*
X1655047Y7870000D01*
X1631238Y7846191D01*
X1607428Y7798572D01*
X1607428Y7727143D01*
X1631238Y7679524D01*
X1655047Y7655715D01*
X1702666Y7631905D01*
X1893142Y7631905D01*
X1297904Y7893810D02*
X1202666Y7893810D01*
X1155047Y7870000D01*
X1107428Y7822381D01*
X1083619Y7727143D01*
X1083619Y7560477D01*
X1107428Y7465239D01*
X1155047Y7417620D01*
X1202666Y7393810D01*
X1297904Y7393810D01*
X1345523Y7417620D01*
X1393142Y7465239D01*
X1416952Y7560477D01*
X1416952Y7727143D01*
X1393142Y7822381D01*
X1345523Y7870000D01*
X1297904Y7893810D01*
X940761Y7893810D02*
X655047Y7893810D01*
X797904Y7393810D02*
X797904Y7893810D01*
X3405047Y9886191D02*
X3024095Y9886191D01*
X2976476Y10433810D02*
X2690761Y10433810D01*
X2833619Y9933810D02*
X2833619Y10433810D01*
X2238380Y9933810D02*
X2405047Y10171905D01*
X2524095Y9933810D02*
X2524095Y10433810D01*
X2333619Y10433810D01*
X2286000Y10410000D01*
X2262190Y10386191D01*
X2238380Y10338572D01*
X2238380Y10267143D01*
X2262190Y10219524D01*
X2286000Y10195715D01*
X2333619Y10171905D01*
X2524095Y10171905D01*
X2024095Y9933810D02*
X2024095Y10433810D01*
X1738380Y9933810D02*
X1952666Y10219524D01*
X1738380Y10433810D02*
X2024095Y10148096D01*
X1428857Y10433810D02*
X1381238Y10433810D01*
X1333619Y10410000D01*
X1309809Y10386191D01*
X1286000Y10338572D01*
X1262190Y10243334D01*
X1262190Y10124286D01*
X1286000Y10029048D01*
X1309809Y9981429D01*
X1333619Y9957620D01*
X1381238Y9933810D01*
X1428857Y9933810D01*
X1476476Y9957620D01*
X1500285Y9981429D01*
X1524095Y10029048D01*
X1547904Y10124286D01*
X1547904Y10243334D01*
X1524095Y10338572D01*
X1500285Y10386191D01*
X1476476Y10410000D01*
X1428857Y10433810D01*
X3488380Y12426191D02*
X3107428Y12426191D01*
X2988380Y12473810D02*
X2988380Y12973810D01*
X2869333Y12973810D01*
X2797904Y12950000D01*
X2750285Y12902381D01*
X2726476Y12854762D01*
X2702666Y12759524D01*
X2702666Y12688096D01*
X2726476Y12592858D01*
X2750285Y12545239D01*
X2797904Y12497620D01*
X2869333Y12473810D01*
X2988380Y12473810D01*
X2488380Y12473810D02*
X2488380Y12973810D01*
X2202666Y12473810D02*
X2416952Y12759524D01*
X2202666Y12973810D02*
X2488380Y12688096D01*
X2036000Y12973810D02*
X1916952Y12473810D01*
X1821714Y12830953D01*
X1726476Y12473810D01*
X1607428Y12973810D01*
X1416952Y12735715D02*
X1250285Y12735715D01*
X1178857Y12473810D02*
X1416952Y12473810D01*
X1416952Y12973810D01*
X1178857Y12973810D01*
X3512190Y14966191D02*
X3131238Y14966191D01*
X3012190Y15013810D02*
X3012190Y15513810D01*
X2893142Y15513810D01*
X2821714Y15490000D01*
X2774095Y15442381D01*
X2750285Y15394762D01*
X2726476Y15299524D01*
X2726476Y15228096D01*
X2750285Y15132858D01*
X2774095Y15085239D01*
X2821714Y15037620D01*
X2893142Y15013810D01*
X3012190Y15013810D01*
X2512190Y15013810D02*
X2512190Y15513810D01*
X2226476Y15013810D02*
X2440761Y15299524D01*
X2226476Y15513810D02*
X2512190Y15228096D01*
X2059809Y15513810D02*
X1940761Y15013810D01*
X1845523Y15370953D01*
X1750285Y15013810D01*
X1631238Y15513810D01*
X1440761Y15013810D02*
X1440761Y15513810D01*
X1321714Y15513810D01*
X1250285Y15490000D01*
X1202666Y15442381D01*
X1178857Y15394762D01*
X1155047Y15299524D01*
X1155047Y15228096D01*
X1178857Y15132858D01*
X1202666Y15085239D01*
X1250285Y15037620D01*
X1321714Y15013810D01*
X1440761Y15013810D01*
X3381238Y17506191D02*
X3000285Y17506191D01*
X2905047Y17577620D02*
X2833619Y17553810D01*
X2714571Y17553810D01*
X2666952Y17577620D01*
X2643142Y17601429D01*
X2619333Y17649048D01*
X2619333Y17696667D01*
X2643142Y17744286D01*
X2666952Y17768096D01*
X2714571Y17791905D01*
X2809809Y17815715D01*
X2857428Y17839524D01*
X2881238Y17863334D01*
X2905047Y17910953D01*
X2905047Y17958572D01*
X2881238Y18006191D01*
X2857428Y18030000D01*
X2809809Y18053810D01*
X2690761Y18053810D01*
X2619333Y18030000D01*
X2476476Y18053810D02*
X2190761Y18053810D01*
X2333619Y17553810D02*
X2333619Y18053810D01*
X2024095Y17815715D02*
X1857428Y17815715D01*
X1786000Y17553810D02*
X2024095Y17553810D01*
X2024095Y18053810D01*
X1786000Y18053810D01*
X1571714Y17553810D02*
X1571714Y18053810D01*
X1381238Y18053810D01*
X1333619Y18030000D01*
X1309809Y18006191D01*
X1286000Y17958572D01*
X1286000Y17887143D01*
X1309809Y17839524D01*
X1333619Y17815715D01*
X1381238Y17791905D01*
X1571714Y17791905D01*
X3095523Y20046191D02*
X2714571Y20046191D01*
X2595523Y20093810D02*
X2595523Y20593810D01*
X2476476Y20593810D01*
X2405047Y20570000D01*
X2357428Y20522381D01*
X2333619Y20474762D01*
X2309809Y20379524D01*
X2309809Y20308096D01*
X2333619Y20212858D01*
X2357428Y20165239D01*
X2405047Y20117620D01*
X2476476Y20093810D01*
X2595523Y20093810D01*
X2095523Y20093810D02*
X2095523Y20593810D01*
X1571714Y20093810D02*
X1738380Y20331905D01*
X1857428Y20093810D02*
X1857428Y20593810D01*
X1666952Y20593810D01*
X1619333Y20570000D01*
X1595523Y20546191D01*
X1571714Y20498572D01*
X1571714Y20427143D01*
X1595523Y20379524D01*
X1619333Y20355715D01*
X1666952Y20331905D01*
X1857428Y20331905D01*
X3202666Y22586191D02*
X2821714Y22586191D01*
X2702666Y22633810D02*
X2702666Y23133810D01*
X2536000Y22776667D01*
X2369333Y23133810D01*
X2369333Y22633810D01*
X2202666Y23133810D02*
X1916952Y23133810D01*
X2059809Y22633810D02*
X2059809Y23133810D01*
X1464571Y22633810D02*
X1631238Y22871905D01*
X1750285Y22633810D02*
X1750285Y23133810D01*
X1559809Y23133810D01*
X1512190Y23110000D01*
X1488380Y23086191D01*
X1464571Y23038572D01*
X1464571Y22967143D01*
X1488380Y22919524D01*
X1512190Y22895715D01*
X1559809Y22871905D01*
X1750285Y22871905D01*
X3143142Y25126191D02*
X2762190Y25126191D01*
X2666952Y25197620D02*
X2595523Y25173810D01*
X2476476Y25173810D01*
X2428857Y25197620D01*
X2405047Y25221429D01*
X2381238Y25269048D01*
X2381238Y25316667D01*
X2405047Y25364286D01*
X2428857Y25388096D01*
X2476476Y25411905D01*
X2571714Y25435715D01*
X2619333Y25459524D01*
X2643142Y25483334D01*
X2666952Y25530953D01*
X2666952Y25578572D01*
X2643142Y25626191D01*
X2619333Y25650000D01*
X2571714Y25673810D01*
X2452666Y25673810D01*
X2381238Y25650000D01*
X2166952Y25435715D02*
X2000285Y25435715D01*
X1928857Y25173810D02*
X2166952Y25173810D01*
X2166952Y25673810D01*
X1928857Y25673810D01*
X1476476Y25173810D02*
X1714571Y25173810D01*
X1714571Y25673810D01*
X3143142Y27666191D02*
X2762190Y27666191D01*
X2666952Y27737620D02*
X2595523Y27713810D01*
X2476476Y27713810D01*
X2428857Y27737620D01*
X2405047Y27761429D01*
X2381238Y27809048D01*
X2381238Y27856667D01*
X2405047Y27904286D01*
X2428857Y27928096D01*
X2476476Y27951905D01*
X2571714Y27975715D01*
X2619333Y27999524D01*
X2643142Y28023334D01*
X2666952Y28070953D01*
X2666952Y28118572D01*
X2643142Y28166191D01*
X2619333Y28190000D01*
X2571714Y28213810D01*
X2452666Y28213810D01*
X2381238Y28190000D01*
X2166952Y27975715D02*
X2000285Y27975715D01*
X1928857Y27713810D02*
X2166952Y27713810D01*
X2166952Y28213810D01*
X1928857Y28213810D01*
X1476476Y27713810D02*
X1714571Y27713810D01*
X1714571Y28213810D01*
X3202666Y30206191D02*
X2821714Y30206191D01*
X2702666Y30253810D02*
X2702666Y30753810D01*
X2536000Y30396667D01*
X2369333Y30753810D01*
X2369333Y30253810D01*
X2202666Y30753810D02*
X1916952Y30753810D01*
X2059809Y30253810D02*
X2059809Y30753810D01*
X1464571Y30253810D02*
X1631238Y30491905D01*
X1750285Y30253810D02*
X1750285Y30753810D01*
X1559809Y30753810D01*
X1512190Y30730000D01*
X1488380Y30706191D01*
X1464571Y30658572D01*
X1464571Y30587143D01*
X1488380Y30539524D01*
X1512190Y30515715D01*
X1559809Y30491905D01*
X1750285Y30491905D01*
X3571714Y32746191D02*
X3190761Y32746191D01*
X3071714Y32793810D02*
X3071714Y33293810D01*
X2833619Y32793810D02*
X2833619Y33293810D01*
X2547904Y32793810D01*
X2547904Y33293810D01*
X2309809Y32793810D02*
X2309809Y33293810D01*
X2190761Y33293810D01*
X2119333Y33270000D01*
X2071714Y33222381D01*
X2047904Y33174762D01*
X2024095Y33079524D01*
X2024095Y33008096D01*
X2047904Y32912858D01*
X2071714Y32865239D01*
X2119333Y32817620D01*
X2190761Y32793810D01*
X2309809Y32793810D01*
X1809809Y33055715D02*
X1643142Y33055715D01*
X1571714Y32793810D02*
X1809809Y32793810D01*
X1809809Y33293810D01*
X1571714Y33293810D01*
X1405047Y33293810D02*
X1071714Y32793810D01*
X1071714Y33293810D02*
X1405047Y32793810D01*
X2678857Y35333810D02*
X2678857Y35833810D01*
X2393142Y35333810D01*
X2393142Y35833810D01*
X1869333Y35381429D02*
X1893142Y35357620D01*
X1964571Y35333810D01*
X2012190Y35333810D01*
X2083619Y35357620D01*
X2131238Y35405239D01*
X2155047Y35452858D01*
X2178857Y35548096D01*
X2178857Y35619524D01*
X2155047Y35714762D01*
X2131238Y35762381D01*
X2083619Y35810000D01*
X2012190Y35833810D01*
X1964571Y35833810D01*
X1893142Y35810000D01*
X1869333Y35786191D01*
X2678857Y37873810D02*
X2678857Y38373810D01*
X2393142Y37873810D01*
X2393142Y38373810D01*
X1869333Y37921429D02*
X1893142Y37897620D01*
X1964571Y37873810D01*
X2012190Y37873810D01*
X2083619Y37897620D01*
X2131238Y37945239D01*
X2155047Y37992858D01*
X2178857Y38088096D01*
X2178857Y38159524D01*
X2155047Y38254762D01*
X2131238Y38302381D01*
X2083619Y38350000D01*
X2012190Y38373810D01*
X1964571Y38373810D01*
X1893142Y38350000D01*
X1869333Y38326191D01*
X3881238Y40366191D02*
X3500285Y40366191D01*
X3381238Y40413810D02*
X3381238Y40913810D01*
X3262190Y40913810D01*
X3190761Y40890000D01*
X3143142Y40842381D01*
X3119333Y40794762D01*
X3095523Y40699524D01*
X3095523Y40628096D01*
X3119333Y40532858D01*
X3143142Y40485239D01*
X3190761Y40437620D01*
X3262190Y40413810D01*
X3381238Y40413810D01*
X2881238Y40675715D02*
X2714571Y40675715D01*
X2643142Y40413810D02*
X2881238Y40413810D01*
X2881238Y40913810D01*
X2643142Y40913810D01*
X2428857Y40413810D02*
X2428857Y40913810D01*
X2143142Y40413810D01*
X2143142Y40913810D01*
X1928857Y40437620D02*
X1857428Y40413810D01*
X1738380Y40413810D01*
X1690761Y40437620D01*
X1666952Y40461429D01*
X1643142Y40509048D01*
X1643142Y40556667D01*
X1666952Y40604286D01*
X1690761Y40628096D01*
X1738380Y40651905D01*
X1833619Y40675715D01*
X1881238Y40699524D01*
X1905047Y40723334D01*
X1928857Y40770953D01*
X1928857Y40818572D01*
X1905047Y40866191D01*
X1881238Y40890000D01*
X1833619Y40913810D01*
X1714571Y40913810D01*
X1643142Y40890000D01*
X1428857Y40675715D02*
X1262190Y40675715D01*
X1190761Y40413810D02*
X1428857Y40413810D01*
X1428857Y40913810D01*
X1190761Y40913810D01*
X738380Y40413810D02*
X976476Y40413810D01*
X976476Y40913810D01*
D12*
X3825714Y46918572D02*
X3063809Y46918572D01*
X3444761Y46537620D02*
X3444761Y47299524D01*
X2111428Y47537620D02*
X2587619Y47537620D01*
X2635238Y47061429D01*
X2587619Y47109048D01*
X2492380Y47156667D01*
X2254285Y47156667D01*
X2159047Y47109048D01*
X2111428Y47061429D01*
X2063809Y46966191D01*
X2063809Y46728096D01*
X2111428Y46632858D01*
X2159047Y46585239D01*
X2254285Y46537620D01*
X2492380Y46537620D01*
X2587619Y46585239D01*
X2635238Y46632858D01*
X1778095Y47537620D02*
X1444761Y46537620D01*
X1111428Y47537620D01*
X3301904Y50030000D02*
X3397142Y50077620D01*
X3540000Y50077620D01*
X3682857Y50030000D01*
X3778095Y49934762D01*
X3825714Y49839524D01*
X3873333Y49649048D01*
X3873333Y49506191D01*
X3825714Y49315715D01*
X3778095Y49220477D01*
X3682857Y49125239D01*
X3540000Y49077620D01*
X3444761Y49077620D01*
X3301904Y49125239D01*
X3254285Y49172858D01*
X3254285Y49506191D01*
X3444761Y49506191D01*
X2825714Y49077620D02*
X2825714Y50077620D01*
X2254285Y49077620D01*
X2254285Y50077620D01*
X1778095Y49077620D02*
X1778095Y50077620D01*
X1540000Y50077620D01*
X1397142Y50030000D01*
X1301904Y49934762D01*
X1254285Y49839524D01*
X1206666Y49649048D01*
X1206666Y49506191D01*
X1254285Y49315715D01*
X1301904Y49220477D01*
X1397142Y49125239D01*
X1540000Y49077620D01*
X1778095Y49077620D01*
X3301904Y52570000D02*
X3397142Y52617620D01*
X3540000Y52617620D01*
X3682857Y52570000D01*
X3778095Y52474762D01*
X3825714Y52379524D01*
X3873333Y52189048D01*
X3873333Y52046191D01*
X3825714Y51855715D01*
X3778095Y51760477D01*
X3682857Y51665239D01*
X3540000Y51617620D01*
X3444761Y51617620D01*
X3301904Y51665239D01*
X3254285Y51712858D01*
X3254285Y52046191D01*
X3444761Y52046191D01*
X2825714Y51617620D02*
X2825714Y52617620D01*
X2254285Y51617620D01*
X2254285Y52617620D01*
X1778095Y51617620D02*
X1778095Y52617620D01*
X1540000Y52617620D01*
X1397142Y52570000D01*
X1301904Y52474762D01*
X1254285Y52379524D01*
X1206666Y52189048D01*
X1206666Y52046191D01*
X1254285Y51855715D01*
X1301904Y51760477D01*
X1397142Y51665239D01*
X1540000Y51617620D01*
X1778095Y51617620D01*
X3325714Y54157620D02*
X3325714Y55157620D01*
X2754285Y54157620D01*
X2754285Y55157620D01*
X1706666Y54252858D02*
X1754285Y54205239D01*
X1897142Y54157620D01*
X1992380Y54157620D01*
X2135238Y54205239D01*
X2230476Y54300477D01*
X2278095Y54395715D01*
X2325714Y54586191D01*
X2325714Y54729048D01*
X2278095Y54919524D01*
X2230476Y55014762D01*
X2135238Y55110000D01*
X1992380Y55157620D01*
X1897142Y55157620D01*
X1754285Y55110000D01*
X1706666Y55062381D01*
M02*
