G04 #@! TF.GenerationSoftware,KiCad,Pcbnew,(5.1.2)-2*
G04 #@! TF.CreationDate,2020-12-12T08:56:43+00:00*
G04 #@! TF.ProjectId,Amiga 34-pin to Citizen Slim 26-pin Adapter (Design B),416d6967-6120-4333-942d-70696e20746f,rev?*
G04 #@! TF.SameCoordinates,Original*
G04 #@! TF.FileFunction,Copper,L1,Top*
G04 #@! TF.FilePolarity,Positive*
%FSLAX46Y46*%
G04 Gerber Fmt 4.6, Leading zero omitted, Abs format (unit mm)*
G04 Created by KiCad (PCBNEW (5.1.2)-2) date 2020-12-12 08:56:43*
%MOMM*%
%LPD*%
G04 APERTURE LIST*
%ADD10O,1.700000X1.700000*%
%ADD11R,1.700000X1.700000*%
%ADD12C,0.250000*%
%ADD13C,1.000000*%
%ADD14C,0.254000*%
G04 APERTURE END LIST*
D10*
X116840000Y-95250000D03*
X116840000Y-92710000D03*
X119380000Y-95250000D03*
X119380000Y-92710000D03*
X121920000Y-95250000D03*
X121920000Y-92710000D03*
X124460000Y-95250000D03*
X124460000Y-92710000D03*
X127000000Y-95250000D03*
X127000000Y-92710000D03*
X129540000Y-95250000D03*
X129540000Y-92710000D03*
X132080000Y-95250000D03*
X132080000Y-92710000D03*
X134620000Y-95250000D03*
X134620000Y-92710000D03*
X137160000Y-95250000D03*
X137160000Y-92710000D03*
X139700000Y-95250000D03*
X139700000Y-92710000D03*
X142240000Y-95250000D03*
X142240000Y-92710000D03*
X144780000Y-95250000D03*
X144780000Y-92710000D03*
X147320000Y-95250000D03*
X147320000Y-92710000D03*
X149860000Y-95250000D03*
X149860000Y-92710000D03*
X152400000Y-95250000D03*
X152400000Y-92710000D03*
X154940000Y-95250000D03*
X154940000Y-92710000D03*
X157480000Y-95250000D03*
D11*
X157480000Y-92710000D03*
D10*
X109220000Y-92710000D03*
X106680000Y-92710000D03*
X104140000Y-92710000D03*
D11*
X101600000Y-92710000D03*
D10*
X147320000Y-110490000D03*
X147320000Y-113030000D03*
X144780000Y-110490000D03*
X144780000Y-113030000D03*
X142240000Y-110490000D03*
X142240000Y-113030000D03*
X139700000Y-110490000D03*
X139700000Y-113030000D03*
X137160000Y-110490000D03*
X137160000Y-113030000D03*
X134620000Y-110490000D03*
X134620000Y-113030000D03*
X132080000Y-110490000D03*
X132080000Y-113030000D03*
X129540000Y-110490000D03*
X129540000Y-113030000D03*
X127000000Y-110490000D03*
X127000000Y-113030000D03*
X124460000Y-110490000D03*
X124460000Y-113030000D03*
X121920000Y-110490000D03*
X121920000Y-113030000D03*
X119380000Y-110490000D03*
X119380000Y-113030000D03*
X116840000Y-110490000D03*
D11*
X116840000Y-113030000D03*
D12*
X119380000Y-98552000D02*
X119380000Y-95250000D01*
X128270000Y-107442000D02*
X119380000Y-98552000D01*
X128270000Y-111252000D02*
X128270000Y-107442000D01*
X128778000Y-111760000D02*
X128270000Y-111252000D01*
X147320000Y-110490000D02*
X146050000Y-111760000D01*
X146050000Y-111760000D02*
X128778000Y-111760000D01*
X121920000Y-99060000D02*
X121920000Y-95250000D01*
X129032000Y-106172000D02*
X121920000Y-99060000D01*
X143764000Y-106172000D02*
X129032000Y-106172000D01*
X144780000Y-110490000D02*
X144780000Y-107188000D01*
X144780000Y-107188000D02*
X143764000Y-106172000D01*
X154940000Y-98044000D02*
X154940000Y-95250000D01*
X154178000Y-98806000D02*
X154940000Y-98044000D01*
X140462000Y-98806000D02*
X154178000Y-98806000D01*
X139700000Y-95250000D02*
X139700000Y-98044000D01*
X139700000Y-98044000D02*
X140462000Y-98806000D01*
X116840000Y-96452081D02*
X116840000Y-95250000D01*
X124460000Y-106934000D02*
X124460000Y-110490000D01*
X124460000Y-107238800D02*
X124460000Y-106934000D01*
X116840000Y-98298000D02*
X116840000Y-95250000D01*
X124460000Y-106934000D02*
X124460000Y-105918000D01*
X124460000Y-105918000D02*
X116840000Y-98298000D01*
X124460000Y-113030000D02*
X124358400Y-112928400D01*
X121920000Y-113030000D02*
X121920000Y-112979200D01*
X119380000Y-113030000D02*
X119380000Y-112928400D01*
D13*
X115570000Y-113030000D02*
X116840000Y-113030000D01*
X101600000Y-99060000D02*
X104140000Y-101600000D01*
X101600000Y-92710000D02*
X101600000Y-99060000D01*
X104140000Y-101600000D02*
X111760000Y-101600000D01*
X114757200Y-104597200D02*
X114757200Y-112217200D01*
X111760000Y-101600000D02*
X114757200Y-104597200D01*
X114757200Y-112217200D02*
X115570000Y-113030000D01*
X116840000Y-113030000D02*
X119380000Y-113030000D01*
X119380000Y-113030000D02*
X121920000Y-113030000D01*
X121920000Y-113030000D02*
X124460000Y-113030000D01*
D14*
G36*
X161915869Y-82970722D02*
G01*
X162029246Y-83004953D01*
X162133819Y-83060555D01*
X162225596Y-83135407D01*
X162301091Y-83226664D01*
X162357419Y-83330844D01*
X162392440Y-83443976D01*
X162408000Y-83592022D01*
X162408001Y-107663711D01*
X162393278Y-107813869D01*
X162359047Y-107927246D01*
X162303446Y-108031817D01*
X162228594Y-108123595D01*
X162137335Y-108199091D01*
X162033160Y-108255419D01*
X161920024Y-108290440D01*
X161771979Y-108306000D01*
X152367581Y-108306000D01*
X152339135Y-108308802D01*
X152331318Y-108308747D01*
X152322147Y-108309646D01*
X152075644Y-108335554D01*
X152017028Y-108347586D01*
X151958284Y-108358792D01*
X151949462Y-108361456D01*
X151712686Y-108434751D01*
X151657555Y-108457926D01*
X151602080Y-108480339D01*
X151593944Y-108484666D01*
X151375914Y-108602554D01*
X151326346Y-108635988D01*
X151276265Y-108668760D01*
X151269124Y-108674584D01*
X151078144Y-108832577D01*
X151036005Y-108875012D01*
X150993255Y-108916875D01*
X150987381Y-108923976D01*
X150830727Y-109116054D01*
X150797655Y-109165831D01*
X150763826Y-109215237D01*
X150759444Y-109223343D01*
X150643081Y-109442191D01*
X150620298Y-109497468D01*
X150596721Y-109552475D01*
X150593997Y-109561278D01*
X150522357Y-109798559D01*
X150510736Y-109857246D01*
X150498300Y-109915752D01*
X150497337Y-109924917D01*
X150473150Y-110171595D01*
X150473150Y-110171608D01*
X150470001Y-110203581D01*
X150470000Y-113251721D01*
X150455278Y-113401869D01*
X150421047Y-113515246D01*
X150365446Y-113619817D01*
X150290594Y-113711595D01*
X150199335Y-113787091D01*
X150095160Y-113843419D01*
X149982024Y-113878440D01*
X149833979Y-113894000D01*
X148525516Y-113894000D01*
X148664157Y-113661252D01*
X148761481Y-113386891D01*
X148640814Y-113157000D01*
X147447000Y-113157000D01*
X147447000Y-113177000D01*
X147193000Y-113177000D01*
X147193000Y-113157000D01*
X144907000Y-113157000D01*
X144907000Y-113177000D01*
X144653000Y-113177000D01*
X144653000Y-113157000D01*
X142367000Y-113157000D01*
X142367000Y-113177000D01*
X142113000Y-113177000D01*
X142113000Y-113157000D01*
X139827000Y-113157000D01*
X139827000Y-113177000D01*
X139573000Y-113177000D01*
X139573000Y-113157000D01*
X137287000Y-113157000D01*
X137287000Y-113177000D01*
X137033000Y-113177000D01*
X137033000Y-113157000D01*
X134747000Y-113157000D01*
X134747000Y-113177000D01*
X134493000Y-113177000D01*
X134493000Y-113157000D01*
X132207000Y-113157000D01*
X132207000Y-113177000D01*
X131953000Y-113177000D01*
X131953000Y-113157000D01*
X131933000Y-113157000D01*
X131933000Y-112903000D01*
X131953000Y-112903000D01*
X131953000Y-112883000D01*
X132207000Y-112883000D01*
X132207000Y-112903000D01*
X134493000Y-112903000D01*
X134493000Y-112883000D01*
X134747000Y-112883000D01*
X134747000Y-112903000D01*
X137033000Y-112903000D01*
X137033000Y-112883000D01*
X137287000Y-112883000D01*
X137287000Y-112903000D01*
X139573000Y-112903000D01*
X139573000Y-112883000D01*
X139827000Y-112883000D01*
X139827000Y-112903000D01*
X142113000Y-112903000D01*
X142113000Y-112883000D01*
X142367000Y-112883000D01*
X142367000Y-112903000D01*
X144653000Y-112903000D01*
X144653000Y-112883000D01*
X144907000Y-112883000D01*
X144907000Y-112903000D01*
X147193000Y-112903000D01*
X147193000Y-112883000D01*
X147447000Y-112883000D01*
X147447000Y-112903000D01*
X148640814Y-112903000D01*
X148761481Y-112673109D01*
X148664157Y-112398748D01*
X148515178Y-112148645D01*
X148320269Y-111932412D01*
X148091244Y-111761584D01*
X148149014Y-111730706D01*
X148375134Y-111545134D01*
X148560706Y-111319014D01*
X148698599Y-111061034D01*
X148783513Y-110781111D01*
X148812185Y-110490000D01*
X148783513Y-110198889D01*
X148698599Y-109918966D01*
X148560706Y-109660986D01*
X148375134Y-109434866D01*
X148149014Y-109249294D01*
X147891034Y-109111401D01*
X147611111Y-109026487D01*
X147392950Y-109005000D01*
X147247050Y-109005000D01*
X147028889Y-109026487D01*
X146748966Y-109111401D01*
X146490986Y-109249294D01*
X146264866Y-109434866D01*
X146079294Y-109660986D01*
X146050000Y-109715791D01*
X146020706Y-109660986D01*
X145835134Y-109434866D01*
X145609014Y-109249294D01*
X145540000Y-109212405D01*
X145540000Y-107225322D01*
X145543676Y-107188000D01*
X145540000Y-107150677D01*
X145540000Y-107150667D01*
X145529003Y-107039014D01*
X145485546Y-106895753D01*
X145438092Y-106806974D01*
X145414974Y-106763723D01*
X145343799Y-106676997D01*
X145320001Y-106647999D01*
X145291003Y-106624201D01*
X144327804Y-105661002D01*
X144304001Y-105631999D01*
X144188276Y-105537026D01*
X144056247Y-105466454D01*
X143912986Y-105422997D01*
X143801333Y-105412000D01*
X143801322Y-105412000D01*
X143764000Y-105408324D01*
X143726678Y-105412000D01*
X129346802Y-105412000D01*
X122680000Y-98745199D01*
X122680000Y-96527595D01*
X122749014Y-96490706D01*
X122975134Y-96305134D01*
X123160706Y-96079014D01*
X123190000Y-96024209D01*
X123219294Y-96079014D01*
X123404866Y-96305134D01*
X123630986Y-96490706D01*
X123888966Y-96628599D01*
X124168889Y-96713513D01*
X124387050Y-96735000D01*
X124532950Y-96735000D01*
X124751111Y-96713513D01*
X125031034Y-96628599D01*
X125289014Y-96490706D01*
X125515134Y-96305134D01*
X125700706Y-96079014D01*
X125730000Y-96024209D01*
X125759294Y-96079014D01*
X125944866Y-96305134D01*
X126170986Y-96490706D01*
X126428966Y-96628599D01*
X126708889Y-96713513D01*
X126927050Y-96735000D01*
X127072950Y-96735000D01*
X127291111Y-96713513D01*
X127571034Y-96628599D01*
X127829014Y-96490706D01*
X128055134Y-96305134D01*
X128240706Y-96079014D01*
X128270000Y-96024209D01*
X128299294Y-96079014D01*
X128484866Y-96305134D01*
X128710986Y-96490706D01*
X128968966Y-96628599D01*
X129248889Y-96713513D01*
X129467050Y-96735000D01*
X129612950Y-96735000D01*
X129831111Y-96713513D01*
X130111034Y-96628599D01*
X130369014Y-96490706D01*
X130595134Y-96305134D01*
X130780706Y-96079014D01*
X130810000Y-96024209D01*
X130839294Y-96079014D01*
X131024866Y-96305134D01*
X131250986Y-96490706D01*
X131508966Y-96628599D01*
X131788889Y-96713513D01*
X132007050Y-96735000D01*
X132152950Y-96735000D01*
X132371111Y-96713513D01*
X132651034Y-96628599D01*
X132909014Y-96490706D01*
X133135134Y-96305134D01*
X133320706Y-96079014D01*
X133350000Y-96024209D01*
X133379294Y-96079014D01*
X133564866Y-96305134D01*
X133790986Y-96490706D01*
X134048966Y-96628599D01*
X134328889Y-96713513D01*
X134547050Y-96735000D01*
X134692950Y-96735000D01*
X134911111Y-96713513D01*
X135191034Y-96628599D01*
X135449014Y-96490706D01*
X135675134Y-96305134D01*
X135860706Y-96079014D01*
X135890000Y-96024209D01*
X135919294Y-96079014D01*
X136104866Y-96305134D01*
X136330986Y-96490706D01*
X136588966Y-96628599D01*
X136868889Y-96713513D01*
X137087050Y-96735000D01*
X137232950Y-96735000D01*
X137451111Y-96713513D01*
X137731034Y-96628599D01*
X137989014Y-96490706D01*
X138215134Y-96305134D01*
X138400706Y-96079014D01*
X138430000Y-96024209D01*
X138459294Y-96079014D01*
X138644866Y-96305134D01*
X138870986Y-96490706D01*
X138940000Y-96527595D01*
X138940001Y-98006668D01*
X138936324Y-98044000D01*
X138940001Y-98081332D01*
X138940001Y-98081333D01*
X138950998Y-98192986D01*
X138964180Y-98236442D01*
X138994454Y-98336246D01*
X139065026Y-98468276D01*
X139133737Y-98552000D01*
X139160000Y-98584001D01*
X139188998Y-98607799D01*
X139898201Y-99317002D01*
X139921999Y-99346001D01*
X140037724Y-99440974D01*
X140169753Y-99511546D01*
X140313014Y-99555003D01*
X140424667Y-99566000D01*
X140424675Y-99566000D01*
X140462000Y-99569676D01*
X140499325Y-99566000D01*
X154140678Y-99566000D01*
X154178000Y-99569676D01*
X154215322Y-99566000D01*
X154215333Y-99566000D01*
X154326986Y-99555003D01*
X154470247Y-99511546D01*
X154602276Y-99440974D01*
X154718001Y-99346001D01*
X154741803Y-99316998D01*
X155451004Y-98607798D01*
X155480001Y-98584001D01*
X155574974Y-98468276D01*
X155645546Y-98336247D01*
X155689003Y-98192986D01*
X155700000Y-98081333D01*
X155700000Y-98081325D01*
X155703676Y-98044000D01*
X155700000Y-98006675D01*
X155700000Y-96527595D01*
X155769014Y-96490706D01*
X155995134Y-96305134D01*
X156180706Y-96079014D01*
X156210000Y-96024209D01*
X156239294Y-96079014D01*
X156424866Y-96305134D01*
X156650986Y-96490706D01*
X156908966Y-96628599D01*
X157188889Y-96713513D01*
X157407050Y-96735000D01*
X157552950Y-96735000D01*
X157771111Y-96713513D01*
X158051034Y-96628599D01*
X158309014Y-96490706D01*
X158535134Y-96305134D01*
X158720706Y-96079014D01*
X158858599Y-95821034D01*
X158943513Y-95541111D01*
X158972185Y-95250000D01*
X158943513Y-94958889D01*
X158858599Y-94678966D01*
X158720706Y-94420986D01*
X158535134Y-94194866D01*
X158505313Y-94170393D01*
X158574180Y-94149502D01*
X158684494Y-94090537D01*
X158781185Y-94011185D01*
X158860537Y-93914494D01*
X158919502Y-93804180D01*
X158955812Y-93684482D01*
X158968072Y-93560000D01*
X158965000Y-92995750D01*
X158806250Y-92837000D01*
X157607000Y-92837000D01*
X157607000Y-92857000D01*
X157353000Y-92857000D01*
X157353000Y-92837000D01*
X155067000Y-92837000D01*
X155067000Y-92857000D01*
X154813000Y-92857000D01*
X154813000Y-92837000D01*
X152527000Y-92837000D01*
X152527000Y-92857000D01*
X152273000Y-92857000D01*
X152273000Y-92837000D01*
X149987000Y-92837000D01*
X149987000Y-92857000D01*
X149733000Y-92857000D01*
X149733000Y-92837000D01*
X147447000Y-92837000D01*
X147447000Y-92857000D01*
X147193000Y-92857000D01*
X147193000Y-92837000D01*
X144907000Y-92837000D01*
X144907000Y-92857000D01*
X144653000Y-92857000D01*
X144653000Y-92837000D01*
X142367000Y-92837000D01*
X142367000Y-92857000D01*
X142113000Y-92857000D01*
X142113000Y-92837000D01*
X139827000Y-92837000D01*
X139827000Y-92857000D01*
X139573000Y-92857000D01*
X139573000Y-92837000D01*
X137287000Y-92837000D01*
X137287000Y-92857000D01*
X137033000Y-92857000D01*
X137033000Y-92837000D01*
X134747000Y-92837000D01*
X134747000Y-92857000D01*
X134493000Y-92857000D01*
X134493000Y-92837000D01*
X132207000Y-92837000D01*
X132207000Y-92857000D01*
X131953000Y-92857000D01*
X131953000Y-92837000D01*
X129667000Y-92837000D01*
X129667000Y-92857000D01*
X129413000Y-92857000D01*
X129413000Y-92837000D01*
X127127000Y-92837000D01*
X127127000Y-92857000D01*
X126873000Y-92857000D01*
X126873000Y-92837000D01*
X124587000Y-92837000D01*
X124587000Y-92857000D01*
X124333000Y-92857000D01*
X124333000Y-92837000D01*
X122047000Y-92837000D01*
X122047000Y-92857000D01*
X121793000Y-92857000D01*
X121793000Y-92837000D01*
X119507000Y-92837000D01*
X119507000Y-92857000D01*
X119253000Y-92857000D01*
X119253000Y-92837000D01*
X116967000Y-92837000D01*
X116967000Y-92857000D01*
X116713000Y-92857000D01*
X116713000Y-92837000D01*
X115519186Y-92837000D01*
X115398519Y-93066891D01*
X115495843Y-93341252D01*
X115644822Y-93591355D01*
X115839731Y-93807588D01*
X116068756Y-93978416D01*
X116010986Y-94009294D01*
X115784866Y-94194866D01*
X115599294Y-94420986D01*
X115461401Y-94678966D01*
X115376487Y-94958889D01*
X115347815Y-95250000D01*
X115376487Y-95541111D01*
X115461401Y-95821034D01*
X115599294Y-96079014D01*
X115784866Y-96305134D01*
X116010986Y-96490706D01*
X116080001Y-96527595D01*
X116080000Y-98260677D01*
X116076324Y-98298000D01*
X116080000Y-98335322D01*
X116080000Y-98335332D01*
X116090997Y-98446985D01*
X116132560Y-98584001D01*
X116134454Y-98590246D01*
X116205026Y-98722276D01*
X116242349Y-98767754D01*
X116299999Y-98838001D01*
X116329003Y-98861804D01*
X123700001Y-106232803D01*
X123700000Y-106896667D01*
X123700000Y-106896668D01*
X123700001Y-109212405D01*
X123630986Y-109249294D01*
X123404866Y-109434866D01*
X123219294Y-109660986D01*
X123190000Y-109715791D01*
X123160706Y-109660986D01*
X122975134Y-109434866D01*
X122749014Y-109249294D01*
X122491034Y-109111401D01*
X122211111Y-109026487D01*
X121992950Y-109005000D01*
X121847050Y-109005000D01*
X121628889Y-109026487D01*
X121348966Y-109111401D01*
X121090986Y-109249294D01*
X120864866Y-109434866D01*
X120679294Y-109660986D01*
X120650000Y-109715791D01*
X120620706Y-109660986D01*
X120435134Y-109434866D01*
X120209014Y-109249294D01*
X119951034Y-109111401D01*
X119671111Y-109026487D01*
X119452950Y-109005000D01*
X119307050Y-109005000D01*
X119088889Y-109026487D01*
X118808966Y-109111401D01*
X118550986Y-109249294D01*
X118324866Y-109434866D01*
X118139294Y-109660986D01*
X118110000Y-109715791D01*
X118080706Y-109660986D01*
X117895134Y-109434866D01*
X117669014Y-109249294D01*
X117411034Y-109111401D01*
X117131111Y-109026487D01*
X116912950Y-109005000D01*
X116767050Y-109005000D01*
X116548889Y-109026487D01*
X116268966Y-109111401D01*
X116010986Y-109249294D01*
X115892200Y-109346779D01*
X115892200Y-104652952D01*
X115897691Y-104597200D01*
X115875777Y-104374701D01*
X115810876Y-104160753D01*
X115705484Y-103963577D01*
X115563649Y-103790751D01*
X115520341Y-103755209D01*
X112601996Y-100836865D01*
X112566449Y-100793551D01*
X112393623Y-100651716D01*
X112196447Y-100546324D01*
X111982499Y-100481423D01*
X111815752Y-100465000D01*
X111815751Y-100465000D01*
X111760000Y-100459509D01*
X111704249Y-100465000D01*
X104610132Y-100465000D01*
X102735000Y-98589869D01*
X102735000Y-94127683D01*
X102804494Y-94090537D01*
X102901185Y-94011185D01*
X102980537Y-93914494D01*
X103039502Y-93804180D01*
X103063966Y-93723534D01*
X103139731Y-93807588D01*
X103373080Y-93981641D01*
X103635901Y-94106825D01*
X103783110Y-94151476D01*
X104013000Y-94030155D01*
X104013000Y-92837000D01*
X104267000Y-92837000D01*
X104267000Y-94030155D01*
X104496890Y-94151476D01*
X104644099Y-94106825D01*
X104906920Y-93981641D01*
X105140269Y-93807588D01*
X105335178Y-93591355D01*
X105410000Y-93465745D01*
X105484822Y-93591355D01*
X105679731Y-93807588D01*
X105913080Y-93981641D01*
X106175901Y-94106825D01*
X106323110Y-94151476D01*
X106553000Y-94030155D01*
X106553000Y-92837000D01*
X104267000Y-92837000D01*
X104013000Y-92837000D01*
X103993000Y-92837000D01*
X103993000Y-92583000D01*
X104013000Y-92583000D01*
X104013000Y-91389845D01*
X104267000Y-91389845D01*
X104267000Y-92583000D01*
X106553000Y-92583000D01*
X106553000Y-91389845D01*
X106807000Y-91389845D01*
X106807000Y-92583000D01*
X106827000Y-92583000D01*
X106827000Y-92837000D01*
X106807000Y-92837000D01*
X106807000Y-94030155D01*
X107036890Y-94151476D01*
X107184099Y-94106825D01*
X107446920Y-93981641D01*
X107680269Y-93807588D01*
X107875178Y-93591355D01*
X107944799Y-93474477D01*
X107979294Y-93539014D01*
X108164866Y-93765134D01*
X108390986Y-93950706D01*
X108648966Y-94088599D01*
X108928889Y-94173513D01*
X109147050Y-94195000D01*
X109292950Y-94195000D01*
X109511111Y-94173513D01*
X109791034Y-94088599D01*
X110049014Y-93950706D01*
X110275134Y-93765134D01*
X110460706Y-93539014D01*
X110598599Y-93281034D01*
X110683513Y-93001111D01*
X110712185Y-92710000D01*
X110683513Y-92418889D01*
X110663559Y-92353109D01*
X115398519Y-92353109D01*
X115519186Y-92583000D01*
X116713000Y-92583000D01*
X116713000Y-91389845D01*
X116967000Y-91389845D01*
X116967000Y-92583000D01*
X119253000Y-92583000D01*
X119253000Y-91389845D01*
X119507000Y-91389845D01*
X119507000Y-92583000D01*
X121793000Y-92583000D01*
X121793000Y-91389845D01*
X122047000Y-91389845D01*
X122047000Y-92583000D01*
X124333000Y-92583000D01*
X124333000Y-91389845D01*
X124587000Y-91389845D01*
X124587000Y-92583000D01*
X126873000Y-92583000D01*
X126873000Y-91389845D01*
X127127000Y-91389845D01*
X127127000Y-92583000D01*
X129413000Y-92583000D01*
X129413000Y-91389845D01*
X129667000Y-91389845D01*
X129667000Y-92583000D01*
X131953000Y-92583000D01*
X131953000Y-91389845D01*
X132207000Y-91389845D01*
X132207000Y-92583000D01*
X134493000Y-92583000D01*
X134493000Y-91389845D01*
X134747000Y-91389845D01*
X134747000Y-92583000D01*
X137033000Y-92583000D01*
X137033000Y-91389845D01*
X137287000Y-91389845D01*
X137287000Y-92583000D01*
X139573000Y-92583000D01*
X139573000Y-91389845D01*
X139827000Y-91389845D01*
X139827000Y-92583000D01*
X142113000Y-92583000D01*
X142113000Y-91389845D01*
X142367000Y-91389845D01*
X142367000Y-92583000D01*
X144653000Y-92583000D01*
X144653000Y-91389845D01*
X144907000Y-91389845D01*
X144907000Y-92583000D01*
X147193000Y-92583000D01*
X147193000Y-91389845D01*
X147447000Y-91389845D01*
X147447000Y-92583000D01*
X149733000Y-92583000D01*
X149733000Y-91389845D01*
X149987000Y-91389845D01*
X149987000Y-92583000D01*
X152273000Y-92583000D01*
X152273000Y-91389845D01*
X152527000Y-91389845D01*
X152527000Y-92583000D01*
X154813000Y-92583000D01*
X154813000Y-91389845D01*
X155067000Y-91389845D01*
X155067000Y-92583000D01*
X157353000Y-92583000D01*
X157353000Y-91383750D01*
X157607000Y-91383750D01*
X157607000Y-92583000D01*
X158806250Y-92583000D01*
X158965000Y-92424250D01*
X158968072Y-91860000D01*
X158955812Y-91735518D01*
X158919502Y-91615820D01*
X158860537Y-91505506D01*
X158781185Y-91408815D01*
X158684494Y-91329463D01*
X158574180Y-91270498D01*
X158454482Y-91234188D01*
X158330000Y-91221928D01*
X157765750Y-91225000D01*
X157607000Y-91383750D01*
X157353000Y-91383750D01*
X157194250Y-91225000D01*
X156630000Y-91221928D01*
X156505518Y-91234188D01*
X156385820Y-91270498D01*
X156275506Y-91329463D01*
X156178815Y-91408815D01*
X156099463Y-91505506D01*
X156040498Y-91615820D01*
X156016034Y-91696466D01*
X155940269Y-91612412D01*
X155706920Y-91438359D01*
X155444099Y-91313175D01*
X155296890Y-91268524D01*
X155067000Y-91389845D01*
X154813000Y-91389845D01*
X154583110Y-91268524D01*
X154435901Y-91313175D01*
X154173080Y-91438359D01*
X153939731Y-91612412D01*
X153744822Y-91828645D01*
X153670000Y-91954255D01*
X153595178Y-91828645D01*
X153400269Y-91612412D01*
X153166920Y-91438359D01*
X152904099Y-91313175D01*
X152756890Y-91268524D01*
X152527000Y-91389845D01*
X152273000Y-91389845D01*
X152043110Y-91268524D01*
X151895901Y-91313175D01*
X151633080Y-91438359D01*
X151399731Y-91612412D01*
X151204822Y-91828645D01*
X151130000Y-91954255D01*
X151055178Y-91828645D01*
X150860269Y-91612412D01*
X150626920Y-91438359D01*
X150364099Y-91313175D01*
X150216890Y-91268524D01*
X149987000Y-91389845D01*
X149733000Y-91389845D01*
X149503110Y-91268524D01*
X149355901Y-91313175D01*
X149093080Y-91438359D01*
X148859731Y-91612412D01*
X148664822Y-91828645D01*
X148590000Y-91954255D01*
X148515178Y-91828645D01*
X148320269Y-91612412D01*
X148086920Y-91438359D01*
X147824099Y-91313175D01*
X147676890Y-91268524D01*
X147447000Y-91389845D01*
X147193000Y-91389845D01*
X146963110Y-91268524D01*
X146815901Y-91313175D01*
X146553080Y-91438359D01*
X146319731Y-91612412D01*
X146124822Y-91828645D01*
X146050000Y-91954255D01*
X145975178Y-91828645D01*
X145780269Y-91612412D01*
X145546920Y-91438359D01*
X145284099Y-91313175D01*
X145136890Y-91268524D01*
X144907000Y-91389845D01*
X144653000Y-91389845D01*
X144423110Y-91268524D01*
X144275901Y-91313175D01*
X144013080Y-91438359D01*
X143779731Y-91612412D01*
X143584822Y-91828645D01*
X143510000Y-91954255D01*
X143435178Y-91828645D01*
X143240269Y-91612412D01*
X143006920Y-91438359D01*
X142744099Y-91313175D01*
X142596890Y-91268524D01*
X142367000Y-91389845D01*
X142113000Y-91389845D01*
X141883110Y-91268524D01*
X141735901Y-91313175D01*
X141473080Y-91438359D01*
X141239731Y-91612412D01*
X141044822Y-91828645D01*
X140970000Y-91954255D01*
X140895178Y-91828645D01*
X140700269Y-91612412D01*
X140466920Y-91438359D01*
X140204099Y-91313175D01*
X140056890Y-91268524D01*
X139827000Y-91389845D01*
X139573000Y-91389845D01*
X139343110Y-91268524D01*
X139195901Y-91313175D01*
X138933080Y-91438359D01*
X138699731Y-91612412D01*
X138504822Y-91828645D01*
X138430000Y-91954255D01*
X138355178Y-91828645D01*
X138160269Y-91612412D01*
X137926920Y-91438359D01*
X137664099Y-91313175D01*
X137516890Y-91268524D01*
X137287000Y-91389845D01*
X137033000Y-91389845D01*
X136803110Y-91268524D01*
X136655901Y-91313175D01*
X136393080Y-91438359D01*
X136159731Y-91612412D01*
X135964822Y-91828645D01*
X135890000Y-91954255D01*
X135815178Y-91828645D01*
X135620269Y-91612412D01*
X135386920Y-91438359D01*
X135124099Y-91313175D01*
X134976890Y-91268524D01*
X134747000Y-91389845D01*
X134493000Y-91389845D01*
X134263110Y-91268524D01*
X134115901Y-91313175D01*
X133853080Y-91438359D01*
X133619731Y-91612412D01*
X133424822Y-91828645D01*
X133350000Y-91954255D01*
X133275178Y-91828645D01*
X133080269Y-91612412D01*
X132846920Y-91438359D01*
X132584099Y-91313175D01*
X132436890Y-91268524D01*
X132207000Y-91389845D01*
X131953000Y-91389845D01*
X131723110Y-91268524D01*
X131575901Y-91313175D01*
X131313080Y-91438359D01*
X131079731Y-91612412D01*
X130884822Y-91828645D01*
X130810000Y-91954255D01*
X130735178Y-91828645D01*
X130540269Y-91612412D01*
X130306920Y-91438359D01*
X130044099Y-91313175D01*
X129896890Y-91268524D01*
X129667000Y-91389845D01*
X129413000Y-91389845D01*
X129183110Y-91268524D01*
X129035901Y-91313175D01*
X128773080Y-91438359D01*
X128539731Y-91612412D01*
X128344822Y-91828645D01*
X128270000Y-91954255D01*
X128195178Y-91828645D01*
X128000269Y-91612412D01*
X127766920Y-91438359D01*
X127504099Y-91313175D01*
X127356890Y-91268524D01*
X127127000Y-91389845D01*
X126873000Y-91389845D01*
X126643110Y-91268524D01*
X126495901Y-91313175D01*
X126233080Y-91438359D01*
X125999731Y-91612412D01*
X125804822Y-91828645D01*
X125730000Y-91954255D01*
X125655178Y-91828645D01*
X125460269Y-91612412D01*
X125226920Y-91438359D01*
X124964099Y-91313175D01*
X124816890Y-91268524D01*
X124587000Y-91389845D01*
X124333000Y-91389845D01*
X124103110Y-91268524D01*
X123955901Y-91313175D01*
X123693080Y-91438359D01*
X123459731Y-91612412D01*
X123264822Y-91828645D01*
X123190000Y-91954255D01*
X123115178Y-91828645D01*
X122920269Y-91612412D01*
X122686920Y-91438359D01*
X122424099Y-91313175D01*
X122276890Y-91268524D01*
X122047000Y-91389845D01*
X121793000Y-91389845D01*
X121563110Y-91268524D01*
X121415901Y-91313175D01*
X121153080Y-91438359D01*
X120919731Y-91612412D01*
X120724822Y-91828645D01*
X120650000Y-91954255D01*
X120575178Y-91828645D01*
X120380269Y-91612412D01*
X120146920Y-91438359D01*
X119884099Y-91313175D01*
X119736890Y-91268524D01*
X119507000Y-91389845D01*
X119253000Y-91389845D01*
X119023110Y-91268524D01*
X118875901Y-91313175D01*
X118613080Y-91438359D01*
X118379731Y-91612412D01*
X118184822Y-91828645D01*
X118110000Y-91954255D01*
X118035178Y-91828645D01*
X117840269Y-91612412D01*
X117606920Y-91438359D01*
X117344099Y-91313175D01*
X117196890Y-91268524D01*
X116967000Y-91389845D01*
X116713000Y-91389845D01*
X116483110Y-91268524D01*
X116335901Y-91313175D01*
X116073080Y-91438359D01*
X115839731Y-91612412D01*
X115644822Y-91828645D01*
X115495843Y-92078748D01*
X115398519Y-92353109D01*
X110663559Y-92353109D01*
X110598599Y-92138966D01*
X110460706Y-91880986D01*
X110275134Y-91654866D01*
X110049014Y-91469294D01*
X109791034Y-91331401D01*
X109511111Y-91246487D01*
X109292950Y-91225000D01*
X109147050Y-91225000D01*
X108928889Y-91246487D01*
X108648966Y-91331401D01*
X108390986Y-91469294D01*
X108164866Y-91654866D01*
X107979294Y-91880986D01*
X107944799Y-91945523D01*
X107875178Y-91828645D01*
X107680269Y-91612412D01*
X107446920Y-91438359D01*
X107184099Y-91313175D01*
X107036890Y-91268524D01*
X106807000Y-91389845D01*
X106553000Y-91389845D01*
X106323110Y-91268524D01*
X106175901Y-91313175D01*
X105913080Y-91438359D01*
X105679731Y-91612412D01*
X105484822Y-91828645D01*
X105410000Y-91954255D01*
X105335178Y-91828645D01*
X105140269Y-91612412D01*
X104906920Y-91438359D01*
X104644099Y-91313175D01*
X104496890Y-91268524D01*
X104267000Y-91389845D01*
X104013000Y-91389845D01*
X103783110Y-91268524D01*
X103635901Y-91313175D01*
X103373080Y-91438359D01*
X103139731Y-91612412D01*
X103063966Y-91696466D01*
X103039502Y-91615820D01*
X102980537Y-91505506D01*
X102901185Y-91408815D01*
X102804494Y-91329463D01*
X102694180Y-91270498D01*
X102574482Y-91234188D01*
X102450000Y-91221928D01*
X100750000Y-91221928D01*
X100625518Y-91234188D01*
X100505820Y-91270498D01*
X100395506Y-91329463D01*
X100298815Y-91408815D01*
X100219463Y-91505506D01*
X100160498Y-91615820D01*
X100124188Y-91735518D01*
X100111928Y-91860000D01*
X100111928Y-93560000D01*
X100124188Y-93684482D01*
X100160498Y-93804180D01*
X100219463Y-93914494D01*
X100298815Y-94011185D01*
X100395506Y-94090537D01*
X100465000Y-94127683D01*
X100465001Y-99004239D01*
X100459509Y-99060000D01*
X100481423Y-99282498D01*
X100546324Y-99496446D01*
X100585466Y-99569676D01*
X100651717Y-99693623D01*
X100793552Y-99866449D01*
X100836860Y-99901991D01*
X103298009Y-102363141D01*
X103333551Y-102406449D01*
X103506377Y-102548284D01*
X103703553Y-102653676D01*
X103917501Y-102718577D01*
X104084248Y-102735000D01*
X104084257Y-102735000D01*
X104139999Y-102740490D01*
X104195741Y-102735000D01*
X111289869Y-102735000D01*
X113622200Y-105067332D01*
X113622201Y-109174486D01*
X113614012Y-109162346D01*
X113581240Y-109112265D01*
X113575416Y-109105124D01*
X113417423Y-108914144D01*
X113374988Y-108872005D01*
X113333125Y-108829255D01*
X113326024Y-108823381D01*
X113133946Y-108666727D01*
X113084169Y-108633655D01*
X113034763Y-108599826D01*
X113026657Y-108595444D01*
X112807809Y-108479081D01*
X112752532Y-108456298D01*
X112697525Y-108432721D01*
X112688722Y-108429997D01*
X112451441Y-108358357D01*
X112392754Y-108346736D01*
X112334248Y-108334300D01*
X112325085Y-108333337D01*
X112325083Y-108333337D01*
X112078405Y-108309150D01*
X112078402Y-108309150D01*
X112046419Y-108306000D01*
X99092279Y-108306000D01*
X98942131Y-108291278D01*
X98828754Y-108257047D01*
X98724183Y-108201446D01*
X98632405Y-108126594D01*
X98556909Y-108035335D01*
X98500581Y-107931160D01*
X98465560Y-107818024D01*
X98450000Y-107669979D01*
X98450000Y-83852279D01*
X98464722Y-83702131D01*
X98498953Y-83588754D01*
X98554555Y-83484181D01*
X98629407Y-83392404D01*
X98720664Y-83316909D01*
X98824844Y-83260581D01*
X98937976Y-83225560D01*
X99086022Y-83210000D01*
X133317721Y-83210000D01*
X133467869Y-83224722D01*
X133581246Y-83258953D01*
X133685819Y-83314555D01*
X133777596Y-83389407D01*
X133853091Y-83480664D01*
X133909419Y-83584844D01*
X133944440Y-83697976D01*
X133960001Y-83846031D01*
X133960000Y-88613581D01*
X133956807Y-88646000D01*
X133969550Y-88775383D01*
X134007290Y-88899793D01*
X134068575Y-89014450D01*
X134151052Y-89114948D01*
X134251550Y-89197425D01*
X134366207Y-89258710D01*
X134490617Y-89296450D01*
X134620000Y-89309193D01*
X134652419Y-89306000D01*
X139667581Y-89306000D01*
X139700000Y-89309193D01*
X139732419Y-89306000D01*
X139829383Y-89296450D01*
X139953793Y-89258710D01*
X140068450Y-89197425D01*
X140168948Y-89114948D01*
X140251425Y-89014450D01*
X140312710Y-88899793D01*
X140350450Y-88775383D01*
X140363193Y-88646000D01*
X140360000Y-88613581D01*
X140360000Y-83598279D01*
X140374722Y-83448131D01*
X140408953Y-83334754D01*
X140464555Y-83230181D01*
X140539407Y-83138404D01*
X140630664Y-83062909D01*
X140734844Y-83006581D01*
X140847976Y-82971560D01*
X140996022Y-82956000D01*
X161765721Y-82956000D01*
X161915869Y-82970722D01*
X161915869Y-82970722D01*
G37*
X161915869Y-82970722D02*
X162029246Y-83004953D01*
X162133819Y-83060555D01*
X162225596Y-83135407D01*
X162301091Y-83226664D01*
X162357419Y-83330844D01*
X162392440Y-83443976D01*
X162408000Y-83592022D01*
X162408001Y-107663711D01*
X162393278Y-107813869D01*
X162359047Y-107927246D01*
X162303446Y-108031817D01*
X162228594Y-108123595D01*
X162137335Y-108199091D01*
X162033160Y-108255419D01*
X161920024Y-108290440D01*
X161771979Y-108306000D01*
X152367581Y-108306000D01*
X152339135Y-108308802D01*
X152331318Y-108308747D01*
X152322147Y-108309646D01*
X152075644Y-108335554D01*
X152017028Y-108347586D01*
X151958284Y-108358792D01*
X151949462Y-108361456D01*
X151712686Y-108434751D01*
X151657555Y-108457926D01*
X151602080Y-108480339D01*
X151593944Y-108484666D01*
X151375914Y-108602554D01*
X151326346Y-108635988D01*
X151276265Y-108668760D01*
X151269124Y-108674584D01*
X151078144Y-108832577D01*
X151036005Y-108875012D01*
X150993255Y-108916875D01*
X150987381Y-108923976D01*
X150830727Y-109116054D01*
X150797655Y-109165831D01*
X150763826Y-109215237D01*
X150759444Y-109223343D01*
X150643081Y-109442191D01*
X150620298Y-109497468D01*
X150596721Y-109552475D01*
X150593997Y-109561278D01*
X150522357Y-109798559D01*
X150510736Y-109857246D01*
X150498300Y-109915752D01*
X150497337Y-109924917D01*
X150473150Y-110171595D01*
X150473150Y-110171608D01*
X150470001Y-110203581D01*
X150470000Y-113251721D01*
X150455278Y-113401869D01*
X150421047Y-113515246D01*
X150365446Y-113619817D01*
X150290594Y-113711595D01*
X150199335Y-113787091D01*
X150095160Y-113843419D01*
X149982024Y-113878440D01*
X149833979Y-113894000D01*
X148525516Y-113894000D01*
X148664157Y-113661252D01*
X148761481Y-113386891D01*
X148640814Y-113157000D01*
X147447000Y-113157000D01*
X147447000Y-113177000D01*
X147193000Y-113177000D01*
X147193000Y-113157000D01*
X144907000Y-113157000D01*
X144907000Y-113177000D01*
X144653000Y-113177000D01*
X144653000Y-113157000D01*
X142367000Y-113157000D01*
X142367000Y-113177000D01*
X142113000Y-113177000D01*
X142113000Y-113157000D01*
X139827000Y-113157000D01*
X139827000Y-113177000D01*
X139573000Y-113177000D01*
X139573000Y-113157000D01*
X137287000Y-113157000D01*
X137287000Y-113177000D01*
X137033000Y-113177000D01*
X137033000Y-113157000D01*
X134747000Y-113157000D01*
X134747000Y-113177000D01*
X134493000Y-113177000D01*
X134493000Y-113157000D01*
X132207000Y-113157000D01*
X132207000Y-113177000D01*
X131953000Y-113177000D01*
X131953000Y-113157000D01*
X131933000Y-113157000D01*
X131933000Y-112903000D01*
X131953000Y-112903000D01*
X131953000Y-112883000D01*
X132207000Y-112883000D01*
X132207000Y-112903000D01*
X134493000Y-112903000D01*
X134493000Y-112883000D01*
X134747000Y-112883000D01*
X134747000Y-112903000D01*
X137033000Y-112903000D01*
X137033000Y-112883000D01*
X137287000Y-112883000D01*
X137287000Y-112903000D01*
X139573000Y-112903000D01*
X139573000Y-112883000D01*
X139827000Y-112883000D01*
X139827000Y-112903000D01*
X142113000Y-112903000D01*
X142113000Y-112883000D01*
X142367000Y-112883000D01*
X142367000Y-112903000D01*
X144653000Y-112903000D01*
X144653000Y-112883000D01*
X144907000Y-112883000D01*
X144907000Y-112903000D01*
X147193000Y-112903000D01*
X147193000Y-112883000D01*
X147447000Y-112883000D01*
X147447000Y-112903000D01*
X148640814Y-112903000D01*
X148761481Y-112673109D01*
X148664157Y-112398748D01*
X148515178Y-112148645D01*
X148320269Y-111932412D01*
X148091244Y-111761584D01*
X148149014Y-111730706D01*
X148375134Y-111545134D01*
X148560706Y-111319014D01*
X148698599Y-111061034D01*
X148783513Y-110781111D01*
X148812185Y-110490000D01*
X148783513Y-110198889D01*
X148698599Y-109918966D01*
X148560706Y-109660986D01*
X148375134Y-109434866D01*
X148149014Y-109249294D01*
X147891034Y-109111401D01*
X147611111Y-109026487D01*
X147392950Y-109005000D01*
X147247050Y-109005000D01*
X147028889Y-109026487D01*
X146748966Y-109111401D01*
X146490986Y-109249294D01*
X146264866Y-109434866D01*
X146079294Y-109660986D01*
X146050000Y-109715791D01*
X146020706Y-109660986D01*
X145835134Y-109434866D01*
X145609014Y-109249294D01*
X145540000Y-109212405D01*
X145540000Y-107225322D01*
X145543676Y-107188000D01*
X145540000Y-107150677D01*
X145540000Y-107150667D01*
X145529003Y-107039014D01*
X145485546Y-106895753D01*
X145438092Y-106806974D01*
X145414974Y-106763723D01*
X145343799Y-106676997D01*
X145320001Y-106647999D01*
X145291003Y-106624201D01*
X144327804Y-105661002D01*
X144304001Y-105631999D01*
X144188276Y-105537026D01*
X144056247Y-105466454D01*
X143912986Y-105422997D01*
X143801333Y-105412000D01*
X143801322Y-105412000D01*
X143764000Y-105408324D01*
X143726678Y-105412000D01*
X129346802Y-105412000D01*
X122680000Y-98745199D01*
X122680000Y-96527595D01*
X122749014Y-96490706D01*
X122975134Y-96305134D01*
X123160706Y-96079014D01*
X123190000Y-96024209D01*
X123219294Y-96079014D01*
X123404866Y-96305134D01*
X123630986Y-96490706D01*
X123888966Y-96628599D01*
X124168889Y-96713513D01*
X124387050Y-96735000D01*
X124532950Y-96735000D01*
X124751111Y-96713513D01*
X125031034Y-96628599D01*
X125289014Y-96490706D01*
X125515134Y-96305134D01*
X125700706Y-96079014D01*
X125730000Y-96024209D01*
X125759294Y-96079014D01*
X125944866Y-96305134D01*
X126170986Y-96490706D01*
X126428966Y-96628599D01*
X126708889Y-96713513D01*
X126927050Y-96735000D01*
X127072950Y-96735000D01*
X127291111Y-96713513D01*
X127571034Y-96628599D01*
X127829014Y-96490706D01*
X128055134Y-96305134D01*
X128240706Y-96079014D01*
X128270000Y-96024209D01*
X128299294Y-96079014D01*
X128484866Y-96305134D01*
X128710986Y-96490706D01*
X128968966Y-96628599D01*
X129248889Y-96713513D01*
X129467050Y-96735000D01*
X129612950Y-96735000D01*
X129831111Y-96713513D01*
X130111034Y-96628599D01*
X130369014Y-96490706D01*
X130595134Y-96305134D01*
X130780706Y-96079014D01*
X130810000Y-96024209D01*
X130839294Y-96079014D01*
X131024866Y-96305134D01*
X131250986Y-96490706D01*
X131508966Y-96628599D01*
X131788889Y-96713513D01*
X132007050Y-96735000D01*
X132152950Y-96735000D01*
X132371111Y-96713513D01*
X132651034Y-96628599D01*
X132909014Y-96490706D01*
X133135134Y-96305134D01*
X133320706Y-96079014D01*
X133350000Y-96024209D01*
X133379294Y-96079014D01*
X133564866Y-96305134D01*
X133790986Y-96490706D01*
X134048966Y-96628599D01*
X134328889Y-96713513D01*
X134547050Y-96735000D01*
X134692950Y-96735000D01*
X134911111Y-96713513D01*
X135191034Y-96628599D01*
X135449014Y-96490706D01*
X135675134Y-96305134D01*
X135860706Y-96079014D01*
X135890000Y-96024209D01*
X135919294Y-96079014D01*
X136104866Y-96305134D01*
X136330986Y-96490706D01*
X136588966Y-96628599D01*
X136868889Y-96713513D01*
X137087050Y-96735000D01*
X137232950Y-96735000D01*
X137451111Y-96713513D01*
X137731034Y-96628599D01*
X137989014Y-96490706D01*
X138215134Y-96305134D01*
X138400706Y-96079014D01*
X138430000Y-96024209D01*
X138459294Y-96079014D01*
X138644866Y-96305134D01*
X138870986Y-96490706D01*
X138940000Y-96527595D01*
X138940001Y-98006668D01*
X138936324Y-98044000D01*
X138940001Y-98081332D01*
X138940001Y-98081333D01*
X138950998Y-98192986D01*
X138964180Y-98236442D01*
X138994454Y-98336246D01*
X139065026Y-98468276D01*
X139133737Y-98552000D01*
X139160000Y-98584001D01*
X139188998Y-98607799D01*
X139898201Y-99317002D01*
X139921999Y-99346001D01*
X140037724Y-99440974D01*
X140169753Y-99511546D01*
X140313014Y-99555003D01*
X140424667Y-99566000D01*
X140424675Y-99566000D01*
X140462000Y-99569676D01*
X140499325Y-99566000D01*
X154140678Y-99566000D01*
X154178000Y-99569676D01*
X154215322Y-99566000D01*
X154215333Y-99566000D01*
X154326986Y-99555003D01*
X154470247Y-99511546D01*
X154602276Y-99440974D01*
X154718001Y-99346001D01*
X154741803Y-99316998D01*
X155451004Y-98607798D01*
X155480001Y-98584001D01*
X155574974Y-98468276D01*
X155645546Y-98336247D01*
X155689003Y-98192986D01*
X155700000Y-98081333D01*
X155700000Y-98081325D01*
X155703676Y-98044000D01*
X155700000Y-98006675D01*
X155700000Y-96527595D01*
X155769014Y-96490706D01*
X155995134Y-96305134D01*
X156180706Y-96079014D01*
X156210000Y-96024209D01*
X156239294Y-96079014D01*
X156424866Y-96305134D01*
X156650986Y-96490706D01*
X156908966Y-96628599D01*
X157188889Y-96713513D01*
X157407050Y-96735000D01*
X157552950Y-96735000D01*
X157771111Y-96713513D01*
X158051034Y-96628599D01*
X158309014Y-96490706D01*
X158535134Y-96305134D01*
X158720706Y-96079014D01*
X158858599Y-95821034D01*
X158943513Y-95541111D01*
X158972185Y-95250000D01*
X158943513Y-94958889D01*
X158858599Y-94678966D01*
X158720706Y-94420986D01*
X158535134Y-94194866D01*
X158505313Y-94170393D01*
X158574180Y-94149502D01*
X158684494Y-94090537D01*
X158781185Y-94011185D01*
X158860537Y-93914494D01*
X158919502Y-93804180D01*
X158955812Y-93684482D01*
X158968072Y-93560000D01*
X158965000Y-92995750D01*
X158806250Y-92837000D01*
X157607000Y-92837000D01*
X157607000Y-92857000D01*
X157353000Y-92857000D01*
X157353000Y-92837000D01*
X155067000Y-92837000D01*
X155067000Y-92857000D01*
X154813000Y-92857000D01*
X154813000Y-92837000D01*
X152527000Y-92837000D01*
X152527000Y-92857000D01*
X152273000Y-92857000D01*
X152273000Y-92837000D01*
X149987000Y-92837000D01*
X149987000Y-92857000D01*
X149733000Y-92857000D01*
X149733000Y-92837000D01*
X147447000Y-92837000D01*
X147447000Y-92857000D01*
X147193000Y-92857000D01*
X147193000Y-92837000D01*
X144907000Y-92837000D01*
X144907000Y-92857000D01*
X144653000Y-92857000D01*
X144653000Y-92837000D01*
X142367000Y-92837000D01*
X142367000Y-92857000D01*
X142113000Y-92857000D01*
X142113000Y-92837000D01*
X139827000Y-92837000D01*
X139827000Y-92857000D01*
X139573000Y-92857000D01*
X139573000Y-92837000D01*
X137287000Y-92837000D01*
X137287000Y-92857000D01*
X137033000Y-92857000D01*
X137033000Y-92837000D01*
X134747000Y-92837000D01*
X134747000Y-92857000D01*
X134493000Y-92857000D01*
X134493000Y-92837000D01*
X132207000Y-92837000D01*
X132207000Y-92857000D01*
X131953000Y-92857000D01*
X131953000Y-92837000D01*
X129667000Y-92837000D01*
X129667000Y-92857000D01*
X129413000Y-92857000D01*
X129413000Y-92837000D01*
X127127000Y-92837000D01*
X127127000Y-92857000D01*
X126873000Y-92857000D01*
X126873000Y-92837000D01*
X124587000Y-92837000D01*
X124587000Y-92857000D01*
X124333000Y-92857000D01*
X124333000Y-92837000D01*
X122047000Y-92837000D01*
X122047000Y-92857000D01*
X121793000Y-92857000D01*
X121793000Y-92837000D01*
X119507000Y-92837000D01*
X119507000Y-92857000D01*
X119253000Y-92857000D01*
X119253000Y-92837000D01*
X116967000Y-92837000D01*
X116967000Y-92857000D01*
X116713000Y-92857000D01*
X116713000Y-92837000D01*
X115519186Y-92837000D01*
X115398519Y-93066891D01*
X115495843Y-93341252D01*
X115644822Y-93591355D01*
X115839731Y-93807588D01*
X116068756Y-93978416D01*
X116010986Y-94009294D01*
X115784866Y-94194866D01*
X115599294Y-94420986D01*
X115461401Y-94678966D01*
X115376487Y-94958889D01*
X115347815Y-95250000D01*
X115376487Y-95541111D01*
X115461401Y-95821034D01*
X115599294Y-96079014D01*
X115784866Y-96305134D01*
X116010986Y-96490706D01*
X116080001Y-96527595D01*
X116080000Y-98260677D01*
X116076324Y-98298000D01*
X116080000Y-98335322D01*
X116080000Y-98335332D01*
X116090997Y-98446985D01*
X116132560Y-98584001D01*
X116134454Y-98590246D01*
X116205026Y-98722276D01*
X116242349Y-98767754D01*
X116299999Y-98838001D01*
X116329003Y-98861804D01*
X123700001Y-106232803D01*
X123700000Y-106896667D01*
X123700000Y-106896668D01*
X123700001Y-109212405D01*
X123630986Y-109249294D01*
X123404866Y-109434866D01*
X123219294Y-109660986D01*
X123190000Y-109715791D01*
X123160706Y-109660986D01*
X122975134Y-109434866D01*
X122749014Y-109249294D01*
X122491034Y-109111401D01*
X122211111Y-109026487D01*
X121992950Y-109005000D01*
X121847050Y-109005000D01*
X121628889Y-109026487D01*
X121348966Y-109111401D01*
X121090986Y-109249294D01*
X120864866Y-109434866D01*
X120679294Y-109660986D01*
X120650000Y-109715791D01*
X120620706Y-109660986D01*
X120435134Y-109434866D01*
X120209014Y-109249294D01*
X119951034Y-109111401D01*
X119671111Y-109026487D01*
X119452950Y-109005000D01*
X119307050Y-109005000D01*
X119088889Y-109026487D01*
X118808966Y-109111401D01*
X118550986Y-109249294D01*
X118324866Y-109434866D01*
X118139294Y-109660986D01*
X118110000Y-109715791D01*
X118080706Y-109660986D01*
X117895134Y-109434866D01*
X117669014Y-109249294D01*
X117411034Y-109111401D01*
X117131111Y-109026487D01*
X116912950Y-109005000D01*
X116767050Y-109005000D01*
X116548889Y-109026487D01*
X116268966Y-109111401D01*
X116010986Y-109249294D01*
X115892200Y-109346779D01*
X115892200Y-104652952D01*
X115897691Y-104597200D01*
X115875777Y-104374701D01*
X115810876Y-104160753D01*
X115705484Y-103963577D01*
X115563649Y-103790751D01*
X115520341Y-103755209D01*
X112601996Y-100836865D01*
X112566449Y-100793551D01*
X112393623Y-100651716D01*
X112196447Y-100546324D01*
X111982499Y-100481423D01*
X111815752Y-100465000D01*
X111815751Y-100465000D01*
X111760000Y-100459509D01*
X111704249Y-100465000D01*
X104610132Y-100465000D01*
X102735000Y-98589869D01*
X102735000Y-94127683D01*
X102804494Y-94090537D01*
X102901185Y-94011185D01*
X102980537Y-93914494D01*
X103039502Y-93804180D01*
X103063966Y-93723534D01*
X103139731Y-93807588D01*
X103373080Y-93981641D01*
X103635901Y-94106825D01*
X103783110Y-94151476D01*
X104013000Y-94030155D01*
X104013000Y-92837000D01*
X104267000Y-92837000D01*
X104267000Y-94030155D01*
X104496890Y-94151476D01*
X104644099Y-94106825D01*
X104906920Y-93981641D01*
X105140269Y-93807588D01*
X105335178Y-93591355D01*
X105410000Y-93465745D01*
X105484822Y-93591355D01*
X105679731Y-93807588D01*
X105913080Y-93981641D01*
X106175901Y-94106825D01*
X106323110Y-94151476D01*
X106553000Y-94030155D01*
X106553000Y-92837000D01*
X104267000Y-92837000D01*
X104013000Y-92837000D01*
X103993000Y-92837000D01*
X103993000Y-92583000D01*
X104013000Y-92583000D01*
X104013000Y-91389845D01*
X104267000Y-91389845D01*
X104267000Y-92583000D01*
X106553000Y-92583000D01*
X106553000Y-91389845D01*
X106807000Y-91389845D01*
X106807000Y-92583000D01*
X106827000Y-92583000D01*
X106827000Y-92837000D01*
X106807000Y-92837000D01*
X106807000Y-94030155D01*
X107036890Y-94151476D01*
X107184099Y-94106825D01*
X107446920Y-93981641D01*
X107680269Y-93807588D01*
X107875178Y-93591355D01*
X107944799Y-93474477D01*
X107979294Y-93539014D01*
X108164866Y-93765134D01*
X108390986Y-93950706D01*
X108648966Y-94088599D01*
X108928889Y-94173513D01*
X109147050Y-94195000D01*
X109292950Y-94195000D01*
X109511111Y-94173513D01*
X109791034Y-94088599D01*
X110049014Y-93950706D01*
X110275134Y-93765134D01*
X110460706Y-93539014D01*
X110598599Y-93281034D01*
X110683513Y-93001111D01*
X110712185Y-92710000D01*
X110683513Y-92418889D01*
X110663559Y-92353109D01*
X115398519Y-92353109D01*
X115519186Y-92583000D01*
X116713000Y-92583000D01*
X116713000Y-91389845D01*
X116967000Y-91389845D01*
X116967000Y-92583000D01*
X119253000Y-92583000D01*
X119253000Y-91389845D01*
X119507000Y-91389845D01*
X119507000Y-92583000D01*
X121793000Y-92583000D01*
X121793000Y-91389845D01*
X122047000Y-91389845D01*
X122047000Y-92583000D01*
X124333000Y-92583000D01*
X124333000Y-91389845D01*
X124587000Y-91389845D01*
X124587000Y-92583000D01*
X126873000Y-92583000D01*
X126873000Y-91389845D01*
X127127000Y-91389845D01*
X127127000Y-92583000D01*
X129413000Y-92583000D01*
X129413000Y-91389845D01*
X129667000Y-91389845D01*
X129667000Y-92583000D01*
X131953000Y-92583000D01*
X131953000Y-91389845D01*
X132207000Y-91389845D01*
X132207000Y-92583000D01*
X134493000Y-92583000D01*
X134493000Y-91389845D01*
X134747000Y-91389845D01*
X134747000Y-92583000D01*
X137033000Y-92583000D01*
X137033000Y-91389845D01*
X137287000Y-91389845D01*
X137287000Y-92583000D01*
X139573000Y-92583000D01*
X139573000Y-91389845D01*
X139827000Y-91389845D01*
X139827000Y-92583000D01*
X142113000Y-92583000D01*
X142113000Y-91389845D01*
X142367000Y-91389845D01*
X142367000Y-92583000D01*
X144653000Y-92583000D01*
X144653000Y-91389845D01*
X144907000Y-91389845D01*
X144907000Y-92583000D01*
X147193000Y-92583000D01*
X147193000Y-91389845D01*
X147447000Y-91389845D01*
X147447000Y-92583000D01*
X149733000Y-92583000D01*
X149733000Y-91389845D01*
X149987000Y-91389845D01*
X149987000Y-92583000D01*
X152273000Y-92583000D01*
X152273000Y-91389845D01*
X152527000Y-91389845D01*
X152527000Y-92583000D01*
X154813000Y-92583000D01*
X154813000Y-91389845D01*
X155067000Y-91389845D01*
X155067000Y-92583000D01*
X157353000Y-92583000D01*
X157353000Y-91383750D01*
X157607000Y-91383750D01*
X157607000Y-92583000D01*
X158806250Y-92583000D01*
X158965000Y-92424250D01*
X158968072Y-91860000D01*
X158955812Y-91735518D01*
X158919502Y-91615820D01*
X158860537Y-91505506D01*
X158781185Y-91408815D01*
X158684494Y-91329463D01*
X158574180Y-91270498D01*
X158454482Y-91234188D01*
X158330000Y-91221928D01*
X157765750Y-91225000D01*
X157607000Y-91383750D01*
X157353000Y-91383750D01*
X157194250Y-91225000D01*
X156630000Y-91221928D01*
X156505518Y-91234188D01*
X156385820Y-91270498D01*
X156275506Y-91329463D01*
X156178815Y-91408815D01*
X156099463Y-91505506D01*
X156040498Y-91615820D01*
X156016034Y-91696466D01*
X155940269Y-91612412D01*
X155706920Y-91438359D01*
X155444099Y-91313175D01*
X155296890Y-91268524D01*
X155067000Y-91389845D01*
X154813000Y-91389845D01*
X154583110Y-91268524D01*
X154435901Y-91313175D01*
X154173080Y-91438359D01*
X153939731Y-91612412D01*
X153744822Y-91828645D01*
X153670000Y-91954255D01*
X153595178Y-91828645D01*
X153400269Y-91612412D01*
X153166920Y-91438359D01*
X152904099Y-91313175D01*
X152756890Y-91268524D01*
X152527000Y-91389845D01*
X152273000Y-91389845D01*
X152043110Y-91268524D01*
X151895901Y-91313175D01*
X151633080Y-91438359D01*
X151399731Y-91612412D01*
X151204822Y-91828645D01*
X151130000Y-91954255D01*
X151055178Y-91828645D01*
X150860269Y-91612412D01*
X150626920Y-91438359D01*
X150364099Y-91313175D01*
X150216890Y-91268524D01*
X149987000Y-91389845D01*
X149733000Y-91389845D01*
X149503110Y-91268524D01*
X149355901Y-91313175D01*
X149093080Y-91438359D01*
X148859731Y-91612412D01*
X148664822Y-91828645D01*
X148590000Y-91954255D01*
X148515178Y-91828645D01*
X148320269Y-91612412D01*
X148086920Y-91438359D01*
X147824099Y-91313175D01*
X147676890Y-91268524D01*
X147447000Y-91389845D01*
X147193000Y-91389845D01*
X146963110Y-91268524D01*
X146815901Y-91313175D01*
X146553080Y-91438359D01*
X146319731Y-91612412D01*
X146124822Y-91828645D01*
X146050000Y-91954255D01*
X145975178Y-91828645D01*
X145780269Y-91612412D01*
X145546920Y-91438359D01*
X145284099Y-91313175D01*
X145136890Y-91268524D01*
X144907000Y-91389845D01*
X144653000Y-91389845D01*
X144423110Y-91268524D01*
X144275901Y-91313175D01*
X144013080Y-91438359D01*
X143779731Y-91612412D01*
X143584822Y-91828645D01*
X143510000Y-91954255D01*
X143435178Y-91828645D01*
X143240269Y-91612412D01*
X143006920Y-91438359D01*
X142744099Y-91313175D01*
X142596890Y-91268524D01*
X142367000Y-91389845D01*
X142113000Y-91389845D01*
X141883110Y-91268524D01*
X141735901Y-91313175D01*
X141473080Y-91438359D01*
X141239731Y-91612412D01*
X141044822Y-91828645D01*
X140970000Y-91954255D01*
X140895178Y-91828645D01*
X140700269Y-91612412D01*
X140466920Y-91438359D01*
X140204099Y-91313175D01*
X140056890Y-91268524D01*
X139827000Y-91389845D01*
X139573000Y-91389845D01*
X139343110Y-91268524D01*
X139195901Y-91313175D01*
X138933080Y-91438359D01*
X138699731Y-91612412D01*
X138504822Y-91828645D01*
X138430000Y-91954255D01*
X138355178Y-91828645D01*
X138160269Y-91612412D01*
X137926920Y-91438359D01*
X137664099Y-91313175D01*
X137516890Y-91268524D01*
X137287000Y-91389845D01*
X137033000Y-91389845D01*
X136803110Y-91268524D01*
X136655901Y-91313175D01*
X136393080Y-91438359D01*
X136159731Y-91612412D01*
X135964822Y-91828645D01*
X135890000Y-91954255D01*
X135815178Y-91828645D01*
X135620269Y-91612412D01*
X135386920Y-91438359D01*
X135124099Y-91313175D01*
X134976890Y-91268524D01*
X134747000Y-91389845D01*
X134493000Y-91389845D01*
X134263110Y-91268524D01*
X134115901Y-91313175D01*
X133853080Y-91438359D01*
X133619731Y-91612412D01*
X133424822Y-91828645D01*
X133350000Y-91954255D01*
X133275178Y-91828645D01*
X133080269Y-91612412D01*
X132846920Y-91438359D01*
X132584099Y-91313175D01*
X132436890Y-91268524D01*
X132207000Y-91389845D01*
X131953000Y-91389845D01*
X131723110Y-91268524D01*
X131575901Y-91313175D01*
X131313080Y-91438359D01*
X131079731Y-91612412D01*
X130884822Y-91828645D01*
X130810000Y-91954255D01*
X130735178Y-91828645D01*
X130540269Y-91612412D01*
X130306920Y-91438359D01*
X130044099Y-91313175D01*
X129896890Y-91268524D01*
X129667000Y-91389845D01*
X129413000Y-91389845D01*
X129183110Y-91268524D01*
X129035901Y-91313175D01*
X128773080Y-91438359D01*
X128539731Y-91612412D01*
X128344822Y-91828645D01*
X128270000Y-91954255D01*
X128195178Y-91828645D01*
X128000269Y-91612412D01*
X127766920Y-91438359D01*
X127504099Y-91313175D01*
X127356890Y-91268524D01*
X127127000Y-91389845D01*
X126873000Y-91389845D01*
X126643110Y-91268524D01*
X126495901Y-91313175D01*
X126233080Y-91438359D01*
X125999731Y-91612412D01*
X125804822Y-91828645D01*
X125730000Y-91954255D01*
X125655178Y-91828645D01*
X125460269Y-91612412D01*
X125226920Y-91438359D01*
X124964099Y-91313175D01*
X124816890Y-91268524D01*
X124587000Y-91389845D01*
X124333000Y-91389845D01*
X124103110Y-91268524D01*
X123955901Y-91313175D01*
X123693080Y-91438359D01*
X123459731Y-91612412D01*
X123264822Y-91828645D01*
X123190000Y-91954255D01*
X123115178Y-91828645D01*
X122920269Y-91612412D01*
X122686920Y-91438359D01*
X122424099Y-91313175D01*
X122276890Y-91268524D01*
X122047000Y-91389845D01*
X121793000Y-91389845D01*
X121563110Y-91268524D01*
X121415901Y-91313175D01*
X121153080Y-91438359D01*
X120919731Y-91612412D01*
X120724822Y-91828645D01*
X120650000Y-91954255D01*
X120575178Y-91828645D01*
X120380269Y-91612412D01*
X120146920Y-91438359D01*
X119884099Y-91313175D01*
X119736890Y-91268524D01*
X119507000Y-91389845D01*
X119253000Y-91389845D01*
X119023110Y-91268524D01*
X118875901Y-91313175D01*
X118613080Y-91438359D01*
X118379731Y-91612412D01*
X118184822Y-91828645D01*
X118110000Y-91954255D01*
X118035178Y-91828645D01*
X117840269Y-91612412D01*
X117606920Y-91438359D01*
X117344099Y-91313175D01*
X117196890Y-91268524D01*
X116967000Y-91389845D01*
X116713000Y-91389845D01*
X116483110Y-91268524D01*
X116335901Y-91313175D01*
X116073080Y-91438359D01*
X115839731Y-91612412D01*
X115644822Y-91828645D01*
X115495843Y-92078748D01*
X115398519Y-92353109D01*
X110663559Y-92353109D01*
X110598599Y-92138966D01*
X110460706Y-91880986D01*
X110275134Y-91654866D01*
X110049014Y-91469294D01*
X109791034Y-91331401D01*
X109511111Y-91246487D01*
X109292950Y-91225000D01*
X109147050Y-91225000D01*
X108928889Y-91246487D01*
X108648966Y-91331401D01*
X108390986Y-91469294D01*
X108164866Y-91654866D01*
X107979294Y-91880986D01*
X107944799Y-91945523D01*
X107875178Y-91828645D01*
X107680269Y-91612412D01*
X107446920Y-91438359D01*
X107184099Y-91313175D01*
X107036890Y-91268524D01*
X106807000Y-91389845D01*
X106553000Y-91389845D01*
X106323110Y-91268524D01*
X106175901Y-91313175D01*
X105913080Y-91438359D01*
X105679731Y-91612412D01*
X105484822Y-91828645D01*
X105410000Y-91954255D01*
X105335178Y-91828645D01*
X105140269Y-91612412D01*
X104906920Y-91438359D01*
X104644099Y-91313175D01*
X104496890Y-91268524D01*
X104267000Y-91389845D01*
X104013000Y-91389845D01*
X103783110Y-91268524D01*
X103635901Y-91313175D01*
X103373080Y-91438359D01*
X103139731Y-91612412D01*
X103063966Y-91696466D01*
X103039502Y-91615820D01*
X102980537Y-91505506D01*
X102901185Y-91408815D01*
X102804494Y-91329463D01*
X102694180Y-91270498D01*
X102574482Y-91234188D01*
X102450000Y-91221928D01*
X100750000Y-91221928D01*
X100625518Y-91234188D01*
X100505820Y-91270498D01*
X100395506Y-91329463D01*
X100298815Y-91408815D01*
X100219463Y-91505506D01*
X100160498Y-91615820D01*
X100124188Y-91735518D01*
X100111928Y-91860000D01*
X100111928Y-93560000D01*
X100124188Y-93684482D01*
X100160498Y-93804180D01*
X100219463Y-93914494D01*
X100298815Y-94011185D01*
X100395506Y-94090537D01*
X100465000Y-94127683D01*
X100465001Y-99004239D01*
X100459509Y-99060000D01*
X100481423Y-99282498D01*
X100546324Y-99496446D01*
X100585466Y-99569676D01*
X100651717Y-99693623D01*
X100793552Y-99866449D01*
X100836860Y-99901991D01*
X103298009Y-102363141D01*
X103333551Y-102406449D01*
X103506377Y-102548284D01*
X103703553Y-102653676D01*
X103917501Y-102718577D01*
X104084248Y-102735000D01*
X104084257Y-102735000D01*
X104139999Y-102740490D01*
X104195741Y-102735000D01*
X111289869Y-102735000D01*
X113622200Y-105067332D01*
X113622201Y-109174486D01*
X113614012Y-109162346D01*
X113581240Y-109112265D01*
X113575416Y-109105124D01*
X113417423Y-108914144D01*
X113374988Y-108872005D01*
X113333125Y-108829255D01*
X113326024Y-108823381D01*
X113133946Y-108666727D01*
X113084169Y-108633655D01*
X113034763Y-108599826D01*
X113026657Y-108595444D01*
X112807809Y-108479081D01*
X112752532Y-108456298D01*
X112697525Y-108432721D01*
X112688722Y-108429997D01*
X112451441Y-108358357D01*
X112392754Y-108346736D01*
X112334248Y-108334300D01*
X112325085Y-108333337D01*
X112325083Y-108333337D01*
X112078405Y-108309150D01*
X112078402Y-108309150D01*
X112046419Y-108306000D01*
X99092279Y-108306000D01*
X98942131Y-108291278D01*
X98828754Y-108257047D01*
X98724183Y-108201446D01*
X98632405Y-108126594D01*
X98556909Y-108035335D01*
X98500581Y-107931160D01*
X98465560Y-107818024D01*
X98450000Y-107669979D01*
X98450000Y-83852279D01*
X98464722Y-83702131D01*
X98498953Y-83588754D01*
X98554555Y-83484181D01*
X98629407Y-83392404D01*
X98720664Y-83316909D01*
X98824844Y-83260581D01*
X98937976Y-83225560D01*
X99086022Y-83210000D01*
X133317721Y-83210000D01*
X133467869Y-83224722D01*
X133581246Y-83258953D01*
X133685819Y-83314555D01*
X133777596Y-83389407D01*
X133853091Y-83480664D01*
X133909419Y-83584844D01*
X133944440Y-83697976D01*
X133960001Y-83846031D01*
X133960000Y-88613581D01*
X133956807Y-88646000D01*
X133969550Y-88775383D01*
X134007290Y-88899793D01*
X134068575Y-89014450D01*
X134151052Y-89114948D01*
X134251550Y-89197425D01*
X134366207Y-89258710D01*
X134490617Y-89296450D01*
X134620000Y-89309193D01*
X134652419Y-89306000D01*
X139667581Y-89306000D01*
X139700000Y-89309193D01*
X139732419Y-89306000D01*
X139829383Y-89296450D01*
X139953793Y-89258710D01*
X140068450Y-89197425D01*
X140168948Y-89114948D01*
X140251425Y-89014450D01*
X140312710Y-88899793D01*
X140350450Y-88775383D01*
X140363193Y-88646000D01*
X140360000Y-88613581D01*
X140360000Y-83598279D01*
X140374722Y-83448131D01*
X140408953Y-83334754D01*
X140464555Y-83230181D01*
X140539407Y-83138404D01*
X140630664Y-83062909D01*
X140734844Y-83006581D01*
X140847976Y-82971560D01*
X140996022Y-82956000D01*
X161765721Y-82956000D01*
X161915869Y-82970722D01*
M02*
