G04 #@! TF.GenerationSoftware,KiCad,Pcbnew,(5.1.2)-2*
G04 #@! TF.CreationDate,2020-12-12T08:56:43+00:00*
G04 #@! TF.ProjectId,Amiga 34-pin to Citizen Slim 26-pin Adapter (Design B),416d6967-6120-4333-942d-70696e20746f,rev?*
G04 #@! TF.SameCoordinates,Original*
G04 #@! TF.FileFunction,Legend,Bot*
G04 #@! TF.FilePolarity,Positive*
%FSLAX46Y46*%
G04 Gerber Fmt 4.6, Leading zero omitted, Abs format (unit mm)*
G04 Created by KiCad (PCBNEW (5.1.2)-2) date 2020-12-12 08:56:43*
%MOMM*%
%LPD*%
G04 APERTURE LIST*
%ADD10C,0.125000*%
%ADD11C,0.120000*%
%ADD12C,0.150000*%
G04 APERTURE END LIST*
D10*
X114522285Y-113482380D02*
X115093714Y-113482380D01*
X114808000Y-113482380D02*
X114808000Y-112482380D01*
X114903238Y-112625238D01*
X114998476Y-112720476D01*
X115093714Y-112768095D01*
X159734285Y-91638380D02*
X160305714Y-91638380D01*
X160020000Y-91638380D02*
X160020000Y-90638380D01*
X160115238Y-90781238D01*
X160210476Y-90876476D01*
X160305714Y-90924095D01*
X142579285Y-97355667D02*
X141829285Y-97355667D01*
X142579285Y-97784238D01*
X141829285Y-97784238D01*
X142507857Y-98569953D02*
X142543571Y-98534238D01*
X142579285Y-98427095D01*
X142579285Y-98355667D01*
X142543571Y-98248524D01*
X142472142Y-98177095D01*
X142400714Y-98141381D01*
X142257857Y-98105667D01*
X142150714Y-98105667D01*
X142007857Y-98141381D01*
X141936428Y-98177095D01*
X141865000Y-98248524D01*
X141829285Y-98355667D01*
X141829285Y-98427095D01*
X141865000Y-98534238D01*
X141900714Y-98569953D01*
X152739285Y-97355667D02*
X151989285Y-97355667D01*
X152739285Y-97784238D01*
X151989285Y-97784238D01*
X152667857Y-98569953D02*
X152703571Y-98534238D01*
X152739285Y-98427095D01*
X152739285Y-98355667D01*
X152703571Y-98248524D01*
X152632142Y-98177095D01*
X152560714Y-98141381D01*
X152417857Y-98105667D01*
X152310714Y-98105667D01*
X152167857Y-98141381D01*
X152096428Y-98177095D01*
X152025000Y-98248524D01*
X151989285Y-98355667D01*
X151989285Y-98427095D01*
X152025000Y-98534238D01*
X152060714Y-98569953D01*
X127410714Y-97177096D02*
X127410714Y-97748525D01*
X126589285Y-97819953D02*
X126589285Y-98248525D01*
X127339285Y-98034239D02*
X126589285Y-98034239D01*
X127339285Y-98927096D02*
X126982142Y-98677096D01*
X127339285Y-98498525D02*
X126589285Y-98498525D01*
X126589285Y-98784239D01*
X126625000Y-98855668D01*
X126660714Y-98891382D01*
X126732142Y-98927096D01*
X126839285Y-98927096D01*
X126910714Y-98891382D01*
X126946428Y-98855668D01*
X126982142Y-98784239D01*
X126982142Y-98498525D01*
X127339285Y-99248525D02*
X126589285Y-99248525D01*
X127339285Y-99677096D02*
X126910714Y-99355668D01*
X126589285Y-99677096D02*
X127017857Y-99248525D01*
X126589285Y-100141382D02*
X126589285Y-100212810D01*
X126625000Y-100284239D01*
X126660714Y-100319953D01*
X126732142Y-100355668D01*
X126875000Y-100391382D01*
X127053571Y-100391382D01*
X127196428Y-100355668D01*
X127267857Y-100319953D01*
X127303571Y-100284239D01*
X127339285Y-100212810D01*
X127339285Y-100141382D01*
X127303571Y-100069953D01*
X127267857Y-100034239D01*
X127196428Y-99998525D01*
X127053571Y-99962810D01*
X126875000Y-99962810D01*
X126732142Y-99998525D01*
X126660714Y-100034239D01*
X126625000Y-100069953D01*
X126589285Y-100141382D01*
X119790714Y-97177096D02*
X119790714Y-97748525D01*
X119683571Y-97891382D02*
X119719285Y-97998525D01*
X119719285Y-98177096D01*
X119683571Y-98248525D01*
X119647857Y-98284239D01*
X119576428Y-98319953D01*
X119505000Y-98319953D01*
X119433571Y-98284239D01*
X119397857Y-98248525D01*
X119362142Y-98177096D01*
X119326428Y-98034239D01*
X119290714Y-97962811D01*
X119255000Y-97927096D01*
X119183571Y-97891382D01*
X119112142Y-97891382D01*
X119040714Y-97927096D01*
X119005000Y-97962811D01*
X118969285Y-98034239D01*
X118969285Y-98212811D01*
X119005000Y-98319953D01*
X119719285Y-98641382D02*
X118969285Y-98641382D01*
X119719285Y-98998525D02*
X118969285Y-98998525D01*
X118969285Y-99177096D01*
X119005000Y-99284239D01*
X119076428Y-99355668D01*
X119147857Y-99391382D01*
X119290714Y-99427096D01*
X119397857Y-99427096D01*
X119540714Y-99391382D01*
X119612142Y-99355668D01*
X119683571Y-99284239D01*
X119719285Y-99177096D01*
X119719285Y-98998525D01*
X119326428Y-99748525D02*
X119326428Y-99998525D01*
X119719285Y-100105668D02*
X119719285Y-99748525D01*
X118969285Y-99748525D01*
X118969285Y-100105668D01*
X122330714Y-97177096D02*
X122330714Y-97748525D01*
X122259285Y-97927096D02*
X121509285Y-97927096D01*
X121509285Y-98105668D01*
X121545000Y-98212811D01*
X121616428Y-98284239D01*
X121687857Y-98319953D01*
X121830714Y-98355668D01*
X121937857Y-98355668D01*
X122080714Y-98319953D01*
X122152142Y-98284239D01*
X122223571Y-98212811D01*
X122259285Y-98105668D01*
X122259285Y-97927096D01*
X122259285Y-98677096D02*
X121509285Y-98677096D01*
X122259285Y-99105668D02*
X121830714Y-98784239D01*
X121509285Y-99105668D02*
X121937857Y-98677096D01*
X122259285Y-99855668D02*
X121902142Y-99605668D01*
X122259285Y-99427096D02*
X121509285Y-99427096D01*
X121509285Y-99712811D01*
X121545000Y-99784239D01*
X121580714Y-99819953D01*
X121652142Y-99855668D01*
X121759285Y-99855668D01*
X121830714Y-99819953D01*
X121866428Y-99784239D01*
X121902142Y-99712811D01*
X121902142Y-99427096D01*
X122259285Y-100177096D02*
X121509285Y-100177096D01*
X121509285Y-100355668D01*
X121545000Y-100462811D01*
X121616428Y-100534239D01*
X121687857Y-100569953D01*
X121830714Y-100605668D01*
X121937857Y-100605668D01*
X122080714Y-100569953D01*
X122152142Y-100534239D01*
X122223571Y-100462811D01*
X122259285Y-100355668D01*
X122259285Y-100177096D01*
X157890714Y-97177096D02*
X157890714Y-97748525D01*
X157747857Y-98355667D02*
X157783571Y-98319953D01*
X157819285Y-98212810D01*
X157819285Y-98141382D01*
X157783571Y-98034239D01*
X157712142Y-97962810D01*
X157640714Y-97927096D01*
X157497857Y-97891382D01*
X157390714Y-97891382D01*
X157247857Y-97927096D01*
X157176428Y-97962810D01*
X157105000Y-98034239D01*
X157069285Y-98141382D01*
X157069285Y-98212810D01*
X157105000Y-98319953D01*
X157140714Y-98355667D01*
X157819285Y-98677096D02*
X157069285Y-98677096D01*
X157426428Y-98677096D02*
X157426428Y-99105667D01*
X157819285Y-99105667D02*
X157069285Y-99105667D01*
X157819285Y-99462810D02*
X157069285Y-99462810D01*
X157819285Y-99891382D01*
X157069285Y-99891382D01*
X157105000Y-100641382D02*
X157069285Y-100569953D01*
X157069285Y-100462810D01*
X157105000Y-100355667D01*
X157176428Y-100284239D01*
X157247857Y-100248525D01*
X157390714Y-100212810D01*
X157497857Y-100212810D01*
X157640714Y-100248525D01*
X157712142Y-100284239D01*
X157783571Y-100355667D01*
X157819285Y-100462810D01*
X157819285Y-100534239D01*
X157783571Y-100641382D01*
X157747857Y-100677096D01*
X157497857Y-100677096D01*
X157497857Y-100534239D01*
X135030714Y-97177095D02*
X135030714Y-97748524D01*
X134923571Y-97891381D02*
X134959285Y-97998524D01*
X134959285Y-98177095D01*
X134923571Y-98248524D01*
X134887857Y-98284238D01*
X134816428Y-98319953D01*
X134745000Y-98319953D01*
X134673571Y-98284238D01*
X134637857Y-98248524D01*
X134602142Y-98177095D01*
X134566428Y-98034238D01*
X134530714Y-97962810D01*
X134495000Y-97927095D01*
X134423571Y-97891381D01*
X134352142Y-97891381D01*
X134280714Y-97927095D01*
X134245000Y-97962810D01*
X134209285Y-98034238D01*
X134209285Y-98212810D01*
X134245000Y-98319953D01*
X134209285Y-98534238D02*
X134209285Y-98962810D01*
X134959285Y-98748524D02*
X134209285Y-98748524D01*
X134566428Y-99212810D02*
X134566428Y-99462810D01*
X134959285Y-99569953D02*
X134959285Y-99212810D01*
X134209285Y-99212810D01*
X134209285Y-99569953D01*
X134959285Y-99891381D02*
X134209285Y-99891381D01*
X134209285Y-100177095D01*
X134245000Y-100248524D01*
X134280714Y-100284238D01*
X134352142Y-100319953D01*
X134459285Y-100319953D01*
X134530714Y-100284238D01*
X134566428Y-100248524D01*
X134602142Y-100177095D01*
X134602142Y-99891381D01*
X117250714Y-97177096D02*
X117250714Y-97748524D01*
X117179285Y-98355667D02*
X116822142Y-98105667D01*
X117179285Y-97927096D02*
X116429285Y-97927096D01*
X116429285Y-98212810D01*
X116465000Y-98284239D01*
X116500714Y-98319953D01*
X116572142Y-98355667D01*
X116679285Y-98355667D01*
X116750714Y-98319953D01*
X116786428Y-98284239D01*
X116822142Y-98212810D01*
X116822142Y-97927096D01*
X117179285Y-98677096D02*
X116429285Y-98677096D01*
X116429285Y-98855667D01*
X116465000Y-98962810D01*
X116536428Y-99034239D01*
X116607857Y-99069953D01*
X116750714Y-99105667D01*
X116857857Y-99105667D01*
X117000714Y-99069953D01*
X117072142Y-99034239D01*
X117143571Y-98962810D01*
X117179285Y-98855667D01*
X117179285Y-98677096D01*
X116822142Y-99569953D02*
X117179285Y-99569953D01*
X116429285Y-99319953D02*
X116822142Y-99569953D01*
X116429285Y-99819953D01*
X124870714Y-97177095D02*
X124870714Y-97748524D01*
X124049285Y-97855667D02*
X124799285Y-98034238D01*
X124263571Y-98177095D01*
X124799285Y-98319953D01*
X124049285Y-98498524D01*
X124799285Y-99212810D02*
X124442142Y-98962810D01*
X124799285Y-98784238D02*
X124049285Y-98784238D01*
X124049285Y-99069953D01*
X124085000Y-99141381D01*
X124120714Y-99177095D01*
X124192142Y-99212810D01*
X124299285Y-99212810D01*
X124370714Y-99177095D01*
X124406428Y-99141381D01*
X124442142Y-99069953D01*
X124442142Y-98784238D01*
X124799285Y-99534238D02*
X124049285Y-99534238D01*
X124049285Y-99819953D01*
X124085000Y-99891381D01*
X124120714Y-99927095D01*
X124192142Y-99962810D01*
X124299285Y-99962810D01*
X124370714Y-99927095D01*
X124406428Y-99891381D01*
X124442142Y-99819953D01*
X124442142Y-99534238D01*
X124799285Y-100712810D02*
X124442142Y-100462810D01*
X124799285Y-100284238D02*
X124049285Y-100284238D01*
X124049285Y-100569953D01*
X124085000Y-100641381D01*
X124120714Y-100677095D01*
X124192142Y-100712810D01*
X124299285Y-100712810D01*
X124370714Y-100677095D01*
X124406428Y-100641381D01*
X124442142Y-100569953D01*
X124442142Y-100284238D01*
X124049285Y-101177095D02*
X124049285Y-101319953D01*
X124085000Y-101391381D01*
X124156428Y-101462810D01*
X124299285Y-101498524D01*
X124549285Y-101498524D01*
X124692142Y-101462810D01*
X124763571Y-101391381D01*
X124799285Y-101319953D01*
X124799285Y-101177095D01*
X124763571Y-101105667D01*
X124692142Y-101034238D01*
X124549285Y-100998524D01*
X124299285Y-100998524D01*
X124156428Y-101034238D01*
X124085000Y-101105667D01*
X124049285Y-101177095D01*
X124049285Y-101712810D02*
X124049285Y-102141381D01*
X124799285Y-101927095D02*
X124049285Y-101927095D01*
X129950714Y-97177096D02*
X129950714Y-97748525D01*
X129879285Y-97927096D02*
X129129285Y-97927096D01*
X129129285Y-98105668D01*
X129165000Y-98212810D01*
X129236428Y-98284239D01*
X129307857Y-98319953D01*
X129450714Y-98355668D01*
X129557857Y-98355668D01*
X129700714Y-98319953D01*
X129772142Y-98284239D01*
X129843571Y-98212810D01*
X129879285Y-98105668D01*
X129879285Y-97927096D01*
X129879285Y-98677096D02*
X129129285Y-98677096D01*
X129879285Y-99105668D02*
X129450714Y-98784239D01*
X129129285Y-99105668D02*
X129557857Y-98677096D01*
X129129285Y-99355668D02*
X129879285Y-99534239D01*
X129343571Y-99677096D01*
X129879285Y-99819953D01*
X129129285Y-99998525D01*
X129486428Y-100284239D02*
X129486428Y-100534239D01*
X129879285Y-100641382D02*
X129879285Y-100284239D01*
X129129285Y-100284239D01*
X129129285Y-100641382D01*
X147730714Y-97177095D02*
X147730714Y-97748524D01*
X147623571Y-97891381D02*
X147659285Y-97998524D01*
X147659285Y-98177095D01*
X147623571Y-98248524D01*
X147587857Y-98284238D01*
X147516428Y-98319953D01*
X147445000Y-98319953D01*
X147373571Y-98284238D01*
X147337857Y-98248524D01*
X147302142Y-98177095D01*
X147266428Y-98034238D01*
X147230714Y-97962810D01*
X147195000Y-97927095D01*
X147123571Y-97891381D01*
X147052142Y-97891381D01*
X146980714Y-97927095D01*
X146945000Y-97962810D01*
X146909285Y-98034238D01*
X146909285Y-98212810D01*
X146945000Y-98319953D01*
X147266428Y-98641381D02*
X147266428Y-98891381D01*
X147659285Y-98998524D02*
X147659285Y-98641381D01*
X146909285Y-98641381D01*
X146909285Y-98998524D01*
X147659285Y-99677095D02*
X147659285Y-99319953D01*
X146909285Y-99319953D01*
X146909285Y-100069953D02*
X146909285Y-100141381D01*
X146945000Y-100212810D01*
X146980714Y-100248524D01*
X147052142Y-100284238D01*
X147195000Y-100319953D01*
X147373571Y-100319953D01*
X147516428Y-100284238D01*
X147587857Y-100248524D01*
X147623571Y-100212810D01*
X147659285Y-100141381D01*
X147659285Y-100069953D01*
X147623571Y-99998524D01*
X147587857Y-99962810D01*
X147516428Y-99927095D01*
X147373571Y-99891381D01*
X147195000Y-99891381D01*
X147052142Y-99927095D01*
X146980714Y-99962810D01*
X146945000Y-99998524D01*
X146909285Y-100069953D01*
X155350714Y-97177096D02*
X155350714Y-97748525D01*
X155279285Y-97927096D02*
X154529285Y-97927096D01*
X155279285Y-98284239D02*
X154529285Y-98284239D01*
X155279285Y-98712810D01*
X154529285Y-98712810D01*
X154529285Y-99069953D02*
X155136428Y-99069953D01*
X155207857Y-99105667D01*
X155243571Y-99141382D01*
X155279285Y-99212810D01*
X155279285Y-99355667D01*
X155243571Y-99427096D01*
X155207857Y-99462810D01*
X155136428Y-99498525D01*
X154529285Y-99498525D01*
X155243571Y-99819953D02*
X155279285Y-99927096D01*
X155279285Y-100105667D01*
X155243571Y-100177096D01*
X155207857Y-100212810D01*
X155136428Y-100248525D01*
X155065000Y-100248525D01*
X154993571Y-100212810D01*
X154957857Y-100177096D01*
X154922142Y-100105667D01*
X154886428Y-99962810D01*
X154850714Y-99891382D01*
X154815000Y-99855667D01*
X154743571Y-99819953D01*
X154672142Y-99819953D01*
X154600714Y-99855667D01*
X154565000Y-99891382D01*
X154529285Y-99962810D01*
X154529285Y-100141382D01*
X154565000Y-100248525D01*
X154886428Y-100569953D02*
X154886428Y-100819953D01*
X155279285Y-100927096D02*
X155279285Y-100569953D01*
X154529285Y-100569953D01*
X154529285Y-100927096D01*
X140110714Y-97177096D02*
X140110714Y-97748524D01*
X140039285Y-97927096D02*
X139289285Y-97927096D01*
X139825000Y-98177096D01*
X139289285Y-98427096D01*
X140039285Y-98427096D01*
X139289285Y-98677096D02*
X139289285Y-99105667D01*
X140039285Y-98891381D02*
X139289285Y-98891381D01*
X140039285Y-99784238D02*
X139682142Y-99534238D01*
X140039285Y-99355667D02*
X139289285Y-99355667D01*
X139289285Y-99641381D01*
X139325000Y-99712810D01*
X139360714Y-99748524D01*
X139432142Y-99784238D01*
X139539285Y-99784238D01*
X139610714Y-99748524D01*
X139646428Y-99712810D01*
X139682142Y-99641381D01*
X139682142Y-99355667D01*
X137499285Y-97355668D02*
X136749285Y-97355668D01*
X136749285Y-97534239D01*
X136785000Y-97641382D01*
X136856428Y-97712810D01*
X136927857Y-97748525D01*
X137070714Y-97784239D01*
X137177857Y-97784239D01*
X137320714Y-97748525D01*
X137392142Y-97712810D01*
X137463571Y-97641382D01*
X137499285Y-97534239D01*
X137499285Y-97355668D01*
X137499285Y-98105668D02*
X136749285Y-98105668D01*
X137499285Y-98891382D02*
X137142142Y-98641382D01*
X137499285Y-98462810D02*
X136749285Y-98462810D01*
X136749285Y-98748525D01*
X136785000Y-98819953D01*
X136820714Y-98855668D01*
X136892142Y-98891382D01*
X136999285Y-98891382D01*
X137070714Y-98855668D01*
X137106428Y-98819953D01*
X137142142Y-98748525D01*
X137142142Y-98462810D01*
X150270714Y-97177096D02*
X150270714Y-97748525D01*
X150199285Y-97927096D02*
X149449285Y-97927096D01*
X150199285Y-98284239D02*
X149449285Y-98284239D01*
X150199285Y-98712810D01*
X149449285Y-98712810D01*
X150199285Y-99069953D02*
X149449285Y-99069953D01*
X149449285Y-99248525D01*
X149485000Y-99355668D01*
X149556428Y-99427096D01*
X149627857Y-99462810D01*
X149770714Y-99498525D01*
X149877857Y-99498525D01*
X150020714Y-99462810D01*
X150092142Y-99427096D01*
X150163571Y-99355668D01*
X150199285Y-99248525D01*
X150199285Y-99069953D01*
X149806428Y-99819953D02*
X149806428Y-100069953D01*
X150199285Y-100177096D02*
X150199285Y-99819953D01*
X149449285Y-99819953D01*
X149449285Y-100177096D01*
X149449285Y-100427096D02*
X150199285Y-100927096D01*
X149449285Y-100927096D02*
X150199285Y-100427096D01*
X145190714Y-97177095D02*
X145190714Y-97748524D01*
X145083571Y-97891381D02*
X145119285Y-97998524D01*
X145119285Y-98177095D01*
X145083571Y-98248524D01*
X145047857Y-98284238D01*
X144976428Y-98319953D01*
X144905000Y-98319953D01*
X144833571Y-98284238D01*
X144797857Y-98248524D01*
X144762142Y-98177095D01*
X144726428Y-98034238D01*
X144690714Y-97962810D01*
X144655000Y-97927095D01*
X144583571Y-97891381D01*
X144512142Y-97891381D01*
X144440714Y-97927095D01*
X144405000Y-97962810D01*
X144369285Y-98034238D01*
X144369285Y-98212810D01*
X144405000Y-98319953D01*
X144726428Y-98641381D02*
X144726428Y-98891381D01*
X145119285Y-98998524D02*
X145119285Y-98641381D01*
X144369285Y-98641381D01*
X144369285Y-98998524D01*
X145119285Y-99677095D02*
X145119285Y-99319953D01*
X144369285Y-99319953D01*
X145119285Y-100319953D02*
X145119285Y-99891381D01*
X145119285Y-100105667D02*
X144369285Y-100105667D01*
X144476428Y-100034238D01*
X144547857Y-99962810D01*
X144583571Y-99891381D01*
X132490714Y-97177096D02*
X132490714Y-97748524D01*
X132419285Y-97927096D02*
X131669285Y-97927096D01*
X131669285Y-98105667D01*
X131705000Y-98212810D01*
X131776428Y-98284239D01*
X131847857Y-98319953D01*
X131990714Y-98355667D01*
X132097857Y-98355667D01*
X132240714Y-98319953D01*
X132312142Y-98284239D01*
X132383571Y-98212810D01*
X132419285Y-98105667D01*
X132419285Y-97927096D01*
X132419285Y-98677096D02*
X131669285Y-98677096D01*
X132419285Y-99105667D02*
X131990714Y-98784239D01*
X131669285Y-99105667D02*
X132097857Y-98677096D01*
X131669285Y-99355667D02*
X132419285Y-99534239D01*
X131883571Y-99677096D01*
X132419285Y-99819953D01*
X131669285Y-99998524D01*
X132419285Y-100284239D02*
X131669285Y-100284239D01*
X131669285Y-100462810D01*
X131705000Y-100569953D01*
X131776428Y-100641382D01*
X131847857Y-100677096D01*
X131990714Y-100712810D01*
X132097857Y-100712810D01*
X132240714Y-100677096D01*
X132312142Y-100641382D01*
X132383571Y-100569953D01*
X132419285Y-100462810D01*
X132419285Y-100284239D01*
X127410714Y-106120476D02*
X127410714Y-106691904D01*
X127339285Y-106870476D02*
X126589285Y-106870476D01*
X127125000Y-107120476D01*
X126589285Y-107370476D01*
X127339285Y-107370476D01*
X126589285Y-107620476D02*
X126589285Y-108049047D01*
X127339285Y-107834761D02*
X126589285Y-107834761D01*
X127339285Y-108727618D02*
X126982142Y-108477618D01*
X127339285Y-108299047D02*
X126589285Y-108299047D01*
X126589285Y-108584761D01*
X126625000Y-108656190D01*
X126660714Y-108691904D01*
X126732142Y-108727618D01*
X126839285Y-108727618D01*
X126910714Y-108691904D01*
X126946428Y-108656190D01*
X126982142Y-108584761D01*
X126982142Y-108299047D01*
X124870714Y-106156190D02*
X124870714Y-106727618D01*
X124799285Y-107334761D02*
X124442142Y-107084761D01*
X124799285Y-106906190D02*
X124049285Y-106906190D01*
X124049285Y-107191904D01*
X124085000Y-107263333D01*
X124120714Y-107299047D01*
X124192142Y-107334761D01*
X124299285Y-107334761D01*
X124370714Y-107299047D01*
X124406428Y-107263333D01*
X124442142Y-107191904D01*
X124442142Y-106906190D01*
X124799285Y-107656190D02*
X124049285Y-107656190D01*
X124049285Y-107834761D01*
X124085000Y-107941904D01*
X124156428Y-108013333D01*
X124227857Y-108049047D01*
X124370714Y-108084761D01*
X124477857Y-108084761D01*
X124620714Y-108049047D01*
X124692142Y-108013333D01*
X124763571Y-107941904D01*
X124799285Y-107834761D01*
X124799285Y-107656190D01*
X124442142Y-108549047D02*
X124799285Y-108549047D01*
X124049285Y-108299047D02*
X124442142Y-108549047D01*
X124049285Y-108799047D01*
X122330714Y-105227619D02*
X122330714Y-105799048D01*
X122187857Y-106406190D02*
X122223571Y-106370476D01*
X122259285Y-106263333D01*
X122259285Y-106191905D01*
X122223571Y-106084762D01*
X122152142Y-106013333D01*
X122080714Y-105977619D01*
X121937857Y-105941905D01*
X121830714Y-105941905D01*
X121687857Y-105977619D01*
X121616428Y-106013333D01*
X121545000Y-106084762D01*
X121509285Y-106191905D01*
X121509285Y-106263333D01*
X121545000Y-106370476D01*
X121580714Y-106406190D01*
X122259285Y-106727619D02*
X121509285Y-106727619D01*
X121866428Y-106727619D02*
X121866428Y-107156190D01*
X122259285Y-107156190D02*
X121509285Y-107156190D01*
X122259285Y-107513333D02*
X121509285Y-107513333D01*
X122259285Y-107941905D01*
X121509285Y-107941905D01*
X121545000Y-108691905D02*
X121509285Y-108620476D01*
X121509285Y-108513333D01*
X121545000Y-108406190D01*
X121616428Y-108334762D01*
X121687857Y-108299048D01*
X121830714Y-108263333D01*
X121937857Y-108263333D01*
X122080714Y-108299048D01*
X122152142Y-108334762D01*
X122223571Y-108406190D01*
X122259285Y-108513333D01*
X122259285Y-108584762D01*
X122223571Y-108691905D01*
X122187857Y-108727619D01*
X121937857Y-108727619D01*
X121937857Y-108584762D01*
X119790714Y-105584761D02*
X119790714Y-106156190D01*
X119683571Y-106299047D02*
X119719285Y-106406190D01*
X119719285Y-106584761D01*
X119683571Y-106656190D01*
X119647857Y-106691904D01*
X119576428Y-106727619D01*
X119505000Y-106727619D01*
X119433571Y-106691904D01*
X119397857Y-106656190D01*
X119362142Y-106584761D01*
X119326428Y-106441904D01*
X119290714Y-106370476D01*
X119255000Y-106334761D01*
X119183571Y-106299047D01*
X119112142Y-106299047D01*
X119040714Y-106334761D01*
X119005000Y-106370476D01*
X118969285Y-106441904D01*
X118969285Y-106620476D01*
X119005000Y-106727619D01*
X119326428Y-107049047D02*
X119326428Y-107299047D01*
X119719285Y-107406190D02*
X119719285Y-107049047D01*
X118969285Y-107049047D01*
X118969285Y-107406190D01*
X119719285Y-108084761D02*
X119719285Y-107727619D01*
X118969285Y-107727619D01*
X118969285Y-108477619D02*
X118969285Y-108549047D01*
X119005000Y-108620476D01*
X119040714Y-108656190D01*
X119112142Y-108691904D01*
X119255000Y-108727619D01*
X119433571Y-108727619D01*
X119576428Y-108691904D01*
X119647857Y-108656190D01*
X119683571Y-108620476D01*
X119719285Y-108549047D01*
X119719285Y-108477619D01*
X119683571Y-108406190D01*
X119647857Y-108370476D01*
X119576428Y-108334761D01*
X119433571Y-108299047D01*
X119255000Y-108299047D01*
X119112142Y-108334761D01*
X119040714Y-108370476D01*
X119005000Y-108406190D01*
X118969285Y-108477619D01*
X117250714Y-105013333D02*
X117250714Y-105584762D01*
X117179285Y-105763333D02*
X116429285Y-105763333D01*
X117179285Y-106120476D02*
X116429285Y-106120476D01*
X117179285Y-106549047D01*
X116429285Y-106549047D01*
X117179285Y-106906190D02*
X116429285Y-106906190D01*
X116429285Y-107084762D01*
X116465000Y-107191905D01*
X116536428Y-107263333D01*
X116607857Y-107299047D01*
X116750714Y-107334762D01*
X116857857Y-107334762D01*
X117000714Y-107299047D01*
X117072142Y-107263333D01*
X117143571Y-107191905D01*
X117179285Y-107084762D01*
X117179285Y-106906190D01*
X116786428Y-107656190D02*
X116786428Y-107906190D01*
X117179285Y-108013333D02*
X117179285Y-107656190D01*
X116429285Y-107656190D01*
X116429285Y-108013333D01*
X116429285Y-108263333D02*
X117179285Y-108763333D01*
X116429285Y-108763333D02*
X117179285Y-108263333D01*
X135030714Y-105191905D02*
X135030714Y-105763333D01*
X134959285Y-105941905D02*
X134209285Y-105941905D01*
X134209285Y-106120476D01*
X134245000Y-106227619D01*
X134316428Y-106299048D01*
X134387857Y-106334762D01*
X134530714Y-106370476D01*
X134637857Y-106370476D01*
X134780714Y-106334762D01*
X134852142Y-106299048D01*
X134923571Y-106227619D01*
X134959285Y-106120476D01*
X134959285Y-105941905D01*
X134959285Y-106691905D02*
X134209285Y-106691905D01*
X134959285Y-107120476D02*
X134530714Y-106799048D01*
X134209285Y-107120476D02*
X134637857Y-106691905D01*
X134209285Y-107370476D02*
X134959285Y-107549048D01*
X134423571Y-107691905D01*
X134959285Y-107834762D01*
X134209285Y-108013333D01*
X134959285Y-108299048D02*
X134209285Y-108299048D01*
X134209285Y-108477619D01*
X134245000Y-108584762D01*
X134316428Y-108656191D01*
X134387857Y-108691905D01*
X134530714Y-108727619D01*
X134637857Y-108727619D01*
X134780714Y-108691905D01*
X134852142Y-108656191D01*
X134923571Y-108584762D01*
X134959285Y-108477619D01*
X134959285Y-108299048D01*
X129879285Y-107191905D02*
X129129285Y-107191905D01*
X129129285Y-107370476D01*
X129165000Y-107477619D01*
X129236428Y-107549047D01*
X129307857Y-107584762D01*
X129450714Y-107620476D01*
X129557857Y-107620476D01*
X129700714Y-107584762D01*
X129772142Y-107549047D01*
X129843571Y-107477619D01*
X129879285Y-107370476D01*
X129879285Y-107191905D01*
X129879285Y-107941905D02*
X129129285Y-107941905D01*
X129879285Y-108727619D02*
X129522142Y-108477619D01*
X129879285Y-108299047D02*
X129129285Y-108299047D01*
X129129285Y-108584762D01*
X129165000Y-108656190D01*
X129200714Y-108691905D01*
X129272142Y-108727619D01*
X129379285Y-108727619D01*
X129450714Y-108691905D01*
X129486428Y-108656190D01*
X129522142Y-108584762D01*
X129522142Y-108299047D01*
X132490714Y-105584761D02*
X132490714Y-106156190D01*
X132383571Y-106299047D02*
X132419285Y-106406190D01*
X132419285Y-106584761D01*
X132383571Y-106656190D01*
X132347857Y-106691904D01*
X132276428Y-106727619D01*
X132205000Y-106727619D01*
X132133571Y-106691904D01*
X132097857Y-106656190D01*
X132062142Y-106584761D01*
X132026428Y-106441904D01*
X131990714Y-106370476D01*
X131955000Y-106334761D01*
X131883571Y-106299047D01*
X131812142Y-106299047D01*
X131740714Y-106334761D01*
X131705000Y-106370476D01*
X131669285Y-106441904D01*
X131669285Y-106620476D01*
X131705000Y-106727619D01*
X131669285Y-106941904D02*
X131669285Y-107370476D01*
X132419285Y-107156190D02*
X131669285Y-107156190D01*
X132026428Y-107620476D02*
X132026428Y-107870476D01*
X132419285Y-107977619D02*
X132419285Y-107620476D01*
X131669285Y-107620476D01*
X131669285Y-107977619D01*
X132419285Y-108299047D02*
X131669285Y-108299047D01*
X131669285Y-108584761D01*
X131705000Y-108656190D01*
X131740714Y-108691904D01*
X131812142Y-108727619D01*
X131919285Y-108727619D01*
X131990714Y-108691904D01*
X132026428Y-108656190D01*
X132062142Y-108584761D01*
X132062142Y-108299047D01*
X145190714Y-105299047D02*
X145190714Y-105870476D01*
X145119285Y-106049047D02*
X144369285Y-106049047D01*
X144369285Y-106227619D01*
X144405000Y-106334762D01*
X144476428Y-106406190D01*
X144547857Y-106441904D01*
X144690714Y-106477619D01*
X144797857Y-106477619D01*
X144940714Y-106441904D01*
X145012142Y-106406190D01*
X145083571Y-106334762D01*
X145119285Y-106227619D01*
X145119285Y-106049047D01*
X145119285Y-106799047D02*
X144369285Y-106799047D01*
X145119285Y-107227619D02*
X144690714Y-106906190D01*
X144369285Y-107227619D02*
X144797857Y-106799047D01*
X145119285Y-107977619D02*
X144762142Y-107727619D01*
X145119285Y-107549047D02*
X144369285Y-107549047D01*
X144369285Y-107834762D01*
X144405000Y-107906190D01*
X144440714Y-107941904D01*
X144512142Y-107977619D01*
X144619285Y-107977619D01*
X144690714Y-107941904D01*
X144726428Y-107906190D01*
X144762142Y-107834762D01*
X144762142Y-107549047D01*
X145119285Y-108299047D02*
X144369285Y-108299047D01*
X144369285Y-108477619D01*
X144405000Y-108584762D01*
X144476428Y-108656190D01*
X144547857Y-108691904D01*
X144690714Y-108727619D01*
X144797857Y-108727619D01*
X144940714Y-108691904D01*
X145012142Y-108656190D01*
X145083571Y-108584762D01*
X145119285Y-108477619D01*
X145119285Y-108299047D01*
X142650714Y-103834761D02*
X142650714Y-104406190D01*
X141829285Y-104513333D02*
X142579285Y-104691904D01*
X142043571Y-104834761D01*
X142579285Y-104977619D01*
X141829285Y-105156190D01*
X142579285Y-105870476D02*
X142222142Y-105620476D01*
X142579285Y-105441904D02*
X141829285Y-105441904D01*
X141829285Y-105727619D01*
X141865000Y-105799047D01*
X141900714Y-105834761D01*
X141972142Y-105870476D01*
X142079285Y-105870476D01*
X142150714Y-105834761D01*
X142186428Y-105799047D01*
X142222142Y-105727619D01*
X142222142Y-105441904D01*
X142579285Y-106191904D02*
X141829285Y-106191904D01*
X141829285Y-106477619D01*
X141865000Y-106549047D01*
X141900714Y-106584761D01*
X141972142Y-106620476D01*
X142079285Y-106620476D01*
X142150714Y-106584761D01*
X142186428Y-106549047D01*
X142222142Y-106477619D01*
X142222142Y-106191904D01*
X142579285Y-107370476D02*
X142222142Y-107120476D01*
X142579285Y-106941904D02*
X141829285Y-106941904D01*
X141829285Y-107227619D01*
X141865000Y-107299047D01*
X141900714Y-107334761D01*
X141972142Y-107370476D01*
X142079285Y-107370476D01*
X142150714Y-107334761D01*
X142186428Y-107299047D01*
X142222142Y-107227619D01*
X142222142Y-106941904D01*
X141829285Y-107834761D02*
X141829285Y-107977619D01*
X141865000Y-108049047D01*
X141936428Y-108120476D01*
X142079285Y-108156190D01*
X142329285Y-108156190D01*
X142472142Y-108120476D01*
X142543571Y-108049047D01*
X142579285Y-107977619D01*
X142579285Y-107834761D01*
X142543571Y-107763333D01*
X142472142Y-107691904D01*
X142329285Y-107656190D01*
X142079285Y-107656190D01*
X141936428Y-107691904D01*
X141865000Y-107763333D01*
X141829285Y-107834761D01*
X141829285Y-108370476D02*
X141829285Y-108799047D01*
X142579285Y-108584761D02*
X141829285Y-108584761D01*
X137570714Y-105263333D02*
X137570714Y-105834762D01*
X137499285Y-106013333D02*
X136749285Y-106013333D01*
X136749285Y-106191905D01*
X136785000Y-106299047D01*
X136856428Y-106370476D01*
X136927857Y-106406190D01*
X137070714Y-106441905D01*
X137177857Y-106441905D01*
X137320714Y-106406190D01*
X137392142Y-106370476D01*
X137463571Y-106299047D01*
X137499285Y-106191905D01*
X137499285Y-106013333D01*
X137499285Y-106763333D02*
X136749285Y-106763333D01*
X137499285Y-107191905D02*
X137070714Y-106870476D01*
X136749285Y-107191905D02*
X137177857Y-106763333D01*
X136749285Y-107441905D02*
X137499285Y-107620476D01*
X136963571Y-107763333D01*
X137499285Y-107906190D01*
X136749285Y-108084762D01*
X137106428Y-108370476D02*
X137106428Y-108620476D01*
X137499285Y-108727619D02*
X137499285Y-108370476D01*
X136749285Y-108370476D01*
X136749285Y-108727619D01*
X140110714Y-105513333D02*
X140110714Y-106084762D01*
X139289285Y-106156190D02*
X139289285Y-106584762D01*
X140039285Y-106370476D02*
X139289285Y-106370476D01*
X140039285Y-107263333D02*
X139682142Y-107013333D01*
X140039285Y-106834762D02*
X139289285Y-106834762D01*
X139289285Y-107120476D01*
X139325000Y-107191905D01*
X139360714Y-107227619D01*
X139432142Y-107263333D01*
X139539285Y-107263333D01*
X139610714Y-107227619D01*
X139646428Y-107191905D01*
X139682142Y-107120476D01*
X139682142Y-106834762D01*
X140039285Y-107584762D02*
X139289285Y-107584762D01*
X140039285Y-108013333D02*
X139610714Y-107691905D01*
X139289285Y-108013333D02*
X139717857Y-107584762D01*
X139289285Y-108477619D02*
X139289285Y-108549047D01*
X139325000Y-108620476D01*
X139360714Y-108656190D01*
X139432142Y-108691905D01*
X139575000Y-108727619D01*
X139753571Y-108727619D01*
X139896428Y-108691905D01*
X139967857Y-108656190D01*
X140003571Y-108620476D01*
X140039285Y-108549047D01*
X140039285Y-108477619D01*
X140003571Y-108406190D01*
X139967857Y-108370476D01*
X139896428Y-108334762D01*
X139753571Y-108299047D01*
X139575000Y-108299047D01*
X139432142Y-108334762D01*
X139360714Y-108370476D01*
X139325000Y-108406190D01*
X139289285Y-108477619D01*
X147730714Y-105799047D02*
X147730714Y-106370476D01*
X147623571Y-106513333D02*
X147659285Y-106620476D01*
X147659285Y-106799047D01*
X147623571Y-106870476D01*
X147587857Y-106906190D01*
X147516428Y-106941904D01*
X147445000Y-106941904D01*
X147373571Y-106906190D01*
X147337857Y-106870476D01*
X147302142Y-106799047D01*
X147266428Y-106656190D01*
X147230714Y-106584762D01*
X147195000Y-106549047D01*
X147123571Y-106513333D01*
X147052142Y-106513333D01*
X146980714Y-106549047D01*
X146945000Y-106584762D01*
X146909285Y-106656190D01*
X146909285Y-106834762D01*
X146945000Y-106941904D01*
X147659285Y-107263333D02*
X146909285Y-107263333D01*
X147659285Y-107620476D02*
X146909285Y-107620476D01*
X146909285Y-107799047D01*
X146945000Y-107906190D01*
X147016428Y-107977619D01*
X147087857Y-108013333D01*
X147230714Y-108049047D01*
X147337857Y-108049047D01*
X147480714Y-108013333D01*
X147552142Y-107977619D01*
X147623571Y-107906190D01*
X147659285Y-107799047D01*
X147659285Y-107620476D01*
X147266428Y-108370476D02*
X147266428Y-108620476D01*
X147659285Y-108727619D02*
X147659285Y-108370476D01*
X146909285Y-108370476D01*
X146909285Y-108727619D01*
X150367904Y-107751619D02*
X150320285Y-107704000D01*
X150225047Y-107656380D01*
X149986952Y-107656380D01*
X149891714Y-107704000D01*
X149844095Y-107751619D01*
X149796476Y-107846857D01*
X149796476Y-107942095D01*
X149844095Y-108084952D01*
X150415523Y-108656380D01*
X149796476Y-108656380D01*
X148939333Y-107656380D02*
X149129809Y-107656380D01*
X149225047Y-107704000D01*
X149272666Y-107751619D01*
X149367904Y-107894476D01*
X149415523Y-108084952D01*
X149415523Y-108465904D01*
X149367904Y-108561142D01*
X149320285Y-108608761D01*
X149225047Y-108656380D01*
X149034571Y-108656380D01*
X148939333Y-108608761D01*
X148891714Y-108561142D01*
X148844095Y-108465904D01*
X148844095Y-108227809D01*
X148891714Y-108132571D01*
X148939333Y-108084952D01*
X149034571Y-108037333D01*
X149225047Y-108037333D01*
X149320285Y-108084952D01*
X149367904Y-108132571D01*
X149415523Y-108227809D01*
X115109523Y-96226380D02*
X114490476Y-96226380D01*
X114823809Y-96607333D01*
X114680952Y-96607333D01*
X114585714Y-96654952D01*
X114538095Y-96702571D01*
X114490476Y-96797809D01*
X114490476Y-97035904D01*
X114538095Y-97131142D01*
X114585714Y-97178761D01*
X114680952Y-97226380D01*
X114966666Y-97226380D01*
X115061904Y-97178761D01*
X115109523Y-97131142D01*
X113633333Y-96559714D02*
X113633333Y-97226380D01*
X113871428Y-96178761D02*
X114109523Y-96893047D01*
X113490476Y-96893047D01*
X98647285Y-93289380D02*
X99218714Y-93289380D01*
X98933000Y-93289380D02*
X98933000Y-92289380D01*
X99028238Y-92432238D01*
X99123476Y-92527476D01*
X99218714Y-92575095D01*
X109559285Y-94666714D02*
X108809285Y-94666714D01*
X109559285Y-95095285D01*
X108809285Y-95095285D01*
X109487857Y-95881000D02*
X109523571Y-95845285D01*
X109559285Y-95738142D01*
X109559285Y-95666714D01*
X109523571Y-95559571D01*
X109452142Y-95488142D01*
X109380714Y-95452428D01*
X109237857Y-95416714D01*
X109130714Y-95416714D01*
X108987857Y-95452428D01*
X108916428Y-95488142D01*
X108845000Y-95559571D01*
X108809285Y-95666714D01*
X108809285Y-95738142D01*
X108845000Y-95845285D01*
X108880714Y-95881000D01*
X103765000Y-95059571D02*
X103729285Y-94988142D01*
X103729285Y-94881000D01*
X103765000Y-94773857D01*
X103836428Y-94702428D01*
X103907857Y-94666714D01*
X104050714Y-94631000D01*
X104157857Y-94631000D01*
X104300714Y-94666714D01*
X104372142Y-94702428D01*
X104443571Y-94773857D01*
X104479285Y-94881000D01*
X104479285Y-94952428D01*
X104443571Y-95059571D01*
X104407857Y-95095285D01*
X104157857Y-95095285D01*
X104157857Y-94952428D01*
X104479285Y-95416714D02*
X103729285Y-95416714D01*
X104479285Y-95845285D01*
X103729285Y-95845285D01*
X104479285Y-96202428D02*
X103729285Y-96202428D01*
X103729285Y-96381000D01*
X103765000Y-96488142D01*
X103836428Y-96559571D01*
X103907857Y-96595285D01*
X104050714Y-96631000D01*
X104157857Y-96631000D01*
X104300714Y-96595285D01*
X104372142Y-96559571D01*
X104443571Y-96488142D01*
X104479285Y-96381000D01*
X104479285Y-96202428D01*
X106305000Y-95059571D02*
X106269285Y-94988142D01*
X106269285Y-94881000D01*
X106305000Y-94773857D01*
X106376428Y-94702428D01*
X106447857Y-94666714D01*
X106590714Y-94631000D01*
X106697857Y-94631000D01*
X106840714Y-94666714D01*
X106912142Y-94702428D01*
X106983571Y-94773857D01*
X107019285Y-94881000D01*
X107019285Y-94952428D01*
X106983571Y-95059571D01*
X106947857Y-95095285D01*
X106697857Y-95095285D01*
X106697857Y-94952428D01*
X107019285Y-95416714D02*
X106269285Y-95416714D01*
X107019285Y-95845285D01*
X106269285Y-95845285D01*
X107019285Y-96202428D02*
X106269285Y-96202428D01*
X106269285Y-96381000D01*
X106305000Y-96488142D01*
X106376428Y-96559571D01*
X106447857Y-96595285D01*
X106590714Y-96631000D01*
X106697857Y-96631000D01*
X106840714Y-96595285D01*
X106912142Y-96559571D01*
X106983571Y-96488142D01*
X107019285Y-96381000D01*
X107019285Y-96202428D01*
X101653571Y-94666714D02*
X101653571Y-95238142D01*
X101939285Y-94952428D02*
X101367857Y-94952428D01*
X101189285Y-95952428D02*
X101189285Y-95595285D01*
X101546428Y-95559571D01*
X101510714Y-95595285D01*
X101475000Y-95666714D01*
X101475000Y-95845285D01*
X101510714Y-95916714D01*
X101546428Y-95952428D01*
X101617857Y-95988142D01*
X101796428Y-95988142D01*
X101867857Y-95952428D01*
X101903571Y-95916714D01*
X101939285Y-95845285D01*
X101939285Y-95666714D01*
X101903571Y-95595285D01*
X101867857Y-95559571D01*
X101189285Y-96202428D02*
X101939285Y-96452428D01*
X101189285Y-96702428D01*
D11*
X115510000Y-113030000D02*
X115510000Y-114360000D01*
X115510000Y-114360000D02*
X116840000Y-114360000D01*
X115510000Y-111760000D02*
X118110000Y-111760000D01*
X118110000Y-111760000D02*
X118110000Y-114360000D01*
X118110000Y-114360000D02*
X148650000Y-114360000D01*
X148650000Y-109160000D02*
X148650000Y-114360000D01*
X115510000Y-109160000D02*
X148650000Y-109160000D01*
X115510000Y-109160000D02*
X115510000Y-111760000D01*
D12*
X149963142Y-111069523D02*
X150010761Y-111021904D01*
X150058380Y-110879047D01*
X150058380Y-110783809D01*
X150010761Y-110640952D01*
X149915523Y-110545714D01*
X149820285Y-110498095D01*
X149629809Y-110450476D01*
X149486952Y-110450476D01*
X149296476Y-110498095D01*
X149201238Y-110545714D01*
X149106000Y-110640952D01*
X149058380Y-110783809D01*
X149058380Y-110879047D01*
X149106000Y-111021904D01*
X149153619Y-111069523D01*
X150058380Y-111498095D02*
X149058380Y-111498095D01*
X150058380Y-112069523D01*
X149058380Y-112069523D01*
X150058380Y-113069523D02*
X150058380Y-112498095D01*
X150058380Y-112783809D02*
X149058380Y-112783809D01*
X149201238Y-112688571D01*
X149296476Y-112593333D01*
X149344095Y-112498095D01*
M02*
