G04 #@! TF.GenerationSoftware,KiCad,Pcbnew,(5.1.2)-2*
G04 #@! TF.CreationDate,2020-12-12T08:56:43+00:00*
G04 #@! TF.ProjectId,Amiga 34-pin to Citizen Slim 26-pin Adapter (Design B),416d6967-6120-4333-942d-70696e20746f,rev?*
G04 #@! TF.SameCoordinates,Original*
G04 #@! TF.FileFunction,Legend,Top*
G04 #@! TF.FilePolarity,Positive*
%FSLAX46Y46*%
G04 Gerber Fmt 4.6, Leading zero omitted, Abs format (unit mm)*
G04 Created by KiCad (PCBNEW (5.1.2)-2) date 2020-12-12 08:56:43*
%MOMM*%
%LPD*%
G04 APERTURE LIST*
%ADD10C,0.125000*%
%ADD11C,0.150000*%
%ADD12C,0.187500*%
%ADD13C,0.120000*%
G04 APERTURE END LIST*
D10*
X149963142Y-112450476D02*
X150010761Y-112498095D01*
X150058380Y-112640952D01*
X150058380Y-112736190D01*
X150010761Y-112879047D01*
X149915523Y-112974285D01*
X149820285Y-113021904D01*
X149629809Y-113069523D01*
X149486952Y-113069523D01*
X149296476Y-113021904D01*
X149201238Y-112974285D01*
X149106000Y-112879047D01*
X149058380Y-112736190D01*
X149058380Y-112640952D01*
X149106000Y-112498095D01*
X149153619Y-112450476D01*
X150058380Y-112021904D02*
X149058380Y-112021904D01*
X150058380Y-111450476D01*
X149058380Y-111450476D01*
X150058380Y-110450476D02*
X150058380Y-111021904D01*
X150058380Y-110736190D02*
X149058380Y-110736190D01*
X149201238Y-110831428D01*
X149296476Y-110926666D01*
X149344095Y-111021904D01*
D11*
X120382357Y-103173571D02*
X120453785Y-103209285D01*
X120596642Y-103209285D01*
X120668071Y-103173571D01*
X120703785Y-103102142D01*
X120703785Y-103066428D01*
X120668071Y-102995000D01*
X120596642Y-102959285D01*
X120489500Y-102959285D01*
X120418071Y-102923571D01*
X120382357Y-102852142D01*
X120382357Y-102816428D01*
X120418071Y-102745000D01*
X120489500Y-102709285D01*
X120596642Y-102709285D01*
X120668071Y-102745000D01*
X121132357Y-103209285D02*
X121060928Y-103173571D01*
X121025214Y-103137857D01*
X120989500Y-103066428D01*
X120989500Y-102852142D01*
X121025214Y-102780714D01*
X121060928Y-102745000D01*
X121132357Y-102709285D01*
X121239500Y-102709285D01*
X121310928Y-102745000D01*
X121346642Y-102780714D01*
X121382357Y-102852142D01*
X121382357Y-103066428D01*
X121346642Y-103137857D01*
X121310928Y-103173571D01*
X121239500Y-103209285D01*
X121132357Y-103209285D01*
X121810928Y-103209285D02*
X121739500Y-103173571D01*
X121703785Y-103102142D01*
X121703785Y-102459285D01*
X122418071Y-103209285D02*
X122418071Y-102816428D01*
X122382357Y-102745000D01*
X122310928Y-102709285D01*
X122168071Y-102709285D01*
X122096642Y-102745000D01*
X122418071Y-103173571D02*
X122346642Y-103209285D01*
X122168071Y-103209285D01*
X122096642Y-103173571D01*
X122060928Y-103102142D01*
X122060928Y-103030714D01*
X122096642Y-102959285D01*
X122168071Y-102923571D01*
X122346642Y-102923571D01*
X122418071Y-102887857D01*
X122775214Y-103209285D02*
X122775214Y-102709285D01*
X122775214Y-102852142D02*
X122810928Y-102780714D01*
X122846642Y-102745000D01*
X122918071Y-102709285D01*
X122989500Y-102709285D01*
X123239500Y-103209285D02*
X123239500Y-102709285D01*
X123239500Y-102780714D02*
X123275214Y-102745000D01*
X123346642Y-102709285D01*
X123453785Y-102709285D01*
X123525214Y-102745000D01*
X123560928Y-102816428D01*
X123560928Y-103209285D01*
X123560928Y-102816428D02*
X123596642Y-102745000D01*
X123668071Y-102709285D01*
X123775214Y-102709285D01*
X123846642Y-102745000D01*
X123882357Y-102816428D01*
X123882357Y-103209285D01*
X124346642Y-103209285D02*
X124275214Y-103173571D01*
X124239500Y-103137857D01*
X124203785Y-103066428D01*
X124203785Y-102852142D01*
X124239500Y-102780714D01*
X124275214Y-102745000D01*
X124346642Y-102709285D01*
X124453785Y-102709285D01*
X124525214Y-102745000D01*
X124560928Y-102780714D01*
X124596642Y-102852142D01*
X124596642Y-103066428D01*
X124560928Y-103137857D01*
X124525214Y-103173571D01*
X124453785Y-103209285D01*
X124346642Y-103209285D01*
X124918071Y-102709285D02*
X124918071Y-103209285D01*
X124918071Y-102780714D02*
X124953785Y-102745000D01*
X125025214Y-102709285D01*
X125132357Y-102709285D01*
X125203785Y-102745000D01*
X125239500Y-102816428D01*
X125239500Y-103209285D01*
X126132357Y-102530714D02*
X126168071Y-102495000D01*
X126239500Y-102459285D01*
X126418071Y-102459285D01*
X126489500Y-102495000D01*
X126525214Y-102530714D01*
X126560928Y-102602142D01*
X126560928Y-102673571D01*
X126525214Y-102780714D01*
X126096642Y-103209285D01*
X126560928Y-103209285D01*
X127025214Y-102459285D02*
X127096642Y-102459285D01*
X127168071Y-102495000D01*
X127203785Y-102530714D01*
X127239500Y-102602142D01*
X127275214Y-102745000D01*
X127275214Y-102923571D01*
X127239500Y-103066428D01*
X127203785Y-103137857D01*
X127168071Y-103173571D01*
X127096642Y-103209285D01*
X127025214Y-103209285D01*
X126953785Y-103173571D01*
X126918071Y-103137857D01*
X126882357Y-103066428D01*
X126846642Y-102923571D01*
X126846642Y-102745000D01*
X126882357Y-102602142D01*
X126918071Y-102530714D01*
X126953785Y-102495000D01*
X127025214Y-102459285D01*
X127560928Y-102530714D02*
X127596642Y-102495000D01*
X127668071Y-102459285D01*
X127846642Y-102459285D01*
X127918071Y-102495000D01*
X127953785Y-102530714D01*
X127989500Y-102602142D01*
X127989500Y-102673571D01*
X127953785Y-102780714D01*
X127525214Y-103209285D01*
X127989500Y-103209285D01*
X128453785Y-102459285D02*
X128525214Y-102459285D01*
X128596642Y-102495000D01*
X128632357Y-102530714D01*
X128668071Y-102602142D01*
X128703785Y-102745000D01*
X128703785Y-102923571D01*
X128668071Y-103066428D01*
X128632357Y-103137857D01*
X128596642Y-103173571D01*
X128525214Y-103209285D01*
X128453785Y-103209285D01*
X128382357Y-103173571D01*
X128346642Y-103137857D01*
X128310928Y-103066428D01*
X128275214Y-102923571D01*
X128275214Y-102745000D01*
X128310928Y-102602142D01*
X128346642Y-102530714D01*
X128382357Y-102495000D01*
X128453785Y-102459285D01*
X129596642Y-103209285D02*
X129596642Y-102459285D01*
X129918071Y-103209285D02*
X129918071Y-102816428D01*
X129882357Y-102745000D01*
X129810928Y-102709285D01*
X129703785Y-102709285D01*
X129632357Y-102745000D01*
X129596642Y-102780714D01*
X130168071Y-102709285D02*
X130453785Y-102709285D01*
X130275214Y-102459285D02*
X130275214Y-103102142D01*
X130310928Y-103173571D01*
X130382357Y-103209285D01*
X130453785Y-103209285D01*
X130596642Y-102709285D02*
X130882357Y-102709285D01*
X130703785Y-102459285D02*
X130703785Y-103102142D01*
X130739500Y-103173571D01*
X130810928Y-103209285D01*
X130882357Y-103209285D01*
X131132357Y-102709285D02*
X131132357Y-103459285D01*
X131132357Y-102745000D02*
X131203785Y-102709285D01*
X131346642Y-102709285D01*
X131418071Y-102745000D01*
X131453785Y-102780714D01*
X131489500Y-102852142D01*
X131489500Y-103066428D01*
X131453785Y-103137857D01*
X131418071Y-103173571D01*
X131346642Y-103209285D01*
X131203785Y-103209285D01*
X131132357Y-103173571D01*
X131775214Y-103173571D02*
X131846642Y-103209285D01*
X131989500Y-103209285D01*
X132060928Y-103173571D01*
X132096642Y-103102142D01*
X132096642Y-103066428D01*
X132060928Y-102995000D01*
X131989500Y-102959285D01*
X131882357Y-102959285D01*
X131810928Y-102923571D01*
X131775214Y-102852142D01*
X131775214Y-102816428D01*
X131810928Y-102745000D01*
X131882357Y-102709285D01*
X131989500Y-102709285D01*
X132060928Y-102745000D01*
X132418071Y-103137857D02*
X132453785Y-103173571D01*
X132418071Y-103209285D01*
X132382357Y-103173571D01*
X132418071Y-103137857D01*
X132418071Y-103209285D01*
X132418071Y-102745000D02*
X132453785Y-102780714D01*
X132418071Y-102816428D01*
X132382357Y-102780714D01*
X132418071Y-102745000D01*
X132418071Y-102816428D01*
X133310928Y-102423571D02*
X132668071Y-103387857D01*
X134096642Y-102423571D02*
X133453785Y-103387857D01*
X134668071Y-102709285D02*
X134668071Y-103316428D01*
X134632357Y-103387857D01*
X134596642Y-103423571D01*
X134525214Y-103459285D01*
X134418071Y-103459285D01*
X134346642Y-103423571D01*
X134668071Y-103173571D02*
X134596642Y-103209285D01*
X134453785Y-103209285D01*
X134382357Y-103173571D01*
X134346642Y-103137857D01*
X134310928Y-103066428D01*
X134310928Y-102852142D01*
X134346642Y-102780714D01*
X134382357Y-102745000D01*
X134453785Y-102709285D01*
X134596642Y-102709285D01*
X134668071Y-102745000D01*
X135025214Y-103209285D02*
X135025214Y-102709285D01*
X135025214Y-102459285D02*
X134989500Y-102495000D01*
X135025214Y-102530714D01*
X135060928Y-102495000D01*
X135025214Y-102459285D01*
X135025214Y-102530714D01*
X135275214Y-102709285D02*
X135560928Y-102709285D01*
X135382357Y-102459285D02*
X135382357Y-103102142D01*
X135418071Y-103173571D01*
X135489500Y-103209285D01*
X135560928Y-103209285D01*
X135810928Y-103209285D02*
X135810928Y-102459285D01*
X136132357Y-103209285D02*
X136132357Y-102816428D01*
X136096642Y-102745000D01*
X136025214Y-102709285D01*
X135918071Y-102709285D01*
X135846642Y-102745000D01*
X135810928Y-102780714D01*
X136810928Y-102709285D02*
X136810928Y-103209285D01*
X136489500Y-102709285D02*
X136489500Y-103102142D01*
X136525214Y-103173571D01*
X136596642Y-103209285D01*
X136703785Y-103209285D01*
X136775214Y-103173571D01*
X136810928Y-103137857D01*
X137168071Y-103209285D02*
X137168071Y-102459285D01*
X137168071Y-102745000D02*
X137239500Y-102709285D01*
X137382357Y-102709285D01*
X137453785Y-102745000D01*
X137489500Y-102780714D01*
X137525214Y-102852142D01*
X137525214Y-103066428D01*
X137489500Y-103137857D01*
X137453785Y-103173571D01*
X137382357Y-103209285D01*
X137239500Y-103209285D01*
X137168071Y-103173571D01*
X137846642Y-103137857D02*
X137882357Y-103173571D01*
X137846642Y-103209285D01*
X137810928Y-103173571D01*
X137846642Y-103137857D01*
X137846642Y-103209285D01*
X138525214Y-103173571D02*
X138453785Y-103209285D01*
X138310928Y-103209285D01*
X138239500Y-103173571D01*
X138203785Y-103137857D01*
X138168071Y-103066428D01*
X138168071Y-102852142D01*
X138203785Y-102780714D01*
X138239500Y-102745000D01*
X138310928Y-102709285D01*
X138453785Y-102709285D01*
X138525214Y-102745000D01*
X138953785Y-103209285D02*
X138882357Y-103173571D01*
X138846642Y-103137857D01*
X138810928Y-103066428D01*
X138810928Y-102852142D01*
X138846642Y-102780714D01*
X138882357Y-102745000D01*
X138953785Y-102709285D01*
X139060928Y-102709285D01*
X139132357Y-102745000D01*
X139168071Y-102780714D01*
X139203785Y-102852142D01*
X139203785Y-103066428D01*
X139168071Y-103137857D01*
X139132357Y-103173571D01*
X139060928Y-103209285D01*
X138953785Y-103209285D01*
X139525214Y-103209285D02*
X139525214Y-102709285D01*
X139525214Y-102780714D02*
X139560928Y-102745000D01*
X139632357Y-102709285D01*
X139739500Y-102709285D01*
X139810928Y-102745000D01*
X139846642Y-102816428D01*
X139846642Y-103209285D01*
X139846642Y-102816428D02*
X139882357Y-102745000D01*
X139953785Y-102709285D01*
X140060928Y-102709285D01*
X140132357Y-102745000D01*
X140168071Y-102816428D01*
X140168071Y-103209285D01*
X141060928Y-102423571D02*
X140418071Y-103387857D01*
X141275214Y-103173571D02*
X141346642Y-103209285D01*
X141489500Y-103209285D01*
X141560928Y-103173571D01*
X141596642Y-103102142D01*
X141596642Y-103066428D01*
X141560928Y-102995000D01*
X141489500Y-102959285D01*
X141382357Y-102959285D01*
X141310928Y-102923571D01*
X141275214Y-102852142D01*
X141275214Y-102816428D01*
X141310928Y-102745000D01*
X141382357Y-102709285D01*
X141489500Y-102709285D01*
X141560928Y-102745000D01*
X142025214Y-103209285D02*
X141953785Y-103173571D01*
X141918071Y-103137857D01*
X141882357Y-103066428D01*
X141882357Y-102852142D01*
X141918071Y-102780714D01*
X141953785Y-102745000D01*
X142025214Y-102709285D01*
X142132357Y-102709285D01*
X142203785Y-102745000D01*
X142239500Y-102780714D01*
X142275214Y-102852142D01*
X142275214Y-103066428D01*
X142239500Y-103137857D01*
X142203785Y-103173571D01*
X142132357Y-103209285D01*
X142025214Y-103209285D01*
X142703785Y-103209285D02*
X142632357Y-103173571D01*
X142596642Y-103102142D01*
X142596642Y-102459285D01*
X143310928Y-103209285D02*
X143310928Y-102816428D01*
X143275214Y-102745000D01*
X143203785Y-102709285D01*
X143060928Y-102709285D01*
X142989500Y-102745000D01*
X143310928Y-103173571D02*
X143239500Y-103209285D01*
X143060928Y-103209285D01*
X142989500Y-103173571D01*
X142953785Y-103102142D01*
X142953785Y-103030714D01*
X142989500Y-102959285D01*
X143060928Y-102923571D01*
X143239500Y-102923571D01*
X143310928Y-102887857D01*
X143668071Y-103209285D02*
X143668071Y-102709285D01*
X143668071Y-102852142D02*
X143703785Y-102780714D01*
X143739500Y-102745000D01*
X143810928Y-102709285D01*
X143882357Y-102709285D01*
X144132357Y-103209285D02*
X144132357Y-102709285D01*
X144132357Y-102780714D02*
X144168071Y-102745000D01*
X144239500Y-102709285D01*
X144346642Y-102709285D01*
X144418071Y-102745000D01*
X144453785Y-102816428D01*
X144453785Y-103209285D01*
X144453785Y-102816428D02*
X144489500Y-102745000D01*
X144560928Y-102709285D01*
X144668071Y-102709285D01*
X144739500Y-102745000D01*
X144775214Y-102816428D01*
X144775214Y-103209285D01*
X145239500Y-103209285D02*
X145168071Y-103173571D01*
X145132357Y-103137857D01*
X145096642Y-103066428D01*
X145096642Y-102852142D01*
X145132357Y-102780714D01*
X145168071Y-102745000D01*
X145239500Y-102709285D01*
X145346642Y-102709285D01*
X145418071Y-102745000D01*
X145453785Y-102780714D01*
X145489500Y-102852142D01*
X145489500Y-103066428D01*
X145453785Y-103137857D01*
X145418071Y-103173571D01*
X145346642Y-103209285D01*
X145239500Y-103209285D01*
X145810928Y-102709285D02*
X145810928Y-103209285D01*
X145810928Y-102780714D02*
X145846642Y-102745000D01*
X145918071Y-102709285D01*
X146025214Y-102709285D01*
X146096642Y-102745000D01*
X146132357Y-102816428D01*
X146132357Y-103209285D01*
D10*
X115093714Y-113482380D02*
X114522285Y-113482380D01*
X114808000Y-113482380D02*
X114808000Y-112482380D01*
X114712761Y-112625238D01*
X114617523Y-112720476D01*
X114522285Y-112768095D01*
X160305714Y-91638380D02*
X159734285Y-91638380D01*
X160020000Y-91638380D02*
X160020000Y-90638380D01*
X159924761Y-90781238D01*
X159829523Y-90876476D01*
X159734285Y-90924095D01*
D12*
X101552857Y-99862000D02*
X101910000Y-99862000D01*
X101481428Y-100076285D02*
X101731428Y-99326285D01*
X101981428Y-100076285D01*
X102231428Y-100076285D02*
X102231428Y-99576285D01*
X102231428Y-99647714D02*
X102267142Y-99612000D01*
X102338571Y-99576285D01*
X102445714Y-99576285D01*
X102517142Y-99612000D01*
X102552857Y-99683428D01*
X102552857Y-100076285D01*
X102552857Y-99683428D02*
X102588571Y-99612000D01*
X102660000Y-99576285D01*
X102767142Y-99576285D01*
X102838571Y-99612000D01*
X102874285Y-99683428D01*
X102874285Y-100076285D01*
X103231428Y-100076285D02*
X103231428Y-99576285D01*
X103231428Y-99326285D02*
X103195714Y-99362000D01*
X103231428Y-99397714D01*
X103267142Y-99362000D01*
X103231428Y-99326285D01*
X103231428Y-99397714D01*
X103910000Y-99576285D02*
X103910000Y-100183428D01*
X103874285Y-100254857D01*
X103838571Y-100290571D01*
X103767142Y-100326285D01*
X103660000Y-100326285D01*
X103588571Y-100290571D01*
X103910000Y-100040571D02*
X103838571Y-100076285D01*
X103695714Y-100076285D01*
X103624285Y-100040571D01*
X103588571Y-100004857D01*
X103552857Y-99933428D01*
X103552857Y-99719142D01*
X103588571Y-99647714D01*
X103624285Y-99612000D01*
X103695714Y-99576285D01*
X103838571Y-99576285D01*
X103910000Y-99612000D01*
X104588571Y-100076285D02*
X104588571Y-99683428D01*
X104552857Y-99612000D01*
X104481428Y-99576285D01*
X104338571Y-99576285D01*
X104267142Y-99612000D01*
X104588571Y-100040571D02*
X104517142Y-100076285D01*
X104338571Y-100076285D01*
X104267142Y-100040571D01*
X104231428Y-99969142D01*
X104231428Y-99897714D01*
X104267142Y-99826285D01*
X104338571Y-99790571D01*
X104517142Y-99790571D01*
X104588571Y-99754857D01*
X105445714Y-99326285D02*
X105910000Y-99326285D01*
X105660000Y-99612000D01*
X105767142Y-99612000D01*
X105838571Y-99647714D01*
X105874285Y-99683428D01*
X105910000Y-99754857D01*
X105910000Y-99933428D01*
X105874285Y-100004857D01*
X105838571Y-100040571D01*
X105767142Y-100076285D01*
X105552857Y-100076285D01*
X105481428Y-100040571D01*
X105445714Y-100004857D01*
X106552857Y-99576285D02*
X106552857Y-100076285D01*
X106374285Y-99290571D02*
X106195714Y-99826285D01*
X106660000Y-99826285D01*
X106945714Y-99790571D02*
X107517142Y-99790571D01*
X107874285Y-99576285D02*
X107874285Y-100326285D01*
X107874285Y-99612000D02*
X107945714Y-99576285D01*
X108088571Y-99576285D01*
X108160000Y-99612000D01*
X108195714Y-99647714D01*
X108231428Y-99719142D01*
X108231428Y-99933428D01*
X108195714Y-100004857D01*
X108160000Y-100040571D01*
X108088571Y-100076285D01*
X107945714Y-100076285D01*
X107874285Y-100040571D01*
X108552857Y-100076285D02*
X108552857Y-99576285D01*
X108552857Y-99326285D02*
X108517142Y-99362000D01*
X108552857Y-99397714D01*
X108588571Y-99362000D01*
X108552857Y-99326285D01*
X108552857Y-99397714D01*
X108910000Y-99576285D02*
X108910000Y-100076285D01*
X108910000Y-99647714D02*
X108945714Y-99612000D01*
X109017142Y-99576285D01*
X109124285Y-99576285D01*
X109195714Y-99612000D01*
X109231428Y-99683428D01*
X109231428Y-100076285D01*
X104927857Y-100888785D02*
X105213571Y-100888785D01*
X105035000Y-100638785D02*
X105035000Y-101281642D01*
X105070714Y-101353071D01*
X105142142Y-101388785D01*
X105213571Y-101388785D01*
X105570714Y-101388785D02*
X105499285Y-101353071D01*
X105463571Y-101317357D01*
X105427857Y-101245928D01*
X105427857Y-101031642D01*
X105463571Y-100960214D01*
X105499285Y-100924500D01*
X105570714Y-100888785D01*
X105677857Y-100888785D01*
X105749285Y-100924500D01*
X105785000Y-100960214D01*
X105820714Y-101031642D01*
X105820714Y-101245928D01*
X105785000Y-101317357D01*
X105749285Y-101353071D01*
X105677857Y-101388785D01*
X105570714Y-101388785D01*
X100267142Y-102629857D02*
X100231428Y-102665571D01*
X100124285Y-102701285D01*
X100052857Y-102701285D01*
X99945714Y-102665571D01*
X99874285Y-102594142D01*
X99838571Y-102522714D01*
X99802857Y-102379857D01*
X99802857Y-102272714D01*
X99838571Y-102129857D01*
X99874285Y-102058428D01*
X99945714Y-101987000D01*
X100052857Y-101951285D01*
X100124285Y-101951285D01*
X100231428Y-101987000D01*
X100267142Y-102022714D01*
X100588571Y-102701285D02*
X100588571Y-102201285D01*
X100588571Y-101951285D02*
X100552857Y-101987000D01*
X100588571Y-102022714D01*
X100624285Y-101987000D01*
X100588571Y-101951285D01*
X100588571Y-102022714D01*
X100838571Y-102201285D02*
X101124285Y-102201285D01*
X100945714Y-101951285D02*
X100945714Y-102594142D01*
X100981428Y-102665571D01*
X101052857Y-102701285D01*
X101124285Y-102701285D01*
X101374285Y-102701285D02*
X101374285Y-102201285D01*
X101374285Y-101951285D02*
X101338571Y-101987000D01*
X101374285Y-102022714D01*
X101410000Y-101987000D01*
X101374285Y-101951285D01*
X101374285Y-102022714D01*
X101660000Y-102201285D02*
X102052857Y-102201285D01*
X101660000Y-102701285D01*
X102052857Y-102701285D01*
X102624285Y-102665571D02*
X102552857Y-102701285D01*
X102410000Y-102701285D01*
X102338571Y-102665571D01*
X102302857Y-102594142D01*
X102302857Y-102308428D01*
X102338571Y-102237000D01*
X102410000Y-102201285D01*
X102552857Y-102201285D01*
X102624285Y-102237000D01*
X102660000Y-102308428D01*
X102660000Y-102379857D01*
X102302857Y-102451285D01*
X102981428Y-102201285D02*
X102981428Y-102701285D01*
X102981428Y-102272714D02*
X103017142Y-102237000D01*
X103088571Y-102201285D01*
X103195714Y-102201285D01*
X103267142Y-102237000D01*
X103302857Y-102308428D01*
X103302857Y-102701285D01*
X104195714Y-102665571D02*
X104302857Y-102701285D01*
X104481428Y-102701285D01*
X104552857Y-102665571D01*
X104588571Y-102629857D01*
X104624285Y-102558428D01*
X104624285Y-102487000D01*
X104588571Y-102415571D01*
X104552857Y-102379857D01*
X104481428Y-102344142D01*
X104338571Y-102308428D01*
X104267142Y-102272714D01*
X104231428Y-102237000D01*
X104195714Y-102165571D01*
X104195714Y-102094142D01*
X104231428Y-102022714D01*
X104267142Y-101987000D01*
X104338571Y-101951285D01*
X104517142Y-101951285D01*
X104624285Y-101987000D01*
X105052857Y-102701285D02*
X104981428Y-102665571D01*
X104945714Y-102594142D01*
X104945714Y-101951285D01*
X105338571Y-102701285D02*
X105338571Y-102201285D01*
X105338571Y-101951285D02*
X105302857Y-101987000D01*
X105338571Y-102022714D01*
X105374285Y-101987000D01*
X105338571Y-101951285D01*
X105338571Y-102022714D01*
X105695714Y-102701285D02*
X105695714Y-102201285D01*
X105695714Y-102272714D02*
X105731428Y-102237000D01*
X105802857Y-102201285D01*
X105910000Y-102201285D01*
X105981428Y-102237000D01*
X106017142Y-102308428D01*
X106017142Y-102701285D01*
X106017142Y-102308428D02*
X106052857Y-102237000D01*
X106124285Y-102201285D01*
X106231428Y-102201285D01*
X106302857Y-102237000D01*
X106338571Y-102308428D01*
X106338571Y-102701285D01*
X107231428Y-102022714D02*
X107267142Y-101987000D01*
X107338571Y-101951285D01*
X107517142Y-101951285D01*
X107588571Y-101987000D01*
X107624285Y-102022714D01*
X107660000Y-102094142D01*
X107660000Y-102165571D01*
X107624285Y-102272714D01*
X107195714Y-102701285D01*
X107660000Y-102701285D01*
X108302857Y-101951285D02*
X108160000Y-101951285D01*
X108088571Y-101987000D01*
X108052857Y-102022714D01*
X107981428Y-102129857D01*
X107945714Y-102272714D01*
X107945714Y-102558428D01*
X107981428Y-102629857D01*
X108017142Y-102665571D01*
X108088571Y-102701285D01*
X108231428Y-102701285D01*
X108302857Y-102665571D01*
X108338571Y-102629857D01*
X108374285Y-102558428D01*
X108374285Y-102379857D01*
X108338571Y-102308428D01*
X108302857Y-102272714D01*
X108231428Y-102237000D01*
X108088571Y-102237000D01*
X108017142Y-102272714D01*
X107981428Y-102308428D01*
X107945714Y-102379857D01*
X108695714Y-102415571D02*
X109267142Y-102415571D01*
X109624285Y-102201285D02*
X109624285Y-102951285D01*
X109624285Y-102237000D02*
X109695714Y-102201285D01*
X109838571Y-102201285D01*
X109910000Y-102237000D01*
X109945714Y-102272714D01*
X109981428Y-102344142D01*
X109981428Y-102558428D01*
X109945714Y-102629857D01*
X109910000Y-102665571D01*
X109838571Y-102701285D01*
X109695714Y-102701285D01*
X109624285Y-102665571D01*
X110302857Y-102701285D02*
X110302857Y-102201285D01*
X110302857Y-101951285D02*
X110267142Y-101987000D01*
X110302857Y-102022714D01*
X110338571Y-101987000D01*
X110302857Y-101951285D01*
X110302857Y-102022714D01*
X110660000Y-102201285D02*
X110660000Y-102701285D01*
X110660000Y-102272714D02*
X110695714Y-102237000D01*
X110767142Y-102201285D01*
X110874285Y-102201285D01*
X110945714Y-102237000D01*
X110981428Y-102308428D01*
X110981428Y-102701285D01*
X103445714Y-103799500D02*
X103802857Y-103799500D01*
X103374285Y-104013785D02*
X103624285Y-103263785D01*
X103874285Y-104013785D01*
X104445714Y-104013785D02*
X104445714Y-103263785D01*
X104445714Y-103978071D02*
X104374285Y-104013785D01*
X104231428Y-104013785D01*
X104160000Y-103978071D01*
X104124285Y-103942357D01*
X104088571Y-103870928D01*
X104088571Y-103656642D01*
X104124285Y-103585214D01*
X104160000Y-103549500D01*
X104231428Y-103513785D01*
X104374285Y-103513785D01*
X104445714Y-103549500D01*
X105124285Y-104013785D02*
X105124285Y-103620928D01*
X105088571Y-103549500D01*
X105017142Y-103513785D01*
X104874285Y-103513785D01*
X104802857Y-103549500D01*
X105124285Y-103978071D02*
X105052857Y-104013785D01*
X104874285Y-104013785D01*
X104802857Y-103978071D01*
X104767142Y-103906642D01*
X104767142Y-103835214D01*
X104802857Y-103763785D01*
X104874285Y-103728071D01*
X105052857Y-103728071D01*
X105124285Y-103692357D01*
X105481428Y-103513785D02*
X105481428Y-104263785D01*
X105481428Y-103549500D02*
X105552857Y-103513785D01*
X105695714Y-103513785D01*
X105767142Y-103549500D01*
X105802857Y-103585214D01*
X105838571Y-103656642D01*
X105838571Y-103870928D01*
X105802857Y-103942357D01*
X105767142Y-103978071D01*
X105695714Y-104013785D01*
X105552857Y-104013785D01*
X105481428Y-103978071D01*
X106052857Y-103513785D02*
X106338571Y-103513785D01*
X106160000Y-103263785D02*
X106160000Y-103906642D01*
X106195714Y-103978071D01*
X106267142Y-104013785D01*
X106338571Y-104013785D01*
X106874285Y-103978071D02*
X106802857Y-104013785D01*
X106660000Y-104013785D01*
X106588571Y-103978071D01*
X106552857Y-103906642D01*
X106552857Y-103620928D01*
X106588571Y-103549500D01*
X106660000Y-103513785D01*
X106802857Y-103513785D01*
X106874285Y-103549500D01*
X106910000Y-103620928D01*
X106910000Y-103692357D01*
X106552857Y-103763785D01*
X107231428Y-104013785D02*
X107231428Y-103513785D01*
X107231428Y-103656642D02*
X107267142Y-103585214D01*
X107302857Y-103549500D01*
X107374285Y-103513785D01*
X107445714Y-103513785D01*
X102785000Y-105612000D02*
X102749285Y-105576285D01*
X102677857Y-105469142D01*
X102642142Y-105397714D01*
X102606428Y-105290571D01*
X102570714Y-105112000D01*
X102570714Y-104969142D01*
X102606428Y-104790571D01*
X102642142Y-104683428D01*
X102677857Y-104612000D01*
X102749285Y-104504857D01*
X102785000Y-104469142D01*
X103070714Y-105326285D02*
X103070714Y-104576285D01*
X103249285Y-104576285D01*
X103356428Y-104612000D01*
X103427857Y-104683428D01*
X103463571Y-104754857D01*
X103499285Y-104897714D01*
X103499285Y-105004857D01*
X103463571Y-105147714D01*
X103427857Y-105219142D01*
X103356428Y-105290571D01*
X103249285Y-105326285D01*
X103070714Y-105326285D01*
X104106428Y-105290571D02*
X104035000Y-105326285D01*
X103892142Y-105326285D01*
X103820714Y-105290571D01*
X103785000Y-105219142D01*
X103785000Y-104933428D01*
X103820714Y-104862000D01*
X103892142Y-104826285D01*
X104035000Y-104826285D01*
X104106428Y-104862000D01*
X104142142Y-104933428D01*
X104142142Y-105004857D01*
X103785000Y-105076285D01*
X104427857Y-105290571D02*
X104499285Y-105326285D01*
X104642142Y-105326285D01*
X104713571Y-105290571D01*
X104749285Y-105219142D01*
X104749285Y-105183428D01*
X104713571Y-105112000D01*
X104642142Y-105076285D01*
X104535000Y-105076285D01*
X104463571Y-105040571D01*
X104427857Y-104969142D01*
X104427857Y-104933428D01*
X104463571Y-104862000D01*
X104535000Y-104826285D01*
X104642142Y-104826285D01*
X104713571Y-104862000D01*
X105070714Y-105326285D02*
X105070714Y-104826285D01*
X105070714Y-104576285D02*
X105035000Y-104612000D01*
X105070714Y-104647714D01*
X105106428Y-104612000D01*
X105070714Y-104576285D01*
X105070714Y-104647714D01*
X105749285Y-104826285D02*
X105749285Y-105433428D01*
X105713571Y-105504857D01*
X105677857Y-105540571D01*
X105606428Y-105576285D01*
X105499285Y-105576285D01*
X105427857Y-105540571D01*
X105749285Y-105290571D02*
X105677857Y-105326285D01*
X105535000Y-105326285D01*
X105463571Y-105290571D01*
X105427857Y-105254857D01*
X105392142Y-105183428D01*
X105392142Y-104969142D01*
X105427857Y-104897714D01*
X105463571Y-104862000D01*
X105535000Y-104826285D01*
X105677857Y-104826285D01*
X105749285Y-104862000D01*
X106106428Y-104826285D02*
X106106428Y-105326285D01*
X106106428Y-104897714D02*
X106142142Y-104862000D01*
X106213571Y-104826285D01*
X106320714Y-104826285D01*
X106392142Y-104862000D01*
X106427857Y-104933428D01*
X106427857Y-105326285D01*
X107606428Y-104933428D02*
X107713571Y-104969142D01*
X107749285Y-105004857D01*
X107785000Y-105076285D01*
X107785000Y-105183428D01*
X107749285Y-105254857D01*
X107713571Y-105290571D01*
X107642142Y-105326285D01*
X107356428Y-105326285D01*
X107356428Y-104576285D01*
X107606428Y-104576285D01*
X107677857Y-104612000D01*
X107713571Y-104647714D01*
X107749285Y-104719142D01*
X107749285Y-104790571D01*
X107713571Y-104862000D01*
X107677857Y-104897714D01*
X107606428Y-104933428D01*
X107356428Y-104933428D01*
X108035000Y-105612000D02*
X108070714Y-105576285D01*
X108142142Y-105469142D01*
X108177857Y-105397714D01*
X108213571Y-105290571D01*
X108249285Y-105112000D01*
X108249285Y-104969142D01*
X108213571Y-104790571D01*
X108177857Y-104683428D01*
X108142142Y-104612000D01*
X108070714Y-104504857D01*
X108035000Y-104469142D01*
D10*
X127410714Y-109124476D02*
X127410714Y-108553047D01*
X127339285Y-108374476D02*
X126589285Y-108374476D01*
X127125000Y-108124476D01*
X126589285Y-107874476D01*
X127339285Y-107874476D01*
X126589285Y-107624476D02*
X126589285Y-107195904D01*
X127339285Y-107410190D02*
X126589285Y-107410190D01*
X127339285Y-106517333D02*
X126982142Y-106767333D01*
X127339285Y-106945904D02*
X126589285Y-106945904D01*
X126589285Y-106660190D01*
X126625000Y-106588761D01*
X126660714Y-106553047D01*
X126732142Y-106517333D01*
X126839285Y-106517333D01*
X126910714Y-106553047D01*
X126946428Y-106588761D01*
X126982142Y-106660190D01*
X126982142Y-106945904D01*
X124870714Y-109124475D02*
X124870714Y-108553047D01*
X124799285Y-107945904D02*
X124442142Y-108195904D01*
X124799285Y-108374475D02*
X124049285Y-108374475D01*
X124049285Y-108088761D01*
X124085000Y-108017333D01*
X124120714Y-107981618D01*
X124192142Y-107945904D01*
X124299285Y-107945904D01*
X124370714Y-107981618D01*
X124406428Y-108017333D01*
X124442142Y-108088761D01*
X124442142Y-108374475D01*
X124799285Y-107624475D02*
X124049285Y-107624475D01*
X124049285Y-107445904D01*
X124085000Y-107338761D01*
X124156428Y-107267333D01*
X124227857Y-107231618D01*
X124370714Y-107195904D01*
X124477857Y-107195904D01*
X124620714Y-107231618D01*
X124692142Y-107267333D01*
X124763571Y-107338761D01*
X124799285Y-107445904D01*
X124799285Y-107624475D01*
X124442142Y-106731618D02*
X124799285Y-106731618D01*
X124049285Y-106981618D02*
X124442142Y-106731618D01*
X124049285Y-106481618D01*
X122330714Y-109124476D02*
X122330714Y-108553048D01*
X122187857Y-107945905D02*
X122223571Y-107981619D01*
X122259285Y-108088762D01*
X122259285Y-108160190D01*
X122223571Y-108267333D01*
X122152142Y-108338762D01*
X122080714Y-108374476D01*
X121937857Y-108410190D01*
X121830714Y-108410190D01*
X121687857Y-108374476D01*
X121616428Y-108338762D01*
X121545000Y-108267333D01*
X121509285Y-108160190D01*
X121509285Y-108088762D01*
X121545000Y-107981619D01*
X121580714Y-107945905D01*
X122259285Y-107624476D02*
X121509285Y-107624476D01*
X121866428Y-107624476D02*
X121866428Y-107195905D01*
X122259285Y-107195905D02*
X121509285Y-107195905D01*
X122259285Y-106838762D02*
X121509285Y-106838762D01*
X122259285Y-106410190D01*
X121509285Y-106410190D01*
X121545000Y-105660190D02*
X121509285Y-105731619D01*
X121509285Y-105838762D01*
X121545000Y-105945905D01*
X121616428Y-106017333D01*
X121687857Y-106053048D01*
X121830714Y-106088762D01*
X121937857Y-106088762D01*
X122080714Y-106053048D01*
X122152142Y-106017333D01*
X122223571Y-105945905D01*
X122259285Y-105838762D01*
X122259285Y-105767333D01*
X122223571Y-105660190D01*
X122187857Y-105624476D01*
X121937857Y-105624476D01*
X121937857Y-105767333D01*
X119790714Y-109124476D02*
X119790714Y-108553047D01*
X119683571Y-108410190D02*
X119719285Y-108303047D01*
X119719285Y-108124476D01*
X119683571Y-108053047D01*
X119647857Y-108017333D01*
X119576428Y-107981619D01*
X119505000Y-107981619D01*
X119433571Y-108017333D01*
X119397857Y-108053047D01*
X119362142Y-108124476D01*
X119326428Y-108267333D01*
X119290714Y-108338761D01*
X119255000Y-108374476D01*
X119183571Y-108410190D01*
X119112142Y-108410190D01*
X119040714Y-108374476D01*
X119005000Y-108338761D01*
X118969285Y-108267333D01*
X118969285Y-108088761D01*
X119005000Y-107981619D01*
X119326428Y-107660190D02*
X119326428Y-107410190D01*
X119719285Y-107303047D02*
X119719285Y-107660190D01*
X118969285Y-107660190D01*
X118969285Y-107303047D01*
X119719285Y-106624476D02*
X119719285Y-106981619D01*
X118969285Y-106981619D01*
X118969285Y-106231619D02*
X118969285Y-106160190D01*
X119005000Y-106088761D01*
X119040714Y-106053047D01*
X119112142Y-106017333D01*
X119255000Y-105981619D01*
X119433571Y-105981619D01*
X119576428Y-106017333D01*
X119647857Y-106053047D01*
X119683571Y-106088761D01*
X119719285Y-106160190D01*
X119719285Y-106231619D01*
X119683571Y-106303047D01*
X119647857Y-106338761D01*
X119576428Y-106374476D01*
X119433571Y-106410190D01*
X119255000Y-106410190D01*
X119112142Y-106374476D01*
X119040714Y-106338761D01*
X119005000Y-106303047D01*
X118969285Y-106231619D01*
X117250714Y-109124476D02*
X117250714Y-108553047D01*
X117179285Y-108374476D02*
X116429285Y-108374476D01*
X117179285Y-108017333D02*
X116429285Y-108017333D01*
X117179285Y-107588762D01*
X116429285Y-107588762D01*
X117179285Y-107231619D02*
X116429285Y-107231619D01*
X116429285Y-107053047D01*
X116465000Y-106945905D01*
X116536428Y-106874476D01*
X116607857Y-106838762D01*
X116750714Y-106803047D01*
X116857857Y-106803047D01*
X117000714Y-106838762D01*
X117072142Y-106874476D01*
X117143571Y-106945905D01*
X117179285Y-107053047D01*
X117179285Y-107231619D01*
X116786428Y-106481619D02*
X116786428Y-106231619D01*
X117179285Y-106124476D02*
X117179285Y-106481619D01*
X116429285Y-106481619D01*
X116429285Y-106124476D01*
X116429285Y-105874476D02*
X117179285Y-105374476D01*
X116429285Y-105374476D02*
X117179285Y-105874476D01*
X152739285Y-98534238D02*
X151989285Y-98534238D01*
X152739285Y-98105667D01*
X151989285Y-98105667D01*
X152667857Y-97319953D02*
X152703571Y-97355667D01*
X152739285Y-97462810D01*
X152739285Y-97534238D01*
X152703571Y-97641381D01*
X152632142Y-97712810D01*
X152560714Y-97748524D01*
X152417857Y-97784238D01*
X152310714Y-97784238D01*
X152167857Y-97748524D01*
X152096428Y-97712810D01*
X152025000Y-97641381D01*
X151989285Y-97534238D01*
X151989285Y-97462810D01*
X152025000Y-97355667D01*
X152060714Y-97319953D01*
X142579285Y-98534238D02*
X141829285Y-98534238D01*
X142579285Y-98105667D01*
X141829285Y-98105667D01*
X142507857Y-97319953D02*
X142543571Y-97355667D01*
X142579285Y-97462810D01*
X142579285Y-97534238D01*
X142543571Y-97641381D01*
X142472142Y-97712810D01*
X142400714Y-97748524D01*
X142257857Y-97784238D01*
X142150714Y-97784238D01*
X142007857Y-97748524D01*
X141936428Y-97712810D01*
X141865000Y-97641381D01*
X141829285Y-97534238D01*
X141829285Y-97462810D01*
X141865000Y-97355667D01*
X141900714Y-97319953D01*
X109559285Y-95845285D02*
X108809285Y-95845285D01*
X109559285Y-95416714D01*
X108809285Y-95416714D01*
X109487857Y-94631000D02*
X109523571Y-94666714D01*
X109559285Y-94773857D01*
X109559285Y-94845285D01*
X109523571Y-94952428D01*
X109452142Y-95023857D01*
X109380714Y-95059571D01*
X109237857Y-95095285D01*
X109130714Y-95095285D01*
X108987857Y-95059571D01*
X108916428Y-95023857D01*
X108845000Y-94952428D01*
X108809285Y-94845285D01*
X108809285Y-94773857D01*
X108845000Y-94666714D01*
X108880714Y-94631000D01*
X103765000Y-96202428D02*
X103729285Y-96273857D01*
X103729285Y-96381000D01*
X103765000Y-96488142D01*
X103836428Y-96559571D01*
X103907857Y-96595285D01*
X104050714Y-96631000D01*
X104157857Y-96631000D01*
X104300714Y-96595285D01*
X104372142Y-96559571D01*
X104443571Y-96488142D01*
X104479285Y-96381000D01*
X104479285Y-96309571D01*
X104443571Y-96202428D01*
X104407857Y-96166714D01*
X104157857Y-96166714D01*
X104157857Y-96309571D01*
X104479285Y-95845285D02*
X103729285Y-95845285D01*
X104479285Y-95416714D01*
X103729285Y-95416714D01*
X104479285Y-95059571D02*
X103729285Y-95059571D01*
X103729285Y-94881000D01*
X103765000Y-94773857D01*
X103836428Y-94702428D01*
X103907857Y-94666714D01*
X104050714Y-94631000D01*
X104157857Y-94631000D01*
X104300714Y-94666714D01*
X104372142Y-94702428D01*
X104443571Y-94773857D01*
X104479285Y-94881000D01*
X104479285Y-95059571D01*
X106305000Y-96202428D02*
X106269285Y-96273857D01*
X106269285Y-96381000D01*
X106305000Y-96488142D01*
X106376428Y-96559571D01*
X106447857Y-96595285D01*
X106590714Y-96631000D01*
X106697857Y-96631000D01*
X106840714Y-96595285D01*
X106912142Y-96559571D01*
X106983571Y-96488142D01*
X107019285Y-96381000D01*
X107019285Y-96309571D01*
X106983571Y-96202428D01*
X106947857Y-96166714D01*
X106697857Y-96166714D01*
X106697857Y-96309571D01*
X107019285Y-95845285D02*
X106269285Y-95845285D01*
X107019285Y-95416714D01*
X106269285Y-95416714D01*
X107019285Y-95059571D02*
X106269285Y-95059571D01*
X106269285Y-94881000D01*
X106305000Y-94773857D01*
X106376428Y-94702428D01*
X106447857Y-94666714D01*
X106590714Y-94631000D01*
X106697857Y-94631000D01*
X106840714Y-94666714D01*
X106912142Y-94702428D01*
X106983571Y-94773857D01*
X107019285Y-94881000D01*
X107019285Y-95059571D01*
X101653571Y-96722285D02*
X101653571Y-96150857D01*
X101939285Y-96436571D02*
X101367857Y-96436571D01*
X101189285Y-95436571D02*
X101189285Y-95793714D01*
X101546428Y-95829428D01*
X101510714Y-95793714D01*
X101475000Y-95722285D01*
X101475000Y-95543714D01*
X101510714Y-95472285D01*
X101546428Y-95436571D01*
X101617857Y-95400857D01*
X101796428Y-95400857D01*
X101867857Y-95436571D01*
X101903571Y-95472285D01*
X101939285Y-95543714D01*
X101939285Y-95722285D01*
X101903571Y-95793714D01*
X101867857Y-95829428D01*
X101189285Y-95186571D02*
X101939285Y-94936571D01*
X101189285Y-94686571D01*
X99218714Y-93289380D02*
X98647285Y-93289380D01*
X98933000Y-93289380D02*
X98933000Y-92289380D01*
X98837761Y-92432238D01*
X98742523Y-92527476D01*
X98647285Y-92575095D01*
X148844095Y-107751619D02*
X148891714Y-107704000D01*
X148986952Y-107656380D01*
X149225047Y-107656380D01*
X149320285Y-107704000D01*
X149367904Y-107751619D01*
X149415523Y-107846857D01*
X149415523Y-107942095D01*
X149367904Y-108084952D01*
X148796476Y-108656380D01*
X149415523Y-108656380D01*
X150272666Y-107656380D02*
X150082190Y-107656380D01*
X149986952Y-107704000D01*
X149939333Y-107751619D01*
X149844095Y-107894476D01*
X149796476Y-108084952D01*
X149796476Y-108465904D01*
X149844095Y-108561142D01*
X149891714Y-108608761D01*
X149986952Y-108656380D01*
X150177428Y-108656380D01*
X150272666Y-108608761D01*
X150320285Y-108561142D01*
X150367904Y-108465904D01*
X150367904Y-108227809D01*
X150320285Y-108132571D01*
X150272666Y-108084952D01*
X150177428Y-108037333D01*
X149986952Y-108037333D01*
X149891714Y-108084952D01*
X149844095Y-108132571D01*
X149796476Y-108227809D01*
X113490476Y-96226380D02*
X114109523Y-96226380D01*
X113776190Y-96607333D01*
X113919047Y-96607333D01*
X114014285Y-96654952D01*
X114061904Y-96702571D01*
X114109523Y-96797809D01*
X114109523Y-97035904D01*
X114061904Y-97131142D01*
X114014285Y-97178761D01*
X113919047Y-97226380D01*
X113633333Y-97226380D01*
X113538095Y-97178761D01*
X113490476Y-97131142D01*
X114966666Y-96559714D02*
X114966666Y-97226380D01*
X114728571Y-96178761D02*
X114490476Y-96893047D01*
X115109523Y-96893047D01*
X155350714Y-101069953D02*
X155350714Y-100498525D01*
X155279285Y-100319953D02*
X154529285Y-100319953D01*
X155279285Y-99962810D02*
X154529285Y-99962810D01*
X155279285Y-99534239D01*
X154529285Y-99534239D01*
X154529285Y-99177096D02*
X155136428Y-99177096D01*
X155207857Y-99141382D01*
X155243571Y-99105667D01*
X155279285Y-99034239D01*
X155279285Y-98891382D01*
X155243571Y-98819953D01*
X155207857Y-98784239D01*
X155136428Y-98748525D01*
X154529285Y-98748525D01*
X155243571Y-98427096D02*
X155279285Y-98319953D01*
X155279285Y-98141382D01*
X155243571Y-98069953D01*
X155207857Y-98034239D01*
X155136428Y-97998525D01*
X155065000Y-97998525D01*
X154993571Y-98034239D01*
X154957857Y-98069953D01*
X154922142Y-98141382D01*
X154886428Y-98284239D01*
X154850714Y-98355667D01*
X154815000Y-98391382D01*
X154743571Y-98427096D01*
X154672142Y-98427096D01*
X154600714Y-98391382D01*
X154565000Y-98355667D01*
X154529285Y-98284239D01*
X154529285Y-98105667D01*
X154565000Y-97998525D01*
X154886428Y-97677096D02*
X154886428Y-97427096D01*
X155279285Y-97319953D02*
X155279285Y-97677096D01*
X154529285Y-97677096D01*
X154529285Y-97319953D01*
X147730714Y-100462810D02*
X147730714Y-99891381D01*
X147623571Y-99748524D02*
X147659285Y-99641381D01*
X147659285Y-99462810D01*
X147623571Y-99391381D01*
X147587857Y-99355667D01*
X147516428Y-99319953D01*
X147445000Y-99319953D01*
X147373571Y-99355667D01*
X147337857Y-99391381D01*
X147302142Y-99462810D01*
X147266428Y-99605667D01*
X147230714Y-99677095D01*
X147195000Y-99712810D01*
X147123571Y-99748524D01*
X147052142Y-99748524D01*
X146980714Y-99712810D01*
X146945000Y-99677095D01*
X146909285Y-99605667D01*
X146909285Y-99427095D01*
X146945000Y-99319953D01*
X147266428Y-98998524D02*
X147266428Y-98748524D01*
X147659285Y-98641381D02*
X147659285Y-98998524D01*
X146909285Y-98998524D01*
X146909285Y-98641381D01*
X147659285Y-97962810D02*
X147659285Y-98319953D01*
X146909285Y-98319953D01*
X146909285Y-97569953D02*
X146909285Y-97498524D01*
X146945000Y-97427095D01*
X146980714Y-97391381D01*
X147052142Y-97355667D01*
X147195000Y-97319953D01*
X147373571Y-97319953D01*
X147516428Y-97355667D01*
X147587857Y-97391381D01*
X147623571Y-97427095D01*
X147659285Y-97498524D01*
X147659285Y-97569953D01*
X147623571Y-97641381D01*
X147587857Y-97677095D01*
X147516428Y-97712810D01*
X147373571Y-97748524D01*
X147195000Y-97748524D01*
X147052142Y-97712810D01*
X146980714Y-97677095D01*
X146945000Y-97641381D01*
X146909285Y-97569953D01*
X150270714Y-101034239D02*
X150270714Y-100462810D01*
X150199285Y-100284239D02*
X149449285Y-100284239D01*
X150199285Y-99927096D02*
X149449285Y-99927096D01*
X150199285Y-99498525D01*
X149449285Y-99498525D01*
X150199285Y-99141382D02*
X149449285Y-99141382D01*
X149449285Y-98962810D01*
X149485000Y-98855668D01*
X149556428Y-98784239D01*
X149627857Y-98748525D01*
X149770714Y-98712810D01*
X149877857Y-98712810D01*
X150020714Y-98748525D01*
X150092142Y-98784239D01*
X150163571Y-98855668D01*
X150199285Y-98962810D01*
X150199285Y-99141382D01*
X149806428Y-98391382D02*
X149806428Y-98141382D01*
X150199285Y-98034239D02*
X150199285Y-98391382D01*
X149449285Y-98391382D01*
X149449285Y-98034239D01*
X149449285Y-97784239D02*
X150199285Y-97284239D01*
X149449285Y-97284239D02*
X150199285Y-97784239D01*
X145190714Y-100462810D02*
X145190714Y-99891381D01*
X145083571Y-99748524D02*
X145119285Y-99641381D01*
X145119285Y-99462810D01*
X145083571Y-99391381D01*
X145047857Y-99355667D01*
X144976428Y-99319953D01*
X144905000Y-99319953D01*
X144833571Y-99355667D01*
X144797857Y-99391381D01*
X144762142Y-99462810D01*
X144726428Y-99605667D01*
X144690714Y-99677095D01*
X144655000Y-99712810D01*
X144583571Y-99748524D01*
X144512142Y-99748524D01*
X144440714Y-99712810D01*
X144405000Y-99677095D01*
X144369285Y-99605667D01*
X144369285Y-99427095D01*
X144405000Y-99319953D01*
X144726428Y-98998524D02*
X144726428Y-98748524D01*
X145119285Y-98641381D02*
X145119285Y-98998524D01*
X144369285Y-98998524D01*
X144369285Y-98641381D01*
X145119285Y-97962810D02*
X145119285Y-98319953D01*
X144369285Y-98319953D01*
X145119285Y-97319953D02*
X145119285Y-97748524D01*
X145119285Y-97534238D02*
X144369285Y-97534238D01*
X144476428Y-97605667D01*
X144547857Y-97677095D01*
X144583571Y-97748524D01*
X132490714Y-100855667D02*
X132490714Y-100284239D01*
X132419285Y-100105667D02*
X131669285Y-100105667D01*
X131669285Y-99927096D01*
X131705000Y-99819953D01*
X131776428Y-99748524D01*
X131847857Y-99712810D01*
X131990714Y-99677096D01*
X132097857Y-99677096D01*
X132240714Y-99712810D01*
X132312142Y-99748524D01*
X132383571Y-99819953D01*
X132419285Y-99927096D01*
X132419285Y-100105667D01*
X132419285Y-99355667D02*
X131669285Y-99355667D01*
X132419285Y-98927096D02*
X131990714Y-99248524D01*
X131669285Y-98927096D02*
X132097857Y-99355667D01*
X131669285Y-98677096D02*
X132419285Y-98498524D01*
X131883571Y-98355667D01*
X132419285Y-98212810D01*
X131669285Y-98034239D01*
X132419285Y-97748524D02*
X131669285Y-97748524D01*
X131669285Y-97569953D01*
X131705000Y-97462810D01*
X131776428Y-97391382D01*
X131847857Y-97355667D01*
X131990714Y-97319953D01*
X132097857Y-97319953D01*
X132240714Y-97355667D01*
X132312142Y-97391382D01*
X132383571Y-97462810D01*
X132419285Y-97569953D01*
X132419285Y-97748524D01*
X137499285Y-98855668D02*
X136749285Y-98855668D01*
X136749285Y-98677096D01*
X136785000Y-98569953D01*
X136856428Y-98498525D01*
X136927857Y-98462810D01*
X137070714Y-98427096D01*
X137177857Y-98427096D01*
X137320714Y-98462810D01*
X137392142Y-98498525D01*
X137463571Y-98569953D01*
X137499285Y-98677096D01*
X137499285Y-98855668D01*
X137499285Y-98105668D02*
X136749285Y-98105668D01*
X137499285Y-97319953D02*
X137142142Y-97569953D01*
X137499285Y-97748525D02*
X136749285Y-97748525D01*
X136749285Y-97462810D01*
X136785000Y-97391382D01*
X136820714Y-97355668D01*
X136892142Y-97319953D01*
X136999285Y-97319953D01*
X137070714Y-97355668D01*
X137106428Y-97391382D01*
X137142142Y-97462810D01*
X137142142Y-97748525D01*
X140110714Y-99927096D02*
X140110714Y-99355667D01*
X140039285Y-99177096D02*
X139289285Y-99177096D01*
X139825000Y-98927096D01*
X139289285Y-98677096D01*
X140039285Y-98677096D01*
X139289285Y-98427096D02*
X139289285Y-97998524D01*
X140039285Y-98212810D02*
X139289285Y-98212810D01*
X140039285Y-97319953D02*
X139682142Y-97569953D01*
X140039285Y-97748524D02*
X139289285Y-97748524D01*
X139289285Y-97462810D01*
X139325000Y-97391381D01*
X139360714Y-97355667D01*
X139432142Y-97319953D01*
X139539285Y-97319953D01*
X139610714Y-97355667D01*
X139646428Y-97391381D01*
X139682142Y-97462810D01*
X139682142Y-97748524D01*
X157890714Y-100819953D02*
X157890714Y-100248525D01*
X157747857Y-99641382D02*
X157783571Y-99677096D01*
X157819285Y-99784239D01*
X157819285Y-99855667D01*
X157783571Y-99962810D01*
X157712142Y-100034239D01*
X157640714Y-100069953D01*
X157497857Y-100105667D01*
X157390714Y-100105667D01*
X157247857Y-100069953D01*
X157176428Y-100034239D01*
X157105000Y-99962810D01*
X157069285Y-99855667D01*
X157069285Y-99784239D01*
X157105000Y-99677096D01*
X157140714Y-99641382D01*
X157819285Y-99319953D02*
X157069285Y-99319953D01*
X157426428Y-99319953D02*
X157426428Y-98891382D01*
X157819285Y-98891382D02*
X157069285Y-98891382D01*
X157819285Y-98534239D02*
X157069285Y-98534239D01*
X157819285Y-98105667D01*
X157069285Y-98105667D01*
X157105000Y-97355667D02*
X157069285Y-97427096D01*
X157069285Y-97534239D01*
X157105000Y-97641382D01*
X157176428Y-97712810D01*
X157247857Y-97748525D01*
X157390714Y-97784239D01*
X157497857Y-97784239D01*
X157640714Y-97748525D01*
X157712142Y-97712810D01*
X157783571Y-97641382D01*
X157819285Y-97534239D01*
X157819285Y-97462810D01*
X157783571Y-97355667D01*
X157747857Y-97319953D01*
X157497857Y-97319953D01*
X157497857Y-97462810D01*
X135030714Y-100462810D02*
X135030714Y-99891381D01*
X134923571Y-99748524D02*
X134959285Y-99641381D01*
X134959285Y-99462810D01*
X134923571Y-99391381D01*
X134887857Y-99355667D01*
X134816428Y-99319953D01*
X134745000Y-99319953D01*
X134673571Y-99355667D01*
X134637857Y-99391381D01*
X134602142Y-99462810D01*
X134566428Y-99605667D01*
X134530714Y-99677095D01*
X134495000Y-99712810D01*
X134423571Y-99748524D01*
X134352142Y-99748524D01*
X134280714Y-99712810D01*
X134245000Y-99677095D01*
X134209285Y-99605667D01*
X134209285Y-99427095D01*
X134245000Y-99319953D01*
X134209285Y-99105667D02*
X134209285Y-98677095D01*
X134959285Y-98891381D02*
X134209285Y-98891381D01*
X134566428Y-98427095D02*
X134566428Y-98177095D01*
X134959285Y-98069953D02*
X134959285Y-98427095D01*
X134209285Y-98427095D01*
X134209285Y-98069953D01*
X134959285Y-97748524D02*
X134209285Y-97748524D01*
X134209285Y-97462810D01*
X134245000Y-97391381D01*
X134280714Y-97355667D01*
X134352142Y-97319953D01*
X134459285Y-97319953D01*
X134530714Y-97355667D01*
X134566428Y-97391381D01*
X134602142Y-97462810D01*
X134602142Y-97748524D01*
X117250714Y-99891381D02*
X117250714Y-99319953D01*
X117179285Y-98712810D02*
X116822142Y-98962810D01*
X117179285Y-99141381D02*
X116429285Y-99141381D01*
X116429285Y-98855667D01*
X116465000Y-98784239D01*
X116500714Y-98748524D01*
X116572142Y-98712810D01*
X116679285Y-98712810D01*
X116750714Y-98748524D01*
X116786428Y-98784239D01*
X116822142Y-98855667D01*
X116822142Y-99141381D01*
X117179285Y-98391381D02*
X116429285Y-98391381D01*
X116429285Y-98212810D01*
X116465000Y-98105667D01*
X116536428Y-98034239D01*
X116607857Y-97998524D01*
X116750714Y-97962810D01*
X116857857Y-97962810D01*
X117000714Y-97998524D01*
X117072142Y-98034239D01*
X117143571Y-98105667D01*
X117179285Y-98212810D01*
X117179285Y-98391381D01*
X116822142Y-97498524D02*
X117179285Y-97498524D01*
X116429285Y-97748524D02*
X116822142Y-97498524D01*
X116429285Y-97248524D01*
X122330714Y-100748525D02*
X122330714Y-100177096D01*
X122259285Y-99998525D02*
X121509285Y-99998525D01*
X121509285Y-99819953D01*
X121545000Y-99712811D01*
X121616428Y-99641382D01*
X121687857Y-99605668D01*
X121830714Y-99569953D01*
X121937857Y-99569953D01*
X122080714Y-99605668D01*
X122152142Y-99641382D01*
X122223571Y-99712811D01*
X122259285Y-99819953D01*
X122259285Y-99998525D01*
X122259285Y-99248525D02*
X121509285Y-99248525D01*
X122259285Y-98819953D02*
X121830714Y-99141382D01*
X121509285Y-98819953D02*
X121937857Y-99248525D01*
X122259285Y-98069953D02*
X121902142Y-98319953D01*
X122259285Y-98498525D02*
X121509285Y-98498525D01*
X121509285Y-98212811D01*
X121545000Y-98141382D01*
X121580714Y-98105668D01*
X121652142Y-98069953D01*
X121759285Y-98069953D01*
X121830714Y-98105668D01*
X121866428Y-98141382D01*
X121902142Y-98212811D01*
X121902142Y-98498525D01*
X122259285Y-97748525D02*
X121509285Y-97748525D01*
X121509285Y-97569953D01*
X121545000Y-97462811D01*
X121616428Y-97391382D01*
X121687857Y-97355668D01*
X121830714Y-97319953D01*
X121937857Y-97319953D01*
X122080714Y-97355668D01*
X122152142Y-97391382D01*
X122223571Y-97462811D01*
X122259285Y-97569953D01*
X122259285Y-97748525D01*
X124870714Y-102212810D02*
X124870714Y-101641381D01*
X124049285Y-101534238D02*
X124799285Y-101355667D01*
X124263571Y-101212810D01*
X124799285Y-101069953D01*
X124049285Y-100891381D01*
X124799285Y-100177095D02*
X124442142Y-100427095D01*
X124799285Y-100605667D02*
X124049285Y-100605667D01*
X124049285Y-100319953D01*
X124085000Y-100248524D01*
X124120714Y-100212810D01*
X124192142Y-100177095D01*
X124299285Y-100177095D01*
X124370714Y-100212810D01*
X124406428Y-100248524D01*
X124442142Y-100319953D01*
X124442142Y-100605667D01*
X124799285Y-99855667D02*
X124049285Y-99855667D01*
X124049285Y-99569953D01*
X124085000Y-99498524D01*
X124120714Y-99462810D01*
X124192142Y-99427095D01*
X124299285Y-99427095D01*
X124370714Y-99462810D01*
X124406428Y-99498524D01*
X124442142Y-99569953D01*
X124442142Y-99855667D01*
X124799285Y-98677095D02*
X124442142Y-98927095D01*
X124799285Y-99105667D02*
X124049285Y-99105667D01*
X124049285Y-98819953D01*
X124085000Y-98748524D01*
X124120714Y-98712810D01*
X124192142Y-98677095D01*
X124299285Y-98677095D01*
X124370714Y-98712810D01*
X124406428Y-98748524D01*
X124442142Y-98819953D01*
X124442142Y-99105667D01*
X124049285Y-98212810D02*
X124049285Y-98069953D01*
X124085000Y-97998524D01*
X124156428Y-97927095D01*
X124299285Y-97891381D01*
X124549285Y-97891381D01*
X124692142Y-97927095D01*
X124763571Y-97998524D01*
X124799285Y-98069953D01*
X124799285Y-98212810D01*
X124763571Y-98284238D01*
X124692142Y-98355667D01*
X124549285Y-98391381D01*
X124299285Y-98391381D01*
X124156428Y-98355667D01*
X124085000Y-98284238D01*
X124049285Y-98212810D01*
X124049285Y-97677095D02*
X124049285Y-97248524D01*
X124799285Y-97462810D02*
X124049285Y-97462810D01*
X129950714Y-100784239D02*
X129950714Y-100212810D01*
X129879285Y-100034239D02*
X129129285Y-100034239D01*
X129129285Y-99855668D01*
X129165000Y-99748525D01*
X129236428Y-99677096D01*
X129307857Y-99641382D01*
X129450714Y-99605668D01*
X129557857Y-99605668D01*
X129700714Y-99641382D01*
X129772142Y-99677096D01*
X129843571Y-99748525D01*
X129879285Y-99855668D01*
X129879285Y-100034239D01*
X129879285Y-99284239D02*
X129129285Y-99284239D01*
X129879285Y-98855668D02*
X129450714Y-99177096D01*
X129129285Y-98855668D02*
X129557857Y-99284239D01*
X129129285Y-98605668D02*
X129879285Y-98427096D01*
X129343571Y-98284239D01*
X129879285Y-98141382D01*
X129129285Y-97962810D01*
X129486428Y-97677096D02*
X129486428Y-97427096D01*
X129879285Y-97319953D02*
X129879285Y-97677096D01*
X129129285Y-97677096D01*
X129129285Y-97319953D01*
X127410714Y-100534239D02*
X127410714Y-99962810D01*
X126589285Y-99891382D02*
X126589285Y-99462810D01*
X127339285Y-99677096D02*
X126589285Y-99677096D01*
X127339285Y-98784239D02*
X126982142Y-99034239D01*
X127339285Y-99212810D02*
X126589285Y-99212810D01*
X126589285Y-98927096D01*
X126625000Y-98855668D01*
X126660714Y-98819953D01*
X126732142Y-98784239D01*
X126839285Y-98784239D01*
X126910714Y-98819953D01*
X126946428Y-98855668D01*
X126982142Y-98927096D01*
X126982142Y-99212810D01*
X127339285Y-98462810D02*
X126589285Y-98462810D01*
X127339285Y-98034239D02*
X126910714Y-98355668D01*
X126589285Y-98034239D02*
X127017857Y-98462810D01*
X126589285Y-97569953D02*
X126589285Y-97498525D01*
X126625000Y-97427096D01*
X126660714Y-97391382D01*
X126732142Y-97355668D01*
X126875000Y-97319953D01*
X127053571Y-97319953D01*
X127196428Y-97355668D01*
X127267857Y-97391382D01*
X127303571Y-97427096D01*
X127339285Y-97498525D01*
X127339285Y-97569953D01*
X127303571Y-97641382D01*
X127267857Y-97677096D01*
X127196428Y-97712810D01*
X127053571Y-97748525D01*
X126875000Y-97748525D01*
X126732142Y-97712810D01*
X126660714Y-97677096D01*
X126625000Y-97641382D01*
X126589285Y-97569953D01*
X119790714Y-100248525D02*
X119790714Y-99677096D01*
X119683571Y-99534239D02*
X119719285Y-99427096D01*
X119719285Y-99248525D01*
X119683571Y-99177096D01*
X119647857Y-99141382D01*
X119576428Y-99105668D01*
X119505000Y-99105668D01*
X119433571Y-99141382D01*
X119397857Y-99177096D01*
X119362142Y-99248525D01*
X119326428Y-99391382D01*
X119290714Y-99462811D01*
X119255000Y-99498525D01*
X119183571Y-99534239D01*
X119112142Y-99534239D01*
X119040714Y-99498525D01*
X119005000Y-99462811D01*
X118969285Y-99391382D01*
X118969285Y-99212811D01*
X119005000Y-99105668D01*
X119719285Y-98784239D02*
X118969285Y-98784239D01*
X119719285Y-98427096D02*
X118969285Y-98427096D01*
X118969285Y-98248525D01*
X119005000Y-98141382D01*
X119076428Y-98069953D01*
X119147857Y-98034239D01*
X119290714Y-97998525D01*
X119397857Y-97998525D01*
X119540714Y-98034239D01*
X119612142Y-98069953D01*
X119683571Y-98141382D01*
X119719285Y-98248525D01*
X119719285Y-98427096D01*
X119326428Y-97677096D02*
X119326428Y-97427096D01*
X119719285Y-97319953D02*
X119719285Y-97677096D01*
X118969285Y-97677096D01*
X118969285Y-97319953D01*
X137570714Y-109124476D02*
X137570714Y-108553047D01*
X137499285Y-108374476D02*
X136749285Y-108374476D01*
X136749285Y-108195905D01*
X136785000Y-108088762D01*
X136856428Y-108017333D01*
X136927857Y-107981619D01*
X137070714Y-107945905D01*
X137177857Y-107945905D01*
X137320714Y-107981619D01*
X137392142Y-108017333D01*
X137463571Y-108088762D01*
X137499285Y-108195905D01*
X137499285Y-108374476D01*
X137499285Y-107624476D02*
X136749285Y-107624476D01*
X137499285Y-107195905D02*
X137070714Y-107517333D01*
X136749285Y-107195905D02*
X137177857Y-107624476D01*
X136749285Y-106945905D02*
X137499285Y-106767333D01*
X136963571Y-106624476D01*
X137499285Y-106481619D01*
X136749285Y-106303047D01*
X137106428Y-106017333D02*
X137106428Y-105767333D01*
X137499285Y-105660190D02*
X137499285Y-106017333D01*
X136749285Y-106017333D01*
X136749285Y-105660190D01*
X140110714Y-109124476D02*
X140110714Y-108553047D01*
X139289285Y-108481619D02*
X139289285Y-108053047D01*
X140039285Y-108267333D02*
X139289285Y-108267333D01*
X140039285Y-107374476D02*
X139682142Y-107624476D01*
X140039285Y-107803047D02*
X139289285Y-107803047D01*
X139289285Y-107517333D01*
X139325000Y-107445905D01*
X139360714Y-107410190D01*
X139432142Y-107374476D01*
X139539285Y-107374476D01*
X139610714Y-107410190D01*
X139646428Y-107445905D01*
X139682142Y-107517333D01*
X139682142Y-107803047D01*
X140039285Y-107053047D02*
X139289285Y-107053047D01*
X140039285Y-106624476D02*
X139610714Y-106945905D01*
X139289285Y-106624476D02*
X139717857Y-107053047D01*
X139289285Y-106160190D02*
X139289285Y-106088762D01*
X139325000Y-106017333D01*
X139360714Y-105981619D01*
X139432142Y-105945905D01*
X139575000Y-105910190D01*
X139753571Y-105910190D01*
X139896428Y-105945905D01*
X139967857Y-105981619D01*
X140003571Y-106017333D01*
X140039285Y-106088762D01*
X140039285Y-106160190D01*
X140003571Y-106231619D01*
X139967857Y-106267333D01*
X139896428Y-106303047D01*
X139753571Y-106338762D01*
X139575000Y-106338762D01*
X139432142Y-106303047D01*
X139360714Y-106267333D01*
X139325000Y-106231619D01*
X139289285Y-106160190D01*
X147730714Y-109124476D02*
X147730714Y-108553047D01*
X147623571Y-108410190D02*
X147659285Y-108303047D01*
X147659285Y-108124476D01*
X147623571Y-108053047D01*
X147587857Y-108017333D01*
X147516428Y-107981619D01*
X147445000Y-107981619D01*
X147373571Y-108017333D01*
X147337857Y-108053047D01*
X147302142Y-108124476D01*
X147266428Y-108267333D01*
X147230714Y-108338762D01*
X147195000Y-108374476D01*
X147123571Y-108410190D01*
X147052142Y-108410190D01*
X146980714Y-108374476D01*
X146945000Y-108338762D01*
X146909285Y-108267333D01*
X146909285Y-108088762D01*
X146945000Y-107981619D01*
X147659285Y-107660190D02*
X146909285Y-107660190D01*
X147659285Y-107303047D02*
X146909285Y-107303047D01*
X146909285Y-107124476D01*
X146945000Y-107017333D01*
X147016428Y-106945904D01*
X147087857Y-106910190D01*
X147230714Y-106874476D01*
X147337857Y-106874476D01*
X147480714Y-106910190D01*
X147552142Y-106945904D01*
X147623571Y-107017333D01*
X147659285Y-107124476D01*
X147659285Y-107303047D01*
X147266428Y-106553047D02*
X147266428Y-106303047D01*
X147659285Y-106195904D02*
X147659285Y-106553047D01*
X146909285Y-106553047D01*
X146909285Y-106195904D01*
X145190714Y-109124476D02*
X145190714Y-108553047D01*
X145119285Y-108374476D02*
X144369285Y-108374476D01*
X144369285Y-108195904D01*
X144405000Y-108088762D01*
X144476428Y-108017333D01*
X144547857Y-107981619D01*
X144690714Y-107945904D01*
X144797857Y-107945904D01*
X144940714Y-107981619D01*
X145012142Y-108017333D01*
X145083571Y-108088762D01*
X145119285Y-108195904D01*
X145119285Y-108374476D01*
X145119285Y-107624476D02*
X144369285Y-107624476D01*
X145119285Y-107195904D02*
X144690714Y-107517333D01*
X144369285Y-107195904D02*
X144797857Y-107624476D01*
X145119285Y-106445904D02*
X144762142Y-106695904D01*
X145119285Y-106874476D02*
X144369285Y-106874476D01*
X144369285Y-106588762D01*
X144405000Y-106517333D01*
X144440714Y-106481619D01*
X144512142Y-106445904D01*
X144619285Y-106445904D01*
X144690714Y-106481619D01*
X144726428Y-106517333D01*
X144762142Y-106588762D01*
X144762142Y-106874476D01*
X145119285Y-106124476D02*
X144369285Y-106124476D01*
X144369285Y-105945904D01*
X144405000Y-105838762D01*
X144476428Y-105767333D01*
X144547857Y-105731619D01*
X144690714Y-105695904D01*
X144797857Y-105695904D01*
X144940714Y-105731619D01*
X145012142Y-105767333D01*
X145083571Y-105838762D01*
X145119285Y-105945904D01*
X145119285Y-106124476D01*
X142650714Y-109124476D02*
X142650714Y-108553047D01*
X141829285Y-108445904D02*
X142579285Y-108267333D01*
X142043571Y-108124476D01*
X142579285Y-107981619D01*
X141829285Y-107803047D01*
X142579285Y-107088761D02*
X142222142Y-107338761D01*
X142579285Y-107517333D02*
X141829285Y-107517333D01*
X141829285Y-107231619D01*
X141865000Y-107160190D01*
X141900714Y-107124476D01*
X141972142Y-107088761D01*
X142079285Y-107088761D01*
X142150714Y-107124476D01*
X142186428Y-107160190D01*
X142222142Y-107231619D01*
X142222142Y-107517333D01*
X142579285Y-106767333D02*
X141829285Y-106767333D01*
X141829285Y-106481619D01*
X141865000Y-106410190D01*
X141900714Y-106374476D01*
X141972142Y-106338761D01*
X142079285Y-106338761D01*
X142150714Y-106374476D01*
X142186428Y-106410190D01*
X142222142Y-106481619D01*
X142222142Y-106767333D01*
X142579285Y-105588761D02*
X142222142Y-105838761D01*
X142579285Y-106017333D02*
X141829285Y-106017333D01*
X141829285Y-105731619D01*
X141865000Y-105660190D01*
X141900714Y-105624476D01*
X141972142Y-105588761D01*
X142079285Y-105588761D01*
X142150714Y-105624476D01*
X142186428Y-105660190D01*
X142222142Y-105731619D01*
X142222142Y-106017333D01*
X141829285Y-105124476D02*
X141829285Y-104981619D01*
X141865000Y-104910190D01*
X141936428Y-104838761D01*
X142079285Y-104803047D01*
X142329285Y-104803047D01*
X142472142Y-104838761D01*
X142543571Y-104910190D01*
X142579285Y-104981619D01*
X142579285Y-105124476D01*
X142543571Y-105195904D01*
X142472142Y-105267333D01*
X142329285Y-105303047D01*
X142079285Y-105303047D01*
X141936428Y-105267333D01*
X141865000Y-105195904D01*
X141829285Y-105124476D01*
X141829285Y-104588761D02*
X141829285Y-104160190D01*
X142579285Y-104374476D02*
X141829285Y-104374476D01*
X135030714Y-109124476D02*
X135030714Y-108553048D01*
X134959285Y-108374476D02*
X134209285Y-108374476D01*
X134209285Y-108195905D01*
X134245000Y-108088762D01*
X134316428Y-108017333D01*
X134387857Y-107981619D01*
X134530714Y-107945905D01*
X134637857Y-107945905D01*
X134780714Y-107981619D01*
X134852142Y-108017333D01*
X134923571Y-108088762D01*
X134959285Y-108195905D01*
X134959285Y-108374476D01*
X134959285Y-107624476D02*
X134209285Y-107624476D01*
X134959285Y-107195905D02*
X134530714Y-107517333D01*
X134209285Y-107195905D02*
X134637857Y-107624476D01*
X134209285Y-106945905D02*
X134959285Y-106767333D01*
X134423571Y-106624476D01*
X134959285Y-106481619D01*
X134209285Y-106303048D01*
X134959285Y-106017333D02*
X134209285Y-106017333D01*
X134209285Y-105838762D01*
X134245000Y-105731619D01*
X134316428Y-105660191D01*
X134387857Y-105624476D01*
X134530714Y-105588762D01*
X134637857Y-105588762D01*
X134780714Y-105624476D01*
X134852142Y-105660191D01*
X134923571Y-105731619D01*
X134959285Y-105838762D01*
X134959285Y-106017333D01*
X132490714Y-109124476D02*
X132490714Y-108553047D01*
X132383571Y-108410190D02*
X132419285Y-108303047D01*
X132419285Y-108124476D01*
X132383571Y-108053047D01*
X132347857Y-108017333D01*
X132276428Y-107981619D01*
X132205000Y-107981619D01*
X132133571Y-108017333D01*
X132097857Y-108053047D01*
X132062142Y-108124476D01*
X132026428Y-108267333D01*
X131990714Y-108338761D01*
X131955000Y-108374476D01*
X131883571Y-108410190D01*
X131812142Y-108410190D01*
X131740714Y-108374476D01*
X131705000Y-108338761D01*
X131669285Y-108267333D01*
X131669285Y-108088761D01*
X131705000Y-107981619D01*
X131669285Y-107767333D02*
X131669285Y-107338761D01*
X132419285Y-107553047D02*
X131669285Y-107553047D01*
X132026428Y-107088761D02*
X132026428Y-106838761D01*
X132419285Y-106731619D02*
X132419285Y-107088761D01*
X131669285Y-107088761D01*
X131669285Y-106731619D01*
X132419285Y-106410190D02*
X131669285Y-106410190D01*
X131669285Y-106124476D01*
X131705000Y-106053047D01*
X131740714Y-106017333D01*
X131812142Y-105981619D01*
X131919285Y-105981619D01*
X131990714Y-106017333D01*
X132026428Y-106053047D01*
X132062142Y-106124476D01*
X132062142Y-106410190D01*
X129879285Y-108945905D02*
X129129285Y-108945905D01*
X129129285Y-108767333D01*
X129165000Y-108660190D01*
X129236428Y-108588762D01*
X129307857Y-108553047D01*
X129450714Y-108517333D01*
X129557857Y-108517333D01*
X129700714Y-108553047D01*
X129772142Y-108588762D01*
X129843571Y-108660190D01*
X129879285Y-108767333D01*
X129879285Y-108945905D01*
X129879285Y-108195905D02*
X129129285Y-108195905D01*
X129879285Y-107410190D02*
X129522142Y-107660190D01*
X129879285Y-107838762D02*
X129129285Y-107838762D01*
X129129285Y-107553047D01*
X129165000Y-107481619D01*
X129200714Y-107445905D01*
X129272142Y-107410190D01*
X129379285Y-107410190D01*
X129450714Y-107445905D01*
X129486428Y-107481619D01*
X129522142Y-107553047D01*
X129522142Y-107838762D01*
D13*
X158810000Y-91380000D02*
X158810000Y-92710000D01*
X157480000Y-91380000D02*
X158810000Y-91380000D01*
X158810000Y-93980000D02*
X158810000Y-96580000D01*
X156210000Y-93980000D02*
X158810000Y-93980000D01*
X156210000Y-91380000D02*
X156210000Y-93980000D01*
X158810000Y-96580000D02*
X115510000Y-96580000D01*
X156210000Y-91380000D02*
X115510000Y-91380000D01*
X115510000Y-91380000D02*
X115510000Y-96580000D01*
X100330000Y-93980000D02*
X100330000Y-92710000D01*
X101600000Y-93980000D02*
X100330000Y-93980000D01*
X109600000Y-91667071D02*
X109600000Y-91270000D01*
X108840000Y-91667071D02*
X108840000Y-91270000D01*
X109600000Y-82610000D02*
X109600000Y-88610000D01*
X108840000Y-82610000D02*
X109600000Y-82610000D01*
X108840000Y-88610000D02*
X108840000Y-82610000D01*
X107950000Y-91270000D02*
X107950000Y-88610000D01*
X107060000Y-91667071D02*
X107060000Y-91270000D01*
X106300000Y-91667071D02*
X106300000Y-91270000D01*
X107060000Y-82610000D02*
X107060000Y-88610000D01*
X106300000Y-82610000D02*
X107060000Y-82610000D01*
X106300000Y-88610000D02*
X106300000Y-82610000D01*
X105410000Y-91270000D02*
X105410000Y-88610000D01*
X104520000Y-91667071D02*
X104520000Y-91270000D01*
X103760000Y-91667071D02*
X103760000Y-91270000D01*
X104520000Y-82610000D02*
X104520000Y-88610000D01*
X103760000Y-82610000D02*
X104520000Y-82610000D01*
X103760000Y-88610000D02*
X103760000Y-82610000D01*
X102870000Y-91270000D02*
X102870000Y-88610000D01*
X101980000Y-91600000D02*
X101980000Y-91270000D01*
X101220000Y-91600000D02*
X101220000Y-91270000D01*
X101880000Y-88610000D02*
X101880000Y-82610000D01*
X101760000Y-88610000D02*
X101760000Y-82610000D01*
X101640000Y-88610000D02*
X101640000Y-82610000D01*
X101520000Y-88610000D02*
X101520000Y-82610000D01*
X101400000Y-88610000D02*
X101400000Y-82610000D01*
X101280000Y-88610000D02*
X101280000Y-82610000D01*
X101980000Y-82610000D02*
X101980000Y-88610000D01*
X101220000Y-82610000D02*
X101980000Y-82610000D01*
X101220000Y-88610000D02*
X101220000Y-82610000D01*
X100270000Y-88610000D02*
X100270000Y-91270000D01*
X110550000Y-88610000D02*
X100270000Y-88610000D01*
X110550000Y-91270000D02*
X110550000Y-88610000D01*
X100270000Y-91270000D02*
X110550000Y-91270000D01*
D11*
X160885142Y-94670476D02*
X160932761Y-94718095D01*
X160980380Y-94860952D01*
X160980380Y-94956190D01*
X160932761Y-95099047D01*
X160837523Y-95194285D01*
X160742285Y-95241904D01*
X160551809Y-95289523D01*
X160408952Y-95289523D01*
X160218476Y-95241904D01*
X160123238Y-95194285D01*
X160028000Y-95099047D01*
X159980380Y-94956190D01*
X159980380Y-94860952D01*
X160028000Y-94718095D01*
X160075619Y-94670476D01*
X160980380Y-94241904D02*
X159980380Y-94241904D01*
X160980380Y-93670476D01*
X159980380Y-93670476D01*
X160075619Y-93241904D02*
X160028000Y-93194285D01*
X159980380Y-93099047D01*
X159980380Y-92860952D01*
X160028000Y-92765714D01*
X160075619Y-92718095D01*
X160170857Y-92670476D01*
X160266095Y-92670476D01*
X160408952Y-92718095D01*
X160980380Y-93289523D01*
X160980380Y-92670476D01*
X112117142Y-93400476D02*
X112164761Y-93448095D01*
X112212380Y-93590952D01*
X112212380Y-93686190D01*
X112164761Y-93829047D01*
X112069523Y-93924285D01*
X111974285Y-93971904D01*
X111783809Y-94019523D01*
X111640952Y-94019523D01*
X111450476Y-93971904D01*
X111355238Y-93924285D01*
X111260000Y-93829047D01*
X111212380Y-93686190D01*
X111212380Y-93590952D01*
X111260000Y-93448095D01*
X111307619Y-93400476D01*
X112212380Y-92971904D02*
X111212380Y-92971904D01*
X112212380Y-92400476D01*
X111212380Y-92400476D01*
X111212380Y-92019523D02*
X111212380Y-91400476D01*
X111593333Y-91733809D01*
X111593333Y-91590952D01*
X111640952Y-91495714D01*
X111688571Y-91448095D01*
X111783809Y-91400476D01*
X112021904Y-91400476D01*
X112117142Y-91448095D01*
X112164761Y-91495714D01*
X112212380Y-91590952D01*
X112212380Y-91876666D01*
X112164761Y-91971904D01*
X112117142Y-92019523D01*
M02*
