M48
INCH,TZ
T1C0.0394
%
G90
G05
T1
X40000Y-36500
X41000Y-36500
X42000Y-36500
X43000Y-36500
X46000Y-36500
X46000Y-37500
X47000Y-36500
X47000Y-37500
X48000Y-36500
X48000Y-37500
X49000Y-36500
X49000Y-37500
X50000Y-36500
X50000Y-37500
X51000Y-36500
X51000Y-37500
X52000Y-36500
X52000Y-37500
X53000Y-36500
X53000Y-37500
X54000Y-36500
X54000Y-37500
X55000Y-36500
X55000Y-37500
X56000Y-36500
X56000Y-37500
X57000Y-36500
X57000Y-37500
X58000Y-36500
X58000Y-37500
X59000Y-36500
X59000Y-37500
X60000Y-36500
X60000Y-37500
X61000Y-36500
X61000Y-37500
X62000Y-36500
X62000Y-37500
X46000Y-43500
X46000Y-44500
X47000Y-43500
X47000Y-44500
X48000Y-43500
X48000Y-44500
X49000Y-43500
X49000Y-44500
X50000Y-43500
X50000Y-44500
X51000Y-43500
X51000Y-44500
X52000Y-43500
X52000Y-44500
X53000Y-43500
X53000Y-44500
X54000Y-43500
X54000Y-44500
X55000Y-43500
X55000Y-44500
X56000Y-43500
X56000Y-44500
X57000Y-43500
X57000Y-44500
X58000Y-43500
X58000Y-44500
T0
M30
