G04 #@! TF.GenerationSoftware,KiCad,Pcbnew,(5.1.9)-1*
G04 #@! TF.CreationDate,2021-04-29T19:17:25+01:00*
G04 #@! TF.ProjectId,Roctec 26-pin to Gotek Adapter,526f6374-6563-4203-9236-2d70696e2074,rev?*
G04 #@! TF.SameCoordinates,Original*
G04 #@! TF.FileFunction,Legend,Bot*
G04 #@! TF.FilePolarity,Positive*
%FSLAX46Y46*%
G04 Gerber Fmt 4.6, Leading zero omitted, Abs format (unit mm)*
G04 Created by KiCad (PCBNEW (5.1.9)-1) date 2021-04-29 19:17:25*
%MOMM*%
%LPD*%
G01*
G04 APERTURE LIST*
%ADD10C,0.100000*%
%ADD11C,0.125000*%
G04 APERTURE END LIST*
D10*
X157272142Y-108253428D02*
X157272142Y-107653428D01*
X156929285Y-108253428D01*
X156929285Y-107653428D01*
X156557857Y-108253428D02*
X156615000Y-108224857D01*
X156643571Y-108196285D01*
X156672142Y-108139142D01*
X156672142Y-107967714D01*
X156643571Y-107910571D01*
X156615000Y-107882000D01*
X156557857Y-107853428D01*
X156472142Y-107853428D01*
X156415000Y-107882000D01*
X156386428Y-107910571D01*
X156357857Y-107967714D01*
X156357857Y-108139142D01*
X156386428Y-108196285D01*
X156415000Y-108224857D01*
X156472142Y-108253428D01*
X156557857Y-108253428D01*
X156186428Y-107853428D02*
X155957857Y-107853428D01*
X156100714Y-107653428D02*
X156100714Y-108167714D01*
X156072142Y-108224857D01*
X156015000Y-108253428D01*
X155957857Y-108253428D01*
X155529285Y-108224857D02*
X155586428Y-108253428D01*
X155700714Y-108253428D01*
X155757857Y-108224857D01*
X155786428Y-108167714D01*
X155786428Y-107939142D01*
X155757857Y-107882000D01*
X155700714Y-107853428D01*
X155586428Y-107853428D01*
X155529285Y-107882000D01*
X155500714Y-107939142D01*
X155500714Y-107996285D01*
X155786428Y-108053428D01*
X155243571Y-108196285D02*
X155215000Y-108224857D01*
X155243571Y-108253428D01*
X155272142Y-108224857D01*
X155243571Y-108196285D01*
X155243571Y-108253428D01*
X155243571Y-107882000D02*
X155215000Y-107910571D01*
X155243571Y-107939142D01*
X155272142Y-107910571D01*
X155243571Y-107882000D01*
X155243571Y-107939142D01*
X154300714Y-107939142D02*
X154500714Y-107939142D01*
X154500714Y-108253428D02*
X154500714Y-107653428D01*
X154215000Y-107653428D01*
X153900714Y-108253428D02*
X153957857Y-108224857D01*
X153986428Y-108167714D01*
X153986428Y-107653428D01*
X153586428Y-108253428D02*
X153643571Y-108224857D01*
X153672142Y-108196285D01*
X153700714Y-108139142D01*
X153700714Y-107967714D01*
X153672142Y-107910571D01*
X153643571Y-107882000D01*
X153586428Y-107853428D01*
X153500714Y-107853428D01*
X153443571Y-107882000D01*
X153415000Y-107910571D01*
X153386428Y-107967714D01*
X153386428Y-108139142D01*
X153415000Y-108196285D01*
X153443571Y-108224857D01*
X153500714Y-108253428D01*
X153586428Y-108253428D01*
X153129285Y-107853428D02*
X153129285Y-108453428D01*
X153129285Y-107882000D02*
X153072142Y-107853428D01*
X152957857Y-107853428D01*
X152900714Y-107882000D01*
X152872142Y-107910571D01*
X152843571Y-107967714D01*
X152843571Y-108139142D01*
X152872142Y-108196285D01*
X152900714Y-108224857D01*
X152957857Y-108253428D01*
X153072142Y-108253428D01*
X153129285Y-108224857D01*
X152586428Y-107853428D02*
X152586428Y-108453428D01*
X152586428Y-107882000D02*
X152529285Y-107853428D01*
X152415000Y-107853428D01*
X152357857Y-107882000D01*
X152329285Y-107910571D01*
X152300714Y-107967714D01*
X152300714Y-108139142D01*
X152329285Y-108196285D01*
X152357857Y-108224857D01*
X152415000Y-108253428D01*
X152529285Y-108253428D01*
X152586428Y-108224857D01*
X152100714Y-107853428D02*
X151957857Y-108253428D01*
X151815000Y-107853428D02*
X151957857Y-108253428D01*
X152015000Y-108396285D01*
X152043571Y-108424857D01*
X152100714Y-108453428D01*
X151129285Y-107853428D02*
X151129285Y-108453428D01*
X151129285Y-107882000D02*
X151072142Y-107853428D01*
X150957857Y-107853428D01*
X150900714Y-107882000D01*
X150872142Y-107910571D01*
X150843571Y-107967714D01*
X150843571Y-108139142D01*
X150872142Y-108196285D01*
X150900714Y-108224857D01*
X150957857Y-108253428D01*
X151072142Y-108253428D01*
X151129285Y-108224857D01*
X150500714Y-108253428D02*
X150557857Y-108224857D01*
X150586428Y-108196285D01*
X150615000Y-108139142D01*
X150615000Y-107967714D01*
X150586428Y-107910571D01*
X150557857Y-107882000D01*
X150500714Y-107853428D01*
X150415000Y-107853428D01*
X150357857Y-107882000D01*
X150329285Y-107910571D01*
X150300714Y-107967714D01*
X150300714Y-108139142D01*
X150329285Y-108196285D01*
X150357857Y-108224857D01*
X150415000Y-108253428D01*
X150500714Y-108253428D01*
X150100714Y-107853428D02*
X149986428Y-108253428D01*
X149872142Y-107967714D01*
X149757857Y-108253428D01*
X149643571Y-107853428D01*
X149186428Y-108224857D02*
X149243571Y-108253428D01*
X149357857Y-108253428D01*
X149415000Y-108224857D01*
X149443571Y-108167714D01*
X149443571Y-107939142D01*
X149415000Y-107882000D01*
X149357857Y-107853428D01*
X149243571Y-107853428D01*
X149186428Y-107882000D01*
X149157857Y-107939142D01*
X149157857Y-107996285D01*
X149443571Y-108053428D01*
X148900714Y-108253428D02*
X148900714Y-107853428D01*
X148900714Y-107967714D02*
X148872142Y-107910571D01*
X148843571Y-107882000D01*
X148786428Y-107853428D01*
X148729285Y-107853428D01*
X147815000Y-108224857D02*
X147872142Y-108253428D01*
X147986428Y-108253428D01*
X148043571Y-108224857D01*
X148072142Y-108196285D01*
X148100714Y-108139142D01*
X148100714Y-107967714D01*
X148072142Y-107910571D01*
X148043571Y-107882000D01*
X147986428Y-107853428D01*
X147872142Y-107853428D01*
X147815000Y-107882000D01*
X147472142Y-108253428D02*
X147529285Y-108224857D01*
X147557857Y-108196285D01*
X147586428Y-108139142D01*
X147586428Y-107967714D01*
X147557857Y-107910571D01*
X147529285Y-107882000D01*
X147472142Y-107853428D01*
X147386428Y-107853428D01*
X147329285Y-107882000D01*
X147300714Y-107910571D01*
X147272142Y-107967714D01*
X147272142Y-108139142D01*
X147300714Y-108196285D01*
X147329285Y-108224857D01*
X147386428Y-108253428D01*
X147472142Y-108253428D01*
X147015000Y-107853428D02*
X147015000Y-108253428D01*
X147015000Y-107910571D02*
X146986428Y-107882000D01*
X146929285Y-107853428D01*
X146843571Y-107853428D01*
X146786428Y-107882000D01*
X146757857Y-107939142D01*
X146757857Y-108253428D01*
X146472142Y-107853428D02*
X146472142Y-108253428D01*
X146472142Y-107910571D02*
X146443571Y-107882000D01*
X146386428Y-107853428D01*
X146300714Y-107853428D01*
X146243571Y-107882000D01*
X146215000Y-107939142D01*
X146215000Y-108253428D01*
X145700714Y-108224857D02*
X145757857Y-108253428D01*
X145872142Y-108253428D01*
X145929285Y-108224857D01*
X145957857Y-108167714D01*
X145957857Y-107939142D01*
X145929285Y-107882000D01*
X145872142Y-107853428D01*
X145757857Y-107853428D01*
X145700714Y-107882000D01*
X145672142Y-107939142D01*
X145672142Y-107996285D01*
X145957857Y-108053428D01*
X145157857Y-108224857D02*
X145215000Y-108253428D01*
X145329285Y-108253428D01*
X145386428Y-108224857D01*
X145415000Y-108196285D01*
X145443571Y-108139142D01*
X145443571Y-107967714D01*
X145415000Y-107910571D01*
X145386428Y-107882000D01*
X145329285Y-107853428D01*
X145215000Y-107853428D01*
X145157857Y-107882000D01*
X144986428Y-107853428D02*
X144757857Y-107853428D01*
X144900714Y-107653428D02*
X144900714Y-108167714D01*
X144872142Y-108224857D01*
X144815000Y-108253428D01*
X144757857Y-108253428D01*
X144472142Y-108253428D02*
X144529285Y-108224857D01*
X144557857Y-108196285D01*
X144586428Y-108139142D01*
X144586428Y-107967714D01*
X144557857Y-107910571D01*
X144529285Y-107882000D01*
X144472142Y-107853428D01*
X144386428Y-107853428D01*
X144329285Y-107882000D01*
X144300714Y-107910571D01*
X144272142Y-107967714D01*
X144272142Y-108139142D01*
X144300714Y-108196285D01*
X144329285Y-108224857D01*
X144386428Y-108253428D01*
X144472142Y-108253428D01*
X144015000Y-108253428D02*
X144015000Y-107853428D01*
X144015000Y-107967714D02*
X143986428Y-107910571D01*
X143957857Y-107882000D01*
X143900714Y-107853428D01*
X143843571Y-107853428D01*
X157272142Y-108853428D02*
X157272142Y-109253428D01*
X157272142Y-108910571D02*
X157243571Y-108882000D01*
X157186428Y-108853428D01*
X157100714Y-108853428D01*
X157043571Y-108882000D01*
X157015000Y-108939142D01*
X157015000Y-109253428D01*
X156500714Y-109224857D02*
X156557857Y-109253428D01*
X156672142Y-109253428D01*
X156729285Y-109224857D01*
X156757857Y-109167714D01*
X156757857Y-108939142D01*
X156729285Y-108882000D01*
X156672142Y-108853428D01*
X156557857Y-108853428D01*
X156500714Y-108882000D01*
X156472142Y-108939142D01*
X156472142Y-108996285D01*
X156757857Y-109053428D01*
X155986428Y-109224857D02*
X156043571Y-109253428D01*
X156157857Y-109253428D01*
X156215000Y-109224857D01*
X156243571Y-109167714D01*
X156243571Y-108939142D01*
X156215000Y-108882000D01*
X156157857Y-108853428D01*
X156043571Y-108853428D01*
X155986428Y-108882000D01*
X155957857Y-108939142D01*
X155957857Y-108996285D01*
X156243571Y-109053428D01*
X155443571Y-109253428D02*
X155443571Y-108653428D01*
X155443571Y-109224857D02*
X155500714Y-109253428D01*
X155615000Y-109253428D01*
X155672142Y-109224857D01*
X155700714Y-109196285D01*
X155729285Y-109139142D01*
X155729285Y-108967714D01*
X155700714Y-108910571D01*
X155672142Y-108882000D01*
X155615000Y-108853428D01*
X155500714Y-108853428D01*
X155443571Y-108882000D01*
X155186428Y-109224857D02*
X155129285Y-109253428D01*
X155015000Y-109253428D01*
X154957857Y-109224857D01*
X154929285Y-109167714D01*
X154929285Y-109139142D01*
X154957857Y-109082000D01*
X155015000Y-109053428D01*
X155100714Y-109053428D01*
X155157857Y-109024857D01*
X155186428Y-108967714D01*
X155186428Y-108939142D01*
X155157857Y-108882000D01*
X155100714Y-108853428D01*
X155015000Y-108853428D01*
X154957857Y-108882000D01*
X154300714Y-108853428D02*
X154072142Y-108853428D01*
X154215000Y-108653428D02*
X154215000Y-109167714D01*
X154186428Y-109224857D01*
X154129285Y-109253428D01*
X154072142Y-109253428D01*
X153786428Y-109253428D02*
X153843571Y-109224857D01*
X153872142Y-109196285D01*
X153900714Y-109139142D01*
X153900714Y-108967714D01*
X153872142Y-108910571D01*
X153843571Y-108882000D01*
X153786428Y-108853428D01*
X153700714Y-108853428D01*
X153643571Y-108882000D01*
X153615000Y-108910571D01*
X153586428Y-108967714D01*
X153586428Y-109139142D01*
X153615000Y-109196285D01*
X153643571Y-109224857D01*
X153700714Y-109253428D01*
X153786428Y-109253428D01*
X152872142Y-109253428D02*
X152872142Y-108653428D01*
X152872142Y-108882000D02*
X152815000Y-108853428D01*
X152700714Y-108853428D01*
X152643571Y-108882000D01*
X152615000Y-108910571D01*
X152586428Y-108967714D01*
X152586428Y-109139142D01*
X152615000Y-109196285D01*
X152643571Y-109224857D01*
X152700714Y-109253428D01*
X152815000Y-109253428D01*
X152872142Y-109224857D01*
X152100714Y-109224857D02*
X152157857Y-109253428D01*
X152272142Y-109253428D01*
X152329285Y-109224857D01*
X152357857Y-109167714D01*
X152357857Y-108939142D01*
X152329285Y-108882000D01*
X152272142Y-108853428D01*
X152157857Y-108853428D01*
X152100714Y-108882000D01*
X152072142Y-108939142D01*
X152072142Y-108996285D01*
X152357857Y-109053428D01*
X151357857Y-109253428D02*
X151357857Y-108853428D01*
X151357857Y-108967714D02*
X151329285Y-108910571D01*
X151300714Y-108882000D01*
X151243571Y-108853428D01*
X151186428Y-108853428D01*
X150729285Y-109253428D02*
X150729285Y-108939142D01*
X150757857Y-108882000D01*
X150815000Y-108853428D01*
X150929285Y-108853428D01*
X150986428Y-108882000D01*
X150729285Y-109224857D02*
X150786428Y-109253428D01*
X150929285Y-109253428D01*
X150986428Y-109224857D01*
X151015000Y-109167714D01*
X151015000Y-109110571D01*
X150986428Y-109053428D01*
X150929285Y-109024857D01*
X150786428Y-109024857D01*
X150729285Y-108996285D01*
X150443571Y-109253428D02*
X150443571Y-108853428D01*
X150443571Y-108653428D02*
X150472142Y-108682000D01*
X150443571Y-108710571D01*
X150415000Y-108682000D01*
X150443571Y-108653428D01*
X150443571Y-108710571D01*
X150186428Y-109224857D02*
X150129285Y-109253428D01*
X150015000Y-109253428D01*
X149957857Y-109224857D01*
X149929285Y-109167714D01*
X149929285Y-109139142D01*
X149957857Y-109082000D01*
X150015000Y-109053428D01*
X150100714Y-109053428D01*
X150157857Y-109024857D01*
X150186428Y-108967714D01*
X150186428Y-108939142D01*
X150157857Y-108882000D01*
X150100714Y-108853428D01*
X150015000Y-108853428D01*
X149957857Y-108882000D01*
X149443571Y-109224857D02*
X149500714Y-109253428D01*
X149615000Y-109253428D01*
X149672142Y-109224857D01*
X149700714Y-109167714D01*
X149700714Y-108939142D01*
X149672142Y-108882000D01*
X149615000Y-108853428D01*
X149500714Y-108853428D01*
X149443571Y-108882000D01*
X149415000Y-108939142D01*
X149415000Y-108996285D01*
X149700714Y-109053428D01*
X148900714Y-109253428D02*
X148900714Y-108653428D01*
X148900714Y-109224857D02*
X148957857Y-109253428D01*
X149072142Y-109253428D01*
X149129285Y-109224857D01*
X149157857Y-109196285D01*
X149186428Y-109139142D01*
X149186428Y-108967714D01*
X149157857Y-108910571D01*
X149129285Y-108882000D01*
X149072142Y-108853428D01*
X148957857Y-108853428D01*
X148900714Y-108882000D01*
X148243571Y-108853428D02*
X148015000Y-108853428D01*
X148157857Y-108653428D02*
X148157857Y-109167714D01*
X148129285Y-109224857D01*
X148072142Y-109253428D01*
X148015000Y-109253428D01*
X147729285Y-109253428D02*
X147786428Y-109224857D01*
X147815000Y-109196285D01*
X147843571Y-109139142D01*
X147843571Y-108967714D01*
X147815000Y-108910571D01*
X147786428Y-108882000D01*
X147729285Y-108853428D01*
X147643571Y-108853428D01*
X147586428Y-108882000D01*
X147557857Y-108910571D01*
X147529285Y-108967714D01*
X147529285Y-109139142D01*
X147557857Y-109196285D01*
X147586428Y-109224857D01*
X147643571Y-109253428D01*
X147729285Y-109253428D01*
X146557857Y-109253428D02*
X146557857Y-108939142D01*
X146586428Y-108882000D01*
X146643571Y-108853428D01*
X146757857Y-108853428D01*
X146815000Y-108882000D01*
X146557857Y-109224857D02*
X146615000Y-109253428D01*
X146757857Y-109253428D01*
X146815000Y-109224857D01*
X146843571Y-109167714D01*
X146843571Y-109110571D01*
X146815000Y-109053428D01*
X146757857Y-109024857D01*
X146615000Y-109024857D01*
X146557857Y-108996285D01*
X146272142Y-108853428D02*
X146272142Y-109253428D01*
X146272142Y-108910571D02*
X146243571Y-108882000D01*
X146186428Y-108853428D01*
X146100714Y-108853428D01*
X146043571Y-108882000D01*
X146015000Y-108939142D01*
X146015000Y-109253428D01*
X157015000Y-110253428D02*
X157015000Y-109939142D01*
X157043571Y-109882000D01*
X157100714Y-109853428D01*
X157215000Y-109853428D01*
X157272142Y-109882000D01*
X157015000Y-110224857D02*
X157072142Y-110253428D01*
X157215000Y-110253428D01*
X157272142Y-110224857D01*
X157300714Y-110167714D01*
X157300714Y-110110571D01*
X157272142Y-110053428D01*
X157215000Y-110024857D01*
X157072142Y-110024857D01*
X157015000Y-109996285D01*
X156729285Y-109853428D02*
X156729285Y-110453428D01*
X156729285Y-109882000D02*
X156672142Y-109853428D01*
X156557857Y-109853428D01*
X156500714Y-109882000D01*
X156472142Y-109910571D01*
X156443571Y-109967714D01*
X156443571Y-110139142D01*
X156472142Y-110196285D01*
X156500714Y-110224857D01*
X156557857Y-110253428D01*
X156672142Y-110253428D01*
X156729285Y-110224857D01*
X156186428Y-109853428D02*
X156186428Y-110453428D01*
X156186428Y-109882000D02*
X156129285Y-109853428D01*
X156015000Y-109853428D01*
X155957857Y-109882000D01*
X155929285Y-109910571D01*
X155900714Y-109967714D01*
X155900714Y-110139142D01*
X155929285Y-110196285D01*
X155957857Y-110224857D01*
X156015000Y-110253428D01*
X156129285Y-110253428D01*
X156186428Y-110224857D01*
X155643571Y-110253428D02*
X155643571Y-109853428D01*
X155643571Y-109967714D02*
X155615000Y-109910571D01*
X155586428Y-109882000D01*
X155529285Y-109853428D01*
X155472142Y-109853428D01*
X155186428Y-110253428D02*
X155243571Y-110224857D01*
X155272142Y-110196285D01*
X155300714Y-110139142D01*
X155300714Y-109967714D01*
X155272142Y-109910571D01*
X155243571Y-109882000D01*
X155186428Y-109853428D01*
X155100714Y-109853428D01*
X155043571Y-109882000D01*
X155015000Y-109910571D01*
X154986428Y-109967714D01*
X154986428Y-110139142D01*
X155015000Y-110196285D01*
X155043571Y-110224857D01*
X155100714Y-110253428D01*
X155186428Y-110253428D01*
X154729285Y-109853428D02*
X154729285Y-110453428D01*
X154729285Y-109882000D02*
X154672142Y-109853428D01*
X154557857Y-109853428D01*
X154500714Y-109882000D01*
X154472142Y-109910571D01*
X154443571Y-109967714D01*
X154443571Y-110139142D01*
X154472142Y-110196285D01*
X154500714Y-110224857D01*
X154557857Y-110253428D01*
X154672142Y-110253428D01*
X154729285Y-110224857D01*
X154186428Y-110253428D02*
X154186428Y-109853428D01*
X154186428Y-109967714D02*
X154157857Y-109910571D01*
X154129285Y-109882000D01*
X154072142Y-109853428D01*
X154015000Y-109853428D01*
X153815000Y-110253428D02*
X153815000Y-109853428D01*
X153815000Y-109653428D02*
X153843571Y-109682000D01*
X153815000Y-109710571D01*
X153786428Y-109682000D01*
X153815000Y-109653428D01*
X153815000Y-109710571D01*
X153272142Y-110253428D02*
X153272142Y-109939142D01*
X153300714Y-109882000D01*
X153357857Y-109853428D01*
X153472142Y-109853428D01*
X153529285Y-109882000D01*
X153272142Y-110224857D02*
X153329285Y-110253428D01*
X153472142Y-110253428D01*
X153529285Y-110224857D01*
X153557857Y-110167714D01*
X153557857Y-110110571D01*
X153529285Y-110053428D01*
X153472142Y-110024857D01*
X153329285Y-110024857D01*
X153272142Y-109996285D01*
X153072142Y-109853428D02*
X152843571Y-109853428D01*
X152986428Y-109653428D02*
X152986428Y-110167714D01*
X152957857Y-110224857D01*
X152900714Y-110253428D01*
X152843571Y-110253428D01*
X152415000Y-110224857D02*
X152472142Y-110253428D01*
X152586428Y-110253428D01*
X152643571Y-110224857D01*
X152672142Y-110167714D01*
X152672142Y-109939142D01*
X152643571Y-109882000D01*
X152586428Y-109853428D01*
X152472142Y-109853428D01*
X152415000Y-109882000D01*
X152386428Y-109939142D01*
X152386428Y-109996285D01*
X152672142Y-110053428D01*
X151672142Y-110253428D02*
X151672142Y-109653428D01*
X151415000Y-110253428D02*
X151415000Y-109939142D01*
X151443571Y-109882000D01*
X151500714Y-109853428D01*
X151586428Y-109853428D01*
X151643571Y-109882000D01*
X151672142Y-109910571D01*
X150900714Y-110224857D02*
X150957857Y-110253428D01*
X151072142Y-110253428D01*
X151129285Y-110224857D01*
X151157857Y-110167714D01*
X151157857Y-109939142D01*
X151129285Y-109882000D01*
X151072142Y-109853428D01*
X150957857Y-109853428D01*
X150900714Y-109882000D01*
X150872142Y-109939142D01*
X150872142Y-109996285D01*
X151157857Y-110053428D01*
X150615000Y-110253428D02*
X150615000Y-109853428D01*
X150615000Y-109653428D02*
X150643571Y-109682000D01*
X150615000Y-109710571D01*
X150586428Y-109682000D01*
X150615000Y-109653428D01*
X150615000Y-109710571D01*
X150072142Y-109853428D02*
X150072142Y-110339142D01*
X150100714Y-110396285D01*
X150129285Y-110424857D01*
X150186428Y-110453428D01*
X150272142Y-110453428D01*
X150329285Y-110424857D01*
X150072142Y-110224857D02*
X150129285Y-110253428D01*
X150243571Y-110253428D01*
X150300714Y-110224857D01*
X150329285Y-110196285D01*
X150357857Y-110139142D01*
X150357857Y-109967714D01*
X150329285Y-109910571D01*
X150300714Y-109882000D01*
X150243571Y-109853428D01*
X150129285Y-109853428D01*
X150072142Y-109882000D01*
X149786428Y-110253428D02*
X149786428Y-109653428D01*
X149529285Y-110253428D02*
X149529285Y-109939142D01*
X149557857Y-109882000D01*
X149615000Y-109853428D01*
X149700714Y-109853428D01*
X149757857Y-109882000D01*
X149786428Y-109910571D01*
X149329285Y-109853428D02*
X149100714Y-109853428D01*
X149243571Y-109653428D02*
X149243571Y-110167714D01*
X149215000Y-110224857D01*
X149157857Y-110253428D01*
X149100714Y-110253428D01*
X148443571Y-110253428D02*
X148443571Y-109653428D01*
X148443571Y-109882000D02*
X148386428Y-109853428D01*
X148272142Y-109853428D01*
X148215000Y-109882000D01*
X148186428Y-109910571D01*
X148157857Y-109967714D01*
X148157857Y-110139142D01*
X148186428Y-110196285D01*
X148215000Y-110224857D01*
X148272142Y-110253428D01*
X148386428Y-110253428D01*
X148443571Y-110224857D01*
X147672142Y-110224857D02*
X147729285Y-110253428D01*
X147843571Y-110253428D01*
X147900714Y-110224857D01*
X147929285Y-110167714D01*
X147929285Y-109939142D01*
X147900714Y-109882000D01*
X147843571Y-109853428D01*
X147729285Y-109853428D01*
X147672142Y-109882000D01*
X147643571Y-109939142D01*
X147643571Y-109996285D01*
X147929285Y-110053428D01*
X147472142Y-109853428D02*
X147243571Y-109853428D01*
X147386428Y-110253428D02*
X147386428Y-109739142D01*
X147357857Y-109682000D01*
X147300714Y-109653428D01*
X147243571Y-109653428D01*
X146957857Y-110253428D02*
X147015000Y-110224857D01*
X147043571Y-110196285D01*
X147072142Y-110139142D01*
X147072142Y-109967714D01*
X147043571Y-109910571D01*
X147015000Y-109882000D01*
X146957857Y-109853428D01*
X146872142Y-109853428D01*
X146815000Y-109882000D01*
X146786428Y-109910571D01*
X146757857Y-109967714D01*
X146757857Y-110139142D01*
X146786428Y-110196285D01*
X146815000Y-110224857D01*
X146872142Y-110253428D01*
X146957857Y-110253428D01*
X146500714Y-110253428D02*
X146500714Y-109853428D01*
X146500714Y-109967714D02*
X146472142Y-109910571D01*
X146443571Y-109882000D01*
X146386428Y-109853428D01*
X146329285Y-109853428D01*
X145900714Y-110224857D02*
X145957857Y-110253428D01*
X146072142Y-110253428D01*
X146129285Y-110224857D01*
X146157857Y-110167714D01*
X146157857Y-109939142D01*
X146129285Y-109882000D01*
X146072142Y-109853428D01*
X145957857Y-109853428D01*
X145900714Y-109882000D01*
X145872142Y-109939142D01*
X145872142Y-109996285D01*
X146157857Y-110053428D01*
X145186428Y-110224857D02*
X145129285Y-110253428D01*
X145015000Y-110253428D01*
X144957857Y-110224857D01*
X144929285Y-110167714D01*
X144929285Y-110139142D01*
X144957857Y-110082000D01*
X145015000Y-110053428D01*
X145100714Y-110053428D01*
X145157857Y-110024857D01*
X145186428Y-109967714D01*
X145186428Y-109939142D01*
X145157857Y-109882000D01*
X145100714Y-109853428D01*
X145015000Y-109853428D01*
X144957857Y-109882000D01*
X144586428Y-110253428D02*
X144643571Y-110224857D01*
X144672142Y-110196285D01*
X144700714Y-110139142D01*
X144700714Y-109967714D01*
X144672142Y-109910571D01*
X144643571Y-109882000D01*
X144586428Y-109853428D01*
X144500714Y-109853428D01*
X144443571Y-109882000D01*
X144415000Y-109910571D01*
X144386428Y-109967714D01*
X144386428Y-110139142D01*
X144415000Y-110196285D01*
X144443571Y-110224857D01*
X144500714Y-110253428D01*
X144586428Y-110253428D01*
X144043571Y-110253428D02*
X144100714Y-110224857D01*
X144129285Y-110167714D01*
X144129285Y-109653428D01*
X143557857Y-110253428D02*
X143557857Y-109653428D01*
X143557857Y-110224857D02*
X143615000Y-110253428D01*
X143729285Y-110253428D01*
X143786428Y-110224857D01*
X143815000Y-110196285D01*
X143843571Y-110139142D01*
X143843571Y-109967714D01*
X143815000Y-109910571D01*
X143786428Y-109882000D01*
X143729285Y-109853428D01*
X143615000Y-109853428D01*
X143557857Y-109882000D01*
X143043571Y-110224857D02*
X143100714Y-110253428D01*
X143215000Y-110253428D01*
X143272142Y-110224857D01*
X143300714Y-110167714D01*
X143300714Y-109939142D01*
X143272142Y-109882000D01*
X143215000Y-109853428D01*
X143100714Y-109853428D01*
X143043571Y-109882000D01*
X143015000Y-109939142D01*
X143015000Y-109996285D01*
X143300714Y-110053428D01*
X142757857Y-110253428D02*
X142757857Y-109853428D01*
X142757857Y-109967714D02*
X142729285Y-109910571D01*
X142700714Y-109882000D01*
X142643571Y-109853428D01*
X142586428Y-109853428D01*
X142386428Y-110253428D02*
X142386428Y-109853428D01*
X142386428Y-109653428D02*
X142415000Y-109682000D01*
X142386428Y-109710571D01*
X142357857Y-109682000D01*
X142386428Y-109653428D01*
X142386428Y-109710571D01*
X142100714Y-109853428D02*
X142100714Y-110253428D01*
X142100714Y-109910571D02*
X142072142Y-109882000D01*
X142015000Y-109853428D01*
X141929285Y-109853428D01*
X141872142Y-109882000D01*
X141843571Y-109939142D01*
X141843571Y-110253428D01*
X141300714Y-109853428D02*
X141300714Y-110339142D01*
X141329285Y-110396285D01*
X141357857Y-110424857D01*
X141415000Y-110453428D01*
X141500714Y-110453428D01*
X141557857Y-110424857D01*
X141300714Y-110224857D02*
X141357857Y-110253428D01*
X141472142Y-110253428D01*
X141529285Y-110224857D01*
X141557857Y-110196285D01*
X141586428Y-110139142D01*
X141586428Y-109967714D01*
X141557857Y-109910571D01*
X141529285Y-109882000D01*
X141472142Y-109853428D01*
X141357857Y-109853428D01*
X141300714Y-109882000D01*
X141015000Y-110196285D02*
X140986428Y-110224857D01*
X141015000Y-110253428D01*
X141043571Y-110224857D01*
X141015000Y-110196285D01*
X141015000Y-110253428D01*
X157100714Y-111482000D02*
X157129285Y-111453428D01*
X157186428Y-111367714D01*
X157215000Y-111310571D01*
X157243571Y-111224857D01*
X157272142Y-111082000D01*
X157272142Y-110967714D01*
X157243571Y-110824857D01*
X157215000Y-110739142D01*
X157186428Y-110682000D01*
X157129285Y-110596285D01*
X157100714Y-110567714D01*
X156529285Y-111196285D02*
X156557857Y-111224857D01*
X156643571Y-111253428D01*
X156700714Y-111253428D01*
X156786428Y-111224857D01*
X156843571Y-111167714D01*
X156872142Y-111110571D01*
X156900714Y-110996285D01*
X156900714Y-110910571D01*
X156872142Y-110796285D01*
X156843571Y-110739142D01*
X156786428Y-110682000D01*
X156700714Y-110653428D01*
X156643571Y-110653428D01*
X156557857Y-110682000D01*
X156529285Y-110710571D01*
X156186428Y-111253428D02*
X156243571Y-111224857D01*
X156272142Y-111196285D01*
X156300714Y-111139142D01*
X156300714Y-110967714D01*
X156272142Y-110910571D01*
X156243571Y-110882000D01*
X156186428Y-110853428D01*
X156100714Y-110853428D01*
X156043571Y-110882000D01*
X156015000Y-110910571D01*
X155986428Y-110967714D01*
X155986428Y-111139142D01*
X156015000Y-111196285D01*
X156043571Y-111224857D01*
X156100714Y-111253428D01*
X156186428Y-111253428D01*
X155729285Y-110853428D02*
X155729285Y-111253428D01*
X155729285Y-110910571D02*
X155700714Y-110882000D01*
X155643571Y-110853428D01*
X155557857Y-110853428D01*
X155500714Y-110882000D01*
X155472142Y-110939142D01*
X155472142Y-111253428D01*
X155186428Y-110853428D02*
X155186428Y-111253428D01*
X155186428Y-110910571D02*
X155157857Y-110882000D01*
X155100714Y-110853428D01*
X155015000Y-110853428D01*
X154957857Y-110882000D01*
X154929285Y-110939142D01*
X154929285Y-111253428D01*
X154415000Y-111224857D02*
X154472142Y-111253428D01*
X154586428Y-111253428D01*
X154643571Y-111224857D01*
X154672142Y-111167714D01*
X154672142Y-110939142D01*
X154643571Y-110882000D01*
X154586428Y-110853428D01*
X154472142Y-110853428D01*
X154415000Y-110882000D01*
X154386428Y-110939142D01*
X154386428Y-110996285D01*
X154672142Y-111053428D01*
X153872142Y-111224857D02*
X153929285Y-111253428D01*
X154043571Y-111253428D01*
X154100714Y-111224857D01*
X154129285Y-111196285D01*
X154157857Y-111139142D01*
X154157857Y-110967714D01*
X154129285Y-110910571D01*
X154100714Y-110882000D01*
X154043571Y-110853428D01*
X153929285Y-110853428D01*
X153872142Y-110882000D01*
X153700714Y-110853428D02*
X153472142Y-110853428D01*
X153614999Y-110653428D02*
X153614999Y-111167714D01*
X153586428Y-111224857D01*
X153529285Y-111253428D01*
X153472142Y-111253428D01*
X152900714Y-110853428D02*
X152672142Y-110853428D01*
X152814999Y-110653428D02*
X152814999Y-111167714D01*
X152786428Y-111224857D01*
X152729285Y-111253428D01*
X152672142Y-111253428D01*
X152386428Y-111253428D02*
X152443571Y-111224857D01*
X152472142Y-111196285D01*
X152500714Y-111139142D01*
X152500714Y-110967714D01*
X152472142Y-110910571D01*
X152443571Y-110882000D01*
X152386428Y-110853428D01*
X152300714Y-110853428D01*
X152243571Y-110882000D01*
X152214999Y-110910571D01*
X152186428Y-110967714D01*
X152186428Y-111139142D01*
X152214999Y-111196285D01*
X152243571Y-111224857D01*
X152300714Y-111253428D01*
X152386428Y-111253428D01*
X151157857Y-110682000D02*
X151214999Y-110653428D01*
X151300714Y-110653428D01*
X151386428Y-110682000D01*
X151443571Y-110739142D01*
X151472142Y-110796285D01*
X151500714Y-110910571D01*
X151500714Y-110996285D01*
X151472142Y-111110571D01*
X151443571Y-111167714D01*
X151386428Y-111224857D01*
X151300714Y-111253428D01*
X151243571Y-111253428D01*
X151157857Y-111224857D01*
X151129285Y-111196285D01*
X151129285Y-110996285D01*
X151243571Y-110996285D01*
X150786428Y-111253428D02*
X150843571Y-111224857D01*
X150872142Y-111196285D01*
X150900714Y-111139142D01*
X150900714Y-110967714D01*
X150872142Y-110910571D01*
X150843571Y-110882000D01*
X150786428Y-110853428D01*
X150700714Y-110853428D01*
X150643571Y-110882000D01*
X150614999Y-110910571D01*
X150586428Y-110967714D01*
X150586428Y-111139142D01*
X150614999Y-111196285D01*
X150643571Y-111224857D01*
X150700714Y-111253428D01*
X150786428Y-111253428D01*
X150414999Y-110853428D02*
X150186428Y-110853428D01*
X150329285Y-110653428D02*
X150329285Y-111167714D01*
X150300714Y-111224857D01*
X150243571Y-111253428D01*
X150186428Y-111253428D01*
X149757857Y-111224857D02*
X149814999Y-111253428D01*
X149929285Y-111253428D01*
X149986428Y-111224857D01*
X150014999Y-111167714D01*
X150014999Y-110939142D01*
X149986428Y-110882000D01*
X149929285Y-110853428D01*
X149814999Y-110853428D01*
X149757857Y-110882000D01*
X149729285Y-110939142D01*
X149729285Y-110996285D01*
X150014999Y-111053428D01*
X149472142Y-111253428D02*
X149472142Y-110653428D01*
X149414999Y-111024857D02*
X149243571Y-111253428D01*
X149243571Y-110853428D02*
X149472142Y-111082000D01*
X148614999Y-110853428D02*
X148386428Y-110853428D01*
X148529285Y-110653428D02*
X148529285Y-111167714D01*
X148500714Y-111224857D01*
X148443571Y-111253428D01*
X148386428Y-111253428D01*
X148100714Y-111253428D02*
X148157857Y-111224857D01*
X148186428Y-111196285D01*
X148214999Y-111139142D01*
X148214999Y-110967714D01*
X148186428Y-110910571D01*
X148157857Y-110882000D01*
X148100714Y-110853428D01*
X148014999Y-110853428D01*
X147957857Y-110882000D01*
X147929285Y-110910571D01*
X147900714Y-110967714D01*
X147900714Y-111139142D01*
X147929285Y-111196285D01*
X147957857Y-111224857D01*
X148014999Y-111253428D01*
X148100714Y-111253428D01*
X146929285Y-110853428D02*
X146929285Y-111339142D01*
X146957857Y-111396285D01*
X146986428Y-111424857D01*
X147043571Y-111453428D01*
X147129285Y-111453428D01*
X147186428Y-111424857D01*
X146929285Y-111224857D02*
X146986428Y-111253428D01*
X147100714Y-111253428D01*
X147157857Y-111224857D01*
X147186428Y-111196285D01*
X147214999Y-111139142D01*
X147214999Y-110967714D01*
X147186428Y-110910571D01*
X147157857Y-110882000D01*
X147100714Y-110853428D01*
X146986428Y-110853428D01*
X146929285Y-110882000D01*
X146414999Y-111224857D02*
X146472142Y-111253428D01*
X146586428Y-111253428D01*
X146643571Y-111224857D01*
X146672142Y-111167714D01*
X146672142Y-110939142D01*
X146643571Y-110882000D01*
X146586428Y-110853428D01*
X146472142Y-110853428D01*
X146414999Y-110882000D01*
X146386428Y-110939142D01*
X146386428Y-110996285D01*
X146672142Y-111053428D01*
X146214999Y-110853428D02*
X145986428Y-110853428D01*
X146129285Y-110653428D02*
X146129285Y-111167714D01*
X146100714Y-111224857D01*
X146043571Y-111253428D01*
X145986428Y-111253428D01*
X157015000Y-112224857D02*
X157072142Y-112253428D01*
X157186428Y-112253428D01*
X157243571Y-112224857D01*
X157272142Y-112196285D01*
X157300714Y-112139142D01*
X157300714Y-111967714D01*
X157272142Y-111910571D01*
X157243571Y-111882000D01*
X157186428Y-111853428D01*
X157072142Y-111853428D01*
X157015000Y-111882000D01*
X156672142Y-112253428D02*
X156729285Y-112224857D01*
X156757857Y-112196285D01*
X156786428Y-112139142D01*
X156786428Y-111967714D01*
X156757857Y-111910571D01*
X156729285Y-111882000D01*
X156672142Y-111853428D01*
X156586428Y-111853428D01*
X156529285Y-111882000D01*
X156500714Y-111910571D01*
X156472142Y-111967714D01*
X156472142Y-112139142D01*
X156500714Y-112196285D01*
X156529285Y-112224857D01*
X156586428Y-112253428D01*
X156672142Y-112253428D01*
X156215000Y-112253428D02*
X156215000Y-111853428D01*
X156215000Y-111967714D02*
X156186428Y-111910571D01*
X156157857Y-111882000D01*
X156100714Y-111853428D01*
X156043571Y-111853428D01*
X155843571Y-112253428D02*
X155843571Y-111853428D01*
X155843571Y-111967714D02*
X155815000Y-111910571D01*
X155786428Y-111882000D01*
X155729285Y-111853428D01*
X155672142Y-111853428D01*
X155243571Y-112224857D02*
X155300714Y-112253428D01*
X155415000Y-112253428D01*
X155472142Y-112224857D01*
X155500714Y-112167714D01*
X155500714Y-111939142D01*
X155472142Y-111882000D01*
X155415000Y-111853428D01*
X155300714Y-111853428D01*
X155243571Y-111882000D01*
X155215000Y-111939142D01*
X155215000Y-111996285D01*
X155500714Y-112053428D01*
X154700714Y-112224857D02*
X154757857Y-112253428D01*
X154872142Y-112253428D01*
X154929285Y-112224857D01*
X154957857Y-112196285D01*
X154986428Y-112139142D01*
X154986428Y-111967714D01*
X154957857Y-111910571D01*
X154929285Y-111882000D01*
X154872142Y-111853428D01*
X154757857Y-111853428D01*
X154700714Y-111882000D01*
X154529285Y-111853428D02*
X154300714Y-111853428D01*
X154443571Y-111653428D02*
X154443571Y-112167714D01*
X154415000Y-112224857D01*
X154357857Y-112253428D01*
X154300714Y-112253428D01*
X153643571Y-112253428D02*
X153643571Y-111653428D01*
X153386428Y-112253428D02*
X153386428Y-111939142D01*
X153415000Y-111882000D01*
X153472142Y-111853428D01*
X153557857Y-111853428D01*
X153615000Y-111882000D01*
X153643571Y-111910571D01*
X152872142Y-112224857D02*
X152929285Y-112253428D01*
X153043571Y-112253428D01*
X153100714Y-112224857D01*
X153129285Y-112167714D01*
X153129285Y-111939142D01*
X153100714Y-111882000D01*
X153043571Y-111853428D01*
X152929285Y-111853428D01*
X152872142Y-111882000D01*
X152843571Y-111939142D01*
X152843571Y-111996285D01*
X153129285Y-112053428D01*
X152586428Y-112253428D02*
X152586428Y-111853428D01*
X152586428Y-111653428D02*
X152615000Y-111682000D01*
X152586428Y-111710571D01*
X152557857Y-111682000D01*
X152586428Y-111653428D01*
X152586428Y-111710571D01*
X152043571Y-111853428D02*
X152043571Y-112339142D01*
X152072142Y-112396285D01*
X152100714Y-112424857D01*
X152157857Y-112453428D01*
X152243571Y-112453428D01*
X152300714Y-112424857D01*
X152043571Y-112224857D02*
X152100714Y-112253428D01*
X152215000Y-112253428D01*
X152272142Y-112224857D01*
X152300714Y-112196285D01*
X152329285Y-112139142D01*
X152329285Y-111967714D01*
X152300714Y-111910571D01*
X152272142Y-111882000D01*
X152215000Y-111853428D01*
X152100714Y-111853428D01*
X152043571Y-111882000D01*
X151757857Y-112253428D02*
X151757857Y-111653428D01*
X151500714Y-112253428D02*
X151500714Y-111939142D01*
X151529285Y-111882000D01*
X151586428Y-111853428D01*
X151672142Y-111853428D01*
X151729285Y-111882000D01*
X151757857Y-111910571D01*
X151300714Y-111853428D02*
X151072142Y-111853428D01*
X151215000Y-111653428D02*
X151215000Y-112167714D01*
X151186428Y-112224857D01*
X151129285Y-112253428D01*
X151072142Y-112253428D01*
X150872142Y-112196285D02*
X150843571Y-112224857D01*
X150872142Y-112253428D01*
X150900714Y-112224857D01*
X150872142Y-112196285D01*
X150872142Y-112253428D01*
X150643571Y-112482000D02*
X150615000Y-112453428D01*
X150557857Y-112367714D01*
X150529285Y-112310571D01*
X150500714Y-112224857D01*
X150472142Y-112082000D01*
X150472142Y-111967714D01*
X150500714Y-111824857D01*
X150529285Y-111739142D01*
X150557857Y-111682000D01*
X150615000Y-111596285D01*
X150643571Y-111567714D01*
D11*
X157434285Y-114131285D02*
X157434285Y-113381285D01*
X157005714Y-114131285D01*
X157005714Y-113381285D01*
X156220000Y-114059857D02*
X156255714Y-114095571D01*
X156362857Y-114131285D01*
X156434285Y-114131285D01*
X156541428Y-114095571D01*
X156612857Y-114024142D01*
X156648571Y-113952714D01*
X156684285Y-113809857D01*
X156684285Y-113702714D01*
X156648571Y-113559857D01*
X156612857Y-113488428D01*
X156541428Y-113417000D01*
X156434285Y-113381285D01*
X156362857Y-113381285D01*
X156255714Y-113417000D01*
X156220000Y-113452714D01*
X154876428Y-113417000D02*
X154947857Y-113381285D01*
X155055000Y-113381285D01*
X155162142Y-113417000D01*
X155233571Y-113488428D01*
X155269285Y-113559857D01*
X155305000Y-113702714D01*
X155305000Y-113809857D01*
X155269285Y-113952714D01*
X155233571Y-114024142D01*
X155162142Y-114095571D01*
X155055000Y-114131285D01*
X154983571Y-114131285D01*
X154876428Y-114095571D01*
X154840714Y-114059857D01*
X154840714Y-113809857D01*
X154983571Y-113809857D01*
X154519285Y-114131285D02*
X154519285Y-113381285D01*
X154090714Y-114131285D01*
X154090714Y-113381285D01*
X153733571Y-114131285D02*
X153733571Y-113381285D01*
X153555000Y-113381285D01*
X153447857Y-113417000D01*
X153376428Y-113488428D01*
X153340714Y-113559857D01*
X153305000Y-113702714D01*
X153305000Y-113809857D01*
X153340714Y-113952714D01*
X153376428Y-114024142D01*
X153447857Y-114095571D01*
X153555000Y-114131285D01*
X153733571Y-114131285D01*
X152336428Y-113417000D02*
X152407857Y-113381285D01*
X152515000Y-113381285D01*
X152622142Y-113417000D01*
X152693571Y-113488428D01*
X152729285Y-113559857D01*
X152765000Y-113702714D01*
X152765000Y-113809857D01*
X152729285Y-113952714D01*
X152693571Y-114024142D01*
X152622142Y-114095571D01*
X152515000Y-114131285D01*
X152443571Y-114131285D01*
X152336428Y-114095571D01*
X152300714Y-114059857D01*
X152300714Y-113809857D01*
X152443571Y-113809857D01*
X151979285Y-114131285D02*
X151979285Y-113381285D01*
X151550714Y-114131285D01*
X151550714Y-113381285D01*
X151193571Y-114131285D02*
X151193571Y-113381285D01*
X151015000Y-113381285D01*
X150907857Y-113417000D01*
X150836428Y-113488428D01*
X150800714Y-113559857D01*
X150765000Y-113702714D01*
X150765000Y-113809857D01*
X150800714Y-113952714D01*
X150836428Y-114024142D01*
X150907857Y-114095571D01*
X151015000Y-114131285D01*
X151193571Y-114131285D01*
X150062285Y-113845571D02*
X149490857Y-113845571D01*
X149776571Y-114131285D02*
X149776571Y-113559857D01*
X148776571Y-113381285D02*
X149133714Y-113381285D01*
X149169428Y-113738428D01*
X149133714Y-113702714D01*
X149062285Y-113667000D01*
X148883714Y-113667000D01*
X148812285Y-113702714D01*
X148776571Y-113738428D01*
X148740857Y-113809857D01*
X148740857Y-113988428D01*
X148776571Y-114059857D01*
X148812285Y-114095571D01*
X148883714Y-114131285D01*
X149062285Y-114131285D01*
X149133714Y-114095571D01*
X149169428Y-114059857D01*
X148526571Y-113381285D02*
X148276571Y-114131285D01*
X148026571Y-113381285D01*
X102409523Y-109942380D02*
X101790476Y-109942380D01*
X102123809Y-110323333D01*
X101980952Y-110323333D01*
X101885714Y-110370952D01*
X101838095Y-110418571D01*
X101790476Y-110513809D01*
X101790476Y-110751904D01*
X101838095Y-110847142D01*
X101885714Y-110894761D01*
X101980952Y-110942380D01*
X102266666Y-110942380D01*
X102361904Y-110894761D01*
X102409523Y-110847142D01*
X100933333Y-110275714D02*
X100933333Y-110942380D01*
X101171428Y-109894761D02*
X101409523Y-110609047D01*
X100790476Y-110609047D01*
X144113285Y-116657380D02*
X144684714Y-116657380D01*
X144399000Y-116657380D02*
X144399000Y-115657380D01*
X144494238Y-115800238D01*
X144589476Y-115895476D01*
X144684714Y-115943095D01*
X104235285Y-111196380D02*
X104806714Y-111196380D01*
X104521000Y-111196380D02*
X104521000Y-110196380D01*
X104616238Y-110339238D01*
X104711476Y-110434476D01*
X104806714Y-110482095D01*
X140461904Y-107497619D02*
X140414285Y-107450000D01*
X140319047Y-107402380D01*
X140080952Y-107402380D01*
X139985714Y-107450000D01*
X139938095Y-107497619D01*
X139890476Y-107592857D01*
X139890476Y-107688095D01*
X139938095Y-107830952D01*
X140509523Y-108402380D01*
X139890476Y-108402380D01*
X139033333Y-107402380D02*
X139223809Y-107402380D01*
X139319047Y-107450000D01*
X139366666Y-107497619D01*
X139461904Y-107640476D01*
X139509523Y-107830952D01*
X139509523Y-108211904D01*
X139461904Y-108307142D01*
X139414285Y-108354761D01*
X139319047Y-108402380D01*
X139128571Y-108402380D01*
X139033333Y-108354761D01*
X138985714Y-108307142D01*
X138938095Y-108211904D01*
X138938095Y-107973809D01*
X138985714Y-107878571D01*
X139033333Y-107830952D01*
X139128571Y-107783333D01*
X139319047Y-107783333D01*
X139414285Y-107830952D01*
X139461904Y-107878571D01*
X139509523Y-107973809D01*
X147034285Y-116022380D02*
X147605714Y-116022380D01*
X147320000Y-116022380D02*
X147320000Y-115022380D01*
X147415238Y-115165238D01*
X147510476Y-115260476D01*
X147605714Y-115308095D01*
M02*
