G04 #@! TF.GenerationSoftware,KiCad,Pcbnew,(5.1.9)-1*
G04 #@! TF.CreationDate,2021-04-29T19:17:25+01:00*
G04 #@! TF.ProjectId,Roctec 26-pin to Gotek Adapter,526f6374-6563-4203-9236-2d70696e2074,rev?*
G04 #@! TF.SameCoordinates,Original*
G04 #@! TF.FileFunction,Copper,L2,Bot*
G04 #@! TF.FilePolarity,Positive*
%FSLAX46Y46*%
G04 Gerber Fmt 4.6, Leading zero omitted, Abs format (unit mm)*
G04 Created by KiCad (PCBNEW (5.1.9)-1) date 2021-04-29 19:17:25*
%MOMM*%
%LPD*%
G01*
G04 APERTURE LIST*
G04 #@! TA.AperFunction,ComponentPad*
%ADD10R,1.700000X1.700000*%
G04 #@! TD*
G04 #@! TA.AperFunction,ComponentPad*
%ADD11O,1.700000X1.700000*%
G04 #@! TD*
G04 #@! TA.AperFunction,ViaPad*
%ADD12C,0.600000*%
G04 #@! TD*
G04 #@! TA.AperFunction,Conductor*
%ADD13C,0.150000*%
G04 #@! TD*
G04 #@! TA.AperFunction,Conductor*
%ADD14C,0.254000*%
G04 #@! TD*
G04 #@! TA.AperFunction,Conductor*
%ADD15C,0.100000*%
G04 #@! TD*
G04 APERTURE END LIST*
D10*
X149225000Y-115570000D03*
D11*
X151765000Y-115570000D03*
X154305000Y-115570000D03*
X156845000Y-115570000D03*
X101600000Y-113030000D03*
X101600000Y-115570000D03*
X104140000Y-113030000D03*
X104140000Y-115570000D03*
X106680000Y-113030000D03*
X106680000Y-115570000D03*
X109220000Y-113030000D03*
X109220000Y-115570000D03*
X111760000Y-113030000D03*
X111760000Y-115570000D03*
X114300000Y-113030000D03*
X114300000Y-115570000D03*
X116840000Y-113030000D03*
X116840000Y-115570000D03*
X119380000Y-113030000D03*
X119380000Y-115570000D03*
X121920000Y-113030000D03*
X121920000Y-115570000D03*
X124460000Y-113030000D03*
X124460000Y-115570000D03*
X127000000Y-113030000D03*
X127000000Y-115570000D03*
X129540000Y-113030000D03*
X129540000Y-115570000D03*
X132080000Y-113030000D03*
X132080000Y-115570000D03*
X134620000Y-113030000D03*
X134620000Y-115570000D03*
X137160000Y-113030000D03*
X137160000Y-115570000D03*
X139700000Y-113030000D03*
X139700000Y-115570000D03*
X142240000Y-113030000D03*
D10*
X142240000Y-115570000D03*
D11*
X137160000Y-107442000D03*
X137160000Y-109982000D03*
X134620000Y-107442000D03*
X134620000Y-109982000D03*
X132080000Y-107442000D03*
X132080000Y-109982000D03*
X129540000Y-107442000D03*
X129540000Y-109982000D03*
X127000000Y-107442000D03*
X127000000Y-109982000D03*
X124460000Y-107442000D03*
X124460000Y-109982000D03*
X121920000Y-107442000D03*
X121920000Y-109982000D03*
X119380000Y-107442000D03*
X119380000Y-109982000D03*
X116840000Y-107442000D03*
X116840000Y-109982000D03*
X114300000Y-107442000D03*
X114300000Y-109982000D03*
X111760000Y-107442000D03*
X111760000Y-109982000D03*
X109220000Y-107442000D03*
X109220000Y-109982000D03*
X106680000Y-107442000D03*
D10*
X106680000Y-109982000D03*
D12*
X104013000Y-107442000D03*
X103632000Y-110236000D03*
X100965000Y-107315000D03*
X100965000Y-108839000D03*
X107950000Y-108712000D03*
X110490000Y-108712000D03*
X103505000Y-107950000D03*
X135890000Y-114426996D03*
X135890000Y-108966000D03*
X133223000Y-108712000D03*
X130810000Y-108712000D03*
X128270000Y-108712000D03*
X118254010Y-109073760D03*
X120650000Y-109093008D03*
X113030000Y-113792014D03*
D13*
X135890000Y-114935000D02*
X135890000Y-114426996D01*
X135890000Y-116078000D02*
X135890000Y-114935000D01*
X135297021Y-116670979D02*
X135890000Y-116078000D01*
X108542979Y-116670979D02*
X135297021Y-116670979D01*
X107950000Y-116078000D02*
X108542979Y-116670979D01*
X107950000Y-114300000D02*
X107950000Y-116078000D01*
X106680000Y-113030000D02*
X107950000Y-114300000D01*
X135890000Y-108839000D02*
X135890000Y-108966000D01*
X134620000Y-107569000D02*
X135890000Y-108839000D01*
X134620000Y-107442000D02*
X134620000Y-107569000D01*
X133223000Y-108585000D02*
X133223000Y-108712000D01*
X132080000Y-107442000D02*
X133223000Y-108585000D01*
X129540000Y-107442000D02*
X130810000Y-108712000D01*
X127795999Y-106299000D02*
X128270000Y-106773001D01*
X128270000Y-106773001D02*
X128270000Y-108712000D01*
X124460000Y-107950000D02*
X126111000Y-106299000D01*
X126111000Y-106299000D02*
X127795999Y-106299000D01*
X121920000Y-107442000D02*
X120777000Y-106299000D01*
X118872000Y-106299000D02*
X118254010Y-106916990D01*
X118254010Y-106916990D02*
X118254010Y-109073760D01*
X120777000Y-106299000D02*
X118872000Y-106299000D01*
X120650000Y-108712000D02*
X120650000Y-109093008D01*
X119380000Y-107442000D02*
X120650000Y-108712000D01*
X135344496Y-114142498D02*
X133192498Y-114142498D01*
X135661997Y-113824997D02*
X135344496Y-114142498D01*
X108077000Y-106299000D02*
X104140000Y-106299000D01*
X109220000Y-107442000D02*
X108077000Y-106299000D01*
X133192498Y-114142498D02*
X132080000Y-113030000D01*
X138430000Y-114681000D02*
X137922000Y-114173000D01*
X104140000Y-106299000D02*
X102870000Y-107569000D01*
X102870000Y-107569000D02*
X102870000Y-116078000D01*
X137350012Y-116970990D02*
X138430000Y-115891002D01*
X102870000Y-116078000D02*
X103762990Y-116970990D01*
X103762990Y-116970990D02*
X137350012Y-116970990D01*
X138430000Y-115891002D02*
X138430000Y-114681000D01*
X137922000Y-114173000D02*
X136466004Y-114173000D01*
X136466004Y-114173000D02*
X136118001Y-113824997D01*
X136118001Y-113824997D02*
X135661997Y-113824997D01*
X113537986Y-114300000D02*
X113030000Y-113792014D01*
X123190000Y-114300000D02*
X113537986Y-114300000D01*
X124460000Y-113030000D02*
X123190000Y-114300000D01*
D14*
X123675283Y-106485820D02*
X123503820Y-106657283D01*
X123369102Y-106858903D01*
X123276307Y-107082931D01*
X123229000Y-107320757D01*
X123229000Y-107563243D01*
X123276307Y-107801069D01*
X123369102Y-108025097D01*
X123503820Y-108226717D01*
X123675283Y-108398180D01*
X123876903Y-108532898D01*
X124100931Y-108625693D01*
X124338757Y-108673000D01*
X124581243Y-108673000D01*
X124819069Y-108625693D01*
X125043097Y-108532898D01*
X125244717Y-108398180D01*
X125416180Y-108226717D01*
X125550898Y-108025097D01*
X125643693Y-107801069D01*
X125691000Y-107563243D01*
X125691000Y-107363881D01*
X125777660Y-107277221D01*
X125769000Y-107320757D01*
X125769000Y-107563243D01*
X125816307Y-107801069D01*
X125909102Y-108025097D01*
X126043820Y-108226717D01*
X126215283Y-108398180D01*
X126416903Y-108532898D01*
X126640931Y-108625693D01*
X126878757Y-108673000D01*
X127121243Y-108673000D01*
X127359069Y-108625693D01*
X127583097Y-108532898D01*
X127616255Y-108510742D01*
X127615171Y-108513360D01*
X127589000Y-108644927D01*
X127589000Y-108779073D01*
X127615171Y-108910640D01*
X127618022Y-108917524D01*
X127616961Y-108916761D01*
X127397288Y-108816866D01*
X127316980Y-108792511D01*
X127127000Y-108853373D01*
X127127000Y-109855000D01*
X128129187Y-109855000D01*
X128189495Y-109665019D01*
X128104799Y-109439051D01*
X128056109Y-109360512D01*
X128071360Y-109366829D01*
X128202927Y-109393000D01*
X128337073Y-109393000D01*
X128468640Y-109366829D01*
X128483891Y-109360512D01*
X128435201Y-109439051D01*
X128350505Y-109665019D01*
X128410813Y-109855000D01*
X129413000Y-109855000D01*
X129413000Y-108853373D01*
X129223020Y-108792511D01*
X129142712Y-108816866D01*
X128923039Y-108916761D01*
X128921978Y-108917524D01*
X128924829Y-108910640D01*
X128951000Y-108779073D01*
X128951000Y-108644927D01*
X128924829Y-108513360D01*
X128923745Y-108510742D01*
X128956903Y-108532898D01*
X129180931Y-108625693D01*
X129418757Y-108673000D01*
X129661243Y-108673000D01*
X129899069Y-108625693D01*
X130026166Y-108573048D01*
X130129000Y-108675882D01*
X130129000Y-108779073D01*
X130155171Y-108910640D01*
X130158022Y-108917524D01*
X130156961Y-108916761D01*
X129937288Y-108816866D01*
X129856980Y-108792511D01*
X129667000Y-108853373D01*
X129667000Y-109855000D01*
X130669187Y-109855000D01*
X130729495Y-109665019D01*
X130644799Y-109439051D01*
X130596109Y-109360512D01*
X130611360Y-109366829D01*
X130742927Y-109393000D01*
X130877073Y-109393000D01*
X131008640Y-109366829D01*
X131023891Y-109360512D01*
X130975201Y-109439051D01*
X130890505Y-109665019D01*
X130950813Y-109855000D01*
X131953000Y-109855000D01*
X131953000Y-108853373D01*
X131763020Y-108792511D01*
X131682712Y-108816866D01*
X131463039Y-108916761D01*
X131461978Y-108917524D01*
X131464829Y-108910640D01*
X131491000Y-108779073D01*
X131491000Y-108644927D01*
X131464829Y-108513360D01*
X131463745Y-108510742D01*
X131496903Y-108532898D01*
X131720931Y-108625693D01*
X131958757Y-108673000D01*
X132201243Y-108673000D01*
X132439069Y-108625693D01*
X132555412Y-108577502D01*
X132542000Y-108644927D01*
X132542000Y-108779073D01*
X132556701Y-108852979D01*
X132477288Y-108816866D01*
X132396980Y-108792511D01*
X132207000Y-108853373D01*
X132207000Y-109855000D01*
X133209187Y-109855000D01*
X133269495Y-109665019D01*
X133184799Y-109439051D01*
X133156250Y-109393000D01*
X133290073Y-109393000D01*
X133421640Y-109366829D01*
X133545574Y-109315494D01*
X133624488Y-109262766D01*
X133515201Y-109439051D01*
X133430505Y-109665019D01*
X133490813Y-109855000D01*
X134493000Y-109855000D01*
X134493000Y-108853373D01*
X134303020Y-108792511D01*
X134222712Y-108816866D01*
X134003039Y-108916761D01*
X133814844Y-109052009D01*
X133826494Y-109034574D01*
X133877829Y-108910640D01*
X133904000Y-108779073D01*
X133904000Y-108644927D01*
X133877829Y-108513360D01*
X133826494Y-108389426D01*
X133826424Y-108389321D01*
X133835283Y-108398180D01*
X134036903Y-108532898D01*
X134260931Y-108625693D01*
X134498757Y-108673000D01*
X134741243Y-108673000D01*
X134979069Y-108625693D01*
X135016364Y-108610245D01*
X135224935Y-108818817D01*
X135209000Y-108898927D01*
X135209000Y-108904046D01*
X135017288Y-108816866D01*
X134936980Y-108792511D01*
X134747000Y-108853373D01*
X134747000Y-109855000D01*
X135749187Y-109855000D01*
X135809495Y-109665019D01*
X135801115Y-109642661D01*
X135822927Y-109647000D01*
X135957073Y-109647000D01*
X135978885Y-109642661D01*
X135970505Y-109665019D01*
X136030813Y-109855000D01*
X137033000Y-109855000D01*
X137033000Y-108853373D01*
X137287000Y-108853373D01*
X137287000Y-109855000D01*
X138289187Y-109855000D01*
X138349495Y-109665019D01*
X138264799Y-109439051D01*
X138137647Y-109233948D01*
X137972924Y-109057592D01*
X137776961Y-108916761D01*
X137557288Y-108816866D01*
X137476980Y-108792511D01*
X137287000Y-108853373D01*
X137033000Y-108853373D01*
X136843020Y-108792511D01*
X136762712Y-108816866D01*
X136571000Y-108904046D01*
X136571000Y-108898927D01*
X136544829Y-108767360D01*
X136493494Y-108643426D01*
X136418967Y-108531888D01*
X136324112Y-108437033D01*
X136212574Y-108362506D01*
X136088640Y-108311171D01*
X135986794Y-108290912D01*
X135713851Y-108017969D01*
X135803693Y-107801069D01*
X135851000Y-107563243D01*
X135851000Y-107320757D01*
X135803693Y-107082931D01*
X135710898Y-106858903D01*
X135576180Y-106657283D01*
X135404717Y-106485820D01*
X135352605Y-106451000D01*
X136427395Y-106451000D01*
X136375283Y-106485820D01*
X136203820Y-106657283D01*
X136069102Y-106858903D01*
X135976307Y-107082931D01*
X135929000Y-107320757D01*
X135929000Y-107563243D01*
X135976307Y-107801069D01*
X136069102Y-108025097D01*
X136203820Y-108226717D01*
X136375283Y-108398180D01*
X136576903Y-108532898D01*
X136800931Y-108625693D01*
X137038757Y-108673000D01*
X137281243Y-108673000D01*
X137519069Y-108625693D01*
X137743097Y-108532898D01*
X137944717Y-108398180D01*
X138116180Y-108226717D01*
X138250898Y-108025097D01*
X138343693Y-107801069D01*
X138391000Y-107563243D01*
X138391000Y-107320757D01*
X138343693Y-107082931D01*
X138250898Y-106858903D01*
X138116180Y-106657283D01*
X137944717Y-106485820D01*
X137892605Y-106451000D01*
X156952146Y-106451000D01*
X157139441Y-106469364D01*
X157300501Y-106517992D01*
X157449054Y-106596979D01*
X157579430Y-106703310D01*
X157686674Y-106832946D01*
X157766695Y-106980942D01*
X157816446Y-107141661D01*
X157836000Y-107327707D01*
X157836001Y-114837396D01*
X157801180Y-114785283D01*
X157629717Y-114613820D01*
X157428097Y-114479102D01*
X157204069Y-114386307D01*
X156966243Y-114339000D01*
X156723757Y-114339000D01*
X156485931Y-114386307D01*
X156261903Y-114479102D01*
X156060283Y-114613820D01*
X155888820Y-114785283D01*
X155754102Y-114986903D01*
X155661307Y-115210931D01*
X155614000Y-115448757D01*
X155614000Y-115691243D01*
X155661307Y-115929069D01*
X155754102Y-116153097D01*
X155888820Y-116354717D01*
X156060283Y-116526180D01*
X156261903Y-116660898D01*
X156485931Y-116753693D01*
X156723757Y-116801000D01*
X156966243Y-116801000D01*
X157204069Y-116753693D01*
X157428097Y-116660898D01*
X157586369Y-116555144D01*
X157583689Y-116558430D01*
X157454054Y-116665674D01*
X157306058Y-116745695D01*
X157145339Y-116795446D01*
X156959293Y-116815000D01*
X150761312Y-116815000D01*
X150777819Y-116798493D01*
X150857279Y-116694940D01*
X150907011Y-116608802D01*
X150953863Y-116495692D01*
X151148039Y-116635239D01*
X151367712Y-116735134D01*
X151448020Y-116759489D01*
X151638000Y-116698627D01*
X151638000Y-115697000D01*
X151892000Y-115697000D01*
X151892000Y-116698627D01*
X152081980Y-116759489D01*
X152162288Y-116735134D01*
X152381961Y-116635239D01*
X152577924Y-116494408D01*
X152742647Y-116318052D01*
X152869799Y-116112949D01*
X152954495Y-115886981D01*
X153115505Y-115886981D01*
X153200201Y-116112949D01*
X153327353Y-116318052D01*
X153492076Y-116494408D01*
X153688039Y-116635239D01*
X153907712Y-116735134D01*
X153988020Y-116759489D01*
X154178000Y-116698627D01*
X154178000Y-115697000D01*
X154432000Y-115697000D01*
X154432000Y-116698627D01*
X154621980Y-116759489D01*
X154702288Y-116735134D01*
X154921961Y-116635239D01*
X155117924Y-116494408D01*
X155282647Y-116318052D01*
X155409799Y-116112949D01*
X155494495Y-115886981D01*
X155434187Y-115697000D01*
X154432000Y-115697000D01*
X154178000Y-115697000D01*
X153175813Y-115697000D01*
X153115505Y-115886981D01*
X152954495Y-115886981D01*
X152894187Y-115697000D01*
X151892000Y-115697000D01*
X151638000Y-115697000D01*
X151618000Y-115697000D01*
X151618000Y-115443000D01*
X151638000Y-115443000D01*
X151638000Y-114441373D01*
X151892000Y-114441373D01*
X151892000Y-115443000D01*
X152894187Y-115443000D01*
X152954495Y-115253019D01*
X153115505Y-115253019D01*
X153175813Y-115443000D01*
X154178000Y-115443000D01*
X154178000Y-114441373D01*
X154432000Y-114441373D01*
X154432000Y-115443000D01*
X155434187Y-115443000D01*
X155494495Y-115253019D01*
X155409799Y-115027051D01*
X155282647Y-114821948D01*
X155117924Y-114645592D01*
X154921961Y-114504761D01*
X154702288Y-114404866D01*
X154621980Y-114380511D01*
X154432000Y-114441373D01*
X154178000Y-114441373D01*
X153988020Y-114380511D01*
X153907712Y-114404866D01*
X153688039Y-114504761D01*
X153492076Y-114645592D01*
X153327353Y-114821948D01*
X153200201Y-115027051D01*
X153115505Y-115253019D01*
X152954495Y-115253019D01*
X152869799Y-115027051D01*
X152742647Y-114821948D01*
X152577924Y-114645592D01*
X152381961Y-114504761D01*
X152162288Y-114404866D01*
X152081980Y-114380511D01*
X151892000Y-114441373D01*
X151638000Y-114441373D01*
X151448020Y-114380511D01*
X151367712Y-114404866D01*
X151148039Y-114504761D01*
X151003000Y-114608995D01*
X151003000Y-111498000D01*
X150999741Y-111448270D01*
X150982704Y-111318860D01*
X150956961Y-111222788D01*
X150907011Y-111102198D01*
X150857279Y-111016060D01*
X150777819Y-110912507D01*
X150707493Y-110842181D01*
X150603940Y-110762721D01*
X150517802Y-110712989D01*
X150397212Y-110663039D01*
X150301140Y-110637296D01*
X150171730Y-110620259D01*
X150122000Y-110617000D01*
X138207733Y-110617000D01*
X138264799Y-110524949D01*
X138349495Y-110298981D01*
X138289187Y-110109000D01*
X137287000Y-110109000D01*
X137287000Y-110129000D01*
X137033000Y-110129000D01*
X137033000Y-110109000D01*
X136030813Y-110109000D01*
X135970505Y-110298981D01*
X136055201Y-110524949D01*
X136112267Y-110617000D01*
X135667733Y-110617000D01*
X135724799Y-110524949D01*
X135809495Y-110298981D01*
X135749187Y-110109000D01*
X134747000Y-110109000D01*
X134747000Y-110129000D01*
X134493000Y-110129000D01*
X134493000Y-110109000D01*
X133490813Y-110109000D01*
X133430505Y-110298981D01*
X133515201Y-110524949D01*
X133572267Y-110617000D01*
X133127733Y-110617000D01*
X133184799Y-110524949D01*
X133269495Y-110298981D01*
X133209187Y-110109000D01*
X132207000Y-110109000D01*
X132207000Y-110129000D01*
X131953000Y-110129000D01*
X131953000Y-110109000D01*
X130950813Y-110109000D01*
X130890505Y-110298981D01*
X130975201Y-110524949D01*
X131032267Y-110617000D01*
X130587733Y-110617000D01*
X130644799Y-110524949D01*
X130729495Y-110298981D01*
X130669187Y-110109000D01*
X129667000Y-110109000D01*
X129667000Y-110129000D01*
X129413000Y-110129000D01*
X129413000Y-110109000D01*
X128410813Y-110109000D01*
X128350505Y-110298981D01*
X128435201Y-110524949D01*
X128492267Y-110617000D01*
X128047733Y-110617000D01*
X128104799Y-110524949D01*
X128189495Y-110298981D01*
X128129187Y-110109000D01*
X127127000Y-110109000D01*
X127127000Y-110129000D01*
X126873000Y-110129000D01*
X126873000Y-110109000D01*
X125870813Y-110109000D01*
X125810505Y-110298981D01*
X125895201Y-110524949D01*
X125952267Y-110617000D01*
X125507733Y-110617000D01*
X125564799Y-110524949D01*
X125649495Y-110298981D01*
X125589187Y-110109000D01*
X124587000Y-110109000D01*
X124587000Y-110129000D01*
X124333000Y-110129000D01*
X124333000Y-110109000D01*
X123330813Y-110109000D01*
X123270505Y-110298981D01*
X123355201Y-110524949D01*
X123412267Y-110617000D01*
X122967733Y-110617000D01*
X123024799Y-110524949D01*
X123109495Y-110298981D01*
X123049187Y-110109000D01*
X122047000Y-110109000D01*
X122047000Y-110129000D01*
X121793000Y-110129000D01*
X121793000Y-110109000D01*
X120790813Y-110109000D01*
X120730505Y-110298981D01*
X120815201Y-110524949D01*
X120872267Y-110617000D01*
X120436218Y-110617000D01*
X120470898Y-110565097D01*
X120563693Y-110341069D01*
X120611000Y-110103243D01*
X120611000Y-109860757D01*
X120593744Y-109774008D01*
X120717073Y-109774008D01*
X120762250Y-109765021D01*
X120790813Y-109855000D01*
X121793000Y-109855000D01*
X121793000Y-108853373D01*
X122047000Y-108853373D01*
X122047000Y-109855000D01*
X123049187Y-109855000D01*
X123109495Y-109665019D01*
X123270505Y-109665019D01*
X123330813Y-109855000D01*
X124333000Y-109855000D01*
X124333000Y-108853373D01*
X124587000Y-108853373D01*
X124587000Y-109855000D01*
X125589187Y-109855000D01*
X125649495Y-109665019D01*
X125810505Y-109665019D01*
X125870813Y-109855000D01*
X126873000Y-109855000D01*
X126873000Y-108853373D01*
X126683020Y-108792511D01*
X126602712Y-108816866D01*
X126383039Y-108916761D01*
X126187076Y-109057592D01*
X126022353Y-109233948D01*
X125895201Y-109439051D01*
X125810505Y-109665019D01*
X125649495Y-109665019D01*
X125564799Y-109439051D01*
X125437647Y-109233948D01*
X125272924Y-109057592D01*
X125076961Y-108916761D01*
X124857288Y-108816866D01*
X124776980Y-108792511D01*
X124587000Y-108853373D01*
X124333000Y-108853373D01*
X124143020Y-108792511D01*
X124062712Y-108816866D01*
X123843039Y-108916761D01*
X123647076Y-109057592D01*
X123482353Y-109233948D01*
X123355201Y-109439051D01*
X123270505Y-109665019D01*
X123109495Y-109665019D01*
X123024799Y-109439051D01*
X122897647Y-109233948D01*
X122732924Y-109057592D01*
X122536961Y-108916761D01*
X122317288Y-108816866D01*
X122236980Y-108792511D01*
X122047000Y-108853373D01*
X121793000Y-108853373D01*
X121603020Y-108792511D01*
X121522712Y-108816866D01*
X121308765Y-108914157D01*
X121304829Y-108894368D01*
X121253494Y-108770434D01*
X121178967Y-108658896D01*
X121084112Y-108564041D01*
X121081006Y-108561966D01*
X121073327Y-108536652D01*
X121030984Y-108457434D01*
X120974001Y-108387999D01*
X120956604Y-108373722D01*
X120511048Y-107928166D01*
X120563693Y-107801069D01*
X120611000Y-107563243D01*
X120611000Y-107320757D01*
X120563693Y-107082931D01*
X120470898Y-106858903D01*
X120401472Y-106755000D01*
X120588119Y-106755000D01*
X120788952Y-106955834D01*
X120736307Y-107082931D01*
X120689000Y-107320757D01*
X120689000Y-107563243D01*
X120736307Y-107801069D01*
X120829102Y-108025097D01*
X120963820Y-108226717D01*
X121135283Y-108398180D01*
X121336903Y-108532898D01*
X121560931Y-108625693D01*
X121798757Y-108673000D01*
X122041243Y-108673000D01*
X122279069Y-108625693D01*
X122503097Y-108532898D01*
X122704717Y-108398180D01*
X122876180Y-108226717D01*
X123010898Y-108025097D01*
X123103693Y-107801069D01*
X123151000Y-107563243D01*
X123151000Y-107320757D01*
X123103693Y-107082931D01*
X123010898Y-106858903D01*
X122876180Y-106657283D01*
X122704717Y-106485820D01*
X122652605Y-106451000D01*
X123727395Y-106451000D01*
X123675283Y-106485820D01*
G04 #@! TA.AperFunction,Conductor*
D15*
G36*
X123675283Y-106485820D02*
G01*
X123503820Y-106657283D01*
X123369102Y-106858903D01*
X123276307Y-107082931D01*
X123229000Y-107320757D01*
X123229000Y-107563243D01*
X123276307Y-107801069D01*
X123369102Y-108025097D01*
X123503820Y-108226717D01*
X123675283Y-108398180D01*
X123876903Y-108532898D01*
X124100931Y-108625693D01*
X124338757Y-108673000D01*
X124581243Y-108673000D01*
X124819069Y-108625693D01*
X125043097Y-108532898D01*
X125244717Y-108398180D01*
X125416180Y-108226717D01*
X125550898Y-108025097D01*
X125643693Y-107801069D01*
X125691000Y-107563243D01*
X125691000Y-107363881D01*
X125777660Y-107277221D01*
X125769000Y-107320757D01*
X125769000Y-107563243D01*
X125816307Y-107801069D01*
X125909102Y-108025097D01*
X126043820Y-108226717D01*
X126215283Y-108398180D01*
X126416903Y-108532898D01*
X126640931Y-108625693D01*
X126878757Y-108673000D01*
X127121243Y-108673000D01*
X127359069Y-108625693D01*
X127583097Y-108532898D01*
X127616255Y-108510742D01*
X127615171Y-108513360D01*
X127589000Y-108644927D01*
X127589000Y-108779073D01*
X127615171Y-108910640D01*
X127618022Y-108917524D01*
X127616961Y-108916761D01*
X127397288Y-108816866D01*
X127316980Y-108792511D01*
X127127000Y-108853373D01*
X127127000Y-109855000D01*
X128129187Y-109855000D01*
X128189495Y-109665019D01*
X128104799Y-109439051D01*
X128056109Y-109360512D01*
X128071360Y-109366829D01*
X128202927Y-109393000D01*
X128337073Y-109393000D01*
X128468640Y-109366829D01*
X128483891Y-109360512D01*
X128435201Y-109439051D01*
X128350505Y-109665019D01*
X128410813Y-109855000D01*
X129413000Y-109855000D01*
X129413000Y-108853373D01*
X129223020Y-108792511D01*
X129142712Y-108816866D01*
X128923039Y-108916761D01*
X128921978Y-108917524D01*
X128924829Y-108910640D01*
X128951000Y-108779073D01*
X128951000Y-108644927D01*
X128924829Y-108513360D01*
X128923745Y-108510742D01*
X128956903Y-108532898D01*
X129180931Y-108625693D01*
X129418757Y-108673000D01*
X129661243Y-108673000D01*
X129899069Y-108625693D01*
X130026166Y-108573048D01*
X130129000Y-108675882D01*
X130129000Y-108779073D01*
X130155171Y-108910640D01*
X130158022Y-108917524D01*
X130156961Y-108916761D01*
X129937288Y-108816866D01*
X129856980Y-108792511D01*
X129667000Y-108853373D01*
X129667000Y-109855000D01*
X130669187Y-109855000D01*
X130729495Y-109665019D01*
X130644799Y-109439051D01*
X130596109Y-109360512D01*
X130611360Y-109366829D01*
X130742927Y-109393000D01*
X130877073Y-109393000D01*
X131008640Y-109366829D01*
X131023891Y-109360512D01*
X130975201Y-109439051D01*
X130890505Y-109665019D01*
X130950813Y-109855000D01*
X131953000Y-109855000D01*
X131953000Y-108853373D01*
X131763020Y-108792511D01*
X131682712Y-108816866D01*
X131463039Y-108916761D01*
X131461978Y-108917524D01*
X131464829Y-108910640D01*
X131491000Y-108779073D01*
X131491000Y-108644927D01*
X131464829Y-108513360D01*
X131463745Y-108510742D01*
X131496903Y-108532898D01*
X131720931Y-108625693D01*
X131958757Y-108673000D01*
X132201243Y-108673000D01*
X132439069Y-108625693D01*
X132555412Y-108577502D01*
X132542000Y-108644927D01*
X132542000Y-108779073D01*
X132556701Y-108852979D01*
X132477288Y-108816866D01*
X132396980Y-108792511D01*
X132207000Y-108853373D01*
X132207000Y-109855000D01*
X133209187Y-109855000D01*
X133269495Y-109665019D01*
X133184799Y-109439051D01*
X133156250Y-109393000D01*
X133290073Y-109393000D01*
X133421640Y-109366829D01*
X133545574Y-109315494D01*
X133624488Y-109262766D01*
X133515201Y-109439051D01*
X133430505Y-109665019D01*
X133490813Y-109855000D01*
X134493000Y-109855000D01*
X134493000Y-108853373D01*
X134303020Y-108792511D01*
X134222712Y-108816866D01*
X134003039Y-108916761D01*
X133814844Y-109052009D01*
X133826494Y-109034574D01*
X133877829Y-108910640D01*
X133904000Y-108779073D01*
X133904000Y-108644927D01*
X133877829Y-108513360D01*
X133826494Y-108389426D01*
X133826424Y-108389321D01*
X133835283Y-108398180D01*
X134036903Y-108532898D01*
X134260931Y-108625693D01*
X134498757Y-108673000D01*
X134741243Y-108673000D01*
X134979069Y-108625693D01*
X135016364Y-108610245D01*
X135224935Y-108818817D01*
X135209000Y-108898927D01*
X135209000Y-108904046D01*
X135017288Y-108816866D01*
X134936980Y-108792511D01*
X134747000Y-108853373D01*
X134747000Y-109855000D01*
X135749187Y-109855000D01*
X135809495Y-109665019D01*
X135801115Y-109642661D01*
X135822927Y-109647000D01*
X135957073Y-109647000D01*
X135978885Y-109642661D01*
X135970505Y-109665019D01*
X136030813Y-109855000D01*
X137033000Y-109855000D01*
X137033000Y-108853373D01*
X137287000Y-108853373D01*
X137287000Y-109855000D01*
X138289187Y-109855000D01*
X138349495Y-109665019D01*
X138264799Y-109439051D01*
X138137647Y-109233948D01*
X137972924Y-109057592D01*
X137776961Y-108916761D01*
X137557288Y-108816866D01*
X137476980Y-108792511D01*
X137287000Y-108853373D01*
X137033000Y-108853373D01*
X136843020Y-108792511D01*
X136762712Y-108816866D01*
X136571000Y-108904046D01*
X136571000Y-108898927D01*
X136544829Y-108767360D01*
X136493494Y-108643426D01*
X136418967Y-108531888D01*
X136324112Y-108437033D01*
X136212574Y-108362506D01*
X136088640Y-108311171D01*
X135986794Y-108290912D01*
X135713851Y-108017969D01*
X135803693Y-107801069D01*
X135851000Y-107563243D01*
X135851000Y-107320757D01*
X135803693Y-107082931D01*
X135710898Y-106858903D01*
X135576180Y-106657283D01*
X135404717Y-106485820D01*
X135352605Y-106451000D01*
X136427395Y-106451000D01*
X136375283Y-106485820D01*
X136203820Y-106657283D01*
X136069102Y-106858903D01*
X135976307Y-107082931D01*
X135929000Y-107320757D01*
X135929000Y-107563243D01*
X135976307Y-107801069D01*
X136069102Y-108025097D01*
X136203820Y-108226717D01*
X136375283Y-108398180D01*
X136576903Y-108532898D01*
X136800931Y-108625693D01*
X137038757Y-108673000D01*
X137281243Y-108673000D01*
X137519069Y-108625693D01*
X137743097Y-108532898D01*
X137944717Y-108398180D01*
X138116180Y-108226717D01*
X138250898Y-108025097D01*
X138343693Y-107801069D01*
X138391000Y-107563243D01*
X138391000Y-107320757D01*
X138343693Y-107082931D01*
X138250898Y-106858903D01*
X138116180Y-106657283D01*
X137944717Y-106485820D01*
X137892605Y-106451000D01*
X156952146Y-106451000D01*
X157139441Y-106469364D01*
X157300501Y-106517992D01*
X157449054Y-106596979D01*
X157579430Y-106703310D01*
X157686674Y-106832946D01*
X157766695Y-106980942D01*
X157816446Y-107141661D01*
X157836000Y-107327707D01*
X157836001Y-114837396D01*
X157801180Y-114785283D01*
X157629717Y-114613820D01*
X157428097Y-114479102D01*
X157204069Y-114386307D01*
X156966243Y-114339000D01*
X156723757Y-114339000D01*
X156485931Y-114386307D01*
X156261903Y-114479102D01*
X156060283Y-114613820D01*
X155888820Y-114785283D01*
X155754102Y-114986903D01*
X155661307Y-115210931D01*
X155614000Y-115448757D01*
X155614000Y-115691243D01*
X155661307Y-115929069D01*
X155754102Y-116153097D01*
X155888820Y-116354717D01*
X156060283Y-116526180D01*
X156261903Y-116660898D01*
X156485931Y-116753693D01*
X156723757Y-116801000D01*
X156966243Y-116801000D01*
X157204069Y-116753693D01*
X157428097Y-116660898D01*
X157586369Y-116555144D01*
X157583689Y-116558430D01*
X157454054Y-116665674D01*
X157306058Y-116745695D01*
X157145339Y-116795446D01*
X156959293Y-116815000D01*
X150761312Y-116815000D01*
X150777819Y-116798493D01*
X150857279Y-116694940D01*
X150907011Y-116608802D01*
X150953863Y-116495692D01*
X151148039Y-116635239D01*
X151367712Y-116735134D01*
X151448020Y-116759489D01*
X151638000Y-116698627D01*
X151638000Y-115697000D01*
X151892000Y-115697000D01*
X151892000Y-116698627D01*
X152081980Y-116759489D01*
X152162288Y-116735134D01*
X152381961Y-116635239D01*
X152577924Y-116494408D01*
X152742647Y-116318052D01*
X152869799Y-116112949D01*
X152954495Y-115886981D01*
X153115505Y-115886981D01*
X153200201Y-116112949D01*
X153327353Y-116318052D01*
X153492076Y-116494408D01*
X153688039Y-116635239D01*
X153907712Y-116735134D01*
X153988020Y-116759489D01*
X154178000Y-116698627D01*
X154178000Y-115697000D01*
X154432000Y-115697000D01*
X154432000Y-116698627D01*
X154621980Y-116759489D01*
X154702288Y-116735134D01*
X154921961Y-116635239D01*
X155117924Y-116494408D01*
X155282647Y-116318052D01*
X155409799Y-116112949D01*
X155494495Y-115886981D01*
X155434187Y-115697000D01*
X154432000Y-115697000D01*
X154178000Y-115697000D01*
X153175813Y-115697000D01*
X153115505Y-115886981D01*
X152954495Y-115886981D01*
X152894187Y-115697000D01*
X151892000Y-115697000D01*
X151638000Y-115697000D01*
X151618000Y-115697000D01*
X151618000Y-115443000D01*
X151638000Y-115443000D01*
X151638000Y-114441373D01*
X151892000Y-114441373D01*
X151892000Y-115443000D01*
X152894187Y-115443000D01*
X152954495Y-115253019D01*
X153115505Y-115253019D01*
X153175813Y-115443000D01*
X154178000Y-115443000D01*
X154178000Y-114441373D01*
X154432000Y-114441373D01*
X154432000Y-115443000D01*
X155434187Y-115443000D01*
X155494495Y-115253019D01*
X155409799Y-115027051D01*
X155282647Y-114821948D01*
X155117924Y-114645592D01*
X154921961Y-114504761D01*
X154702288Y-114404866D01*
X154621980Y-114380511D01*
X154432000Y-114441373D01*
X154178000Y-114441373D01*
X153988020Y-114380511D01*
X153907712Y-114404866D01*
X153688039Y-114504761D01*
X153492076Y-114645592D01*
X153327353Y-114821948D01*
X153200201Y-115027051D01*
X153115505Y-115253019D01*
X152954495Y-115253019D01*
X152869799Y-115027051D01*
X152742647Y-114821948D01*
X152577924Y-114645592D01*
X152381961Y-114504761D01*
X152162288Y-114404866D01*
X152081980Y-114380511D01*
X151892000Y-114441373D01*
X151638000Y-114441373D01*
X151448020Y-114380511D01*
X151367712Y-114404866D01*
X151148039Y-114504761D01*
X151003000Y-114608995D01*
X151003000Y-111498000D01*
X150999741Y-111448270D01*
X150982704Y-111318860D01*
X150956961Y-111222788D01*
X150907011Y-111102198D01*
X150857279Y-111016060D01*
X150777819Y-110912507D01*
X150707493Y-110842181D01*
X150603940Y-110762721D01*
X150517802Y-110712989D01*
X150397212Y-110663039D01*
X150301140Y-110637296D01*
X150171730Y-110620259D01*
X150122000Y-110617000D01*
X138207733Y-110617000D01*
X138264799Y-110524949D01*
X138349495Y-110298981D01*
X138289187Y-110109000D01*
X137287000Y-110109000D01*
X137287000Y-110129000D01*
X137033000Y-110129000D01*
X137033000Y-110109000D01*
X136030813Y-110109000D01*
X135970505Y-110298981D01*
X136055201Y-110524949D01*
X136112267Y-110617000D01*
X135667733Y-110617000D01*
X135724799Y-110524949D01*
X135809495Y-110298981D01*
X135749187Y-110109000D01*
X134747000Y-110109000D01*
X134747000Y-110129000D01*
X134493000Y-110129000D01*
X134493000Y-110109000D01*
X133490813Y-110109000D01*
X133430505Y-110298981D01*
X133515201Y-110524949D01*
X133572267Y-110617000D01*
X133127733Y-110617000D01*
X133184799Y-110524949D01*
X133269495Y-110298981D01*
X133209187Y-110109000D01*
X132207000Y-110109000D01*
X132207000Y-110129000D01*
X131953000Y-110129000D01*
X131953000Y-110109000D01*
X130950813Y-110109000D01*
X130890505Y-110298981D01*
X130975201Y-110524949D01*
X131032267Y-110617000D01*
X130587733Y-110617000D01*
X130644799Y-110524949D01*
X130729495Y-110298981D01*
X130669187Y-110109000D01*
X129667000Y-110109000D01*
X129667000Y-110129000D01*
X129413000Y-110129000D01*
X129413000Y-110109000D01*
X128410813Y-110109000D01*
X128350505Y-110298981D01*
X128435201Y-110524949D01*
X128492267Y-110617000D01*
X128047733Y-110617000D01*
X128104799Y-110524949D01*
X128189495Y-110298981D01*
X128129187Y-110109000D01*
X127127000Y-110109000D01*
X127127000Y-110129000D01*
X126873000Y-110129000D01*
X126873000Y-110109000D01*
X125870813Y-110109000D01*
X125810505Y-110298981D01*
X125895201Y-110524949D01*
X125952267Y-110617000D01*
X125507733Y-110617000D01*
X125564799Y-110524949D01*
X125649495Y-110298981D01*
X125589187Y-110109000D01*
X124587000Y-110109000D01*
X124587000Y-110129000D01*
X124333000Y-110129000D01*
X124333000Y-110109000D01*
X123330813Y-110109000D01*
X123270505Y-110298981D01*
X123355201Y-110524949D01*
X123412267Y-110617000D01*
X122967733Y-110617000D01*
X123024799Y-110524949D01*
X123109495Y-110298981D01*
X123049187Y-110109000D01*
X122047000Y-110109000D01*
X122047000Y-110129000D01*
X121793000Y-110129000D01*
X121793000Y-110109000D01*
X120790813Y-110109000D01*
X120730505Y-110298981D01*
X120815201Y-110524949D01*
X120872267Y-110617000D01*
X120436218Y-110617000D01*
X120470898Y-110565097D01*
X120563693Y-110341069D01*
X120611000Y-110103243D01*
X120611000Y-109860757D01*
X120593744Y-109774008D01*
X120717073Y-109774008D01*
X120762250Y-109765021D01*
X120790813Y-109855000D01*
X121793000Y-109855000D01*
X121793000Y-108853373D01*
X122047000Y-108853373D01*
X122047000Y-109855000D01*
X123049187Y-109855000D01*
X123109495Y-109665019D01*
X123270505Y-109665019D01*
X123330813Y-109855000D01*
X124333000Y-109855000D01*
X124333000Y-108853373D01*
X124587000Y-108853373D01*
X124587000Y-109855000D01*
X125589187Y-109855000D01*
X125649495Y-109665019D01*
X125810505Y-109665019D01*
X125870813Y-109855000D01*
X126873000Y-109855000D01*
X126873000Y-108853373D01*
X126683020Y-108792511D01*
X126602712Y-108816866D01*
X126383039Y-108916761D01*
X126187076Y-109057592D01*
X126022353Y-109233948D01*
X125895201Y-109439051D01*
X125810505Y-109665019D01*
X125649495Y-109665019D01*
X125564799Y-109439051D01*
X125437647Y-109233948D01*
X125272924Y-109057592D01*
X125076961Y-108916761D01*
X124857288Y-108816866D01*
X124776980Y-108792511D01*
X124587000Y-108853373D01*
X124333000Y-108853373D01*
X124143020Y-108792511D01*
X124062712Y-108816866D01*
X123843039Y-108916761D01*
X123647076Y-109057592D01*
X123482353Y-109233948D01*
X123355201Y-109439051D01*
X123270505Y-109665019D01*
X123109495Y-109665019D01*
X123024799Y-109439051D01*
X122897647Y-109233948D01*
X122732924Y-109057592D01*
X122536961Y-108916761D01*
X122317288Y-108816866D01*
X122236980Y-108792511D01*
X122047000Y-108853373D01*
X121793000Y-108853373D01*
X121603020Y-108792511D01*
X121522712Y-108816866D01*
X121308765Y-108914157D01*
X121304829Y-108894368D01*
X121253494Y-108770434D01*
X121178967Y-108658896D01*
X121084112Y-108564041D01*
X121081006Y-108561966D01*
X121073327Y-108536652D01*
X121030984Y-108457434D01*
X120974001Y-108387999D01*
X120956604Y-108373722D01*
X120511048Y-107928166D01*
X120563693Y-107801069D01*
X120611000Y-107563243D01*
X120611000Y-107320757D01*
X120563693Y-107082931D01*
X120470898Y-106858903D01*
X120401472Y-106755000D01*
X120588119Y-106755000D01*
X120788952Y-106955834D01*
X120736307Y-107082931D01*
X120689000Y-107320757D01*
X120689000Y-107563243D01*
X120736307Y-107801069D01*
X120829102Y-108025097D01*
X120963820Y-108226717D01*
X121135283Y-108398180D01*
X121336903Y-108532898D01*
X121560931Y-108625693D01*
X121798757Y-108673000D01*
X122041243Y-108673000D01*
X122279069Y-108625693D01*
X122503097Y-108532898D01*
X122704717Y-108398180D01*
X122876180Y-108226717D01*
X123010898Y-108025097D01*
X123103693Y-107801069D01*
X123151000Y-107563243D01*
X123151000Y-107320757D01*
X123103693Y-107082931D01*
X123010898Y-106858903D01*
X122876180Y-106657283D01*
X122704717Y-106485820D01*
X122652605Y-106451000D01*
X123727395Y-106451000D01*
X123675283Y-106485820D01*
G37*
G04 #@! TD.AperFunction*
D14*
X138609102Y-112446903D02*
X138516307Y-112670931D01*
X138469000Y-112908757D01*
X138469000Y-113151243D01*
X138516307Y-113389069D01*
X138609102Y-113613097D01*
X138743820Y-113814717D01*
X138915283Y-113986180D01*
X139116903Y-114120898D01*
X139340931Y-114213693D01*
X139578757Y-114261000D01*
X139821243Y-114261000D01*
X140059069Y-114213693D01*
X140283097Y-114120898D01*
X140484717Y-113986180D01*
X140656180Y-113814717D01*
X140790898Y-113613097D01*
X140883693Y-113389069D01*
X140931000Y-113151243D01*
X140931000Y-112908757D01*
X140883693Y-112670931D01*
X140790898Y-112446903D01*
X140756218Y-112395000D01*
X141183782Y-112395000D01*
X141149102Y-112446903D01*
X141056307Y-112670931D01*
X141009000Y-112908757D01*
X141009000Y-113151243D01*
X141056307Y-113389069D01*
X141149102Y-113613097D01*
X141283820Y-113814717D01*
X141455283Y-113986180D01*
X141656903Y-114120898D01*
X141880931Y-114213693D01*
X142118757Y-114261000D01*
X142361243Y-114261000D01*
X142599069Y-114213693D01*
X142823097Y-114120898D01*
X143024717Y-113986180D01*
X143196180Y-113814717D01*
X143330898Y-113613097D01*
X143423693Y-113389069D01*
X143471000Y-113151243D01*
X143471000Y-112908757D01*
X143423693Y-112670931D01*
X143330898Y-112446903D01*
X143296218Y-112395000D01*
X147303025Y-112395000D01*
X147357952Y-112402231D01*
X147385855Y-112413789D01*
X147409821Y-112432179D01*
X147428211Y-112456145D01*
X147439769Y-112484048D01*
X147447000Y-112538975D01*
X147447000Y-116213000D01*
X147450259Y-116262730D01*
X147467296Y-116392140D01*
X147493039Y-116488212D01*
X147542989Y-116608802D01*
X147592721Y-116694940D01*
X147672181Y-116798493D01*
X147688688Y-116815000D01*
X138150883Y-116815000D01*
X138693834Y-116272049D01*
X138722353Y-116318052D01*
X138887076Y-116494408D01*
X139083039Y-116635239D01*
X139302712Y-116735134D01*
X139383020Y-116759489D01*
X139573000Y-116698627D01*
X139573000Y-115697000D01*
X139827000Y-115697000D01*
X139827000Y-116698627D01*
X140016980Y-116759489D01*
X140097288Y-116735134D01*
X140316961Y-116635239D01*
X140512924Y-116494408D01*
X140582423Y-116420000D01*
X141007157Y-116420000D01*
X141014513Y-116494689D01*
X141036299Y-116566508D01*
X141071678Y-116632696D01*
X141119289Y-116690711D01*
X141177304Y-116738322D01*
X141243492Y-116773701D01*
X141315311Y-116795487D01*
X141390000Y-116802843D01*
X142017750Y-116801000D01*
X142113000Y-116705750D01*
X142113000Y-115697000D01*
X142367000Y-115697000D01*
X142367000Y-116705750D01*
X142462250Y-116801000D01*
X143090000Y-116802843D01*
X143164689Y-116795487D01*
X143236508Y-116773701D01*
X143302696Y-116738322D01*
X143360711Y-116690711D01*
X143408322Y-116632696D01*
X143443701Y-116566508D01*
X143465487Y-116494689D01*
X143472843Y-116420000D01*
X143471000Y-115792250D01*
X143375750Y-115697000D01*
X142367000Y-115697000D01*
X142113000Y-115697000D01*
X141104250Y-115697000D01*
X141009000Y-115792250D01*
X141007157Y-116420000D01*
X140582423Y-116420000D01*
X140677647Y-116318052D01*
X140804799Y-116112949D01*
X140889495Y-115886981D01*
X140829187Y-115697000D01*
X139827000Y-115697000D01*
X139573000Y-115697000D01*
X139553000Y-115697000D01*
X139553000Y-115443000D01*
X139573000Y-115443000D01*
X139573000Y-114441373D01*
X139827000Y-114441373D01*
X139827000Y-115443000D01*
X140829187Y-115443000D01*
X140889495Y-115253019D01*
X140804799Y-115027051D01*
X140677647Y-114821948D01*
X140582424Y-114720000D01*
X141007157Y-114720000D01*
X141009000Y-115347750D01*
X141104250Y-115443000D01*
X142113000Y-115443000D01*
X142113000Y-114434250D01*
X142367000Y-114434250D01*
X142367000Y-115443000D01*
X143375750Y-115443000D01*
X143471000Y-115347750D01*
X143472843Y-114720000D01*
X143465487Y-114645311D01*
X143443701Y-114573492D01*
X143408322Y-114507304D01*
X143360711Y-114449289D01*
X143302696Y-114401678D01*
X143236508Y-114366299D01*
X143164689Y-114344513D01*
X143090000Y-114337157D01*
X142462250Y-114339000D01*
X142367000Y-114434250D01*
X142113000Y-114434250D01*
X142017750Y-114339000D01*
X141390000Y-114337157D01*
X141315311Y-114344513D01*
X141243492Y-114366299D01*
X141177304Y-114401678D01*
X141119289Y-114449289D01*
X141071678Y-114507304D01*
X141036299Y-114573492D01*
X141014513Y-114645311D01*
X141007157Y-114720000D01*
X140582424Y-114720000D01*
X140512924Y-114645592D01*
X140316961Y-114504761D01*
X140097288Y-114404866D01*
X140016980Y-114380511D01*
X139827000Y-114441373D01*
X139573000Y-114441373D01*
X139383020Y-114380511D01*
X139302712Y-114404866D01*
X139083039Y-114504761D01*
X138887076Y-114645592D01*
X138884944Y-114647875D01*
X138879402Y-114591608D01*
X138853327Y-114505652D01*
X138810984Y-114426434D01*
X138754001Y-114356999D01*
X138736598Y-114342717D01*
X138260283Y-113866402D01*
X138246001Y-113848999D01*
X138176566Y-113792016D01*
X138143248Y-113774207D01*
X138250898Y-113613097D01*
X138343693Y-113389069D01*
X138391000Y-113151243D01*
X138391000Y-112908757D01*
X138343693Y-112670931D01*
X138250898Y-112446903D01*
X138216218Y-112395000D01*
X138643782Y-112395000D01*
X138609102Y-112446903D01*
G04 #@! TA.AperFunction,Conductor*
D15*
G36*
X138609102Y-112446903D02*
G01*
X138516307Y-112670931D01*
X138469000Y-112908757D01*
X138469000Y-113151243D01*
X138516307Y-113389069D01*
X138609102Y-113613097D01*
X138743820Y-113814717D01*
X138915283Y-113986180D01*
X139116903Y-114120898D01*
X139340931Y-114213693D01*
X139578757Y-114261000D01*
X139821243Y-114261000D01*
X140059069Y-114213693D01*
X140283097Y-114120898D01*
X140484717Y-113986180D01*
X140656180Y-113814717D01*
X140790898Y-113613097D01*
X140883693Y-113389069D01*
X140931000Y-113151243D01*
X140931000Y-112908757D01*
X140883693Y-112670931D01*
X140790898Y-112446903D01*
X140756218Y-112395000D01*
X141183782Y-112395000D01*
X141149102Y-112446903D01*
X141056307Y-112670931D01*
X141009000Y-112908757D01*
X141009000Y-113151243D01*
X141056307Y-113389069D01*
X141149102Y-113613097D01*
X141283820Y-113814717D01*
X141455283Y-113986180D01*
X141656903Y-114120898D01*
X141880931Y-114213693D01*
X142118757Y-114261000D01*
X142361243Y-114261000D01*
X142599069Y-114213693D01*
X142823097Y-114120898D01*
X143024717Y-113986180D01*
X143196180Y-113814717D01*
X143330898Y-113613097D01*
X143423693Y-113389069D01*
X143471000Y-113151243D01*
X143471000Y-112908757D01*
X143423693Y-112670931D01*
X143330898Y-112446903D01*
X143296218Y-112395000D01*
X147303025Y-112395000D01*
X147357952Y-112402231D01*
X147385855Y-112413789D01*
X147409821Y-112432179D01*
X147428211Y-112456145D01*
X147439769Y-112484048D01*
X147447000Y-112538975D01*
X147447000Y-116213000D01*
X147450259Y-116262730D01*
X147467296Y-116392140D01*
X147493039Y-116488212D01*
X147542989Y-116608802D01*
X147592721Y-116694940D01*
X147672181Y-116798493D01*
X147688688Y-116815000D01*
X138150883Y-116815000D01*
X138693834Y-116272049D01*
X138722353Y-116318052D01*
X138887076Y-116494408D01*
X139083039Y-116635239D01*
X139302712Y-116735134D01*
X139383020Y-116759489D01*
X139573000Y-116698627D01*
X139573000Y-115697000D01*
X139827000Y-115697000D01*
X139827000Y-116698627D01*
X140016980Y-116759489D01*
X140097288Y-116735134D01*
X140316961Y-116635239D01*
X140512924Y-116494408D01*
X140582423Y-116420000D01*
X141007157Y-116420000D01*
X141014513Y-116494689D01*
X141036299Y-116566508D01*
X141071678Y-116632696D01*
X141119289Y-116690711D01*
X141177304Y-116738322D01*
X141243492Y-116773701D01*
X141315311Y-116795487D01*
X141390000Y-116802843D01*
X142017750Y-116801000D01*
X142113000Y-116705750D01*
X142113000Y-115697000D01*
X142367000Y-115697000D01*
X142367000Y-116705750D01*
X142462250Y-116801000D01*
X143090000Y-116802843D01*
X143164689Y-116795487D01*
X143236508Y-116773701D01*
X143302696Y-116738322D01*
X143360711Y-116690711D01*
X143408322Y-116632696D01*
X143443701Y-116566508D01*
X143465487Y-116494689D01*
X143472843Y-116420000D01*
X143471000Y-115792250D01*
X143375750Y-115697000D01*
X142367000Y-115697000D01*
X142113000Y-115697000D01*
X141104250Y-115697000D01*
X141009000Y-115792250D01*
X141007157Y-116420000D01*
X140582423Y-116420000D01*
X140677647Y-116318052D01*
X140804799Y-116112949D01*
X140889495Y-115886981D01*
X140829187Y-115697000D01*
X139827000Y-115697000D01*
X139573000Y-115697000D01*
X139553000Y-115697000D01*
X139553000Y-115443000D01*
X139573000Y-115443000D01*
X139573000Y-114441373D01*
X139827000Y-114441373D01*
X139827000Y-115443000D01*
X140829187Y-115443000D01*
X140889495Y-115253019D01*
X140804799Y-115027051D01*
X140677647Y-114821948D01*
X140582424Y-114720000D01*
X141007157Y-114720000D01*
X141009000Y-115347750D01*
X141104250Y-115443000D01*
X142113000Y-115443000D01*
X142113000Y-114434250D01*
X142367000Y-114434250D01*
X142367000Y-115443000D01*
X143375750Y-115443000D01*
X143471000Y-115347750D01*
X143472843Y-114720000D01*
X143465487Y-114645311D01*
X143443701Y-114573492D01*
X143408322Y-114507304D01*
X143360711Y-114449289D01*
X143302696Y-114401678D01*
X143236508Y-114366299D01*
X143164689Y-114344513D01*
X143090000Y-114337157D01*
X142462250Y-114339000D01*
X142367000Y-114434250D01*
X142113000Y-114434250D01*
X142017750Y-114339000D01*
X141390000Y-114337157D01*
X141315311Y-114344513D01*
X141243492Y-114366299D01*
X141177304Y-114401678D01*
X141119289Y-114449289D01*
X141071678Y-114507304D01*
X141036299Y-114573492D01*
X141014513Y-114645311D01*
X141007157Y-114720000D01*
X140582424Y-114720000D01*
X140512924Y-114645592D01*
X140316961Y-114504761D01*
X140097288Y-114404866D01*
X140016980Y-114380511D01*
X139827000Y-114441373D01*
X139573000Y-114441373D01*
X139383020Y-114380511D01*
X139302712Y-114404866D01*
X139083039Y-114504761D01*
X138887076Y-114645592D01*
X138884944Y-114647875D01*
X138879402Y-114591608D01*
X138853327Y-114505652D01*
X138810984Y-114426434D01*
X138754001Y-114356999D01*
X138736598Y-114342717D01*
X138260283Y-113866402D01*
X138246001Y-113848999D01*
X138176566Y-113792016D01*
X138143248Y-113774207D01*
X138250898Y-113613097D01*
X138343693Y-113389069D01*
X138391000Y-113151243D01*
X138391000Y-112908757D01*
X138343693Y-112670931D01*
X138250898Y-112446903D01*
X138216218Y-112395000D01*
X138643782Y-112395000D01*
X138609102Y-112446903D01*
G37*
G04 #@! TD.AperFunction*
D14*
X102563402Y-107230717D02*
X102545999Y-107244999D01*
X102489016Y-107314435D01*
X102446673Y-107393653D01*
X102420598Y-107479609D01*
X102415498Y-107531391D01*
X102411794Y-107569000D01*
X102414000Y-107591396D01*
X102414001Y-112103104D01*
X102384717Y-112073820D01*
X102183097Y-111939102D01*
X101959069Y-111846307D01*
X101721243Y-111799000D01*
X101478757Y-111799000D01*
X101240931Y-111846307D01*
X101016903Y-111939102D01*
X100815283Y-112073820D01*
X100643820Y-112245283D01*
X100509102Y-112446903D01*
X100416307Y-112670931D01*
X100369000Y-112908757D01*
X100369000Y-113151243D01*
X100416307Y-113389069D01*
X100509102Y-113613097D01*
X100643820Y-113814717D01*
X100815283Y-113986180D01*
X101016903Y-114120898D01*
X101240931Y-114213693D01*
X101478757Y-114261000D01*
X101721243Y-114261000D01*
X101959069Y-114213693D01*
X102183097Y-114120898D01*
X102384717Y-113986180D01*
X102414001Y-113956896D01*
X102414001Y-114646745D01*
X102412924Y-114645592D01*
X102216961Y-114504761D01*
X101997288Y-114404866D01*
X101916980Y-114380511D01*
X101727000Y-114441373D01*
X101727000Y-115443000D01*
X101747000Y-115443000D01*
X101747000Y-115697000D01*
X101727000Y-115697000D01*
X101727000Y-116698627D01*
X101916980Y-116759489D01*
X101997288Y-116735134D01*
X102216961Y-116635239D01*
X102412924Y-116494408D01*
X102524128Y-116375350D01*
X102546000Y-116402001D01*
X102563398Y-116416279D01*
X102962119Y-116815000D01*
X101238854Y-116815000D01*
X101051559Y-116796636D01*
X100890497Y-116748008D01*
X100741949Y-116669023D01*
X100611570Y-116562689D01*
X100504326Y-116433054D01*
X100424305Y-116285058D01*
X100374554Y-116124339D01*
X100355000Y-115938293D01*
X100355000Y-115886981D01*
X100410505Y-115886981D01*
X100495201Y-116112949D01*
X100622353Y-116318052D01*
X100787076Y-116494408D01*
X100983039Y-116635239D01*
X101202712Y-116735134D01*
X101283020Y-116759489D01*
X101473000Y-116698627D01*
X101473000Y-115697000D01*
X100470813Y-115697000D01*
X100410505Y-115886981D01*
X100355000Y-115886981D01*
X100355000Y-115253019D01*
X100410505Y-115253019D01*
X100470813Y-115443000D01*
X101473000Y-115443000D01*
X101473000Y-114441373D01*
X101283020Y-114380511D01*
X101202712Y-114404866D01*
X100983039Y-114504761D01*
X100787076Y-114645592D01*
X100622353Y-114821948D01*
X100495201Y-115027051D01*
X100410505Y-115253019D01*
X100355000Y-115253019D01*
X100355000Y-107334854D01*
X100373364Y-107147559D01*
X100421992Y-106986499D01*
X100500979Y-106837946D01*
X100607310Y-106707570D01*
X100736946Y-106600326D01*
X100884942Y-106520305D01*
X101045661Y-106470554D01*
X101231707Y-106451000D01*
X103343118Y-106451000D01*
X102563402Y-107230717D01*
G04 #@! TA.AperFunction,Conductor*
D15*
G36*
X102563402Y-107230717D02*
G01*
X102545999Y-107244999D01*
X102489016Y-107314435D01*
X102446673Y-107393653D01*
X102420598Y-107479609D01*
X102415498Y-107531391D01*
X102411794Y-107569000D01*
X102414000Y-107591396D01*
X102414001Y-112103104D01*
X102384717Y-112073820D01*
X102183097Y-111939102D01*
X101959069Y-111846307D01*
X101721243Y-111799000D01*
X101478757Y-111799000D01*
X101240931Y-111846307D01*
X101016903Y-111939102D01*
X100815283Y-112073820D01*
X100643820Y-112245283D01*
X100509102Y-112446903D01*
X100416307Y-112670931D01*
X100369000Y-112908757D01*
X100369000Y-113151243D01*
X100416307Y-113389069D01*
X100509102Y-113613097D01*
X100643820Y-113814717D01*
X100815283Y-113986180D01*
X101016903Y-114120898D01*
X101240931Y-114213693D01*
X101478757Y-114261000D01*
X101721243Y-114261000D01*
X101959069Y-114213693D01*
X102183097Y-114120898D01*
X102384717Y-113986180D01*
X102414001Y-113956896D01*
X102414001Y-114646745D01*
X102412924Y-114645592D01*
X102216961Y-114504761D01*
X101997288Y-114404866D01*
X101916980Y-114380511D01*
X101727000Y-114441373D01*
X101727000Y-115443000D01*
X101747000Y-115443000D01*
X101747000Y-115697000D01*
X101727000Y-115697000D01*
X101727000Y-116698627D01*
X101916980Y-116759489D01*
X101997288Y-116735134D01*
X102216961Y-116635239D01*
X102412924Y-116494408D01*
X102524128Y-116375350D01*
X102546000Y-116402001D01*
X102563398Y-116416279D01*
X102962119Y-116815000D01*
X101238854Y-116815000D01*
X101051559Y-116796636D01*
X100890497Y-116748008D01*
X100741949Y-116669023D01*
X100611570Y-116562689D01*
X100504326Y-116433054D01*
X100424305Y-116285058D01*
X100374554Y-116124339D01*
X100355000Y-115938293D01*
X100355000Y-115886981D01*
X100410505Y-115886981D01*
X100495201Y-116112949D01*
X100622353Y-116318052D01*
X100787076Y-116494408D01*
X100983039Y-116635239D01*
X101202712Y-116735134D01*
X101283020Y-116759489D01*
X101473000Y-116698627D01*
X101473000Y-115697000D01*
X100470813Y-115697000D01*
X100410505Y-115886981D01*
X100355000Y-115886981D01*
X100355000Y-115253019D01*
X100410505Y-115253019D01*
X100470813Y-115443000D01*
X101473000Y-115443000D01*
X101473000Y-114441373D01*
X101283020Y-114380511D01*
X101202712Y-114404866D01*
X100983039Y-114504761D01*
X100787076Y-114645592D01*
X100622353Y-114821948D01*
X100495201Y-115027051D01*
X100410505Y-115253019D01*
X100355000Y-115253019D01*
X100355000Y-107334854D01*
X100373364Y-107147559D01*
X100421992Y-106986499D01*
X100500979Y-106837946D01*
X100607310Y-106707570D01*
X100736946Y-106600326D01*
X100884942Y-106520305D01*
X101045661Y-106470554D01*
X101231707Y-106451000D01*
X103343118Y-106451000D01*
X102563402Y-107230717D01*
G37*
G04 #@! TD.AperFunction*
D14*
X110975283Y-106485820D02*
X110803820Y-106657283D01*
X110669102Y-106858903D01*
X110576307Y-107082931D01*
X110529000Y-107320757D01*
X110529000Y-107563243D01*
X110576307Y-107801069D01*
X110669102Y-108025097D01*
X110803820Y-108226717D01*
X110975283Y-108398180D01*
X111176903Y-108532898D01*
X111400931Y-108625693D01*
X111638757Y-108673000D01*
X111881243Y-108673000D01*
X112119069Y-108625693D01*
X112343097Y-108532898D01*
X112544717Y-108398180D01*
X112716180Y-108226717D01*
X112850898Y-108025097D01*
X112943693Y-107801069D01*
X112991000Y-107563243D01*
X112991000Y-107320757D01*
X112943693Y-107082931D01*
X112850898Y-106858903D01*
X112716180Y-106657283D01*
X112544717Y-106485820D01*
X112492605Y-106451000D01*
X113567395Y-106451000D01*
X113515283Y-106485820D01*
X113343820Y-106657283D01*
X113209102Y-106858903D01*
X113116307Y-107082931D01*
X113069000Y-107320757D01*
X113069000Y-107563243D01*
X113116307Y-107801069D01*
X113209102Y-108025097D01*
X113343820Y-108226717D01*
X113515283Y-108398180D01*
X113716903Y-108532898D01*
X113940931Y-108625693D01*
X114178757Y-108673000D01*
X114421243Y-108673000D01*
X114659069Y-108625693D01*
X114883097Y-108532898D01*
X115084717Y-108398180D01*
X115256180Y-108226717D01*
X115390898Y-108025097D01*
X115483693Y-107801069D01*
X115531000Y-107563243D01*
X115531000Y-107320757D01*
X115483693Y-107082931D01*
X115390898Y-106858903D01*
X115256180Y-106657283D01*
X115084717Y-106485820D01*
X115032605Y-106451000D01*
X116107395Y-106451000D01*
X116055283Y-106485820D01*
X115883820Y-106657283D01*
X115749102Y-106858903D01*
X115656307Y-107082931D01*
X115609000Y-107320757D01*
X115609000Y-107563243D01*
X115656307Y-107801069D01*
X115749102Y-108025097D01*
X115883820Y-108226717D01*
X116055283Y-108398180D01*
X116256903Y-108532898D01*
X116480931Y-108625693D01*
X116718757Y-108673000D01*
X116961243Y-108673000D01*
X117199069Y-108625693D01*
X117423097Y-108532898D01*
X117624717Y-108398180D01*
X117796180Y-108226717D01*
X117798011Y-108223977D01*
X117798011Y-108566680D01*
X117725043Y-108639648D01*
X117650516Y-108751186D01*
X117599181Y-108875120D01*
X117575717Y-108993079D01*
X117423097Y-108891102D01*
X117199069Y-108798307D01*
X116961243Y-108751000D01*
X116718757Y-108751000D01*
X116480931Y-108798307D01*
X116256903Y-108891102D01*
X116055283Y-109025820D01*
X115883820Y-109197283D01*
X115839120Y-109264181D01*
X115805940Y-109238721D01*
X115719802Y-109188989D01*
X115599212Y-109139039D01*
X115503140Y-109113296D01*
X115373730Y-109096259D01*
X115324000Y-109093000D01*
X115151897Y-109093000D01*
X115084717Y-109025820D01*
X114883097Y-108891102D01*
X114659069Y-108798307D01*
X114421243Y-108751000D01*
X114178757Y-108751000D01*
X113940931Y-108798307D01*
X113716903Y-108891102D01*
X113515283Y-109025820D01*
X113448103Y-109093000D01*
X112611897Y-109093000D01*
X112544717Y-109025820D01*
X112343097Y-108891102D01*
X112119069Y-108798307D01*
X111881243Y-108751000D01*
X111638757Y-108751000D01*
X111400931Y-108798307D01*
X111176903Y-108891102D01*
X110975283Y-109025820D01*
X110908103Y-109093000D01*
X110071897Y-109093000D01*
X110004717Y-109025820D01*
X109803097Y-108891102D01*
X109579069Y-108798307D01*
X109341243Y-108751000D01*
X109098757Y-108751000D01*
X108860931Y-108798307D01*
X108636903Y-108891102D01*
X108435283Y-109025820D01*
X108368103Y-109093000D01*
X107909002Y-109093000D01*
X107905487Y-109057311D01*
X107883701Y-108985492D01*
X107848322Y-108919304D01*
X107800711Y-108861289D01*
X107742696Y-108813678D01*
X107676508Y-108778299D01*
X107604689Y-108756513D01*
X107530000Y-108749157D01*
X105830000Y-108749157D01*
X105755311Y-108756513D01*
X105683492Y-108778299D01*
X105617304Y-108813678D01*
X105559289Y-108861289D01*
X105511678Y-108919304D01*
X105476299Y-108985492D01*
X105454513Y-109057311D01*
X105447157Y-109132000D01*
X105447157Y-109164153D01*
X105387198Y-109188989D01*
X105301060Y-109238721D01*
X105197507Y-109318181D01*
X105127181Y-109388507D01*
X105047721Y-109492060D01*
X104997989Y-109578198D01*
X104948039Y-109698788D01*
X104922296Y-109794860D01*
X104905259Y-109924270D01*
X104902000Y-109974000D01*
X104902000Y-111514000D01*
X104905259Y-111563730D01*
X104922296Y-111693140D01*
X104948039Y-111789212D01*
X104997989Y-111909802D01*
X105047721Y-111995940D01*
X105127181Y-112099493D01*
X105197507Y-112169819D01*
X105301060Y-112249279D01*
X105387198Y-112299011D01*
X105507788Y-112348961D01*
X105603860Y-112374704D01*
X105634636Y-112378756D01*
X105589102Y-112446903D01*
X105496307Y-112670931D01*
X105449000Y-112908757D01*
X105449000Y-113151243D01*
X105496307Y-113389069D01*
X105589102Y-113613097D01*
X105723820Y-113814717D01*
X105895283Y-113986180D01*
X106096903Y-114120898D01*
X106320931Y-114213693D01*
X106558757Y-114261000D01*
X106801243Y-114261000D01*
X107039069Y-114213693D01*
X107166166Y-114161048D01*
X107494000Y-114488882D01*
X107494000Y-114646744D01*
X107492924Y-114645592D01*
X107296961Y-114504761D01*
X107077288Y-114404866D01*
X106996980Y-114380511D01*
X106807000Y-114441373D01*
X106807000Y-115443000D01*
X106827000Y-115443000D01*
X106827000Y-115697000D01*
X106807000Y-115697000D01*
X106807000Y-115717000D01*
X106553000Y-115717000D01*
X106553000Y-115697000D01*
X105550813Y-115697000D01*
X105490505Y-115886981D01*
X105575201Y-116112949D01*
X105702353Y-116318052D01*
X105867076Y-116494408D01*
X105895715Y-116514990D01*
X104924285Y-116514990D01*
X104952924Y-116494408D01*
X105117647Y-116318052D01*
X105244799Y-116112949D01*
X105329495Y-115886981D01*
X105269187Y-115697000D01*
X104267000Y-115697000D01*
X104267000Y-115717000D01*
X104013000Y-115717000D01*
X104013000Y-115697000D01*
X103993000Y-115697000D01*
X103993000Y-115443000D01*
X104013000Y-115443000D01*
X104013000Y-114441373D01*
X104267000Y-114441373D01*
X104267000Y-115443000D01*
X105269187Y-115443000D01*
X105329495Y-115253019D01*
X105490505Y-115253019D01*
X105550813Y-115443000D01*
X106553000Y-115443000D01*
X106553000Y-114441373D01*
X106363020Y-114380511D01*
X106282712Y-114404866D01*
X106063039Y-114504761D01*
X105867076Y-114645592D01*
X105702353Y-114821948D01*
X105575201Y-115027051D01*
X105490505Y-115253019D01*
X105329495Y-115253019D01*
X105244799Y-115027051D01*
X105117647Y-114821948D01*
X104952924Y-114645592D01*
X104756961Y-114504761D01*
X104537288Y-114404866D01*
X104456980Y-114380511D01*
X104267000Y-114441373D01*
X104013000Y-114441373D01*
X103823020Y-114380511D01*
X103742712Y-114404866D01*
X103523039Y-114504761D01*
X103327076Y-114645592D01*
X103326000Y-114646744D01*
X103326000Y-113956897D01*
X103355283Y-113986180D01*
X103556903Y-114120898D01*
X103780931Y-114213693D01*
X104018757Y-114261000D01*
X104261243Y-114261000D01*
X104499069Y-114213693D01*
X104723097Y-114120898D01*
X104924717Y-113986180D01*
X105096180Y-113814717D01*
X105230898Y-113613097D01*
X105323693Y-113389069D01*
X105371000Y-113151243D01*
X105371000Y-112908757D01*
X105323693Y-112670931D01*
X105230898Y-112446903D01*
X105096180Y-112245283D01*
X104924717Y-112073820D01*
X104723097Y-111939102D01*
X104499069Y-111846307D01*
X104261243Y-111799000D01*
X104018757Y-111799000D01*
X103780931Y-111846307D01*
X103556903Y-111939102D01*
X103355283Y-112073820D01*
X103326000Y-112103103D01*
X103326000Y-107757881D01*
X104328882Y-106755000D01*
X105658528Y-106755000D01*
X105589102Y-106858903D01*
X105496307Y-107082931D01*
X105449000Y-107320757D01*
X105449000Y-107563243D01*
X105496307Y-107801069D01*
X105589102Y-108025097D01*
X105723820Y-108226717D01*
X105895283Y-108398180D01*
X106096903Y-108532898D01*
X106320931Y-108625693D01*
X106558757Y-108673000D01*
X106801243Y-108673000D01*
X107039069Y-108625693D01*
X107263097Y-108532898D01*
X107464717Y-108398180D01*
X107636180Y-108226717D01*
X107770898Y-108025097D01*
X107863693Y-107801069D01*
X107911000Y-107563243D01*
X107911000Y-107320757D01*
X107863693Y-107082931D01*
X107770898Y-106858903D01*
X107701472Y-106755000D01*
X107888119Y-106755000D01*
X108088952Y-106955834D01*
X108036307Y-107082931D01*
X107989000Y-107320757D01*
X107989000Y-107563243D01*
X108036307Y-107801069D01*
X108129102Y-108025097D01*
X108263820Y-108226717D01*
X108435283Y-108398180D01*
X108636903Y-108532898D01*
X108860931Y-108625693D01*
X109098757Y-108673000D01*
X109341243Y-108673000D01*
X109579069Y-108625693D01*
X109803097Y-108532898D01*
X110004717Y-108398180D01*
X110176180Y-108226717D01*
X110310898Y-108025097D01*
X110403693Y-107801069D01*
X110451000Y-107563243D01*
X110451000Y-107320757D01*
X110403693Y-107082931D01*
X110310898Y-106858903D01*
X110176180Y-106657283D01*
X110004717Y-106485820D01*
X109952605Y-106451000D01*
X111027395Y-106451000D01*
X110975283Y-106485820D01*
G04 #@! TA.AperFunction,Conductor*
D15*
G36*
X110975283Y-106485820D02*
G01*
X110803820Y-106657283D01*
X110669102Y-106858903D01*
X110576307Y-107082931D01*
X110529000Y-107320757D01*
X110529000Y-107563243D01*
X110576307Y-107801069D01*
X110669102Y-108025097D01*
X110803820Y-108226717D01*
X110975283Y-108398180D01*
X111176903Y-108532898D01*
X111400931Y-108625693D01*
X111638757Y-108673000D01*
X111881243Y-108673000D01*
X112119069Y-108625693D01*
X112343097Y-108532898D01*
X112544717Y-108398180D01*
X112716180Y-108226717D01*
X112850898Y-108025097D01*
X112943693Y-107801069D01*
X112991000Y-107563243D01*
X112991000Y-107320757D01*
X112943693Y-107082931D01*
X112850898Y-106858903D01*
X112716180Y-106657283D01*
X112544717Y-106485820D01*
X112492605Y-106451000D01*
X113567395Y-106451000D01*
X113515283Y-106485820D01*
X113343820Y-106657283D01*
X113209102Y-106858903D01*
X113116307Y-107082931D01*
X113069000Y-107320757D01*
X113069000Y-107563243D01*
X113116307Y-107801069D01*
X113209102Y-108025097D01*
X113343820Y-108226717D01*
X113515283Y-108398180D01*
X113716903Y-108532898D01*
X113940931Y-108625693D01*
X114178757Y-108673000D01*
X114421243Y-108673000D01*
X114659069Y-108625693D01*
X114883097Y-108532898D01*
X115084717Y-108398180D01*
X115256180Y-108226717D01*
X115390898Y-108025097D01*
X115483693Y-107801069D01*
X115531000Y-107563243D01*
X115531000Y-107320757D01*
X115483693Y-107082931D01*
X115390898Y-106858903D01*
X115256180Y-106657283D01*
X115084717Y-106485820D01*
X115032605Y-106451000D01*
X116107395Y-106451000D01*
X116055283Y-106485820D01*
X115883820Y-106657283D01*
X115749102Y-106858903D01*
X115656307Y-107082931D01*
X115609000Y-107320757D01*
X115609000Y-107563243D01*
X115656307Y-107801069D01*
X115749102Y-108025097D01*
X115883820Y-108226717D01*
X116055283Y-108398180D01*
X116256903Y-108532898D01*
X116480931Y-108625693D01*
X116718757Y-108673000D01*
X116961243Y-108673000D01*
X117199069Y-108625693D01*
X117423097Y-108532898D01*
X117624717Y-108398180D01*
X117796180Y-108226717D01*
X117798011Y-108223977D01*
X117798011Y-108566680D01*
X117725043Y-108639648D01*
X117650516Y-108751186D01*
X117599181Y-108875120D01*
X117575717Y-108993079D01*
X117423097Y-108891102D01*
X117199069Y-108798307D01*
X116961243Y-108751000D01*
X116718757Y-108751000D01*
X116480931Y-108798307D01*
X116256903Y-108891102D01*
X116055283Y-109025820D01*
X115883820Y-109197283D01*
X115839120Y-109264181D01*
X115805940Y-109238721D01*
X115719802Y-109188989D01*
X115599212Y-109139039D01*
X115503140Y-109113296D01*
X115373730Y-109096259D01*
X115324000Y-109093000D01*
X115151897Y-109093000D01*
X115084717Y-109025820D01*
X114883097Y-108891102D01*
X114659069Y-108798307D01*
X114421243Y-108751000D01*
X114178757Y-108751000D01*
X113940931Y-108798307D01*
X113716903Y-108891102D01*
X113515283Y-109025820D01*
X113448103Y-109093000D01*
X112611897Y-109093000D01*
X112544717Y-109025820D01*
X112343097Y-108891102D01*
X112119069Y-108798307D01*
X111881243Y-108751000D01*
X111638757Y-108751000D01*
X111400931Y-108798307D01*
X111176903Y-108891102D01*
X110975283Y-109025820D01*
X110908103Y-109093000D01*
X110071897Y-109093000D01*
X110004717Y-109025820D01*
X109803097Y-108891102D01*
X109579069Y-108798307D01*
X109341243Y-108751000D01*
X109098757Y-108751000D01*
X108860931Y-108798307D01*
X108636903Y-108891102D01*
X108435283Y-109025820D01*
X108368103Y-109093000D01*
X107909002Y-109093000D01*
X107905487Y-109057311D01*
X107883701Y-108985492D01*
X107848322Y-108919304D01*
X107800711Y-108861289D01*
X107742696Y-108813678D01*
X107676508Y-108778299D01*
X107604689Y-108756513D01*
X107530000Y-108749157D01*
X105830000Y-108749157D01*
X105755311Y-108756513D01*
X105683492Y-108778299D01*
X105617304Y-108813678D01*
X105559289Y-108861289D01*
X105511678Y-108919304D01*
X105476299Y-108985492D01*
X105454513Y-109057311D01*
X105447157Y-109132000D01*
X105447157Y-109164153D01*
X105387198Y-109188989D01*
X105301060Y-109238721D01*
X105197507Y-109318181D01*
X105127181Y-109388507D01*
X105047721Y-109492060D01*
X104997989Y-109578198D01*
X104948039Y-109698788D01*
X104922296Y-109794860D01*
X104905259Y-109924270D01*
X104902000Y-109974000D01*
X104902000Y-111514000D01*
X104905259Y-111563730D01*
X104922296Y-111693140D01*
X104948039Y-111789212D01*
X104997989Y-111909802D01*
X105047721Y-111995940D01*
X105127181Y-112099493D01*
X105197507Y-112169819D01*
X105301060Y-112249279D01*
X105387198Y-112299011D01*
X105507788Y-112348961D01*
X105603860Y-112374704D01*
X105634636Y-112378756D01*
X105589102Y-112446903D01*
X105496307Y-112670931D01*
X105449000Y-112908757D01*
X105449000Y-113151243D01*
X105496307Y-113389069D01*
X105589102Y-113613097D01*
X105723820Y-113814717D01*
X105895283Y-113986180D01*
X106096903Y-114120898D01*
X106320931Y-114213693D01*
X106558757Y-114261000D01*
X106801243Y-114261000D01*
X107039069Y-114213693D01*
X107166166Y-114161048D01*
X107494000Y-114488882D01*
X107494000Y-114646744D01*
X107492924Y-114645592D01*
X107296961Y-114504761D01*
X107077288Y-114404866D01*
X106996980Y-114380511D01*
X106807000Y-114441373D01*
X106807000Y-115443000D01*
X106827000Y-115443000D01*
X106827000Y-115697000D01*
X106807000Y-115697000D01*
X106807000Y-115717000D01*
X106553000Y-115717000D01*
X106553000Y-115697000D01*
X105550813Y-115697000D01*
X105490505Y-115886981D01*
X105575201Y-116112949D01*
X105702353Y-116318052D01*
X105867076Y-116494408D01*
X105895715Y-116514990D01*
X104924285Y-116514990D01*
X104952924Y-116494408D01*
X105117647Y-116318052D01*
X105244799Y-116112949D01*
X105329495Y-115886981D01*
X105269187Y-115697000D01*
X104267000Y-115697000D01*
X104267000Y-115717000D01*
X104013000Y-115717000D01*
X104013000Y-115697000D01*
X103993000Y-115697000D01*
X103993000Y-115443000D01*
X104013000Y-115443000D01*
X104013000Y-114441373D01*
X104267000Y-114441373D01*
X104267000Y-115443000D01*
X105269187Y-115443000D01*
X105329495Y-115253019D01*
X105490505Y-115253019D01*
X105550813Y-115443000D01*
X106553000Y-115443000D01*
X106553000Y-114441373D01*
X106363020Y-114380511D01*
X106282712Y-114404866D01*
X106063039Y-114504761D01*
X105867076Y-114645592D01*
X105702353Y-114821948D01*
X105575201Y-115027051D01*
X105490505Y-115253019D01*
X105329495Y-115253019D01*
X105244799Y-115027051D01*
X105117647Y-114821948D01*
X104952924Y-114645592D01*
X104756961Y-114504761D01*
X104537288Y-114404866D01*
X104456980Y-114380511D01*
X104267000Y-114441373D01*
X104013000Y-114441373D01*
X103823020Y-114380511D01*
X103742712Y-114404866D01*
X103523039Y-114504761D01*
X103327076Y-114645592D01*
X103326000Y-114646744D01*
X103326000Y-113956897D01*
X103355283Y-113986180D01*
X103556903Y-114120898D01*
X103780931Y-114213693D01*
X104018757Y-114261000D01*
X104261243Y-114261000D01*
X104499069Y-114213693D01*
X104723097Y-114120898D01*
X104924717Y-113986180D01*
X105096180Y-113814717D01*
X105230898Y-113613097D01*
X105323693Y-113389069D01*
X105371000Y-113151243D01*
X105371000Y-112908757D01*
X105323693Y-112670931D01*
X105230898Y-112446903D01*
X105096180Y-112245283D01*
X104924717Y-112073820D01*
X104723097Y-111939102D01*
X104499069Y-111846307D01*
X104261243Y-111799000D01*
X104018757Y-111799000D01*
X103780931Y-111846307D01*
X103556903Y-111939102D01*
X103355283Y-112073820D01*
X103326000Y-112103103D01*
X103326000Y-107757881D01*
X104328882Y-106755000D01*
X105658528Y-106755000D01*
X105589102Y-106858903D01*
X105496307Y-107082931D01*
X105449000Y-107320757D01*
X105449000Y-107563243D01*
X105496307Y-107801069D01*
X105589102Y-108025097D01*
X105723820Y-108226717D01*
X105895283Y-108398180D01*
X106096903Y-108532898D01*
X106320931Y-108625693D01*
X106558757Y-108673000D01*
X106801243Y-108673000D01*
X107039069Y-108625693D01*
X107263097Y-108532898D01*
X107464717Y-108398180D01*
X107636180Y-108226717D01*
X107770898Y-108025097D01*
X107863693Y-107801069D01*
X107911000Y-107563243D01*
X107911000Y-107320757D01*
X107863693Y-107082931D01*
X107770898Y-106858903D01*
X107701472Y-106755000D01*
X107888119Y-106755000D01*
X108088952Y-106955834D01*
X108036307Y-107082931D01*
X107989000Y-107320757D01*
X107989000Y-107563243D01*
X108036307Y-107801069D01*
X108129102Y-108025097D01*
X108263820Y-108226717D01*
X108435283Y-108398180D01*
X108636903Y-108532898D01*
X108860931Y-108625693D01*
X109098757Y-108673000D01*
X109341243Y-108673000D01*
X109579069Y-108625693D01*
X109803097Y-108532898D01*
X110004717Y-108398180D01*
X110176180Y-108226717D01*
X110310898Y-108025097D01*
X110403693Y-107801069D01*
X110451000Y-107563243D01*
X110451000Y-107320757D01*
X110403693Y-107082931D01*
X110310898Y-106858903D01*
X110176180Y-106657283D01*
X110004717Y-106485820D01*
X109952605Y-106451000D01*
X111027395Y-106451000D01*
X110975283Y-106485820D01*
G37*
G04 #@! TD.AperFunction*
D14*
X108129102Y-112446903D02*
X108036307Y-112670931D01*
X107989000Y-112908757D01*
X107989000Y-113151243D01*
X108036307Y-113389069D01*
X108129102Y-113613097D01*
X108263820Y-113814717D01*
X108435283Y-113986180D01*
X108636903Y-114120898D01*
X108860931Y-114213693D01*
X109098757Y-114261000D01*
X109341243Y-114261000D01*
X109579069Y-114213693D01*
X109803097Y-114120898D01*
X110004717Y-113986180D01*
X110176180Y-113814717D01*
X110310898Y-113613097D01*
X110403693Y-113389069D01*
X110451000Y-113151243D01*
X110451000Y-112908757D01*
X110403693Y-112670931D01*
X110310898Y-112446903D01*
X110276218Y-112395000D01*
X110703782Y-112395000D01*
X110669102Y-112446903D01*
X110576307Y-112670931D01*
X110529000Y-112908757D01*
X110529000Y-113151243D01*
X110576307Y-113389069D01*
X110669102Y-113613097D01*
X110803820Y-113814717D01*
X110975283Y-113986180D01*
X111176903Y-114120898D01*
X111400931Y-114213693D01*
X111638757Y-114261000D01*
X111881243Y-114261000D01*
X112119069Y-114213693D01*
X112343097Y-114120898D01*
X112410472Y-114075879D01*
X112426506Y-114114588D01*
X112501033Y-114226126D01*
X112595888Y-114320981D01*
X112707426Y-114395508D01*
X112831360Y-114446843D01*
X112962927Y-114473014D01*
X113066119Y-114473014D01*
X113199703Y-114606598D01*
X113213985Y-114624001D01*
X113254216Y-114657018D01*
X113283420Y-114680985D01*
X113362636Y-114723326D01*
X113362638Y-114723327D01*
X113403025Y-114735579D01*
X113322353Y-114821948D01*
X113195201Y-115027051D01*
X113110505Y-115253019D01*
X113170813Y-115443000D01*
X114173000Y-115443000D01*
X114173000Y-115423000D01*
X114427000Y-115423000D01*
X114427000Y-115443000D01*
X115429187Y-115443000D01*
X115489495Y-115253019D01*
X115404799Y-115027051D01*
X115277647Y-114821948D01*
X115216049Y-114756000D01*
X115923951Y-114756000D01*
X115862353Y-114821948D01*
X115735201Y-115027051D01*
X115650505Y-115253019D01*
X115710813Y-115443000D01*
X116713000Y-115443000D01*
X116713000Y-115423000D01*
X116967000Y-115423000D01*
X116967000Y-115443000D01*
X117969187Y-115443000D01*
X118029495Y-115253019D01*
X117944799Y-115027051D01*
X117817647Y-114821948D01*
X117756049Y-114756000D01*
X118463951Y-114756000D01*
X118402353Y-114821948D01*
X118275201Y-115027051D01*
X118190505Y-115253019D01*
X118250813Y-115443000D01*
X119253000Y-115443000D01*
X119253000Y-115423000D01*
X119507000Y-115423000D01*
X119507000Y-115443000D01*
X120509187Y-115443000D01*
X120569495Y-115253019D01*
X120484799Y-115027051D01*
X120357647Y-114821948D01*
X120296049Y-114756000D01*
X121003951Y-114756000D01*
X120942353Y-114821948D01*
X120815201Y-115027051D01*
X120730505Y-115253019D01*
X120790813Y-115443000D01*
X121793000Y-115443000D01*
X121793000Y-115423000D01*
X122047000Y-115423000D01*
X122047000Y-115443000D01*
X123049187Y-115443000D01*
X123109495Y-115253019D01*
X123270505Y-115253019D01*
X123330813Y-115443000D01*
X124333000Y-115443000D01*
X124333000Y-114441373D01*
X124587000Y-114441373D01*
X124587000Y-115443000D01*
X125589187Y-115443000D01*
X125649495Y-115253019D01*
X125810505Y-115253019D01*
X125870813Y-115443000D01*
X126873000Y-115443000D01*
X126873000Y-114441373D01*
X127127000Y-114441373D01*
X127127000Y-115443000D01*
X128129187Y-115443000D01*
X128189495Y-115253019D01*
X128350505Y-115253019D01*
X128410813Y-115443000D01*
X129413000Y-115443000D01*
X129413000Y-114441373D01*
X129667000Y-114441373D01*
X129667000Y-115443000D01*
X130669187Y-115443000D01*
X130729495Y-115253019D01*
X130890505Y-115253019D01*
X130950813Y-115443000D01*
X131953000Y-115443000D01*
X131953000Y-114441373D01*
X132207000Y-114441373D01*
X132207000Y-115443000D01*
X133209187Y-115443000D01*
X133269495Y-115253019D01*
X133184799Y-115027051D01*
X133057647Y-114821948D01*
X132892924Y-114645592D01*
X132696961Y-114504761D01*
X132477288Y-114404866D01*
X132396980Y-114380511D01*
X132207000Y-114441373D01*
X131953000Y-114441373D01*
X131763020Y-114380511D01*
X131682712Y-114404866D01*
X131463039Y-114504761D01*
X131267076Y-114645592D01*
X131102353Y-114821948D01*
X130975201Y-115027051D01*
X130890505Y-115253019D01*
X130729495Y-115253019D01*
X130644799Y-115027051D01*
X130517647Y-114821948D01*
X130352924Y-114645592D01*
X130156961Y-114504761D01*
X129937288Y-114404866D01*
X129856980Y-114380511D01*
X129667000Y-114441373D01*
X129413000Y-114441373D01*
X129223020Y-114380511D01*
X129142712Y-114404866D01*
X128923039Y-114504761D01*
X128727076Y-114645592D01*
X128562353Y-114821948D01*
X128435201Y-115027051D01*
X128350505Y-115253019D01*
X128189495Y-115253019D01*
X128104799Y-115027051D01*
X127977647Y-114821948D01*
X127812924Y-114645592D01*
X127616961Y-114504761D01*
X127397288Y-114404866D01*
X127316980Y-114380511D01*
X127127000Y-114441373D01*
X126873000Y-114441373D01*
X126683020Y-114380511D01*
X126602712Y-114404866D01*
X126383039Y-114504761D01*
X126187076Y-114645592D01*
X126022353Y-114821948D01*
X125895201Y-115027051D01*
X125810505Y-115253019D01*
X125649495Y-115253019D01*
X125564799Y-115027051D01*
X125437647Y-114821948D01*
X125272924Y-114645592D01*
X125076961Y-114504761D01*
X124857288Y-114404866D01*
X124776980Y-114380511D01*
X124587000Y-114441373D01*
X124333000Y-114441373D01*
X124143020Y-114380511D01*
X124062712Y-114404866D01*
X123843039Y-114504761D01*
X123647076Y-114645592D01*
X123482353Y-114821948D01*
X123355201Y-115027051D01*
X123270505Y-115253019D01*
X123109495Y-115253019D01*
X123024799Y-115027051D01*
X122897647Y-114821948D01*
X122836049Y-114756000D01*
X123167604Y-114756000D01*
X123190000Y-114758206D01*
X123212396Y-114756000D01*
X123212399Y-114756000D01*
X123279392Y-114749402D01*
X123365348Y-114723327D01*
X123444566Y-114680984D01*
X123514001Y-114624001D01*
X123528283Y-114606598D01*
X123973834Y-114161048D01*
X124100931Y-114213693D01*
X124338757Y-114261000D01*
X124581243Y-114261000D01*
X124819069Y-114213693D01*
X125043097Y-114120898D01*
X125244717Y-113986180D01*
X125416180Y-113814717D01*
X125550898Y-113613097D01*
X125643693Y-113389069D01*
X125691000Y-113151243D01*
X125691000Y-112908757D01*
X125643693Y-112670931D01*
X125550898Y-112446903D01*
X125516218Y-112395000D01*
X125943782Y-112395000D01*
X125909102Y-112446903D01*
X125816307Y-112670931D01*
X125769000Y-112908757D01*
X125769000Y-113151243D01*
X125816307Y-113389069D01*
X125909102Y-113613097D01*
X126043820Y-113814717D01*
X126215283Y-113986180D01*
X126416903Y-114120898D01*
X126640931Y-114213693D01*
X126878757Y-114261000D01*
X127121243Y-114261000D01*
X127359069Y-114213693D01*
X127583097Y-114120898D01*
X127784717Y-113986180D01*
X127956180Y-113814717D01*
X128090898Y-113613097D01*
X128183693Y-113389069D01*
X128231000Y-113151243D01*
X128231000Y-112908757D01*
X128183693Y-112670931D01*
X128090898Y-112446903D01*
X128056218Y-112395000D01*
X128483782Y-112395000D01*
X128449102Y-112446903D01*
X128356307Y-112670931D01*
X128309000Y-112908757D01*
X128309000Y-113151243D01*
X128356307Y-113389069D01*
X128449102Y-113613097D01*
X128583820Y-113814717D01*
X128755283Y-113986180D01*
X128956903Y-114120898D01*
X129180931Y-114213693D01*
X129418757Y-114261000D01*
X129661243Y-114261000D01*
X129899069Y-114213693D01*
X130123097Y-114120898D01*
X130324717Y-113986180D01*
X130496180Y-113814717D01*
X130630898Y-113613097D01*
X130723693Y-113389069D01*
X130771000Y-113151243D01*
X130771000Y-112908757D01*
X130723693Y-112670931D01*
X130630898Y-112446903D01*
X130596218Y-112395000D01*
X131023782Y-112395000D01*
X130989102Y-112446903D01*
X130896307Y-112670931D01*
X130849000Y-112908757D01*
X130849000Y-113151243D01*
X130896307Y-113389069D01*
X130989102Y-113613097D01*
X131123820Y-113814717D01*
X131295283Y-113986180D01*
X131496903Y-114120898D01*
X131720931Y-114213693D01*
X131958757Y-114261000D01*
X132201243Y-114261000D01*
X132439069Y-114213693D01*
X132566166Y-114161048D01*
X132854219Y-114449101D01*
X132868497Y-114466499D01*
X132885895Y-114480777D01*
X132937932Y-114523483D01*
X133017150Y-114565825D01*
X133103106Y-114591900D01*
X133170099Y-114598498D01*
X133170102Y-114598498D01*
X133192498Y-114600704D01*
X133214894Y-114598498D01*
X133872606Y-114598498D01*
X133807076Y-114645592D01*
X133642353Y-114821948D01*
X133515201Y-115027051D01*
X133430505Y-115253019D01*
X133490813Y-115443000D01*
X134493000Y-115443000D01*
X134493000Y-115423000D01*
X134747000Y-115423000D01*
X134747000Y-115443000D01*
X134767000Y-115443000D01*
X134767000Y-115697000D01*
X134747000Y-115697000D01*
X134747000Y-115717000D01*
X134493000Y-115717000D01*
X134493000Y-115697000D01*
X133490813Y-115697000D01*
X133430505Y-115886981D01*
X133515201Y-116112949D01*
X133578454Y-116214979D01*
X133121546Y-116214979D01*
X133184799Y-116112949D01*
X133269495Y-115886981D01*
X133209187Y-115697000D01*
X132207000Y-115697000D01*
X132207000Y-115717000D01*
X131953000Y-115717000D01*
X131953000Y-115697000D01*
X130950813Y-115697000D01*
X130890505Y-115886981D01*
X130975201Y-116112949D01*
X131038454Y-116214979D01*
X130581546Y-116214979D01*
X130644799Y-116112949D01*
X130729495Y-115886981D01*
X130669187Y-115697000D01*
X129667000Y-115697000D01*
X129667000Y-115717000D01*
X129413000Y-115717000D01*
X129413000Y-115697000D01*
X128410813Y-115697000D01*
X128350505Y-115886981D01*
X128435201Y-116112949D01*
X128498454Y-116214979D01*
X128041546Y-116214979D01*
X128104799Y-116112949D01*
X128189495Y-115886981D01*
X128129187Y-115697000D01*
X127127000Y-115697000D01*
X127127000Y-115717000D01*
X126873000Y-115717000D01*
X126873000Y-115697000D01*
X125870813Y-115697000D01*
X125810505Y-115886981D01*
X125895201Y-116112949D01*
X125958454Y-116214979D01*
X125501546Y-116214979D01*
X125564799Y-116112949D01*
X125649495Y-115886981D01*
X125589187Y-115697000D01*
X124587000Y-115697000D01*
X124587000Y-115717000D01*
X124333000Y-115717000D01*
X124333000Y-115697000D01*
X123330813Y-115697000D01*
X123270505Y-115886981D01*
X123355201Y-116112949D01*
X123418454Y-116214979D01*
X122961546Y-116214979D01*
X123024799Y-116112949D01*
X123109495Y-115886981D01*
X123049187Y-115697000D01*
X122047000Y-115697000D01*
X122047000Y-115717000D01*
X121793000Y-115717000D01*
X121793000Y-115697000D01*
X120790813Y-115697000D01*
X120730505Y-115886981D01*
X120815201Y-116112949D01*
X120878454Y-116214979D01*
X120421546Y-116214979D01*
X120484799Y-116112949D01*
X120569495Y-115886981D01*
X120509187Y-115697000D01*
X119507000Y-115697000D01*
X119507000Y-115717000D01*
X119253000Y-115717000D01*
X119253000Y-115697000D01*
X118250813Y-115697000D01*
X118190505Y-115886981D01*
X118275201Y-116112949D01*
X118338454Y-116214979D01*
X117881546Y-116214979D01*
X117944799Y-116112949D01*
X118029495Y-115886981D01*
X117969187Y-115697000D01*
X116967000Y-115697000D01*
X116967000Y-115717000D01*
X116713000Y-115717000D01*
X116713000Y-115697000D01*
X115710813Y-115697000D01*
X115650505Y-115886981D01*
X115735201Y-116112949D01*
X115798454Y-116214979D01*
X115341546Y-116214979D01*
X115404799Y-116112949D01*
X115489495Y-115886981D01*
X115429187Y-115697000D01*
X114427000Y-115697000D01*
X114427000Y-115717000D01*
X114173000Y-115717000D01*
X114173000Y-115697000D01*
X113170813Y-115697000D01*
X113110505Y-115886981D01*
X113195201Y-116112949D01*
X113258454Y-116214979D01*
X112801546Y-116214979D01*
X112864799Y-116112949D01*
X112949495Y-115886981D01*
X112889187Y-115697000D01*
X111887000Y-115697000D01*
X111887000Y-115717000D01*
X111633000Y-115717000D01*
X111633000Y-115697000D01*
X110630813Y-115697000D01*
X110570505Y-115886981D01*
X110655201Y-116112949D01*
X110718454Y-116214979D01*
X110261546Y-116214979D01*
X110324799Y-116112949D01*
X110409495Y-115886981D01*
X110349187Y-115697000D01*
X109347000Y-115697000D01*
X109347000Y-115717000D01*
X109093000Y-115717000D01*
X109093000Y-115697000D01*
X109073000Y-115697000D01*
X109073000Y-115443000D01*
X109093000Y-115443000D01*
X109093000Y-114441373D01*
X109347000Y-114441373D01*
X109347000Y-115443000D01*
X110349187Y-115443000D01*
X110409495Y-115253019D01*
X110570505Y-115253019D01*
X110630813Y-115443000D01*
X111633000Y-115443000D01*
X111633000Y-114441373D01*
X111887000Y-114441373D01*
X111887000Y-115443000D01*
X112889187Y-115443000D01*
X112949495Y-115253019D01*
X112864799Y-115027051D01*
X112737647Y-114821948D01*
X112572924Y-114645592D01*
X112376961Y-114504761D01*
X112157288Y-114404866D01*
X112076980Y-114380511D01*
X111887000Y-114441373D01*
X111633000Y-114441373D01*
X111443020Y-114380511D01*
X111362712Y-114404866D01*
X111143039Y-114504761D01*
X110947076Y-114645592D01*
X110782353Y-114821948D01*
X110655201Y-115027051D01*
X110570505Y-115253019D01*
X110409495Y-115253019D01*
X110324799Y-115027051D01*
X110197647Y-114821948D01*
X110032924Y-114645592D01*
X109836961Y-114504761D01*
X109617288Y-114404866D01*
X109536980Y-114380511D01*
X109347000Y-114441373D01*
X109093000Y-114441373D01*
X108903020Y-114380511D01*
X108822712Y-114404866D01*
X108603039Y-114504761D01*
X108407076Y-114645592D01*
X108406000Y-114646744D01*
X108406000Y-114322395D01*
X108408206Y-114299999D01*
X108406000Y-114277601D01*
X108399402Y-114210608D01*
X108373327Y-114124652D01*
X108330984Y-114045434D01*
X108274001Y-113975999D01*
X108256604Y-113961722D01*
X107811048Y-113516166D01*
X107863693Y-113389069D01*
X107911000Y-113151243D01*
X107911000Y-112908757D01*
X107863693Y-112670931D01*
X107770898Y-112446903D01*
X107736218Y-112395000D01*
X108163782Y-112395000D01*
X108129102Y-112446903D01*
G04 #@! TA.AperFunction,Conductor*
D15*
G36*
X108129102Y-112446903D02*
G01*
X108036307Y-112670931D01*
X107989000Y-112908757D01*
X107989000Y-113151243D01*
X108036307Y-113389069D01*
X108129102Y-113613097D01*
X108263820Y-113814717D01*
X108435283Y-113986180D01*
X108636903Y-114120898D01*
X108860931Y-114213693D01*
X109098757Y-114261000D01*
X109341243Y-114261000D01*
X109579069Y-114213693D01*
X109803097Y-114120898D01*
X110004717Y-113986180D01*
X110176180Y-113814717D01*
X110310898Y-113613097D01*
X110403693Y-113389069D01*
X110451000Y-113151243D01*
X110451000Y-112908757D01*
X110403693Y-112670931D01*
X110310898Y-112446903D01*
X110276218Y-112395000D01*
X110703782Y-112395000D01*
X110669102Y-112446903D01*
X110576307Y-112670931D01*
X110529000Y-112908757D01*
X110529000Y-113151243D01*
X110576307Y-113389069D01*
X110669102Y-113613097D01*
X110803820Y-113814717D01*
X110975283Y-113986180D01*
X111176903Y-114120898D01*
X111400931Y-114213693D01*
X111638757Y-114261000D01*
X111881243Y-114261000D01*
X112119069Y-114213693D01*
X112343097Y-114120898D01*
X112410472Y-114075879D01*
X112426506Y-114114588D01*
X112501033Y-114226126D01*
X112595888Y-114320981D01*
X112707426Y-114395508D01*
X112831360Y-114446843D01*
X112962927Y-114473014D01*
X113066119Y-114473014D01*
X113199703Y-114606598D01*
X113213985Y-114624001D01*
X113254216Y-114657018D01*
X113283420Y-114680985D01*
X113362636Y-114723326D01*
X113362638Y-114723327D01*
X113403025Y-114735579D01*
X113322353Y-114821948D01*
X113195201Y-115027051D01*
X113110505Y-115253019D01*
X113170813Y-115443000D01*
X114173000Y-115443000D01*
X114173000Y-115423000D01*
X114427000Y-115423000D01*
X114427000Y-115443000D01*
X115429187Y-115443000D01*
X115489495Y-115253019D01*
X115404799Y-115027051D01*
X115277647Y-114821948D01*
X115216049Y-114756000D01*
X115923951Y-114756000D01*
X115862353Y-114821948D01*
X115735201Y-115027051D01*
X115650505Y-115253019D01*
X115710813Y-115443000D01*
X116713000Y-115443000D01*
X116713000Y-115423000D01*
X116967000Y-115423000D01*
X116967000Y-115443000D01*
X117969187Y-115443000D01*
X118029495Y-115253019D01*
X117944799Y-115027051D01*
X117817647Y-114821948D01*
X117756049Y-114756000D01*
X118463951Y-114756000D01*
X118402353Y-114821948D01*
X118275201Y-115027051D01*
X118190505Y-115253019D01*
X118250813Y-115443000D01*
X119253000Y-115443000D01*
X119253000Y-115423000D01*
X119507000Y-115423000D01*
X119507000Y-115443000D01*
X120509187Y-115443000D01*
X120569495Y-115253019D01*
X120484799Y-115027051D01*
X120357647Y-114821948D01*
X120296049Y-114756000D01*
X121003951Y-114756000D01*
X120942353Y-114821948D01*
X120815201Y-115027051D01*
X120730505Y-115253019D01*
X120790813Y-115443000D01*
X121793000Y-115443000D01*
X121793000Y-115423000D01*
X122047000Y-115423000D01*
X122047000Y-115443000D01*
X123049187Y-115443000D01*
X123109495Y-115253019D01*
X123270505Y-115253019D01*
X123330813Y-115443000D01*
X124333000Y-115443000D01*
X124333000Y-114441373D01*
X124587000Y-114441373D01*
X124587000Y-115443000D01*
X125589187Y-115443000D01*
X125649495Y-115253019D01*
X125810505Y-115253019D01*
X125870813Y-115443000D01*
X126873000Y-115443000D01*
X126873000Y-114441373D01*
X127127000Y-114441373D01*
X127127000Y-115443000D01*
X128129187Y-115443000D01*
X128189495Y-115253019D01*
X128350505Y-115253019D01*
X128410813Y-115443000D01*
X129413000Y-115443000D01*
X129413000Y-114441373D01*
X129667000Y-114441373D01*
X129667000Y-115443000D01*
X130669187Y-115443000D01*
X130729495Y-115253019D01*
X130890505Y-115253019D01*
X130950813Y-115443000D01*
X131953000Y-115443000D01*
X131953000Y-114441373D01*
X132207000Y-114441373D01*
X132207000Y-115443000D01*
X133209187Y-115443000D01*
X133269495Y-115253019D01*
X133184799Y-115027051D01*
X133057647Y-114821948D01*
X132892924Y-114645592D01*
X132696961Y-114504761D01*
X132477288Y-114404866D01*
X132396980Y-114380511D01*
X132207000Y-114441373D01*
X131953000Y-114441373D01*
X131763020Y-114380511D01*
X131682712Y-114404866D01*
X131463039Y-114504761D01*
X131267076Y-114645592D01*
X131102353Y-114821948D01*
X130975201Y-115027051D01*
X130890505Y-115253019D01*
X130729495Y-115253019D01*
X130644799Y-115027051D01*
X130517647Y-114821948D01*
X130352924Y-114645592D01*
X130156961Y-114504761D01*
X129937288Y-114404866D01*
X129856980Y-114380511D01*
X129667000Y-114441373D01*
X129413000Y-114441373D01*
X129223020Y-114380511D01*
X129142712Y-114404866D01*
X128923039Y-114504761D01*
X128727076Y-114645592D01*
X128562353Y-114821948D01*
X128435201Y-115027051D01*
X128350505Y-115253019D01*
X128189495Y-115253019D01*
X128104799Y-115027051D01*
X127977647Y-114821948D01*
X127812924Y-114645592D01*
X127616961Y-114504761D01*
X127397288Y-114404866D01*
X127316980Y-114380511D01*
X127127000Y-114441373D01*
X126873000Y-114441373D01*
X126683020Y-114380511D01*
X126602712Y-114404866D01*
X126383039Y-114504761D01*
X126187076Y-114645592D01*
X126022353Y-114821948D01*
X125895201Y-115027051D01*
X125810505Y-115253019D01*
X125649495Y-115253019D01*
X125564799Y-115027051D01*
X125437647Y-114821948D01*
X125272924Y-114645592D01*
X125076961Y-114504761D01*
X124857288Y-114404866D01*
X124776980Y-114380511D01*
X124587000Y-114441373D01*
X124333000Y-114441373D01*
X124143020Y-114380511D01*
X124062712Y-114404866D01*
X123843039Y-114504761D01*
X123647076Y-114645592D01*
X123482353Y-114821948D01*
X123355201Y-115027051D01*
X123270505Y-115253019D01*
X123109495Y-115253019D01*
X123024799Y-115027051D01*
X122897647Y-114821948D01*
X122836049Y-114756000D01*
X123167604Y-114756000D01*
X123190000Y-114758206D01*
X123212396Y-114756000D01*
X123212399Y-114756000D01*
X123279392Y-114749402D01*
X123365348Y-114723327D01*
X123444566Y-114680984D01*
X123514001Y-114624001D01*
X123528283Y-114606598D01*
X123973834Y-114161048D01*
X124100931Y-114213693D01*
X124338757Y-114261000D01*
X124581243Y-114261000D01*
X124819069Y-114213693D01*
X125043097Y-114120898D01*
X125244717Y-113986180D01*
X125416180Y-113814717D01*
X125550898Y-113613097D01*
X125643693Y-113389069D01*
X125691000Y-113151243D01*
X125691000Y-112908757D01*
X125643693Y-112670931D01*
X125550898Y-112446903D01*
X125516218Y-112395000D01*
X125943782Y-112395000D01*
X125909102Y-112446903D01*
X125816307Y-112670931D01*
X125769000Y-112908757D01*
X125769000Y-113151243D01*
X125816307Y-113389069D01*
X125909102Y-113613097D01*
X126043820Y-113814717D01*
X126215283Y-113986180D01*
X126416903Y-114120898D01*
X126640931Y-114213693D01*
X126878757Y-114261000D01*
X127121243Y-114261000D01*
X127359069Y-114213693D01*
X127583097Y-114120898D01*
X127784717Y-113986180D01*
X127956180Y-113814717D01*
X128090898Y-113613097D01*
X128183693Y-113389069D01*
X128231000Y-113151243D01*
X128231000Y-112908757D01*
X128183693Y-112670931D01*
X128090898Y-112446903D01*
X128056218Y-112395000D01*
X128483782Y-112395000D01*
X128449102Y-112446903D01*
X128356307Y-112670931D01*
X128309000Y-112908757D01*
X128309000Y-113151243D01*
X128356307Y-113389069D01*
X128449102Y-113613097D01*
X128583820Y-113814717D01*
X128755283Y-113986180D01*
X128956903Y-114120898D01*
X129180931Y-114213693D01*
X129418757Y-114261000D01*
X129661243Y-114261000D01*
X129899069Y-114213693D01*
X130123097Y-114120898D01*
X130324717Y-113986180D01*
X130496180Y-113814717D01*
X130630898Y-113613097D01*
X130723693Y-113389069D01*
X130771000Y-113151243D01*
X130771000Y-112908757D01*
X130723693Y-112670931D01*
X130630898Y-112446903D01*
X130596218Y-112395000D01*
X131023782Y-112395000D01*
X130989102Y-112446903D01*
X130896307Y-112670931D01*
X130849000Y-112908757D01*
X130849000Y-113151243D01*
X130896307Y-113389069D01*
X130989102Y-113613097D01*
X131123820Y-113814717D01*
X131295283Y-113986180D01*
X131496903Y-114120898D01*
X131720931Y-114213693D01*
X131958757Y-114261000D01*
X132201243Y-114261000D01*
X132439069Y-114213693D01*
X132566166Y-114161048D01*
X132854219Y-114449101D01*
X132868497Y-114466499D01*
X132885895Y-114480777D01*
X132937932Y-114523483D01*
X133017150Y-114565825D01*
X133103106Y-114591900D01*
X133170099Y-114598498D01*
X133170102Y-114598498D01*
X133192498Y-114600704D01*
X133214894Y-114598498D01*
X133872606Y-114598498D01*
X133807076Y-114645592D01*
X133642353Y-114821948D01*
X133515201Y-115027051D01*
X133430505Y-115253019D01*
X133490813Y-115443000D01*
X134493000Y-115443000D01*
X134493000Y-115423000D01*
X134747000Y-115423000D01*
X134747000Y-115443000D01*
X134767000Y-115443000D01*
X134767000Y-115697000D01*
X134747000Y-115697000D01*
X134747000Y-115717000D01*
X134493000Y-115717000D01*
X134493000Y-115697000D01*
X133490813Y-115697000D01*
X133430505Y-115886981D01*
X133515201Y-116112949D01*
X133578454Y-116214979D01*
X133121546Y-116214979D01*
X133184799Y-116112949D01*
X133269495Y-115886981D01*
X133209187Y-115697000D01*
X132207000Y-115697000D01*
X132207000Y-115717000D01*
X131953000Y-115717000D01*
X131953000Y-115697000D01*
X130950813Y-115697000D01*
X130890505Y-115886981D01*
X130975201Y-116112949D01*
X131038454Y-116214979D01*
X130581546Y-116214979D01*
X130644799Y-116112949D01*
X130729495Y-115886981D01*
X130669187Y-115697000D01*
X129667000Y-115697000D01*
X129667000Y-115717000D01*
X129413000Y-115717000D01*
X129413000Y-115697000D01*
X128410813Y-115697000D01*
X128350505Y-115886981D01*
X128435201Y-116112949D01*
X128498454Y-116214979D01*
X128041546Y-116214979D01*
X128104799Y-116112949D01*
X128189495Y-115886981D01*
X128129187Y-115697000D01*
X127127000Y-115697000D01*
X127127000Y-115717000D01*
X126873000Y-115717000D01*
X126873000Y-115697000D01*
X125870813Y-115697000D01*
X125810505Y-115886981D01*
X125895201Y-116112949D01*
X125958454Y-116214979D01*
X125501546Y-116214979D01*
X125564799Y-116112949D01*
X125649495Y-115886981D01*
X125589187Y-115697000D01*
X124587000Y-115697000D01*
X124587000Y-115717000D01*
X124333000Y-115717000D01*
X124333000Y-115697000D01*
X123330813Y-115697000D01*
X123270505Y-115886981D01*
X123355201Y-116112949D01*
X123418454Y-116214979D01*
X122961546Y-116214979D01*
X123024799Y-116112949D01*
X123109495Y-115886981D01*
X123049187Y-115697000D01*
X122047000Y-115697000D01*
X122047000Y-115717000D01*
X121793000Y-115717000D01*
X121793000Y-115697000D01*
X120790813Y-115697000D01*
X120730505Y-115886981D01*
X120815201Y-116112949D01*
X120878454Y-116214979D01*
X120421546Y-116214979D01*
X120484799Y-116112949D01*
X120569495Y-115886981D01*
X120509187Y-115697000D01*
X119507000Y-115697000D01*
X119507000Y-115717000D01*
X119253000Y-115717000D01*
X119253000Y-115697000D01*
X118250813Y-115697000D01*
X118190505Y-115886981D01*
X118275201Y-116112949D01*
X118338454Y-116214979D01*
X117881546Y-116214979D01*
X117944799Y-116112949D01*
X118029495Y-115886981D01*
X117969187Y-115697000D01*
X116967000Y-115697000D01*
X116967000Y-115717000D01*
X116713000Y-115717000D01*
X116713000Y-115697000D01*
X115710813Y-115697000D01*
X115650505Y-115886981D01*
X115735201Y-116112949D01*
X115798454Y-116214979D01*
X115341546Y-116214979D01*
X115404799Y-116112949D01*
X115489495Y-115886981D01*
X115429187Y-115697000D01*
X114427000Y-115697000D01*
X114427000Y-115717000D01*
X114173000Y-115717000D01*
X114173000Y-115697000D01*
X113170813Y-115697000D01*
X113110505Y-115886981D01*
X113195201Y-116112949D01*
X113258454Y-116214979D01*
X112801546Y-116214979D01*
X112864799Y-116112949D01*
X112949495Y-115886981D01*
X112889187Y-115697000D01*
X111887000Y-115697000D01*
X111887000Y-115717000D01*
X111633000Y-115717000D01*
X111633000Y-115697000D01*
X110630813Y-115697000D01*
X110570505Y-115886981D01*
X110655201Y-116112949D01*
X110718454Y-116214979D01*
X110261546Y-116214979D01*
X110324799Y-116112949D01*
X110409495Y-115886981D01*
X110349187Y-115697000D01*
X109347000Y-115697000D01*
X109347000Y-115717000D01*
X109093000Y-115717000D01*
X109093000Y-115697000D01*
X109073000Y-115697000D01*
X109073000Y-115443000D01*
X109093000Y-115443000D01*
X109093000Y-114441373D01*
X109347000Y-114441373D01*
X109347000Y-115443000D01*
X110349187Y-115443000D01*
X110409495Y-115253019D01*
X110570505Y-115253019D01*
X110630813Y-115443000D01*
X111633000Y-115443000D01*
X111633000Y-114441373D01*
X111887000Y-114441373D01*
X111887000Y-115443000D01*
X112889187Y-115443000D01*
X112949495Y-115253019D01*
X112864799Y-115027051D01*
X112737647Y-114821948D01*
X112572924Y-114645592D01*
X112376961Y-114504761D01*
X112157288Y-114404866D01*
X112076980Y-114380511D01*
X111887000Y-114441373D01*
X111633000Y-114441373D01*
X111443020Y-114380511D01*
X111362712Y-114404866D01*
X111143039Y-114504761D01*
X110947076Y-114645592D01*
X110782353Y-114821948D01*
X110655201Y-115027051D01*
X110570505Y-115253019D01*
X110409495Y-115253019D01*
X110324799Y-115027051D01*
X110197647Y-114821948D01*
X110032924Y-114645592D01*
X109836961Y-114504761D01*
X109617288Y-114404866D01*
X109536980Y-114380511D01*
X109347000Y-114441373D01*
X109093000Y-114441373D01*
X108903020Y-114380511D01*
X108822712Y-114404866D01*
X108603039Y-114504761D01*
X108407076Y-114645592D01*
X108406000Y-114646744D01*
X108406000Y-114322395D01*
X108408206Y-114299999D01*
X108406000Y-114277601D01*
X108399402Y-114210608D01*
X108373327Y-114124652D01*
X108330984Y-114045434D01*
X108274001Y-113975999D01*
X108256604Y-113961722D01*
X107811048Y-113516166D01*
X107863693Y-113389069D01*
X107911000Y-113151243D01*
X107911000Y-112908757D01*
X107863693Y-112670931D01*
X107770898Y-112446903D01*
X107736218Y-112395000D01*
X108163782Y-112395000D01*
X108129102Y-112446903D01*
G37*
G04 #@! TD.AperFunction*
D14*
X137287000Y-115443000D02*
X137307000Y-115443000D01*
X137307000Y-115697000D01*
X137287000Y-115697000D01*
X137287000Y-115717000D01*
X137033000Y-115717000D01*
X137033000Y-115697000D01*
X137013000Y-115697000D01*
X137013000Y-115443000D01*
X137033000Y-115443000D01*
X137033000Y-115423000D01*
X137287000Y-115423000D01*
X137287000Y-115443000D01*
G04 #@! TA.AperFunction,Conductor*
D15*
G36*
X137287000Y-115443000D02*
G01*
X137307000Y-115443000D01*
X137307000Y-115697000D01*
X137287000Y-115697000D01*
X137287000Y-115717000D01*
X137033000Y-115717000D01*
X137033000Y-115697000D01*
X137013000Y-115697000D01*
X137013000Y-115443000D01*
X137033000Y-115443000D01*
X137033000Y-115423000D01*
X137287000Y-115423000D01*
X137287000Y-115443000D01*
G37*
G04 #@! TD.AperFunction*
D14*
X108030505Y-109665019D02*
X108090813Y-109855000D01*
X109093000Y-109855000D01*
X109093000Y-109835000D01*
X109347000Y-109835000D01*
X109347000Y-109855000D01*
X110349187Y-109855000D01*
X110409495Y-109665019D01*
X110385500Y-109601000D01*
X110594500Y-109601000D01*
X110570505Y-109665019D01*
X110630813Y-109855000D01*
X111633000Y-109855000D01*
X111633000Y-109835000D01*
X111887000Y-109835000D01*
X111887000Y-109855000D01*
X112889187Y-109855000D01*
X112949495Y-109665019D01*
X112925500Y-109601000D01*
X113134500Y-109601000D01*
X113110505Y-109665019D01*
X113170813Y-109855000D01*
X114173000Y-109855000D01*
X114173000Y-109835000D01*
X114427000Y-109835000D01*
X114427000Y-109855000D01*
X115429187Y-109855000D01*
X115489495Y-109665019D01*
X115479924Y-109639484D01*
X115509955Y-109651923D01*
X115586976Y-109711024D01*
X115628119Y-109764642D01*
X115609000Y-109860757D01*
X115609000Y-110103243D01*
X115656307Y-110341069D01*
X115697000Y-110439311D01*
X115697000Y-110498000D01*
X115698086Y-110514577D01*
X115715123Y-110643987D01*
X115723704Y-110676011D01*
X115773654Y-110796601D01*
X115790232Y-110825313D01*
X115869692Y-110928866D01*
X115893134Y-110952308D01*
X115996687Y-111031768D01*
X116025399Y-111048346D01*
X116145989Y-111098296D01*
X116178013Y-111106877D01*
X116307423Y-111123914D01*
X116324000Y-111125000D01*
X116382689Y-111125000D01*
X116480931Y-111165693D01*
X116718757Y-111213000D01*
X116961243Y-111213000D01*
X117199069Y-111165693D01*
X117297311Y-111125000D01*
X118922689Y-111125000D01*
X119020931Y-111165693D01*
X119258757Y-111213000D01*
X119501243Y-111213000D01*
X119739069Y-111165693D01*
X119837311Y-111125000D01*
X121462689Y-111125000D01*
X121560931Y-111165693D01*
X121798757Y-111213000D01*
X122041243Y-111213000D01*
X122279069Y-111165693D01*
X122377311Y-111125000D01*
X124002689Y-111125000D01*
X124100931Y-111165693D01*
X124338757Y-111213000D01*
X124581243Y-111213000D01*
X124819069Y-111165693D01*
X124917311Y-111125000D01*
X126542689Y-111125000D01*
X126640931Y-111165693D01*
X126878757Y-111213000D01*
X127121243Y-111213000D01*
X127359069Y-111165693D01*
X127457311Y-111125000D01*
X129082689Y-111125000D01*
X129180931Y-111165693D01*
X129418757Y-111213000D01*
X129661243Y-111213000D01*
X129899069Y-111165693D01*
X129997311Y-111125000D01*
X131622689Y-111125000D01*
X131720931Y-111165693D01*
X131958757Y-111213000D01*
X132201243Y-111213000D01*
X132439069Y-111165693D01*
X132537311Y-111125000D01*
X134162689Y-111125000D01*
X134260931Y-111165693D01*
X134498757Y-111213000D01*
X134741243Y-111213000D01*
X134979069Y-111165693D01*
X135077311Y-111125000D01*
X136702689Y-111125000D01*
X136800931Y-111165693D01*
X137038757Y-111213000D01*
X137281243Y-111213000D01*
X137519069Y-111165693D01*
X137617311Y-111125000D01*
X150113672Y-111125000D01*
X150218257Y-111138769D01*
X150307955Y-111175923D01*
X150384976Y-111235024D01*
X150444077Y-111312045D01*
X150481231Y-111401743D01*
X150495000Y-111506328D01*
X150495000Y-116204672D01*
X150481231Y-116309257D01*
X150457685Y-116366103D01*
X150456000Y-115792250D01*
X150360750Y-115697000D01*
X149352000Y-115697000D01*
X149352000Y-115717000D01*
X149098000Y-115717000D01*
X149098000Y-115697000D01*
X148089250Y-115697000D01*
X147994000Y-115792250D01*
X147992315Y-116366103D01*
X147968769Y-116309257D01*
X147955000Y-116204672D01*
X147955000Y-114720000D01*
X147992157Y-114720000D01*
X147994000Y-115347750D01*
X148089250Y-115443000D01*
X149098000Y-115443000D01*
X149098000Y-114434250D01*
X149352000Y-114434250D01*
X149352000Y-115443000D01*
X150360750Y-115443000D01*
X150456000Y-115347750D01*
X150457843Y-114720000D01*
X150450487Y-114645311D01*
X150428701Y-114573492D01*
X150393322Y-114507304D01*
X150345711Y-114449289D01*
X150287696Y-114401678D01*
X150221508Y-114366299D01*
X150149689Y-114344513D01*
X150075000Y-114337157D01*
X149447250Y-114339000D01*
X149352000Y-114434250D01*
X149098000Y-114434250D01*
X149002750Y-114339000D01*
X148375000Y-114337157D01*
X148300311Y-114344513D01*
X148228492Y-114366299D01*
X148162304Y-114401678D01*
X148104289Y-114449289D01*
X148056678Y-114507304D01*
X148021299Y-114573492D01*
X147999513Y-114645311D01*
X147992157Y-114720000D01*
X147955000Y-114720000D01*
X147955000Y-112514000D01*
X147953914Y-112497423D01*
X147936877Y-112368013D01*
X147928296Y-112335989D01*
X147878346Y-112215399D01*
X147861768Y-112186687D01*
X147782308Y-112083134D01*
X147758866Y-112059692D01*
X147655313Y-111980232D01*
X147626601Y-111963654D01*
X147506011Y-111913704D01*
X147473987Y-111905123D01*
X147344577Y-111888086D01*
X147328000Y-111887000D01*
X142697311Y-111887000D01*
X142599069Y-111846307D01*
X142361243Y-111799000D01*
X142118757Y-111799000D01*
X141880931Y-111846307D01*
X141782689Y-111887000D01*
X140157311Y-111887000D01*
X140059069Y-111846307D01*
X139821243Y-111799000D01*
X139578757Y-111799000D01*
X139340931Y-111846307D01*
X139242689Y-111887000D01*
X137617311Y-111887000D01*
X137519069Y-111846307D01*
X137281243Y-111799000D01*
X137038757Y-111799000D01*
X136800931Y-111846307D01*
X136702689Y-111887000D01*
X135077311Y-111887000D01*
X134979069Y-111846307D01*
X134741243Y-111799000D01*
X134498757Y-111799000D01*
X134260931Y-111846307D01*
X134162689Y-111887000D01*
X132537311Y-111887000D01*
X132439069Y-111846307D01*
X132201243Y-111799000D01*
X131958757Y-111799000D01*
X131720931Y-111846307D01*
X131622689Y-111887000D01*
X129997311Y-111887000D01*
X129899069Y-111846307D01*
X129661243Y-111799000D01*
X129418757Y-111799000D01*
X129180931Y-111846307D01*
X129082689Y-111887000D01*
X127457311Y-111887000D01*
X127359069Y-111846307D01*
X127121243Y-111799000D01*
X126878757Y-111799000D01*
X126640931Y-111846307D01*
X126542689Y-111887000D01*
X124917311Y-111887000D01*
X124819069Y-111846307D01*
X124581243Y-111799000D01*
X124338757Y-111799000D01*
X124100931Y-111846307D01*
X124002689Y-111887000D01*
X122377311Y-111887000D01*
X122279069Y-111846307D01*
X122041243Y-111799000D01*
X121798757Y-111799000D01*
X121560931Y-111846307D01*
X121462689Y-111887000D01*
X119837311Y-111887000D01*
X119739069Y-111846307D01*
X119501243Y-111799000D01*
X119258757Y-111799000D01*
X119020931Y-111846307D01*
X118922689Y-111887000D01*
X117297311Y-111887000D01*
X117199069Y-111846307D01*
X116961243Y-111799000D01*
X116718757Y-111799000D01*
X116480931Y-111846307D01*
X116382689Y-111887000D01*
X114757311Y-111887000D01*
X114659069Y-111846307D01*
X114421243Y-111799000D01*
X114178757Y-111799000D01*
X113940931Y-111846307D01*
X113842689Y-111887000D01*
X112217311Y-111887000D01*
X112119069Y-111846307D01*
X111881243Y-111799000D01*
X111638757Y-111799000D01*
X111400931Y-111846307D01*
X111302689Y-111887000D01*
X109677311Y-111887000D01*
X109579069Y-111846307D01*
X109341243Y-111799000D01*
X109098757Y-111799000D01*
X108860931Y-111846307D01*
X108762689Y-111887000D01*
X107137311Y-111887000D01*
X107039069Y-111846307D01*
X106801243Y-111799000D01*
X106558757Y-111799000D01*
X106320931Y-111846307D01*
X106222689Y-111887000D01*
X105791328Y-111887000D01*
X105686743Y-111873231D01*
X105597045Y-111836077D01*
X105520024Y-111776976D01*
X105460923Y-111699955D01*
X105423769Y-111610257D01*
X105410000Y-111505672D01*
X105410000Y-110832000D01*
X105447157Y-110832000D01*
X105454513Y-110906689D01*
X105476299Y-110978508D01*
X105511678Y-111044696D01*
X105559289Y-111102711D01*
X105617304Y-111150322D01*
X105683492Y-111185701D01*
X105755311Y-111207487D01*
X105830000Y-111214843D01*
X106457750Y-111213000D01*
X106553000Y-111117750D01*
X106553000Y-110109000D01*
X106807000Y-110109000D01*
X106807000Y-111117750D01*
X106902250Y-111213000D01*
X107530000Y-111214843D01*
X107604689Y-111207487D01*
X107676508Y-111185701D01*
X107742696Y-111150322D01*
X107800711Y-111102711D01*
X107848322Y-111044696D01*
X107883701Y-110978508D01*
X107905487Y-110906689D01*
X107912843Y-110832000D01*
X107911279Y-110298981D01*
X108030505Y-110298981D01*
X108115201Y-110524949D01*
X108242353Y-110730052D01*
X108407076Y-110906408D01*
X108603039Y-111047239D01*
X108822712Y-111147134D01*
X108903020Y-111171489D01*
X109093000Y-111110627D01*
X109093000Y-110109000D01*
X109347000Y-110109000D01*
X109347000Y-111110627D01*
X109536980Y-111171489D01*
X109617288Y-111147134D01*
X109836961Y-111047239D01*
X110032924Y-110906408D01*
X110197647Y-110730052D01*
X110324799Y-110524949D01*
X110409495Y-110298981D01*
X110570505Y-110298981D01*
X110655201Y-110524949D01*
X110782353Y-110730052D01*
X110947076Y-110906408D01*
X111143039Y-111047239D01*
X111362712Y-111147134D01*
X111443020Y-111171489D01*
X111633000Y-111110627D01*
X111633000Y-110109000D01*
X111887000Y-110109000D01*
X111887000Y-111110627D01*
X112076980Y-111171489D01*
X112157288Y-111147134D01*
X112376961Y-111047239D01*
X112572924Y-110906408D01*
X112737647Y-110730052D01*
X112864799Y-110524949D01*
X112949495Y-110298981D01*
X113110505Y-110298981D01*
X113195201Y-110524949D01*
X113322353Y-110730052D01*
X113487076Y-110906408D01*
X113683039Y-111047239D01*
X113902712Y-111147134D01*
X113983020Y-111171489D01*
X114173000Y-111110627D01*
X114173000Y-110109000D01*
X114427000Y-110109000D01*
X114427000Y-111110627D01*
X114616980Y-111171489D01*
X114697288Y-111147134D01*
X114916961Y-111047239D01*
X115112924Y-110906408D01*
X115277647Y-110730052D01*
X115404799Y-110524949D01*
X115489495Y-110298981D01*
X115429187Y-110109000D01*
X114427000Y-110109000D01*
X114173000Y-110109000D01*
X113170813Y-110109000D01*
X113110505Y-110298981D01*
X112949495Y-110298981D01*
X112889187Y-110109000D01*
X111887000Y-110109000D01*
X111633000Y-110109000D01*
X110630813Y-110109000D01*
X110570505Y-110298981D01*
X110409495Y-110298981D01*
X110349187Y-110109000D01*
X109347000Y-110109000D01*
X109093000Y-110109000D01*
X108090813Y-110109000D01*
X108030505Y-110298981D01*
X107911279Y-110298981D01*
X107911000Y-110204250D01*
X107815750Y-110109000D01*
X106807000Y-110109000D01*
X106553000Y-110109000D01*
X105544250Y-110109000D01*
X105449000Y-110204250D01*
X105447157Y-110832000D01*
X105410000Y-110832000D01*
X105410000Y-109982328D01*
X105423769Y-109877743D01*
X105460923Y-109788045D01*
X105468031Y-109778781D01*
X105544250Y-109855000D01*
X106553000Y-109855000D01*
X106553000Y-109835000D01*
X106807000Y-109835000D01*
X106807000Y-109855000D01*
X107815750Y-109855000D01*
X107911000Y-109759750D01*
X107911466Y-109601000D01*
X108054500Y-109601000D01*
X108030505Y-109665019D01*
G04 #@! TA.AperFunction,Conductor*
D15*
G36*
X108030505Y-109665019D02*
G01*
X108090813Y-109855000D01*
X109093000Y-109855000D01*
X109093000Y-109835000D01*
X109347000Y-109835000D01*
X109347000Y-109855000D01*
X110349187Y-109855000D01*
X110409495Y-109665019D01*
X110385500Y-109601000D01*
X110594500Y-109601000D01*
X110570505Y-109665019D01*
X110630813Y-109855000D01*
X111633000Y-109855000D01*
X111633000Y-109835000D01*
X111887000Y-109835000D01*
X111887000Y-109855000D01*
X112889187Y-109855000D01*
X112949495Y-109665019D01*
X112925500Y-109601000D01*
X113134500Y-109601000D01*
X113110505Y-109665019D01*
X113170813Y-109855000D01*
X114173000Y-109855000D01*
X114173000Y-109835000D01*
X114427000Y-109835000D01*
X114427000Y-109855000D01*
X115429187Y-109855000D01*
X115489495Y-109665019D01*
X115479924Y-109639484D01*
X115509955Y-109651923D01*
X115586976Y-109711024D01*
X115628119Y-109764642D01*
X115609000Y-109860757D01*
X115609000Y-110103243D01*
X115656307Y-110341069D01*
X115697000Y-110439311D01*
X115697000Y-110498000D01*
X115698086Y-110514577D01*
X115715123Y-110643987D01*
X115723704Y-110676011D01*
X115773654Y-110796601D01*
X115790232Y-110825313D01*
X115869692Y-110928866D01*
X115893134Y-110952308D01*
X115996687Y-111031768D01*
X116025399Y-111048346D01*
X116145989Y-111098296D01*
X116178013Y-111106877D01*
X116307423Y-111123914D01*
X116324000Y-111125000D01*
X116382689Y-111125000D01*
X116480931Y-111165693D01*
X116718757Y-111213000D01*
X116961243Y-111213000D01*
X117199069Y-111165693D01*
X117297311Y-111125000D01*
X118922689Y-111125000D01*
X119020931Y-111165693D01*
X119258757Y-111213000D01*
X119501243Y-111213000D01*
X119739069Y-111165693D01*
X119837311Y-111125000D01*
X121462689Y-111125000D01*
X121560931Y-111165693D01*
X121798757Y-111213000D01*
X122041243Y-111213000D01*
X122279069Y-111165693D01*
X122377311Y-111125000D01*
X124002689Y-111125000D01*
X124100931Y-111165693D01*
X124338757Y-111213000D01*
X124581243Y-111213000D01*
X124819069Y-111165693D01*
X124917311Y-111125000D01*
X126542689Y-111125000D01*
X126640931Y-111165693D01*
X126878757Y-111213000D01*
X127121243Y-111213000D01*
X127359069Y-111165693D01*
X127457311Y-111125000D01*
X129082689Y-111125000D01*
X129180931Y-111165693D01*
X129418757Y-111213000D01*
X129661243Y-111213000D01*
X129899069Y-111165693D01*
X129997311Y-111125000D01*
X131622689Y-111125000D01*
X131720931Y-111165693D01*
X131958757Y-111213000D01*
X132201243Y-111213000D01*
X132439069Y-111165693D01*
X132537311Y-111125000D01*
X134162689Y-111125000D01*
X134260931Y-111165693D01*
X134498757Y-111213000D01*
X134741243Y-111213000D01*
X134979069Y-111165693D01*
X135077311Y-111125000D01*
X136702689Y-111125000D01*
X136800931Y-111165693D01*
X137038757Y-111213000D01*
X137281243Y-111213000D01*
X137519069Y-111165693D01*
X137617311Y-111125000D01*
X150113672Y-111125000D01*
X150218257Y-111138769D01*
X150307955Y-111175923D01*
X150384976Y-111235024D01*
X150444077Y-111312045D01*
X150481231Y-111401743D01*
X150495000Y-111506328D01*
X150495000Y-116204672D01*
X150481231Y-116309257D01*
X150457685Y-116366103D01*
X150456000Y-115792250D01*
X150360750Y-115697000D01*
X149352000Y-115697000D01*
X149352000Y-115717000D01*
X149098000Y-115717000D01*
X149098000Y-115697000D01*
X148089250Y-115697000D01*
X147994000Y-115792250D01*
X147992315Y-116366103D01*
X147968769Y-116309257D01*
X147955000Y-116204672D01*
X147955000Y-114720000D01*
X147992157Y-114720000D01*
X147994000Y-115347750D01*
X148089250Y-115443000D01*
X149098000Y-115443000D01*
X149098000Y-114434250D01*
X149352000Y-114434250D01*
X149352000Y-115443000D01*
X150360750Y-115443000D01*
X150456000Y-115347750D01*
X150457843Y-114720000D01*
X150450487Y-114645311D01*
X150428701Y-114573492D01*
X150393322Y-114507304D01*
X150345711Y-114449289D01*
X150287696Y-114401678D01*
X150221508Y-114366299D01*
X150149689Y-114344513D01*
X150075000Y-114337157D01*
X149447250Y-114339000D01*
X149352000Y-114434250D01*
X149098000Y-114434250D01*
X149002750Y-114339000D01*
X148375000Y-114337157D01*
X148300311Y-114344513D01*
X148228492Y-114366299D01*
X148162304Y-114401678D01*
X148104289Y-114449289D01*
X148056678Y-114507304D01*
X148021299Y-114573492D01*
X147999513Y-114645311D01*
X147992157Y-114720000D01*
X147955000Y-114720000D01*
X147955000Y-112514000D01*
X147953914Y-112497423D01*
X147936877Y-112368013D01*
X147928296Y-112335989D01*
X147878346Y-112215399D01*
X147861768Y-112186687D01*
X147782308Y-112083134D01*
X147758866Y-112059692D01*
X147655313Y-111980232D01*
X147626601Y-111963654D01*
X147506011Y-111913704D01*
X147473987Y-111905123D01*
X147344577Y-111888086D01*
X147328000Y-111887000D01*
X142697311Y-111887000D01*
X142599069Y-111846307D01*
X142361243Y-111799000D01*
X142118757Y-111799000D01*
X141880931Y-111846307D01*
X141782689Y-111887000D01*
X140157311Y-111887000D01*
X140059069Y-111846307D01*
X139821243Y-111799000D01*
X139578757Y-111799000D01*
X139340931Y-111846307D01*
X139242689Y-111887000D01*
X137617311Y-111887000D01*
X137519069Y-111846307D01*
X137281243Y-111799000D01*
X137038757Y-111799000D01*
X136800931Y-111846307D01*
X136702689Y-111887000D01*
X135077311Y-111887000D01*
X134979069Y-111846307D01*
X134741243Y-111799000D01*
X134498757Y-111799000D01*
X134260931Y-111846307D01*
X134162689Y-111887000D01*
X132537311Y-111887000D01*
X132439069Y-111846307D01*
X132201243Y-111799000D01*
X131958757Y-111799000D01*
X131720931Y-111846307D01*
X131622689Y-111887000D01*
X129997311Y-111887000D01*
X129899069Y-111846307D01*
X129661243Y-111799000D01*
X129418757Y-111799000D01*
X129180931Y-111846307D01*
X129082689Y-111887000D01*
X127457311Y-111887000D01*
X127359069Y-111846307D01*
X127121243Y-111799000D01*
X126878757Y-111799000D01*
X126640931Y-111846307D01*
X126542689Y-111887000D01*
X124917311Y-111887000D01*
X124819069Y-111846307D01*
X124581243Y-111799000D01*
X124338757Y-111799000D01*
X124100931Y-111846307D01*
X124002689Y-111887000D01*
X122377311Y-111887000D01*
X122279069Y-111846307D01*
X122041243Y-111799000D01*
X121798757Y-111799000D01*
X121560931Y-111846307D01*
X121462689Y-111887000D01*
X119837311Y-111887000D01*
X119739069Y-111846307D01*
X119501243Y-111799000D01*
X119258757Y-111799000D01*
X119020931Y-111846307D01*
X118922689Y-111887000D01*
X117297311Y-111887000D01*
X117199069Y-111846307D01*
X116961243Y-111799000D01*
X116718757Y-111799000D01*
X116480931Y-111846307D01*
X116382689Y-111887000D01*
X114757311Y-111887000D01*
X114659069Y-111846307D01*
X114421243Y-111799000D01*
X114178757Y-111799000D01*
X113940931Y-111846307D01*
X113842689Y-111887000D01*
X112217311Y-111887000D01*
X112119069Y-111846307D01*
X111881243Y-111799000D01*
X111638757Y-111799000D01*
X111400931Y-111846307D01*
X111302689Y-111887000D01*
X109677311Y-111887000D01*
X109579069Y-111846307D01*
X109341243Y-111799000D01*
X109098757Y-111799000D01*
X108860931Y-111846307D01*
X108762689Y-111887000D01*
X107137311Y-111887000D01*
X107039069Y-111846307D01*
X106801243Y-111799000D01*
X106558757Y-111799000D01*
X106320931Y-111846307D01*
X106222689Y-111887000D01*
X105791328Y-111887000D01*
X105686743Y-111873231D01*
X105597045Y-111836077D01*
X105520024Y-111776976D01*
X105460923Y-111699955D01*
X105423769Y-111610257D01*
X105410000Y-111505672D01*
X105410000Y-110832000D01*
X105447157Y-110832000D01*
X105454513Y-110906689D01*
X105476299Y-110978508D01*
X105511678Y-111044696D01*
X105559289Y-111102711D01*
X105617304Y-111150322D01*
X105683492Y-111185701D01*
X105755311Y-111207487D01*
X105830000Y-111214843D01*
X106457750Y-111213000D01*
X106553000Y-111117750D01*
X106553000Y-110109000D01*
X106807000Y-110109000D01*
X106807000Y-111117750D01*
X106902250Y-111213000D01*
X107530000Y-111214843D01*
X107604689Y-111207487D01*
X107676508Y-111185701D01*
X107742696Y-111150322D01*
X107800711Y-111102711D01*
X107848322Y-111044696D01*
X107883701Y-110978508D01*
X107905487Y-110906689D01*
X107912843Y-110832000D01*
X107911279Y-110298981D01*
X108030505Y-110298981D01*
X108115201Y-110524949D01*
X108242353Y-110730052D01*
X108407076Y-110906408D01*
X108603039Y-111047239D01*
X108822712Y-111147134D01*
X108903020Y-111171489D01*
X109093000Y-111110627D01*
X109093000Y-110109000D01*
X109347000Y-110109000D01*
X109347000Y-111110627D01*
X109536980Y-111171489D01*
X109617288Y-111147134D01*
X109836961Y-111047239D01*
X110032924Y-110906408D01*
X110197647Y-110730052D01*
X110324799Y-110524949D01*
X110409495Y-110298981D01*
X110570505Y-110298981D01*
X110655201Y-110524949D01*
X110782353Y-110730052D01*
X110947076Y-110906408D01*
X111143039Y-111047239D01*
X111362712Y-111147134D01*
X111443020Y-111171489D01*
X111633000Y-111110627D01*
X111633000Y-110109000D01*
X111887000Y-110109000D01*
X111887000Y-111110627D01*
X112076980Y-111171489D01*
X112157288Y-111147134D01*
X112376961Y-111047239D01*
X112572924Y-110906408D01*
X112737647Y-110730052D01*
X112864799Y-110524949D01*
X112949495Y-110298981D01*
X113110505Y-110298981D01*
X113195201Y-110524949D01*
X113322353Y-110730052D01*
X113487076Y-110906408D01*
X113683039Y-111047239D01*
X113902712Y-111147134D01*
X113983020Y-111171489D01*
X114173000Y-111110627D01*
X114173000Y-110109000D01*
X114427000Y-110109000D01*
X114427000Y-111110627D01*
X114616980Y-111171489D01*
X114697288Y-111147134D01*
X114916961Y-111047239D01*
X115112924Y-110906408D01*
X115277647Y-110730052D01*
X115404799Y-110524949D01*
X115489495Y-110298981D01*
X115429187Y-110109000D01*
X114427000Y-110109000D01*
X114173000Y-110109000D01*
X113170813Y-110109000D01*
X113110505Y-110298981D01*
X112949495Y-110298981D01*
X112889187Y-110109000D01*
X111887000Y-110109000D01*
X111633000Y-110109000D01*
X110630813Y-110109000D01*
X110570505Y-110298981D01*
X110409495Y-110298981D01*
X110349187Y-110109000D01*
X109347000Y-110109000D01*
X109093000Y-110109000D01*
X108090813Y-110109000D01*
X108030505Y-110298981D01*
X107911279Y-110298981D01*
X107911000Y-110204250D01*
X107815750Y-110109000D01*
X106807000Y-110109000D01*
X106553000Y-110109000D01*
X105544250Y-110109000D01*
X105449000Y-110204250D01*
X105447157Y-110832000D01*
X105410000Y-110832000D01*
X105410000Y-109982328D01*
X105423769Y-109877743D01*
X105460923Y-109788045D01*
X105468031Y-109778781D01*
X105544250Y-109855000D01*
X106553000Y-109855000D01*
X106553000Y-109835000D01*
X106807000Y-109835000D01*
X106807000Y-109855000D01*
X107815750Y-109855000D01*
X107911000Y-109759750D01*
X107911466Y-109601000D01*
X108054500Y-109601000D01*
X108030505Y-109665019D01*
G37*
G04 #@! TD.AperFunction*
M02*
