M48
; DRILL file {KiCad (5.1.9)-1} date 04/29/21 19:17:23
; FORMAT={-:-/ absolute / inch / decimal}
; #@! TF.CreationDate,2021-04-29T19:17:23+01:00
; #@! TF.GenerationSoftware,Kicad,Pcbnew,(5.1.9)-1
; #@! TF.FileFunction,Plated,1,2,PTH
FMAT,2
INCH
T1C0.0157
T2C0.0394
%
G90
G05
T1
X3.975Y-4.225
X3.975Y-4.285
X4.075Y-4.25
X4.08Y-4.34
X4.095Y-4.23
X4.25Y-4.28
X4.35Y-4.28
X4.45Y-4.48
X4.6557Y-4.2942
X4.75Y-4.295
X5.05Y-4.28
X5.15Y-4.28
X5.245Y-4.28
X5.35Y-4.29
X5.35Y-4.505
T2
X4.0Y-4.45
X4.0Y-4.55
X4.1Y-4.45
X4.1Y-4.55
X4.2Y-4.23
X4.2Y-4.33
X4.2Y-4.45
X4.2Y-4.55
X4.3Y-4.23
X4.3Y-4.33
X4.3Y-4.45
X4.3Y-4.55
X4.4Y-4.23
X4.4Y-4.33
X4.4Y-4.45
X4.4Y-4.55
X4.5Y-4.23
X4.5Y-4.33
X4.5Y-4.45
X4.5Y-4.55
X4.6Y-4.23
X4.6Y-4.33
X4.6Y-4.45
X4.6Y-4.55
X4.7Y-4.23
X4.7Y-4.33
X4.7Y-4.45
X4.7Y-4.55
X4.8Y-4.23
X4.8Y-4.33
X4.8Y-4.45
X4.8Y-4.55
X4.9Y-4.23
X4.9Y-4.33
X4.9Y-4.45
X4.9Y-4.55
X5.0Y-4.23
X5.0Y-4.33
X5.0Y-4.45
X5.0Y-4.55
X5.1Y-4.23
X5.1Y-4.33
X5.1Y-4.45
X5.1Y-4.55
X5.2Y-4.23
X5.2Y-4.33
X5.2Y-4.45
X5.2Y-4.55
X5.3Y-4.23
X5.3Y-4.33
X5.3Y-4.45
X5.3Y-4.55
X5.4Y-4.23
X5.4Y-4.33
X5.4Y-4.45
X5.4Y-4.55
X5.5Y-4.45
X5.5Y-4.55
X5.6Y-4.45
X5.6Y-4.55
X5.875Y-4.55
X5.975Y-4.55
X6.075Y-4.55
X6.175Y-4.55
T0
M30
