M48
INCH,TZ
T1C0.0157
T2C0.0276
T3C0.0315
T4C0.0354
T5C0.0374
T6C0.0394
T7C0.0512
T8C0.0906
T9C0.1260
%
G90
G05
T1
X600Y29000
X2400Y5000
X2430Y6000
X3500Y3000
X3990Y-1890
X4000Y-1310
X4000Y-700
X5100Y29000
X5520Y8710
X5560Y10000
X6300Y7310
X6300Y4000
X10410Y4380
X13850Y-4350
X13900Y7310
X14100Y17500
X14785Y7340
X17320Y10990
X20330Y-1420
X21420Y10150
X21630Y-1480
X22090Y1485
X22600Y-1450
X22660Y4928
X23145Y890
X23890Y5510
X24600Y29000
X24880Y5200
X25000Y4110
X25850Y7000
X25850Y5500
X28090Y4663
X28100Y29000
X28100Y10500
X29100Y6630
X29600Y15000
X29730Y6410
X31600Y29000
X31600Y26500
X31600Y23500
X31760Y12490
X31768Y11482
X32360Y8660
X32370Y15090
X34060Y8470
X35100Y23000
X37600Y4500
X37600Y1000
X37600Y-3000
X37600Y-6500
X37650Y7500
X40100Y23000
X40100Y18900
X40100Y14000
X40100Y8500
T2
X33610Y18120
X33610Y15120
X19450Y21600
X19450Y18600
X23450Y21650
X23450Y18650
X25405Y21715
X28405Y21715
X32370Y18090
X32370Y15090
X21450Y21600
X21450Y18600
X39600Y18400
X39600Y15400
X17425Y21625
X17425Y18625
X5520Y-4940
X8520Y-4940
X1235Y27775
X4235Y27775
X5510Y-3950
X8510Y-3950
T3
X21100Y-250
X21100Y-6250
X22100Y-250
X22100Y-6250
X23100Y-250
X23100Y-6250
X24100Y-250
X24100Y-6250
X25100Y-250
X25100Y-6250
X26100Y-250
X26100Y-6250
X27100Y-250
X27100Y-6250
X28100Y-250
X28100Y-6250
X29100Y-250
X29100Y-6250
X30100Y-250
X30100Y-6250
X31100Y-250
X31100Y-6250
X32100Y-250
X32100Y-6250
X33100Y-250
X33100Y-6250
X34100Y-250
X34100Y-6250
X35100Y-250
X35100Y-6250
X7900Y20700
X8900Y20700
X9900Y20700
X10900Y20700
X11900Y20700
T4
X37650Y18300
X37650Y17300
X-2145Y28750
X-2145Y27750
X36500Y19090
X36500Y18090
X36500Y21080
X36500Y20080
T5
X-1330Y-4026
X-1330Y-5006
X-540Y-4026
X-540Y-5006
T6
X100Y21810
X100Y20810
X100Y19810
X100Y18810
X100Y12540
X100Y11540
X100Y10540
X100Y9540
X39100Y21416
X39100Y19624
X100Y6500
X100Y5500
X100Y4500
X1100Y6500
X1100Y5500
X1100Y4500
X100Y2500
X100Y1500
X100Y500
X11100Y2000
X11100Y1000
X11100Y0
X-1680Y21810
X-1680Y20810
X-1680Y19810
X-1680Y18810
X9400Y14050
X9400Y8050
X10400Y14050
X10400Y8050
X10900Y12550
X10900Y11550
X10900Y10550
X10900Y9550
X11400Y14050
X11400Y8050
X12400Y14050
X12400Y8050
X13400Y14050
X13400Y8050
X14400Y14050
X14400Y8050
X15400Y14050
X15400Y8050
X16400Y14050
X16400Y8050
X17400Y14050
X17400Y8050
X18400Y14050
X18400Y8050
X19400Y14050
X19400Y8050
X20400Y14050
X20400Y8050
X21400Y14050
X21400Y8050
X22400Y14050
X22400Y8050
X22500Y10495
X22500Y9495
X23400Y14050
X23400Y8050
X23500Y10495
X23500Y9495
X24400Y14050
X24400Y8050
X24500Y10470
X24500Y9495
X25400Y14050
X25400Y8050
X26400Y14050
X26400Y8050
X27400Y14050
X27400Y8050
X28400Y14050
X28400Y8050
X37100Y12480
X37100Y11480
X37100Y10480
X37100Y9480
X10100Y2000
X10100Y1000
X10100Y0
X16600Y3250
X16600Y2250
X16600Y1250
X17600Y3250
X17600Y2250
X17600Y1250
X35100Y12500
X35100Y11500
X35100Y10500
X35100Y9500
X-2400Y16000
X-2400Y15000
X-2400Y14000
X-2400Y13000
X-2400Y12000
X-2400Y11000
X-2400Y10000
X-2400Y9000
X-2400Y8000
X-2400Y7000
X-2400Y6000
X-2400Y5000
X-2400Y4000
X-2400Y3000
X-2400Y2000
X-2400Y1000
X-2400Y0
X-1400Y16000
X-1400Y15000
X-1400Y14000
X-1400Y13000
X-1400Y12000
X-1400Y11000
X-1400Y10000
X-1400Y9000
X-1400Y8000
X-1400Y7000
X-1400Y6000
X-1400Y5000
X-1400Y4000
X-1400Y3000
X-1400Y2000
X-1400Y1000
X-1400Y0
X2000Y-2950
X2000Y-3950
X2000Y-4950
X2000Y-5950
X9100Y2000
X9100Y1000
X9100Y0
T7
X38116Y21898
X38116Y19142
T8
X-2400Y-2146
X-2400Y-6886
T9
X5750Y1050
X5750Y20625
X14050Y1050
X14050Y20625
X33650Y20625
T6
G00X-2722Y25559
M15
G01X-2722Y24771
M16
G05
G00X-1935Y23315
M15
G01X-1147Y23315
M16
G05
G00X-360Y25559
M15
G01X-360Y24771
M16
G05
T0
M30
