M48
INCH,TZ
T1C0.0157
T2C0.0197
T3C0.0315
T4C0.0354
T5C0.0374
T6C0.0394
T7C0.0512
T8C0.0728
T9C0.0906
T10C0.1200
%
G90
G05
T1
X-19900Y17500
X-18900Y5500
X-18900Y-1500
X-18900Y-7500
X-18900Y-13500
X-6200Y10600
X-5100Y23500
X-4800Y-13600
X-2900Y-5500
X-1350Y16500
X100Y-500
X3300Y9400
X4240Y11470
X4600Y5750
X5050Y1150
X5050Y-850
X10080Y15930
X10080Y15250
X10100Y-7500
X10700Y-2100
X10850Y7200
X11100Y3500
X15130Y23440
X16100Y-11500
X25520Y23510
X29100Y-9500
X31075Y5200
X31700Y300
X33840Y-2190
X40100Y23500
X41500Y14400
X43100Y-3500
X45600Y-14500
X45700Y2000
X45700Y-3500
X45700Y-9500
T2
X-13900Y-2520
X-13900Y-1520
X-11900Y20500
X-13900Y2480
X-13900Y-4520
X-13900Y-11520
X-11900Y21500
X40480Y-12020
X-13900Y-520
X-13900Y-3520
X40480Y-14020
X-13900Y-5520
X-13900Y480
X-13900Y-10520
X40480Y-11020
X-10900Y20500
X-10900Y21500
X-13900Y1480
X-13900Y-6520
X-13900Y3480
X40480Y-13020
X-13900Y-7520
X-13900Y-12520
X-13900Y-9520
X-13900Y-8520
T3
X3950Y2300
X9950Y2300
X3950Y6300
X9950Y6300
X3950Y4300
X9950Y4300
X34900Y18000
X40900Y18000
X3950Y10300
X9950Y10300
X34900Y13500
X40900Y13500
X34900Y20200
X40900Y20200
X3950Y8280
X9950Y8280
X3950Y300
X9950Y300
X34900Y15800
X40900Y15800
X3950Y-1600
X9950Y-1600
T4
X43100Y15800
X43100Y14800
X43100Y18000
X43100Y17000
X43100Y20200
X43100Y19200
X43100Y13500
X43100Y12500
T5
X-15710Y21500
X-15710Y20520
X-14920Y21500
X-14920Y20520
T6
X-13860Y10690
X-13860Y9690
X-13860Y8690
X-13860Y7690
X41940Y5500
X41940Y4500
X41940Y3500
X43600Y23396
X43600Y21604
X41920Y-5240
X41920Y-6240
X41920Y-7240
X41920Y-8240
X40500Y5500
X40500Y4500
X40500Y3500
X40480Y-5240
X40480Y-6240
X40480Y-7240
X40480Y-8240
X13100Y14300
X13100Y13300
X13100Y12300
X13100Y11300
X13100Y10300
X13100Y9300
X13100Y8300
X13100Y7300
X13100Y6300
X13100Y5300
X13100Y4300
X13100Y3300
X13100Y2300
X13100Y1300
X13100Y300
X13100Y-700
X13100Y-1700
X13100Y-2700
X13100Y-3700
X13100Y-4700
X17300Y14300
X17300Y13300
X17300Y12300
X17300Y11300
X17300Y10300
X17300Y9300
X17300Y8300
X17300Y7300
X17300Y6300
X17300Y5300
X17300Y4300
X17300Y3300
X17300Y2300
X17300Y1300
X17300Y300
X17300Y-700
X17300Y-1700
X17300Y-2700
X17300Y-3700
X17300Y-4700
X18800Y-3200
X19800Y-3200
X20800Y-3200
X20855Y9400
X20855Y8400
X20880Y10400
X21800Y-3200
X21855Y10400
X21855Y9400
X21855Y8400
X23300Y14300
X23300Y13300
X23300Y12300
X23300Y11300
X23300Y10300
X23300Y9300
X23300Y8300
X23300Y7300
X23300Y6300
X23300Y5300
X23300Y4300
X23300Y3300
X23300Y2300
X23300Y1300
X23300Y300
X23300Y-700
X23300Y-1700
X23300Y-2700
X23300Y-3700
X23300Y-4700
X-16680Y10690
X-16680Y9690
X-16680Y8690
X-16680Y7690
X-19600Y22540
X-19600Y21540
X-19600Y20540
X-19600Y19540
X27500Y14310
X27500Y13310
X27500Y12310
X27500Y11310
X27500Y10310
X27500Y9310
X27500Y8310
X27500Y7310
X27500Y6310
X27500Y5310
X27500Y4310
X27500Y3310
X27500Y2310
X27500Y1310
X27500Y310
X27500Y-690
X27500Y-1690
X27500Y-2690
X27500Y-3690
X27500Y-4690
X-16690Y3480
X-16690Y2480
X-16690Y1480
X-16690Y480
X-16690Y-520
X-16690Y-1520
X-16690Y-2520
X-16690Y-3520
X-16690Y-4520
X-16690Y-5520
X-16690Y-6520
X-16690Y-7520
X-16690Y-8520
X-16690Y-9520
X-16690Y-10520
X-16690Y-11520
X-16690Y-12520
X-15690Y3480
X-15690Y2480
X-15690Y1480
X-15690Y480
X-15690Y-520
X-15690Y-1520
X-15690Y-2520
X-15690Y-3520
X-15690Y-4520
X-15690Y-5520
X-15690Y-6520
X-15690Y-7520
X-15690Y-8520
X-15690Y-9520
X-15690Y-10520
X-15690Y-11520
X-15690Y-12520
X41950Y-11025
X41950Y-12025
X41950Y-13025
X41950Y-14025
X40500Y260
X40500Y-740
X40500Y-1740
X41900Y260
X41900Y-740
X41900Y-1740
T7
X42616Y23878
X42616Y21122
T8
X35800Y10950
X35800Y9100
X35800Y7250
X37300Y10950
X37300Y9100
X37300Y7250
X42300Y10100
X42300Y8100
T9
X-16780Y23380
X-16780Y18640
T10
X6344Y-13754
X33903Y-13754
X33903Y23254
X6344Y23254
T6
G00X-17771Y15404
M15
G01X-17771Y14617
M16
G05
G00X-16984Y13160
M15
G01X-16196Y13160
M16
G05
G00X-15409Y15404
M15
G01X-15409Y14617
M16
G05
T0
M30
