M48
INCH,TZ
T1C0.0157
T2C0.0197
T3C0.0315
T4C0.0354
T5C0.0374
T6C0.0394
T7C0.0512
T8C0.0728
T9C0.0906
T10C0.1200
%
G90
G05
T1
X21000Y-27000
X22000Y-39000
X22000Y-46000
X22000Y-52000
X22000Y-58000
X32550Y-28100
X34700Y-33900
X35800Y-21000
X36100Y-58100
X38000Y-50000
X40450Y-26550
X41000Y-45000
X44200Y-35100
X45140Y-33030
X45500Y-38750
X45950Y-43350
X45950Y-45350
X47243Y-24300
X50975Y-28695
X51000Y-52000
X51002Y-29029
X51600Y-46600
X51750Y-37300
X52000Y-41000
X55000Y-21000
X55000Y-58000
X57000Y-56000
X61000Y-26000
X65200Y-21000
X68000Y-58000
X70000Y-54000
X71000Y-39000
X72600Y-44200
X74740Y-46690
X81000Y-21000
X82400Y-29400
X84000Y-48000
X86500Y-59000
X86600Y-42500
X86600Y-48000
X86600Y-54000
T2
X27000Y-53020
X27000Y-43020
X81380Y-57520
X27000Y-50020
X27000Y-47020
X81380Y-55520
X27000Y-46020
X27000Y-45020
X29000Y-23000
X27000Y-56020
X27000Y-41020
X27000Y-49020
X30000Y-23000
X27000Y-55020
X81380Y-58520
X27000Y-44020
X27000Y-57020
X27000Y-52020
X27000Y-48020
X27000Y-51020
X29000Y-24000
X27000Y-54020
X81380Y-56520
X27000Y-42020
X30000Y-24000
T3
X75800Y-28000
X81800Y-28000
X44850Y-46100
X50850Y-46100
X44850Y-38200
X50850Y-38200
X44850Y-40200
X50850Y-40200
X44850Y-42200
X50850Y-42200
X44850Y-36220
X50850Y-36220
X75800Y-31000
X81800Y-31000
X75800Y-25000
X81800Y-25000
X44850Y-34200
X50850Y-34200
X44850Y-44200
X50850Y-44200
T4
X84000Y-31000
X84000Y-32000
X84000Y-28000
X84000Y-29000
X84000Y-25000
X84000Y-26000
T5
X25190Y-23000
X25190Y-23980
X25980Y-23000
X25980Y-23980
T6
X82850Y-55525
X82850Y-56525
X82850Y-57525
X82850Y-58525
X21300Y-21960
X21300Y-22960
X21300Y-23960
X21300Y-24960
X84500Y-21454
X84500Y-23246
X82800Y-44240
X82800Y-45240
X82800Y-46240
X24210Y-41020
X24210Y-42020
X24210Y-43020
X24210Y-44020
X24210Y-45020
X24210Y-46020
X24210Y-47020
X24210Y-48020
X24210Y-49020
X24210Y-50020
X24210Y-51020
X24210Y-52020
X24210Y-53020
X24210Y-54020
X24210Y-55020
X24210Y-56020
X24210Y-57020
X25210Y-41020
X25210Y-42020
X25210Y-43020
X25210Y-44020
X25210Y-45020
X25210Y-46020
X25210Y-47020
X25210Y-48020
X25210Y-49020
X25210Y-50020
X25210Y-51020
X25210Y-52020
X25210Y-53020
X25210Y-54020
X25210Y-55020
X25210Y-56020
X25210Y-57020
X58200Y-30200
X58200Y-31200
X58200Y-32200
X58200Y-33200
X58200Y-34200
X58200Y-35200
X58200Y-36200
X58200Y-37200
X58200Y-38200
X58200Y-39200
X58200Y-40200
X58200Y-41200
X58200Y-42200
X58200Y-43200
X58200Y-44200
X58200Y-45200
X58200Y-46200
X58200Y-47200
X58200Y-48200
X58200Y-49200
X59700Y-47700
X60700Y-47700
X61700Y-47700
X61755Y-35100
X61755Y-36100
X61780Y-34100
X62700Y-47700
X62755Y-34100
X62755Y-35100
X62755Y-36100
X64200Y-30200
X64200Y-31200
X64200Y-32200
X64200Y-33200
X64200Y-34200
X64200Y-35200
X64200Y-36200
X64200Y-37200
X64200Y-38200
X64200Y-39200
X64200Y-40200
X64200Y-41200
X64200Y-42200
X64200Y-43200
X64200Y-44200
X64200Y-45200
X64200Y-46200
X64200Y-47200
X64200Y-48200
X64200Y-49200
X24220Y-33810
X24220Y-34810
X24220Y-35810
X24220Y-36810
X82820Y-49740
X82820Y-50740
X82820Y-51740
X82820Y-52740
X82840Y-39000
X82840Y-40000
X82840Y-41000
X54000Y-30200
X54000Y-31200
X54000Y-32200
X54000Y-33200
X54000Y-34200
X54000Y-35200
X54000Y-36200
X54000Y-37200
X54000Y-38200
X54000Y-39200
X54000Y-40200
X54000Y-41200
X54000Y-42200
X54000Y-43200
X54000Y-44200
X54000Y-45200
X54000Y-46200
X54000Y-47200
X54000Y-48200
X54000Y-49200
X68400Y-30190
X68400Y-31190
X68400Y-32190
X68400Y-33190
X68400Y-34190
X68400Y-35190
X68400Y-36190
X68400Y-37190
X68400Y-38190
X68400Y-39190
X68400Y-40190
X68400Y-41190
X68400Y-42190
X68400Y-43190
X68400Y-44190
X68400Y-45190
X68400Y-46190
X68400Y-47190
X68400Y-48190
X68400Y-49190
X81400Y-44240
X81400Y-45240
X81400Y-46240
X81380Y-49740
X81380Y-50740
X81380Y-51740
X81380Y-52740
X81400Y-39000
X81400Y-40000
X81400Y-41000
X27040Y-33810
X27040Y-34810
X27040Y-35810
X27040Y-36810
T7
X83516Y-20972
X83516Y-23728
T8
X76700Y-33550
X76700Y-35400
X76700Y-37250
X78200Y-33550
X78200Y-35400
X78200Y-37250
X83200Y-34400
X83200Y-36400
T9
X24120Y-21120
X24120Y-25860
T10
X47244Y-21246
X74803Y-21246
X47244Y-58254
X74803Y-58254
T6
G00X23129Y-29096
M15
G01X23129Y-29883
M16
G05
G00X23916Y-31340
M15
G01X24704Y-31340
M16
G05
G00X25491Y-29096
M15
G01X25491Y-29883
M16
G05
T0
M30
