G04 #@! TF.GenerationSoftware,KiCad,Pcbnew,(5.1.2)-2*
G04 #@! TF.CreationDate,2020-12-14T08:03:05+00:00*
G04 #@! TF.ProjectId,Greaseweazle F1 3.5 Inch,47726561-7365-4776-9561-7a6c65204631,2.0*
G04 #@! TF.SameCoordinates,Original*
G04 #@! TF.FileFunction,Soldermask,Bot*
G04 #@! TF.FilePolarity,Negative*
%FSLAX46Y46*%
G04 Gerber Fmt 4.6, Leading zero omitted, Abs format (unit mm)*
G04 Created by KiCad (PCBNEW (5.1.2)-2) date 2020-12-14 08:03:05*
%MOMM*%
%LPD*%
G04 APERTURE LIST*
%ADD10C,0.381000*%
%ADD11C,3.208000*%
%ADD12R,3.208000X3.208000*%
%ADD13C,2.308000*%
%ADD14R,2.308000X2.308000*%
%ADD15C,2.108000*%
%ADD16O,2.108000X2.108000*%
%ADD17C,2.208000*%
%ADD18R,2.208000X2.208000*%
%ADD19C,1.508000*%
%ADD20O,2.208000X2.208000*%
%ADD21C,0.150000*%
%ADD22C,4.008000*%
%ADD23C,3.508000*%
%ADD24R,4.008000X4.008000*%
%ADD25C,4.008120*%
%ADD26C,2.009140*%
%ADD27C,2.458000*%
%ADD28C,2.016000*%
%ADD29C,4.572000*%
G04 APERTURE END LIST*
D10*
X50800000Y-128333500D02*
X50800000Y-149694900D01*
X52070000Y-127063500D02*
X57277000Y-127063500D01*
X52070000Y-121920000D02*
X57277000Y-121920000D01*
X57277000Y-121920000D02*
X57277000Y-127063500D01*
X52070000Y-127063500D02*
G75*
G03X50800000Y-128333500I0J-1270000D01*
G01*
X50800000Y-120650000D02*
G75*
G03X52070000Y-121920000I1270000J0D01*
G01*
X219710000Y-150964900D02*
G75*
G03X220980000Y-149694900I0J1270000D01*
G01*
X52070000Y-50965100D02*
G75*
G03X50800000Y-52235100I0J-1270000D01*
G01*
X220980000Y-52235100D02*
G75*
G03X219710000Y-50965100I-1270000J0D01*
G01*
X50800000Y-149694900D02*
G75*
G03X52070000Y-150964900I1270000J0D01*
G01*
X50800000Y-52235100D02*
X50800000Y-120650000D01*
X52070000Y-150964900D02*
X219710000Y-150964900D01*
X219710000Y-50965100D02*
X52070000Y-50965100D01*
X220980000Y-149694900D02*
X220980000Y-52235100D01*
D11*
X211328000Y-87376000D03*
X211328000Y-92456000D03*
X194818000Y-94616000D03*
X194818000Y-89916000D03*
X194818000Y-85216000D03*
X198628000Y-94616000D03*
X198628000Y-89916000D03*
D12*
X198628000Y-85216000D03*
D13*
X213360000Y-78740000D03*
D14*
X213360000Y-81280000D03*
X213360000Y-73660000D03*
D13*
X213360000Y-71120000D03*
X213360000Y-63500000D03*
D14*
X213360000Y-66040000D03*
D15*
X129159000Y-86868000D03*
D16*
X113919000Y-86868000D03*
X113919000Y-91998800D03*
D15*
X129159000Y-91998800D03*
X129159000Y-97028000D03*
D16*
X113919000Y-97028000D03*
X113919000Y-102108000D03*
D15*
X129159000Y-102108000D03*
X129159000Y-107188000D03*
D16*
X113919000Y-107188000D03*
X113919000Y-112268000D03*
D15*
X129159000Y-112268000D03*
X129159000Y-117094000D03*
D16*
X113919000Y-117094000D03*
X192532000Y-78740000D03*
D15*
X207772000Y-78740000D03*
X207772000Y-71120000D03*
D16*
X192532000Y-71120000D03*
X192532000Y-63500000D03*
D15*
X207772000Y-63500000D03*
D17*
X156857700Y-91694000D03*
X156857700Y-89154000D03*
X156921200Y-86614000D03*
D18*
X159397700Y-91694000D03*
D17*
X159397700Y-86614000D03*
X159397700Y-89154000D03*
X147828000Y-124968000D03*
X163068000Y-124968000D03*
X147828000Y-122428000D03*
X163068000Y-122428000D03*
X147828000Y-119888000D03*
X163068000Y-119888000D03*
X147828000Y-117348000D03*
X163068000Y-117348000D03*
X147828000Y-114808000D03*
X163068000Y-114808000D03*
X147828000Y-112268000D03*
X163068000Y-112268000D03*
X147828000Y-109728000D03*
X163068000Y-109728000D03*
X147828000Y-107188000D03*
X163068000Y-107188000D03*
X147828000Y-104648000D03*
X163068000Y-104648000D03*
X147828000Y-102108000D03*
X163068000Y-102108000D03*
X147828000Y-99568000D03*
X163068000Y-99568000D03*
X147828000Y-97028000D03*
X163068000Y-97028000D03*
X147828000Y-94488000D03*
X163068000Y-94488000D03*
X147828000Y-91948000D03*
X163068000Y-91948000D03*
X147828000Y-89408000D03*
X163068000Y-89408000D03*
X147828000Y-86868000D03*
X163068000Y-86868000D03*
X147828000Y-84328000D03*
X163068000Y-84328000D03*
X147828000Y-81788000D03*
X163068000Y-81788000D03*
X147828000Y-79248000D03*
X163068000Y-79248000D03*
D18*
X147828000Y-76708000D03*
D17*
X163068000Y-76708000D03*
X159258000Y-121158000D03*
X156718000Y-121158000D03*
X154178000Y-121158000D03*
D18*
X151638000Y-121158000D03*
D19*
X206705200Y-141020800D03*
X206705200Y-143560800D03*
X206705200Y-146100800D03*
X206705200Y-148640800D03*
D20*
X137160000Y-124968000D03*
X137160000Y-122428000D03*
X137160000Y-119888000D03*
X137160000Y-117348000D03*
X137160000Y-114808000D03*
X137160000Y-112268000D03*
X137160000Y-109728000D03*
X137160000Y-107188000D03*
X137160000Y-104648000D03*
X137160000Y-102108000D03*
X137160000Y-99568000D03*
X137160000Y-97028000D03*
X137160000Y-94488000D03*
X137160000Y-91948000D03*
X137160000Y-89408000D03*
X137160000Y-86868000D03*
X137160000Y-84328000D03*
X137160000Y-81788000D03*
X137160000Y-79248000D03*
D17*
X137160000Y-76708000D03*
D20*
X173736000Y-76682600D03*
X173736000Y-79222600D03*
X173736000Y-81762600D03*
X173736000Y-84302600D03*
X173736000Y-86842600D03*
X173736000Y-89382600D03*
X173736000Y-91922600D03*
X173736000Y-94462600D03*
X173736000Y-97002600D03*
X173736000Y-99542600D03*
X173736000Y-102082600D03*
X173736000Y-104622600D03*
X173736000Y-107162600D03*
X173736000Y-109702600D03*
X173736000Y-112242600D03*
X173736000Y-114782600D03*
X173736000Y-117322600D03*
X173736000Y-119862600D03*
X173736000Y-122402600D03*
D17*
X173736000Y-124942600D03*
D19*
X73660000Y-60960000D03*
X76200000Y-58420000D03*
X73660000Y-58420000D03*
X76200000Y-60960000D03*
D18*
X54102000Y-63398400D03*
D20*
X54102000Y-60858400D03*
X54102000Y-58318400D03*
X54102000Y-55778400D03*
X210312000Y-117449600D03*
X210312000Y-114909600D03*
D18*
X210312000Y-112369600D03*
D20*
X210413600Y-104140000D03*
X210413600Y-101600000D03*
D18*
X210413600Y-99060000D03*
X206756000Y-99060000D03*
D20*
X206756000Y-101600000D03*
D17*
X206756000Y-104140000D03*
D18*
X206756000Y-112369600D03*
D20*
X206756000Y-114909600D03*
D17*
X206756000Y-117449600D03*
D18*
X210362800Y-133959600D03*
D20*
X210362800Y-131419600D03*
X210362800Y-128879600D03*
D17*
X210362800Y-126339600D03*
D20*
X206705200Y-126339600D03*
X206705200Y-128879600D03*
X206705200Y-131419600D03*
D18*
X206705200Y-133959600D03*
D20*
X210439000Y-148653500D03*
X210439000Y-146113500D03*
X210439000Y-143573500D03*
D18*
X210439000Y-141033500D03*
D19*
X68580000Y-137210800D03*
X68580000Y-144830800D03*
X68580000Y-142290800D03*
X68580000Y-139750800D03*
X68580000Y-134670800D03*
X68580000Y-132130800D03*
X68580000Y-121970800D03*
X68580000Y-127050800D03*
X68580000Y-124510800D03*
X68580000Y-129590800D03*
X68580000Y-119430800D03*
X68580000Y-116890800D03*
X68580000Y-114350800D03*
X68580000Y-111810800D03*
X68580000Y-109270800D03*
X68580000Y-106730800D03*
X68580000Y-104190800D03*
D18*
X68681600Y-93497400D03*
D20*
X68681600Y-90957400D03*
X68681600Y-88417400D03*
X68681600Y-85877400D03*
D21*
G36*
X62847613Y-77604425D02*
G01*
X62944881Y-77618853D01*
X63040265Y-77642746D01*
X63132849Y-77675873D01*
X63221740Y-77717915D01*
X63306081Y-77768467D01*
X63385062Y-77827044D01*
X63457921Y-77893079D01*
X63523956Y-77965938D01*
X63582533Y-78044919D01*
X63633085Y-78129260D01*
X63675127Y-78218151D01*
X63708254Y-78310735D01*
X63732147Y-78406119D01*
X63746575Y-78503387D01*
X63751400Y-78601600D01*
X63751400Y-80605600D01*
X63746575Y-80703813D01*
X63732147Y-80801081D01*
X63708254Y-80896465D01*
X63675127Y-80989049D01*
X63633085Y-81077940D01*
X63582533Y-81162281D01*
X63523956Y-81241262D01*
X63457921Y-81314121D01*
X63385062Y-81380156D01*
X63306081Y-81438733D01*
X63221740Y-81489285D01*
X63132849Y-81531327D01*
X63040265Y-81564454D01*
X62944881Y-81588347D01*
X62847613Y-81602775D01*
X62749400Y-81607600D01*
X60745400Y-81607600D01*
X60647187Y-81602775D01*
X60549919Y-81588347D01*
X60454535Y-81564454D01*
X60361951Y-81531327D01*
X60273060Y-81489285D01*
X60188719Y-81438733D01*
X60109738Y-81380156D01*
X60036879Y-81314121D01*
X59970844Y-81241262D01*
X59912267Y-81162281D01*
X59861715Y-81077940D01*
X59819673Y-80989049D01*
X59786546Y-80896465D01*
X59762653Y-80801081D01*
X59748225Y-80703813D01*
X59743400Y-80605600D01*
X59743400Y-78601600D01*
X59748225Y-78503387D01*
X59762653Y-78406119D01*
X59786546Y-78310735D01*
X59819673Y-78218151D01*
X59861715Y-78129260D01*
X59912267Y-78044919D01*
X59970844Y-77965938D01*
X60036879Y-77893079D01*
X60109738Y-77827044D01*
X60188719Y-77768467D01*
X60273060Y-77717915D01*
X60361951Y-77675873D01*
X60454535Y-77642746D01*
X60549919Y-77618853D01*
X60647187Y-77604425D01*
X60745400Y-77599600D01*
X62749400Y-77599600D01*
X62847613Y-77604425D01*
X62847613Y-77604425D01*
G37*
D22*
X61747400Y-79603600D03*
D21*
G36*
X59710361Y-72903823D02*
G01*
X59795494Y-72916451D01*
X59878980Y-72937363D01*
X59960013Y-72966358D01*
X60037815Y-73003155D01*
X60111635Y-73047401D01*
X60180763Y-73098670D01*
X60244533Y-73156467D01*
X60302330Y-73220237D01*
X60353599Y-73289365D01*
X60397845Y-73363185D01*
X60434642Y-73440987D01*
X60463637Y-73522020D01*
X60484549Y-73605506D01*
X60497177Y-73690639D01*
X60501400Y-73776600D01*
X60501400Y-76030600D01*
X60497177Y-76116561D01*
X60484549Y-76201694D01*
X60463637Y-76285180D01*
X60434642Y-76366213D01*
X60397845Y-76444015D01*
X60353599Y-76517835D01*
X60302330Y-76586963D01*
X60244533Y-76650733D01*
X60180763Y-76708530D01*
X60111635Y-76759799D01*
X60037815Y-76804045D01*
X59960013Y-76840842D01*
X59878980Y-76869837D01*
X59795494Y-76890749D01*
X59710361Y-76903377D01*
X59624400Y-76907600D01*
X57870400Y-76907600D01*
X57784439Y-76903377D01*
X57699306Y-76890749D01*
X57615820Y-76869837D01*
X57534787Y-76840842D01*
X57456985Y-76804045D01*
X57383165Y-76759799D01*
X57314037Y-76708530D01*
X57250267Y-76650733D01*
X57192470Y-76586963D01*
X57141201Y-76517835D01*
X57096955Y-76444015D01*
X57060158Y-76366213D01*
X57031163Y-76285180D01*
X57010251Y-76201694D01*
X56997623Y-76116561D01*
X56993400Y-76030600D01*
X56993400Y-73776600D01*
X56997623Y-73690639D01*
X57010251Y-73605506D01*
X57031163Y-73522020D01*
X57060158Y-73440987D01*
X57096955Y-73363185D01*
X57141201Y-73289365D01*
X57192470Y-73220237D01*
X57250267Y-73156467D01*
X57314037Y-73098670D01*
X57383165Y-73047401D01*
X57456985Y-73003155D01*
X57534787Y-72966358D01*
X57615820Y-72937363D01*
X57699306Y-72916451D01*
X57784439Y-72903823D01*
X57870400Y-72899600D01*
X59624400Y-72899600D01*
X59710361Y-72903823D01*
X59710361Y-72903823D01*
G37*
D23*
X58747400Y-74903600D03*
D24*
X64747400Y-74903600D03*
D25*
X61264800Y-65684400D03*
X61264800Y-53644800D03*
D26*
X65989200Y-58420000D03*
X65989200Y-60909200D03*
X63982600Y-60909200D03*
X63982600Y-58420000D03*
D27*
X212130000Y-53269000D03*
X212130000Y-60269000D03*
D28*
X214630000Y-54494000D03*
X214630000Y-59044000D03*
D20*
X61518800Y-85877400D03*
X61518800Y-88417400D03*
X61518800Y-90957400D03*
D18*
X61518800Y-93497400D03*
D20*
X64033400Y-144830800D03*
X61493400Y-144830800D03*
X64033400Y-142290800D03*
X61493400Y-142290800D03*
X64033400Y-139750800D03*
X61493400Y-139750800D03*
X64033400Y-137210800D03*
X61493400Y-137210800D03*
X64033400Y-134670800D03*
X61493400Y-134670800D03*
X64033400Y-132130800D03*
X61493400Y-132130800D03*
X64033400Y-129590800D03*
X61493400Y-129590800D03*
X64033400Y-127050800D03*
X61493400Y-127050800D03*
X64033400Y-124510800D03*
X61493400Y-124510800D03*
X64033400Y-121970800D03*
X61493400Y-121970800D03*
X64033400Y-119430800D03*
X61493400Y-119430800D03*
X64033400Y-116890800D03*
X61493400Y-116890800D03*
X64033400Y-114350800D03*
X61493400Y-114350800D03*
X64033400Y-111810800D03*
X61493400Y-111810800D03*
X64033400Y-109270800D03*
X61493400Y-109270800D03*
X64033400Y-106730800D03*
X61493400Y-106730800D03*
X64033400Y-104190800D03*
D18*
X61493400Y-104190800D03*
D29*
X119999760Y-53964840D03*
X189999620Y-53964840D03*
X119999760Y-147965160D03*
X189999620Y-147965160D03*
M02*
