G04 #@! TF.GenerationSoftware,KiCad,Pcbnew,(5.1.2)-2*
G04 #@! TF.CreationDate,2020-12-14T08:03:05+00:00*
G04 #@! TF.ProjectId,Greaseweazle F1 3.5 Inch,47726561-7365-4776-9561-7a6c65204631,2.0*
G04 #@! TF.SameCoordinates,Original*
G04 #@! TF.FileFunction,Soldermask,Top*
G04 #@! TF.FilePolarity,Negative*
%FSLAX46Y46*%
G04 Gerber Fmt 4.6, Leading zero omitted, Abs format (unit mm)*
G04 Created by KiCad (PCBNEW (5.1.2)-2) date 2020-12-14 08:03:05*
%MOMM*%
%LPD*%
G04 APERTURE LIST*
%ADD10C,0.381000*%
%ADD11C,3.208000*%
%ADD12R,3.208000X3.208000*%
%ADD13C,0.150000*%
%ADD14C,1.658000*%
%ADD15C,2.308000*%
%ADD16R,2.308000X2.308000*%
%ADD17C,2.108000*%
%ADD18O,2.108000X2.108000*%
%ADD19C,2.208000*%
%ADD20R,2.208000X2.208000*%
%ADD21C,1.508000*%
%ADD22O,2.208000X2.208000*%
%ADD23C,4.008000*%
%ADD24C,3.508000*%
%ADD25R,4.008000X4.008000*%
%ADD26C,4.008120*%
%ADD27C,2.009140*%
%ADD28C,2.458000*%
%ADD29C,2.016000*%
%ADD30C,4.572000*%
G04 APERTURE END LIST*
D10*
X50800000Y-128333500D02*
X50800000Y-149694900D01*
X52070000Y-127063500D02*
X57277000Y-127063500D01*
X52070000Y-121920000D02*
X57277000Y-121920000D01*
X57277000Y-121920000D02*
X57277000Y-127063500D01*
X52070000Y-127063500D02*
G75*
G03X50800000Y-128333500I0J-1270000D01*
G01*
X50800000Y-120650000D02*
G75*
G03X52070000Y-121920000I1270000J0D01*
G01*
X219710000Y-150964900D02*
G75*
G03X220980000Y-149694900I0J1270000D01*
G01*
X52070000Y-50965100D02*
G75*
G03X50800000Y-52235100I0J-1270000D01*
G01*
X220980000Y-52235100D02*
G75*
G03X219710000Y-50965100I-1270000J0D01*
G01*
X50800000Y-149694900D02*
G75*
G03X52070000Y-150964900I1270000J0D01*
G01*
X50800000Y-52235100D02*
X50800000Y-120650000D01*
X52070000Y-150964900D02*
X219710000Y-150964900D01*
X219710000Y-50965100D02*
X52070000Y-50965100D01*
X220980000Y-149694900D02*
X220980000Y-52235100D01*
D11*
X211328000Y-87376000D03*
X211328000Y-92456000D03*
X194818000Y-94616000D03*
X194818000Y-89916000D03*
X194818000Y-85216000D03*
X198628000Y-94616000D03*
X198628000Y-89916000D03*
D12*
X198628000Y-85216000D03*
D13*
G36*
X199630895Y-62547736D02*
G01*
X199665883Y-62552926D01*
X199700194Y-62561520D01*
X199733498Y-62573436D01*
X199765473Y-62588560D01*
X199795812Y-62606744D01*
X199824223Y-62627815D01*
X199850431Y-62651569D01*
X199874185Y-62677777D01*
X199895256Y-62706188D01*
X199913440Y-62736527D01*
X199928564Y-62768502D01*
X199940480Y-62801806D01*
X199949074Y-62836117D01*
X199954264Y-62871105D01*
X199956000Y-62906434D01*
X199956000Y-64093566D01*
X199954264Y-64128895D01*
X199949074Y-64163883D01*
X199940480Y-64198194D01*
X199928564Y-64231498D01*
X199913440Y-64263473D01*
X199895256Y-64293812D01*
X199874185Y-64322223D01*
X199850431Y-64348431D01*
X199824223Y-64372185D01*
X199795812Y-64393256D01*
X199765473Y-64411440D01*
X199733498Y-64426564D01*
X199700194Y-64438480D01*
X199665883Y-64447074D01*
X199630895Y-64452264D01*
X199595566Y-64454000D01*
X198658434Y-64454000D01*
X198623105Y-64452264D01*
X198588117Y-64447074D01*
X198553806Y-64438480D01*
X198520502Y-64426564D01*
X198488527Y-64411440D01*
X198458188Y-64393256D01*
X198429777Y-64372185D01*
X198403569Y-64348431D01*
X198379815Y-64322223D01*
X198358744Y-64293812D01*
X198340560Y-64263473D01*
X198325436Y-64231498D01*
X198313520Y-64198194D01*
X198304926Y-64163883D01*
X198299736Y-64128895D01*
X198298000Y-64093566D01*
X198298000Y-62906434D01*
X198299736Y-62871105D01*
X198304926Y-62836117D01*
X198313520Y-62801806D01*
X198325436Y-62768502D01*
X198340560Y-62736527D01*
X198358744Y-62706188D01*
X198379815Y-62677777D01*
X198403569Y-62651569D01*
X198429777Y-62627815D01*
X198458188Y-62606744D01*
X198488527Y-62588560D01*
X198520502Y-62573436D01*
X198553806Y-62561520D01*
X198588117Y-62552926D01*
X198623105Y-62547736D01*
X198658434Y-62546000D01*
X199595566Y-62546000D01*
X199630895Y-62547736D01*
X199630895Y-62547736D01*
G37*
D14*
X199127000Y-63500000D03*
D13*
G36*
X201680895Y-62547736D02*
G01*
X201715883Y-62552926D01*
X201750194Y-62561520D01*
X201783498Y-62573436D01*
X201815473Y-62588560D01*
X201845812Y-62606744D01*
X201874223Y-62627815D01*
X201900431Y-62651569D01*
X201924185Y-62677777D01*
X201945256Y-62706188D01*
X201963440Y-62736527D01*
X201978564Y-62768502D01*
X201990480Y-62801806D01*
X201999074Y-62836117D01*
X202004264Y-62871105D01*
X202006000Y-62906434D01*
X202006000Y-64093566D01*
X202004264Y-64128895D01*
X201999074Y-64163883D01*
X201990480Y-64198194D01*
X201978564Y-64231498D01*
X201963440Y-64263473D01*
X201945256Y-64293812D01*
X201924185Y-64322223D01*
X201900431Y-64348431D01*
X201874223Y-64372185D01*
X201845812Y-64393256D01*
X201815473Y-64411440D01*
X201783498Y-64426564D01*
X201750194Y-64438480D01*
X201715883Y-64447074D01*
X201680895Y-64452264D01*
X201645566Y-64454000D01*
X200708434Y-64454000D01*
X200673105Y-64452264D01*
X200638117Y-64447074D01*
X200603806Y-64438480D01*
X200570502Y-64426564D01*
X200538527Y-64411440D01*
X200508188Y-64393256D01*
X200479777Y-64372185D01*
X200453569Y-64348431D01*
X200429815Y-64322223D01*
X200408744Y-64293812D01*
X200390560Y-64263473D01*
X200375436Y-64231498D01*
X200363520Y-64198194D01*
X200354926Y-64163883D01*
X200349736Y-64128895D01*
X200348000Y-64093566D01*
X200348000Y-62906434D01*
X200349736Y-62871105D01*
X200354926Y-62836117D01*
X200363520Y-62801806D01*
X200375436Y-62768502D01*
X200390560Y-62736527D01*
X200408744Y-62706188D01*
X200429815Y-62677777D01*
X200453569Y-62651569D01*
X200479777Y-62627815D01*
X200508188Y-62606744D01*
X200538527Y-62588560D01*
X200570502Y-62573436D01*
X200603806Y-62561520D01*
X200638117Y-62552926D01*
X200673105Y-62547736D01*
X200708434Y-62546000D01*
X201645566Y-62546000D01*
X201680895Y-62547736D01*
X201680895Y-62547736D01*
G37*
D14*
X201177000Y-63500000D03*
D13*
G36*
X199630895Y-77787736D02*
G01*
X199665883Y-77792926D01*
X199700194Y-77801520D01*
X199733498Y-77813436D01*
X199765473Y-77828560D01*
X199795812Y-77846744D01*
X199824223Y-77867815D01*
X199850431Y-77891569D01*
X199874185Y-77917777D01*
X199895256Y-77946188D01*
X199913440Y-77976527D01*
X199928564Y-78008502D01*
X199940480Y-78041806D01*
X199949074Y-78076117D01*
X199954264Y-78111105D01*
X199956000Y-78146434D01*
X199956000Y-79333566D01*
X199954264Y-79368895D01*
X199949074Y-79403883D01*
X199940480Y-79438194D01*
X199928564Y-79471498D01*
X199913440Y-79503473D01*
X199895256Y-79533812D01*
X199874185Y-79562223D01*
X199850431Y-79588431D01*
X199824223Y-79612185D01*
X199795812Y-79633256D01*
X199765473Y-79651440D01*
X199733498Y-79666564D01*
X199700194Y-79678480D01*
X199665883Y-79687074D01*
X199630895Y-79692264D01*
X199595566Y-79694000D01*
X198658434Y-79694000D01*
X198623105Y-79692264D01*
X198588117Y-79687074D01*
X198553806Y-79678480D01*
X198520502Y-79666564D01*
X198488527Y-79651440D01*
X198458188Y-79633256D01*
X198429777Y-79612185D01*
X198403569Y-79588431D01*
X198379815Y-79562223D01*
X198358744Y-79533812D01*
X198340560Y-79503473D01*
X198325436Y-79471498D01*
X198313520Y-79438194D01*
X198304926Y-79403883D01*
X198299736Y-79368895D01*
X198298000Y-79333566D01*
X198298000Y-78146434D01*
X198299736Y-78111105D01*
X198304926Y-78076117D01*
X198313520Y-78041806D01*
X198325436Y-78008502D01*
X198340560Y-77976527D01*
X198358744Y-77946188D01*
X198379815Y-77917777D01*
X198403569Y-77891569D01*
X198429777Y-77867815D01*
X198458188Y-77846744D01*
X198488527Y-77828560D01*
X198520502Y-77813436D01*
X198553806Y-77801520D01*
X198588117Y-77792926D01*
X198623105Y-77787736D01*
X198658434Y-77786000D01*
X199595566Y-77786000D01*
X199630895Y-77787736D01*
X199630895Y-77787736D01*
G37*
D14*
X199127000Y-78740000D03*
D13*
G36*
X201680895Y-77787736D02*
G01*
X201715883Y-77792926D01*
X201750194Y-77801520D01*
X201783498Y-77813436D01*
X201815473Y-77828560D01*
X201845812Y-77846744D01*
X201874223Y-77867815D01*
X201900431Y-77891569D01*
X201924185Y-77917777D01*
X201945256Y-77946188D01*
X201963440Y-77976527D01*
X201978564Y-78008502D01*
X201990480Y-78041806D01*
X201999074Y-78076117D01*
X202004264Y-78111105D01*
X202006000Y-78146434D01*
X202006000Y-79333566D01*
X202004264Y-79368895D01*
X201999074Y-79403883D01*
X201990480Y-79438194D01*
X201978564Y-79471498D01*
X201963440Y-79503473D01*
X201945256Y-79533812D01*
X201924185Y-79562223D01*
X201900431Y-79588431D01*
X201874223Y-79612185D01*
X201845812Y-79633256D01*
X201815473Y-79651440D01*
X201783498Y-79666564D01*
X201750194Y-79678480D01*
X201715883Y-79687074D01*
X201680895Y-79692264D01*
X201645566Y-79694000D01*
X200708434Y-79694000D01*
X200673105Y-79692264D01*
X200638117Y-79687074D01*
X200603806Y-79678480D01*
X200570502Y-79666564D01*
X200538527Y-79651440D01*
X200508188Y-79633256D01*
X200479777Y-79612185D01*
X200453569Y-79588431D01*
X200429815Y-79562223D01*
X200408744Y-79533812D01*
X200390560Y-79503473D01*
X200375436Y-79471498D01*
X200363520Y-79438194D01*
X200354926Y-79403883D01*
X200349736Y-79368895D01*
X200348000Y-79333566D01*
X200348000Y-78146434D01*
X200349736Y-78111105D01*
X200354926Y-78076117D01*
X200363520Y-78041806D01*
X200375436Y-78008502D01*
X200390560Y-77976527D01*
X200408744Y-77946188D01*
X200429815Y-77917777D01*
X200453569Y-77891569D01*
X200479777Y-77867815D01*
X200508188Y-77846744D01*
X200538527Y-77828560D01*
X200570502Y-77813436D01*
X200603806Y-77801520D01*
X200638117Y-77792926D01*
X200673105Y-77787736D01*
X200708434Y-77786000D01*
X201645566Y-77786000D01*
X201680895Y-77787736D01*
X201680895Y-77787736D01*
G37*
D14*
X201177000Y-78740000D03*
D13*
G36*
X199605495Y-70167736D02*
G01*
X199640483Y-70172926D01*
X199674794Y-70181520D01*
X199708098Y-70193436D01*
X199740073Y-70208560D01*
X199770412Y-70226744D01*
X199798823Y-70247815D01*
X199825031Y-70271569D01*
X199848785Y-70297777D01*
X199869856Y-70326188D01*
X199888040Y-70356527D01*
X199903164Y-70388502D01*
X199915080Y-70421806D01*
X199923674Y-70456117D01*
X199928864Y-70491105D01*
X199930600Y-70526434D01*
X199930600Y-71713566D01*
X199928864Y-71748895D01*
X199923674Y-71783883D01*
X199915080Y-71818194D01*
X199903164Y-71851498D01*
X199888040Y-71883473D01*
X199869856Y-71913812D01*
X199848785Y-71942223D01*
X199825031Y-71968431D01*
X199798823Y-71992185D01*
X199770412Y-72013256D01*
X199740073Y-72031440D01*
X199708098Y-72046564D01*
X199674794Y-72058480D01*
X199640483Y-72067074D01*
X199605495Y-72072264D01*
X199570166Y-72074000D01*
X198633034Y-72074000D01*
X198597705Y-72072264D01*
X198562717Y-72067074D01*
X198528406Y-72058480D01*
X198495102Y-72046564D01*
X198463127Y-72031440D01*
X198432788Y-72013256D01*
X198404377Y-71992185D01*
X198378169Y-71968431D01*
X198354415Y-71942223D01*
X198333344Y-71913812D01*
X198315160Y-71883473D01*
X198300036Y-71851498D01*
X198288120Y-71818194D01*
X198279526Y-71783883D01*
X198274336Y-71748895D01*
X198272600Y-71713566D01*
X198272600Y-70526434D01*
X198274336Y-70491105D01*
X198279526Y-70456117D01*
X198288120Y-70421806D01*
X198300036Y-70388502D01*
X198315160Y-70356527D01*
X198333344Y-70326188D01*
X198354415Y-70297777D01*
X198378169Y-70271569D01*
X198404377Y-70247815D01*
X198432788Y-70226744D01*
X198463127Y-70208560D01*
X198495102Y-70193436D01*
X198528406Y-70181520D01*
X198562717Y-70172926D01*
X198597705Y-70167736D01*
X198633034Y-70166000D01*
X199570166Y-70166000D01*
X199605495Y-70167736D01*
X199605495Y-70167736D01*
G37*
D14*
X199101600Y-71120000D03*
D13*
G36*
X201655495Y-70167736D02*
G01*
X201690483Y-70172926D01*
X201724794Y-70181520D01*
X201758098Y-70193436D01*
X201790073Y-70208560D01*
X201820412Y-70226744D01*
X201848823Y-70247815D01*
X201875031Y-70271569D01*
X201898785Y-70297777D01*
X201919856Y-70326188D01*
X201938040Y-70356527D01*
X201953164Y-70388502D01*
X201965080Y-70421806D01*
X201973674Y-70456117D01*
X201978864Y-70491105D01*
X201980600Y-70526434D01*
X201980600Y-71713566D01*
X201978864Y-71748895D01*
X201973674Y-71783883D01*
X201965080Y-71818194D01*
X201953164Y-71851498D01*
X201938040Y-71883473D01*
X201919856Y-71913812D01*
X201898785Y-71942223D01*
X201875031Y-71968431D01*
X201848823Y-71992185D01*
X201820412Y-72013256D01*
X201790073Y-72031440D01*
X201758098Y-72046564D01*
X201724794Y-72058480D01*
X201690483Y-72067074D01*
X201655495Y-72072264D01*
X201620166Y-72074000D01*
X200683034Y-72074000D01*
X200647705Y-72072264D01*
X200612717Y-72067074D01*
X200578406Y-72058480D01*
X200545102Y-72046564D01*
X200513127Y-72031440D01*
X200482788Y-72013256D01*
X200454377Y-71992185D01*
X200428169Y-71968431D01*
X200404415Y-71942223D01*
X200383344Y-71913812D01*
X200365160Y-71883473D01*
X200350036Y-71851498D01*
X200338120Y-71818194D01*
X200329526Y-71783883D01*
X200324336Y-71748895D01*
X200322600Y-71713566D01*
X200322600Y-70526434D01*
X200324336Y-70491105D01*
X200329526Y-70456117D01*
X200338120Y-70421806D01*
X200350036Y-70388502D01*
X200365160Y-70356527D01*
X200383344Y-70326188D01*
X200404415Y-70297777D01*
X200428169Y-70271569D01*
X200454377Y-70247815D01*
X200482788Y-70226744D01*
X200513127Y-70208560D01*
X200545102Y-70193436D01*
X200578406Y-70181520D01*
X200612717Y-70172926D01*
X200647705Y-70167736D01*
X200683034Y-70166000D01*
X201620166Y-70166000D01*
X201655495Y-70167736D01*
X201655495Y-70167736D01*
G37*
D14*
X201151600Y-71120000D03*
D13*
G36*
X123042495Y-85941136D02*
G01*
X123077483Y-85946326D01*
X123111794Y-85954920D01*
X123145098Y-85966836D01*
X123177073Y-85981960D01*
X123207412Y-86000144D01*
X123235823Y-86021215D01*
X123262031Y-86044969D01*
X123285785Y-86071177D01*
X123306856Y-86099588D01*
X123325040Y-86129927D01*
X123340164Y-86161902D01*
X123352080Y-86195206D01*
X123360674Y-86229517D01*
X123365864Y-86264505D01*
X123367600Y-86299834D01*
X123367600Y-87486966D01*
X123365864Y-87522295D01*
X123360674Y-87557283D01*
X123352080Y-87591594D01*
X123340164Y-87624898D01*
X123325040Y-87656873D01*
X123306856Y-87687212D01*
X123285785Y-87715623D01*
X123262031Y-87741831D01*
X123235823Y-87765585D01*
X123207412Y-87786656D01*
X123177073Y-87804840D01*
X123145098Y-87819964D01*
X123111794Y-87831880D01*
X123077483Y-87840474D01*
X123042495Y-87845664D01*
X123007166Y-87847400D01*
X122070034Y-87847400D01*
X122034705Y-87845664D01*
X121999717Y-87840474D01*
X121965406Y-87831880D01*
X121932102Y-87819964D01*
X121900127Y-87804840D01*
X121869788Y-87786656D01*
X121841377Y-87765585D01*
X121815169Y-87741831D01*
X121791415Y-87715623D01*
X121770344Y-87687212D01*
X121752160Y-87656873D01*
X121737036Y-87624898D01*
X121725120Y-87591594D01*
X121716526Y-87557283D01*
X121711336Y-87522295D01*
X121709600Y-87486966D01*
X121709600Y-86299834D01*
X121711336Y-86264505D01*
X121716526Y-86229517D01*
X121725120Y-86195206D01*
X121737036Y-86161902D01*
X121752160Y-86129927D01*
X121770344Y-86099588D01*
X121791415Y-86071177D01*
X121815169Y-86044969D01*
X121841377Y-86021215D01*
X121869788Y-86000144D01*
X121900127Y-85981960D01*
X121932102Y-85966836D01*
X121965406Y-85954920D01*
X121999717Y-85946326D01*
X122034705Y-85941136D01*
X122070034Y-85939400D01*
X123007166Y-85939400D01*
X123042495Y-85941136D01*
X123042495Y-85941136D01*
G37*
D14*
X122538600Y-86893400D03*
D13*
G36*
X120992495Y-85941136D02*
G01*
X121027483Y-85946326D01*
X121061794Y-85954920D01*
X121095098Y-85966836D01*
X121127073Y-85981960D01*
X121157412Y-86000144D01*
X121185823Y-86021215D01*
X121212031Y-86044969D01*
X121235785Y-86071177D01*
X121256856Y-86099588D01*
X121275040Y-86129927D01*
X121290164Y-86161902D01*
X121302080Y-86195206D01*
X121310674Y-86229517D01*
X121315864Y-86264505D01*
X121317600Y-86299834D01*
X121317600Y-87486966D01*
X121315864Y-87522295D01*
X121310674Y-87557283D01*
X121302080Y-87591594D01*
X121290164Y-87624898D01*
X121275040Y-87656873D01*
X121256856Y-87687212D01*
X121235785Y-87715623D01*
X121212031Y-87741831D01*
X121185823Y-87765585D01*
X121157412Y-87786656D01*
X121127073Y-87804840D01*
X121095098Y-87819964D01*
X121061794Y-87831880D01*
X121027483Y-87840474D01*
X120992495Y-87845664D01*
X120957166Y-87847400D01*
X120020034Y-87847400D01*
X119984705Y-87845664D01*
X119949717Y-87840474D01*
X119915406Y-87831880D01*
X119882102Y-87819964D01*
X119850127Y-87804840D01*
X119819788Y-87786656D01*
X119791377Y-87765585D01*
X119765169Y-87741831D01*
X119741415Y-87715623D01*
X119720344Y-87687212D01*
X119702160Y-87656873D01*
X119687036Y-87624898D01*
X119675120Y-87591594D01*
X119666526Y-87557283D01*
X119661336Y-87522295D01*
X119659600Y-87486966D01*
X119659600Y-86299834D01*
X119661336Y-86264505D01*
X119666526Y-86229517D01*
X119675120Y-86195206D01*
X119687036Y-86161902D01*
X119702160Y-86129927D01*
X119720344Y-86099588D01*
X119741415Y-86071177D01*
X119765169Y-86044969D01*
X119791377Y-86021215D01*
X119819788Y-86000144D01*
X119850127Y-85981960D01*
X119882102Y-85966836D01*
X119915406Y-85954920D01*
X119949717Y-85946326D01*
X119984705Y-85941136D01*
X120020034Y-85939400D01*
X120957166Y-85939400D01*
X120992495Y-85941136D01*
X120992495Y-85941136D01*
G37*
D14*
X120488600Y-86893400D03*
D13*
G36*
X123042495Y-91021136D02*
G01*
X123077483Y-91026326D01*
X123111794Y-91034920D01*
X123145098Y-91046836D01*
X123177073Y-91061960D01*
X123207412Y-91080144D01*
X123235823Y-91101215D01*
X123262031Y-91124969D01*
X123285785Y-91151177D01*
X123306856Y-91179588D01*
X123325040Y-91209927D01*
X123340164Y-91241902D01*
X123352080Y-91275206D01*
X123360674Y-91309517D01*
X123365864Y-91344505D01*
X123367600Y-91379834D01*
X123367600Y-92566966D01*
X123365864Y-92602295D01*
X123360674Y-92637283D01*
X123352080Y-92671594D01*
X123340164Y-92704898D01*
X123325040Y-92736873D01*
X123306856Y-92767212D01*
X123285785Y-92795623D01*
X123262031Y-92821831D01*
X123235823Y-92845585D01*
X123207412Y-92866656D01*
X123177073Y-92884840D01*
X123145098Y-92899964D01*
X123111794Y-92911880D01*
X123077483Y-92920474D01*
X123042495Y-92925664D01*
X123007166Y-92927400D01*
X122070034Y-92927400D01*
X122034705Y-92925664D01*
X121999717Y-92920474D01*
X121965406Y-92911880D01*
X121932102Y-92899964D01*
X121900127Y-92884840D01*
X121869788Y-92866656D01*
X121841377Y-92845585D01*
X121815169Y-92821831D01*
X121791415Y-92795623D01*
X121770344Y-92767212D01*
X121752160Y-92736873D01*
X121737036Y-92704898D01*
X121725120Y-92671594D01*
X121716526Y-92637283D01*
X121711336Y-92602295D01*
X121709600Y-92566966D01*
X121709600Y-91379834D01*
X121711336Y-91344505D01*
X121716526Y-91309517D01*
X121725120Y-91275206D01*
X121737036Y-91241902D01*
X121752160Y-91209927D01*
X121770344Y-91179588D01*
X121791415Y-91151177D01*
X121815169Y-91124969D01*
X121841377Y-91101215D01*
X121869788Y-91080144D01*
X121900127Y-91061960D01*
X121932102Y-91046836D01*
X121965406Y-91034920D01*
X121999717Y-91026326D01*
X122034705Y-91021136D01*
X122070034Y-91019400D01*
X123007166Y-91019400D01*
X123042495Y-91021136D01*
X123042495Y-91021136D01*
G37*
D14*
X122538600Y-91973400D03*
D13*
G36*
X120992495Y-91021136D02*
G01*
X121027483Y-91026326D01*
X121061794Y-91034920D01*
X121095098Y-91046836D01*
X121127073Y-91061960D01*
X121157412Y-91080144D01*
X121185823Y-91101215D01*
X121212031Y-91124969D01*
X121235785Y-91151177D01*
X121256856Y-91179588D01*
X121275040Y-91209927D01*
X121290164Y-91241902D01*
X121302080Y-91275206D01*
X121310674Y-91309517D01*
X121315864Y-91344505D01*
X121317600Y-91379834D01*
X121317600Y-92566966D01*
X121315864Y-92602295D01*
X121310674Y-92637283D01*
X121302080Y-92671594D01*
X121290164Y-92704898D01*
X121275040Y-92736873D01*
X121256856Y-92767212D01*
X121235785Y-92795623D01*
X121212031Y-92821831D01*
X121185823Y-92845585D01*
X121157412Y-92866656D01*
X121127073Y-92884840D01*
X121095098Y-92899964D01*
X121061794Y-92911880D01*
X121027483Y-92920474D01*
X120992495Y-92925664D01*
X120957166Y-92927400D01*
X120020034Y-92927400D01*
X119984705Y-92925664D01*
X119949717Y-92920474D01*
X119915406Y-92911880D01*
X119882102Y-92899964D01*
X119850127Y-92884840D01*
X119819788Y-92866656D01*
X119791377Y-92845585D01*
X119765169Y-92821831D01*
X119741415Y-92795623D01*
X119720344Y-92767212D01*
X119702160Y-92736873D01*
X119687036Y-92704898D01*
X119675120Y-92671594D01*
X119666526Y-92637283D01*
X119661336Y-92602295D01*
X119659600Y-92566966D01*
X119659600Y-91379834D01*
X119661336Y-91344505D01*
X119666526Y-91309517D01*
X119675120Y-91275206D01*
X119687036Y-91241902D01*
X119702160Y-91209927D01*
X119720344Y-91179588D01*
X119741415Y-91151177D01*
X119765169Y-91124969D01*
X119791377Y-91101215D01*
X119819788Y-91080144D01*
X119850127Y-91061960D01*
X119882102Y-91046836D01*
X119915406Y-91034920D01*
X119949717Y-91026326D01*
X119984705Y-91021136D01*
X120020034Y-91019400D01*
X120957166Y-91019400D01*
X120992495Y-91021136D01*
X120992495Y-91021136D01*
G37*
D14*
X120488600Y-91973400D03*
D13*
G36*
X120992495Y-96101136D02*
G01*
X121027483Y-96106326D01*
X121061794Y-96114920D01*
X121095098Y-96126836D01*
X121127073Y-96141960D01*
X121157412Y-96160144D01*
X121185823Y-96181215D01*
X121212031Y-96204969D01*
X121235785Y-96231177D01*
X121256856Y-96259588D01*
X121275040Y-96289927D01*
X121290164Y-96321902D01*
X121302080Y-96355206D01*
X121310674Y-96389517D01*
X121315864Y-96424505D01*
X121317600Y-96459834D01*
X121317600Y-97646966D01*
X121315864Y-97682295D01*
X121310674Y-97717283D01*
X121302080Y-97751594D01*
X121290164Y-97784898D01*
X121275040Y-97816873D01*
X121256856Y-97847212D01*
X121235785Y-97875623D01*
X121212031Y-97901831D01*
X121185823Y-97925585D01*
X121157412Y-97946656D01*
X121127073Y-97964840D01*
X121095098Y-97979964D01*
X121061794Y-97991880D01*
X121027483Y-98000474D01*
X120992495Y-98005664D01*
X120957166Y-98007400D01*
X120020034Y-98007400D01*
X119984705Y-98005664D01*
X119949717Y-98000474D01*
X119915406Y-97991880D01*
X119882102Y-97979964D01*
X119850127Y-97964840D01*
X119819788Y-97946656D01*
X119791377Y-97925585D01*
X119765169Y-97901831D01*
X119741415Y-97875623D01*
X119720344Y-97847212D01*
X119702160Y-97816873D01*
X119687036Y-97784898D01*
X119675120Y-97751594D01*
X119666526Y-97717283D01*
X119661336Y-97682295D01*
X119659600Y-97646966D01*
X119659600Y-96459834D01*
X119661336Y-96424505D01*
X119666526Y-96389517D01*
X119675120Y-96355206D01*
X119687036Y-96321902D01*
X119702160Y-96289927D01*
X119720344Y-96259588D01*
X119741415Y-96231177D01*
X119765169Y-96204969D01*
X119791377Y-96181215D01*
X119819788Y-96160144D01*
X119850127Y-96141960D01*
X119882102Y-96126836D01*
X119915406Y-96114920D01*
X119949717Y-96106326D01*
X119984705Y-96101136D01*
X120020034Y-96099400D01*
X120957166Y-96099400D01*
X120992495Y-96101136D01*
X120992495Y-96101136D01*
G37*
D14*
X120488600Y-97053400D03*
D13*
G36*
X123042495Y-96101136D02*
G01*
X123077483Y-96106326D01*
X123111794Y-96114920D01*
X123145098Y-96126836D01*
X123177073Y-96141960D01*
X123207412Y-96160144D01*
X123235823Y-96181215D01*
X123262031Y-96204969D01*
X123285785Y-96231177D01*
X123306856Y-96259588D01*
X123325040Y-96289927D01*
X123340164Y-96321902D01*
X123352080Y-96355206D01*
X123360674Y-96389517D01*
X123365864Y-96424505D01*
X123367600Y-96459834D01*
X123367600Y-97646966D01*
X123365864Y-97682295D01*
X123360674Y-97717283D01*
X123352080Y-97751594D01*
X123340164Y-97784898D01*
X123325040Y-97816873D01*
X123306856Y-97847212D01*
X123285785Y-97875623D01*
X123262031Y-97901831D01*
X123235823Y-97925585D01*
X123207412Y-97946656D01*
X123177073Y-97964840D01*
X123145098Y-97979964D01*
X123111794Y-97991880D01*
X123077483Y-98000474D01*
X123042495Y-98005664D01*
X123007166Y-98007400D01*
X122070034Y-98007400D01*
X122034705Y-98005664D01*
X121999717Y-98000474D01*
X121965406Y-97991880D01*
X121932102Y-97979964D01*
X121900127Y-97964840D01*
X121869788Y-97946656D01*
X121841377Y-97925585D01*
X121815169Y-97901831D01*
X121791415Y-97875623D01*
X121770344Y-97847212D01*
X121752160Y-97816873D01*
X121737036Y-97784898D01*
X121725120Y-97751594D01*
X121716526Y-97717283D01*
X121711336Y-97682295D01*
X121709600Y-97646966D01*
X121709600Y-96459834D01*
X121711336Y-96424505D01*
X121716526Y-96389517D01*
X121725120Y-96355206D01*
X121737036Y-96321902D01*
X121752160Y-96289927D01*
X121770344Y-96259588D01*
X121791415Y-96231177D01*
X121815169Y-96204969D01*
X121841377Y-96181215D01*
X121869788Y-96160144D01*
X121900127Y-96141960D01*
X121932102Y-96126836D01*
X121965406Y-96114920D01*
X121999717Y-96106326D01*
X122034705Y-96101136D01*
X122070034Y-96099400D01*
X123007166Y-96099400D01*
X123042495Y-96101136D01*
X123042495Y-96101136D01*
G37*
D14*
X122538600Y-97053400D03*
D13*
G36*
X123144095Y-101181136D02*
G01*
X123179083Y-101186326D01*
X123213394Y-101194920D01*
X123246698Y-101206836D01*
X123278673Y-101221960D01*
X123309012Y-101240144D01*
X123337423Y-101261215D01*
X123363631Y-101284969D01*
X123387385Y-101311177D01*
X123408456Y-101339588D01*
X123426640Y-101369927D01*
X123441764Y-101401902D01*
X123453680Y-101435206D01*
X123462274Y-101469517D01*
X123467464Y-101504505D01*
X123469200Y-101539834D01*
X123469200Y-102726966D01*
X123467464Y-102762295D01*
X123462274Y-102797283D01*
X123453680Y-102831594D01*
X123441764Y-102864898D01*
X123426640Y-102896873D01*
X123408456Y-102927212D01*
X123387385Y-102955623D01*
X123363631Y-102981831D01*
X123337423Y-103005585D01*
X123309012Y-103026656D01*
X123278673Y-103044840D01*
X123246698Y-103059964D01*
X123213394Y-103071880D01*
X123179083Y-103080474D01*
X123144095Y-103085664D01*
X123108766Y-103087400D01*
X122171634Y-103087400D01*
X122136305Y-103085664D01*
X122101317Y-103080474D01*
X122067006Y-103071880D01*
X122033702Y-103059964D01*
X122001727Y-103044840D01*
X121971388Y-103026656D01*
X121942977Y-103005585D01*
X121916769Y-102981831D01*
X121893015Y-102955623D01*
X121871944Y-102927212D01*
X121853760Y-102896873D01*
X121838636Y-102864898D01*
X121826720Y-102831594D01*
X121818126Y-102797283D01*
X121812936Y-102762295D01*
X121811200Y-102726966D01*
X121811200Y-101539834D01*
X121812936Y-101504505D01*
X121818126Y-101469517D01*
X121826720Y-101435206D01*
X121838636Y-101401902D01*
X121853760Y-101369927D01*
X121871944Y-101339588D01*
X121893015Y-101311177D01*
X121916769Y-101284969D01*
X121942977Y-101261215D01*
X121971388Y-101240144D01*
X122001727Y-101221960D01*
X122033702Y-101206836D01*
X122067006Y-101194920D01*
X122101317Y-101186326D01*
X122136305Y-101181136D01*
X122171634Y-101179400D01*
X123108766Y-101179400D01*
X123144095Y-101181136D01*
X123144095Y-101181136D01*
G37*
D14*
X122640200Y-102133400D03*
D13*
G36*
X121094095Y-101181136D02*
G01*
X121129083Y-101186326D01*
X121163394Y-101194920D01*
X121196698Y-101206836D01*
X121228673Y-101221960D01*
X121259012Y-101240144D01*
X121287423Y-101261215D01*
X121313631Y-101284969D01*
X121337385Y-101311177D01*
X121358456Y-101339588D01*
X121376640Y-101369927D01*
X121391764Y-101401902D01*
X121403680Y-101435206D01*
X121412274Y-101469517D01*
X121417464Y-101504505D01*
X121419200Y-101539834D01*
X121419200Y-102726966D01*
X121417464Y-102762295D01*
X121412274Y-102797283D01*
X121403680Y-102831594D01*
X121391764Y-102864898D01*
X121376640Y-102896873D01*
X121358456Y-102927212D01*
X121337385Y-102955623D01*
X121313631Y-102981831D01*
X121287423Y-103005585D01*
X121259012Y-103026656D01*
X121228673Y-103044840D01*
X121196698Y-103059964D01*
X121163394Y-103071880D01*
X121129083Y-103080474D01*
X121094095Y-103085664D01*
X121058766Y-103087400D01*
X120121634Y-103087400D01*
X120086305Y-103085664D01*
X120051317Y-103080474D01*
X120017006Y-103071880D01*
X119983702Y-103059964D01*
X119951727Y-103044840D01*
X119921388Y-103026656D01*
X119892977Y-103005585D01*
X119866769Y-102981831D01*
X119843015Y-102955623D01*
X119821944Y-102927212D01*
X119803760Y-102896873D01*
X119788636Y-102864898D01*
X119776720Y-102831594D01*
X119768126Y-102797283D01*
X119762936Y-102762295D01*
X119761200Y-102726966D01*
X119761200Y-101539834D01*
X119762936Y-101504505D01*
X119768126Y-101469517D01*
X119776720Y-101435206D01*
X119788636Y-101401902D01*
X119803760Y-101369927D01*
X119821944Y-101339588D01*
X119843015Y-101311177D01*
X119866769Y-101284969D01*
X119892977Y-101261215D01*
X119921388Y-101240144D01*
X119951727Y-101221960D01*
X119983702Y-101206836D01*
X120017006Y-101194920D01*
X120051317Y-101186326D01*
X120086305Y-101181136D01*
X120121634Y-101179400D01*
X121058766Y-101179400D01*
X121094095Y-101181136D01*
X121094095Y-101181136D01*
G37*
D14*
X120590200Y-102133400D03*
D13*
G36*
X123105995Y-106261136D02*
G01*
X123140983Y-106266326D01*
X123175294Y-106274920D01*
X123208598Y-106286836D01*
X123240573Y-106301960D01*
X123270912Y-106320144D01*
X123299323Y-106341215D01*
X123325531Y-106364969D01*
X123349285Y-106391177D01*
X123370356Y-106419588D01*
X123388540Y-106449927D01*
X123403664Y-106481902D01*
X123415580Y-106515206D01*
X123424174Y-106549517D01*
X123429364Y-106584505D01*
X123431100Y-106619834D01*
X123431100Y-107806966D01*
X123429364Y-107842295D01*
X123424174Y-107877283D01*
X123415580Y-107911594D01*
X123403664Y-107944898D01*
X123388540Y-107976873D01*
X123370356Y-108007212D01*
X123349285Y-108035623D01*
X123325531Y-108061831D01*
X123299323Y-108085585D01*
X123270912Y-108106656D01*
X123240573Y-108124840D01*
X123208598Y-108139964D01*
X123175294Y-108151880D01*
X123140983Y-108160474D01*
X123105995Y-108165664D01*
X123070666Y-108167400D01*
X122133534Y-108167400D01*
X122098205Y-108165664D01*
X122063217Y-108160474D01*
X122028906Y-108151880D01*
X121995602Y-108139964D01*
X121963627Y-108124840D01*
X121933288Y-108106656D01*
X121904877Y-108085585D01*
X121878669Y-108061831D01*
X121854915Y-108035623D01*
X121833844Y-108007212D01*
X121815660Y-107976873D01*
X121800536Y-107944898D01*
X121788620Y-107911594D01*
X121780026Y-107877283D01*
X121774836Y-107842295D01*
X121773100Y-107806966D01*
X121773100Y-106619834D01*
X121774836Y-106584505D01*
X121780026Y-106549517D01*
X121788620Y-106515206D01*
X121800536Y-106481902D01*
X121815660Y-106449927D01*
X121833844Y-106419588D01*
X121854915Y-106391177D01*
X121878669Y-106364969D01*
X121904877Y-106341215D01*
X121933288Y-106320144D01*
X121963627Y-106301960D01*
X121995602Y-106286836D01*
X122028906Y-106274920D01*
X122063217Y-106266326D01*
X122098205Y-106261136D01*
X122133534Y-106259400D01*
X123070666Y-106259400D01*
X123105995Y-106261136D01*
X123105995Y-106261136D01*
G37*
D14*
X122602100Y-107213400D03*
D13*
G36*
X121055995Y-106261136D02*
G01*
X121090983Y-106266326D01*
X121125294Y-106274920D01*
X121158598Y-106286836D01*
X121190573Y-106301960D01*
X121220912Y-106320144D01*
X121249323Y-106341215D01*
X121275531Y-106364969D01*
X121299285Y-106391177D01*
X121320356Y-106419588D01*
X121338540Y-106449927D01*
X121353664Y-106481902D01*
X121365580Y-106515206D01*
X121374174Y-106549517D01*
X121379364Y-106584505D01*
X121381100Y-106619834D01*
X121381100Y-107806966D01*
X121379364Y-107842295D01*
X121374174Y-107877283D01*
X121365580Y-107911594D01*
X121353664Y-107944898D01*
X121338540Y-107976873D01*
X121320356Y-108007212D01*
X121299285Y-108035623D01*
X121275531Y-108061831D01*
X121249323Y-108085585D01*
X121220912Y-108106656D01*
X121190573Y-108124840D01*
X121158598Y-108139964D01*
X121125294Y-108151880D01*
X121090983Y-108160474D01*
X121055995Y-108165664D01*
X121020666Y-108167400D01*
X120083534Y-108167400D01*
X120048205Y-108165664D01*
X120013217Y-108160474D01*
X119978906Y-108151880D01*
X119945602Y-108139964D01*
X119913627Y-108124840D01*
X119883288Y-108106656D01*
X119854877Y-108085585D01*
X119828669Y-108061831D01*
X119804915Y-108035623D01*
X119783844Y-108007212D01*
X119765660Y-107976873D01*
X119750536Y-107944898D01*
X119738620Y-107911594D01*
X119730026Y-107877283D01*
X119724836Y-107842295D01*
X119723100Y-107806966D01*
X119723100Y-106619834D01*
X119724836Y-106584505D01*
X119730026Y-106549517D01*
X119738620Y-106515206D01*
X119750536Y-106481902D01*
X119765660Y-106449927D01*
X119783844Y-106419588D01*
X119804915Y-106391177D01*
X119828669Y-106364969D01*
X119854877Y-106341215D01*
X119883288Y-106320144D01*
X119913627Y-106301960D01*
X119945602Y-106286836D01*
X119978906Y-106274920D01*
X120013217Y-106266326D01*
X120048205Y-106261136D01*
X120083534Y-106259400D01*
X121020666Y-106259400D01*
X121055995Y-106261136D01*
X121055995Y-106261136D01*
G37*
D14*
X120552100Y-107213400D03*
D13*
G36*
X123105995Y-111341136D02*
G01*
X123140983Y-111346326D01*
X123175294Y-111354920D01*
X123208598Y-111366836D01*
X123240573Y-111381960D01*
X123270912Y-111400144D01*
X123299323Y-111421215D01*
X123325531Y-111444969D01*
X123349285Y-111471177D01*
X123370356Y-111499588D01*
X123388540Y-111529927D01*
X123403664Y-111561902D01*
X123415580Y-111595206D01*
X123424174Y-111629517D01*
X123429364Y-111664505D01*
X123431100Y-111699834D01*
X123431100Y-112886966D01*
X123429364Y-112922295D01*
X123424174Y-112957283D01*
X123415580Y-112991594D01*
X123403664Y-113024898D01*
X123388540Y-113056873D01*
X123370356Y-113087212D01*
X123349285Y-113115623D01*
X123325531Y-113141831D01*
X123299323Y-113165585D01*
X123270912Y-113186656D01*
X123240573Y-113204840D01*
X123208598Y-113219964D01*
X123175294Y-113231880D01*
X123140983Y-113240474D01*
X123105995Y-113245664D01*
X123070666Y-113247400D01*
X122133534Y-113247400D01*
X122098205Y-113245664D01*
X122063217Y-113240474D01*
X122028906Y-113231880D01*
X121995602Y-113219964D01*
X121963627Y-113204840D01*
X121933288Y-113186656D01*
X121904877Y-113165585D01*
X121878669Y-113141831D01*
X121854915Y-113115623D01*
X121833844Y-113087212D01*
X121815660Y-113056873D01*
X121800536Y-113024898D01*
X121788620Y-112991594D01*
X121780026Y-112957283D01*
X121774836Y-112922295D01*
X121773100Y-112886966D01*
X121773100Y-111699834D01*
X121774836Y-111664505D01*
X121780026Y-111629517D01*
X121788620Y-111595206D01*
X121800536Y-111561902D01*
X121815660Y-111529927D01*
X121833844Y-111499588D01*
X121854915Y-111471177D01*
X121878669Y-111444969D01*
X121904877Y-111421215D01*
X121933288Y-111400144D01*
X121963627Y-111381960D01*
X121995602Y-111366836D01*
X122028906Y-111354920D01*
X122063217Y-111346326D01*
X122098205Y-111341136D01*
X122133534Y-111339400D01*
X123070666Y-111339400D01*
X123105995Y-111341136D01*
X123105995Y-111341136D01*
G37*
D14*
X122602100Y-112293400D03*
D13*
G36*
X121055995Y-111341136D02*
G01*
X121090983Y-111346326D01*
X121125294Y-111354920D01*
X121158598Y-111366836D01*
X121190573Y-111381960D01*
X121220912Y-111400144D01*
X121249323Y-111421215D01*
X121275531Y-111444969D01*
X121299285Y-111471177D01*
X121320356Y-111499588D01*
X121338540Y-111529927D01*
X121353664Y-111561902D01*
X121365580Y-111595206D01*
X121374174Y-111629517D01*
X121379364Y-111664505D01*
X121381100Y-111699834D01*
X121381100Y-112886966D01*
X121379364Y-112922295D01*
X121374174Y-112957283D01*
X121365580Y-112991594D01*
X121353664Y-113024898D01*
X121338540Y-113056873D01*
X121320356Y-113087212D01*
X121299285Y-113115623D01*
X121275531Y-113141831D01*
X121249323Y-113165585D01*
X121220912Y-113186656D01*
X121190573Y-113204840D01*
X121158598Y-113219964D01*
X121125294Y-113231880D01*
X121090983Y-113240474D01*
X121055995Y-113245664D01*
X121020666Y-113247400D01*
X120083534Y-113247400D01*
X120048205Y-113245664D01*
X120013217Y-113240474D01*
X119978906Y-113231880D01*
X119945602Y-113219964D01*
X119913627Y-113204840D01*
X119883288Y-113186656D01*
X119854877Y-113165585D01*
X119828669Y-113141831D01*
X119804915Y-113115623D01*
X119783844Y-113087212D01*
X119765660Y-113056873D01*
X119750536Y-113024898D01*
X119738620Y-112991594D01*
X119730026Y-112957283D01*
X119724836Y-112922295D01*
X119723100Y-112886966D01*
X119723100Y-111699834D01*
X119724836Y-111664505D01*
X119730026Y-111629517D01*
X119738620Y-111595206D01*
X119750536Y-111561902D01*
X119765660Y-111529927D01*
X119783844Y-111499588D01*
X119804915Y-111471177D01*
X119828669Y-111444969D01*
X119854877Y-111421215D01*
X119883288Y-111400144D01*
X119913627Y-111381960D01*
X119945602Y-111366836D01*
X119978906Y-111354920D01*
X120013217Y-111346326D01*
X120048205Y-111341136D01*
X120083534Y-111339400D01*
X121020666Y-111339400D01*
X121055995Y-111341136D01*
X121055995Y-111341136D01*
G37*
D14*
X120552100Y-112293400D03*
D13*
G36*
X123105995Y-116167136D02*
G01*
X123140983Y-116172326D01*
X123175294Y-116180920D01*
X123208598Y-116192836D01*
X123240573Y-116207960D01*
X123270912Y-116226144D01*
X123299323Y-116247215D01*
X123325531Y-116270969D01*
X123349285Y-116297177D01*
X123370356Y-116325588D01*
X123388540Y-116355927D01*
X123403664Y-116387902D01*
X123415580Y-116421206D01*
X123424174Y-116455517D01*
X123429364Y-116490505D01*
X123431100Y-116525834D01*
X123431100Y-117712966D01*
X123429364Y-117748295D01*
X123424174Y-117783283D01*
X123415580Y-117817594D01*
X123403664Y-117850898D01*
X123388540Y-117882873D01*
X123370356Y-117913212D01*
X123349285Y-117941623D01*
X123325531Y-117967831D01*
X123299323Y-117991585D01*
X123270912Y-118012656D01*
X123240573Y-118030840D01*
X123208598Y-118045964D01*
X123175294Y-118057880D01*
X123140983Y-118066474D01*
X123105995Y-118071664D01*
X123070666Y-118073400D01*
X122133534Y-118073400D01*
X122098205Y-118071664D01*
X122063217Y-118066474D01*
X122028906Y-118057880D01*
X121995602Y-118045964D01*
X121963627Y-118030840D01*
X121933288Y-118012656D01*
X121904877Y-117991585D01*
X121878669Y-117967831D01*
X121854915Y-117941623D01*
X121833844Y-117913212D01*
X121815660Y-117882873D01*
X121800536Y-117850898D01*
X121788620Y-117817594D01*
X121780026Y-117783283D01*
X121774836Y-117748295D01*
X121773100Y-117712966D01*
X121773100Y-116525834D01*
X121774836Y-116490505D01*
X121780026Y-116455517D01*
X121788620Y-116421206D01*
X121800536Y-116387902D01*
X121815660Y-116355927D01*
X121833844Y-116325588D01*
X121854915Y-116297177D01*
X121878669Y-116270969D01*
X121904877Y-116247215D01*
X121933288Y-116226144D01*
X121963627Y-116207960D01*
X121995602Y-116192836D01*
X122028906Y-116180920D01*
X122063217Y-116172326D01*
X122098205Y-116167136D01*
X122133534Y-116165400D01*
X123070666Y-116165400D01*
X123105995Y-116167136D01*
X123105995Y-116167136D01*
G37*
D14*
X122602100Y-117119400D03*
D13*
G36*
X121055995Y-116167136D02*
G01*
X121090983Y-116172326D01*
X121125294Y-116180920D01*
X121158598Y-116192836D01*
X121190573Y-116207960D01*
X121220912Y-116226144D01*
X121249323Y-116247215D01*
X121275531Y-116270969D01*
X121299285Y-116297177D01*
X121320356Y-116325588D01*
X121338540Y-116355927D01*
X121353664Y-116387902D01*
X121365580Y-116421206D01*
X121374174Y-116455517D01*
X121379364Y-116490505D01*
X121381100Y-116525834D01*
X121381100Y-117712966D01*
X121379364Y-117748295D01*
X121374174Y-117783283D01*
X121365580Y-117817594D01*
X121353664Y-117850898D01*
X121338540Y-117882873D01*
X121320356Y-117913212D01*
X121299285Y-117941623D01*
X121275531Y-117967831D01*
X121249323Y-117991585D01*
X121220912Y-118012656D01*
X121190573Y-118030840D01*
X121158598Y-118045964D01*
X121125294Y-118057880D01*
X121090983Y-118066474D01*
X121055995Y-118071664D01*
X121020666Y-118073400D01*
X120083534Y-118073400D01*
X120048205Y-118071664D01*
X120013217Y-118066474D01*
X119978906Y-118057880D01*
X119945602Y-118045964D01*
X119913627Y-118030840D01*
X119883288Y-118012656D01*
X119854877Y-117991585D01*
X119828669Y-117967831D01*
X119804915Y-117941623D01*
X119783844Y-117913212D01*
X119765660Y-117882873D01*
X119750536Y-117850898D01*
X119738620Y-117817594D01*
X119730026Y-117783283D01*
X119724836Y-117748295D01*
X119723100Y-117712966D01*
X119723100Y-116525834D01*
X119724836Y-116490505D01*
X119730026Y-116455517D01*
X119738620Y-116421206D01*
X119750536Y-116387902D01*
X119765660Y-116355927D01*
X119783844Y-116325588D01*
X119804915Y-116297177D01*
X119828669Y-116270969D01*
X119854877Y-116247215D01*
X119883288Y-116226144D01*
X119913627Y-116207960D01*
X119945602Y-116192836D01*
X119978906Y-116180920D01*
X120013217Y-116172326D01*
X120048205Y-116167136D01*
X120083534Y-116165400D01*
X121020666Y-116165400D01*
X121055995Y-116167136D01*
X121055995Y-116167136D01*
G37*
D14*
X120552100Y-117119400D03*
D13*
G36*
X217671895Y-62917736D02*
G01*
X217706883Y-62922926D01*
X217741194Y-62931520D01*
X217774498Y-62943436D01*
X217806473Y-62958560D01*
X217836812Y-62976744D01*
X217865223Y-62997815D01*
X217891431Y-63021569D01*
X217915185Y-63047777D01*
X217936256Y-63076188D01*
X217954440Y-63106527D01*
X217969564Y-63138502D01*
X217981480Y-63171806D01*
X217990074Y-63206117D01*
X217995264Y-63241105D01*
X217997000Y-63276434D01*
X217997000Y-64213566D01*
X217995264Y-64248895D01*
X217990074Y-64283883D01*
X217981480Y-64318194D01*
X217969564Y-64351498D01*
X217954440Y-64383473D01*
X217936256Y-64413812D01*
X217915185Y-64442223D01*
X217891431Y-64468431D01*
X217865223Y-64492185D01*
X217836812Y-64513256D01*
X217806473Y-64531440D01*
X217774498Y-64546564D01*
X217741194Y-64558480D01*
X217706883Y-64567074D01*
X217671895Y-64572264D01*
X217636566Y-64574000D01*
X216449434Y-64574000D01*
X216414105Y-64572264D01*
X216379117Y-64567074D01*
X216344806Y-64558480D01*
X216311502Y-64546564D01*
X216279527Y-64531440D01*
X216249188Y-64513256D01*
X216220777Y-64492185D01*
X216194569Y-64468431D01*
X216170815Y-64442223D01*
X216149744Y-64413812D01*
X216131560Y-64383473D01*
X216116436Y-64351498D01*
X216104520Y-64318194D01*
X216095926Y-64283883D01*
X216090736Y-64248895D01*
X216089000Y-64213566D01*
X216089000Y-63276434D01*
X216090736Y-63241105D01*
X216095926Y-63206117D01*
X216104520Y-63171806D01*
X216116436Y-63138502D01*
X216131560Y-63106527D01*
X216149744Y-63076188D01*
X216170815Y-63047777D01*
X216194569Y-63021569D01*
X216220777Y-62997815D01*
X216249188Y-62976744D01*
X216279527Y-62958560D01*
X216311502Y-62943436D01*
X216344806Y-62931520D01*
X216379117Y-62922926D01*
X216414105Y-62917736D01*
X216449434Y-62916000D01*
X217636566Y-62916000D01*
X217671895Y-62917736D01*
X217671895Y-62917736D01*
G37*
D14*
X217043000Y-63745000D03*
D13*
G36*
X217671895Y-64967736D02*
G01*
X217706883Y-64972926D01*
X217741194Y-64981520D01*
X217774498Y-64993436D01*
X217806473Y-65008560D01*
X217836812Y-65026744D01*
X217865223Y-65047815D01*
X217891431Y-65071569D01*
X217915185Y-65097777D01*
X217936256Y-65126188D01*
X217954440Y-65156527D01*
X217969564Y-65188502D01*
X217981480Y-65221806D01*
X217990074Y-65256117D01*
X217995264Y-65291105D01*
X217997000Y-65326434D01*
X217997000Y-66263566D01*
X217995264Y-66298895D01*
X217990074Y-66333883D01*
X217981480Y-66368194D01*
X217969564Y-66401498D01*
X217954440Y-66433473D01*
X217936256Y-66463812D01*
X217915185Y-66492223D01*
X217891431Y-66518431D01*
X217865223Y-66542185D01*
X217836812Y-66563256D01*
X217806473Y-66581440D01*
X217774498Y-66596564D01*
X217741194Y-66608480D01*
X217706883Y-66617074D01*
X217671895Y-66622264D01*
X217636566Y-66624000D01*
X216449434Y-66624000D01*
X216414105Y-66622264D01*
X216379117Y-66617074D01*
X216344806Y-66608480D01*
X216311502Y-66596564D01*
X216279527Y-66581440D01*
X216249188Y-66563256D01*
X216220777Y-66542185D01*
X216194569Y-66518431D01*
X216170815Y-66492223D01*
X216149744Y-66463812D01*
X216131560Y-66433473D01*
X216116436Y-66401498D01*
X216104520Y-66368194D01*
X216095926Y-66333883D01*
X216090736Y-66298895D01*
X216089000Y-66263566D01*
X216089000Y-65326434D01*
X216090736Y-65291105D01*
X216095926Y-65256117D01*
X216104520Y-65221806D01*
X216116436Y-65188502D01*
X216131560Y-65156527D01*
X216149744Y-65126188D01*
X216170815Y-65097777D01*
X216194569Y-65071569D01*
X216220777Y-65047815D01*
X216249188Y-65026744D01*
X216279527Y-65008560D01*
X216311502Y-64993436D01*
X216344806Y-64981520D01*
X216379117Y-64972926D01*
X216414105Y-64967736D01*
X216449434Y-64966000D01*
X217636566Y-64966000D01*
X217671895Y-64967736D01*
X217671895Y-64967736D01*
G37*
D14*
X217043000Y-65795000D03*
D13*
G36*
X217671895Y-80207736D02*
G01*
X217706883Y-80212926D01*
X217741194Y-80221520D01*
X217774498Y-80233436D01*
X217806473Y-80248560D01*
X217836812Y-80266744D01*
X217865223Y-80287815D01*
X217891431Y-80311569D01*
X217915185Y-80337777D01*
X217936256Y-80366188D01*
X217954440Y-80396527D01*
X217969564Y-80428502D01*
X217981480Y-80461806D01*
X217990074Y-80496117D01*
X217995264Y-80531105D01*
X217997000Y-80566434D01*
X217997000Y-81503566D01*
X217995264Y-81538895D01*
X217990074Y-81573883D01*
X217981480Y-81608194D01*
X217969564Y-81641498D01*
X217954440Y-81673473D01*
X217936256Y-81703812D01*
X217915185Y-81732223D01*
X217891431Y-81758431D01*
X217865223Y-81782185D01*
X217836812Y-81803256D01*
X217806473Y-81821440D01*
X217774498Y-81836564D01*
X217741194Y-81848480D01*
X217706883Y-81857074D01*
X217671895Y-81862264D01*
X217636566Y-81864000D01*
X216449434Y-81864000D01*
X216414105Y-81862264D01*
X216379117Y-81857074D01*
X216344806Y-81848480D01*
X216311502Y-81836564D01*
X216279527Y-81821440D01*
X216249188Y-81803256D01*
X216220777Y-81782185D01*
X216194569Y-81758431D01*
X216170815Y-81732223D01*
X216149744Y-81703812D01*
X216131560Y-81673473D01*
X216116436Y-81641498D01*
X216104520Y-81608194D01*
X216095926Y-81573883D01*
X216090736Y-81538895D01*
X216089000Y-81503566D01*
X216089000Y-80566434D01*
X216090736Y-80531105D01*
X216095926Y-80496117D01*
X216104520Y-80461806D01*
X216116436Y-80428502D01*
X216131560Y-80396527D01*
X216149744Y-80366188D01*
X216170815Y-80337777D01*
X216194569Y-80311569D01*
X216220777Y-80287815D01*
X216249188Y-80266744D01*
X216279527Y-80248560D01*
X216311502Y-80233436D01*
X216344806Y-80221520D01*
X216379117Y-80212926D01*
X216414105Y-80207736D01*
X216449434Y-80206000D01*
X217636566Y-80206000D01*
X217671895Y-80207736D01*
X217671895Y-80207736D01*
G37*
D14*
X217043000Y-81035000D03*
D13*
G36*
X217671895Y-78157736D02*
G01*
X217706883Y-78162926D01*
X217741194Y-78171520D01*
X217774498Y-78183436D01*
X217806473Y-78198560D01*
X217836812Y-78216744D01*
X217865223Y-78237815D01*
X217891431Y-78261569D01*
X217915185Y-78287777D01*
X217936256Y-78316188D01*
X217954440Y-78346527D01*
X217969564Y-78378502D01*
X217981480Y-78411806D01*
X217990074Y-78446117D01*
X217995264Y-78481105D01*
X217997000Y-78516434D01*
X217997000Y-79453566D01*
X217995264Y-79488895D01*
X217990074Y-79523883D01*
X217981480Y-79558194D01*
X217969564Y-79591498D01*
X217954440Y-79623473D01*
X217936256Y-79653812D01*
X217915185Y-79682223D01*
X217891431Y-79708431D01*
X217865223Y-79732185D01*
X217836812Y-79753256D01*
X217806473Y-79771440D01*
X217774498Y-79786564D01*
X217741194Y-79798480D01*
X217706883Y-79807074D01*
X217671895Y-79812264D01*
X217636566Y-79814000D01*
X216449434Y-79814000D01*
X216414105Y-79812264D01*
X216379117Y-79807074D01*
X216344806Y-79798480D01*
X216311502Y-79786564D01*
X216279527Y-79771440D01*
X216249188Y-79753256D01*
X216220777Y-79732185D01*
X216194569Y-79708431D01*
X216170815Y-79682223D01*
X216149744Y-79653812D01*
X216131560Y-79623473D01*
X216116436Y-79591498D01*
X216104520Y-79558194D01*
X216095926Y-79523883D01*
X216090736Y-79488895D01*
X216089000Y-79453566D01*
X216089000Y-78516434D01*
X216090736Y-78481105D01*
X216095926Y-78446117D01*
X216104520Y-78411806D01*
X216116436Y-78378502D01*
X216131560Y-78346527D01*
X216149744Y-78316188D01*
X216170815Y-78287777D01*
X216194569Y-78261569D01*
X216220777Y-78237815D01*
X216249188Y-78216744D01*
X216279527Y-78198560D01*
X216311502Y-78183436D01*
X216344806Y-78171520D01*
X216379117Y-78162926D01*
X216414105Y-78157736D01*
X216449434Y-78156000D01*
X217636566Y-78156000D01*
X217671895Y-78157736D01*
X217671895Y-78157736D01*
G37*
D14*
X217043000Y-78985000D03*
D13*
G36*
X217671895Y-70537736D02*
G01*
X217706883Y-70542926D01*
X217741194Y-70551520D01*
X217774498Y-70563436D01*
X217806473Y-70578560D01*
X217836812Y-70596744D01*
X217865223Y-70617815D01*
X217891431Y-70641569D01*
X217915185Y-70667777D01*
X217936256Y-70696188D01*
X217954440Y-70726527D01*
X217969564Y-70758502D01*
X217981480Y-70791806D01*
X217990074Y-70826117D01*
X217995264Y-70861105D01*
X217997000Y-70896434D01*
X217997000Y-71833566D01*
X217995264Y-71868895D01*
X217990074Y-71903883D01*
X217981480Y-71938194D01*
X217969564Y-71971498D01*
X217954440Y-72003473D01*
X217936256Y-72033812D01*
X217915185Y-72062223D01*
X217891431Y-72088431D01*
X217865223Y-72112185D01*
X217836812Y-72133256D01*
X217806473Y-72151440D01*
X217774498Y-72166564D01*
X217741194Y-72178480D01*
X217706883Y-72187074D01*
X217671895Y-72192264D01*
X217636566Y-72194000D01*
X216449434Y-72194000D01*
X216414105Y-72192264D01*
X216379117Y-72187074D01*
X216344806Y-72178480D01*
X216311502Y-72166564D01*
X216279527Y-72151440D01*
X216249188Y-72133256D01*
X216220777Y-72112185D01*
X216194569Y-72088431D01*
X216170815Y-72062223D01*
X216149744Y-72033812D01*
X216131560Y-72003473D01*
X216116436Y-71971498D01*
X216104520Y-71938194D01*
X216095926Y-71903883D01*
X216090736Y-71868895D01*
X216089000Y-71833566D01*
X216089000Y-70896434D01*
X216090736Y-70861105D01*
X216095926Y-70826117D01*
X216104520Y-70791806D01*
X216116436Y-70758502D01*
X216131560Y-70726527D01*
X216149744Y-70696188D01*
X216170815Y-70667777D01*
X216194569Y-70641569D01*
X216220777Y-70617815D01*
X216249188Y-70596744D01*
X216279527Y-70578560D01*
X216311502Y-70563436D01*
X216344806Y-70551520D01*
X216379117Y-70542926D01*
X216414105Y-70537736D01*
X216449434Y-70536000D01*
X217636566Y-70536000D01*
X217671895Y-70537736D01*
X217671895Y-70537736D01*
G37*
D14*
X217043000Y-71365000D03*
D13*
G36*
X217671895Y-72587736D02*
G01*
X217706883Y-72592926D01*
X217741194Y-72601520D01*
X217774498Y-72613436D01*
X217806473Y-72628560D01*
X217836812Y-72646744D01*
X217865223Y-72667815D01*
X217891431Y-72691569D01*
X217915185Y-72717777D01*
X217936256Y-72746188D01*
X217954440Y-72776527D01*
X217969564Y-72808502D01*
X217981480Y-72841806D01*
X217990074Y-72876117D01*
X217995264Y-72911105D01*
X217997000Y-72946434D01*
X217997000Y-73883566D01*
X217995264Y-73918895D01*
X217990074Y-73953883D01*
X217981480Y-73988194D01*
X217969564Y-74021498D01*
X217954440Y-74053473D01*
X217936256Y-74083812D01*
X217915185Y-74112223D01*
X217891431Y-74138431D01*
X217865223Y-74162185D01*
X217836812Y-74183256D01*
X217806473Y-74201440D01*
X217774498Y-74216564D01*
X217741194Y-74228480D01*
X217706883Y-74237074D01*
X217671895Y-74242264D01*
X217636566Y-74244000D01*
X216449434Y-74244000D01*
X216414105Y-74242264D01*
X216379117Y-74237074D01*
X216344806Y-74228480D01*
X216311502Y-74216564D01*
X216279527Y-74201440D01*
X216249188Y-74183256D01*
X216220777Y-74162185D01*
X216194569Y-74138431D01*
X216170815Y-74112223D01*
X216149744Y-74083812D01*
X216131560Y-74053473D01*
X216116436Y-74021498D01*
X216104520Y-73988194D01*
X216095926Y-73953883D01*
X216090736Y-73918895D01*
X216089000Y-73883566D01*
X216089000Y-72946434D01*
X216090736Y-72911105D01*
X216095926Y-72876117D01*
X216104520Y-72841806D01*
X216116436Y-72808502D01*
X216131560Y-72776527D01*
X216149744Y-72746188D01*
X216170815Y-72717777D01*
X216194569Y-72691569D01*
X216220777Y-72667815D01*
X216249188Y-72646744D01*
X216279527Y-72628560D01*
X216311502Y-72613436D01*
X216344806Y-72601520D01*
X216379117Y-72592926D01*
X216414105Y-72587736D01*
X216449434Y-72586000D01*
X217636566Y-72586000D01*
X217671895Y-72587736D01*
X217671895Y-72587736D01*
G37*
D14*
X217043000Y-73415000D03*
D15*
X213360000Y-78740000D03*
D16*
X213360000Y-81280000D03*
X213360000Y-73660000D03*
D15*
X213360000Y-71120000D03*
X213360000Y-63500000D03*
D16*
X213360000Y-66040000D03*
D17*
X129159000Y-86868000D03*
D18*
X113919000Y-86868000D03*
X113919000Y-91998800D03*
D17*
X129159000Y-91998800D03*
X129159000Y-97028000D03*
D18*
X113919000Y-97028000D03*
X113919000Y-102108000D03*
D17*
X129159000Y-102108000D03*
X129159000Y-107188000D03*
D18*
X113919000Y-107188000D03*
X113919000Y-112268000D03*
D17*
X129159000Y-112268000D03*
X129159000Y-117094000D03*
D18*
X113919000Y-117094000D03*
X192532000Y-78740000D03*
D17*
X207772000Y-78740000D03*
X207772000Y-71120000D03*
D18*
X192532000Y-71120000D03*
X192532000Y-63500000D03*
D17*
X207772000Y-63500000D03*
D19*
X156857700Y-91694000D03*
X156857700Y-89154000D03*
X156921200Y-86614000D03*
D20*
X159397700Y-91694000D03*
D19*
X159397700Y-86614000D03*
X159397700Y-89154000D03*
X147828000Y-124968000D03*
X163068000Y-124968000D03*
X147828000Y-122428000D03*
X163068000Y-122428000D03*
X147828000Y-119888000D03*
X163068000Y-119888000D03*
X147828000Y-117348000D03*
X163068000Y-117348000D03*
X147828000Y-114808000D03*
X163068000Y-114808000D03*
X147828000Y-112268000D03*
X163068000Y-112268000D03*
X147828000Y-109728000D03*
X163068000Y-109728000D03*
X147828000Y-107188000D03*
X163068000Y-107188000D03*
X147828000Y-104648000D03*
X163068000Y-104648000D03*
X147828000Y-102108000D03*
X163068000Y-102108000D03*
X147828000Y-99568000D03*
X163068000Y-99568000D03*
X147828000Y-97028000D03*
X163068000Y-97028000D03*
X147828000Y-94488000D03*
X163068000Y-94488000D03*
X147828000Y-91948000D03*
X163068000Y-91948000D03*
X147828000Y-89408000D03*
X163068000Y-89408000D03*
X147828000Y-86868000D03*
X163068000Y-86868000D03*
X147828000Y-84328000D03*
X163068000Y-84328000D03*
X147828000Y-81788000D03*
X163068000Y-81788000D03*
X147828000Y-79248000D03*
X163068000Y-79248000D03*
D20*
X147828000Y-76708000D03*
D19*
X163068000Y-76708000D03*
X159258000Y-121158000D03*
X156718000Y-121158000D03*
X154178000Y-121158000D03*
D20*
X151638000Y-121158000D03*
D21*
X206705200Y-141020800D03*
X206705200Y-143560800D03*
X206705200Y-146100800D03*
X206705200Y-148640800D03*
D22*
X137160000Y-124968000D03*
X137160000Y-122428000D03*
X137160000Y-119888000D03*
X137160000Y-117348000D03*
X137160000Y-114808000D03*
X137160000Y-112268000D03*
X137160000Y-109728000D03*
X137160000Y-107188000D03*
X137160000Y-104648000D03*
X137160000Y-102108000D03*
X137160000Y-99568000D03*
X137160000Y-97028000D03*
X137160000Y-94488000D03*
X137160000Y-91948000D03*
X137160000Y-89408000D03*
X137160000Y-86868000D03*
X137160000Y-84328000D03*
X137160000Y-81788000D03*
X137160000Y-79248000D03*
D19*
X137160000Y-76708000D03*
D22*
X173736000Y-76682600D03*
X173736000Y-79222600D03*
X173736000Y-81762600D03*
X173736000Y-84302600D03*
X173736000Y-86842600D03*
X173736000Y-89382600D03*
X173736000Y-91922600D03*
X173736000Y-94462600D03*
X173736000Y-97002600D03*
X173736000Y-99542600D03*
X173736000Y-102082600D03*
X173736000Y-104622600D03*
X173736000Y-107162600D03*
X173736000Y-109702600D03*
X173736000Y-112242600D03*
X173736000Y-114782600D03*
X173736000Y-117322600D03*
X173736000Y-119862600D03*
X173736000Y-122402600D03*
D19*
X173736000Y-124942600D03*
D21*
X73660000Y-60960000D03*
X76200000Y-58420000D03*
X73660000Y-58420000D03*
X76200000Y-60960000D03*
D20*
X54102000Y-63398400D03*
D22*
X54102000Y-60858400D03*
X54102000Y-58318400D03*
X54102000Y-55778400D03*
X210312000Y-117449600D03*
X210312000Y-114909600D03*
D20*
X210312000Y-112369600D03*
D22*
X210413600Y-104140000D03*
X210413600Y-101600000D03*
D20*
X210413600Y-99060000D03*
X206756000Y-99060000D03*
D22*
X206756000Y-101600000D03*
D19*
X206756000Y-104140000D03*
D20*
X206756000Y-112369600D03*
D22*
X206756000Y-114909600D03*
D19*
X206756000Y-117449600D03*
D20*
X210362800Y-133959600D03*
D22*
X210362800Y-131419600D03*
X210362800Y-128879600D03*
D19*
X210362800Y-126339600D03*
D22*
X206705200Y-126339600D03*
X206705200Y-128879600D03*
X206705200Y-131419600D03*
D20*
X206705200Y-133959600D03*
D22*
X210439000Y-148653500D03*
X210439000Y-146113500D03*
X210439000Y-143573500D03*
D20*
X210439000Y-141033500D03*
D21*
X68580000Y-137210800D03*
X68580000Y-144830800D03*
X68580000Y-142290800D03*
X68580000Y-139750800D03*
X68580000Y-134670800D03*
X68580000Y-132130800D03*
X68580000Y-121970800D03*
X68580000Y-127050800D03*
X68580000Y-124510800D03*
X68580000Y-129590800D03*
X68580000Y-119430800D03*
X68580000Y-116890800D03*
X68580000Y-114350800D03*
X68580000Y-111810800D03*
X68580000Y-109270800D03*
X68580000Y-106730800D03*
X68580000Y-104190800D03*
D20*
X68681600Y-93497400D03*
D22*
X68681600Y-90957400D03*
X68681600Y-88417400D03*
X68681600Y-85877400D03*
D13*
G36*
X62847613Y-77604425D02*
G01*
X62944881Y-77618853D01*
X63040265Y-77642746D01*
X63132849Y-77675873D01*
X63221740Y-77717915D01*
X63306081Y-77768467D01*
X63385062Y-77827044D01*
X63457921Y-77893079D01*
X63523956Y-77965938D01*
X63582533Y-78044919D01*
X63633085Y-78129260D01*
X63675127Y-78218151D01*
X63708254Y-78310735D01*
X63732147Y-78406119D01*
X63746575Y-78503387D01*
X63751400Y-78601600D01*
X63751400Y-80605600D01*
X63746575Y-80703813D01*
X63732147Y-80801081D01*
X63708254Y-80896465D01*
X63675127Y-80989049D01*
X63633085Y-81077940D01*
X63582533Y-81162281D01*
X63523956Y-81241262D01*
X63457921Y-81314121D01*
X63385062Y-81380156D01*
X63306081Y-81438733D01*
X63221740Y-81489285D01*
X63132849Y-81531327D01*
X63040265Y-81564454D01*
X62944881Y-81588347D01*
X62847613Y-81602775D01*
X62749400Y-81607600D01*
X60745400Y-81607600D01*
X60647187Y-81602775D01*
X60549919Y-81588347D01*
X60454535Y-81564454D01*
X60361951Y-81531327D01*
X60273060Y-81489285D01*
X60188719Y-81438733D01*
X60109738Y-81380156D01*
X60036879Y-81314121D01*
X59970844Y-81241262D01*
X59912267Y-81162281D01*
X59861715Y-81077940D01*
X59819673Y-80989049D01*
X59786546Y-80896465D01*
X59762653Y-80801081D01*
X59748225Y-80703813D01*
X59743400Y-80605600D01*
X59743400Y-78601600D01*
X59748225Y-78503387D01*
X59762653Y-78406119D01*
X59786546Y-78310735D01*
X59819673Y-78218151D01*
X59861715Y-78129260D01*
X59912267Y-78044919D01*
X59970844Y-77965938D01*
X60036879Y-77893079D01*
X60109738Y-77827044D01*
X60188719Y-77768467D01*
X60273060Y-77717915D01*
X60361951Y-77675873D01*
X60454535Y-77642746D01*
X60549919Y-77618853D01*
X60647187Y-77604425D01*
X60745400Y-77599600D01*
X62749400Y-77599600D01*
X62847613Y-77604425D01*
X62847613Y-77604425D01*
G37*
D23*
X61747400Y-79603600D03*
D13*
G36*
X59710361Y-72903823D02*
G01*
X59795494Y-72916451D01*
X59878980Y-72937363D01*
X59960013Y-72966358D01*
X60037815Y-73003155D01*
X60111635Y-73047401D01*
X60180763Y-73098670D01*
X60244533Y-73156467D01*
X60302330Y-73220237D01*
X60353599Y-73289365D01*
X60397845Y-73363185D01*
X60434642Y-73440987D01*
X60463637Y-73522020D01*
X60484549Y-73605506D01*
X60497177Y-73690639D01*
X60501400Y-73776600D01*
X60501400Y-76030600D01*
X60497177Y-76116561D01*
X60484549Y-76201694D01*
X60463637Y-76285180D01*
X60434642Y-76366213D01*
X60397845Y-76444015D01*
X60353599Y-76517835D01*
X60302330Y-76586963D01*
X60244533Y-76650733D01*
X60180763Y-76708530D01*
X60111635Y-76759799D01*
X60037815Y-76804045D01*
X59960013Y-76840842D01*
X59878980Y-76869837D01*
X59795494Y-76890749D01*
X59710361Y-76903377D01*
X59624400Y-76907600D01*
X57870400Y-76907600D01*
X57784439Y-76903377D01*
X57699306Y-76890749D01*
X57615820Y-76869837D01*
X57534787Y-76840842D01*
X57456985Y-76804045D01*
X57383165Y-76759799D01*
X57314037Y-76708530D01*
X57250267Y-76650733D01*
X57192470Y-76586963D01*
X57141201Y-76517835D01*
X57096955Y-76444015D01*
X57060158Y-76366213D01*
X57031163Y-76285180D01*
X57010251Y-76201694D01*
X56997623Y-76116561D01*
X56993400Y-76030600D01*
X56993400Y-73776600D01*
X56997623Y-73690639D01*
X57010251Y-73605506D01*
X57031163Y-73522020D01*
X57060158Y-73440987D01*
X57096955Y-73363185D01*
X57141201Y-73289365D01*
X57192470Y-73220237D01*
X57250267Y-73156467D01*
X57314037Y-73098670D01*
X57383165Y-73047401D01*
X57456985Y-73003155D01*
X57534787Y-72966358D01*
X57615820Y-72937363D01*
X57699306Y-72916451D01*
X57784439Y-72903823D01*
X57870400Y-72899600D01*
X59624400Y-72899600D01*
X59710361Y-72903823D01*
X59710361Y-72903823D01*
G37*
D24*
X58747400Y-74903600D03*
D25*
X64747400Y-74903600D03*
D26*
X61264800Y-65684400D03*
X61264800Y-53644800D03*
D27*
X65989200Y-58420000D03*
X65989200Y-60909200D03*
X63982600Y-60909200D03*
X63982600Y-58420000D03*
D28*
X212130000Y-53269000D03*
X212130000Y-60269000D03*
D29*
X214630000Y-54494000D03*
X214630000Y-59044000D03*
D22*
X61518800Y-85877400D03*
X61518800Y-88417400D03*
X61518800Y-90957400D03*
D20*
X61518800Y-93497400D03*
D22*
X64033400Y-144830800D03*
X61493400Y-144830800D03*
X64033400Y-142290800D03*
X61493400Y-142290800D03*
X64033400Y-139750800D03*
X61493400Y-139750800D03*
X64033400Y-137210800D03*
X61493400Y-137210800D03*
X64033400Y-134670800D03*
X61493400Y-134670800D03*
X64033400Y-132130800D03*
X61493400Y-132130800D03*
X64033400Y-129590800D03*
X61493400Y-129590800D03*
X64033400Y-127050800D03*
X61493400Y-127050800D03*
X64033400Y-124510800D03*
X61493400Y-124510800D03*
X64033400Y-121970800D03*
X61493400Y-121970800D03*
X64033400Y-119430800D03*
X61493400Y-119430800D03*
X64033400Y-116890800D03*
X61493400Y-116890800D03*
X64033400Y-114350800D03*
X61493400Y-114350800D03*
X64033400Y-111810800D03*
X61493400Y-111810800D03*
X64033400Y-109270800D03*
X61493400Y-109270800D03*
X64033400Y-106730800D03*
X61493400Y-106730800D03*
X64033400Y-104190800D03*
D20*
X61493400Y-104190800D03*
D30*
X119999760Y-53964840D03*
X189999620Y-53964840D03*
X119999760Y-147965160D03*
X189999620Y-147965160D03*
M02*
