G04 #@! TF.GenerationSoftware,KiCad,Pcbnew,(5.1.2)-2*
G04 #@! TF.CreationDate,2020-12-20T10:42:53+00:00*
G04 #@! TF.ProjectId,Amiga 34-pin to Citizen Slim 26-pin Adapter (Design A),416d6967-6120-4333-942d-70696e20746f,rev?*
G04 #@! TF.SameCoordinates,Original*
G04 #@! TF.FileFunction,Legend,Bot*
G04 #@! TF.FilePolarity,Positive*
%FSLAX46Y46*%
G04 Gerber Fmt 4.6, Leading zero omitted, Abs format (unit mm)*
G04 Created by KiCad (PCBNEW (5.1.2)-2) date 2020-12-20 10:42:53*
%MOMM*%
%LPD*%
G04 APERTURE LIST*
%ADD10C,0.125000*%
G04 APERTURE END LIST*
D10*
X146945000Y-119570571D02*
X146909285Y-119499142D01*
X146909285Y-119392000D01*
X146945000Y-119284857D01*
X147016428Y-119213428D01*
X147087857Y-119177714D01*
X147230714Y-119142000D01*
X147337857Y-119142000D01*
X147480714Y-119177714D01*
X147552142Y-119213428D01*
X147623571Y-119284857D01*
X147659285Y-119392000D01*
X147659285Y-119463428D01*
X147623571Y-119570571D01*
X147587857Y-119606285D01*
X147337857Y-119606285D01*
X147337857Y-119463428D01*
X147659285Y-119927714D02*
X146909285Y-119927714D01*
X147659285Y-120356285D01*
X146909285Y-120356285D01*
X147659285Y-120713428D02*
X146909285Y-120713428D01*
X146909285Y-120892000D01*
X146945000Y-120999142D01*
X147016428Y-121070571D01*
X147087857Y-121106285D01*
X147230714Y-121142000D01*
X147337857Y-121142000D01*
X147480714Y-121106285D01*
X147552142Y-121070571D01*
X147623571Y-120999142D01*
X147659285Y-120892000D01*
X147659285Y-120713428D01*
X144405000Y-119570571D02*
X144369285Y-119499142D01*
X144369285Y-119392000D01*
X144405000Y-119284857D01*
X144476428Y-119213428D01*
X144547857Y-119177714D01*
X144690714Y-119142000D01*
X144797857Y-119142000D01*
X144940714Y-119177714D01*
X145012142Y-119213428D01*
X145083571Y-119284857D01*
X145119285Y-119392000D01*
X145119285Y-119463428D01*
X145083571Y-119570571D01*
X145047857Y-119606285D01*
X144797857Y-119606285D01*
X144797857Y-119463428D01*
X145119285Y-119927714D02*
X144369285Y-119927714D01*
X145119285Y-120356285D01*
X144369285Y-120356285D01*
X145119285Y-120713428D02*
X144369285Y-120713428D01*
X144369285Y-120892000D01*
X144405000Y-120999142D01*
X144476428Y-121070571D01*
X144547857Y-121106285D01*
X144690714Y-121142000D01*
X144797857Y-121142000D01*
X144940714Y-121106285D01*
X145012142Y-121070571D01*
X145083571Y-120999142D01*
X145119285Y-120892000D01*
X145119285Y-120713428D01*
X141865000Y-119570571D02*
X141829285Y-119499142D01*
X141829285Y-119392000D01*
X141865000Y-119284857D01*
X141936428Y-119213428D01*
X142007857Y-119177714D01*
X142150714Y-119142000D01*
X142257857Y-119142000D01*
X142400714Y-119177714D01*
X142472142Y-119213428D01*
X142543571Y-119284857D01*
X142579285Y-119392000D01*
X142579285Y-119463428D01*
X142543571Y-119570571D01*
X142507857Y-119606285D01*
X142257857Y-119606285D01*
X142257857Y-119463428D01*
X142579285Y-119927714D02*
X141829285Y-119927714D01*
X142579285Y-120356285D01*
X141829285Y-120356285D01*
X142579285Y-120713428D02*
X141829285Y-120713428D01*
X141829285Y-120892000D01*
X141865000Y-120999142D01*
X141936428Y-121070571D01*
X142007857Y-121106285D01*
X142150714Y-121142000D01*
X142257857Y-121142000D01*
X142400714Y-121106285D01*
X142472142Y-121070571D01*
X142543571Y-120999142D01*
X142579285Y-120892000D01*
X142579285Y-120713428D01*
X139325000Y-119570571D02*
X139289285Y-119499142D01*
X139289285Y-119392000D01*
X139325000Y-119284857D01*
X139396428Y-119213428D01*
X139467857Y-119177714D01*
X139610714Y-119142000D01*
X139717857Y-119142000D01*
X139860714Y-119177714D01*
X139932142Y-119213428D01*
X140003571Y-119284857D01*
X140039285Y-119392000D01*
X140039285Y-119463428D01*
X140003571Y-119570571D01*
X139967857Y-119606285D01*
X139717857Y-119606285D01*
X139717857Y-119463428D01*
X140039285Y-119927714D02*
X139289285Y-119927714D01*
X140039285Y-120356285D01*
X139289285Y-120356285D01*
X140039285Y-120713428D02*
X139289285Y-120713428D01*
X139289285Y-120892000D01*
X139325000Y-120999142D01*
X139396428Y-121070571D01*
X139467857Y-121106285D01*
X139610714Y-121142000D01*
X139717857Y-121142000D01*
X139860714Y-121106285D01*
X139932142Y-121070571D01*
X140003571Y-120999142D01*
X140039285Y-120892000D01*
X140039285Y-120713428D01*
X136785000Y-119570571D02*
X136749285Y-119499142D01*
X136749285Y-119392000D01*
X136785000Y-119284857D01*
X136856428Y-119213428D01*
X136927857Y-119177714D01*
X137070714Y-119142000D01*
X137177857Y-119142000D01*
X137320714Y-119177714D01*
X137392142Y-119213428D01*
X137463571Y-119284857D01*
X137499285Y-119392000D01*
X137499285Y-119463428D01*
X137463571Y-119570571D01*
X137427857Y-119606285D01*
X137177857Y-119606285D01*
X137177857Y-119463428D01*
X137499285Y-119927714D02*
X136749285Y-119927714D01*
X137499285Y-120356285D01*
X136749285Y-120356285D01*
X137499285Y-120713428D02*
X136749285Y-120713428D01*
X136749285Y-120892000D01*
X136785000Y-120999142D01*
X136856428Y-121070571D01*
X136927857Y-121106285D01*
X137070714Y-121142000D01*
X137177857Y-121142000D01*
X137320714Y-121106285D01*
X137392142Y-121070571D01*
X137463571Y-120999142D01*
X137499285Y-120892000D01*
X137499285Y-120713428D01*
X134245000Y-119570571D02*
X134209285Y-119499142D01*
X134209285Y-119392000D01*
X134245000Y-119284857D01*
X134316428Y-119213428D01*
X134387857Y-119177714D01*
X134530714Y-119142000D01*
X134637857Y-119142000D01*
X134780714Y-119177714D01*
X134852142Y-119213428D01*
X134923571Y-119284857D01*
X134959285Y-119392000D01*
X134959285Y-119463428D01*
X134923571Y-119570571D01*
X134887857Y-119606285D01*
X134637857Y-119606285D01*
X134637857Y-119463428D01*
X134959285Y-119927714D02*
X134209285Y-119927714D01*
X134959285Y-120356285D01*
X134209285Y-120356285D01*
X134959285Y-120713428D02*
X134209285Y-120713428D01*
X134209285Y-120892000D01*
X134245000Y-120999142D01*
X134316428Y-121070571D01*
X134387857Y-121106285D01*
X134530714Y-121142000D01*
X134637857Y-121142000D01*
X134780714Y-121106285D01*
X134852142Y-121070571D01*
X134923571Y-120999142D01*
X134959285Y-120892000D01*
X134959285Y-120713428D01*
X124049285Y-119094381D02*
X124799285Y-119344381D01*
X124049285Y-119594381D01*
X124727857Y-120272952D02*
X124763571Y-120237238D01*
X124799285Y-120130095D01*
X124799285Y-120058666D01*
X124763571Y-119951523D01*
X124692142Y-119880095D01*
X124620714Y-119844381D01*
X124477857Y-119808666D01*
X124370714Y-119808666D01*
X124227857Y-119844381D01*
X124156428Y-119880095D01*
X124085000Y-119951523D01*
X124049285Y-120058666D01*
X124049285Y-120130095D01*
X124085000Y-120237238D01*
X124120714Y-120272952D01*
X124727857Y-121022952D02*
X124763571Y-120987238D01*
X124799285Y-120880095D01*
X124799285Y-120808666D01*
X124763571Y-120701523D01*
X124692142Y-120630095D01*
X124620714Y-120594381D01*
X124477857Y-120558666D01*
X124370714Y-120558666D01*
X124227857Y-120594381D01*
X124156428Y-120630095D01*
X124085000Y-120701523D01*
X124049285Y-120808666D01*
X124049285Y-120880095D01*
X124085000Y-120987238D01*
X124120714Y-121022952D01*
X121509285Y-119094381D02*
X122259285Y-119344381D01*
X121509285Y-119594381D01*
X122187857Y-120272952D02*
X122223571Y-120237238D01*
X122259285Y-120130095D01*
X122259285Y-120058666D01*
X122223571Y-119951523D01*
X122152142Y-119880095D01*
X122080714Y-119844381D01*
X121937857Y-119808666D01*
X121830714Y-119808666D01*
X121687857Y-119844381D01*
X121616428Y-119880095D01*
X121545000Y-119951523D01*
X121509285Y-120058666D01*
X121509285Y-120130095D01*
X121545000Y-120237238D01*
X121580714Y-120272952D01*
X122187857Y-121022952D02*
X122223571Y-120987238D01*
X122259285Y-120880095D01*
X122259285Y-120808666D01*
X122223571Y-120701523D01*
X122152142Y-120630095D01*
X122080714Y-120594381D01*
X121937857Y-120558666D01*
X121830714Y-120558666D01*
X121687857Y-120594381D01*
X121616428Y-120630095D01*
X121545000Y-120701523D01*
X121509285Y-120808666D01*
X121509285Y-120880095D01*
X121545000Y-120987238D01*
X121580714Y-121022952D01*
X118969285Y-119094381D02*
X119719285Y-119344381D01*
X118969285Y-119594381D01*
X119647857Y-120272952D02*
X119683571Y-120237238D01*
X119719285Y-120130095D01*
X119719285Y-120058666D01*
X119683571Y-119951523D01*
X119612142Y-119880095D01*
X119540714Y-119844381D01*
X119397857Y-119808666D01*
X119290714Y-119808666D01*
X119147857Y-119844381D01*
X119076428Y-119880095D01*
X119005000Y-119951523D01*
X118969285Y-120058666D01*
X118969285Y-120130095D01*
X119005000Y-120237238D01*
X119040714Y-120272952D01*
X119647857Y-121022952D02*
X119683571Y-120987238D01*
X119719285Y-120880095D01*
X119719285Y-120808666D01*
X119683571Y-120701523D01*
X119612142Y-120630095D01*
X119540714Y-120594381D01*
X119397857Y-120558666D01*
X119290714Y-120558666D01*
X119147857Y-120594381D01*
X119076428Y-120630095D01*
X119005000Y-120701523D01*
X118969285Y-120808666D01*
X118969285Y-120880095D01*
X119005000Y-120987238D01*
X119040714Y-121022952D01*
X152025000Y-87566571D02*
X151989285Y-87495142D01*
X151989285Y-87388000D01*
X152025000Y-87280857D01*
X152096428Y-87209428D01*
X152167857Y-87173714D01*
X152310714Y-87138000D01*
X152417857Y-87138000D01*
X152560714Y-87173714D01*
X152632142Y-87209428D01*
X152703571Y-87280857D01*
X152739285Y-87388000D01*
X152739285Y-87459428D01*
X152703571Y-87566571D01*
X152667857Y-87602285D01*
X152417857Y-87602285D01*
X152417857Y-87459428D01*
X152739285Y-87923714D02*
X151989285Y-87923714D01*
X152739285Y-88352285D01*
X151989285Y-88352285D01*
X152739285Y-88709428D02*
X151989285Y-88709428D01*
X151989285Y-88888000D01*
X152025000Y-88995142D01*
X152096428Y-89066571D01*
X152167857Y-89102285D01*
X152310714Y-89138000D01*
X152417857Y-89138000D01*
X152560714Y-89102285D01*
X152632142Y-89066571D01*
X152703571Y-88995142D01*
X152739285Y-88888000D01*
X152739285Y-88709428D01*
X149485000Y-87566571D02*
X149449285Y-87495142D01*
X149449285Y-87388000D01*
X149485000Y-87280857D01*
X149556428Y-87209428D01*
X149627857Y-87173714D01*
X149770714Y-87138000D01*
X149877857Y-87138000D01*
X150020714Y-87173714D01*
X150092142Y-87209428D01*
X150163571Y-87280857D01*
X150199285Y-87388000D01*
X150199285Y-87459428D01*
X150163571Y-87566571D01*
X150127857Y-87602285D01*
X149877857Y-87602285D01*
X149877857Y-87459428D01*
X150199285Y-87923714D02*
X149449285Y-87923714D01*
X150199285Y-88352285D01*
X149449285Y-88352285D01*
X150199285Y-88709428D02*
X149449285Y-88709428D01*
X149449285Y-88888000D01*
X149485000Y-88995142D01*
X149556428Y-89066571D01*
X149627857Y-89102285D01*
X149770714Y-89138000D01*
X149877857Y-89138000D01*
X150020714Y-89102285D01*
X150092142Y-89066571D01*
X150163571Y-88995142D01*
X150199285Y-88888000D01*
X150199285Y-88709428D01*
X146945000Y-87566571D02*
X146909285Y-87495142D01*
X146909285Y-87388000D01*
X146945000Y-87280857D01*
X147016428Y-87209428D01*
X147087857Y-87173714D01*
X147230714Y-87138000D01*
X147337857Y-87138000D01*
X147480714Y-87173714D01*
X147552142Y-87209428D01*
X147623571Y-87280857D01*
X147659285Y-87388000D01*
X147659285Y-87459428D01*
X147623571Y-87566571D01*
X147587857Y-87602285D01*
X147337857Y-87602285D01*
X147337857Y-87459428D01*
X147659285Y-87923714D02*
X146909285Y-87923714D01*
X147659285Y-88352285D01*
X146909285Y-88352285D01*
X147659285Y-88709428D02*
X146909285Y-88709428D01*
X146909285Y-88888000D01*
X146945000Y-88995142D01*
X147016428Y-89066571D01*
X147087857Y-89102285D01*
X147230714Y-89138000D01*
X147337857Y-89138000D01*
X147480714Y-89102285D01*
X147552142Y-89066571D01*
X147623571Y-88995142D01*
X147659285Y-88888000D01*
X147659285Y-88709428D01*
X144405000Y-87566571D02*
X144369285Y-87495142D01*
X144369285Y-87388000D01*
X144405000Y-87280857D01*
X144476428Y-87209428D01*
X144547857Y-87173714D01*
X144690714Y-87138000D01*
X144797857Y-87138000D01*
X144940714Y-87173714D01*
X145012142Y-87209428D01*
X145083571Y-87280857D01*
X145119285Y-87388000D01*
X145119285Y-87459428D01*
X145083571Y-87566571D01*
X145047857Y-87602285D01*
X144797857Y-87602285D01*
X144797857Y-87459428D01*
X145119285Y-87923714D02*
X144369285Y-87923714D01*
X145119285Y-88352285D01*
X144369285Y-88352285D01*
X145119285Y-88709428D02*
X144369285Y-88709428D01*
X144369285Y-88888000D01*
X144405000Y-88995142D01*
X144476428Y-89066571D01*
X144547857Y-89102285D01*
X144690714Y-89138000D01*
X144797857Y-89138000D01*
X144940714Y-89102285D01*
X145012142Y-89066571D01*
X145083571Y-88995142D01*
X145119285Y-88888000D01*
X145119285Y-88709428D01*
X141865000Y-87566571D02*
X141829285Y-87495142D01*
X141829285Y-87388000D01*
X141865000Y-87280857D01*
X141936428Y-87209428D01*
X142007857Y-87173714D01*
X142150714Y-87138000D01*
X142257857Y-87138000D01*
X142400714Y-87173714D01*
X142472142Y-87209428D01*
X142543571Y-87280857D01*
X142579285Y-87388000D01*
X142579285Y-87459428D01*
X142543571Y-87566571D01*
X142507857Y-87602285D01*
X142257857Y-87602285D01*
X142257857Y-87459428D01*
X142579285Y-87923714D02*
X141829285Y-87923714D01*
X142579285Y-88352285D01*
X141829285Y-88352285D01*
X142579285Y-88709428D02*
X141829285Y-88709428D01*
X141829285Y-88888000D01*
X141865000Y-88995142D01*
X141936428Y-89066571D01*
X142007857Y-89102285D01*
X142150714Y-89138000D01*
X142257857Y-89138000D01*
X142400714Y-89102285D01*
X142472142Y-89066571D01*
X142543571Y-88995142D01*
X142579285Y-88888000D01*
X142579285Y-88709428D01*
X139325000Y-87566571D02*
X139289285Y-87495142D01*
X139289285Y-87388000D01*
X139325000Y-87280857D01*
X139396428Y-87209428D01*
X139467857Y-87173714D01*
X139610714Y-87138000D01*
X139717857Y-87138000D01*
X139860714Y-87173714D01*
X139932142Y-87209428D01*
X140003571Y-87280857D01*
X140039285Y-87388000D01*
X140039285Y-87459428D01*
X140003571Y-87566571D01*
X139967857Y-87602285D01*
X139717857Y-87602285D01*
X139717857Y-87459428D01*
X140039285Y-87923714D02*
X139289285Y-87923714D01*
X140039285Y-88352285D01*
X139289285Y-88352285D01*
X140039285Y-88709428D02*
X139289285Y-88709428D01*
X139289285Y-88888000D01*
X139325000Y-88995142D01*
X139396428Y-89066571D01*
X139467857Y-89102285D01*
X139610714Y-89138000D01*
X139717857Y-89138000D01*
X139860714Y-89102285D01*
X139932142Y-89066571D01*
X140003571Y-88995142D01*
X140039285Y-88888000D01*
X140039285Y-88709428D01*
X136785000Y-87566571D02*
X136749285Y-87495142D01*
X136749285Y-87388000D01*
X136785000Y-87280857D01*
X136856428Y-87209428D01*
X136927857Y-87173714D01*
X137070714Y-87138000D01*
X137177857Y-87138000D01*
X137320714Y-87173714D01*
X137392142Y-87209428D01*
X137463571Y-87280857D01*
X137499285Y-87388000D01*
X137499285Y-87459428D01*
X137463571Y-87566571D01*
X137427857Y-87602285D01*
X137177857Y-87602285D01*
X137177857Y-87459428D01*
X137499285Y-87923714D02*
X136749285Y-87923714D01*
X137499285Y-88352285D01*
X136749285Y-88352285D01*
X137499285Y-88709428D02*
X136749285Y-88709428D01*
X136749285Y-88888000D01*
X136785000Y-88995142D01*
X136856428Y-89066571D01*
X136927857Y-89102285D01*
X137070714Y-89138000D01*
X137177857Y-89138000D01*
X137320714Y-89102285D01*
X137392142Y-89066571D01*
X137463571Y-88995142D01*
X137499285Y-88888000D01*
X137499285Y-88709428D01*
X134245000Y-87566571D02*
X134209285Y-87495142D01*
X134209285Y-87388000D01*
X134245000Y-87280857D01*
X134316428Y-87209428D01*
X134387857Y-87173714D01*
X134530714Y-87138000D01*
X134637857Y-87138000D01*
X134780714Y-87173714D01*
X134852142Y-87209428D01*
X134923571Y-87280857D01*
X134959285Y-87388000D01*
X134959285Y-87459428D01*
X134923571Y-87566571D01*
X134887857Y-87602285D01*
X134637857Y-87602285D01*
X134637857Y-87459428D01*
X134959285Y-87923714D02*
X134209285Y-87923714D01*
X134959285Y-88352285D01*
X134209285Y-88352285D01*
X134959285Y-88709428D02*
X134209285Y-88709428D01*
X134209285Y-88888000D01*
X134245000Y-88995142D01*
X134316428Y-89066571D01*
X134387857Y-89102285D01*
X134530714Y-89138000D01*
X134637857Y-89138000D01*
X134780714Y-89102285D01*
X134852142Y-89066571D01*
X134923571Y-88995142D01*
X134959285Y-88888000D01*
X134959285Y-88709428D01*
X131705000Y-87566571D02*
X131669285Y-87495142D01*
X131669285Y-87388000D01*
X131705000Y-87280857D01*
X131776428Y-87209428D01*
X131847857Y-87173714D01*
X131990714Y-87138000D01*
X132097857Y-87138000D01*
X132240714Y-87173714D01*
X132312142Y-87209428D01*
X132383571Y-87280857D01*
X132419285Y-87388000D01*
X132419285Y-87459428D01*
X132383571Y-87566571D01*
X132347857Y-87602285D01*
X132097857Y-87602285D01*
X132097857Y-87459428D01*
X132419285Y-87923714D02*
X131669285Y-87923714D01*
X132419285Y-88352285D01*
X131669285Y-88352285D01*
X132419285Y-88709428D02*
X131669285Y-88709428D01*
X131669285Y-88888000D01*
X131705000Y-88995142D01*
X131776428Y-89066571D01*
X131847857Y-89102285D01*
X131990714Y-89138000D01*
X132097857Y-89138000D01*
X132240714Y-89102285D01*
X132312142Y-89066571D01*
X132383571Y-88995142D01*
X132419285Y-88888000D01*
X132419285Y-88709428D01*
X129165000Y-87566571D02*
X129129285Y-87495142D01*
X129129285Y-87388000D01*
X129165000Y-87280857D01*
X129236428Y-87209428D01*
X129307857Y-87173714D01*
X129450714Y-87138000D01*
X129557857Y-87138000D01*
X129700714Y-87173714D01*
X129772142Y-87209428D01*
X129843571Y-87280857D01*
X129879285Y-87388000D01*
X129879285Y-87459428D01*
X129843571Y-87566571D01*
X129807857Y-87602285D01*
X129557857Y-87602285D01*
X129557857Y-87459428D01*
X129879285Y-87923714D02*
X129129285Y-87923714D01*
X129879285Y-88352285D01*
X129129285Y-88352285D01*
X129879285Y-88709428D02*
X129129285Y-88709428D01*
X129129285Y-88888000D01*
X129165000Y-88995142D01*
X129236428Y-89066571D01*
X129307857Y-89102285D01*
X129450714Y-89138000D01*
X129557857Y-89138000D01*
X129700714Y-89102285D01*
X129772142Y-89066571D01*
X129843571Y-88995142D01*
X129879285Y-88888000D01*
X129879285Y-88709428D01*
X126625000Y-87566571D02*
X126589285Y-87495142D01*
X126589285Y-87388000D01*
X126625000Y-87280857D01*
X126696428Y-87209428D01*
X126767857Y-87173714D01*
X126910714Y-87138000D01*
X127017857Y-87138000D01*
X127160714Y-87173714D01*
X127232142Y-87209428D01*
X127303571Y-87280857D01*
X127339285Y-87388000D01*
X127339285Y-87459428D01*
X127303571Y-87566571D01*
X127267857Y-87602285D01*
X127017857Y-87602285D01*
X127017857Y-87459428D01*
X127339285Y-87923714D02*
X126589285Y-87923714D01*
X127339285Y-88352285D01*
X126589285Y-88352285D01*
X127339285Y-88709428D02*
X126589285Y-88709428D01*
X126589285Y-88888000D01*
X126625000Y-88995142D01*
X126696428Y-89066571D01*
X126767857Y-89102285D01*
X126910714Y-89138000D01*
X127017857Y-89138000D01*
X127160714Y-89102285D01*
X127232142Y-89066571D01*
X127303571Y-88995142D01*
X127339285Y-88888000D01*
X127339285Y-88709428D01*
X124085000Y-87566571D02*
X124049285Y-87495142D01*
X124049285Y-87388000D01*
X124085000Y-87280857D01*
X124156428Y-87209428D01*
X124227857Y-87173714D01*
X124370714Y-87138000D01*
X124477857Y-87138000D01*
X124620714Y-87173714D01*
X124692142Y-87209428D01*
X124763571Y-87280857D01*
X124799285Y-87388000D01*
X124799285Y-87459428D01*
X124763571Y-87566571D01*
X124727857Y-87602285D01*
X124477857Y-87602285D01*
X124477857Y-87459428D01*
X124799285Y-87923714D02*
X124049285Y-87923714D01*
X124799285Y-88352285D01*
X124049285Y-88352285D01*
X124799285Y-88709428D02*
X124049285Y-88709428D01*
X124049285Y-88888000D01*
X124085000Y-88995142D01*
X124156428Y-89066571D01*
X124227857Y-89102285D01*
X124370714Y-89138000D01*
X124477857Y-89138000D01*
X124620714Y-89102285D01*
X124692142Y-89066571D01*
X124763571Y-88995142D01*
X124799285Y-88888000D01*
X124799285Y-88709428D01*
X121545000Y-87566571D02*
X121509285Y-87495142D01*
X121509285Y-87388000D01*
X121545000Y-87280857D01*
X121616428Y-87209428D01*
X121687857Y-87173714D01*
X121830714Y-87138000D01*
X121937857Y-87138000D01*
X122080714Y-87173714D01*
X122152142Y-87209428D01*
X122223571Y-87280857D01*
X122259285Y-87388000D01*
X122259285Y-87459428D01*
X122223571Y-87566571D01*
X122187857Y-87602285D01*
X121937857Y-87602285D01*
X121937857Y-87459428D01*
X122259285Y-87923714D02*
X121509285Y-87923714D01*
X122259285Y-88352285D01*
X121509285Y-88352285D01*
X122259285Y-88709428D02*
X121509285Y-88709428D01*
X121509285Y-88888000D01*
X121545000Y-88995142D01*
X121616428Y-89066571D01*
X121687857Y-89102285D01*
X121830714Y-89138000D01*
X121937857Y-89138000D01*
X122080714Y-89102285D01*
X122152142Y-89066571D01*
X122223571Y-88995142D01*
X122259285Y-88888000D01*
X122259285Y-88709428D01*
X119005000Y-87566571D02*
X118969285Y-87495142D01*
X118969285Y-87388000D01*
X119005000Y-87280857D01*
X119076428Y-87209428D01*
X119147857Y-87173714D01*
X119290714Y-87138000D01*
X119397857Y-87138000D01*
X119540714Y-87173714D01*
X119612142Y-87209428D01*
X119683571Y-87280857D01*
X119719285Y-87388000D01*
X119719285Y-87459428D01*
X119683571Y-87566571D01*
X119647857Y-87602285D01*
X119397857Y-87602285D01*
X119397857Y-87459428D01*
X119719285Y-87923714D02*
X118969285Y-87923714D01*
X119719285Y-88352285D01*
X118969285Y-88352285D01*
X119719285Y-88709428D02*
X118969285Y-88709428D01*
X118969285Y-88888000D01*
X119005000Y-88995142D01*
X119076428Y-89066571D01*
X119147857Y-89102285D01*
X119290714Y-89138000D01*
X119397857Y-89138000D01*
X119540714Y-89102285D01*
X119612142Y-89066571D01*
X119683571Y-88995142D01*
X119719285Y-88888000D01*
X119719285Y-88709428D01*
X116465000Y-87566571D02*
X116429285Y-87495142D01*
X116429285Y-87388000D01*
X116465000Y-87280857D01*
X116536428Y-87209428D01*
X116607857Y-87173714D01*
X116750714Y-87138000D01*
X116857857Y-87138000D01*
X117000714Y-87173714D01*
X117072142Y-87209428D01*
X117143571Y-87280857D01*
X117179285Y-87388000D01*
X117179285Y-87459428D01*
X117143571Y-87566571D01*
X117107857Y-87602285D01*
X116857857Y-87602285D01*
X116857857Y-87459428D01*
X117179285Y-87923714D02*
X116429285Y-87923714D01*
X117179285Y-88352285D01*
X116429285Y-88352285D01*
X117179285Y-88709428D02*
X116429285Y-88709428D01*
X116429285Y-88888000D01*
X116465000Y-88995142D01*
X116536428Y-89066571D01*
X116607857Y-89102285D01*
X116750714Y-89138000D01*
X116857857Y-89138000D01*
X117000714Y-89102285D01*
X117072142Y-89066571D01*
X117143571Y-88995142D01*
X117179285Y-88888000D01*
X117179285Y-88709428D01*
X113925000Y-87566571D02*
X113889285Y-87495142D01*
X113889285Y-87388000D01*
X113925000Y-87280857D01*
X113996428Y-87209428D01*
X114067857Y-87173714D01*
X114210714Y-87138000D01*
X114317857Y-87138000D01*
X114460714Y-87173714D01*
X114532142Y-87209428D01*
X114603571Y-87280857D01*
X114639285Y-87388000D01*
X114639285Y-87459428D01*
X114603571Y-87566571D01*
X114567857Y-87602285D01*
X114317857Y-87602285D01*
X114317857Y-87459428D01*
X114639285Y-87923714D02*
X113889285Y-87923714D01*
X114639285Y-88352285D01*
X113889285Y-88352285D01*
X114639285Y-88709428D02*
X113889285Y-88709428D01*
X113889285Y-88888000D01*
X113925000Y-88995142D01*
X113996428Y-89066571D01*
X114067857Y-89102285D01*
X114210714Y-89138000D01*
X114317857Y-89138000D01*
X114460714Y-89102285D01*
X114532142Y-89066571D01*
X114603571Y-88995142D01*
X114639285Y-88888000D01*
X114639285Y-88709428D01*
X111385000Y-87566571D02*
X111349285Y-87495142D01*
X111349285Y-87388000D01*
X111385000Y-87280857D01*
X111456428Y-87209428D01*
X111527857Y-87173714D01*
X111670714Y-87138000D01*
X111777857Y-87138000D01*
X111920714Y-87173714D01*
X111992142Y-87209428D01*
X112063571Y-87280857D01*
X112099285Y-87388000D01*
X112099285Y-87459428D01*
X112063571Y-87566571D01*
X112027857Y-87602285D01*
X111777857Y-87602285D01*
X111777857Y-87459428D01*
X112099285Y-87923714D02*
X111349285Y-87923714D01*
X112099285Y-88352285D01*
X111349285Y-88352285D01*
X112099285Y-88709428D02*
X111349285Y-88709428D01*
X111349285Y-88888000D01*
X111385000Y-88995142D01*
X111456428Y-89066571D01*
X111527857Y-89102285D01*
X111670714Y-89138000D01*
X111777857Y-89138000D01*
X111920714Y-89102285D01*
X111992142Y-89066571D01*
X112063571Y-88995142D01*
X112099285Y-88888000D01*
X112099285Y-88709428D01*
X114379428Y-118534571D02*
X115236571Y-118534571D01*
X114808000Y-118534571D02*
X114808000Y-117034571D01*
X114950857Y-117248857D01*
X115093714Y-117391714D01*
X115236571Y-117463142D01*
X127339285Y-119302714D02*
X126589285Y-119302714D01*
X127339285Y-119731285D01*
X126589285Y-119731285D01*
X127267857Y-120517000D02*
X127303571Y-120481285D01*
X127339285Y-120374142D01*
X127339285Y-120302714D01*
X127303571Y-120195571D01*
X127232142Y-120124142D01*
X127160714Y-120088428D01*
X127017857Y-120052714D01*
X126910714Y-120052714D01*
X126767857Y-120088428D01*
X126696428Y-120124142D01*
X126625000Y-120195571D01*
X126589285Y-120302714D01*
X126589285Y-120374142D01*
X126625000Y-120481285D01*
X126660714Y-120517000D01*
X131705000Y-119570571D02*
X131669285Y-119499142D01*
X131669285Y-119392000D01*
X131705000Y-119284857D01*
X131776428Y-119213428D01*
X131847857Y-119177714D01*
X131990714Y-119142000D01*
X132097857Y-119142000D01*
X132240714Y-119177714D01*
X132312142Y-119213428D01*
X132383571Y-119284857D01*
X132419285Y-119392000D01*
X132419285Y-119463428D01*
X132383571Y-119570571D01*
X132347857Y-119606285D01*
X132097857Y-119606285D01*
X132097857Y-119463428D01*
X132419285Y-119927714D02*
X131669285Y-119927714D01*
X132419285Y-120356285D01*
X131669285Y-120356285D01*
X132419285Y-120713428D02*
X131669285Y-120713428D01*
X131669285Y-120892000D01*
X131705000Y-120999142D01*
X131776428Y-121070571D01*
X131847857Y-121106285D01*
X131990714Y-121142000D01*
X132097857Y-121142000D01*
X132240714Y-121106285D01*
X132312142Y-121070571D01*
X132383571Y-120999142D01*
X132419285Y-120892000D01*
X132419285Y-120713428D01*
X145254523Y-122785142D02*
X145302142Y-122832761D01*
X145445000Y-122880380D01*
X145540238Y-122880380D01*
X145683095Y-122832761D01*
X145778333Y-122737523D01*
X145825952Y-122642285D01*
X145873571Y-122451809D01*
X145873571Y-122308952D01*
X145825952Y-122118476D01*
X145778333Y-122023238D01*
X145683095Y-121928000D01*
X145540238Y-121880380D01*
X145445000Y-121880380D01*
X145302142Y-121928000D01*
X145254523Y-121975619D01*
X144825952Y-122880380D02*
X144825952Y-122213714D01*
X144825952Y-121880380D02*
X144873571Y-121928000D01*
X144825952Y-121975619D01*
X144778333Y-121928000D01*
X144825952Y-121880380D01*
X144825952Y-121975619D01*
X144492619Y-122213714D02*
X144111666Y-122213714D01*
X144349761Y-121880380D02*
X144349761Y-122737523D01*
X144302142Y-122832761D01*
X144206904Y-122880380D01*
X144111666Y-122880380D01*
X143778333Y-122880380D02*
X143778333Y-122213714D01*
X143778333Y-121880380D02*
X143825952Y-121928000D01*
X143778333Y-121975619D01*
X143730714Y-121928000D01*
X143778333Y-121880380D01*
X143778333Y-121975619D01*
X143397380Y-122213714D02*
X142873571Y-122213714D01*
X143397380Y-122880380D01*
X142873571Y-122880380D01*
X142111666Y-122832761D02*
X142206904Y-122880380D01*
X142397380Y-122880380D01*
X142492619Y-122832761D01*
X142540238Y-122737523D01*
X142540238Y-122356571D01*
X142492619Y-122261333D01*
X142397380Y-122213714D01*
X142206904Y-122213714D01*
X142111666Y-122261333D01*
X142064047Y-122356571D01*
X142064047Y-122451809D01*
X142540238Y-122547047D01*
X141635476Y-122213714D02*
X141635476Y-122880380D01*
X141635476Y-122308952D02*
X141587857Y-122261333D01*
X141492619Y-122213714D01*
X141349761Y-122213714D01*
X141254523Y-122261333D01*
X141206904Y-122356571D01*
X141206904Y-122880380D01*
X140016428Y-122832761D02*
X139873571Y-122880380D01*
X139635476Y-122880380D01*
X139540238Y-122832761D01*
X139492619Y-122785142D01*
X139445000Y-122689904D01*
X139445000Y-122594666D01*
X139492619Y-122499428D01*
X139540238Y-122451809D01*
X139635476Y-122404190D01*
X139825952Y-122356571D01*
X139921190Y-122308952D01*
X139968809Y-122261333D01*
X140016428Y-122166095D01*
X140016428Y-122070857D01*
X139968809Y-121975619D01*
X139921190Y-121928000D01*
X139825952Y-121880380D01*
X139587857Y-121880380D01*
X139445000Y-121928000D01*
X138873571Y-122880380D02*
X138968809Y-122832761D01*
X139016428Y-122737523D01*
X139016428Y-121880380D01*
X138492619Y-122880380D02*
X138492619Y-122213714D01*
X138492619Y-121880380D02*
X138540238Y-121928000D01*
X138492619Y-121975619D01*
X138445000Y-121928000D01*
X138492619Y-121880380D01*
X138492619Y-121975619D01*
X138016428Y-122880380D02*
X138016428Y-122213714D01*
X138016428Y-122308952D02*
X137968809Y-122261333D01*
X137873571Y-122213714D01*
X137730714Y-122213714D01*
X137635476Y-122261333D01*
X137587857Y-122356571D01*
X137587857Y-122880380D01*
X137587857Y-122356571D02*
X137540238Y-122261333D01*
X137445000Y-122213714D01*
X137302142Y-122213714D01*
X137206904Y-122261333D01*
X137159285Y-122356571D01*
X137159285Y-122880380D01*
X135968809Y-121975619D02*
X135921190Y-121928000D01*
X135825952Y-121880380D01*
X135587857Y-121880380D01*
X135492619Y-121928000D01*
X135445000Y-121975619D01*
X135397380Y-122070857D01*
X135397380Y-122166095D01*
X135445000Y-122308952D01*
X136016428Y-122880380D01*
X135397380Y-122880380D01*
X134540238Y-121880380D02*
X134730714Y-121880380D01*
X134825952Y-121928000D01*
X134873571Y-121975619D01*
X134968809Y-122118476D01*
X135016428Y-122308952D01*
X135016428Y-122689904D01*
X134968809Y-122785142D01*
X134921190Y-122832761D01*
X134825952Y-122880380D01*
X134635476Y-122880380D01*
X134540238Y-122832761D01*
X134492619Y-122785142D01*
X134445000Y-122689904D01*
X134445000Y-122451809D01*
X134492619Y-122356571D01*
X134540238Y-122308952D01*
X134635476Y-122261333D01*
X134825952Y-122261333D01*
X134921190Y-122308952D01*
X134968809Y-122356571D01*
X135016428Y-122451809D01*
X134016428Y-122499428D02*
X133254523Y-122499428D01*
X132778333Y-122213714D02*
X132778333Y-123213714D01*
X132778333Y-122261333D02*
X132683095Y-122213714D01*
X132492619Y-122213714D01*
X132397380Y-122261333D01*
X132349761Y-122308952D01*
X132302142Y-122404190D01*
X132302142Y-122689904D01*
X132349761Y-122785142D01*
X132397380Y-122832761D01*
X132492619Y-122880380D01*
X132683095Y-122880380D01*
X132778333Y-122832761D01*
X131873571Y-122880380D02*
X131873571Y-122213714D01*
X131873571Y-121880380D02*
X131921190Y-121928000D01*
X131873571Y-121975619D01*
X131825952Y-121928000D01*
X131873571Y-121880380D01*
X131873571Y-121975619D01*
X131397380Y-122213714D02*
X131397380Y-122880380D01*
X131397380Y-122308952D02*
X131349761Y-122261333D01*
X131254523Y-122213714D01*
X131111666Y-122213714D01*
X131016428Y-122261333D01*
X130968809Y-122356571D01*
X130968809Y-122880380D01*
X129397380Y-122356571D02*
X129730714Y-122356571D01*
X129730714Y-122880380D02*
X129730714Y-121880380D01*
X129254523Y-121880380D01*
X128730714Y-122880380D02*
X128825952Y-122832761D01*
X128873571Y-122737523D01*
X128873571Y-121880380D01*
X128206904Y-122880380D02*
X128302142Y-122832761D01*
X128349761Y-122785142D01*
X128397380Y-122689904D01*
X128397380Y-122404190D01*
X128349761Y-122308952D01*
X128302142Y-122261333D01*
X128206904Y-122213714D01*
X128064047Y-122213714D01*
X127968809Y-122261333D01*
X127921190Y-122308952D01*
X127873571Y-122404190D01*
X127873571Y-122689904D01*
X127921190Y-122785142D01*
X127968809Y-122832761D01*
X128064047Y-122880380D01*
X128206904Y-122880380D01*
X127445000Y-122213714D02*
X127445000Y-123213714D01*
X127445000Y-122261333D02*
X127349761Y-122213714D01*
X127159285Y-122213714D01*
X127064047Y-122261333D01*
X127016428Y-122308952D01*
X126968809Y-122404190D01*
X126968809Y-122689904D01*
X127016428Y-122785142D01*
X127064047Y-122832761D01*
X127159285Y-122880380D01*
X127349761Y-122880380D01*
X127445000Y-122832761D01*
X126540238Y-122213714D02*
X126540238Y-123213714D01*
X126540238Y-122261333D02*
X126445000Y-122213714D01*
X126254523Y-122213714D01*
X126159285Y-122261333D01*
X126111666Y-122308952D01*
X126064047Y-122404190D01*
X126064047Y-122689904D01*
X126111666Y-122785142D01*
X126159285Y-122832761D01*
X126254523Y-122880380D01*
X126445000Y-122880380D01*
X126540238Y-122832761D01*
X125730714Y-122213714D02*
X125492619Y-122880380D01*
X125254523Y-122213714D02*
X125492619Y-122880380D01*
X125587857Y-123118476D01*
X125635476Y-123166095D01*
X125730714Y-123213714D01*
X123540238Y-122785142D02*
X123587857Y-122832761D01*
X123730714Y-122880380D01*
X123825952Y-122880380D01*
X123968809Y-122832761D01*
X124064047Y-122737523D01*
X124111666Y-122642285D01*
X124159285Y-122451809D01*
X124159285Y-122308952D01*
X124111666Y-122118476D01*
X124064047Y-122023238D01*
X123968809Y-121928000D01*
X123825952Y-121880380D01*
X123730714Y-121880380D01*
X123587857Y-121928000D01*
X123540238Y-121975619D01*
X122968809Y-122880380D02*
X123064047Y-122832761D01*
X123111666Y-122785142D01*
X123159285Y-122689904D01*
X123159285Y-122404190D01*
X123111666Y-122308952D01*
X123064047Y-122261333D01*
X122968809Y-122213714D01*
X122825952Y-122213714D01*
X122730714Y-122261333D01*
X122683095Y-122308952D01*
X122635476Y-122404190D01*
X122635476Y-122689904D01*
X122683095Y-122785142D01*
X122730714Y-122832761D01*
X122825952Y-122880380D01*
X122968809Y-122880380D01*
X122206904Y-122213714D02*
X122206904Y-122880380D01*
X122206904Y-122308952D02*
X122159285Y-122261333D01*
X122064047Y-122213714D01*
X121921190Y-122213714D01*
X121825952Y-122261333D01*
X121778333Y-122356571D01*
X121778333Y-122880380D01*
X121302142Y-122213714D02*
X121302142Y-122880380D01*
X121302142Y-122308952D02*
X121254523Y-122261333D01*
X121159285Y-122213714D01*
X121016428Y-122213714D01*
X120921190Y-122261333D01*
X120873571Y-122356571D01*
X120873571Y-122880380D01*
X120016428Y-122832761D02*
X120111666Y-122880380D01*
X120302142Y-122880380D01*
X120397380Y-122832761D01*
X120445000Y-122737523D01*
X120445000Y-122356571D01*
X120397380Y-122261333D01*
X120302142Y-122213714D01*
X120111666Y-122213714D01*
X120016428Y-122261333D01*
X119968809Y-122356571D01*
X119968809Y-122451809D01*
X120445000Y-122547047D01*
X119111666Y-122832761D02*
X119206904Y-122880380D01*
X119397380Y-122880380D01*
X119492619Y-122832761D01*
X119540238Y-122785142D01*
X119587857Y-122689904D01*
X119587857Y-122404190D01*
X119540238Y-122308952D01*
X119492619Y-122261333D01*
X119397380Y-122213714D01*
X119206904Y-122213714D01*
X119111666Y-122261333D01*
X118825952Y-122213714D02*
X118445000Y-122213714D01*
X118683095Y-121880380D02*
X118683095Y-122737523D01*
X118635476Y-122832761D01*
X118540238Y-122880380D01*
X118445000Y-122880380D01*
X117968809Y-122880380D02*
X118064047Y-122832761D01*
X118111666Y-122785142D01*
X118159285Y-122689904D01*
X118159285Y-122404190D01*
X118111666Y-122308952D01*
X118064047Y-122261333D01*
X117968809Y-122213714D01*
X117825952Y-122213714D01*
X117730714Y-122261333D01*
X117683095Y-122308952D01*
X117635476Y-122404190D01*
X117635476Y-122689904D01*
X117683095Y-122785142D01*
X117730714Y-122832761D01*
X117825952Y-122880380D01*
X117968809Y-122880380D01*
X117206904Y-122880380D02*
X117206904Y-122213714D01*
X117206904Y-122404190D02*
X117159285Y-122308952D01*
X117111666Y-122261333D01*
X117016428Y-122213714D01*
X116921190Y-122213714D01*
X129879285Y-119302714D02*
X129129285Y-119302714D01*
X129879285Y-119731285D01*
X129129285Y-119731285D01*
X129807857Y-120517000D02*
X129843571Y-120481285D01*
X129879285Y-120374142D01*
X129879285Y-120302714D01*
X129843571Y-120195571D01*
X129772142Y-120124142D01*
X129700714Y-120088428D01*
X129557857Y-120052714D01*
X129450714Y-120052714D01*
X129307857Y-120088428D01*
X129236428Y-120124142D01*
X129165000Y-120195571D01*
X129129285Y-120302714D01*
X129129285Y-120374142D01*
X129165000Y-120481285D01*
X129200714Y-120517000D01*
X116429285Y-119094381D02*
X117179285Y-119344381D01*
X116429285Y-119594381D01*
X117107857Y-120272952D02*
X117143571Y-120237238D01*
X117179285Y-120130095D01*
X117179285Y-120058666D01*
X117143571Y-119951523D01*
X117072142Y-119880095D01*
X117000714Y-119844381D01*
X116857857Y-119808666D01*
X116750714Y-119808666D01*
X116607857Y-119844381D01*
X116536428Y-119880095D01*
X116465000Y-119951523D01*
X116429285Y-120058666D01*
X116429285Y-120130095D01*
X116465000Y-120237238D01*
X116500714Y-120272952D01*
X117107857Y-121022952D02*
X117143571Y-120987238D01*
X117179285Y-120880095D01*
X117179285Y-120808666D01*
X117143571Y-120701523D01*
X117072142Y-120630095D01*
X117000714Y-120594381D01*
X116857857Y-120558666D01*
X116750714Y-120558666D01*
X116607857Y-120594381D01*
X116536428Y-120630095D01*
X116465000Y-120701523D01*
X116429285Y-120808666D01*
X116429285Y-120880095D01*
X116465000Y-120987238D01*
X116500714Y-121022952D01*
X154003428Y-90848571D02*
X154860571Y-90848571D01*
X154432000Y-90848571D02*
X154432000Y-89348571D01*
X154574857Y-89562857D01*
X154717714Y-89705714D01*
X154860571Y-89777142D01*
X100082000Y-89090571D02*
X100046285Y-89019142D01*
X100046285Y-88912000D01*
X100082000Y-88804857D01*
X100153428Y-88733428D01*
X100224857Y-88697714D01*
X100367714Y-88662000D01*
X100474857Y-88662000D01*
X100617714Y-88697714D01*
X100689142Y-88733428D01*
X100760571Y-88804857D01*
X100796285Y-88912000D01*
X100796285Y-88983428D01*
X100760571Y-89090571D01*
X100724857Y-89126285D01*
X100474857Y-89126285D01*
X100474857Y-88983428D01*
X100796285Y-89447714D02*
X100046285Y-89447714D01*
X100796285Y-89876285D01*
X100046285Y-89876285D01*
X100796285Y-90233428D02*
X100046285Y-90233428D01*
X100046285Y-90412000D01*
X100082000Y-90519142D01*
X100153428Y-90590571D01*
X100224857Y-90626285D01*
X100367714Y-90662000D01*
X100474857Y-90662000D01*
X100617714Y-90626285D01*
X100689142Y-90590571D01*
X100760571Y-90519142D01*
X100796285Y-90412000D01*
X100796285Y-90233428D01*
X97542000Y-89090571D02*
X97506285Y-89019142D01*
X97506285Y-88912000D01*
X97542000Y-88804857D01*
X97613428Y-88733428D01*
X97684857Y-88697714D01*
X97827714Y-88662000D01*
X97934857Y-88662000D01*
X98077714Y-88697714D01*
X98149142Y-88733428D01*
X98220571Y-88804857D01*
X98256285Y-88912000D01*
X98256285Y-88983428D01*
X98220571Y-89090571D01*
X98184857Y-89126285D01*
X97934857Y-89126285D01*
X97934857Y-88983428D01*
X98256285Y-89447714D02*
X97506285Y-89447714D01*
X98256285Y-89876285D01*
X97506285Y-89876285D01*
X98256285Y-90233428D02*
X97506285Y-90233428D01*
X97506285Y-90412000D01*
X97542000Y-90519142D01*
X97613428Y-90590571D01*
X97684857Y-90626285D01*
X97827714Y-90662000D01*
X97934857Y-90662000D01*
X98077714Y-90626285D01*
X98149142Y-90590571D01*
X98220571Y-90519142D01*
X98256285Y-90412000D01*
X98256285Y-90233428D01*
X95589285Y-89447714D02*
X94839285Y-89447714D01*
X95589285Y-89876285D01*
X94839285Y-89876285D01*
X95517857Y-90662000D02*
X95553571Y-90626285D01*
X95589285Y-90519142D01*
X95589285Y-90447714D01*
X95553571Y-90340571D01*
X95482142Y-90269142D01*
X95410714Y-90233428D01*
X95267857Y-90197714D01*
X95160714Y-90197714D01*
X95017857Y-90233428D01*
X94946428Y-90269142D01*
X94875000Y-90340571D01*
X94839285Y-90447714D01*
X94839285Y-90519142D01*
X94875000Y-90626285D01*
X94910714Y-90662000D01*
X103050571Y-88697714D02*
X103050571Y-89269142D01*
X103336285Y-88983428D02*
X102764857Y-88983428D01*
X102586285Y-89983428D02*
X102586285Y-89626285D01*
X102943428Y-89590571D01*
X102907714Y-89626285D01*
X102872000Y-89697714D01*
X102872000Y-89876285D01*
X102907714Y-89947714D01*
X102943428Y-89983428D01*
X103014857Y-90019142D01*
X103193428Y-90019142D01*
X103264857Y-89983428D01*
X103300571Y-89947714D01*
X103336285Y-89876285D01*
X103336285Y-89697714D01*
X103300571Y-89626285D01*
X103264857Y-89590571D01*
X102586285Y-90233428D02*
X103336285Y-90483428D01*
X102586285Y-90733428D01*
X137499285Y-99133667D02*
X136749285Y-99133667D01*
X137499285Y-99562238D01*
X136749285Y-99562238D01*
X137427857Y-100347953D02*
X137463571Y-100312238D01*
X137499285Y-100205095D01*
X137499285Y-100133667D01*
X137463571Y-100026524D01*
X137392142Y-99955095D01*
X137320714Y-99919381D01*
X137177857Y-99883667D01*
X137070714Y-99883667D01*
X136927857Y-99919381D01*
X136856428Y-99955095D01*
X136785000Y-100026524D01*
X136749285Y-100133667D01*
X136749285Y-100205095D01*
X136785000Y-100312238D01*
X136820714Y-100347953D01*
X147659285Y-99133667D02*
X146909285Y-99133667D01*
X147659285Y-99562238D01*
X146909285Y-99562238D01*
X147587857Y-100347953D02*
X147623571Y-100312238D01*
X147659285Y-100205095D01*
X147659285Y-100133667D01*
X147623571Y-100026524D01*
X147552142Y-99955095D01*
X147480714Y-99919381D01*
X147337857Y-99883667D01*
X147230714Y-99883667D01*
X147087857Y-99919381D01*
X147016428Y-99955095D01*
X146945000Y-100026524D01*
X146909285Y-100133667D01*
X146909285Y-100205095D01*
X146945000Y-100312238D01*
X146980714Y-100347953D01*
X122330714Y-98955096D02*
X122330714Y-99526525D01*
X121509285Y-99597953D02*
X121509285Y-100026525D01*
X122259285Y-99812239D02*
X121509285Y-99812239D01*
X122259285Y-100705096D02*
X121902142Y-100455096D01*
X122259285Y-100276525D02*
X121509285Y-100276525D01*
X121509285Y-100562239D01*
X121545000Y-100633668D01*
X121580714Y-100669382D01*
X121652142Y-100705096D01*
X121759285Y-100705096D01*
X121830714Y-100669382D01*
X121866428Y-100633668D01*
X121902142Y-100562239D01*
X121902142Y-100276525D01*
X122259285Y-101026525D02*
X121509285Y-101026525D01*
X122259285Y-101455096D02*
X121830714Y-101133668D01*
X121509285Y-101455096D02*
X121937857Y-101026525D01*
X121509285Y-101919382D02*
X121509285Y-101990810D01*
X121545000Y-102062239D01*
X121580714Y-102097953D01*
X121652142Y-102133668D01*
X121795000Y-102169382D01*
X121973571Y-102169382D01*
X122116428Y-102133668D01*
X122187857Y-102097953D01*
X122223571Y-102062239D01*
X122259285Y-101990810D01*
X122259285Y-101919382D01*
X122223571Y-101847953D01*
X122187857Y-101812239D01*
X122116428Y-101776525D01*
X121973571Y-101740810D01*
X121795000Y-101740810D01*
X121652142Y-101776525D01*
X121580714Y-101812239D01*
X121545000Y-101847953D01*
X121509285Y-101919382D01*
X114710714Y-98955096D02*
X114710714Y-99526525D01*
X114603571Y-99669382D02*
X114639285Y-99776525D01*
X114639285Y-99955096D01*
X114603571Y-100026525D01*
X114567857Y-100062239D01*
X114496428Y-100097953D01*
X114425000Y-100097953D01*
X114353571Y-100062239D01*
X114317857Y-100026525D01*
X114282142Y-99955096D01*
X114246428Y-99812239D01*
X114210714Y-99740811D01*
X114175000Y-99705096D01*
X114103571Y-99669382D01*
X114032142Y-99669382D01*
X113960714Y-99705096D01*
X113925000Y-99740811D01*
X113889285Y-99812239D01*
X113889285Y-99990811D01*
X113925000Y-100097953D01*
X114639285Y-100419382D02*
X113889285Y-100419382D01*
X114639285Y-100776525D02*
X113889285Y-100776525D01*
X113889285Y-100955096D01*
X113925000Y-101062239D01*
X113996428Y-101133668D01*
X114067857Y-101169382D01*
X114210714Y-101205096D01*
X114317857Y-101205096D01*
X114460714Y-101169382D01*
X114532142Y-101133668D01*
X114603571Y-101062239D01*
X114639285Y-100955096D01*
X114639285Y-100776525D01*
X114246428Y-101526525D02*
X114246428Y-101776525D01*
X114639285Y-101883668D02*
X114639285Y-101526525D01*
X113889285Y-101526525D01*
X113889285Y-101883668D01*
X117250714Y-98955096D02*
X117250714Y-99526525D01*
X117179285Y-99705096D02*
X116429285Y-99705096D01*
X116429285Y-99883668D01*
X116465000Y-99990811D01*
X116536428Y-100062239D01*
X116607857Y-100097953D01*
X116750714Y-100133668D01*
X116857857Y-100133668D01*
X117000714Y-100097953D01*
X117072142Y-100062239D01*
X117143571Y-99990811D01*
X117179285Y-99883668D01*
X117179285Y-99705096D01*
X117179285Y-100455096D02*
X116429285Y-100455096D01*
X117179285Y-100883668D02*
X116750714Y-100562239D01*
X116429285Y-100883668D02*
X116857857Y-100455096D01*
X117179285Y-101633668D02*
X116822142Y-101383668D01*
X117179285Y-101205096D02*
X116429285Y-101205096D01*
X116429285Y-101490811D01*
X116465000Y-101562239D01*
X116500714Y-101597953D01*
X116572142Y-101633668D01*
X116679285Y-101633668D01*
X116750714Y-101597953D01*
X116786428Y-101562239D01*
X116822142Y-101490811D01*
X116822142Y-101205096D01*
X117179285Y-101955096D02*
X116429285Y-101955096D01*
X116429285Y-102133668D01*
X116465000Y-102240811D01*
X116536428Y-102312239D01*
X116607857Y-102347953D01*
X116750714Y-102383668D01*
X116857857Y-102383668D01*
X117000714Y-102347953D01*
X117072142Y-102312239D01*
X117143571Y-102240811D01*
X117179285Y-102133668D01*
X117179285Y-101955096D01*
X152810714Y-98955096D02*
X152810714Y-99526525D01*
X152667857Y-100133667D02*
X152703571Y-100097953D01*
X152739285Y-99990810D01*
X152739285Y-99919382D01*
X152703571Y-99812239D01*
X152632142Y-99740810D01*
X152560714Y-99705096D01*
X152417857Y-99669382D01*
X152310714Y-99669382D01*
X152167857Y-99705096D01*
X152096428Y-99740810D01*
X152025000Y-99812239D01*
X151989285Y-99919382D01*
X151989285Y-99990810D01*
X152025000Y-100097953D01*
X152060714Y-100133667D01*
X152739285Y-100455096D02*
X151989285Y-100455096D01*
X152346428Y-100455096D02*
X152346428Y-100883667D01*
X152739285Y-100883667D02*
X151989285Y-100883667D01*
X152739285Y-101240810D02*
X151989285Y-101240810D01*
X152739285Y-101669382D01*
X151989285Y-101669382D01*
X152025000Y-102419382D02*
X151989285Y-102347953D01*
X151989285Y-102240810D01*
X152025000Y-102133667D01*
X152096428Y-102062239D01*
X152167857Y-102026525D01*
X152310714Y-101990810D01*
X152417857Y-101990810D01*
X152560714Y-102026525D01*
X152632142Y-102062239D01*
X152703571Y-102133667D01*
X152739285Y-102240810D01*
X152739285Y-102312239D01*
X152703571Y-102419382D01*
X152667857Y-102455096D01*
X152417857Y-102455096D01*
X152417857Y-102312239D01*
X129950714Y-98955095D02*
X129950714Y-99526524D01*
X129843571Y-99669381D02*
X129879285Y-99776524D01*
X129879285Y-99955095D01*
X129843571Y-100026524D01*
X129807857Y-100062238D01*
X129736428Y-100097953D01*
X129665000Y-100097953D01*
X129593571Y-100062238D01*
X129557857Y-100026524D01*
X129522142Y-99955095D01*
X129486428Y-99812238D01*
X129450714Y-99740810D01*
X129415000Y-99705095D01*
X129343571Y-99669381D01*
X129272142Y-99669381D01*
X129200714Y-99705095D01*
X129165000Y-99740810D01*
X129129285Y-99812238D01*
X129129285Y-99990810D01*
X129165000Y-100097953D01*
X129129285Y-100312238D02*
X129129285Y-100740810D01*
X129879285Y-100526524D02*
X129129285Y-100526524D01*
X129486428Y-100990810D02*
X129486428Y-101240810D01*
X129879285Y-101347953D02*
X129879285Y-100990810D01*
X129129285Y-100990810D01*
X129129285Y-101347953D01*
X129879285Y-101669381D02*
X129129285Y-101669381D01*
X129129285Y-101955095D01*
X129165000Y-102026524D01*
X129200714Y-102062238D01*
X129272142Y-102097953D01*
X129379285Y-102097953D01*
X129450714Y-102062238D01*
X129486428Y-102026524D01*
X129522142Y-101955095D01*
X129522142Y-101669381D01*
X112170714Y-98955096D02*
X112170714Y-99526524D01*
X112099285Y-100133667D02*
X111742142Y-99883667D01*
X112099285Y-99705096D02*
X111349285Y-99705096D01*
X111349285Y-99990810D01*
X111385000Y-100062239D01*
X111420714Y-100097953D01*
X111492142Y-100133667D01*
X111599285Y-100133667D01*
X111670714Y-100097953D01*
X111706428Y-100062239D01*
X111742142Y-99990810D01*
X111742142Y-99705096D01*
X112099285Y-100455096D02*
X111349285Y-100455096D01*
X111349285Y-100633667D01*
X111385000Y-100740810D01*
X111456428Y-100812239D01*
X111527857Y-100847953D01*
X111670714Y-100883667D01*
X111777857Y-100883667D01*
X111920714Y-100847953D01*
X111992142Y-100812239D01*
X112063571Y-100740810D01*
X112099285Y-100633667D01*
X112099285Y-100455096D01*
X111742142Y-101347953D02*
X112099285Y-101347953D01*
X111349285Y-101097953D02*
X111742142Y-101347953D01*
X111349285Y-101597953D01*
X119790714Y-98955095D02*
X119790714Y-99526524D01*
X118969285Y-99633667D02*
X119719285Y-99812238D01*
X119183571Y-99955095D01*
X119719285Y-100097953D01*
X118969285Y-100276524D01*
X119719285Y-100990810D02*
X119362142Y-100740810D01*
X119719285Y-100562238D02*
X118969285Y-100562238D01*
X118969285Y-100847953D01*
X119005000Y-100919381D01*
X119040714Y-100955095D01*
X119112142Y-100990810D01*
X119219285Y-100990810D01*
X119290714Y-100955095D01*
X119326428Y-100919381D01*
X119362142Y-100847953D01*
X119362142Y-100562238D01*
X119719285Y-101312238D02*
X118969285Y-101312238D01*
X118969285Y-101597953D01*
X119005000Y-101669381D01*
X119040714Y-101705095D01*
X119112142Y-101740810D01*
X119219285Y-101740810D01*
X119290714Y-101705095D01*
X119326428Y-101669381D01*
X119362142Y-101597953D01*
X119362142Y-101312238D01*
X119719285Y-102490810D02*
X119362142Y-102240810D01*
X119719285Y-102062238D02*
X118969285Y-102062238D01*
X118969285Y-102347953D01*
X119005000Y-102419381D01*
X119040714Y-102455095D01*
X119112142Y-102490810D01*
X119219285Y-102490810D01*
X119290714Y-102455095D01*
X119326428Y-102419381D01*
X119362142Y-102347953D01*
X119362142Y-102062238D01*
X118969285Y-102955095D02*
X118969285Y-103097953D01*
X119005000Y-103169381D01*
X119076428Y-103240810D01*
X119219285Y-103276524D01*
X119469285Y-103276524D01*
X119612142Y-103240810D01*
X119683571Y-103169381D01*
X119719285Y-103097953D01*
X119719285Y-102955095D01*
X119683571Y-102883667D01*
X119612142Y-102812238D01*
X119469285Y-102776524D01*
X119219285Y-102776524D01*
X119076428Y-102812238D01*
X119005000Y-102883667D01*
X118969285Y-102955095D01*
X118969285Y-103490810D02*
X118969285Y-103919381D01*
X119719285Y-103705095D02*
X118969285Y-103705095D01*
X124870714Y-98955096D02*
X124870714Y-99526525D01*
X124799285Y-99705096D02*
X124049285Y-99705096D01*
X124049285Y-99883668D01*
X124085000Y-99990810D01*
X124156428Y-100062239D01*
X124227857Y-100097953D01*
X124370714Y-100133668D01*
X124477857Y-100133668D01*
X124620714Y-100097953D01*
X124692142Y-100062239D01*
X124763571Y-99990810D01*
X124799285Y-99883668D01*
X124799285Y-99705096D01*
X124799285Y-100455096D02*
X124049285Y-100455096D01*
X124799285Y-100883668D02*
X124370714Y-100562239D01*
X124049285Y-100883668D02*
X124477857Y-100455096D01*
X124049285Y-101133668D02*
X124799285Y-101312239D01*
X124263571Y-101455096D01*
X124799285Y-101597953D01*
X124049285Y-101776525D01*
X124406428Y-102062239D02*
X124406428Y-102312239D01*
X124799285Y-102419382D02*
X124799285Y-102062239D01*
X124049285Y-102062239D01*
X124049285Y-102419382D01*
X142650714Y-98955095D02*
X142650714Y-99526524D01*
X142543571Y-99669381D02*
X142579285Y-99776524D01*
X142579285Y-99955095D01*
X142543571Y-100026524D01*
X142507857Y-100062238D01*
X142436428Y-100097953D01*
X142365000Y-100097953D01*
X142293571Y-100062238D01*
X142257857Y-100026524D01*
X142222142Y-99955095D01*
X142186428Y-99812238D01*
X142150714Y-99740810D01*
X142115000Y-99705095D01*
X142043571Y-99669381D01*
X141972142Y-99669381D01*
X141900714Y-99705095D01*
X141865000Y-99740810D01*
X141829285Y-99812238D01*
X141829285Y-99990810D01*
X141865000Y-100097953D01*
X142186428Y-100419381D02*
X142186428Y-100669381D01*
X142579285Y-100776524D02*
X142579285Y-100419381D01*
X141829285Y-100419381D01*
X141829285Y-100776524D01*
X142579285Y-101455095D02*
X142579285Y-101097953D01*
X141829285Y-101097953D01*
X141829285Y-101847953D02*
X141829285Y-101919381D01*
X141865000Y-101990810D01*
X141900714Y-102026524D01*
X141972142Y-102062238D01*
X142115000Y-102097953D01*
X142293571Y-102097953D01*
X142436428Y-102062238D01*
X142507857Y-102026524D01*
X142543571Y-101990810D01*
X142579285Y-101919381D01*
X142579285Y-101847953D01*
X142543571Y-101776524D01*
X142507857Y-101740810D01*
X142436428Y-101705095D01*
X142293571Y-101669381D01*
X142115000Y-101669381D01*
X141972142Y-101705095D01*
X141900714Y-101740810D01*
X141865000Y-101776524D01*
X141829285Y-101847953D01*
X150270714Y-98955096D02*
X150270714Y-99526525D01*
X150199285Y-99705096D02*
X149449285Y-99705096D01*
X150199285Y-100062239D02*
X149449285Y-100062239D01*
X150199285Y-100490810D01*
X149449285Y-100490810D01*
X149449285Y-100847953D02*
X150056428Y-100847953D01*
X150127857Y-100883667D01*
X150163571Y-100919382D01*
X150199285Y-100990810D01*
X150199285Y-101133667D01*
X150163571Y-101205096D01*
X150127857Y-101240810D01*
X150056428Y-101276525D01*
X149449285Y-101276525D01*
X150163571Y-101597953D02*
X150199285Y-101705096D01*
X150199285Y-101883667D01*
X150163571Y-101955096D01*
X150127857Y-101990810D01*
X150056428Y-102026525D01*
X149985000Y-102026525D01*
X149913571Y-101990810D01*
X149877857Y-101955096D01*
X149842142Y-101883667D01*
X149806428Y-101740810D01*
X149770714Y-101669382D01*
X149735000Y-101633667D01*
X149663571Y-101597953D01*
X149592142Y-101597953D01*
X149520714Y-101633667D01*
X149485000Y-101669382D01*
X149449285Y-101740810D01*
X149449285Y-101919382D01*
X149485000Y-102026525D01*
X149806428Y-102347953D02*
X149806428Y-102597953D01*
X150199285Y-102705096D02*
X150199285Y-102347953D01*
X149449285Y-102347953D01*
X149449285Y-102705096D01*
X135030714Y-98955096D02*
X135030714Y-99526524D01*
X134959285Y-99705096D02*
X134209285Y-99705096D01*
X134745000Y-99955096D01*
X134209285Y-100205096D01*
X134959285Y-100205096D01*
X134209285Y-100455096D02*
X134209285Y-100883667D01*
X134959285Y-100669381D02*
X134209285Y-100669381D01*
X134959285Y-101562238D02*
X134602142Y-101312238D01*
X134959285Y-101133667D02*
X134209285Y-101133667D01*
X134209285Y-101419381D01*
X134245000Y-101490810D01*
X134280714Y-101526524D01*
X134352142Y-101562238D01*
X134459285Y-101562238D01*
X134530714Y-101526524D01*
X134566428Y-101490810D01*
X134602142Y-101419381D01*
X134602142Y-101133667D01*
X132419285Y-99133668D02*
X131669285Y-99133668D01*
X131669285Y-99312239D01*
X131705000Y-99419382D01*
X131776428Y-99490810D01*
X131847857Y-99526525D01*
X131990714Y-99562239D01*
X132097857Y-99562239D01*
X132240714Y-99526525D01*
X132312142Y-99490810D01*
X132383571Y-99419382D01*
X132419285Y-99312239D01*
X132419285Y-99133668D01*
X132419285Y-99883668D02*
X131669285Y-99883668D01*
X132419285Y-100669382D02*
X132062142Y-100419382D01*
X132419285Y-100240810D02*
X131669285Y-100240810D01*
X131669285Y-100526525D01*
X131705000Y-100597953D01*
X131740714Y-100633668D01*
X131812142Y-100669382D01*
X131919285Y-100669382D01*
X131990714Y-100633668D01*
X132026428Y-100597953D01*
X132062142Y-100526525D01*
X132062142Y-100240810D01*
X145190714Y-98955096D02*
X145190714Y-99526525D01*
X145119285Y-99705096D02*
X144369285Y-99705096D01*
X145119285Y-100062239D02*
X144369285Y-100062239D01*
X145119285Y-100490810D01*
X144369285Y-100490810D01*
X145119285Y-100847953D02*
X144369285Y-100847953D01*
X144369285Y-101026525D01*
X144405000Y-101133668D01*
X144476428Y-101205096D01*
X144547857Y-101240810D01*
X144690714Y-101276525D01*
X144797857Y-101276525D01*
X144940714Y-101240810D01*
X145012142Y-101205096D01*
X145083571Y-101133668D01*
X145119285Y-101026525D01*
X145119285Y-100847953D01*
X144726428Y-101597953D02*
X144726428Y-101847953D01*
X145119285Y-101955096D02*
X145119285Y-101597953D01*
X144369285Y-101597953D01*
X144369285Y-101955096D01*
X144369285Y-102205096D02*
X145119285Y-102705096D01*
X144369285Y-102705096D02*
X145119285Y-102205096D01*
X140110714Y-98955095D02*
X140110714Y-99526524D01*
X140003571Y-99669381D02*
X140039285Y-99776524D01*
X140039285Y-99955095D01*
X140003571Y-100026524D01*
X139967857Y-100062238D01*
X139896428Y-100097953D01*
X139825000Y-100097953D01*
X139753571Y-100062238D01*
X139717857Y-100026524D01*
X139682142Y-99955095D01*
X139646428Y-99812238D01*
X139610714Y-99740810D01*
X139575000Y-99705095D01*
X139503571Y-99669381D01*
X139432142Y-99669381D01*
X139360714Y-99705095D01*
X139325000Y-99740810D01*
X139289285Y-99812238D01*
X139289285Y-99990810D01*
X139325000Y-100097953D01*
X139646428Y-100419381D02*
X139646428Y-100669381D01*
X140039285Y-100776524D02*
X140039285Y-100419381D01*
X139289285Y-100419381D01*
X139289285Y-100776524D01*
X140039285Y-101455095D02*
X140039285Y-101097953D01*
X139289285Y-101097953D01*
X140039285Y-102097953D02*
X140039285Y-101669381D01*
X140039285Y-101883667D02*
X139289285Y-101883667D01*
X139396428Y-101812238D01*
X139467857Y-101740810D01*
X139503571Y-101669381D01*
X127410714Y-98955096D02*
X127410714Y-99526524D01*
X127339285Y-99705096D02*
X126589285Y-99705096D01*
X126589285Y-99883667D01*
X126625000Y-99990810D01*
X126696428Y-100062239D01*
X126767857Y-100097953D01*
X126910714Y-100133667D01*
X127017857Y-100133667D01*
X127160714Y-100097953D01*
X127232142Y-100062239D01*
X127303571Y-99990810D01*
X127339285Y-99883667D01*
X127339285Y-99705096D01*
X127339285Y-100455096D02*
X126589285Y-100455096D01*
X127339285Y-100883667D02*
X126910714Y-100562239D01*
X126589285Y-100883667D02*
X127017857Y-100455096D01*
X126589285Y-101133667D02*
X127339285Y-101312239D01*
X126803571Y-101455096D01*
X127339285Y-101597953D01*
X126589285Y-101776524D01*
X127339285Y-102062239D02*
X126589285Y-102062239D01*
X126589285Y-102240810D01*
X126625000Y-102347953D01*
X126696428Y-102419382D01*
X126767857Y-102455096D01*
X126910714Y-102490810D01*
X127017857Y-102490810D01*
X127160714Y-102455096D01*
X127232142Y-102419382D01*
X127303571Y-102347953D01*
X127339285Y-102240810D01*
X127339285Y-102062239D01*
X127410714Y-106735714D02*
X127410714Y-107307142D01*
X127339285Y-107485714D02*
X126589285Y-107485714D01*
X127125000Y-107735714D01*
X126589285Y-107985714D01*
X127339285Y-107985714D01*
X126589285Y-108235714D02*
X126589285Y-108664285D01*
X127339285Y-108449999D02*
X126589285Y-108449999D01*
X127339285Y-109342856D02*
X126982142Y-109092856D01*
X127339285Y-108914285D02*
X126589285Y-108914285D01*
X126589285Y-109199999D01*
X126625000Y-109271428D01*
X126660714Y-109307142D01*
X126732142Y-109342856D01*
X126839285Y-109342856D01*
X126910714Y-109307142D01*
X126946428Y-109271428D01*
X126982142Y-109199999D01*
X126982142Y-108914285D01*
X124870714Y-106771428D02*
X124870714Y-107342856D01*
X124799285Y-107949999D02*
X124442142Y-107699999D01*
X124799285Y-107521428D02*
X124049285Y-107521428D01*
X124049285Y-107807142D01*
X124085000Y-107878571D01*
X124120714Y-107914285D01*
X124192142Y-107949999D01*
X124299285Y-107949999D01*
X124370714Y-107914285D01*
X124406428Y-107878571D01*
X124442142Y-107807142D01*
X124442142Y-107521428D01*
X124799285Y-108271428D02*
X124049285Y-108271428D01*
X124049285Y-108449999D01*
X124085000Y-108557142D01*
X124156428Y-108628571D01*
X124227857Y-108664285D01*
X124370714Y-108699999D01*
X124477857Y-108699999D01*
X124620714Y-108664285D01*
X124692142Y-108628571D01*
X124763571Y-108557142D01*
X124799285Y-108449999D01*
X124799285Y-108271428D01*
X124442142Y-109164285D02*
X124799285Y-109164285D01*
X124049285Y-108914285D02*
X124442142Y-109164285D01*
X124049285Y-109414285D01*
X122330714Y-105842857D02*
X122330714Y-106414286D01*
X122187857Y-107021428D02*
X122223571Y-106985714D01*
X122259285Y-106878571D01*
X122259285Y-106807143D01*
X122223571Y-106700000D01*
X122152142Y-106628571D01*
X122080714Y-106592857D01*
X121937857Y-106557143D01*
X121830714Y-106557143D01*
X121687857Y-106592857D01*
X121616428Y-106628571D01*
X121545000Y-106700000D01*
X121509285Y-106807143D01*
X121509285Y-106878571D01*
X121545000Y-106985714D01*
X121580714Y-107021428D01*
X122259285Y-107342857D02*
X121509285Y-107342857D01*
X121866428Y-107342857D02*
X121866428Y-107771428D01*
X122259285Y-107771428D02*
X121509285Y-107771428D01*
X122259285Y-108128571D02*
X121509285Y-108128571D01*
X122259285Y-108557143D01*
X121509285Y-108557143D01*
X121545000Y-109307143D02*
X121509285Y-109235714D01*
X121509285Y-109128571D01*
X121545000Y-109021428D01*
X121616428Y-108950000D01*
X121687857Y-108914286D01*
X121830714Y-108878571D01*
X121937857Y-108878571D01*
X122080714Y-108914286D01*
X122152142Y-108950000D01*
X122223571Y-109021428D01*
X122259285Y-109128571D01*
X122259285Y-109200000D01*
X122223571Y-109307143D01*
X122187857Y-109342857D01*
X121937857Y-109342857D01*
X121937857Y-109200000D01*
X119790714Y-106199999D02*
X119790714Y-106771428D01*
X119683571Y-106914285D02*
X119719285Y-107021428D01*
X119719285Y-107199999D01*
X119683571Y-107271428D01*
X119647857Y-107307142D01*
X119576428Y-107342857D01*
X119505000Y-107342857D01*
X119433571Y-107307142D01*
X119397857Y-107271428D01*
X119362142Y-107199999D01*
X119326428Y-107057142D01*
X119290714Y-106985714D01*
X119255000Y-106949999D01*
X119183571Y-106914285D01*
X119112142Y-106914285D01*
X119040714Y-106949999D01*
X119005000Y-106985714D01*
X118969285Y-107057142D01*
X118969285Y-107235714D01*
X119005000Y-107342857D01*
X119326428Y-107664285D02*
X119326428Y-107914285D01*
X119719285Y-108021428D02*
X119719285Y-107664285D01*
X118969285Y-107664285D01*
X118969285Y-108021428D01*
X119719285Y-108699999D02*
X119719285Y-108342857D01*
X118969285Y-108342857D01*
X118969285Y-109092857D02*
X118969285Y-109164285D01*
X119005000Y-109235714D01*
X119040714Y-109271428D01*
X119112142Y-109307142D01*
X119255000Y-109342857D01*
X119433571Y-109342857D01*
X119576428Y-109307142D01*
X119647857Y-109271428D01*
X119683571Y-109235714D01*
X119719285Y-109164285D01*
X119719285Y-109092857D01*
X119683571Y-109021428D01*
X119647857Y-108985714D01*
X119576428Y-108949999D01*
X119433571Y-108914285D01*
X119255000Y-108914285D01*
X119112142Y-108949999D01*
X119040714Y-108985714D01*
X119005000Y-109021428D01*
X118969285Y-109092857D01*
X117250714Y-105628571D02*
X117250714Y-106200000D01*
X117179285Y-106378571D02*
X116429285Y-106378571D01*
X117179285Y-106735714D02*
X116429285Y-106735714D01*
X117179285Y-107164285D01*
X116429285Y-107164285D01*
X117179285Y-107521428D02*
X116429285Y-107521428D01*
X116429285Y-107700000D01*
X116465000Y-107807143D01*
X116536428Y-107878571D01*
X116607857Y-107914285D01*
X116750714Y-107950000D01*
X116857857Y-107950000D01*
X117000714Y-107914285D01*
X117072142Y-107878571D01*
X117143571Y-107807143D01*
X117179285Y-107700000D01*
X117179285Y-107521428D01*
X116786428Y-108271428D02*
X116786428Y-108521428D01*
X117179285Y-108628571D02*
X117179285Y-108271428D01*
X116429285Y-108271428D01*
X116429285Y-108628571D01*
X116429285Y-108878571D02*
X117179285Y-109378571D01*
X116429285Y-109378571D02*
X117179285Y-108878571D01*
X135030714Y-105807143D02*
X135030714Y-106378571D01*
X134959285Y-106557143D02*
X134209285Y-106557143D01*
X134209285Y-106735714D01*
X134245000Y-106842857D01*
X134316428Y-106914286D01*
X134387857Y-106950000D01*
X134530714Y-106985714D01*
X134637857Y-106985714D01*
X134780714Y-106950000D01*
X134852142Y-106914286D01*
X134923571Y-106842857D01*
X134959285Y-106735714D01*
X134959285Y-106557143D01*
X134959285Y-107307143D02*
X134209285Y-107307143D01*
X134959285Y-107735714D02*
X134530714Y-107414286D01*
X134209285Y-107735714D02*
X134637857Y-107307143D01*
X134209285Y-107985714D02*
X134959285Y-108164286D01*
X134423571Y-108307143D01*
X134959285Y-108450000D01*
X134209285Y-108628571D01*
X134959285Y-108914286D02*
X134209285Y-108914286D01*
X134209285Y-109092857D01*
X134245000Y-109200000D01*
X134316428Y-109271429D01*
X134387857Y-109307143D01*
X134530714Y-109342857D01*
X134637857Y-109342857D01*
X134780714Y-109307143D01*
X134852142Y-109271429D01*
X134923571Y-109200000D01*
X134959285Y-109092857D01*
X134959285Y-108914286D01*
X129879285Y-107807143D02*
X129129285Y-107807143D01*
X129129285Y-107985714D01*
X129165000Y-108092857D01*
X129236428Y-108164285D01*
X129307857Y-108200000D01*
X129450714Y-108235714D01*
X129557857Y-108235714D01*
X129700714Y-108200000D01*
X129772142Y-108164285D01*
X129843571Y-108092857D01*
X129879285Y-107985714D01*
X129879285Y-107807143D01*
X129879285Y-108557143D02*
X129129285Y-108557143D01*
X129879285Y-109342857D02*
X129522142Y-109092857D01*
X129879285Y-108914285D02*
X129129285Y-108914285D01*
X129129285Y-109200000D01*
X129165000Y-109271428D01*
X129200714Y-109307143D01*
X129272142Y-109342857D01*
X129379285Y-109342857D01*
X129450714Y-109307143D01*
X129486428Y-109271428D01*
X129522142Y-109200000D01*
X129522142Y-108914285D01*
X132490714Y-106199999D02*
X132490714Y-106771428D01*
X132383571Y-106914285D02*
X132419285Y-107021428D01*
X132419285Y-107199999D01*
X132383571Y-107271428D01*
X132347857Y-107307142D01*
X132276428Y-107342857D01*
X132205000Y-107342857D01*
X132133571Y-107307142D01*
X132097857Y-107271428D01*
X132062142Y-107199999D01*
X132026428Y-107057142D01*
X131990714Y-106985714D01*
X131955000Y-106949999D01*
X131883571Y-106914285D01*
X131812142Y-106914285D01*
X131740714Y-106949999D01*
X131705000Y-106985714D01*
X131669285Y-107057142D01*
X131669285Y-107235714D01*
X131705000Y-107342857D01*
X131669285Y-107557142D02*
X131669285Y-107985714D01*
X132419285Y-107771428D02*
X131669285Y-107771428D01*
X132026428Y-108235714D02*
X132026428Y-108485714D01*
X132419285Y-108592857D02*
X132419285Y-108235714D01*
X131669285Y-108235714D01*
X131669285Y-108592857D01*
X132419285Y-108914285D02*
X131669285Y-108914285D01*
X131669285Y-109199999D01*
X131705000Y-109271428D01*
X131740714Y-109307142D01*
X131812142Y-109342857D01*
X131919285Y-109342857D01*
X131990714Y-109307142D01*
X132026428Y-109271428D01*
X132062142Y-109199999D01*
X132062142Y-108914285D01*
X145190714Y-105914285D02*
X145190714Y-106485714D01*
X145119285Y-106664285D02*
X144369285Y-106664285D01*
X144369285Y-106842857D01*
X144405000Y-106950000D01*
X144476428Y-107021428D01*
X144547857Y-107057142D01*
X144690714Y-107092857D01*
X144797857Y-107092857D01*
X144940714Y-107057142D01*
X145012142Y-107021428D01*
X145083571Y-106950000D01*
X145119285Y-106842857D01*
X145119285Y-106664285D01*
X145119285Y-107414285D02*
X144369285Y-107414285D01*
X145119285Y-107842857D02*
X144690714Y-107521428D01*
X144369285Y-107842857D02*
X144797857Y-107414285D01*
X145119285Y-108592857D02*
X144762142Y-108342857D01*
X145119285Y-108164285D02*
X144369285Y-108164285D01*
X144369285Y-108450000D01*
X144405000Y-108521428D01*
X144440714Y-108557142D01*
X144512142Y-108592857D01*
X144619285Y-108592857D01*
X144690714Y-108557142D01*
X144726428Y-108521428D01*
X144762142Y-108450000D01*
X144762142Y-108164285D01*
X145119285Y-108914285D02*
X144369285Y-108914285D01*
X144369285Y-109092857D01*
X144405000Y-109200000D01*
X144476428Y-109271428D01*
X144547857Y-109307142D01*
X144690714Y-109342857D01*
X144797857Y-109342857D01*
X144940714Y-109307142D01*
X145012142Y-109271428D01*
X145083571Y-109200000D01*
X145119285Y-109092857D01*
X145119285Y-108914285D01*
X142650714Y-104449999D02*
X142650714Y-105021428D01*
X141829285Y-105128571D02*
X142579285Y-105307142D01*
X142043571Y-105449999D01*
X142579285Y-105592857D01*
X141829285Y-105771428D01*
X142579285Y-106485714D02*
X142222142Y-106235714D01*
X142579285Y-106057142D02*
X141829285Y-106057142D01*
X141829285Y-106342857D01*
X141865000Y-106414285D01*
X141900714Y-106449999D01*
X141972142Y-106485714D01*
X142079285Y-106485714D01*
X142150714Y-106449999D01*
X142186428Y-106414285D01*
X142222142Y-106342857D01*
X142222142Y-106057142D01*
X142579285Y-106807142D02*
X141829285Y-106807142D01*
X141829285Y-107092857D01*
X141865000Y-107164285D01*
X141900714Y-107199999D01*
X141972142Y-107235714D01*
X142079285Y-107235714D01*
X142150714Y-107199999D01*
X142186428Y-107164285D01*
X142222142Y-107092857D01*
X142222142Y-106807142D01*
X142579285Y-107985714D02*
X142222142Y-107735714D01*
X142579285Y-107557142D02*
X141829285Y-107557142D01*
X141829285Y-107842857D01*
X141865000Y-107914285D01*
X141900714Y-107949999D01*
X141972142Y-107985714D01*
X142079285Y-107985714D01*
X142150714Y-107949999D01*
X142186428Y-107914285D01*
X142222142Y-107842857D01*
X142222142Y-107557142D01*
X141829285Y-108449999D02*
X141829285Y-108592857D01*
X141865000Y-108664285D01*
X141936428Y-108735714D01*
X142079285Y-108771428D01*
X142329285Y-108771428D01*
X142472142Y-108735714D01*
X142543571Y-108664285D01*
X142579285Y-108592857D01*
X142579285Y-108449999D01*
X142543571Y-108378571D01*
X142472142Y-108307142D01*
X142329285Y-108271428D01*
X142079285Y-108271428D01*
X141936428Y-108307142D01*
X141865000Y-108378571D01*
X141829285Y-108449999D01*
X141829285Y-108985714D02*
X141829285Y-109414285D01*
X142579285Y-109199999D02*
X141829285Y-109199999D01*
X137570714Y-105878571D02*
X137570714Y-106450000D01*
X137499285Y-106628571D02*
X136749285Y-106628571D01*
X136749285Y-106807143D01*
X136785000Y-106914285D01*
X136856428Y-106985714D01*
X136927857Y-107021428D01*
X137070714Y-107057143D01*
X137177857Y-107057143D01*
X137320714Y-107021428D01*
X137392142Y-106985714D01*
X137463571Y-106914285D01*
X137499285Y-106807143D01*
X137499285Y-106628571D01*
X137499285Y-107378571D02*
X136749285Y-107378571D01*
X137499285Y-107807143D02*
X137070714Y-107485714D01*
X136749285Y-107807143D02*
X137177857Y-107378571D01*
X136749285Y-108057143D02*
X137499285Y-108235714D01*
X136963571Y-108378571D01*
X137499285Y-108521428D01*
X136749285Y-108700000D01*
X137106428Y-108985714D02*
X137106428Y-109235714D01*
X137499285Y-109342857D02*
X137499285Y-108985714D01*
X136749285Y-108985714D01*
X136749285Y-109342857D01*
X140110714Y-106128571D02*
X140110714Y-106700000D01*
X139289285Y-106771428D02*
X139289285Y-107200000D01*
X140039285Y-106985714D02*
X139289285Y-106985714D01*
X140039285Y-107878571D02*
X139682142Y-107628571D01*
X140039285Y-107450000D02*
X139289285Y-107450000D01*
X139289285Y-107735714D01*
X139325000Y-107807143D01*
X139360714Y-107842857D01*
X139432142Y-107878571D01*
X139539285Y-107878571D01*
X139610714Y-107842857D01*
X139646428Y-107807143D01*
X139682142Y-107735714D01*
X139682142Y-107450000D01*
X140039285Y-108200000D02*
X139289285Y-108200000D01*
X140039285Y-108628571D02*
X139610714Y-108307143D01*
X139289285Y-108628571D02*
X139717857Y-108200000D01*
X139289285Y-109092857D02*
X139289285Y-109164285D01*
X139325000Y-109235714D01*
X139360714Y-109271428D01*
X139432142Y-109307143D01*
X139575000Y-109342857D01*
X139753571Y-109342857D01*
X139896428Y-109307143D01*
X139967857Y-109271428D01*
X140003571Y-109235714D01*
X140039285Y-109164285D01*
X140039285Y-109092857D01*
X140003571Y-109021428D01*
X139967857Y-108985714D01*
X139896428Y-108950000D01*
X139753571Y-108914285D01*
X139575000Y-108914285D01*
X139432142Y-108950000D01*
X139360714Y-108985714D01*
X139325000Y-109021428D01*
X139289285Y-109092857D01*
X147730714Y-106414285D02*
X147730714Y-106985714D01*
X147623571Y-107128571D02*
X147659285Y-107235714D01*
X147659285Y-107414285D01*
X147623571Y-107485714D01*
X147587857Y-107521428D01*
X147516428Y-107557142D01*
X147445000Y-107557142D01*
X147373571Y-107521428D01*
X147337857Y-107485714D01*
X147302142Y-107414285D01*
X147266428Y-107271428D01*
X147230714Y-107200000D01*
X147195000Y-107164285D01*
X147123571Y-107128571D01*
X147052142Y-107128571D01*
X146980714Y-107164285D01*
X146945000Y-107200000D01*
X146909285Y-107271428D01*
X146909285Y-107450000D01*
X146945000Y-107557142D01*
X147659285Y-107878571D02*
X146909285Y-107878571D01*
X147659285Y-108235714D02*
X146909285Y-108235714D01*
X146909285Y-108414285D01*
X146945000Y-108521428D01*
X147016428Y-108592857D01*
X147087857Y-108628571D01*
X147230714Y-108664285D01*
X147337857Y-108664285D01*
X147480714Y-108628571D01*
X147552142Y-108592857D01*
X147623571Y-108521428D01*
X147659285Y-108414285D01*
X147659285Y-108235714D01*
X147266428Y-108985714D02*
X147266428Y-109235714D01*
X147659285Y-109342857D02*
X147659285Y-108985714D01*
X146909285Y-108985714D01*
X146909285Y-109342857D01*
X144429238Y-85891666D02*
X143953047Y-85891666D01*
X144524476Y-86177380D02*
X144191142Y-85177380D01*
X143857809Y-86177380D01*
X143524476Y-86177380D02*
X143524476Y-85510714D01*
X143524476Y-85605952D02*
X143476857Y-85558333D01*
X143381619Y-85510714D01*
X143238761Y-85510714D01*
X143143523Y-85558333D01*
X143095904Y-85653571D01*
X143095904Y-86177380D01*
X143095904Y-85653571D02*
X143048285Y-85558333D01*
X142953047Y-85510714D01*
X142810190Y-85510714D01*
X142714952Y-85558333D01*
X142667333Y-85653571D01*
X142667333Y-86177380D01*
X142191142Y-86177380D02*
X142191142Y-85510714D01*
X142191142Y-85177380D02*
X142238761Y-85225000D01*
X142191142Y-85272619D01*
X142143523Y-85225000D01*
X142191142Y-85177380D01*
X142191142Y-85272619D01*
X141286380Y-85510714D02*
X141286380Y-86320238D01*
X141334000Y-86415476D01*
X141381619Y-86463095D01*
X141476857Y-86510714D01*
X141619714Y-86510714D01*
X141714952Y-86463095D01*
X141286380Y-86129761D02*
X141381619Y-86177380D01*
X141572095Y-86177380D01*
X141667333Y-86129761D01*
X141714952Y-86082142D01*
X141762571Y-85986904D01*
X141762571Y-85701190D01*
X141714952Y-85605952D01*
X141667333Y-85558333D01*
X141572095Y-85510714D01*
X141381619Y-85510714D01*
X141286380Y-85558333D01*
X140381619Y-86177380D02*
X140381619Y-85653571D01*
X140429238Y-85558333D01*
X140524476Y-85510714D01*
X140714952Y-85510714D01*
X140810190Y-85558333D01*
X140381619Y-86129761D02*
X140476857Y-86177380D01*
X140714952Y-86177380D01*
X140810190Y-86129761D01*
X140857809Y-86034523D01*
X140857809Y-85939285D01*
X140810190Y-85844047D01*
X140714952Y-85796428D01*
X140476857Y-85796428D01*
X140381619Y-85748809D01*
X139238761Y-85177380D02*
X138619714Y-85177380D01*
X138953047Y-85558333D01*
X138810190Y-85558333D01*
X138714952Y-85605952D01*
X138667333Y-85653571D01*
X138619714Y-85748809D01*
X138619714Y-85986904D01*
X138667333Y-86082142D01*
X138714952Y-86129761D01*
X138810190Y-86177380D01*
X139095904Y-86177380D01*
X139191142Y-86129761D01*
X139238761Y-86082142D01*
X137762571Y-85510714D02*
X137762571Y-86177380D01*
X138000666Y-85129761D02*
X138238761Y-85844047D01*
X137619714Y-85844047D01*
X137238761Y-85796428D02*
X136476857Y-85796428D01*
X136000666Y-85510714D02*
X136000666Y-86510714D01*
X136000666Y-85558333D02*
X135905428Y-85510714D01*
X135714952Y-85510714D01*
X135619714Y-85558333D01*
X135572095Y-85605952D01*
X135524476Y-85701190D01*
X135524476Y-85986904D01*
X135572095Y-86082142D01*
X135619714Y-86129761D01*
X135714952Y-86177380D01*
X135905428Y-86177380D01*
X136000666Y-86129761D01*
X135095904Y-86177380D02*
X135095904Y-85510714D01*
X135095904Y-85177380D02*
X135143523Y-85225000D01*
X135095904Y-85272619D01*
X135048285Y-85225000D01*
X135095904Y-85177380D01*
X135095904Y-85272619D01*
X134619714Y-85510714D02*
X134619714Y-86177380D01*
X134619714Y-85605952D02*
X134572095Y-85558333D01*
X134476857Y-85510714D01*
X134334000Y-85510714D01*
X134238761Y-85558333D01*
X134191142Y-85653571D01*
X134191142Y-86177380D01*
X132619714Y-85653571D02*
X132953047Y-85653571D01*
X132953047Y-86177380D02*
X132953047Y-85177380D01*
X132476857Y-85177380D01*
X131953047Y-86177380D02*
X132048285Y-86129761D01*
X132095904Y-86034523D01*
X132095904Y-85177380D01*
X131429238Y-86177380D02*
X131524476Y-86129761D01*
X131572095Y-86082142D01*
X131619714Y-85986904D01*
X131619714Y-85701190D01*
X131572095Y-85605952D01*
X131524476Y-85558333D01*
X131429238Y-85510714D01*
X131286380Y-85510714D01*
X131191142Y-85558333D01*
X131143523Y-85605952D01*
X131095904Y-85701190D01*
X131095904Y-85986904D01*
X131143523Y-86082142D01*
X131191142Y-86129761D01*
X131286380Y-86177380D01*
X131429238Y-86177380D01*
X130667333Y-85510714D02*
X130667333Y-86510714D01*
X130667333Y-85558333D02*
X130572095Y-85510714D01*
X130381619Y-85510714D01*
X130286380Y-85558333D01*
X130238761Y-85605952D01*
X130191142Y-85701190D01*
X130191142Y-85986904D01*
X130238761Y-86082142D01*
X130286380Y-86129761D01*
X130381619Y-86177380D01*
X130572095Y-86177380D01*
X130667333Y-86129761D01*
X129762571Y-85510714D02*
X129762571Y-86510714D01*
X129762571Y-85558333D02*
X129667333Y-85510714D01*
X129476857Y-85510714D01*
X129381619Y-85558333D01*
X129334000Y-85605952D01*
X129286380Y-85701190D01*
X129286380Y-85986904D01*
X129334000Y-86082142D01*
X129381619Y-86129761D01*
X129476857Y-86177380D01*
X129667333Y-86177380D01*
X129762571Y-86129761D01*
X128953047Y-85510714D02*
X128714952Y-86177380D01*
X128476857Y-85510714D02*
X128714952Y-86177380D01*
X128810190Y-86415476D01*
X128857809Y-86463095D01*
X128953047Y-86510714D01*
X126762571Y-86082142D02*
X126810190Y-86129761D01*
X126953047Y-86177380D01*
X127048285Y-86177380D01*
X127191142Y-86129761D01*
X127286380Y-86034523D01*
X127334000Y-85939285D01*
X127381619Y-85748809D01*
X127381619Y-85605952D01*
X127334000Y-85415476D01*
X127286380Y-85320238D01*
X127191142Y-85225000D01*
X127048285Y-85177380D01*
X126953047Y-85177380D01*
X126810190Y-85225000D01*
X126762571Y-85272619D01*
X126191142Y-86177380D02*
X126286380Y-86129761D01*
X126334000Y-86082142D01*
X126381619Y-85986904D01*
X126381619Y-85701190D01*
X126334000Y-85605952D01*
X126286380Y-85558333D01*
X126191142Y-85510714D01*
X126048285Y-85510714D01*
X125953047Y-85558333D01*
X125905428Y-85605952D01*
X125857809Y-85701190D01*
X125857809Y-85986904D01*
X125905428Y-86082142D01*
X125953047Y-86129761D01*
X126048285Y-86177380D01*
X126191142Y-86177380D01*
X125429238Y-85510714D02*
X125429238Y-86177380D01*
X125429238Y-85605952D02*
X125381619Y-85558333D01*
X125286380Y-85510714D01*
X125143523Y-85510714D01*
X125048285Y-85558333D01*
X125000666Y-85653571D01*
X125000666Y-86177380D01*
X124524476Y-85510714D02*
X124524476Y-86177380D01*
X124524476Y-85605952D02*
X124476857Y-85558333D01*
X124381619Y-85510714D01*
X124238761Y-85510714D01*
X124143523Y-85558333D01*
X124095904Y-85653571D01*
X124095904Y-86177380D01*
X123238761Y-86129761D02*
X123334000Y-86177380D01*
X123524476Y-86177380D01*
X123619714Y-86129761D01*
X123667333Y-86034523D01*
X123667333Y-85653571D01*
X123619714Y-85558333D01*
X123524476Y-85510714D01*
X123334000Y-85510714D01*
X123238761Y-85558333D01*
X123191142Y-85653571D01*
X123191142Y-85748809D01*
X123667333Y-85844047D01*
X122334000Y-86129761D02*
X122429238Y-86177380D01*
X122619714Y-86177380D01*
X122714952Y-86129761D01*
X122762571Y-86082142D01*
X122810190Y-85986904D01*
X122810190Y-85701190D01*
X122762571Y-85605952D01*
X122714952Y-85558333D01*
X122619714Y-85510714D01*
X122429238Y-85510714D01*
X122334000Y-85558333D01*
X122048285Y-85510714D02*
X121667333Y-85510714D01*
X121905428Y-85177380D02*
X121905428Y-86034523D01*
X121857809Y-86129761D01*
X121762571Y-86177380D01*
X121667333Y-86177380D01*
X121191142Y-86177380D02*
X121286380Y-86129761D01*
X121334000Y-86082142D01*
X121381619Y-85986904D01*
X121381619Y-85701190D01*
X121334000Y-85605952D01*
X121286380Y-85558333D01*
X121191142Y-85510714D01*
X121048285Y-85510714D01*
X120953047Y-85558333D01*
X120905428Y-85605952D01*
X120857809Y-85701190D01*
X120857809Y-85986904D01*
X120905428Y-86082142D01*
X120953047Y-86129761D01*
X121048285Y-86177380D01*
X121191142Y-86177380D01*
X120429238Y-86177380D02*
X120429238Y-85510714D01*
X120429238Y-85701190D02*
X120381619Y-85605952D01*
X120334000Y-85558333D01*
X120238761Y-85510714D01*
X120143523Y-85510714D01*
X151256857Y-110065428D02*
X151185428Y-109994000D01*
X151042571Y-109922571D01*
X150685428Y-109922571D01*
X150542571Y-109994000D01*
X150471142Y-110065428D01*
X150399714Y-110208285D01*
X150399714Y-110351142D01*
X150471142Y-110565428D01*
X151328285Y-111422571D01*
X150399714Y-111422571D01*
X149114000Y-109922571D02*
X149399714Y-109922571D01*
X149542571Y-109994000D01*
X149614000Y-110065428D01*
X149756857Y-110279714D01*
X149828285Y-110565428D01*
X149828285Y-111136857D01*
X149756857Y-111279714D01*
X149685428Y-111351142D01*
X149542571Y-111422571D01*
X149256857Y-111422571D01*
X149114000Y-111351142D01*
X149042571Y-111279714D01*
X148971142Y-111136857D01*
X148971142Y-110779714D01*
X149042571Y-110636857D01*
X149114000Y-110565428D01*
X149256857Y-110494000D01*
X149542571Y-110494000D01*
X149685428Y-110565428D01*
X149756857Y-110636857D01*
X149828285Y-110779714D01*
X110180285Y-96714571D02*
X109251714Y-96714571D01*
X109751714Y-97286000D01*
X109537428Y-97286000D01*
X109394571Y-97357428D01*
X109323142Y-97428857D01*
X109251714Y-97571714D01*
X109251714Y-97928857D01*
X109323142Y-98071714D01*
X109394571Y-98143142D01*
X109537428Y-98214571D01*
X109966000Y-98214571D01*
X110108857Y-98143142D01*
X110180285Y-98071714D01*
X107966000Y-97214571D02*
X107966000Y-98214571D01*
X108323142Y-96643142D02*
X108680285Y-97714571D01*
X107751714Y-97714571D01*
X104203571Y-92979761D02*
X105346428Y-92979761D01*
X104775000Y-92979761D02*
X104775000Y-90979761D01*
X104965476Y-91265476D01*
X105155952Y-91455952D01*
X105346428Y-91551190D01*
X103639380Y-103052571D02*
X103972714Y-103052571D01*
X103972714Y-103576380D02*
X103972714Y-102576380D01*
X103496523Y-102576380D01*
X102972714Y-103576380D02*
X103067952Y-103528761D01*
X103115571Y-103433523D01*
X103115571Y-102576380D01*
X102448904Y-103576380D02*
X102544142Y-103528761D01*
X102591761Y-103481142D01*
X102639380Y-103385904D01*
X102639380Y-103100190D01*
X102591761Y-103004952D01*
X102544142Y-102957333D01*
X102448904Y-102909714D01*
X102306047Y-102909714D01*
X102210809Y-102957333D01*
X102163190Y-103004952D01*
X102115571Y-103100190D01*
X102115571Y-103385904D01*
X102163190Y-103481142D01*
X102210809Y-103528761D01*
X102306047Y-103576380D01*
X102448904Y-103576380D01*
X101687000Y-102909714D02*
X101687000Y-103909714D01*
X101687000Y-102957333D02*
X101591761Y-102909714D01*
X101401285Y-102909714D01*
X101306047Y-102957333D01*
X101258428Y-103004952D01*
X101210809Y-103100190D01*
X101210809Y-103385904D01*
X101258428Y-103481142D01*
X101306047Y-103528761D01*
X101401285Y-103576380D01*
X101591761Y-103576380D01*
X101687000Y-103528761D01*
X100782238Y-102909714D02*
X100782238Y-103909714D01*
X100782238Y-102957333D02*
X100687000Y-102909714D01*
X100496523Y-102909714D01*
X100401285Y-102957333D01*
X100353666Y-103004952D01*
X100306047Y-103100190D01*
X100306047Y-103385904D01*
X100353666Y-103481142D01*
X100401285Y-103528761D01*
X100496523Y-103576380D01*
X100687000Y-103576380D01*
X100782238Y-103528761D01*
X99972714Y-102909714D02*
X99734619Y-103576380D01*
X99496523Y-102909714D02*
X99734619Y-103576380D01*
X99829857Y-103814476D01*
X99877476Y-103862095D01*
X99972714Y-103909714D01*
X98353666Y-103576380D02*
X98353666Y-102576380D01*
X97972714Y-102576380D01*
X97877476Y-102624000D01*
X97829857Y-102671619D01*
X97782238Y-102766857D01*
X97782238Y-102909714D01*
X97829857Y-103004952D01*
X97877476Y-103052571D01*
X97972714Y-103100190D01*
X98353666Y-103100190D01*
X97210809Y-103576380D02*
X97306047Y-103528761D01*
X97353666Y-103481142D01*
X97401285Y-103385904D01*
X97401285Y-103100190D01*
X97353666Y-103004952D01*
X97306047Y-102957333D01*
X97210809Y-102909714D01*
X97067952Y-102909714D01*
X96972714Y-102957333D01*
X96925095Y-103004952D01*
X96877476Y-103100190D01*
X96877476Y-103385904D01*
X96925095Y-103481142D01*
X96972714Y-103528761D01*
X97067952Y-103576380D01*
X97210809Y-103576380D01*
X96544142Y-102909714D02*
X96353666Y-103576380D01*
X96163190Y-103100190D01*
X95972714Y-103576380D01*
X95782238Y-102909714D01*
X95020333Y-103528761D02*
X95115571Y-103576380D01*
X95306047Y-103576380D01*
X95401285Y-103528761D01*
X95448904Y-103433523D01*
X95448904Y-103052571D01*
X95401285Y-102957333D01*
X95306047Y-102909714D01*
X95115571Y-102909714D01*
X95020333Y-102957333D01*
X94972714Y-103052571D01*
X94972714Y-103147809D01*
X95448904Y-103243047D01*
X94544142Y-103576380D02*
X94544142Y-102909714D01*
X94544142Y-103100190D02*
X94496523Y-103004952D01*
X94448904Y-102957333D01*
X94353666Y-102909714D01*
X94258428Y-102909714D01*
X95716285Y-99873714D02*
X94966285Y-99873714D01*
X95716285Y-100302285D01*
X94966285Y-100302285D01*
X95644857Y-101088000D02*
X95680571Y-101052285D01*
X95716285Y-100945142D01*
X95716285Y-100873714D01*
X95680571Y-100766571D01*
X95609142Y-100695142D01*
X95537714Y-100659428D01*
X95394857Y-100623714D01*
X95287714Y-100623714D01*
X95144857Y-100659428D01*
X95073428Y-100695142D01*
X95002000Y-100766571D01*
X94966285Y-100873714D01*
X94966285Y-100945142D01*
X95002000Y-101052285D01*
X95037714Y-101088000D01*
X97542000Y-100266571D02*
X97506285Y-100195142D01*
X97506285Y-100088000D01*
X97542000Y-99980857D01*
X97613428Y-99909428D01*
X97684857Y-99873714D01*
X97827714Y-99838000D01*
X97934857Y-99838000D01*
X98077714Y-99873714D01*
X98149142Y-99909428D01*
X98220571Y-99980857D01*
X98256285Y-100088000D01*
X98256285Y-100159428D01*
X98220571Y-100266571D01*
X98184857Y-100302285D01*
X97934857Y-100302285D01*
X97934857Y-100159428D01*
X98256285Y-100623714D02*
X97506285Y-100623714D01*
X98256285Y-101052285D01*
X97506285Y-101052285D01*
X98256285Y-101409428D02*
X97506285Y-101409428D01*
X97506285Y-101588000D01*
X97542000Y-101695142D01*
X97613428Y-101766571D01*
X97684857Y-101802285D01*
X97827714Y-101838000D01*
X97934857Y-101838000D01*
X98077714Y-101802285D01*
X98149142Y-101766571D01*
X98220571Y-101695142D01*
X98256285Y-101588000D01*
X98256285Y-101409428D01*
X100082000Y-100266571D02*
X100046285Y-100195142D01*
X100046285Y-100088000D01*
X100082000Y-99980857D01*
X100153428Y-99909428D01*
X100224857Y-99873714D01*
X100367714Y-99838000D01*
X100474857Y-99838000D01*
X100617714Y-99873714D01*
X100689142Y-99909428D01*
X100760571Y-99980857D01*
X100796285Y-100088000D01*
X100796285Y-100159428D01*
X100760571Y-100266571D01*
X100724857Y-100302285D01*
X100474857Y-100302285D01*
X100474857Y-100159428D01*
X100796285Y-100623714D02*
X100046285Y-100623714D01*
X100796285Y-101052285D01*
X100046285Y-101052285D01*
X100796285Y-101409428D02*
X100046285Y-101409428D01*
X100046285Y-101588000D01*
X100082000Y-101695142D01*
X100153428Y-101766571D01*
X100224857Y-101802285D01*
X100367714Y-101838000D01*
X100474857Y-101838000D01*
X100617714Y-101802285D01*
X100689142Y-101766571D01*
X100760571Y-101695142D01*
X100796285Y-101588000D01*
X100796285Y-101409428D01*
X103050571Y-99873714D02*
X103050571Y-100445142D01*
X103336285Y-100159428D02*
X102764857Y-100159428D01*
X102586285Y-101159428D02*
X102586285Y-100802285D01*
X102943428Y-100766571D01*
X102907714Y-100802285D01*
X102872000Y-100873714D01*
X102872000Y-101052285D01*
X102907714Y-101123714D01*
X102943428Y-101159428D01*
X103014857Y-101195142D01*
X103193428Y-101195142D01*
X103264857Y-101159428D01*
X103300571Y-101123714D01*
X103336285Y-101052285D01*
X103336285Y-100873714D01*
X103300571Y-100802285D01*
X103264857Y-100766571D01*
X102586285Y-101409428D02*
X103336285Y-101659428D01*
X102586285Y-101909428D01*
M02*
