M48
INCH,TZ
T1C0.0197
T2C0.0394
%
G90
G05
T1
X49000Y-38500
X58000Y-35500
X44000Y-35500
X57000Y-38500
X51000Y-35500
X58000Y-38500
X55000Y-35500
X59000Y-35500
X53000Y-35500
X46000Y-38500
X56000Y-35500
X54000Y-43500
X58000Y-46500
X47000Y-43500
X51000Y-46500
X37500Y-38750
X56000Y-46500
X39500Y-36250
X55000Y-38500
X52000Y-43500
X55000Y-43500
X56000Y-38500
X40500Y-38750
X47000Y-35500
X51000Y-38500
X52000Y-35500
X54000Y-46500
X48000Y-38500
X45000Y-35500
X47000Y-46500
X45000Y-38500
X57000Y-35500
X49000Y-43500
X55000Y-46500
X44000Y-38500
X49000Y-35500
X40500Y-36250
X48000Y-46500
X53000Y-43500
X52000Y-46500
X37500Y-36250
X49000Y-46500
X47000Y-38500
X38500Y-36250
X57000Y-43500
X60000Y-38500
X53000Y-38500
X38500Y-38750
X48000Y-35500
X54000Y-38500
X50000Y-35500
X52000Y-38500
X54000Y-35500
X53000Y-46500
X59000Y-38500
X46000Y-35500
X60000Y-35500
X58000Y-43500
X39500Y-38750
X57000Y-46500
X50000Y-43500
X50000Y-46500
X51000Y-43500
X48000Y-43500
X46000Y-46500
X50000Y-38500
X46000Y-43500
X56000Y-43500
T2
X37500Y-37500
X38500Y-37500
X39500Y-37500
X40500Y-37500
X46000Y-44500
X46000Y-45500
X47000Y-44500
X47000Y-45500
X48000Y-44500
X48000Y-45500
X49000Y-44500
X49000Y-45500
X50000Y-44500
X50000Y-45500
X51000Y-44500
X51000Y-45500
X52000Y-44500
X52000Y-45500
X53000Y-44500
X53000Y-45500
X54000Y-44500
X54000Y-45500
X55000Y-44500
X55000Y-45500
X56000Y-44500
X56000Y-45500
X57000Y-44500
X57000Y-45500
X58000Y-44500
X58000Y-45500
X44000Y-36500
X44000Y-37500
X45000Y-36500
X45000Y-37500
X46000Y-36500
X46000Y-37500
X47000Y-36500
X47000Y-37500
X48000Y-36500
X48000Y-37500
X49000Y-36500
X49000Y-37500
X50000Y-36500
X50000Y-37500
X51000Y-36500
X51000Y-37500
X52000Y-36500
X52000Y-37500
X53000Y-36500
X53000Y-37500
X54000Y-36500
X54000Y-37500
X55000Y-36500
X55000Y-37500
X56000Y-36500
X56000Y-37500
X57000Y-36500
X57000Y-37500
X58000Y-36500
X58000Y-37500
X59000Y-36500
X59000Y-37500
X60000Y-36500
X60000Y-37500
T0
M30
