G04 #@! TF.GenerationSoftware,KiCad,Pcbnew,(5.1.2)-2*
G04 #@! TF.CreationDate,2020-12-20T10:42:53+00:00*
G04 #@! TF.ProjectId,Amiga 34-pin to Citizen Slim 26-pin Adapter (Design A),416d6967-6120-4333-942d-70696e20746f,rev?*
G04 #@! TF.SameCoordinates,Original*
G04 #@! TF.FileFunction,Soldermask,Bot*
G04 #@! TF.FilePolarity,Negative*
%FSLAX46Y46*%
G04 Gerber Fmt 4.6, Leading zero omitted, Abs format (unit mm)*
G04 Created by KiCad (PCBNEW (5.1.2)-2) date 2020-12-20 10:42:53*
%MOMM*%
%LPD*%
G04 APERTURE LIST*
%ADD10C,0.100000*%
G04 APERTURE END LIST*
D10*
G36*
X158974549Y-120156116D02*
G01*
X159085734Y-120178232D01*
X159295203Y-120264997D01*
X159483720Y-120390960D01*
X159644040Y-120551280D01*
X159770003Y-120739797D01*
X159856768Y-120949266D01*
X159901000Y-121171636D01*
X159901000Y-121398364D01*
X159856768Y-121620734D01*
X159770003Y-121830203D01*
X159644040Y-122018720D01*
X159483720Y-122179040D01*
X159295203Y-122305003D01*
X159085734Y-122391768D01*
X158974549Y-122413884D01*
X158863365Y-122436000D01*
X158636635Y-122436000D01*
X158525451Y-122413884D01*
X158414266Y-122391768D01*
X158204797Y-122305003D01*
X158016280Y-122179040D01*
X157855960Y-122018720D01*
X157729997Y-121830203D01*
X157643232Y-121620734D01*
X157599000Y-121398364D01*
X157599000Y-121171636D01*
X157643232Y-120949266D01*
X157729997Y-120739797D01*
X157855960Y-120551280D01*
X158016280Y-120390960D01*
X158204797Y-120264997D01*
X158414266Y-120178232D01*
X158525451Y-120156116D01*
X158636635Y-120134000D01*
X158863365Y-120134000D01*
X158974549Y-120156116D01*
X158974549Y-120156116D01*
G37*
G36*
X94077549Y-120156116D02*
G01*
X94188734Y-120178232D01*
X94398203Y-120264997D01*
X94586720Y-120390960D01*
X94747040Y-120551280D01*
X94873003Y-120739797D01*
X94959768Y-120949266D01*
X95004000Y-121171636D01*
X95004000Y-121398364D01*
X94959768Y-121620734D01*
X94873003Y-121830203D01*
X94747040Y-122018720D01*
X94586720Y-122179040D01*
X94398203Y-122305003D01*
X94188734Y-122391768D01*
X94077549Y-122413884D01*
X93966365Y-122436000D01*
X93739635Y-122436000D01*
X93628451Y-122413884D01*
X93517266Y-122391768D01*
X93307797Y-122305003D01*
X93119280Y-122179040D01*
X92958960Y-122018720D01*
X92832997Y-121830203D01*
X92746232Y-121620734D01*
X92702000Y-121398364D01*
X92702000Y-121171636D01*
X92746232Y-120949266D01*
X92832997Y-120739797D01*
X92958960Y-120551280D01*
X93119280Y-120390960D01*
X93307797Y-120264997D01*
X93517266Y-120178232D01*
X93628451Y-120156116D01*
X93739635Y-120134000D01*
X93966365Y-120134000D01*
X94077549Y-120156116D01*
X94077549Y-120156116D01*
G37*
G36*
X132240721Y-117580174D02*
G01*
X132340995Y-117621709D01*
X132340996Y-117621710D01*
X132431242Y-117682010D01*
X132507990Y-117758758D01*
X132507991Y-117758760D01*
X132568291Y-117849005D01*
X132609826Y-117949279D01*
X132631000Y-118055730D01*
X132631000Y-118164270D01*
X132609826Y-118270721D01*
X132568291Y-118370995D01*
X132568290Y-118370996D01*
X132507990Y-118461242D01*
X132431242Y-118537990D01*
X132385812Y-118568345D01*
X132340995Y-118598291D01*
X132240721Y-118639826D01*
X132134270Y-118661000D01*
X132025730Y-118661000D01*
X131919279Y-118639826D01*
X131819005Y-118598291D01*
X131774188Y-118568345D01*
X131728758Y-118537990D01*
X131652010Y-118461242D01*
X131591710Y-118370996D01*
X131591709Y-118370995D01*
X131550174Y-118270721D01*
X131529000Y-118164270D01*
X131529000Y-118055730D01*
X131550174Y-117949279D01*
X131591709Y-117849005D01*
X131652009Y-117758760D01*
X131652010Y-117758758D01*
X131728758Y-117682010D01*
X131819004Y-117621710D01*
X131819005Y-117621709D01*
X131919279Y-117580174D01*
X132025730Y-117559000D01*
X132134270Y-117559000D01*
X132240721Y-117580174D01*
X132240721Y-117580174D01*
G37*
G36*
X137320721Y-117580174D02*
G01*
X137420995Y-117621709D01*
X137420996Y-117621710D01*
X137511242Y-117682010D01*
X137587990Y-117758758D01*
X137587991Y-117758760D01*
X137648291Y-117849005D01*
X137689826Y-117949279D01*
X137711000Y-118055730D01*
X137711000Y-118164270D01*
X137689826Y-118270721D01*
X137648291Y-118370995D01*
X137648290Y-118370996D01*
X137587990Y-118461242D01*
X137511242Y-118537990D01*
X137465812Y-118568345D01*
X137420995Y-118598291D01*
X137320721Y-118639826D01*
X137214270Y-118661000D01*
X137105730Y-118661000D01*
X136999279Y-118639826D01*
X136899005Y-118598291D01*
X136854188Y-118568345D01*
X136808758Y-118537990D01*
X136732010Y-118461242D01*
X136671710Y-118370996D01*
X136671709Y-118370995D01*
X136630174Y-118270721D01*
X136609000Y-118164270D01*
X136609000Y-118055730D01*
X136630174Y-117949279D01*
X136671709Y-117849005D01*
X136732009Y-117758760D01*
X136732010Y-117758758D01*
X136808758Y-117682010D01*
X136899004Y-117621710D01*
X136899005Y-117621709D01*
X136999279Y-117580174D01*
X137105730Y-117559000D01*
X137214270Y-117559000D01*
X137320721Y-117580174D01*
X137320721Y-117580174D01*
G37*
G36*
X139860721Y-117580174D02*
G01*
X139960995Y-117621709D01*
X139960996Y-117621710D01*
X140051242Y-117682010D01*
X140127990Y-117758758D01*
X140127991Y-117758760D01*
X140188291Y-117849005D01*
X140229826Y-117949279D01*
X140251000Y-118055730D01*
X140251000Y-118164270D01*
X140229826Y-118270721D01*
X140188291Y-118370995D01*
X140188290Y-118370996D01*
X140127990Y-118461242D01*
X140051242Y-118537990D01*
X140005812Y-118568345D01*
X139960995Y-118598291D01*
X139860721Y-118639826D01*
X139754270Y-118661000D01*
X139645730Y-118661000D01*
X139539279Y-118639826D01*
X139439005Y-118598291D01*
X139394188Y-118568345D01*
X139348758Y-118537990D01*
X139272010Y-118461242D01*
X139211710Y-118370996D01*
X139211709Y-118370995D01*
X139170174Y-118270721D01*
X139149000Y-118164270D01*
X139149000Y-118055730D01*
X139170174Y-117949279D01*
X139211709Y-117849005D01*
X139272009Y-117758760D01*
X139272010Y-117758758D01*
X139348758Y-117682010D01*
X139439004Y-117621710D01*
X139439005Y-117621709D01*
X139539279Y-117580174D01*
X139645730Y-117559000D01*
X139754270Y-117559000D01*
X139860721Y-117580174D01*
X139860721Y-117580174D01*
G37*
G36*
X134780721Y-117580174D02*
G01*
X134880995Y-117621709D01*
X134880996Y-117621710D01*
X134971242Y-117682010D01*
X135047990Y-117758758D01*
X135047991Y-117758760D01*
X135108291Y-117849005D01*
X135149826Y-117949279D01*
X135171000Y-118055730D01*
X135171000Y-118164270D01*
X135149826Y-118270721D01*
X135108291Y-118370995D01*
X135108290Y-118370996D01*
X135047990Y-118461242D01*
X134971242Y-118537990D01*
X134925812Y-118568345D01*
X134880995Y-118598291D01*
X134780721Y-118639826D01*
X134674270Y-118661000D01*
X134565730Y-118661000D01*
X134459279Y-118639826D01*
X134359005Y-118598291D01*
X134314188Y-118568345D01*
X134268758Y-118537990D01*
X134192010Y-118461242D01*
X134131710Y-118370996D01*
X134131709Y-118370995D01*
X134090174Y-118270721D01*
X134069000Y-118164270D01*
X134069000Y-118055730D01*
X134090174Y-117949279D01*
X134131709Y-117849005D01*
X134192009Y-117758760D01*
X134192010Y-117758758D01*
X134268758Y-117682010D01*
X134359004Y-117621710D01*
X134359005Y-117621709D01*
X134459279Y-117580174D01*
X134565730Y-117559000D01*
X134674270Y-117559000D01*
X134780721Y-117580174D01*
X134780721Y-117580174D01*
G37*
G36*
X142400721Y-117580174D02*
G01*
X142500995Y-117621709D01*
X142500996Y-117621710D01*
X142591242Y-117682010D01*
X142667990Y-117758758D01*
X142667991Y-117758760D01*
X142728291Y-117849005D01*
X142769826Y-117949279D01*
X142791000Y-118055730D01*
X142791000Y-118164270D01*
X142769826Y-118270721D01*
X142728291Y-118370995D01*
X142728290Y-118370996D01*
X142667990Y-118461242D01*
X142591242Y-118537990D01*
X142545812Y-118568345D01*
X142500995Y-118598291D01*
X142400721Y-118639826D01*
X142294270Y-118661000D01*
X142185730Y-118661000D01*
X142079279Y-118639826D01*
X141979005Y-118598291D01*
X141934188Y-118568345D01*
X141888758Y-118537990D01*
X141812010Y-118461242D01*
X141751710Y-118370996D01*
X141751709Y-118370995D01*
X141710174Y-118270721D01*
X141689000Y-118164270D01*
X141689000Y-118055730D01*
X141710174Y-117949279D01*
X141751709Y-117849005D01*
X141812009Y-117758760D01*
X141812010Y-117758758D01*
X141888758Y-117682010D01*
X141979004Y-117621710D01*
X141979005Y-117621709D01*
X142079279Y-117580174D01*
X142185730Y-117559000D01*
X142294270Y-117559000D01*
X142400721Y-117580174D01*
X142400721Y-117580174D01*
G37*
G36*
X144940721Y-117580174D02*
G01*
X145040995Y-117621709D01*
X145040996Y-117621710D01*
X145131242Y-117682010D01*
X145207990Y-117758758D01*
X145207991Y-117758760D01*
X145268291Y-117849005D01*
X145309826Y-117949279D01*
X145331000Y-118055730D01*
X145331000Y-118164270D01*
X145309826Y-118270721D01*
X145268291Y-118370995D01*
X145268290Y-118370996D01*
X145207990Y-118461242D01*
X145131242Y-118537990D01*
X145085812Y-118568345D01*
X145040995Y-118598291D01*
X144940721Y-118639826D01*
X144834270Y-118661000D01*
X144725730Y-118661000D01*
X144619279Y-118639826D01*
X144519005Y-118598291D01*
X144474188Y-118568345D01*
X144428758Y-118537990D01*
X144352010Y-118461242D01*
X144291710Y-118370996D01*
X144291709Y-118370995D01*
X144250174Y-118270721D01*
X144229000Y-118164270D01*
X144229000Y-118055730D01*
X144250174Y-117949279D01*
X144291709Y-117849005D01*
X144352009Y-117758760D01*
X144352010Y-117758758D01*
X144428758Y-117682010D01*
X144519004Y-117621710D01*
X144519005Y-117621709D01*
X144619279Y-117580174D01*
X144725730Y-117559000D01*
X144834270Y-117559000D01*
X144940721Y-117580174D01*
X144940721Y-117580174D01*
G37*
G36*
X147480721Y-117580174D02*
G01*
X147580995Y-117621709D01*
X147580996Y-117621710D01*
X147671242Y-117682010D01*
X147747990Y-117758758D01*
X147747991Y-117758760D01*
X147808291Y-117849005D01*
X147849826Y-117949279D01*
X147871000Y-118055730D01*
X147871000Y-118164270D01*
X147849826Y-118270721D01*
X147808291Y-118370995D01*
X147808290Y-118370996D01*
X147747990Y-118461242D01*
X147671242Y-118537990D01*
X147625812Y-118568345D01*
X147580995Y-118598291D01*
X147480721Y-118639826D01*
X147374270Y-118661000D01*
X147265730Y-118661000D01*
X147159279Y-118639826D01*
X147059005Y-118598291D01*
X147014188Y-118568345D01*
X146968758Y-118537990D01*
X146892010Y-118461242D01*
X146831710Y-118370996D01*
X146831709Y-118370995D01*
X146790174Y-118270721D01*
X146769000Y-118164270D01*
X146769000Y-118055730D01*
X146790174Y-117949279D01*
X146831709Y-117849005D01*
X146892009Y-117758760D01*
X146892010Y-117758758D01*
X146968758Y-117682010D01*
X147059004Y-117621710D01*
X147059005Y-117621709D01*
X147159279Y-117580174D01*
X147265730Y-117559000D01*
X147374270Y-117559000D01*
X147480721Y-117580174D01*
X147480721Y-117580174D01*
G37*
G36*
X129700721Y-117580174D02*
G01*
X129800995Y-117621709D01*
X129800996Y-117621710D01*
X129891242Y-117682010D01*
X129967990Y-117758758D01*
X129967991Y-117758760D01*
X130028291Y-117849005D01*
X130069826Y-117949279D01*
X130091000Y-118055730D01*
X130091000Y-118164270D01*
X130069826Y-118270721D01*
X130028291Y-118370995D01*
X130028290Y-118370996D01*
X129967990Y-118461242D01*
X129891242Y-118537990D01*
X129845812Y-118568345D01*
X129800995Y-118598291D01*
X129700721Y-118639826D01*
X129594270Y-118661000D01*
X129485730Y-118661000D01*
X129379279Y-118639826D01*
X129279005Y-118598291D01*
X129234188Y-118568345D01*
X129188758Y-118537990D01*
X129112010Y-118461242D01*
X129051710Y-118370996D01*
X129051709Y-118370995D01*
X129010174Y-118270721D01*
X128989000Y-118164270D01*
X128989000Y-118055730D01*
X129010174Y-117949279D01*
X129051709Y-117849005D01*
X129112009Y-117758760D01*
X129112010Y-117758758D01*
X129188758Y-117682010D01*
X129279004Y-117621710D01*
X129279005Y-117621709D01*
X129379279Y-117580174D01*
X129485730Y-117559000D01*
X129594270Y-117559000D01*
X129700721Y-117580174D01*
X129700721Y-117580174D01*
G37*
G36*
X119540721Y-117580174D02*
G01*
X119640995Y-117621709D01*
X119640996Y-117621710D01*
X119731242Y-117682010D01*
X119807990Y-117758758D01*
X119807991Y-117758760D01*
X119868291Y-117849005D01*
X119909826Y-117949279D01*
X119931000Y-118055730D01*
X119931000Y-118164270D01*
X119909826Y-118270721D01*
X119868291Y-118370995D01*
X119868290Y-118370996D01*
X119807990Y-118461242D01*
X119731242Y-118537990D01*
X119685812Y-118568345D01*
X119640995Y-118598291D01*
X119540721Y-118639826D01*
X119434270Y-118661000D01*
X119325730Y-118661000D01*
X119219279Y-118639826D01*
X119119005Y-118598291D01*
X119074188Y-118568345D01*
X119028758Y-118537990D01*
X118952010Y-118461242D01*
X118891710Y-118370996D01*
X118891709Y-118370995D01*
X118850174Y-118270721D01*
X118829000Y-118164270D01*
X118829000Y-118055730D01*
X118850174Y-117949279D01*
X118891709Y-117849005D01*
X118952009Y-117758760D01*
X118952010Y-117758758D01*
X119028758Y-117682010D01*
X119119004Y-117621710D01*
X119119005Y-117621709D01*
X119219279Y-117580174D01*
X119325730Y-117559000D01*
X119434270Y-117559000D01*
X119540721Y-117580174D01*
X119540721Y-117580174D01*
G37*
G36*
X117000721Y-117580174D02*
G01*
X117100995Y-117621709D01*
X117100996Y-117621710D01*
X117191242Y-117682010D01*
X117267990Y-117758758D01*
X117267991Y-117758760D01*
X117328291Y-117849005D01*
X117369826Y-117949279D01*
X117391000Y-118055730D01*
X117391000Y-118164270D01*
X117369826Y-118270721D01*
X117328291Y-118370995D01*
X117328290Y-118370996D01*
X117267990Y-118461242D01*
X117191242Y-118537990D01*
X117145812Y-118568345D01*
X117100995Y-118598291D01*
X117000721Y-118639826D01*
X116894270Y-118661000D01*
X116785730Y-118661000D01*
X116679279Y-118639826D01*
X116579005Y-118598291D01*
X116534188Y-118568345D01*
X116488758Y-118537990D01*
X116412010Y-118461242D01*
X116351710Y-118370996D01*
X116351709Y-118370995D01*
X116310174Y-118270721D01*
X116289000Y-118164270D01*
X116289000Y-118055730D01*
X116310174Y-117949279D01*
X116351709Y-117849005D01*
X116412009Y-117758760D01*
X116412010Y-117758758D01*
X116488758Y-117682010D01*
X116579004Y-117621710D01*
X116579005Y-117621709D01*
X116679279Y-117580174D01*
X116785730Y-117559000D01*
X116894270Y-117559000D01*
X117000721Y-117580174D01*
X117000721Y-117580174D01*
G37*
G36*
X122080721Y-117580174D02*
G01*
X122180995Y-117621709D01*
X122180996Y-117621710D01*
X122271242Y-117682010D01*
X122347990Y-117758758D01*
X122347991Y-117758760D01*
X122408291Y-117849005D01*
X122449826Y-117949279D01*
X122471000Y-118055730D01*
X122471000Y-118164270D01*
X122449826Y-118270721D01*
X122408291Y-118370995D01*
X122408290Y-118370996D01*
X122347990Y-118461242D01*
X122271242Y-118537990D01*
X122225812Y-118568345D01*
X122180995Y-118598291D01*
X122080721Y-118639826D01*
X121974270Y-118661000D01*
X121865730Y-118661000D01*
X121759279Y-118639826D01*
X121659005Y-118598291D01*
X121614188Y-118568345D01*
X121568758Y-118537990D01*
X121492010Y-118461242D01*
X121431710Y-118370996D01*
X121431709Y-118370995D01*
X121390174Y-118270721D01*
X121369000Y-118164270D01*
X121369000Y-118055730D01*
X121390174Y-117949279D01*
X121431709Y-117849005D01*
X121492009Y-117758760D01*
X121492010Y-117758758D01*
X121568758Y-117682010D01*
X121659004Y-117621710D01*
X121659005Y-117621709D01*
X121759279Y-117580174D01*
X121865730Y-117559000D01*
X121974270Y-117559000D01*
X122080721Y-117580174D01*
X122080721Y-117580174D01*
G37*
G36*
X127160721Y-117580174D02*
G01*
X127260995Y-117621709D01*
X127260996Y-117621710D01*
X127351242Y-117682010D01*
X127427990Y-117758758D01*
X127427991Y-117758760D01*
X127488291Y-117849005D01*
X127529826Y-117949279D01*
X127551000Y-118055730D01*
X127551000Y-118164270D01*
X127529826Y-118270721D01*
X127488291Y-118370995D01*
X127488290Y-118370996D01*
X127427990Y-118461242D01*
X127351242Y-118537990D01*
X127305812Y-118568345D01*
X127260995Y-118598291D01*
X127160721Y-118639826D01*
X127054270Y-118661000D01*
X126945730Y-118661000D01*
X126839279Y-118639826D01*
X126739005Y-118598291D01*
X126694188Y-118568345D01*
X126648758Y-118537990D01*
X126572010Y-118461242D01*
X126511710Y-118370996D01*
X126511709Y-118370995D01*
X126470174Y-118270721D01*
X126449000Y-118164270D01*
X126449000Y-118055730D01*
X126470174Y-117949279D01*
X126511709Y-117849005D01*
X126572009Y-117758760D01*
X126572010Y-117758758D01*
X126648758Y-117682010D01*
X126739004Y-117621710D01*
X126739005Y-117621709D01*
X126839279Y-117580174D01*
X126945730Y-117559000D01*
X127054270Y-117559000D01*
X127160721Y-117580174D01*
X127160721Y-117580174D01*
G37*
G36*
X124620721Y-117580174D02*
G01*
X124720995Y-117621709D01*
X124720996Y-117621710D01*
X124811242Y-117682010D01*
X124887990Y-117758758D01*
X124887991Y-117758760D01*
X124948291Y-117849005D01*
X124989826Y-117949279D01*
X125011000Y-118055730D01*
X125011000Y-118164270D01*
X124989826Y-118270721D01*
X124948291Y-118370995D01*
X124948290Y-118370996D01*
X124887990Y-118461242D01*
X124811242Y-118537990D01*
X124765812Y-118568345D01*
X124720995Y-118598291D01*
X124620721Y-118639826D01*
X124514270Y-118661000D01*
X124405730Y-118661000D01*
X124299279Y-118639826D01*
X124199005Y-118598291D01*
X124154188Y-118568345D01*
X124108758Y-118537990D01*
X124032010Y-118461242D01*
X123971710Y-118370996D01*
X123971709Y-118370995D01*
X123930174Y-118270721D01*
X123909000Y-118164270D01*
X123909000Y-118055730D01*
X123930174Y-117949279D01*
X123971709Y-117849005D01*
X124032009Y-117758760D01*
X124032010Y-117758758D01*
X124108758Y-117682010D01*
X124199004Y-117621710D01*
X124199005Y-117621709D01*
X124299279Y-117580174D01*
X124405730Y-117559000D01*
X124514270Y-117559000D01*
X124620721Y-117580174D01*
X124620721Y-117580174D01*
G37*
G36*
X147430443Y-114675519D02*
G01*
X147496627Y-114682037D01*
X147666466Y-114733557D01*
X147822991Y-114817222D01*
X147858729Y-114846552D01*
X147960186Y-114929814D01*
X148043448Y-115031271D01*
X148072778Y-115067009D01*
X148156443Y-115223534D01*
X148207963Y-115393373D01*
X148225359Y-115570000D01*
X148207963Y-115746627D01*
X148156443Y-115916466D01*
X148072778Y-116072991D01*
X148043448Y-116108729D01*
X147960186Y-116210186D01*
X147858729Y-116293448D01*
X147822991Y-116322778D01*
X147666466Y-116406443D01*
X147496627Y-116457963D01*
X147430442Y-116464482D01*
X147364260Y-116471000D01*
X147275740Y-116471000D01*
X147209558Y-116464482D01*
X147143373Y-116457963D01*
X146973534Y-116406443D01*
X146817009Y-116322778D01*
X146781271Y-116293448D01*
X146679814Y-116210186D01*
X146596552Y-116108729D01*
X146567222Y-116072991D01*
X146483557Y-115916466D01*
X146432037Y-115746627D01*
X146414641Y-115570000D01*
X146432037Y-115393373D01*
X146483557Y-115223534D01*
X146567222Y-115067009D01*
X146596552Y-115031271D01*
X146679814Y-114929814D01*
X146781271Y-114846552D01*
X146817009Y-114817222D01*
X146973534Y-114733557D01*
X147143373Y-114682037D01*
X147209557Y-114675519D01*
X147275740Y-114669000D01*
X147364260Y-114669000D01*
X147430443Y-114675519D01*
X147430443Y-114675519D01*
G37*
G36*
X117741000Y-116471000D02*
G01*
X115939000Y-116471000D01*
X115939000Y-114669000D01*
X117741000Y-114669000D01*
X117741000Y-116471000D01*
X117741000Y-116471000D01*
G37*
G36*
X119490443Y-114675519D02*
G01*
X119556627Y-114682037D01*
X119726466Y-114733557D01*
X119882991Y-114817222D01*
X119918729Y-114846552D01*
X120020186Y-114929814D01*
X120103448Y-115031271D01*
X120132778Y-115067009D01*
X120216443Y-115223534D01*
X120267963Y-115393373D01*
X120285359Y-115570000D01*
X120267963Y-115746627D01*
X120216443Y-115916466D01*
X120132778Y-116072991D01*
X120103448Y-116108729D01*
X120020186Y-116210186D01*
X119918729Y-116293448D01*
X119882991Y-116322778D01*
X119726466Y-116406443D01*
X119556627Y-116457963D01*
X119490442Y-116464482D01*
X119424260Y-116471000D01*
X119335740Y-116471000D01*
X119269558Y-116464482D01*
X119203373Y-116457963D01*
X119033534Y-116406443D01*
X118877009Y-116322778D01*
X118841271Y-116293448D01*
X118739814Y-116210186D01*
X118656552Y-116108729D01*
X118627222Y-116072991D01*
X118543557Y-115916466D01*
X118492037Y-115746627D01*
X118474641Y-115570000D01*
X118492037Y-115393373D01*
X118543557Y-115223534D01*
X118627222Y-115067009D01*
X118656552Y-115031271D01*
X118739814Y-114929814D01*
X118841271Y-114846552D01*
X118877009Y-114817222D01*
X119033534Y-114733557D01*
X119203373Y-114682037D01*
X119269557Y-114675519D01*
X119335740Y-114669000D01*
X119424260Y-114669000D01*
X119490443Y-114675519D01*
X119490443Y-114675519D01*
G37*
G36*
X122030443Y-114675519D02*
G01*
X122096627Y-114682037D01*
X122266466Y-114733557D01*
X122422991Y-114817222D01*
X122458729Y-114846552D01*
X122560186Y-114929814D01*
X122643448Y-115031271D01*
X122672778Y-115067009D01*
X122756443Y-115223534D01*
X122807963Y-115393373D01*
X122825359Y-115570000D01*
X122807963Y-115746627D01*
X122756443Y-115916466D01*
X122672778Y-116072991D01*
X122643448Y-116108729D01*
X122560186Y-116210186D01*
X122458729Y-116293448D01*
X122422991Y-116322778D01*
X122266466Y-116406443D01*
X122096627Y-116457963D01*
X122030442Y-116464482D01*
X121964260Y-116471000D01*
X121875740Y-116471000D01*
X121809558Y-116464482D01*
X121743373Y-116457963D01*
X121573534Y-116406443D01*
X121417009Y-116322778D01*
X121381271Y-116293448D01*
X121279814Y-116210186D01*
X121196552Y-116108729D01*
X121167222Y-116072991D01*
X121083557Y-115916466D01*
X121032037Y-115746627D01*
X121014641Y-115570000D01*
X121032037Y-115393373D01*
X121083557Y-115223534D01*
X121167222Y-115067009D01*
X121196552Y-115031271D01*
X121279814Y-114929814D01*
X121381271Y-114846552D01*
X121417009Y-114817222D01*
X121573534Y-114733557D01*
X121743373Y-114682037D01*
X121809557Y-114675519D01*
X121875740Y-114669000D01*
X121964260Y-114669000D01*
X122030443Y-114675519D01*
X122030443Y-114675519D01*
G37*
G36*
X124570443Y-114675519D02*
G01*
X124636627Y-114682037D01*
X124806466Y-114733557D01*
X124962991Y-114817222D01*
X124998729Y-114846552D01*
X125100186Y-114929814D01*
X125183448Y-115031271D01*
X125212778Y-115067009D01*
X125296443Y-115223534D01*
X125347963Y-115393373D01*
X125365359Y-115570000D01*
X125347963Y-115746627D01*
X125296443Y-115916466D01*
X125212778Y-116072991D01*
X125183448Y-116108729D01*
X125100186Y-116210186D01*
X124998729Y-116293448D01*
X124962991Y-116322778D01*
X124806466Y-116406443D01*
X124636627Y-116457963D01*
X124570442Y-116464482D01*
X124504260Y-116471000D01*
X124415740Y-116471000D01*
X124349558Y-116464482D01*
X124283373Y-116457963D01*
X124113534Y-116406443D01*
X123957009Y-116322778D01*
X123921271Y-116293448D01*
X123819814Y-116210186D01*
X123736552Y-116108729D01*
X123707222Y-116072991D01*
X123623557Y-115916466D01*
X123572037Y-115746627D01*
X123554641Y-115570000D01*
X123572037Y-115393373D01*
X123623557Y-115223534D01*
X123707222Y-115067009D01*
X123736552Y-115031271D01*
X123819814Y-114929814D01*
X123921271Y-114846552D01*
X123957009Y-114817222D01*
X124113534Y-114733557D01*
X124283373Y-114682037D01*
X124349557Y-114675519D01*
X124415740Y-114669000D01*
X124504260Y-114669000D01*
X124570443Y-114675519D01*
X124570443Y-114675519D01*
G37*
G36*
X127110443Y-114675519D02*
G01*
X127176627Y-114682037D01*
X127346466Y-114733557D01*
X127502991Y-114817222D01*
X127538729Y-114846552D01*
X127640186Y-114929814D01*
X127723448Y-115031271D01*
X127752778Y-115067009D01*
X127836443Y-115223534D01*
X127887963Y-115393373D01*
X127905359Y-115570000D01*
X127887963Y-115746627D01*
X127836443Y-115916466D01*
X127752778Y-116072991D01*
X127723448Y-116108729D01*
X127640186Y-116210186D01*
X127538729Y-116293448D01*
X127502991Y-116322778D01*
X127346466Y-116406443D01*
X127176627Y-116457963D01*
X127110442Y-116464482D01*
X127044260Y-116471000D01*
X126955740Y-116471000D01*
X126889558Y-116464482D01*
X126823373Y-116457963D01*
X126653534Y-116406443D01*
X126497009Y-116322778D01*
X126461271Y-116293448D01*
X126359814Y-116210186D01*
X126276552Y-116108729D01*
X126247222Y-116072991D01*
X126163557Y-115916466D01*
X126112037Y-115746627D01*
X126094641Y-115570000D01*
X126112037Y-115393373D01*
X126163557Y-115223534D01*
X126247222Y-115067009D01*
X126276552Y-115031271D01*
X126359814Y-114929814D01*
X126461271Y-114846552D01*
X126497009Y-114817222D01*
X126653534Y-114733557D01*
X126823373Y-114682037D01*
X126889557Y-114675519D01*
X126955740Y-114669000D01*
X127044260Y-114669000D01*
X127110443Y-114675519D01*
X127110443Y-114675519D01*
G37*
G36*
X129650443Y-114675519D02*
G01*
X129716627Y-114682037D01*
X129886466Y-114733557D01*
X130042991Y-114817222D01*
X130078729Y-114846552D01*
X130180186Y-114929814D01*
X130263448Y-115031271D01*
X130292778Y-115067009D01*
X130376443Y-115223534D01*
X130427963Y-115393373D01*
X130445359Y-115570000D01*
X130427963Y-115746627D01*
X130376443Y-115916466D01*
X130292778Y-116072991D01*
X130263448Y-116108729D01*
X130180186Y-116210186D01*
X130078729Y-116293448D01*
X130042991Y-116322778D01*
X129886466Y-116406443D01*
X129716627Y-116457963D01*
X129650442Y-116464482D01*
X129584260Y-116471000D01*
X129495740Y-116471000D01*
X129429558Y-116464482D01*
X129363373Y-116457963D01*
X129193534Y-116406443D01*
X129037009Y-116322778D01*
X129001271Y-116293448D01*
X128899814Y-116210186D01*
X128816552Y-116108729D01*
X128787222Y-116072991D01*
X128703557Y-115916466D01*
X128652037Y-115746627D01*
X128634641Y-115570000D01*
X128652037Y-115393373D01*
X128703557Y-115223534D01*
X128787222Y-115067009D01*
X128816552Y-115031271D01*
X128899814Y-114929814D01*
X129001271Y-114846552D01*
X129037009Y-114817222D01*
X129193534Y-114733557D01*
X129363373Y-114682037D01*
X129429557Y-114675519D01*
X129495740Y-114669000D01*
X129584260Y-114669000D01*
X129650443Y-114675519D01*
X129650443Y-114675519D01*
G37*
G36*
X132190443Y-114675519D02*
G01*
X132256627Y-114682037D01*
X132426466Y-114733557D01*
X132582991Y-114817222D01*
X132618729Y-114846552D01*
X132720186Y-114929814D01*
X132803448Y-115031271D01*
X132832778Y-115067009D01*
X132916443Y-115223534D01*
X132967963Y-115393373D01*
X132985359Y-115570000D01*
X132967963Y-115746627D01*
X132916443Y-115916466D01*
X132832778Y-116072991D01*
X132803448Y-116108729D01*
X132720186Y-116210186D01*
X132618729Y-116293448D01*
X132582991Y-116322778D01*
X132426466Y-116406443D01*
X132256627Y-116457963D01*
X132190442Y-116464482D01*
X132124260Y-116471000D01*
X132035740Y-116471000D01*
X131969558Y-116464482D01*
X131903373Y-116457963D01*
X131733534Y-116406443D01*
X131577009Y-116322778D01*
X131541271Y-116293448D01*
X131439814Y-116210186D01*
X131356552Y-116108729D01*
X131327222Y-116072991D01*
X131243557Y-115916466D01*
X131192037Y-115746627D01*
X131174641Y-115570000D01*
X131192037Y-115393373D01*
X131243557Y-115223534D01*
X131327222Y-115067009D01*
X131356552Y-115031271D01*
X131439814Y-114929814D01*
X131541271Y-114846552D01*
X131577009Y-114817222D01*
X131733534Y-114733557D01*
X131903373Y-114682037D01*
X131969557Y-114675519D01*
X132035740Y-114669000D01*
X132124260Y-114669000D01*
X132190443Y-114675519D01*
X132190443Y-114675519D01*
G37*
G36*
X134730443Y-114675519D02*
G01*
X134796627Y-114682037D01*
X134966466Y-114733557D01*
X135122991Y-114817222D01*
X135158729Y-114846552D01*
X135260186Y-114929814D01*
X135343448Y-115031271D01*
X135372778Y-115067009D01*
X135456443Y-115223534D01*
X135507963Y-115393373D01*
X135525359Y-115570000D01*
X135507963Y-115746627D01*
X135456443Y-115916466D01*
X135372778Y-116072991D01*
X135343448Y-116108729D01*
X135260186Y-116210186D01*
X135158729Y-116293448D01*
X135122991Y-116322778D01*
X134966466Y-116406443D01*
X134796627Y-116457963D01*
X134730442Y-116464482D01*
X134664260Y-116471000D01*
X134575740Y-116471000D01*
X134509558Y-116464482D01*
X134443373Y-116457963D01*
X134273534Y-116406443D01*
X134117009Y-116322778D01*
X134081271Y-116293448D01*
X133979814Y-116210186D01*
X133896552Y-116108729D01*
X133867222Y-116072991D01*
X133783557Y-115916466D01*
X133732037Y-115746627D01*
X133714641Y-115570000D01*
X133732037Y-115393373D01*
X133783557Y-115223534D01*
X133867222Y-115067009D01*
X133896552Y-115031271D01*
X133979814Y-114929814D01*
X134081271Y-114846552D01*
X134117009Y-114817222D01*
X134273534Y-114733557D01*
X134443373Y-114682037D01*
X134509557Y-114675519D01*
X134575740Y-114669000D01*
X134664260Y-114669000D01*
X134730443Y-114675519D01*
X134730443Y-114675519D01*
G37*
G36*
X137270443Y-114675519D02*
G01*
X137336627Y-114682037D01*
X137506466Y-114733557D01*
X137662991Y-114817222D01*
X137698729Y-114846552D01*
X137800186Y-114929814D01*
X137883448Y-115031271D01*
X137912778Y-115067009D01*
X137996443Y-115223534D01*
X138047963Y-115393373D01*
X138065359Y-115570000D01*
X138047963Y-115746627D01*
X137996443Y-115916466D01*
X137912778Y-116072991D01*
X137883448Y-116108729D01*
X137800186Y-116210186D01*
X137698729Y-116293448D01*
X137662991Y-116322778D01*
X137506466Y-116406443D01*
X137336627Y-116457963D01*
X137270442Y-116464482D01*
X137204260Y-116471000D01*
X137115740Y-116471000D01*
X137049558Y-116464482D01*
X136983373Y-116457963D01*
X136813534Y-116406443D01*
X136657009Y-116322778D01*
X136621271Y-116293448D01*
X136519814Y-116210186D01*
X136436552Y-116108729D01*
X136407222Y-116072991D01*
X136323557Y-115916466D01*
X136272037Y-115746627D01*
X136254641Y-115570000D01*
X136272037Y-115393373D01*
X136323557Y-115223534D01*
X136407222Y-115067009D01*
X136436552Y-115031271D01*
X136519814Y-114929814D01*
X136621271Y-114846552D01*
X136657009Y-114817222D01*
X136813534Y-114733557D01*
X136983373Y-114682037D01*
X137049557Y-114675519D01*
X137115740Y-114669000D01*
X137204260Y-114669000D01*
X137270443Y-114675519D01*
X137270443Y-114675519D01*
G37*
G36*
X142350443Y-114675519D02*
G01*
X142416627Y-114682037D01*
X142586466Y-114733557D01*
X142742991Y-114817222D01*
X142778729Y-114846552D01*
X142880186Y-114929814D01*
X142963448Y-115031271D01*
X142992778Y-115067009D01*
X143076443Y-115223534D01*
X143127963Y-115393373D01*
X143145359Y-115570000D01*
X143127963Y-115746627D01*
X143076443Y-115916466D01*
X142992778Y-116072991D01*
X142963448Y-116108729D01*
X142880186Y-116210186D01*
X142778729Y-116293448D01*
X142742991Y-116322778D01*
X142586466Y-116406443D01*
X142416627Y-116457963D01*
X142350442Y-116464482D01*
X142284260Y-116471000D01*
X142195740Y-116471000D01*
X142129558Y-116464482D01*
X142063373Y-116457963D01*
X141893534Y-116406443D01*
X141737009Y-116322778D01*
X141701271Y-116293448D01*
X141599814Y-116210186D01*
X141516552Y-116108729D01*
X141487222Y-116072991D01*
X141403557Y-115916466D01*
X141352037Y-115746627D01*
X141334641Y-115570000D01*
X141352037Y-115393373D01*
X141403557Y-115223534D01*
X141487222Y-115067009D01*
X141516552Y-115031271D01*
X141599814Y-114929814D01*
X141701271Y-114846552D01*
X141737009Y-114817222D01*
X141893534Y-114733557D01*
X142063373Y-114682037D01*
X142129557Y-114675519D01*
X142195740Y-114669000D01*
X142284260Y-114669000D01*
X142350443Y-114675519D01*
X142350443Y-114675519D01*
G37*
G36*
X139810443Y-114675519D02*
G01*
X139876627Y-114682037D01*
X140046466Y-114733557D01*
X140202991Y-114817222D01*
X140238729Y-114846552D01*
X140340186Y-114929814D01*
X140423448Y-115031271D01*
X140452778Y-115067009D01*
X140536443Y-115223534D01*
X140587963Y-115393373D01*
X140605359Y-115570000D01*
X140587963Y-115746627D01*
X140536443Y-115916466D01*
X140452778Y-116072991D01*
X140423448Y-116108729D01*
X140340186Y-116210186D01*
X140238729Y-116293448D01*
X140202991Y-116322778D01*
X140046466Y-116406443D01*
X139876627Y-116457963D01*
X139810442Y-116464482D01*
X139744260Y-116471000D01*
X139655740Y-116471000D01*
X139589558Y-116464482D01*
X139523373Y-116457963D01*
X139353534Y-116406443D01*
X139197009Y-116322778D01*
X139161271Y-116293448D01*
X139059814Y-116210186D01*
X138976552Y-116108729D01*
X138947222Y-116072991D01*
X138863557Y-115916466D01*
X138812037Y-115746627D01*
X138794641Y-115570000D01*
X138812037Y-115393373D01*
X138863557Y-115223534D01*
X138947222Y-115067009D01*
X138976552Y-115031271D01*
X139059814Y-114929814D01*
X139161271Y-114846552D01*
X139197009Y-114817222D01*
X139353534Y-114733557D01*
X139523373Y-114682037D01*
X139589557Y-114675519D01*
X139655740Y-114669000D01*
X139744260Y-114669000D01*
X139810443Y-114675519D01*
X139810443Y-114675519D01*
G37*
G36*
X144890443Y-114675519D02*
G01*
X144956627Y-114682037D01*
X145126466Y-114733557D01*
X145282991Y-114817222D01*
X145318729Y-114846552D01*
X145420186Y-114929814D01*
X145503448Y-115031271D01*
X145532778Y-115067009D01*
X145616443Y-115223534D01*
X145667963Y-115393373D01*
X145685359Y-115570000D01*
X145667963Y-115746627D01*
X145616443Y-115916466D01*
X145532778Y-116072991D01*
X145503448Y-116108729D01*
X145420186Y-116210186D01*
X145318729Y-116293448D01*
X145282991Y-116322778D01*
X145126466Y-116406443D01*
X144956627Y-116457963D01*
X144890442Y-116464482D01*
X144824260Y-116471000D01*
X144735740Y-116471000D01*
X144669558Y-116464482D01*
X144603373Y-116457963D01*
X144433534Y-116406443D01*
X144277009Y-116322778D01*
X144241271Y-116293448D01*
X144139814Y-116210186D01*
X144056552Y-116108729D01*
X144027222Y-116072991D01*
X143943557Y-115916466D01*
X143892037Y-115746627D01*
X143874641Y-115570000D01*
X143892037Y-115393373D01*
X143943557Y-115223534D01*
X144027222Y-115067009D01*
X144056552Y-115031271D01*
X144139814Y-114929814D01*
X144241271Y-114846552D01*
X144277009Y-114817222D01*
X144433534Y-114733557D01*
X144603373Y-114682037D01*
X144669557Y-114675519D01*
X144735740Y-114669000D01*
X144824260Y-114669000D01*
X144890443Y-114675519D01*
X144890443Y-114675519D01*
G37*
G36*
X119490443Y-112135519D02*
G01*
X119556627Y-112142037D01*
X119726466Y-112193557D01*
X119882991Y-112277222D01*
X119918729Y-112306552D01*
X120020186Y-112389814D01*
X120103448Y-112491271D01*
X120132778Y-112527009D01*
X120216443Y-112683534D01*
X120267963Y-112853373D01*
X120285359Y-113030000D01*
X120267963Y-113206627D01*
X120216443Y-113376466D01*
X120132778Y-113532991D01*
X120103448Y-113568729D01*
X120020186Y-113670186D01*
X119918729Y-113753448D01*
X119882991Y-113782778D01*
X119726466Y-113866443D01*
X119556627Y-113917963D01*
X119490443Y-113924481D01*
X119424260Y-113931000D01*
X119335740Y-113931000D01*
X119269557Y-113924481D01*
X119203373Y-113917963D01*
X119033534Y-113866443D01*
X118877009Y-113782778D01*
X118841271Y-113753448D01*
X118739814Y-113670186D01*
X118656552Y-113568729D01*
X118627222Y-113532991D01*
X118543557Y-113376466D01*
X118492037Y-113206627D01*
X118474641Y-113030000D01*
X118492037Y-112853373D01*
X118543557Y-112683534D01*
X118627222Y-112527009D01*
X118656552Y-112491271D01*
X118739814Y-112389814D01*
X118841271Y-112306552D01*
X118877009Y-112277222D01*
X119033534Y-112193557D01*
X119203373Y-112142037D01*
X119269557Y-112135519D01*
X119335740Y-112129000D01*
X119424260Y-112129000D01*
X119490443Y-112135519D01*
X119490443Y-112135519D01*
G37*
G36*
X142350443Y-112135519D02*
G01*
X142416627Y-112142037D01*
X142586466Y-112193557D01*
X142742991Y-112277222D01*
X142778729Y-112306552D01*
X142880186Y-112389814D01*
X142963448Y-112491271D01*
X142992778Y-112527009D01*
X143076443Y-112683534D01*
X143127963Y-112853373D01*
X143145359Y-113030000D01*
X143127963Y-113206627D01*
X143076443Y-113376466D01*
X142992778Y-113532991D01*
X142963448Y-113568729D01*
X142880186Y-113670186D01*
X142778729Y-113753448D01*
X142742991Y-113782778D01*
X142586466Y-113866443D01*
X142416627Y-113917963D01*
X142350443Y-113924481D01*
X142284260Y-113931000D01*
X142195740Y-113931000D01*
X142129557Y-113924481D01*
X142063373Y-113917963D01*
X141893534Y-113866443D01*
X141737009Y-113782778D01*
X141701271Y-113753448D01*
X141599814Y-113670186D01*
X141516552Y-113568729D01*
X141487222Y-113532991D01*
X141403557Y-113376466D01*
X141352037Y-113206627D01*
X141334641Y-113030000D01*
X141352037Y-112853373D01*
X141403557Y-112683534D01*
X141487222Y-112527009D01*
X141516552Y-112491271D01*
X141599814Y-112389814D01*
X141701271Y-112306552D01*
X141737009Y-112277222D01*
X141893534Y-112193557D01*
X142063373Y-112142037D01*
X142129557Y-112135519D01*
X142195740Y-112129000D01*
X142284260Y-112129000D01*
X142350443Y-112135519D01*
X142350443Y-112135519D01*
G37*
G36*
X127110443Y-112135519D02*
G01*
X127176627Y-112142037D01*
X127346466Y-112193557D01*
X127502991Y-112277222D01*
X127538729Y-112306552D01*
X127640186Y-112389814D01*
X127723448Y-112491271D01*
X127752778Y-112527009D01*
X127836443Y-112683534D01*
X127887963Y-112853373D01*
X127905359Y-113030000D01*
X127887963Y-113206627D01*
X127836443Y-113376466D01*
X127752778Y-113532991D01*
X127723448Y-113568729D01*
X127640186Y-113670186D01*
X127538729Y-113753448D01*
X127502991Y-113782778D01*
X127346466Y-113866443D01*
X127176627Y-113917963D01*
X127110443Y-113924481D01*
X127044260Y-113931000D01*
X126955740Y-113931000D01*
X126889557Y-113924481D01*
X126823373Y-113917963D01*
X126653534Y-113866443D01*
X126497009Y-113782778D01*
X126461271Y-113753448D01*
X126359814Y-113670186D01*
X126276552Y-113568729D01*
X126247222Y-113532991D01*
X126163557Y-113376466D01*
X126112037Y-113206627D01*
X126094641Y-113030000D01*
X126112037Y-112853373D01*
X126163557Y-112683534D01*
X126247222Y-112527009D01*
X126276552Y-112491271D01*
X126359814Y-112389814D01*
X126461271Y-112306552D01*
X126497009Y-112277222D01*
X126653534Y-112193557D01*
X126823373Y-112142037D01*
X126889557Y-112135519D01*
X126955740Y-112129000D01*
X127044260Y-112129000D01*
X127110443Y-112135519D01*
X127110443Y-112135519D01*
G37*
G36*
X132190443Y-112135519D02*
G01*
X132256627Y-112142037D01*
X132426466Y-112193557D01*
X132582991Y-112277222D01*
X132618729Y-112306552D01*
X132720186Y-112389814D01*
X132803448Y-112491271D01*
X132832778Y-112527009D01*
X132916443Y-112683534D01*
X132967963Y-112853373D01*
X132985359Y-113030000D01*
X132967963Y-113206627D01*
X132916443Y-113376466D01*
X132832778Y-113532991D01*
X132803448Y-113568729D01*
X132720186Y-113670186D01*
X132618729Y-113753448D01*
X132582991Y-113782778D01*
X132426466Y-113866443D01*
X132256627Y-113917963D01*
X132190443Y-113924481D01*
X132124260Y-113931000D01*
X132035740Y-113931000D01*
X131969557Y-113924481D01*
X131903373Y-113917963D01*
X131733534Y-113866443D01*
X131577009Y-113782778D01*
X131541271Y-113753448D01*
X131439814Y-113670186D01*
X131356552Y-113568729D01*
X131327222Y-113532991D01*
X131243557Y-113376466D01*
X131192037Y-113206627D01*
X131174641Y-113030000D01*
X131192037Y-112853373D01*
X131243557Y-112683534D01*
X131327222Y-112527009D01*
X131356552Y-112491271D01*
X131439814Y-112389814D01*
X131541271Y-112306552D01*
X131577009Y-112277222D01*
X131733534Y-112193557D01*
X131903373Y-112142037D01*
X131969557Y-112135519D01*
X132035740Y-112129000D01*
X132124260Y-112129000D01*
X132190443Y-112135519D01*
X132190443Y-112135519D01*
G37*
G36*
X124570443Y-112135519D02*
G01*
X124636627Y-112142037D01*
X124806466Y-112193557D01*
X124962991Y-112277222D01*
X124998729Y-112306552D01*
X125100186Y-112389814D01*
X125183448Y-112491271D01*
X125212778Y-112527009D01*
X125296443Y-112683534D01*
X125347963Y-112853373D01*
X125365359Y-113030000D01*
X125347963Y-113206627D01*
X125296443Y-113376466D01*
X125212778Y-113532991D01*
X125183448Y-113568729D01*
X125100186Y-113670186D01*
X124998729Y-113753448D01*
X124962991Y-113782778D01*
X124806466Y-113866443D01*
X124636627Y-113917963D01*
X124570443Y-113924481D01*
X124504260Y-113931000D01*
X124415740Y-113931000D01*
X124349557Y-113924481D01*
X124283373Y-113917963D01*
X124113534Y-113866443D01*
X123957009Y-113782778D01*
X123921271Y-113753448D01*
X123819814Y-113670186D01*
X123736552Y-113568729D01*
X123707222Y-113532991D01*
X123623557Y-113376466D01*
X123572037Y-113206627D01*
X123554641Y-113030000D01*
X123572037Y-112853373D01*
X123623557Y-112683534D01*
X123707222Y-112527009D01*
X123736552Y-112491271D01*
X123819814Y-112389814D01*
X123921271Y-112306552D01*
X123957009Y-112277222D01*
X124113534Y-112193557D01*
X124283373Y-112142037D01*
X124349557Y-112135519D01*
X124415740Y-112129000D01*
X124504260Y-112129000D01*
X124570443Y-112135519D01*
X124570443Y-112135519D01*
G37*
G36*
X144890443Y-112135519D02*
G01*
X144956627Y-112142037D01*
X145126466Y-112193557D01*
X145282991Y-112277222D01*
X145318729Y-112306552D01*
X145420186Y-112389814D01*
X145503448Y-112491271D01*
X145532778Y-112527009D01*
X145616443Y-112683534D01*
X145667963Y-112853373D01*
X145685359Y-113030000D01*
X145667963Y-113206627D01*
X145616443Y-113376466D01*
X145532778Y-113532991D01*
X145503448Y-113568729D01*
X145420186Y-113670186D01*
X145318729Y-113753448D01*
X145282991Y-113782778D01*
X145126466Y-113866443D01*
X144956627Y-113917963D01*
X144890443Y-113924481D01*
X144824260Y-113931000D01*
X144735740Y-113931000D01*
X144669557Y-113924481D01*
X144603373Y-113917963D01*
X144433534Y-113866443D01*
X144277009Y-113782778D01*
X144241271Y-113753448D01*
X144139814Y-113670186D01*
X144056552Y-113568729D01*
X144027222Y-113532991D01*
X143943557Y-113376466D01*
X143892037Y-113206627D01*
X143874641Y-113030000D01*
X143892037Y-112853373D01*
X143943557Y-112683534D01*
X144027222Y-112527009D01*
X144056552Y-112491271D01*
X144139814Y-112389814D01*
X144241271Y-112306552D01*
X144277009Y-112277222D01*
X144433534Y-112193557D01*
X144603373Y-112142037D01*
X144669557Y-112135519D01*
X144735740Y-112129000D01*
X144824260Y-112129000D01*
X144890443Y-112135519D01*
X144890443Y-112135519D01*
G37*
G36*
X122030443Y-112135519D02*
G01*
X122096627Y-112142037D01*
X122266466Y-112193557D01*
X122422991Y-112277222D01*
X122458729Y-112306552D01*
X122560186Y-112389814D01*
X122643448Y-112491271D01*
X122672778Y-112527009D01*
X122756443Y-112683534D01*
X122807963Y-112853373D01*
X122825359Y-113030000D01*
X122807963Y-113206627D01*
X122756443Y-113376466D01*
X122672778Y-113532991D01*
X122643448Y-113568729D01*
X122560186Y-113670186D01*
X122458729Y-113753448D01*
X122422991Y-113782778D01*
X122266466Y-113866443D01*
X122096627Y-113917963D01*
X122030443Y-113924481D01*
X121964260Y-113931000D01*
X121875740Y-113931000D01*
X121809557Y-113924481D01*
X121743373Y-113917963D01*
X121573534Y-113866443D01*
X121417009Y-113782778D01*
X121381271Y-113753448D01*
X121279814Y-113670186D01*
X121196552Y-113568729D01*
X121167222Y-113532991D01*
X121083557Y-113376466D01*
X121032037Y-113206627D01*
X121014641Y-113030000D01*
X121032037Y-112853373D01*
X121083557Y-112683534D01*
X121167222Y-112527009D01*
X121196552Y-112491271D01*
X121279814Y-112389814D01*
X121381271Y-112306552D01*
X121417009Y-112277222D01*
X121573534Y-112193557D01*
X121743373Y-112142037D01*
X121809557Y-112135519D01*
X121875740Y-112129000D01*
X121964260Y-112129000D01*
X122030443Y-112135519D01*
X122030443Y-112135519D01*
G37*
G36*
X137270443Y-112135519D02*
G01*
X137336627Y-112142037D01*
X137506466Y-112193557D01*
X137662991Y-112277222D01*
X137698729Y-112306552D01*
X137800186Y-112389814D01*
X137883448Y-112491271D01*
X137912778Y-112527009D01*
X137996443Y-112683534D01*
X138047963Y-112853373D01*
X138065359Y-113030000D01*
X138047963Y-113206627D01*
X137996443Y-113376466D01*
X137912778Y-113532991D01*
X137883448Y-113568729D01*
X137800186Y-113670186D01*
X137698729Y-113753448D01*
X137662991Y-113782778D01*
X137506466Y-113866443D01*
X137336627Y-113917963D01*
X137270443Y-113924481D01*
X137204260Y-113931000D01*
X137115740Y-113931000D01*
X137049557Y-113924481D01*
X136983373Y-113917963D01*
X136813534Y-113866443D01*
X136657009Y-113782778D01*
X136621271Y-113753448D01*
X136519814Y-113670186D01*
X136436552Y-113568729D01*
X136407222Y-113532991D01*
X136323557Y-113376466D01*
X136272037Y-113206627D01*
X136254641Y-113030000D01*
X136272037Y-112853373D01*
X136323557Y-112683534D01*
X136407222Y-112527009D01*
X136436552Y-112491271D01*
X136519814Y-112389814D01*
X136621271Y-112306552D01*
X136657009Y-112277222D01*
X136813534Y-112193557D01*
X136983373Y-112142037D01*
X137049557Y-112135519D01*
X137115740Y-112129000D01*
X137204260Y-112129000D01*
X137270443Y-112135519D01*
X137270443Y-112135519D01*
G37*
G36*
X147430443Y-112135519D02*
G01*
X147496627Y-112142037D01*
X147666466Y-112193557D01*
X147822991Y-112277222D01*
X147858729Y-112306552D01*
X147960186Y-112389814D01*
X148043448Y-112491271D01*
X148072778Y-112527009D01*
X148156443Y-112683534D01*
X148207963Y-112853373D01*
X148225359Y-113030000D01*
X148207963Y-113206627D01*
X148156443Y-113376466D01*
X148072778Y-113532991D01*
X148043448Y-113568729D01*
X147960186Y-113670186D01*
X147858729Y-113753448D01*
X147822991Y-113782778D01*
X147666466Y-113866443D01*
X147496627Y-113917963D01*
X147430443Y-113924481D01*
X147364260Y-113931000D01*
X147275740Y-113931000D01*
X147209557Y-113924481D01*
X147143373Y-113917963D01*
X146973534Y-113866443D01*
X146817009Y-113782778D01*
X146781271Y-113753448D01*
X146679814Y-113670186D01*
X146596552Y-113568729D01*
X146567222Y-113532991D01*
X146483557Y-113376466D01*
X146432037Y-113206627D01*
X146414641Y-113030000D01*
X146432037Y-112853373D01*
X146483557Y-112683534D01*
X146567222Y-112527009D01*
X146596552Y-112491271D01*
X146679814Y-112389814D01*
X146781271Y-112306552D01*
X146817009Y-112277222D01*
X146973534Y-112193557D01*
X147143373Y-112142037D01*
X147209557Y-112135519D01*
X147275740Y-112129000D01*
X147364260Y-112129000D01*
X147430443Y-112135519D01*
X147430443Y-112135519D01*
G37*
G36*
X116950443Y-112135519D02*
G01*
X117016627Y-112142037D01*
X117186466Y-112193557D01*
X117342991Y-112277222D01*
X117378729Y-112306552D01*
X117480186Y-112389814D01*
X117563448Y-112491271D01*
X117592778Y-112527009D01*
X117676443Y-112683534D01*
X117727963Y-112853373D01*
X117745359Y-113030000D01*
X117727963Y-113206627D01*
X117676443Y-113376466D01*
X117592778Y-113532991D01*
X117563448Y-113568729D01*
X117480186Y-113670186D01*
X117378729Y-113753448D01*
X117342991Y-113782778D01*
X117186466Y-113866443D01*
X117016627Y-113917963D01*
X116950443Y-113924481D01*
X116884260Y-113931000D01*
X116795740Y-113931000D01*
X116729557Y-113924481D01*
X116663373Y-113917963D01*
X116493534Y-113866443D01*
X116337009Y-113782778D01*
X116301271Y-113753448D01*
X116199814Y-113670186D01*
X116116552Y-113568729D01*
X116087222Y-113532991D01*
X116003557Y-113376466D01*
X115952037Y-113206627D01*
X115934641Y-113030000D01*
X115952037Y-112853373D01*
X116003557Y-112683534D01*
X116087222Y-112527009D01*
X116116552Y-112491271D01*
X116199814Y-112389814D01*
X116301271Y-112306552D01*
X116337009Y-112277222D01*
X116493534Y-112193557D01*
X116663373Y-112142037D01*
X116729557Y-112135519D01*
X116795740Y-112129000D01*
X116884260Y-112129000D01*
X116950443Y-112135519D01*
X116950443Y-112135519D01*
G37*
G36*
X134730443Y-112135519D02*
G01*
X134796627Y-112142037D01*
X134966466Y-112193557D01*
X135122991Y-112277222D01*
X135158729Y-112306552D01*
X135260186Y-112389814D01*
X135343448Y-112491271D01*
X135372778Y-112527009D01*
X135456443Y-112683534D01*
X135507963Y-112853373D01*
X135525359Y-113030000D01*
X135507963Y-113206627D01*
X135456443Y-113376466D01*
X135372778Y-113532991D01*
X135343448Y-113568729D01*
X135260186Y-113670186D01*
X135158729Y-113753448D01*
X135122991Y-113782778D01*
X134966466Y-113866443D01*
X134796627Y-113917963D01*
X134730443Y-113924481D01*
X134664260Y-113931000D01*
X134575740Y-113931000D01*
X134509557Y-113924481D01*
X134443373Y-113917963D01*
X134273534Y-113866443D01*
X134117009Y-113782778D01*
X134081271Y-113753448D01*
X133979814Y-113670186D01*
X133896552Y-113568729D01*
X133867222Y-113532991D01*
X133783557Y-113376466D01*
X133732037Y-113206627D01*
X133714641Y-113030000D01*
X133732037Y-112853373D01*
X133783557Y-112683534D01*
X133867222Y-112527009D01*
X133896552Y-112491271D01*
X133979814Y-112389814D01*
X134081271Y-112306552D01*
X134117009Y-112277222D01*
X134273534Y-112193557D01*
X134443373Y-112142037D01*
X134509557Y-112135519D01*
X134575740Y-112129000D01*
X134664260Y-112129000D01*
X134730443Y-112135519D01*
X134730443Y-112135519D01*
G37*
G36*
X129650443Y-112135519D02*
G01*
X129716627Y-112142037D01*
X129886466Y-112193557D01*
X130042991Y-112277222D01*
X130078729Y-112306552D01*
X130180186Y-112389814D01*
X130263448Y-112491271D01*
X130292778Y-112527009D01*
X130376443Y-112683534D01*
X130427963Y-112853373D01*
X130445359Y-113030000D01*
X130427963Y-113206627D01*
X130376443Y-113376466D01*
X130292778Y-113532991D01*
X130263448Y-113568729D01*
X130180186Y-113670186D01*
X130078729Y-113753448D01*
X130042991Y-113782778D01*
X129886466Y-113866443D01*
X129716627Y-113917963D01*
X129650443Y-113924481D01*
X129584260Y-113931000D01*
X129495740Y-113931000D01*
X129429557Y-113924481D01*
X129363373Y-113917963D01*
X129193534Y-113866443D01*
X129037009Y-113782778D01*
X129001271Y-113753448D01*
X128899814Y-113670186D01*
X128816552Y-113568729D01*
X128787222Y-113532991D01*
X128703557Y-113376466D01*
X128652037Y-113206627D01*
X128634641Y-113030000D01*
X128652037Y-112853373D01*
X128703557Y-112683534D01*
X128787222Y-112527009D01*
X128816552Y-112491271D01*
X128899814Y-112389814D01*
X129001271Y-112306552D01*
X129037009Y-112277222D01*
X129193534Y-112193557D01*
X129363373Y-112142037D01*
X129429557Y-112135519D01*
X129495740Y-112129000D01*
X129584260Y-112129000D01*
X129650443Y-112135519D01*
X129650443Y-112135519D01*
G37*
G36*
X139810443Y-112135519D02*
G01*
X139876627Y-112142037D01*
X140046466Y-112193557D01*
X140202991Y-112277222D01*
X140238729Y-112306552D01*
X140340186Y-112389814D01*
X140423448Y-112491271D01*
X140452778Y-112527009D01*
X140536443Y-112683534D01*
X140587963Y-112853373D01*
X140605359Y-113030000D01*
X140587963Y-113206627D01*
X140536443Y-113376466D01*
X140452778Y-113532991D01*
X140423448Y-113568729D01*
X140340186Y-113670186D01*
X140238729Y-113753448D01*
X140202991Y-113782778D01*
X140046466Y-113866443D01*
X139876627Y-113917963D01*
X139810443Y-113924481D01*
X139744260Y-113931000D01*
X139655740Y-113931000D01*
X139589557Y-113924481D01*
X139523373Y-113917963D01*
X139353534Y-113866443D01*
X139197009Y-113782778D01*
X139161271Y-113753448D01*
X139059814Y-113670186D01*
X138976552Y-113568729D01*
X138947222Y-113532991D01*
X138863557Y-113376466D01*
X138812037Y-113206627D01*
X138794641Y-113030000D01*
X138812037Y-112853373D01*
X138863557Y-112683534D01*
X138947222Y-112527009D01*
X138976552Y-112491271D01*
X139059814Y-112389814D01*
X139161271Y-112306552D01*
X139197009Y-112277222D01*
X139353534Y-112193557D01*
X139523373Y-112142037D01*
X139589557Y-112135519D01*
X139655740Y-112129000D01*
X139744260Y-112129000D01*
X139810443Y-112135519D01*
X139810443Y-112135519D01*
G37*
G36*
X119540721Y-109960174D02*
G01*
X119640995Y-110001709D01*
X119640996Y-110001710D01*
X119731242Y-110062010D01*
X119807990Y-110138758D01*
X119807991Y-110138760D01*
X119868291Y-110229005D01*
X119909826Y-110329279D01*
X119931000Y-110435730D01*
X119931000Y-110544270D01*
X119909826Y-110650721D01*
X119868291Y-110750995D01*
X119868290Y-110750996D01*
X119807990Y-110841242D01*
X119731242Y-110917990D01*
X119685812Y-110948345D01*
X119640995Y-110978291D01*
X119540721Y-111019826D01*
X119434270Y-111041000D01*
X119325730Y-111041000D01*
X119219279Y-111019826D01*
X119119005Y-110978291D01*
X119074188Y-110948345D01*
X119028758Y-110917990D01*
X118952010Y-110841242D01*
X118891710Y-110750996D01*
X118891709Y-110750995D01*
X118850174Y-110650721D01*
X118829000Y-110544270D01*
X118829000Y-110435730D01*
X118850174Y-110329279D01*
X118891709Y-110229005D01*
X118952009Y-110138760D01*
X118952010Y-110138758D01*
X119028758Y-110062010D01*
X119119004Y-110001710D01*
X119119005Y-110001709D01*
X119219279Y-109960174D01*
X119325730Y-109939000D01*
X119434270Y-109939000D01*
X119540721Y-109960174D01*
X119540721Y-109960174D01*
G37*
G36*
X132240721Y-109960174D02*
G01*
X132340995Y-110001709D01*
X132340996Y-110001710D01*
X132431242Y-110062010D01*
X132507990Y-110138758D01*
X132507991Y-110138760D01*
X132568291Y-110229005D01*
X132609826Y-110329279D01*
X132631000Y-110435730D01*
X132631000Y-110544270D01*
X132609826Y-110650721D01*
X132568291Y-110750995D01*
X132568290Y-110750996D01*
X132507990Y-110841242D01*
X132431242Y-110917990D01*
X132385812Y-110948345D01*
X132340995Y-110978291D01*
X132240721Y-111019826D01*
X132134270Y-111041000D01*
X132025730Y-111041000D01*
X131919279Y-111019826D01*
X131819005Y-110978291D01*
X131774188Y-110948345D01*
X131728758Y-110917990D01*
X131652010Y-110841242D01*
X131591710Y-110750996D01*
X131591709Y-110750995D01*
X131550174Y-110650721D01*
X131529000Y-110544270D01*
X131529000Y-110435730D01*
X131550174Y-110329279D01*
X131591709Y-110229005D01*
X131652009Y-110138760D01*
X131652010Y-110138758D01*
X131728758Y-110062010D01*
X131819004Y-110001710D01*
X131819005Y-110001709D01*
X131919279Y-109960174D01*
X132025730Y-109939000D01*
X132134270Y-109939000D01*
X132240721Y-109960174D01*
X132240721Y-109960174D01*
G37*
G36*
X129700721Y-109960174D02*
G01*
X129800995Y-110001709D01*
X129800996Y-110001710D01*
X129891242Y-110062010D01*
X129967990Y-110138758D01*
X129967991Y-110138760D01*
X130028291Y-110229005D01*
X130069826Y-110329279D01*
X130091000Y-110435730D01*
X130091000Y-110544270D01*
X130069826Y-110650721D01*
X130028291Y-110750995D01*
X130028290Y-110750996D01*
X129967990Y-110841242D01*
X129891242Y-110917990D01*
X129845812Y-110948345D01*
X129800995Y-110978291D01*
X129700721Y-111019826D01*
X129594270Y-111041000D01*
X129485730Y-111041000D01*
X129379279Y-111019826D01*
X129279005Y-110978291D01*
X129234188Y-110948345D01*
X129188758Y-110917990D01*
X129112010Y-110841242D01*
X129051710Y-110750996D01*
X129051709Y-110750995D01*
X129010174Y-110650721D01*
X128989000Y-110544270D01*
X128989000Y-110435730D01*
X129010174Y-110329279D01*
X129051709Y-110229005D01*
X129112009Y-110138760D01*
X129112010Y-110138758D01*
X129188758Y-110062010D01*
X129279004Y-110001710D01*
X129279005Y-110001709D01*
X129379279Y-109960174D01*
X129485730Y-109939000D01*
X129594270Y-109939000D01*
X129700721Y-109960174D01*
X129700721Y-109960174D01*
G37*
G36*
X127160721Y-109960174D02*
G01*
X127260995Y-110001709D01*
X127260996Y-110001710D01*
X127351242Y-110062010D01*
X127427990Y-110138758D01*
X127427991Y-110138760D01*
X127488291Y-110229005D01*
X127529826Y-110329279D01*
X127551000Y-110435730D01*
X127551000Y-110544270D01*
X127529826Y-110650721D01*
X127488291Y-110750995D01*
X127488290Y-110750996D01*
X127427990Y-110841242D01*
X127351242Y-110917990D01*
X127305812Y-110948345D01*
X127260995Y-110978291D01*
X127160721Y-111019826D01*
X127054270Y-111041000D01*
X126945730Y-111041000D01*
X126839279Y-111019826D01*
X126739005Y-110978291D01*
X126694188Y-110948345D01*
X126648758Y-110917990D01*
X126572010Y-110841242D01*
X126511710Y-110750996D01*
X126511709Y-110750995D01*
X126470174Y-110650721D01*
X126449000Y-110544270D01*
X126449000Y-110435730D01*
X126470174Y-110329279D01*
X126511709Y-110229005D01*
X126572009Y-110138760D01*
X126572010Y-110138758D01*
X126648758Y-110062010D01*
X126739004Y-110001710D01*
X126739005Y-110001709D01*
X126839279Y-109960174D01*
X126945730Y-109939000D01*
X127054270Y-109939000D01*
X127160721Y-109960174D01*
X127160721Y-109960174D01*
G37*
G36*
X124620721Y-109960174D02*
G01*
X124720995Y-110001709D01*
X124720996Y-110001710D01*
X124811242Y-110062010D01*
X124887990Y-110138758D01*
X124887991Y-110138760D01*
X124948291Y-110229005D01*
X124989826Y-110329279D01*
X125011000Y-110435730D01*
X125011000Y-110544270D01*
X124989826Y-110650721D01*
X124948291Y-110750995D01*
X124948290Y-110750996D01*
X124887990Y-110841242D01*
X124811242Y-110917990D01*
X124765812Y-110948345D01*
X124720995Y-110978291D01*
X124620721Y-111019826D01*
X124514270Y-111041000D01*
X124405730Y-111041000D01*
X124299279Y-111019826D01*
X124199005Y-110978291D01*
X124154188Y-110948345D01*
X124108758Y-110917990D01*
X124032010Y-110841242D01*
X123971710Y-110750996D01*
X123971709Y-110750995D01*
X123930174Y-110650721D01*
X123909000Y-110544270D01*
X123909000Y-110435730D01*
X123930174Y-110329279D01*
X123971709Y-110229005D01*
X124032009Y-110138760D01*
X124032010Y-110138758D01*
X124108758Y-110062010D01*
X124199004Y-110001710D01*
X124199005Y-110001709D01*
X124299279Y-109960174D01*
X124405730Y-109939000D01*
X124514270Y-109939000D01*
X124620721Y-109960174D01*
X124620721Y-109960174D01*
G37*
G36*
X122080721Y-109960174D02*
G01*
X122180995Y-110001709D01*
X122180996Y-110001710D01*
X122271242Y-110062010D01*
X122347990Y-110138758D01*
X122347991Y-110138760D01*
X122408291Y-110229005D01*
X122449826Y-110329279D01*
X122471000Y-110435730D01*
X122471000Y-110544270D01*
X122449826Y-110650721D01*
X122408291Y-110750995D01*
X122408290Y-110750996D01*
X122347990Y-110841242D01*
X122271242Y-110917990D01*
X122225812Y-110948345D01*
X122180995Y-110978291D01*
X122080721Y-111019826D01*
X121974270Y-111041000D01*
X121865730Y-111041000D01*
X121759279Y-111019826D01*
X121659005Y-110978291D01*
X121614188Y-110948345D01*
X121568758Y-110917990D01*
X121492010Y-110841242D01*
X121431710Y-110750996D01*
X121431709Y-110750995D01*
X121390174Y-110650721D01*
X121369000Y-110544270D01*
X121369000Y-110435730D01*
X121390174Y-110329279D01*
X121431709Y-110229005D01*
X121492009Y-110138760D01*
X121492010Y-110138758D01*
X121568758Y-110062010D01*
X121659004Y-110001710D01*
X121659005Y-110001709D01*
X121759279Y-109960174D01*
X121865730Y-109939000D01*
X121974270Y-109939000D01*
X122080721Y-109960174D01*
X122080721Y-109960174D01*
G37*
G36*
X117000721Y-109960174D02*
G01*
X117100995Y-110001709D01*
X117100996Y-110001710D01*
X117191242Y-110062010D01*
X117267990Y-110138758D01*
X117267991Y-110138760D01*
X117328291Y-110229005D01*
X117369826Y-110329279D01*
X117391000Y-110435730D01*
X117391000Y-110544270D01*
X117369826Y-110650721D01*
X117328291Y-110750995D01*
X117328290Y-110750996D01*
X117267990Y-110841242D01*
X117191242Y-110917990D01*
X117145812Y-110948345D01*
X117100995Y-110978291D01*
X117000721Y-111019826D01*
X116894270Y-111041000D01*
X116785730Y-111041000D01*
X116679279Y-111019826D01*
X116579005Y-110978291D01*
X116534188Y-110948345D01*
X116488758Y-110917990D01*
X116412010Y-110841242D01*
X116351710Y-110750996D01*
X116351709Y-110750995D01*
X116310174Y-110650721D01*
X116289000Y-110544270D01*
X116289000Y-110435730D01*
X116310174Y-110329279D01*
X116351709Y-110229005D01*
X116412009Y-110138760D01*
X116412010Y-110138758D01*
X116488758Y-110062010D01*
X116579004Y-110001710D01*
X116579005Y-110001709D01*
X116679279Y-109960174D01*
X116785730Y-109939000D01*
X116894270Y-109939000D01*
X117000721Y-109960174D01*
X117000721Y-109960174D01*
G37*
G36*
X147480721Y-109960174D02*
G01*
X147580995Y-110001709D01*
X147580996Y-110001710D01*
X147671242Y-110062010D01*
X147747990Y-110138758D01*
X147747991Y-110138760D01*
X147808291Y-110229005D01*
X147849826Y-110329279D01*
X147871000Y-110435730D01*
X147871000Y-110544270D01*
X147849826Y-110650721D01*
X147808291Y-110750995D01*
X147808290Y-110750996D01*
X147747990Y-110841242D01*
X147671242Y-110917990D01*
X147625812Y-110948345D01*
X147580995Y-110978291D01*
X147480721Y-111019826D01*
X147374270Y-111041000D01*
X147265730Y-111041000D01*
X147159279Y-111019826D01*
X147059005Y-110978291D01*
X147014188Y-110948345D01*
X146968758Y-110917990D01*
X146892010Y-110841242D01*
X146831710Y-110750996D01*
X146831709Y-110750995D01*
X146790174Y-110650721D01*
X146769000Y-110544270D01*
X146769000Y-110435730D01*
X146790174Y-110329279D01*
X146831709Y-110229005D01*
X146892009Y-110138760D01*
X146892010Y-110138758D01*
X146968758Y-110062010D01*
X147059004Y-110001710D01*
X147059005Y-110001709D01*
X147159279Y-109960174D01*
X147265730Y-109939000D01*
X147374270Y-109939000D01*
X147480721Y-109960174D01*
X147480721Y-109960174D01*
G37*
G36*
X144940721Y-109960174D02*
G01*
X145040995Y-110001709D01*
X145040996Y-110001710D01*
X145131242Y-110062010D01*
X145207990Y-110138758D01*
X145207991Y-110138760D01*
X145268291Y-110229005D01*
X145309826Y-110329279D01*
X145331000Y-110435730D01*
X145331000Y-110544270D01*
X145309826Y-110650721D01*
X145268291Y-110750995D01*
X145268290Y-110750996D01*
X145207990Y-110841242D01*
X145131242Y-110917990D01*
X145085812Y-110948345D01*
X145040995Y-110978291D01*
X144940721Y-111019826D01*
X144834270Y-111041000D01*
X144725730Y-111041000D01*
X144619279Y-111019826D01*
X144519005Y-110978291D01*
X144474188Y-110948345D01*
X144428758Y-110917990D01*
X144352010Y-110841242D01*
X144291710Y-110750996D01*
X144291709Y-110750995D01*
X144250174Y-110650721D01*
X144229000Y-110544270D01*
X144229000Y-110435730D01*
X144250174Y-110329279D01*
X144291709Y-110229005D01*
X144352009Y-110138760D01*
X144352010Y-110138758D01*
X144428758Y-110062010D01*
X144519004Y-110001710D01*
X144519005Y-110001709D01*
X144619279Y-109960174D01*
X144725730Y-109939000D01*
X144834270Y-109939000D01*
X144940721Y-109960174D01*
X144940721Y-109960174D01*
G37*
G36*
X142400721Y-109960174D02*
G01*
X142500995Y-110001709D01*
X142500996Y-110001710D01*
X142591242Y-110062010D01*
X142667990Y-110138758D01*
X142667991Y-110138760D01*
X142728291Y-110229005D01*
X142769826Y-110329279D01*
X142791000Y-110435730D01*
X142791000Y-110544270D01*
X142769826Y-110650721D01*
X142728291Y-110750995D01*
X142728290Y-110750996D01*
X142667990Y-110841242D01*
X142591242Y-110917990D01*
X142545812Y-110948345D01*
X142500995Y-110978291D01*
X142400721Y-111019826D01*
X142294270Y-111041000D01*
X142185730Y-111041000D01*
X142079279Y-111019826D01*
X141979005Y-110978291D01*
X141934188Y-110948345D01*
X141888758Y-110917990D01*
X141812010Y-110841242D01*
X141751710Y-110750996D01*
X141751709Y-110750995D01*
X141710174Y-110650721D01*
X141689000Y-110544270D01*
X141689000Y-110435730D01*
X141710174Y-110329279D01*
X141751709Y-110229005D01*
X141812009Y-110138760D01*
X141812010Y-110138758D01*
X141888758Y-110062010D01*
X141979004Y-110001710D01*
X141979005Y-110001709D01*
X142079279Y-109960174D01*
X142185730Y-109939000D01*
X142294270Y-109939000D01*
X142400721Y-109960174D01*
X142400721Y-109960174D01*
G37*
G36*
X139860721Y-109960174D02*
G01*
X139960995Y-110001709D01*
X139960996Y-110001710D01*
X140051242Y-110062010D01*
X140127990Y-110138758D01*
X140127991Y-110138760D01*
X140188291Y-110229005D01*
X140229826Y-110329279D01*
X140251000Y-110435730D01*
X140251000Y-110544270D01*
X140229826Y-110650721D01*
X140188291Y-110750995D01*
X140188290Y-110750996D01*
X140127990Y-110841242D01*
X140051242Y-110917990D01*
X140005812Y-110948345D01*
X139960995Y-110978291D01*
X139860721Y-111019826D01*
X139754270Y-111041000D01*
X139645730Y-111041000D01*
X139539279Y-111019826D01*
X139439005Y-110978291D01*
X139394188Y-110948345D01*
X139348758Y-110917990D01*
X139272010Y-110841242D01*
X139211710Y-110750996D01*
X139211709Y-110750995D01*
X139170174Y-110650721D01*
X139149000Y-110544270D01*
X139149000Y-110435730D01*
X139170174Y-110329279D01*
X139211709Y-110229005D01*
X139272009Y-110138760D01*
X139272010Y-110138758D01*
X139348758Y-110062010D01*
X139439004Y-110001710D01*
X139439005Y-110001709D01*
X139539279Y-109960174D01*
X139645730Y-109939000D01*
X139754270Y-109939000D01*
X139860721Y-109960174D01*
X139860721Y-109960174D01*
G37*
G36*
X137320721Y-109960174D02*
G01*
X137420995Y-110001709D01*
X137420996Y-110001710D01*
X137511242Y-110062010D01*
X137587990Y-110138758D01*
X137587991Y-110138760D01*
X137648291Y-110229005D01*
X137689826Y-110329279D01*
X137711000Y-110435730D01*
X137711000Y-110544270D01*
X137689826Y-110650721D01*
X137648291Y-110750995D01*
X137648290Y-110750996D01*
X137587990Y-110841242D01*
X137511242Y-110917990D01*
X137465812Y-110948345D01*
X137420995Y-110978291D01*
X137320721Y-111019826D01*
X137214270Y-111041000D01*
X137105730Y-111041000D01*
X136999279Y-111019826D01*
X136899005Y-110978291D01*
X136854188Y-110948345D01*
X136808758Y-110917990D01*
X136732010Y-110841242D01*
X136671710Y-110750996D01*
X136671709Y-110750995D01*
X136630174Y-110650721D01*
X136609000Y-110544270D01*
X136609000Y-110435730D01*
X136630174Y-110329279D01*
X136671709Y-110229005D01*
X136732009Y-110138760D01*
X136732010Y-110138758D01*
X136808758Y-110062010D01*
X136899004Y-110001710D01*
X136899005Y-110001709D01*
X136999279Y-109960174D01*
X137105730Y-109939000D01*
X137214270Y-109939000D01*
X137320721Y-109960174D01*
X137320721Y-109960174D01*
G37*
G36*
X134780721Y-109960174D02*
G01*
X134880995Y-110001709D01*
X134880996Y-110001710D01*
X134971242Y-110062010D01*
X135047990Y-110138758D01*
X135047991Y-110138760D01*
X135108291Y-110229005D01*
X135149826Y-110329279D01*
X135171000Y-110435730D01*
X135171000Y-110544270D01*
X135149826Y-110650721D01*
X135108291Y-110750995D01*
X135108290Y-110750996D01*
X135047990Y-110841242D01*
X134971242Y-110917990D01*
X134925812Y-110948345D01*
X134880995Y-110978291D01*
X134780721Y-111019826D01*
X134674270Y-111041000D01*
X134565730Y-111041000D01*
X134459279Y-111019826D01*
X134359005Y-110978291D01*
X134314188Y-110948345D01*
X134268758Y-110917990D01*
X134192010Y-110841242D01*
X134131710Y-110750996D01*
X134131709Y-110750995D01*
X134090174Y-110650721D01*
X134069000Y-110544270D01*
X134069000Y-110435730D01*
X134090174Y-110329279D01*
X134131709Y-110229005D01*
X134192009Y-110138760D01*
X134192010Y-110138758D01*
X134268758Y-110062010D01*
X134359004Y-110001710D01*
X134359005Y-110001709D01*
X134459279Y-109960174D01*
X134565730Y-109939000D01*
X134674270Y-109939000D01*
X134780721Y-109960174D01*
X134780721Y-109960174D01*
G37*
G36*
X103030721Y-97895174D02*
G01*
X103130995Y-97936709D01*
X103130996Y-97936710D01*
X103221242Y-97997010D01*
X103297990Y-98073758D01*
X103297991Y-98073760D01*
X103358291Y-98164005D01*
X103399826Y-98264279D01*
X103421000Y-98370730D01*
X103421000Y-98479270D01*
X103399826Y-98585721D01*
X103358291Y-98685995D01*
X103358290Y-98685996D01*
X103297990Y-98776242D01*
X103221242Y-98852990D01*
X103175812Y-98883345D01*
X103130995Y-98913291D01*
X103030721Y-98954826D01*
X102924270Y-98976000D01*
X102815730Y-98976000D01*
X102709279Y-98954826D01*
X102609005Y-98913291D01*
X102564188Y-98883345D01*
X102518758Y-98852990D01*
X102442010Y-98776242D01*
X102381710Y-98685996D01*
X102381709Y-98685995D01*
X102340174Y-98585721D01*
X102319000Y-98479270D01*
X102319000Y-98370730D01*
X102340174Y-98264279D01*
X102381709Y-98164005D01*
X102442009Y-98073760D01*
X102442010Y-98073758D01*
X102518758Y-97997010D01*
X102609004Y-97936710D01*
X102609005Y-97936709D01*
X102709279Y-97895174D01*
X102815730Y-97874000D01*
X102924270Y-97874000D01*
X103030721Y-97895174D01*
X103030721Y-97895174D01*
G37*
G36*
X100490721Y-97895174D02*
G01*
X100590995Y-97936709D01*
X100590996Y-97936710D01*
X100681242Y-97997010D01*
X100757990Y-98073758D01*
X100757991Y-98073760D01*
X100818291Y-98164005D01*
X100859826Y-98264279D01*
X100881000Y-98370730D01*
X100881000Y-98479270D01*
X100859826Y-98585721D01*
X100818291Y-98685995D01*
X100818290Y-98685996D01*
X100757990Y-98776242D01*
X100681242Y-98852990D01*
X100635812Y-98883345D01*
X100590995Y-98913291D01*
X100490721Y-98954826D01*
X100384270Y-98976000D01*
X100275730Y-98976000D01*
X100169279Y-98954826D01*
X100069005Y-98913291D01*
X100024188Y-98883345D01*
X99978758Y-98852990D01*
X99902010Y-98776242D01*
X99841710Y-98685996D01*
X99841709Y-98685995D01*
X99800174Y-98585721D01*
X99779000Y-98479270D01*
X99779000Y-98370730D01*
X99800174Y-98264279D01*
X99841709Y-98164005D01*
X99902009Y-98073760D01*
X99902010Y-98073758D01*
X99978758Y-97997010D01*
X100069004Y-97936710D01*
X100069005Y-97936709D01*
X100169279Y-97895174D01*
X100275730Y-97874000D01*
X100384270Y-97874000D01*
X100490721Y-97895174D01*
X100490721Y-97895174D01*
G37*
G36*
X97950721Y-97895174D02*
G01*
X98050995Y-97936709D01*
X98050996Y-97936710D01*
X98141242Y-97997010D01*
X98217990Y-98073758D01*
X98217991Y-98073760D01*
X98278291Y-98164005D01*
X98319826Y-98264279D01*
X98341000Y-98370730D01*
X98341000Y-98479270D01*
X98319826Y-98585721D01*
X98278291Y-98685995D01*
X98278290Y-98685996D01*
X98217990Y-98776242D01*
X98141242Y-98852990D01*
X98095812Y-98883345D01*
X98050995Y-98913291D01*
X97950721Y-98954826D01*
X97844270Y-98976000D01*
X97735730Y-98976000D01*
X97629279Y-98954826D01*
X97529005Y-98913291D01*
X97484188Y-98883345D01*
X97438758Y-98852990D01*
X97362010Y-98776242D01*
X97301710Y-98685996D01*
X97301709Y-98685995D01*
X97260174Y-98585721D01*
X97239000Y-98479270D01*
X97239000Y-98370730D01*
X97260174Y-98264279D01*
X97301709Y-98164005D01*
X97362009Y-98073760D01*
X97362010Y-98073758D01*
X97438758Y-97997010D01*
X97529004Y-97936710D01*
X97529005Y-97936709D01*
X97629279Y-97895174D01*
X97735730Y-97874000D01*
X97844270Y-97874000D01*
X97950721Y-97895174D01*
X97950721Y-97895174D01*
G37*
G36*
X95410721Y-97895174D02*
G01*
X95510995Y-97936709D01*
X95510996Y-97936710D01*
X95601242Y-97997010D01*
X95677990Y-98073758D01*
X95677991Y-98073760D01*
X95738291Y-98164005D01*
X95779826Y-98264279D01*
X95801000Y-98370730D01*
X95801000Y-98479270D01*
X95779826Y-98585721D01*
X95738291Y-98685995D01*
X95738290Y-98685996D01*
X95677990Y-98776242D01*
X95601242Y-98852990D01*
X95555812Y-98883345D01*
X95510995Y-98913291D01*
X95410721Y-98954826D01*
X95304270Y-98976000D01*
X95195730Y-98976000D01*
X95089279Y-98954826D01*
X94989005Y-98913291D01*
X94944188Y-98883345D01*
X94898758Y-98852990D01*
X94822010Y-98776242D01*
X94761710Y-98685996D01*
X94761709Y-98685995D01*
X94720174Y-98585721D01*
X94699000Y-98479270D01*
X94699000Y-98370730D01*
X94720174Y-98264279D01*
X94761709Y-98164005D01*
X94822009Y-98073760D01*
X94822010Y-98073758D01*
X94898758Y-97997010D01*
X94989004Y-97936710D01*
X94989005Y-97936709D01*
X95089279Y-97895174D01*
X95195730Y-97874000D01*
X95304270Y-97874000D01*
X95410721Y-97895174D01*
X95410721Y-97895174D01*
G37*
G36*
X150020721Y-97260174D02*
G01*
X150120995Y-97301709D01*
X150120996Y-97301710D01*
X150211242Y-97362010D01*
X150287990Y-97438758D01*
X150287991Y-97438760D01*
X150348291Y-97529005D01*
X150389826Y-97629279D01*
X150411000Y-97735730D01*
X150411000Y-97844270D01*
X150389826Y-97950721D01*
X150348291Y-98050995D01*
X150348290Y-98050996D01*
X150287990Y-98141242D01*
X150211242Y-98217990D01*
X150165812Y-98248345D01*
X150120995Y-98278291D01*
X150020721Y-98319826D01*
X149914270Y-98341000D01*
X149805730Y-98341000D01*
X149699279Y-98319826D01*
X149599005Y-98278291D01*
X149554188Y-98248345D01*
X149508758Y-98217990D01*
X149432010Y-98141242D01*
X149371710Y-98050996D01*
X149371709Y-98050995D01*
X149330174Y-97950721D01*
X149309000Y-97844270D01*
X149309000Y-97735730D01*
X149330174Y-97629279D01*
X149371709Y-97529005D01*
X149432009Y-97438760D01*
X149432010Y-97438758D01*
X149508758Y-97362010D01*
X149599004Y-97301710D01*
X149599005Y-97301709D01*
X149699279Y-97260174D01*
X149805730Y-97239000D01*
X149914270Y-97239000D01*
X150020721Y-97260174D01*
X150020721Y-97260174D01*
G37*
G36*
X144940721Y-97260174D02*
G01*
X145040995Y-97301709D01*
X145040996Y-97301710D01*
X145131242Y-97362010D01*
X145207990Y-97438758D01*
X145207991Y-97438760D01*
X145268291Y-97529005D01*
X145309826Y-97629279D01*
X145331000Y-97735730D01*
X145331000Y-97844270D01*
X145309826Y-97950721D01*
X145268291Y-98050995D01*
X145268290Y-98050996D01*
X145207990Y-98141242D01*
X145131242Y-98217990D01*
X145085812Y-98248345D01*
X145040995Y-98278291D01*
X144940721Y-98319826D01*
X144834270Y-98341000D01*
X144725730Y-98341000D01*
X144619279Y-98319826D01*
X144519005Y-98278291D01*
X144474188Y-98248345D01*
X144428758Y-98217990D01*
X144352010Y-98141242D01*
X144291710Y-98050996D01*
X144291709Y-98050995D01*
X144250174Y-97950721D01*
X144229000Y-97844270D01*
X144229000Y-97735730D01*
X144250174Y-97629279D01*
X144291709Y-97529005D01*
X144352009Y-97438760D01*
X144352010Y-97438758D01*
X144428758Y-97362010D01*
X144519004Y-97301710D01*
X144519005Y-97301709D01*
X144619279Y-97260174D01*
X144725730Y-97239000D01*
X144834270Y-97239000D01*
X144940721Y-97260174D01*
X144940721Y-97260174D01*
G37*
G36*
X142400721Y-97260174D02*
G01*
X142500995Y-97301709D01*
X142500996Y-97301710D01*
X142591242Y-97362010D01*
X142667990Y-97438758D01*
X142667991Y-97438760D01*
X142728291Y-97529005D01*
X142769826Y-97629279D01*
X142791000Y-97735730D01*
X142791000Y-97844270D01*
X142769826Y-97950721D01*
X142728291Y-98050995D01*
X142728290Y-98050996D01*
X142667990Y-98141242D01*
X142591242Y-98217990D01*
X142545812Y-98248345D01*
X142500995Y-98278291D01*
X142400721Y-98319826D01*
X142294270Y-98341000D01*
X142185730Y-98341000D01*
X142079279Y-98319826D01*
X141979005Y-98278291D01*
X141934188Y-98248345D01*
X141888758Y-98217990D01*
X141812010Y-98141242D01*
X141751710Y-98050996D01*
X141751709Y-98050995D01*
X141710174Y-97950721D01*
X141689000Y-97844270D01*
X141689000Y-97735730D01*
X141710174Y-97629279D01*
X141751709Y-97529005D01*
X141812009Y-97438760D01*
X141812010Y-97438758D01*
X141888758Y-97362010D01*
X141979004Y-97301710D01*
X141979005Y-97301709D01*
X142079279Y-97260174D01*
X142185730Y-97239000D01*
X142294270Y-97239000D01*
X142400721Y-97260174D01*
X142400721Y-97260174D01*
G37*
G36*
X139860721Y-97260174D02*
G01*
X139960995Y-97301709D01*
X139960996Y-97301710D01*
X140051242Y-97362010D01*
X140127990Y-97438758D01*
X140127991Y-97438760D01*
X140188291Y-97529005D01*
X140229826Y-97629279D01*
X140251000Y-97735730D01*
X140251000Y-97844270D01*
X140229826Y-97950721D01*
X140188291Y-98050995D01*
X140188290Y-98050996D01*
X140127990Y-98141242D01*
X140051242Y-98217990D01*
X140005812Y-98248345D01*
X139960995Y-98278291D01*
X139860721Y-98319826D01*
X139754270Y-98341000D01*
X139645730Y-98341000D01*
X139539279Y-98319826D01*
X139439005Y-98278291D01*
X139394188Y-98248345D01*
X139348758Y-98217990D01*
X139272010Y-98141242D01*
X139211710Y-98050996D01*
X139211709Y-98050995D01*
X139170174Y-97950721D01*
X139149000Y-97844270D01*
X139149000Y-97735730D01*
X139170174Y-97629279D01*
X139211709Y-97529005D01*
X139272009Y-97438760D01*
X139272010Y-97438758D01*
X139348758Y-97362010D01*
X139439004Y-97301710D01*
X139439005Y-97301709D01*
X139539279Y-97260174D01*
X139645730Y-97239000D01*
X139754270Y-97239000D01*
X139860721Y-97260174D01*
X139860721Y-97260174D01*
G37*
G36*
X137320721Y-97260174D02*
G01*
X137420995Y-97301709D01*
X137420996Y-97301710D01*
X137511242Y-97362010D01*
X137587990Y-97438758D01*
X137587991Y-97438760D01*
X137648291Y-97529005D01*
X137689826Y-97629279D01*
X137711000Y-97735730D01*
X137711000Y-97844270D01*
X137689826Y-97950721D01*
X137648291Y-98050995D01*
X137648290Y-98050996D01*
X137587990Y-98141242D01*
X137511242Y-98217990D01*
X137465812Y-98248345D01*
X137420995Y-98278291D01*
X137320721Y-98319826D01*
X137214270Y-98341000D01*
X137105730Y-98341000D01*
X136999279Y-98319826D01*
X136899005Y-98278291D01*
X136854188Y-98248345D01*
X136808758Y-98217990D01*
X136732010Y-98141242D01*
X136671710Y-98050996D01*
X136671709Y-98050995D01*
X136630174Y-97950721D01*
X136609000Y-97844270D01*
X136609000Y-97735730D01*
X136630174Y-97629279D01*
X136671709Y-97529005D01*
X136732009Y-97438760D01*
X136732010Y-97438758D01*
X136808758Y-97362010D01*
X136899004Y-97301710D01*
X136899005Y-97301709D01*
X136999279Y-97260174D01*
X137105730Y-97239000D01*
X137214270Y-97239000D01*
X137320721Y-97260174D01*
X137320721Y-97260174D01*
G37*
G36*
X134780721Y-97260174D02*
G01*
X134880995Y-97301709D01*
X134880996Y-97301710D01*
X134971242Y-97362010D01*
X135047990Y-97438758D01*
X135047991Y-97438760D01*
X135108291Y-97529005D01*
X135149826Y-97629279D01*
X135171000Y-97735730D01*
X135171000Y-97844270D01*
X135149826Y-97950721D01*
X135108291Y-98050995D01*
X135108290Y-98050996D01*
X135047990Y-98141242D01*
X134971242Y-98217990D01*
X134925812Y-98248345D01*
X134880995Y-98278291D01*
X134780721Y-98319826D01*
X134674270Y-98341000D01*
X134565730Y-98341000D01*
X134459279Y-98319826D01*
X134359005Y-98278291D01*
X134314188Y-98248345D01*
X134268758Y-98217990D01*
X134192010Y-98141242D01*
X134131710Y-98050996D01*
X134131709Y-98050995D01*
X134090174Y-97950721D01*
X134069000Y-97844270D01*
X134069000Y-97735730D01*
X134090174Y-97629279D01*
X134131709Y-97529005D01*
X134192009Y-97438760D01*
X134192010Y-97438758D01*
X134268758Y-97362010D01*
X134359004Y-97301710D01*
X134359005Y-97301709D01*
X134459279Y-97260174D01*
X134565730Y-97239000D01*
X134674270Y-97239000D01*
X134780721Y-97260174D01*
X134780721Y-97260174D01*
G37*
G36*
X132240721Y-97260174D02*
G01*
X132340995Y-97301709D01*
X132340996Y-97301710D01*
X132431242Y-97362010D01*
X132507990Y-97438758D01*
X132507991Y-97438760D01*
X132568291Y-97529005D01*
X132609826Y-97629279D01*
X132631000Y-97735730D01*
X132631000Y-97844270D01*
X132609826Y-97950721D01*
X132568291Y-98050995D01*
X132568290Y-98050996D01*
X132507990Y-98141242D01*
X132431242Y-98217990D01*
X132385812Y-98248345D01*
X132340995Y-98278291D01*
X132240721Y-98319826D01*
X132134270Y-98341000D01*
X132025730Y-98341000D01*
X131919279Y-98319826D01*
X131819005Y-98278291D01*
X131774188Y-98248345D01*
X131728758Y-98217990D01*
X131652010Y-98141242D01*
X131591710Y-98050996D01*
X131591709Y-98050995D01*
X131550174Y-97950721D01*
X131529000Y-97844270D01*
X131529000Y-97735730D01*
X131550174Y-97629279D01*
X131591709Y-97529005D01*
X131652009Y-97438760D01*
X131652010Y-97438758D01*
X131728758Y-97362010D01*
X131819004Y-97301710D01*
X131819005Y-97301709D01*
X131919279Y-97260174D01*
X132025730Y-97239000D01*
X132134270Y-97239000D01*
X132240721Y-97260174D01*
X132240721Y-97260174D01*
G37*
G36*
X147480721Y-97260174D02*
G01*
X147580995Y-97301709D01*
X147580996Y-97301710D01*
X147671242Y-97362010D01*
X147747990Y-97438758D01*
X147747991Y-97438760D01*
X147808291Y-97529005D01*
X147849826Y-97629279D01*
X147871000Y-97735730D01*
X147871000Y-97844270D01*
X147849826Y-97950721D01*
X147808291Y-98050995D01*
X147808290Y-98050996D01*
X147747990Y-98141242D01*
X147671242Y-98217990D01*
X147625812Y-98248345D01*
X147580995Y-98278291D01*
X147480721Y-98319826D01*
X147374270Y-98341000D01*
X147265730Y-98341000D01*
X147159279Y-98319826D01*
X147059005Y-98278291D01*
X147014188Y-98248345D01*
X146968758Y-98217990D01*
X146892010Y-98141242D01*
X146831710Y-98050996D01*
X146831709Y-98050995D01*
X146790174Y-97950721D01*
X146769000Y-97844270D01*
X146769000Y-97735730D01*
X146790174Y-97629279D01*
X146831709Y-97529005D01*
X146892009Y-97438760D01*
X146892010Y-97438758D01*
X146968758Y-97362010D01*
X147059004Y-97301710D01*
X147059005Y-97301709D01*
X147159279Y-97260174D01*
X147265730Y-97239000D01*
X147374270Y-97239000D01*
X147480721Y-97260174D01*
X147480721Y-97260174D01*
G37*
G36*
X127160721Y-97260174D02*
G01*
X127260995Y-97301709D01*
X127260996Y-97301710D01*
X127351242Y-97362010D01*
X127427990Y-97438758D01*
X127427991Y-97438760D01*
X127488291Y-97529005D01*
X127529826Y-97629279D01*
X127551000Y-97735730D01*
X127551000Y-97844270D01*
X127529826Y-97950721D01*
X127488291Y-98050995D01*
X127488290Y-98050996D01*
X127427990Y-98141242D01*
X127351242Y-98217990D01*
X127305812Y-98248345D01*
X127260995Y-98278291D01*
X127160721Y-98319826D01*
X127054270Y-98341000D01*
X126945730Y-98341000D01*
X126839279Y-98319826D01*
X126739005Y-98278291D01*
X126694188Y-98248345D01*
X126648758Y-98217990D01*
X126572010Y-98141242D01*
X126511710Y-98050996D01*
X126511709Y-98050995D01*
X126470174Y-97950721D01*
X126449000Y-97844270D01*
X126449000Y-97735730D01*
X126470174Y-97629279D01*
X126511709Y-97529005D01*
X126572009Y-97438760D01*
X126572010Y-97438758D01*
X126648758Y-97362010D01*
X126739004Y-97301710D01*
X126739005Y-97301709D01*
X126839279Y-97260174D01*
X126945730Y-97239000D01*
X127054270Y-97239000D01*
X127160721Y-97260174D01*
X127160721Y-97260174D01*
G37*
G36*
X152560721Y-97260174D02*
G01*
X152660995Y-97301709D01*
X152660996Y-97301710D01*
X152751242Y-97362010D01*
X152827990Y-97438758D01*
X152827991Y-97438760D01*
X152888291Y-97529005D01*
X152929826Y-97629279D01*
X152951000Y-97735730D01*
X152951000Y-97844270D01*
X152929826Y-97950721D01*
X152888291Y-98050995D01*
X152888290Y-98050996D01*
X152827990Y-98141242D01*
X152751242Y-98217990D01*
X152705812Y-98248345D01*
X152660995Y-98278291D01*
X152560721Y-98319826D01*
X152454270Y-98341000D01*
X152345730Y-98341000D01*
X152239279Y-98319826D01*
X152139005Y-98278291D01*
X152094188Y-98248345D01*
X152048758Y-98217990D01*
X151972010Y-98141242D01*
X151911710Y-98050996D01*
X151911709Y-98050995D01*
X151870174Y-97950721D01*
X151849000Y-97844270D01*
X151849000Y-97735730D01*
X151870174Y-97629279D01*
X151911709Y-97529005D01*
X151972009Y-97438760D01*
X151972010Y-97438758D01*
X152048758Y-97362010D01*
X152139004Y-97301710D01*
X152139005Y-97301709D01*
X152239279Y-97260174D01*
X152345730Y-97239000D01*
X152454270Y-97239000D01*
X152560721Y-97260174D01*
X152560721Y-97260174D01*
G37*
G36*
X124620721Y-97260174D02*
G01*
X124720995Y-97301709D01*
X124720996Y-97301710D01*
X124811242Y-97362010D01*
X124887990Y-97438758D01*
X124887991Y-97438760D01*
X124948291Y-97529005D01*
X124989826Y-97629279D01*
X125011000Y-97735730D01*
X125011000Y-97844270D01*
X124989826Y-97950721D01*
X124948291Y-98050995D01*
X124948290Y-98050996D01*
X124887990Y-98141242D01*
X124811242Y-98217990D01*
X124765812Y-98248345D01*
X124720995Y-98278291D01*
X124620721Y-98319826D01*
X124514270Y-98341000D01*
X124405730Y-98341000D01*
X124299279Y-98319826D01*
X124199005Y-98278291D01*
X124154188Y-98248345D01*
X124108758Y-98217990D01*
X124032010Y-98141242D01*
X123971710Y-98050996D01*
X123971709Y-98050995D01*
X123930174Y-97950721D01*
X123909000Y-97844270D01*
X123909000Y-97735730D01*
X123930174Y-97629279D01*
X123971709Y-97529005D01*
X124032009Y-97438760D01*
X124032010Y-97438758D01*
X124108758Y-97362010D01*
X124199004Y-97301710D01*
X124199005Y-97301709D01*
X124299279Y-97260174D01*
X124405730Y-97239000D01*
X124514270Y-97239000D01*
X124620721Y-97260174D01*
X124620721Y-97260174D01*
G37*
G36*
X122080721Y-97260174D02*
G01*
X122180995Y-97301709D01*
X122180996Y-97301710D01*
X122271242Y-97362010D01*
X122347990Y-97438758D01*
X122347991Y-97438760D01*
X122408291Y-97529005D01*
X122449826Y-97629279D01*
X122471000Y-97735730D01*
X122471000Y-97844270D01*
X122449826Y-97950721D01*
X122408291Y-98050995D01*
X122408290Y-98050996D01*
X122347990Y-98141242D01*
X122271242Y-98217990D01*
X122225812Y-98248345D01*
X122180995Y-98278291D01*
X122080721Y-98319826D01*
X121974270Y-98341000D01*
X121865730Y-98341000D01*
X121759279Y-98319826D01*
X121659005Y-98278291D01*
X121614188Y-98248345D01*
X121568758Y-98217990D01*
X121492010Y-98141242D01*
X121431710Y-98050996D01*
X121431709Y-98050995D01*
X121390174Y-97950721D01*
X121369000Y-97844270D01*
X121369000Y-97735730D01*
X121390174Y-97629279D01*
X121431709Y-97529005D01*
X121492009Y-97438760D01*
X121492010Y-97438758D01*
X121568758Y-97362010D01*
X121659004Y-97301710D01*
X121659005Y-97301709D01*
X121759279Y-97260174D01*
X121865730Y-97239000D01*
X121974270Y-97239000D01*
X122080721Y-97260174D01*
X122080721Y-97260174D01*
G37*
G36*
X119540721Y-97260174D02*
G01*
X119640995Y-97301709D01*
X119640996Y-97301710D01*
X119731242Y-97362010D01*
X119807990Y-97438758D01*
X119807991Y-97438760D01*
X119868291Y-97529005D01*
X119909826Y-97629279D01*
X119931000Y-97735730D01*
X119931000Y-97844270D01*
X119909826Y-97950721D01*
X119868291Y-98050995D01*
X119868290Y-98050996D01*
X119807990Y-98141242D01*
X119731242Y-98217990D01*
X119685812Y-98248345D01*
X119640995Y-98278291D01*
X119540721Y-98319826D01*
X119434270Y-98341000D01*
X119325730Y-98341000D01*
X119219279Y-98319826D01*
X119119005Y-98278291D01*
X119074188Y-98248345D01*
X119028758Y-98217990D01*
X118952010Y-98141242D01*
X118891710Y-98050996D01*
X118891709Y-98050995D01*
X118850174Y-97950721D01*
X118829000Y-97844270D01*
X118829000Y-97735730D01*
X118850174Y-97629279D01*
X118891709Y-97529005D01*
X118952009Y-97438760D01*
X118952010Y-97438758D01*
X119028758Y-97362010D01*
X119119004Y-97301710D01*
X119119005Y-97301709D01*
X119219279Y-97260174D01*
X119325730Y-97239000D01*
X119434270Y-97239000D01*
X119540721Y-97260174D01*
X119540721Y-97260174D01*
G37*
G36*
X117000721Y-97260174D02*
G01*
X117100995Y-97301709D01*
X117100996Y-97301710D01*
X117191242Y-97362010D01*
X117267990Y-97438758D01*
X117267991Y-97438760D01*
X117328291Y-97529005D01*
X117369826Y-97629279D01*
X117391000Y-97735730D01*
X117391000Y-97844270D01*
X117369826Y-97950721D01*
X117328291Y-98050995D01*
X117328290Y-98050996D01*
X117267990Y-98141242D01*
X117191242Y-98217990D01*
X117145812Y-98248345D01*
X117100995Y-98278291D01*
X117000721Y-98319826D01*
X116894270Y-98341000D01*
X116785730Y-98341000D01*
X116679279Y-98319826D01*
X116579005Y-98278291D01*
X116534188Y-98248345D01*
X116488758Y-98217990D01*
X116412010Y-98141242D01*
X116351710Y-98050996D01*
X116351709Y-98050995D01*
X116310174Y-97950721D01*
X116289000Y-97844270D01*
X116289000Y-97735730D01*
X116310174Y-97629279D01*
X116351709Y-97529005D01*
X116412009Y-97438760D01*
X116412010Y-97438758D01*
X116488758Y-97362010D01*
X116579004Y-97301710D01*
X116579005Y-97301709D01*
X116679279Y-97260174D01*
X116785730Y-97239000D01*
X116894270Y-97239000D01*
X117000721Y-97260174D01*
X117000721Y-97260174D01*
G37*
G36*
X129700721Y-97260174D02*
G01*
X129800995Y-97301709D01*
X129800996Y-97301710D01*
X129891242Y-97362010D01*
X129967990Y-97438758D01*
X129967991Y-97438760D01*
X130028291Y-97529005D01*
X130069826Y-97629279D01*
X130091000Y-97735730D01*
X130091000Y-97844270D01*
X130069826Y-97950721D01*
X130028291Y-98050995D01*
X130028290Y-98050996D01*
X129967990Y-98141242D01*
X129891242Y-98217990D01*
X129845812Y-98248345D01*
X129800995Y-98278291D01*
X129700721Y-98319826D01*
X129594270Y-98341000D01*
X129485730Y-98341000D01*
X129379279Y-98319826D01*
X129279005Y-98278291D01*
X129234188Y-98248345D01*
X129188758Y-98217990D01*
X129112010Y-98141242D01*
X129051710Y-98050996D01*
X129051709Y-98050995D01*
X129010174Y-97950721D01*
X128989000Y-97844270D01*
X128989000Y-97735730D01*
X129010174Y-97629279D01*
X129051709Y-97529005D01*
X129112009Y-97438760D01*
X129112010Y-97438758D01*
X129188758Y-97362010D01*
X129279004Y-97301710D01*
X129279005Y-97301709D01*
X129379279Y-97260174D01*
X129485730Y-97239000D01*
X129594270Y-97239000D01*
X129700721Y-97260174D01*
X129700721Y-97260174D01*
G37*
G36*
X114460721Y-97260174D02*
G01*
X114560995Y-97301709D01*
X114560996Y-97301710D01*
X114651242Y-97362010D01*
X114727990Y-97438758D01*
X114727991Y-97438760D01*
X114788291Y-97529005D01*
X114829826Y-97629279D01*
X114851000Y-97735730D01*
X114851000Y-97844270D01*
X114829826Y-97950721D01*
X114788291Y-98050995D01*
X114788290Y-98050996D01*
X114727990Y-98141242D01*
X114651242Y-98217990D01*
X114605812Y-98248345D01*
X114560995Y-98278291D01*
X114460721Y-98319826D01*
X114354270Y-98341000D01*
X114245730Y-98341000D01*
X114139279Y-98319826D01*
X114039005Y-98278291D01*
X113994188Y-98248345D01*
X113948758Y-98217990D01*
X113872010Y-98141242D01*
X113811710Y-98050996D01*
X113811709Y-98050995D01*
X113770174Y-97950721D01*
X113749000Y-97844270D01*
X113749000Y-97735730D01*
X113770174Y-97629279D01*
X113811709Y-97529005D01*
X113872009Y-97438760D01*
X113872010Y-97438758D01*
X113948758Y-97362010D01*
X114039004Y-97301710D01*
X114039005Y-97301709D01*
X114139279Y-97260174D01*
X114245730Y-97239000D01*
X114354270Y-97239000D01*
X114460721Y-97260174D01*
X114460721Y-97260174D01*
G37*
G36*
X111920721Y-97260174D02*
G01*
X112020995Y-97301709D01*
X112020996Y-97301710D01*
X112111242Y-97362010D01*
X112187990Y-97438758D01*
X112187991Y-97438760D01*
X112248291Y-97529005D01*
X112289826Y-97629279D01*
X112311000Y-97735730D01*
X112311000Y-97844270D01*
X112289826Y-97950721D01*
X112248291Y-98050995D01*
X112248290Y-98050996D01*
X112187990Y-98141242D01*
X112111242Y-98217990D01*
X112065812Y-98248345D01*
X112020995Y-98278291D01*
X111920721Y-98319826D01*
X111814270Y-98341000D01*
X111705730Y-98341000D01*
X111599279Y-98319826D01*
X111499005Y-98278291D01*
X111454188Y-98248345D01*
X111408758Y-98217990D01*
X111332010Y-98141242D01*
X111271710Y-98050996D01*
X111271709Y-98050995D01*
X111230174Y-97950721D01*
X111209000Y-97844270D01*
X111209000Y-97735730D01*
X111230174Y-97629279D01*
X111271709Y-97529005D01*
X111332009Y-97438760D01*
X111332010Y-97438758D01*
X111408758Y-97362010D01*
X111499004Y-97301710D01*
X111499005Y-97301709D01*
X111599279Y-97260174D01*
X111705730Y-97239000D01*
X111814270Y-97239000D01*
X111920721Y-97260174D01*
X111920721Y-97260174D01*
G37*
G36*
X152510442Y-94355518D02*
G01*
X152576627Y-94362037D01*
X152746466Y-94413557D01*
X152902991Y-94497222D01*
X152938729Y-94526552D01*
X153040186Y-94609814D01*
X153123448Y-94711271D01*
X153152778Y-94747009D01*
X153236443Y-94903534D01*
X153287963Y-95073373D01*
X153305359Y-95250000D01*
X153287963Y-95426627D01*
X153236443Y-95596466D01*
X153152778Y-95752991D01*
X153123448Y-95788729D01*
X153040186Y-95890186D01*
X152938729Y-95973448D01*
X152902991Y-96002778D01*
X152746466Y-96086443D01*
X152576627Y-96137963D01*
X152510443Y-96144481D01*
X152444260Y-96151000D01*
X152355740Y-96151000D01*
X152289558Y-96144482D01*
X152223373Y-96137963D01*
X152053534Y-96086443D01*
X151897009Y-96002778D01*
X151861271Y-95973448D01*
X151759814Y-95890186D01*
X151676552Y-95788729D01*
X151647222Y-95752991D01*
X151563557Y-95596466D01*
X151512037Y-95426627D01*
X151494641Y-95250000D01*
X151512037Y-95073373D01*
X151563557Y-94903534D01*
X151647222Y-94747009D01*
X151676552Y-94711271D01*
X151759814Y-94609814D01*
X151861271Y-94526552D01*
X151897009Y-94497222D01*
X152053534Y-94413557D01*
X152223373Y-94362037D01*
X152289557Y-94355519D01*
X152355740Y-94349000D01*
X152444260Y-94349000D01*
X152510442Y-94355518D01*
X152510442Y-94355518D01*
G37*
G36*
X122030442Y-94355518D02*
G01*
X122096627Y-94362037D01*
X122266466Y-94413557D01*
X122422991Y-94497222D01*
X122458729Y-94526552D01*
X122560186Y-94609814D01*
X122643448Y-94711271D01*
X122672778Y-94747009D01*
X122756443Y-94903534D01*
X122807963Y-95073373D01*
X122825359Y-95250000D01*
X122807963Y-95426627D01*
X122756443Y-95596466D01*
X122672778Y-95752991D01*
X122643448Y-95788729D01*
X122560186Y-95890186D01*
X122458729Y-95973448D01*
X122422991Y-96002778D01*
X122266466Y-96086443D01*
X122096627Y-96137963D01*
X122030443Y-96144481D01*
X121964260Y-96151000D01*
X121875740Y-96151000D01*
X121809558Y-96144482D01*
X121743373Y-96137963D01*
X121573534Y-96086443D01*
X121417009Y-96002778D01*
X121381271Y-95973448D01*
X121279814Y-95890186D01*
X121196552Y-95788729D01*
X121167222Y-95752991D01*
X121083557Y-95596466D01*
X121032037Y-95426627D01*
X121014641Y-95250000D01*
X121032037Y-95073373D01*
X121083557Y-94903534D01*
X121167222Y-94747009D01*
X121196552Y-94711271D01*
X121279814Y-94609814D01*
X121381271Y-94526552D01*
X121417009Y-94497222D01*
X121573534Y-94413557D01*
X121743373Y-94362037D01*
X121809557Y-94355519D01*
X121875740Y-94349000D01*
X121964260Y-94349000D01*
X122030442Y-94355518D01*
X122030442Y-94355518D01*
G37*
G36*
X103771000Y-96151000D02*
G01*
X101969000Y-96151000D01*
X101969000Y-94349000D01*
X103771000Y-94349000D01*
X103771000Y-96151000D01*
X103771000Y-96151000D01*
G37*
G36*
X100440442Y-94355518D02*
G01*
X100506627Y-94362037D01*
X100676466Y-94413557D01*
X100832991Y-94497222D01*
X100868729Y-94526552D01*
X100970186Y-94609814D01*
X101053448Y-94711271D01*
X101082778Y-94747009D01*
X101166443Y-94903534D01*
X101217963Y-95073373D01*
X101235359Y-95250000D01*
X101217963Y-95426627D01*
X101166443Y-95596466D01*
X101082778Y-95752991D01*
X101053448Y-95788729D01*
X100970186Y-95890186D01*
X100868729Y-95973448D01*
X100832991Y-96002778D01*
X100676466Y-96086443D01*
X100506627Y-96137963D01*
X100440443Y-96144481D01*
X100374260Y-96151000D01*
X100285740Y-96151000D01*
X100219558Y-96144482D01*
X100153373Y-96137963D01*
X99983534Y-96086443D01*
X99827009Y-96002778D01*
X99791271Y-95973448D01*
X99689814Y-95890186D01*
X99606552Y-95788729D01*
X99577222Y-95752991D01*
X99493557Y-95596466D01*
X99442037Y-95426627D01*
X99424641Y-95250000D01*
X99442037Y-95073373D01*
X99493557Y-94903534D01*
X99577222Y-94747009D01*
X99606552Y-94711271D01*
X99689814Y-94609814D01*
X99791271Y-94526552D01*
X99827009Y-94497222D01*
X99983534Y-94413557D01*
X100153373Y-94362037D01*
X100219558Y-94355518D01*
X100285740Y-94349000D01*
X100374260Y-94349000D01*
X100440442Y-94355518D01*
X100440442Y-94355518D01*
G37*
G36*
X97900442Y-94355518D02*
G01*
X97966627Y-94362037D01*
X98136466Y-94413557D01*
X98292991Y-94497222D01*
X98328729Y-94526552D01*
X98430186Y-94609814D01*
X98513448Y-94711271D01*
X98542778Y-94747009D01*
X98626443Y-94903534D01*
X98677963Y-95073373D01*
X98695359Y-95250000D01*
X98677963Y-95426627D01*
X98626443Y-95596466D01*
X98542778Y-95752991D01*
X98513448Y-95788729D01*
X98430186Y-95890186D01*
X98328729Y-95973448D01*
X98292991Y-96002778D01*
X98136466Y-96086443D01*
X97966627Y-96137963D01*
X97900443Y-96144481D01*
X97834260Y-96151000D01*
X97745740Y-96151000D01*
X97679558Y-96144482D01*
X97613373Y-96137963D01*
X97443534Y-96086443D01*
X97287009Y-96002778D01*
X97251271Y-95973448D01*
X97149814Y-95890186D01*
X97066552Y-95788729D01*
X97037222Y-95752991D01*
X96953557Y-95596466D01*
X96902037Y-95426627D01*
X96884641Y-95250000D01*
X96902037Y-95073373D01*
X96953557Y-94903534D01*
X97037222Y-94747009D01*
X97066552Y-94711271D01*
X97149814Y-94609814D01*
X97251271Y-94526552D01*
X97287009Y-94497222D01*
X97443534Y-94413557D01*
X97613373Y-94362037D01*
X97679558Y-94355518D01*
X97745740Y-94349000D01*
X97834260Y-94349000D01*
X97900442Y-94355518D01*
X97900442Y-94355518D01*
G37*
G36*
X95360442Y-94355518D02*
G01*
X95426627Y-94362037D01*
X95596466Y-94413557D01*
X95752991Y-94497222D01*
X95788729Y-94526552D01*
X95890186Y-94609814D01*
X95973448Y-94711271D01*
X96002778Y-94747009D01*
X96086443Y-94903534D01*
X96137963Y-95073373D01*
X96155359Y-95250000D01*
X96137963Y-95426627D01*
X96086443Y-95596466D01*
X96002778Y-95752991D01*
X95973448Y-95788729D01*
X95890186Y-95890186D01*
X95788729Y-95973448D01*
X95752991Y-96002778D01*
X95596466Y-96086443D01*
X95426627Y-96137963D01*
X95360442Y-96144482D01*
X95294260Y-96151000D01*
X95205740Y-96151000D01*
X95139558Y-96144482D01*
X95073373Y-96137963D01*
X94903534Y-96086443D01*
X94747009Y-96002778D01*
X94711271Y-95973448D01*
X94609814Y-95890186D01*
X94526552Y-95788729D01*
X94497222Y-95752991D01*
X94413557Y-95596466D01*
X94362037Y-95426627D01*
X94344641Y-95250000D01*
X94362037Y-95073373D01*
X94413557Y-94903534D01*
X94497222Y-94747009D01*
X94526552Y-94711271D01*
X94609814Y-94609814D01*
X94711271Y-94526552D01*
X94747009Y-94497222D01*
X94903534Y-94413557D01*
X95073373Y-94362037D01*
X95139558Y-94355518D01*
X95205740Y-94349000D01*
X95294260Y-94349000D01*
X95360442Y-94355518D01*
X95360442Y-94355518D01*
G37*
G36*
X139810442Y-94355518D02*
G01*
X139876627Y-94362037D01*
X140046466Y-94413557D01*
X140202991Y-94497222D01*
X140238729Y-94526552D01*
X140340186Y-94609814D01*
X140423448Y-94711271D01*
X140452778Y-94747009D01*
X140536443Y-94903534D01*
X140587963Y-95073373D01*
X140605359Y-95250000D01*
X140587963Y-95426627D01*
X140536443Y-95596466D01*
X140452778Y-95752991D01*
X140423448Y-95788729D01*
X140340186Y-95890186D01*
X140238729Y-95973448D01*
X140202991Y-96002778D01*
X140046466Y-96086443D01*
X139876627Y-96137963D01*
X139810443Y-96144481D01*
X139744260Y-96151000D01*
X139655740Y-96151000D01*
X139589558Y-96144482D01*
X139523373Y-96137963D01*
X139353534Y-96086443D01*
X139197009Y-96002778D01*
X139161271Y-95973448D01*
X139059814Y-95890186D01*
X138976552Y-95788729D01*
X138947222Y-95752991D01*
X138863557Y-95596466D01*
X138812037Y-95426627D01*
X138794641Y-95250000D01*
X138812037Y-95073373D01*
X138863557Y-94903534D01*
X138947222Y-94747009D01*
X138976552Y-94711271D01*
X139059814Y-94609814D01*
X139161271Y-94526552D01*
X139197009Y-94497222D01*
X139353534Y-94413557D01*
X139523373Y-94362037D01*
X139589557Y-94355519D01*
X139655740Y-94349000D01*
X139744260Y-94349000D01*
X139810442Y-94355518D01*
X139810442Y-94355518D01*
G37*
G36*
X142350442Y-94355518D02*
G01*
X142416627Y-94362037D01*
X142586466Y-94413557D01*
X142742991Y-94497222D01*
X142778729Y-94526552D01*
X142880186Y-94609814D01*
X142963448Y-94711271D01*
X142992778Y-94747009D01*
X143076443Y-94903534D01*
X143127963Y-95073373D01*
X143145359Y-95250000D01*
X143127963Y-95426627D01*
X143076443Y-95596466D01*
X142992778Y-95752991D01*
X142963448Y-95788729D01*
X142880186Y-95890186D01*
X142778729Y-95973448D01*
X142742991Y-96002778D01*
X142586466Y-96086443D01*
X142416627Y-96137963D01*
X142350443Y-96144481D01*
X142284260Y-96151000D01*
X142195740Y-96151000D01*
X142129558Y-96144482D01*
X142063373Y-96137963D01*
X141893534Y-96086443D01*
X141737009Y-96002778D01*
X141701271Y-95973448D01*
X141599814Y-95890186D01*
X141516552Y-95788729D01*
X141487222Y-95752991D01*
X141403557Y-95596466D01*
X141352037Y-95426627D01*
X141334641Y-95250000D01*
X141352037Y-95073373D01*
X141403557Y-94903534D01*
X141487222Y-94747009D01*
X141516552Y-94711271D01*
X141599814Y-94609814D01*
X141701271Y-94526552D01*
X141737009Y-94497222D01*
X141893534Y-94413557D01*
X142063373Y-94362037D01*
X142129557Y-94355519D01*
X142195740Y-94349000D01*
X142284260Y-94349000D01*
X142350442Y-94355518D01*
X142350442Y-94355518D01*
G37*
G36*
X149970442Y-94355518D02*
G01*
X150036627Y-94362037D01*
X150206466Y-94413557D01*
X150362991Y-94497222D01*
X150398729Y-94526552D01*
X150500186Y-94609814D01*
X150583448Y-94711271D01*
X150612778Y-94747009D01*
X150696443Y-94903534D01*
X150747963Y-95073373D01*
X150765359Y-95250000D01*
X150747963Y-95426627D01*
X150696443Y-95596466D01*
X150612778Y-95752991D01*
X150583448Y-95788729D01*
X150500186Y-95890186D01*
X150398729Y-95973448D01*
X150362991Y-96002778D01*
X150206466Y-96086443D01*
X150036627Y-96137963D01*
X149970443Y-96144481D01*
X149904260Y-96151000D01*
X149815740Y-96151000D01*
X149749558Y-96144482D01*
X149683373Y-96137963D01*
X149513534Y-96086443D01*
X149357009Y-96002778D01*
X149321271Y-95973448D01*
X149219814Y-95890186D01*
X149136552Y-95788729D01*
X149107222Y-95752991D01*
X149023557Y-95596466D01*
X148972037Y-95426627D01*
X148954641Y-95250000D01*
X148972037Y-95073373D01*
X149023557Y-94903534D01*
X149107222Y-94747009D01*
X149136552Y-94711271D01*
X149219814Y-94609814D01*
X149321271Y-94526552D01*
X149357009Y-94497222D01*
X149513534Y-94413557D01*
X149683373Y-94362037D01*
X149749557Y-94355519D01*
X149815740Y-94349000D01*
X149904260Y-94349000D01*
X149970442Y-94355518D01*
X149970442Y-94355518D01*
G37*
G36*
X144890442Y-94355518D02*
G01*
X144956627Y-94362037D01*
X145126466Y-94413557D01*
X145282991Y-94497222D01*
X145318729Y-94526552D01*
X145420186Y-94609814D01*
X145503448Y-94711271D01*
X145532778Y-94747009D01*
X145616443Y-94903534D01*
X145667963Y-95073373D01*
X145685359Y-95250000D01*
X145667963Y-95426627D01*
X145616443Y-95596466D01*
X145532778Y-95752991D01*
X145503448Y-95788729D01*
X145420186Y-95890186D01*
X145318729Y-95973448D01*
X145282991Y-96002778D01*
X145126466Y-96086443D01*
X144956627Y-96137963D01*
X144890443Y-96144481D01*
X144824260Y-96151000D01*
X144735740Y-96151000D01*
X144669558Y-96144482D01*
X144603373Y-96137963D01*
X144433534Y-96086443D01*
X144277009Y-96002778D01*
X144241271Y-95973448D01*
X144139814Y-95890186D01*
X144056552Y-95788729D01*
X144027222Y-95752991D01*
X143943557Y-95596466D01*
X143892037Y-95426627D01*
X143874641Y-95250000D01*
X143892037Y-95073373D01*
X143943557Y-94903534D01*
X144027222Y-94747009D01*
X144056552Y-94711271D01*
X144139814Y-94609814D01*
X144241271Y-94526552D01*
X144277009Y-94497222D01*
X144433534Y-94413557D01*
X144603373Y-94362037D01*
X144669557Y-94355519D01*
X144735740Y-94349000D01*
X144824260Y-94349000D01*
X144890442Y-94355518D01*
X144890442Y-94355518D01*
G37*
G36*
X147430442Y-94355518D02*
G01*
X147496627Y-94362037D01*
X147666466Y-94413557D01*
X147822991Y-94497222D01*
X147858729Y-94526552D01*
X147960186Y-94609814D01*
X148043448Y-94711271D01*
X148072778Y-94747009D01*
X148156443Y-94903534D01*
X148207963Y-95073373D01*
X148225359Y-95250000D01*
X148207963Y-95426627D01*
X148156443Y-95596466D01*
X148072778Y-95752991D01*
X148043448Y-95788729D01*
X147960186Y-95890186D01*
X147858729Y-95973448D01*
X147822991Y-96002778D01*
X147666466Y-96086443D01*
X147496627Y-96137963D01*
X147430443Y-96144481D01*
X147364260Y-96151000D01*
X147275740Y-96151000D01*
X147209558Y-96144482D01*
X147143373Y-96137963D01*
X146973534Y-96086443D01*
X146817009Y-96002778D01*
X146781271Y-95973448D01*
X146679814Y-95890186D01*
X146596552Y-95788729D01*
X146567222Y-95752991D01*
X146483557Y-95596466D01*
X146432037Y-95426627D01*
X146414641Y-95250000D01*
X146432037Y-95073373D01*
X146483557Y-94903534D01*
X146567222Y-94747009D01*
X146596552Y-94711271D01*
X146679814Y-94609814D01*
X146781271Y-94526552D01*
X146817009Y-94497222D01*
X146973534Y-94413557D01*
X147143373Y-94362037D01*
X147209557Y-94355519D01*
X147275740Y-94349000D01*
X147364260Y-94349000D01*
X147430442Y-94355518D01*
X147430442Y-94355518D01*
G37*
G36*
X124570442Y-94355518D02*
G01*
X124636627Y-94362037D01*
X124806466Y-94413557D01*
X124962991Y-94497222D01*
X124998729Y-94526552D01*
X125100186Y-94609814D01*
X125183448Y-94711271D01*
X125212778Y-94747009D01*
X125296443Y-94903534D01*
X125347963Y-95073373D01*
X125365359Y-95250000D01*
X125347963Y-95426627D01*
X125296443Y-95596466D01*
X125212778Y-95752991D01*
X125183448Y-95788729D01*
X125100186Y-95890186D01*
X124998729Y-95973448D01*
X124962991Y-96002778D01*
X124806466Y-96086443D01*
X124636627Y-96137963D01*
X124570443Y-96144481D01*
X124504260Y-96151000D01*
X124415740Y-96151000D01*
X124349558Y-96144482D01*
X124283373Y-96137963D01*
X124113534Y-96086443D01*
X123957009Y-96002778D01*
X123921271Y-95973448D01*
X123819814Y-95890186D01*
X123736552Y-95788729D01*
X123707222Y-95752991D01*
X123623557Y-95596466D01*
X123572037Y-95426627D01*
X123554641Y-95250000D01*
X123572037Y-95073373D01*
X123623557Y-94903534D01*
X123707222Y-94747009D01*
X123736552Y-94711271D01*
X123819814Y-94609814D01*
X123921271Y-94526552D01*
X123957009Y-94497222D01*
X124113534Y-94413557D01*
X124283373Y-94362037D01*
X124349557Y-94355519D01*
X124415740Y-94349000D01*
X124504260Y-94349000D01*
X124570442Y-94355518D01*
X124570442Y-94355518D01*
G37*
G36*
X111870442Y-94355518D02*
G01*
X111936627Y-94362037D01*
X112106466Y-94413557D01*
X112262991Y-94497222D01*
X112298729Y-94526552D01*
X112400186Y-94609814D01*
X112483448Y-94711271D01*
X112512778Y-94747009D01*
X112596443Y-94903534D01*
X112647963Y-95073373D01*
X112665359Y-95250000D01*
X112647963Y-95426627D01*
X112596443Y-95596466D01*
X112512778Y-95752991D01*
X112483448Y-95788729D01*
X112400186Y-95890186D01*
X112298729Y-95973448D01*
X112262991Y-96002778D01*
X112106466Y-96086443D01*
X111936627Y-96137963D01*
X111870443Y-96144481D01*
X111804260Y-96151000D01*
X111715740Y-96151000D01*
X111649558Y-96144482D01*
X111583373Y-96137963D01*
X111413534Y-96086443D01*
X111257009Y-96002778D01*
X111221271Y-95973448D01*
X111119814Y-95890186D01*
X111036552Y-95788729D01*
X111007222Y-95752991D01*
X110923557Y-95596466D01*
X110872037Y-95426627D01*
X110854641Y-95250000D01*
X110872037Y-95073373D01*
X110923557Y-94903534D01*
X111007222Y-94747009D01*
X111036552Y-94711271D01*
X111119814Y-94609814D01*
X111221271Y-94526552D01*
X111257009Y-94497222D01*
X111413534Y-94413557D01*
X111583373Y-94362037D01*
X111649558Y-94355518D01*
X111715740Y-94349000D01*
X111804260Y-94349000D01*
X111870442Y-94355518D01*
X111870442Y-94355518D01*
G37*
G36*
X114410442Y-94355518D02*
G01*
X114476627Y-94362037D01*
X114646466Y-94413557D01*
X114802991Y-94497222D01*
X114838729Y-94526552D01*
X114940186Y-94609814D01*
X115023448Y-94711271D01*
X115052778Y-94747009D01*
X115136443Y-94903534D01*
X115187963Y-95073373D01*
X115205359Y-95250000D01*
X115187963Y-95426627D01*
X115136443Y-95596466D01*
X115052778Y-95752991D01*
X115023448Y-95788729D01*
X114940186Y-95890186D01*
X114838729Y-95973448D01*
X114802991Y-96002778D01*
X114646466Y-96086443D01*
X114476627Y-96137963D01*
X114410443Y-96144481D01*
X114344260Y-96151000D01*
X114255740Y-96151000D01*
X114189558Y-96144482D01*
X114123373Y-96137963D01*
X113953534Y-96086443D01*
X113797009Y-96002778D01*
X113761271Y-95973448D01*
X113659814Y-95890186D01*
X113576552Y-95788729D01*
X113547222Y-95752991D01*
X113463557Y-95596466D01*
X113412037Y-95426627D01*
X113394641Y-95250000D01*
X113412037Y-95073373D01*
X113463557Y-94903534D01*
X113547222Y-94747009D01*
X113576552Y-94711271D01*
X113659814Y-94609814D01*
X113761271Y-94526552D01*
X113797009Y-94497222D01*
X113953534Y-94413557D01*
X114123373Y-94362037D01*
X114189558Y-94355518D01*
X114255740Y-94349000D01*
X114344260Y-94349000D01*
X114410442Y-94355518D01*
X114410442Y-94355518D01*
G37*
G36*
X119490442Y-94355518D02*
G01*
X119556627Y-94362037D01*
X119726466Y-94413557D01*
X119882991Y-94497222D01*
X119918729Y-94526552D01*
X120020186Y-94609814D01*
X120103448Y-94711271D01*
X120132778Y-94747009D01*
X120216443Y-94903534D01*
X120267963Y-95073373D01*
X120285359Y-95250000D01*
X120267963Y-95426627D01*
X120216443Y-95596466D01*
X120132778Y-95752991D01*
X120103448Y-95788729D01*
X120020186Y-95890186D01*
X119918729Y-95973448D01*
X119882991Y-96002778D01*
X119726466Y-96086443D01*
X119556627Y-96137963D01*
X119490443Y-96144481D01*
X119424260Y-96151000D01*
X119335740Y-96151000D01*
X119269558Y-96144482D01*
X119203373Y-96137963D01*
X119033534Y-96086443D01*
X118877009Y-96002778D01*
X118841271Y-95973448D01*
X118739814Y-95890186D01*
X118656552Y-95788729D01*
X118627222Y-95752991D01*
X118543557Y-95596466D01*
X118492037Y-95426627D01*
X118474641Y-95250000D01*
X118492037Y-95073373D01*
X118543557Y-94903534D01*
X118627222Y-94747009D01*
X118656552Y-94711271D01*
X118739814Y-94609814D01*
X118841271Y-94526552D01*
X118877009Y-94497222D01*
X119033534Y-94413557D01*
X119203373Y-94362037D01*
X119269557Y-94355519D01*
X119335740Y-94349000D01*
X119424260Y-94349000D01*
X119490442Y-94355518D01*
X119490442Y-94355518D01*
G37*
G36*
X116950442Y-94355518D02*
G01*
X117016627Y-94362037D01*
X117186466Y-94413557D01*
X117342991Y-94497222D01*
X117378729Y-94526552D01*
X117480186Y-94609814D01*
X117563448Y-94711271D01*
X117592778Y-94747009D01*
X117676443Y-94903534D01*
X117727963Y-95073373D01*
X117745359Y-95250000D01*
X117727963Y-95426627D01*
X117676443Y-95596466D01*
X117592778Y-95752991D01*
X117563448Y-95788729D01*
X117480186Y-95890186D01*
X117378729Y-95973448D01*
X117342991Y-96002778D01*
X117186466Y-96086443D01*
X117016627Y-96137963D01*
X116950443Y-96144481D01*
X116884260Y-96151000D01*
X116795740Y-96151000D01*
X116729558Y-96144482D01*
X116663373Y-96137963D01*
X116493534Y-96086443D01*
X116337009Y-96002778D01*
X116301271Y-95973448D01*
X116199814Y-95890186D01*
X116116552Y-95788729D01*
X116087222Y-95752991D01*
X116003557Y-95596466D01*
X115952037Y-95426627D01*
X115934641Y-95250000D01*
X115952037Y-95073373D01*
X116003557Y-94903534D01*
X116087222Y-94747009D01*
X116116552Y-94711271D01*
X116199814Y-94609814D01*
X116301271Y-94526552D01*
X116337009Y-94497222D01*
X116493534Y-94413557D01*
X116663373Y-94362037D01*
X116729557Y-94355519D01*
X116795740Y-94349000D01*
X116884260Y-94349000D01*
X116950442Y-94355518D01*
X116950442Y-94355518D01*
G37*
G36*
X137270442Y-94355518D02*
G01*
X137336627Y-94362037D01*
X137506466Y-94413557D01*
X137662991Y-94497222D01*
X137698729Y-94526552D01*
X137800186Y-94609814D01*
X137883448Y-94711271D01*
X137912778Y-94747009D01*
X137996443Y-94903534D01*
X138047963Y-95073373D01*
X138065359Y-95250000D01*
X138047963Y-95426627D01*
X137996443Y-95596466D01*
X137912778Y-95752991D01*
X137883448Y-95788729D01*
X137800186Y-95890186D01*
X137698729Y-95973448D01*
X137662991Y-96002778D01*
X137506466Y-96086443D01*
X137336627Y-96137963D01*
X137270443Y-96144481D01*
X137204260Y-96151000D01*
X137115740Y-96151000D01*
X137049558Y-96144482D01*
X136983373Y-96137963D01*
X136813534Y-96086443D01*
X136657009Y-96002778D01*
X136621271Y-95973448D01*
X136519814Y-95890186D01*
X136436552Y-95788729D01*
X136407222Y-95752991D01*
X136323557Y-95596466D01*
X136272037Y-95426627D01*
X136254641Y-95250000D01*
X136272037Y-95073373D01*
X136323557Y-94903534D01*
X136407222Y-94747009D01*
X136436552Y-94711271D01*
X136519814Y-94609814D01*
X136621271Y-94526552D01*
X136657009Y-94497222D01*
X136813534Y-94413557D01*
X136983373Y-94362037D01*
X137049557Y-94355519D01*
X137115740Y-94349000D01*
X137204260Y-94349000D01*
X137270442Y-94355518D01*
X137270442Y-94355518D01*
G37*
G36*
X134730442Y-94355518D02*
G01*
X134796627Y-94362037D01*
X134966466Y-94413557D01*
X135122991Y-94497222D01*
X135158729Y-94526552D01*
X135260186Y-94609814D01*
X135343448Y-94711271D01*
X135372778Y-94747009D01*
X135456443Y-94903534D01*
X135507963Y-95073373D01*
X135525359Y-95250000D01*
X135507963Y-95426627D01*
X135456443Y-95596466D01*
X135372778Y-95752991D01*
X135343448Y-95788729D01*
X135260186Y-95890186D01*
X135158729Y-95973448D01*
X135122991Y-96002778D01*
X134966466Y-96086443D01*
X134796627Y-96137963D01*
X134730443Y-96144481D01*
X134664260Y-96151000D01*
X134575740Y-96151000D01*
X134509558Y-96144482D01*
X134443373Y-96137963D01*
X134273534Y-96086443D01*
X134117009Y-96002778D01*
X134081271Y-95973448D01*
X133979814Y-95890186D01*
X133896552Y-95788729D01*
X133867222Y-95752991D01*
X133783557Y-95596466D01*
X133732037Y-95426627D01*
X133714641Y-95250000D01*
X133732037Y-95073373D01*
X133783557Y-94903534D01*
X133867222Y-94747009D01*
X133896552Y-94711271D01*
X133979814Y-94609814D01*
X134081271Y-94526552D01*
X134117009Y-94497222D01*
X134273534Y-94413557D01*
X134443373Y-94362037D01*
X134509557Y-94355519D01*
X134575740Y-94349000D01*
X134664260Y-94349000D01*
X134730442Y-94355518D01*
X134730442Y-94355518D01*
G37*
G36*
X132190442Y-94355518D02*
G01*
X132256627Y-94362037D01*
X132426466Y-94413557D01*
X132582991Y-94497222D01*
X132618729Y-94526552D01*
X132720186Y-94609814D01*
X132803448Y-94711271D01*
X132832778Y-94747009D01*
X132916443Y-94903534D01*
X132967963Y-95073373D01*
X132985359Y-95250000D01*
X132967963Y-95426627D01*
X132916443Y-95596466D01*
X132832778Y-95752991D01*
X132803448Y-95788729D01*
X132720186Y-95890186D01*
X132618729Y-95973448D01*
X132582991Y-96002778D01*
X132426466Y-96086443D01*
X132256627Y-96137963D01*
X132190443Y-96144481D01*
X132124260Y-96151000D01*
X132035740Y-96151000D01*
X131969558Y-96144482D01*
X131903373Y-96137963D01*
X131733534Y-96086443D01*
X131577009Y-96002778D01*
X131541271Y-95973448D01*
X131439814Y-95890186D01*
X131356552Y-95788729D01*
X131327222Y-95752991D01*
X131243557Y-95596466D01*
X131192037Y-95426627D01*
X131174641Y-95250000D01*
X131192037Y-95073373D01*
X131243557Y-94903534D01*
X131327222Y-94747009D01*
X131356552Y-94711271D01*
X131439814Y-94609814D01*
X131541271Y-94526552D01*
X131577009Y-94497222D01*
X131733534Y-94413557D01*
X131903373Y-94362037D01*
X131969557Y-94355519D01*
X132035740Y-94349000D01*
X132124260Y-94349000D01*
X132190442Y-94355518D01*
X132190442Y-94355518D01*
G37*
G36*
X129650442Y-94355518D02*
G01*
X129716627Y-94362037D01*
X129886466Y-94413557D01*
X130042991Y-94497222D01*
X130078729Y-94526552D01*
X130180186Y-94609814D01*
X130263448Y-94711271D01*
X130292778Y-94747009D01*
X130376443Y-94903534D01*
X130427963Y-95073373D01*
X130445359Y-95250000D01*
X130427963Y-95426627D01*
X130376443Y-95596466D01*
X130292778Y-95752991D01*
X130263448Y-95788729D01*
X130180186Y-95890186D01*
X130078729Y-95973448D01*
X130042991Y-96002778D01*
X129886466Y-96086443D01*
X129716627Y-96137963D01*
X129650443Y-96144481D01*
X129584260Y-96151000D01*
X129495740Y-96151000D01*
X129429558Y-96144482D01*
X129363373Y-96137963D01*
X129193534Y-96086443D01*
X129037009Y-96002778D01*
X129001271Y-95973448D01*
X128899814Y-95890186D01*
X128816552Y-95788729D01*
X128787222Y-95752991D01*
X128703557Y-95596466D01*
X128652037Y-95426627D01*
X128634641Y-95250000D01*
X128652037Y-95073373D01*
X128703557Y-94903534D01*
X128787222Y-94747009D01*
X128816552Y-94711271D01*
X128899814Y-94609814D01*
X129001271Y-94526552D01*
X129037009Y-94497222D01*
X129193534Y-94413557D01*
X129363373Y-94362037D01*
X129429557Y-94355519D01*
X129495740Y-94349000D01*
X129584260Y-94349000D01*
X129650442Y-94355518D01*
X129650442Y-94355518D01*
G37*
G36*
X127110442Y-94355518D02*
G01*
X127176627Y-94362037D01*
X127346466Y-94413557D01*
X127502991Y-94497222D01*
X127538729Y-94526552D01*
X127640186Y-94609814D01*
X127723448Y-94711271D01*
X127752778Y-94747009D01*
X127836443Y-94903534D01*
X127887963Y-95073373D01*
X127905359Y-95250000D01*
X127887963Y-95426627D01*
X127836443Y-95596466D01*
X127752778Y-95752991D01*
X127723448Y-95788729D01*
X127640186Y-95890186D01*
X127538729Y-95973448D01*
X127502991Y-96002778D01*
X127346466Y-96086443D01*
X127176627Y-96137963D01*
X127110443Y-96144481D01*
X127044260Y-96151000D01*
X126955740Y-96151000D01*
X126889558Y-96144482D01*
X126823373Y-96137963D01*
X126653534Y-96086443D01*
X126497009Y-96002778D01*
X126461271Y-95973448D01*
X126359814Y-95890186D01*
X126276552Y-95788729D01*
X126247222Y-95752991D01*
X126163557Y-95596466D01*
X126112037Y-95426627D01*
X126094641Y-95250000D01*
X126112037Y-95073373D01*
X126163557Y-94903534D01*
X126247222Y-94747009D01*
X126276552Y-94711271D01*
X126359814Y-94609814D01*
X126461271Y-94526552D01*
X126497009Y-94497222D01*
X126653534Y-94413557D01*
X126823373Y-94362037D01*
X126889557Y-94355519D01*
X126955740Y-94349000D01*
X127044260Y-94349000D01*
X127110442Y-94355518D01*
X127110442Y-94355518D01*
G37*
G36*
X139810442Y-91815518D02*
G01*
X139876627Y-91822037D01*
X140046466Y-91873557D01*
X140202991Y-91957222D01*
X140238729Y-91986552D01*
X140340186Y-92069814D01*
X140423448Y-92171271D01*
X140452778Y-92207009D01*
X140536443Y-92363534D01*
X140587963Y-92533373D01*
X140605359Y-92710000D01*
X140587963Y-92886627D01*
X140536443Y-93056466D01*
X140452778Y-93212991D01*
X140423448Y-93248729D01*
X140340186Y-93350186D01*
X140238729Y-93433448D01*
X140202991Y-93462778D01*
X140046466Y-93546443D01*
X139876627Y-93597963D01*
X139810442Y-93604482D01*
X139744260Y-93611000D01*
X139655740Y-93611000D01*
X139589557Y-93604481D01*
X139523373Y-93597963D01*
X139353534Y-93546443D01*
X139197009Y-93462778D01*
X139161271Y-93433448D01*
X139059814Y-93350186D01*
X138976552Y-93248729D01*
X138947222Y-93212991D01*
X138863557Y-93056466D01*
X138812037Y-92886627D01*
X138794641Y-92710000D01*
X138812037Y-92533373D01*
X138863557Y-92363534D01*
X138947222Y-92207009D01*
X138976552Y-92171271D01*
X139059814Y-92069814D01*
X139161271Y-91986552D01*
X139197009Y-91957222D01*
X139353534Y-91873557D01*
X139523373Y-91822037D01*
X139589558Y-91815518D01*
X139655740Y-91809000D01*
X139744260Y-91809000D01*
X139810442Y-91815518D01*
X139810442Y-91815518D01*
G37*
G36*
X144890442Y-91815518D02*
G01*
X144956627Y-91822037D01*
X145126466Y-91873557D01*
X145282991Y-91957222D01*
X145318729Y-91986552D01*
X145420186Y-92069814D01*
X145503448Y-92171271D01*
X145532778Y-92207009D01*
X145616443Y-92363534D01*
X145667963Y-92533373D01*
X145685359Y-92710000D01*
X145667963Y-92886627D01*
X145616443Y-93056466D01*
X145532778Y-93212991D01*
X145503448Y-93248729D01*
X145420186Y-93350186D01*
X145318729Y-93433448D01*
X145282991Y-93462778D01*
X145126466Y-93546443D01*
X144956627Y-93597963D01*
X144890442Y-93604482D01*
X144824260Y-93611000D01*
X144735740Y-93611000D01*
X144669557Y-93604481D01*
X144603373Y-93597963D01*
X144433534Y-93546443D01*
X144277009Y-93462778D01*
X144241271Y-93433448D01*
X144139814Y-93350186D01*
X144056552Y-93248729D01*
X144027222Y-93212991D01*
X143943557Y-93056466D01*
X143892037Y-92886627D01*
X143874641Y-92710000D01*
X143892037Y-92533373D01*
X143943557Y-92363534D01*
X144027222Y-92207009D01*
X144056552Y-92171271D01*
X144139814Y-92069814D01*
X144241271Y-91986552D01*
X144277009Y-91957222D01*
X144433534Y-91873557D01*
X144603373Y-91822037D01*
X144669558Y-91815518D01*
X144735740Y-91809000D01*
X144824260Y-91809000D01*
X144890442Y-91815518D01*
X144890442Y-91815518D01*
G37*
G36*
X147430442Y-91815518D02*
G01*
X147496627Y-91822037D01*
X147666466Y-91873557D01*
X147822991Y-91957222D01*
X147858729Y-91986552D01*
X147960186Y-92069814D01*
X148043448Y-92171271D01*
X148072778Y-92207009D01*
X148156443Y-92363534D01*
X148207963Y-92533373D01*
X148225359Y-92710000D01*
X148207963Y-92886627D01*
X148156443Y-93056466D01*
X148072778Y-93212991D01*
X148043448Y-93248729D01*
X147960186Y-93350186D01*
X147858729Y-93433448D01*
X147822991Y-93462778D01*
X147666466Y-93546443D01*
X147496627Y-93597963D01*
X147430442Y-93604482D01*
X147364260Y-93611000D01*
X147275740Y-93611000D01*
X147209557Y-93604481D01*
X147143373Y-93597963D01*
X146973534Y-93546443D01*
X146817009Y-93462778D01*
X146781271Y-93433448D01*
X146679814Y-93350186D01*
X146596552Y-93248729D01*
X146567222Y-93212991D01*
X146483557Y-93056466D01*
X146432037Y-92886627D01*
X146414641Y-92710000D01*
X146432037Y-92533373D01*
X146483557Y-92363534D01*
X146567222Y-92207009D01*
X146596552Y-92171271D01*
X146679814Y-92069814D01*
X146781271Y-91986552D01*
X146817009Y-91957222D01*
X146973534Y-91873557D01*
X147143373Y-91822037D01*
X147209558Y-91815518D01*
X147275740Y-91809000D01*
X147364260Y-91809000D01*
X147430442Y-91815518D01*
X147430442Y-91815518D01*
G37*
G36*
X149970442Y-91815518D02*
G01*
X150036627Y-91822037D01*
X150206466Y-91873557D01*
X150362991Y-91957222D01*
X150398729Y-91986552D01*
X150500186Y-92069814D01*
X150583448Y-92171271D01*
X150612778Y-92207009D01*
X150696443Y-92363534D01*
X150747963Y-92533373D01*
X150765359Y-92710000D01*
X150747963Y-92886627D01*
X150696443Y-93056466D01*
X150612778Y-93212991D01*
X150583448Y-93248729D01*
X150500186Y-93350186D01*
X150398729Y-93433448D01*
X150362991Y-93462778D01*
X150206466Y-93546443D01*
X150036627Y-93597963D01*
X149970442Y-93604482D01*
X149904260Y-93611000D01*
X149815740Y-93611000D01*
X149749557Y-93604481D01*
X149683373Y-93597963D01*
X149513534Y-93546443D01*
X149357009Y-93462778D01*
X149321271Y-93433448D01*
X149219814Y-93350186D01*
X149136552Y-93248729D01*
X149107222Y-93212991D01*
X149023557Y-93056466D01*
X148972037Y-92886627D01*
X148954641Y-92710000D01*
X148972037Y-92533373D01*
X149023557Y-92363534D01*
X149107222Y-92207009D01*
X149136552Y-92171271D01*
X149219814Y-92069814D01*
X149321271Y-91986552D01*
X149357009Y-91957222D01*
X149513534Y-91873557D01*
X149683373Y-91822037D01*
X149749558Y-91815518D01*
X149815740Y-91809000D01*
X149904260Y-91809000D01*
X149970442Y-91815518D01*
X149970442Y-91815518D01*
G37*
G36*
X134730442Y-91815518D02*
G01*
X134796627Y-91822037D01*
X134966466Y-91873557D01*
X135122991Y-91957222D01*
X135158729Y-91986552D01*
X135260186Y-92069814D01*
X135343448Y-92171271D01*
X135372778Y-92207009D01*
X135456443Y-92363534D01*
X135507963Y-92533373D01*
X135525359Y-92710000D01*
X135507963Y-92886627D01*
X135456443Y-93056466D01*
X135372778Y-93212991D01*
X135343448Y-93248729D01*
X135260186Y-93350186D01*
X135158729Y-93433448D01*
X135122991Y-93462778D01*
X134966466Y-93546443D01*
X134796627Y-93597963D01*
X134730442Y-93604482D01*
X134664260Y-93611000D01*
X134575740Y-93611000D01*
X134509557Y-93604481D01*
X134443373Y-93597963D01*
X134273534Y-93546443D01*
X134117009Y-93462778D01*
X134081271Y-93433448D01*
X133979814Y-93350186D01*
X133896552Y-93248729D01*
X133867222Y-93212991D01*
X133783557Y-93056466D01*
X133732037Y-92886627D01*
X133714641Y-92710000D01*
X133732037Y-92533373D01*
X133783557Y-92363534D01*
X133867222Y-92207009D01*
X133896552Y-92171271D01*
X133979814Y-92069814D01*
X134081271Y-91986552D01*
X134117009Y-91957222D01*
X134273534Y-91873557D01*
X134443373Y-91822037D01*
X134509558Y-91815518D01*
X134575740Y-91809000D01*
X134664260Y-91809000D01*
X134730442Y-91815518D01*
X134730442Y-91815518D01*
G37*
G36*
X111870442Y-91815518D02*
G01*
X111936627Y-91822037D01*
X112106466Y-91873557D01*
X112262991Y-91957222D01*
X112298729Y-91986552D01*
X112400186Y-92069814D01*
X112483448Y-92171271D01*
X112512778Y-92207009D01*
X112596443Y-92363534D01*
X112647963Y-92533373D01*
X112665359Y-92710000D01*
X112647963Y-92886627D01*
X112596443Y-93056466D01*
X112512778Y-93212991D01*
X112483448Y-93248729D01*
X112400186Y-93350186D01*
X112298729Y-93433448D01*
X112262991Y-93462778D01*
X112106466Y-93546443D01*
X111936627Y-93597963D01*
X111870443Y-93604481D01*
X111804260Y-93611000D01*
X111715740Y-93611000D01*
X111649557Y-93604481D01*
X111583373Y-93597963D01*
X111413534Y-93546443D01*
X111257009Y-93462778D01*
X111221271Y-93433448D01*
X111119814Y-93350186D01*
X111036552Y-93248729D01*
X111007222Y-93212991D01*
X110923557Y-93056466D01*
X110872037Y-92886627D01*
X110854641Y-92710000D01*
X110872037Y-92533373D01*
X110923557Y-92363534D01*
X111007222Y-92207009D01*
X111036552Y-92171271D01*
X111119814Y-92069814D01*
X111221271Y-91986552D01*
X111257009Y-91957222D01*
X111413534Y-91873557D01*
X111583373Y-91822037D01*
X111649558Y-91815518D01*
X111715740Y-91809000D01*
X111804260Y-91809000D01*
X111870442Y-91815518D01*
X111870442Y-91815518D01*
G37*
G36*
X132190442Y-91815518D02*
G01*
X132256627Y-91822037D01*
X132426466Y-91873557D01*
X132582991Y-91957222D01*
X132618729Y-91986552D01*
X132720186Y-92069814D01*
X132803448Y-92171271D01*
X132832778Y-92207009D01*
X132916443Y-92363534D01*
X132967963Y-92533373D01*
X132985359Y-92710000D01*
X132967963Y-92886627D01*
X132916443Y-93056466D01*
X132832778Y-93212991D01*
X132803448Y-93248729D01*
X132720186Y-93350186D01*
X132618729Y-93433448D01*
X132582991Y-93462778D01*
X132426466Y-93546443D01*
X132256627Y-93597963D01*
X132190442Y-93604482D01*
X132124260Y-93611000D01*
X132035740Y-93611000D01*
X131969557Y-93604481D01*
X131903373Y-93597963D01*
X131733534Y-93546443D01*
X131577009Y-93462778D01*
X131541271Y-93433448D01*
X131439814Y-93350186D01*
X131356552Y-93248729D01*
X131327222Y-93212991D01*
X131243557Y-93056466D01*
X131192037Y-92886627D01*
X131174641Y-92710000D01*
X131192037Y-92533373D01*
X131243557Y-92363534D01*
X131327222Y-92207009D01*
X131356552Y-92171271D01*
X131439814Y-92069814D01*
X131541271Y-91986552D01*
X131577009Y-91957222D01*
X131733534Y-91873557D01*
X131903373Y-91822037D01*
X131969558Y-91815518D01*
X132035740Y-91809000D01*
X132124260Y-91809000D01*
X132190442Y-91815518D01*
X132190442Y-91815518D01*
G37*
G36*
X129650442Y-91815518D02*
G01*
X129716627Y-91822037D01*
X129886466Y-91873557D01*
X130042991Y-91957222D01*
X130078729Y-91986552D01*
X130180186Y-92069814D01*
X130263448Y-92171271D01*
X130292778Y-92207009D01*
X130376443Y-92363534D01*
X130427963Y-92533373D01*
X130445359Y-92710000D01*
X130427963Y-92886627D01*
X130376443Y-93056466D01*
X130292778Y-93212991D01*
X130263448Y-93248729D01*
X130180186Y-93350186D01*
X130078729Y-93433448D01*
X130042991Y-93462778D01*
X129886466Y-93546443D01*
X129716627Y-93597963D01*
X129650442Y-93604482D01*
X129584260Y-93611000D01*
X129495740Y-93611000D01*
X129429557Y-93604481D01*
X129363373Y-93597963D01*
X129193534Y-93546443D01*
X129037009Y-93462778D01*
X129001271Y-93433448D01*
X128899814Y-93350186D01*
X128816552Y-93248729D01*
X128787222Y-93212991D01*
X128703557Y-93056466D01*
X128652037Y-92886627D01*
X128634641Y-92710000D01*
X128652037Y-92533373D01*
X128703557Y-92363534D01*
X128787222Y-92207009D01*
X128816552Y-92171271D01*
X128899814Y-92069814D01*
X129001271Y-91986552D01*
X129037009Y-91957222D01*
X129193534Y-91873557D01*
X129363373Y-91822037D01*
X129429558Y-91815518D01*
X129495740Y-91809000D01*
X129584260Y-91809000D01*
X129650442Y-91815518D01*
X129650442Y-91815518D01*
G37*
G36*
X127110442Y-91815518D02*
G01*
X127176627Y-91822037D01*
X127346466Y-91873557D01*
X127502991Y-91957222D01*
X127538729Y-91986552D01*
X127640186Y-92069814D01*
X127723448Y-92171271D01*
X127752778Y-92207009D01*
X127836443Y-92363534D01*
X127887963Y-92533373D01*
X127905359Y-92710000D01*
X127887963Y-92886627D01*
X127836443Y-93056466D01*
X127752778Y-93212991D01*
X127723448Y-93248729D01*
X127640186Y-93350186D01*
X127538729Y-93433448D01*
X127502991Y-93462778D01*
X127346466Y-93546443D01*
X127176627Y-93597963D01*
X127110442Y-93604482D01*
X127044260Y-93611000D01*
X126955740Y-93611000D01*
X126889557Y-93604481D01*
X126823373Y-93597963D01*
X126653534Y-93546443D01*
X126497009Y-93462778D01*
X126461271Y-93433448D01*
X126359814Y-93350186D01*
X126276552Y-93248729D01*
X126247222Y-93212991D01*
X126163557Y-93056466D01*
X126112037Y-92886627D01*
X126094641Y-92710000D01*
X126112037Y-92533373D01*
X126163557Y-92363534D01*
X126247222Y-92207009D01*
X126276552Y-92171271D01*
X126359814Y-92069814D01*
X126461271Y-91986552D01*
X126497009Y-91957222D01*
X126653534Y-91873557D01*
X126823373Y-91822037D01*
X126889558Y-91815518D01*
X126955740Y-91809000D01*
X127044260Y-91809000D01*
X127110442Y-91815518D01*
X127110442Y-91815518D01*
G37*
G36*
X122030442Y-91815518D02*
G01*
X122096627Y-91822037D01*
X122266466Y-91873557D01*
X122422991Y-91957222D01*
X122458729Y-91986552D01*
X122560186Y-92069814D01*
X122643448Y-92171271D01*
X122672778Y-92207009D01*
X122756443Y-92363534D01*
X122807963Y-92533373D01*
X122825359Y-92710000D01*
X122807963Y-92886627D01*
X122756443Y-93056466D01*
X122672778Y-93212991D01*
X122643448Y-93248729D01*
X122560186Y-93350186D01*
X122458729Y-93433448D01*
X122422991Y-93462778D01*
X122266466Y-93546443D01*
X122096627Y-93597963D01*
X122030443Y-93604481D01*
X121964260Y-93611000D01*
X121875740Y-93611000D01*
X121809557Y-93604481D01*
X121743373Y-93597963D01*
X121573534Y-93546443D01*
X121417009Y-93462778D01*
X121381271Y-93433448D01*
X121279814Y-93350186D01*
X121196552Y-93248729D01*
X121167222Y-93212991D01*
X121083557Y-93056466D01*
X121032037Y-92886627D01*
X121014641Y-92710000D01*
X121032037Y-92533373D01*
X121083557Y-92363534D01*
X121167222Y-92207009D01*
X121196552Y-92171271D01*
X121279814Y-92069814D01*
X121381271Y-91986552D01*
X121417009Y-91957222D01*
X121573534Y-91873557D01*
X121743373Y-91822037D01*
X121809558Y-91815518D01*
X121875740Y-91809000D01*
X121964260Y-91809000D01*
X122030442Y-91815518D01*
X122030442Y-91815518D01*
G37*
G36*
X114410442Y-91815518D02*
G01*
X114476627Y-91822037D01*
X114646466Y-91873557D01*
X114802991Y-91957222D01*
X114838729Y-91986552D01*
X114940186Y-92069814D01*
X115023448Y-92171271D01*
X115052778Y-92207009D01*
X115136443Y-92363534D01*
X115187963Y-92533373D01*
X115205359Y-92710000D01*
X115187963Y-92886627D01*
X115136443Y-93056466D01*
X115052778Y-93212991D01*
X115023448Y-93248729D01*
X114940186Y-93350186D01*
X114838729Y-93433448D01*
X114802991Y-93462778D01*
X114646466Y-93546443D01*
X114476627Y-93597963D01*
X114410443Y-93604481D01*
X114344260Y-93611000D01*
X114255740Y-93611000D01*
X114189557Y-93604481D01*
X114123373Y-93597963D01*
X113953534Y-93546443D01*
X113797009Y-93462778D01*
X113761271Y-93433448D01*
X113659814Y-93350186D01*
X113576552Y-93248729D01*
X113547222Y-93212991D01*
X113463557Y-93056466D01*
X113412037Y-92886627D01*
X113394641Y-92710000D01*
X113412037Y-92533373D01*
X113463557Y-92363534D01*
X113547222Y-92207009D01*
X113576552Y-92171271D01*
X113659814Y-92069814D01*
X113761271Y-91986552D01*
X113797009Y-91957222D01*
X113953534Y-91873557D01*
X114123373Y-91822037D01*
X114189558Y-91815518D01*
X114255740Y-91809000D01*
X114344260Y-91809000D01*
X114410442Y-91815518D01*
X114410442Y-91815518D01*
G37*
G36*
X137270442Y-91815518D02*
G01*
X137336627Y-91822037D01*
X137506466Y-91873557D01*
X137662991Y-91957222D01*
X137698729Y-91986552D01*
X137800186Y-92069814D01*
X137883448Y-92171271D01*
X137912778Y-92207009D01*
X137996443Y-92363534D01*
X138047963Y-92533373D01*
X138065359Y-92710000D01*
X138047963Y-92886627D01*
X137996443Y-93056466D01*
X137912778Y-93212991D01*
X137883448Y-93248729D01*
X137800186Y-93350186D01*
X137698729Y-93433448D01*
X137662991Y-93462778D01*
X137506466Y-93546443D01*
X137336627Y-93597963D01*
X137270442Y-93604482D01*
X137204260Y-93611000D01*
X137115740Y-93611000D01*
X137049557Y-93604481D01*
X136983373Y-93597963D01*
X136813534Y-93546443D01*
X136657009Y-93462778D01*
X136621271Y-93433448D01*
X136519814Y-93350186D01*
X136436552Y-93248729D01*
X136407222Y-93212991D01*
X136323557Y-93056466D01*
X136272037Y-92886627D01*
X136254641Y-92710000D01*
X136272037Y-92533373D01*
X136323557Y-92363534D01*
X136407222Y-92207009D01*
X136436552Y-92171271D01*
X136519814Y-92069814D01*
X136621271Y-91986552D01*
X136657009Y-91957222D01*
X136813534Y-91873557D01*
X136983373Y-91822037D01*
X137049558Y-91815518D01*
X137115740Y-91809000D01*
X137204260Y-91809000D01*
X137270442Y-91815518D01*
X137270442Y-91815518D01*
G37*
G36*
X153301000Y-93611000D02*
G01*
X151499000Y-93611000D01*
X151499000Y-91809000D01*
X153301000Y-91809000D01*
X153301000Y-93611000D01*
X153301000Y-93611000D01*
G37*
G36*
X116950442Y-91815518D02*
G01*
X117016627Y-91822037D01*
X117186466Y-91873557D01*
X117342991Y-91957222D01*
X117378729Y-91986552D01*
X117480186Y-92069814D01*
X117563448Y-92171271D01*
X117592778Y-92207009D01*
X117676443Y-92363534D01*
X117727963Y-92533373D01*
X117745359Y-92710000D01*
X117727963Y-92886627D01*
X117676443Y-93056466D01*
X117592778Y-93212991D01*
X117563448Y-93248729D01*
X117480186Y-93350186D01*
X117378729Y-93433448D01*
X117342991Y-93462778D01*
X117186466Y-93546443D01*
X117016627Y-93597963D01*
X116950443Y-93604481D01*
X116884260Y-93611000D01*
X116795740Y-93611000D01*
X116729557Y-93604481D01*
X116663373Y-93597963D01*
X116493534Y-93546443D01*
X116337009Y-93462778D01*
X116301271Y-93433448D01*
X116199814Y-93350186D01*
X116116552Y-93248729D01*
X116087222Y-93212991D01*
X116003557Y-93056466D01*
X115952037Y-92886627D01*
X115934641Y-92710000D01*
X115952037Y-92533373D01*
X116003557Y-92363534D01*
X116087222Y-92207009D01*
X116116552Y-92171271D01*
X116199814Y-92069814D01*
X116301271Y-91986552D01*
X116337009Y-91957222D01*
X116493534Y-91873557D01*
X116663373Y-91822037D01*
X116729558Y-91815518D01*
X116795740Y-91809000D01*
X116884260Y-91809000D01*
X116950442Y-91815518D01*
X116950442Y-91815518D01*
G37*
G36*
X142350442Y-91815518D02*
G01*
X142416627Y-91822037D01*
X142586466Y-91873557D01*
X142742991Y-91957222D01*
X142778729Y-91986552D01*
X142880186Y-92069814D01*
X142963448Y-92171271D01*
X142992778Y-92207009D01*
X143076443Y-92363534D01*
X143127963Y-92533373D01*
X143145359Y-92710000D01*
X143127963Y-92886627D01*
X143076443Y-93056466D01*
X142992778Y-93212991D01*
X142963448Y-93248729D01*
X142880186Y-93350186D01*
X142778729Y-93433448D01*
X142742991Y-93462778D01*
X142586466Y-93546443D01*
X142416627Y-93597963D01*
X142350442Y-93604482D01*
X142284260Y-93611000D01*
X142195740Y-93611000D01*
X142129557Y-93604481D01*
X142063373Y-93597963D01*
X141893534Y-93546443D01*
X141737009Y-93462778D01*
X141701271Y-93433448D01*
X141599814Y-93350186D01*
X141516552Y-93248729D01*
X141487222Y-93212991D01*
X141403557Y-93056466D01*
X141352037Y-92886627D01*
X141334641Y-92710000D01*
X141352037Y-92533373D01*
X141403557Y-92363534D01*
X141487222Y-92207009D01*
X141516552Y-92171271D01*
X141599814Y-92069814D01*
X141701271Y-91986552D01*
X141737009Y-91957222D01*
X141893534Y-91873557D01*
X142063373Y-91822037D01*
X142129558Y-91815518D01*
X142195740Y-91809000D01*
X142284260Y-91809000D01*
X142350442Y-91815518D01*
X142350442Y-91815518D01*
G37*
G36*
X119490442Y-91815518D02*
G01*
X119556627Y-91822037D01*
X119726466Y-91873557D01*
X119882991Y-91957222D01*
X119918729Y-91986552D01*
X120020186Y-92069814D01*
X120103448Y-92171271D01*
X120132778Y-92207009D01*
X120216443Y-92363534D01*
X120267963Y-92533373D01*
X120285359Y-92710000D01*
X120267963Y-92886627D01*
X120216443Y-93056466D01*
X120132778Y-93212991D01*
X120103448Y-93248729D01*
X120020186Y-93350186D01*
X119918729Y-93433448D01*
X119882991Y-93462778D01*
X119726466Y-93546443D01*
X119556627Y-93597963D01*
X119490443Y-93604481D01*
X119424260Y-93611000D01*
X119335740Y-93611000D01*
X119269557Y-93604481D01*
X119203373Y-93597963D01*
X119033534Y-93546443D01*
X118877009Y-93462778D01*
X118841271Y-93433448D01*
X118739814Y-93350186D01*
X118656552Y-93248729D01*
X118627222Y-93212991D01*
X118543557Y-93056466D01*
X118492037Y-92886627D01*
X118474641Y-92710000D01*
X118492037Y-92533373D01*
X118543557Y-92363534D01*
X118627222Y-92207009D01*
X118656552Y-92171271D01*
X118739814Y-92069814D01*
X118841271Y-91986552D01*
X118877009Y-91957222D01*
X119033534Y-91873557D01*
X119203373Y-91822037D01*
X119269558Y-91815518D01*
X119335740Y-91809000D01*
X119424260Y-91809000D01*
X119490442Y-91815518D01*
X119490442Y-91815518D01*
G37*
G36*
X124570442Y-91815518D02*
G01*
X124636627Y-91822037D01*
X124806466Y-91873557D01*
X124962991Y-91957222D01*
X124998729Y-91986552D01*
X125100186Y-92069814D01*
X125183448Y-92171271D01*
X125212778Y-92207009D01*
X125296443Y-92363534D01*
X125347963Y-92533373D01*
X125365359Y-92710000D01*
X125347963Y-92886627D01*
X125296443Y-93056466D01*
X125212778Y-93212991D01*
X125183448Y-93248729D01*
X125100186Y-93350186D01*
X124998729Y-93433448D01*
X124962991Y-93462778D01*
X124806466Y-93546443D01*
X124636627Y-93597963D01*
X124570442Y-93604482D01*
X124504260Y-93611000D01*
X124415740Y-93611000D01*
X124349557Y-93604481D01*
X124283373Y-93597963D01*
X124113534Y-93546443D01*
X123957009Y-93462778D01*
X123921271Y-93433448D01*
X123819814Y-93350186D01*
X123736552Y-93248729D01*
X123707222Y-93212991D01*
X123623557Y-93056466D01*
X123572037Y-92886627D01*
X123554641Y-92710000D01*
X123572037Y-92533373D01*
X123623557Y-92363534D01*
X123707222Y-92207009D01*
X123736552Y-92171271D01*
X123819814Y-92069814D01*
X123921271Y-91986552D01*
X123957009Y-91957222D01*
X124113534Y-91873557D01*
X124283373Y-91822037D01*
X124349558Y-91815518D01*
X124415740Y-91809000D01*
X124504260Y-91809000D01*
X124570442Y-91815518D01*
X124570442Y-91815518D01*
G37*
G36*
X97950721Y-91545174D02*
G01*
X98050995Y-91586709D01*
X98050996Y-91586710D01*
X98141242Y-91647010D01*
X98217990Y-91723758D01*
X98217991Y-91723760D01*
X98278291Y-91814005D01*
X98319826Y-91914279D01*
X98341000Y-92020730D01*
X98341000Y-92129270D01*
X98319826Y-92235721D01*
X98278291Y-92335995D01*
X98278290Y-92335996D01*
X98217990Y-92426242D01*
X98141242Y-92502990D01*
X98095812Y-92533345D01*
X98050995Y-92563291D01*
X97950721Y-92604826D01*
X97844270Y-92626000D01*
X97735730Y-92626000D01*
X97629279Y-92604826D01*
X97529005Y-92563291D01*
X97484188Y-92533345D01*
X97438758Y-92502990D01*
X97362010Y-92426242D01*
X97301710Y-92335996D01*
X97301709Y-92335995D01*
X97260174Y-92235721D01*
X97239000Y-92129270D01*
X97239000Y-92020730D01*
X97260174Y-91914279D01*
X97301709Y-91814005D01*
X97362009Y-91723760D01*
X97362010Y-91723758D01*
X97438758Y-91647010D01*
X97529004Y-91586710D01*
X97529005Y-91586709D01*
X97629279Y-91545174D01*
X97735730Y-91524000D01*
X97844270Y-91524000D01*
X97950721Y-91545174D01*
X97950721Y-91545174D01*
G37*
G36*
X95410721Y-91545174D02*
G01*
X95510995Y-91586709D01*
X95510996Y-91586710D01*
X95601242Y-91647010D01*
X95677990Y-91723758D01*
X95677991Y-91723760D01*
X95738291Y-91814005D01*
X95779826Y-91914279D01*
X95801000Y-92020730D01*
X95801000Y-92129270D01*
X95779826Y-92235721D01*
X95738291Y-92335995D01*
X95738290Y-92335996D01*
X95677990Y-92426242D01*
X95601242Y-92502990D01*
X95555812Y-92533345D01*
X95510995Y-92563291D01*
X95410721Y-92604826D01*
X95304270Y-92626000D01*
X95195730Y-92626000D01*
X95089279Y-92604826D01*
X94989005Y-92563291D01*
X94944188Y-92533345D01*
X94898758Y-92502990D01*
X94822010Y-92426242D01*
X94761710Y-92335996D01*
X94761709Y-92335995D01*
X94720174Y-92235721D01*
X94699000Y-92129270D01*
X94699000Y-92020730D01*
X94720174Y-91914279D01*
X94761709Y-91814005D01*
X94822009Y-91723760D01*
X94822010Y-91723758D01*
X94898758Y-91647010D01*
X94989004Y-91586710D01*
X94989005Y-91586709D01*
X95089279Y-91545174D01*
X95195730Y-91524000D01*
X95304270Y-91524000D01*
X95410721Y-91545174D01*
X95410721Y-91545174D01*
G37*
G36*
X103030721Y-91545174D02*
G01*
X103130995Y-91586709D01*
X103130996Y-91586710D01*
X103221242Y-91647010D01*
X103297990Y-91723758D01*
X103297991Y-91723760D01*
X103358291Y-91814005D01*
X103399826Y-91914279D01*
X103421000Y-92020730D01*
X103421000Y-92129270D01*
X103399826Y-92235721D01*
X103358291Y-92335995D01*
X103358290Y-92335996D01*
X103297990Y-92426242D01*
X103221242Y-92502990D01*
X103175812Y-92533345D01*
X103130995Y-92563291D01*
X103030721Y-92604826D01*
X102924270Y-92626000D01*
X102815730Y-92626000D01*
X102709279Y-92604826D01*
X102609005Y-92563291D01*
X102564188Y-92533345D01*
X102518758Y-92502990D01*
X102442010Y-92426242D01*
X102381710Y-92335996D01*
X102381709Y-92335995D01*
X102340174Y-92235721D01*
X102319000Y-92129270D01*
X102319000Y-92020730D01*
X102340174Y-91914279D01*
X102381709Y-91814005D01*
X102442009Y-91723760D01*
X102442010Y-91723758D01*
X102518758Y-91647010D01*
X102609004Y-91586710D01*
X102609005Y-91586709D01*
X102709279Y-91545174D01*
X102815730Y-91524000D01*
X102924270Y-91524000D01*
X103030721Y-91545174D01*
X103030721Y-91545174D01*
G37*
G36*
X100490721Y-91545174D02*
G01*
X100590995Y-91586709D01*
X100590996Y-91586710D01*
X100681242Y-91647010D01*
X100757990Y-91723758D01*
X100757991Y-91723760D01*
X100818291Y-91814005D01*
X100859826Y-91914279D01*
X100881000Y-92020730D01*
X100881000Y-92129270D01*
X100859826Y-92235721D01*
X100818291Y-92335995D01*
X100818290Y-92335996D01*
X100757990Y-92426242D01*
X100681242Y-92502990D01*
X100635812Y-92533345D01*
X100590995Y-92563291D01*
X100490721Y-92604826D01*
X100384270Y-92626000D01*
X100275730Y-92626000D01*
X100169279Y-92604826D01*
X100069005Y-92563291D01*
X100024188Y-92533345D01*
X99978758Y-92502990D01*
X99902010Y-92426242D01*
X99841710Y-92335996D01*
X99841709Y-92335995D01*
X99800174Y-92235721D01*
X99779000Y-92129270D01*
X99779000Y-92020730D01*
X99800174Y-91914279D01*
X99841709Y-91814005D01*
X99902009Y-91723760D01*
X99902010Y-91723758D01*
X99978758Y-91647010D01*
X100069004Y-91586710D01*
X100069005Y-91586709D01*
X100169279Y-91545174D01*
X100275730Y-91524000D01*
X100384270Y-91524000D01*
X100490721Y-91545174D01*
X100490721Y-91545174D01*
G37*
G36*
X114460721Y-89640174D02*
G01*
X114560995Y-89681709D01*
X114560996Y-89681710D01*
X114651242Y-89742010D01*
X114727990Y-89818758D01*
X114727991Y-89818760D01*
X114788291Y-89909005D01*
X114829826Y-90009279D01*
X114851000Y-90115730D01*
X114851000Y-90224270D01*
X114829826Y-90330721D01*
X114788291Y-90430995D01*
X114788290Y-90430996D01*
X114727990Y-90521242D01*
X114651242Y-90597990D01*
X114605812Y-90628345D01*
X114560995Y-90658291D01*
X114460721Y-90699826D01*
X114354270Y-90721000D01*
X114245730Y-90721000D01*
X114139279Y-90699826D01*
X114039005Y-90658291D01*
X113994188Y-90628345D01*
X113948758Y-90597990D01*
X113872010Y-90521242D01*
X113811710Y-90430996D01*
X113811709Y-90430995D01*
X113770174Y-90330721D01*
X113749000Y-90224270D01*
X113749000Y-90115730D01*
X113770174Y-90009279D01*
X113811709Y-89909005D01*
X113872009Y-89818760D01*
X113872010Y-89818758D01*
X113948758Y-89742010D01*
X114039004Y-89681710D01*
X114039005Y-89681709D01*
X114139279Y-89640174D01*
X114245730Y-89619000D01*
X114354270Y-89619000D01*
X114460721Y-89640174D01*
X114460721Y-89640174D01*
G37*
G36*
X152560721Y-89640174D02*
G01*
X152660995Y-89681709D01*
X152660996Y-89681710D01*
X152751242Y-89742010D01*
X152827990Y-89818758D01*
X152827991Y-89818760D01*
X152888291Y-89909005D01*
X152929826Y-90009279D01*
X152951000Y-90115730D01*
X152951000Y-90224270D01*
X152929826Y-90330721D01*
X152888291Y-90430995D01*
X152888290Y-90430996D01*
X152827990Y-90521242D01*
X152751242Y-90597990D01*
X152705812Y-90628345D01*
X152660995Y-90658291D01*
X152560721Y-90699826D01*
X152454270Y-90721000D01*
X152345730Y-90721000D01*
X152239279Y-90699826D01*
X152139005Y-90658291D01*
X152094188Y-90628345D01*
X152048758Y-90597990D01*
X151972010Y-90521242D01*
X151911710Y-90430996D01*
X151911709Y-90430995D01*
X151870174Y-90330721D01*
X151849000Y-90224270D01*
X151849000Y-90115730D01*
X151870174Y-90009279D01*
X151911709Y-89909005D01*
X151972009Y-89818760D01*
X151972010Y-89818758D01*
X152048758Y-89742010D01*
X152139004Y-89681710D01*
X152139005Y-89681709D01*
X152239279Y-89640174D01*
X152345730Y-89619000D01*
X152454270Y-89619000D01*
X152560721Y-89640174D01*
X152560721Y-89640174D01*
G37*
G36*
X147480721Y-89640174D02*
G01*
X147580995Y-89681709D01*
X147580996Y-89681710D01*
X147671242Y-89742010D01*
X147747990Y-89818758D01*
X147747991Y-89818760D01*
X147808291Y-89909005D01*
X147849826Y-90009279D01*
X147871000Y-90115730D01*
X147871000Y-90224270D01*
X147849826Y-90330721D01*
X147808291Y-90430995D01*
X147808290Y-90430996D01*
X147747990Y-90521242D01*
X147671242Y-90597990D01*
X147625812Y-90628345D01*
X147580995Y-90658291D01*
X147480721Y-90699826D01*
X147374270Y-90721000D01*
X147265730Y-90721000D01*
X147159279Y-90699826D01*
X147059005Y-90658291D01*
X147014188Y-90628345D01*
X146968758Y-90597990D01*
X146892010Y-90521242D01*
X146831710Y-90430996D01*
X146831709Y-90430995D01*
X146790174Y-90330721D01*
X146769000Y-90224270D01*
X146769000Y-90115730D01*
X146790174Y-90009279D01*
X146831709Y-89909005D01*
X146892009Y-89818760D01*
X146892010Y-89818758D01*
X146968758Y-89742010D01*
X147059004Y-89681710D01*
X147059005Y-89681709D01*
X147159279Y-89640174D01*
X147265730Y-89619000D01*
X147374270Y-89619000D01*
X147480721Y-89640174D01*
X147480721Y-89640174D01*
G37*
G36*
X144940721Y-89640174D02*
G01*
X145040995Y-89681709D01*
X145040996Y-89681710D01*
X145131242Y-89742010D01*
X145207990Y-89818758D01*
X145207991Y-89818760D01*
X145268291Y-89909005D01*
X145309826Y-90009279D01*
X145331000Y-90115730D01*
X145331000Y-90224270D01*
X145309826Y-90330721D01*
X145268291Y-90430995D01*
X145268290Y-90430996D01*
X145207990Y-90521242D01*
X145131242Y-90597990D01*
X145085812Y-90628345D01*
X145040995Y-90658291D01*
X144940721Y-90699826D01*
X144834270Y-90721000D01*
X144725730Y-90721000D01*
X144619279Y-90699826D01*
X144519005Y-90658291D01*
X144474188Y-90628345D01*
X144428758Y-90597990D01*
X144352010Y-90521242D01*
X144291710Y-90430996D01*
X144291709Y-90430995D01*
X144250174Y-90330721D01*
X144229000Y-90224270D01*
X144229000Y-90115730D01*
X144250174Y-90009279D01*
X144291709Y-89909005D01*
X144352009Y-89818760D01*
X144352010Y-89818758D01*
X144428758Y-89742010D01*
X144519004Y-89681710D01*
X144519005Y-89681709D01*
X144619279Y-89640174D01*
X144725730Y-89619000D01*
X144834270Y-89619000D01*
X144940721Y-89640174D01*
X144940721Y-89640174D01*
G37*
G36*
X142400721Y-89640174D02*
G01*
X142500995Y-89681709D01*
X142500996Y-89681710D01*
X142591242Y-89742010D01*
X142667990Y-89818758D01*
X142667991Y-89818760D01*
X142728291Y-89909005D01*
X142769826Y-90009279D01*
X142791000Y-90115730D01*
X142791000Y-90224270D01*
X142769826Y-90330721D01*
X142728291Y-90430995D01*
X142728290Y-90430996D01*
X142667990Y-90521242D01*
X142591242Y-90597990D01*
X142545812Y-90628345D01*
X142500995Y-90658291D01*
X142400721Y-90699826D01*
X142294270Y-90721000D01*
X142185730Y-90721000D01*
X142079279Y-90699826D01*
X141979005Y-90658291D01*
X141934188Y-90628345D01*
X141888758Y-90597990D01*
X141812010Y-90521242D01*
X141751710Y-90430996D01*
X141751709Y-90430995D01*
X141710174Y-90330721D01*
X141689000Y-90224270D01*
X141689000Y-90115730D01*
X141710174Y-90009279D01*
X141751709Y-89909005D01*
X141812009Y-89818760D01*
X141812010Y-89818758D01*
X141888758Y-89742010D01*
X141979004Y-89681710D01*
X141979005Y-89681709D01*
X142079279Y-89640174D01*
X142185730Y-89619000D01*
X142294270Y-89619000D01*
X142400721Y-89640174D01*
X142400721Y-89640174D01*
G37*
G36*
X137320721Y-89640174D02*
G01*
X137420995Y-89681709D01*
X137420996Y-89681710D01*
X137511242Y-89742010D01*
X137587990Y-89818758D01*
X137587991Y-89818760D01*
X137648291Y-89909005D01*
X137689826Y-90009279D01*
X137711000Y-90115730D01*
X137711000Y-90224270D01*
X137689826Y-90330721D01*
X137648291Y-90430995D01*
X137648290Y-90430996D01*
X137587990Y-90521242D01*
X137511242Y-90597990D01*
X137465812Y-90628345D01*
X137420995Y-90658291D01*
X137320721Y-90699826D01*
X137214270Y-90721000D01*
X137105730Y-90721000D01*
X136999279Y-90699826D01*
X136899005Y-90658291D01*
X136854188Y-90628345D01*
X136808758Y-90597990D01*
X136732010Y-90521242D01*
X136671710Y-90430996D01*
X136671709Y-90430995D01*
X136630174Y-90330721D01*
X136609000Y-90224270D01*
X136609000Y-90115730D01*
X136630174Y-90009279D01*
X136671709Y-89909005D01*
X136732009Y-89818760D01*
X136732010Y-89818758D01*
X136808758Y-89742010D01*
X136899004Y-89681710D01*
X136899005Y-89681709D01*
X136999279Y-89640174D01*
X137105730Y-89619000D01*
X137214270Y-89619000D01*
X137320721Y-89640174D01*
X137320721Y-89640174D01*
G37*
G36*
X134780721Y-89640174D02*
G01*
X134880995Y-89681709D01*
X134880996Y-89681710D01*
X134971242Y-89742010D01*
X135047990Y-89818758D01*
X135047991Y-89818760D01*
X135108291Y-89909005D01*
X135149826Y-90009279D01*
X135171000Y-90115730D01*
X135171000Y-90224270D01*
X135149826Y-90330721D01*
X135108291Y-90430995D01*
X135108290Y-90430996D01*
X135047990Y-90521242D01*
X134971242Y-90597990D01*
X134925812Y-90628345D01*
X134880995Y-90658291D01*
X134780721Y-90699826D01*
X134674270Y-90721000D01*
X134565730Y-90721000D01*
X134459279Y-90699826D01*
X134359005Y-90658291D01*
X134314188Y-90628345D01*
X134268758Y-90597990D01*
X134192010Y-90521242D01*
X134131710Y-90430996D01*
X134131709Y-90430995D01*
X134090174Y-90330721D01*
X134069000Y-90224270D01*
X134069000Y-90115730D01*
X134090174Y-90009279D01*
X134131709Y-89909005D01*
X134192009Y-89818760D01*
X134192010Y-89818758D01*
X134268758Y-89742010D01*
X134359004Y-89681710D01*
X134359005Y-89681709D01*
X134459279Y-89640174D01*
X134565730Y-89619000D01*
X134674270Y-89619000D01*
X134780721Y-89640174D01*
X134780721Y-89640174D01*
G37*
G36*
X150020721Y-89640174D02*
G01*
X150120995Y-89681709D01*
X150120996Y-89681710D01*
X150211242Y-89742010D01*
X150287990Y-89818758D01*
X150287991Y-89818760D01*
X150348291Y-89909005D01*
X150389826Y-90009279D01*
X150411000Y-90115730D01*
X150411000Y-90224270D01*
X150389826Y-90330721D01*
X150348291Y-90430995D01*
X150348290Y-90430996D01*
X150287990Y-90521242D01*
X150211242Y-90597990D01*
X150165812Y-90628345D01*
X150120995Y-90658291D01*
X150020721Y-90699826D01*
X149914270Y-90721000D01*
X149805730Y-90721000D01*
X149699279Y-90699826D01*
X149599005Y-90658291D01*
X149554188Y-90628345D01*
X149508758Y-90597990D01*
X149432010Y-90521242D01*
X149371710Y-90430996D01*
X149371709Y-90430995D01*
X149330174Y-90330721D01*
X149309000Y-90224270D01*
X149309000Y-90115730D01*
X149330174Y-90009279D01*
X149371709Y-89909005D01*
X149432009Y-89818760D01*
X149432010Y-89818758D01*
X149508758Y-89742010D01*
X149599004Y-89681710D01*
X149599005Y-89681709D01*
X149699279Y-89640174D01*
X149805730Y-89619000D01*
X149914270Y-89619000D01*
X150020721Y-89640174D01*
X150020721Y-89640174D01*
G37*
G36*
X129700721Y-89640174D02*
G01*
X129800995Y-89681709D01*
X129800996Y-89681710D01*
X129891242Y-89742010D01*
X129967990Y-89818758D01*
X129967991Y-89818760D01*
X130028291Y-89909005D01*
X130069826Y-90009279D01*
X130091000Y-90115730D01*
X130091000Y-90224270D01*
X130069826Y-90330721D01*
X130028291Y-90430995D01*
X130028290Y-90430996D01*
X129967990Y-90521242D01*
X129891242Y-90597990D01*
X129845812Y-90628345D01*
X129800995Y-90658291D01*
X129700721Y-90699826D01*
X129594270Y-90721000D01*
X129485730Y-90721000D01*
X129379279Y-90699826D01*
X129279005Y-90658291D01*
X129234188Y-90628345D01*
X129188758Y-90597990D01*
X129112010Y-90521242D01*
X129051710Y-90430996D01*
X129051709Y-90430995D01*
X129010174Y-90330721D01*
X128989000Y-90224270D01*
X128989000Y-90115730D01*
X129010174Y-90009279D01*
X129051709Y-89909005D01*
X129112009Y-89818760D01*
X129112010Y-89818758D01*
X129188758Y-89742010D01*
X129279004Y-89681710D01*
X129279005Y-89681709D01*
X129379279Y-89640174D01*
X129485730Y-89619000D01*
X129594270Y-89619000D01*
X129700721Y-89640174D01*
X129700721Y-89640174D01*
G37*
G36*
X127160721Y-89640174D02*
G01*
X127260995Y-89681709D01*
X127260996Y-89681710D01*
X127351242Y-89742010D01*
X127427990Y-89818758D01*
X127427991Y-89818760D01*
X127488291Y-89909005D01*
X127529826Y-90009279D01*
X127551000Y-90115730D01*
X127551000Y-90224270D01*
X127529826Y-90330721D01*
X127488291Y-90430995D01*
X127488290Y-90430996D01*
X127427990Y-90521242D01*
X127351242Y-90597990D01*
X127305812Y-90628345D01*
X127260995Y-90658291D01*
X127160721Y-90699826D01*
X127054270Y-90721000D01*
X126945730Y-90721000D01*
X126839279Y-90699826D01*
X126739005Y-90658291D01*
X126694188Y-90628345D01*
X126648758Y-90597990D01*
X126572010Y-90521242D01*
X126511710Y-90430996D01*
X126511709Y-90430995D01*
X126470174Y-90330721D01*
X126449000Y-90224270D01*
X126449000Y-90115730D01*
X126470174Y-90009279D01*
X126511709Y-89909005D01*
X126572009Y-89818760D01*
X126572010Y-89818758D01*
X126648758Y-89742010D01*
X126739004Y-89681710D01*
X126739005Y-89681709D01*
X126839279Y-89640174D01*
X126945730Y-89619000D01*
X127054270Y-89619000D01*
X127160721Y-89640174D01*
X127160721Y-89640174D01*
G37*
G36*
X124620721Y-89640174D02*
G01*
X124720995Y-89681709D01*
X124720996Y-89681710D01*
X124811242Y-89742010D01*
X124887990Y-89818758D01*
X124887991Y-89818760D01*
X124948291Y-89909005D01*
X124989826Y-90009279D01*
X125011000Y-90115730D01*
X125011000Y-90224270D01*
X124989826Y-90330721D01*
X124948291Y-90430995D01*
X124948290Y-90430996D01*
X124887990Y-90521242D01*
X124811242Y-90597990D01*
X124765812Y-90628345D01*
X124720995Y-90658291D01*
X124620721Y-90699826D01*
X124514270Y-90721000D01*
X124405730Y-90721000D01*
X124299279Y-90699826D01*
X124199005Y-90658291D01*
X124154188Y-90628345D01*
X124108758Y-90597990D01*
X124032010Y-90521242D01*
X123971710Y-90430996D01*
X123971709Y-90430995D01*
X123930174Y-90330721D01*
X123909000Y-90224270D01*
X123909000Y-90115730D01*
X123930174Y-90009279D01*
X123971709Y-89909005D01*
X124032009Y-89818760D01*
X124032010Y-89818758D01*
X124108758Y-89742010D01*
X124199004Y-89681710D01*
X124199005Y-89681709D01*
X124299279Y-89640174D01*
X124405730Y-89619000D01*
X124514270Y-89619000D01*
X124620721Y-89640174D01*
X124620721Y-89640174D01*
G37*
G36*
X122080721Y-89640174D02*
G01*
X122180995Y-89681709D01*
X122180996Y-89681710D01*
X122271242Y-89742010D01*
X122347990Y-89818758D01*
X122347991Y-89818760D01*
X122408291Y-89909005D01*
X122449826Y-90009279D01*
X122471000Y-90115730D01*
X122471000Y-90224270D01*
X122449826Y-90330721D01*
X122408291Y-90430995D01*
X122408290Y-90430996D01*
X122347990Y-90521242D01*
X122271242Y-90597990D01*
X122225812Y-90628345D01*
X122180995Y-90658291D01*
X122080721Y-90699826D01*
X121974270Y-90721000D01*
X121865730Y-90721000D01*
X121759279Y-90699826D01*
X121659005Y-90658291D01*
X121614188Y-90628345D01*
X121568758Y-90597990D01*
X121492010Y-90521242D01*
X121431710Y-90430996D01*
X121431709Y-90430995D01*
X121390174Y-90330721D01*
X121369000Y-90224270D01*
X121369000Y-90115730D01*
X121390174Y-90009279D01*
X121431709Y-89909005D01*
X121492009Y-89818760D01*
X121492010Y-89818758D01*
X121568758Y-89742010D01*
X121659004Y-89681710D01*
X121659005Y-89681709D01*
X121759279Y-89640174D01*
X121865730Y-89619000D01*
X121974270Y-89619000D01*
X122080721Y-89640174D01*
X122080721Y-89640174D01*
G37*
G36*
X119540721Y-89640174D02*
G01*
X119640995Y-89681709D01*
X119640996Y-89681710D01*
X119731242Y-89742010D01*
X119807990Y-89818758D01*
X119807991Y-89818760D01*
X119868291Y-89909005D01*
X119909826Y-90009279D01*
X119931000Y-90115730D01*
X119931000Y-90224270D01*
X119909826Y-90330721D01*
X119868291Y-90430995D01*
X119868290Y-90430996D01*
X119807990Y-90521242D01*
X119731242Y-90597990D01*
X119685812Y-90628345D01*
X119640995Y-90658291D01*
X119540721Y-90699826D01*
X119434270Y-90721000D01*
X119325730Y-90721000D01*
X119219279Y-90699826D01*
X119119005Y-90658291D01*
X119074188Y-90628345D01*
X119028758Y-90597990D01*
X118952010Y-90521242D01*
X118891710Y-90430996D01*
X118891709Y-90430995D01*
X118850174Y-90330721D01*
X118829000Y-90224270D01*
X118829000Y-90115730D01*
X118850174Y-90009279D01*
X118891709Y-89909005D01*
X118952009Y-89818760D01*
X118952010Y-89818758D01*
X119028758Y-89742010D01*
X119119004Y-89681710D01*
X119119005Y-89681709D01*
X119219279Y-89640174D01*
X119325730Y-89619000D01*
X119434270Y-89619000D01*
X119540721Y-89640174D01*
X119540721Y-89640174D01*
G37*
G36*
X117000721Y-89640174D02*
G01*
X117100995Y-89681709D01*
X117100996Y-89681710D01*
X117191242Y-89742010D01*
X117267990Y-89818758D01*
X117267991Y-89818760D01*
X117328291Y-89909005D01*
X117369826Y-90009279D01*
X117391000Y-90115730D01*
X117391000Y-90224270D01*
X117369826Y-90330721D01*
X117328291Y-90430995D01*
X117328290Y-90430996D01*
X117267990Y-90521242D01*
X117191242Y-90597990D01*
X117145812Y-90628345D01*
X117100995Y-90658291D01*
X117000721Y-90699826D01*
X116894270Y-90721000D01*
X116785730Y-90721000D01*
X116679279Y-90699826D01*
X116579005Y-90658291D01*
X116534188Y-90628345D01*
X116488758Y-90597990D01*
X116412010Y-90521242D01*
X116351710Y-90430996D01*
X116351709Y-90430995D01*
X116310174Y-90330721D01*
X116289000Y-90224270D01*
X116289000Y-90115730D01*
X116310174Y-90009279D01*
X116351709Y-89909005D01*
X116412009Y-89818760D01*
X116412010Y-89818758D01*
X116488758Y-89742010D01*
X116579004Y-89681710D01*
X116579005Y-89681709D01*
X116679279Y-89640174D01*
X116785730Y-89619000D01*
X116894270Y-89619000D01*
X117000721Y-89640174D01*
X117000721Y-89640174D01*
G37*
G36*
X111920721Y-89640174D02*
G01*
X112020995Y-89681709D01*
X112020996Y-89681710D01*
X112111242Y-89742010D01*
X112187990Y-89818758D01*
X112187991Y-89818760D01*
X112248291Y-89909005D01*
X112289826Y-90009279D01*
X112311000Y-90115730D01*
X112311000Y-90224270D01*
X112289826Y-90330721D01*
X112248291Y-90430995D01*
X112248290Y-90430996D01*
X112187990Y-90521242D01*
X112111242Y-90597990D01*
X112065812Y-90628345D01*
X112020995Y-90658291D01*
X111920721Y-90699826D01*
X111814270Y-90721000D01*
X111705730Y-90721000D01*
X111599279Y-90699826D01*
X111499005Y-90658291D01*
X111454188Y-90628345D01*
X111408758Y-90597990D01*
X111332010Y-90521242D01*
X111271710Y-90430996D01*
X111271709Y-90430995D01*
X111230174Y-90330721D01*
X111209000Y-90224270D01*
X111209000Y-90115730D01*
X111230174Y-90009279D01*
X111271709Y-89909005D01*
X111332009Y-89818760D01*
X111332010Y-89818758D01*
X111408758Y-89742010D01*
X111499004Y-89681710D01*
X111499005Y-89681709D01*
X111599279Y-89640174D01*
X111705730Y-89619000D01*
X111814270Y-89619000D01*
X111920721Y-89640174D01*
X111920721Y-89640174D01*
G37*
G36*
X132240721Y-89640174D02*
G01*
X132340995Y-89681709D01*
X132340996Y-89681710D01*
X132431242Y-89742010D01*
X132507990Y-89818758D01*
X132507991Y-89818760D01*
X132568291Y-89909005D01*
X132609826Y-90009279D01*
X132631000Y-90115730D01*
X132631000Y-90224270D01*
X132609826Y-90330721D01*
X132568291Y-90430995D01*
X132568290Y-90430996D01*
X132507990Y-90521242D01*
X132431242Y-90597990D01*
X132385812Y-90628345D01*
X132340995Y-90658291D01*
X132240721Y-90699826D01*
X132134270Y-90721000D01*
X132025730Y-90721000D01*
X131919279Y-90699826D01*
X131819005Y-90658291D01*
X131774188Y-90628345D01*
X131728758Y-90597990D01*
X131652010Y-90521242D01*
X131591710Y-90430996D01*
X131591709Y-90430995D01*
X131550174Y-90330721D01*
X131529000Y-90224270D01*
X131529000Y-90115730D01*
X131550174Y-90009279D01*
X131591709Y-89909005D01*
X131652009Y-89818760D01*
X131652010Y-89818758D01*
X131728758Y-89742010D01*
X131819004Y-89681710D01*
X131819005Y-89681709D01*
X131919279Y-89640174D01*
X132025730Y-89619000D01*
X132134270Y-89619000D01*
X132240721Y-89640174D01*
X132240721Y-89640174D01*
G37*
G36*
X139860721Y-89640174D02*
G01*
X139960995Y-89681709D01*
X139960996Y-89681710D01*
X140051242Y-89742010D01*
X140127990Y-89818758D01*
X140127991Y-89818760D01*
X140188291Y-89909005D01*
X140229826Y-90009279D01*
X140251000Y-90115730D01*
X140251000Y-90224270D01*
X140229826Y-90330721D01*
X140188291Y-90430995D01*
X140188290Y-90430996D01*
X140127990Y-90521242D01*
X140051242Y-90597990D01*
X140005812Y-90628345D01*
X139960995Y-90658291D01*
X139860721Y-90699826D01*
X139754270Y-90721000D01*
X139645730Y-90721000D01*
X139539279Y-90699826D01*
X139439005Y-90658291D01*
X139394188Y-90628345D01*
X139348758Y-90597990D01*
X139272010Y-90521242D01*
X139211710Y-90430996D01*
X139211709Y-90430995D01*
X139170174Y-90330721D01*
X139149000Y-90224270D01*
X139149000Y-90115730D01*
X139170174Y-90009279D01*
X139211709Y-89909005D01*
X139272009Y-89818760D01*
X139272010Y-89818758D01*
X139348758Y-89742010D01*
X139439004Y-89681710D01*
X139439005Y-89681709D01*
X139539279Y-89640174D01*
X139645730Y-89619000D01*
X139754270Y-89619000D01*
X139860721Y-89640174D01*
X139860721Y-89640174D01*
G37*
G36*
X158974549Y-85231116D02*
G01*
X159085734Y-85253232D01*
X159295203Y-85339997D01*
X159483720Y-85465960D01*
X159644040Y-85626280D01*
X159770003Y-85814797D01*
X159856768Y-86024266D01*
X159901000Y-86246636D01*
X159901000Y-86473364D01*
X159856768Y-86695734D01*
X159770003Y-86905203D01*
X159644040Y-87093720D01*
X159483720Y-87254040D01*
X159295203Y-87380003D01*
X159085734Y-87466768D01*
X158974549Y-87488884D01*
X158863365Y-87511000D01*
X158636635Y-87511000D01*
X158525451Y-87488884D01*
X158414266Y-87466768D01*
X158204797Y-87380003D01*
X158016280Y-87254040D01*
X157855960Y-87093720D01*
X157729997Y-86905203D01*
X157643232Y-86695734D01*
X157599000Y-86473364D01*
X157599000Y-86246636D01*
X157643232Y-86024266D01*
X157729997Y-85814797D01*
X157855960Y-85626280D01*
X158016280Y-85465960D01*
X158204797Y-85339997D01*
X158414266Y-85253232D01*
X158525451Y-85231116D01*
X158636635Y-85209000D01*
X158863365Y-85209000D01*
X158974549Y-85231116D01*
X158974549Y-85231116D01*
G37*
G36*
X94077549Y-85231116D02*
G01*
X94188734Y-85253232D01*
X94398203Y-85339997D01*
X94586720Y-85465960D01*
X94747040Y-85626280D01*
X94873003Y-85814797D01*
X94959768Y-86024266D01*
X95004000Y-86246636D01*
X95004000Y-86473364D01*
X94959768Y-86695734D01*
X94873003Y-86905203D01*
X94747040Y-87093720D01*
X94586720Y-87254040D01*
X94398203Y-87380003D01*
X94188734Y-87466768D01*
X94077549Y-87488884D01*
X93966365Y-87511000D01*
X93739635Y-87511000D01*
X93628451Y-87488884D01*
X93517266Y-87466768D01*
X93307797Y-87380003D01*
X93119280Y-87254040D01*
X92958960Y-87093720D01*
X92832997Y-86905203D01*
X92746232Y-86695734D01*
X92702000Y-86473364D01*
X92702000Y-86246636D01*
X92746232Y-86024266D01*
X92832997Y-85814797D01*
X92958960Y-85626280D01*
X93119280Y-85465960D01*
X93307797Y-85339997D01*
X93517266Y-85253232D01*
X93628451Y-85231116D01*
X93739635Y-85209000D01*
X93966365Y-85209000D01*
X94077549Y-85231116D01*
X94077549Y-85231116D01*
G37*
M02*
