G04 #@! TF.GenerationSoftware,KiCad,Pcbnew,(5.1.2)-2*
G04 #@! TF.CreationDate,2020-12-20T10:42:53+00:00*
G04 #@! TF.ProjectId,Amiga 34-pin to Citizen Slim 26-pin Adapter (Design A),416d6967-6120-4333-942d-70696e20746f,rev?*
G04 #@! TF.SameCoordinates,Original*
G04 #@! TF.FileFunction,Copper,L2,Bot*
G04 #@! TF.FilePolarity,Positive*
%FSLAX46Y46*%
G04 Gerber Fmt 4.6, Leading zero omitted, Abs format (unit mm)*
G04 Created by KiCad (PCBNEW (5.1.2)-2) date 2020-12-20 10:42:53*
%MOMM*%
%LPD*%
G04 APERTURE LIST*
%ADD10C,1.000000*%
%ADD11O,1.700000X1.700000*%
%ADD12R,1.700000X1.700000*%
%ADD13C,0.250000*%
%ADD14C,1.000000*%
%ADD15C,0.254000*%
G04 APERTURE END LIST*
D10*
X137160000Y-118110000D03*
X139700000Y-118110000D03*
X134620000Y-118110000D03*
X132080000Y-118110000D03*
X142240000Y-118110000D03*
X144780000Y-118110000D03*
X147320000Y-118110000D03*
X129540000Y-118110000D03*
X119380000Y-118110000D03*
X116840000Y-118110000D03*
X121920000Y-118110000D03*
X127000000Y-118110000D03*
X124460000Y-118110000D03*
D11*
X147320000Y-113030000D03*
X147320000Y-115570000D03*
X144780000Y-113030000D03*
X144780000Y-115570000D03*
X142240000Y-113030000D03*
X142240000Y-115570000D03*
X139700000Y-113030000D03*
X139700000Y-115570000D03*
X137160000Y-113030000D03*
X137160000Y-115570000D03*
X134620000Y-113030000D03*
X134620000Y-115570000D03*
X132080000Y-113030000D03*
X132080000Y-115570000D03*
X129540000Y-113030000D03*
X129540000Y-115570000D03*
X127000000Y-113030000D03*
X127000000Y-115570000D03*
X124460000Y-113030000D03*
X124460000Y-115570000D03*
X121920000Y-113030000D03*
X121920000Y-115570000D03*
X119380000Y-113030000D03*
X119380000Y-115570000D03*
X116840000Y-113030000D03*
D12*
X116840000Y-115570000D03*
D10*
X111760000Y-90170000D03*
X114300000Y-90170000D03*
X116840000Y-90170000D03*
X119380000Y-90170000D03*
X121920000Y-90170000D03*
X124460000Y-90170000D03*
X127000000Y-90170000D03*
X129540000Y-90170000D03*
X132080000Y-90170000D03*
X134620000Y-90170000D03*
X137160000Y-90170000D03*
X139700000Y-90170000D03*
X142240000Y-90170000D03*
X144780000Y-90170000D03*
X147320000Y-110490000D03*
X144780000Y-110490000D03*
X142240000Y-110490000D03*
X139700000Y-110490000D03*
X137160000Y-110490000D03*
X134620000Y-110490000D03*
X132080000Y-110490000D03*
X129540000Y-110490000D03*
X127000000Y-110490000D03*
X124460000Y-110490000D03*
X121920000Y-110490000D03*
X119380000Y-110490000D03*
X116840000Y-110490000D03*
X102870000Y-98425000D03*
X100330000Y-98425000D03*
X97790000Y-98425000D03*
X95250000Y-98425000D03*
X95250000Y-92075000D03*
X102870000Y-92075000D03*
X100330000Y-92075000D03*
X97790000Y-92075000D03*
X147320000Y-90170000D03*
X149860000Y-90170000D03*
X152400000Y-90170000D03*
X111760000Y-97790000D03*
X114300000Y-97790000D03*
X116840000Y-97790000D03*
X119380000Y-97790000D03*
X121920000Y-97790000D03*
X124460000Y-97790000D03*
X127000000Y-97790000D03*
X129540000Y-97790000D03*
X132080000Y-97790000D03*
X134620000Y-97790000D03*
X137160000Y-97790000D03*
X139700000Y-97790000D03*
X142240000Y-97790000D03*
X144780000Y-97790000D03*
X147320000Y-97790000D03*
X149860000Y-97790000D03*
X152400000Y-97790000D03*
D11*
X111760000Y-95250000D03*
X111760000Y-92710000D03*
X114300000Y-95250000D03*
X114300000Y-92710000D03*
X116840000Y-95250000D03*
X116840000Y-92710000D03*
X119380000Y-95250000D03*
X119380000Y-92710000D03*
X121920000Y-95250000D03*
X121920000Y-92710000D03*
X124460000Y-95250000D03*
X124460000Y-92710000D03*
X127000000Y-95250000D03*
X127000000Y-92710000D03*
X129540000Y-95250000D03*
X129540000Y-92710000D03*
X132080000Y-95250000D03*
X132080000Y-92710000D03*
X134620000Y-95250000D03*
X134620000Y-92710000D03*
X137160000Y-95250000D03*
X137160000Y-92710000D03*
X139700000Y-95250000D03*
X139700000Y-92710000D03*
X142240000Y-95250000D03*
X142240000Y-92710000D03*
X144780000Y-95250000D03*
X144780000Y-92710000D03*
X147320000Y-95250000D03*
X147320000Y-92710000D03*
X149860000Y-95250000D03*
X149860000Y-92710000D03*
X152400000Y-95250000D03*
D12*
X152400000Y-92710000D03*
D11*
X95250000Y-95250000D03*
X97790000Y-95250000D03*
X100330000Y-95250000D03*
D12*
X102870000Y-95250000D03*
D13*
X114300000Y-95250000D02*
X114300000Y-97790000D01*
X147320000Y-113030000D02*
X147320000Y-110490000D01*
X111760000Y-92710000D02*
X111760000Y-90170000D01*
X114300000Y-90170000D02*
X114300000Y-92710000D01*
X116840000Y-90170000D02*
X116840000Y-92710000D01*
X119380000Y-90170000D02*
X119380000Y-92710000D01*
X121920000Y-90170000D02*
X121920000Y-92710000D01*
X124460000Y-90170000D02*
X124460000Y-92710000D01*
X127000000Y-90170000D02*
X127000000Y-92710000D01*
X129540000Y-90170000D02*
X129540000Y-92710000D01*
X132080000Y-90170000D02*
X132080000Y-92710000D01*
X134620000Y-90170000D02*
X134620000Y-92710000D01*
X137160000Y-90170000D02*
X137160000Y-92710000D01*
X139700000Y-90170000D02*
X139700000Y-92710000D01*
X142240000Y-90170000D02*
X142240000Y-92710000D01*
X144780000Y-90170000D02*
X144780000Y-92710000D01*
X147320000Y-90170000D02*
X147320000Y-92710000D01*
X149860000Y-90170000D02*
X149860000Y-92710000D01*
X152400000Y-90170000D02*
X152400000Y-92710000D01*
X134620000Y-115570000D02*
X134620000Y-118110000D01*
X132080000Y-115570000D02*
X132080000Y-118110000D01*
X144780000Y-115570000D02*
X144780000Y-118110000D01*
X137160000Y-115570000D02*
X137160000Y-118110000D01*
X139700000Y-115570000D02*
X139700000Y-118110000D01*
X147320000Y-115570000D02*
X147320000Y-118110000D01*
X142240000Y-115570000D02*
X142240000Y-118110000D01*
X97790000Y-95250000D02*
X97790000Y-98425000D01*
X100330000Y-95250000D02*
X100330000Y-98425000D01*
X97790000Y-95250000D02*
X97790000Y-92075000D01*
X100330000Y-95250000D02*
X100330000Y-92075000D01*
X116840000Y-95250000D02*
X116840000Y-97790000D01*
X144780000Y-113030000D02*
X144780000Y-110490000D01*
X142240000Y-113030000D02*
X142240000Y-110490000D01*
X119380000Y-95250000D02*
X119380000Y-97790000D01*
X139700000Y-113030000D02*
X139700000Y-110490000D01*
X121920000Y-95250000D02*
X121920000Y-97790000D01*
X137160000Y-113030000D02*
X137160000Y-110490000D01*
X124460000Y-95250000D02*
X124460000Y-97790000D01*
X134620000Y-113030000D02*
X134620000Y-110490000D01*
X127000000Y-95250000D02*
X127000000Y-97790000D01*
X132080000Y-113030000D02*
X132080000Y-110490000D01*
X129540000Y-95250000D02*
X129540000Y-97790000D01*
X129540000Y-113030000D02*
X129540000Y-110490000D01*
X132080000Y-95250000D02*
X132080000Y-97790000D01*
X129540000Y-115570000D02*
X129540000Y-118110000D01*
X127000000Y-113030000D02*
X127000000Y-110490000D01*
X134620000Y-95250000D02*
X134620000Y-97790000D01*
X149860000Y-95250000D02*
X149860000Y-97790000D01*
X133654800Y-96215200D02*
X134620000Y-95250000D01*
X133400800Y-96469200D02*
X133654800Y-96215200D01*
X133400800Y-104749600D02*
X133400800Y-96469200D01*
X128168400Y-109982000D02*
X133400800Y-104749600D01*
X127000000Y-113030000D02*
X128168400Y-111861600D01*
X128168400Y-111861600D02*
X128168400Y-109982000D01*
X127000000Y-115570000D02*
X127000000Y-118110000D01*
X111760000Y-95250000D02*
X111760000Y-97790000D01*
X124460000Y-110490000D02*
X124460000Y-113030000D01*
X113131600Y-96621600D02*
X111760000Y-95250000D01*
X123190000Y-111760000D02*
X123190000Y-108610400D01*
X124460000Y-113030000D02*
X123190000Y-111760000D01*
X123190000Y-108610400D02*
X119786400Y-105206800D01*
X119786400Y-105206800D02*
X114198400Y-105206800D01*
X114198400Y-105206800D02*
X113131600Y-104140000D01*
X113131600Y-104140000D02*
X113131600Y-96621600D01*
D14*
X124460000Y-115570000D02*
X116840000Y-115570000D01*
X119380000Y-115570000D02*
X119380000Y-118110000D01*
X121920000Y-115570000D02*
X121920000Y-118110000D01*
X116840000Y-115570000D02*
X116840000Y-118110000D01*
X124460000Y-115570000D02*
X124460000Y-118110000D01*
X116840000Y-118110000D02*
X124460000Y-118110000D01*
X102870000Y-95250000D02*
X102870000Y-97790000D01*
X104720000Y-95250000D02*
X102870000Y-95250000D01*
X106680000Y-97790000D02*
X104720000Y-95250000D01*
X106680000Y-109800000D02*
X106680000Y-97790000D01*
X112450000Y-115570000D02*
X106680000Y-109800000D01*
X102870000Y-92075000D02*
X102870000Y-95250000D01*
X116840000Y-115570000D02*
X112395000Y-115570000D01*
X102870000Y-113030000D02*
X102870000Y-97790000D01*
X116840000Y-118110000D02*
X107950000Y-118110000D01*
X107950000Y-118110000D02*
X102870000Y-113030000D01*
D13*
X121920000Y-113030000D02*
X121920000Y-110490000D01*
X152400000Y-96452081D02*
X152400000Y-95250000D01*
X152400000Y-97790000D02*
X152400000Y-96452081D01*
X119380000Y-113030000D02*
X119380000Y-110490000D01*
X142240000Y-95250000D02*
X142240000Y-97790000D01*
X142240000Y-96452081D02*
X142240000Y-95250000D01*
X142240000Y-96471002D02*
X142240000Y-96452081D01*
X116840000Y-113030000D02*
X116840000Y-110490000D01*
X144780000Y-95250000D02*
X144780000Y-97790000D01*
X143662400Y-96367600D02*
X144322800Y-95707200D01*
X143662400Y-101904800D02*
X143662400Y-96367600D01*
X144322800Y-95707200D02*
X144780000Y-95250000D01*
X140208000Y-105359200D02*
X143662400Y-101904800D01*
X118015001Y-114205001D02*
X130104001Y-114205001D01*
X116840000Y-113030000D02*
X118015001Y-114205001D01*
X130104001Y-114205001D02*
X130904999Y-113404003D01*
X130904999Y-113404003D02*
X130904999Y-109226601D01*
X130904999Y-109226601D02*
X134772400Y-105359200D01*
X134772400Y-105359200D02*
X140208000Y-105359200D01*
X137160000Y-95250000D02*
X137160000Y-97790000D01*
X139700000Y-95250000D02*
X139700000Y-97790000D01*
X147320000Y-95250000D02*
X147320000Y-97790000D01*
X95250000Y-98425000D02*
X95250000Y-95250000D01*
X95250000Y-92075000D02*
X95250000Y-95250000D01*
D15*
G36*
X160137869Y-84494722D02*
G01*
X160251246Y-84528953D01*
X160355819Y-84584555D01*
X160447596Y-84659407D01*
X160523091Y-84750664D01*
X160579419Y-84854844D01*
X160614440Y-84967976D01*
X160630000Y-85116022D01*
X160630001Y-122522711D01*
X160615278Y-122672869D01*
X160581047Y-122786246D01*
X160525446Y-122890817D01*
X160450594Y-122982595D01*
X160359335Y-123058091D01*
X160255160Y-123114419D01*
X160142024Y-123149440D01*
X159993979Y-123165000D01*
X92615279Y-123165000D01*
X92465131Y-123150278D01*
X92351754Y-123116047D01*
X92247183Y-123060446D01*
X92155405Y-122985594D01*
X92079909Y-122894335D01*
X92023581Y-122790160D01*
X91988560Y-122677024D01*
X91973000Y-122528979D01*
X91973000Y-121114117D01*
X92118000Y-121114117D01*
X92118000Y-121455883D01*
X92184675Y-121791081D01*
X92315463Y-122106831D01*
X92505337Y-122390998D01*
X92747002Y-122632663D01*
X93031169Y-122822537D01*
X93346919Y-122953325D01*
X93682117Y-123020000D01*
X94023883Y-123020000D01*
X94359081Y-122953325D01*
X94674831Y-122822537D01*
X94958998Y-122632663D01*
X95200663Y-122390998D01*
X95390537Y-122106831D01*
X95521325Y-121791081D01*
X95588000Y-121455883D01*
X95588000Y-121114117D01*
X157015000Y-121114117D01*
X157015000Y-121455883D01*
X157081675Y-121791081D01*
X157212463Y-122106831D01*
X157402337Y-122390998D01*
X157644002Y-122632663D01*
X157928169Y-122822537D01*
X158243919Y-122953325D01*
X158579117Y-123020000D01*
X158920883Y-123020000D01*
X159256081Y-122953325D01*
X159571831Y-122822537D01*
X159855998Y-122632663D01*
X160097663Y-122390998D01*
X160287537Y-122106831D01*
X160418325Y-121791081D01*
X160485000Y-121455883D01*
X160485000Y-121114117D01*
X160418325Y-120778919D01*
X160287537Y-120463169D01*
X160097663Y-120179002D01*
X159855998Y-119937337D01*
X159571831Y-119747463D01*
X159256081Y-119616675D01*
X158920883Y-119550000D01*
X158579117Y-119550000D01*
X158243919Y-119616675D01*
X157928169Y-119747463D01*
X157644002Y-119937337D01*
X157402337Y-120179002D01*
X157212463Y-120463169D01*
X157081675Y-120778919D01*
X157015000Y-121114117D01*
X95588000Y-121114117D01*
X95521325Y-120778919D01*
X95390537Y-120463169D01*
X95200663Y-120179002D01*
X94958998Y-119937337D01*
X94674831Y-119747463D01*
X94359081Y-119616675D01*
X94023883Y-119550000D01*
X93682117Y-119550000D01*
X93346919Y-119616675D01*
X93031169Y-119747463D01*
X92747002Y-119937337D01*
X92505337Y-120179002D01*
X92315463Y-120463169D01*
X92184675Y-120778919D01*
X92118000Y-121114117D01*
X91973000Y-121114117D01*
X91973000Y-95250000D01*
X93757815Y-95250000D01*
X93786487Y-95541111D01*
X93871401Y-95821034D01*
X94009294Y-96079014D01*
X94194866Y-96305134D01*
X94420986Y-96490706D01*
X94490001Y-96527595D01*
X94490000Y-97579868D01*
X94368388Y-97701480D01*
X94244176Y-97887376D01*
X94158617Y-98093933D01*
X94115000Y-98313212D01*
X94115000Y-98536788D01*
X94158617Y-98756067D01*
X94244176Y-98962624D01*
X94368388Y-99148520D01*
X94526480Y-99306612D01*
X94712376Y-99430824D01*
X94918933Y-99516383D01*
X95138212Y-99560000D01*
X95361788Y-99560000D01*
X95581067Y-99516383D01*
X95787624Y-99430824D01*
X95973520Y-99306612D01*
X96076966Y-99203166D01*
X97191439Y-99203166D01*
X97226550Y-99416588D01*
X97430826Y-99507458D01*
X97648905Y-99556731D01*
X97872406Y-99562511D01*
X98092740Y-99524577D01*
X98301440Y-99444387D01*
X98353450Y-99416588D01*
X98388561Y-99203166D01*
X99731439Y-99203166D01*
X99766550Y-99416588D01*
X99970826Y-99507458D01*
X100188905Y-99556731D01*
X100412406Y-99562511D01*
X100632740Y-99524577D01*
X100841440Y-99444387D01*
X100893450Y-99416588D01*
X100928561Y-99203166D01*
X100330000Y-98604605D01*
X99731439Y-99203166D01*
X98388561Y-99203166D01*
X97790000Y-98604605D01*
X97191439Y-99203166D01*
X96076966Y-99203166D01*
X96131612Y-99148520D01*
X96255824Y-98962624D01*
X96341383Y-98756067D01*
X96385000Y-98536788D01*
X96385000Y-98507406D01*
X96652489Y-98507406D01*
X96690423Y-98727740D01*
X96770613Y-98936440D01*
X96798412Y-98988450D01*
X97011834Y-99023561D01*
X97610395Y-98425000D01*
X97969605Y-98425000D01*
X98568166Y-99023561D01*
X98781588Y-98988450D01*
X98872458Y-98784174D01*
X98921731Y-98566095D01*
X98923248Y-98507406D01*
X99192489Y-98507406D01*
X99230423Y-98727740D01*
X99310613Y-98936440D01*
X99338412Y-98988450D01*
X99551834Y-99023561D01*
X100150395Y-98425000D01*
X100509605Y-98425000D01*
X101108166Y-99023561D01*
X101321588Y-98988450D01*
X101412458Y-98784174D01*
X101461731Y-98566095D01*
X101467511Y-98342594D01*
X101429577Y-98122260D01*
X101349387Y-97913560D01*
X101321588Y-97861550D01*
X101108166Y-97826439D01*
X100509605Y-98425000D01*
X100150395Y-98425000D01*
X99551834Y-97826439D01*
X99338412Y-97861550D01*
X99247542Y-98065826D01*
X99198269Y-98283905D01*
X99192489Y-98507406D01*
X98923248Y-98507406D01*
X98927511Y-98342594D01*
X98889577Y-98122260D01*
X98809387Y-97913560D01*
X98781588Y-97861550D01*
X98568166Y-97826439D01*
X97969605Y-98425000D01*
X97610395Y-98425000D01*
X97011834Y-97826439D01*
X96798412Y-97861550D01*
X96707542Y-98065826D01*
X96658269Y-98283905D01*
X96652489Y-98507406D01*
X96385000Y-98507406D01*
X96385000Y-98313212D01*
X96341383Y-98093933D01*
X96255824Y-97887376D01*
X96131612Y-97701480D01*
X96076966Y-97646834D01*
X97191439Y-97646834D01*
X97790000Y-98245395D01*
X98388561Y-97646834D01*
X99731439Y-97646834D01*
X100330000Y-98245395D01*
X100928561Y-97646834D01*
X100893450Y-97433412D01*
X100689174Y-97342542D01*
X100471095Y-97293269D01*
X100247594Y-97287489D01*
X100027260Y-97325423D01*
X99818560Y-97405613D01*
X99766550Y-97433412D01*
X99731439Y-97646834D01*
X98388561Y-97646834D01*
X98353450Y-97433412D01*
X98149174Y-97342542D01*
X97931095Y-97293269D01*
X97707594Y-97287489D01*
X97487260Y-97325423D01*
X97278560Y-97405613D01*
X97226550Y-97433412D01*
X97191439Y-97646834D01*
X96076966Y-97646834D01*
X96010000Y-97579868D01*
X96010000Y-96527595D01*
X96079014Y-96490706D01*
X96305134Y-96305134D01*
X96490706Y-96079014D01*
X96525201Y-96014477D01*
X96594822Y-96131355D01*
X96789731Y-96347588D01*
X97023080Y-96521641D01*
X97285901Y-96646825D01*
X97433110Y-96691476D01*
X97663000Y-96570155D01*
X97663000Y-95377000D01*
X97917000Y-95377000D01*
X97917000Y-96570155D01*
X98146890Y-96691476D01*
X98294099Y-96646825D01*
X98556920Y-96521641D01*
X98790269Y-96347588D01*
X98985178Y-96131355D01*
X99060000Y-96005745D01*
X99134822Y-96131355D01*
X99329731Y-96347588D01*
X99563080Y-96521641D01*
X99825901Y-96646825D01*
X99973110Y-96691476D01*
X100203000Y-96570155D01*
X100203000Y-95377000D01*
X97917000Y-95377000D01*
X97663000Y-95377000D01*
X97643000Y-95377000D01*
X97643000Y-95123000D01*
X97663000Y-95123000D01*
X97663000Y-93929845D01*
X97917000Y-93929845D01*
X97917000Y-95123000D01*
X100203000Y-95123000D01*
X100203000Y-93929845D01*
X100457000Y-93929845D01*
X100457000Y-95123000D01*
X100477000Y-95123000D01*
X100477000Y-95377000D01*
X100457000Y-95377000D01*
X100457000Y-96570155D01*
X100686890Y-96691476D01*
X100834099Y-96646825D01*
X101096920Y-96521641D01*
X101330269Y-96347588D01*
X101406034Y-96263534D01*
X101430498Y-96344180D01*
X101489463Y-96454494D01*
X101568815Y-96551185D01*
X101665506Y-96630537D01*
X101735001Y-96667683D01*
X101735001Y-98313207D01*
X101735000Y-98313212D01*
X101735000Y-98536788D01*
X101735001Y-98536793D01*
X101735000Y-112974249D01*
X101729509Y-113030000D01*
X101735000Y-113085751D01*
X101751423Y-113252498D01*
X101816324Y-113466446D01*
X101921716Y-113663623D01*
X102063551Y-113836449D01*
X102106865Y-113871996D01*
X107108009Y-118873141D01*
X107143551Y-118916449D01*
X107316377Y-119058284D01*
X107513553Y-119163676D01*
X107727501Y-119228577D01*
X107950000Y-119250491D01*
X108005751Y-119245000D01*
X116784249Y-119245000D01*
X116840000Y-119250491D01*
X116895752Y-119245000D01*
X119324249Y-119245000D01*
X119380000Y-119250491D01*
X119435752Y-119245000D01*
X121864249Y-119245000D01*
X121920000Y-119250491D01*
X121975752Y-119245000D01*
X124404249Y-119245000D01*
X124460000Y-119250491D01*
X124515752Y-119245000D01*
X124571788Y-119245000D01*
X124626747Y-119234068D01*
X124682499Y-119228577D01*
X124736106Y-119212315D01*
X124791067Y-119201383D01*
X124842842Y-119179937D01*
X124896447Y-119163676D01*
X124945851Y-119137269D01*
X124997624Y-119115824D01*
X125044214Y-119084693D01*
X125093623Y-119058284D01*
X125136932Y-119022741D01*
X125183520Y-118991612D01*
X125223141Y-118951991D01*
X125266449Y-118916449D01*
X125301991Y-118873141D01*
X125341612Y-118833520D01*
X125372741Y-118786932D01*
X125408284Y-118743623D01*
X125434693Y-118694214D01*
X125465824Y-118647624D01*
X125487269Y-118595851D01*
X125513676Y-118546447D01*
X125529937Y-118492842D01*
X125551383Y-118441067D01*
X125562315Y-118386106D01*
X125578577Y-118332499D01*
X125584068Y-118276747D01*
X125595000Y-118221788D01*
X125595000Y-118165752D01*
X125600491Y-118110000D01*
X125595000Y-118054248D01*
X125595000Y-116527817D01*
X125700706Y-116399014D01*
X125730000Y-116344209D01*
X125759294Y-116399014D01*
X125944866Y-116625134D01*
X126170986Y-116810706D01*
X126240001Y-116847595D01*
X126240001Y-117264867D01*
X126118388Y-117386480D01*
X125994176Y-117572376D01*
X125908617Y-117778933D01*
X125865000Y-117998212D01*
X125865000Y-118221788D01*
X125908617Y-118441067D01*
X125994176Y-118647624D01*
X126118388Y-118833520D01*
X126276480Y-118991612D01*
X126462376Y-119115824D01*
X126668933Y-119201383D01*
X126888212Y-119245000D01*
X127111788Y-119245000D01*
X127331067Y-119201383D01*
X127537624Y-119115824D01*
X127723520Y-118991612D01*
X127881612Y-118833520D01*
X128005824Y-118647624D01*
X128091383Y-118441067D01*
X128135000Y-118221788D01*
X128135000Y-117998212D01*
X128091383Y-117778933D01*
X128005824Y-117572376D01*
X127881612Y-117386480D01*
X127760000Y-117264868D01*
X127760000Y-116847595D01*
X127829014Y-116810706D01*
X128055134Y-116625134D01*
X128240706Y-116399014D01*
X128270000Y-116344209D01*
X128299294Y-116399014D01*
X128484866Y-116625134D01*
X128710986Y-116810706D01*
X128780001Y-116847595D01*
X128780001Y-117264867D01*
X128658388Y-117386480D01*
X128534176Y-117572376D01*
X128448617Y-117778933D01*
X128405000Y-117998212D01*
X128405000Y-118221788D01*
X128448617Y-118441067D01*
X128534176Y-118647624D01*
X128658388Y-118833520D01*
X128816480Y-118991612D01*
X129002376Y-119115824D01*
X129208933Y-119201383D01*
X129428212Y-119245000D01*
X129651788Y-119245000D01*
X129871067Y-119201383D01*
X130077624Y-119115824D01*
X130263520Y-118991612D01*
X130366966Y-118888166D01*
X131481439Y-118888166D01*
X131516550Y-119101588D01*
X131720826Y-119192458D01*
X131938905Y-119241731D01*
X132162406Y-119247511D01*
X132382740Y-119209577D01*
X132591440Y-119129387D01*
X132643450Y-119101588D01*
X132678561Y-118888166D01*
X134021439Y-118888166D01*
X134056550Y-119101588D01*
X134260826Y-119192458D01*
X134478905Y-119241731D01*
X134702406Y-119247511D01*
X134922740Y-119209577D01*
X135131440Y-119129387D01*
X135183450Y-119101588D01*
X135218561Y-118888166D01*
X136561439Y-118888166D01*
X136596550Y-119101588D01*
X136800826Y-119192458D01*
X137018905Y-119241731D01*
X137242406Y-119247511D01*
X137462740Y-119209577D01*
X137671440Y-119129387D01*
X137723450Y-119101588D01*
X137758561Y-118888166D01*
X139101439Y-118888166D01*
X139136550Y-119101588D01*
X139340826Y-119192458D01*
X139558905Y-119241731D01*
X139782406Y-119247511D01*
X140002740Y-119209577D01*
X140211440Y-119129387D01*
X140263450Y-119101588D01*
X140298561Y-118888166D01*
X141641439Y-118888166D01*
X141676550Y-119101588D01*
X141880826Y-119192458D01*
X142098905Y-119241731D01*
X142322406Y-119247511D01*
X142542740Y-119209577D01*
X142751440Y-119129387D01*
X142803450Y-119101588D01*
X142838561Y-118888166D01*
X144181439Y-118888166D01*
X144216550Y-119101588D01*
X144420826Y-119192458D01*
X144638905Y-119241731D01*
X144862406Y-119247511D01*
X145082740Y-119209577D01*
X145291440Y-119129387D01*
X145343450Y-119101588D01*
X145378561Y-118888166D01*
X146721439Y-118888166D01*
X146756550Y-119101588D01*
X146960826Y-119192458D01*
X147178905Y-119241731D01*
X147402406Y-119247511D01*
X147622740Y-119209577D01*
X147831440Y-119129387D01*
X147883450Y-119101588D01*
X147918561Y-118888166D01*
X147320000Y-118289605D01*
X146721439Y-118888166D01*
X145378561Y-118888166D01*
X144780000Y-118289605D01*
X144181439Y-118888166D01*
X142838561Y-118888166D01*
X142240000Y-118289605D01*
X141641439Y-118888166D01*
X140298561Y-118888166D01*
X139700000Y-118289605D01*
X139101439Y-118888166D01*
X137758561Y-118888166D01*
X137160000Y-118289605D01*
X136561439Y-118888166D01*
X135218561Y-118888166D01*
X134620000Y-118289605D01*
X134021439Y-118888166D01*
X132678561Y-118888166D01*
X132080000Y-118289605D01*
X131481439Y-118888166D01*
X130366966Y-118888166D01*
X130421612Y-118833520D01*
X130545824Y-118647624D01*
X130631383Y-118441067D01*
X130675000Y-118221788D01*
X130675000Y-118192406D01*
X130942489Y-118192406D01*
X130980423Y-118412740D01*
X131060613Y-118621440D01*
X131088412Y-118673450D01*
X131301834Y-118708561D01*
X131900395Y-118110000D01*
X132259605Y-118110000D01*
X132858166Y-118708561D01*
X133071588Y-118673450D01*
X133162458Y-118469174D01*
X133211731Y-118251095D01*
X133213248Y-118192406D01*
X133482489Y-118192406D01*
X133520423Y-118412740D01*
X133600613Y-118621440D01*
X133628412Y-118673450D01*
X133841834Y-118708561D01*
X134440395Y-118110000D01*
X134799605Y-118110000D01*
X135398166Y-118708561D01*
X135611588Y-118673450D01*
X135702458Y-118469174D01*
X135751731Y-118251095D01*
X135753248Y-118192406D01*
X136022489Y-118192406D01*
X136060423Y-118412740D01*
X136140613Y-118621440D01*
X136168412Y-118673450D01*
X136381834Y-118708561D01*
X136980395Y-118110000D01*
X137339605Y-118110000D01*
X137938166Y-118708561D01*
X138151588Y-118673450D01*
X138242458Y-118469174D01*
X138291731Y-118251095D01*
X138293248Y-118192406D01*
X138562489Y-118192406D01*
X138600423Y-118412740D01*
X138680613Y-118621440D01*
X138708412Y-118673450D01*
X138921834Y-118708561D01*
X139520395Y-118110000D01*
X139879605Y-118110000D01*
X140478166Y-118708561D01*
X140691588Y-118673450D01*
X140782458Y-118469174D01*
X140831731Y-118251095D01*
X140833248Y-118192406D01*
X141102489Y-118192406D01*
X141140423Y-118412740D01*
X141220613Y-118621440D01*
X141248412Y-118673450D01*
X141461834Y-118708561D01*
X142060395Y-118110000D01*
X142419605Y-118110000D01*
X143018166Y-118708561D01*
X143231588Y-118673450D01*
X143322458Y-118469174D01*
X143371731Y-118251095D01*
X143373248Y-118192406D01*
X143642489Y-118192406D01*
X143680423Y-118412740D01*
X143760613Y-118621440D01*
X143788412Y-118673450D01*
X144001834Y-118708561D01*
X144600395Y-118110000D01*
X144959605Y-118110000D01*
X145558166Y-118708561D01*
X145771588Y-118673450D01*
X145862458Y-118469174D01*
X145911731Y-118251095D01*
X145913248Y-118192406D01*
X146182489Y-118192406D01*
X146220423Y-118412740D01*
X146300613Y-118621440D01*
X146328412Y-118673450D01*
X146541834Y-118708561D01*
X147140395Y-118110000D01*
X147499605Y-118110000D01*
X148098166Y-118708561D01*
X148311588Y-118673450D01*
X148402458Y-118469174D01*
X148451731Y-118251095D01*
X148457511Y-118027594D01*
X148419577Y-117807260D01*
X148339387Y-117598560D01*
X148311588Y-117546550D01*
X148098166Y-117511439D01*
X147499605Y-118110000D01*
X147140395Y-118110000D01*
X146541834Y-117511439D01*
X146328412Y-117546550D01*
X146237542Y-117750826D01*
X146188269Y-117968905D01*
X146182489Y-118192406D01*
X145913248Y-118192406D01*
X145917511Y-118027594D01*
X145879577Y-117807260D01*
X145799387Y-117598560D01*
X145771588Y-117546550D01*
X145558166Y-117511439D01*
X144959605Y-118110000D01*
X144600395Y-118110000D01*
X144001834Y-117511439D01*
X143788412Y-117546550D01*
X143697542Y-117750826D01*
X143648269Y-117968905D01*
X143642489Y-118192406D01*
X143373248Y-118192406D01*
X143377511Y-118027594D01*
X143339577Y-117807260D01*
X143259387Y-117598560D01*
X143231588Y-117546550D01*
X143018166Y-117511439D01*
X142419605Y-118110000D01*
X142060395Y-118110000D01*
X141461834Y-117511439D01*
X141248412Y-117546550D01*
X141157542Y-117750826D01*
X141108269Y-117968905D01*
X141102489Y-118192406D01*
X140833248Y-118192406D01*
X140837511Y-118027594D01*
X140799577Y-117807260D01*
X140719387Y-117598560D01*
X140691588Y-117546550D01*
X140478166Y-117511439D01*
X139879605Y-118110000D01*
X139520395Y-118110000D01*
X138921834Y-117511439D01*
X138708412Y-117546550D01*
X138617542Y-117750826D01*
X138568269Y-117968905D01*
X138562489Y-118192406D01*
X138293248Y-118192406D01*
X138297511Y-118027594D01*
X138259577Y-117807260D01*
X138179387Y-117598560D01*
X138151588Y-117546550D01*
X137938166Y-117511439D01*
X137339605Y-118110000D01*
X136980395Y-118110000D01*
X136381834Y-117511439D01*
X136168412Y-117546550D01*
X136077542Y-117750826D01*
X136028269Y-117968905D01*
X136022489Y-118192406D01*
X135753248Y-118192406D01*
X135757511Y-118027594D01*
X135719577Y-117807260D01*
X135639387Y-117598560D01*
X135611588Y-117546550D01*
X135398166Y-117511439D01*
X134799605Y-118110000D01*
X134440395Y-118110000D01*
X133841834Y-117511439D01*
X133628412Y-117546550D01*
X133537542Y-117750826D01*
X133488269Y-117968905D01*
X133482489Y-118192406D01*
X133213248Y-118192406D01*
X133217511Y-118027594D01*
X133179577Y-117807260D01*
X133099387Y-117598560D01*
X133071588Y-117546550D01*
X132858166Y-117511439D01*
X132259605Y-118110000D01*
X131900395Y-118110000D01*
X131301834Y-117511439D01*
X131088412Y-117546550D01*
X130997542Y-117750826D01*
X130948269Y-117968905D01*
X130942489Y-118192406D01*
X130675000Y-118192406D01*
X130675000Y-117998212D01*
X130631383Y-117778933D01*
X130545824Y-117572376D01*
X130421612Y-117386480D01*
X130300000Y-117264868D01*
X130300000Y-116847595D01*
X130369014Y-116810706D01*
X130595134Y-116625134D01*
X130780706Y-116399014D01*
X130815201Y-116334477D01*
X130884822Y-116451355D01*
X131079731Y-116667588D01*
X131313080Y-116841641D01*
X131575901Y-116966825D01*
X131723110Y-117011476D01*
X131952998Y-116890156D01*
X131952998Y-116980167D01*
X131777260Y-117010423D01*
X131568560Y-117090613D01*
X131516550Y-117118412D01*
X131481439Y-117331834D01*
X132080000Y-117930395D01*
X132678561Y-117331834D01*
X132643450Y-117118412D01*
X132439174Y-117027542D01*
X132221095Y-116978269D01*
X132207002Y-116977905D01*
X132207002Y-116890156D01*
X132436890Y-117011476D01*
X132584099Y-116966825D01*
X132846920Y-116841641D01*
X133080269Y-116667588D01*
X133275178Y-116451355D01*
X133350000Y-116325745D01*
X133424822Y-116451355D01*
X133619731Y-116667588D01*
X133853080Y-116841641D01*
X134115901Y-116966825D01*
X134263110Y-117011476D01*
X134492998Y-116890156D01*
X134492998Y-116980167D01*
X134317260Y-117010423D01*
X134108560Y-117090613D01*
X134056550Y-117118412D01*
X134021439Y-117331834D01*
X134620000Y-117930395D01*
X135218561Y-117331834D01*
X135183450Y-117118412D01*
X134979174Y-117027542D01*
X134761095Y-116978269D01*
X134747002Y-116977905D01*
X134747002Y-116890156D01*
X134976890Y-117011476D01*
X135124099Y-116966825D01*
X135386920Y-116841641D01*
X135620269Y-116667588D01*
X135815178Y-116451355D01*
X135890000Y-116325745D01*
X135964822Y-116451355D01*
X136159731Y-116667588D01*
X136393080Y-116841641D01*
X136655901Y-116966825D01*
X136803110Y-117011476D01*
X137032998Y-116890156D01*
X137032998Y-116980167D01*
X136857260Y-117010423D01*
X136648560Y-117090613D01*
X136596550Y-117118412D01*
X136561439Y-117331834D01*
X137160000Y-117930395D01*
X137758561Y-117331834D01*
X137723450Y-117118412D01*
X137519174Y-117027542D01*
X137301095Y-116978269D01*
X137287002Y-116977905D01*
X137287002Y-116890156D01*
X137516890Y-117011476D01*
X137664099Y-116966825D01*
X137926920Y-116841641D01*
X138160269Y-116667588D01*
X138355178Y-116451355D01*
X138430000Y-116325745D01*
X138504822Y-116451355D01*
X138699731Y-116667588D01*
X138933080Y-116841641D01*
X139195901Y-116966825D01*
X139343110Y-117011476D01*
X139572998Y-116890156D01*
X139572998Y-116980167D01*
X139397260Y-117010423D01*
X139188560Y-117090613D01*
X139136550Y-117118412D01*
X139101439Y-117331834D01*
X139700000Y-117930395D01*
X140298561Y-117331834D01*
X140263450Y-117118412D01*
X140059174Y-117027542D01*
X139841095Y-116978269D01*
X139827002Y-116977905D01*
X139827002Y-116890156D01*
X140056890Y-117011476D01*
X140204099Y-116966825D01*
X140466920Y-116841641D01*
X140700269Y-116667588D01*
X140895178Y-116451355D01*
X140970000Y-116325745D01*
X141044822Y-116451355D01*
X141239731Y-116667588D01*
X141473080Y-116841641D01*
X141735901Y-116966825D01*
X141883110Y-117011476D01*
X142112998Y-116890156D01*
X142112998Y-116980167D01*
X141937260Y-117010423D01*
X141728560Y-117090613D01*
X141676550Y-117118412D01*
X141641439Y-117331834D01*
X142240000Y-117930395D01*
X142838561Y-117331834D01*
X142803450Y-117118412D01*
X142599174Y-117027542D01*
X142381095Y-116978269D01*
X142367002Y-116977905D01*
X142367002Y-116890156D01*
X142596890Y-117011476D01*
X142744099Y-116966825D01*
X143006920Y-116841641D01*
X143240269Y-116667588D01*
X143435178Y-116451355D01*
X143510000Y-116325745D01*
X143584822Y-116451355D01*
X143779731Y-116667588D01*
X144013080Y-116841641D01*
X144275901Y-116966825D01*
X144423110Y-117011476D01*
X144652998Y-116890156D01*
X144652998Y-116980167D01*
X144477260Y-117010423D01*
X144268560Y-117090613D01*
X144216550Y-117118412D01*
X144181439Y-117331834D01*
X144780000Y-117930395D01*
X145378561Y-117331834D01*
X145343450Y-117118412D01*
X145139174Y-117027542D01*
X144921095Y-116978269D01*
X144907002Y-116977905D01*
X144907002Y-116890156D01*
X145136890Y-117011476D01*
X145284099Y-116966825D01*
X145546920Y-116841641D01*
X145780269Y-116667588D01*
X145975178Y-116451355D01*
X146050000Y-116325745D01*
X146124822Y-116451355D01*
X146319731Y-116667588D01*
X146553080Y-116841641D01*
X146815901Y-116966825D01*
X146963110Y-117011476D01*
X147192998Y-116890156D01*
X147192998Y-116980167D01*
X147017260Y-117010423D01*
X146808560Y-117090613D01*
X146756550Y-117118412D01*
X146721439Y-117331834D01*
X147320000Y-117930395D01*
X147918561Y-117331834D01*
X147883450Y-117118412D01*
X147679174Y-117027542D01*
X147461095Y-116978269D01*
X147447002Y-116977905D01*
X147447002Y-116890156D01*
X147676890Y-117011476D01*
X147824099Y-116966825D01*
X148086920Y-116841641D01*
X148320269Y-116667588D01*
X148515178Y-116451355D01*
X148664157Y-116201252D01*
X148761481Y-115926891D01*
X148640814Y-115697000D01*
X147447000Y-115697000D01*
X147447000Y-115717000D01*
X147193000Y-115717000D01*
X147193000Y-115697000D01*
X144907000Y-115697000D01*
X144907000Y-115717000D01*
X144653000Y-115717000D01*
X144653000Y-115697000D01*
X142367000Y-115697000D01*
X142367000Y-115717000D01*
X142113000Y-115717000D01*
X142113000Y-115697000D01*
X139827000Y-115697000D01*
X139827000Y-115717000D01*
X139573000Y-115717000D01*
X139573000Y-115697000D01*
X137287000Y-115697000D01*
X137287000Y-115717000D01*
X137033000Y-115717000D01*
X137033000Y-115697000D01*
X134747000Y-115697000D01*
X134747000Y-115717000D01*
X134493000Y-115717000D01*
X134493000Y-115697000D01*
X132207000Y-115697000D01*
X132207000Y-115717000D01*
X131953000Y-115717000D01*
X131953000Y-115697000D01*
X131933000Y-115697000D01*
X131933000Y-115443000D01*
X131953000Y-115443000D01*
X131953000Y-115423000D01*
X132207000Y-115423000D01*
X132207000Y-115443000D01*
X134493000Y-115443000D01*
X134493000Y-115423000D01*
X134747000Y-115423000D01*
X134747000Y-115443000D01*
X137033000Y-115443000D01*
X137033000Y-115423000D01*
X137287000Y-115423000D01*
X137287000Y-115443000D01*
X139573000Y-115443000D01*
X139573000Y-115423000D01*
X139827000Y-115423000D01*
X139827000Y-115443000D01*
X142113000Y-115443000D01*
X142113000Y-115423000D01*
X142367000Y-115423000D01*
X142367000Y-115443000D01*
X144653000Y-115443000D01*
X144653000Y-115423000D01*
X144907000Y-115423000D01*
X144907000Y-115443000D01*
X147193000Y-115443000D01*
X147193000Y-115423000D01*
X147447000Y-115423000D01*
X147447000Y-115443000D01*
X148640814Y-115443000D01*
X148761481Y-115213109D01*
X148664157Y-114938748D01*
X148515178Y-114688645D01*
X148320269Y-114472412D01*
X148091244Y-114301584D01*
X148149014Y-114270706D01*
X148375134Y-114085134D01*
X148560706Y-113859014D01*
X148698599Y-113601034D01*
X148783513Y-113321111D01*
X148812185Y-113030000D01*
X148783513Y-112738889D01*
X148698599Y-112458966D01*
X148560706Y-112200986D01*
X148375134Y-111974866D01*
X148149014Y-111789294D01*
X148080000Y-111752405D01*
X148080000Y-111335132D01*
X148201612Y-111213520D01*
X148325824Y-111027624D01*
X148411383Y-110821067D01*
X148455000Y-110601788D01*
X148455000Y-110378212D01*
X148411383Y-110158933D01*
X148325824Y-109952376D01*
X148201612Y-109766480D01*
X148043520Y-109608388D01*
X147857624Y-109484176D01*
X147651067Y-109398617D01*
X147431788Y-109355000D01*
X147208212Y-109355000D01*
X146988933Y-109398617D01*
X146782376Y-109484176D01*
X146596480Y-109608388D01*
X146438388Y-109766480D01*
X146314176Y-109952376D01*
X146228617Y-110158933D01*
X146185000Y-110378212D01*
X146185000Y-110601788D01*
X146228617Y-110821067D01*
X146314176Y-111027624D01*
X146438388Y-111213520D01*
X146560001Y-111335133D01*
X146560001Y-111752405D01*
X146490986Y-111789294D01*
X146264866Y-111974866D01*
X146079294Y-112200986D01*
X146050000Y-112255791D01*
X146020706Y-112200986D01*
X145835134Y-111974866D01*
X145609014Y-111789294D01*
X145540000Y-111752405D01*
X145540000Y-111335132D01*
X145661612Y-111213520D01*
X145785824Y-111027624D01*
X145871383Y-110821067D01*
X145915000Y-110601788D01*
X145915000Y-110378212D01*
X145871383Y-110158933D01*
X145785824Y-109952376D01*
X145661612Y-109766480D01*
X145503520Y-109608388D01*
X145317624Y-109484176D01*
X145111067Y-109398617D01*
X144891788Y-109355000D01*
X144668212Y-109355000D01*
X144448933Y-109398617D01*
X144242376Y-109484176D01*
X144056480Y-109608388D01*
X143898388Y-109766480D01*
X143774176Y-109952376D01*
X143688617Y-110158933D01*
X143645000Y-110378212D01*
X143645000Y-110601788D01*
X143688617Y-110821067D01*
X143774176Y-111027624D01*
X143898388Y-111213520D01*
X144020001Y-111335133D01*
X144020001Y-111752405D01*
X143950986Y-111789294D01*
X143724866Y-111974866D01*
X143539294Y-112200986D01*
X143510000Y-112255791D01*
X143480706Y-112200986D01*
X143295134Y-111974866D01*
X143069014Y-111789294D01*
X143000000Y-111752405D01*
X143000000Y-111335132D01*
X143121612Y-111213520D01*
X143245824Y-111027624D01*
X143331383Y-110821067D01*
X143375000Y-110601788D01*
X143375000Y-110378212D01*
X143331383Y-110158933D01*
X143245824Y-109952376D01*
X143121612Y-109766480D01*
X142963520Y-109608388D01*
X142777624Y-109484176D01*
X142571067Y-109398617D01*
X142351788Y-109355000D01*
X142128212Y-109355000D01*
X141908933Y-109398617D01*
X141702376Y-109484176D01*
X141516480Y-109608388D01*
X141358388Y-109766480D01*
X141234176Y-109952376D01*
X141148617Y-110158933D01*
X141105000Y-110378212D01*
X141105000Y-110601788D01*
X141148617Y-110821067D01*
X141234176Y-111027624D01*
X141358388Y-111213520D01*
X141480001Y-111335133D01*
X141480001Y-111752405D01*
X141410986Y-111789294D01*
X141184866Y-111974866D01*
X140999294Y-112200986D01*
X140970000Y-112255791D01*
X140940706Y-112200986D01*
X140755134Y-111974866D01*
X140529014Y-111789294D01*
X140460000Y-111752405D01*
X140460000Y-111335132D01*
X140581612Y-111213520D01*
X140705824Y-111027624D01*
X140791383Y-110821067D01*
X140835000Y-110601788D01*
X140835000Y-110378212D01*
X140791383Y-110158933D01*
X140705824Y-109952376D01*
X140581612Y-109766480D01*
X140423520Y-109608388D01*
X140237624Y-109484176D01*
X140031067Y-109398617D01*
X139811788Y-109355000D01*
X139588212Y-109355000D01*
X139368933Y-109398617D01*
X139162376Y-109484176D01*
X138976480Y-109608388D01*
X138818388Y-109766480D01*
X138694176Y-109952376D01*
X138608617Y-110158933D01*
X138565000Y-110378212D01*
X138565000Y-110601788D01*
X138608617Y-110821067D01*
X138694176Y-111027624D01*
X138818388Y-111213520D01*
X138940001Y-111335133D01*
X138940001Y-111752405D01*
X138870986Y-111789294D01*
X138644866Y-111974866D01*
X138459294Y-112200986D01*
X138430000Y-112255791D01*
X138400706Y-112200986D01*
X138215134Y-111974866D01*
X137989014Y-111789294D01*
X137920000Y-111752405D01*
X137920000Y-111335132D01*
X138041612Y-111213520D01*
X138165824Y-111027624D01*
X138251383Y-110821067D01*
X138295000Y-110601788D01*
X138295000Y-110378212D01*
X138251383Y-110158933D01*
X138165824Y-109952376D01*
X138041612Y-109766480D01*
X137883520Y-109608388D01*
X137697624Y-109484176D01*
X137491067Y-109398617D01*
X137271788Y-109355000D01*
X137048212Y-109355000D01*
X136828933Y-109398617D01*
X136622376Y-109484176D01*
X136436480Y-109608388D01*
X136278388Y-109766480D01*
X136154176Y-109952376D01*
X136068617Y-110158933D01*
X136025000Y-110378212D01*
X136025000Y-110601788D01*
X136068617Y-110821067D01*
X136154176Y-111027624D01*
X136278388Y-111213520D01*
X136400001Y-111335133D01*
X136400001Y-111752405D01*
X136330986Y-111789294D01*
X136104866Y-111974866D01*
X135919294Y-112200986D01*
X135890000Y-112255791D01*
X135860706Y-112200986D01*
X135675134Y-111974866D01*
X135449014Y-111789294D01*
X135380000Y-111752405D01*
X135380000Y-111335132D01*
X135501612Y-111213520D01*
X135625824Y-111027624D01*
X135711383Y-110821067D01*
X135755000Y-110601788D01*
X135755000Y-110378212D01*
X135711383Y-110158933D01*
X135625824Y-109952376D01*
X135501612Y-109766480D01*
X135343520Y-109608388D01*
X135157624Y-109484176D01*
X134951067Y-109398617D01*
X134731788Y-109355000D01*
X134508212Y-109355000D01*
X134288933Y-109398617D01*
X134082376Y-109484176D01*
X133896480Y-109608388D01*
X133738388Y-109766480D01*
X133614176Y-109952376D01*
X133528617Y-110158933D01*
X133485000Y-110378212D01*
X133485000Y-110601788D01*
X133528617Y-110821067D01*
X133614176Y-111027624D01*
X133738388Y-111213520D01*
X133860001Y-111335133D01*
X133860001Y-111752405D01*
X133790986Y-111789294D01*
X133564866Y-111974866D01*
X133379294Y-112200986D01*
X133350000Y-112255791D01*
X133320706Y-112200986D01*
X133135134Y-111974866D01*
X132909014Y-111789294D01*
X132840000Y-111752405D01*
X132840000Y-111335132D01*
X132961612Y-111213520D01*
X133085824Y-111027624D01*
X133171383Y-110821067D01*
X133215000Y-110601788D01*
X133215000Y-110378212D01*
X133171383Y-110158933D01*
X133085824Y-109952376D01*
X132961612Y-109766480D01*
X132803520Y-109608388D01*
X132617624Y-109484176D01*
X132411067Y-109398617D01*
X132191788Y-109355000D01*
X131968212Y-109355000D01*
X131822397Y-109384004D01*
X135087202Y-106119200D01*
X140170678Y-106119200D01*
X140208000Y-106122876D01*
X140245322Y-106119200D01*
X140245333Y-106119200D01*
X140356986Y-106108203D01*
X140500247Y-106064746D01*
X140632276Y-105994174D01*
X140748001Y-105899201D01*
X140771804Y-105870197D01*
X144173404Y-102468598D01*
X144202401Y-102444801D01*
X144297374Y-102329076D01*
X144367946Y-102197047D01*
X144411403Y-102053786D01*
X144422400Y-101942133D01*
X144422400Y-101942124D01*
X144426076Y-101904801D01*
X144422400Y-101867478D01*
X144422400Y-98870393D01*
X144448933Y-98881383D01*
X144668212Y-98925000D01*
X144891788Y-98925000D01*
X145111067Y-98881383D01*
X145317624Y-98795824D01*
X145503520Y-98671612D01*
X145661612Y-98513520D01*
X145785824Y-98327624D01*
X145871383Y-98121067D01*
X145915000Y-97901788D01*
X145915000Y-97678212D01*
X145871383Y-97458933D01*
X145785824Y-97252376D01*
X145661612Y-97066480D01*
X145540000Y-96944868D01*
X145540000Y-96527595D01*
X145609014Y-96490706D01*
X145835134Y-96305134D01*
X146020706Y-96079014D01*
X146050000Y-96024209D01*
X146079294Y-96079014D01*
X146264866Y-96305134D01*
X146490986Y-96490706D01*
X146560001Y-96527595D01*
X146560001Y-96944867D01*
X146438388Y-97066480D01*
X146314176Y-97252376D01*
X146228617Y-97458933D01*
X146185000Y-97678212D01*
X146185000Y-97901788D01*
X146228617Y-98121067D01*
X146314176Y-98327624D01*
X146438388Y-98513520D01*
X146596480Y-98671612D01*
X146782376Y-98795824D01*
X146988933Y-98881383D01*
X147208212Y-98925000D01*
X147431788Y-98925000D01*
X147651067Y-98881383D01*
X147857624Y-98795824D01*
X148043520Y-98671612D01*
X148201612Y-98513520D01*
X148325824Y-98327624D01*
X148411383Y-98121067D01*
X148455000Y-97901788D01*
X148455000Y-97678212D01*
X148411383Y-97458933D01*
X148325824Y-97252376D01*
X148201612Y-97066480D01*
X148080000Y-96944868D01*
X148080000Y-96527595D01*
X148149014Y-96490706D01*
X148375134Y-96305134D01*
X148560706Y-96079014D01*
X148590000Y-96024209D01*
X148619294Y-96079014D01*
X148804866Y-96305134D01*
X149030986Y-96490706D01*
X149100001Y-96527595D01*
X149100001Y-96944867D01*
X148978388Y-97066480D01*
X148854176Y-97252376D01*
X148768617Y-97458933D01*
X148725000Y-97678212D01*
X148725000Y-97901788D01*
X148768617Y-98121067D01*
X148854176Y-98327624D01*
X148978388Y-98513520D01*
X149136480Y-98671612D01*
X149322376Y-98795824D01*
X149528933Y-98881383D01*
X149748212Y-98925000D01*
X149971788Y-98925000D01*
X150191067Y-98881383D01*
X150397624Y-98795824D01*
X150583520Y-98671612D01*
X150741612Y-98513520D01*
X150865824Y-98327624D01*
X150951383Y-98121067D01*
X150995000Y-97901788D01*
X150995000Y-97678212D01*
X150951383Y-97458933D01*
X150865824Y-97252376D01*
X150741612Y-97066480D01*
X150620000Y-96944868D01*
X150620000Y-96527595D01*
X150689014Y-96490706D01*
X150915134Y-96305134D01*
X151100706Y-96079014D01*
X151130000Y-96024209D01*
X151159294Y-96079014D01*
X151344866Y-96305134D01*
X151570986Y-96490706D01*
X151640001Y-96527595D01*
X151640001Y-96944867D01*
X151518388Y-97066480D01*
X151394176Y-97252376D01*
X151308617Y-97458933D01*
X151265000Y-97678212D01*
X151265000Y-97901788D01*
X151308617Y-98121067D01*
X151394176Y-98327624D01*
X151518388Y-98513520D01*
X151676480Y-98671612D01*
X151862376Y-98795824D01*
X152068933Y-98881383D01*
X152288212Y-98925000D01*
X152511788Y-98925000D01*
X152731067Y-98881383D01*
X152937624Y-98795824D01*
X153123520Y-98671612D01*
X153281612Y-98513520D01*
X153405824Y-98327624D01*
X153491383Y-98121067D01*
X153535000Y-97901788D01*
X153535000Y-97678212D01*
X153491383Y-97458933D01*
X153405824Y-97252376D01*
X153281612Y-97066480D01*
X153160000Y-96944868D01*
X153160000Y-96527595D01*
X153229014Y-96490706D01*
X153455134Y-96305134D01*
X153640706Y-96079014D01*
X153778599Y-95821034D01*
X153863513Y-95541111D01*
X153892185Y-95250000D01*
X153863513Y-94958889D01*
X153778599Y-94678966D01*
X153640706Y-94420986D01*
X153455134Y-94194866D01*
X153425313Y-94170393D01*
X153494180Y-94149502D01*
X153604494Y-94090537D01*
X153701185Y-94011185D01*
X153780537Y-93914494D01*
X153839502Y-93804180D01*
X153875812Y-93684482D01*
X153888072Y-93560000D01*
X153885000Y-92995750D01*
X153726250Y-92837000D01*
X152527000Y-92837000D01*
X152527000Y-92857000D01*
X152273000Y-92857000D01*
X152273000Y-92837000D01*
X149987000Y-92837000D01*
X149987000Y-92857000D01*
X149733000Y-92857000D01*
X149733000Y-92837000D01*
X147447000Y-92837000D01*
X147447000Y-92857000D01*
X147193000Y-92857000D01*
X147193000Y-92837000D01*
X144907000Y-92837000D01*
X144907000Y-92857000D01*
X144653000Y-92857000D01*
X144653000Y-92837000D01*
X142367000Y-92837000D01*
X142367000Y-92857000D01*
X142113000Y-92857000D01*
X142113000Y-92837000D01*
X139827000Y-92837000D01*
X139827000Y-92857000D01*
X139573000Y-92857000D01*
X139573000Y-92837000D01*
X137287000Y-92837000D01*
X137287000Y-92857000D01*
X137033000Y-92857000D01*
X137033000Y-92837000D01*
X134747000Y-92837000D01*
X134747000Y-92857000D01*
X134493000Y-92857000D01*
X134493000Y-92837000D01*
X132207000Y-92837000D01*
X132207000Y-92857000D01*
X131953000Y-92857000D01*
X131953000Y-92837000D01*
X129667000Y-92837000D01*
X129667000Y-92857000D01*
X129413000Y-92857000D01*
X129413000Y-92837000D01*
X127127000Y-92837000D01*
X127127000Y-92857000D01*
X126873000Y-92857000D01*
X126873000Y-92837000D01*
X124587000Y-92837000D01*
X124587000Y-92857000D01*
X124333000Y-92857000D01*
X124333000Y-92837000D01*
X122047000Y-92837000D01*
X122047000Y-92857000D01*
X121793000Y-92857000D01*
X121793000Y-92837000D01*
X119507000Y-92837000D01*
X119507000Y-92857000D01*
X119253000Y-92857000D01*
X119253000Y-92837000D01*
X116967000Y-92837000D01*
X116967000Y-92857000D01*
X116713000Y-92857000D01*
X116713000Y-92837000D01*
X114427000Y-92837000D01*
X114427000Y-92857000D01*
X114173000Y-92857000D01*
X114173000Y-92837000D01*
X111887000Y-92837000D01*
X111887000Y-92857000D01*
X111633000Y-92857000D01*
X111633000Y-92837000D01*
X110439186Y-92837000D01*
X110318519Y-93066891D01*
X110415843Y-93341252D01*
X110564822Y-93591355D01*
X110759731Y-93807588D01*
X110988756Y-93978416D01*
X110930986Y-94009294D01*
X110704866Y-94194866D01*
X110519294Y-94420986D01*
X110381401Y-94678966D01*
X110296487Y-94958889D01*
X110267815Y-95250000D01*
X110296487Y-95541111D01*
X110381401Y-95821034D01*
X110519294Y-96079014D01*
X110704866Y-96305134D01*
X110930986Y-96490706D01*
X111000001Y-96527595D01*
X111000001Y-96944867D01*
X110878388Y-97066480D01*
X110754176Y-97252376D01*
X110668617Y-97458933D01*
X110625000Y-97678212D01*
X110625000Y-97901788D01*
X110668617Y-98121067D01*
X110754176Y-98327624D01*
X110878388Y-98513520D01*
X111036480Y-98671612D01*
X111222376Y-98795824D01*
X111428933Y-98881383D01*
X111648212Y-98925000D01*
X111871788Y-98925000D01*
X112091067Y-98881383D01*
X112297624Y-98795824D01*
X112371601Y-98746394D01*
X112371600Y-104102678D01*
X112367924Y-104140000D01*
X112371600Y-104177322D01*
X112371600Y-104177332D01*
X112382597Y-104288985D01*
X112426054Y-104432246D01*
X112496626Y-104564276D01*
X112522271Y-104595524D01*
X112591599Y-104680001D01*
X112620602Y-104703804D01*
X113634600Y-105717802D01*
X113658399Y-105746801D01*
X113687397Y-105770599D01*
X113774123Y-105841774D01*
X113827310Y-105870203D01*
X113906153Y-105912346D01*
X114049414Y-105955803D01*
X114161067Y-105966800D01*
X114161076Y-105966800D01*
X114198399Y-105970476D01*
X114235722Y-105966800D01*
X119471599Y-105966800D01*
X122430001Y-108925203D01*
X122430001Y-109472734D01*
X122251067Y-109398617D01*
X122031788Y-109355000D01*
X121808212Y-109355000D01*
X121588933Y-109398617D01*
X121382376Y-109484176D01*
X121196480Y-109608388D01*
X121038388Y-109766480D01*
X120914176Y-109952376D01*
X120828617Y-110158933D01*
X120785000Y-110378212D01*
X120785000Y-110601788D01*
X120828617Y-110821067D01*
X120914176Y-111027624D01*
X121038388Y-111213520D01*
X121160001Y-111335133D01*
X121160001Y-111752405D01*
X121090986Y-111789294D01*
X120864866Y-111974866D01*
X120679294Y-112200986D01*
X120650000Y-112255791D01*
X120620706Y-112200986D01*
X120435134Y-111974866D01*
X120209014Y-111789294D01*
X120140000Y-111752405D01*
X120140000Y-111335132D01*
X120261612Y-111213520D01*
X120385824Y-111027624D01*
X120471383Y-110821067D01*
X120515000Y-110601788D01*
X120515000Y-110378212D01*
X120471383Y-110158933D01*
X120385824Y-109952376D01*
X120261612Y-109766480D01*
X120103520Y-109608388D01*
X119917624Y-109484176D01*
X119711067Y-109398617D01*
X119491788Y-109355000D01*
X119268212Y-109355000D01*
X119048933Y-109398617D01*
X118842376Y-109484176D01*
X118656480Y-109608388D01*
X118498388Y-109766480D01*
X118374176Y-109952376D01*
X118288617Y-110158933D01*
X118245000Y-110378212D01*
X118245000Y-110601788D01*
X118288617Y-110821067D01*
X118374176Y-111027624D01*
X118498388Y-111213520D01*
X118620001Y-111335133D01*
X118620001Y-111752405D01*
X118550986Y-111789294D01*
X118324866Y-111974866D01*
X118139294Y-112200986D01*
X118110000Y-112255791D01*
X118080706Y-112200986D01*
X117895134Y-111974866D01*
X117669014Y-111789294D01*
X117600000Y-111752405D01*
X117600000Y-111335132D01*
X117721612Y-111213520D01*
X117845824Y-111027624D01*
X117931383Y-110821067D01*
X117975000Y-110601788D01*
X117975000Y-110378212D01*
X117931383Y-110158933D01*
X117845824Y-109952376D01*
X117721612Y-109766480D01*
X117563520Y-109608388D01*
X117377624Y-109484176D01*
X117171067Y-109398617D01*
X116951788Y-109355000D01*
X116728212Y-109355000D01*
X116508933Y-109398617D01*
X116302376Y-109484176D01*
X116116480Y-109608388D01*
X115958388Y-109766480D01*
X115834176Y-109952376D01*
X115748617Y-110158933D01*
X115705000Y-110378212D01*
X115705000Y-110601788D01*
X115748617Y-110821067D01*
X115834176Y-111027624D01*
X115958388Y-111213520D01*
X116080001Y-111335133D01*
X116080001Y-111752405D01*
X116010986Y-111789294D01*
X115784866Y-111974866D01*
X115599294Y-112200986D01*
X115461401Y-112458966D01*
X115376487Y-112738889D01*
X115347815Y-113030000D01*
X115376487Y-113321111D01*
X115461401Y-113601034D01*
X115599294Y-113859014D01*
X115784866Y-114085134D01*
X115814687Y-114109607D01*
X115745820Y-114130498D01*
X115635506Y-114189463D01*
X115538815Y-114268815D01*
X115459463Y-114365506D01*
X115422317Y-114435000D01*
X112920132Y-114435000D01*
X107815000Y-109329869D01*
X107815000Y-97806996D01*
X107817842Y-97712316D01*
X107805742Y-97640244D01*
X107798577Y-97567501D01*
X107787270Y-97530229D01*
X107780823Y-97491827D01*
X107754893Y-97423497D01*
X107733676Y-97353553D01*
X107715319Y-97319209D01*
X107701501Y-97282796D01*
X107662740Y-97220839D01*
X107628284Y-97156377D01*
X107568167Y-97083125D01*
X105676378Y-94631520D01*
X105668284Y-94616377D01*
X105608171Y-94543130D01*
X105584515Y-94512473D01*
X105572820Y-94500054D01*
X105526449Y-94443551D01*
X105496343Y-94418844D01*
X105469645Y-94390493D01*
X105410128Y-94348088D01*
X105353623Y-94301716D01*
X105319268Y-94283353D01*
X105287559Y-94260761D01*
X105220918Y-94230784D01*
X105156447Y-94196324D01*
X105119174Y-94185017D01*
X105083662Y-94169043D01*
X105012449Y-94152642D01*
X104942499Y-94131423D01*
X104903736Y-94127605D01*
X104865790Y-94118866D01*
X104792742Y-94116673D01*
X104775752Y-94115000D01*
X104736996Y-94115000D01*
X104642316Y-94112158D01*
X104625389Y-94115000D01*
X104287683Y-94115000D01*
X104250537Y-94045506D01*
X104171185Y-93948815D01*
X104074494Y-93869463D01*
X104005000Y-93832317D01*
X104005000Y-92353109D01*
X110318519Y-92353109D01*
X110439186Y-92583000D01*
X111633000Y-92583000D01*
X111633000Y-92563000D01*
X111887000Y-92563000D01*
X111887000Y-92583000D01*
X114173000Y-92583000D01*
X114173000Y-92563000D01*
X114427000Y-92563000D01*
X114427000Y-92583000D01*
X116713000Y-92583000D01*
X116713000Y-92563000D01*
X116967000Y-92563000D01*
X116967000Y-92583000D01*
X119253000Y-92583000D01*
X119253000Y-92563000D01*
X119507000Y-92563000D01*
X119507000Y-92583000D01*
X121793000Y-92583000D01*
X121793000Y-92563000D01*
X122047000Y-92563000D01*
X122047000Y-92583000D01*
X124333000Y-92583000D01*
X124333000Y-92563000D01*
X124587000Y-92563000D01*
X124587000Y-92583000D01*
X126873000Y-92583000D01*
X126873000Y-92563000D01*
X127127000Y-92563000D01*
X127127000Y-92583000D01*
X129413000Y-92583000D01*
X129413000Y-92563000D01*
X129667000Y-92563000D01*
X129667000Y-92583000D01*
X131953000Y-92583000D01*
X131953000Y-92563000D01*
X132207000Y-92563000D01*
X132207000Y-92583000D01*
X134493000Y-92583000D01*
X134493000Y-92563000D01*
X134747000Y-92563000D01*
X134747000Y-92583000D01*
X137033000Y-92583000D01*
X137033000Y-92563000D01*
X137287000Y-92563000D01*
X137287000Y-92583000D01*
X139573000Y-92583000D01*
X139573000Y-92563000D01*
X139827000Y-92563000D01*
X139827000Y-92583000D01*
X142113000Y-92583000D01*
X142113000Y-92563000D01*
X142367000Y-92563000D01*
X142367000Y-92583000D01*
X144653000Y-92583000D01*
X144653000Y-92563000D01*
X144907000Y-92563000D01*
X144907000Y-92583000D01*
X147193000Y-92583000D01*
X147193000Y-92563000D01*
X147447000Y-92563000D01*
X147447000Y-92583000D01*
X149733000Y-92583000D01*
X149733000Y-92563000D01*
X149987000Y-92563000D01*
X149987000Y-92583000D01*
X152273000Y-92583000D01*
X152273000Y-92563000D01*
X152527000Y-92563000D01*
X152527000Y-92583000D01*
X153726250Y-92583000D01*
X153885000Y-92424250D01*
X153888072Y-91860000D01*
X153875812Y-91735518D01*
X153839502Y-91615820D01*
X153780537Y-91505506D01*
X153701185Y-91408815D01*
X153604494Y-91329463D01*
X153494180Y-91270498D01*
X153374482Y-91234188D01*
X153250000Y-91221928D01*
X152820666Y-91224265D01*
X152911440Y-91189387D01*
X152963450Y-91161588D01*
X152998561Y-90948166D01*
X152400000Y-90349605D01*
X151801439Y-90948166D01*
X151836550Y-91161588D01*
X151977426Y-91224255D01*
X151550000Y-91221928D01*
X151425518Y-91234188D01*
X151305820Y-91270498D01*
X151195506Y-91329463D01*
X151098815Y-91408815D01*
X151019463Y-91505506D01*
X150960498Y-91615820D01*
X150936034Y-91696466D01*
X150860269Y-91612412D01*
X150626920Y-91438359D01*
X150364099Y-91313175D01*
X150216890Y-91268524D01*
X149987002Y-91389844D01*
X149987002Y-91299833D01*
X150162740Y-91269577D01*
X150371440Y-91189387D01*
X150423450Y-91161588D01*
X150458561Y-90948166D01*
X149860000Y-90349605D01*
X149261439Y-90948166D01*
X149296550Y-91161588D01*
X149500826Y-91252458D01*
X149718905Y-91301731D01*
X149732998Y-91302095D01*
X149732998Y-91389844D01*
X149503110Y-91268524D01*
X149355901Y-91313175D01*
X149093080Y-91438359D01*
X148859731Y-91612412D01*
X148664822Y-91828645D01*
X148590000Y-91954255D01*
X148515178Y-91828645D01*
X148320269Y-91612412D01*
X148086920Y-91438359D01*
X147824099Y-91313175D01*
X147676890Y-91268524D01*
X147447002Y-91389844D01*
X147447002Y-91299833D01*
X147622740Y-91269577D01*
X147831440Y-91189387D01*
X147883450Y-91161588D01*
X147918561Y-90948166D01*
X147320000Y-90349605D01*
X146721439Y-90948166D01*
X146756550Y-91161588D01*
X146960826Y-91252458D01*
X147178905Y-91301731D01*
X147192998Y-91302095D01*
X147192998Y-91389844D01*
X146963110Y-91268524D01*
X146815901Y-91313175D01*
X146553080Y-91438359D01*
X146319731Y-91612412D01*
X146124822Y-91828645D01*
X146050000Y-91954255D01*
X145975178Y-91828645D01*
X145780269Y-91612412D01*
X145546920Y-91438359D01*
X145284099Y-91313175D01*
X145136890Y-91268524D01*
X144907002Y-91389844D01*
X144907002Y-91299833D01*
X145082740Y-91269577D01*
X145291440Y-91189387D01*
X145343450Y-91161588D01*
X145378561Y-90948166D01*
X144780000Y-90349605D01*
X144181439Y-90948166D01*
X144216550Y-91161588D01*
X144420826Y-91252458D01*
X144638905Y-91301731D01*
X144652998Y-91302095D01*
X144652998Y-91389844D01*
X144423110Y-91268524D01*
X144275901Y-91313175D01*
X144013080Y-91438359D01*
X143779731Y-91612412D01*
X143584822Y-91828645D01*
X143510000Y-91954255D01*
X143435178Y-91828645D01*
X143240269Y-91612412D01*
X143006920Y-91438359D01*
X142744099Y-91313175D01*
X142596890Y-91268524D01*
X142367002Y-91389844D01*
X142367002Y-91299833D01*
X142542740Y-91269577D01*
X142751440Y-91189387D01*
X142803450Y-91161588D01*
X142838561Y-90948166D01*
X142240000Y-90349605D01*
X141641439Y-90948166D01*
X141676550Y-91161588D01*
X141880826Y-91252458D01*
X142098905Y-91301731D01*
X142112998Y-91302095D01*
X142112998Y-91389844D01*
X141883110Y-91268524D01*
X141735901Y-91313175D01*
X141473080Y-91438359D01*
X141239731Y-91612412D01*
X141044822Y-91828645D01*
X140970000Y-91954255D01*
X140895178Y-91828645D01*
X140700269Y-91612412D01*
X140466920Y-91438359D01*
X140204099Y-91313175D01*
X140056890Y-91268524D01*
X139827002Y-91389844D01*
X139827002Y-91299833D01*
X140002740Y-91269577D01*
X140211440Y-91189387D01*
X140263450Y-91161588D01*
X140298561Y-90948166D01*
X139700000Y-90349605D01*
X139101439Y-90948166D01*
X139136550Y-91161588D01*
X139340826Y-91252458D01*
X139558905Y-91301731D01*
X139572998Y-91302095D01*
X139572998Y-91389844D01*
X139343110Y-91268524D01*
X139195901Y-91313175D01*
X138933080Y-91438359D01*
X138699731Y-91612412D01*
X138504822Y-91828645D01*
X138430000Y-91954255D01*
X138355178Y-91828645D01*
X138160269Y-91612412D01*
X137926920Y-91438359D01*
X137664099Y-91313175D01*
X137516890Y-91268524D01*
X137287002Y-91389844D01*
X137287002Y-91299833D01*
X137462740Y-91269577D01*
X137671440Y-91189387D01*
X137723450Y-91161588D01*
X137758561Y-90948166D01*
X137160000Y-90349605D01*
X136561439Y-90948166D01*
X136596550Y-91161588D01*
X136800826Y-91252458D01*
X137018905Y-91301731D01*
X137032998Y-91302095D01*
X137032998Y-91389844D01*
X136803110Y-91268524D01*
X136655901Y-91313175D01*
X136393080Y-91438359D01*
X136159731Y-91612412D01*
X135964822Y-91828645D01*
X135890000Y-91954255D01*
X135815178Y-91828645D01*
X135620269Y-91612412D01*
X135386920Y-91438359D01*
X135124099Y-91313175D01*
X134976890Y-91268524D01*
X134747002Y-91389844D01*
X134747002Y-91299833D01*
X134922740Y-91269577D01*
X135131440Y-91189387D01*
X135183450Y-91161588D01*
X135218561Y-90948166D01*
X134620000Y-90349605D01*
X134021439Y-90948166D01*
X134056550Y-91161588D01*
X134260826Y-91252458D01*
X134478905Y-91301731D01*
X134492998Y-91302095D01*
X134492998Y-91389844D01*
X134263110Y-91268524D01*
X134115901Y-91313175D01*
X133853080Y-91438359D01*
X133619731Y-91612412D01*
X133424822Y-91828645D01*
X133350000Y-91954255D01*
X133275178Y-91828645D01*
X133080269Y-91612412D01*
X132846920Y-91438359D01*
X132584099Y-91313175D01*
X132436890Y-91268524D01*
X132207002Y-91389844D01*
X132207002Y-91299833D01*
X132382740Y-91269577D01*
X132591440Y-91189387D01*
X132643450Y-91161588D01*
X132678561Y-90948166D01*
X132080000Y-90349605D01*
X131481439Y-90948166D01*
X131516550Y-91161588D01*
X131720826Y-91252458D01*
X131938905Y-91301731D01*
X131952998Y-91302095D01*
X131952998Y-91389844D01*
X131723110Y-91268524D01*
X131575901Y-91313175D01*
X131313080Y-91438359D01*
X131079731Y-91612412D01*
X130884822Y-91828645D01*
X130810000Y-91954255D01*
X130735178Y-91828645D01*
X130540269Y-91612412D01*
X130306920Y-91438359D01*
X130044099Y-91313175D01*
X129896890Y-91268524D01*
X129667002Y-91389844D01*
X129667002Y-91299833D01*
X129842740Y-91269577D01*
X130051440Y-91189387D01*
X130103450Y-91161588D01*
X130138561Y-90948166D01*
X129540000Y-90349605D01*
X128941439Y-90948166D01*
X128976550Y-91161588D01*
X129180826Y-91252458D01*
X129398905Y-91301731D01*
X129412998Y-91302095D01*
X129412998Y-91389844D01*
X129183110Y-91268524D01*
X129035901Y-91313175D01*
X128773080Y-91438359D01*
X128539731Y-91612412D01*
X128344822Y-91828645D01*
X128270000Y-91954255D01*
X128195178Y-91828645D01*
X128000269Y-91612412D01*
X127766920Y-91438359D01*
X127504099Y-91313175D01*
X127356890Y-91268524D01*
X127127002Y-91389844D01*
X127127002Y-91299833D01*
X127302740Y-91269577D01*
X127511440Y-91189387D01*
X127563450Y-91161588D01*
X127598561Y-90948166D01*
X127000000Y-90349605D01*
X126401439Y-90948166D01*
X126436550Y-91161588D01*
X126640826Y-91252458D01*
X126858905Y-91301731D01*
X126872998Y-91302095D01*
X126872998Y-91389844D01*
X126643110Y-91268524D01*
X126495901Y-91313175D01*
X126233080Y-91438359D01*
X125999731Y-91612412D01*
X125804822Y-91828645D01*
X125730000Y-91954255D01*
X125655178Y-91828645D01*
X125460269Y-91612412D01*
X125226920Y-91438359D01*
X124964099Y-91313175D01*
X124816890Y-91268524D01*
X124587002Y-91389844D01*
X124587002Y-91299833D01*
X124762740Y-91269577D01*
X124971440Y-91189387D01*
X125023450Y-91161588D01*
X125058561Y-90948166D01*
X124460000Y-90349605D01*
X123861439Y-90948166D01*
X123896550Y-91161588D01*
X124100826Y-91252458D01*
X124318905Y-91301731D01*
X124332998Y-91302095D01*
X124332998Y-91389844D01*
X124103110Y-91268524D01*
X123955901Y-91313175D01*
X123693080Y-91438359D01*
X123459731Y-91612412D01*
X123264822Y-91828645D01*
X123190000Y-91954255D01*
X123115178Y-91828645D01*
X122920269Y-91612412D01*
X122686920Y-91438359D01*
X122424099Y-91313175D01*
X122276890Y-91268524D01*
X122047002Y-91389844D01*
X122047002Y-91299833D01*
X122222740Y-91269577D01*
X122431440Y-91189387D01*
X122483450Y-91161588D01*
X122518561Y-90948166D01*
X121920000Y-90349605D01*
X121321439Y-90948166D01*
X121356550Y-91161588D01*
X121560826Y-91252458D01*
X121778905Y-91301731D01*
X121792998Y-91302095D01*
X121792998Y-91389844D01*
X121563110Y-91268524D01*
X121415901Y-91313175D01*
X121153080Y-91438359D01*
X120919731Y-91612412D01*
X120724822Y-91828645D01*
X120650000Y-91954255D01*
X120575178Y-91828645D01*
X120380269Y-91612412D01*
X120146920Y-91438359D01*
X119884099Y-91313175D01*
X119736890Y-91268524D01*
X119507002Y-91389844D01*
X119507002Y-91299833D01*
X119682740Y-91269577D01*
X119891440Y-91189387D01*
X119943450Y-91161588D01*
X119978561Y-90948166D01*
X119380000Y-90349605D01*
X118781439Y-90948166D01*
X118816550Y-91161588D01*
X119020826Y-91252458D01*
X119238905Y-91301731D01*
X119252998Y-91302095D01*
X119252998Y-91389844D01*
X119023110Y-91268524D01*
X118875901Y-91313175D01*
X118613080Y-91438359D01*
X118379731Y-91612412D01*
X118184822Y-91828645D01*
X118110000Y-91954255D01*
X118035178Y-91828645D01*
X117840269Y-91612412D01*
X117606920Y-91438359D01*
X117344099Y-91313175D01*
X117196890Y-91268524D01*
X116967002Y-91389844D01*
X116967002Y-91299833D01*
X117142740Y-91269577D01*
X117351440Y-91189387D01*
X117403450Y-91161588D01*
X117438561Y-90948166D01*
X116840000Y-90349605D01*
X116241439Y-90948166D01*
X116276550Y-91161588D01*
X116480826Y-91252458D01*
X116698905Y-91301731D01*
X116712998Y-91302095D01*
X116712998Y-91389844D01*
X116483110Y-91268524D01*
X116335901Y-91313175D01*
X116073080Y-91438359D01*
X115839731Y-91612412D01*
X115644822Y-91828645D01*
X115570000Y-91954255D01*
X115495178Y-91828645D01*
X115300269Y-91612412D01*
X115066920Y-91438359D01*
X114804099Y-91313175D01*
X114656890Y-91268524D01*
X114427002Y-91389844D01*
X114427002Y-91299833D01*
X114602740Y-91269577D01*
X114811440Y-91189387D01*
X114863450Y-91161588D01*
X114898561Y-90948166D01*
X114300000Y-90349605D01*
X113701439Y-90948166D01*
X113736550Y-91161588D01*
X113940826Y-91252458D01*
X114158905Y-91301731D01*
X114172998Y-91302095D01*
X114172998Y-91389844D01*
X113943110Y-91268524D01*
X113795901Y-91313175D01*
X113533080Y-91438359D01*
X113299731Y-91612412D01*
X113104822Y-91828645D01*
X113030000Y-91954255D01*
X112955178Y-91828645D01*
X112760269Y-91612412D01*
X112526920Y-91438359D01*
X112264099Y-91313175D01*
X112116890Y-91268524D01*
X111887002Y-91389844D01*
X111887002Y-91299833D01*
X112062740Y-91269577D01*
X112271440Y-91189387D01*
X112323450Y-91161588D01*
X112358561Y-90948166D01*
X111760000Y-90349605D01*
X111161439Y-90948166D01*
X111196550Y-91161588D01*
X111400826Y-91252458D01*
X111618905Y-91301731D01*
X111632998Y-91302095D01*
X111632998Y-91389844D01*
X111403110Y-91268524D01*
X111255901Y-91313175D01*
X110993080Y-91438359D01*
X110759731Y-91612412D01*
X110564822Y-91828645D01*
X110415843Y-92078748D01*
X110318519Y-92353109D01*
X104005000Y-92353109D01*
X104005000Y-91963212D01*
X103994068Y-91908253D01*
X103988577Y-91852501D01*
X103972315Y-91798894D01*
X103961383Y-91743933D01*
X103939937Y-91692158D01*
X103923676Y-91638553D01*
X103897269Y-91589149D01*
X103875824Y-91537376D01*
X103844693Y-91490786D01*
X103818284Y-91441377D01*
X103782741Y-91398068D01*
X103751612Y-91351480D01*
X103711991Y-91311859D01*
X103676449Y-91268551D01*
X103633141Y-91233009D01*
X103593520Y-91193388D01*
X103546932Y-91162259D01*
X103503623Y-91126716D01*
X103454215Y-91100307D01*
X103407624Y-91069176D01*
X103355848Y-91047730D01*
X103306446Y-91021324D01*
X103252845Y-91005064D01*
X103201067Y-90983617D01*
X103146103Y-90972684D01*
X103092498Y-90956423D01*
X103036748Y-90950932D01*
X102981788Y-90940000D01*
X102925751Y-90940000D01*
X102870000Y-90934509D01*
X102814248Y-90940000D01*
X102758212Y-90940000D01*
X102703253Y-90950932D01*
X102647501Y-90956423D01*
X102593894Y-90972685D01*
X102538933Y-90983617D01*
X102487158Y-91005063D01*
X102433553Y-91021324D01*
X102384149Y-91047731D01*
X102332376Y-91069176D01*
X102285786Y-91100307D01*
X102236377Y-91126716D01*
X102193068Y-91162259D01*
X102146480Y-91193388D01*
X102106859Y-91233009D01*
X102063551Y-91268551D01*
X102028009Y-91311859D01*
X101988388Y-91351480D01*
X101957259Y-91398068D01*
X101921716Y-91441377D01*
X101895307Y-91490785D01*
X101864176Y-91537376D01*
X101842730Y-91589152D01*
X101816324Y-91638554D01*
X101800064Y-91692155D01*
X101778617Y-91743933D01*
X101767684Y-91798897D01*
X101751423Y-91852502D01*
X101745932Y-91908252D01*
X101735000Y-91963212D01*
X101735000Y-92019249D01*
X101735001Y-93832317D01*
X101665506Y-93869463D01*
X101568815Y-93948815D01*
X101489463Y-94045506D01*
X101430498Y-94155820D01*
X101406034Y-94236466D01*
X101330269Y-94152412D01*
X101096920Y-93978359D01*
X100834099Y-93853175D01*
X100686890Y-93808524D01*
X100457000Y-93929845D01*
X100203000Y-93929845D01*
X99973110Y-93808524D01*
X99825901Y-93853175D01*
X99563080Y-93978359D01*
X99329731Y-94152412D01*
X99134822Y-94368645D01*
X99060000Y-94494255D01*
X98985178Y-94368645D01*
X98790269Y-94152412D01*
X98556920Y-93978359D01*
X98294099Y-93853175D01*
X98146890Y-93808524D01*
X97917000Y-93929845D01*
X97663000Y-93929845D01*
X97433110Y-93808524D01*
X97285901Y-93853175D01*
X97023080Y-93978359D01*
X96789731Y-94152412D01*
X96594822Y-94368645D01*
X96525201Y-94485523D01*
X96490706Y-94420986D01*
X96305134Y-94194866D01*
X96079014Y-94009294D01*
X96010000Y-93972405D01*
X96010000Y-92920132D01*
X96076966Y-92853166D01*
X97191439Y-92853166D01*
X97226550Y-93066588D01*
X97430826Y-93157458D01*
X97648905Y-93206731D01*
X97872406Y-93212511D01*
X98092740Y-93174577D01*
X98301440Y-93094387D01*
X98353450Y-93066588D01*
X98388561Y-92853166D01*
X99731439Y-92853166D01*
X99766550Y-93066588D01*
X99970826Y-93157458D01*
X100188905Y-93206731D01*
X100412406Y-93212511D01*
X100632740Y-93174577D01*
X100841440Y-93094387D01*
X100893450Y-93066588D01*
X100928561Y-92853166D01*
X100330000Y-92254605D01*
X99731439Y-92853166D01*
X98388561Y-92853166D01*
X97790000Y-92254605D01*
X97191439Y-92853166D01*
X96076966Y-92853166D01*
X96131612Y-92798520D01*
X96255824Y-92612624D01*
X96341383Y-92406067D01*
X96385000Y-92186788D01*
X96385000Y-92157406D01*
X96652489Y-92157406D01*
X96690423Y-92377740D01*
X96770613Y-92586440D01*
X96798412Y-92638450D01*
X97011834Y-92673561D01*
X97610395Y-92075000D01*
X97969605Y-92075000D01*
X98568166Y-92673561D01*
X98781588Y-92638450D01*
X98872458Y-92434174D01*
X98921731Y-92216095D01*
X98923248Y-92157406D01*
X99192489Y-92157406D01*
X99230423Y-92377740D01*
X99310613Y-92586440D01*
X99338412Y-92638450D01*
X99551834Y-92673561D01*
X100150395Y-92075000D01*
X100509605Y-92075000D01*
X101108166Y-92673561D01*
X101321588Y-92638450D01*
X101412458Y-92434174D01*
X101461731Y-92216095D01*
X101467511Y-91992594D01*
X101429577Y-91772260D01*
X101349387Y-91563560D01*
X101321588Y-91511550D01*
X101108166Y-91476439D01*
X100509605Y-92075000D01*
X100150395Y-92075000D01*
X99551834Y-91476439D01*
X99338412Y-91511550D01*
X99247542Y-91715826D01*
X99198269Y-91933905D01*
X99192489Y-92157406D01*
X98923248Y-92157406D01*
X98927511Y-91992594D01*
X98889577Y-91772260D01*
X98809387Y-91563560D01*
X98781588Y-91511550D01*
X98568166Y-91476439D01*
X97969605Y-92075000D01*
X97610395Y-92075000D01*
X97011834Y-91476439D01*
X96798412Y-91511550D01*
X96707542Y-91715826D01*
X96658269Y-91933905D01*
X96652489Y-92157406D01*
X96385000Y-92157406D01*
X96385000Y-91963212D01*
X96341383Y-91743933D01*
X96255824Y-91537376D01*
X96131612Y-91351480D01*
X96076966Y-91296834D01*
X97191439Y-91296834D01*
X97790000Y-91895395D01*
X98388561Y-91296834D01*
X99731439Y-91296834D01*
X100330000Y-91895395D01*
X100928561Y-91296834D01*
X100893450Y-91083412D01*
X100689174Y-90992542D01*
X100471095Y-90943269D01*
X100247594Y-90937489D01*
X100027260Y-90975423D01*
X99818560Y-91055613D01*
X99766550Y-91083412D01*
X99731439Y-91296834D01*
X98388561Y-91296834D01*
X98353450Y-91083412D01*
X98149174Y-90992542D01*
X97931095Y-90943269D01*
X97707594Y-90937489D01*
X97487260Y-90975423D01*
X97278560Y-91055613D01*
X97226550Y-91083412D01*
X97191439Y-91296834D01*
X96076966Y-91296834D01*
X95973520Y-91193388D01*
X95787624Y-91069176D01*
X95581067Y-90983617D01*
X95361788Y-90940000D01*
X95138212Y-90940000D01*
X94918933Y-90983617D01*
X94712376Y-91069176D01*
X94526480Y-91193388D01*
X94368388Y-91351480D01*
X94244176Y-91537376D01*
X94158617Y-91743933D01*
X94115000Y-91963212D01*
X94115000Y-92186788D01*
X94158617Y-92406067D01*
X94244176Y-92612624D01*
X94368388Y-92798520D01*
X94490000Y-92920132D01*
X94490001Y-93972405D01*
X94420986Y-94009294D01*
X94194866Y-94194866D01*
X94009294Y-94420986D01*
X93871401Y-94678966D01*
X93786487Y-94958889D01*
X93757815Y-95250000D01*
X91973000Y-95250000D01*
X91973000Y-90252406D01*
X110622489Y-90252406D01*
X110660423Y-90472740D01*
X110740613Y-90681440D01*
X110768412Y-90733450D01*
X110981834Y-90768561D01*
X111580395Y-90170000D01*
X111939605Y-90170000D01*
X112538166Y-90768561D01*
X112751588Y-90733450D01*
X112842458Y-90529174D01*
X112891731Y-90311095D01*
X112893248Y-90252406D01*
X113162489Y-90252406D01*
X113200423Y-90472740D01*
X113280613Y-90681440D01*
X113308412Y-90733450D01*
X113521834Y-90768561D01*
X114120395Y-90170000D01*
X114479605Y-90170000D01*
X115078166Y-90768561D01*
X115291588Y-90733450D01*
X115382458Y-90529174D01*
X115431731Y-90311095D01*
X115433248Y-90252406D01*
X115702489Y-90252406D01*
X115740423Y-90472740D01*
X115820613Y-90681440D01*
X115848412Y-90733450D01*
X116061834Y-90768561D01*
X116660395Y-90170000D01*
X117019605Y-90170000D01*
X117618166Y-90768561D01*
X117831588Y-90733450D01*
X117922458Y-90529174D01*
X117971731Y-90311095D01*
X117973248Y-90252406D01*
X118242489Y-90252406D01*
X118280423Y-90472740D01*
X118360613Y-90681440D01*
X118388412Y-90733450D01*
X118601834Y-90768561D01*
X119200395Y-90170000D01*
X119559605Y-90170000D01*
X120158166Y-90768561D01*
X120371588Y-90733450D01*
X120462458Y-90529174D01*
X120511731Y-90311095D01*
X120513248Y-90252406D01*
X120782489Y-90252406D01*
X120820423Y-90472740D01*
X120900613Y-90681440D01*
X120928412Y-90733450D01*
X121141834Y-90768561D01*
X121740395Y-90170000D01*
X122099605Y-90170000D01*
X122698166Y-90768561D01*
X122911588Y-90733450D01*
X123002458Y-90529174D01*
X123051731Y-90311095D01*
X123053248Y-90252406D01*
X123322489Y-90252406D01*
X123360423Y-90472740D01*
X123440613Y-90681440D01*
X123468412Y-90733450D01*
X123681834Y-90768561D01*
X124280395Y-90170000D01*
X124639605Y-90170000D01*
X125238166Y-90768561D01*
X125451588Y-90733450D01*
X125542458Y-90529174D01*
X125591731Y-90311095D01*
X125593248Y-90252406D01*
X125862489Y-90252406D01*
X125900423Y-90472740D01*
X125980613Y-90681440D01*
X126008412Y-90733450D01*
X126221834Y-90768561D01*
X126820395Y-90170000D01*
X127179605Y-90170000D01*
X127778166Y-90768561D01*
X127991588Y-90733450D01*
X128082458Y-90529174D01*
X128131731Y-90311095D01*
X128133248Y-90252406D01*
X128402489Y-90252406D01*
X128440423Y-90472740D01*
X128520613Y-90681440D01*
X128548412Y-90733450D01*
X128761834Y-90768561D01*
X129360395Y-90170000D01*
X129719605Y-90170000D01*
X130318166Y-90768561D01*
X130531588Y-90733450D01*
X130622458Y-90529174D01*
X130671731Y-90311095D01*
X130673248Y-90252406D01*
X130942489Y-90252406D01*
X130980423Y-90472740D01*
X131060613Y-90681440D01*
X131088412Y-90733450D01*
X131301834Y-90768561D01*
X131900395Y-90170000D01*
X132259605Y-90170000D01*
X132858166Y-90768561D01*
X133071588Y-90733450D01*
X133162458Y-90529174D01*
X133211731Y-90311095D01*
X133213248Y-90252406D01*
X133482489Y-90252406D01*
X133520423Y-90472740D01*
X133600613Y-90681440D01*
X133628412Y-90733450D01*
X133841834Y-90768561D01*
X134440395Y-90170000D01*
X134799605Y-90170000D01*
X135398166Y-90768561D01*
X135611588Y-90733450D01*
X135702458Y-90529174D01*
X135751731Y-90311095D01*
X135753248Y-90252406D01*
X136022489Y-90252406D01*
X136060423Y-90472740D01*
X136140613Y-90681440D01*
X136168412Y-90733450D01*
X136381834Y-90768561D01*
X136980395Y-90170000D01*
X137339605Y-90170000D01*
X137938166Y-90768561D01*
X138151588Y-90733450D01*
X138242458Y-90529174D01*
X138291731Y-90311095D01*
X138293248Y-90252406D01*
X138562489Y-90252406D01*
X138600423Y-90472740D01*
X138680613Y-90681440D01*
X138708412Y-90733450D01*
X138921834Y-90768561D01*
X139520395Y-90170000D01*
X139879605Y-90170000D01*
X140478166Y-90768561D01*
X140691588Y-90733450D01*
X140782458Y-90529174D01*
X140831731Y-90311095D01*
X140833248Y-90252406D01*
X141102489Y-90252406D01*
X141140423Y-90472740D01*
X141220613Y-90681440D01*
X141248412Y-90733450D01*
X141461834Y-90768561D01*
X142060395Y-90170000D01*
X142419605Y-90170000D01*
X143018166Y-90768561D01*
X143231588Y-90733450D01*
X143322458Y-90529174D01*
X143371731Y-90311095D01*
X143373248Y-90252406D01*
X143642489Y-90252406D01*
X143680423Y-90472740D01*
X143760613Y-90681440D01*
X143788412Y-90733450D01*
X144001834Y-90768561D01*
X144600395Y-90170000D01*
X144959605Y-90170000D01*
X145558166Y-90768561D01*
X145771588Y-90733450D01*
X145862458Y-90529174D01*
X145911731Y-90311095D01*
X145913248Y-90252406D01*
X146182489Y-90252406D01*
X146220423Y-90472740D01*
X146300613Y-90681440D01*
X146328412Y-90733450D01*
X146541834Y-90768561D01*
X147140395Y-90170000D01*
X147499605Y-90170000D01*
X148098166Y-90768561D01*
X148311588Y-90733450D01*
X148402458Y-90529174D01*
X148451731Y-90311095D01*
X148453248Y-90252406D01*
X148722489Y-90252406D01*
X148760423Y-90472740D01*
X148840613Y-90681440D01*
X148868412Y-90733450D01*
X149081834Y-90768561D01*
X149680395Y-90170000D01*
X150039605Y-90170000D01*
X150638166Y-90768561D01*
X150851588Y-90733450D01*
X150942458Y-90529174D01*
X150991731Y-90311095D01*
X150993248Y-90252406D01*
X151262489Y-90252406D01*
X151300423Y-90472740D01*
X151380613Y-90681440D01*
X151408412Y-90733450D01*
X151621834Y-90768561D01*
X152220395Y-90170000D01*
X152579605Y-90170000D01*
X153178166Y-90768561D01*
X153391588Y-90733450D01*
X153482458Y-90529174D01*
X153531731Y-90311095D01*
X153537511Y-90087594D01*
X153499577Y-89867260D01*
X153419387Y-89658560D01*
X153391588Y-89606550D01*
X153178166Y-89571439D01*
X152579605Y-90170000D01*
X152220395Y-90170000D01*
X151621834Y-89571439D01*
X151408412Y-89606550D01*
X151317542Y-89810826D01*
X151268269Y-90028905D01*
X151262489Y-90252406D01*
X150993248Y-90252406D01*
X150997511Y-90087594D01*
X150959577Y-89867260D01*
X150879387Y-89658560D01*
X150851588Y-89606550D01*
X150638166Y-89571439D01*
X150039605Y-90170000D01*
X149680395Y-90170000D01*
X149081834Y-89571439D01*
X148868412Y-89606550D01*
X148777542Y-89810826D01*
X148728269Y-90028905D01*
X148722489Y-90252406D01*
X148453248Y-90252406D01*
X148457511Y-90087594D01*
X148419577Y-89867260D01*
X148339387Y-89658560D01*
X148311588Y-89606550D01*
X148098166Y-89571439D01*
X147499605Y-90170000D01*
X147140395Y-90170000D01*
X146541834Y-89571439D01*
X146328412Y-89606550D01*
X146237542Y-89810826D01*
X146188269Y-90028905D01*
X146182489Y-90252406D01*
X145913248Y-90252406D01*
X145917511Y-90087594D01*
X145879577Y-89867260D01*
X145799387Y-89658560D01*
X145771588Y-89606550D01*
X145558166Y-89571439D01*
X144959605Y-90170000D01*
X144600395Y-90170000D01*
X144001834Y-89571439D01*
X143788412Y-89606550D01*
X143697542Y-89810826D01*
X143648269Y-90028905D01*
X143642489Y-90252406D01*
X143373248Y-90252406D01*
X143377511Y-90087594D01*
X143339577Y-89867260D01*
X143259387Y-89658560D01*
X143231588Y-89606550D01*
X143018166Y-89571439D01*
X142419605Y-90170000D01*
X142060395Y-90170000D01*
X141461834Y-89571439D01*
X141248412Y-89606550D01*
X141157542Y-89810826D01*
X141108269Y-90028905D01*
X141102489Y-90252406D01*
X140833248Y-90252406D01*
X140837511Y-90087594D01*
X140799577Y-89867260D01*
X140719387Y-89658560D01*
X140691588Y-89606550D01*
X140478166Y-89571439D01*
X139879605Y-90170000D01*
X139520395Y-90170000D01*
X138921834Y-89571439D01*
X138708412Y-89606550D01*
X138617542Y-89810826D01*
X138568269Y-90028905D01*
X138562489Y-90252406D01*
X138293248Y-90252406D01*
X138297511Y-90087594D01*
X138259577Y-89867260D01*
X138179387Y-89658560D01*
X138151588Y-89606550D01*
X137938166Y-89571439D01*
X137339605Y-90170000D01*
X136980395Y-90170000D01*
X136381834Y-89571439D01*
X136168412Y-89606550D01*
X136077542Y-89810826D01*
X136028269Y-90028905D01*
X136022489Y-90252406D01*
X135753248Y-90252406D01*
X135757511Y-90087594D01*
X135719577Y-89867260D01*
X135639387Y-89658560D01*
X135611588Y-89606550D01*
X135398166Y-89571439D01*
X134799605Y-90170000D01*
X134440395Y-90170000D01*
X133841834Y-89571439D01*
X133628412Y-89606550D01*
X133537542Y-89810826D01*
X133488269Y-90028905D01*
X133482489Y-90252406D01*
X133213248Y-90252406D01*
X133217511Y-90087594D01*
X133179577Y-89867260D01*
X133099387Y-89658560D01*
X133071588Y-89606550D01*
X132858166Y-89571439D01*
X132259605Y-90170000D01*
X131900395Y-90170000D01*
X131301834Y-89571439D01*
X131088412Y-89606550D01*
X130997542Y-89810826D01*
X130948269Y-90028905D01*
X130942489Y-90252406D01*
X130673248Y-90252406D01*
X130677511Y-90087594D01*
X130639577Y-89867260D01*
X130559387Y-89658560D01*
X130531588Y-89606550D01*
X130318166Y-89571439D01*
X129719605Y-90170000D01*
X129360395Y-90170000D01*
X128761834Y-89571439D01*
X128548412Y-89606550D01*
X128457542Y-89810826D01*
X128408269Y-90028905D01*
X128402489Y-90252406D01*
X128133248Y-90252406D01*
X128137511Y-90087594D01*
X128099577Y-89867260D01*
X128019387Y-89658560D01*
X127991588Y-89606550D01*
X127778166Y-89571439D01*
X127179605Y-90170000D01*
X126820395Y-90170000D01*
X126221834Y-89571439D01*
X126008412Y-89606550D01*
X125917542Y-89810826D01*
X125868269Y-90028905D01*
X125862489Y-90252406D01*
X125593248Y-90252406D01*
X125597511Y-90087594D01*
X125559577Y-89867260D01*
X125479387Y-89658560D01*
X125451588Y-89606550D01*
X125238166Y-89571439D01*
X124639605Y-90170000D01*
X124280395Y-90170000D01*
X123681834Y-89571439D01*
X123468412Y-89606550D01*
X123377542Y-89810826D01*
X123328269Y-90028905D01*
X123322489Y-90252406D01*
X123053248Y-90252406D01*
X123057511Y-90087594D01*
X123019577Y-89867260D01*
X122939387Y-89658560D01*
X122911588Y-89606550D01*
X122698166Y-89571439D01*
X122099605Y-90170000D01*
X121740395Y-90170000D01*
X121141834Y-89571439D01*
X120928412Y-89606550D01*
X120837542Y-89810826D01*
X120788269Y-90028905D01*
X120782489Y-90252406D01*
X120513248Y-90252406D01*
X120517511Y-90087594D01*
X120479577Y-89867260D01*
X120399387Y-89658560D01*
X120371588Y-89606550D01*
X120158166Y-89571439D01*
X119559605Y-90170000D01*
X119200395Y-90170000D01*
X118601834Y-89571439D01*
X118388412Y-89606550D01*
X118297542Y-89810826D01*
X118248269Y-90028905D01*
X118242489Y-90252406D01*
X117973248Y-90252406D01*
X117977511Y-90087594D01*
X117939577Y-89867260D01*
X117859387Y-89658560D01*
X117831588Y-89606550D01*
X117618166Y-89571439D01*
X117019605Y-90170000D01*
X116660395Y-90170000D01*
X116061834Y-89571439D01*
X115848412Y-89606550D01*
X115757542Y-89810826D01*
X115708269Y-90028905D01*
X115702489Y-90252406D01*
X115433248Y-90252406D01*
X115437511Y-90087594D01*
X115399577Y-89867260D01*
X115319387Y-89658560D01*
X115291588Y-89606550D01*
X115078166Y-89571439D01*
X114479605Y-90170000D01*
X114120395Y-90170000D01*
X113521834Y-89571439D01*
X113308412Y-89606550D01*
X113217542Y-89810826D01*
X113168269Y-90028905D01*
X113162489Y-90252406D01*
X112893248Y-90252406D01*
X112897511Y-90087594D01*
X112859577Y-89867260D01*
X112779387Y-89658560D01*
X112751588Y-89606550D01*
X112538166Y-89571439D01*
X111939605Y-90170000D01*
X111580395Y-90170000D01*
X110981834Y-89571439D01*
X110768412Y-89606550D01*
X110677542Y-89810826D01*
X110628269Y-90028905D01*
X110622489Y-90252406D01*
X91973000Y-90252406D01*
X91973000Y-89391834D01*
X111161439Y-89391834D01*
X111760000Y-89990395D01*
X112358561Y-89391834D01*
X113701439Y-89391834D01*
X114300000Y-89990395D01*
X114898561Y-89391834D01*
X116241439Y-89391834D01*
X116840000Y-89990395D01*
X117438561Y-89391834D01*
X118781439Y-89391834D01*
X119380000Y-89990395D01*
X119978561Y-89391834D01*
X121321439Y-89391834D01*
X121920000Y-89990395D01*
X122518561Y-89391834D01*
X123861439Y-89391834D01*
X124460000Y-89990395D01*
X125058561Y-89391834D01*
X126401439Y-89391834D01*
X127000000Y-89990395D01*
X127598561Y-89391834D01*
X128941439Y-89391834D01*
X129540000Y-89990395D01*
X130138561Y-89391834D01*
X131481439Y-89391834D01*
X132080000Y-89990395D01*
X132678561Y-89391834D01*
X134021439Y-89391834D01*
X134620000Y-89990395D01*
X135218561Y-89391834D01*
X136561439Y-89391834D01*
X137160000Y-89990395D01*
X137758561Y-89391834D01*
X139101439Y-89391834D01*
X139700000Y-89990395D01*
X140298561Y-89391834D01*
X141641439Y-89391834D01*
X142240000Y-89990395D01*
X142838561Y-89391834D01*
X144181439Y-89391834D01*
X144780000Y-89990395D01*
X145378561Y-89391834D01*
X146721439Y-89391834D01*
X147320000Y-89990395D01*
X147918561Y-89391834D01*
X149261439Y-89391834D01*
X149860000Y-89990395D01*
X150458561Y-89391834D01*
X151801439Y-89391834D01*
X152400000Y-89990395D01*
X152998561Y-89391834D01*
X152963450Y-89178412D01*
X152759174Y-89087542D01*
X152541095Y-89038269D01*
X152317594Y-89032489D01*
X152097260Y-89070423D01*
X151888560Y-89150613D01*
X151836550Y-89178412D01*
X151801439Y-89391834D01*
X150458561Y-89391834D01*
X150423450Y-89178412D01*
X150219174Y-89087542D01*
X150001095Y-89038269D01*
X149777594Y-89032489D01*
X149557260Y-89070423D01*
X149348560Y-89150613D01*
X149296550Y-89178412D01*
X149261439Y-89391834D01*
X147918561Y-89391834D01*
X147883450Y-89178412D01*
X147679174Y-89087542D01*
X147461095Y-89038269D01*
X147237594Y-89032489D01*
X147017260Y-89070423D01*
X146808560Y-89150613D01*
X146756550Y-89178412D01*
X146721439Y-89391834D01*
X145378561Y-89391834D01*
X145343450Y-89178412D01*
X145139174Y-89087542D01*
X144921095Y-89038269D01*
X144697594Y-89032489D01*
X144477260Y-89070423D01*
X144268560Y-89150613D01*
X144216550Y-89178412D01*
X144181439Y-89391834D01*
X142838561Y-89391834D01*
X142803450Y-89178412D01*
X142599174Y-89087542D01*
X142381095Y-89038269D01*
X142157594Y-89032489D01*
X141937260Y-89070423D01*
X141728560Y-89150613D01*
X141676550Y-89178412D01*
X141641439Y-89391834D01*
X140298561Y-89391834D01*
X140263450Y-89178412D01*
X140059174Y-89087542D01*
X139841095Y-89038269D01*
X139617594Y-89032489D01*
X139397260Y-89070423D01*
X139188560Y-89150613D01*
X139136550Y-89178412D01*
X139101439Y-89391834D01*
X137758561Y-89391834D01*
X137723450Y-89178412D01*
X137519174Y-89087542D01*
X137301095Y-89038269D01*
X137077594Y-89032489D01*
X136857260Y-89070423D01*
X136648560Y-89150613D01*
X136596550Y-89178412D01*
X136561439Y-89391834D01*
X135218561Y-89391834D01*
X135183450Y-89178412D01*
X134979174Y-89087542D01*
X134761095Y-89038269D01*
X134537594Y-89032489D01*
X134317260Y-89070423D01*
X134108560Y-89150613D01*
X134056550Y-89178412D01*
X134021439Y-89391834D01*
X132678561Y-89391834D01*
X132643450Y-89178412D01*
X132439174Y-89087542D01*
X132221095Y-89038269D01*
X131997594Y-89032489D01*
X131777260Y-89070423D01*
X131568560Y-89150613D01*
X131516550Y-89178412D01*
X131481439Y-89391834D01*
X130138561Y-89391834D01*
X130103450Y-89178412D01*
X129899174Y-89087542D01*
X129681095Y-89038269D01*
X129457594Y-89032489D01*
X129237260Y-89070423D01*
X129028560Y-89150613D01*
X128976550Y-89178412D01*
X128941439Y-89391834D01*
X127598561Y-89391834D01*
X127563450Y-89178412D01*
X127359174Y-89087542D01*
X127141095Y-89038269D01*
X126917594Y-89032489D01*
X126697260Y-89070423D01*
X126488560Y-89150613D01*
X126436550Y-89178412D01*
X126401439Y-89391834D01*
X125058561Y-89391834D01*
X125023450Y-89178412D01*
X124819174Y-89087542D01*
X124601095Y-89038269D01*
X124377594Y-89032489D01*
X124157260Y-89070423D01*
X123948560Y-89150613D01*
X123896550Y-89178412D01*
X123861439Y-89391834D01*
X122518561Y-89391834D01*
X122483450Y-89178412D01*
X122279174Y-89087542D01*
X122061095Y-89038269D01*
X121837594Y-89032489D01*
X121617260Y-89070423D01*
X121408560Y-89150613D01*
X121356550Y-89178412D01*
X121321439Y-89391834D01*
X119978561Y-89391834D01*
X119943450Y-89178412D01*
X119739174Y-89087542D01*
X119521095Y-89038269D01*
X119297594Y-89032489D01*
X119077260Y-89070423D01*
X118868560Y-89150613D01*
X118816550Y-89178412D01*
X118781439Y-89391834D01*
X117438561Y-89391834D01*
X117403450Y-89178412D01*
X117199174Y-89087542D01*
X116981095Y-89038269D01*
X116757594Y-89032489D01*
X116537260Y-89070423D01*
X116328560Y-89150613D01*
X116276550Y-89178412D01*
X116241439Y-89391834D01*
X114898561Y-89391834D01*
X114863450Y-89178412D01*
X114659174Y-89087542D01*
X114441095Y-89038269D01*
X114217594Y-89032489D01*
X113997260Y-89070423D01*
X113788560Y-89150613D01*
X113736550Y-89178412D01*
X113701439Y-89391834D01*
X112358561Y-89391834D01*
X112323450Y-89178412D01*
X112119174Y-89087542D01*
X111901095Y-89038269D01*
X111677594Y-89032489D01*
X111457260Y-89070423D01*
X111248560Y-89150613D01*
X111196550Y-89178412D01*
X111161439Y-89391834D01*
X91973000Y-89391834D01*
X91973000Y-86189117D01*
X92118000Y-86189117D01*
X92118000Y-86530883D01*
X92184675Y-86866081D01*
X92315463Y-87181831D01*
X92505337Y-87465998D01*
X92747002Y-87707663D01*
X93031169Y-87897537D01*
X93346919Y-88028325D01*
X93682117Y-88095000D01*
X94023883Y-88095000D01*
X94359081Y-88028325D01*
X94674831Y-87897537D01*
X94958998Y-87707663D01*
X95200663Y-87465998D01*
X95390537Y-87181831D01*
X95521325Y-86866081D01*
X95588000Y-86530883D01*
X95588000Y-86189117D01*
X157015000Y-86189117D01*
X157015000Y-86530883D01*
X157081675Y-86866081D01*
X157212463Y-87181831D01*
X157402337Y-87465998D01*
X157644002Y-87707663D01*
X157928169Y-87897537D01*
X158243919Y-88028325D01*
X158579117Y-88095000D01*
X158920883Y-88095000D01*
X159256081Y-88028325D01*
X159571831Y-87897537D01*
X159855998Y-87707663D01*
X160097663Y-87465998D01*
X160287537Y-87181831D01*
X160418325Y-86866081D01*
X160485000Y-86530883D01*
X160485000Y-86189117D01*
X160418325Y-85853919D01*
X160287537Y-85538169D01*
X160097663Y-85254002D01*
X159855998Y-85012337D01*
X159571831Y-84822463D01*
X159256081Y-84691675D01*
X158920883Y-84625000D01*
X158579117Y-84625000D01*
X158243919Y-84691675D01*
X157928169Y-84822463D01*
X157644002Y-85012337D01*
X157402337Y-85254002D01*
X157212463Y-85538169D01*
X157081675Y-85853919D01*
X157015000Y-86189117D01*
X95588000Y-86189117D01*
X95521325Y-85853919D01*
X95390537Y-85538169D01*
X95200663Y-85254002D01*
X94958998Y-85012337D01*
X94674831Y-84822463D01*
X94359081Y-84691675D01*
X94023883Y-84625000D01*
X93682117Y-84625000D01*
X93346919Y-84691675D01*
X93031169Y-84822463D01*
X92747002Y-85012337D01*
X92505337Y-85254002D01*
X92315463Y-85538169D01*
X92184675Y-85853919D01*
X92118000Y-86189117D01*
X91973000Y-86189117D01*
X91973000Y-85122279D01*
X91987722Y-84972131D01*
X92021953Y-84858754D01*
X92077555Y-84754181D01*
X92152407Y-84662404D01*
X92243664Y-84586909D01*
X92347844Y-84530581D01*
X92460976Y-84495560D01*
X92609022Y-84480000D01*
X159987721Y-84480000D01*
X160137869Y-84494722D01*
X160137869Y-84494722D01*
G37*
X160137869Y-84494722D02*
X160251246Y-84528953D01*
X160355819Y-84584555D01*
X160447596Y-84659407D01*
X160523091Y-84750664D01*
X160579419Y-84854844D01*
X160614440Y-84967976D01*
X160630000Y-85116022D01*
X160630001Y-122522711D01*
X160615278Y-122672869D01*
X160581047Y-122786246D01*
X160525446Y-122890817D01*
X160450594Y-122982595D01*
X160359335Y-123058091D01*
X160255160Y-123114419D01*
X160142024Y-123149440D01*
X159993979Y-123165000D01*
X92615279Y-123165000D01*
X92465131Y-123150278D01*
X92351754Y-123116047D01*
X92247183Y-123060446D01*
X92155405Y-122985594D01*
X92079909Y-122894335D01*
X92023581Y-122790160D01*
X91988560Y-122677024D01*
X91973000Y-122528979D01*
X91973000Y-121114117D01*
X92118000Y-121114117D01*
X92118000Y-121455883D01*
X92184675Y-121791081D01*
X92315463Y-122106831D01*
X92505337Y-122390998D01*
X92747002Y-122632663D01*
X93031169Y-122822537D01*
X93346919Y-122953325D01*
X93682117Y-123020000D01*
X94023883Y-123020000D01*
X94359081Y-122953325D01*
X94674831Y-122822537D01*
X94958998Y-122632663D01*
X95200663Y-122390998D01*
X95390537Y-122106831D01*
X95521325Y-121791081D01*
X95588000Y-121455883D01*
X95588000Y-121114117D01*
X157015000Y-121114117D01*
X157015000Y-121455883D01*
X157081675Y-121791081D01*
X157212463Y-122106831D01*
X157402337Y-122390998D01*
X157644002Y-122632663D01*
X157928169Y-122822537D01*
X158243919Y-122953325D01*
X158579117Y-123020000D01*
X158920883Y-123020000D01*
X159256081Y-122953325D01*
X159571831Y-122822537D01*
X159855998Y-122632663D01*
X160097663Y-122390998D01*
X160287537Y-122106831D01*
X160418325Y-121791081D01*
X160485000Y-121455883D01*
X160485000Y-121114117D01*
X160418325Y-120778919D01*
X160287537Y-120463169D01*
X160097663Y-120179002D01*
X159855998Y-119937337D01*
X159571831Y-119747463D01*
X159256081Y-119616675D01*
X158920883Y-119550000D01*
X158579117Y-119550000D01*
X158243919Y-119616675D01*
X157928169Y-119747463D01*
X157644002Y-119937337D01*
X157402337Y-120179002D01*
X157212463Y-120463169D01*
X157081675Y-120778919D01*
X157015000Y-121114117D01*
X95588000Y-121114117D01*
X95521325Y-120778919D01*
X95390537Y-120463169D01*
X95200663Y-120179002D01*
X94958998Y-119937337D01*
X94674831Y-119747463D01*
X94359081Y-119616675D01*
X94023883Y-119550000D01*
X93682117Y-119550000D01*
X93346919Y-119616675D01*
X93031169Y-119747463D01*
X92747002Y-119937337D01*
X92505337Y-120179002D01*
X92315463Y-120463169D01*
X92184675Y-120778919D01*
X92118000Y-121114117D01*
X91973000Y-121114117D01*
X91973000Y-95250000D01*
X93757815Y-95250000D01*
X93786487Y-95541111D01*
X93871401Y-95821034D01*
X94009294Y-96079014D01*
X94194866Y-96305134D01*
X94420986Y-96490706D01*
X94490001Y-96527595D01*
X94490000Y-97579868D01*
X94368388Y-97701480D01*
X94244176Y-97887376D01*
X94158617Y-98093933D01*
X94115000Y-98313212D01*
X94115000Y-98536788D01*
X94158617Y-98756067D01*
X94244176Y-98962624D01*
X94368388Y-99148520D01*
X94526480Y-99306612D01*
X94712376Y-99430824D01*
X94918933Y-99516383D01*
X95138212Y-99560000D01*
X95361788Y-99560000D01*
X95581067Y-99516383D01*
X95787624Y-99430824D01*
X95973520Y-99306612D01*
X96076966Y-99203166D01*
X97191439Y-99203166D01*
X97226550Y-99416588D01*
X97430826Y-99507458D01*
X97648905Y-99556731D01*
X97872406Y-99562511D01*
X98092740Y-99524577D01*
X98301440Y-99444387D01*
X98353450Y-99416588D01*
X98388561Y-99203166D01*
X99731439Y-99203166D01*
X99766550Y-99416588D01*
X99970826Y-99507458D01*
X100188905Y-99556731D01*
X100412406Y-99562511D01*
X100632740Y-99524577D01*
X100841440Y-99444387D01*
X100893450Y-99416588D01*
X100928561Y-99203166D01*
X100330000Y-98604605D01*
X99731439Y-99203166D01*
X98388561Y-99203166D01*
X97790000Y-98604605D01*
X97191439Y-99203166D01*
X96076966Y-99203166D01*
X96131612Y-99148520D01*
X96255824Y-98962624D01*
X96341383Y-98756067D01*
X96385000Y-98536788D01*
X96385000Y-98507406D01*
X96652489Y-98507406D01*
X96690423Y-98727740D01*
X96770613Y-98936440D01*
X96798412Y-98988450D01*
X97011834Y-99023561D01*
X97610395Y-98425000D01*
X97969605Y-98425000D01*
X98568166Y-99023561D01*
X98781588Y-98988450D01*
X98872458Y-98784174D01*
X98921731Y-98566095D01*
X98923248Y-98507406D01*
X99192489Y-98507406D01*
X99230423Y-98727740D01*
X99310613Y-98936440D01*
X99338412Y-98988450D01*
X99551834Y-99023561D01*
X100150395Y-98425000D01*
X100509605Y-98425000D01*
X101108166Y-99023561D01*
X101321588Y-98988450D01*
X101412458Y-98784174D01*
X101461731Y-98566095D01*
X101467511Y-98342594D01*
X101429577Y-98122260D01*
X101349387Y-97913560D01*
X101321588Y-97861550D01*
X101108166Y-97826439D01*
X100509605Y-98425000D01*
X100150395Y-98425000D01*
X99551834Y-97826439D01*
X99338412Y-97861550D01*
X99247542Y-98065826D01*
X99198269Y-98283905D01*
X99192489Y-98507406D01*
X98923248Y-98507406D01*
X98927511Y-98342594D01*
X98889577Y-98122260D01*
X98809387Y-97913560D01*
X98781588Y-97861550D01*
X98568166Y-97826439D01*
X97969605Y-98425000D01*
X97610395Y-98425000D01*
X97011834Y-97826439D01*
X96798412Y-97861550D01*
X96707542Y-98065826D01*
X96658269Y-98283905D01*
X96652489Y-98507406D01*
X96385000Y-98507406D01*
X96385000Y-98313212D01*
X96341383Y-98093933D01*
X96255824Y-97887376D01*
X96131612Y-97701480D01*
X96076966Y-97646834D01*
X97191439Y-97646834D01*
X97790000Y-98245395D01*
X98388561Y-97646834D01*
X99731439Y-97646834D01*
X100330000Y-98245395D01*
X100928561Y-97646834D01*
X100893450Y-97433412D01*
X100689174Y-97342542D01*
X100471095Y-97293269D01*
X100247594Y-97287489D01*
X100027260Y-97325423D01*
X99818560Y-97405613D01*
X99766550Y-97433412D01*
X99731439Y-97646834D01*
X98388561Y-97646834D01*
X98353450Y-97433412D01*
X98149174Y-97342542D01*
X97931095Y-97293269D01*
X97707594Y-97287489D01*
X97487260Y-97325423D01*
X97278560Y-97405613D01*
X97226550Y-97433412D01*
X97191439Y-97646834D01*
X96076966Y-97646834D01*
X96010000Y-97579868D01*
X96010000Y-96527595D01*
X96079014Y-96490706D01*
X96305134Y-96305134D01*
X96490706Y-96079014D01*
X96525201Y-96014477D01*
X96594822Y-96131355D01*
X96789731Y-96347588D01*
X97023080Y-96521641D01*
X97285901Y-96646825D01*
X97433110Y-96691476D01*
X97663000Y-96570155D01*
X97663000Y-95377000D01*
X97917000Y-95377000D01*
X97917000Y-96570155D01*
X98146890Y-96691476D01*
X98294099Y-96646825D01*
X98556920Y-96521641D01*
X98790269Y-96347588D01*
X98985178Y-96131355D01*
X99060000Y-96005745D01*
X99134822Y-96131355D01*
X99329731Y-96347588D01*
X99563080Y-96521641D01*
X99825901Y-96646825D01*
X99973110Y-96691476D01*
X100203000Y-96570155D01*
X100203000Y-95377000D01*
X97917000Y-95377000D01*
X97663000Y-95377000D01*
X97643000Y-95377000D01*
X97643000Y-95123000D01*
X97663000Y-95123000D01*
X97663000Y-93929845D01*
X97917000Y-93929845D01*
X97917000Y-95123000D01*
X100203000Y-95123000D01*
X100203000Y-93929845D01*
X100457000Y-93929845D01*
X100457000Y-95123000D01*
X100477000Y-95123000D01*
X100477000Y-95377000D01*
X100457000Y-95377000D01*
X100457000Y-96570155D01*
X100686890Y-96691476D01*
X100834099Y-96646825D01*
X101096920Y-96521641D01*
X101330269Y-96347588D01*
X101406034Y-96263534D01*
X101430498Y-96344180D01*
X101489463Y-96454494D01*
X101568815Y-96551185D01*
X101665506Y-96630537D01*
X101735001Y-96667683D01*
X101735001Y-98313207D01*
X101735000Y-98313212D01*
X101735000Y-98536788D01*
X101735001Y-98536793D01*
X101735000Y-112974249D01*
X101729509Y-113030000D01*
X101735000Y-113085751D01*
X101751423Y-113252498D01*
X101816324Y-113466446D01*
X101921716Y-113663623D01*
X102063551Y-113836449D01*
X102106865Y-113871996D01*
X107108009Y-118873141D01*
X107143551Y-118916449D01*
X107316377Y-119058284D01*
X107513553Y-119163676D01*
X107727501Y-119228577D01*
X107950000Y-119250491D01*
X108005751Y-119245000D01*
X116784249Y-119245000D01*
X116840000Y-119250491D01*
X116895752Y-119245000D01*
X119324249Y-119245000D01*
X119380000Y-119250491D01*
X119435752Y-119245000D01*
X121864249Y-119245000D01*
X121920000Y-119250491D01*
X121975752Y-119245000D01*
X124404249Y-119245000D01*
X124460000Y-119250491D01*
X124515752Y-119245000D01*
X124571788Y-119245000D01*
X124626747Y-119234068D01*
X124682499Y-119228577D01*
X124736106Y-119212315D01*
X124791067Y-119201383D01*
X124842842Y-119179937D01*
X124896447Y-119163676D01*
X124945851Y-119137269D01*
X124997624Y-119115824D01*
X125044214Y-119084693D01*
X125093623Y-119058284D01*
X125136932Y-119022741D01*
X125183520Y-118991612D01*
X125223141Y-118951991D01*
X125266449Y-118916449D01*
X125301991Y-118873141D01*
X125341612Y-118833520D01*
X125372741Y-118786932D01*
X125408284Y-118743623D01*
X125434693Y-118694214D01*
X125465824Y-118647624D01*
X125487269Y-118595851D01*
X125513676Y-118546447D01*
X125529937Y-118492842D01*
X125551383Y-118441067D01*
X125562315Y-118386106D01*
X125578577Y-118332499D01*
X125584068Y-118276747D01*
X125595000Y-118221788D01*
X125595000Y-118165752D01*
X125600491Y-118110000D01*
X125595000Y-118054248D01*
X125595000Y-116527817D01*
X125700706Y-116399014D01*
X125730000Y-116344209D01*
X125759294Y-116399014D01*
X125944866Y-116625134D01*
X126170986Y-116810706D01*
X126240001Y-116847595D01*
X126240001Y-117264867D01*
X126118388Y-117386480D01*
X125994176Y-117572376D01*
X125908617Y-117778933D01*
X125865000Y-117998212D01*
X125865000Y-118221788D01*
X125908617Y-118441067D01*
X125994176Y-118647624D01*
X126118388Y-118833520D01*
X126276480Y-118991612D01*
X126462376Y-119115824D01*
X126668933Y-119201383D01*
X126888212Y-119245000D01*
X127111788Y-119245000D01*
X127331067Y-119201383D01*
X127537624Y-119115824D01*
X127723520Y-118991612D01*
X127881612Y-118833520D01*
X128005824Y-118647624D01*
X128091383Y-118441067D01*
X128135000Y-118221788D01*
X128135000Y-117998212D01*
X128091383Y-117778933D01*
X128005824Y-117572376D01*
X127881612Y-117386480D01*
X127760000Y-117264868D01*
X127760000Y-116847595D01*
X127829014Y-116810706D01*
X128055134Y-116625134D01*
X128240706Y-116399014D01*
X128270000Y-116344209D01*
X128299294Y-116399014D01*
X128484866Y-116625134D01*
X128710986Y-116810706D01*
X128780001Y-116847595D01*
X128780001Y-117264867D01*
X128658388Y-117386480D01*
X128534176Y-117572376D01*
X128448617Y-117778933D01*
X128405000Y-117998212D01*
X128405000Y-118221788D01*
X128448617Y-118441067D01*
X128534176Y-118647624D01*
X128658388Y-118833520D01*
X128816480Y-118991612D01*
X129002376Y-119115824D01*
X129208933Y-119201383D01*
X129428212Y-119245000D01*
X129651788Y-119245000D01*
X129871067Y-119201383D01*
X130077624Y-119115824D01*
X130263520Y-118991612D01*
X130366966Y-118888166D01*
X131481439Y-118888166D01*
X131516550Y-119101588D01*
X131720826Y-119192458D01*
X131938905Y-119241731D01*
X132162406Y-119247511D01*
X132382740Y-119209577D01*
X132591440Y-119129387D01*
X132643450Y-119101588D01*
X132678561Y-118888166D01*
X134021439Y-118888166D01*
X134056550Y-119101588D01*
X134260826Y-119192458D01*
X134478905Y-119241731D01*
X134702406Y-119247511D01*
X134922740Y-119209577D01*
X135131440Y-119129387D01*
X135183450Y-119101588D01*
X135218561Y-118888166D01*
X136561439Y-118888166D01*
X136596550Y-119101588D01*
X136800826Y-119192458D01*
X137018905Y-119241731D01*
X137242406Y-119247511D01*
X137462740Y-119209577D01*
X137671440Y-119129387D01*
X137723450Y-119101588D01*
X137758561Y-118888166D01*
X139101439Y-118888166D01*
X139136550Y-119101588D01*
X139340826Y-119192458D01*
X139558905Y-119241731D01*
X139782406Y-119247511D01*
X140002740Y-119209577D01*
X140211440Y-119129387D01*
X140263450Y-119101588D01*
X140298561Y-118888166D01*
X141641439Y-118888166D01*
X141676550Y-119101588D01*
X141880826Y-119192458D01*
X142098905Y-119241731D01*
X142322406Y-119247511D01*
X142542740Y-119209577D01*
X142751440Y-119129387D01*
X142803450Y-119101588D01*
X142838561Y-118888166D01*
X144181439Y-118888166D01*
X144216550Y-119101588D01*
X144420826Y-119192458D01*
X144638905Y-119241731D01*
X144862406Y-119247511D01*
X145082740Y-119209577D01*
X145291440Y-119129387D01*
X145343450Y-119101588D01*
X145378561Y-118888166D01*
X146721439Y-118888166D01*
X146756550Y-119101588D01*
X146960826Y-119192458D01*
X147178905Y-119241731D01*
X147402406Y-119247511D01*
X147622740Y-119209577D01*
X147831440Y-119129387D01*
X147883450Y-119101588D01*
X147918561Y-118888166D01*
X147320000Y-118289605D01*
X146721439Y-118888166D01*
X145378561Y-118888166D01*
X144780000Y-118289605D01*
X144181439Y-118888166D01*
X142838561Y-118888166D01*
X142240000Y-118289605D01*
X141641439Y-118888166D01*
X140298561Y-118888166D01*
X139700000Y-118289605D01*
X139101439Y-118888166D01*
X137758561Y-118888166D01*
X137160000Y-118289605D01*
X136561439Y-118888166D01*
X135218561Y-118888166D01*
X134620000Y-118289605D01*
X134021439Y-118888166D01*
X132678561Y-118888166D01*
X132080000Y-118289605D01*
X131481439Y-118888166D01*
X130366966Y-118888166D01*
X130421612Y-118833520D01*
X130545824Y-118647624D01*
X130631383Y-118441067D01*
X130675000Y-118221788D01*
X130675000Y-118192406D01*
X130942489Y-118192406D01*
X130980423Y-118412740D01*
X131060613Y-118621440D01*
X131088412Y-118673450D01*
X131301834Y-118708561D01*
X131900395Y-118110000D01*
X132259605Y-118110000D01*
X132858166Y-118708561D01*
X133071588Y-118673450D01*
X133162458Y-118469174D01*
X133211731Y-118251095D01*
X133213248Y-118192406D01*
X133482489Y-118192406D01*
X133520423Y-118412740D01*
X133600613Y-118621440D01*
X133628412Y-118673450D01*
X133841834Y-118708561D01*
X134440395Y-118110000D01*
X134799605Y-118110000D01*
X135398166Y-118708561D01*
X135611588Y-118673450D01*
X135702458Y-118469174D01*
X135751731Y-118251095D01*
X135753248Y-118192406D01*
X136022489Y-118192406D01*
X136060423Y-118412740D01*
X136140613Y-118621440D01*
X136168412Y-118673450D01*
X136381834Y-118708561D01*
X136980395Y-118110000D01*
X137339605Y-118110000D01*
X137938166Y-118708561D01*
X138151588Y-118673450D01*
X138242458Y-118469174D01*
X138291731Y-118251095D01*
X138293248Y-118192406D01*
X138562489Y-118192406D01*
X138600423Y-118412740D01*
X138680613Y-118621440D01*
X138708412Y-118673450D01*
X138921834Y-118708561D01*
X139520395Y-118110000D01*
X139879605Y-118110000D01*
X140478166Y-118708561D01*
X140691588Y-118673450D01*
X140782458Y-118469174D01*
X140831731Y-118251095D01*
X140833248Y-118192406D01*
X141102489Y-118192406D01*
X141140423Y-118412740D01*
X141220613Y-118621440D01*
X141248412Y-118673450D01*
X141461834Y-118708561D01*
X142060395Y-118110000D01*
X142419605Y-118110000D01*
X143018166Y-118708561D01*
X143231588Y-118673450D01*
X143322458Y-118469174D01*
X143371731Y-118251095D01*
X143373248Y-118192406D01*
X143642489Y-118192406D01*
X143680423Y-118412740D01*
X143760613Y-118621440D01*
X143788412Y-118673450D01*
X144001834Y-118708561D01*
X144600395Y-118110000D01*
X144959605Y-118110000D01*
X145558166Y-118708561D01*
X145771588Y-118673450D01*
X145862458Y-118469174D01*
X145911731Y-118251095D01*
X145913248Y-118192406D01*
X146182489Y-118192406D01*
X146220423Y-118412740D01*
X146300613Y-118621440D01*
X146328412Y-118673450D01*
X146541834Y-118708561D01*
X147140395Y-118110000D01*
X147499605Y-118110000D01*
X148098166Y-118708561D01*
X148311588Y-118673450D01*
X148402458Y-118469174D01*
X148451731Y-118251095D01*
X148457511Y-118027594D01*
X148419577Y-117807260D01*
X148339387Y-117598560D01*
X148311588Y-117546550D01*
X148098166Y-117511439D01*
X147499605Y-118110000D01*
X147140395Y-118110000D01*
X146541834Y-117511439D01*
X146328412Y-117546550D01*
X146237542Y-117750826D01*
X146188269Y-117968905D01*
X146182489Y-118192406D01*
X145913248Y-118192406D01*
X145917511Y-118027594D01*
X145879577Y-117807260D01*
X145799387Y-117598560D01*
X145771588Y-117546550D01*
X145558166Y-117511439D01*
X144959605Y-118110000D01*
X144600395Y-118110000D01*
X144001834Y-117511439D01*
X143788412Y-117546550D01*
X143697542Y-117750826D01*
X143648269Y-117968905D01*
X143642489Y-118192406D01*
X143373248Y-118192406D01*
X143377511Y-118027594D01*
X143339577Y-117807260D01*
X143259387Y-117598560D01*
X143231588Y-117546550D01*
X143018166Y-117511439D01*
X142419605Y-118110000D01*
X142060395Y-118110000D01*
X141461834Y-117511439D01*
X141248412Y-117546550D01*
X141157542Y-117750826D01*
X141108269Y-117968905D01*
X141102489Y-118192406D01*
X140833248Y-118192406D01*
X140837511Y-118027594D01*
X140799577Y-117807260D01*
X140719387Y-117598560D01*
X140691588Y-117546550D01*
X140478166Y-117511439D01*
X139879605Y-118110000D01*
X139520395Y-118110000D01*
X138921834Y-117511439D01*
X138708412Y-117546550D01*
X138617542Y-117750826D01*
X138568269Y-117968905D01*
X138562489Y-118192406D01*
X138293248Y-118192406D01*
X138297511Y-118027594D01*
X138259577Y-117807260D01*
X138179387Y-117598560D01*
X138151588Y-117546550D01*
X137938166Y-117511439D01*
X137339605Y-118110000D01*
X136980395Y-118110000D01*
X136381834Y-117511439D01*
X136168412Y-117546550D01*
X136077542Y-117750826D01*
X136028269Y-117968905D01*
X136022489Y-118192406D01*
X135753248Y-118192406D01*
X135757511Y-118027594D01*
X135719577Y-117807260D01*
X135639387Y-117598560D01*
X135611588Y-117546550D01*
X135398166Y-117511439D01*
X134799605Y-118110000D01*
X134440395Y-118110000D01*
X133841834Y-117511439D01*
X133628412Y-117546550D01*
X133537542Y-117750826D01*
X133488269Y-117968905D01*
X133482489Y-118192406D01*
X133213248Y-118192406D01*
X133217511Y-118027594D01*
X133179577Y-117807260D01*
X133099387Y-117598560D01*
X133071588Y-117546550D01*
X132858166Y-117511439D01*
X132259605Y-118110000D01*
X131900395Y-118110000D01*
X131301834Y-117511439D01*
X131088412Y-117546550D01*
X130997542Y-117750826D01*
X130948269Y-117968905D01*
X130942489Y-118192406D01*
X130675000Y-118192406D01*
X130675000Y-117998212D01*
X130631383Y-117778933D01*
X130545824Y-117572376D01*
X130421612Y-117386480D01*
X130300000Y-117264868D01*
X130300000Y-116847595D01*
X130369014Y-116810706D01*
X130595134Y-116625134D01*
X130780706Y-116399014D01*
X130815201Y-116334477D01*
X130884822Y-116451355D01*
X131079731Y-116667588D01*
X131313080Y-116841641D01*
X131575901Y-116966825D01*
X131723110Y-117011476D01*
X131952998Y-116890156D01*
X131952998Y-116980167D01*
X131777260Y-117010423D01*
X131568560Y-117090613D01*
X131516550Y-117118412D01*
X131481439Y-117331834D01*
X132080000Y-117930395D01*
X132678561Y-117331834D01*
X132643450Y-117118412D01*
X132439174Y-117027542D01*
X132221095Y-116978269D01*
X132207002Y-116977905D01*
X132207002Y-116890156D01*
X132436890Y-117011476D01*
X132584099Y-116966825D01*
X132846920Y-116841641D01*
X133080269Y-116667588D01*
X133275178Y-116451355D01*
X133350000Y-116325745D01*
X133424822Y-116451355D01*
X133619731Y-116667588D01*
X133853080Y-116841641D01*
X134115901Y-116966825D01*
X134263110Y-117011476D01*
X134492998Y-116890156D01*
X134492998Y-116980167D01*
X134317260Y-117010423D01*
X134108560Y-117090613D01*
X134056550Y-117118412D01*
X134021439Y-117331834D01*
X134620000Y-117930395D01*
X135218561Y-117331834D01*
X135183450Y-117118412D01*
X134979174Y-117027542D01*
X134761095Y-116978269D01*
X134747002Y-116977905D01*
X134747002Y-116890156D01*
X134976890Y-117011476D01*
X135124099Y-116966825D01*
X135386920Y-116841641D01*
X135620269Y-116667588D01*
X135815178Y-116451355D01*
X135890000Y-116325745D01*
X135964822Y-116451355D01*
X136159731Y-116667588D01*
X136393080Y-116841641D01*
X136655901Y-116966825D01*
X136803110Y-117011476D01*
X137032998Y-116890156D01*
X137032998Y-116980167D01*
X136857260Y-117010423D01*
X136648560Y-117090613D01*
X136596550Y-117118412D01*
X136561439Y-117331834D01*
X137160000Y-117930395D01*
X137758561Y-117331834D01*
X137723450Y-117118412D01*
X137519174Y-117027542D01*
X137301095Y-116978269D01*
X137287002Y-116977905D01*
X137287002Y-116890156D01*
X137516890Y-117011476D01*
X137664099Y-116966825D01*
X137926920Y-116841641D01*
X138160269Y-116667588D01*
X138355178Y-116451355D01*
X138430000Y-116325745D01*
X138504822Y-116451355D01*
X138699731Y-116667588D01*
X138933080Y-116841641D01*
X139195901Y-116966825D01*
X139343110Y-117011476D01*
X139572998Y-116890156D01*
X139572998Y-116980167D01*
X139397260Y-117010423D01*
X139188560Y-117090613D01*
X139136550Y-117118412D01*
X139101439Y-117331834D01*
X139700000Y-117930395D01*
X140298561Y-117331834D01*
X140263450Y-117118412D01*
X140059174Y-117027542D01*
X139841095Y-116978269D01*
X139827002Y-116977905D01*
X139827002Y-116890156D01*
X140056890Y-117011476D01*
X140204099Y-116966825D01*
X140466920Y-116841641D01*
X140700269Y-116667588D01*
X140895178Y-116451355D01*
X140970000Y-116325745D01*
X141044822Y-116451355D01*
X141239731Y-116667588D01*
X141473080Y-116841641D01*
X141735901Y-116966825D01*
X141883110Y-117011476D01*
X142112998Y-116890156D01*
X142112998Y-116980167D01*
X141937260Y-117010423D01*
X141728560Y-117090613D01*
X141676550Y-117118412D01*
X141641439Y-117331834D01*
X142240000Y-117930395D01*
X142838561Y-117331834D01*
X142803450Y-117118412D01*
X142599174Y-117027542D01*
X142381095Y-116978269D01*
X142367002Y-116977905D01*
X142367002Y-116890156D01*
X142596890Y-117011476D01*
X142744099Y-116966825D01*
X143006920Y-116841641D01*
X143240269Y-116667588D01*
X143435178Y-116451355D01*
X143510000Y-116325745D01*
X143584822Y-116451355D01*
X143779731Y-116667588D01*
X144013080Y-116841641D01*
X144275901Y-116966825D01*
X144423110Y-117011476D01*
X144652998Y-116890156D01*
X144652998Y-116980167D01*
X144477260Y-117010423D01*
X144268560Y-117090613D01*
X144216550Y-117118412D01*
X144181439Y-117331834D01*
X144780000Y-117930395D01*
X145378561Y-117331834D01*
X145343450Y-117118412D01*
X145139174Y-117027542D01*
X144921095Y-116978269D01*
X144907002Y-116977905D01*
X144907002Y-116890156D01*
X145136890Y-117011476D01*
X145284099Y-116966825D01*
X145546920Y-116841641D01*
X145780269Y-116667588D01*
X145975178Y-116451355D01*
X146050000Y-116325745D01*
X146124822Y-116451355D01*
X146319731Y-116667588D01*
X146553080Y-116841641D01*
X146815901Y-116966825D01*
X146963110Y-117011476D01*
X147192998Y-116890156D01*
X147192998Y-116980167D01*
X147017260Y-117010423D01*
X146808560Y-117090613D01*
X146756550Y-117118412D01*
X146721439Y-117331834D01*
X147320000Y-117930395D01*
X147918561Y-117331834D01*
X147883450Y-117118412D01*
X147679174Y-117027542D01*
X147461095Y-116978269D01*
X147447002Y-116977905D01*
X147447002Y-116890156D01*
X147676890Y-117011476D01*
X147824099Y-116966825D01*
X148086920Y-116841641D01*
X148320269Y-116667588D01*
X148515178Y-116451355D01*
X148664157Y-116201252D01*
X148761481Y-115926891D01*
X148640814Y-115697000D01*
X147447000Y-115697000D01*
X147447000Y-115717000D01*
X147193000Y-115717000D01*
X147193000Y-115697000D01*
X144907000Y-115697000D01*
X144907000Y-115717000D01*
X144653000Y-115717000D01*
X144653000Y-115697000D01*
X142367000Y-115697000D01*
X142367000Y-115717000D01*
X142113000Y-115717000D01*
X142113000Y-115697000D01*
X139827000Y-115697000D01*
X139827000Y-115717000D01*
X139573000Y-115717000D01*
X139573000Y-115697000D01*
X137287000Y-115697000D01*
X137287000Y-115717000D01*
X137033000Y-115717000D01*
X137033000Y-115697000D01*
X134747000Y-115697000D01*
X134747000Y-115717000D01*
X134493000Y-115717000D01*
X134493000Y-115697000D01*
X132207000Y-115697000D01*
X132207000Y-115717000D01*
X131953000Y-115717000D01*
X131953000Y-115697000D01*
X131933000Y-115697000D01*
X131933000Y-115443000D01*
X131953000Y-115443000D01*
X131953000Y-115423000D01*
X132207000Y-115423000D01*
X132207000Y-115443000D01*
X134493000Y-115443000D01*
X134493000Y-115423000D01*
X134747000Y-115423000D01*
X134747000Y-115443000D01*
X137033000Y-115443000D01*
X137033000Y-115423000D01*
X137287000Y-115423000D01*
X137287000Y-115443000D01*
X139573000Y-115443000D01*
X139573000Y-115423000D01*
X139827000Y-115423000D01*
X139827000Y-115443000D01*
X142113000Y-115443000D01*
X142113000Y-115423000D01*
X142367000Y-115423000D01*
X142367000Y-115443000D01*
X144653000Y-115443000D01*
X144653000Y-115423000D01*
X144907000Y-115423000D01*
X144907000Y-115443000D01*
X147193000Y-115443000D01*
X147193000Y-115423000D01*
X147447000Y-115423000D01*
X147447000Y-115443000D01*
X148640814Y-115443000D01*
X148761481Y-115213109D01*
X148664157Y-114938748D01*
X148515178Y-114688645D01*
X148320269Y-114472412D01*
X148091244Y-114301584D01*
X148149014Y-114270706D01*
X148375134Y-114085134D01*
X148560706Y-113859014D01*
X148698599Y-113601034D01*
X148783513Y-113321111D01*
X148812185Y-113030000D01*
X148783513Y-112738889D01*
X148698599Y-112458966D01*
X148560706Y-112200986D01*
X148375134Y-111974866D01*
X148149014Y-111789294D01*
X148080000Y-111752405D01*
X148080000Y-111335132D01*
X148201612Y-111213520D01*
X148325824Y-111027624D01*
X148411383Y-110821067D01*
X148455000Y-110601788D01*
X148455000Y-110378212D01*
X148411383Y-110158933D01*
X148325824Y-109952376D01*
X148201612Y-109766480D01*
X148043520Y-109608388D01*
X147857624Y-109484176D01*
X147651067Y-109398617D01*
X147431788Y-109355000D01*
X147208212Y-109355000D01*
X146988933Y-109398617D01*
X146782376Y-109484176D01*
X146596480Y-109608388D01*
X146438388Y-109766480D01*
X146314176Y-109952376D01*
X146228617Y-110158933D01*
X146185000Y-110378212D01*
X146185000Y-110601788D01*
X146228617Y-110821067D01*
X146314176Y-111027624D01*
X146438388Y-111213520D01*
X146560001Y-111335133D01*
X146560001Y-111752405D01*
X146490986Y-111789294D01*
X146264866Y-111974866D01*
X146079294Y-112200986D01*
X146050000Y-112255791D01*
X146020706Y-112200986D01*
X145835134Y-111974866D01*
X145609014Y-111789294D01*
X145540000Y-111752405D01*
X145540000Y-111335132D01*
X145661612Y-111213520D01*
X145785824Y-111027624D01*
X145871383Y-110821067D01*
X145915000Y-110601788D01*
X145915000Y-110378212D01*
X145871383Y-110158933D01*
X145785824Y-109952376D01*
X145661612Y-109766480D01*
X145503520Y-109608388D01*
X145317624Y-109484176D01*
X145111067Y-109398617D01*
X144891788Y-109355000D01*
X144668212Y-109355000D01*
X144448933Y-109398617D01*
X144242376Y-109484176D01*
X144056480Y-109608388D01*
X143898388Y-109766480D01*
X143774176Y-109952376D01*
X143688617Y-110158933D01*
X143645000Y-110378212D01*
X143645000Y-110601788D01*
X143688617Y-110821067D01*
X143774176Y-111027624D01*
X143898388Y-111213520D01*
X144020001Y-111335133D01*
X144020001Y-111752405D01*
X143950986Y-111789294D01*
X143724866Y-111974866D01*
X143539294Y-112200986D01*
X143510000Y-112255791D01*
X143480706Y-112200986D01*
X143295134Y-111974866D01*
X143069014Y-111789294D01*
X143000000Y-111752405D01*
X143000000Y-111335132D01*
X143121612Y-111213520D01*
X143245824Y-111027624D01*
X143331383Y-110821067D01*
X143375000Y-110601788D01*
X143375000Y-110378212D01*
X143331383Y-110158933D01*
X143245824Y-109952376D01*
X143121612Y-109766480D01*
X142963520Y-109608388D01*
X142777624Y-109484176D01*
X142571067Y-109398617D01*
X142351788Y-109355000D01*
X142128212Y-109355000D01*
X141908933Y-109398617D01*
X141702376Y-109484176D01*
X141516480Y-109608388D01*
X141358388Y-109766480D01*
X141234176Y-109952376D01*
X141148617Y-110158933D01*
X141105000Y-110378212D01*
X141105000Y-110601788D01*
X141148617Y-110821067D01*
X141234176Y-111027624D01*
X141358388Y-111213520D01*
X141480001Y-111335133D01*
X141480001Y-111752405D01*
X141410986Y-111789294D01*
X141184866Y-111974866D01*
X140999294Y-112200986D01*
X140970000Y-112255791D01*
X140940706Y-112200986D01*
X140755134Y-111974866D01*
X140529014Y-111789294D01*
X140460000Y-111752405D01*
X140460000Y-111335132D01*
X140581612Y-111213520D01*
X140705824Y-111027624D01*
X140791383Y-110821067D01*
X140835000Y-110601788D01*
X140835000Y-110378212D01*
X140791383Y-110158933D01*
X140705824Y-109952376D01*
X140581612Y-109766480D01*
X140423520Y-109608388D01*
X140237624Y-109484176D01*
X140031067Y-109398617D01*
X139811788Y-109355000D01*
X139588212Y-109355000D01*
X139368933Y-109398617D01*
X139162376Y-109484176D01*
X138976480Y-109608388D01*
X138818388Y-109766480D01*
X138694176Y-109952376D01*
X138608617Y-110158933D01*
X138565000Y-110378212D01*
X138565000Y-110601788D01*
X138608617Y-110821067D01*
X138694176Y-111027624D01*
X138818388Y-111213520D01*
X138940001Y-111335133D01*
X138940001Y-111752405D01*
X138870986Y-111789294D01*
X138644866Y-111974866D01*
X138459294Y-112200986D01*
X138430000Y-112255791D01*
X138400706Y-112200986D01*
X138215134Y-111974866D01*
X137989014Y-111789294D01*
X137920000Y-111752405D01*
X137920000Y-111335132D01*
X138041612Y-111213520D01*
X138165824Y-111027624D01*
X138251383Y-110821067D01*
X138295000Y-110601788D01*
X138295000Y-110378212D01*
X138251383Y-110158933D01*
X138165824Y-109952376D01*
X138041612Y-109766480D01*
X137883520Y-109608388D01*
X137697624Y-109484176D01*
X137491067Y-109398617D01*
X137271788Y-109355000D01*
X137048212Y-109355000D01*
X136828933Y-109398617D01*
X136622376Y-109484176D01*
X136436480Y-109608388D01*
X136278388Y-109766480D01*
X136154176Y-109952376D01*
X136068617Y-110158933D01*
X136025000Y-110378212D01*
X136025000Y-110601788D01*
X136068617Y-110821067D01*
X136154176Y-111027624D01*
X136278388Y-111213520D01*
X136400001Y-111335133D01*
X136400001Y-111752405D01*
X136330986Y-111789294D01*
X136104866Y-111974866D01*
X135919294Y-112200986D01*
X135890000Y-112255791D01*
X135860706Y-112200986D01*
X135675134Y-111974866D01*
X135449014Y-111789294D01*
X135380000Y-111752405D01*
X135380000Y-111335132D01*
X135501612Y-111213520D01*
X135625824Y-111027624D01*
X135711383Y-110821067D01*
X135755000Y-110601788D01*
X135755000Y-110378212D01*
X135711383Y-110158933D01*
X135625824Y-109952376D01*
X135501612Y-109766480D01*
X135343520Y-109608388D01*
X135157624Y-109484176D01*
X134951067Y-109398617D01*
X134731788Y-109355000D01*
X134508212Y-109355000D01*
X134288933Y-109398617D01*
X134082376Y-109484176D01*
X133896480Y-109608388D01*
X133738388Y-109766480D01*
X133614176Y-109952376D01*
X133528617Y-110158933D01*
X133485000Y-110378212D01*
X133485000Y-110601788D01*
X133528617Y-110821067D01*
X133614176Y-111027624D01*
X133738388Y-111213520D01*
X133860001Y-111335133D01*
X133860001Y-111752405D01*
X133790986Y-111789294D01*
X133564866Y-111974866D01*
X133379294Y-112200986D01*
X133350000Y-112255791D01*
X133320706Y-112200986D01*
X133135134Y-111974866D01*
X132909014Y-111789294D01*
X132840000Y-111752405D01*
X132840000Y-111335132D01*
X132961612Y-111213520D01*
X133085824Y-111027624D01*
X133171383Y-110821067D01*
X133215000Y-110601788D01*
X133215000Y-110378212D01*
X133171383Y-110158933D01*
X133085824Y-109952376D01*
X132961612Y-109766480D01*
X132803520Y-109608388D01*
X132617624Y-109484176D01*
X132411067Y-109398617D01*
X132191788Y-109355000D01*
X131968212Y-109355000D01*
X131822397Y-109384004D01*
X135087202Y-106119200D01*
X140170678Y-106119200D01*
X140208000Y-106122876D01*
X140245322Y-106119200D01*
X140245333Y-106119200D01*
X140356986Y-106108203D01*
X140500247Y-106064746D01*
X140632276Y-105994174D01*
X140748001Y-105899201D01*
X140771804Y-105870197D01*
X144173404Y-102468598D01*
X144202401Y-102444801D01*
X144297374Y-102329076D01*
X144367946Y-102197047D01*
X144411403Y-102053786D01*
X144422400Y-101942133D01*
X144422400Y-101942124D01*
X144426076Y-101904801D01*
X144422400Y-101867478D01*
X144422400Y-98870393D01*
X144448933Y-98881383D01*
X144668212Y-98925000D01*
X144891788Y-98925000D01*
X145111067Y-98881383D01*
X145317624Y-98795824D01*
X145503520Y-98671612D01*
X145661612Y-98513520D01*
X145785824Y-98327624D01*
X145871383Y-98121067D01*
X145915000Y-97901788D01*
X145915000Y-97678212D01*
X145871383Y-97458933D01*
X145785824Y-97252376D01*
X145661612Y-97066480D01*
X145540000Y-96944868D01*
X145540000Y-96527595D01*
X145609014Y-96490706D01*
X145835134Y-96305134D01*
X146020706Y-96079014D01*
X146050000Y-96024209D01*
X146079294Y-96079014D01*
X146264866Y-96305134D01*
X146490986Y-96490706D01*
X146560001Y-96527595D01*
X146560001Y-96944867D01*
X146438388Y-97066480D01*
X146314176Y-97252376D01*
X146228617Y-97458933D01*
X146185000Y-97678212D01*
X146185000Y-97901788D01*
X146228617Y-98121067D01*
X146314176Y-98327624D01*
X146438388Y-98513520D01*
X146596480Y-98671612D01*
X146782376Y-98795824D01*
X146988933Y-98881383D01*
X147208212Y-98925000D01*
X147431788Y-98925000D01*
X147651067Y-98881383D01*
X147857624Y-98795824D01*
X148043520Y-98671612D01*
X148201612Y-98513520D01*
X148325824Y-98327624D01*
X148411383Y-98121067D01*
X148455000Y-97901788D01*
X148455000Y-97678212D01*
X148411383Y-97458933D01*
X148325824Y-97252376D01*
X148201612Y-97066480D01*
X148080000Y-96944868D01*
X148080000Y-96527595D01*
X148149014Y-96490706D01*
X148375134Y-96305134D01*
X148560706Y-96079014D01*
X148590000Y-96024209D01*
X148619294Y-96079014D01*
X148804866Y-96305134D01*
X149030986Y-96490706D01*
X149100001Y-96527595D01*
X149100001Y-96944867D01*
X148978388Y-97066480D01*
X148854176Y-97252376D01*
X148768617Y-97458933D01*
X148725000Y-97678212D01*
X148725000Y-97901788D01*
X148768617Y-98121067D01*
X148854176Y-98327624D01*
X148978388Y-98513520D01*
X149136480Y-98671612D01*
X149322376Y-98795824D01*
X149528933Y-98881383D01*
X149748212Y-98925000D01*
X149971788Y-98925000D01*
X150191067Y-98881383D01*
X150397624Y-98795824D01*
X150583520Y-98671612D01*
X150741612Y-98513520D01*
X150865824Y-98327624D01*
X150951383Y-98121067D01*
X150995000Y-97901788D01*
X150995000Y-97678212D01*
X150951383Y-97458933D01*
X150865824Y-97252376D01*
X150741612Y-97066480D01*
X150620000Y-96944868D01*
X150620000Y-96527595D01*
X150689014Y-96490706D01*
X150915134Y-96305134D01*
X151100706Y-96079014D01*
X151130000Y-96024209D01*
X151159294Y-96079014D01*
X151344866Y-96305134D01*
X151570986Y-96490706D01*
X151640001Y-96527595D01*
X151640001Y-96944867D01*
X151518388Y-97066480D01*
X151394176Y-97252376D01*
X151308617Y-97458933D01*
X151265000Y-97678212D01*
X151265000Y-97901788D01*
X151308617Y-98121067D01*
X151394176Y-98327624D01*
X151518388Y-98513520D01*
X151676480Y-98671612D01*
X151862376Y-98795824D01*
X152068933Y-98881383D01*
X152288212Y-98925000D01*
X152511788Y-98925000D01*
X152731067Y-98881383D01*
X152937624Y-98795824D01*
X153123520Y-98671612D01*
X153281612Y-98513520D01*
X153405824Y-98327624D01*
X153491383Y-98121067D01*
X153535000Y-97901788D01*
X153535000Y-97678212D01*
X153491383Y-97458933D01*
X153405824Y-97252376D01*
X153281612Y-97066480D01*
X153160000Y-96944868D01*
X153160000Y-96527595D01*
X153229014Y-96490706D01*
X153455134Y-96305134D01*
X153640706Y-96079014D01*
X153778599Y-95821034D01*
X153863513Y-95541111D01*
X153892185Y-95250000D01*
X153863513Y-94958889D01*
X153778599Y-94678966D01*
X153640706Y-94420986D01*
X153455134Y-94194866D01*
X153425313Y-94170393D01*
X153494180Y-94149502D01*
X153604494Y-94090537D01*
X153701185Y-94011185D01*
X153780537Y-93914494D01*
X153839502Y-93804180D01*
X153875812Y-93684482D01*
X153888072Y-93560000D01*
X153885000Y-92995750D01*
X153726250Y-92837000D01*
X152527000Y-92837000D01*
X152527000Y-92857000D01*
X152273000Y-92857000D01*
X152273000Y-92837000D01*
X149987000Y-92837000D01*
X149987000Y-92857000D01*
X149733000Y-92857000D01*
X149733000Y-92837000D01*
X147447000Y-92837000D01*
X147447000Y-92857000D01*
X147193000Y-92857000D01*
X147193000Y-92837000D01*
X144907000Y-92837000D01*
X144907000Y-92857000D01*
X144653000Y-92857000D01*
X144653000Y-92837000D01*
X142367000Y-92837000D01*
X142367000Y-92857000D01*
X142113000Y-92857000D01*
X142113000Y-92837000D01*
X139827000Y-92837000D01*
X139827000Y-92857000D01*
X139573000Y-92857000D01*
X139573000Y-92837000D01*
X137287000Y-92837000D01*
X137287000Y-92857000D01*
X137033000Y-92857000D01*
X137033000Y-92837000D01*
X134747000Y-92837000D01*
X134747000Y-92857000D01*
X134493000Y-92857000D01*
X134493000Y-92837000D01*
X132207000Y-92837000D01*
X132207000Y-92857000D01*
X131953000Y-92857000D01*
X131953000Y-92837000D01*
X129667000Y-92837000D01*
X129667000Y-92857000D01*
X129413000Y-92857000D01*
X129413000Y-92837000D01*
X127127000Y-92837000D01*
X127127000Y-92857000D01*
X126873000Y-92857000D01*
X126873000Y-92837000D01*
X124587000Y-92837000D01*
X124587000Y-92857000D01*
X124333000Y-92857000D01*
X124333000Y-92837000D01*
X122047000Y-92837000D01*
X122047000Y-92857000D01*
X121793000Y-92857000D01*
X121793000Y-92837000D01*
X119507000Y-92837000D01*
X119507000Y-92857000D01*
X119253000Y-92857000D01*
X119253000Y-92837000D01*
X116967000Y-92837000D01*
X116967000Y-92857000D01*
X116713000Y-92857000D01*
X116713000Y-92837000D01*
X114427000Y-92837000D01*
X114427000Y-92857000D01*
X114173000Y-92857000D01*
X114173000Y-92837000D01*
X111887000Y-92837000D01*
X111887000Y-92857000D01*
X111633000Y-92857000D01*
X111633000Y-92837000D01*
X110439186Y-92837000D01*
X110318519Y-93066891D01*
X110415843Y-93341252D01*
X110564822Y-93591355D01*
X110759731Y-93807588D01*
X110988756Y-93978416D01*
X110930986Y-94009294D01*
X110704866Y-94194866D01*
X110519294Y-94420986D01*
X110381401Y-94678966D01*
X110296487Y-94958889D01*
X110267815Y-95250000D01*
X110296487Y-95541111D01*
X110381401Y-95821034D01*
X110519294Y-96079014D01*
X110704866Y-96305134D01*
X110930986Y-96490706D01*
X111000001Y-96527595D01*
X111000001Y-96944867D01*
X110878388Y-97066480D01*
X110754176Y-97252376D01*
X110668617Y-97458933D01*
X110625000Y-97678212D01*
X110625000Y-97901788D01*
X110668617Y-98121067D01*
X110754176Y-98327624D01*
X110878388Y-98513520D01*
X111036480Y-98671612D01*
X111222376Y-98795824D01*
X111428933Y-98881383D01*
X111648212Y-98925000D01*
X111871788Y-98925000D01*
X112091067Y-98881383D01*
X112297624Y-98795824D01*
X112371601Y-98746394D01*
X112371600Y-104102678D01*
X112367924Y-104140000D01*
X112371600Y-104177322D01*
X112371600Y-104177332D01*
X112382597Y-104288985D01*
X112426054Y-104432246D01*
X112496626Y-104564276D01*
X112522271Y-104595524D01*
X112591599Y-104680001D01*
X112620602Y-104703804D01*
X113634600Y-105717802D01*
X113658399Y-105746801D01*
X113687397Y-105770599D01*
X113774123Y-105841774D01*
X113827310Y-105870203D01*
X113906153Y-105912346D01*
X114049414Y-105955803D01*
X114161067Y-105966800D01*
X114161076Y-105966800D01*
X114198399Y-105970476D01*
X114235722Y-105966800D01*
X119471599Y-105966800D01*
X122430001Y-108925203D01*
X122430001Y-109472734D01*
X122251067Y-109398617D01*
X122031788Y-109355000D01*
X121808212Y-109355000D01*
X121588933Y-109398617D01*
X121382376Y-109484176D01*
X121196480Y-109608388D01*
X121038388Y-109766480D01*
X120914176Y-109952376D01*
X120828617Y-110158933D01*
X120785000Y-110378212D01*
X120785000Y-110601788D01*
X120828617Y-110821067D01*
X120914176Y-111027624D01*
X121038388Y-111213520D01*
X121160001Y-111335133D01*
X121160001Y-111752405D01*
X121090986Y-111789294D01*
X120864866Y-111974866D01*
X120679294Y-112200986D01*
X120650000Y-112255791D01*
X120620706Y-112200986D01*
X120435134Y-111974866D01*
X120209014Y-111789294D01*
X120140000Y-111752405D01*
X120140000Y-111335132D01*
X120261612Y-111213520D01*
X120385824Y-111027624D01*
X120471383Y-110821067D01*
X120515000Y-110601788D01*
X120515000Y-110378212D01*
X120471383Y-110158933D01*
X120385824Y-109952376D01*
X120261612Y-109766480D01*
X120103520Y-109608388D01*
X119917624Y-109484176D01*
X119711067Y-109398617D01*
X119491788Y-109355000D01*
X119268212Y-109355000D01*
X119048933Y-109398617D01*
X118842376Y-109484176D01*
X118656480Y-109608388D01*
X118498388Y-109766480D01*
X118374176Y-109952376D01*
X118288617Y-110158933D01*
X118245000Y-110378212D01*
X118245000Y-110601788D01*
X118288617Y-110821067D01*
X118374176Y-111027624D01*
X118498388Y-111213520D01*
X118620001Y-111335133D01*
X118620001Y-111752405D01*
X118550986Y-111789294D01*
X118324866Y-111974866D01*
X118139294Y-112200986D01*
X118110000Y-112255791D01*
X118080706Y-112200986D01*
X117895134Y-111974866D01*
X117669014Y-111789294D01*
X117600000Y-111752405D01*
X117600000Y-111335132D01*
X117721612Y-111213520D01*
X117845824Y-111027624D01*
X117931383Y-110821067D01*
X117975000Y-110601788D01*
X117975000Y-110378212D01*
X117931383Y-110158933D01*
X117845824Y-109952376D01*
X117721612Y-109766480D01*
X117563520Y-109608388D01*
X117377624Y-109484176D01*
X117171067Y-109398617D01*
X116951788Y-109355000D01*
X116728212Y-109355000D01*
X116508933Y-109398617D01*
X116302376Y-109484176D01*
X116116480Y-109608388D01*
X115958388Y-109766480D01*
X115834176Y-109952376D01*
X115748617Y-110158933D01*
X115705000Y-110378212D01*
X115705000Y-110601788D01*
X115748617Y-110821067D01*
X115834176Y-111027624D01*
X115958388Y-111213520D01*
X116080001Y-111335133D01*
X116080001Y-111752405D01*
X116010986Y-111789294D01*
X115784866Y-111974866D01*
X115599294Y-112200986D01*
X115461401Y-112458966D01*
X115376487Y-112738889D01*
X115347815Y-113030000D01*
X115376487Y-113321111D01*
X115461401Y-113601034D01*
X115599294Y-113859014D01*
X115784866Y-114085134D01*
X115814687Y-114109607D01*
X115745820Y-114130498D01*
X115635506Y-114189463D01*
X115538815Y-114268815D01*
X115459463Y-114365506D01*
X115422317Y-114435000D01*
X112920132Y-114435000D01*
X107815000Y-109329869D01*
X107815000Y-97806996D01*
X107817842Y-97712316D01*
X107805742Y-97640244D01*
X107798577Y-97567501D01*
X107787270Y-97530229D01*
X107780823Y-97491827D01*
X107754893Y-97423497D01*
X107733676Y-97353553D01*
X107715319Y-97319209D01*
X107701501Y-97282796D01*
X107662740Y-97220839D01*
X107628284Y-97156377D01*
X107568167Y-97083125D01*
X105676378Y-94631520D01*
X105668284Y-94616377D01*
X105608171Y-94543130D01*
X105584515Y-94512473D01*
X105572820Y-94500054D01*
X105526449Y-94443551D01*
X105496343Y-94418844D01*
X105469645Y-94390493D01*
X105410128Y-94348088D01*
X105353623Y-94301716D01*
X105319268Y-94283353D01*
X105287559Y-94260761D01*
X105220918Y-94230784D01*
X105156447Y-94196324D01*
X105119174Y-94185017D01*
X105083662Y-94169043D01*
X105012449Y-94152642D01*
X104942499Y-94131423D01*
X104903736Y-94127605D01*
X104865790Y-94118866D01*
X104792742Y-94116673D01*
X104775752Y-94115000D01*
X104736996Y-94115000D01*
X104642316Y-94112158D01*
X104625389Y-94115000D01*
X104287683Y-94115000D01*
X104250537Y-94045506D01*
X104171185Y-93948815D01*
X104074494Y-93869463D01*
X104005000Y-93832317D01*
X104005000Y-92353109D01*
X110318519Y-92353109D01*
X110439186Y-92583000D01*
X111633000Y-92583000D01*
X111633000Y-92563000D01*
X111887000Y-92563000D01*
X111887000Y-92583000D01*
X114173000Y-92583000D01*
X114173000Y-92563000D01*
X114427000Y-92563000D01*
X114427000Y-92583000D01*
X116713000Y-92583000D01*
X116713000Y-92563000D01*
X116967000Y-92563000D01*
X116967000Y-92583000D01*
X119253000Y-92583000D01*
X119253000Y-92563000D01*
X119507000Y-92563000D01*
X119507000Y-92583000D01*
X121793000Y-92583000D01*
X121793000Y-92563000D01*
X122047000Y-92563000D01*
X122047000Y-92583000D01*
X124333000Y-92583000D01*
X124333000Y-92563000D01*
X124587000Y-92563000D01*
X124587000Y-92583000D01*
X126873000Y-92583000D01*
X126873000Y-92563000D01*
X127127000Y-92563000D01*
X127127000Y-92583000D01*
X129413000Y-92583000D01*
X129413000Y-92563000D01*
X129667000Y-92563000D01*
X129667000Y-92583000D01*
X131953000Y-92583000D01*
X131953000Y-92563000D01*
X132207000Y-92563000D01*
X132207000Y-92583000D01*
X134493000Y-92583000D01*
X134493000Y-92563000D01*
X134747000Y-92563000D01*
X134747000Y-92583000D01*
X137033000Y-92583000D01*
X137033000Y-92563000D01*
X137287000Y-92563000D01*
X137287000Y-92583000D01*
X139573000Y-92583000D01*
X139573000Y-92563000D01*
X139827000Y-92563000D01*
X139827000Y-92583000D01*
X142113000Y-92583000D01*
X142113000Y-92563000D01*
X142367000Y-92563000D01*
X142367000Y-92583000D01*
X144653000Y-92583000D01*
X144653000Y-92563000D01*
X144907000Y-92563000D01*
X144907000Y-92583000D01*
X147193000Y-92583000D01*
X147193000Y-92563000D01*
X147447000Y-92563000D01*
X147447000Y-92583000D01*
X149733000Y-92583000D01*
X149733000Y-92563000D01*
X149987000Y-92563000D01*
X149987000Y-92583000D01*
X152273000Y-92583000D01*
X152273000Y-92563000D01*
X152527000Y-92563000D01*
X152527000Y-92583000D01*
X153726250Y-92583000D01*
X153885000Y-92424250D01*
X153888072Y-91860000D01*
X153875812Y-91735518D01*
X153839502Y-91615820D01*
X153780537Y-91505506D01*
X153701185Y-91408815D01*
X153604494Y-91329463D01*
X153494180Y-91270498D01*
X153374482Y-91234188D01*
X153250000Y-91221928D01*
X152820666Y-91224265D01*
X152911440Y-91189387D01*
X152963450Y-91161588D01*
X152998561Y-90948166D01*
X152400000Y-90349605D01*
X151801439Y-90948166D01*
X151836550Y-91161588D01*
X151977426Y-91224255D01*
X151550000Y-91221928D01*
X151425518Y-91234188D01*
X151305820Y-91270498D01*
X151195506Y-91329463D01*
X151098815Y-91408815D01*
X151019463Y-91505506D01*
X150960498Y-91615820D01*
X150936034Y-91696466D01*
X150860269Y-91612412D01*
X150626920Y-91438359D01*
X150364099Y-91313175D01*
X150216890Y-91268524D01*
X149987002Y-91389844D01*
X149987002Y-91299833D01*
X150162740Y-91269577D01*
X150371440Y-91189387D01*
X150423450Y-91161588D01*
X150458561Y-90948166D01*
X149860000Y-90349605D01*
X149261439Y-90948166D01*
X149296550Y-91161588D01*
X149500826Y-91252458D01*
X149718905Y-91301731D01*
X149732998Y-91302095D01*
X149732998Y-91389844D01*
X149503110Y-91268524D01*
X149355901Y-91313175D01*
X149093080Y-91438359D01*
X148859731Y-91612412D01*
X148664822Y-91828645D01*
X148590000Y-91954255D01*
X148515178Y-91828645D01*
X148320269Y-91612412D01*
X148086920Y-91438359D01*
X147824099Y-91313175D01*
X147676890Y-91268524D01*
X147447002Y-91389844D01*
X147447002Y-91299833D01*
X147622740Y-91269577D01*
X147831440Y-91189387D01*
X147883450Y-91161588D01*
X147918561Y-90948166D01*
X147320000Y-90349605D01*
X146721439Y-90948166D01*
X146756550Y-91161588D01*
X146960826Y-91252458D01*
X147178905Y-91301731D01*
X147192998Y-91302095D01*
X147192998Y-91389844D01*
X146963110Y-91268524D01*
X146815901Y-91313175D01*
X146553080Y-91438359D01*
X146319731Y-91612412D01*
X146124822Y-91828645D01*
X146050000Y-91954255D01*
X145975178Y-91828645D01*
X145780269Y-91612412D01*
X145546920Y-91438359D01*
X145284099Y-91313175D01*
X145136890Y-91268524D01*
X144907002Y-91389844D01*
X144907002Y-91299833D01*
X145082740Y-91269577D01*
X145291440Y-91189387D01*
X145343450Y-91161588D01*
X145378561Y-90948166D01*
X144780000Y-90349605D01*
X144181439Y-90948166D01*
X144216550Y-91161588D01*
X144420826Y-91252458D01*
X144638905Y-91301731D01*
X144652998Y-91302095D01*
X144652998Y-91389844D01*
X144423110Y-91268524D01*
X144275901Y-91313175D01*
X144013080Y-91438359D01*
X143779731Y-91612412D01*
X143584822Y-91828645D01*
X143510000Y-91954255D01*
X143435178Y-91828645D01*
X143240269Y-91612412D01*
X143006920Y-91438359D01*
X142744099Y-91313175D01*
X142596890Y-91268524D01*
X142367002Y-91389844D01*
X142367002Y-91299833D01*
X142542740Y-91269577D01*
X142751440Y-91189387D01*
X142803450Y-91161588D01*
X142838561Y-90948166D01*
X142240000Y-90349605D01*
X141641439Y-90948166D01*
X141676550Y-91161588D01*
X141880826Y-91252458D01*
X142098905Y-91301731D01*
X142112998Y-91302095D01*
X142112998Y-91389844D01*
X141883110Y-91268524D01*
X141735901Y-91313175D01*
X141473080Y-91438359D01*
X141239731Y-91612412D01*
X141044822Y-91828645D01*
X140970000Y-91954255D01*
X140895178Y-91828645D01*
X140700269Y-91612412D01*
X140466920Y-91438359D01*
X140204099Y-91313175D01*
X140056890Y-91268524D01*
X139827002Y-91389844D01*
X139827002Y-91299833D01*
X140002740Y-91269577D01*
X140211440Y-91189387D01*
X140263450Y-91161588D01*
X140298561Y-90948166D01*
X139700000Y-90349605D01*
X139101439Y-90948166D01*
X139136550Y-91161588D01*
X139340826Y-91252458D01*
X139558905Y-91301731D01*
X139572998Y-91302095D01*
X139572998Y-91389844D01*
X139343110Y-91268524D01*
X139195901Y-91313175D01*
X138933080Y-91438359D01*
X138699731Y-91612412D01*
X138504822Y-91828645D01*
X138430000Y-91954255D01*
X138355178Y-91828645D01*
X138160269Y-91612412D01*
X137926920Y-91438359D01*
X137664099Y-91313175D01*
X137516890Y-91268524D01*
X137287002Y-91389844D01*
X137287002Y-91299833D01*
X137462740Y-91269577D01*
X137671440Y-91189387D01*
X137723450Y-91161588D01*
X137758561Y-90948166D01*
X137160000Y-90349605D01*
X136561439Y-90948166D01*
X136596550Y-91161588D01*
X136800826Y-91252458D01*
X137018905Y-91301731D01*
X137032998Y-91302095D01*
X137032998Y-91389844D01*
X136803110Y-91268524D01*
X136655901Y-91313175D01*
X136393080Y-91438359D01*
X136159731Y-91612412D01*
X135964822Y-91828645D01*
X135890000Y-91954255D01*
X135815178Y-91828645D01*
X135620269Y-91612412D01*
X135386920Y-91438359D01*
X135124099Y-91313175D01*
X134976890Y-91268524D01*
X134747002Y-91389844D01*
X134747002Y-91299833D01*
X134922740Y-91269577D01*
X135131440Y-91189387D01*
X135183450Y-91161588D01*
X135218561Y-90948166D01*
X134620000Y-90349605D01*
X134021439Y-90948166D01*
X134056550Y-91161588D01*
X134260826Y-91252458D01*
X134478905Y-91301731D01*
X134492998Y-91302095D01*
X134492998Y-91389844D01*
X134263110Y-91268524D01*
X134115901Y-91313175D01*
X133853080Y-91438359D01*
X133619731Y-91612412D01*
X133424822Y-91828645D01*
X133350000Y-91954255D01*
X133275178Y-91828645D01*
X133080269Y-91612412D01*
X132846920Y-91438359D01*
X132584099Y-91313175D01*
X132436890Y-91268524D01*
X132207002Y-91389844D01*
X132207002Y-91299833D01*
X132382740Y-91269577D01*
X132591440Y-91189387D01*
X132643450Y-91161588D01*
X132678561Y-90948166D01*
X132080000Y-90349605D01*
X131481439Y-90948166D01*
X131516550Y-91161588D01*
X131720826Y-91252458D01*
X131938905Y-91301731D01*
X131952998Y-91302095D01*
X131952998Y-91389844D01*
X131723110Y-91268524D01*
X131575901Y-91313175D01*
X131313080Y-91438359D01*
X131079731Y-91612412D01*
X130884822Y-91828645D01*
X130810000Y-91954255D01*
X130735178Y-91828645D01*
X130540269Y-91612412D01*
X130306920Y-91438359D01*
X130044099Y-91313175D01*
X129896890Y-91268524D01*
X129667002Y-91389844D01*
X129667002Y-91299833D01*
X129842740Y-91269577D01*
X130051440Y-91189387D01*
X130103450Y-91161588D01*
X130138561Y-90948166D01*
X129540000Y-90349605D01*
X128941439Y-90948166D01*
X128976550Y-91161588D01*
X129180826Y-91252458D01*
X129398905Y-91301731D01*
X129412998Y-91302095D01*
X129412998Y-91389844D01*
X129183110Y-91268524D01*
X129035901Y-91313175D01*
X128773080Y-91438359D01*
X128539731Y-91612412D01*
X128344822Y-91828645D01*
X128270000Y-91954255D01*
X128195178Y-91828645D01*
X128000269Y-91612412D01*
X127766920Y-91438359D01*
X127504099Y-91313175D01*
X127356890Y-91268524D01*
X127127002Y-91389844D01*
X127127002Y-91299833D01*
X127302740Y-91269577D01*
X127511440Y-91189387D01*
X127563450Y-91161588D01*
X127598561Y-90948166D01*
X127000000Y-90349605D01*
X126401439Y-90948166D01*
X126436550Y-91161588D01*
X126640826Y-91252458D01*
X126858905Y-91301731D01*
X126872998Y-91302095D01*
X126872998Y-91389844D01*
X126643110Y-91268524D01*
X126495901Y-91313175D01*
X126233080Y-91438359D01*
X125999731Y-91612412D01*
X125804822Y-91828645D01*
X125730000Y-91954255D01*
X125655178Y-91828645D01*
X125460269Y-91612412D01*
X125226920Y-91438359D01*
X124964099Y-91313175D01*
X124816890Y-91268524D01*
X124587002Y-91389844D01*
X124587002Y-91299833D01*
X124762740Y-91269577D01*
X124971440Y-91189387D01*
X125023450Y-91161588D01*
X125058561Y-90948166D01*
X124460000Y-90349605D01*
X123861439Y-90948166D01*
X123896550Y-91161588D01*
X124100826Y-91252458D01*
X124318905Y-91301731D01*
X124332998Y-91302095D01*
X124332998Y-91389844D01*
X124103110Y-91268524D01*
X123955901Y-91313175D01*
X123693080Y-91438359D01*
X123459731Y-91612412D01*
X123264822Y-91828645D01*
X123190000Y-91954255D01*
X123115178Y-91828645D01*
X122920269Y-91612412D01*
X122686920Y-91438359D01*
X122424099Y-91313175D01*
X122276890Y-91268524D01*
X122047002Y-91389844D01*
X122047002Y-91299833D01*
X122222740Y-91269577D01*
X122431440Y-91189387D01*
X122483450Y-91161588D01*
X122518561Y-90948166D01*
X121920000Y-90349605D01*
X121321439Y-90948166D01*
X121356550Y-91161588D01*
X121560826Y-91252458D01*
X121778905Y-91301731D01*
X121792998Y-91302095D01*
X121792998Y-91389844D01*
X121563110Y-91268524D01*
X121415901Y-91313175D01*
X121153080Y-91438359D01*
X120919731Y-91612412D01*
X120724822Y-91828645D01*
X120650000Y-91954255D01*
X120575178Y-91828645D01*
X120380269Y-91612412D01*
X120146920Y-91438359D01*
X119884099Y-91313175D01*
X119736890Y-91268524D01*
X119507002Y-91389844D01*
X119507002Y-91299833D01*
X119682740Y-91269577D01*
X119891440Y-91189387D01*
X119943450Y-91161588D01*
X119978561Y-90948166D01*
X119380000Y-90349605D01*
X118781439Y-90948166D01*
X118816550Y-91161588D01*
X119020826Y-91252458D01*
X119238905Y-91301731D01*
X119252998Y-91302095D01*
X119252998Y-91389844D01*
X119023110Y-91268524D01*
X118875901Y-91313175D01*
X118613080Y-91438359D01*
X118379731Y-91612412D01*
X118184822Y-91828645D01*
X118110000Y-91954255D01*
X118035178Y-91828645D01*
X117840269Y-91612412D01*
X117606920Y-91438359D01*
X117344099Y-91313175D01*
X117196890Y-91268524D01*
X116967002Y-91389844D01*
X116967002Y-91299833D01*
X117142740Y-91269577D01*
X117351440Y-91189387D01*
X117403450Y-91161588D01*
X117438561Y-90948166D01*
X116840000Y-90349605D01*
X116241439Y-90948166D01*
X116276550Y-91161588D01*
X116480826Y-91252458D01*
X116698905Y-91301731D01*
X116712998Y-91302095D01*
X116712998Y-91389844D01*
X116483110Y-91268524D01*
X116335901Y-91313175D01*
X116073080Y-91438359D01*
X115839731Y-91612412D01*
X115644822Y-91828645D01*
X115570000Y-91954255D01*
X115495178Y-91828645D01*
X115300269Y-91612412D01*
X115066920Y-91438359D01*
X114804099Y-91313175D01*
X114656890Y-91268524D01*
X114427002Y-91389844D01*
X114427002Y-91299833D01*
X114602740Y-91269577D01*
X114811440Y-91189387D01*
X114863450Y-91161588D01*
X114898561Y-90948166D01*
X114300000Y-90349605D01*
X113701439Y-90948166D01*
X113736550Y-91161588D01*
X113940826Y-91252458D01*
X114158905Y-91301731D01*
X114172998Y-91302095D01*
X114172998Y-91389844D01*
X113943110Y-91268524D01*
X113795901Y-91313175D01*
X113533080Y-91438359D01*
X113299731Y-91612412D01*
X113104822Y-91828645D01*
X113030000Y-91954255D01*
X112955178Y-91828645D01*
X112760269Y-91612412D01*
X112526920Y-91438359D01*
X112264099Y-91313175D01*
X112116890Y-91268524D01*
X111887002Y-91389844D01*
X111887002Y-91299833D01*
X112062740Y-91269577D01*
X112271440Y-91189387D01*
X112323450Y-91161588D01*
X112358561Y-90948166D01*
X111760000Y-90349605D01*
X111161439Y-90948166D01*
X111196550Y-91161588D01*
X111400826Y-91252458D01*
X111618905Y-91301731D01*
X111632998Y-91302095D01*
X111632998Y-91389844D01*
X111403110Y-91268524D01*
X111255901Y-91313175D01*
X110993080Y-91438359D01*
X110759731Y-91612412D01*
X110564822Y-91828645D01*
X110415843Y-92078748D01*
X110318519Y-92353109D01*
X104005000Y-92353109D01*
X104005000Y-91963212D01*
X103994068Y-91908253D01*
X103988577Y-91852501D01*
X103972315Y-91798894D01*
X103961383Y-91743933D01*
X103939937Y-91692158D01*
X103923676Y-91638553D01*
X103897269Y-91589149D01*
X103875824Y-91537376D01*
X103844693Y-91490786D01*
X103818284Y-91441377D01*
X103782741Y-91398068D01*
X103751612Y-91351480D01*
X103711991Y-91311859D01*
X103676449Y-91268551D01*
X103633141Y-91233009D01*
X103593520Y-91193388D01*
X103546932Y-91162259D01*
X103503623Y-91126716D01*
X103454215Y-91100307D01*
X103407624Y-91069176D01*
X103355848Y-91047730D01*
X103306446Y-91021324D01*
X103252845Y-91005064D01*
X103201067Y-90983617D01*
X103146103Y-90972684D01*
X103092498Y-90956423D01*
X103036748Y-90950932D01*
X102981788Y-90940000D01*
X102925751Y-90940000D01*
X102870000Y-90934509D01*
X102814248Y-90940000D01*
X102758212Y-90940000D01*
X102703253Y-90950932D01*
X102647501Y-90956423D01*
X102593894Y-90972685D01*
X102538933Y-90983617D01*
X102487158Y-91005063D01*
X102433553Y-91021324D01*
X102384149Y-91047731D01*
X102332376Y-91069176D01*
X102285786Y-91100307D01*
X102236377Y-91126716D01*
X102193068Y-91162259D01*
X102146480Y-91193388D01*
X102106859Y-91233009D01*
X102063551Y-91268551D01*
X102028009Y-91311859D01*
X101988388Y-91351480D01*
X101957259Y-91398068D01*
X101921716Y-91441377D01*
X101895307Y-91490785D01*
X101864176Y-91537376D01*
X101842730Y-91589152D01*
X101816324Y-91638554D01*
X101800064Y-91692155D01*
X101778617Y-91743933D01*
X101767684Y-91798897D01*
X101751423Y-91852502D01*
X101745932Y-91908252D01*
X101735000Y-91963212D01*
X101735000Y-92019249D01*
X101735001Y-93832317D01*
X101665506Y-93869463D01*
X101568815Y-93948815D01*
X101489463Y-94045506D01*
X101430498Y-94155820D01*
X101406034Y-94236466D01*
X101330269Y-94152412D01*
X101096920Y-93978359D01*
X100834099Y-93853175D01*
X100686890Y-93808524D01*
X100457000Y-93929845D01*
X100203000Y-93929845D01*
X99973110Y-93808524D01*
X99825901Y-93853175D01*
X99563080Y-93978359D01*
X99329731Y-94152412D01*
X99134822Y-94368645D01*
X99060000Y-94494255D01*
X98985178Y-94368645D01*
X98790269Y-94152412D01*
X98556920Y-93978359D01*
X98294099Y-93853175D01*
X98146890Y-93808524D01*
X97917000Y-93929845D01*
X97663000Y-93929845D01*
X97433110Y-93808524D01*
X97285901Y-93853175D01*
X97023080Y-93978359D01*
X96789731Y-94152412D01*
X96594822Y-94368645D01*
X96525201Y-94485523D01*
X96490706Y-94420986D01*
X96305134Y-94194866D01*
X96079014Y-94009294D01*
X96010000Y-93972405D01*
X96010000Y-92920132D01*
X96076966Y-92853166D01*
X97191439Y-92853166D01*
X97226550Y-93066588D01*
X97430826Y-93157458D01*
X97648905Y-93206731D01*
X97872406Y-93212511D01*
X98092740Y-93174577D01*
X98301440Y-93094387D01*
X98353450Y-93066588D01*
X98388561Y-92853166D01*
X99731439Y-92853166D01*
X99766550Y-93066588D01*
X99970826Y-93157458D01*
X100188905Y-93206731D01*
X100412406Y-93212511D01*
X100632740Y-93174577D01*
X100841440Y-93094387D01*
X100893450Y-93066588D01*
X100928561Y-92853166D01*
X100330000Y-92254605D01*
X99731439Y-92853166D01*
X98388561Y-92853166D01*
X97790000Y-92254605D01*
X97191439Y-92853166D01*
X96076966Y-92853166D01*
X96131612Y-92798520D01*
X96255824Y-92612624D01*
X96341383Y-92406067D01*
X96385000Y-92186788D01*
X96385000Y-92157406D01*
X96652489Y-92157406D01*
X96690423Y-92377740D01*
X96770613Y-92586440D01*
X96798412Y-92638450D01*
X97011834Y-92673561D01*
X97610395Y-92075000D01*
X97969605Y-92075000D01*
X98568166Y-92673561D01*
X98781588Y-92638450D01*
X98872458Y-92434174D01*
X98921731Y-92216095D01*
X98923248Y-92157406D01*
X99192489Y-92157406D01*
X99230423Y-92377740D01*
X99310613Y-92586440D01*
X99338412Y-92638450D01*
X99551834Y-92673561D01*
X100150395Y-92075000D01*
X100509605Y-92075000D01*
X101108166Y-92673561D01*
X101321588Y-92638450D01*
X101412458Y-92434174D01*
X101461731Y-92216095D01*
X101467511Y-91992594D01*
X101429577Y-91772260D01*
X101349387Y-91563560D01*
X101321588Y-91511550D01*
X101108166Y-91476439D01*
X100509605Y-92075000D01*
X100150395Y-92075000D01*
X99551834Y-91476439D01*
X99338412Y-91511550D01*
X99247542Y-91715826D01*
X99198269Y-91933905D01*
X99192489Y-92157406D01*
X98923248Y-92157406D01*
X98927511Y-91992594D01*
X98889577Y-91772260D01*
X98809387Y-91563560D01*
X98781588Y-91511550D01*
X98568166Y-91476439D01*
X97969605Y-92075000D01*
X97610395Y-92075000D01*
X97011834Y-91476439D01*
X96798412Y-91511550D01*
X96707542Y-91715826D01*
X96658269Y-91933905D01*
X96652489Y-92157406D01*
X96385000Y-92157406D01*
X96385000Y-91963212D01*
X96341383Y-91743933D01*
X96255824Y-91537376D01*
X96131612Y-91351480D01*
X96076966Y-91296834D01*
X97191439Y-91296834D01*
X97790000Y-91895395D01*
X98388561Y-91296834D01*
X99731439Y-91296834D01*
X100330000Y-91895395D01*
X100928561Y-91296834D01*
X100893450Y-91083412D01*
X100689174Y-90992542D01*
X100471095Y-90943269D01*
X100247594Y-90937489D01*
X100027260Y-90975423D01*
X99818560Y-91055613D01*
X99766550Y-91083412D01*
X99731439Y-91296834D01*
X98388561Y-91296834D01*
X98353450Y-91083412D01*
X98149174Y-90992542D01*
X97931095Y-90943269D01*
X97707594Y-90937489D01*
X97487260Y-90975423D01*
X97278560Y-91055613D01*
X97226550Y-91083412D01*
X97191439Y-91296834D01*
X96076966Y-91296834D01*
X95973520Y-91193388D01*
X95787624Y-91069176D01*
X95581067Y-90983617D01*
X95361788Y-90940000D01*
X95138212Y-90940000D01*
X94918933Y-90983617D01*
X94712376Y-91069176D01*
X94526480Y-91193388D01*
X94368388Y-91351480D01*
X94244176Y-91537376D01*
X94158617Y-91743933D01*
X94115000Y-91963212D01*
X94115000Y-92186788D01*
X94158617Y-92406067D01*
X94244176Y-92612624D01*
X94368388Y-92798520D01*
X94490000Y-92920132D01*
X94490001Y-93972405D01*
X94420986Y-94009294D01*
X94194866Y-94194866D01*
X94009294Y-94420986D01*
X93871401Y-94678966D01*
X93786487Y-94958889D01*
X93757815Y-95250000D01*
X91973000Y-95250000D01*
X91973000Y-90252406D01*
X110622489Y-90252406D01*
X110660423Y-90472740D01*
X110740613Y-90681440D01*
X110768412Y-90733450D01*
X110981834Y-90768561D01*
X111580395Y-90170000D01*
X111939605Y-90170000D01*
X112538166Y-90768561D01*
X112751588Y-90733450D01*
X112842458Y-90529174D01*
X112891731Y-90311095D01*
X112893248Y-90252406D01*
X113162489Y-90252406D01*
X113200423Y-90472740D01*
X113280613Y-90681440D01*
X113308412Y-90733450D01*
X113521834Y-90768561D01*
X114120395Y-90170000D01*
X114479605Y-90170000D01*
X115078166Y-90768561D01*
X115291588Y-90733450D01*
X115382458Y-90529174D01*
X115431731Y-90311095D01*
X115433248Y-90252406D01*
X115702489Y-90252406D01*
X115740423Y-90472740D01*
X115820613Y-90681440D01*
X115848412Y-90733450D01*
X116061834Y-90768561D01*
X116660395Y-90170000D01*
X117019605Y-90170000D01*
X117618166Y-90768561D01*
X117831588Y-90733450D01*
X117922458Y-90529174D01*
X117971731Y-90311095D01*
X117973248Y-90252406D01*
X118242489Y-90252406D01*
X118280423Y-90472740D01*
X118360613Y-90681440D01*
X118388412Y-90733450D01*
X118601834Y-90768561D01*
X119200395Y-90170000D01*
X119559605Y-90170000D01*
X120158166Y-90768561D01*
X120371588Y-90733450D01*
X120462458Y-90529174D01*
X120511731Y-90311095D01*
X120513248Y-90252406D01*
X120782489Y-90252406D01*
X120820423Y-90472740D01*
X120900613Y-90681440D01*
X120928412Y-90733450D01*
X121141834Y-90768561D01*
X121740395Y-90170000D01*
X122099605Y-90170000D01*
X122698166Y-90768561D01*
X122911588Y-90733450D01*
X123002458Y-90529174D01*
X123051731Y-90311095D01*
X123053248Y-90252406D01*
X123322489Y-90252406D01*
X123360423Y-90472740D01*
X123440613Y-90681440D01*
X123468412Y-90733450D01*
X123681834Y-90768561D01*
X124280395Y-90170000D01*
X124639605Y-90170000D01*
X125238166Y-90768561D01*
X125451588Y-90733450D01*
X125542458Y-90529174D01*
X125591731Y-90311095D01*
X125593248Y-90252406D01*
X125862489Y-90252406D01*
X125900423Y-90472740D01*
X125980613Y-90681440D01*
X126008412Y-90733450D01*
X126221834Y-90768561D01*
X126820395Y-90170000D01*
X127179605Y-90170000D01*
X127778166Y-90768561D01*
X127991588Y-90733450D01*
X128082458Y-90529174D01*
X128131731Y-90311095D01*
X128133248Y-90252406D01*
X128402489Y-90252406D01*
X128440423Y-90472740D01*
X128520613Y-90681440D01*
X128548412Y-90733450D01*
X128761834Y-90768561D01*
X129360395Y-90170000D01*
X129719605Y-90170000D01*
X130318166Y-90768561D01*
X130531588Y-90733450D01*
X130622458Y-90529174D01*
X130671731Y-90311095D01*
X130673248Y-90252406D01*
X130942489Y-90252406D01*
X130980423Y-90472740D01*
X131060613Y-90681440D01*
X131088412Y-90733450D01*
X131301834Y-90768561D01*
X131900395Y-90170000D01*
X132259605Y-90170000D01*
X132858166Y-90768561D01*
X133071588Y-90733450D01*
X133162458Y-90529174D01*
X133211731Y-90311095D01*
X133213248Y-90252406D01*
X133482489Y-90252406D01*
X133520423Y-90472740D01*
X133600613Y-90681440D01*
X133628412Y-90733450D01*
X133841834Y-90768561D01*
X134440395Y-90170000D01*
X134799605Y-90170000D01*
X135398166Y-90768561D01*
X135611588Y-90733450D01*
X135702458Y-90529174D01*
X135751731Y-90311095D01*
X135753248Y-90252406D01*
X136022489Y-90252406D01*
X136060423Y-90472740D01*
X136140613Y-90681440D01*
X136168412Y-90733450D01*
X136381834Y-90768561D01*
X136980395Y-90170000D01*
X137339605Y-90170000D01*
X137938166Y-90768561D01*
X138151588Y-90733450D01*
X138242458Y-90529174D01*
X138291731Y-90311095D01*
X138293248Y-90252406D01*
X138562489Y-90252406D01*
X138600423Y-90472740D01*
X138680613Y-90681440D01*
X138708412Y-90733450D01*
X138921834Y-90768561D01*
X139520395Y-90170000D01*
X139879605Y-90170000D01*
X140478166Y-90768561D01*
X140691588Y-90733450D01*
X140782458Y-90529174D01*
X140831731Y-90311095D01*
X140833248Y-90252406D01*
X141102489Y-90252406D01*
X141140423Y-90472740D01*
X141220613Y-90681440D01*
X141248412Y-90733450D01*
X141461834Y-90768561D01*
X142060395Y-90170000D01*
X142419605Y-90170000D01*
X143018166Y-90768561D01*
X143231588Y-90733450D01*
X143322458Y-90529174D01*
X143371731Y-90311095D01*
X143373248Y-90252406D01*
X143642489Y-90252406D01*
X143680423Y-90472740D01*
X143760613Y-90681440D01*
X143788412Y-90733450D01*
X144001834Y-90768561D01*
X144600395Y-90170000D01*
X144959605Y-90170000D01*
X145558166Y-90768561D01*
X145771588Y-90733450D01*
X145862458Y-90529174D01*
X145911731Y-90311095D01*
X145913248Y-90252406D01*
X146182489Y-90252406D01*
X146220423Y-90472740D01*
X146300613Y-90681440D01*
X146328412Y-90733450D01*
X146541834Y-90768561D01*
X147140395Y-90170000D01*
X147499605Y-90170000D01*
X148098166Y-90768561D01*
X148311588Y-90733450D01*
X148402458Y-90529174D01*
X148451731Y-90311095D01*
X148453248Y-90252406D01*
X148722489Y-90252406D01*
X148760423Y-90472740D01*
X148840613Y-90681440D01*
X148868412Y-90733450D01*
X149081834Y-90768561D01*
X149680395Y-90170000D01*
X150039605Y-90170000D01*
X150638166Y-90768561D01*
X150851588Y-90733450D01*
X150942458Y-90529174D01*
X150991731Y-90311095D01*
X150993248Y-90252406D01*
X151262489Y-90252406D01*
X151300423Y-90472740D01*
X151380613Y-90681440D01*
X151408412Y-90733450D01*
X151621834Y-90768561D01*
X152220395Y-90170000D01*
X152579605Y-90170000D01*
X153178166Y-90768561D01*
X153391588Y-90733450D01*
X153482458Y-90529174D01*
X153531731Y-90311095D01*
X153537511Y-90087594D01*
X153499577Y-89867260D01*
X153419387Y-89658560D01*
X153391588Y-89606550D01*
X153178166Y-89571439D01*
X152579605Y-90170000D01*
X152220395Y-90170000D01*
X151621834Y-89571439D01*
X151408412Y-89606550D01*
X151317542Y-89810826D01*
X151268269Y-90028905D01*
X151262489Y-90252406D01*
X150993248Y-90252406D01*
X150997511Y-90087594D01*
X150959577Y-89867260D01*
X150879387Y-89658560D01*
X150851588Y-89606550D01*
X150638166Y-89571439D01*
X150039605Y-90170000D01*
X149680395Y-90170000D01*
X149081834Y-89571439D01*
X148868412Y-89606550D01*
X148777542Y-89810826D01*
X148728269Y-90028905D01*
X148722489Y-90252406D01*
X148453248Y-90252406D01*
X148457511Y-90087594D01*
X148419577Y-89867260D01*
X148339387Y-89658560D01*
X148311588Y-89606550D01*
X148098166Y-89571439D01*
X147499605Y-90170000D01*
X147140395Y-90170000D01*
X146541834Y-89571439D01*
X146328412Y-89606550D01*
X146237542Y-89810826D01*
X146188269Y-90028905D01*
X146182489Y-90252406D01*
X145913248Y-90252406D01*
X145917511Y-90087594D01*
X145879577Y-89867260D01*
X145799387Y-89658560D01*
X145771588Y-89606550D01*
X145558166Y-89571439D01*
X144959605Y-90170000D01*
X144600395Y-90170000D01*
X144001834Y-89571439D01*
X143788412Y-89606550D01*
X143697542Y-89810826D01*
X143648269Y-90028905D01*
X143642489Y-90252406D01*
X143373248Y-90252406D01*
X143377511Y-90087594D01*
X143339577Y-89867260D01*
X143259387Y-89658560D01*
X143231588Y-89606550D01*
X143018166Y-89571439D01*
X142419605Y-90170000D01*
X142060395Y-90170000D01*
X141461834Y-89571439D01*
X141248412Y-89606550D01*
X141157542Y-89810826D01*
X141108269Y-90028905D01*
X141102489Y-90252406D01*
X140833248Y-90252406D01*
X140837511Y-90087594D01*
X140799577Y-89867260D01*
X140719387Y-89658560D01*
X140691588Y-89606550D01*
X140478166Y-89571439D01*
X139879605Y-90170000D01*
X139520395Y-90170000D01*
X138921834Y-89571439D01*
X138708412Y-89606550D01*
X138617542Y-89810826D01*
X138568269Y-90028905D01*
X138562489Y-90252406D01*
X138293248Y-90252406D01*
X138297511Y-90087594D01*
X138259577Y-89867260D01*
X138179387Y-89658560D01*
X138151588Y-89606550D01*
X137938166Y-89571439D01*
X137339605Y-90170000D01*
X136980395Y-90170000D01*
X136381834Y-89571439D01*
X136168412Y-89606550D01*
X136077542Y-89810826D01*
X136028269Y-90028905D01*
X136022489Y-90252406D01*
X135753248Y-90252406D01*
X135757511Y-90087594D01*
X135719577Y-89867260D01*
X135639387Y-89658560D01*
X135611588Y-89606550D01*
X135398166Y-89571439D01*
X134799605Y-90170000D01*
X134440395Y-90170000D01*
X133841834Y-89571439D01*
X133628412Y-89606550D01*
X133537542Y-89810826D01*
X133488269Y-90028905D01*
X133482489Y-90252406D01*
X133213248Y-90252406D01*
X133217511Y-90087594D01*
X133179577Y-89867260D01*
X133099387Y-89658560D01*
X133071588Y-89606550D01*
X132858166Y-89571439D01*
X132259605Y-90170000D01*
X131900395Y-90170000D01*
X131301834Y-89571439D01*
X131088412Y-89606550D01*
X130997542Y-89810826D01*
X130948269Y-90028905D01*
X130942489Y-90252406D01*
X130673248Y-90252406D01*
X130677511Y-90087594D01*
X130639577Y-89867260D01*
X130559387Y-89658560D01*
X130531588Y-89606550D01*
X130318166Y-89571439D01*
X129719605Y-90170000D01*
X129360395Y-90170000D01*
X128761834Y-89571439D01*
X128548412Y-89606550D01*
X128457542Y-89810826D01*
X128408269Y-90028905D01*
X128402489Y-90252406D01*
X128133248Y-90252406D01*
X128137511Y-90087594D01*
X128099577Y-89867260D01*
X128019387Y-89658560D01*
X127991588Y-89606550D01*
X127778166Y-89571439D01*
X127179605Y-90170000D01*
X126820395Y-90170000D01*
X126221834Y-89571439D01*
X126008412Y-89606550D01*
X125917542Y-89810826D01*
X125868269Y-90028905D01*
X125862489Y-90252406D01*
X125593248Y-90252406D01*
X125597511Y-90087594D01*
X125559577Y-89867260D01*
X125479387Y-89658560D01*
X125451588Y-89606550D01*
X125238166Y-89571439D01*
X124639605Y-90170000D01*
X124280395Y-90170000D01*
X123681834Y-89571439D01*
X123468412Y-89606550D01*
X123377542Y-89810826D01*
X123328269Y-90028905D01*
X123322489Y-90252406D01*
X123053248Y-90252406D01*
X123057511Y-90087594D01*
X123019577Y-89867260D01*
X122939387Y-89658560D01*
X122911588Y-89606550D01*
X122698166Y-89571439D01*
X122099605Y-90170000D01*
X121740395Y-90170000D01*
X121141834Y-89571439D01*
X120928412Y-89606550D01*
X120837542Y-89810826D01*
X120788269Y-90028905D01*
X120782489Y-90252406D01*
X120513248Y-90252406D01*
X120517511Y-90087594D01*
X120479577Y-89867260D01*
X120399387Y-89658560D01*
X120371588Y-89606550D01*
X120158166Y-89571439D01*
X119559605Y-90170000D01*
X119200395Y-90170000D01*
X118601834Y-89571439D01*
X118388412Y-89606550D01*
X118297542Y-89810826D01*
X118248269Y-90028905D01*
X118242489Y-90252406D01*
X117973248Y-90252406D01*
X117977511Y-90087594D01*
X117939577Y-89867260D01*
X117859387Y-89658560D01*
X117831588Y-89606550D01*
X117618166Y-89571439D01*
X117019605Y-90170000D01*
X116660395Y-90170000D01*
X116061834Y-89571439D01*
X115848412Y-89606550D01*
X115757542Y-89810826D01*
X115708269Y-90028905D01*
X115702489Y-90252406D01*
X115433248Y-90252406D01*
X115437511Y-90087594D01*
X115399577Y-89867260D01*
X115319387Y-89658560D01*
X115291588Y-89606550D01*
X115078166Y-89571439D01*
X114479605Y-90170000D01*
X114120395Y-90170000D01*
X113521834Y-89571439D01*
X113308412Y-89606550D01*
X113217542Y-89810826D01*
X113168269Y-90028905D01*
X113162489Y-90252406D01*
X112893248Y-90252406D01*
X112897511Y-90087594D01*
X112859577Y-89867260D01*
X112779387Y-89658560D01*
X112751588Y-89606550D01*
X112538166Y-89571439D01*
X111939605Y-90170000D01*
X111580395Y-90170000D01*
X110981834Y-89571439D01*
X110768412Y-89606550D01*
X110677542Y-89810826D01*
X110628269Y-90028905D01*
X110622489Y-90252406D01*
X91973000Y-90252406D01*
X91973000Y-89391834D01*
X111161439Y-89391834D01*
X111760000Y-89990395D01*
X112358561Y-89391834D01*
X113701439Y-89391834D01*
X114300000Y-89990395D01*
X114898561Y-89391834D01*
X116241439Y-89391834D01*
X116840000Y-89990395D01*
X117438561Y-89391834D01*
X118781439Y-89391834D01*
X119380000Y-89990395D01*
X119978561Y-89391834D01*
X121321439Y-89391834D01*
X121920000Y-89990395D01*
X122518561Y-89391834D01*
X123861439Y-89391834D01*
X124460000Y-89990395D01*
X125058561Y-89391834D01*
X126401439Y-89391834D01*
X127000000Y-89990395D01*
X127598561Y-89391834D01*
X128941439Y-89391834D01*
X129540000Y-89990395D01*
X130138561Y-89391834D01*
X131481439Y-89391834D01*
X132080000Y-89990395D01*
X132678561Y-89391834D01*
X134021439Y-89391834D01*
X134620000Y-89990395D01*
X135218561Y-89391834D01*
X136561439Y-89391834D01*
X137160000Y-89990395D01*
X137758561Y-89391834D01*
X139101439Y-89391834D01*
X139700000Y-89990395D01*
X140298561Y-89391834D01*
X141641439Y-89391834D01*
X142240000Y-89990395D01*
X142838561Y-89391834D01*
X144181439Y-89391834D01*
X144780000Y-89990395D01*
X145378561Y-89391834D01*
X146721439Y-89391834D01*
X147320000Y-89990395D01*
X147918561Y-89391834D01*
X149261439Y-89391834D01*
X149860000Y-89990395D01*
X150458561Y-89391834D01*
X151801439Y-89391834D01*
X152400000Y-89990395D01*
X152998561Y-89391834D01*
X152963450Y-89178412D01*
X152759174Y-89087542D01*
X152541095Y-89038269D01*
X152317594Y-89032489D01*
X152097260Y-89070423D01*
X151888560Y-89150613D01*
X151836550Y-89178412D01*
X151801439Y-89391834D01*
X150458561Y-89391834D01*
X150423450Y-89178412D01*
X150219174Y-89087542D01*
X150001095Y-89038269D01*
X149777594Y-89032489D01*
X149557260Y-89070423D01*
X149348560Y-89150613D01*
X149296550Y-89178412D01*
X149261439Y-89391834D01*
X147918561Y-89391834D01*
X147883450Y-89178412D01*
X147679174Y-89087542D01*
X147461095Y-89038269D01*
X147237594Y-89032489D01*
X147017260Y-89070423D01*
X146808560Y-89150613D01*
X146756550Y-89178412D01*
X146721439Y-89391834D01*
X145378561Y-89391834D01*
X145343450Y-89178412D01*
X145139174Y-89087542D01*
X144921095Y-89038269D01*
X144697594Y-89032489D01*
X144477260Y-89070423D01*
X144268560Y-89150613D01*
X144216550Y-89178412D01*
X144181439Y-89391834D01*
X142838561Y-89391834D01*
X142803450Y-89178412D01*
X142599174Y-89087542D01*
X142381095Y-89038269D01*
X142157594Y-89032489D01*
X141937260Y-89070423D01*
X141728560Y-89150613D01*
X141676550Y-89178412D01*
X141641439Y-89391834D01*
X140298561Y-89391834D01*
X140263450Y-89178412D01*
X140059174Y-89087542D01*
X139841095Y-89038269D01*
X139617594Y-89032489D01*
X139397260Y-89070423D01*
X139188560Y-89150613D01*
X139136550Y-89178412D01*
X139101439Y-89391834D01*
X137758561Y-89391834D01*
X137723450Y-89178412D01*
X137519174Y-89087542D01*
X137301095Y-89038269D01*
X137077594Y-89032489D01*
X136857260Y-89070423D01*
X136648560Y-89150613D01*
X136596550Y-89178412D01*
X136561439Y-89391834D01*
X135218561Y-89391834D01*
X135183450Y-89178412D01*
X134979174Y-89087542D01*
X134761095Y-89038269D01*
X134537594Y-89032489D01*
X134317260Y-89070423D01*
X134108560Y-89150613D01*
X134056550Y-89178412D01*
X134021439Y-89391834D01*
X132678561Y-89391834D01*
X132643450Y-89178412D01*
X132439174Y-89087542D01*
X132221095Y-89038269D01*
X131997594Y-89032489D01*
X131777260Y-89070423D01*
X131568560Y-89150613D01*
X131516550Y-89178412D01*
X131481439Y-89391834D01*
X130138561Y-89391834D01*
X130103450Y-89178412D01*
X129899174Y-89087542D01*
X129681095Y-89038269D01*
X129457594Y-89032489D01*
X129237260Y-89070423D01*
X129028560Y-89150613D01*
X128976550Y-89178412D01*
X128941439Y-89391834D01*
X127598561Y-89391834D01*
X127563450Y-89178412D01*
X127359174Y-89087542D01*
X127141095Y-89038269D01*
X126917594Y-89032489D01*
X126697260Y-89070423D01*
X126488560Y-89150613D01*
X126436550Y-89178412D01*
X126401439Y-89391834D01*
X125058561Y-89391834D01*
X125023450Y-89178412D01*
X124819174Y-89087542D01*
X124601095Y-89038269D01*
X124377594Y-89032489D01*
X124157260Y-89070423D01*
X123948560Y-89150613D01*
X123896550Y-89178412D01*
X123861439Y-89391834D01*
X122518561Y-89391834D01*
X122483450Y-89178412D01*
X122279174Y-89087542D01*
X122061095Y-89038269D01*
X121837594Y-89032489D01*
X121617260Y-89070423D01*
X121408560Y-89150613D01*
X121356550Y-89178412D01*
X121321439Y-89391834D01*
X119978561Y-89391834D01*
X119943450Y-89178412D01*
X119739174Y-89087542D01*
X119521095Y-89038269D01*
X119297594Y-89032489D01*
X119077260Y-89070423D01*
X118868560Y-89150613D01*
X118816550Y-89178412D01*
X118781439Y-89391834D01*
X117438561Y-89391834D01*
X117403450Y-89178412D01*
X117199174Y-89087542D01*
X116981095Y-89038269D01*
X116757594Y-89032489D01*
X116537260Y-89070423D01*
X116328560Y-89150613D01*
X116276550Y-89178412D01*
X116241439Y-89391834D01*
X114898561Y-89391834D01*
X114863450Y-89178412D01*
X114659174Y-89087542D01*
X114441095Y-89038269D01*
X114217594Y-89032489D01*
X113997260Y-89070423D01*
X113788560Y-89150613D01*
X113736550Y-89178412D01*
X113701439Y-89391834D01*
X112358561Y-89391834D01*
X112323450Y-89178412D01*
X112119174Y-89087542D01*
X111901095Y-89038269D01*
X111677594Y-89032489D01*
X111457260Y-89070423D01*
X111248560Y-89150613D01*
X111196550Y-89178412D01*
X111161439Y-89391834D01*
X91973000Y-89391834D01*
X91973000Y-86189117D01*
X92118000Y-86189117D01*
X92118000Y-86530883D01*
X92184675Y-86866081D01*
X92315463Y-87181831D01*
X92505337Y-87465998D01*
X92747002Y-87707663D01*
X93031169Y-87897537D01*
X93346919Y-88028325D01*
X93682117Y-88095000D01*
X94023883Y-88095000D01*
X94359081Y-88028325D01*
X94674831Y-87897537D01*
X94958998Y-87707663D01*
X95200663Y-87465998D01*
X95390537Y-87181831D01*
X95521325Y-86866081D01*
X95588000Y-86530883D01*
X95588000Y-86189117D01*
X157015000Y-86189117D01*
X157015000Y-86530883D01*
X157081675Y-86866081D01*
X157212463Y-87181831D01*
X157402337Y-87465998D01*
X157644002Y-87707663D01*
X157928169Y-87897537D01*
X158243919Y-88028325D01*
X158579117Y-88095000D01*
X158920883Y-88095000D01*
X159256081Y-88028325D01*
X159571831Y-87897537D01*
X159855998Y-87707663D01*
X160097663Y-87465998D01*
X160287537Y-87181831D01*
X160418325Y-86866081D01*
X160485000Y-86530883D01*
X160485000Y-86189117D01*
X160418325Y-85853919D01*
X160287537Y-85538169D01*
X160097663Y-85254002D01*
X159855998Y-85012337D01*
X159571831Y-84822463D01*
X159256081Y-84691675D01*
X158920883Y-84625000D01*
X158579117Y-84625000D01*
X158243919Y-84691675D01*
X157928169Y-84822463D01*
X157644002Y-85012337D01*
X157402337Y-85254002D01*
X157212463Y-85538169D01*
X157081675Y-85853919D01*
X157015000Y-86189117D01*
X95588000Y-86189117D01*
X95521325Y-85853919D01*
X95390537Y-85538169D01*
X95200663Y-85254002D01*
X94958998Y-85012337D01*
X94674831Y-84822463D01*
X94359081Y-84691675D01*
X94023883Y-84625000D01*
X93682117Y-84625000D01*
X93346919Y-84691675D01*
X93031169Y-84822463D01*
X92747002Y-85012337D01*
X92505337Y-85254002D01*
X92315463Y-85538169D01*
X92184675Y-85853919D01*
X92118000Y-86189117D01*
X91973000Y-86189117D01*
X91973000Y-85122279D01*
X91987722Y-84972131D01*
X92021953Y-84858754D01*
X92077555Y-84754181D01*
X92152407Y-84662404D01*
X92243664Y-84586909D01*
X92347844Y-84530581D01*
X92460976Y-84495560D01*
X92609022Y-84480000D01*
X159987721Y-84480000D01*
X160137869Y-84494722D01*
G36*
X104732801Y-95372667D02*
G01*
X106476976Y-97755555D01*
X106527601Y-109652340D01*
X106530147Y-109677106D01*
X106537475Y-109700900D01*
X106549305Y-109722806D01*
X106565575Y-109742373D01*
X112509175Y-115584373D01*
X112528555Y-115600001D01*
X112550612Y-115611547D01*
X112574498Y-115618569D01*
X112593667Y-115620719D01*
X115486708Y-115724042D01*
X115355000Y-115855750D01*
X115351928Y-116420000D01*
X115364188Y-116544482D01*
X115400498Y-116664180D01*
X115459463Y-116774494D01*
X115538815Y-116871185D01*
X115635506Y-116950537D01*
X115745820Y-117009502D01*
X115865518Y-117045812D01*
X115990000Y-117058072D01*
X116419334Y-117055735D01*
X116328560Y-117090613D01*
X116276550Y-117118412D01*
X116241439Y-117331834D01*
X116738400Y-117828795D01*
X116738400Y-118008039D01*
X116557921Y-118007526D01*
X116061834Y-117511439D01*
X115848412Y-117546550D01*
X115757542Y-117750826D01*
X115708269Y-117968905D01*
X115707333Y-118005110D01*
X107978625Y-117983153D01*
X102921243Y-112750516D01*
X103035056Y-99548282D01*
X103172740Y-99524577D01*
X103381440Y-99444387D01*
X103433450Y-99416588D01*
X103468561Y-99203166D01*
X103041711Y-98776316D01*
X103044739Y-98425000D01*
X103049605Y-98425000D01*
X103648166Y-99023561D01*
X103861588Y-98988450D01*
X103952458Y-98784174D01*
X104001731Y-98566095D01*
X104007511Y-98342594D01*
X103969577Y-98122260D01*
X103889387Y-97913560D01*
X103861588Y-97861550D01*
X103648166Y-97826439D01*
X103049605Y-98425000D01*
X103044739Y-98425000D01*
X103047820Y-98067575D01*
X103468561Y-97646834D01*
X103433450Y-97433412D01*
X103229174Y-97342542D01*
X103054411Y-97303056D01*
X103060132Y-96639382D01*
X103155750Y-96735000D01*
X103720000Y-96738072D01*
X103844482Y-96725812D01*
X103964180Y-96689502D01*
X104074494Y-96630537D01*
X104171185Y-96551185D01*
X104250537Y-96454494D01*
X104309502Y-96344180D01*
X104345812Y-96224482D01*
X104358072Y-96100000D01*
X104355000Y-95535750D01*
X104196252Y-95377002D01*
X104355000Y-95377002D01*
X104355000Y-95346790D01*
X104732801Y-95372667D01*
X104732801Y-95372667D01*
G37*
X104732801Y-95372667D02*
X106476976Y-97755555D01*
X106527601Y-109652340D01*
X106530147Y-109677106D01*
X106537475Y-109700900D01*
X106549305Y-109722806D01*
X106565575Y-109742373D01*
X112509175Y-115584373D01*
X112528555Y-115600001D01*
X112550612Y-115611547D01*
X112574498Y-115618569D01*
X112593667Y-115620719D01*
X115486708Y-115724042D01*
X115355000Y-115855750D01*
X115351928Y-116420000D01*
X115364188Y-116544482D01*
X115400498Y-116664180D01*
X115459463Y-116774494D01*
X115538815Y-116871185D01*
X115635506Y-116950537D01*
X115745820Y-117009502D01*
X115865518Y-117045812D01*
X115990000Y-117058072D01*
X116419334Y-117055735D01*
X116328560Y-117090613D01*
X116276550Y-117118412D01*
X116241439Y-117331834D01*
X116738400Y-117828795D01*
X116738400Y-118008039D01*
X116557921Y-118007526D01*
X116061834Y-117511439D01*
X115848412Y-117546550D01*
X115757542Y-117750826D01*
X115708269Y-117968905D01*
X115707333Y-118005110D01*
X107978625Y-117983153D01*
X102921243Y-112750516D01*
X103035056Y-99548282D01*
X103172740Y-99524577D01*
X103381440Y-99444387D01*
X103433450Y-99416588D01*
X103468561Y-99203166D01*
X103041711Y-98776316D01*
X103044739Y-98425000D01*
X103049605Y-98425000D01*
X103648166Y-99023561D01*
X103861588Y-98988450D01*
X103952458Y-98784174D01*
X104001731Y-98566095D01*
X104007511Y-98342594D01*
X103969577Y-98122260D01*
X103889387Y-97913560D01*
X103861588Y-97861550D01*
X103648166Y-97826439D01*
X103049605Y-98425000D01*
X103044739Y-98425000D01*
X103047820Y-98067575D01*
X103468561Y-97646834D01*
X103433450Y-97433412D01*
X103229174Y-97342542D01*
X103054411Y-97303056D01*
X103060132Y-96639382D01*
X103155750Y-96735000D01*
X103720000Y-96738072D01*
X103844482Y-96725812D01*
X103964180Y-96689502D01*
X104074494Y-96630537D01*
X104171185Y-96551185D01*
X104250537Y-96454494D01*
X104309502Y-96344180D01*
X104345812Y-96224482D01*
X104358072Y-96100000D01*
X104355000Y-95535750D01*
X104196252Y-95377002D01*
X104355000Y-95377002D01*
X104355000Y-95346790D01*
X104732801Y-95372667D01*
M02*
