M48
INCH,TZ
T1C0.0394
%
G90
G05
T1
X52000Y-56600
X52000Y-57600
X52000Y-58600
X52000Y-59600
X54000Y-48000
X54000Y-49000
X54000Y-51000
X54000Y-52000
X54000Y-54075
X54000Y-55075
X55000Y-48000
X55000Y-49000
X55000Y-51000
X55000Y-52000
X55000Y-54075
X55000Y-55075
X56000Y-48000
X56000Y-49000
X56000Y-51000
X56000Y-52000
X56000Y-54075
X56000Y-55075
X56000Y-57600
X57000Y-48000
X57000Y-49000
X57000Y-51000
X57000Y-52000
X57000Y-54075
X57000Y-55075
X57000Y-57600
X58000Y-48000
X58000Y-49000
X58000Y-51000
X58000Y-52000
X58000Y-54075
X58000Y-55075
X58000Y-57600
X59000Y-48000
X59000Y-49000
X59000Y-51000
X59000Y-52000
X59000Y-54075
X59000Y-55075
X59000Y-57600
X60000Y-48000
X60000Y-49000
X60000Y-51000
X60000Y-52000
X60000Y-54075
X60000Y-55075
X61000Y-48000
X61000Y-49000
X61000Y-51000
X61000Y-52000
X61000Y-54075
X61000Y-55075
X62000Y-48000
X62000Y-49000
X62000Y-51000
X62000Y-52000
X62000Y-54075
X62000Y-55075
X62000Y-57600
X62000Y-59500
X63000Y-48000
X63000Y-49000
X63000Y-51000
X63000Y-52000
X63000Y-54075
X63000Y-55075
X63000Y-57600
X63000Y-59500
X64000Y-48000
X64000Y-49000
X64000Y-51000
X64000Y-52000
X64000Y-54075
X64000Y-55075
X64000Y-57600
X64000Y-59500
X65000Y-48000
X65000Y-49000
X65000Y-51000
X65000Y-52000
X65000Y-54075
X65000Y-55075
X65000Y-57600
X65000Y-59500
X66000Y-48000
X66000Y-49000
X66000Y-51000
X66000Y-52000
X66000Y-54075
X66000Y-55075
X67000Y-48000
X67000Y-49000
X67000Y-51000
X67000Y-52000
X67000Y-54075
X67000Y-55075
X68000Y-48000
X68000Y-49000
X68000Y-51000
X68000Y-52000
X68000Y-54075
X68000Y-55075
X68000Y-57600
X68000Y-58600
X69000Y-48000
X69000Y-49000
X69000Y-51000
X69000Y-52000
X69000Y-54075
X69000Y-55075
X69000Y-57600
X69000Y-58600
X70000Y-48000
X70000Y-49000
X70000Y-51000
X70000Y-52000
X70000Y-54075
X70000Y-55075
X70000Y-57600
X70000Y-58600
T0
M30
