G04 #@! TF.GenerationSoftware,KiCad,Pcbnew,(5.1.9)-1*
G04 #@! TF.CreationDate,2021-02-01T20:53:03+00:00*
G04 #@! TF.ProjectId,Amiga DF0 DF1 Switcher - Design A,416d6967-6120-4444-9630-204446312053,1*
G04 #@! TF.SameCoordinates,Original*
G04 #@! TF.FileFunction,Legend,Top*
G04 #@! TF.FilePolarity,Positive*
%FSLAX46Y46*%
G04 Gerber Fmt 4.6, Leading zero omitted, Abs format (unit mm)*
G04 Created by KiCad (PCBNEW (5.1.9)-1) date 2021-02-01 20:53:03*
%MOMM*%
%LPD*%
G01*
G04 APERTURE LIST*
%ADD10C,0.125000*%
%ADD11C,0.120000*%
%ADD12C,0.100000*%
%ADD13C,0.075000*%
%ADD14C,0.150000*%
G04 APERTURE END LIST*
D10*
X154595071Y-134377880D02*
X154666500Y-134401690D01*
X154785547Y-134401690D01*
X154833166Y-134377880D01*
X154856976Y-134354071D01*
X154880785Y-134306452D01*
X154880785Y-134258833D01*
X154856976Y-134211214D01*
X154833166Y-134187404D01*
X154785547Y-134163595D01*
X154690309Y-134139785D01*
X154642690Y-134115976D01*
X154618880Y-134092166D01*
X154595071Y-134044547D01*
X154595071Y-133996928D01*
X154618880Y-133949309D01*
X154642690Y-133925500D01*
X154690309Y-133901690D01*
X154809357Y-133901690D01*
X154880785Y-133925500D01*
X155285547Y-134377880D02*
X155237928Y-134401690D01*
X155142690Y-134401690D01*
X155095071Y-134377880D01*
X155071261Y-134330261D01*
X155071261Y-134139785D01*
X155095071Y-134092166D01*
X155142690Y-134068357D01*
X155237928Y-134068357D01*
X155285547Y-134092166D01*
X155309357Y-134139785D01*
X155309357Y-134187404D01*
X155071261Y-134235023D01*
X155452214Y-134068357D02*
X155642690Y-134068357D01*
X155523642Y-133901690D02*
X155523642Y-134330261D01*
X155547452Y-134377880D01*
X155595071Y-134401690D01*
X155642690Y-134401690D01*
X156404595Y-134401690D02*
X156404595Y-133901690D01*
X156404595Y-134377880D02*
X156356976Y-134401690D01*
X156261738Y-134401690D01*
X156214119Y-134377880D01*
X156190309Y-134354071D01*
X156166500Y-134306452D01*
X156166500Y-134163595D01*
X156190309Y-134115976D01*
X156214119Y-134092166D01*
X156261738Y-134068357D01*
X156356976Y-134068357D01*
X156404595Y-134092166D01*
X156642690Y-134401690D02*
X156642690Y-134068357D01*
X156642690Y-134163595D02*
X156666500Y-134115976D01*
X156690309Y-134092166D01*
X156737928Y-134068357D01*
X156785547Y-134068357D01*
X156952214Y-134401690D02*
X156952214Y-134068357D01*
X156952214Y-133901690D02*
X156928404Y-133925500D01*
X156952214Y-133949309D01*
X156976023Y-133925500D01*
X156952214Y-133901690D01*
X156952214Y-133949309D01*
X157142690Y-134068357D02*
X157261738Y-134401690D01*
X157380785Y-134068357D01*
X157761738Y-134377880D02*
X157714119Y-134401690D01*
X157618880Y-134401690D01*
X157571261Y-134377880D01*
X157547452Y-134330261D01*
X157547452Y-134139785D01*
X157571261Y-134092166D01*
X157618880Y-134068357D01*
X157714119Y-134068357D01*
X157761738Y-134092166D01*
X157785547Y-134139785D01*
X157785547Y-134187404D01*
X157547452Y-134235023D01*
X158309357Y-134068357D02*
X158499833Y-134068357D01*
X158380785Y-133901690D02*
X158380785Y-134330261D01*
X158404595Y-134377880D01*
X158452214Y-134401690D01*
X158499833Y-134401690D01*
X158737928Y-134401690D02*
X158690309Y-134377880D01*
X158666500Y-134354071D01*
X158642690Y-134306452D01*
X158642690Y-134163595D01*
X158666500Y-134115976D01*
X158690309Y-134092166D01*
X158737928Y-134068357D01*
X158809357Y-134068357D01*
X158856976Y-134092166D01*
X158880785Y-134115976D01*
X158904595Y-134163595D01*
X158904595Y-134306452D01*
X158880785Y-134354071D01*
X158856976Y-134377880D01*
X158809357Y-134401690D01*
X158737928Y-134401690D01*
X159476023Y-134377880D02*
X159547452Y-134401690D01*
X159666500Y-134401690D01*
X159714119Y-134377880D01*
X159737928Y-134354071D01*
X159761738Y-134306452D01*
X159761738Y-134258833D01*
X159737928Y-134211214D01*
X159714119Y-134187404D01*
X159666500Y-134163595D01*
X159571261Y-134139785D01*
X159523642Y-134115976D01*
X159499833Y-134092166D01*
X159476023Y-134044547D01*
X159476023Y-133996928D01*
X159499833Y-133949309D01*
X159523642Y-133925500D01*
X159571261Y-133901690D01*
X159690309Y-133901690D01*
X159761738Y-133925500D01*
X160071261Y-133901690D02*
X160118880Y-133901690D01*
X160166500Y-133925500D01*
X160190309Y-133949309D01*
X160214119Y-133996928D01*
X160237928Y-134092166D01*
X160237928Y-134211214D01*
X160214119Y-134306452D01*
X160190309Y-134354071D01*
X160166500Y-134377880D01*
X160118880Y-134401690D01*
X160071261Y-134401690D01*
X160023642Y-134377880D01*
X159999833Y-134354071D01*
X159976023Y-134306452D01*
X159952214Y-134211214D01*
X159952214Y-134092166D01*
X159976023Y-133996928D01*
X159999833Y-133949309D01*
X160023642Y-133925500D01*
X160071261Y-133901690D01*
X154658571Y-126757880D02*
X154730000Y-126781690D01*
X154849047Y-126781690D01*
X154896666Y-126757880D01*
X154920476Y-126734071D01*
X154944285Y-126686452D01*
X154944285Y-126638833D01*
X154920476Y-126591214D01*
X154896666Y-126567404D01*
X154849047Y-126543595D01*
X154753809Y-126519785D01*
X154706190Y-126495976D01*
X154682380Y-126472166D01*
X154658571Y-126424547D01*
X154658571Y-126376928D01*
X154682380Y-126329309D01*
X154706190Y-126305500D01*
X154753809Y-126281690D01*
X154872857Y-126281690D01*
X154944285Y-126305500D01*
X155349047Y-126757880D02*
X155301428Y-126781690D01*
X155206190Y-126781690D01*
X155158571Y-126757880D01*
X155134761Y-126710261D01*
X155134761Y-126519785D01*
X155158571Y-126472166D01*
X155206190Y-126448357D01*
X155301428Y-126448357D01*
X155349047Y-126472166D01*
X155372857Y-126519785D01*
X155372857Y-126567404D01*
X155134761Y-126615023D01*
X155515714Y-126448357D02*
X155706190Y-126448357D01*
X155587142Y-126281690D02*
X155587142Y-126710261D01*
X155610952Y-126757880D01*
X155658571Y-126781690D01*
X155706190Y-126781690D01*
X156468095Y-126781690D02*
X156468095Y-126281690D01*
X156468095Y-126757880D02*
X156420476Y-126781690D01*
X156325238Y-126781690D01*
X156277619Y-126757880D01*
X156253809Y-126734071D01*
X156230000Y-126686452D01*
X156230000Y-126543595D01*
X156253809Y-126495976D01*
X156277619Y-126472166D01*
X156325238Y-126448357D01*
X156420476Y-126448357D01*
X156468095Y-126472166D01*
X156706190Y-126781690D02*
X156706190Y-126448357D01*
X156706190Y-126543595D02*
X156730000Y-126495976D01*
X156753809Y-126472166D01*
X156801428Y-126448357D01*
X156849047Y-126448357D01*
X157015714Y-126781690D02*
X157015714Y-126448357D01*
X157015714Y-126281690D02*
X156991904Y-126305500D01*
X157015714Y-126329309D01*
X157039523Y-126305500D01*
X157015714Y-126281690D01*
X157015714Y-126329309D01*
X157206190Y-126448357D02*
X157325238Y-126781690D01*
X157444285Y-126448357D01*
X157825238Y-126757880D02*
X157777619Y-126781690D01*
X157682380Y-126781690D01*
X157634761Y-126757880D01*
X157610952Y-126710261D01*
X157610952Y-126519785D01*
X157634761Y-126472166D01*
X157682380Y-126448357D01*
X157777619Y-126448357D01*
X157825238Y-126472166D01*
X157849047Y-126519785D01*
X157849047Y-126567404D01*
X157610952Y-126615023D01*
X158372857Y-126448357D02*
X158563333Y-126448357D01*
X158444285Y-126281690D02*
X158444285Y-126710261D01*
X158468095Y-126757880D01*
X158515714Y-126781690D01*
X158563333Y-126781690D01*
X158801428Y-126781690D02*
X158753809Y-126757880D01*
X158730000Y-126734071D01*
X158706190Y-126686452D01*
X158706190Y-126543595D01*
X158730000Y-126495976D01*
X158753809Y-126472166D01*
X158801428Y-126448357D01*
X158872857Y-126448357D01*
X158920476Y-126472166D01*
X158944285Y-126495976D01*
X158968095Y-126543595D01*
X158968095Y-126686452D01*
X158944285Y-126734071D01*
X158920476Y-126757880D01*
X158872857Y-126781690D01*
X158801428Y-126781690D01*
X159539523Y-126757880D02*
X159610952Y-126781690D01*
X159730000Y-126781690D01*
X159777619Y-126757880D01*
X159801428Y-126734071D01*
X159825238Y-126686452D01*
X159825238Y-126638833D01*
X159801428Y-126591214D01*
X159777619Y-126567404D01*
X159730000Y-126543595D01*
X159634761Y-126519785D01*
X159587142Y-126495976D01*
X159563333Y-126472166D01*
X159539523Y-126424547D01*
X159539523Y-126376928D01*
X159563333Y-126329309D01*
X159587142Y-126305500D01*
X159634761Y-126281690D01*
X159753809Y-126281690D01*
X159825238Y-126305500D01*
X160134761Y-126281690D02*
X160182380Y-126281690D01*
X160230000Y-126305500D01*
X160253809Y-126329309D01*
X160277619Y-126376928D01*
X160301428Y-126472166D01*
X160301428Y-126591214D01*
X160277619Y-126686452D01*
X160253809Y-126734071D01*
X160230000Y-126757880D01*
X160182380Y-126781690D01*
X160134761Y-126781690D01*
X160087142Y-126757880D01*
X160063333Y-126734071D01*
X160039523Y-126686452D01*
X160015714Y-126591214D01*
X160015714Y-126472166D01*
X160039523Y-126376928D01*
X160063333Y-126329309D01*
X160087142Y-126305500D01*
X160134761Y-126281690D01*
X152825238Y-138283190D02*
X153110952Y-138283190D01*
X152968095Y-138783190D02*
X152968095Y-138283190D01*
X153349047Y-138783190D02*
X153301428Y-138759380D01*
X153277619Y-138735571D01*
X153253809Y-138687952D01*
X153253809Y-138545095D01*
X153277619Y-138497476D01*
X153301428Y-138473666D01*
X153349047Y-138449857D01*
X153420476Y-138449857D01*
X153468095Y-138473666D01*
X153491904Y-138497476D01*
X153515714Y-138545095D01*
X153515714Y-138687952D01*
X153491904Y-138735571D01*
X153468095Y-138759380D01*
X153420476Y-138783190D01*
X153349047Y-138783190D01*
X154277619Y-138521285D02*
X154110952Y-138521285D01*
X154110952Y-138783190D02*
X154110952Y-138283190D01*
X154349047Y-138283190D01*
X154610952Y-138783190D02*
X154563333Y-138759380D01*
X154539523Y-138711761D01*
X154539523Y-138283190D01*
X154872857Y-138783190D02*
X154825238Y-138759380D01*
X154801428Y-138735571D01*
X154777619Y-138687952D01*
X154777619Y-138545095D01*
X154801428Y-138497476D01*
X154825238Y-138473666D01*
X154872857Y-138449857D01*
X154944285Y-138449857D01*
X154991904Y-138473666D01*
X155015714Y-138497476D01*
X155039523Y-138545095D01*
X155039523Y-138687952D01*
X155015714Y-138735571D01*
X154991904Y-138759380D01*
X154944285Y-138783190D01*
X154872857Y-138783190D01*
X155253809Y-138449857D02*
X155253809Y-138949857D01*
X155253809Y-138473666D02*
X155301428Y-138449857D01*
X155396666Y-138449857D01*
X155444285Y-138473666D01*
X155468095Y-138497476D01*
X155491904Y-138545095D01*
X155491904Y-138687952D01*
X155468095Y-138735571D01*
X155444285Y-138759380D01*
X155396666Y-138783190D01*
X155301428Y-138783190D01*
X155253809Y-138759380D01*
X155706190Y-138449857D02*
X155706190Y-138949857D01*
X155706190Y-138473666D02*
X155753809Y-138449857D01*
X155849047Y-138449857D01*
X155896666Y-138473666D01*
X155920476Y-138497476D01*
X155944285Y-138545095D01*
X155944285Y-138687952D01*
X155920476Y-138735571D01*
X155896666Y-138759380D01*
X155849047Y-138783190D01*
X155753809Y-138783190D01*
X155706190Y-138759380D01*
X156110952Y-138449857D02*
X156230000Y-138783190D01*
X156349047Y-138449857D02*
X156230000Y-138783190D01*
X156182380Y-138902238D01*
X156158571Y-138926047D01*
X156110952Y-138949857D01*
X156920476Y-138783190D02*
X156920476Y-138283190D01*
X157039523Y-138283190D01*
X157110952Y-138307000D01*
X157158571Y-138354619D01*
X157182380Y-138402238D01*
X157206190Y-138497476D01*
X157206190Y-138568904D01*
X157182380Y-138664142D01*
X157158571Y-138711761D01*
X157110952Y-138759380D01*
X157039523Y-138783190D01*
X156920476Y-138783190D01*
X157634761Y-138783190D02*
X157634761Y-138521285D01*
X157610952Y-138473666D01*
X157563333Y-138449857D01*
X157468095Y-138449857D01*
X157420476Y-138473666D01*
X157634761Y-138759380D02*
X157587142Y-138783190D01*
X157468095Y-138783190D01*
X157420476Y-138759380D01*
X157396666Y-138711761D01*
X157396666Y-138664142D01*
X157420476Y-138616523D01*
X157468095Y-138592714D01*
X157587142Y-138592714D01*
X157634761Y-138568904D01*
X157801428Y-138449857D02*
X157991904Y-138449857D01*
X157872857Y-138283190D02*
X157872857Y-138711761D01*
X157896666Y-138759380D01*
X157944285Y-138783190D01*
X157991904Y-138783190D01*
X158372857Y-138783190D02*
X158372857Y-138521285D01*
X158349047Y-138473666D01*
X158301428Y-138449857D01*
X158206190Y-138449857D01*
X158158571Y-138473666D01*
X158372857Y-138759380D02*
X158325238Y-138783190D01*
X158206190Y-138783190D01*
X158158571Y-138759380D01*
X158134761Y-138711761D01*
X158134761Y-138664142D01*
X158158571Y-138616523D01*
X158206190Y-138592714D01*
X158325238Y-138592714D01*
X158372857Y-138568904D01*
X158991904Y-138783190D02*
X158991904Y-138283190D01*
X159230000Y-138449857D02*
X159230000Y-138783190D01*
X159230000Y-138497476D02*
X159253809Y-138473666D01*
X159301428Y-138449857D01*
X159372857Y-138449857D01*
X159420476Y-138473666D01*
X159444285Y-138521285D01*
X159444285Y-138783190D01*
X159610952Y-138449857D02*
X159801428Y-138449857D01*
X159682380Y-138283190D02*
X159682380Y-138711761D01*
X159706190Y-138759380D01*
X159753809Y-138783190D01*
X159801428Y-138783190D01*
X160158571Y-138759380D02*
X160110952Y-138783190D01*
X160015714Y-138783190D01*
X159968095Y-138759380D01*
X159944285Y-138711761D01*
X159944285Y-138521285D01*
X159968095Y-138473666D01*
X160015714Y-138449857D01*
X160110952Y-138449857D01*
X160158571Y-138473666D01*
X160182380Y-138521285D01*
X160182380Y-138568904D01*
X159944285Y-138616523D01*
X160396666Y-138783190D02*
X160396666Y-138449857D01*
X160396666Y-138545095D02*
X160420476Y-138497476D01*
X160444285Y-138473666D01*
X160491904Y-138449857D01*
X160539523Y-138449857D01*
X160634761Y-138449857D02*
X160825238Y-138449857D01*
X160706190Y-138783190D02*
X160706190Y-138354619D01*
X160730000Y-138307000D01*
X160777619Y-138283190D01*
X160825238Y-138283190D01*
X161206190Y-138783190D02*
X161206190Y-138521285D01*
X161182380Y-138473666D01*
X161134761Y-138449857D01*
X161039523Y-138449857D01*
X160991904Y-138473666D01*
X161206190Y-138759380D02*
X161158571Y-138783190D01*
X161039523Y-138783190D01*
X160991904Y-138759380D01*
X160968095Y-138711761D01*
X160968095Y-138664142D01*
X160991904Y-138616523D01*
X161039523Y-138592714D01*
X161158571Y-138592714D01*
X161206190Y-138568904D01*
X161658571Y-138759380D02*
X161610952Y-138783190D01*
X161515714Y-138783190D01*
X161468095Y-138759380D01*
X161444285Y-138735571D01*
X161420476Y-138687952D01*
X161420476Y-138545095D01*
X161444285Y-138497476D01*
X161468095Y-138473666D01*
X161515714Y-138449857D01*
X161610952Y-138449857D01*
X161658571Y-138473666D01*
X162063333Y-138759380D02*
X162015714Y-138783190D01*
X161920476Y-138783190D01*
X161872857Y-138759380D01*
X161849047Y-138711761D01*
X161849047Y-138521285D01*
X161872857Y-138473666D01*
X161920476Y-138449857D01*
X162015714Y-138449857D01*
X162063333Y-138473666D01*
X162087142Y-138521285D01*
X162087142Y-138568904D01*
X161849047Y-138616523D01*
X135536857Y-126081285D02*
X136001142Y-126081285D01*
X135751142Y-126367000D01*
X135858285Y-126367000D01*
X135929714Y-126402714D01*
X135965428Y-126438428D01*
X136001142Y-126509857D01*
X136001142Y-126688428D01*
X135965428Y-126759857D01*
X135929714Y-126795571D01*
X135858285Y-126831285D01*
X135644000Y-126831285D01*
X135572571Y-126795571D01*
X135536857Y-126759857D01*
X136644000Y-126331285D02*
X136644000Y-126831285D01*
X136465428Y-126045571D02*
X136286857Y-126581285D01*
X136751142Y-126581285D01*
X135536857Y-133701285D02*
X136001142Y-133701285D01*
X135751142Y-133987000D01*
X135858285Y-133987000D01*
X135929714Y-134022714D01*
X135965428Y-134058428D01*
X136001142Y-134129857D01*
X136001142Y-134308428D01*
X135965428Y-134379857D01*
X135929714Y-134415571D01*
X135858285Y-134451285D01*
X135644000Y-134451285D01*
X135572571Y-134415571D01*
X135536857Y-134379857D01*
X136644000Y-133951285D02*
X136644000Y-134451285D01*
X136465428Y-133665571D02*
X136286857Y-134201285D01*
X136751142Y-134201285D01*
D11*
X171450000Y-147574000D02*
X168148000Y-147574000D01*
D12*
X167465333Y-152288761D02*
X167446285Y-152307809D01*
X167389142Y-152345904D01*
X167351047Y-152364952D01*
X167293904Y-152384000D01*
X167198666Y-152403047D01*
X167122476Y-152403047D01*
X167027238Y-152384000D01*
X166970095Y-152364952D01*
X166932000Y-152345904D01*
X166874857Y-152307809D01*
X166855809Y-152288761D01*
X167293904Y-152155428D02*
X167312952Y-152098285D01*
X167312952Y-152003047D01*
X167293904Y-151964952D01*
X167274857Y-151945904D01*
X167236761Y-151926857D01*
X167198666Y-151926857D01*
X167160571Y-151945904D01*
X167141523Y-151964952D01*
X167122476Y-152003047D01*
X167103428Y-152079238D01*
X167084380Y-152117333D01*
X167065333Y-152136380D01*
X167027238Y-152155428D01*
X166989142Y-152155428D01*
X166951047Y-152136380D01*
X166932000Y-152117333D01*
X166912952Y-152079238D01*
X166912952Y-151984000D01*
X166932000Y-151926857D01*
X167046285Y-151755428D02*
X167446285Y-151755428D01*
X167065333Y-151755428D02*
X167046285Y-151717333D01*
X167046285Y-151641142D01*
X167065333Y-151603047D01*
X167084380Y-151584000D01*
X167122476Y-151564952D01*
X167236761Y-151564952D01*
X167274857Y-151584000D01*
X167293904Y-151603047D01*
X167312952Y-151641142D01*
X167312952Y-151717333D01*
X167293904Y-151755428D01*
X167312952Y-151222095D02*
X167103428Y-151222095D01*
X167065333Y-151241142D01*
X167046285Y-151279238D01*
X167046285Y-151355428D01*
X167065333Y-151393523D01*
X167293904Y-151222095D02*
X167312952Y-151260190D01*
X167312952Y-151355428D01*
X167293904Y-151393523D01*
X167255809Y-151412571D01*
X167217714Y-151412571D01*
X167179619Y-151393523D01*
X167160571Y-151355428D01*
X167160571Y-151260190D01*
X167141523Y-151222095D01*
X167312952Y-151031619D02*
X167046285Y-151031619D01*
X167122476Y-151031619D02*
X167084380Y-151012571D01*
X167065333Y-150993523D01*
X167046285Y-150955428D01*
X167046285Y-150917333D01*
X167293904Y-150631619D02*
X167312952Y-150669714D01*
X167312952Y-150745904D01*
X167293904Y-150784000D01*
X167255809Y-150803047D01*
X167103428Y-150803047D01*
X167065333Y-150784000D01*
X167046285Y-150745904D01*
X167046285Y-150669714D01*
X167065333Y-150631619D01*
X167103428Y-150612571D01*
X167141523Y-150612571D01*
X167179619Y-150803047D01*
X167465333Y-150479238D02*
X167446285Y-150460190D01*
X167389142Y-150422095D01*
X167351047Y-150403047D01*
X167293904Y-150384000D01*
X167198666Y-150364952D01*
X167122476Y-150364952D01*
X167027238Y-150384000D01*
X166970095Y-150403047D01*
X166932000Y-150422095D01*
X166874857Y-150460190D01*
X166855809Y-150479238D01*
D10*
X135155857Y-140686285D02*
X135620142Y-140686285D01*
X135370142Y-140972000D01*
X135477285Y-140972000D01*
X135548714Y-141007714D01*
X135584428Y-141043428D01*
X135620142Y-141114857D01*
X135620142Y-141293428D01*
X135584428Y-141364857D01*
X135548714Y-141400571D01*
X135477285Y-141436285D01*
X135263000Y-141436285D01*
X135191571Y-141400571D01*
X135155857Y-141364857D01*
X136263000Y-140936285D02*
X136263000Y-141436285D01*
X136084428Y-140650571D02*
X135905857Y-141186285D01*
X136370142Y-141186285D01*
X180443142Y-139374476D02*
X180490761Y-139422095D01*
X180538380Y-139564952D01*
X180538380Y-139660190D01*
X180490761Y-139803047D01*
X180395523Y-139898285D01*
X180300285Y-139945904D01*
X180109809Y-139993523D01*
X179966952Y-139993523D01*
X179776476Y-139945904D01*
X179681238Y-139898285D01*
X179586000Y-139803047D01*
X179538380Y-139660190D01*
X179538380Y-139564952D01*
X179586000Y-139422095D01*
X179633619Y-139374476D01*
X180538380Y-138945904D02*
X179538380Y-138945904D01*
X180538380Y-138374476D01*
X179538380Y-138374476D01*
X179538380Y-137707809D02*
X179538380Y-137612571D01*
X179586000Y-137517333D01*
X179633619Y-137469714D01*
X179728857Y-137422095D01*
X179919333Y-137374476D01*
X180157428Y-137374476D01*
X180347904Y-137422095D01*
X180443142Y-137469714D01*
X180490761Y-137517333D01*
X180538380Y-137612571D01*
X180538380Y-137707809D01*
X180490761Y-137803047D01*
X180443142Y-137850666D01*
X180347904Y-137898285D01*
X180157428Y-137945904D01*
X179919333Y-137945904D01*
X179728857Y-137898285D01*
X179633619Y-137850666D01*
X179586000Y-137803047D01*
X179538380Y-137707809D01*
X168293000Y-149183285D02*
X168293000Y-148433285D01*
X168471571Y-148433285D01*
X168578714Y-148469000D01*
X168650142Y-148540428D01*
X168685857Y-148611857D01*
X168721571Y-148754714D01*
X168721571Y-148861857D01*
X168685857Y-149004714D01*
X168650142Y-149076142D01*
X168578714Y-149147571D01*
X168471571Y-149183285D01*
X168293000Y-149183285D01*
X169293000Y-148790428D02*
X169043000Y-148790428D01*
X169043000Y-149183285D02*
X169043000Y-148433285D01*
X169400142Y-148433285D01*
X170078714Y-149183285D02*
X169650142Y-149183285D01*
X169864428Y-149183285D02*
X169864428Y-148433285D01*
X169793000Y-148540428D01*
X169721571Y-148611857D01*
X169650142Y-148647571D01*
X170614428Y-149469000D02*
X170578714Y-149469000D01*
X170507285Y-149433285D01*
X170471571Y-149361857D01*
X170471571Y-149004714D01*
X170435857Y-148933285D01*
X170364428Y-148897571D01*
X170435857Y-148861857D01*
X170471571Y-148790428D01*
X170471571Y-148433285D01*
X170507285Y-148361857D01*
X170578714Y-148326142D01*
X170614428Y-148326142D01*
X168293000Y-146643285D02*
X168293000Y-145893285D01*
X168471571Y-145893285D01*
X168578714Y-145929000D01*
X168650142Y-146000428D01*
X168685857Y-146071857D01*
X168721571Y-146214714D01*
X168721571Y-146321857D01*
X168685857Y-146464714D01*
X168650142Y-146536142D01*
X168578714Y-146607571D01*
X168471571Y-146643285D01*
X168293000Y-146643285D01*
X169293000Y-146250428D02*
X169043000Y-146250428D01*
X169043000Y-146643285D02*
X169043000Y-145893285D01*
X169400142Y-145893285D01*
X169828714Y-145893285D02*
X169900142Y-145893285D01*
X169971571Y-145929000D01*
X170007285Y-145964714D01*
X170043000Y-146036142D01*
X170078714Y-146179000D01*
X170078714Y-146357571D01*
X170043000Y-146500428D01*
X170007285Y-146571857D01*
X169971571Y-146607571D01*
X169900142Y-146643285D01*
X169828714Y-146643285D01*
X169757285Y-146607571D01*
X169721571Y-146571857D01*
X169685857Y-146500428D01*
X169650142Y-146357571D01*
X169650142Y-146179000D01*
X169685857Y-146036142D01*
X169721571Y-145964714D01*
X169757285Y-145929000D01*
X169828714Y-145893285D01*
X170614428Y-146929000D02*
X170578714Y-146929000D01*
X170507285Y-146893285D01*
X170471571Y-146821857D01*
X170471571Y-146464714D01*
X170435857Y-146393285D01*
X170364428Y-146357571D01*
X170435857Y-146321857D01*
X170471571Y-146250428D01*
X170471571Y-145893285D01*
X170507285Y-145821857D01*
X170578714Y-145786142D01*
X170614428Y-145786142D01*
X137243571Y-150971500D02*
X137529285Y-150971500D01*
X137186428Y-151142928D02*
X137386428Y-150542928D01*
X137586428Y-151142928D01*
X137786428Y-151142928D02*
X137786428Y-150742928D01*
X137786428Y-150800071D02*
X137815000Y-150771500D01*
X137872142Y-150742928D01*
X137957857Y-150742928D01*
X138015000Y-150771500D01*
X138043571Y-150828642D01*
X138043571Y-151142928D01*
X138043571Y-150828642D02*
X138072142Y-150771500D01*
X138129285Y-150742928D01*
X138215000Y-150742928D01*
X138272142Y-150771500D01*
X138300714Y-150828642D01*
X138300714Y-151142928D01*
X138586428Y-151142928D02*
X138586428Y-150742928D01*
X138586428Y-150542928D02*
X138557857Y-150571500D01*
X138586428Y-150600071D01*
X138615000Y-150571500D01*
X138586428Y-150542928D01*
X138586428Y-150600071D01*
X139129285Y-150742928D02*
X139129285Y-151228642D01*
X139100714Y-151285785D01*
X139072142Y-151314357D01*
X139015000Y-151342928D01*
X138929285Y-151342928D01*
X138872142Y-151314357D01*
X139129285Y-151114357D02*
X139072142Y-151142928D01*
X138957857Y-151142928D01*
X138900714Y-151114357D01*
X138872142Y-151085785D01*
X138843571Y-151028642D01*
X138843571Y-150857214D01*
X138872142Y-150800071D01*
X138900714Y-150771500D01*
X138957857Y-150742928D01*
X139072142Y-150742928D01*
X139129285Y-150771500D01*
X139672142Y-151142928D02*
X139672142Y-150828642D01*
X139643571Y-150771500D01*
X139586428Y-150742928D01*
X139472142Y-150742928D01*
X139415000Y-150771500D01*
X139672142Y-151114357D02*
X139615000Y-151142928D01*
X139472142Y-151142928D01*
X139415000Y-151114357D01*
X139386428Y-151057214D01*
X139386428Y-151000071D01*
X139415000Y-150942928D01*
X139472142Y-150914357D01*
X139615000Y-150914357D01*
X139672142Y-150885785D01*
X140415000Y-151142928D02*
X140415000Y-150542928D01*
X140557857Y-150542928D01*
X140643571Y-150571500D01*
X140700714Y-150628642D01*
X140729285Y-150685785D01*
X140757857Y-150800071D01*
X140757857Y-150885785D01*
X140729285Y-151000071D01*
X140700714Y-151057214D01*
X140643571Y-151114357D01*
X140557857Y-151142928D01*
X140415000Y-151142928D01*
X141215000Y-150828642D02*
X141015000Y-150828642D01*
X141015000Y-151142928D02*
X141015000Y-150542928D01*
X141300714Y-150542928D01*
X141643571Y-150542928D02*
X141700714Y-150542928D01*
X141757857Y-150571500D01*
X141786428Y-150600071D01*
X141815000Y-150657214D01*
X141843571Y-150771500D01*
X141843571Y-150914357D01*
X141815000Y-151028642D01*
X141786428Y-151085785D01*
X141757857Y-151114357D01*
X141700714Y-151142928D01*
X141643571Y-151142928D01*
X141586428Y-151114357D01*
X141557857Y-151085785D01*
X141529285Y-151028642D01*
X141500714Y-150914357D01*
X141500714Y-150771500D01*
X141529285Y-150657214D01*
X141557857Y-150600071D01*
X141586428Y-150571500D01*
X141643571Y-150542928D01*
X142529285Y-150514357D02*
X142015000Y-151285785D01*
X142729285Y-151142928D02*
X142729285Y-150542928D01*
X142872142Y-150542928D01*
X142957857Y-150571500D01*
X143015000Y-150628642D01*
X143043571Y-150685785D01*
X143072142Y-150800071D01*
X143072142Y-150885785D01*
X143043571Y-151000071D01*
X143015000Y-151057214D01*
X142957857Y-151114357D01*
X142872142Y-151142928D01*
X142729285Y-151142928D01*
X143529285Y-150828642D02*
X143329285Y-150828642D01*
X143329285Y-151142928D02*
X143329285Y-150542928D01*
X143615000Y-150542928D01*
X144157857Y-151142928D02*
X143815000Y-151142928D01*
X143986428Y-151142928D02*
X143986428Y-150542928D01*
X143929285Y-150628642D01*
X143872142Y-150685785D01*
X143815000Y-150714357D01*
X144843571Y-151114357D02*
X144929285Y-151142928D01*
X145072142Y-151142928D01*
X145129285Y-151114357D01*
X145157857Y-151085785D01*
X145186428Y-151028642D01*
X145186428Y-150971500D01*
X145157857Y-150914357D01*
X145129285Y-150885785D01*
X145072142Y-150857214D01*
X144957857Y-150828642D01*
X144900714Y-150800071D01*
X144872142Y-150771500D01*
X144843571Y-150714357D01*
X144843571Y-150657214D01*
X144872142Y-150600071D01*
X144900714Y-150571500D01*
X144957857Y-150542928D01*
X145100714Y-150542928D01*
X145186428Y-150571500D01*
X145386428Y-150742928D02*
X145500714Y-151142928D01*
X145615000Y-150857214D01*
X145729285Y-151142928D01*
X145843571Y-150742928D01*
X146072142Y-151142928D02*
X146072142Y-150742928D01*
X146072142Y-150542928D02*
X146043571Y-150571500D01*
X146072142Y-150600071D01*
X146100714Y-150571500D01*
X146072142Y-150542928D01*
X146072142Y-150600071D01*
X146272142Y-150742928D02*
X146500714Y-150742928D01*
X146357857Y-150542928D02*
X146357857Y-151057214D01*
X146386428Y-151114357D01*
X146443571Y-151142928D01*
X146500714Y-151142928D01*
X146957857Y-151114357D02*
X146900714Y-151142928D01*
X146786428Y-151142928D01*
X146729285Y-151114357D01*
X146700714Y-151085785D01*
X146672142Y-151028642D01*
X146672142Y-150857214D01*
X146700714Y-150800071D01*
X146729285Y-150771500D01*
X146786428Y-150742928D01*
X146900714Y-150742928D01*
X146957857Y-150771500D01*
X147215000Y-151142928D02*
X147215000Y-150542928D01*
X147472142Y-151142928D02*
X147472142Y-150828642D01*
X147443571Y-150771500D01*
X147386428Y-150742928D01*
X147300714Y-150742928D01*
X147243571Y-150771500D01*
X147215000Y-150800071D01*
X147986428Y-151114357D02*
X147929285Y-151142928D01*
X147815000Y-151142928D01*
X147757857Y-151114357D01*
X147729285Y-151057214D01*
X147729285Y-150828642D01*
X147757857Y-150771500D01*
X147815000Y-150742928D01*
X147929285Y-150742928D01*
X147986428Y-150771500D01*
X148015000Y-150828642D01*
X148015000Y-150885785D01*
X147729285Y-150942928D01*
X148272142Y-151142928D02*
X148272142Y-150742928D01*
X148272142Y-150857214D02*
X148300714Y-150800071D01*
X148329285Y-150771500D01*
X148386428Y-150742928D01*
X148443571Y-150742928D01*
X149272142Y-151371500D02*
X149243571Y-151342928D01*
X149186428Y-151257214D01*
X149157857Y-151200071D01*
X149129285Y-151114357D01*
X149100714Y-150971500D01*
X149100714Y-150857214D01*
X149129285Y-150714357D01*
X149157857Y-150628642D01*
X149186428Y-150571500D01*
X149243571Y-150485785D01*
X149272142Y-150457214D01*
X149500714Y-151142928D02*
X149500714Y-150542928D01*
X149643571Y-150542928D01*
X149729285Y-150571500D01*
X149786428Y-150628642D01*
X149815000Y-150685785D01*
X149843571Y-150800071D01*
X149843571Y-150885785D01*
X149815000Y-151000071D01*
X149786428Y-151057214D01*
X149729285Y-151114357D01*
X149643571Y-151142928D01*
X149500714Y-151142928D01*
X150329285Y-151114357D02*
X150272142Y-151142928D01*
X150157857Y-151142928D01*
X150100714Y-151114357D01*
X150072142Y-151057214D01*
X150072142Y-150828642D01*
X150100714Y-150771500D01*
X150157857Y-150742928D01*
X150272142Y-150742928D01*
X150329285Y-150771500D01*
X150357857Y-150828642D01*
X150357857Y-150885785D01*
X150072142Y-150942928D01*
X150586428Y-151114357D02*
X150643571Y-151142928D01*
X150757857Y-151142928D01*
X150815000Y-151114357D01*
X150843571Y-151057214D01*
X150843571Y-151028642D01*
X150815000Y-150971500D01*
X150757857Y-150942928D01*
X150672142Y-150942928D01*
X150615000Y-150914357D01*
X150586428Y-150857214D01*
X150586428Y-150828642D01*
X150615000Y-150771500D01*
X150672142Y-150742928D01*
X150757857Y-150742928D01*
X150815000Y-150771500D01*
X151100714Y-151142928D02*
X151100714Y-150742928D01*
X151100714Y-150542928D02*
X151072142Y-150571500D01*
X151100714Y-150600071D01*
X151129285Y-150571500D01*
X151100714Y-150542928D01*
X151100714Y-150600071D01*
X151643571Y-150742928D02*
X151643571Y-151228642D01*
X151615000Y-151285785D01*
X151586428Y-151314357D01*
X151529285Y-151342928D01*
X151443571Y-151342928D01*
X151386428Y-151314357D01*
X151643571Y-151114357D02*
X151586428Y-151142928D01*
X151472142Y-151142928D01*
X151415000Y-151114357D01*
X151386428Y-151085785D01*
X151357857Y-151028642D01*
X151357857Y-150857214D01*
X151386428Y-150800071D01*
X151415000Y-150771500D01*
X151472142Y-150742928D01*
X151586428Y-150742928D01*
X151643571Y-150771500D01*
X151929285Y-150742928D02*
X151929285Y-151142928D01*
X151929285Y-150800071D02*
X151957857Y-150771500D01*
X152015000Y-150742928D01*
X152100714Y-150742928D01*
X152157857Y-150771500D01*
X152186428Y-150828642D01*
X152186428Y-151142928D01*
X152900714Y-150971500D02*
X153186428Y-150971500D01*
X152843571Y-151142928D02*
X153043571Y-150542928D01*
X153243571Y-151142928D01*
X153386428Y-151371500D02*
X153415000Y-151342928D01*
X153472142Y-151257214D01*
X153500714Y-151200071D01*
X153529285Y-151114357D01*
X153557857Y-150971500D01*
X153557857Y-150857214D01*
X153529285Y-150714357D01*
X153500714Y-150628642D01*
X153472142Y-150571500D01*
X153415000Y-150485785D01*
X153386428Y-150457214D01*
X138800714Y-152167928D02*
X138800714Y-151567928D01*
X139057857Y-152167928D02*
X139057857Y-151853642D01*
X139029285Y-151796500D01*
X138972142Y-151767928D01*
X138886428Y-151767928D01*
X138829285Y-151796500D01*
X138800714Y-151825071D01*
X139257857Y-151767928D02*
X139486428Y-151767928D01*
X139343571Y-151567928D02*
X139343571Y-152082214D01*
X139372142Y-152139357D01*
X139429285Y-152167928D01*
X139486428Y-152167928D01*
X139600714Y-151767928D02*
X139829285Y-151767928D01*
X139686428Y-151567928D02*
X139686428Y-152082214D01*
X139715000Y-152139357D01*
X139772142Y-152167928D01*
X139829285Y-152167928D01*
X140029285Y-151767928D02*
X140029285Y-152367928D01*
X140029285Y-151796500D02*
X140086428Y-151767928D01*
X140200714Y-151767928D01*
X140257857Y-151796500D01*
X140286428Y-151825071D01*
X140315000Y-151882214D01*
X140315000Y-152053642D01*
X140286428Y-152110785D01*
X140257857Y-152139357D01*
X140200714Y-152167928D01*
X140086428Y-152167928D01*
X140029285Y-152139357D01*
X140543571Y-152139357D02*
X140600714Y-152167928D01*
X140715000Y-152167928D01*
X140772142Y-152139357D01*
X140800714Y-152082214D01*
X140800714Y-152053642D01*
X140772142Y-151996500D01*
X140715000Y-151967928D01*
X140629285Y-151967928D01*
X140572142Y-151939357D01*
X140543571Y-151882214D01*
X140543571Y-151853642D01*
X140572142Y-151796500D01*
X140629285Y-151767928D01*
X140715000Y-151767928D01*
X140772142Y-151796500D01*
X141057857Y-152110785D02*
X141086428Y-152139357D01*
X141057857Y-152167928D01*
X141029285Y-152139357D01*
X141057857Y-152110785D01*
X141057857Y-152167928D01*
X141057857Y-151796500D02*
X141086428Y-151825071D01*
X141057857Y-151853642D01*
X141029285Y-151825071D01*
X141057857Y-151796500D01*
X141057857Y-151853642D01*
X141772142Y-151539357D02*
X141257857Y-152310785D01*
X142400714Y-151539357D02*
X141886428Y-152310785D01*
X142857857Y-151767928D02*
X142857857Y-152253642D01*
X142829285Y-152310785D01*
X142800714Y-152339357D01*
X142743571Y-152367928D01*
X142657857Y-152367928D01*
X142600714Y-152339357D01*
X142857857Y-152139357D02*
X142800714Y-152167928D01*
X142686428Y-152167928D01*
X142629285Y-152139357D01*
X142600714Y-152110785D01*
X142572142Y-152053642D01*
X142572142Y-151882214D01*
X142600714Y-151825071D01*
X142629285Y-151796500D01*
X142686428Y-151767928D01*
X142800714Y-151767928D01*
X142857857Y-151796500D01*
X143143571Y-152167928D02*
X143143571Y-151767928D01*
X143143571Y-151567928D02*
X143115000Y-151596500D01*
X143143571Y-151625071D01*
X143172142Y-151596500D01*
X143143571Y-151567928D01*
X143143571Y-151625071D01*
X143343571Y-151767928D02*
X143572142Y-151767928D01*
X143429285Y-151567928D02*
X143429285Y-152082214D01*
X143457857Y-152139357D01*
X143515000Y-152167928D01*
X143572142Y-152167928D01*
X143772142Y-152167928D02*
X143772142Y-151567928D01*
X144029285Y-152167928D02*
X144029285Y-151853642D01*
X144000714Y-151796500D01*
X143943571Y-151767928D01*
X143857857Y-151767928D01*
X143800714Y-151796500D01*
X143772142Y-151825071D01*
X144572142Y-151767928D02*
X144572142Y-152167928D01*
X144315000Y-151767928D02*
X144315000Y-152082214D01*
X144343571Y-152139357D01*
X144400714Y-152167928D01*
X144486428Y-152167928D01*
X144543571Y-152139357D01*
X144572142Y-152110785D01*
X144857857Y-152167928D02*
X144857857Y-151567928D01*
X144857857Y-151796500D02*
X144915000Y-151767928D01*
X145029285Y-151767928D01*
X145086428Y-151796500D01*
X145115000Y-151825071D01*
X145143571Y-151882214D01*
X145143571Y-152053642D01*
X145115000Y-152110785D01*
X145086428Y-152139357D01*
X145029285Y-152167928D01*
X144915000Y-152167928D01*
X144857857Y-152139357D01*
X145400714Y-152110785D02*
X145429285Y-152139357D01*
X145400714Y-152167928D01*
X145372142Y-152139357D01*
X145400714Y-152110785D01*
X145400714Y-152167928D01*
X145943571Y-152139357D02*
X145886428Y-152167928D01*
X145772142Y-152167928D01*
X145715000Y-152139357D01*
X145686428Y-152110785D01*
X145657857Y-152053642D01*
X145657857Y-151882214D01*
X145686428Y-151825071D01*
X145715000Y-151796500D01*
X145772142Y-151767928D01*
X145886428Y-151767928D01*
X145943571Y-151796500D01*
X146286428Y-152167928D02*
X146229285Y-152139357D01*
X146200714Y-152110785D01*
X146172142Y-152053642D01*
X146172142Y-151882214D01*
X146200714Y-151825071D01*
X146229285Y-151796500D01*
X146286428Y-151767928D01*
X146372142Y-151767928D01*
X146429285Y-151796500D01*
X146457857Y-151825071D01*
X146486428Y-151882214D01*
X146486428Y-152053642D01*
X146457857Y-152110785D01*
X146429285Y-152139357D01*
X146372142Y-152167928D01*
X146286428Y-152167928D01*
X146743571Y-152167928D02*
X146743571Y-151767928D01*
X146743571Y-151825071D02*
X146772142Y-151796500D01*
X146829285Y-151767928D01*
X146915000Y-151767928D01*
X146972142Y-151796500D01*
X147000714Y-151853642D01*
X147000714Y-152167928D01*
X147000714Y-151853642D02*
X147029285Y-151796500D01*
X147086428Y-151767928D01*
X147172142Y-151767928D01*
X147229285Y-151796500D01*
X147257857Y-151853642D01*
X147257857Y-152167928D01*
X147972142Y-151539357D02*
X147457857Y-152310785D01*
X148143571Y-152139357D02*
X148200714Y-152167928D01*
X148315000Y-152167928D01*
X148372142Y-152139357D01*
X148400714Y-152082214D01*
X148400714Y-152053642D01*
X148372142Y-151996500D01*
X148315000Y-151967928D01*
X148229285Y-151967928D01*
X148172142Y-151939357D01*
X148143571Y-151882214D01*
X148143571Y-151853642D01*
X148172142Y-151796500D01*
X148229285Y-151767928D01*
X148315000Y-151767928D01*
X148372142Y-151796500D01*
X148743571Y-152167928D02*
X148686428Y-152139357D01*
X148657857Y-152110785D01*
X148629285Y-152053642D01*
X148629285Y-151882214D01*
X148657857Y-151825071D01*
X148686428Y-151796500D01*
X148743571Y-151767928D01*
X148829285Y-151767928D01*
X148886428Y-151796500D01*
X148915000Y-151825071D01*
X148943571Y-151882214D01*
X148943571Y-152053642D01*
X148915000Y-152110785D01*
X148886428Y-152139357D01*
X148829285Y-152167928D01*
X148743571Y-152167928D01*
X149286428Y-152167928D02*
X149229285Y-152139357D01*
X149200714Y-152082214D01*
X149200714Y-151567928D01*
X149772142Y-152167928D02*
X149772142Y-151853642D01*
X149743571Y-151796500D01*
X149686428Y-151767928D01*
X149572142Y-151767928D01*
X149515000Y-151796500D01*
X149772142Y-152139357D02*
X149715000Y-152167928D01*
X149572142Y-152167928D01*
X149515000Y-152139357D01*
X149486428Y-152082214D01*
X149486428Y-152025071D01*
X149515000Y-151967928D01*
X149572142Y-151939357D01*
X149715000Y-151939357D01*
X149772142Y-151910785D01*
X150057857Y-152167928D02*
X150057857Y-151767928D01*
X150057857Y-151882214D02*
X150086428Y-151825071D01*
X150115000Y-151796500D01*
X150172142Y-151767928D01*
X150229285Y-151767928D01*
X150429285Y-152167928D02*
X150429285Y-151767928D01*
X150429285Y-151825071D02*
X150457857Y-151796500D01*
X150515000Y-151767928D01*
X150600714Y-151767928D01*
X150657857Y-151796500D01*
X150686428Y-151853642D01*
X150686428Y-152167928D01*
X150686428Y-151853642D02*
X150715000Y-151796500D01*
X150772142Y-151767928D01*
X150857857Y-151767928D01*
X150915000Y-151796500D01*
X150943571Y-151853642D01*
X150943571Y-152167928D01*
X151315000Y-152167928D02*
X151257857Y-152139357D01*
X151229285Y-152110785D01*
X151200714Y-152053642D01*
X151200714Y-151882214D01*
X151229285Y-151825071D01*
X151257857Y-151796500D01*
X151315000Y-151767928D01*
X151400714Y-151767928D01*
X151457857Y-151796500D01*
X151486428Y-151825071D01*
X151515000Y-151882214D01*
X151515000Y-152053642D01*
X151486428Y-152110785D01*
X151457857Y-152139357D01*
X151400714Y-152167928D01*
X151315000Y-152167928D01*
X151772142Y-151767928D02*
X151772142Y-152167928D01*
X151772142Y-151825071D02*
X151800714Y-151796500D01*
X151857857Y-151767928D01*
X151943571Y-151767928D01*
X152000714Y-151796500D01*
X152029285Y-151853642D01*
X152029285Y-152167928D01*
X172202142Y-151651857D02*
X172166428Y-151687571D01*
X172059285Y-151723285D01*
X171987857Y-151723285D01*
X171880714Y-151687571D01*
X171809285Y-151616142D01*
X171773571Y-151544714D01*
X171737857Y-151401857D01*
X171737857Y-151294714D01*
X171773571Y-151151857D01*
X171809285Y-151080428D01*
X171880714Y-151009000D01*
X171987857Y-150973285D01*
X172059285Y-150973285D01*
X172166428Y-151009000D01*
X172202142Y-151044714D01*
X172523571Y-151723285D02*
X172523571Y-150973285D01*
X172952142Y-151723285D01*
X172952142Y-150973285D01*
X173702142Y-151723285D02*
X173273571Y-151723285D01*
X173487857Y-151723285D02*
X173487857Y-150973285D01*
X173416428Y-151080428D01*
X173345000Y-151151857D01*
X173273571Y-151187571D01*
X177282142Y-151651857D02*
X177246428Y-151687571D01*
X177139285Y-151723285D01*
X177067857Y-151723285D01*
X176960714Y-151687571D01*
X176889285Y-151616142D01*
X176853571Y-151544714D01*
X176817857Y-151401857D01*
X176817857Y-151294714D01*
X176853571Y-151151857D01*
X176889285Y-151080428D01*
X176960714Y-151009000D01*
X177067857Y-150973285D01*
X177139285Y-150973285D01*
X177246428Y-151009000D01*
X177282142Y-151044714D01*
X177603571Y-151723285D02*
X177603571Y-150973285D01*
X178032142Y-151723285D01*
X178032142Y-150973285D01*
X178353571Y-151044714D02*
X178389285Y-151009000D01*
X178460714Y-150973285D01*
X178639285Y-150973285D01*
X178710714Y-151009000D01*
X178746428Y-151044714D01*
X178782142Y-151116142D01*
X178782142Y-151187571D01*
X178746428Y-151294714D01*
X178317857Y-151723285D01*
X178782142Y-151723285D01*
X172202142Y-144285857D02*
X172166428Y-144321571D01*
X172059285Y-144357285D01*
X171987857Y-144357285D01*
X171880714Y-144321571D01*
X171809285Y-144250142D01*
X171773571Y-144178714D01*
X171737857Y-144035857D01*
X171737857Y-143928714D01*
X171773571Y-143785857D01*
X171809285Y-143714428D01*
X171880714Y-143643000D01*
X171987857Y-143607285D01*
X172059285Y-143607285D01*
X172166428Y-143643000D01*
X172202142Y-143678714D01*
X172523571Y-144357285D02*
X172523571Y-143607285D01*
X172952142Y-144357285D01*
X172952142Y-143607285D01*
X173273571Y-143678714D02*
X173309285Y-143643000D01*
X173380714Y-143607285D01*
X173559285Y-143607285D01*
X173630714Y-143643000D01*
X173666428Y-143678714D01*
X173702142Y-143750142D01*
X173702142Y-143821571D01*
X173666428Y-143928714D01*
X173237857Y-144357285D01*
X173702142Y-144357285D01*
X177282142Y-144285857D02*
X177246428Y-144321571D01*
X177139285Y-144357285D01*
X177067857Y-144357285D01*
X176960714Y-144321571D01*
X176889285Y-144250142D01*
X176853571Y-144178714D01*
X176817857Y-144035857D01*
X176817857Y-143928714D01*
X176853571Y-143785857D01*
X176889285Y-143714428D01*
X176960714Y-143643000D01*
X177067857Y-143607285D01*
X177139285Y-143607285D01*
X177246428Y-143643000D01*
X177282142Y-143678714D01*
X177603571Y-144357285D02*
X177603571Y-143607285D01*
X178032142Y-144357285D01*
X178032142Y-143607285D01*
X178782142Y-144357285D02*
X178353571Y-144357285D01*
X178567857Y-144357285D02*
X178567857Y-143607285D01*
X178496428Y-143714428D01*
X178425000Y-143785857D01*
X178353571Y-143821571D01*
D13*
X144475238Y-148838000D02*
X144437142Y-148818952D01*
X144380000Y-148818952D01*
X144322857Y-148838000D01*
X144284761Y-148876095D01*
X144265714Y-148914190D01*
X144246666Y-148990380D01*
X144246666Y-149047523D01*
X144265714Y-149123714D01*
X144284761Y-149161809D01*
X144322857Y-149199904D01*
X144380000Y-149218952D01*
X144418095Y-149218952D01*
X144475238Y-149199904D01*
X144494285Y-149180857D01*
X144494285Y-149047523D01*
X144418095Y-149047523D01*
X144665714Y-149218952D02*
X144665714Y-148818952D01*
X144894285Y-149218952D01*
X144894285Y-148818952D01*
X145084761Y-149218952D02*
X145084761Y-148818952D01*
X145180000Y-148818952D01*
X145237142Y-148838000D01*
X145275238Y-148876095D01*
X145294285Y-148914190D01*
X145313333Y-148990380D01*
X145313333Y-149047523D01*
X145294285Y-149123714D01*
X145275238Y-149161809D01*
X145237142Y-149199904D01*
X145180000Y-149218952D01*
X145084761Y-149218952D01*
X147015238Y-148838000D02*
X146977142Y-148818952D01*
X146920000Y-148818952D01*
X146862857Y-148838000D01*
X146824761Y-148876095D01*
X146805714Y-148914190D01*
X146786666Y-148990380D01*
X146786666Y-149047523D01*
X146805714Y-149123714D01*
X146824761Y-149161809D01*
X146862857Y-149199904D01*
X146920000Y-149218952D01*
X146958095Y-149218952D01*
X147015238Y-149199904D01*
X147034285Y-149180857D01*
X147034285Y-149047523D01*
X146958095Y-149047523D01*
X147205714Y-149218952D02*
X147205714Y-148818952D01*
X147434285Y-149218952D01*
X147434285Y-148818952D01*
X147624761Y-149218952D02*
X147624761Y-148818952D01*
X147720000Y-148818952D01*
X147777142Y-148838000D01*
X147815238Y-148876095D01*
X147834285Y-148914190D01*
X147853333Y-148990380D01*
X147853333Y-149047523D01*
X147834285Y-149123714D01*
X147815238Y-149161809D01*
X147777142Y-149199904D01*
X147720000Y-149218952D01*
X147624761Y-149218952D01*
X141535238Y-149066571D02*
X141840000Y-149066571D01*
X141687619Y-149218952D02*
X141687619Y-148914190D01*
X142240000Y-149218952D02*
X142011428Y-149218952D01*
X142125714Y-149218952D02*
X142125714Y-148818952D01*
X142087619Y-148876095D01*
X142049523Y-148914190D01*
X142011428Y-148933238D01*
X142392380Y-148857047D02*
X142411428Y-148838000D01*
X142449523Y-148818952D01*
X142544761Y-148818952D01*
X142582857Y-148838000D01*
X142601904Y-148857047D01*
X142620952Y-148895142D01*
X142620952Y-148933238D01*
X142601904Y-148990380D01*
X142373333Y-149218952D01*
X142620952Y-149218952D01*
X142735238Y-148818952D02*
X142868571Y-149218952D01*
X143001904Y-148818952D01*
X149345714Y-149066571D02*
X149650476Y-149066571D01*
X149498095Y-149218952D02*
X149498095Y-148914190D01*
X150031428Y-148818952D02*
X149840952Y-148818952D01*
X149821904Y-149009428D01*
X149840952Y-148990380D01*
X149879047Y-148971333D01*
X149974285Y-148971333D01*
X150012380Y-148990380D01*
X150031428Y-149009428D01*
X150050476Y-149047523D01*
X150050476Y-149142761D01*
X150031428Y-149180857D01*
X150012380Y-149199904D01*
X149974285Y-149218952D01*
X149879047Y-149218952D01*
X149840952Y-149199904D01*
X149821904Y-149180857D01*
X150164761Y-148818952D02*
X150298095Y-149218952D01*
X150431428Y-148818952D01*
X156775238Y-149066571D02*
X157080000Y-149066571D01*
X156927619Y-149218952D02*
X156927619Y-148914190D01*
X157480000Y-149218952D02*
X157251428Y-149218952D01*
X157365714Y-149218952D02*
X157365714Y-148818952D01*
X157327619Y-148876095D01*
X157289523Y-148914190D01*
X157251428Y-148933238D01*
X157632380Y-148857047D02*
X157651428Y-148838000D01*
X157689523Y-148818952D01*
X157784761Y-148818952D01*
X157822857Y-148838000D01*
X157841904Y-148857047D01*
X157860952Y-148895142D01*
X157860952Y-148933238D01*
X157841904Y-148990380D01*
X157613333Y-149218952D01*
X157860952Y-149218952D01*
X157975238Y-148818952D02*
X158108571Y-149218952D01*
X158241904Y-148818952D01*
D10*
X171084857Y-144752190D02*
X170799142Y-144752190D01*
X170942000Y-144752190D02*
X170942000Y-144252190D01*
X170894380Y-144323619D01*
X170846761Y-144371238D01*
X170799142Y-144395047D01*
X179673238Y-150348190D02*
X179578000Y-150348190D01*
X179530380Y-150372000D01*
X179506571Y-150395809D01*
X179458952Y-150467238D01*
X179435142Y-150562476D01*
X179435142Y-150752952D01*
X179458952Y-150800571D01*
X179482761Y-150824380D01*
X179530380Y-150848190D01*
X179625619Y-150848190D01*
X179673238Y-150824380D01*
X179697047Y-150800571D01*
X179720857Y-150752952D01*
X179720857Y-150633904D01*
X179697047Y-150586285D01*
X179673238Y-150562476D01*
X179625619Y-150538666D01*
X179530380Y-150538666D01*
X179482761Y-150562476D01*
X179458952Y-150586285D01*
X179435142Y-150633904D01*
X134072285Y-152485285D02*
X133643714Y-152485285D01*
X133858000Y-152485285D02*
X133858000Y-151735285D01*
X133786571Y-151842428D01*
X133715142Y-151913857D01*
X133643714Y-151949571D01*
X167219285Y-148421285D02*
X166790714Y-148421285D01*
X167005000Y-148421285D02*
X167005000Y-147671285D01*
X166933571Y-147778428D01*
X166862142Y-147849857D01*
X166790714Y-147885571D01*
X151979285Y-148167285D02*
X151550714Y-148167285D01*
X151765000Y-148167285D02*
X151765000Y-147417285D01*
X151693571Y-147524428D01*
X151622142Y-147595857D01*
X151550714Y-147631571D01*
X171037238Y-150514857D02*
X171037238Y-150848190D01*
X170918190Y-150324380D02*
X170799142Y-150681523D01*
X171108666Y-150681523D01*
D13*
X159715238Y-148838000D02*
X159677142Y-148818952D01*
X159620000Y-148818952D01*
X159562857Y-148838000D01*
X159524761Y-148876095D01*
X159505714Y-148914190D01*
X159486666Y-148990380D01*
X159486666Y-149047523D01*
X159505714Y-149123714D01*
X159524761Y-149161809D01*
X159562857Y-149199904D01*
X159620000Y-149218952D01*
X159658095Y-149218952D01*
X159715238Y-149199904D01*
X159734285Y-149180857D01*
X159734285Y-149047523D01*
X159658095Y-149047523D01*
X159905714Y-149218952D02*
X159905714Y-148818952D01*
X160134285Y-149218952D01*
X160134285Y-148818952D01*
X160324761Y-149218952D02*
X160324761Y-148818952D01*
X160420000Y-148818952D01*
X160477142Y-148838000D01*
X160515238Y-148876095D01*
X160534285Y-148914190D01*
X160553333Y-148990380D01*
X160553333Y-149047523D01*
X160534285Y-149123714D01*
X160515238Y-149161809D01*
X160477142Y-149199904D01*
X160420000Y-149218952D01*
X160324761Y-149218952D01*
X162255238Y-148838000D02*
X162217142Y-148818952D01*
X162160000Y-148818952D01*
X162102857Y-148838000D01*
X162064761Y-148876095D01*
X162045714Y-148914190D01*
X162026666Y-148990380D01*
X162026666Y-149047523D01*
X162045714Y-149123714D01*
X162064761Y-149161809D01*
X162102857Y-149199904D01*
X162160000Y-149218952D01*
X162198095Y-149218952D01*
X162255238Y-149199904D01*
X162274285Y-149180857D01*
X162274285Y-149047523D01*
X162198095Y-149047523D01*
X162445714Y-149218952D02*
X162445714Y-148818952D01*
X162674285Y-149218952D01*
X162674285Y-148818952D01*
X162864761Y-149218952D02*
X162864761Y-148818952D01*
X162960000Y-148818952D01*
X163017142Y-148838000D01*
X163055238Y-148876095D01*
X163074285Y-148914190D01*
X163093333Y-148990380D01*
X163093333Y-149047523D01*
X163074285Y-149123714D01*
X163055238Y-149161809D01*
X163017142Y-149199904D01*
X162960000Y-149218952D01*
X162864761Y-149218952D01*
X164585714Y-149066571D02*
X164890476Y-149066571D01*
X164738095Y-149218952D02*
X164738095Y-148914190D01*
X165271428Y-148818952D02*
X165080952Y-148818952D01*
X165061904Y-149009428D01*
X165080952Y-148990380D01*
X165119047Y-148971333D01*
X165214285Y-148971333D01*
X165252380Y-148990380D01*
X165271428Y-149009428D01*
X165290476Y-149047523D01*
X165290476Y-149142761D01*
X165271428Y-149180857D01*
X165252380Y-149199904D01*
X165214285Y-149218952D01*
X165119047Y-149218952D01*
X165080952Y-149199904D01*
X165061904Y-149180857D01*
X165404761Y-148818952D02*
X165538095Y-149218952D01*
X165671428Y-148818952D01*
X162695714Y-142221714D02*
X162395714Y-142221714D01*
X162695714Y-142050285D01*
X162395714Y-142050285D01*
X162667142Y-141736000D02*
X162681428Y-141750285D01*
X162695714Y-141793142D01*
X162695714Y-141821714D01*
X162681428Y-141864571D01*
X162652857Y-141893142D01*
X162624285Y-141907428D01*
X162567142Y-141921714D01*
X162524285Y-141921714D01*
X162467142Y-141907428D01*
X162438571Y-141893142D01*
X162410000Y-141864571D01*
X162395714Y-141821714D01*
X162395714Y-141793142D01*
X162410000Y-141750285D01*
X162424285Y-141736000D01*
X172855714Y-141967714D02*
X172555714Y-141967714D01*
X172855714Y-141796285D01*
X172555714Y-141796285D01*
X172827142Y-141482000D02*
X172841428Y-141496285D01*
X172855714Y-141539142D01*
X172855714Y-141567714D01*
X172841428Y-141610571D01*
X172812857Y-141639142D01*
X172784285Y-141653428D01*
X172727142Y-141667714D01*
X172684285Y-141667714D01*
X172627142Y-141653428D01*
X172598571Y-141639142D01*
X172570000Y-141610571D01*
X172555714Y-141567714D01*
X172555714Y-141539142D01*
X172570000Y-141496285D01*
X172584285Y-141482000D01*
X177964285Y-142968571D02*
X177964285Y-142740000D01*
X177907142Y-142497142D02*
X177921428Y-142511428D01*
X177935714Y-142554285D01*
X177935714Y-142582857D01*
X177921428Y-142625714D01*
X177892857Y-142654285D01*
X177864285Y-142668571D01*
X177807142Y-142682857D01*
X177764285Y-142682857D01*
X177707142Y-142668571D01*
X177678571Y-142654285D01*
X177650000Y-142625714D01*
X177635714Y-142582857D01*
X177635714Y-142554285D01*
X177650000Y-142511428D01*
X177664285Y-142497142D01*
X177935714Y-142368571D02*
X177635714Y-142368571D01*
X177778571Y-142368571D02*
X177778571Y-142197142D01*
X177935714Y-142197142D02*
X177635714Y-142197142D01*
X177935714Y-142054285D02*
X177635714Y-142054285D01*
X177935714Y-141882857D01*
X177635714Y-141882857D01*
X177650000Y-141582857D02*
X177635714Y-141611428D01*
X177635714Y-141654285D01*
X177650000Y-141697142D01*
X177678571Y-141725714D01*
X177707142Y-141740000D01*
X177764285Y-141754285D01*
X177807142Y-141754285D01*
X177864285Y-141740000D01*
X177892857Y-141725714D01*
X177921428Y-141697142D01*
X177935714Y-141654285D01*
X177935714Y-141625714D01*
X177921428Y-141582857D01*
X177907142Y-141568571D01*
X177807142Y-141568571D01*
X177807142Y-141625714D01*
X175424285Y-143018571D02*
X175424285Y-142790000D01*
X175395714Y-142718571D02*
X175095714Y-142718571D01*
X175395714Y-142575714D02*
X175095714Y-142575714D01*
X175395714Y-142404285D01*
X175095714Y-142404285D01*
X175095714Y-142261428D02*
X175338571Y-142261428D01*
X175367142Y-142247142D01*
X175381428Y-142232857D01*
X175395714Y-142204285D01*
X175395714Y-142147142D01*
X175381428Y-142118571D01*
X175367142Y-142104285D01*
X175338571Y-142090000D01*
X175095714Y-142090000D01*
X175381428Y-141961428D02*
X175395714Y-141918571D01*
X175395714Y-141847142D01*
X175381428Y-141818571D01*
X175367142Y-141804285D01*
X175338571Y-141790000D01*
X175310000Y-141790000D01*
X175281428Y-141804285D01*
X175267142Y-141818571D01*
X175252857Y-141847142D01*
X175238571Y-141904285D01*
X175224285Y-141932857D01*
X175210000Y-141947142D01*
X175181428Y-141961428D01*
X175152857Y-141961428D01*
X175124285Y-141947142D01*
X175110000Y-141932857D01*
X175095714Y-141904285D01*
X175095714Y-141832857D01*
X175110000Y-141790000D01*
X175238571Y-141661428D02*
X175238571Y-141561428D01*
X175395714Y-141518571D02*
X175395714Y-141661428D01*
X175095714Y-141661428D01*
X175095714Y-141518571D01*
D12*
X170399047Y-143268571D02*
X170399047Y-142963809D01*
X170360952Y-142868571D02*
X169960952Y-142868571D01*
X170360952Y-142678095D02*
X169960952Y-142678095D01*
X170360952Y-142449523D01*
X169960952Y-142449523D01*
X170360952Y-142259047D02*
X169960952Y-142259047D01*
X169960952Y-142163809D01*
X169980000Y-142106666D01*
X170018095Y-142068571D01*
X170056190Y-142049523D01*
X170132380Y-142030476D01*
X170189523Y-142030476D01*
X170265714Y-142049523D01*
X170303809Y-142068571D01*
X170341904Y-142106666D01*
X170360952Y-142163809D01*
X170360952Y-142259047D01*
X170151428Y-141859047D02*
X170151428Y-141725714D01*
X170360952Y-141668571D02*
X170360952Y-141859047D01*
X169960952Y-141859047D01*
X169960952Y-141668571D01*
X169960952Y-141535238D02*
X170360952Y-141268571D01*
X169960952Y-141268571D02*
X170360952Y-141535238D01*
D14*
X167968571Y-143808285D02*
X167968571Y-143351142D01*
X167882857Y-143236857D02*
X167911428Y-143151142D01*
X167911428Y-143008285D01*
X167882857Y-142951142D01*
X167854285Y-142922571D01*
X167797142Y-142894000D01*
X167740000Y-142894000D01*
X167682857Y-142922571D01*
X167654285Y-142951142D01*
X167625714Y-143008285D01*
X167597142Y-143122571D01*
X167568571Y-143179714D01*
X167540000Y-143208285D01*
X167482857Y-143236857D01*
X167425714Y-143236857D01*
X167368571Y-143208285D01*
X167340000Y-143179714D01*
X167311428Y-143122571D01*
X167311428Y-142979714D01*
X167340000Y-142894000D01*
X167597142Y-142636857D02*
X167597142Y-142436857D01*
X167911428Y-142351142D02*
X167911428Y-142636857D01*
X167311428Y-142636857D01*
X167311428Y-142351142D01*
X167911428Y-141808285D02*
X167911428Y-142094000D01*
X167311428Y-142094000D01*
X167311428Y-141494000D02*
X167311428Y-141436857D01*
X167340000Y-141379714D01*
X167368571Y-141351142D01*
X167425714Y-141322571D01*
X167540000Y-141294000D01*
X167682857Y-141294000D01*
X167797142Y-141322571D01*
X167854285Y-141351142D01*
X167882857Y-141379714D01*
X167911428Y-141436857D01*
X167911428Y-141494000D01*
X167882857Y-141551142D01*
X167854285Y-141579714D01*
X167797142Y-141608285D01*
X167682857Y-141636857D01*
X167540000Y-141636857D01*
X167425714Y-141608285D01*
X167368571Y-141579714D01*
X167340000Y-141551142D01*
X167311428Y-141494000D01*
X165428571Y-143808285D02*
X165428571Y-143351142D01*
X165342857Y-143236857D02*
X165371428Y-143151142D01*
X165371428Y-143008285D01*
X165342857Y-142951142D01*
X165314285Y-142922571D01*
X165257142Y-142894000D01*
X165200000Y-142894000D01*
X165142857Y-142922571D01*
X165114285Y-142951142D01*
X165085714Y-143008285D01*
X165057142Y-143122571D01*
X165028571Y-143179714D01*
X165000000Y-143208285D01*
X164942857Y-143236857D01*
X164885714Y-143236857D01*
X164828571Y-143208285D01*
X164800000Y-143179714D01*
X164771428Y-143122571D01*
X164771428Y-142979714D01*
X164800000Y-142894000D01*
X165057142Y-142636857D02*
X165057142Y-142436857D01*
X165371428Y-142351142D02*
X165371428Y-142636857D01*
X164771428Y-142636857D01*
X164771428Y-142351142D01*
X165371428Y-141808285D02*
X165371428Y-142094000D01*
X164771428Y-142094000D01*
X165371428Y-141294000D02*
X165371428Y-141636857D01*
X165371428Y-141465428D02*
X164771428Y-141465428D01*
X164857142Y-141522571D01*
X164914285Y-141579714D01*
X164942857Y-141636857D01*
D12*
X160239047Y-142973333D02*
X160239047Y-142668571D01*
X160200952Y-142573333D02*
X159800952Y-142573333D01*
X160086666Y-142440000D01*
X159800952Y-142306666D01*
X160200952Y-142306666D01*
X159800952Y-142173333D02*
X159800952Y-141944761D01*
X160200952Y-142059047D02*
X159800952Y-142059047D01*
X160200952Y-141582857D02*
X160010476Y-141716190D01*
X160200952Y-141811428D02*
X159800952Y-141811428D01*
X159800952Y-141659047D01*
X159820000Y-141620952D01*
X159839047Y-141601904D01*
X159877142Y-141582857D01*
X159934285Y-141582857D01*
X159972380Y-141601904D01*
X159991428Y-141620952D01*
X160010476Y-141659047D01*
X160010476Y-141811428D01*
X157699047Y-142633619D02*
X157699047Y-142328857D01*
X157660952Y-142233619D02*
X157260952Y-142233619D01*
X157260952Y-142138380D01*
X157280000Y-142081238D01*
X157318095Y-142043142D01*
X157356190Y-142024095D01*
X157432380Y-142005047D01*
X157489523Y-142005047D01*
X157565714Y-142024095D01*
X157603809Y-142043142D01*
X157641904Y-142081238D01*
X157660952Y-142138380D01*
X157660952Y-142233619D01*
X157660952Y-141833619D02*
X157260952Y-141833619D01*
X157660952Y-141414571D02*
X157470476Y-141547904D01*
X157660952Y-141643142D02*
X157260952Y-141643142D01*
X157260952Y-141490761D01*
X157280000Y-141452666D01*
X157299047Y-141433619D01*
X157337142Y-141414571D01*
X157394285Y-141414571D01*
X157432380Y-141433619D01*
X157451428Y-141452666D01*
X157470476Y-141490761D01*
X157470476Y-141643142D01*
X155159047Y-143116190D02*
X155159047Y-142811428D01*
X155101904Y-142735238D02*
X155120952Y-142678095D01*
X155120952Y-142582857D01*
X155101904Y-142544761D01*
X155082857Y-142525714D01*
X155044761Y-142506666D01*
X155006666Y-142506666D01*
X154968571Y-142525714D01*
X154949523Y-142544761D01*
X154930476Y-142582857D01*
X154911428Y-142659047D01*
X154892380Y-142697142D01*
X154873333Y-142716190D01*
X154835238Y-142735238D01*
X154797142Y-142735238D01*
X154759047Y-142716190D01*
X154740000Y-142697142D01*
X154720952Y-142659047D01*
X154720952Y-142563809D01*
X154740000Y-142506666D01*
X154720952Y-142392380D02*
X154720952Y-142163809D01*
X155120952Y-142278095D02*
X154720952Y-142278095D01*
X154911428Y-142030476D02*
X154911428Y-141897142D01*
X155120952Y-141840000D02*
X155120952Y-142030476D01*
X154720952Y-142030476D01*
X154720952Y-141840000D01*
X155120952Y-141668571D02*
X154720952Y-141668571D01*
X154720952Y-141516190D01*
X154740000Y-141478095D01*
X154759047Y-141459047D01*
X154797142Y-141440000D01*
X154854285Y-141440000D01*
X154892380Y-141459047D01*
X154911428Y-141478095D01*
X154930476Y-141516190D01*
X154930476Y-141668571D01*
X152619047Y-143474952D02*
X152619047Y-143170190D01*
X152580952Y-143074952D02*
X152180952Y-143074952D01*
X152180952Y-142979714D01*
X152200000Y-142922571D01*
X152238095Y-142884476D01*
X152276190Y-142865428D01*
X152352380Y-142846380D01*
X152409523Y-142846380D01*
X152485714Y-142865428D01*
X152523809Y-142884476D01*
X152561904Y-142922571D01*
X152580952Y-142979714D01*
X152580952Y-143074952D01*
X152580952Y-142674952D02*
X152180952Y-142674952D01*
X152580952Y-142446380D02*
X152352380Y-142617809D01*
X152180952Y-142446380D02*
X152409523Y-142674952D01*
X152180952Y-142313047D02*
X152580952Y-142217809D01*
X152295238Y-142141619D01*
X152580952Y-142065428D01*
X152180952Y-141970190D01*
X152580952Y-141817809D02*
X152180952Y-141817809D01*
X152180952Y-141722571D01*
X152200000Y-141665428D01*
X152238095Y-141627333D01*
X152276190Y-141608285D01*
X152352380Y-141589238D01*
X152409523Y-141589238D01*
X152485714Y-141608285D01*
X152523809Y-141627333D01*
X152561904Y-141665428D01*
X152580952Y-141722571D01*
X152580952Y-141817809D01*
X150079047Y-143201904D02*
X150079047Y-142897142D01*
X150040952Y-142801904D02*
X149640952Y-142801904D01*
X149640952Y-142706666D01*
X149660000Y-142649523D01*
X149698095Y-142611428D01*
X149736190Y-142592380D01*
X149812380Y-142573333D01*
X149869523Y-142573333D01*
X149945714Y-142592380D01*
X149983809Y-142611428D01*
X150021904Y-142649523D01*
X150040952Y-142706666D01*
X150040952Y-142801904D01*
X150040952Y-142401904D02*
X149640952Y-142401904D01*
X150040952Y-142173333D02*
X149812380Y-142344761D01*
X149640952Y-142173333D02*
X149869523Y-142401904D01*
X149640952Y-142040000D02*
X150040952Y-141944761D01*
X149755238Y-141868571D01*
X150040952Y-141792380D01*
X149640952Y-141697142D01*
X149831428Y-141544761D02*
X149831428Y-141411428D01*
X150040952Y-141354285D02*
X150040952Y-141544761D01*
X149640952Y-141544761D01*
X149640952Y-141354285D01*
X147539047Y-143135238D02*
X147539047Y-142830476D01*
X147100952Y-142792380D02*
X147100952Y-142563809D01*
X147500952Y-142678095D02*
X147100952Y-142678095D01*
X147500952Y-142201904D02*
X147310476Y-142335238D01*
X147500952Y-142430476D02*
X147100952Y-142430476D01*
X147100952Y-142278095D01*
X147120000Y-142240000D01*
X147139047Y-142220952D01*
X147177142Y-142201904D01*
X147234285Y-142201904D01*
X147272380Y-142220952D01*
X147291428Y-142240000D01*
X147310476Y-142278095D01*
X147310476Y-142430476D01*
X147500952Y-142030476D02*
X147100952Y-142030476D01*
X147500952Y-141801904D02*
X147272380Y-141973333D01*
X147100952Y-141801904D02*
X147329523Y-142030476D01*
X147100952Y-141554285D02*
X147100952Y-141516190D01*
X147120000Y-141478095D01*
X147139047Y-141459047D01*
X147177142Y-141440000D01*
X147253333Y-141420952D01*
X147348571Y-141420952D01*
X147424761Y-141440000D01*
X147462857Y-141459047D01*
X147481904Y-141478095D01*
X147500952Y-141516190D01*
X147500952Y-141554285D01*
X147481904Y-141592380D01*
X147462857Y-141611428D01*
X147424761Y-141630476D01*
X147348571Y-141649523D01*
X147253333Y-141649523D01*
X147177142Y-141630476D01*
X147139047Y-141611428D01*
X147120000Y-141592380D01*
X147100952Y-141554285D01*
X144999047Y-143836857D02*
X144999047Y-143532095D01*
X144560952Y-143474952D02*
X144960952Y-143379714D01*
X144675238Y-143303523D01*
X144960952Y-143227333D01*
X144560952Y-143132095D01*
X144960952Y-142751142D02*
X144770476Y-142884476D01*
X144960952Y-142979714D02*
X144560952Y-142979714D01*
X144560952Y-142827333D01*
X144580000Y-142789238D01*
X144599047Y-142770190D01*
X144637142Y-142751142D01*
X144694285Y-142751142D01*
X144732380Y-142770190D01*
X144751428Y-142789238D01*
X144770476Y-142827333D01*
X144770476Y-142979714D01*
X144960952Y-142579714D02*
X144560952Y-142579714D01*
X144560952Y-142427333D01*
X144580000Y-142389238D01*
X144599047Y-142370190D01*
X144637142Y-142351142D01*
X144694285Y-142351142D01*
X144732380Y-142370190D01*
X144751428Y-142389238D01*
X144770476Y-142427333D01*
X144770476Y-142579714D01*
X144960952Y-141951142D02*
X144770476Y-142084476D01*
X144960952Y-142179714D02*
X144560952Y-142179714D01*
X144560952Y-142027333D01*
X144580000Y-141989238D01*
X144599047Y-141970190D01*
X144637142Y-141951142D01*
X144694285Y-141951142D01*
X144732380Y-141970190D01*
X144751428Y-141989238D01*
X144770476Y-142027333D01*
X144770476Y-142179714D01*
X144560952Y-141703523D02*
X144560952Y-141627333D01*
X144580000Y-141589238D01*
X144618095Y-141551142D01*
X144694285Y-141532095D01*
X144827619Y-141532095D01*
X144903809Y-141551142D01*
X144941904Y-141589238D01*
X144960952Y-141627333D01*
X144960952Y-141703523D01*
X144941904Y-141741619D01*
X144903809Y-141779714D01*
X144827619Y-141798761D01*
X144694285Y-141798761D01*
X144618095Y-141779714D01*
X144580000Y-141741619D01*
X144560952Y-141703523D01*
X144560952Y-141417809D02*
X144560952Y-141189238D01*
X144960952Y-141303523D02*
X144560952Y-141303523D01*
X142459047Y-143192380D02*
X142459047Y-142887619D01*
X142420952Y-142792380D02*
X142020952Y-142792380D01*
X142020952Y-142697142D01*
X142040000Y-142640000D01*
X142078095Y-142601904D01*
X142116190Y-142582857D01*
X142192380Y-142563809D01*
X142249523Y-142563809D01*
X142325714Y-142582857D01*
X142363809Y-142601904D01*
X142401904Y-142640000D01*
X142420952Y-142697142D01*
X142420952Y-142792380D01*
X142420952Y-142392380D02*
X142020952Y-142392380D01*
X142420952Y-142163809D02*
X142192380Y-142335238D01*
X142020952Y-142163809D02*
X142249523Y-142392380D01*
X142420952Y-141763809D02*
X142230476Y-141897142D01*
X142420952Y-141992380D02*
X142020952Y-141992380D01*
X142020952Y-141840000D01*
X142040000Y-141801904D01*
X142059047Y-141782857D01*
X142097142Y-141763809D01*
X142154285Y-141763809D01*
X142192380Y-141782857D01*
X142211428Y-141801904D01*
X142230476Y-141840000D01*
X142230476Y-141992380D01*
X142420952Y-141592380D02*
X142020952Y-141592380D01*
X142020952Y-141497142D01*
X142040000Y-141440000D01*
X142078095Y-141401904D01*
X142116190Y-141382857D01*
X142192380Y-141363809D01*
X142249523Y-141363809D01*
X142325714Y-141382857D01*
X142363809Y-141401904D01*
X142401904Y-141440000D01*
X142420952Y-141497142D01*
X142420952Y-141592380D01*
X139919047Y-143059047D02*
X139919047Y-142754285D01*
X139861904Y-142678095D02*
X139880952Y-142620952D01*
X139880952Y-142525714D01*
X139861904Y-142487619D01*
X139842857Y-142468571D01*
X139804761Y-142449523D01*
X139766666Y-142449523D01*
X139728571Y-142468571D01*
X139709523Y-142487619D01*
X139690476Y-142525714D01*
X139671428Y-142601904D01*
X139652380Y-142640000D01*
X139633333Y-142659047D01*
X139595238Y-142678095D01*
X139557142Y-142678095D01*
X139519047Y-142659047D01*
X139500000Y-142640000D01*
X139480952Y-142601904D01*
X139480952Y-142506666D01*
X139500000Y-142449523D01*
X139880952Y-142278095D02*
X139480952Y-142278095D01*
X139880952Y-142087619D02*
X139480952Y-142087619D01*
X139480952Y-141992380D01*
X139500000Y-141935238D01*
X139538095Y-141897142D01*
X139576190Y-141878095D01*
X139652380Y-141859047D01*
X139709523Y-141859047D01*
X139785714Y-141878095D01*
X139823809Y-141897142D01*
X139861904Y-141935238D01*
X139880952Y-141992380D01*
X139880952Y-142087619D01*
X139671428Y-141687619D02*
X139671428Y-141554285D01*
X139880952Y-141497142D02*
X139880952Y-141687619D01*
X139480952Y-141687619D01*
X139480952Y-141497142D01*
X137379047Y-142709809D02*
X137379047Y-142405047D01*
X137340952Y-142081238D02*
X137150476Y-142214571D01*
X137340952Y-142309809D02*
X136940952Y-142309809D01*
X136940952Y-142157428D01*
X136960000Y-142119333D01*
X136979047Y-142100285D01*
X137017142Y-142081238D01*
X137074285Y-142081238D01*
X137112380Y-142100285D01*
X137131428Y-142119333D01*
X137150476Y-142157428D01*
X137150476Y-142309809D01*
X137340952Y-141909809D02*
X136940952Y-141909809D01*
X136940952Y-141814571D01*
X136960000Y-141757428D01*
X136998095Y-141719333D01*
X137036190Y-141700285D01*
X137112380Y-141681238D01*
X137169523Y-141681238D01*
X137245714Y-141700285D01*
X137283809Y-141719333D01*
X137321904Y-141757428D01*
X137340952Y-141814571D01*
X137340952Y-141909809D01*
X137150476Y-141433619D02*
X137340952Y-141433619D01*
X136940952Y-141566952D02*
X137150476Y-141433619D01*
X136940952Y-141300285D01*
D10*
X134866142Y-151419714D02*
X135247095Y-151419714D01*
X135056619Y-151610190D02*
X135056619Y-151229238D01*
X135723285Y-151110190D02*
X135485190Y-151110190D01*
X135461380Y-151348285D01*
X135485190Y-151324476D01*
X135532809Y-151300666D01*
X135651857Y-151300666D01*
X135699476Y-151324476D01*
X135723285Y-151348285D01*
X135747095Y-151395904D01*
X135747095Y-151514952D01*
X135723285Y-151562571D01*
X135699476Y-151586380D01*
X135651857Y-151610190D01*
X135532809Y-151610190D01*
X135485190Y-151586380D01*
X135461380Y-151562571D01*
X135889952Y-151110190D02*
X136056619Y-151610190D01*
X136223285Y-151110190D01*
X135128047Y-148594000D02*
X135080428Y-148570190D01*
X135009000Y-148570190D01*
X134937571Y-148594000D01*
X134889952Y-148641619D01*
X134866142Y-148689238D01*
X134842333Y-148784476D01*
X134842333Y-148855904D01*
X134866142Y-148951142D01*
X134889952Y-148998761D01*
X134937571Y-149046380D01*
X135009000Y-149070190D01*
X135056619Y-149070190D01*
X135128047Y-149046380D01*
X135151857Y-149022571D01*
X135151857Y-148855904D01*
X135056619Y-148855904D01*
X135366142Y-149070190D02*
X135366142Y-148570190D01*
X135651857Y-149070190D01*
X135651857Y-148570190D01*
X135889952Y-149070190D02*
X135889952Y-148570190D01*
X136009000Y-148570190D01*
X136080428Y-148594000D01*
X136128047Y-148641619D01*
X136151857Y-148689238D01*
X136175666Y-148784476D01*
X136175666Y-148855904D01*
X136151857Y-148951142D01*
X136128047Y-148998761D01*
X136080428Y-149046380D01*
X136009000Y-149070190D01*
X135889952Y-149070190D01*
X135128047Y-146054000D02*
X135080428Y-146030190D01*
X135009000Y-146030190D01*
X134937571Y-146054000D01*
X134889952Y-146101619D01*
X134866142Y-146149238D01*
X134842333Y-146244476D01*
X134842333Y-146315904D01*
X134866142Y-146411142D01*
X134889952Y-146458761D01*
X134937571Y-146506380D01*
X135009000Y-146530190D01*
X135056619Y-146530190D01*
X135128047Y-146506380D01*
X135151857Y-146482571D01*
X135151857Y-146315904D01*
X135056619Y-146315904D01*
X135366142Y-146530190D02*
X135366142Y-146030190D01*
X135651857Y-146530190D01*
X135651857Y-146030190D01*
X135889952Y-146530190D02*
X135889952Y-146030190D01*
X136009000Y-146030190D01*
X136080428Y-146054000D01*
X136128047Y-146101619D01*
X136151857Y-146149238D01*
X136175666Y-146244476D01*
X136175666Y-146315904D01*
X136151857Y-146411142D01*
X136128047Y-146458761D01*
X136080428Y-146506380D01*
X136009000Y-146530190D01*
X135889952Y-146530190D01*
X134628047Y-143799714D02*
X135009000Y-143799714D01*
X134818523Y-143990190D02*
X134818523Y-143609238D01*
X135509000Y-143990190D02*
X135223285Y-143990190D01*
X135366142Y-143990190D02*
X135366142Y-143490190D01*
X135318523Y-143561619D01*
X135270904Y-143609238D01*
X135223285Y-143633047D01*
X135699476Y-143537809D02*
X135723285Y-143514000D01*
X135770904Y-143490190D01*
X135889952Y-143490190D01*
X135937571Y-143514000D01*
X135961380Y-143537809D01*
X135985190Y-143585428D01*
X135985190Y-143633047D01*
X135961380Y-143704476D01*
X135675666Y-143990190D01*
X135985190Y-143990190D01*
X136128047Y-143490190D02*
X136294714Y-143990190D01*
X136461380Y-143490190D01*
X179863714Y-121102380D02*
X179292285Y-121102380D01*
X179578000Y-121102380D02*
X179578000Y-120102380D01*
X179482761Y-120245238D01*
X179387523Y-120340476D01*
X179292285Y-120388095D01*
X179863714Y-128595380D02*
X179292285Y-128595380D01*
X179578000Y-128595380D02*
X179578000Y-127595380D01*
X179482761Y-127738238D01*
X179387523Y-127833476D01*
X179292285Y-127881095D01*
X180117714Y-136342380D02*
X179546285Y-136342380D01*
X179832000Y-136342380D02*
X179832000Y-135342380D01*
X179736761Y-135485238D01*
X179641523Y-135580476D01*
X179546285Y-135628095D01*
X179411333Y-144252190D02*
X179720857Y-144252190D01*
X179554190Y-144442666D01*
X179625619Y-144442666D01*
X179673238Y-144466476D01*
X179697047Y-144490285D01*
X179720857Y-144537904D01*
X179720857Y-144656952D01*
X179697047Y-144704571D01*
X179673238Y-144728380D01*
X179625619Y-144752190D01*
X179482761Y-144752190D01*
X179435142Y-144728380D01*
X179411333Y-144704571D01*
D12*
X174383809Y-151603047D02*
X174688571Y-151603047D01*
X174764761Y-151545904D02*
X174821904Y-151564952D01*
X174917142Y-151564952D01*
X174955238Y-151545904D01*
X174974285Y-151526857D01*
X174993333Y-151488761D01*
X174993333Y-151450666D01*
X174974285Y-151412571D01*
X174955238Y-151393523D01*
X174917142Y-151374476D01*
X174840952Y-151355428D01*
X174802857Y-151336380D01*
X174783809Y-151317333D01*
X174764761Y-151279238D01*
X174764761Y-151241142D01*
X174783809Y-151203047D01*
X174802857Y-151184000D01*
X174840952Y-151164952D01*
X174936190Y-151164952D01*
X174993333Y-151184000D01*
X175164761Y-151355428D02*
X175298095Y-151355428D01*
X175355238Y-151564952D02*
X175164761Y-151564952D01*
X175164761Y-151164952D01*
X175355238Y-151164952D01*
X175717142Y-151564952D02*
X175526666Y-151564952D01*
X175526666Y-151164952D01*
X176060000Y-151564952D02*
X175831428Y-151564952D01*
X175945714Y-151564952D02*
X175945714Y-151164952D01*
X175907619Y-151222095D01*
X175869523Y-151260190D01*
X175831428Y-151279238D01*
X174383809Y-144237047D02*
X174688571Y-144237047D01*
X174764761Y-144179904D02*
X174821904Y-144198952D01*
X174917142Y-144198952D01*
X174955238Y-144179904D01*
X174974285Y-144160857D01*
X174993333Y-144122761D01*
X174993333Y-144084666D01*
X174974285Y-144046571D01*
X174955238Y-144027523D01*
X174917142Y-144008476D01*
X174840952Y-143989428D01*
X174802857Y-143970380D01*
X174783809Y-143951333D01*
X174764761Y-143913238D01*
X174764761Y-143875142D01*
X174783809Y-143837047D01*
X174802857Y-143818000D01*
X174840952Y-143798952D01*
X174936190Y-143798952D01*
X174993333Y-143818000D01*
X175164761Y-143989428D02*
X175298095Y-143989428D01*
X175355238Y-144198952D02*
X175164761Y-144198952D01*
X175164761Y-143798952D01*
X175355238Y-143798952D01*
X175717142Y-144198952D02*
X175526666Y-144198952D01*
X175526666Y-143798952D01*
X175926666Y-143798952D02*
X175964761Y-143798952D01*
X176002857Y-143818000D01*
X176021904Y-143837047D01*
X176040952Y-143875142D01*
X176060000Y-143951333D01*
X176060000Y-144046571D01*
X176040952Y-144122761D01*
X176021904Y-144160857D01*
X176002857Y-144179904D01*
X175964761Y-144198952D01*
X175926666Y-144198952D01*
X175888571Y-144179904D01*
X175869523Y-144160857D01*
X175850476Y-144122761D01*
X175831428Y-144046571D01*
X175831428Y-143951333D01*
X175850476Y-143875142D01*
X175869523Y-143837047D01*
X175888571Y-143818000D01*
X175926666Y-143798952D01*
D11*
X171386500Y-147574000D02*
X171390000Y-150174000D01*
X179133500Y-144974000D02*
X173993500Y-144974000D01*
X179130000Y-150174000D02*
X171390000Y-150174000D01*
X173986500Y-144974000D02*
X173986500Y-147574000D01*
X171386500Y-147574000D02*
X173986500Y-147574000D01*
X179133500Y-144974000D02*
X179130000Y-150174000D01*
X171450000Y-144970500D02*
X172780000Y-144970500D01*
X171450000Y-144974000D02*
X171450000Y-146304000D01*
X156150000Y-149800000D02*
X156150000Y-152460000D01*
X163830000Y-149800000D02*
X156150000Y-149800000D01*
X163830000Y-152460000D02*
X156150000Y-152460000D01*
X163830000Y-149800000D02*
X163830000Y-152460000D01*
X165100000Y-149800000D02*
X166430000Y-149800000D01*
X166430000Y-149800000D02*
X166430000Y-151130000D01*
X133410000Y-142434000D02*
X130750000Y-142434000D01*
X133410000Y-150114000D02*
X133410000Y-142434000D01*
X130750000Y-150114000D02*
X130750000Y-142434000D01*
X133410000Y-150114000D02*
X130750000Y-150114000D01*
X133410000Y-151384000D02*
X133410000Y-152714000D01*
X133410000Y-152714000D02*
X132080000Y-152714000D01*
X179130000Y-128210000D02*
X179130000Y-129540000D01*
X177800000Y-128210000D02*
X179130000Y-128210000D01*
X179130000Y-130810000D02*
X179130000Y-133410000D01*
X176530000Y-130810000D02*
X179130000Y-130810000D01*
X176530000Y-128210000D02*
X176530000Y-130810000D01*
X179130000Y-133410000D02*
X135830000Y-133410000D01*
X176530000Y-128210000D02*
X135830000Y-128210000D01*
X135830000Y-128210000D02*
X135830000Y-133410000D01*
X179130000Y-120590000D02*
X179130000Y-121920000D01*
X177800000Y-120590000D02*
X179130000Y-120590000D01*
X179130000Y-123190000D02*
X179130000Y-125790000D01*
X176530000Y-123190000D02*
X179130000Y-123190000D01*
X176530000Y-120590000D02*
X176530000Y-123190000D01*
X179130000Y-125790000D02*
X135830000Y-125790000D01*
X176530000Y-120590000D02*
X135830000Y-120590000D01*
X135830000Y-120590000D02*
X135830000Y-125790000D01*
X166430000Y-144974000D02*
X166430000Y-146304000D01*
X165100000Y-144974000D02*
X166430000Y-144974000D01*
X163830000Y-144974000D02*
X163830000Y-147634000D01*
X163830000Y-147634000D02*
X156150000Y-147634000D01*
X163830000Y-144974000D02*
X156150000Y-144974000D01*
X156150000Y-144974000D02*
X156150000Y-147634000D01*
X151190000Y-144974000D02*
X151190000Y-146304000D01*
X149860000Y-144974000D02*
X151190000Y-144974000D01*
X148590000Y-144974000D02*
X148590000Y-147634000D01*
X148590000Y-147634000D02*
X140910000Y-147634000D01*
X148590000Y-144974000D02*
X140910000Y-144974000D01*
X140910000Y-144974000D02*
X140910000Y-147634000D01*
D14*
X180534761Y-148907333D02*
X180582380Y-148764476D01*
X180582380Y-148526380D01*
X180534761Y-148431142D01*
X180487142Y-148383523D01*
X180391904Y-148335904D01*
X180296666Y-148335904D01*
X180201428Y-148383523D01*
X180153809Y-148431142D01*
X180106190Y-148526380D01*
X180058571Y-148716857D01*
X180010952Y-148812095D01*
X179963333Y-148859714D01*
X179868095Y-148907333D01*
X179772857Y-148907333D01*
X179677619Y-148859714D01*
X179630000Y-148812095D01*
X179582380Y-148716857D01*
X179582380Y-148478761D01*
X179630000Y-148335904D01*
X179582380Y-148002571D02*
X180582380Y-147764476D01*
X179868095Y-147574000D01*
X180582380Y-147383523D01*
X179582380Y-147145428D01*
X180582380Y-146240666D02*
X180582380Y-146812095D01*
X180582380Y-146526380D02*
X179582380Y-146526380D01*
X179725238Y-146621619D01*
X179820476Y-146716857D01*
X179868095Y-146812095D01*
X154328904Y-151582380D02*
X154328904Y-150582380D01*
X154709857Y-150582380D01*
X154805095Y-150630000D01*
X154852714Y-150677619D01*
X154900333Y-150772857D01*
X154900333Y-150915714D01*
X154852714Y-151010952D01*
X154805095Y-151058571D01*
X154709857Y-151106190D01*
X154328904Y-151106190D01*
X155233666Y-150582380D02*
X155852714Y-150582380D01*
X155519380Y-150963333D01*
X155662238Y-150963333D01*
X155757476Y-151010952D01*
X155805095Y-151058571D01*
X155852714Y-151153809D01*
X155852714Y-151391904D01*
X155805095Y-151487142D01*
X155757476Y-151534761D01*
X155662238Y-151582380D01*
X155376523Y-151582380D01*
X155281285Y-151534761D01*
X155233666Y-151487142D01*
X136421904Y-148026380D02*
X136421904Y-147026380D01*
X136802857Y-147026380D01*
X136898095Y-147074000D01*
X136945714Y-147121619D01*
X136993333Y-147216857D01*
X136993333Y-147359714D01*
X136945714Y-147454952D01*
X136898095Y-147502571D01*
X136802857Y-147550190D01*
X136421904Y-147550190D01*
X137612380Y-147026380D02*
X137707619Y-147026380D01*
X137802857Y-147074000D01*
X137850476Y-147121619D01*
X137898095Y-147216857D01*
X137945714Y-147407333D01*
X137945714Y-147645428D01*
X137898095Y-147835904D01*
X137850476Y-147931142D01*
X137802857Y-147978761D01*
X137707619Y-148026380D01*
X137612380Y-148026380D01*
X137517142Y-147978761D01*
X137469523Y-147931142D01*
X137421904Y-147835904D01*
X137374285Y-147645428D01*
X137374285Y-147407333D01*
X137421904Y-147216857D01*
X137469523Y-147121619D01*
X137517142Y-147074000D01*
X137612380Y-147026380D01*
X180443142Y-131500476D02*
X180490761Y-131548095D01*
X180538380Y-131690952D01*
X180538380Y-131786190D01*
X180490761Y-131929047D01*
X180395523Y-132024285D01*
X180300285Y-132071904D01*
X180109809Y-132119523D01*
X179966952Y-132119523D01*
X179776476Y-132071904D01*
X179681238Y-132024285D01*
X179586000Y-131929047D01*
X179538380Y-131786190D01*
X179538380Y-131690952D01*
X179586000Y-131548095D01*
X179633619Y-131500476D01*
X180538380Y-131071904D02*
X179538380Y-131071904D01*
X180538380Y-130500476D01*
X179538380Y-130500476D01*
X180538380Y-129500476D02*
X180538380Y-130071904D01*
X180538380Y-129786190D02*
X179538380Y-129786190D01*
X179681238Y-129881428D01*
X179776476Y-129976666D01*
X179824095Y-130071904D01*
X180443142Y-123880476D02*
X180490761Y-123928095D01*
X180538380Y-124070952D01*
X180538380Y-124166190D01*
X180490761Y-124309047D01*
X180395523Y-124404285D01*
X180300285Y-124451904D01*
X180109809Y-124499523D01*
X179966952Y-124499523D01*
X179776476Y-124451904D01*
X179681238Y-124404285D01*
X179586000Y-124309047D01*
X179538380Y-124166190D01*
X179538380Y-124070952D01*
X179586000Y-123928095D01*
X179633619Y-123880476D01*
X180538380Y-123451904D02*
X179538380Y-123451904D01*
X180538380Y-122880476D01*
X179538380Y-122880476D01*
X179633619Y-122451904D02*
X179586000Y-122404285D01*
X179538380Y-122309047D01*
X179538380Y-122070952D01*
X179586000Y-121975714D01*
X179633619Y-121928095D01*
X179728857Y-121880476D01*
X179824095Y-121880476D01*
X179966952Y-121928095D01*
X180538380Y-122499523D01*
X180538380Y-121880476D01*
X154328904Y-147010380D02*
X154328904Y-146010380D01*
X154709857Y-146010380D01*
X154805095Y-146058000D01*
X154852714Y-146105619D01*
X154900333Y-146200857D01*
X154900333Y-146343714D01*
X154852714Y-146438952D01*
X154805095Y-146486571D01*
X154709857Y-146534190D01*
X154328904Y-146534190D01*
X155281285Y-146105619D02*
X155328904Y-146058000D01*
X155424142Y-146010380D01*
X155662238Y-146010380D01*
X155757476Y-146058000D01*
X155805095Y-146105619D01*
X155852714Y-146200857D01*
X155852714Y-146296095D01*
X155805095Y-146438952D01*
X155233666Y-147010380D01*
X155852714Y-147010380D01*
X139088904Y-146756380D02*
X139088904Y-145756380D01*
X139469857Y-145756380D01*
X139565095Y-145804000D01*
X139612714Y-145851619D01*
X139660333Y-145946857D01*
X139660333Y-146089714D01*
X139612714Y-146184952D01*
X139565095Y-146232571D01*
X139469857Y-146280190D01*
X139088904Y-146280190D01*
X140612714Y-146756380D02*
X140041285Y-146756380D01*
X140327000Y-146756380D02*
X140327000Y-145756380D01*
X140231761Y-145899238D01*
X140136523Y-145994476D01*
X140041285Y-146042095D01*
M02*
