M48
INCH,TZ
T1C0.0157
T2C0.0276
T3C0.0315
T4C0.0354
T5C0.0374
T6C0.0394
T7C0.0512
T8C0.0906
T9C0.1260
%
G90
G05
T1
X-3900Y22750
X-2900Y26500
X-2900Y21750
X-2900Y20750
X-2900Y19750
X-2900Y18750
X-2900Y-1000
X-2900Y-3500
X-2900Y-4500
X-2900Y-5500
X-150Y-7250
X850Y8500
X1850Y-7250
X1900Y-2100
X1910Y-1500
X2110Y13510
X2325Y2525
X2350Y5000
X2650Y8500
X3100Y16500
X3100Y13000
X3100Y12000
X3100Y11000
X3100Y9500
X3200Y24500
X3350Y5250
X3350Y-800
X3350Y-7250
X3500Y3000
X3600Y2000
X3820Y-4450
X3900Y-2600
X4000Y-700
X4000Y-2100
X4000Y-1500
X4850Y-7250
X5100Y29000
X5100Y22500
X5100Y18500
X5100Y16500
X5100Y-4500
X5520Y8710
X5560Y10000
X6000Y-4300
X6350Y8750
X6350Y4860
X6350Y-7250
X6600Y13000
X7100Y18500
X7100Y5250
X7250Y27500
X7350Y14250
X7350Y9250
X7350Y8000
X7350Y2000
X7350Y0
X7600Y11000
X7850Y-7250
X8100Y29000
X8100Y26300
X8100Y3500
X8350Y4650
X8600Y28050
X8600Y27000
X8600Y-6100
X9100Y-7250
X9600Y29000
X10050Y-4850
X10100Y17250
X10350Y24300
X10350Y-7250
X10400Y23100
X10400Y21900
X10400Y5200
X11100Y29000
X11500Y-4850
X11600Y-4300
X11850Y-1150
X12100Y29000
X12100Y11500
X12400Y4210
X13100Y-1500
X13900Y9000
X13950Y-5700
X14100Y29000
X14100Y24500
X14100Y17750
X14900Y9000
X15100Y24500
X15100Y11500
X15350Y-5700
X15600Y21750
X15600Y19250
X15850Y-6250
X16100Y29000
X16100Y24500
X16100Y-1500
X16350Y17750
X16350Y500
X16600Y-4500
X17100Y24500
X17320Y10990
X18100Y29000
X18100Y24500
X18350Y17750
X18490Y-1420
X18500Y-650
X18520Y-5530
X19100Y24500
X20100Y29000
X20100Y24500
X20100Y-3500
X20330Y-1420
X20350Y17750
X21100Y24500
X21420Y10150
X21600Y2750
X21630Y-1480
X22100Y29000
X22100Y24500
X22100Y11750
X22580Y5850
X22600Y-1250
X23100Y24500
X23100Y17750
X23100Y3500
X23120Y1770
X23890Y6520
X24100Y29000
X24100Y24500
X24600Y20250
X24882Y6232
X25000Y4110
X25100Y24500
X25650Y1950
X25890Y7340
X26100Y29000
X26100Y24500
X26920Y6210
X26960Y-4580
X27100Y24500
X27100Y20500
X27100Y3500
X27100Y-1750
X27600Y18000
X28100Y29000
X28100Y24500
X28100Y5530
X29100Y24500
X29100Y20500
X29100Y7116
X29100Y-2500
X29900Y6810
X30100Y29000
X30100Y24500
X30600Y-4750
X30850Y4000
X31100Y18000
X31100Y-2000
X31390Y2000
X31390Y7460
X31520Y8640
X31600Y29000
X31600Y27750
X31600Y26500
X31600Y25000
X31600Y23500
X31600Y6500
X32100Y-3250
X32850Y23000
X33850Y-2750
X34180Y4770
X34350Y2250
X35100Y23000
X35100Y17500
X35100Y4500
X35100Y-1550
X35150Y-4500
X35600Y13250
X35600Y12200
X36100Y10750
X36600Y23000
X36700Y-5950
X37470Y15160
X37600Y6000
X37600Y4500
X37600Y2750
X37600Y1000
X37600Y-1000
X37600Y-3000
X37600Y-5000
X37600Y-6500
X37650Y7500
X40100Y23000
X40100Y20500
X40100Y18900
X40100Y14000
X40100Y8500
T2
X1235Y28525
X4235Y28525
X17425Y21625
X17425Y18625
X19450Y21600
X19450Y18600
X21450Y21600
X21450Y18600
X23450Y21650
X23450Y18650
X25405Y21715
X28405Y21715
X32370Y18090
X32370Y15090
X33610Y18120
X33610Y15120
X39600Y18400
X39600Y15400
T3
X21100Y0
X21100Y-6000
X22100Y0
X22100Y-6000
X23100Y0
X23100Y-6000
X24100Y0
X24100Y-6000
X25100Y0
X25100Y-6000
X26100Y0
X26100Y-6000
X27100Y0
X27100Y-6000
X28100Y0
X28100Y-6000
X29100Y0
X29100Y-6000
X30100Y0
X30100Y-6000
X31100Y0
X31100Y-6000
X32100Y0
X32100Y-6000
X33100Y0
X33100Y-6000
X34100Y0
X34100Y-6000
X35100Y0
X35100Y-6000
T4
X-2145Y28950
X-2145Y27950
X36500Y21080
X36500Y20080
X36500Y19090
X36500Y18090
X37650Y18300
X37650Y17300
T5
X-1330Y-4026
X-1330Y-5006
X-540Y-4026
X-540Y-5006
T6
X-2400Y16000
X-2400Y15000
X-2400Y14000
X-2400Y13000
X-2400Y12000
X-2400Y11000
X-2400Y10000
X-2400Y9000
X-2400Y8000
X-2400Y7000
X-2400Y6000
X-2400Y5000
X-2400Y4000
X-2400Y3000
X-2400Y2000
X-2400Y1000
X-2400Y0
X-1680Y21810
X-1680Y20810
X-1680Y19810
X-1680Y18810
X-1400Y16000
X-1400Y15000
X-1400Y14000
X-1400Y13000
X-1400Y12000
X-1400Y11000
X-1400Y10000
X-1400Y9000
X-1400Y8000
X-1400Y7000
X-1400Y6000
X-1400Y5000
X-1400Y4000
X-1400Y3000
X-1400Y2000
X-1400Y1000
X-1400Y0
X100Y21000
X100Y18750
X100Y16500
X100Y15500
X100Y14500
X100Y12540
X100Y11540
X100Y10540
X100Y9540
X100Y7500
X100Y6500
X100Y5500
X100Y4000
X100Y2500
X100Y1000
X100Y0
X100Y-1000
X1100Y21000
X1100Y18750
X1100Y7500
X1100Y6500
X1100Y5500
X1100Y4000
X1100Y2500
X2000Y-2950
X2000Y-3950
X2000Y-4950
X2000Y-5950
X9100Y2000
X9100Y1000
X9100Y0
X9400Y14050
X9400Y8050
X10100Y2000
X10100Y1000
X10100Y0
X10400Y14050
X10400Y8050
X10900Y12550
X10900Y11550
X10900Y10550
X10900Y9550
X11100Y2000
X11100Y1000
X11100Y0
X11400Y14050
X11400Y8050
X12400Y14050
X12400Y8050
X13400Y14050
X13400Y8050
X14400Y14050
X14400Y8050
X15400Y14050
X15400Y8050
X16400Y14050
X16400Y8050
X16600Y4000
X16600Y3000
X16600Y2000
X17400Y14050
X17400Y8050
X17600Y4000
X17600Y3000
X17600Y2000
X18400Y14050
X18400Y8050
X19400Y14050
X19400Y8050
X20400Y14050
X20400Y8050
X21400Y14050
X21400Y8050
X22400Y14050
X22400Y8050
X22500Y10495
X22500Y9495
X23400Y14050
X23400Y8050
X23500Y10495
X23500Y9495
X24400Y14050
X24400Y8050
X24500Y10470
X24500Y9495
X25400Y14050
X25400Y8050
X26400Y14050
X26400Y8050
X27400Y14050
X27400Y8050
X28400Y14050
X28400Y8050
X30100Y20500
X31100Y20500
X32870Y13200
X32870Y12200
X32870Y11200
X32870Y10200
X32870Y9200
X32870Y8200
X33864Y13200
X33864Y12200
X33864Y11200
X33864Y10200
X33864Y9200
X33864Y8200
X37600Y12250
X37600Y11250
X37600Y10250
X37600Y9250
X39100Y21416
X39100Y19624
T7
X38116Y21898
X38116Y19142
T8
X-2400Y-2146
X-2400Y-6886
T9
X5750Y20625
X5750Y1050
X14050Y20625
X14050Y1050
X33650Y20625
T6
G00X-3700Y25559
M15
G01X-3700Y24771
M16
G05
G00X-2913Y23315
M15
G01X-2125Y23315
M16
G05
G00X-1338Y25559
M15
G01X-1338Y24771
M16
G05
T0
M30
