G04 #@! TF.GenerationSoftware,KiCad,Pcbnew,(5.1.9)-1*
G04 #@! TF.CreationDate,2021-03-28T09:01:11+01:00*
G04 #@! TF.ProjectId,Greaseweazle F1 Gotek Rev 2B,47726561-7365-4776-9561-7a6c65204631,2B*
G04 #@! TF.SameCoordinates,PX6312cb0PY6bcb370*
G04 #@! TF.FileFunction,Legend,Bot*
G04 #@! TF.FilePolarity,Positive*
%FSLAX46Y46*%
G04 Gerber Fmt 4.6, Leading zero omitted, Abs format (unit mm)*
G04 Created by KiCad (PCBNEW (5.1.9)-1) date 2021-03-28 09:01:11*
%MOMM*%
%LPD*%
G01*
G04 APERTURE LIST*
%ADD10C,0.120000*%
%ADD11C,0.125000*%
%ADD12C,0.150000*%
G04 APERTURE END LIST*
D10*
X-2794000Y50927000D02*
X-3302000Y50546000D01*
X-2794000Y52197000D02*
X-3302000Y52578000D01*
X-2794000Y48387000D02*
X-3302000Y47752000D01*
D11*
X-2746477Y-1611380D02*
X-3365524Y-1611380D01*
X-3032191Y-1992333D01*
X-3175048Y-1992333D01*
X-3270286Y-2039952D01*
X-3317905Y-2087571D01*
X-3365524Y-2182809D01*
X-3365524Y-2420904D01*
X-3317905Y-2516142D01*
X-3270286Y-2563761D01*
X-3175048Y-2611380D01*
X-2889334Y-2611380D01*
X-2794096Y-2563761D01*
X-2746477Y-2516142D01*
X-4222667Y-1944714D02*
X-4222667Y-2611380D01*
X-3984572Y-1563761D02*
X-3746477Y-2278047D01*
X-4365524Y-2278047D01*
X-6381715Y42727620D02*
X-5810286Y42727620D01*
X-6096000Y42727620D02*
X-6096000Y43727620D01*
X-6000762Y43584762D01*
X-5905524Y43489524D01*
X-5810286Y43441905D01*
X81799114Y20336315D02*
X81799114Y21086315D01*
X81620542Y21086315D01*
X81513400Y21050600D01*
X81441971Y20979172D01*
X81406257Y20907743D01*
X81370542Y20764886D01*
X81370542Y20657743D01*
X81406257Y20514886D01*
X81441971Y20443458D01*
X81513400Y20372029D01*
X81620542Y20336315D01*
X81799114Y20336315D01*
X81049114Y20336315D02*
X81049114Y20836315D01*
X81049114Y21086315D02*
X81084828Y21050600D01*
X81049114Y21014886D01*
X81013400Y21050600D01*
X81049114Y21086315D01*
X81049114Y21014886D01*
X80727685Y20372029D02*
X80656257Y20336315D01*
X80513400Y20336315D01*
X80441971Y20372029D01*
X80406257Y20443458D01*
X80406257Y20479172D01*
X80441971Y20550600D01*
X80513400Y20586315D01*
X80620542Y20586315D01*
X80691971Y20622029D01*
X80727685Y20693458D01*
X80727685Y20729172D01*
X80691971Y20800600D01*
X80620542Y20836315D01*
X80513400Y20836315D01*
X80441971Y20800600D01*
X80084828Y20836315D02*
X80084828Y20086315D01*
X80084828Y20800600D02*
X80013400Y20836315D01*
X79870542Y20836315D01*
X79799114Y20800600D01*
X79763400Y20764886D01*
X79727685Y20693458D01*
X79727685Y20479172D01*
X79763400Y20407743D01*
X79799114Y20372029D01*
X79870542Y20336315D01*
X80013400Y20336315D01*
X80084828Y20372029D01*
X79299114Y20336315D02*
X79370542Y20372029D01*
X79406257Y20443458D01*
X79406257Y21086315D01*
X78691971Y20336315D02*
X78691971Y20729172D01*
X78727685Y20800600D01*
X78799114Y20836315D01*
X78941971Y20836315D01*
X79013400Y20800600D01*
X78691971Y20372029D02*
X78763400Y20336315D01*
X78941971Y20336315D01*
X79013400Y20372029D01*
X79049114Y20443458D01*
X79049114Y20514886D01*
X79013400Y20586315D01*
X78941971Y20622029D01*
X78763400Y20622029D01*
X78691971Y20657743D01*
X78406257Y20836315D02*
X78227685Y20336315D01*
X78049114Y20836315D02*
X78227685Y20336315D01*
X78299114Y20157743D01*
X78334828Y20122029D01*
X78406257Y20086315D01*
X77941971Y20264886D02*
X77370542Y20264886D01*
X77263400Y21086315D02*
X76799114Y21086315D01*
X77049114Y20800600D01*
X76941971Y20800600D01*
X76870542Y20764886D01*
X76834828Y20729172D01*
X76799114Y20657743D01*
X76799114Y20479172D01*
X76834828Y20407743D01*
X76870542Y20372029D01*
X76941971Y20336315D01*
X77156257Y20336315D01*
X77227685Y20372029D01*
X77263400Y20407743D01*
X76584828Y21086315D02*
X76334828Y20336315D01*
X76084828Y21086315D01*
X75906257Y21086315D02*
X75441971Y21086315D01*
X75691971Y20800600D01*
X75584828Y20800600D01*
X75513400Y20764886D01*
X75477685Y20729172D01*
X75441971Y20657743D01*
X75441971Y20479172D01*
X75477685Y20407743D01*
X75513400Y20372029D01*
X75584828Y20336315D01*
X75799114Y20336315D01*
X75870542Y20372029D01*
X75906257Y20407743D01*
X81208429Y22947743D02*
X81244143Y22912029D01*
X81351286Y22876315D01*
X81422714Y22876315D01*
X81529857Y22912029D01*
X81601286Y22983458D01*
X81637000Y23054886D01*
X81672714Y23197743D01*
X81672714Y23304886D01*
X81637000Y23447743D01*
X81601286Y23519172D01*
X81529857Y23590600D01*
X81422714Y23626315D01*
X81351286Y23626315D01*
X81244143Y23590600D01*
X81208429Y23554886D01*
X80922714Y22912029D02*
X80815571Y22876315D01*
X80637000Y22876315D01*
X80565571Y22912029D01*
X80529857Y22947743D01*
X80494143Y23019172D01*
X80494143Y23090600D01*
X80529857Y23162029D01*
X80565571Y23197743D01*
X80637000Y23233458D01*
X80779857Y23269172D01*
X80851286Y23304886D01*
X80887000Y23340600D01*
X80922714Y23412029D01*
X80922714Y23483458D01*
X80887000Y23554886D01*
X80851286Y23590600D01*
X80779857Y23626315D01*
X80601286Y23626315D01*
X80494143Y23590600D01*
X82008000Y25670315D02*
X82008000Y26420315D01*
X81758000Y25884600D01*
X81508000Y26420315D01*
X81508000Y25670315D01*
X81008000Y26420315D02*
X80865143Y26420315D01*
X80793714Y26384600D01*
X80722286Y26313172D01*
X80686571Y26170315D01*
X80686571Y25920315D01*
X80722286Y25777458D01*
X80793714Y25706029D01*
X80865143Y25670315D01*
X81008000Y25670315D01*
X81079429Y25706029D01*
X81150857Y25777458D01*
X81186571Y25920315D01*
X81186571Y26170315D01*
X81150857Y26313172D01*
X81079429Y26384600D01*
X81008000Y26420315D01*
X80400857Y25706029D02*
X80293714Y25670315D01*
X80115143Y25670315D01*
X80043714Y25706029D01*
X80008000Y25741743D01*
X79972286Y25813172D01*
X79972286Y25884600D01*
X80008000Y25956029D01*
X80043714Y25991743D01*
X80115143Y26027458D01*
X80258000Y26063172D01*
X80329429Y26098886D01*
X80365143Y26134600D01*
X80400857Y26206029D01*
X80400857Y26277458D01*
X80365143Y26348886D01*
X80329429Y26384600D01*
X80258000Y26420315D01*
X80079429Y26420315D01*
X79972286Y26384600D01*
X79650857Y25670315D02*
X79650857Y26420315D01*
X81275857Y28027743D02*
X81311571Y27992029D01*
X81418714Y27956315D01*
X81490143Y27956315D01*
X81597286Y27992029D01*
X81668714Y28063458D01*
X81704429Y28134886D01*
X81740143Y28277743D01*
X81740143Y28384886D01*
X81704429Y28527743D01*
X81668714Y28599172D01*
X81597286Y28670600D01*
X81490143Y28706315D01*
X81418714Y28706315D01*
X81311571Y28670600D01*
X81275857Y28634886D01*
X80597286Y27956315D02*
X80954429Y27956315D01*
X80954429Y28706315D01*
X80347286Y27956315D02*
X80347286Y28706315D01*
X79918714Y27956315D02*
X80240143Y28384886D01*
X79918714Y28706315D02*
X80347286Y28277743D01*
X81754000Y30750315D02*
X81754000Y31500315D01*
X81504000Y30964600D01*
X81254000Y31500315D01*
X81254000Y30750315D01*
X80896857Y30750315D02*
X80896857Y31500315D01*
X80575429Y30786029D02*
X80468286Y30750315D01*
X80289714Y30750315D01*
X80218286Y30786029D01*
X80182571Y30821743D01*
X80146857Y30893172D01*
X80146857Y30964600D01*
X80182571Y31036029D01*
X80218286Y31071743D01*
X80289714Y31107458D01*
X80432571Y31143172D01*
X80504000Y31178886D01*
X80539714Y31214600D01*
X80575429Y31286029D01*
X80575429Y31357458D01*
X80539714Y31428886D01*
X80504000Y31464600D01*
X80432571Y31500315D01*
X80254000Y31500315D01*
X80146857Y31464600D01*
X79682571Y31500315D02*
X79539714Y31500315D01*
X79468286Y31464600D01*
X79396857Y31393172D01*
X79361143Y31250315D01*
X79361143Y31000315D01*
X79396857Y30857458D01*
X79468286Y30786029D01*
X79539714Y30750315D01*
X79682571Y30750315D01*
X79754000Y30786029D01*
X79825429Y30857458D01*
X79861143Y31000315D01*
X79861143Y31250315D01*
X79825429Y31393172D01*
X79754000Y31464600D01*
X79682571Y31500315D01*
X81146857Y33750600D02*
X81218286Y33786315D01*
X81325429Y33786315D01*
X81432571Y33750600D01*
X81504000Y33679172D01*
X81539714Y33607743D01*
X81575429Y33464886D01*
X81575429Y33357743D01*
X81539714Y33214886D01*
X81504000Y33143458D01*
X81432571Y33072029D01*
X81325429Y33036315D01*
X81254000Y33036315D01*
X81146857Y33072029D01*
X81111143Y33107743D01*
X81111143Y33357743D01*
X81254000Y33357743D01*
X80789714Y33036315D02*
X80789714Y33786315D01*
X80361143Y33036315D01*
X80361143Y33786315D01*
X80004000Y33036315D02*
X80004000Y33786315D01*
X79825429Y33786315D01*
X79718286Y33750600D01*
X79646857Y33679172D01*
X79611143Y33607743D01*
X79575429Y33464886D01*
X79575429Y33357743D01*
X79611143Y33214886D01*
X79646857Y33143458D01*
X79718286Y33072029D01*
X79825429Y33036315D01*
X80004000Y33036315D01*
D12*
X1076247Y63758820D02*
X1647676Y63758820D01*
X1361961Y63758820D02*
X1361961Y64758820D01*
X1457200Y64615962D01*
X1552438Y64520724D01*
X1647676Y64473105D01*
X695295Y64663581D02*
X647676Y64711200D01*
X552438Y64758820D01*
X314342Y64758820D01*
X219104Y64711200D01*
X171485Y64663581D01*
X123866Y64568343D01*
X123866Y64473105D01*
X171485Y64330248D01*
X742914Y63758820D01*
X123866Y63758820D01*
X-161848Y64758820D02*
X-495181Y63758820D01*
X-828515Y64758820D01*
D11*
X61704571Y41184572D02*
X62304571Y41184572D01*
X61704571Y41527429D01*
X62304571Y41527429D01*
X61761714Y42156000D02*
X61733142Y42127429D01*
X61704571Y42041715D01*
X61704571Y41984572D01*
X61733142Y41898858D01*
X61790285Y41841715D01*
X61847428Y41813143D01*
X61961714Y41784572D01*
X62047428Y41784572D01*
X62161714Y41813143D01*
X62218857Y41841715D01*
X62276000Y41898858D01*
X62304571Y41984572D01*
X62304571Y42041715D01*
X62276000Y42127429D01*
X62247428Y42156000D01*
X49258571Y40930572D02*
X49858571Y40930572D01*
X49258571Y41273429D01*
X49858571Y41273429D01*
X49315714Y41902000D02*
X49287142Y41873429D01*
X49258571Y41787715D01*
X49258571Y41730572D01*
X49287142Y41644858D01*
X49344285Y41587715D01*
X49401428Y41559143D01*
X49515714Y41530572D01*
X49601428Y41530572D01*
X49715714Y41559143D01*
X49772857Y41587715D01*
X49830000Y41644858D01*
X49858571Y41730572D01*
X49858571Y41787715D01*
X49830000Y41873429D01*
X49801428Y41902000D01*
X23477571Y14641572D02*
X24077571Y14641572D01*
X23477571Y14984429D01*
X24077571Y14984429D01*
X23534714Y15613000D02*
X23506142Y15584429D01*
X23477571Y15498715D01*
X23477571Y15441572D01*
X23506142Y15355858D01*
X23563285Y15298715D01*
X23620428Y15270143D01*
X23734714Y15241572D01*
X23820428Y15241572D01*
X23934714Y15270143D01*
X23991857Y15298715D01*
X24049000Y15355858D01*
X24077571Y15441572D01*
X24077571Y15498715D01*
X24049000Y15584429D01*
X24020428Y15613000D01*
X28557571Y14641572D02*
X29157571Y14641572D01*
X28557571Y14984429D01*
X29157571Y14984429D01*
X28614714Y15613000D02*
X28586142Y15584429D01*
X28557571Y15498715D01*
X28557571Y15441572D01*
X28586142Y15355858D01*
X28643285Y15298715D01*
X28700428Y15270143D01*
X28814714Y15241572D01*
X28900428Y15241572D01*
X29014714Y15270143D01*
X29071857Y15298715D01*
X29129000Y15355858D01*
X29157571Y15441572D01*
X29157571Y15498715D01*
X29129000Y15584429D01*
X29100428Y15613000D01*
X31097571Y14641572D02*
X31697571Y14641572D01*
X31097571Y14984429D01*
X31697571Y14984429D01*
X31154714Y15613000D02*
X31126142Y15584429D01*
X31097571Y15498715D01*
X31097571Y15441572D01*
X31126142Y15355858D01*
X31183285Y15298715D01*
X31240428Y15270143D01*
X31354714Y15241572D01*
X31440428Y15241572D01*
X31554714Y15270143D01*
X31611857Y15298715D01*
X31669000Y15355858D01*
X31697571Y15441572D01*
X31697571Y15498715D01*
X31669000Y15584429D01*
X31640428Y15613000D01*
X36177571Y14641572D02*
X36777571Y14641572D01*
X36177571Y14984429D01*
X36777571Y14984429D01*
X36234714Y15613000D02*
X36206142Y15584429D01*
X36177571Y15498715D01*
X36177571Y15441572D01*
X36206142Y15355858D01*
X36263285Y15298715D01*
X36320428Y15270143D01*
X36434714Y15241572D01*
X36520428Y15241572D01*
X36634714Y15270143D01*
X36691857Y15298715D01*
X36749000Y15355858D01*
X36777571Y15441572D01*
X36777571Y15498715D01*
X36749000Y15584429D01*
X36720428Y15613000D01*
X38971571Y14641572D02*
X39571571Y14641572D01*
X38971571Y14984429D01*
X39571571Y14984429D01*
X39028714Y15613000D02*
X39000142Y15584429D01*
X38971571Y15498715D01*
X38971571Y15441572D01*
X39000142Y15355858D01*
X39057285Y15298715D01*
X39114428Y15270143D01*
X39228714Y15241572D01*
X39314428Y15241572D01*
X39428714Y15270143D01*
X39485857Y15298715D01*
X39543000Y15355858D01*
X39571571Y15441572D01*
X39571571Y15498715D01*
X39543000Y15584429D01*
X39514428Y15613000D01*
X41511571Y14641572D02*
X42111571Y14641572D01*
X41511571Y14984429D01*
X42111571Y14984429D01*
X41568714Y15613000D02*
X41540142Y15584429D01*
X41511571Y15498715D01*
X41511571Y15441572D01*
X41540142Y15355858D01*
X41597285Y15298715D01*
X41654428Y15270143D01*
X41768714Y15241572D01*
X41854428Y15241572D01*
X41968714Y15270143D01*
X42025857Y15298715D01*
X42083000Y15355858D01*
X42111571Y15441572D01*
X42111571Y15498715D01*
X42083000Y15584429D01*
X42054428Y15613000D01*
X44051571Y14641572D02*
X44651571Y14641572D01*
X44051571Y14984429D01*
X44651571Y14984429D01*
X44108714Y15613000D02*
X44080142Y15584429D01*
X44051571Y15498715D01*
X44051571Y15441572D01*
X44080142Y15355858D01*
X44137285Y15298715D01*
X44194428Y15270143D01*
X44308714Y15241572D01*
X44394428Y15241572D01*
X44508714Y15270143D01*
X44565857Y15298715D01*
X44623000Y15355858D01*
X44651571Y15441572D01*
X44651571Y15498715D01*
X44623000Y15584429D01*
X44594428Y15613000D01*
X46591571Y14641572D02*
X47191571Y14641572D01*
X46591571Y14984429D01*
X47191571Y14984429D01*
X46648714Y15613000D02*
X46620142Y15584429D01*
X46591571Y15498715D01*
X46591571Y15441572D01*
X46620142Y15355858D01*
X46677285Y15298715D01*
X46734428Y15270143D01*
X46848714Y15241572D01*
X46934428Y15241572D01*
X47048714Y15270143D01*
X47105857Y15298715D01*
X47163000Y15355858D01*
X47191571Y15441572D01*
X47191571Y15498715D01*
X47163000Y15584429D01*
X47134428Y15613000D01*
X48877571Y14641572D02*
X49477571Y14641572D01*
X48877571Y14984429D01*
X49477571Y14984429D01*
X48934714Y15613000D02*
X48906142Y15584429D01*
X48877571Y15498715D01*
X48877571Y15441572D01*
X48906142Y15355858D01*
X48963285Y15298715D01*
X49020428Y15270143D01*
X49134714Y15241572D01*
X49220428Y15241572D01*
X49334714Y15270143D01*
X49391857Y15298715D01*
X49449000Y15355858D01*
X49477571Y15441572D01*
X49477571Y15498715D01*
X49449000Y15584429D01*
X49420428Y15613000D01*
X51671571Y14641572D02*
X52271571Y14641572D01*
X51671571Y14984429D01*
X52271571Y14984429D01*
X51728714Y15613000D02*
X51700142Y15584429D01*
X51671571Y15498715D01*
X51671571Y15441572D01*
X51700142Y15355858D01*
X51757285Y15298715D01*
X51814428Y15270143D01*
X51928714Y15241572D01*
X52014428Y15241572D01*
X52128714Y15270143D01*
X52185857Y15298715D01*
X52243000Y15355858D01*
X52271571Y15441572D01*
X52271571Y15498715D01*
X52243000Y15584429D01*
X52214428Y15613000D01*
X53957571Y14641572D02*
X54557571Y14641572D01*
X53957571Y14984429D01*
X54557571Y14984429D01*
X54014714Y15613000D02*
X53986142Y15584429D01*
X53957571Y15498715D01*
X53957571Y15441572D01*
X53986142Y15355858D01*
X54043285Y15298715D01*
X54100428Y15270143D01*
X54214714Y15241572D01*
X54300428Y15241572D01*
X54414714Y15270143D01*
X54471857Y15298715D01*
X54529000Y15355858D01*
X54557571Y15441572D01*
X54557571Y15498715D01*
X54529000Y15584429D01*
X54500428Y15613000D01*
X100981028Y28144429D02*
X100873886Y28108715D01*
X100695314Y28108715D01*
X100623886Y28144429D01*
X100588171Y28180143D01*
X100552457Y28251572D01*
X100552457Y28323000D01*
X100588171Y28394429D01*
X100623886Y28430143D01*
X100695314Y28465858D01*
X100838171Y28501572D01*
X100909600Y28537286D01*
X100945314Y28573000D01*
X100981028Y28644429D01*
X100981028Y28715858D01*
X100945314Y28787286D01*
X100909600Y28823000D01*
X100838171Y28858715D01*
X100659600Y28858715D01*
X100552457Y28823000D01*
X100231028Y28501572D02*
X99981028Y28501572D01*
X99873886Y28108715D02*
X100231028Y28108715D01*
X100231028Y28858715D01*
X99873886Y28858715D01*
X99123886Y28108715D02*
X99373886Y28465858D01*
X99552457Y28108715D02*
X99552457Y28858715D01*
X99266743Y28858715D01*
X99195314Y28823000D01*
X99159600Y28787286D01*
X99123886Y28715858D01*
X99123886Y28608715D01*
X99159600Y28537286D01*
X99195314Y28501572D01*
X99266743Y28465858D01*
X99552457Y28465858D01*
X98981028Y28037286D02*
X98409600Y28037286D01*
X98338171Y28858715D02*
X97909600Y28858715D01*
X98123886Y28108715D02*
X98123886Y28858715D01*
X97731028Y28858715D02*
X97231028Y28108715D01*
X97231028Y28858715D02*
X97731028Y28108715D01*
X100981028Y30811429D02*
X100873885Y30775715D01*
X100695314Y30775715D01*
X100623885Y30811429D01*
X100588171Y30847143D01*
X100552457Y30918572D01*
X100552457Y30990000D01*
X100588171Y31061429D01*
X100623885Y31097143D01*
X100695314Y31132858D01*
X100838171Y31168572D01*
X100909600Y31204286D01*
X100945314Y31240000D01*
X100981028Y31311429D01*
X100981028Y31382858D01*
X100945314Y31454286D01*
X100909600Y31490000D01*
X100838171Y31525715D01*
X100659600Y31525715D01*
X100552457Y31490000D01*
X100231028Y31168572D02*
X99981028Y31168572D01*
X99873885Y30775715D02*
X100231028Y30775715D01*
X100231028Y31525715D01*
X99873885Y31525715D01*
X99123885Y30775715D02*
X99373885Y31132858D01*
X99552457Y30775715D02*
X99552457Y31525715D01*
X99266742Y31525715D01*
X99195314Y31490000D01*
X99159600Y31454286D01*
X99123885Y31382858D01*
X99123885Y31275715D01*
X99159600Y31204286D01*
X99195314Y31168572D01*
X99266742Y31132858D01*
X99552457Y31132858D01*
X98981028Y30704286D02*
X98409600Y30704286D01*
X97802457Y30775715D02*
X98052457Y31132858D01*
X98231028Y30775715D02*
X98231028Y31525715D01*
X97945314Y31525715D01*
X97873885Y31490000D01*
X97838171Y31454286D01*
X97802457Y31382858D01*
X97802457Y31275715D01*
X97838171Y31204286D01*
X97873885Y31168572D01*
X97945314Y31132858D01*
X98231028Y31132858D01*
X97552457Y31525715D02*
X97052457Y30775715D01*
X97052457Y31525715D02*
X97552457Y30775715D01*
X100552457Y26359200D02*
X100623886Y26394915D01*
X100731029Y26394915D01*
X100838171Y26359200D01*
X100909600Y26287772D01*
X100945314Y26216343D01*
X100981029Y26073486D01*
X100981029Y25966343D01*
X100945314Y25823486D01*
X100909600Y25752058D01*
X100838171Y25680629D01*
X100731029Y25644915D01*
X100659600Y25644915D01*
X100552457Y25680629D01*
X100516743Y25716343D01*
X100516743Y25966343D01*
X100659600Y25966343D01*
X100195314Y25644915D02*
X100195314Y26394915D01*
X99766743Y25644915D01*
X99766743Y26394915D01*
X99409600Y25644915D02*
X99409600Y26394915D01*
X99231029Y26394915D01*
X99123886Y26359200D01*
X99052457Y26287772D01*
X99016743Y26216343D01*
X98981029Y26073486D01*
X98981029Y25966343D01*
X99016743Y25823486D01*
X99052457Y25752058D01*
X99123886Y25680629D01*
X99231029Y25644915D01*
X99409600Y25644915D01*
X100945314Y23289029D02*
X100373886Y23289029D01*
X100659600Y23003315D02*
X100659600Y23574743D01*
X99659600Y23753315D02*
X100016743Y23753315D01*
X100052457Y23396172D01*
X100016743Y23431886D01*
X99945314Y23467600D01*
X99766743Y23467600D01*
X99695314Y23431886D01*
X99659600Y23396172D01*
X99623886Y23324743D01*
X99623886Y23146172D01*
X99659600Y23074743D01*
X99695314Y23039029D01*
X99766743Y23003315D01*
X99945314Y23003315D01*
X100016743Y23039029D01*
X100052457Y23074743D01*
X99409600Y23753315D02*
X99159600Y23003315D01*
X98909600Y23753315D01*
X56497571Y14895572D02*
X57097571Y14895572D01*
X56497571Y15238429D01*
X57097571Y15238429D01*
X56554714Y15867000D02*
X56526142Y15838429D01*
X56497571Y15752715D01*
X56497571Y15695572D01*
X56526142Y15609858D01*
X56583285Y15552715D01*
X56640428Y15524143D01*
X56754714Y15495572D01*
X56840428Y15495572D01*
X56954714Y15524143D01*
X57011857Y15552715D01*
X57069000Y15609858D01*
X57097571Y15695572D01*
X57097571Y15752715D01*
X57069000Y15838429D01*
X57040428Y15867000D01*
X64005666Y14150334D02*
X64005666Y14683667D01*
X64072333Y15250334D02*
X64405666Y15017000D01*
X64072333Y14850334D02*
X64772333Y14850334D01*
X64772333Y15117000D01*
X64739000Y15183667D01*
X64705666Y15217000D01*
X64639000Y15250334D01*
X64539000Y15250334D01*
X64472333Y15217000D01*
X64439000Y15183667D01*
X64405666Y15117000D01*
X64405666Y14850334D01*
X64105666Y15517000D02*
X64072333Y15617000D01*
X64072333Y15783667D01*
X64105666Y15850334D01*
X64139000Y15883667D01*
X64205666Y15917000D01*
X64272333Y15917000D01*
X64339000Y15883667D01*
X64372333Y15850334D01*
X64405666Y15783667D01*
X64439000Y15650334D01*
X64472333Y15583667D01*
X64505666Y15550334D01*
X64572333Y15517000D01*
X64639000Y15517000D01*
X64705666Y15550334D01*
X64739000Y15583667D01*
X64772333Y15650334D01*
X64772333Y15817000D01*
X64739000Y15917000D01*
X64772333Y16117000D02*
X64772333Y16517000D01*
X64072333Y16317000D02*
X64772333Y16317000D01*
X61465666Y14083667D02*
X61465666Y14617000D01*
X61532333Y14783667D02*
X62232333Y14783667D01*
X61732333Y15017000D01*
X62232333Y15250334D01*
X61532333Y15250334D01*
X62232333Y15483667D02*
X62232333Y15883667D01*
X61532333Y15683667D02*
X62232333Y15683667D01*
X61532333Y16517000D02*
X61865666Y16283667D01*
X61532333Y16117000D02*
X62232333Y16117000D01*
X62232333Y16383667D01*
X62199000Y16450334D01*
X62165666Y16483667D01*
X62099000Y16517000D01*
X61999000Y16517000D01*
X61932333Y16483667D01*
X61899000Y16450334D01*
X61865666Y16383667D01*
X61865666Y16117000D01*
X66875428Y13486000D02*
X66875428Y14057429D01*
X66589714Y13771715D02*
X67161142Y13771715D01*
X67339714Y14343143D02*
X67339714Y14807429D01*
X67054000Y14557429D01*
X67054000Y14664572D01*
X67018285Y14736000D01*
X66982571Y14771715D01*
X66911142Y14807429D01*
X66732571Y14807429D01*
X66661142Y14771715D01*
X66625428Y14736000D01*
X66589714Y14664572D01*
X66589714Y14450286D01*
X66625428Y14378858D01*
X66661142Y14343143D01*
X66661142Y15128858D02*
X66625428Y15164572D01*
X66589714Y15128858D01*
X66625428Y15093143D01*
X66661142Y15128858D01*
X66589714Y15128858D01*
X67339714Y15414572D02*
X67339714Y15878858D01*
X67054000Y15628858D01*
X67054000Y15736000D01*
X67018285Y15807429D01*
X66982571Y15843143D01*
X66911142Y15878858D01*
X66732571Y15878858D01*
X66661142Y15843143D01*
X66625428Y15807429D01*
X66589714Y15736000D01*
X66589714Y15521715D01*
X66625428Y15450286D01*
X66661142Y15414572D01*
X67339714Y16093143D02*
X66589714Y16343143D01*
X67339714Y16593143D01*
X34191530Y12351509D02*
X33786768Y12351509D01*
X33739149Y12375318D01*
X33715340Y12399128D01*
X33691530Y12446747D01*
X33691530Y12541985D01*
X33715340Y12589604D01*
X33739149Y12613413D01*
X33786768Y12637223D01*
X34191530Y12637223D01*
X33715340Y12851509D02*
X33691530Y12922937D01*
X33691530Y13041985D01*
X33715340Y13089604D01*
X33739149Y13113413D01*
X33786768Y13137223D01*
X33834387Y13137223D01*
X33882006Y13113413D01*
X33905816Y13089604D01*
X33929625Y13041985D01*
X33953435Y12946747D01*
X33977244Y12899128D01*
X34001054Y12875318D01*
X34048673Y12851509D01*
X34096292Y12851509D01*
X34143911Y12875318D01*
X34167721Y12899128D01*
X34191530Y12946747D01*
X34191530Y13065794D01*
X34167721Y13137223D01*
X33953435Y13518175D02*
X33929625Y13589604D01*
X33905816Y13613413D01*
X33858197Y13637223D01*
X33786768Y13637223D01*
X33739149Y13613413D01*
X33715340Y13589604D01*
X33691530Y13541985D01*
X33691530Y13351509D01*
X34191530Y13351509D01*
X34191530Y13518175D01*
X34167721Y13565794D01*
X34143911Y13589604D01*
X34096292Y13613413D01*
X34048673Y13613413D01*
X34001054Y13589604D01*
X33977244Y13565794D01*
X33953435Y13518175D01*
X33953435Y13351509D01*
X33643911Y13732461D02*
X33643911Y14113413D01*
X33739149Y14518175D02*
X33715340Y14494366D01*
X33691530Y14422937D01*
X33691530Y14375318D01*
X33715340Y14303890D01*
X33762959Y14256271D01*
X33810578Y14232461D01*
X33905816Y14208651D01*
X33977244Y14208651D01*
X34072482Y14232461D01*
X34120101Y14256271D01*
X34167721Y14303890D01*
X34191530Y14375318D01*
X34191530Y14422937D01*
X34167721Y14494366D01*
X34143911Y14518175D01*
X34191530Y14827699D02*
X34191530Y14922937D01*
X34167721Y14970556D01*
X34120101Y15018175D01*
X34024863Y15041985D01*
X33858197Y15041985D01*
X33762959Y15018175D01*
X33715340Y14970556D01*
X33691530Y14922937D01*
X33691530Y14827699D01*
X33715340Y14780080D01*
X33762959Y14732461D01*
X33858197Y14708651D01*
X34024863Y14708651D01*
X34120101Y14732461D01*
X34167721Y14780080D01*
X34191530Y14827699D01*
X33691530Y15256271D02*
X34191530Y15256271D01*
X33691530Y15541985D01*
X34191530Y15541985D01*
X33691530Y15780080D02*
X34191530Y15780080D01*
X33691530Y16065794D01*
X34191530Y16065794D01*
X58925666Y14167000D02*
X58925666Y14700334D01*
X59025666Y14833667D02*
X58992333Y14933667D01*
X58992333Y15100334D01*
X59025666Y15167000D01*
X59059000Y15200334D01*
X59125666Y15233667D01*
X59192333Y15233667D01*
X59259000Y15200334D01*
X59292333Y15167000D01*
X59325666Y15100334D01*
X59359000Y14967000D01*
X59392333Y14900334D01*
X59425666Y14867000D01*
X59492333Y14833667D01*
X59559000Y14833667D01*
X59625666Y14867000D01*
X59659000Y14900334D01*
X59692333Y14967000D01*
X59692333Y15133667D01*
X59659000Y15233667D01*
X59359000Y15533667D02*
X59359000Y15767000D01*
X58992333Y15867000D02*
X58992333Y15533667D01*
X59692333Y15533667D01*
X59692333Y15867000D01*
X58992333Y16500334D02*
X58992333Y16167000D01*
X59692333Y16167000D01*
X69844000Y14414572D02*
X69879714Y14343143D01*
X69879714Y14236000D01*
X69844000Y14128858D01*
X69772571Y14057429D01*
X69701142Y14021715D01*
X69558285Y13986000D01*
X69451142Y13986000D01*
X69308285Y14021715D01*
X69236857Y14057429D01*
X69165428Y14128858D01*
X69129714Y14236000D01*
X69129714Y14307429D01*
X69165428Y14414572D01*
X69201142Y14450286D01*
X69451142Y14450286D01*
X69451142Y14307429D01*
X69129714Y14771715D02*
X69879714Y14771715D01*
X69129714Y15200286D01*
X69879714Y15200286D01*
X69129714Y15557429D02*
X69879714Y15557429D01*
X69879714Y15736000D01*
X69844000Y15843143D01*
X69772571Y15914572D01*
X69701142Y15950286D01*
X69558285Y15986000D01*
X69451142Y15986000D01*
X69308285Y15950286D01*
X69236857Y15914572D01*
X69165428Y15843143D01*
X69129714Y15736000D01*
X69129714Y15557429D01*
X72384000Y14414572D02*
X72419714Y14343143D01*
X72419714Y14236000D01*
X72384000Y14128858D01*
X72312571Y14057429D01*
X72241142Y14021715D01*
X72098285Y13986000D01*
X71991142Y13986000D01*
X71848285Y14021715D01*
X71776857Y14057429D01*
X71705428Y14128858D01*
X71669714Y14236000D01*
X71669714Y14307429D01*
X71705428Y14414572D01*
X71741142Y14450286D01*
X71991142Y14450286D01*
X71991142Y14307429D01*
X71669714Y14771715D02*
X72419714Y14771715D01*
X71669714Y15200286D01*
X72419714Y15200286D01*
X71669714Y15557429D02*
X72419714Y15557429D01*
X72419714Y15736000D01*
X72384000Y15843143D01*
X72312571Y15914572D01*
X72241142Y15950286D01*
X72098285Y15986000D01*
X71991142Y15986000D01*
X71848285Y15950286D01*
X71776857Y15914572D01*
X71705428Y15843143D01*
X71669714Y15736000D01*
X71669714Y15557429D01*
X26015190Y14521762D02*
X26015190Y14902715D01*
X26205666Y14997953D02*
X26205666Y15236048D01*
X26062809Y14950334D02*
X26562809Y15117000D01*
X26062809Y15283667D01*
X26110428Y15736048D02*
X26086619Y15712239D01*
X26062809Y15640810D01*
X26062809Y15593191D01*
X26086619Y15521762D01*
X26134238Y15474143D01*
X26181857Y15450334D01*
X26277095Y15426524D01*
X26348523Y15426524D01*
X26443761Y15450334D01*
X26491380Y15474143D01*
X26539000Y15521762D01*
X26562809Y15593191D01*
X26562809Y15640810D01*
X26539000Y15712239D01*
X26515190Y15736048D01*
X26562809Y15878905D02*
X26562809Y16164620D01*
X26062809Y16021762D02*
X26562809Y16021762D01*
X31112666Y39930667D02*
X31112666Y40464000D01*
X31179333Y40630667D02*
X31879333Y40630667D01*
X31879333Y40797334D01*
X31846000Y40897334D01*
X31779333Y40964000D01*
X31712666Y40997334D01*
X31579333Y41030667D01*
X31479333Y41030667D01*
X31346000Y40997334D01*
X31279333Y40964000D01*
X31212666Y40897334D01*
X31179333Y40797334D01*
X31179333Y40630667D01*
X31546000Y41330667D02*
X31546000Y41564000D01*
X31179333Y41664000D02*
X31179333Y41330667D01*
X31879333Y41330667D01*
X31879333Y41664000D01*
X31179333Y41964000D02*
X31879333Y41964000D01*
X31179333Y42364000D01*
X31879333Y42364000D01*
X31212666Y42664000D02*
X31179333Y42764000D01*
X31179333Y42930667D01*
X31212666Y42997334D01*
X31246000Y43030667D01*
X31312666Y43064000D01*
X31379333Y43064000D01*
X31446000Y43030667D01*
X31479333Y42997334D01*
X31512666Y42930667D01*
X31546000Y42797334D01*
X31579333Y42730667D01*
X31612666Y42697334D01*
X31679333Y42664000D01*
X31746000Y42664000D01*
X31812666Y42697334D01*
X31846000Y42730667D01*
X31879333Y42797334D01*
X31879333Y42964000D01*
X31846000Y43064000D01*
X31546000Y43364000D02*
X31546000Y43597334D01*
X31179333Y43697334D02*
X31179333Y43364000D01*
X31879333Y43364000D01*
X31879333Y43697334D01*
X31179333Y44330667D02*
X31179333Y43997334D01*
X31879333Y43997334D01*
X26791000Y40894072D02*
X26826714Y40822643D01*
X26826714Y40715500D01*
X26791000Y40608358D01*
X26719571Y40536929D01*
X26648142Y40501215D01*
X26505285Y40465500D01*
X26398142Y40465500D01*
X26255285Y40501215D01*
X26183857Y40536929D01*
X26112428Y40608358D01*
X26076714Y40715500D01*
X26076714Y40786929D01*
X26112428Y40894072D01*
X26148142Y40929786D01*
X26398142Y40929786D01*
X26398142Y40786929D01*
X26076714Y41251215D02*
X26826714Y41251215D01*
X26076714Y41679786D01*
X26826714Y41679786D01*
X26076714Y42036929D02*
X26826714Y42036929D01*
X26826714Y42215500D01*
X26791000Y42322643D01*
X26719571Y42394072D01*
X26648142Y42429786D01*
X26505285Y42465500D01*
X26398142Y42465500D01*
X26255285Y42429786D01*
X26183857Y42394072D01*
X26112428Y42322643D01*
X26076714Y42215500D01*
X26076714Y42036929D01*
X28902428Y40501215D02*
X28902428Y41072643D01*
X28616714Y40786929D02*
X29188142Y40786929D01*
X29366714Y41786929D02*
X29366714Y41429786D01*
X29009571Y41394072D01*
X29045285Y41429786D01*
X29081000Y41501215D01*
X29081000Y41679786D01*
X29045285Y41751215D01*
X29009571Y41786929D01*
X28938142Y41822643D01*
X28759571Y41822643D01*
X28688142Y41786929D01*
X28652428Y41751215D01*
X28616714Y41679786D01*
X28616714Y41501215D01*
X28652428Y41429786D01*
X28688142Y41394072D01*
X29366714Y42036929D02*
X28616714Y42286929D01*
X29366714Y42536929D01*
X59193142Y40170286D02*
X59164571Y40256000D01*
X59164571Y40398858D01*
X59193142Y40456000D01*
X59221714Y40484572D01*
X59278857Y40513143D01*
X59336000Y40513143D01*
X59393142Y40484572D01*
X59421714Y40456000D01*
X59450285Y40398858D01*
X59478857Y40284572D01*
X59507428Y40227429D01*
X59536000Y40198858D01*
X59593142Y40170286D01*
X59650285Y40170286D01*
X59707428Y40198858D01*
X59736000Y40227429D01*
X59764571Y40284572D01*
X59764571Y40427429D01*
X59736000Y40513143D01*
X59478857Y40770286D02*
X59478857Y40970286D01*
X59164571Y41056000D02*
X59164571Y40770286D01*
X59764571Y40770286D01*
X59764571Y41056000D01*
X59164571Y41656000D02*
X59450285Y41456000D01*
X59164571Y41313143D02*
X59764571Y41313143D01*
X59764571Y41541715D01*
X59736000Y41598858D01*
X59707428Y41627429D01*
X59650285Y41656000D01*
X59564571Y41656000D01*
X59507428Y41627429D01*
X59478857Y41598858D01*
X59450285Y41541715D01*
X59450285Y41313143D01*
X59107428Y41770286D02*
X59107428Y42227429D01*
X59764571Y42284572D02*
X59764571Y42627429D01*
X59164571Y42456000D02*
X59764571Y42456000D01*
X59764571Y42770286D02*
X59164571Y43170286D01*
X59764571Y43170286D02*
X59164571Y42770286D01*
X46407428Y40036929D02*
X46407428Y40494072D01*
X46464571Y40636929D02*
X47064571Y40636929D01*
X47064571Y40779786D01*
X47036000Y40865500D01*
X46978857Y40922643D01*
X46921714Y40951215D01*
X46807428Y40979786D01*
X46721714Y40979786D01*
X46607428Y40951215D01*
X46550285Y40922643D01*
X46493142Y40865500D01*
X46464571Y40779786D01*
X46464571Y40636929D01*
X46464571Y41236929D02*
X47064571Y41236929D01*
X46464571Y41579786D02*
X46807428Y41322643D01*
X47064571Y41579786D02*
X46721714Y41236929D01*
X46464571Y42179786D02*
X46750285Y41979786D01*
X46464571Y41836929D02*
X47064571Y41836929D01*
X47064571Y42065500D01*
X47036000Y42122643D01*
X47007428Y42151215D01*
X46950285Y42179786D01*
X46864571Y42179786D01*
X46807428Y42151215D01*
X46778857Y42122643D01*
X46750285Y42065500D01*
X46750285Y41836929D01*
X46464571Y42436929D02*
X47064571Y42436929D01*
X47064571Y42579786D01*
X47036000Y42665500D01*
X46978857Y42722643D01*
X46921714Y42751215D01*
X46807428Y42779786D01*
X46721714Y42779786D01*
X46607428Y42751215D01*
X46550285Y42722643D01*
X46493142Y42665500D01*
X46464571Y42579786D01*
X46464571Y42436929D01*
X69267428Y40087715D02*
X69267428Y40544858D01*
X69353142Y40659143D02*
X69324571Y40744858D01*
X69324571Y40887715D01*
X69353142Y40944858D01*
X69381714Y40973429D01*
X69438857Y41002000D01*
X69496000Y41002000D01*
X69553142Y40973429D01*
X69581714Y40944858D01*
X69610285Y40887715D01*
X69638857Y40773429D01*
X69667428Y40716286D01*
X69696000Y40687715D01*
X69753142Y40659143D01*
X69810285Y40659143D01*
X69867428Y40687715D01*
X69896000Y40716286D01*
X69924571Y40773429D01*
X69924571Y40916286D01*
X69896000Y41002000D01*
X69924571Y41173429D02*
X69924571Y41516286D01*
X69324571Y41344858D02*
X69924571Y41344858D01*
X69638857Y41716286D02*
X69638857Y41916286D01*
X69324571Y42002000D02*
X69324571Y41716286D01*
X69924571Y41716286D01*
X69924571Y42002000D01*
X69324571Y42259143D02*
X69924571Y42259143D01*
X69924571Y42487715D01*
X69896000Y42544858D01*
X69867428Y42573429D01*
X69810285Y42602000D01*
X69724571Y42602000D01*
X69667428Y42573429D01*
X69638857Y42544858D01*
X69610285Y42487715D01*
X69610285Y42259143D01*
X52144571Y40062358D02*
X51658857Y40062358D01*
X51601714Y40090929D01*
X51573142Y40119500D01*
X51544571Y40176643D01*
X51544571Y40290929D01*
X51573142Y40348072D01*
X51601714Y40376643D01*
X51658857Y40405215D01*
X52144571Y40405215D01*
X51573142Y40662358D02*
X51544571Y40748072D01*
X51544571Y40890929D01*
X51573142Y40948072D01*
X51601714Y40976643D01*
X51658857Y41005215D01*
X51716000Y41005215D01*
X51773142Y40976643D01*
X51801714Y40948072D01*
X51830285Y40890929D01*
X51858857Y40776643D01*
X51887428Y40719500D01*
X51916000Y40690929D01*
X51973142Y40662358D01*
X52030285Y40662358D01*
X52087428Y40690929D01*
X52116000Y40719500D01*
X52144571Y40776643D01*
X52144571Y40919500D01*
X52116000Y41005215D01*
X51858857Y41462358D02*
X51830285Y41548072D01*
X51801714Y41576643D01*
X51744571Y41605215D01*
X51658857Y41605215D01*
X51601714Y41576643D01*
X51573142Y41548072D01*
X51544571Y41490929D01*
X51544571Y41262358D01*
X52144571Y41262358D01*
X52144571Y41462358D01*
X52116000Y41519500D01*
X52087428Y41548072D01*
X52030285Y41576643D01*
X51973142Y41576643D01*
X51916000Y41548072D01*
X51887428Y41519500D01*
X51858857Y41462358D01*
X51858857Y41262358D01*
X51487428Y41719500D02*
X51487428Y42176643D01*
X51544571Y42319500D02*
X52144571Y42319500D01*
X52144571Y42462358D01*
X52116000Y42548072D01*
X52058857Y42605215D01*
X52001714Y42633786D01*
X51887428Y42662358D01*
X51801714Y42662358D01*
X51687428Y42633786D01*
X51630285Y42605215D01*
X51573142Y42548072D01*
X51544571Y42462358D01*
X51544571Y42319500D01*
X51773142Y42919500D02*
X51773142Y43376643D01*
X51544571Y43148072D02*
X52001714Y43148072D01*
X71752666Y40078167D02*
X71752666Y40611500D01*
X71819333Y40778167D02*
X72519333Y40778167D01*
X72519333Y40944834D01*
X72486000Y41044834D01*
X72419333Y41111500D01*
X72352666Y41144834D01*
X72219333Y41178167D01*
X72119333Y41178167D01*
X71986000Y41144834D01*
X71919333Y41111500D01*
X71852666Y41044834D01*
X71819333Y40944834D01*
X71819333Y40778167D01*
X71819333Y41478167D02*
X72519333Y41478167D01*
X71819333Y42211500D02*
X72152666Y41978167D01*
X71819333Y41811500D02*
X72519333Y41811500D01*
X72519333Y42078167D01*
X72486000Y42144834D01*
X72452666Y42178167D01*
X72386000Y42211500D01*
X72286000Y42211500D01*
X72219333Y42178167D01*
X72186000Y42144834D01*
X72152666Y42078167D01*
X72152666Y41811500D01*
X64187428Y40300429D02*
X64187428Y40757572D01*
X64273142Y40871858D02*
X64244571Y40957572D01*
X64244571Y41100429D01*
X64273142Y41157572D01*
X64301714Y41186143D01*
X64358857Y41214715D01*
X64416000Y41214715D01*
X64473142Y41186143D01*
X64501714Y41157572D01*
X64530285Y41100429D01*
X64558857Y40986143D01*
X64587428Y40929000D01*
X64616000Y40900429D01*
X64673142Y40871858D01*
X64730285Y40871858D01*
X64787428Y40900429D01*
X64816000Y40929000D01*
X64844571Y40986143D01*
X64844571Y41129000D01*
X64816000Y41214715D01*
X64244571Y41471858D02*
X64844571Y41471858D01*
X64244571Y41757572D02*
X64844571Y41757572D01*
X64844571Y41900429D01*
X64816000Y41986143D01*
X64758857Y42043286D01*
X64701714Y42071858D01*
X64587428Y42100429D01*
X64501714Y42100429D01*
X64387428Y42071858D01*
X64330285Y42043286D01*
X64273142Y41986143D01*
X64244571Y41900429D01*
X64244571Y41757572D01*
X64558857Y42357572D02*
X64558857Y42557572D01*
X64244571Y42643286D02*
X64244571Y42357572D01*
X64844571Y42357572D01*
X64844571Y42643286D01*
X56653142Y40035358D02*
X56624571Y40121072D01*
X56624571Y40263929D01*
X56653142Y40321072D01*
X56681714Y40349643D01*
X56738857Y40378215D01*
X56796000Y40378215D01*
X56853142Y40349643D01*
X56881714Y40321072D01*
X56910285Y40263929D01*
X56938857Y40149643D01*
X56967428Y40092500D01*
X56996000Y40063929D01*
X57053142Y40035358D01*
X57110285Y40035358D01*
X57167428Y40063929D01*
X57196000Y40092500D01*
X57224571Y40149643D01*
X57224571Y40292500D01*
X57196000Y40378215D01*
X56938857Y40635358D02*
X56938857Y40835358D01*
X56624571Y40921072D02*
X56624571Y40635358D01*
X57224571Y40635358D01*
X57224571Y40921072D01*
X56624571Y41521072D02*
X56910285Y41321072D01*
X56624571Y41178215D02*
X57224571Y41178215D01*
X57224571Y41406786D01*
X57196000Y41463929D01*
X57167428Y41492500D01*
X57110285Y41521072D01*
X57024571Y41521072D01*
X56967428Y41492500D01*
X56938857Y41463929D01*
X56910285Y41406786D01*
X56910285Y41178215D01*
X56567428Y41635358D02*
X56567428Y42092500D01*
X56624571Y42578215D02*
X56910285Y42378215D01*
X56624571Y42235358D02*
X57224571Y42235358D01*
X57224571Y42463929D01*
X57196000Y42521072D01*
X57167428Y42549643D01*
X57110285Y42578215D01*
X57024571Y42578215D01*
X56967428Y42549643D01*
X56938857Y42521072D01*
X56910285Y42463929D01*
X56910285Y42235358D01*
X57224571Y42778215D02*
X56624571Y43178215D01*
X57224571Y43178215D02*
X56624571Y42778215D01*
X54684571Y40062358D02*
X54198857Y40062358D01*
X54141714Y40090929D01*
X54113142Y40119500D01*
X54084571Y40176643D01*
X54084571Y40290929D01*
X54113142Y40348072D01*
X54141714Y40376643D01*
X54198857Y40405215D01*
X54684571Y40405215D01*
X54113142Y40662358D02*
X54084571Y40748072D01*
X54084571Y40890929D01*
X54113142Y40948072D01*
X54141714Y40976643D01*
X54198857Y41005215D01*
X54256000Y41005215D01*
X54313142Y40976643D01*
X54341714Y40948072D01*
X54370285Y40890929D01*
X54398857Y40776643D01*
X54427428Y40719500D01*
X54456000Y40690929D01*
X54513142Y40662358D01*
X54570285Y40662358D01*
X54627428Y40690929D01*
X54656000Y40719500D01*
X54684571Y40776643D01*
X54684571Y40919500D01*
X54656000Y41005215D01*
X54398857Y41462358D02*
X54370285Y41548072D01*
X54341714Y41576643D01*
X54284571Y41605215D01*
X54198857Y41605215D01*
X54141714Y41576643D01*
X54113142Y41548072D01*
X54084571Y41490929D01*
X54084571Y41262358D01*
X54684571Y41262358D01*
X54684571Y41462358D01*
X54656000Y41519500D01*
X54627428Y41548072D01*
X54570285Y41576643D01*
X54513142Y41576643D01*
X54456000Y41548072D01*
X54427428Y41519500D01*
X54398857Y41462358D01*
X54398857Y41262358D01*
X54027428Y41719500D02*
X54027428Y42176643D01*
X54084571Y42319500D02*
X54684571Y42319500D01*
X54684571Y42462358D01*
X54656000Y42548072D01*
X54598857Y42605215D01*
X54541714Y42633786D01*
X54427428Y42662358D01*
X54341714Y42662358D01*
X54227428Y42633786D01*
X54170285Y42605215D01*
X54113142Y42548072D01*
X54084571Y42462358D01*
X54084571Y42319500D01*
X54313142Y42919500D02*
X54313142Y43376643D01*
X66727428Y39959143D02*
X66727428Y40416286D01*
X66784571Y40559143D02*
X67384571Y40559143D01*
X67384571Y40702000D01*
X67356000Y40787715D01*
X67298857Y40844858D01*
X67241714Y40873429D01*
X67127428Y40902000D01*
X67041714Y40902000D01*
X66927428Y40873429D01*
X66870285Y40844858D01*
X66813142Y40787715D01*
X66784571Y40702000D01*
X66784571Y40559143D01*
X66784571Y41159143D02*
X67384571Y41159143D01*
X66784571Y41502000D02*
X67127428Y41244858D01*
X67384571Y41502000D02*
X67041714Y41159143D01*
X67384571Y41702000D02*
X66784571Y41844858D01*
X67213142Y41959143D01*
X66784571Y42073429D01*
X67384571Y42216286D01*
X67098857Y42444858D02*
X67098857Y42644858D01*
X66784571Y42730572D02*
X66784571Y42444858D01*
X67384571Y42444858D01*
X67384571Y42730572D01*
X33707428Y40149715D02*
X33707428Y40606858D01*
X34364571Y40692572D02*
X33764571Y40835429D01*
X34193142Y40949715D01*
X33764571Y41064000D01*
X34364571Y41206858D01*
X33764571Y41778286D02*
X34050285Y41578286D01*
X33764571Y41435429D02*
X34364571Y41435429D01*
X34364571Y41664000D01*
X34336000Y41721143D01*
X34307428Y41749715D01*
X34250285Y41778286D01*
X34164571Y41778286D01*
X34107428Y41749715D01*
X34078857Y41721143D01*
X34050285Y41664000D01*
X34050285Y41435429D01*
X33764571Y42035429D02*
X34364571Y42035429D01*
X34364571Y42264000D01*
X34336000Y42321143D01*
X34307428Y42349715D01*
X34250285Y42378286D01*
X34164571Y42378286D01*
X34107428Y42349715D01*
X34078857Y42321143D01*
X34050285Y42264000D01*
X34050285Y42035429D01*
X33764571Y42978286D02*
X34050285Y42778286D01*
X33764571Y42635429D02*
X34364571Y42635429D01*
X34364571Y42864000D01*
X34336000Y42921143D01*
X34307428Y42949715D01*
X34250285Y42978286D01*
X34164571Y42978286D01*
X34107428Y42949715D01*
X34078857Y42921143D01*
X34050285Y42864000D01*
X34050285Y42635429D01*
X34364571Y43349715D02*
X34364571Y43464000D01*
X34336000Y43521143D01*
X34278857Y43578286D01*
X34164571Y43606858D01*
X33964571Y43606858D01*
X33850285Y43578286D01*
X33793142Y43521143D01*
X33764571Y43464000D01*
X33764571Y43349715D01*
X33793142Y43292572D01*
X33850285Y43235429D01*
X33964571Y43206858D01*
X34164571Y43206858D01*
X34278857Y43235429D01*
X34336000Y43292572D01*
X34364571Y43349715D01*
X34364571Y43778286D02*
X34364571Y44121143D01*
X33764571Y43949715D02*
X34364571Y43949715D01*
X43812666Y39939334D02*
X43812666Y40472667D01*
X43879333Y40639334D02*
X44579333Y40639334D01*
X44579333Y40806000D01*
X44546000Y40906000D01*
X44479333Y40972667D01*
X44412666Y41006000D01*
X44279333Y41039334D01*
X44179333Y41039334D01*
X44046000Y41006000D01*
X43979333Y40972667D01*
X43912666Y40906000D01*
X43879333Y40806000D01*
X43879333Y40639334D01*
X43879333Y41339334D02*
X44579333Y41339334D01*
X43879333Y41739334D02*
X44279333Y41439334D01*
X44579333Y41739334D02*
X44179333Y41339334D01*
X44579333Y41972667D02*
X43879333Y42139334D01*
X44379333Y42272667D01*
X43879333Y42406000D01*
X44579333Y42572667D01*
X43879333Y42839334D02*
X44579333Y42839334D01*
X44579333Y43006000D01*
X44546000Y43106000D01*
X44479333Y43172667D01*
X44412666Y43206000D01*
X44279333Y43239334D01*
X44179333Y43239334D01*
X44046000Y43206000D01*
X43979333Y43172667D01*
X43912666Y43106000D01*
X43879333Y43006000D01*
X43879333Y42839334D01*
X41384571Y40930572D02*
X41984571Y40930572D01*
X41384571Y41273429D01*
X41984571Y41273429D01*
X41441714Y41902000D02*
X41413142Y41873429D01*
X41384571Y41787715D01*
X41384571Y41730572D01*
X41413142Y41644858D01*
X41470285Y41587715D01*
X41527428Y41559143D01*
X41641714Y41530572D01*
X41727428Y41530572D01*
X41841714Y41559143D01*
X41898857Y41587715D01*
X41956000Y41644858D01*
X41984571Y41730572D01*
X41984571Y41787715D01*
X41956000Y41873429D01*
X41927428Y41902000D01*
X38787428Y39986143D02*
X38787428Y40443286D01*
X38844571Y40586143D02*
X39444571Y40586143D01*
X38844571Y40871858D02*
X39444571Y40871858D01*
X38844571Y41214715D01*
X39444571Y41214715D01*
X38844571Y41500429D02*
X39444571Y41500429D01*
X39444571Y41643286D01*
X39416000Y41729000D01*
X39358857Y41786143D01*
X39301714Y41814715D01*
X39187428Y41843286D01*
X39101714Y41843286D01*
X38987428Y41814715D01*
X38930285Y41786143D01*
X38873142Y41729000D01*
X38844571Y41643286D01*
X38844571Y41500429D01*
X39158857Y42100429D02*
X39158857Y42300429D01*
X38844571Y42386143D02*
X38844571Y42100429D01*
X39444571Y42100429D01*
X39444571Y42386143D01*
X39444571Y42586143D02*
X38844571Y42986143D01*
X39444571Y42986143D02*
X38844571Y42586143D01*
X36192666Y40089334D02*
X36192666Y40622667D01*
X36959333Y40689334D02*
X36959333Y41089334D01*
X36259333Y40889334D02*
X36959333Y40889334D01*
X36259333Y41722667D02*
X36592666Y41489334D01*
X36259333Y41322667D02*
X36959333Y41322667D01*
X36959333Y41589334D01*
X36926000Y41656000D01*
X36892666Y41689334D01*
X36826000Y41722667D01*
X36726000Y41722667D01*
X36659333Y41689334D01*
X36626000Y41656000D01*
X36592666Y41589334D01*
X36592666Y41322667D01*
X36259333Y42022667D02*
X36959333Y42022667D01*
X36259333Y42422667D02*
X36659333Y42122667D01*
X36959333Y42422667D02*
X36559333Y42022667D01*
X36959333Y42856000D02*
X36959333Y42922667D01*
X36926000Y42989334D01*
X36892666Y43022667D01*
X36826000Y43056000D01*
X36692666Y43089334D01*
X36526000Y43089334D01*
X36392666Y43056000D01*
X36326000Y43022667D01*
X36292666Y42989334D01*
X36259333Y42922667D01*
X36259333Y42856000D01*
X36292666Y42789334D01*
X36326000Y42756000D01*
X36392666Y42722667D01*
X36526000Y42689334D01*
X36692666Y42689334D01*
X36826000Y42722667D01*
X36892666Y42756000D01*
X36926000Y42789334D01*
X36959333Y42856000D01*
X23822428Y39965500D02*
X23822428Y40536929D01*
X23536714Y40251215D02*
X24108142Y40251215D01*
X24286714Y40822643D02*
X24286714Y41286929D01*
X24001000Y41036929D01*
X24001000Y41144072D01*
X23965285Y41215500D01*
X23929571Y41251215D01*
X23858142Y41286929D01*
X23679571Y41286929D01*
X23608142Y41251215D01*
X23572428Y41215500D01*
X23536714Y41144072D01*
X23536714Y40929786D01*
X23572428Y40858358D01*
X23608142Y40822643D01*
X23608142Y41608358D02*
X23572428Y41644072D01*
X23536714Y41608358D01*
X23572428Y41572643D01*
X23608142Y41608358D01*
X23536714Y41608358D01*
X24286714Y41894072D02*
X24286714Y42358358D01*
X24001000Y42108358D01*
X24001000Y42215500D01*
X23965285Y42286929D01*
X23929571Y42322643D01*
X23858142Y42358358D01*
X23679571Y42358358D01*
X23608142Y42322643D01*
X23572428Y42286929D01*
X23536714Y42215500D01*
X23536714Y42001215D01*
X23572428Y41929786D01*
X23608142Y41894072D01*
X24286714Y42572643D02*
X23536714Y42822643D01*
X24286714Y43072643D01*
D12*
X-1513000Y48972000D02*
X-2046334Y48972000D01*
X-1779667Y48705334D02*
X-1779667Y49238667D01*
X-2713000Y49405334D02*
X-2379667Y49405334D01*
X-2346334Y49072000D01*
X-2379667Y49105334D01*
X-2446334Y49138667D01*
X-2613000Y49138667D01*
X-2679667Y49105334D01*
X-2713000Y49072000D01*
X-2746334Y49005334D01*
X-2746334Y48838667D01*
X-2713000Y48772000D01*
X-2679667Y48738667D01*
X-2613000Y48705334D01*
X-2446334Y48705334D01*
X-2379667Y48738667D01*
X-2346334Y48772000D01*
X-2946334Y49405334D02*
X-3179667Y48705334D01*
X-3413000Y49405334D01*
X-2133667Y51912000D02*
X-2067000Y51945334D01*
X-1967000Y51945334D01*
X-1867000Y51912000D01*
X-1800334Y51845334D01*
X-1767000Y51778667D01*
X-1733667Y51645334D01*
X-1733667Y51545334D01*
X-1767000Y51412000D01*
X-1800334Y51345334D01*
X-1867000Y51278667D01*
X-1967000Y51245334D01*
X-2033667Y51245334D01*
X-2133667Y51278667D01*
X-2167000Y51312000D01*
X-2167000Y51545334D01*
X-2033667Y51545334D01*
X-2467000Y51245334D02*
X-2467000Y51945334D01*
X-2867000Y51245334D01*
X-2867000Y51945334D01*
X-3200334Y51245334D02*
X-3200334Y51945334D01*
X-3367000Y51945334D01*
X-3467000Y51912000D01*
X-3533667Y51845334D01*
X-3567000Y51778667D01*
X-3600334Y51645334D01*
X-3600334Y51545334D01*
X-3567000Y51412000D01*
X-3533667Y51345334D01*
X-3467000Y51278667D01*
X-3367000Y51245334D01*
X-3200334Y51245334D01*
X-1979667Y54039334D02*
X-1579667Y54039334D01*
X-1779667Y54039334D02*
X-1779667Y54739334D01*
X-1713000Y54639334D01*
X-1646334Y54572667D01*
X-1579667Y54539334D01*
X-2246334Y54672667D02*
X-2279667Y54706000D01*
X-2346334Y54739334D01*
X-2513000Y54739334D01*
X-2579667Y54706000D01*
X-2613000Y54672667D01*
X-2646334Y54606000D01*
X-2646334Y54539334D01*
X-2613000Y54439334D01*
X-2213000Y54039334D01*
X-2646334Y54039334D01*
X-2846334Y54739334D02*
X-3079667Y54039334D01*
X-3313000Y54739334D01*
M02*
