G04 #@! TF.GenerationSoftware,KiCad,Pcbnew,(5.1.9)-1*
G04 #@! TF.CreationDate,2021-03-28T09:01:11+01:00*
G04 #@! TF.ProjectId,Greaseweazle F1 Gotek Rev 2B,47726561-7365-4776-9561-7a6c65204631,2B*
G04 #@! TF.SameCoordinates,PX6312cb0PY6bcb370*
G04 #@! TF.FileFunction,Soldermask,Top*
G04 #@! TF.FilePolarity,Negative*
%FSLAX46Y46*%
G04 Gerber Fmt 4.6, Leading zero omitted, Abs format (unit mm)*
G04 Created by KiCad (PCBNEW (5.1.9)-1) date 2021-03-28 09:01:11*
%MOMM*%
%LPD*%
G01*
G04 APERTURE LIST*
%ADD10C,0.120000*%
%ADD11C,1.900000*%
%ADD12O,1.900000X1.900000*%
%ADD13C,2.000000*%
%ADD14C,5.200000*%
%ADD15C,1.600000*%
%ADD16O,1.600000X1.600000*%
%ADD17O,1.800000X1.800000*%
%ADD18C,1.701140*%
%ADD19C,3.700120*%
%ADD20C,2.150000*%
%ADD21C,1.708000*%
%ADD22C,0.800000*%
%ADD23C,0.900000*%
%ADD24C,0.100000*%
G04 APERTURE END LIST*
D10*
X-2667000Y55118000D02*
X-3175000Y55372000D01*
X-2667000Y55118000D02*
X-3175000Y55372000D01*
D11*
X57150000Y26657300D03*
X59690000Y26657300D03*
X62230000Y26593800D03*
G36*
G01*
X56300000Y25067300D02*
X58000000Y25067300D01*
G75*
G02*
X58100000Y24967300I0J-100000D01*
G01*
X58100000Y23267300D01*
G75*
G02*
X58000000Y23167300I-100000J0D01*
G01*
X56300000Y23167300D01*
G75*
G02*
X56200000Y23267300I0J100000D01*
G01*
X56200000Y24967300D01*
G75*
G02*
X56300000Y25067300I100000J0D01*
G01*
G37*
X62230000Y24117300D03*
X59690000Y24117300D03*
X23876000Y35687000D03*
X23876000Y20447000D03*
X26416000Y35687000D03*
X26416000Y20447000D03*
X28956000Y35687000D03*
X28956000Y20447000D03*
X31496000Y35687000D03*
X31496000Y20447000D03*
X34036000Y35687000D03*
X34036000Y20447000D03*
X36576000Y35687000D03*
X36576000Y20447000D03*
X39116000Y35687000D03*
X39116000Y20447000D03*
X41656000Y35687000D03*
X41656000Y20447000D03*
X44196000Y35687000D03*
X44196000Y20447000D03*
X46736000Y35687000D03*
X46736000Y20447000D03*
X49276000Y35687000D03*
X49276000Y20447000D03*
X51816000Y35687000D03*
X51816000Y20447000D03*
X54356000Y35687000D03*
X54356000Y20447000D03*
X56896000Y35687000D03*
X56896000Y20447000D03*
X59436000Y35687000D03*
X59436000Y20447000D03*
X61976000Y35687000D03*
X61976000Y20447000D03*
X64516000Y35687000D03*
X64516000Y20447000D03*
X67056000Y35687000D03*
X67056000Y20447000D03*
X69596000Y35687000D03*
X69596000Y20447000D03*
G36*
G01*
X71286000Y36637000D02*
X72986000Y36637000D01*
G75*
G02*
X73086000Y36537000I0J-100000D01*
G01*
X73086000Y34837000D01*
G75*
G02*
X72986000Y34737000I-100000J0D01*
G01*
X71286000Y34737000D01*
G75*
G02*
X71186000Y34837000I0J100000D01*
G01*
X71186000Y36537000D01*
G75*
G02*
X71286000Y36637000I100000J0D01*
G01*
G37*
X72136000Y20447000D03*
X27686000Y24257000D03*
X27686000Y26797000D03*
X27686000Y29337000D03*
G36*
G01*
X26836000Y32827000D02*
X28536000Y32827000D01*
G75*
G02*
X28636000Y32727000I0J-100000D01*
G01*
X28636000Y31027000D01*
G75*
G02*
X28536000Y30927000I-100000J0D01*
G01*
X26836000Y30927000D01*
G75*
G02*
X26736000Y31027000I0J100000D01*
G01*
X26736000Y32727000D01*
G75*
G02*
X26836000Y32827000I100000J0D01*
G01*
G37*
G36*
G01*
X849000Y59744913D02*
X849000Y58365087D01*
G75*
G02*
X563913Y58080000I-285087J0D01*
G01*
X-490913Y58080000D01*
G75*
G02*
X-776000Y58365087I0J285087D01*
G01*
X-776000Y59744913D01*
G75*
G02*
X-490913Y60030000I285087J0D01*
G01*
X563913Y60030000D01*
G75*
G02*
X849000Y59744913I0J-285087D01*
G01*
G37*
G36*
G01*
X3824000Y59744913D02*
X3824000Y58365087D01*
G75*
G02*
X3538913Y58080000I-285087J0D01*
G01*
X2484087Y58080000D01*
G75*
G02*
X2199000Y58365087I0J285087D01*
G01*
X2199000Y59744913D01*
G75*
G02*
X2484087Y60030000I285087J0D01*
G01*
X3538913Y60030000D01*
G75*
G02*
X3824000Y59744913I0J-285087D01*
G01*
G37*
X83489800Y33528000D03*
X83489800Y30988000D03*
X83489800Y28448000D03*
X83489800Y25908000D03*
X83489800Y23368000D03*
G36*
G01*
X82539800Y19978000D02*
X82539800Y21678000D01*
G75*
G02*
X82639800Y21778000I100000J0D01*
G01*
X84339800Y21778000D01*
G75*
G02*
X84439800Y21678000I0J-100000D01*
G01*
X84439800Y19978000D01*
G75*
G02*
X84339800Y19878000I-100000J0D01*
G01*
X82639800Y19878000D01*
G75*
G02*
X82539800Y19978000I0J100000D01*
G01*
G37*
G36*
G01*
X23358000Y64668000D02*
X24008000Y64668000D01*
G75*
G02*
X24108000Y64568000I0J-100000D01*
G01*
X24108000Y62568000D01*
G75*
G02*
X24008000Y62468000I-100000J0D01*
G01*
X23358000Y62468000D01*
G75*
G02*
X23258000Y62568000I0J100000D01*
G01*
X23258000Y64568000D01*
G75*
G02*
X23358000Y64668000I100000J0D01*
G01*
G37*
G36*
G01*
X22408000Y64668000D02*
X23058000Y64668000D01*
G75*
G02*
X23158000Y64568000I0J-100000D01*
G01*
X23158000Y62568000D01*
G75*
G02*
X23058000Y62468000I-100000J0D01*
G01*
X22408000Y62468000D01*
G75*
G02*
X22308000Y62568000I0J100000D01*
G01*
X22308000Y64568000D01*
G75*
G02*
X22408000Y64668000I100000J0D01*
G01*
G37*
G36*
G01*
X21458000Y64668000D02*
X22108000Y64668000D01*
G75*
G02*
X22208000Y64568000I0J-100000D01*
G01*
X22208000Y62568000D01*
G75*
G02*
X22108000Y62468000I-100000J0D01*
G01*
X21458000Y62468000D01*
G75*
G02*
X21358000Y62568000I0J100000D01*
G01*
X21358000Y64568000D01*
G75*
G02*
X21458000Y64668000I100000J0D01*
G01*
G37*
G36*
G01*
X21458000Y68088000D02*
X22108000Y68088000D01*
G75*
G02*
X22208000Y67988000I0J-100000D01*
G01*
X22208000Y65988000D01*
G75*
G02*
X22108000Y65888000I-100000J0D01*
G01*
X21458000Y65888000D01*
G75*
G02*
X21358000Y65988000I0J100000D01*
G01*
X21358000Y67988000D01*
G75*
G02*
X21458000Y68088000I100000J0D01*
G01*
G37*
G36*
G01*
X22408000Y68088000D02*
X23058000Y68088000D01*
G75*
G02*
X23158000Y67988000I0J-100000D01*
G01*
X23158000Y65988000D01*
G75*
G02*
X23058000Y65888000I-100000J0D01*
G01*
X22408000Y65888000D01*
G75*
G02*
X22308000Y65988000I0J100000D01*
G01*
X22308000Y67988000D01*
G75*
G02*
X22408000Y68088000I100000J0D01*
G01*
G37*
G36*
G01*
X23358000Y68088000D02*
X24008000Y68088000D01*
G75*
G02*
X24108000Y67988000I0J-100000D01*
G01*
X24108000Y65988000D01*
G75*
G02*
X24008000Y65888000I-100000J0D01*
G01*
X23358000Y65888000D01*
G75*
G02*
X23258000Y65988000I0J100000D01*
G01*
X23258000Y67988000D01*
G75*
G02*
X23358000Y68088000I100000J0D01*
G01*
G37*
G36*
G01*
X18656400Y-11297800D02*
X18656400Y-10647800D01*
G75*
G02*
X18756400Y-10547800I100000J0D01*
G01*
X20316400Y-10547800D01*
G75*
G02*
X20416400Y-10647800I0J-100000D01*
G01*
X20416400Y-11297800D01*
G75*
G02*
X20316400Y-11397800I-100000J0D01*
G01*
X18756400Y-11397800D01*
G75*
G02*
X18656400Y-11297800I0J100000D01*
G01*
G37*
G36*
G01*
X18656400Y-10347800D02*
X18656400Y-9697800D01*
G75*
G02*
X18756400Y-9597800I100000J0D01*
G01*
X20316400Y-9597800D01*
G75*
G02*
X20416400Y-9697800I0J-100000D01*
G01*
X20416400Y-10347800D01*
G75*
G02*
X20316400Y-10447800I-100000J0D01*
G01*
X18756400Y-10447800D01*
G75*
G02*
X18656400Y-10347800I0J100000D01*
G01*
G37*
G36*
G01*
X18656400Y-12247800D02*
X18656400Y-11597800D01*
G75*
G02*
X18756400Y-11497800I100000J0D01*
G01*
X20316400Y-11497800D01*
G75*
G02*
X20416400Y-11597800I0J-100000D01*
G01*
X20416400Y-12247800D01*
G75*
G02*
X20316400Y-12347800I-100000J0D01*
G01*
X18756400Y-12347800D01*
G75*
G02*
X18656400Y-12247800I0J100000D01*
G01*
G37*
G36*
G01*
X15956400Y-12247800D02*
X15956400Y-11597800D01*
G75*
G02*
X16056400Y-11497800I100000J0D01*
G01*
X17616400Y-11497800D01*
G75*
G02*
X17716400Y-11597800I0J-100000D01*
G01*
X17716400Y-12247800D01*
G75*
G02*
X17616400Y-12347800I-100000J0D01*
G01*
X16056400Y-12347800D01*
G75*
G02*
X15956400Y-12247800I0J100000D01*
G01*
G37*
G36*
G01*
X15956400Y-11297800D02*
X15956400Y-10647800D01*
G75*
G02*
X16056400Y-10547800I100000J0D01*
G01*
X17616400Y-10547800D01*
G75*
G02*
X17716400Y-10647800I0J-100000D01*
G01*
X17716400Y-11297800D01*
G75*
G02*
X17616400Y-11397800I-100000J0D01*
G01*
X16056400Y-11397800D01*
G75*
G02*
X15956400Y-11297800I0J100000D01*
G01*
G37*
G36*
G01*
X15956400Y-10347800D02*
X15956400Y-9697800D01*
G75*
G02*
X16056400Y-9597800I100000J0D01*
G01*
X17616400Y-9597800D01*
G75*
G02*
X17716400Y-9697800I0J-100000D01*
G01*
X17716400Y-10347800D01*
G75*
G02*
X17616400Y-10447800I-100000J0D01*
G01*
X16056400Y-10447800D01*
G75*
G02*
X15956400Y-10347800I0J100000D01*
G01*
G37*
G36*
G01*
X9544000Y65474000D02*
X8744000Y65474000D01*
G75*
G02*
X8644000Y65574000I0J100000D01*
G01*
X8644000Y67474000D01*
G75*
G02*
X8744000Y67574000I100000J0D01*
G01*
X9544000Y67574000D01*
G75*
G02*
X9644000Y67474000I0J-100000D01*
G01*
X9644000Y65574000D01*
G75*
G02*
X9544000Y65474000I-100000J0D01*
G01*
G37*
G36*
G01*
X10494000Y62474000D02*
X9694000Y62474000D01*
G75*
G02*
X9594000Y62574000I0J100000D01*
G01*
X9594000Y64474000D01*
G75*
G02*
X9694000Y64574000I100000J0D01*
G01*
X10494000Y64574000D01*
G75*
G02*
X10594000Y64474000I0J-100000D01*
G01*
X10594000Y62574000D01*
G75*
G02*
X10494000Y62474000I-100000J0D01*
G01*
G37*
G36*
G01*
X8594000Y62474000D02*
X7794000Y62474000D01*
G75*
G02*
X7694000Y62574000I0J100000D01*
G01*
X7694000Y64474000D01*
G75*
G02*
X7794000Y64574000I100000J0D01*
G01*
X8594000Y64574000D01*
G75*
G02*
X8694000Y64474000I0J-100000D01*
G01*
X8694000Y62574000D01*
G75*
G02*
X8594000Y62474000I-100000J0D01*
G01*
G37*
D12*
X254000Y10160000D03*
G36*
G01*
X1944000Y11110000D02*
X3644000Y11110000D01*
G75*
G02*
X3744000Y11010000I0J-100000D01*
G01*
X3744000Y9310000D01*
G75*
G02*
X3644000Y9210000I-100000J0D01*
G01*
X1944000Y9210000D01*
G75*
G02*
X1844000Y9310000I0J100000D01*
G01*
X1844000Y11010000D01*
G75*
G02*
X1944000Y11110000I100000J0D01*
G01*
G37*
X254000Y6350000D03*
G36*
G01*
X1944000Y7300000D02*
X3644000Y7300000D01*
G75*
G02*
X3744000Y7200000I0J-100000D01*
G01*
X3744000Y5500000D01*
G75*
G02*
X3644000Y5400000I-100000J0D01*
G01*
X1944000Y5400000D01*
G75*
G02*
X1844000Y5500000I0J100000D01*
G01*
X1844000Y7200000D01*
G75*
G02*
X1944000Y7300000I100000J0D01*
G01*
G37*
D11*
X86014000Y33528000D03*
X86014000Y30988000D03*
X86014000Y28448000D03*
X86014000Y25908000D03*
X86014000Y23368000D03*
G36*
G01*
X85064000Y19978000D02*
X85064000Y21678000D01*
G75*
G02*
X85164000Y21778000I100000J0D01*
G01*
X86864000Y21778000D01*
G75*
G02*
X86964000Y21678000I0J-100000D01*
G01*
X86964000Y19978000D01*
G75*
G02*
X86864000Y19878000I-100000J0D01*
G01*
X85164000Y19878000D01*
G75*
G02*
X85064000Y19978000I0J100000D01*
G01*
G37*
D12*
X2794000Y53340000D03*
G36*
G01*
X1104000Y52390000D02*
X-596000Y52390000D01*
G75*
G02*
X-696000Y52490000I0J100000D01*
G01*
X-696000Y54190000D01*
G75*
G02*
X-596000Y54290000I100000J0D01*
G01*
X1104000Y54290000D01*
G75*
G02*
X1204000Y54190000I0J-100000D01*
G01*
X1204000Y52490000D01*
G75*
G02*
X1104000Y52390000I-100000J0D01*
G01*
G37*
G36*
G01*
X-6348300Y74533000D02*
X-4548300Y74533000D01*
G75*
G02*
X-4448300Y74433000I0J-100000D01*
G01*
X-4448300Y72633000D01*
G75*
G02*
X-4548300Y72533000I-100000J0D01*
G01*
X-6348300Y72533000D01*
G75*
G02*
X-6448300Y72633000I0J100000D01*
G01*
X-6448300Y74433000D01*
G75*
G02*
X-6348300Y74533000I100000J0D01*
G01*
G37*
D13*
X-5448300Y70993000D03*
D12*
X5080000Y-7493000D03*
X5080000Y-10033000D03*
X5080000Y-12573000D03*
G36*
G01*
X6030000Y-14263000D02*
X6030000Y-15963000D01*
G75*
G02*
X5930000Y-16063000I-100000J0D01*
G01*
X4230000Y-16063000D01*
G75*
G02*
X4130000Y-15963000I0J100000D01*
G01*
X4130000Y-14263000D01*
G75*
G02*
X4230000Y-14163000I100000J0D01*
G01*
X5930000Y-14163000D01*
G75*
G02*
X6030000Y-14263000I0J-100000D01*
G01*
G37*
D14*
X85471000Y52387500D03*
X35687000Y2667000D03*
X14605000Y2667000D03*
X35687000Y52387500D03*
X14605000Y52387500D03*
D15*
X44259500Y47307500D03*
D16*
X44259500Y54927500D03*
X49403000Y54864000D03*
D15*
X49403000Y47244000D03*
X54483000Y47244000D03*
D16*
X54483000Y54864000D03*
X59563000Y54991000D03*
D15*
X59563000Y47371000D03*
D16*
X64528700Y55156100D03*
D15*
X72148700Y55156100D03*
X82219800Y45948600D03*
D16*
X82219800Y38328600D03*
X85369400Y38404800D03*
D15*
X85369400Y46024800D03*
X100584000Y46736000D03*
D16*
X100584000Y39116000D03*
X3136900Y72453500D03*
D15*
X10756900Y72453500D03*
D12*
X254000Y47625000D03*
G36*
G01*
X1944000Y48575000D02*
X3644000Y48575000D01*
G75*
G02*
X3744000Y48475000I0J-100000D01*
G01*
X3744000Y46775000D01*
G75*
G02*
X3644000Y46675000I-100000J0D01*
G01*
X1944000Y46675000D01*
G75*
G02*
X1844000Y46775000I0J100000D01*
G01*
X1844000Y48475000D01*
G75*
G02*
X1944000Y48575000I100000J0D01*
G01*
G37*
X-4267200Y55397400D03*
X-4267200Y52857400D03*
X-4267200Y50317400D03*
G36*
G01*
X-3317200Y48627400D02*
X-3317200Y46927400D01*
G75*
G02*
X-3417200Y46827400I-100000J0D01*
G01*
X-5117200Y46827400D01*
G75*
G02*
X-5217200Y46927400I0J100000D01*
G01*
X-5217200Y48627400D01*
G75*
G02*
X-5117200Y48727400I100000J0D01*
G01*
X-3417200Y48727400D01*
G75*
G02*
X-3317200Y48627400I0J-100000D01*
G01*
G37*
G36*
G01*
X-696000Y31001600D02*
X-696000Y32701600D01*
G75*
G02*
X-596000Y32801600I100000J0D01*
G01*
X1104000Y32801600D01*
G75*
G02*
X1204000Y32701600I0J-100000D01*
G01*
X1204000Y31001600D01*
G75*
G02*
X1104000Y30901600I-100000J0D01*
G01*
X-596000Y30901600D01*
G75*
G02*
X-696000Y31001600I0J100000D01*
G01*
G37*
X254000Y29311600D03*
X254000Y26771600D03*
X254000Y24231600D03*
G36*
G01*
X22433000Y70351222D02*
X22433000Y69348778D01*
G75*
G02*
X22134222Y69050000I-298778J0D01*
G01*
X21506778Y69050000D01*
G75*
G02*
X21208000Y69348778I0J298778D01*
G01*
X21208000Y70351222D01*
G75*
G02*
X21506778Y70650000I298778J0D01*
G01*
X22134222Y70650000D01*
G75*
G02*
X22433000Y70351222I0J-298778D01*
G01*
G37*
G36*
G01*
X24258000Y70351222D02*
X24258000Y69348778D01*
G75*
G02*
X23959222Y69050000I-298778J0D01*
G01*
X23331778Y69050000D01*
G75*
G02*
X23033000Y69348778I0J298778D01*
G01*
X23033000Y70351222D01*
G75*
G02*
X23331778Y70650000I298778J0D01*
G01*
X23959222Y70650000D01*
G75*
G02*
X24258000Y70351222I0J-298778D01*
G01*
G37*
G36*
G01*
X27132000Y70351222D02*
X27132000Y69348778D01*
G75*
G02*
X26833222Y69050000I-298778J0D01*
G01*
X26205778Y69050000D01*
G75*
G02*
X25907000Y69348778I0J298778D01*
G01*
X25907000Y70351222D01*
G75*
G02*
X26205778Y70650000I298778J0D01*
G01*
X26833222Y70650000D01*
G75*
G02*
X27132000Y70351222I0J-298778D01*
G01*
G37*
G36*
G01*
X28957000Y70351222D02*
X28957000Y69348778D01*
G75*
G02*
X28658222Y69050000I-298778J0D01*
G01*
X28030778Y69050000D01*
G75*
G02*
X27732000Y69348778I0J298778D01*
G01*
X27732000Y70351222D01*
G75*
G02*
X28030778Y70650000I298778J0D01*
G01*
X28658222Y70650000D01*
G75*
G02*
X28957000Y70351222I0J-298778D01*
G01*
G37*
G36*
G01*
X23856000Y50142400D02*
X21356000Y50142400D01*
G75*
G02*
X21256000Y50242400I0J100000D01*
G01*
X21256000Y52142400D01*
G75*
G02*
X21356000Y52242400I100000J0D01*
G01*
X23856000Y52242400D01*
G75*
G02*
X23956000Y52142400I0J-100000D01*
G01*
X23956000Y50242400D01*
G75*
G02*
X23856000Y50142400I-100000J0D01*
G01*
G37*
G36*
G01*
X23856000Y54742400D02*
X21356000Y54742400D01*
G75*
G02*
X21256000Y54842400I0J100000D01*
G01*
X21256000Y56742400D01*
G75*
G02*
X21356000Y56842400I100000J0D01*
G01*
X23856000Y56842400D01*
G75*
G02*
X23956000Y56742400I0J-100000D01*
G01*
X23956000Y54842400D01*
G75*
G02*
X23856000Y54742400I-100000J0D01*
G01*
G37*
X254000Y36830000D03*
X254000Y39370000D03*
G36*
G01*
X-696000Y41060000D02*
X-696000Y42760000D01*
G75*
G02*
X-596000Y42860000I100000J0D01*
G01*
X1104000Y42860000D01*
G75*
G02*
X1204000Y42760000I0J-100000D01*
G01*
X1204000Y41060000D01*
G75*
G02*
X1104000Y40960000I-100000J0D01*
G01*
X-596000Y40960000D01*
G75*
G02*
X-696000Y41060000I0J100000D01*
G01*
G37*
G36*
G01*
X27082000Y57656523D02*
X27082000Y56643477D01*
G75*
G02*
X26788523Y56350000I-293477J0D01*
G01*
X26025477Y56350000D01*
G75*
G02*
X25732000Y56643477I0J293477D01*
G01*
X25732000Y57656523D01*
G75*
G02*
X26025477Y57950000I293477J0D01*
G01*
X26788523Y57950000D01*
G75*
G02*
X27082000Y57656523I0J-293477D01*
G01*
G37*
G36*
G01*
X29132000Y57656523D02*
X29132000Y56643477D01*
G75*
G02*
X28838523Y56350000I-293477J0D01*
G01*
X28075477Y56350000D01*
G75*
G02*
X27782000Y56643477I0J293477D01*
G01*
X27782000Y57656523D01*
G75*
G02*
X28075477Y57950000I293477J0D01*
G01*
X28838523Y57950000D01*
G75*
G02*
X29132000Y57656523I0J-293477D01*
G01*
G37*
G36*
G01*
X29132000Y60704523D02*
X29132000Y59691477D01*
G75*
G02*
X28838523Y59398000I-293477J0D01*
G01*
X28075477Y59398000D01*
G75*
G02*
X27782000Y59691477I0J293477D01*
G01*
X27782000Y60704523D01*
G75*
G02*
X28075477Y60998000I293477J0D01*
G01*
X28838523Y60998000D01*
G75*
G02*
X29132000Y60704523I0J-293477D01*
G01*
G37*
G36*
G01*
X27082000Y60704523D02*
X27082000Y59691477D01*
G75*
G02*
X26788523Y59398000I-293477J0D01*
G01*
X26025477Y59398000D01*
G75*
G02*
X25732000Y59691477I0J293477D01*
G01*
X25732000Y60704523D01*
G75*
G02*
X26025477Y60998000I293477J0D01*
G01*
X26788523Y60998000D01*
G75*
G02*
X27082000Y60704523I0J-293477D01*
G01*
G37*
G36*
G01*
X27082000Y67054523D02*
X27082000Y66041477D01*
G75*
G02*
X26788523Y65748000I-293477J0D01*
G01*
X26025477Y65748000D01*
G75*
G02*
X25732000Y66041477I0J293477D01*
G01*
X25732000Y67054523D01*
G75*
G02*
X26025477Y67348000I293477J0D01*
G01*
X26788523Y67348000D01*
G75*
G02*
X27082000Y67054523I0J-293477D01*
G01*
G37*
G36*
G01*
X29132000Y67054523D02*
X29132000Y66041477D01*
G75*
G02*
X28838523Y65748000I-293477J0D01*
G01*
X28075477Y65748000D01*
G75*
G02*
X27782000Y66041477I0J293477D01*
G01*
X27782000Y67054523D01*
G75*
G02*
X28075477Y67348000I293477J0D01*
G01*
X28838523Y67348000D01*
G75*
G02*
X29132000Y67054523I0J-293477D01*
G01*
G37*
G36*
G01*
X22383000Y60704523D02*
X22383000Y59691477D01*
G75*
G02*
X22089523Y59398000I-293477J0D01*
G01*
X21326477Y59398000D01*
G75*
G02*
X21033000Y59691477I0J293477D01*
G01*
X21033000Y60704523D01*
G75*
G02*
X21326477Y60998000I293477J0D01*
G01*
X22089523Y60998000D01*
G75*
G02*
X22383000Y60704523I0J-293477D01*
G01*
G37*
G36*
G01*
X24433000Y60704523D02*
X24433000Y59691477D01*
G75*
G02*
X24139523Y59398000I-293477J0D01*
G01*
X23376477Y59398000D01*
G75*
G02*
X23083000Y59691477I0J293477D01*
G01*
X23083000Y60704523D01*
G75*
G02*
X23376477Y60998000I293477J0D01*
G01*
X24139523Y60998000D01*
G75*
G02*
X24433000Y60704523I0J-293477D01*
G01*
G37*
G36*
G01*
X19302523Y65374000D02*
X18289477Y65374000D01*
G75*
G02*
X17996000Y65667477I0J293477D01*
G01*
X17996000Y66430523D01*
G75*
G02*
X18289477Y66724000I293477J0D01*
G01*
X19302523Y66724000D01*
G75*
G02*
X19596000Y66430523I0J-293477D01*
G01*
X19596000Y65667477D01*
G75*
G02*
X19302523Y65374000I-293477J0D01*
G01*
G37*
G36*
G01*
X19302523Y63324000D02*
X18289477Y63324000D01*
G75*
G02*
X17996000Y63617477I0J293477D01*
G01*
X17996000Y64380523D01*
G75*
G02*
X18289477Y64674000I293477J0D01*
G01*
X19302523Y64674000D01*
G75*
G02*
X19596000Y64380523I0J-293477D01*
G01*
X19596000Y63617477D01*
G75*
G02*
X19302523Y63324000I-293477J0D01*
G01*
G37*
G36*
G01*
X31602201Y-11849000D02*
X30952201Y-11849000D01*
G75*
G02*
X30852201Y-11749000I0J100000D01*
G01*
X30852201Y-10189000D01*
G75*
G02*
X30952201Y-10089000I100000J0D01*
G01*
X31602201Y-10089000D01*
G75*
G02*
X31702201Y-10189000I0J-100000D01*
G01*
X31702201Y-11749000D01*
G75*
G02*
X31602201Y-11849000I-100000J0D01*
G01*
G37*
G36*
G01*
X33502201Y-11849000D02*
X32852201Y-11849000D01*
G75*
G02*
X32752201Y-11749000I0J100000D01*
G01*
X32752201Y-10189000D01*
G75*
G02*
X32852201Y-10089000I100000J0D01*
G01*
X33502201Y-10089000D01*
G75*
G02*
X33602201Y-10189000I0J-100000D01*
G01*
X33602201Y-11749000D01*
G75*
G02*
X33502201Y-11849000I-100000J0D01*
G01*
G37*
G36*
G01*
X33502201Y-14549000D02*
X32852201Y-14549000D01*
G75*
G02*
X32752201Y-14449000I0J100000D01*
G01*
X32752201Y-12889000D01*
G75*
G02*
X32852201Y-12789000I100000J0D01*
G01*
X33502201Y-12789000D01*
G75*
G02*
X33602201Y-12889000I0J-100000D01*
G01*
X33602201Y-14449000D01*
G75*
G02*
X33502201Y-14549000I-100000J0D01*
G01*
G37*
G36*
G01*
X32552201Y-14549000D02*
X31902201Y-14549000D01*
G75*
G02*
X31802201Y-14449000I0J100000D01*
G01*
X31802201Y-12889000D01*
G75*
G02*
X31902201Y-12789000I100000J0D01*
G01*
X32552201Y-12789000D01*
G75*
G02*
X32652201Y-12889000I0J-100000D01*
G01*
X32652201Y-14449000D01*
G75*
G02*
X32552201Y-14549000I-100000J0D01*
G01*
G37*
G36*
G01*
X31602201Y-14549000D02*
X30952201Y-14549000D01*
G75*
G02*
X30852201Y-14449000I0J100000D01*
G01*
X30852201Y-12889000D01*
G75*
G02*
X30952201Y-12789000I100000J0D01*
G01*
X31602201Y-12789000D01*
G75*
G02*
X31702201Y-12889000I0J-100000D01*
G01*
X31702201Y-14449000D01*
G75*
G02*
X31602201Y-14549000I-100000J0D01*
G01*
G37*
G36*
G01*
X77304000Y51120000D02*
X75604000Y51120000D01*
G75*
G02*
X75504000Y51220000I0J100000D01*
G01*
X75504000Y52920000D01*
G75*
G02*
X75604000Y53020000I100000J0D01*
G01*
X77304000Y53020000D01*
G75*
G02*
X77404000Y52920000I0J-100000D01*
G01*
X77404000Y51220000D01*
G75*
G02*
X77304000Y51120000I-100000J0D01*
G01*
G37*
X78994000Y52070000D03*
G36*
G01*
X88354000Y900000D02*
X89954000Y900000D01*
G75*
G02*
X90054000Y800000I0J-100000D01*
G01*
X90054000Y-800000D01*
G75*
G02*
X89954000Y-900000I-100000J0D01*
G01*
X88354000Y-900000D01*
G75*
G02*
X88254000Y-800000I0J100000D01*
G01*
X88254000Y800000D01*
G75*
G02*
X88354000Y900000I100000J0D01*
G01*
G37*
D17*
X56134000Y-15240000D03*
X86614000Y0D03*
X58674000Y-15240000D03*
X84074000Y0D03*
X61214000Y-15240000D03*
X81534000Y0D03*
X63754000Y-15240000D03*
X78994000Y0D03*
X66294000Y-15240000D03*
X76454000Y0D03*
X68834000Y-15240000D03*
X73914000Y0D03*
X71374000Y-15240000D03*
X71374000Y0D03*
X73914000Y-15240000D03*
X68834000Y0D03*
X76454000Y-15240000D03*
X66294000Y0D03*
X78994000Y-15240000D03*
X63754000Y0D03*
X81534000Y-15240000D03*
X61214000Y0D03*
X84074000Y-15240000D03*
X58674000Y0D03*
X86614000Y-15240000D03*
X56134000Y0D03*
X89154000Y-15240000D03*
X53594000Y0D03*
X53594000Y-15240000D03*
D18*
X-3378200Y-10225400D03*
X-3378200Y-12714600D03*
X-1371600Y-12714600D03*
X-1371600Y-10225400D03*
D19*
X-6096000Y-5450200D03*
X-6096000Y-17489800D03*
G36*
G01*
X29144000Y850000D02*
X29144000Y-850000D01*
G75*
G02*
X29044000Y-950000I-100000J0D01*
G01*
X27344000Y-950000D01*
G75*
G02*
X27244000Y-850000I0J100000D01*
G01*
X27244000Y850000D01*
G75*
G02*
X27344000Y950000I100000J0D01*
G01*
X29044000Y950000D01*
G75*
G02*
X29144000Y850000I0J-100000D01*
G01*
G37*
D12*
X28194000Y2540000D03*
X28194000Y5080000D03*
G36*
G01*
X26604000Y850000D02*
X26604000Y-850000D01*
G75*
G02*
X26504000Y-950000I-100000J0D01*
G01*
X24804000Y-950000D01*
G75*
G02*
X24704000Y-850000I0J100000D01*
G01*
X24704000Y850000D01*
G75*
G02*
X24804000Y950000I100000J0D01*
G01*
X26504000Y950000D01*
G75*
G02*
X26604000Y850000I0J-100000D01*
G01*
G37*
X25654000Y2540000D03*
X25654000Y5080000D03*
G36*
G01*
X24064000Y850000D02*
X24064000Y-850000D01*
G75*
G02*
X23964000Y-950000I-100000J0D01*
G01*
X22264000Y-950000D01*
G75*
G02*
X22164000Y-850000I0J100000D01*
G01*
X22164000Y850000D01*
G75*
G02*
X22264000Y950000I100000J0D01*
G01*
X23964000Y950000D01*
G75*
G02*
X24064000Y850000I0J-100000D01*
G01*
G37*
X23114000Y2540000D03*
X23114000Y5080000D03*
G36*
G01*
X-696000Y1690000D02*
X-696000Y3390000D01*
G75*
G02*
X-596000Y3490000I100000J0D01*
G01*
X1104000Y3490000D01*
G75*
G02*
X1204000Y3390000I0J-100000D01*
G01*
X1204000Y1690000D01*
G75*
G02*
X1104000Y1590000I-100000J0D01*
G01*
X-596000Y1590000D01*
G75*
G02*
X-696000Y1690000I0J100000D01*
G01*
G37*
X254000Y0D03*
X254000Y-2540000D03*
G36*
G01*
X41214000Y9310000D02*
X41214000Y11010000D01*
G75*
G02*
X41314000Y11110000I100000J0D01*
G01*
X43014000Y11110000D01*
G75*
G02*
X43114000Y11010000I0J-100000D01*
G01*
X43114000Y9310000D01*
G75*
G02*
X43014000Y9210000I-100000J0D01*
G01*
X41314000Y9210000D01*
G75*
G02*
X41214000Y9310000I0J100000D01*
G01*
G37*
X44704000Y10160000D03*
X42164000Y7620000D03*
X44704000Y7620000D03*
X42164000Y5080000D03*
X44704000Y5080000D03*
G36*
G01*
X36577477Y-11635000D02*
X37590523Y-11635000D01*
G75*
G02*
X37884000Y-11928477I0J-293477D01*
G01*
X37884000Y-12691523D01*
G75*
G02*
X37590523Y-12985000I-293477J0D01*
G01*
X36577477Y-12985000D01*
G75*
G02*
X36284000Y-12691523I0J293477D01*
G01*
X36284000Y-11928477D01*
G75*
G02*
X36577477Y-11635000I293477J0D01*
G01*
G37*
G36*
G01*
X36577477Y-13685000D02*
X37590523Y-13685000D01*
G75*
G02*
X37884000Y-13978477I0J-293477D01*
G01*
X37884000Y-14741523D01*
G75*
G02*
X37590523Y-15035000I-293477J0D01*
G01*
X36577477Y-15035000D01*
G75*
G02*
X36284000Y-14741523I0J293477D01*
G01*
X36284000Y-13978477D01*
G75*
G02*
X36577477Y-13685000I293477J0D01*
G01*
G37*
G36*
G01*
X27938523Y-15035000D02*
X26925477Y-15035000D01*
G75*
G02*
X26632000Y-14741523I0J293477D01*
G01*
X26632000Y-13978477D01*
G75*
G02*
X26925477Y-13685000I293477J0D01*
G01*
X27938523Y-13685000D01*
G75*
G02*
X28232000Y-13978477I0J-293477D01*
G01*
X28232000Y-14741523D01*
G75*
G02*
X27938523Y-15035000I-293477J0D01*
G01*
G37*
G36*
G01*
X27938523Y-12985000D02*
X26925477Y-12985000D01*
G75*
G02*
X26632000Y-12691523I0J293477D01*
G01*
X26632000Y-11928477D01*
G75*
G02*
X26925477Y-11635000I293477J0D01*
G01*
X27938523Y-11635000D01*
G75*
G02*
X28232000Y-11928477I0J-293477D01*
G01*
X28232000Y-12691523D01*
G75*
G02*
X27938523Y-12985000I-293477J0D01*
G01*
G37*
G36*
G01*
X3744000Y14820000D02*
X3744000Y13120000D01*
G75*
G02*
X3644000Y13020000I-100000J0D01*
G01*
X1944000Y13020000D01*
G75*
G02*
X1844000Y13120000I0J100000D01*
G01*
X1844000Y14820000D01*
G75*
G02*
X1944000Y14920000I100000J0D01*
G01*
X3644000Y14920000D01*
G75*
G02*
X3744000Y14820000I0J-100000D01*
G01*
G37*
X254000Y13970000D03*
X2794000Y16510000D03*
X254000Y16510000D03*
X2794000Y19050000D03*
X254000Y19050000D03*
G36*
G01*
X5472700Y71934550D02*
X5472700Y72947050D01*
G75*
G02*
X5766450Y73240800I293750J0D01*
G01*
X6353950Y73240800D01*
G75*
G02*
X6647700Y72947050I0J-293750D01*
G01*
X6647700Y71934550D01*
G75*
G02*
X6353950Y71640800I-293750J0D01*
G01*
X5766450Y71640800D01*
G75*
G02*
X5472700Y71934550I0J293750D01*
G01*
G37*
G36*
G01*
X7347700Y71934550D02*
X7347700Y72947050D01*
G75*
G02*
X7641450Y73240800I293750J0D01*
G01*
X8228950Y73240800D01*
G75*
G02*
X8522700Y72947050I0J-293750D01*
G01*
X8522700Y71934550D01*
G75*
G02*
X8228950Y71640800I-293750J0D01*
G01*
X7641450Y71640800D01*
G75*
G02*
X7347700Y71934550I0J293750D01*
G01*
G37*
G36*
G01*
X-5248000Y62169100D02*
X-5248000Y65669100D01*
G75*
G02*
X-5148000Y65769100I100000J0D01*
G01*
X-1648000Y65769100D01*
G75*
G02*
X-1548000Y65669100I0J-100000D01*
G01*
X-1548000Y62169100D01*
G75*
G02*
X-1648000Y62069100I-100000J0D01*
G01*
X-5148000Y62069100D01*
G75*
G02*
X-5248000Y62169100I0J100000D01*
G01*
G37*
G36*
G01*
X-10998000Y62869100D02*
X-10998000Y64969100D01*
G75*
G02*
X-10198000Y65769100I800000J0D01*
G01*
X-8598000Y65769100D01*
G75*
G02*
X-7798000Y64969100I0J-800000D01*
G01*
X-7798000Y62869100D01*
G75*
G02*
X-8598000Y62069100I-800000J0D01*
G01*
X-10198000Y62069100D01*
G75*
G02*
X-10998000Y62869100I0J800000D01*
G01*
G37*
G36*
G01*
X-8248000Y58294100D02*
X-8248000Y60144100D01*
G75*
G02*
X-7323000Y61069100I925000J0D01*
G01*
X-5473000Y61069100D01*
G75*
G02*
X-4548000Y60144100I0J-925000D01*
G01*
X-4548000Y58294100D01*
G75*
G02*
X-5473000Y57369100I-925000J0D01*
G01*
X-7323000Y57369100D01*
G75*
G02*
X-8248000Y58294100I0J925000D01*
G01*
G37*
G36*
G01*
X96531000Y42942000D02*
X94731000Y42942000D01*
G75*
G02*
X94631000Y43042000I0J100000D01*
G01*
X94631000Y44842000D01*
G75*
G02*
X94731000Y44942000I100000J0D01*
G01*
X96531000Y44942000D01*
G75*
G02*
X96631000Y44842000I0J-100000D01*
G01*
X96631000Y43042000D01*
G75*
G02*
X96531000Y42942000I-100000J0D01*
G01*
G37*
D13*
X95631000Y46482000D03*
G36*
G01*
X100077750Y44451000D02*
X101090250Y44451000D01*
G75*
G02*
X101384000Y44157250I0J-293750D01*
G01*
X101384000Y43569750D01*
G75*
G02*
X101090250Y43276000I-293750J0D01*
G01*
X100077750Y43276000D01*
G75*
G02*
X99784000Y43569750I0J293750D01*
G01*
X99784000Y44157250D01*
G75*
G02*
X100077750Y44451000I293750J0D01*
G01*
G37*
G36*
G01*
X100077750Y42576000D02*
X101090250Y42576000D01*
G75*
G02*
X101384000Y42282250I0J-293750D01*
G01*
X101384000Y41694750D01*
G75*
G02*
X101090250Y41401000I-293750J0D01*
G01*
X100077750Y41401000D01*
G75*
G02*
X99784000Y41694750I0J293750D01*
G01*
X99784000Y42282250D01*
G75*
G02*
X100077750Y42576000I293750J0D01*
G01*
G37*
G36*
G01*
X94554000Y30265000D02*
X94554000Y31965000D01*
G75*
G02*
X94654000Y32065000I100000J0D01*
G01*
X96354000Y32065000D01*
G75*
G02*
X96454000Y31965000I0J-100000D01*
G01*
X96454000Y30265000D01*
G75*
G02*
X96354000Y30165000I-100000J0D01*
G01*
X94654000Y30165000D01*
G75*
G02*
X94554000Y30265000I0J100000D01*
G01*
G37*
D12*
X95504000Y28575000D03*
X95504000Y26035000D03*
X95504000Y23495000D03*
G36*
G01*
X93610000Y44948600D02*
X91810000Y44948600D01*
G75*
G02*
X91710000Y45048600I0J100000D01*
G01*
X91710000Y46848600D01*
G75*
G02*
X91810000Y46948600I100000J0D01*
G01*
X93610000Y46948600D01*
G75*
G02*
X93710000Y46848600I0J-100000D01*
G01*
X93710000Y45048600D01*
G75*
G02*
X93610000Y44948600I-100000J0D01*
G01*
G37*
D13*
X92710000Y48488600D03*
G36*
G01*
X93610000Y50003200D02*
X91810000Y50003200D01*
G75*
G02*
X91710000Y50103200I0J100000D01*
G01*
X91710000Y51903200D01*
G75*
G02*
X91810000Y52003200I100000J0D01*
G01*
X93610000Y52003200D01*
G75*
G02*
X93710000Y51903200I0J-100000D01*
G01*
X93710000Y50103200D01*
G75*
G02*
X93610000Y50003200I-100000J0D01*
G01*
G37*
X92710000Y53543200D03*
D20*
X96814000Y55620800D03*
X96814000Y48620800D03*
D21*
X99314000Y54395800D03*
X99314000Y49845800D03*
G36*
G01*
X84863150Y43739800D02*
X85875650Y43739800D01*
G75*
G02*
X86169400Y43446050I0J-293750D01*
G01*
X86169400Y42858550D01*
G75*
G02*
X85875650Y42564800I-293750J0D01*
G01*
X84863150Y42564800D01*
G75*
G02*
X84569400Y42858550I0J293750D01*
G01*
X84569400Y43446050D01*
G75*
G02*
X84863150Y43739800I293750J0D01*
G01*
G37*
G36*
G01*
X84863150Y41864800D02*
X85875650Y41864800D01*
G75*
G02*
X86169400Y41571050I0J-293750D01*
G01*
X86169400Y40983550D01*
G75*
G02*
X85875650Y40689800I-293750J0D01*
G01*
X84863150Y40689800D01*
G75*
G02*
X84569400Y40983550I0J293750D01*
G01*
X84569400Y41571050D01*
G75*
G02*
X84863150Y41864800I293750J0D01*
G01*
G37*
G36*
G01*
X81713550Y43739800D02*
X82726050Y43739800D01*
G75*
G02*
X83019800Y43446050I0J-293750D01*
G01*
X83019800Y42858550D01*
G75*
G02*
X82726050Y42564800I-293750J0D01*
G01*
X81713550Y42564800D01*
G75*
G02*
X81419800Y42858550I0J293750D01*
G01*
X81419800Y43446050D01*
G75*
G02*
X81713550Y43739800I293750J0D01*
G01*
G37*
G36*
G01*
X81713550Y41864800D02*
X82726050Y41864800D01*
G75*
G02*
X83019800Y41571050I0J-293750D01*
G01*
X83019800Y40983550D01*
G75*
G02*
X82726050Y40689800I-293750J0D01*
G01*
X81713550Y40689800D01*
G75*
G02*
X81419800Y40983550I0J293750D01*
G01*
X81419800Y41571050D01*
G75*
G02*
X81713550Y41864800I293750J0D01*
G01*
G37*
G36*
G01*
X-7046000Y39790000D02*
X-7046000Y41490000D01*
G75*
G02*
X-6946000Y41590000I100000J0D01*
G01*
X-5246000Y41590000D01*
G75*
G02*
X-5146000Y41490000I0J-100000D01*
G01*
X-5146000Y39790000D01*
G75*
G02*
X-5246000Y39690000I-100000J0D01*
G01*
X-6946000Y39690000D01*
G75*
G02*
X-7046000Y39790000I0J100000D01*
G01*
G37*
D12*
X-3556000Y40640000D03*
X-6096000Y38100000D03*
X-3556000Y38100000D03*
X-6096000Y35560000D03*
X-3556000Y35560000D03*
X-6096000Y33020000D03*
X-3556000Y33020000D03*
X-6096000Y30480000D03*
X-3556000Y30480000D03*
X-6096000Y27940000D03*
X-3556000Y27940000D03*
X-6096000Y25400000D03*
X-3556000Y25400000D03*
X-6096000Y22860000D03*
X-3556000Y22860000D03*
X-6096000Y20320000D03*
X-3556000Y20320000D03*
X-6096000Y17780000D03*
X-3556000Y17780000D03*
X-6096000Y15240000D03*
X-3556000Y15240000D03*
X-6096000Y12700000D03*
X-3556000Y12700000D03*
X-6096000Y10160000D03*
X-3556000Y10160000D03*
X-6096000Y7620000D03*
X-3556000Y7620000D03*
X-6096000Y5080000D03*
X-3556000Y5080000D03*
X-6096000Y2540000D03*
X-3556000Y2540000D03*
X-6096000Y0D03*
X-3556000Y0D03*
G36*
G01*
X60069250Y49529000D02*
X59056750Y49529000D01*
G75*
G02*
X58763000Y49822750I0J293750D01*
G01*
X58763000Y50410250D01*
G75*
G02*
X59056750Y50704000I293750J0D01*
G01*
X60069250Y50704000D01*
G75*
G02*
X60363000Y50410250I0J-293750D01*
G01*
X60363000Y49822750D01*
G75*
G02*
X60069250Y49529000I-293750J0D01*
G01*
G37*
G36*
G01*
X60069250Y51404000D02*
X59056750Y51404000D01*
G75*
G02*
X58763000Y51697750I0J293750D01*
G01*
X58763000Y52285250D01*
G75*
G02*
X59056750Y52579000I293750J0D01*
G01*
X60069250Y52579000D01*
G75*
G02*
X60363000Y52285250I0J-293750D01*
G01*
X60363000Y51697750D01*
G75*
G02*
X60069250Y51404000I-293750J0D01*
G01*
G37*
G36*
G01*
X44765750Y49592500D02*
X43753250Y49592500D01*
G75*
G02*
X43459500Y49886250I0J293750D01*
G01*
X43459500Y50473750D01*
G75*
G02*
X43753250Y50767500I293750J0D01*
G01*
X44765750Y50767500D01*
G75*
G02*
X45059500Y50473750I0J-293750D01*
G01*
X45059500Y49886250D01*
G75*
G02*
X44765750Y49592500I-293750J0D01*
G01*
G37*
G36*
G01*
X44765750Y51467500D02*
X43753250Y51467500D01*
G75*
G02*
X43459500Y51761250I0J293750D01*
G01*
X43459500Y52348750D01*
G75*
G02*
X43753250Y52642500I293750J0D01*
G01*
X44765750Y52642500D01*
G75*
G02*
X45059500Y52348750I0J-293750D01*
G01*
X45059500Y51761250D01*
G75*
G02*
X44765750Y51467500I-293750J0D01*
G01*
G37*
G36*
G01*
X49909250Y49529000D02*
X48896750Y49529000D01*
G75*
G02*
X48603000Y49822750I0J293750D01*
G01*
X48603000Y50410250D01*
G75*
G02*
X48896750Y50704000I293750J0D01*
G01*
X49909250Y50704000D01*
G75*
G02*
X50203000Y50410250I0J-293750D01*
G01*
X50203000Y49822750D01*
G75*
G02*
X49909250Y49529000I-293750J0D01*
G01*
G37*
G36*
G01*
X49909250Y51404000D02*
X48896750Y51404000D01*
G75*
G02*
X48603000Y51697750I0J293750D01*
G01*
X48603000Y52285250D01*
G75*
G02*
X48896750Y52579000I293750J0D01*
G01*
X49909250Y52579000D01*
G75*
G02*
X50203000Y52285250I0J-293750D01*
G01*
X50203000Y51697750D01*
G75*
G02*
X49909250Y51404000I-293750J0D01*
G01*
G37*
G36*
G01*
X54989250Y49529000D02*
X53976750Y49529000D01*
G75*
G02*
X53683000Y49822750I0J293750D01*
G01*
X53683000Y50410250D01*
G75*
G02*
X53976750Y50704000I293750J0D01*
G01*
X54989250Y50704000D01*
G75*
G02*
X55283000Y50410250I0J-293750D01*
G01*
X55283000Y49822750D01*
G75*
G02*
X54989250Y49529000I-293750J0D01*
G01*
G37*
G36*
G01*
X54989250Y51404000D02*
X53976750Y51404000D01*
G75*
G02*
X53683000Y51697750I0J293750D01*
G01*
X53683000Y52285250D01*
G75*
G02*
X53976750Y52579000I293750J0D01*
G01*
X54989250Y52579000D01*
G75*
G02*
X55283000Y52285250I0J-293750D01*
G01*
X55283000Y51697750D01*
G75*
G02*
X54989250Y51404000I-293750J0D01*
G01*
G37*
G36*
G01*
X69863700Y55662350D02*
X69863700Y54649850D01*
G75*
G02*
X69569950Y54356100I-293750J0D01*
G01*
X68982450Y54356100D01*
G75*
G02*
X68688700Y54649850I0J293750D01*
G01*
X68688700Y55662350D01*
G75*
G02*
X68982450Y55956100I293750J0D01*
G01*
X69569950Y55956100D01*
G75*
G02*
X69863700Y55662350I0J-293750D01*
G01*
G37*
G36*
G01*
X67988700Y55662350D02*
X67988700Y54649850D01*
G75*
G02*
X67694950Y54356100I-293750J0D01*
G01*
X67107450Y54356100D01*
G75*
G02*
X66813700Y54649850I0J293750D01*
G01*
X66813700Y55662350D01*
G75*
G02*
X67107450Y55956100I293750J0D01*
G01*
X67694950Y55956100D01*
G75*
G02*
X67988700Y55662350I0J-293750D01*
G01*
G37*
D22*
X95631000Y19050000D03*
X95504000Y-16510000D03*
X65760600Y18643600D03*
X68376800Y15773400D03*
X95504000Y-7620000D03*
X95504000Y2540000D03*
X95504000Y11430000D03*
X12954000Y73660000D03*
X80264000Y73660000D03*
X80264000Y59690000D03*
X80264000Y67310000D03*
X101854000Y58420000D03*
X71374000Y73660000D03*
X89154000Y58420000D03*
X101854000Y35560000D03*
X101854000Y21590000D03*
X101854000Y48006000D03*
X63500000Y10439400D03*
X43992800Y27914600D03*
X54406800Y25781000D03*
X54864000Y6985000D03*
X73914000Y52070000D03*
X95173800Y38506400D03*
X68834000Y8890000D03*
X89281000Y-11430000D03*
X89154000Y-3937000D03*
X73914000Y-6350000D03*
X51054000Y-8890000D03*
X42164000Y-11430000D03*
X40894000Y-3810000D03*
X21844000Y-15494000D03*
X-7366000Y-11430000D03*
X20574000Y8890000D03*
X6731000Y21590000D03*
X68834000Y52070000D03*
X89154000Y44450000D03*
X65151000Y4953000D03*
X58674000Y8890000D03*
X30734000Y29210000D03*
X89154000Y11430000D03*
X33274000Y-3810000D03*
X30099000Y-2921000D03*
X31496000Y10693400D03*
X46964600Y-3606800D03*
X47040800Y-14046200D03*
X68478400Y-11633200D03*
X90424000Y30988000D03*
X38354000Y29210000D03*
X20574000Y73660000D03*
X24384000Y73660000D03*
X28194000Y73660000D03*
X30734000Y73660000D03*
X86817200Y12115800D03*
X79730600Y5080000D03*
X61214000Y62230000D03*
X58674000Y62230000D03*
X56134000Y62230000D03*
X53594000Y62230000D03*
X51054000Y62230000D03*
X48514000Y62230000D03*
X45974000Y62230000D03*
X43434000Y62230000D03*
X40894000Y62230000D03*
X38354000Y62230000D03*
X35814000Y62230000D03*
X35814000Y73660000D03*
X40894000Y73660000D03*
X45974000Y73660000D03*
X51054000Y73660000D03*
X56134000Y73660000D03*
X61214000Y73660000D03*
X66294000Y73660000D03*
X76454000Y73660000D03*
X80264000Y63500000D03*
X80264000Y70485000D03*
X83439000Y58420000D03*
X92964000Y58420000D03*
X101854000Y52070000D03*
X95504000Y15240000D03*
X95504000Y6985000D03*
X95504000Y-2540000D03*
X95504000Y-12700000D03*
X-381000Y-18415000D03*
X4699000Y-18415000D03*
X8509000Y-18415000D03*
X12319000Y-18415000D03*
X16129000Y-18415000D03*
X19939000Y-18415000D03*
X23114000Y-18415000D03*
X26289000Y-18415000D03*
X-7366000Y-8890000D03*
X-7366000Y-13970000D03*
X-7366000Y-2540000D03*
X-7366000Y47625000D03*
X-7366000Y50165000D03*
X-7366000Y52705000D03*
X-7366000Y55245000D03*
X-9906000Y57785000D03*
X-7366000Y67310000D03*
X81534000Y-8255000D03*
X56134000Y29845000D03*
X12954000Y46990000D03*
X12954000Y41910000D03*
X7874000Y41910000D03*
X39624000Y55245000D03*
X39624000Y48895000D03*
X62484000Y51435000D03*
X87249000Y5715000D03*
X78359000Y10160000D03*
X80264000Y16510000D03*
X91694000Y27305000D03*
X41529000Y1270000D03*
X18669000Y0D03*
X18669000Y5080000D03*
X9906000Y-6604000D03*
X40259000Y-15875000D03*
X25654000Y43815000D03*
X18669000Y36195000D03*
X51689000Y45085000D03*
X46609000Y45085000D03*
X58674000Y45085000D03*
X41529000Y45085000D03*
X35814000Y45085000D03*
X70104000Y45720000D03*
X78994000Y45720000D03*
X90424000Y33655000D03*
X7874000Y33020000D03*
X16764000Y33020000D03*
X7874000Y30480000D03*
X7874000Y27940000D03*
X7874000Y24130000D03*
X18669000Y23495000D03*
X19304000Y27940000D03*
X18669000Y20320000D03*
X18034000Y13335000D03*
X21209000Y11811000D03*
X8509000Y13335000D03*
X9144000Y5080000D03*
X2159000Y21590000D03*
X77724000Y-12065000D03*
X78994000Y-5080000D03*
X68834000Y-4445000D03*
X85979000Y-6985000D03*
X58724800Y4495800D03*
X12954000Y57150000D03*
X18034000Y46990000D03*
X9702800Y-11303000D03*
X12954000Y-11430000D03*
X26289000Y61722000D03*
X26416000Y58674000D03*
X26416000Y55626000D03*
X21844000Y68580000D03*
X21844000Y71247000D03*
X20574000Y66802000D03*
X18415000Y69850000D03*
X63754000Y62230000D03*
X66294000Y62230000D03*
X68834000Y62230000D03*
X71374000Y62230000D03*
X73914000Y62230000D03*
X76454000Y62230000D03*
X8128000Y62230000D03*
X15240000Y-10922000D03*
X29210000Y-12319000D03*
X25527000Y-12319000D03*
X35433000Y-14478000D03*
X38989000Y-14478000D03*
X8509000Y-2032000D03*
D23*
X79730602Y18948398D03*
D22*
X93218000Y-15113000D03*
X71374000Y14046200D03*
X5905500Y6413500D03*
X14020800Y22123398D03*
X8890000Y7620000D03*
X16129000Y22225002D03*
X16129000Y12344401D03*
X4851400Y-3810000D03*
X10160001Y-3810001D03*
X57353200Y14859000D03*
X5969000Y12700000D03*
X75946000Y17297404D03*
X73914000Y18074010D03*
X5359400Y34315400D03*
X4826000Y-5334000D03*
X10160000Y-5334000D03*
X14122402Y25400000D03*
X35305990Y22860000D03*
X37846000Y22860000D03*
D23*
X26416000Y13208000D03*
D22*
X60680600Y16560800D03*
X63201001Y15830001D03*
D23*
X10160000Y-1778000D03*
D22*
X46990000Y-1651000D03*
D23*
X80060806Y21945600D03*
D22*
X54940200Y-3759140D03*
X57404000Y-3175000D03*
D23*
X29464000Y-10922000D03*
D22*
X51638200Y-3606760D03*
D24*
G36*
X31803933Y-12788000D02*
G01*
X31804201Y-12789000D01*
X31804201Y-14549000D01*
X31803201Y-14550732D01*
X31802201Y-14551000D01*
X31702201Y-14551000D01*
X31700469Y-14550000D01*
X31700201Y-14549000D01*
X31700201Y-12789000D01*
X31701201Y-12787268D01*
X31702201Y-12787000D01*
X31802201Y-12787000D01*
X31803933Y-12788000D01*
G37*
G36*
X32753933Y-12788000D02*
G01*
X32754201Y-12789000D01*
X32754201Y-14549000D01*
X32753201Y-14550732D01*
X32752201Y-14551000D01*
X32652201Y-14551000D01*
X32650469Y-14550000D01*
X32650201Y-14549000D01*
X32650201Y-12789000D01*
X32651201Y-12787268D01*
X32652201Y-12787000D01*
X32752201Y-12787000D01*
X32753933Y-12788000D01*
G37*
G36*
X20418132Y-11396800D02*
G01*
X20418400Y-11397800D01*
X20418400Y-11497800D01*
X20417400Y-11499532D01*
X20416400Y-11499800D01*
X18656400Y-11499800D01*
X18654668Y-11498800D01*
X18654400Y-11497800D01*
X18654400Y-11397800D01*
X18655400Y-11396068D01*
X18656400Y-11395800D01*
X20416400Y-11395800D01*
X20418132Y-11396800D01*
G37*
G36*
X17718132Y-11396800D02*
G01*
X17718400Y-11397800D01*
X17718400Y-11497800D01*
X17717400Y-11499532D01*
X17716400Y-11499800D01*
X15956400Y-11499800D01*
X15954668Y-11498800D01*
X15954400Y-11497800D01*
X15954400Y-11397800D01*
X15955400Y-11396068D01*
X15956400Y-11395800D01*
X17716400Y-11395800D01*
X17718132Y-11396800D01*
G37*
G36*
X20418132Y-10446800D02*
G01*
X20418400Y-10447800D01*
X20418400Y-10547800D01*
X20417400Y-10549532D01*
X20416400Y-10549800D01*
X18656400Y-10549800D01*
X18654668Y-10548800D01*
X18654400Y-10547800D01*
X18654400Y-10447800D01*
X18655400Y-10446068D01*
X18656400Y-10445800D01*
X20416400Y-10445800D01*
X20418132Y-10446800D01*
G37*
G36*
X17718132Y-10446800D02*
G01*
X17718400Y-10447800D01*
X17718400Y-10547800D01*
X17717400Y-10549532D01*
X17716400Y-10549800D01*
X15956400Y-10549800D01*
X15954668Y-10548800D01*
X15954400Y-10547800D01*
X15954400Y-10447800D01*
X15955400Y-10446068D01*
X15956400Y-10445800D01*
X17716400Y-10445800D01*
X17718132Y-10446800D01*
G37*
G36*
X-4546835Y58295726D02*
G01*
X-4546000Y58294100D01*
X-4546000Y58237740D01*
X-4546010Y58237544D01*
X-4563176Y58063259D01*
X-4563252Y58062874D01*
X-4612300Y57901183D01*
X-4612450Y57900821D01*
X-4692094Y57751818D01*
X-4692312Y57751492D01*
X-4799503Y57620880D01*
X-4799780Y57620603D01*
X-4930392Y57513412D01*
X-4930718Y57513194D01*
X-5079721Y57433550D01*
X-5080083Y57433400D01*
X-5241774Y57384352D01*
X-5242159Y57384276D01*
X-5416444Y57367110D01*
X-5416640Y57367100D01*
X-5473000Y57367100D01*
X-5474732Y57368100D01*
X-5474732Y57370100D01*
X-5473196Y57371090D01*
X-5292936Y57388844D01*
X-5119787Y57441368D01*
X-4960214Y57526662D01*
X-4820347Y57641447D01*
X-4705562Y57781314D01*
X-4620268Y57940887D01*
X-4567744Y58114036D01*
X-4549990Y58294296D01*
X-4548825Y58295922D01*
X-4546835Y58295726D01*
G37*
G36*
X-8246010Y58294296D02*
G01*
X-8228256Y58114036D01*
X-8175732Y57940887D01*
X-8090438Y57781314D01*
X-7975653Y57641447D01*
X-7835786Y57526662D01*
X-7676213Y57441368D01*
X-7503064Y57388844D01*
X-7322804Y57371090D01*
X-7321178Y57369925D01*
X-7321374Y57367935D01*
X-7323000Y57367100D01*
X-7379360Y57367100D01*
X-7379556Y57367110D01*
X-7553841Y57384276D01*
X-7554226Y57384352D01*
X-7715917Y57433400D01*
X-7716279Y57433550D01*
X-7865282Y57513194D01*
X-7865608Y57513412D01*
X-7996220Y57620603D01*
X-7996497Y57620880D01*
X-8103688Y57751492D01*
X-8103906Y57751818D01*
X-8183550Y57900821D01*
X-8183700Y57901183D01*
X-8232748Y58062874D01*
X-8232824Y58063259D01*
X-8249990Y58237544D01*
X-8250000Y58237740D01*
X-8250000Y58294100D01*
X-8249000Y58295832D01*
X-8247000Y58295832D01*
X-8246010Y58294296D01*
G37*
G36*
X-774010Y58365283D02*
G01*
X-768552Y58309864D01*
X-752442Y58256758D01*
X-726283Y58207817D01*
X-691079Y58164921D01*
X-648183Y58129717D01*
X-599242Y58103558D01*
X-546136Y58087448D01*
X-490717Y58081990D01*
X-489091Y58080825D01*
X-489287Y58078835D01*
X-490913Y58078000D01*
X-565911Y58078000D01*
X-566107Y58078010D01*
X-611916Y58082522D01*
X-612301Y58082598D01*
X-650450Y58094170D01*
X-650812Y58094320D01*
X-685967Y58113111D01*
X-686293Y58113329D01*
X-717106Y58138617D01*
X-717383Y58138894D01*
X-742671Y58169707D01*
X-742889Y58170033D01*
X-761680Y58205188D01*
X-761830Y58205550D01*
X-773402Y58243699D01*
X-773478Y58244084D01*
X-777990Y58289893D01*
X-778000Y58290089D01*
X-778000Y58365087D01*
X-777000Y58366819D01*
X-775000Y58366819D01*
X-774010Y58365283D01*
G37*
G36*
X2200990Y58365283D02*
G01*
X2206448Y58309864D01*
X2222558Y58256758D01*
X2248717Y58207817D01*
X2283921Y58164921D01*
X2326817Y58129717D01*
X2375758Y58103558D01*
X2428864Y58087448D01*
X2484283Y58081990D01*
X2485909Y58080825D01*
X2485713Y58078835D01*
X2484087Y58078000D01*
X2409089Y58078000D01*
X2408893Y58078010D01*
X2363084Y58082522D01*
X2362699Y58082598D01*
X2324550Y58094170D01*
X2324188Y58094320D01*
X2289033Y58113111D01*
X2288707Y58113329D01*
X2257894Y58138617D01*
X2257617Y58138894D01*
X2232329Y58169707D01*
X2232111Y58170033D01*
X2213320Y58205188D01*
X2213170Y58205550D01*
X2201598Y58243699D01*
X2201522Y58244084D01*
X2197010Y58289893D01*
X2197000Y58290089D01*
X2197000Y58365087D01*
X2198000Y58366819D01*
X2200000Y58366819D01*
X2200990Y58365283D01*
G37*
G36*
X850165Y58366713D02*
G01*
X851000Y58365087D01*
X851000Y58290089D01*
X850990Y58289893D01*
X846478Y58244084D01*
X846402Y58243699D01*
X834830Y58205550D01*
X834680Y58205188D01*
X815889Y58170033D01*
X815671Y58169707D01*
X790383Y58138894D01*
X790106Y58138617D01*
X759293Y58113329D01*
X758967Y58113111D01*
X723812Y58094320D01*
X723450Y58094170D01*
X685301Y58082598D01*
X684916Y58082522D01*
X639107Y58078010D01*
X638911Y58078000D01*
X563913Y58078000D01*
X562181Y58079000D01*
X562181Y58081000D01*
X563717Y58081990D01*
X619136Y58087448D01*
X672242Y58103558D01*
X721183Y58129717D01*
X764079Y58164921D01*
X799283Y58207817D01*
X825442Y58256758D01*
X841552Y58309864D01*
X847010Y58365283D01*
X848175Y58366909D01*
X850165Y58366713D01*
G37*
G36*
X3825165Y58366713D02*
G01*
X3826000Y58365087D01*
X3826000Y58290089D01*
X3825990Y58289893D01*
X3821478Y58244084D01*
X3821402Y58243699D01*
X3809830Y58205550D01*
X3809680Y58205188D01*
X3790889Y58170033D01*
X3790671Y58169707D01*
X3765383Y58138894D01*
X3765106Y58138617D01*
X3734293Y58113329D01*
X3733967Y58113111D01*
X3698812Y58094320D01*
X3698450Y58094170D01*
X3660301Y58082598D01*
X3659916Y58082522D01*
X3614107Y58078010D01*
X3613911Y58078000D01*
X3538913Y58078000D01*
X3537181Y58079000D01*
X3537181Y58081000D01*
X3538717Y58081990D01*
X3594136Y58087448D01*
X3647242Y58103558D01*
X3696183Y58129717D01*
X3739079Y58164921D01*
X3774283Y58207817D01*
X3800442Y58256758D01*
X3816552Y58309864D01*
X3822010Y58365283D01*
X3823175Y58366909D01*
X3825165Y58366713D01*
G37*
G36*
X2485819Y60031000D02*
G01*
X2485819Y60029000D01*
X2484283Y60028010D01*
X2428864Y60022552D01*
X2375758Y60006442D01*
X2326817Y59980283D01*
X2283921Y59945079D01*
X2248717Y59902183D01*
X2222558Y59853242D01*
X2206448Y59800136D01*
X2200990Y59744717D01*
X2199825Y59743091D01*
X2197835Y59743287D01*
X2197000Y59744913D01*
X2197000Y59819911D01*
X2197010Y59820107D01*
X2201522Y59865916D01*
X2201598Y59866301D01*
X2213170Y59904450D01*
X2213320Y59904812D01*
X2232111Y59939967D01*
X2232329Y59940293D01*
X2257617Y59971106D01*
X2257894Y59971383D01*
X2288707Y59996671D01*
X2289033Y59996889D01*
X2324188Y60015680D01*
X2324550Y60015830D01*
X2362699Y60027402D01*
X2363084Y60027478D01*
X2408893Y60031990D01*
X2409089Y60032000D01*
X2484087Y60032000D01*
X2485819Y60031000D01*
G37*
G36*
X-489181Y60031000D02*
G01*
X-489181Y60029000D01*
X-490717Y60028010D01*
X-546136Y60022552D01*
X-599242Y60006442D01*
X-648183Y59980283D01*
X-691079Y59945079D01*
X-726283Y59902183D01*
X-752442Y59853242D01*
X-768552Y59800136D01*
X-774010Y59744717D01*
X-775175Y59743091D01*
X-777165Y59743287D01*
X-778000Y59744913D01*
X-778000Y59819911D01*
X-777990Y59820107D01*
X-773478Y59865916D01*
X-773402Y59866301D01*
X-761830Y59904450D01*
X-761680Y59904812D01*
X-742889Y59939967D01*
X-742671Y59940293D01*
X-717383Y59971106D01*
X-717106Y59971383D01*
X-686293Y59996671D01*
X-685967Y59996889D01*
X-650812Y60015680D01*
X-650450Y60015830D01*
X-612301Y60027402D01*
X-611916Y60027478D01*
X-566107Y60031990D01*
X-565911Y60032000D01*
X-490913Y60032000D01*
X-489181Y60031000D01*
G37*
G36*
X639107Y60031990D02*
G01*
X684916Y60027478D01*
X685301Y60027402D01*
X723450Y60015830D01*
X723812Y60015680D01*
X758967Y59996889D01*
X759293Y59996671D01*
X790106Y59971383D01*
X790383Y59971106D01*
X815671Y59940293D01*
X815889Y59939967D01*
X834680Y59904812D01*
X834830Y59904450D01*
X846402Y59866301D01*
X846478Y59865916D01*
X850990Y59820107D01*
X851000Y59819911D01*
X851000Y59744913D01*
X850000Y59743181D01*
X848000Y59743181D01*
X847010Y59744717D01*
X841552Y59800136D01*
X825442Y59853242D01*
X799283Y59902183D01*
X764079Y59945079D01*
X721183Y59980283D01*
X672242Y60006442D01*
X619136Y60022552D01*
X563717Y60028010D01*
X562091Y60029175D01*
X562287Y60031165D01*
X563913Y60032000D01*
X638911Y60032000D01*
X639107Y60031990D01*
G37*
G36*
X3614107Y60031990D02*
G01*
X3659916Y60027478D01*
X3660301Y60027402D01*
X3698450Y60015830D01*
X3698812Y60015680D01*
X3733967Y59996889D01*
X3734293Y59996671D01*
X3765106Y59971383D01*
X3765383Y59971106D01*
X3790671Y59940293D01*
X3790889Y59939967D01*
X3809680Y59904812D01*
X3809830Y59904450D01*
X3821402Y59866301D01*
X3821478Y59865916D01*
X3825990Y59820107D01*
X3826000Y59819911D01*
X3826000Y59744913D01*
X3825000Y59743181D01*
X3823000Y59743181D01*
X3822010Y59744717D01*
X3816552Y59800136D01*
X3800442Y59853242D01*
X3774283Y59902183D01*
X3739079Y59945079D01*
X3696183Y59980283D01*
X3647242Y60006442D01*
X3594136Y60022552D01*
X3538717Y60028010D01*
X3537091Y60029175D01*
X3537287Y60031165D01*
X3538913Y60032000D01*
X3613911Y60032000D01*
X3614107Y60031990D01*
G37*
G36*
X-7321268Y61070100D02*
G01*
X-7321268Y61068100D01*
X-7322804Y61067110D01*
X-7503064Y61049356D01*
X-7676213Y60996832D01*
X-7835786Y60911538D01*
X-7975653Y60796753D01*
X-8090438Y60656886D01*
X-8175732Y60497313D01*
X-8228256Y60324164D01*
X-8246010Y60143904D01*
X-8247175Y60142278D01*
X-8249165Y60142474D01*
X-8250000Y60144100D01*
X-8250000Y60200460D01*
X-8249990Y60200656D01*
X-8232824Y60374941D01*
X-8232748Y60375326D01*
X-8183700Y60537017D01*
X-8183550Y60537379D01*
X-8103906Y60686382D01*
X-8103688Y60686708D01*
X-7996497Y60817320D01*
X-7996220Y60817597D01*
X-7865608Y60924788D01*
X-7865282Y60925006D01*
X-7716279Y61004650D01*
X-7715917Y61004800D01*
X-7554226Y61053848D01*
X-7553841Y61053924D01*
X-7379556Y61071090D01*
X-7379360Y61071100D01*
X-7323000Y61071100D01*
X-7321268Y61070100D01*
G37*
G36*
X-5416444Y61071090D02*
G01*
X-5242159Y61053924D01*
X-5241774Y61053848D01*
X-5080083Y61004800D01*
X-5079721Y61004650D01*
X-4930718Y60925006D01*
X-4930392Y60924788D01*
X-4799780Y60817597D01*
X-4799503Y60817320D01*
X-4692312Y60686708D01*
X-4692094Y60686382D01*
X-4612450Y60537379D01*
X-4612300Y60537017D01*
X-4563252Y60375326D01*
X-4563176Y60374941D01*
X-4546010Y60200656D01*
X-4546000Y60200460D01*
X-4546000Y60144100D01*
X-4547000Y60142368D01*
X-4549000Y60142368D01*
X-4549990Y60143904D01*
X-4567744Y60324164D01*
X-4620268Y60497313D01*
X-4705562Y60656886D01*
X-4820347Y60796753D01*
X-4960214Y60911538D01*
X-5119787Y60996832D01*
X-5292936Y61049356D01*
X-5473196Y61067110D01*
X-5474822Y61068275D01*
X-5474626Y61070265D01*
X-5473000Y61071100D01*
X-5416640Y61071100D01*
X-5416444Y61071090D01*
G37*
G36*
X-10996010Y62869296D02*
G01*
X-10980658Y62713423D01*
X-10935247Y62563722D01*
X-10861505Y62425760D01*
X-10762264Y62304836D01*
X-10641340Y62205595D01*
X-10503378Y62131853D01*
X-10353677Y62086442D01*
X-10197804Y62071090D01*
X-10196178Y62069925D01*
X-10196374Y62067935D01*
X-10198000Y62067100D01*
X-10254360Y62067100D01*
X-10254556Y62067110D01*
X-10404455Y62081874D01*
X-10404840Y62081950D01*
X-10543082Y62123885D01*
X-10543444Y62124035D01*
X-10670840Y62192129D01*
X-10671166Y62192347D01*
X-10782833Y62283990D01*
X-10783110Y62284267D01*
X-10874753Y62395934D01*
X-10874971Y62396260D01*
X-10943065Y62523656D01*
X-10943215Y62524018D01*
X-10985150Y62662260D01*
X-10985226Y62662645D01*
X-10999990Y62812544D01*
X-11000000Y62812740D01*
X-11000000Y62869100D01*
X-10999000Y62870832D01*
X-10997000Y62870832D01*
X-10996010Y62869296D01*
G37*
G36*
X-7796835Y62870726D02*
G01*
X-7796000Y62869100D01*
X-7796000Y62812740D01*
X-7796010Y62812544D01*
X-7810774Y62662645D01*
X-7810850Y62662260D01*
X-7852785Y62524018D01*
X-7852935Y62523656D01*
X-7921029Y62396260D01*
X-7921247Y62395934D01*
X-8012890Y62284267D01*
X-8013167Y62283990D01*
X-8124834Y62192347D01*
X-8125160Y62192129D01*
X-8252556Y62124035D01*
X-8252918Y62123885D01*
X-8391160Y62081950D01*
X-8391545Y62081874D01*
X-8541444Y62067110D01*
X-8541640Y62067100D01*
X-8598000Y62067100D01*
X-8599732Y62068100D01*
X-8599732Y62070100D01*
X-8598196Y62071090D01*
X-8442323Y62086442D01*
X-8292622Y62131853D01*
X-8154660Y62205595D01*
X-8033736Y62304836D01*
X-7934495Y62425760D01*
X-7860753Y62563722D01*
X-7815342Y62713423D01*
X-7799990Y62869296D01*
X-7798825Y62870922D01*
X-7796835Y62870726D01*
G37*
G36*
X22309732Y64669000D02*
G01*
X22310000Y64668000D01*
X22310000Y62468000D01*
X22309000Y62466268D01*
X22308000Y62466000D01*
X22208000Y62466000D01*
X22206268Y62467000D01*
X22206000Y62468000D01*
X22206000Y64668000D01*
X22207000Y64669732D01*
X22208000Y64670000D01*
X22308000Y64670000D01*
X22309732Y64669000D01*
G37*
G36*
X23259732Y64669000D02*
G01*
X23260000Y64668000D01*
X23260000Y62468000D01*
X23259000Y62466268D01*
X23258000Y62466000D01*
X23158000Y62466000D01*
X23156268Y62467000D01*
X23156000Y62468000D01*
X23156000Y64668000D01*
X23157000Y64669732D01*
X23158000Y64670000D01*
X23258000Y64670000D01*
X23259732Y64669000D01*
G37*
G36*
X-10196268Y65770100D02*
G01*
X-10196268Y65768100D01*
X-10197804Y65767110D01*
X-10353677Y65751758D01*
X-10503378Y65706347D01*
X-10641340Y65632605D01*
X-10762264Y65533364D01*
X-10861505Y65412440D01*
X-10935247Y65274478D01*
X-10980658Y65124777D01*
X-10996010Y64968904D01*
X-10997175Y64967278D01*
X-10999165Y64967474D01*
X-11000000Y64969100D01*
X-11000000Y65025460D01*
X-10999990Y65025656D01*
X-10985226Y65175555D01*
X-10985150Y65175940D01*
X-10943215Y65314182D01*
X-10943065Y65314544D01*
X-10874971Y65441940D01*
X-10874753Y65442266D01*
X-10783110Y65553933D01*
X-10782833Y65554210D01*
X-10671166Y65645853D01*
X-10670840Y65646071D01*
X-10543444Y65714165D01*
X-10543082Y65714315D01*
X-10404840Y65756250D01*
X-10404455Y65756326D01*
X-10254556Y65771090D01*
X-10254360Y65771100D01*
X-10198000Y65771100D01*
X-10196268Y65770100D01*
G37*
G36*
X-8541444Y65771090D02*
G01*
X-8391545Y65756326D01*
X-8391160Y65756250D01*
X-8252918Y65714315D01*
X-8252556Y65714165D01*
X-8125160Y65646071D01*
X-8124834Y65645853D01*
X-8013167Y65554210D01*
X-8012890Y65553933D01*
X-7921247Y65442266D01*
X-7921029Y65441940D01*
X-7852935Y65314544D01*
X-7852785Y65314182D01*
X-7810850Y65175940D01*
X-7810774Y65175555D01*
X-7796010Y65025656D01*
X-7796000Y65025460D01*
X-7796000Y64969100D01*
X-7797000Y64967368D01*
X-7799000Y64967368D01*
X-7799990Y64968904D01*
X-7815342Y65124777D01*
X-7860753Y65274478D01*
X-7934495Y65412440D01*
X-8033736Y65533364D01*
X-8154660Y65632605D01*
X-8292622Y65706347D01*
X-8442323Y65751758D01*
X-8598196Y65767110D01*
X-8599822Y65768275D01*
X-8599626Y65770265D01*
X-8598000Y65771100D01*
X-8541640Y65771100D01*
X-8541444Y65771090D01*
G37*
G36*
X21565811Y68298056D02*
G01*
X21591517Y68272350D01*
X21656388Y68229004D01*
X21728468Y68199148D01*
X21804992Y68183926D01*
X21883008Y68183926D01*
X21959532Y68199148D01*
X22031612Y68229004D01*
X22096483Y68272350D01*
X22122189Y68298056D01*
X22124121Y68298574D01*
X22125535Y68297160D01*
X22125149Y68295373D01*
X22113623Y68281329D01*
X22102258Y68260065D01*
X22095258Y68236990D01*
X22092895Y68212999D01*
X22095258Y68189008D01*
X22102258Y68165933D01*
X22113623Y68144669D01*
X22128918Y68126032D01*
X22147555Y68110737D01*
X22168819Y68099372D01*
X22191894Y68092372D01*
X22215979Y68090000D01*
X22308000Y68090000D01*
X22309732Y68089000D01*
X22310000Y68088000D01*
X22310000Y65888000D01*
X22309000Y65886268D01*
X22308000Y65886000D01*
X22208000Y65886000D01*
X22206268Y65887000D01*
X22206000Y65888000D01*
X22206000Y68086000D01*
X21472115Y68086000D01*
X21470383Y68087000D01*
X21470383Y68089000D01*
X21471919Y68089990D01*
X21496106Y68092372D01*
X21519181Y68099372D01*
X21540445Y68110737D01*
X21559082Y68126032D01*
X21574377Y68144669D01*
X21585742Y68165933D01*
X21592742Y68189008D01*
X21595105Y68212999D01*
X21592742Y68236990D01*
X21585742Y68260065D01*
X21574377Y68281329D01*
X21562851Y68295373D01*
X21562525Y68297347D01*
X21564071Y68298615D01*
X21565811Y68298056D01*
G37*
G36*
X23259732Y68089000D02*
G01*
X23260000Y68088000D01*
X23260000Y65888000D01*
X23259000Y65886268D01*
X23258000Y65886000D01*
X23158000Y65886000D01*
X23156268Y65887000D01*
X23156000Y65888000D01*
X23156000Y68088000D01*
X23157000Y68089732D01*
X23158000Y68090000D01*
X23258000Y68090000D01*
X23259732Y68089000D01*
G37*
G36*
X22434165Y69350404D02*
G01*
X22435000Y69348778D01*
X22435000Y69290894D01*
X22434990Y69290698D01*
X22429886Y69238877D01*
X22429810Y69238492D01*
X22416485Y69194565D01*
X22416335Y69194203D01*
X22394699Y69153725D01*
X22394481Y69153399D01*
X22365361Y69117916D01*
X22365084Y69117639D01*
X22329601Y69088519D01*
X22329275Y69088301D01*
X22288797Y69066665D01*
X22288435Y69066515D01*
X22244508Y69053190D01*
X22244123Y69053114D01*
X22222378Y69050972D01*
X22198626Y69046247D01*
X22176352Y69037021D01*
X22156305Y69023626D01*
X22139258Y69006578D01*
X22125864Y68986531D01*
X22116638Y68964257D01*
X22111934Y68940606D01*
X22111934Y68916500D01*
X22116639Y68892850D01*
X22125846Y68870620D01*
X22145106Y68844652D01*
X22145335Y68842666D01*
X22143729Y68841474D01*
X22142086Y68842047D01*
X22096483Y68887650D01*
X22031612Y68930996D01*
X21959532Y68960852D01*
X21883008Y68976074D01*
X21804992Y68976074D01*
X21728468Y68960852D01*
X21656388Y68930996D01*
X21591517Y68887650D01*
X21543811Y68839944D01*
X21541879Y68839426D01*
X21540465Y68840840D01*
X21540851Y68842627D01*
X21552377Y68856671D01*
X21563742Y68877935D01*
X21570742Y68901010D01*
X21573105Y68925001D01*
X21570742Y68948992D01*
X21563742Y68972067D01*
X21552377Y68993331D01*
X21537082Y69011968D01*
X21518445Y69027263D01*
X21497181Y69038628D01*
X21474106Y69045628D01*
X21450021Y69048000D01*
X21448894Y69048000D01*
X21448698Y69048010D01*
X21396877Y69053114D01*
X21396492Y69053190D01*
X21352565Y69066515D01*
X21352203Y69066665D01*
X21311725Y69088301D01*
X21311399Y69088519D01*
X21275916Y69117639D01*
X21275639Y69117916D01*
X21246519Y69153399D01*
X21246301Y69153725D01*
X21224665Y69194203D01*
X21224515Y69194565D01*
X21211190Y69238492D01*
X21211114Y69238877D01*
X21206010Y69290698D01*
X21206000Y69290894D01*
X21206000Y69348778D01*
X21207000Y69350510D01*
X21209000Y69350510D01*
X21209990Y69348974D01*
X21215711Y69290884D01*
X21232600Y69235210D01*
X21260024Y69183902D01*
X21296931Y69138931D01*
X21341902Y69102024D01*
X21393210Y69074600D01*
X21448884Y69057711D01*
X21506872Y69052000D01*
X22134128Y69052000D01*
X22192116Y69057711D01*
X22247790Y69074600D01*
X22299098Y69102024D01*
X22344069Y69138931D01*
X22380976Y69183902D01*
X22408400Y69235210D01*
X22425289Y69290884D01*
X22431010Y69348974D01*
X22432175Y69350600D01*
X22434165Y69350404D01*
G37*
G36*
X22017738Y70889174D02*
G01*
X22018503Y70887326D01*
X22017463Y70885823D01*
X22001442Y70877261D01*
X21982805Y70861966D01*
X21967510Y70843329D01*
X21956145Y70822065D01*
X21949145Y70798990D01*
X21946782Y70774999D01*
X21949145Y70751008D01*
X21956145Y70727933D01*
X21967510Y70706669D01*
X21982805Y70688032D01*
X22001442Y70672737D01*
X22022706Y70661372D01*
X22045781Y70654372D01*
X22069968Y70651990D01*
X22071594Y70650825D01*
X22071398Y70648835D01*
X22069772Y70648000D01*
X21618228Y70648000D01*
X21616496Y70649000D01*
X21616496Y70651000D01*
X21618032Y70651990D01*
X21642219Y70654372D01*
X21665294Y70661372D01*
X21686558Y70672737D01*
X21705195Y70688032D01*
X21720490Y70706669D01*
X21731855Y70727933D01*
X21738855Y70751008D01*
X21741218Y70774999D01*
X21738855Y70798990D01*
X21731855Y70822065D01*
X21720490Y70843329D01*
X21705195Y70861966D01*
X21686558Y70877261D01*
X21670537Y70885823D01*
X21669481Y70887521D01*
X21670424Y70889285D01*
X21672245Y70889435D01*
X21728468Y70866148D01*
X21804992Y70850926D01*
X21883008Y70850926D01*
X21959532Y70866148D01*
X22015755Y70889435D01*
X22017738Y70889174D01*
G37*
M02*
