G04 #@! TF.GenerationSoftware,KiCad,Pcbnew,(5.1.9)-1*
G04 #@! TF.CreationDate,2021-09-22T10:06:10+01:00*
G04 #@! TF.ProjectId,Amiga DF0 DF1 Switcher - Design A - Rev 2,416d6967-6120-4444-9630-204446312053,2*
G04 #@! TF.SameCoordinates,Original*
G04 #@! TF.FileFunction,Legend,Bot*
G04 #@! TF.FilePolarity,Positive*
%FSLAX46Y46*%
G04 Gerber Fmt 4.6, Leading zero omitted, Abs format (unit mm)*
G04 Created by KiCad (PCBNEW (5.1.9)-1) date 2021-09-22 10:06:10*
%MOMM*%
%LPD*%
G01*
G04 APERTURE LIST*
%ADD10C,0.125000*%
%ADD11C,0.120000*%
%ADD12C,0.150000*%
G04 APERTURE END LIST*
D10*
X136751142Y-126081285D02*
X136286857Y-126081285D01*
X136536857Y-126367000D01*
X136429714Y-126367000D01*
X136358285Y-126402714D01*
X136322571Y-126438428D01*
X136286857Y-126509857D01*
X136286857Y-126688428D01*
X136322571Y-126759857D01*
X136358285Y-126795571D01*
X136429714Y-126831285D01*
X136644000Y-126831285D01*
X136715428Y-126795571D01*
X136751142Y-126759857D01*
X135644000Y-126331285D02*
X135644000Y-126831285D01*
X135822571Y-126045571D02*
X136001142Y-126581285D01*
X135536857Y-126581285D01*
X136751142Y-133701285D02*
X136286857Y-133701285D01*
X136536857Y-133987000D01*
X136429714Y-133987000D01*
X136358285Y-134022714D01*
X136322571Y-134058428D01*
X136286857Y-134129857D01*
X136286857Y-134308428D01*
X136322571Y-134379857D01*
X136358285Y-134415571D01*
X136429714Y-134451285D01*
X136644000Y-134451285D01*
X136715428Y-134415571D01*
X136751142Y-134379857D01*
X135644000Y-133951285D02*
X135644000Y-134451285D01*
X135822571Y-133665571D02*
X136001142Y-134201285D01*
X135536857Y-134201285D01*
X179292285Y-128595380D02*
X179863714Y-128595380D01*
X179578000Y-128595380D02*
X179578000Y-127595380D01*
X179673238Y-127738238D01*
X179768476Y-127833476D01*
X179863714Y-127881095D01*
X179292285Y-121102380D02*
X179863714Y-121102380D01*
X179578000Y-121102380D02*
X179578000Y-120102380D01*
X179673238Y-120245238D01*
X179768476Y-120340476D01*
X179863714Y-120388095D01*
X174680476Y-126341142D02*
X174728095Y-126388761D01*
X174870952Y-126436380D01*
X174966190Y-126436380D01*
X175109047Y-126388761D01*
X175204285Y-126293523D01*
X175251904Y-126198285D01*
X175299523Y-126007809D01*
X175299523Y-125864952D01*
X175251904Y-125674476D01*
X175204285Y-125579238D01*
X175109047Y-125484000D01*
X174966190Y-125436380D01*
X174870952Y-125436380D01*
X174728095Y-125484000D01*
X174680476Y-125531619D01*
X174251904Y-126436380D02*
X174251904Y-125436380D01*
X173680476Y-126436380D01*
X173680476Y-125436380D01*
X173251904Y-125531619D02*
X173204285Y-125484000D01*
X173109047Y-125436380D01*
X172870952Y-125436380D01*
X172775714Y-125484000D01*
X172728095Y-125531619D01*
X172680476Y-125626857D01*
X172680476Y-125722095D01*
X172728095Y-125864952D01*
X173299523Y-126436380D01*
X172680476Y-126436380D01*
X174680476Y-134723142D02*
X174728095Y-134770761D01*
X174870952Y-134818380D01*
X174966190Y-134818380D01*
X175109047Y-134770761D01*
X175204285Y-134675523D01*
X175251904Y-134580285D01*
X175299523Y-134389809D01*
X175299523Y-134246952D01*
X175251904Y-134056476D01*
X175204285Y-133961238D01*
X175109047Y-133866000D01*
X174966190Y-133818380D01*
X174870952Y-133818380D01*
X174728095Y-133866000D01*
X174680476Y-133913619D01*
X174251904Y-134818380D02*
X174251904Y-133818380D01*
X173680476Y-134818380D01*
X173680476Y-133818380D01*
X172680476Y-134818380D02*
X173251904Y-134818380D01*
X172966190Y-134818380D02*
X172966190Y-133818380D01*
X173061428Y-133961238D01*
X173156666Y-134056476D01*
X173251904Y-134104095D01*
X179546285Y-136342380D02*
X180117714Y-136342380D01*
X179832000Y-136342380D02*
X179832000Y-135342380D01*
X179927238Y-135485238D01*
X180022476Y-135580476D01*
X180117714Y-135628095D01*
X136243142Y-140686285D02*
X135778857Y-140686285D01*
X136028857Y-140972000D01*
X135921714Y-140972000D01*
X135850285Y-141007714D01*
X135814571Y-141043428D01*
X135778857Y-141114857D01*
X135778857Y-141293428D01*
X135814571Y-141364857D01*
X135850285Y-141400571D01*
X135921714Y-141436285D01*
X136136000Y-141436285D01*
X136207428Y-141400571D01*
X136243142Y-141364857D01*
X135136000Y-140936285D02*
X135136000Y-141436285D01*
X135314571Y-140650571D02*
X135493142Y-141186285D01*
X135028857Y-141186285D01*
D11*
X179130000Y-137350500D02*
X179130000Y-136020500D01*
X179130000Y-136020500D02*
X177800000Y-136020500D01*
X179130000Y-138620500D02*
X176530000Y-138620500D01*
X176530000Y-138620500D02*
X176530000Y-136020500D01*
X176530000Y-136020500D02*
X135830000Y-136020500D01*
X135830000Y-141220500D02*
X135830000Y-136020500D01*
X179130000Y-141220500D02*
X135830000Y-141220500D01*
X179130000Y-141220500D02*
X179130000Y-138620500D01*
D12*
X180443142Y-137993523D02*
X180490761Y-137945904D01*
X180538380Y-137803047D01*
X180538380Y-137707809D01*
X180490761Y-137564952D01*
X180395523Y-137469714D01*
X180300285Y-137422095D01*
X180109809Y-137374476D01*
X179966952Y-137374476D01*
X179776476Y-137422095D01*
X179681238Y-137469714D01*
X179586000Y-137564952D01*
X179538380Y-137707809D01*
X179538380Y-137803047D01*
X179586000Y-137945904D01*
X179633619Y-137993523D01*
X180538380Y-138422095D02*
X179538380Y-138422095D01*
X180538380Y-138993523D01*
X179538380Y-138993523D01*
X179538380Y-139660190D02*
X179538380Y-139755428D01*
X179586000Y-139850666D01*
X179633619Y-139898285D01*
X179728857Y-139945904D01*
X179919333Y-139993523D01*
X180157428Y-139993523D01*
X180347904Y-139945904D01*
X180443142Y-139898285D01*
X180490761Y-139850666D01*
X180538380Y-139755428D01*
X180538380Y-139660190D01*
X180490761Y-139564952D01*
X180443142Y-139517333D01*
X180347904Y-139469714D01*
X180157428Y-139422095D01*
X179919333Y-139422095D01*
X179728857Y-139469714D01*
X179633619Y-139517333D01*
X179586000Y-139564952D01*
X179538380Y-139660190D01*
M02*
