M48
; DRILL file {KiCad (5.1.9)-1} date 09/22/21 10:06:08
; FORMAT={-:-/ absolute / inch / decimal}
; #@! TF.CreationDate,2021-09-22T10:06:08+01:00
; #@! TF.GenerationSoftware,Kicad,Pcbnew,(5.1.9)-1
; #@! TF.FileFunction,Plated,1,2,PTH
FMAT,2
INCH
T1C0.0394
%
G90
G05
T1
X5.2Y-5.66
X5.2Y-5.76
X5.2Y-5.86
X5.2Y-5.96
X5.4Y-4.775
X5.4Y-4.875
X5.4Y-5.1
X5.4Y-5.2
X5.4Y-5.4075
X5.4Y-5.5075
X5.5Y-4.775
X5.5Y-4.875
X5.5Y-5.1
X5.5Y-5.2
X5.5Y-5.4075
X5.5Y-5.5075
X5.6Y-4.775
X5.6Y-4.875
X5.6Y-5.1
X5.6Y-5.2
X5.6Y-5.4075
X5.6Y-5.5075
X5.6Y-5.76
X5.7Y-4.775
X5.7Y-4.875
X5.7Y-5.1
X5.7Y-5.2
X5.7Y-5.4075
X5.7Y-5.5075
X5.7Y-5.76
X5.8Y-4.775
X5.8Y-4.875
X5.8Y-5.1
X5.8Y-5.2
X5.8Y-5.4075
X5.8Y-5.5075
X5.8Y-5.76
X5.9Y-4.775
X5.9Y-4.875
X5.9Y-5.1
X5.9Y-5.2
X5.9Y-5.4075
X5.9Y-5.5075
X5.9Y-5.76
X6.0Y-4.775
X6.0Y-4.875
X6.0Y-5.1
X6.0Y-5.2
X6.0Y-5.4075
X6.0Y-5.5075
X6.1Y-4.775
X6.1Y-4.875
X6.1Y-5.1
X6.1Y-5.2
X6.1Y-5.4075
X6.1Y-5.5075
X6.2Y-4.775
X6.2Y-4.875
X6.2Y-5.1
X6.2Y-5.2
X6.2Y-5.4075
X6.2Y-5.5075
X6.2Y-5.76
X6.2Y-5.95
X6.3Y-4.775
X6.3Y-4.875
X6.3Y-5.1
X6.3Y-5.2
X6.3Y-5.4075
X6.3Y-5.5075
X6.3Y-5.76
X6.3Y-5.95
X6.4Y-4.775
X6.4Y-4.875
X6.4Y-5.1
X6.4Y-5.2
X6.4Y-5.4075
X6.4Y-5.5075
X6.4Y-5.76
X6.4Y-5.95
X6.5Y-4.775
X6.5Y-4.875
X6.5Y-5.1
X6.5Y-5.2
X6.5Y-5.4075
X6.5Y-5.5075
X6.5Y-5.76
X6.5Y-5.95
X6.6Y-4.775
X6.6Y-4.875
X6.6Y-5.1
X6.6Y-5.2
X6.6Y-5.4075
X6.6Y-5.5075
X6.7Y-4.775
X6.7Y-4.875
X6.7Y-5.1
X6.7Y-5.2
X6.7Y-5.4075
X6.7Y-5.5075
X6.8Y-4.775
X6.8Y-4.875
X6.8Y-5.1
X6.8Y-5.2
X6.8Y-5.4075
X6.8Y-5.5075
X6.9Y-4.775
X6.9Y-4.875
X6.9Y-5.1
X6.9Y-5.2
X6.9Y-5.4075
X6.9Y-5.5075
X7.0Y-4.775
X7.0Y-4.875
X7.0Y-5.1
X7.0Y-5.2
X7.0Y-5.4075
X7.0Y-5.5075
X7.0Y-5.775
X7.0Y-5.875
X7.21Y-4.9
X7.21Y-5.0
X7.21Y-5.1
X7.31Y-4.9
X7.31Y-5.0
X7.31Y-5.1
T0
M30
