G04 #@! TF.GenerationSoftware,KiCad,Pcbnew,(5.1.9)-1*
G04 #@! TF.CreationDate,2021-09-22T10:06:10+01:00*
G04 #@! TF.ProjectId,Amiga DF0 DF1 Switcher - Design A - Rev 2,416d6967-6120-4444-9630-204446312053,2*
G04 #@! TF.SameCoordinates,Original*
G04 #@! TF.FileFunction,Legend,Top*
G04 #@! TF.FilePolarity,Positive*
%FSLAX46Y46*%
G04 Gerber Fmt 4.6, Leading zero omitted, Abs format (unit mm)*
G04 Created by KiCad (PCBNEW (5.1.9)-1) date 2021-09-22 10:06:10*
%MOMM*%
%LPD*%
G01*
G04 APERTURE LIST*
%ADD10C,0.125000*%
%ADD11C,0.120000*%
%ADD12C,0.100000*%
%ADD13C,0.075000*%
%ADD14C,0.150000*%
G04 APERTURE END LIST*
D10*
X153184357Y-134479071D02*
X153291500Y-134514785D01*
X153470071Y-134514785D01*
X153541500Y-134479071D01*
X153577214Y-134443357D01*
X153612928Y-134371928D01*
X153612928Y-134300500D01*
X153577214Y-134229071D01*
X153541500Y-134193357D01*
X153470071Y-134157642D01*
X153327214Y-134121928D01*
X153255785Y-134086214D01*
X153220071Y-134050500D01*
X153184357Y-133979071D01*
X153184357Y-133907642D01*
X153220071Y-133836214D01*
X153255785Y-133800500D01*
X153327214Y-133764785D01*
X153505785Y-133764785D01*
X153612928Y-133800500D01*
X154220071Y-134479071D02*
X154148642Y-134514785D01*
X154005785Y-134514785D01*
X153934357Y-134479071D01*
X153898642Y-134407642D01*
X153898642Y-134121928D01*
X153934357Y-134050500D01*
X154005785Y-134014785D01*
X154148642Y-134014785D01*
X154220071Y-134050500D01*
X154255785Y-134121928D01*
X154255785Y-134193357D01*
X153898642Y-134264785D01*
X154470071Y-134014785D02*
X154755785Y-134014785D01*
X154577214Y-133764785D02*
X154577214Y-134407642D01*
X154612928Y-134479071D01*
X154684357Y-134514785D01*
X154755785Y-134514785D01*
X155898642Y-134514785D02*
X155898642Y-133764785D01*
X155898642Y-134479071D02*
X155827214Y-134514785D01*
X155684357Y-134514785D01*
X155612928Y-134479071D01*
X155577214Y-134443357D01*
X155541500Y-134371928D01*
X155541500Y-134157642D01*
X155577214Y-134086214D01*
X155612928Y-134050500D01*
X155684357Y-134014785D01*
X155827214Y-134014785D01*
X155898642Y-134050500D01*
X156255785Y-134514785D02*
X156255785Y-134014785D01*
X156255785Y-134157642D02*
X156291500Y-134086214D01*
X156327214Y-134050500D01*
X156398642Y-134014785D01*
X156470071Y-134014785D01*
X156720071Y-134514785D02*
X156720071Y-134014785D01*
X156720071Y-133764785D02*
X156684357Y-133800500D01*
X156720071Y-133836214D01*
X156755785Y-133800500D01*
X156720071Y-133764785D01*
X156720071Y-133836214D01*
X157005785Y-134014785D02*
X157184357Y-134514785D01*
X157362928Y-134014785D01*
X157934357Y-134479071D02*
X157862928Y-134514785D01*
X157720071Y-134514785D01*
X157648642Y-134479071D01*
X157612928Y-134407642D01*
X157612928Y-134121928D01*
X157648642Y-134050500D01*
X157720071Y-134014785D01*
X157862928Y-134014785D01*
X157934357Y-134050500D01*
X157970071Y-134121928D01*
X157970071Y-134193357D01*
X157612928Y-134264785D01*
X158755785Y-134014785D02*
X159041500Y-134014785D01*
X158862928Y-133764785D02*
X158862928Y-134407642D01*
X158898642Y-134479071D01*
X158970071Y-134514785D01*
X159041500Y-134514785D01*
X159398642Y-134514785D02*
X159327214Y-134479071D01*
X159291500Y-134443357D01*
X159255785Y-134371928D01*
X159255785Y-134157642D01*
X159291500Y-134086214D01*
X159327214Y-134050500D01*
X159398642Y-134014785D01*
X159505785Y-134014785D01*
X159577214Y-134050500D01*
X159612928Y-134086214D01*
X159648642Y-134157642D01*
X159648642Y-134371928D01*
X159612928Y-134443357D01*
X159577214Y-134479071D01*
X159505785Y-134514785D01*
X159398642Y-134514785D01*
X160505785Y-134479071D02*
X160612928Y-134514785D01*
X160791500Y-134514785D01*
X160862928Y-134479071D01*
X160898642Y-134443357D01*
X160934357Y-134371928D01*
X160934357Y-134300500D01*
X160898642Y-134229071D01*
X160862928Y-134193357D01*
X160791500Y-134157642D01*
X160648642Y-134121928D01*
X160577214Y-134086214D01*
X160541500Y-134050500D01*
X160505785Y-133979071D01*
X160505785Y-133907642D01*
X160541500Y-133836214D01*
X160577214Y-133800500D01*
X160648642Y-133764785D01*
X160827214Y-133764785D01*
X160934357Y-133800500D01*
X161398642Y-133764785D02*
X161470071Y-133764785D01*
X161541500Y-133800500D01*
X161577214Y-133836214D01*
X161612928Y-133907642D01*
X161648642Y-134050500D01*
X161648642Y-134229071D01*
X161612928Y-134371928D01*
X161577214Y-134443357D01*
X161541500Y-134479071D01*
X161470071Y-134514785D01*
X161398642Y-134514785D01*
X161327214Y-134479071D01*
X161291500Y-134443357D01*
X161255785Y-134371928D01*
X161220071Y-134229071D01*
X161220071Y-134050500D01*
X161255785Y-133907642D01*
X161291500Y-133836214D01*
X161327214Y-133800500D01*
X161398642Y-133764785D01*
X153247857Y-126287571D02*
X153355000Y-126323285D01*
X153533571Y-126323285D01*
X153605000Y-126287571D01*
X153640714Y-126251857D01*
X153676428Y-126180428D01*
X153676428Y-126109000D01*
X153640714Y-126037571D01*
X153605000Y-126001857D01*
X153533571Y-125966142D01*
X153390714Y-125930428D01*
X153319285Y-125894714D01*
X153283571Y-125859000D01*
X153247857Y-125787571D01*
X153247857Y-125716142D01*
X153283571Y-125644714D01*
X153319285Y-125609000D01*
X153390714Y-125573285D01*
X153569285Y-125573285D01*
X153676428Y-125609000D01*
X154283571Y-126287571D02*
X154212142Y-126323285D01*
X154069285Y-126323285D01*
X153997857Y-126287571D01*
X153962142Y-126216142D01*
X153962142Y-125930428D01*
X153997857Y-125859000D01*
X154069285Y-125823285D01*
X154212142Y-125823285D01*
X154283571Y-125859000D01*
X154319285Y-125930428D01*
X154319285Y-126001857D01*
X153962142Y-126073285D01*
X154533571Y-125823285D02*
X154819285Y-125823285D01*
X154640714Y-125573285D02*
X154640714Y-126216142D01*
X154676428Y-126287571D01*
X154747857Y-126323285D01*
X154819285Y-126323285D01*
X155962142Y-126323285D02*
X155962142Y-125573285D01*
X155962142Y-126287571D02*
X155890714Y-126323285D01*
X155747857Y-126323285D01*
X155676428Y-126287571D01*
X155640714Y-126251857D01*
X155605000Y-126180428D01*
X155605000Y-125966142D01*
X155640714Y-125894714D01*
X155676428Y-125859000D01*
X155747857Y-125823285D01*
X155890714Y-125823285D01*
X155962142Y-125859000D01*
X156319285Y-126323285D02*
X156319285Y-125823285D01*
X156319285Y-125966142D02*
X156355000Y-125894714D01*
X156390714Y-125859000D01*
X156462142Y-125823285D01*
X156533571Y-125823285D01*
X156783571Y-126323285D02*
X156783571Y-125823285D01*
X156783571Y-125573285D02*
X156747857Y-125609000D01*
X156783571Y-125644714D01*
X156819285Y-125609000D01*
X156783571Y-125573285D01*
X156783571Y-125644714D01*
X157069285Y-125823285D02*
X157247857Y-126323285D01*
X157426428Y-125823285D01*
X157997857Y-126287571D02*
X157926428Y-126323285D01*
X157783571Y-126323285D01*
X157712142Y-126287571D01*
X157676428Y-126216142D01*
X157676428Y-125930428D01*
X157712142Y-125859000D01*
X157783571Y-125823285D01*
X157926428Y-125823285D01*
X157997857Y-125859000D01*
X158033571Y-125930428D01*
X158033571Y-126001857D01*
X157676428Y-126073285D01*
X158819285Y-125823285D02*
X159105000Y-125823285D01*
X158926428Y-125573285D02*
X158926428Y-126216142D01*
X158962142Y-126287571D01*
X159033571Y-126323285D01*
X159105000Y-126323285D01*
X159462142Y-126323285D02*
X159390714Y-126287571D01*
X159355000Y-126251857D01*
X159319285Y-126180428D01*
X159319285Y-125966142D01*
X159355000Y-125894714D01*
X159390714Y-125859000D01*
X159462142Y-125823285D01*
X159569285Y-125823285D01*
X159640714Y-125859000D01*
X159676428Y-125894714D01*
X159712142Y-125966142D01*
X159712142Y-126180428D01*
X159676428Y-126251857D01*
X159640714Y-126287571D01*
X159569285Y-126323285D01*
X159462142Y-126323285D01*
X160569285Y-126287571D02*
X160676428Y-126323285D01*
X160855000Y-126323285D01*
X160926428Y-126287571D01*
X160962142Y-126251857D01*
X160997857Y-126180428D01*
X160997857Y-126109000D01*
X160962142Y-126037571D01*
X160926428Y-126001857D01*
X160855000Y-125966142D01*
X160712142Y-125930428D01*
X160640714Y-125894714D01*
X160605000Y-125859000D01*
X160569285Y-125787571D01*
X160569285Y-125716142D01*
X160605000Y-125644714D01*
X160640714Y-125609000D01*
X160712142Y-125573285D01*
X160890714Y-125573285D01*
X160997857Y-125609000D01*
X161462142Y-125573285D02*
X161533571Y-125573285D01*
X161605000Y-125609000D01*
X161640714Y-125644714D01*
X161676428Y-125716142D01*
X161712142Y-125859000D01*
X161712142Y-126037571D01*
X161676428Y-126180428D01*
X161640714Y-126251857D01*
X161605000Y-126287571D01*
X161533571Y-126323285D01*
X161462142Y-126323285D01*
X161390714Y-126287571D01*
X161355000Y-126251857D01*
X161319285Y-126180428D01*
X161283571Y-126037571D01*
X161283571Y-125859000D01*
X161319285Y-125716142D01*
X161355000Y-125644714D01*
X161390714Y-125609000D01*
X161462142Y-125573285D01*
X152825238Y-138283190D02*
X153110952Y-138283190D01*
X152968095Y-138783190D02*
X152968095Y-138283190D01*
X153349047Y-138783190D02*
X153301428Y-138759380D01*
X153277619Y-138735571D01*
X153253809Y-138687952D01*
X153253809Y-138545095D01*
X153277619Y-138497476D01*
X153301428Y-138473666D01*
X153349047Y-138449857D01*
X153420476Y-138449857D01*
X153468095Y-138473666D01*
X153491904Y-138497476D01*
X153515714Y-138545095D01*
X153515714Y-138687952D01*
X153491904Y-138735571D01*
X153468095Y-138759380D01*
X153420476Y-138783190D01*
X153349047Y-138783190D01*
X154277619Y-138521285D02*
X154110952Y-138521285D01*
X154110952Y-138783190D02*
X154110952Y-138283190D01*
X154349047Y-138283190D01*
X154610952Y-138783190D02*
X154563333Y-138759380D01*
X154539523Y-138711761D01*
X154539523Y-138283190D01*
X154872857Y-138783190D02*
X154825238Y-138759380D01*
X154801428Y-138735571D01*
X154777619Y-138687952D01*
X154777619Y-138545095D01*
X154801428Y-138497476D01*
X154825238Y-138473666D01*
X154872857Y-138449857D01*
X154944285Y-138449857D01*
X154991904Y-138473666D01*
X155015714Y-138497476D01*
X155039523Y-138545095D01*
X155039523Y-138687952D01*
X155015714Y-138735571D01*
X154991904Y-138759380D01*
X154944285Y-138783190D01*
X154872857Y-138783190D01*
X155253809Y-138449857D02*
X155253809Y-138949857D01*
X155253809Y-138473666D02*
X155301428Y-138449857D01*
X155396666Y-138449857D01*
X155444285Y-138473666D01*
X155468095Y-138497476D01*
X155491904Y-138545095D01*
X155491904Y-138687952D01*
X155468095Y-138735571D01*
X155444285Y-138759380D01*
X155396666Y-138783190D01*
X155301428Y-138783190D01*
X155253809Y-138759380D01*
X155706190Y-138449857D02*
X155706190Y-138949857D01*
X155706190Y-138473666D02*
X155753809Y-138449857D01*
X155849047Y-138449857D01*
X155896666Y-138473666D01*
X155920476Y-138497476D01*
X155944285Y-138545095D01*
X155944285Y-138687952D01*
X155920476Y-138735571D01*
X155896666Y-138759380D01*
X155849047Y-138783190D01*
X155753809Y-138783190D01*
X155706190Y-138759380D01*
X156110952Y-138449857D02*
X156230000Y-138783190D01*
X156349047Y-138449857D02*
X156230000Y-138783190D01*
X156182380Y-138902238D01*
X156158571Y-138926047D01*
X156110952Y-138949857D01*
X156920476Y-138783190D02*
X156920476Y-138283190D01*
X157039523Y-138283190D01*
X157110952Y-138307000D01*
X157158571Y-138354619D01*
X157182380Y-138402238D01*
X157206190Y-138497476D01*
X157206190Y-138568904D01*
X157182380Y-138664142D01*
X157158571Y-138711761D01*
X157110952Y-138759380D01*
X157039523Y-138783190D01*
X156920476Y-138783190D01*
X157634761Y-138783190D02*
X157634761Y-138521285D01*
X157610952Y-138473666D01*
X157563333Y-138449857D01*
X157468095Y-138449857D01*
X157420476Y-138473666D01*
X157634761Y-138759380D02*
X157587142Y-138783190D01*
X157468095Y-138783190D01*
X157420476Y-138759380D01*
X157396666Y-138711761D01*
X157396666Y-138664142D01*
X157420476Y-138616523D01*
X157468095Y-138592714D01*
X157587142Y-138592714D01*
X157634761Y-138568904D01*
X157801428Y-138449857D02*
X157991904Y-138449857D01*
X157872857Y-138283190D02*
X157872857Y-138711761D01*
X157896666Y-138759380D01*
X157944285Y-138783190D01*
X157991904Y-138783190D01*
X158372857Y-138783190D02*
X158372857Y-138521285D01*
X158349047Y-138473666D01*
X158301428Y-138449857D01*
X158206190Y-138449857D01*
X158158571Y-138473666D01*
X158372857Y-138759380D02*
X158325238Y-138783190D01*
X158206190Y-138783190D01*
X158158571Y-138759380D01*
X158134761Y-138711761D01*
X158134761Y-138664142D01*
X158158571Y-138616523D01*
X158206190Y-138592714D01*
X158325238Y-138592714D01*
X158372857Y-138568904D01*
X158991904Y-138783190D02*
X158991904Y-138283190D01*
X159230000Y-138449857D02*
X159230000Y-138783190D01*
X159230000Y-138497476D02*
X159253809Y-138473666D01*
X159301428Y-138449857D01*
X159372857Y-138449857D01*
X159420476Y-138473666D01*
X159444285Y-138521285D01*
X159444285Y-138783190D01*
X159610952Y-138449857D02*
X159801428Y-138449857D01*
X159682380Y-138283190D02*
X159682380Y-138711761D01*
X159706190Y-138759380D01*
X159753809Y-138783190D01*
X159801428Y-138783190D01*
X160158571Y-138759380D02*
X160110952Y-138783190D01*
X160015714Y-138783190D01*
X159968095Y-138759380D01*
X159944285Y-138711761D01*
X159944285Y-138521285D01*
X159968095Y-138473666D01*
X160015714Y-138449857D01*
X160110952Y-138449857D01*
X160158571Y-138473666D01*
X160182380Y-138521285D01*
X160182380Y-138568904D01*
X159944285Y-138616523D01*
X160396666Y-138783190D02*
X160396666Y-138449857D01*
X160396666Y-138545095D02*
X160420476Y-138497476D01*
X160444285Y-138473666D01*
X160491904Y-138449857D01*
X160539523Y-138449857D01*
X160634761Y-138449857D02*
X160825238Y-138449857D01*
X160706190Y-138783190D02*
X160706190Y-138354619D01*
X160730000Y-138307000D01*
X160777619Y-138283190D01*
X160825238Y-138283190D01*
X161206190Y-138783190D02*
X161206190Y-138521285D01*
X161182380Y-138473666D01*
X161134761Y-138449857D01*
X161039523Y-138449857D01*
X160991904Y-138473666D01*
X161206190Y-138759380D02*
X161158571Y-138783190D01*
X161039523Y-138783190D01*
X160991904Y-138759380D01*
X160968095Y-138711761D01*
X160968095Y-138664142D01*
X160991904Y-138616523D01*
X161039523Y-138592714D01*
X161158571Y-138592714D01*
X161206190Y-138568904D01*
X161658571Y-138759380D02*
X161610952Y-138783190D01*
X161515714Y-138783190D01*
X161468095Y-138759380D01*
X161444285Y-138735571D01*
X161420476Y-138687952D01*
X161420476Y-138545095D01*
X161444285Y-138497476D01*
X161468095Y-138473666D01*
X161515714Y-138449857D01*
X161610952Y-138449857D01*
X161658571Y-138473666D01*
X162063333Y-138759380D02*
X162015714Y-138783190D01*
X161920476Y-138783190D01*
X161872857Y-138759380D01*
X161849047Y-138711761D01*
X161849047Y-138521285D01*
X161872857Y-138473666D01*
X161920476Y-138449857D01*
X162015714Y-138449857D01*
X162063333Y-138473666D01*
X162087142Y-138521285D01*
X162087142Y-138568904D01*
X161849047Y-138616523D01*
X135536857Y-126081285D02*
X136001142Y-126081285D01*
X135751142Y-126367000D01*
X135858285Y-126367000D01*
X135929714Y-126402714D01*
X135965428Y-126438428D01*
X136001142Y-126509857D01*
X136001142Y-126688428D01*
X135965428Y-126759857D01*
X135929714Y-126795571D01*
X135858285Y-126831285D01*
X135644000Y-126831285D01*
X135572571Y-126795571D01*
X135536857Y-126759857D01*
X136644000Y-126331285D02*
X136644000Y-126831285D01*
X136465428Y-126045571D02*
X136286857Y-126581285D01*
X136751142Y-126581285D01*
X135536857Y-133701285D02*
X136001142Y-133701285D01*
X135751142Y-133987000D01*
X135858285Y-133987000D01*
X135929714Y-134022714D01*
X135965428Y-134058428D01*
X136001142Y-134129857D01*
X136001142Y-134308428D01*
X135965428Y-134379857D01*
X135929714Y-134415571D01*
X135858285Y-134451285D01*
X135644000Y-134451285D01*
X135572571Y-134415571D01*
X135536857Y-134379857D01*
X136644000Y-133951285D02*
X136644000Y-134451285D01*
X136465428Y-133665571D02*
X136286857Y-134201285D01*
X136751142Y-134201285D01*
D11*
X184404000Y-130810000D02*
X184404000Y-134112000D01*
D12*
X167465333Y-152288761D02*
X167446285Y-152307809D01*
X167389142Y-152345904D01*
X167351047Y-152364952D01*
X167293904Y-152384000D01*
X167198666Y-152403047D01*
X167122476Y-152403047D01*
X167027238Y-152384000D01*
X166970095Y-152364952D01*
X166932000Y-152345904D01*
X166874857Y-152307809D01*
X166855809Y-152288761D01*
X167293904Y-152155428D02*
X167312952Y-152098285D01*
X167312952Y-152003047D01*
X167293904Y-151964952D01*
X167274857Y-151945904D01*
X167236761Y-151926857D01*
X167198666Y-151926857D01*
X167160571Y-151945904D01*
X167141523Y-151964952D01*
X167122476Y-152003047D01*
X167103428Y-152079238D01*
X167084380Y-152117333D01*
X167065333Y-152136380D01*
X167027238Y-152155428D01*
X166989142Y-152155428D01*
X166951047Y-152136380D01*
X166932000Y-152117333D01*
X166912952Y-152079238D01*
X166912952Y-151984000D01*
X166932000Y-151926857D01*
X167046285Y-151755428D02*
X167446285Y-151755428D01*
X167065333Y-151755428D02*
X167046285Y-151717333D01*
X167046285Y-151641142D01*
X167065333Y-151603047D01*
X167084380Y-151584000D01*
X167122476Y-151564952D01*
X167236761Y-151564952D01*
X167274857Y-151584000D01*
X167293904Y-151603047D01*
X167312952Y-151641142D01*
X167312952Y-151717333D01*
X167293904Y-151755428D01*
X167312952Y-151222095D02*
X167103428Y-151222095D01*
X167065333Y-151241142D01*
X167046285Y-151279238D01*
X167046285Y-151355428D01*
X167065333Y-151393523D01*
X167293904Y-151222095D02*
X167312952Y-151260190D01*
X167312952Y-151355428D01*
X167293904Y-151393523D01*
X167255809Y-151412571D01*
X167217714Y-151412571D01*
X167179619Y-151393523D01*
X167160571Y-151355428D01*
X167160571Y-151260190D01*
X167141523Y-151222095D01*
X167312952Y-151031619D02*
X167046285Y-151031619D01*
X167122476Y-151031619D02*
X167084380Y-151012571D01*
X167065333Y-150993523D01*
X167046285Y-150955428D01*
X167046285Y-150917333D01*
X167293904Y-150631619D02*
X167312952Y-150669714D01*
X167312952Y-150745904D01*
X167293904Y-150784000D01*
X167255809Y-150803047D01*
X167103428Y-150803047D01*
X167065333Y-150784000D01*
X167046285Y-150745904D01*
X167046285Y-150669714D01*
X167065333Y-150631619D01*
X167103428Y-150612571D01*
X167141523Y-150612571D01*
X167179619Y-150803047D01*
X167465333Y-150479238D02*
X167446285Y-150460190D01*
X167389142Y-150422095D01*
X167351047Y-150403047D01*
X167293904Y-150384000D01*
X167198666Y-150364952D01*
X167122476Y-150364952D01*
X167027238Y-150384000D01*
X166970095Y-150403047D01*
X166932000Y-150422095D01*
X166874857Y-150460190D01*
X166855809Y-150479238D01*
D10*
X135155857Y-140686285D02*
X135620142Y-140686285D01*
X135370142Y-140972000D01*
X135477285Y-140972000D01*
X135548714Y-141007714D01*
X135584428Y-141043428D01*
X135620142Y-141114857D01*
X135620142Y-141293428D01*
X135584428Y-141364857D01*
X135548714Y-141400571D01*
X135477285Y-141436285D01*
X135263000Y-141436285D01*
X135191571Y-141400571D01*
X135155857Y-141364857D01*
X136263000Y-140936285D02*
X136263000Y-141436285D01*
X136084428Y-140650571D02*
X135905857Y-141186285D01*
X136370142Y-141186285D01*
X180443142Y-139374476D02*
X180490761Y-139422095D01*
X180538380Y-139564952D01*
X180538380Y-139660190D01*
X180490761Y-139803047D01*
X180395523Y-139898285D01*
X180300285Y-139945904D01*
X180109809Y-139993523D01*
X179966952Y-139993523D01*
X179776476Y-139945904D01*
X179681238Y-139898285D01*
X179586000Y-139803047D01*
X179538380Y-139660190D01*
X179538380Y-139564952D01*
X179586000Y-139422095D01*
X179633619Y-139374476D01*
X180538380Y-138945904D02*
X179538380Y-138945904D01*
X180538380Y-138374476D01*
X179538380Y-138374476D01*
X179538380Y-137707809D02*
X179538380Y-137612571D01*
X179586000Y-137517333D01*
X179633619Y-137469714D01*
X179728857Y-137422095D01*
X179919333Y-137374476D01*
X180157428Y-137374476D01*
X180347904Y-137422095D01*
X180443142Y-137469714D01*
X180490761Y-137517333D01*
X180538380Y-137612571D01*
X180538380Y-137707809D01*
X180490761Y-137803047D01*
X180443142Y-137850666D01*
X180347904Y-137898285D01*
X180157428Y-137945904D01*
X179919333Y-137945904D01*
X179728857Y-137898285D01*
X179633619Y-137850666D01*
X179586000Y-137803047D01*
X179538380Y-137707809D01*
X186013285Y-133967000D02*
X185263285Y-133967000D01*
X185263285Y-133788428D01*
X185299000Y-133681285D01*
X185370428Y-133609857D01*
X185441857Y-133574142D01*
X185584714Y-133538428D01*
X185691857Y-133538428D01*
X185834714Y-133574142D01*
X185906142Y-133609857D01*
X185977571Y-133681285D01*
X186013285Y-133788428D01*
X186013285Y-133967000D01*
X185620428Y-132967000D02*
X185620428Y-133217000D01*
X186013285Y-133217000D02*
X185263285Y-133217000D01*
X185263285Y-132859857D01*
X186013285Y-132181285D02*
X186013285Y-132609857D01*
X186013285Y-132395571D02*
X185263285Y-132395571D01*
X185370428Y-132467000D01*
X185441857Y-132538428D01*
X185477571Y-132609857D01*
X186299000Y-131645571D02*
X186299000Y-131681285D01*
X186263285Y-131752714D01*
X186191857Y-131788428D01*
X185834714Y-131788428D01*
X185763285Y-131824142D01*
X185727571Y-131895571D01*
X185691857Y-131824142D01*
X185620428Y-131788428D01*
X185263285Y-131788428D01*
X185191857Y-131752714D01*
X185156142Y-131681285D01*
X185156142Y-131645571D01*
X183473285Y-133967000D02*
X182723285Y-133967000D01*
X182723285Y-133788428D01*
X182759000Y-133681285D01*
X182830428Y-133609857D01*
X182901857Y-133574142D01*
X183044714Y-133538428D01*
X183151857Y-133538428D01*
X183294714Y-133574142D01*
X183366142Y-133609857D01*
X183437571Y-133681285D01*
X183473285Y-133788428D01*
X183473285Y-133967000D01*
X183080428Y-132967000D02*
X183080428Y-133217000D01*
X183473285Y-133217000D02*
X182723285Y-133217000D01*
X182723285Y-132859857D01*
X182723285Y-132431285D02*
X182723285Y-132359857D01*
X182759000Y-132288428D01*
X182794714Y-132252714D01*
X182866142Y-132217000D01*
X183009000Y-132181285D01*
X183187571Y-132181285D01*
X183330428Y-132217000D01*
X183401857Y-132252714D01*
X183437571Y-132288428D01*
X183473285Y-132359857D01*
X183473285Y-132431285D01*
X183437571Y-132502714D01*
X183401857Y-132538428D01*
X183330428Y-132574142D01*
X183187571Y-132609857D01*
X183009000Y-132609857D01*
X182866142Y-132574142D01*
X182794714Y-132538428D01*
X182759000Y-132502714D01*
X182723285Y-132431285D01*
X183759000Y-131645571D02*
X183759000Y-131681285D01*
X183723285Y-131752714D01*
X183651857Y-131788428D01*
X183294714Y-131788428D01*
X183223285Y-131824142D01*
X183187571Y-131895571D01*
X183151857Y-131824142D01*
X183080428Y-131788428D01*
X182723285Y-131788428D01*
X182651857Y-131752714D01*
X182616142Y-131681285D01*
X182616142Y-131645571D01*
X137243571Y-150205000D02*
X137529285Y-150205000D01*
X137186428Y-150376428D02*
X137386428Y-149776428D01*
X137586428Y-150376428D01*
X137786428Y-150376428D02*
X137786428Y-149976428D01*
X137786428Y-150033571D02*
X137815000Y-150005000D01*
X137872142Y-149976428D01*
X137957857Y-149976428D01*
X138015000Y-150005000D01*
X138043571Y-150062142D01*
X138043571Y-150376428D01*
X138043571Y-150062142D02*
X138072142Y-150005000D01*
X138129285Y-149976428D01*
X138215000Y-149976428D01*
X138272142Y-150005000D01*
X138300714Y-150062142D01*
X138300714Y-150376428D01*
X138586428Y-150376428D02*
X138586428Y-149976428D01*
X138586428Y-149776428D02*
X138557857Y-149805000D01*
X138586428Y-149833571D01*
X138615000Y-149805000D01*
X138586428Y-149776428D01*
X138586428Y-149833571D01*
X139129285Y-149976428D02*
X139129285Y-150462142D01*
X139100714Y-150519285D01*
X139072142Y-150547857D01*
X139015000Y-150576428D01*
X138929285Y-150576428D01*
X138872142Y-150547857D01*
X139129285Y-150347857D02*
X139072142Y-150376428D01*
X138957857Y-150376428D01*
X138900714Y-150347857D01*
X138872142Y-150319285D01*
X138843571Y-150262142D01*
X138843571Y-150090714D01*
X138872142Y-150033571D01*
X138900714Y-150005000D01*
X138957857Y-149976428D01*
X139072142Y-149976428D01*
X139129285Y-150005000D01*
X139672142Y-150376428D02*
X139672142Y-150062142D01*
X139643571Y-150005000D01*
X139586428Y-149976428D01*
X139472142Y-149976428D01*
X139415000Y-150005000D01*
X139672142Y-150347857D02*
X139615000Y-150376428D01*
X139472142Y-150376428D01*
X139415000Y-150347857D01*
X139386428Y-150290714D01*
X139386428Y-150233571D01*
X139415000Y-150176428D01*
X139472142Y-150147857D01*
X139615000Y-150147857D01*
X139672142Y-150119285D01*
X140415000Y-150376428D02*
X140415000Y-149776428D01*
X140557857Y-149776428D01*
X140643571Y-149805000D01*
X140700714Y-149862142D01*
X140729285Y-149919285D01*
X140757857Y-150033571D01*
X140757857Y-150119285D01*
X140729285Y-150233571D01*
X140700714Y-150290714D01*
X140643571Y-150347857D01*
X140557857Y-150376428D01*
X140415000Y-150376428D01*
X141215000Y-150062142D02*
X141015000Y-150062142D01*
X141015000Y-150376428D02*
X141015000Y-149776428D01*
X141300714Y-149776428D01*
X141643571Y-149776428D02*
X141700714Y-149776428D01*
X141757857Y-149805000D01*
X141786428Y-149833571D01*
X141815000Y-149890714D01*
X141843571Y-150005000D01*
X141843571Y-150147857D01*
X141815000Y-150262142D01*
X141786428Y-150319285D01*
X141757857Y-150347857D01*
X141700714Y-150376428D01*
X141643571Y-150376428D01*
X141586428Y-150347857D01*
X141557857Y-150319285D01*
X141529285Y-150262142D01*
X141500714Y-150147857D01*
X141500714Y-150005000D01*
X141529285Y-149890714D01*
X141557857Y-149833571D01*
X141586428Y-149805000D01*
X141643571Y-149776428D01*
X142529285Y-149747857D02*
X142015000Y-150519285D01*
X142729285Y-150376428D02*
X142729285Y-149776428D01*
X142872142Y-149776428D01*
X142957857Y-149805000D01*
X143015000Y-149862142D01*
X143043571Y-149919285D01*
X143072142Y-150033571D01*
X143072142Y-150119285D01*
X143043571Y-150233571D01*
X143015000Y-150290714D01*
X142957857Y-150347857D01*
X142872142Y-150376428D01*
X142729285Y-150376428D01*
X143529285Y-150062142D02*
X143329285Y-150062142D01*
X143329285Y-150376428D02*
X143329285Y-149776428D01*
X143615000Y-149776428D01*
X144157857Y-150376428D02*
X143815000Y-150376428D01*
X143986428Y-150376428D02*
X143986428Y-149776428D01*
X143929285Y-149862142D01*
X143872142Y-149919285D01*
X143815000Y-149947857D01*
X144843571Y-150347857D02*
X144929285Y-150376428D01*
X145072142Y-150376428D01*
X145129285Y-150347857D01*
X145157857Y-150319285D01*
X145186428Y-150262142D01*
X145186428Y-150205000D01*
X145157857Y-150147857D01*
X145129285Y-150119285D01*
X145072142Y-150090714D01*
X144957857Y-150062142D01*
X144900714Y-150033571D01*
X144872142Y-150005000D01*
X144843571Y-149947857D01*
X144843571Y-149890714D01*
X144872142Y-149833571D01*
X144900714Y-149805000D01*
X144957857Y-149776428D01*
X145100714Y-149776428D01*
X145186428Y-149805000D01*
X145386428Y-149976428D02*
X145500714Y-150376428D01*
X145615000Y-150090714D01*
X145729285Y-150376428D01*
X145843571Y-149976428D01*
X146072142Y-150376428D02*
X146072142Y-149976428D01*
X146072142Y-149776428D02*
X146043571Y-149805000D01*
X146072142Y-149833571D01*
X146100714Y-149805000D01*
X146072142Y-149776428D01*
X146072142Y-149833571D01*
X146272142Y-149976428D02*
X146500714Y-149976428D01*
X146357857Y-149776428D02*
X146357857Y-150290714D01*
X146386428Y-150347857D01*
X146443571Y-150376428D01*
X146500714Y-150376428D01*
X146957857Y-150347857D02*
X146900714Y-150376428D01*
X146786428Y-150376428D01*
X146729285Y-150347857D01*
X146700714Y-150319285D01*
X146672142Y-150262142D01*
X146672142Y-150090714D01*
X146700714Y-150033571D01*
X146729285Y-150005000D01*
X146786428Y-149976428D01*
X146900714Y-149976428D01*
X146957857Y-150005000D01*
X147215000Y-150376428D02*
X147215000Y-149776428D01*
X147472142Y-150376428D02*
X147472142Y-150062142D01*
X147443571Y-150005000D01*
X147386428Y-149976428D01*
X147300714Y-149976428D01*
X147243571Y-150005000D01*
X147215000Y-150033571D01*
X147986428Y-150347857D02*
X147929285Y-150376428D01*
X147815000Y-150376428D01*
X147757857Y-150347857D01*
X147729285Y-150290714D01*
X147729285Y-150062142D01*
X147757857Y-150005000D01*
X147815000Y-149976428D01*
X147929285Y-149976428D01*
X147986428Y-150005000D01*
X148015000Y-150062142D01*
X148015000Y-150119285D01*
X147729285Y-150176428D01*
X148272142Y-150376428D02*
X148272142Y-149976428D01*
X148272142Y-150090714D02*
X148300714Y-150033571D01*
X148329285Y-150005000D01*
X148386428Y-149976428D01*
X148443571Y-149976428D01*
X149272142Y-150605000D02*
X149243571Y-150576428D01*
X149186428Y-150490714D01*
X149157857Y-150433571D01*
X149129285Y-150347857D01*
X149100714Y-150205000D01*
X149100714Y-150090714D01*
X149129285Y-149947857D01*
X149157857Y-149862142D01*
X149186428Y-149805000D01*
X149243571Y-149719285D01*
X149272142Y-149690714D01*
X149500714Y-150376428D02*
X149500714Y-149776428D01*
X149643571Y-149776428D01*
X149729285Y-149805000D01*
X149786428Y-149862142D01*
X149815000Y-149919285D01*
X149843571Y-150033571D01*
X149843571Y-150119285D01*
X149815000Y-150233571D01*
X149786428Y-150290714D01*
X149729285Y-150347857D01*
X149643571Y-150376428D01*
X149500714Y-150376428D01*
X150329285Y-150347857D02*
X150272142Y-150376428D01*
X150157857Y-150376428D01*
X150100714Y-150347857D01*
X150072142Y-150290714D01*
X150072142Y-150062142D01*
X150100714Y-150005000D01*
X150157857Y-149976428D01*
X150272142Y-149976428D01*
X150329285Y-150005000D01*
X150357857Y-150062142D01*
X150357857Y-150119285D01*
X150072142Y-150176428D01*
X150586428Y-150347857D02*
X150643571Y-150376428D01*
X150757857Y-150376428D01*
X150815000Y-150347857D01*
X150843571Y-150290714D01*
X150843571Y-150262142D01*
X150815000Y-150205000D01*
X150757857Y-150176428D01*
X150672142Y-150176428D01*
X150615000Y-150147857D01*
X150586428Y-150090714D01*
X150586428Y-150062142D01*
X150615000Y-150005000D01*
X150672142Y-149976428D01*
X150757857Y-149976428D01*
X150815000Y-150005000D01*
X151100714Y-150376428D02*
X151100714Y-149976428D01*
X151100714Y-149776428D02*
X151072142Y-149805000D01*
X151100714Y-149833571D01*
X151129285Y-149805000D01*
X151100714Y-149776428D01*
X151100714Y-149833571D01*
X151643571Y-149976428D02*
X151643571Y-150462142D01*
X151615000Y-150519285D01*
X151586428Y-150547857D01*
X151529285Y-150576428D01*
X151443571Y-150576428D01*
X151386428Y-150547857D01*
X151643571Y-150347857D02*
X151586428Y-150376428D01*
X151472142Y-150376428D01*
X151415000Y-150347857D01*
X151386428Y-150319285D01*
X151357857Y-150262142D01*
X151357857Y-150090714D01*
X151386428Y-150033571D01*
X151415000Y-150005000D01*
X151472142Y-149976428D01*
X151586428Y-149976428D01*
X151643571Y-150005000D01*
X151929285Y-149976428D02*
X151929285Y-150376428D01*
X151929285Y-150033571D02*
X151957857Y-150005000D01*
X152015000Y-149976428D01*
X152100714Y-149976428D01*
X152157857Y-150005000D01*
X152186428Y-150062142D01*
X152186428Y-150376428D01*
X152900714Y-150205000D02*
X153186428Y-150205000D01*
X152843571Y-150376428D02*
X153043571Y-149776428D01*
X153243571Y-150376428D01*
X153386428Y-150605000D02*
X153415000Y-150576428D01*
X153472142Y-150490714D01*
X153500714Y-150433571D01*
X153529285Y-150347857D01*
X153557857Y-150205000D01*
X153557857Y-150090714D01*
X153529285Y-149947857D01*
X153500714Y-149862142D01*
X153472142Y-149805000D01*
X153415000Y-149719285D01*
X153386428Y-149690714D01*
X144600714Y-151401428D02*
X144400714Y-151115714D01*
X144257857Y-151401428D02*
X144257857Y-150801428D01*
X144486428Y-150801428D01*
X144543571Y-150830000D01*
X144572142Y-150858571D01*
X144600714Y-150915714D01*
X144600714Y-151001428D01*
X144572142Y-151058571D01*
X144543571Y-151087142D01*
X144486428Y-151115714D01*
X144257857Y-151115714D01*
X145086428Y-151372857D02*
X145029285Y-151401428D01*
X144915000Y-151401428D01*
X144857857Y-151372857D01*
X144829285Y-151315714D01*
X144829285Y-151087142D01*
X144857857Y-151030000D01*
X144915000Y-151001428D01*
X145029285Y-151001428D01*
X145086428Y-151030000D01*
X145115000Y-151087142D01*
X145115000Y-151144285D01*
X144829285Y-151201428D01*
X145315000Y-151001428D02*
X145457857Y-151401428D01*
X145600714Y-151001428D01*
X146257857Y-150858571D02*
X146286428Y-150830000D01*
X146343571Y-150801428D01*
X146486428Y-150801428D01*
X146543571Y-150830000D01*
X146572142Y-150858571D01*
X146600714Y-150915714D01*
X146600714Y-150972857D01*
X146572142Y-151058571D01*
X146229285Y-151401428D01*
X146600714Y-151401428D01*
X138800714Y-152426428D02*
X138800714Y-151826428D01*
X139057857Y-152426428D02*
X139057857Y-152112142D01*
X139029285Y-152055000D01*
X138972142Y-152026428D01*
X138886428Y-152026428D01*
X138829285Y-152055000D01*
X138800714Y-152083571D01*
X139257857Y-152026428D02*
X139486428Y-152026428D01*
X139343571Y-151826428D02*
X139343571Y-152340714D01*
X139372142Y-152397857D01*
X139429285Y-152426428D01*
X139486428Y-152426428D01*
X139600714Y-152026428D02*
X139829285Y-152026428D01*
X139686428Y-151826428D02*
X139686428Y-152340714D01*
X139715000Y-152397857D01*
X139772142Y-152426428D01*
X139829285Y-152426428D01*
X140029285Y-152026428D02*
X140029285Y-152626428D01*
X140029285Y-152055000D02*
X140086428Y-152026428D01*
X140200714Y-152026428D01*
X140257857Y-152055000D01*
X140286428Y-152083571D01*
X140315000Y-152140714D01*
X140315000Y-152312142D01*
X140286428Y-152369285D01*
X140257857Y-152397857D01*
X140200714Y-152426428D01*
X140086428Y-152426428D01*
X140029285Y-152397857D01*
X140543571Y-152397857D02*
X140600714Y-152426428D01*
X140715000Y-152426428D01*
X140772142Y-152397857D01*
X140800714Y-152340714D01*
X140800714Y-152312142D01*
X140772142Y-152255000D01*
X140715000Y-152226428D01*
X140629285Y-152226428D01*
X140572142Y-152197857D01*
X140543571Y-152140714D01*
X140543571Y-152112142D01*
X140572142Y-152055000D01*
X140629285Y-152026428D01*
X140715000Y-152026428D01*
X140772142Y-152055000D01*
X141057857Y-152369285D02*
X141086428Y-152397857D01*
X141057857Y-152426428D01*
X141029285Y-152397857D01*
X141057857Y-152369285D01*
X141057857Y-152426428D01*
X141057857Y-152055000D02*
X141086428Y-152083571D01*
X141057857Y-152112142D01*
X141029285Y-152083571D01*
X141057857Y-152055000D01*
X141057857Y-152112142D01*
X141772142Y-151797857D02*
X141257857Y-152569285D01*
X142400714Y-151797857D02*
X141886428Y-152569285D01*
X142857857Y-152026428D02*
X142857857Y-152512142D01*
X142829285Y-152569285D01*
X142800714Y-152597857D01*
X142743571Y-152626428D01*
X142657857Y-152626428D01*
X142600714Y-152597857D01*
X142857857Y-152397857D02*
X142800714Y-152426428D01*
X142686428Y-152426428D01*
X142629285Y-152397857D01*
X142600714Y-152369285D01*
X142572142Y-152312142D01*
X142572142Y-152140714D01*
X142600714Y-152083571D01*
X142629285Y-152055000D01*
X142686428Y-152026428D01*
X142800714Y-152026428D01*
X142857857Y-152055000D01*
X143143571Y-152426428D02*
X143143571Y-152026428D01*
X143143571Y-151826428D02*
X143115000Y-151855000D01*
X143143571Y-151883571D01*
X143172142Y-151855000D01*
X143143571Y-151826428D01*
X143143571Y-151883571D01*
X143343571Y-152026428D02*
X143572142Y-152026428D01*
X143429285Y-151826428D02*
X143429285Y-152340714D01*
X143457857Y-152397857D01*
X143515000Y-152426428D01*
X143572142Y-152426428D01*
X143772142Y-152426428D02*
X143772142Y-151826428D01*
X144029285Y-152426428D02*
X144029285Y-152112142D01*
X144000714Y-152055000D01*
X143943571Y-152026428D01*
X143857857Y-152026428D01*
X143800714Y-152055000D01*
X143772142Y-152083571D01*
X144572142Y-152026428D02*
X144572142Y-152426428D01*
X144315000Y-152026428D02*
X144315000Y-152340714D01*
X144343571Y-152397857D01*
X144400714Y-152426428D01*
X144486428Y-152426428D01*
X144543571Y-152397857D01*
X144572142Y-152369285D01*
X144857857Y-152426428D02*
X144857857Y-151826428D01*
X144857857Y-152055000D02*
X144915000Y-152026428D01*
X145029285Y-152026428D01*
X145086428Y-152055000D01*
X145115000Y-152083571D01*
X145143571Y-152140714D01*
X145143571Y-152312142D01*
X145115000Y-152369285D01*
X145086428Y-152397857D01*
X145029285Y-152426428D01*
X144915000Y-152426428D01*
X144857857Y-152397857D01*
X145400714Y-152369285D02*
X145429285Y-152397857D01*
X145400714Y-152426428D01*
X145372142Y-152397857D01*
X145400714Y-152369285D01*
X145400714Y-152426428D01*
X145943571Y-152397857D02*
X145886428Y-152426428D01*
X145772142Y-152426428D01*
X145715000Y-152397857D01*
X145686428Y-152369285D01*
X145657857Y-152312142D01*
X145657857Y-152140714D01*
X145686428Y-152083571D01*
X145715000Y-152055000D01*
X145772142Y-152026428D01*
X145886428Y-152026428D01*
X145943571Y-152055000D01*
X146286428Y-152426428D02*
X146229285Y-152397857D01*
X146200714Y-152369285D01*
X146172142Y-152312142D01*
X146172142Y-152140714D01*
X146200714Y-152083571D01*
X146229285Y-152055000D01*
X146286428Y-152026428D01*
X146372142Y-152026428D01*
X146429285Y-152055000D01*
X146457857Y-152083571D01*
X146486428Y-152140714D01*
X146486428Y-152312142D01*
X146457857Y-152369285D01*
X146429285Y-152397857D01*
X146372142Y-152426428D01*
X146286428Y-152426428D01*
X146743571Y-152426428D02*
X146743571Y-152026428D01*
X146743571Y-152083571D02*
X146772142Y-152055000D01*
X146829285Y-152026428D01*
X146915000Y-152026428D01*
X146972142Y-152055000D01*
X147000714Y-152112142D01*
X147000714Y-152426428D01*
X147000714Y-152112142D02*
X147029285Y-152055000D01*
X147086428Y-152026428D01*
X147172142Y-152026428D01*
X147229285Y-152055000D01*
X147257857Y-152112142D01*
X147257857Y-152426428D01*
X147972142Y-151797857D02*
X147457857Y-152569285D01*
X148143571Y-152397857D02*
X148200714Y-152426428D01*
X148315000Y-152426428D01*
X148372142Y-152397857D01*
X148400714Y-152340714D01*
X148400714Y-152312142D01*
X148372142Y-152255000D01*
X148315000Y-152226428D01*
X148229285Y-152226428D01*
X148172142Y-152197857D01*
X148143571Y-152140714D01*
X148143571Y-152112142D01*
X148172142Y-152055000D01*
X148229285Y-152026428D01*
X148315000Y-152026428D01*
X148372142Y-152055000D01*
X148743571Y-152426428D02*
X148686428Y-152397857D01*
X148657857Y-152369285D01*
X148629285Y-152312142D01*
X148629285Y-152140714D01*
X148657857Y-152083571D01*
X148686428Y-152055000D01*
X148743571Y-152026428D01*
X148829285Y-152026428D01*
X148886428Y-152055000D01*
X148915000Y-152083571D01*
X148943571Y-152140714D01*
X148943571Y-152312142D01*
X148915000Y-152369285D01*
X148886428Y-152397857D01*
X148829285Y-152426428D01*
X148743571Y-152426428D01*
X149286428Y-152426428D02*
X149229285Y-152397857D01*
X149200714Y-152340714D01*
X149200714Y-151826428D01*
X149772142Y-152426428D02*
X149772142Y-152112142D01*
X149743571Y-152055000D01*
X149686428Y-152026428D01*
X149572142Y-152026428D01*
X149515000Y-152055000D01*
X149772142Y-152397857D02*
X149715000Y-152426428D01*
X149572142Y-152426428D01*
X149515000Y-152397857D01*
X149486428Y-152340714D01*
X149486428Y-152283571D01*
X149515000Y-152226428D01*
X149572142Y-152197857D01*
X149715000Y-152197857D01*
X149772142Y-152169285D01*
X150057857Y-152426428D02*
X150057857Y-152026428D01*
X150057857Y-152140714D02*
X150086428Y-152083571D01*
X150115000Y-152055000D01*
X150172142Y-152026428D01*
X150229285Y-152026428D01*
X150429285Y-152426428D02*
X150429285Y-152026428D01*
X150429285Y-152083571D02*
X150457857Y-152055000D01*
X150515000Y-152026428D01*
X150600714Y-152026428D01*
X150657857Y-152055000D01*
X150686428Y-152112142D01*
X150686428Y-152426428D01*
X150686428Y-152112142D02*
X150715000Y-152055000D01*
X150772142Y-152026428D01*
X150857857Y-152026428D01*
X150915000Y-152055000D01*
X150943571Y-152112142D01*
X150943571Y-152426428D01*
X151315000Y-152426428D02*
X151257857Y-152397857D01*
X151229285Y-152369285D01*
X151200714Y-152312142D01*
X151200714Y-152140714D01*
X151229285Y-152083571D01*
X151257857Y-152055000D01*
X151315000Y-152026428D01*
X151400714Y-152026428D01*
X151457857Y-152055000D01*
X151486428Y-152083571D01*
X151515000Y-152140714D01*
X151515000Y-152312142D01*
X151486428Y-152369285D01*
X151457857Y-152397857D01*
X151400714Y-152426428D01*
X151315000Y-152426428D01*
X151772142Y-152026428D02*
X151772142Y-152426428D01*
X151772142Y-152083571D02*
X151800714Y-152055000D01*
X151857857Y-152026428D01*
X151943571Y-152026428D01*
X152000714Y-152055000D01*
X152029285Y-152112142D01*
X152029285Y-152426428D01*
X188481857Y-130057857D02*
X188517571Y-130093571D01*
X188553285Y-130200714D01*
X188553285Y-130272142D01*
X188517571Y-130379285D01*
X188446142Y-130450714D01*
X188374714Y-130486428D01*
X188231857Y-130522142D01*
X188124714Y-130522142D01*
X187981857Y-130486428D01*
X187910428Y-130450714D01*
X187839000Y-130379285D01*
X187803285Y-130272142D01*
X187803285Y-130200714D01*
X187839000Y-130093571D01*
X187874714Y-130057857D01*
X188553285Y-129736428D02*
X187803285Y-129736428D01*
X188553285Y-129307857D01*
X187803285Y-129307857D01*
X188553285Y-128557857D02*
X188553285Y-128986428D01*
X188553285Y-128772142D02*
X187803285Y-128772142D01*
X187910428Y-128843571D01*
X187981857Y-128915000D01*
X188017571Y-128986428D01*
X188481857Y-124977857D02*
X188517571Y-125013571D01*
X188553285Y-125120714D01*
X188553285Y-125192142D01*
X188517571Y-125299285D01*
X188446142Y-125370714D01*
X188374714Y-125406428D01*
X188231857Y-125442142D01*
X188124714Y-125442142D01*
X187981857Y-125406428D01*
X187910428Y-125370714D01*
X187839000Y-125299285D01*
X187803285Y-125192142D01*
X187803285Y-125120714D01*
X187839000Y-125013571D01*
X187874714Y-124977857D01*
X188553285Y-124656428D02*
X187803285Y-124656428D01*
X188553285Y-124227857D01*
X187803285Y-124227857D01*
X187874714Y-123906428D02*
X187839000Y-123870714D01*
X187803285Y-123799285D01*
X187803285Y-123620714D01*
X187839000Y-123549285D01*
X187874714Y-123513571D01*
X187946142Y-123477857D01*
X188017571Y-123477857D01*
X188124714Y-123513571D01*
X188553285Y-123942142D01*
X188553285Y-123477857D01*
X181115857Y-130057857D02*
X181151571Y-130093571D01*
X181187285Y-130200714D01*
X181187285Y-130272142D01*
X181151571Y-130379285D01*
X181080142Y-130450714D01*
X181008714Y-130486428D01*
X180865857Y-130522142D01*
X180758714Y-130522142D01*
X180615857Y-130486428D01*
X180544428Y-130450714D01*
X180473000Y-130379285D01*
X180437285Y-130272142D01*
X180437285Y-130200714D01*
X180473000Y-130093571D01*
X180508714Y-130057857D01*
X181187285Y-129736428D02*
X180437285Y-129736428D01*
X181187285Y-129307857D01*
X180437285Y-129307857D01*
X180508714Y-128986428D02*
X180473000Y-128950714D01*
X180437285Y-128879285D01*
X180437285Y-128700714D01*
X180473000Y-128629285D01*
X180508714Y-128593571D01*
X180580142Y-128557857D01*
X180651571Y-128557857D01*
X180758714Y-128593571D01*
X181187285Y-129022142D01*
X181187285Y-128557857D01*
X181115857Y-124977857D02*
X181151571Y-125013571D01*
X181187285Y-125120714D01*
X181187285Y-125192142D01*
X181151571Y-125299285D01*
X181080142Y-125370714D01*
X181008714Y-125406428D01*
X180865857Y-125442142D01*
X180758714Y-125442142D01*
X180615857Y-125406428D01*
X180544428Y-125370714D01*
X180473000Y-125299285D01*
X180437285Y-125192142D01*
X180437285Y-125120714D01*
X180473000Y-125013571D01*
X180508714Y-124977857D01*
X181187285Y-124656428D02*
X180437285Y-124656428D01*
X181187285Y-124227857D01*
X180437285Y-124227857D01*
X181187285Y-123477857D02*
X181187285Y-123906428D01*
X181187285Y-123692142D02*
X180437285Y-123692142D01*
X180544428Y-123763571D01*
X180615857Y-123835000D01*
X180651571Y-123906428D01*
D13*
X144475238Y-148838000D02*
X144437142Y-148818952D01*
X144380000Y-148818952D01*
X144322857Y-148838000D01*
X144284761Y-148876095D01*
X144265714Y-148914190D01*
X144246666Y-148990380D01*
X144246666Y-149047523D01*
X144265714Y-149123714D01*
X144284761Y-149161809D01*
X144322857Y-149199904D01*
X144380000Y-149218952D01*
X144418095Y-149218952D01*
X144475238Y-149199904D01*
X144494285Y-149180857D01*
X144494285Y-149047523D01*
X144418095Y-149047523D01*
X144665714Y-149218952D02*
X144665714Y-148818952D01*
X144894285Y-149218952D01*
X144894285Y-148818952D01*
X145084761Y-149218952D02*
X145084761Y-148818952D01*
X145180000Y-148818952D01*
X145237142Y-148838000D01*
X145275238Y-148876095D01*
X145294285Y-148914190D01*
X145313333Y-148990380D01*
X145313333Y-149047523D01*
X145294285Y-149123714D01*
X145275238Y-149161809D01*
X145237142Y-149199904D01*
X145180000Y-149218952D01*
X145084761Y-149218952D01*
X147015238Y-148838000D02*
X146977142Y-148818952D01*
X146920000Y-148818952D01*
X146862857Y-148838000D01*
X146824761Y-148876095D01*
X146805714Y-148914190D01*
X146786666Y-148990380D01*
X146786666Y-149047523D01*
X146805714Y-149123714D01*
X146824761Y-149161809D01*
X146862857Y-149199904D01*
X146920000Y-149218952D01*
X146958095Y-149218952D01*
X147015238Y-149199904D01*
X147034285Y-149180857D01*
X147034285Y-149047523D01*
X146958095Y-149047523D01*
X147205714Y-149218952D02*
X147205714Y-148818952D01*
X147434285Y-149218952D01*
X147434285Y-148818952D01*
X147624761Y-149218952D02*
X147624761Y-148818952D01*
X147720000Y-148818952D01*
X147777142Y-148838000D01*
X147815238Y-148876095D01*
X147834285Y-148914190D01*
X147853333Y-148990380D01*
X147853333Y-149047523D01*
X147834285Y-149123714D01*
X147815238Y-149161809D01*
X147777142Y-149199904D01*
X147720000Y-149218952D01*
X147624761Y-149218952D01*
X141535238Y-149066571D02*
X141840000Y-149066571D01*
X141687619Y-149218952D02*
X141687619Y-148914190D01*
X142240000Y-149218952D02*
X142011428Y-149218952D01*
X142125714Y-149218952D02*
X142125714Y-148818952D01*
X142087619Y-148876095D01*
X142049523Y-148914190D01*
X142011428Y-148933238D01*
X142392380Y-148857047D02*
X142411428Y-148838000D01*
X142449523Y-148818952D01*
X142544761Y-148818952D01*
X142582857Y-148838000D01*
X142601904Y-148857047D01*
X142620952Y-148895142D01*
X142620952Y-148933238D01*
X142601904Y-148990380D01*
X142373333Y-149218952D01*
X142620952Y-149218952D01*
X142735238Y-148818952D02*
X142868571Y-149218952D01*
X143001904Y-148818952D01*
X149345714Y-149066571D02*
X149650476Y-149066571D01*
X149498095Y-149218952D02*
X149498095Y-148914190D01*
X150031428Y-148818952D02*
X149840952Y-148818952D01*
X149821904Y-149009428D01*
X149840952Y-148990380D01*
X149879047Y-148971333D01*
X149974285Y-148971333D01*
X150012380Y-148990380D01*
X150031428Y-149009428D01*
X150050476Y-149047523D01*
X150050476Y-149142761D01*
X150031428Y-149180857D01*
X150012380Y-149199904D01*
X149974285Y-149218952D01*
X149879047Y-149218952D01*
X149840952Y-149199904D01*
X149821904Y-149180857D01*
X150164761Y-148818952D02*
X150298095Y-149218952D01*
X150431428Y-148818952D01*
X156775238Y-149066571D02*
X157080000Y-149066571D01*
X156927619Y-149218952D02*
X156927619Y-148914190D01*
X157480000Y-149218952D02*
X157251428Y-149218952D01*
X157365714Y-149218952D02*
X157365714Y-148818952D01*
X157327619Y-148876095D01*
X157289523Y-148914190D01*
X157251428Y-148933238D01*
X157632380Y-148857047D02*
X157651428Y-148838000D01*
X157689523Y-148818952D01*
X157784761Y-148818952D01*
X157822857Y-148838000D01*
X157841904Y-148857047D01*
X157860952Y-148895142D01*
X157860952Y-148933238D01*
X157841904Y-148990380D01*
X157613333Y-149218952D01*
X157860952Y-149218952D01*
X157975238Y-148818952D02*
X158108571Y-149218952D01*
X158241904Y-148818952D01*
D10*
X181582190Y-131175142D02*
X181582190Y-131460857D01*
X181582190Y-131318000D02*
X181082190Y-131318000D01*
X181153619Y-131365619D01*
X181201238Y-131413238D01*
X181225047Y-131460857D01*
X187178190Y-122586761D02*
X187178190Y-122682000D01*
X187202000Y-122729619D01*
X187225809Y-122753428D01*
X187297238Y-122801047D01*
X187392476Y-122824857D01*
X187582952Y-122824857D01*
X187630571Y-122801047D01*
X187654380Y-122777238D01*
X187678190Y-122729619D01*
X187678190Y-122634380D01*
X187654380Y-122586761D01*
X187630571Y-122562952D01*
X187582952Y-122539142D01*
X187463904Y-122539142D01*
X187416285Y-122562952D01*
X187392476Y-122586761D01*
X187368666Y-122634380D01*
X187368666Y-122729619D01*
X187392476Y-122777238D01*
X187416285Y-122801047D01*
X187463904Y-122824857D01*
X134072285Y-152485285D02*
X133643714Y-152485285D01*
X133858000Y-152485285D02*
X133858000Y-151735285D01*
X133786571Y-151842428D01*
X133715142Y-151913857D01*
X133643714Y-151949571D01*
X167219285Y-148421285D02*
X166790714Y-148421285D01*
X167005000Y-148421285D02*
X167005000Y-147671285D01*
X166933571Y-147778428D01*
X166862142Y-147849857D01*
X166790714Y-147885571D01*
X151979285Y-148167285D02*
X151550714Y-148167285D01*
X151765000Y-148167285D02*
X151765000Y-147417285D01*
X151693571Y-147524428D01*
X151622142Y-147595857D01*
X151550714Y-147631571D01*
X187344857Y-131222761D02*
X187678190Y-131222761D01*
X187154380Y-131341809D02*
X187511523Y-131460857D01*
X187511523Y-131151333D01*
D13*
X159715238Y-148838000D02*
X159677142Y-148818952D01*
X159620000Y-148818952D01*
X159562857Y-148838000D01*
X159524761Y-148876095D01*
X159505714Y-148914190D01*
X159486666Y-148990380D01*
X159486666Y-149047523D01*
X159505714Y-149123714D01*
X159524761Y-149161809D01*
X159562857Y-149199904D01*
X159620000Y-149218952D01*
X159658095Y-149218952D01*
X159715238Y-149199904D01*
X159734285Y-149180857D01*
X159734285Y-149047523D01*
X159658095Y-149047523D01*
X159905714Y-149218952D02*
X159905714Y-148818952D01*
X160134285Y-149218952D01*
X160134285Y-148818952D01*
X160324761Y-149218952D02*
X160324761Y-148818952D01*
X160420000Y-148818952D01*
X160477142Y-148838000D01*
X160515238Y-148876095D01*
X160534285Y-148914190D01*
X160553333Y-148990380D01*
X160553333Y-149047523D01*
X160534285Y-149123714D01*
X160515238Y-149161809D01*
X160477142Y-149199904D01*
X160420000Y-149218952D01*
X160324761Y-149218952D01*
X162255238Y-148838000D02*
X162217142Y-148818952D01*
X162160000Y-148818952D01*
X162102857Y-148838000D01*
X162064761Y-148876095D01*
X162045714Y-148914190D01*
X162026666Y-148990380D01*
X162026666Y-149047523D01*
X162045714Y-149123714D01*
X162064761Y-149161809D01*
X162102857Y-149199904D01*
X162160000Y-149218952D01*
X162198095Y-149218952D01*
X162255238Y-149199904D01*
X162274285Y-149180857D01*
X162274285Y-149047523D01*
X162198095Y-149047523D01*
X162445714Y-149218952D02*
X162445714Y-148818952D01*
X162674285Y-149218952D01*
X162674285Y-148818952D01*
X162864761Y-149218952D02*
X162864761Y-148818952D01*
X162960000Y-148818952D01*
X163017142Y-148838000D01*
X163055238Y-148876095D01*
X163074285Y-148914190D01*
X163093333Y-148990380D01*
X163093333Y-149047523D01*
X163074285Y-149123714D01*
X163055238Y-149161809D01*
X163017142Y-149199904D01*
X162960000Y-149218952D01*
X162864761Y-149218952D01*
X164585714Y-149066571D02*
X164890476Y-149066571D01*
X164738095Y-149218952D02*
X164738095Y-148914190D01*
X165271428Y-148818952D02*
X165080952Y-148818952D01*
X165061904Y-149009428D01*
X165080952Y-148990380D01*
X165119047Y-148971333D01*
X165214285Y-148971333D01*
X165252380Y-148990380D01*
X165271428Y-149009428D01*
X165290476Y-149047523D01*
X165290476Y-149142761D01*
X165271428Y-149180857D01*
X165252380Y-149199904D01*
X165214285Y-149218952D01*
X165119047Y-149218952D01*
X165080952Y-149199904D01*
X165061904Y-149180857D01*
X165404761Y-148818952D02*
X165538095Y-149218952D01*
X165671428Y-148818952D01*
X162695714Y-142221714D02*
X162395714Y-142221714D01*
X162695714Y-142050285D01*
X162395714Y-142050285D01*
X162667142Y-141736000D02*
X162681428Y-141750285D01*
X162695714Y-141793142D01*
X162695714Y-141821714D01*
X162681428Y-141864571D01*
X162652857Y-141893142D01*
X162624285Y-141907428D01*
X162567142Y-141921714D01*
X162524285Y-141921714D01*
X162467142Y-141907428D01*
X162438571Y-141893142D01*
X162410000Y-141864571D01*
X162395714Y-141821714D01*
X162395714Y-141793142D01*
X162410000Y-141750285D01*
X162424285Y-141736000D01*
X172855714Y-141967714D02*
X172555714Y-141967714D01*
X172855714Y-141796285D01*
X172555714Y-141796285D01*
X172827142Y-141482000D02*
X172841428Y-141496285D01*
X172855714Y-141539142D01*
X172855714Y-141567714D01*
X172841428Y-141610571D01*
X172812857Y-141639142D01*
X172784285Y-141653428D01*
X172727142Y-141667714D01*
X172684285Y-141667714D01*
X172627142Y-141653428D01*
X172598571Y-141639142D01*
X172570000Y-141610571D01*
X172555714Y-141567714D01*
X172555714Y-141539142D01*
X172570000Y-141496285D01*
X172584285Y-141482000D01*
X177964285Y-142968571D02*
X177964285Y-142740000D01*
X177907142Y-142497142D02*
X177921428Y-142511428D01*
X177935714Y-142554285D01*
X177935714Y-142582857D01*
X177921428Y-142625714D01*
X177892857Y-142654285D01*
X177864285Y-142668571D01*
X177807142Y-142682857D01*
X177764285Y-142682857D01*
X177707142Y-142668571D01*
X177678571Y-142654285D01*
X177650000Y-142625714D01*
X177635714Y-142582857D01*
X177635714Y-142554285D01*
X177650000Y-142511428D01*
X177664285Y-142497142D01*
X177935714Y-142368571D02*
X177635714Y-142368571D01*
X177778571Y-142368571D02*
X177778571Y-142197142D01*
X177935714Y-142197142D02*
X177635714Y-142197142D01*
X177935714Y-142054285D02*
X177635714Y-142054285D01*
X177935714Y-141882857D01*
X177635714Y-141882857D01*
X177650000Y-141582857D02*
X177635714Y-141611428D01*
X177635714Y-141654285D01*
X177650000Y-141697142D01*
X177678571Y-141725714D01*
X177707142Y-141740000D01*
X177764285Y-141754285D01*
X177807142Y-141754285D01*
X177864285Y-141740000D01*
X177892857Y-141725714D01*
X177921428Y-141697142D01*
X177935714Y-141654285D01*
X177935714Y-141625714D01*
X177921428Y-141582857D01*
X177907142Y-141568571D01*
X177807142Y-141568571D01*
X177807142Y-141625714D01*
X175424285Y-143018571D02*
X175424285Y-142790000D01*
X175395714Y-142718571D02*
X175095714Y-142718571D01*
X175395714Y-142575714D02*
X175095714Y-142575714D01*
X175395714Y-142404285D01*
X175095714Y-142404285D01*
X175095714Y-142261428D02*
X175338571Y-142261428D01*
X175367142Y-142247142D01*
X175381428Y-142232857D01*
X175395714Y-142204285D01*
X175395714Y-142147142D01*
X175381428Y-142118571D01*
X175367142Y-142104285D01*
X175338571Y-142090000D01*
X175095714Y-142090000D01*
X175381428Y-141961428D02*
X175395714Y-141918571D01*
X175395714Y-141847142D01*
X175381428Y-141818571D01*
X175367142Y-141804285D01*
X175338571Y-141790000D01*
X175310000Y-141790000D01*
X175281428Y-141804285D01*
X175267142Y-141818571D01*
X175252857Y-141847142D01*
X175238571Y-141904285D01*
X175224285Y-141932857D01*
X175210000Y-141947142D01*
X175181428Y-141961428D01*
X175152857Y-141961428D01*
X175124285Y-141947142D01*
X175110000Y-141932857D01*
X175095714Y-141904285D01*
X175095714Y-141832857D01*
X175110000Y-141790000D01*
X175238571Y-141661428D02*
X175238571Y-141561428D01*
X175395714Y-141518571D02*
X175395714Y-141661428D01*
X175095714Y-141661428D01*
X175095714Y-141518571D01*
D12*
X170399047Y-143268571D02*
X170399047Y-142963809D01*
X170360952Y-142868571D02*
X169960952Y-142868571D01*
X170360952Y-142678095D02*
X169960952Y-142678095D01*
X170360952Y-142449523D01*
X169960952Y-142449523D01*
X170360952Y-142259047D02*
X169960952Y-142259047D01*
X169960952Y-142163809D01*
X169980000Y-142106666D01*
X170018095Y-142068571D01*
X170056190Y-142049523D01*
X170132380Y-142030476D01*
X170189523Y-142030476D01*
X170265714Y-142049523D01*
X170303809Y-142068571D01*
X170341904Y-142106666D01*
X170360952Y-142163809D01*
X170360952Y-142259047D01*
X170151428Y-141859047D02*
X170151428Y-141725714D01*
X170360952Y-141668571D02*
X170360952Y-141859047D01*
X169960952Y-141859047D01*
X169960952Y-141668571D01*
X169960952Y-141535238D02*
X170360952Y-141268571D01*
X169960952Y-141268571D02*
X170360952Y-141535238D01*
D14*
X167968571Y-143808285D02*
X167968571Y-143351142D01*
X167882857Y-143236857D02*
X167911428Y-143151142D01*
X167911428Y-143008285D01*
X167882857Y-142951142D01*
X167854285Y-142922571D01*
X167797142Y-142894000D01*
X167740000Y-142894000D01*
X167682857Y-142922571D01*
X167654285Y-142951142D01*
X167625714Y-143008285D01*
X167597142Y-143122571D01*
X167568571Y-143179714D01*
X167540000Y-143208285D01*
X167482857Y-143236857D01*
X167425714Y-143236857D01*
X167368571Y-143208285D01*
X167340000Y-143179714D01*
X167311428Y-143122571D01*
X167311428Y-142979714D01*
X167340000Y-142894000D01*
X167597142Y-142636857D02*
X167597142Y-142436857D01*
X167911428Y-142351142D02*
X167911428Y-142636857D01*
X167311428Y-142636857D01*
X167311428Y-142351142D01*
X167911428Y-141808285D02*
X167911428Y-142094000D01*
X167311428Y-142094000D01*
X167311428Y-141494000D02*
X167311428Y-141436857D01*
X167340000Y-141379714D01*
X167368571Y-141351142D01*
X167425714Y-141322571D01*
X167540000Y-141294000D01*
X167682857Y-141294000D01*
X167797142Y-141322571D01*
X167854285Y-141351142D01*
X167882857Y-141379714D01*
X167911428Y-141436857D01*
X167911428Y-141494000D01*
X167882857Y-141551142D01*
X167854285Y-141579714D01*
X167797142Y-141608285D01*
X167682857Y-141636857D01*
X167540000Y-141636857D01*
X167425714Y-141608285D01*
X167368571Y-141579714D01*
X167340000Y-141551142D01*
X167311428Y-141494000D01*
X165428571Y-143808285D02*
X165428571Y-143351142D01*
X165342857Y-143236857D02*
X165371428Y-143151142D01*
X165371428Y-143008285D01*
X165342857Y-142951142D01*
X165314285Y-142922571D01*
X165257142Y-142894000D01*
X165200000Y-142894000D01*
X165142857Y-142922571D01*
X165114285Y-142951142D01*
X165085714Y-143008285D01*
X165057142Y-143122571D01*
X165028571Y-143179714D01*
X165000000Y-143208285D01*
X164942857Y-143236857D01*
X164885714Y-143236857D01*
X164828571Y-143208285D01*
X164800000Y-143179714D01*
X164771428Y-143122571D01*
X164771428Y-142979714D01*
X164800000Y-142894000D01*
X165057142Y-142636857D02*
X165057142Y-142436857D01*
X165371428Y-142351142D02*
X165371428Y-142636857D01*
X164771428Y-142636857D01*
X164771428Y-142351142D01*
X165371428Y-141808285D02*
X165371428Y-142094000D01*
X164771428Y-142094000D01*
X165371428Y-141294000D02*
X165371428Y-141636857D01*
X165371428Y-141465428D02*
X164771428Y-141465428D01*
X164857142Y-141522571D01*
X164914285Y-141579714D01*
X164942857Y-141636857D01*
D12*
X160239047Y-142973333D02*
X160239047Y-142668571D01*
X160200952Y-142573333D02*
X159800952Y-142573333D01*
X160086666Y-142440000D01*
X159800952Y-142306666D01*
X160200952Y-142306666D01*
X159800952Y-142173333D02*
X159800952Y-141944761D01*
X160200952Y-142059047D02*
X159800952Y-142059047D01*
X160200952Y-141582857D02*
X160010476Y-141716190D01*
X160200952Y-141811428D02*
X159800952Y-141811428D01*
X159800952Y-141659047D01*
X159820000Y-141620952D01*
X159839047Y-141601904D01*
X159877142Y-141582857D01*
X159934285Y-141582857D01*
X159972380Y-141601904D01*
X159991428Y-141620952D01*
X160010476Y-141659047D01*
X160010476Y-141811428D01*
X157699047Y-142633619D02*
X157699047Y-142328857D01*
X157660952Y-142233619D02*
X157260952Y-142233619D01*
X157260952Y-142138380D01*
X157280000Y-142081238D01*
X157318095Y-142043142D01*
X157356190Y-142024095D01*
X157432380Y-142005047D01*
X157489523Y-142005047D01*
X157565714Y-142024095D01*
X157603809Y-142043142D01*
X157641904Y-142081238D01*
X157660952Y-142138380D01*
X157660952Y-142233619D01*
X157660952Y-141833619D02*
X157260952Y-141833619D01*
X157660952Y-141414571D02*
X157470476Y-141547904D01*
X157660952Y-141643142D02*
X157260952Y-141643142D01*
X157260952Y-141490761D01*
X157280000Y-141452666D01*
X157299047Y-141433619D01*
X157337142Y-141414571D01*
X157394285Y-141414571D01*
X157432380Y-141433619D01*
X157451428Y-141452666D01*
X157470476Y-141490761D01*
X157470476Y-141643142D01*
X155159047Y-143116190D02*
X155159047Y-142811428D01*
X155101904Y-142735238D02*
X155120952Y-142678095D01*
X155120952Y-142582857D01*
X155101904Y-142544761D01*
X155082857Y-142525714D01*
X155044761Y-142506666D01*
X155006666Y-142506666D01*
X154968571Y-142525714D01*
X154949523Y-142544761D01*
X154930476Y-142582857D01*
X154911428Y-142659047D01*
X154892380Y-142697142D01*
X154873333Y-142716190D01*
X154835238Y-142735238D01*
X154797142Y-142735238D01*
X154759047Y-142716190D01*
X154740000Y-142697142D01*
X154720952Y-142659047D01*
X154720952Y-142563809D01*
X154740000Y-142506666D01*
X154720952Y-142392380D02*
X154720952Y-142163809D01*
X155120952Y-142278095D02*
X154720952Y-142278095D01*
X154911428Y-142030476D02*
X154911428Y-141897142D01*
X155120952Y-141840000D02*
X155120952Y-142030476D01*
X154720952Y-142030476D01*
X154720952Y-141840000D01*
X155120952Y-141668571D02*
X154720952Y-141668571D01*
X154720952Y-141516190D01*
X154740000Y-141478095D01*
X154759047Y-141459047D01*
X154797142Y-141440000D01*
X154854285Y-141440000D01*
X154892380Y-141459047D01*
X154911428Y-141478095D01*
X154930476Y-141516190D01*
X154930476Y-141668571D01*
X152619047Y-143474952D02*
X152619047Y-143170190D01*
X152580952Y-143074952D02*
X152180952Y-143074952D01*
X152180952Y-142979714D01*
X152200000Y-142922571D01*
X152238095Y-142884476D01*
X152276190Y-142865428D01*
X152352380Y-142846380D01*
X152409523Y-142846380D01*
X152485714Y-142865428D01*
X152523809Y-142884476D01*
X152561904Y-142922571D01*
X152580952Y-142979714D01*
X152580952Y-143074952D01*
X152580952Y-142674952D02*
X152180952Y-142674952D01*
X152580952Y-142446380D02*
X152352380Y-142617809D01*
X152180952Y-142446380D02*
X152409523Y-142674952D01*
X152180952Y-142313047D02*
X152580952Y-142217809D01*
X152295238Y-142141619D01*
X152580952Y-142065428D01*
X152180952Y-141970190D01*
X152580952Y-141817809D02*
X152180952Y-141817809D01*
X152180952Y-141722571D01*
X152200000Y-141665428D01*
X152238095Y-141627333D01*
X152276190Y-141608285D01*
X152352380Y-141589238D01*
X152409523Y-141589238D01*
X152485714Y-141608285D01*
X152523809Y-141627333D01*
X152561904Y-141665428D01*
X152580952Y-141722571D01*
X152580952Y-141817809D01*
X150079047Y-143201904D02*
X150079047Y-142897142D01*
X150040952Y-142801904D02*
X149640952Y-142801904D01*
X149640952Y-142706666D01*
X149660000Y-142649523D01*
X149698095Y-142611428D01*
X149736190Y-142592380D01*
X149812380Y-142573333D01*
X149869523Y-142573333D01*
X149945714Y-142592380D01*
X149983809Y-142611428D01*
X150021904Y-142649523D01*
X150040952Y-142706666D01*
X150040952Y-142801904D01*
X150040952Y-142401904D02*
X149640952Y-142401904D01*
X150040952Y-142173333D02*
X149812380Y-142344761D01*
X149640952Y-142173333D02*
X149869523Y-142401904D01*
X149640952Y-142040000D02*
X150040952Y-141944761D01*
X149755238Y-141868571D01*
X150040952Y-141792380D01*
X149640952Y-141697142D01*
X149831428Y-141544761D02*
X149831428Y-141411428D01*
X150040952Y-141354285D02*
X150040952Y-141544761D01*
X149640952Y-141544761D01*
X149640952Y-141354285D01*
X147539047Y-143135238D02*
X147539047Y-142830476D01*
X147100952Y-142792380D02*
X147100952Y-142563809D01*
X147500952Y-142678095D02*
X147100952Y-142678095D01*
X147500952Y-142201904D02*
X147310476Y-142335238D01*
X147500952Y-142430476D02*
X147100952Y-142430476D01*
X147100952Y-142278095D01*
X147120000Y-142240000D01*
X147139047Y-142220952D01*
X147177142Y-142201904D01*
X147234285Y-142201904D01*
X147272380Y-142220952D01*
X147291428Y-142240000D01*
X147310476Y-142278095D01*
X147310476Y-142430476D01*
X147500952Y-142030476D02*
X147100952Y-142030476D01*
X147500952Y-141801904D02*
X147272380Y-141973333D01*
X147100952Y-141801904D02*
X147329523Y-142030476D01*
X147100952Y-141554285D02*
X147100952Y-141516190D01*
X147120000Y-141478095D01*
X147139047Y-141459047D01*
X147177142Y-141440000D01*
X147253333Y-141420952D01*
X147348571Y-141420952D01*
X147424761Y-141440000D01*
X147462857Y-141459047D01*
X147481904Y-141478095D01*
X147500952Y-141516190D01*
X147500952Y-141554285D01*
X147481904Y-141592380D01*
X147462857Y-141611428D01*
X147424761Y-141630476D01*
X147348571Y-141649523D01*
X147253333Y-141649523D01*
X147177142Y-141630476D01*
X147139047Y-141611428D01*
X147120000Y-141592380D01*
X147100952Y-141554285D01*
X144999047Y-143836857D02*
X144999047Y-143532095D01*
X144560952Y-143474952D02*
X144960952Y-143379714D01*
X144675238Y-143303523D01*
X144960952Y-143227333D01*
X144560952Y-143132095D01*
X144960952Y-142751142D02*
X144770476Y-142884476D01*
X144960952Y-142979714D02*
X144560952Y-142979714D01*
X144560952Y-142827333D01*
X144580000Y-142789238D01*
X144599047Y-142770190D01*
X144637142Y-142751142D01*
X144694285Y-142751142D01*
X144732380Y-142770190D01*
X144751428Y-142789238D01*
X144770476Y-142827333D01*
X144770476Y-142979714D01*
X144960952Y-142579714D02*
X144560952Y-142579714D01*
X144560952Y-142427333D01*
X144580000Y-142389238D01*
X144599047Y-142370190D01*
X144637142Y-142351142D01*
X144694285Y-142351142D01*
X144732380Y-142370190D01*
X144751428Y-142389238D01*
X144770476Y-142427333D01*
X144770476Y-142579714D01*
X144960952Y-141951142D02*
X144770476Y-142084476D01*
X144960952Y-142179714D02*
X144560952Y-142179714D01*
X144560952Y-142027333D01*
X144580000Y-141989238D01*
X144599047Y-141970190D01*
X144637142Y-141951142D01*
X144694285Y-141951142D01*
X144732380Y-141970190D01*
X144751428Y-141989238D01*
X144770476Y-142027333D01*
X144770476Y-142179714D01*
X144560952Y-141703523D02*
X144560952Y-141627333D01*
X144580000Y-141589238D01*
X144618095Y-141551142D01*
X144694285Y-141532095D01*
X144827619Y-141532095D01*
X144903809Y-141551142D01*
X144941904Y-141589238D01*
X144960952Y-141627333D01*
X144960952Y-141703523D01*
X144941904Y-141741619D01*
X144903809Y-141779714D01*
X144827619Y-141798761D01*
X144694285Y-141798761D01*
X144618095Y-141779714D01*
X144580000Y-141741619D01*
X144560952Y-141703523D01*
X144560952Y-141417809D02*
X144560952Y-141189238D01*
X144960952Y-141303523D02*
X144560952Y-141303523D01*
X142459047Y-143192380D02*
X142459047Y-142887619D01*
X142420952Y-142792380D02*
X142020952Y-142792380D01*
X142020952Y-142697142D01*
X142040000Y-142640000D01*
X142078095Y-142601904D01*
X142116190Y-142582857D01*
X142192380Y-142563809D01*
X142249523Y-142563809D01*
X142325714Y-142582857D01*
X142363809Y-142601904D01*
X142401904Y-142640000D01*
X142420952Y-142697142D01*
X142420952Y-142792380D01*
X142420952Y-142392380D02*
X142020952Y-142392380D01*
X142420952Y-142163809D02*
X142192380Y-142335238D01*
X142020952Y-142163809D02*
X142249523Y-142392380D01*
X142420952Y-141763809D02*
X142230476Y-141897142D01*
X142420952Y-141992380D02*
X142020952Y-141992380D01*
X142020952Y-141840000D01*
X142040000Y-141801904D01*
X142059047Y-141782857D01*
X142097142Y-141763809D01*
X142154285Y-141763809D01*
X142192380Y-141782857D01*
X142211428Y-141801904D01*
X142230476Y-141840000D01*
X142230476Y-141992380D01*
X142420952Y-141592380D02*
X142020952Y-141592380D01*
X142020952Y-141497142D01*
X142040000Y-141440000D01*
X142078095Y-141401904D01*
X142116190Y-141382857D01*
X142192380Y-141363809D01*
X142249523Y-141363809D01*
X142325714Y-141382857D01*
X142363809Y-141401904D01*
X142401904Y-141440000D01*
X142420952Y-141497142D01*
X142420952Y-141592380D01*
X139919047Y-143059047D02*
X139919047Y-142754285D01*
X139861904Y-142678095D02*
X139880952Y-142620952D01*
X139880952Y-142525714D01*
X139861904Y-142487619D01*
X139842857Y-142468571D01*
X139804761Y-142449523D01*
X139766666Y-142449523D01*
X139728571Y-142468571D01*
X139709523Y-142487619D01*
X139690476Y-142525714D01*
X139671428Y-142601904D01*
X139652380Y-142640000D01*
X139633333Y-142659047D01*
X139595238Y-142678095D01*
X139557142Y-142678095D01*
X139519047Y-142659047D01*
X139500000Y-142640000D01*
X139480952Y-142601904D01*
X139480952Y-142506666D01*
X139500000Y-142449523D01*
X139880952Y-142278095D02*
X139480952Y-142278095D01*
X139880952Y-142087619D02*
X139480952Y-142087619D01*
X139480952Y-141992380D01*
X139500000Y-141935238D01*
X139538095Y-141897142D01*
X139576190Y-141878095D01*
X139652380Y-141859047D01*
X139709523Y-141859047D01*
X139785714Y-141878095D01*
X139823809Y-141897142D01*
X139861904Y-141935238D01*
X139880952Y-141992380D01*
X139880952Y-142087619D01*
X139671428Y-141687619D02*
X139671428Y-141554285D01*
X139880952Y-141497142D02*
X139880952Y-141687619D01*
X139480952Y-141687619D01*
X139480952Y-141497142D01*
X137379047Y-142709809D02*
X137379047Y-142405047D01*
X137340952Y-142081238D02*
X137150476Y-142214571D01*
X137340952Y-142309809D02*
X136940952Y-142309809D01*
X136940952Y-142157428D01*
X136960000Y-142119333D01*
X136979047Y-142100285D01*
X137017142Y-142081238D01*
X137074285Y-142081238D01*
X137112380Y-142100285D01*
X137131428Y-142119333D01*
X137150476Y-142157428D01*
X137150476Y-142309809D01*
X137340952Y-141909809D02*
X136940952Y-141909809D01*
X136940952Y-141814571D01*
X136960000Y-141757428D01*
X136998095Y-141719333D01*
X137036190Y-141700285D01*
X137112380Y-141681238D01*
X137169523Y-141681238D01*
X137245714Y-141700285D01*
X137283809Y-141719333D01*
X137321904Y-141757428D01*
X137340952Y-141814571D01*
X137340952Y-141909809D01*
X137150476Y-141433619D02*
X137340952Y-141433619D01*
X136940952Y-141566952D02*
X137150476Y-141433619D01*
X136940952Y-141300285D01*
D10*
X134866142Y-151419714D02*
X135247095Y-151419714D01*
X135056619Y-151610190D02*
X135056619Y-151229238D01*
X135723285Y-151110190D02*
X135485190Y-151110190D01*
X135461380Y-151348285D01*
X135485190Y-151324476D01*
X135532809Y-151300666D01*
X135651857Y-151300666D01*
X135699476Y-151324476D01*
X135723285Y-151348285D01*
X135747095Y-151395904D01*
X135747095Y-151514952D01*
X135723285Y-151562571D01*
X135699476Y-151586380D01*
X135651857Y-151610190D01*
X135532809Y-151610190D01*
X135485190Y-151586380D01*
X135461380Y-151562571D01*
X135889952Y-151110190D02*
X136056619Y-151610190D01*
X136223285Y-151110190D01*
X135128047Y-148594000D02*
X135080428Y-148570190D01*
X135009000Y-148570190D01*
X134937571Y-148594000D01*
X134889952Y-148641619D01*
X134866142Y-148689238D01*
X134842333Y-148784476D01*
X134842333Y-148855904D01*
X134866142Y-148951142D01*
X134889952Y-148998761D01*
X134937571Y-149046380D01*
X135009000Y-149070190D01*
X135056619Y-149070190D01*
X135128047Y-149046380D01*
X135151857Y-149022571D01*
X135151857Y-148855904D01*
X135056619Y-148855904D01*
X135366142Y-149070190D02*
X135366142Y-148570190D01*
X135651857Y-149070190D01*
X135651857Y-148570190D01*
X135889952Y-149070190D02*
X135889952Y-148570190D01*
X136009000Y-148570190D01*
X136080428Y-148594000D01*
X136128047Y-148641619D01*
X136151857Y-148689238D01*
X136175666Y-148784476D01*
X136175666Y-148855904D01*
X136151857Y-148951142D01*
X136128047Y-148998761D01*
X136080428Y-149046380D01*
X136009000Y-149070190D01*
X135889952Y-149070190D01*
X135128047Y-146054000D02*
X135080428Y-146030190D01*
X135009000Y-146030190D01*
X134937571Y-146054000D01*
X134889952Y-146101619D01*
X134866142Y-146149238D01*
X134842333Y-146244476D01*
X134842333Y-146315904D01*
X134866142Y-146411142D01*
X134889952Y-146458761D01*
X134937571Y-146506380D01*
X135009000Y-146530190D01*
X135056619Y-146530190D01*
X135128047Y-146506380D01*
X135151857Y-146482571D01*
X135151857Y-146315904D01*
X135056619Y-146315904D01*
X135366142Y-146530190D02*
X135366142Y-146030190D01*
X135651857Y-146530190D01*
X135651857Y-146030190D01*
X135889952Y-146530190D02*
X135889952Y-146030190D01*
X136009000Y-146030190D01*
X136080428Y-146054000D01*
X136128047Y-146101619D01*
X136151857Y-146149238D01*
X136175666Y-146244476D01*
X136175666Y-146315904D01*
X136151857Y-146411142D01*
X136128047Y-146458761D01*
X136080428Y-146506380D01*
X136009000Y-146530190D01*
X135889952Y-146530190D01*
X134628047Y-143799714D02*
X135009000Y-143799714D01*
X134818523Y-143990190D02*
X134818523Y-143609238D01*
X135509000Y-143990190D02*
X135223285Y-143990190D01*
X135366142Y-143990190D02*
X135366142Y-143490190D01*
X135318523Y-143561619D01*
X135270904Y-143609238D01*
X135223285Y-143633047D01*
X135699476Y-143537809D02*
X135723285Y-143514000D01*
X135770904Y-143490190D01*
X135889952Y-143490190D01*
X135937571Y-143514000D01*
X135961380Y-143537809D01*
X135985190Y-143585428D01*
X135985190Y-143633047D01*
X135961380Y-143704476D01*
X135675666Y-143990190D01*
X135985190Y-143990190D01*
X136128047Y-143490190D02*
X136294714Y-143990190D01*
X136461380Y-143490190D01*
X179863714Y-121102380D02*
X179292285Y-121102380D01*
X179578000Y-121102380D02*
X179578000Y-120102380D01*
X179482761Y-120245238D01*
X179387523Y-120340476D01*
X179292285Y-120388095D01*
X179863714Y-128595380D02*
X179292285Y-128595380D01*
X179578000Y-128595380D02*
X179578000Y-127595380D01*
X179482761Y-127738238D01*
X179387523Y-127833476D01*
X179292285Y-127881095D01*
X180117714Y-136342380D02*
X179546285Y-136342380D01*
X179832000Y-136342380D02*
X179832000Y-135342380D01*
X179736761Y-135485238D01*
X179641523Y-135580476D01*
X179546285Y-135628095D01*
X181082190Y-122848666D02*
X181082190Y-122539142D01*
X181272666Y-122705809D01*
X181272666Y-122634380D01*
X181296476Y-122586761D01*
X181320285Y-122562952D01*
X181367904Y-122539142D01*
X181486952Y-122539142D01*
X181534571Y-122562952D01*
X181558380Y-122586761D01*
X181582190Y-122634380D01*
X181582190Y-122777238D01*
X181558380Y-122824857D01*
X181534571Y-122848666D01*
D12*
X188433047Y-127876190D02*
X188433047Y-127571428D01*
X188375904Y-127495238D02*
X188394952Y-127438095D01*
X188394952Y-127342857D01*
X188375904Y-127304761D01*
X188356857Y-127285714D01*
X188318761Y-127266666D01*
X188280666Y-127266666D01*
X188242571Y-127285714D01*
X188223523Y-127304761D01*
X188204476Y-127342857D01*
X188185428Y-127419047D01*
X188166380Y-127457142D01*
X188147333Y-127476190D01*
X188109238Y-127495238D01*
X188071142Y-127495238D01*
X188033047Y-127476190D01*
X188014000Y-127457142D01*
X187994952Y-127419047D01*
X187994952Y-127323809D01*
X188014000Y-127266666D01*
X188185428Y-127095238D02*
X188185428Y-126961904D01*
X188394952Y-126904761D02*
X188394952Y-127095238D01*
X187994952Y-127095238D01*
X187994952Y-126904761D01*
X188394952Y-126542857D02*
X188394952Y-126733333D01*
X187994952Y-126733333D01*
X188394952Y-126200000D02*
X188394952Y-126428571D01*
X188394952Y-126314285D02*
X187994952Y-126314285D01*
X188052095Y-126352380D01*
X188090190Y-126390476D01*
X188109238Y-126428571D01*
X181067047Y-127876190D02*
X181067047Y-127571428D01*
X181009904Y-127495238D02*
X181028952Y-127438095D01*
X181028952Y-127342857D01*
X181009904Y-127304761D01*
X180990857Y-127285714D01*
X180952761Y-127266666D01*
X180914666Y-127266666D01*
X180876571Y-127285714D01*
X180857523Y-127304761D01*
X180838476Y-127342857D01*
X180819428Y-127419047D01*
X180800380Y-127457142D01*
X180781333Y-127476190D01*
X180743238Y-127495238D01*
X180705142Y-127495238D01*
X180667047Y-127476190D01*
X180648000Y-127457142D01*
X180628952Y-127419047D01*
X180628952Y-127323809D01*
X180648000Y-127266666D01*
X180819428Y-127095238D02*
X180819428Y-126961904D01*
X181028952Y-126904761D02*
X181028952Y-127095238D01*
X180628952Y-127095238D01*
X180628952Y-126904761D01*
X181028952Y-126542857D02*
X181028952Y-126733333D01*
X180628952Y-126733333D01*
X180628952Y-126333333D02*
X180628952Y-126295238D01*
X180648000Y-126257142D01*
X180667047Y-126238095D01*
X180705142Y-126219047D01*
X180781333Y-126200000D01*
X180876571Y-126200000D01*
X180952761Y-126219047D01*
X180990857Y-126238095D01*
X181009904Y-126257142D01*
X181028952Y-126295238D01*
X181028952Y-126333333D01*
X181009904Y-126371428D01*
X180990857Y-126390476D01*
X180952761Y-126409523D01*
X180876571Y-126428571D01*
X180781333Y-126428571D01*
X180705142Y-126409523D01*
X180667047Y-126390476D01*
X180648000Y-126371428D01*
X180628952Y-126333333D01*
X172085000Y-147320000D02*
X172720000Y-147320000D01*
G36*
X172085000Y-149225000D02*
G01*
X171450000Y-149225000D01*
X171450000Y-148590000D01*
X172085000Y-148590000D01*
X172085000Y-149225000D01*
G37*
X172085000Y-149225000D02*
X171450000Y-149225000D01*
X171450000Y-148590000D01*
X172085000Y-148590000D01*
X172085000Y-149225000D01*
G36*
X172720000Y-147320000D02*
G01*
X172085000Y-147320000D01*
X172085000Y-146685000D01*
X172720000Y-146685000D01*
X172720000Y-147320000D01*
G37*
X172720000Y-147320000D02*
X172085000Y-147320000D01*
X172085000Y-146685000D01*
X172720000Y-146685000D01*
X172720000Y-147320000D01*
G36*
X171450000Y-147320000D02*
G01*
X170815000Y-147320000D01*
X170815000Y-146685000D01*
X171450000Y-146685000D01*
X171450000Y-147320000D01*
G37*
X171450000Y-147320000D02*
X170815000Y-147320000D01*
X170815000Y-146685000D01*
X171450000Y-146685000D01*
X171450000Y-147320000D01*
X172085000Y-148590000D02*
X172085000Y-149225000D01*
X171450000Y-148590000D02*
X171450000Y-149225000D01*
X173355000Y-149860000D02*
X173990000Y-149860000D01*
X173355000Y-146685000D02*
X173990000Y-146685000D01*
X173355000Y-146050000D02*
X173990000Y-146050000D01*
X173990000Y-146050000D02*
X173990000Y-150495000D01*
X173355000Y-146050000D02*
X173355000Y-150495000D01*
X173355000Y-150495000D02*
X173990000Y-150495000D01*
X172085000Y-150495000D02*
X172720000Y-150495000D01*
X169545000Y-150495000D02*
X170180000Y-150495000D01*
X172085000Y-149860000D02*
X172085000Y-150495000D01*
X170180000Y-149860000D02*
X170180000Y-150495000D01*
X169545000Y-149860000D02*
X172720000Y-149860000D01*
X168910000Y-149225000D02*
X172720000Y-149225000D01*
X168910000Y-148590000D02*
X173990000Y-148590000D01*
X168910000Y-149225000D02*
X168910000Y-147955000D01*
X168910000Y-147955000D02*
X173990000Y-147955000D01*
X172085000Y-146685000D02*
X172085000Y-147320000D01*
X171450000Y-146685000D02*
X171450000Y-147320000D01*
X170815000Y-146685000D02*
X170815000Y-147955000D01*
X170180000Y-147320000D02*
X171450000Y-147320000D01*
X170180000Y-146685000D02*
X170180000Y-147320000D01*
X172720000Y-145415000D02*
X172720000Y-150495000D01*
X172085000Y-145415000D02*
X172085000Y-146050000D01*
X171450000Y-146050000D02*
X172085000Y-146050000D01*
X171450000Y-145415000D02*
X171450000Y-146050000D01*
X170815000Y-145415000D02*
X170815000Y-146050000D01*
X169545000Y-145415000D02*
X172720000Y-145415000D01*
X168910000Y-146685000D02*
X168910000Y-146050000D01*
X172720000Y-146685000D02*
X168910000Y-146685000D01*
X169545000Y-145415000D02*
X169545000Y-150495000D01*
X168910000Y-146050000D02*
X170815000Y-146050000D01*
D11*
X179130000Y-150555000D02*
X177800000Y-150555000D01*
X179130000Y-149225000D02*
X179130000Y-150555000D01*
X179130000Y-147955000D02*
X176470000Y-147955000D01*
X176470000Y-147955000D02*
X176470000Y-145355000D01*
X179130000Y-147955000D02*
X179130000Y-145355000D01*
X179130000Y-145355000D02*
X176470000Y-145355000D01*
X181804000Y-130810000D02*
X183134000Y-130810000D01*
X181800500Y-130810000D02*
X181800500Y-129480000D01*
X181804000Y-123126500D02*
X187004000Y-123130000D01*
X184404000Y-130873500D02*
X184404000Y-128273500D01*
X181804000Y-128273500D02*
X184404000Y-128273500D01*
X187004000Y-123130000D02*
X187004000Y-130870000D01*
X181804000Y-123126500D02*
X181804000Y-128266500D01*
X184404000Y-130873500D02*
X187004000Y-130870000D01*
X166430000Y-149800000D02*
X166430000Y-151130000D01*
X165100000Y-149800000D02*
X166430000Y-149800000D01*
X163830000Y-149800000D02*
X163830000Y-152460000D01*
X163830000Y-152460000D02*
X156150000Y-152460000D01*
X163830000Y-149800000D02*
X156150000Y-149800000D01*
X156150000Y-149800000D02*
X156150000Y-152460000D01*
X133410000Y-152714000D02*
X132080000Y-152714000D01*
X133410000Y-151384000D02*
X133410000Y-152714000D01*
X133410000Y-150114000D02*
X130750000Y-150114000D01*
X130750000Y-150114000D02*
X130750000Y-142434000D01*
X133410000Y-150114000D02*
X133410000Y-142434000D01*
X133410000Y-142434000D02*
X130750000Y-142434000D01*
X135830000Y-128210000D02*
X135830000Y-133410000D01*
X176530000Y-128210000D02*
X135830000Y-128210000D01*
X179130000Y-133410000D02*
X135830000Y-133410000D01*
X176530000Y-128210000D02*
X176530000Y-130810000D01*
X176530000Y-130810000D02*
X179130000Y-130810000D01*
X179130000Y-130810000D02*
X179130000Y-133410000D01*
X177800000Y-128210000D02*
X179130000Y-128210000D01*
X179130000Y-128210000D02*
X179130000Y-129540000D01*
X135830000Y-119955000D02*
X135830000Y-125155000D01*
X176530000Y-119955000D02*
X135830000Y-119955000D01*
X179130000Y-125155000D02*
X135830000Y-125155000D01*
X176530000Y-119955000D02*
X176530000Y-122555000D01*
X176530000Y-122555000D02*
X179130000Y-122555000D01*
X179130000Y-122555000D02*
X179130000Y-125155000D01*
X177800000Y-119955000D02*
X179130000Y-119955000D01*
X179130000Y-119955000D02*
X179130000Y-121285000D01*
X156150000Y-144974000D02*
X156150000Y-147634000D01*
X163830000Y-144974000D02*
X156150000Y-144974000D01*
X163830000Y-147634000D02*
X156150000Y-147634000D01*
X163830000Y-144974000D02*
X163830000Y-147634000D01*
X165100000Y-144974000D02*
X166430000Y-144974000D01*
X166430000Y-144974000D02*
X166430000Y-146304000D01*
X140910000Y-144974000D02*
X140910000Y-147634000D01*
X148590000Y-144974000D02*
X140910000Y-144974000D01*
X148590000Y-147634000D02*
X140910000Y-147634000D01*
X148590000Y-144974000D02*
X148590000Y-147634000D01*
X149860000Y-144974000D02*
X151190000Y-144974000D01*
X151190000Y-144974000D02*
X151190000Y-146304000D01*
D14*
X169003571Y-151560571D02*
X169075000Y-151596285D01*
X169217857Y-151596285D01*
X169289285Y-151560571D01*
X169325000Y-151489142D01*
X169325000Y-151453428D01*
X169289285Y-151382000D01*
X169217857Y-151346285D01*
X169110714Y-151346285D01*
X169039285Y-151310571D01*
X169003571Y-151239142D01*
X169003571Y-151203428D01*
X169039285Y-151132000D01*
X169110714Y-151096285D01*
X169217857Y-151096285D01*
X169289285Y-151132000D01*
X169753571Y-151596285D02*
X169682142Y-151560571D01*
X169646428Y-151524857D01*
X169610714Y-151453428D01*
X169610714Y-151239142D01*
X169646428Y-151167714D01*
X169682142Y-151132000D01*
X169753571Y-151096285D01*
X169860714Y-151096285D01*
X169932142Y-151132000D01*
X169967857Y-151167714D01*
X170003571Y-151239142D01*
X170003571Y-151453428D01*
X169967857Y-151524857D01*
X169932142Y-151560571D01*
X169860714Y-151596285D01*
X169753571Y-151596285D01*
X170432142Y-151596285D02*
X170360714Y-151560571D01*
X170325000Y-151489142D01*
X170325000Y-150846285D01*
X171039285Y-151596285D02*
X171039285Y-151203428D01*
X171003571Y-151132000D01*
X170932142Y-151096285D01*
X170789285Y-151096285D01*
X170717857Y-151132000D01*
X171039285Y-151560571D02*
X170967857Y-151596285D01*
X170789285Y-151596285D01*
X170717857Y-151560571D01*
X170682142Y-151489142D01*
X170682142Y-151417714D01*
X170717857Y-151346285D01*
X170789285Y-151310571D01*
X170967857Y-151310571D01*
X171039285Y-151274857D01*
X171396428Y-151596285D02*
X171396428Y-151096285D01*
X171396428Y-151239142D02*
X171432142Y-151167714D01*
X171467857Y-151132000D01*
X171539285Y-151096285D01*
X171610714Y-151096285D01*
X171860714Y-151596285D02*
X171860714Y-151096285D01*
X171860714Y-151167714D02*
X171896428Y-151132000D01*
X171967857Y-151096285D01*
X172075000Y-151096285D01*
X172146428Y-151132000D01*
X172182142Y-151203428D01*
X172182142Y-151596285D01*
X172182142Y-151203428D02*
X172217857Y-151132000D01*
X172289285Y-151096285D01*
X172396428Y-151096285D01*
X172467857Y-151132000D01*
X172503571Y-151203428D01*
X172503571Y-151596285D01*
X172967857Y-151596285D02*
X172896428Y-151560571D01*
X172860714Y-151524857D01*
X172825000Y-151453428D01*
X172825000Y-151239142D01*
X172860714Y-151167714D01*
X172896428Y-151132000D01*
X172967857Y-151096285D01*
X173075000Y-151096285D01*
X173146428Y-151132000D01*
X173182142Y-151167714D01*
X173217857Y-151239142D01*
X173217857Y-151453428D01*
X173182142Y-151524857D01*
X173146428Y-151560571D01*
X173075000Y-151596285D01*
X172967857Y-151596285D01*
X173539285Y-151096285D02*
X173539285Y-151596285D01*
X173539285Y-151167714D02*
X173575000Y-151132000D01*
X173646428Y-151096285D01*
X173753571Y-151096285D01*
X173825000Y-151132000D01*
X173860714Y-151203428D01*
X173860714Y-151596285D01*
X176966666Y-151007380D02*
X176966666Y-151721666D01*
X176919047Y-151864523D01*
X176823809Y-151959761D01*
X176680952Y-152007380D01*
X176585714Y-152007380D01*
X177442857Y-152007380D02*
X177442857Y-151007380D01*
X177823809Y-151007380D01*
X177919047Y-151055000D01*
X177966666Y-151102619D01*
X178014285Y-151197857D01*
X178014285Y-151340714D01*
X177966666Y-151435952D01*
X177919047Y-151483571D01*
X177823809Y-151531190D01*
X177442857Y-151531190D01*
X178966666Y-152007380D02*
X178395238Y-152007380D01*
X178680952Y-152007380D02*
X178680952Y-151007380D01*
X178585714Y-151150238D01*
X178490476Y-151245476D01*
X178395238Y-151293095D01*
X183070666Y-122534761D02*
X183213523Y-122582380D01*
X183451619Y-122582380D01*
X183546857Y-122534761D01*
X183594476Y-122487142D01*
X183642095Y-122391904D01*
X183642095Y-122296666D01*
X183594476Y-122201428D01*
X183546857Y-122153809D01*
X183451619Y-122106190D01*
X183261142Y-122058571D01*
X183165904Y-122010952D01*
X183118285Y-121963333D01*
X183070666Y-121868095D01*
X183070666Y-121772857D01*
X183118285Y-121677619D01*
X183165904Y-121630000D01*
X183261142Y-121582380D01*
X183499238Y-121582380D01*
X183642095Y-121630000D01*
X183975428Y-121582380D02*
X184213523Y-122582380D01*
X184404000Y-121868095D01*
X184594476Y-122582380D01*
X184832571Y-121582380D01*
X185737333Y-122582380D02*
X185165904Y-122582380D01*
X185451619Y-122582380D02*
X185451619Y-121582380D01*
X185356380Y-121725238D01*
X185261142Y-121820476D01*
X185165904Y-121868095D01*
X154328904Y-151582380D02*
X154328904Y-150582380D01*
X154709857Y-150582380D01*
X154805095Y-150630000D01*
X154852714Y-150677619D01*
X154900333Y-150772857D01*
X154900333Y-150915714D01*
X154852714Y-151010952D01*
X154805095Y-151058571D01*
X154709857Y-151106190D01*
X154328904Y-151106190D01*
X155233666Y-150582380D02*
X155852714Y-150582380D01*
X155519380Y-150963333D01*
X155662238Y-150963333D01*
X155757476Y-151010952D01*
X155805095Y-151058571D01*
X155852714Y-151153809D01*
X155852714Y-151391904D01*
X155805095Y-151487142D01*
X155757476Y-151534761D01*
X155662238Y-151582380D01*
X155376523Y-151582380D01*
X155281285Y-151534761D01*
X155233666Y-151487142D01*
X136421904Y-148026380D02*
X136421904Y-147026380D01*
X136802857Y-147026380D01*
X136898095Y-147074000D01*
X136945714Y-147121619D01*
X136993333Y-147216857D01*
X136993333Y-147359714D01*
X136945714Y-147454952D01*
X136898095Y-147502571D01*
X136802857Y-147550190D01*
X136421904Y-147550190D01*
X137612380Y-147026380D02*
X137707619Y-147026380D01*
X137802857Y-147074000D01*
X137850476Y-147121619D01*
X137898095Y-147216857D01*
X137945714Y-147407333D01*
X137945714Y-147645428D01*
X137898095Y-147835904D01*
X137850476Y-147931142D01*
X137802857Y-147978761D01*
X137707619Y-148026380D01*
X137612380Y-148026380D01*
X137517142Y-147978761D01*
X137469523Y-147931142D01*
X137421904Y-147835904D01*
X137374285Y-147645428D01*
X137374285Y-147407333D01*
X137421904Y-147216857D01*
X137469523Y-147121619D01*
X137517142Y-147074000D01*
X137612380Y-147026380D01*
X173299523Y-134723142D02*
X173251904Y-134770761D01*
X173109047Y-134818380D01*
X173013809Y-134818380D01*
X172870952Y-134770761D01*
X172775714Y-134675523D01*
X172728095Y-134580285D01*
X172680476Y-134389809D01*
X172680476Y-134246952D01*
X172728095Y-134056476D01*
X172775714Y-133961238D01*
X172870952Y-133866000D01*
X173013809Y-133818380D01*
X173109047Y-133818380D01*
X173251904Y-133866000D01*
X173299523Y-133913619D01*
X173728095Y-134818380D02*
X173728095Y-133818380D01*
X174299523Y-134818380D01*
X174299523Y-133818380D01*
X175299523Y-134818380D02*
X174728095Y-134818380D01*
X175013809Y-134818380D02*
X175013809Y-133818380D01*
X174918571Y-133961238D01*
X174823333Y-134056476D01*
X174728095Y-134104095D01*
X173299523Y-126341142D02*
X173251904Y-126388761D01*
X173109047Y-126436380D01*
X173013809Y-126436380D01*
X172870952Y-126388761D01*
X172775714Y-126293523D01*
X172728095Y-126198285D01*
X172680476Y-126007809D01*
X172680476Y-125864952D01*
X172728095Y-125674476D01*
X172775714Y-125579238D01*
X172870952Y-125484000D01*
X173013809Y-125436380D01*
X173109047Y-125436380D01*
X173251904Y-125484000D01*
X173299523Y-125531619D01*
X173728095Y-126436380D02*
X173728095Y-125436380D01*
X174299523Y-126436380D01*
X174299523Y-125436380D01*
X174728095Y-125531619D02*
X174775714Y-125484000D01*
X174870952Y-125436380D01*
X175109047Y-125436380D01*
X175204285Y-125484000D01*
X175251904Y-125531619D01*
X175299523Y-125626857D01*
X175299523Y-125722095D01*
X175251904Y-125864952D01*
X174680476Y-126436380D01*
X175299523Y-126436380D01*
X154328904Y-147010380D02*
X154328904Y-146010380D01*
X154709857Y-146010380D01*
X154805095Y-146058000D01*
X154852714Y-146105619D01*
X154900333Y-146200857D01*
X154900333Y-146343714D01*
X154852714Y-146438952D01*
X154805095Y-146486571D01*
X154709857Y-146534190D01*
X154328904Y-146534190D01*
X155281285Y-146105619D02*
X155328904Y-146058000D01*
X155424142Y-146010380D01*
X155662238Y-146010380D01*
X155757476Y-146058000D01*
X155805095Y-146105619D01*
X155852714Y-146200857D01*
X155852714Y-146296095D01*
X155805095Y-146438952D01*
X155233666Y-147010380D01*
X155852714Y-147010380D01*
X139088904Y-146756380D02*
X139088904Y-145756380D01*
X139469857Y-145756380D01*
X139565095Y-145804000D01*
X139612714Y-145851619D01*
X139660333Y-145946857D01*
X139660333Y-146089714D01*
X139612714Y-146184952D01*
X139565095Y-146232571D01*
X139469857Y-146280190D01*
X139088904Y-146280190D01*
X140612714Y-146756380D02*
X140041285Y-146756380D01*
X140327000Y-146756380D02*
X140327000Y-145756380D01*
X140231761Y-145899238D01*
X140136523Y-145994476D01*
X140041285Y-146042095D01*
M02*
