M48
; DRILL file {KiCad (5.1.9)-1} date 09/22/21 10:05:05
; FORMAT={-:-/ absolute / inch / decimal}
; #@! TF.CreationDate,2021-09-22T10:05:05+01:00
; #@! TF.GenerationSoftware,Kicad,Pcbnew,(5.1.9)-1
; #@! TF.FileFunction,Plated,1,2,PTH
FMAT,2
INCH
T1C0.0394
%
G90
G05
T1
X4.83Y-5.6
X4.832Y-5.4075
X4.93Y-5.6
X4.932Y-5.4075
X5.03Y-5.6
X5.032Y-5.4075
X5.13Y-5.6
X5.132Y-5.4075
X5.4Y-4.775
X5.4Y-4.875
X5.4Y-5.1
X5.4Y-5.2
X5.4Y-5.4075
X5.4Y-5.5075
X5.5Y-4.775
X5.5Y-4.875
X5.5Y-5.1
X5.5Y-5.2
X5.5Y-5.4075
X5.5Y-5.5075
X5.6Y-4.775
X5.6Y-4.875
X5.6Y-5.1
X5.6Y-5.2
X5.6Y-5.4075
X5.6Y-5.5075
X5.6Y-5.745
X5.7Y-4.775
X5.7Y-4.875
X5.7Y-5.1
X5.7Y-5.2
X5.7Y-5.4075
X5.7Y-5.5075
X5.7Y-5.745
X5.8Y-4.775
X5.8Y-4.875
X5.8Y-5.1
X5.8Y-5.2
X5.8Y-5.4075
X5.8Y-5.5075
X5.8Y-5.745
X5.9Y-4.775
X5.9Y-4.875
X5.9Y-5.1
X5.9Y-5.2
X5.9Y-5.4075
X5.9Y-5.5075
X5.9Y-5.745
X6.0Y-4.775
X6.0Y-4.875
X6.0Y-5.1
X6.0Y-5.2
X6.0Y-5.4075
X6.0Y-5.5075
X6.1Y-4.775
X6.1Y-4.875
X6.1Y-5.1
X6.1Y-5.2
X6.1Y-5.4075
X6.1Y-5.5075
X6.2Y-4.775
X6.2Y-4.875
X6.2Y-5.1
X6.2Y-5.2
X6.2Y-5.4075
X6.2Y-5.5075
X6.2Y-5.745
X6.3Y-4.775
X6.3Y-4.875
X6.3Y-5.1
X6.3Y-5.2
X6.3Y-5.4075
X6.3Y-5.5075
X6.3Y-5.745
X6.4Y-4.775
X6.4Y-4.875
X6.4Y-5.1
X6.4Y-5.2
X6.4Y-5.4075
X6.4Y-5.5075
X6.4Y-5.745
X6.5Y-4.775
X6.5Y-4.875
X6.5Y-5.1
X6.5Y-5.2
X6.5Y-5.4075
X6.5Y-5.5075
X6.5Y-5.745
X6.6Y-4.775
X6.6Y-4.875
X6.6Y-5.1
X6.6Y-5.2
X6.6Y-5.4075
X6.6Y-5.5075
X6.7Y-4.775
X6.7Y-4.875
X6.7Y-5.1
X6.7Y-5.2
X6.7Y-5.4075
X6.7Y-5.5075
X6.8Y-4.775
X6.8Y-4.875
X6.8Y-5.1
X6.8Y-5.2
X6.8Y-5.4075
X6.8Y-5.5075
X6.9Y-4.775
X6.9Y-4.875
X6.9Y-5.1
X6.9Y-5.2
X6.9Y-5.4075
X6.9Y-5.5075
X7.0Y-4.775
X7.0Y-4.875
X7.0Y-5.1
X7.0Y-5.2
X7.0Y-5.4075
X7.0Y-5.5075
X7.0Y-5.65
X7.0Y-5.75
X7.21Y-4.875
X7.21Y-4.975
X7.21Y-5.075
X7.31Y-4.875
X7.31Y-4.975
X7.31Y-5.075
T0
M30
