G04 #@! TF.GenerationSoftware,KiCad,Pcbnew,(5.1.9)-1*
G04 #@! TF.CreationDate,2021-09-22T10:05:06+01:00*
G04 #@! TF.ProjectId,Amiga DF0 DF1 Switcher - Design B - Rev 2,416d6967-6120-4444-9630-204446312053,1*
G04 #@! TF.SameCoordinates,Original*
G04 #@! TF.FileFunction,Legend,Bot*
G04 #@! TF.FilePolarity,Positive*
%FSLAX46Y46*%
G04 Gerber Fmt 4.6, Leading zero omitted, Abs format (unit mm)*
G04 Created by KiCad (PCBNEW (5.1.9)-1) date 2021-09-22 10:05:06*
%MOMM*%
%LPD*%
G01*
G04 APERTURE LIST*
%ADD10C,0.125000*%
%ADD11C,0.120000*%
%ADD12C,0.150000*%
G04 APERTURE END LIST*
D10*
X131865714Y-139531285D02*
X132294285Y-139531285D01*
X132080000Y-139531285D02*
X132080000Y-138781285D01*
X132151428Y-138888428D01*
X132222857Y-138959857D01*
X132294285Y-138995571D01*
X136751142Y-125700285D02*
X136286857Y-125700285D01*
X136536857Y-125986000D01*
X136429714Y-125986000D01*
X136358285Y-126021714D01*
X136322571Y-126057428D01*
X136286857Y-126128857D01*
X136286857Y-126307428D01*
X136322571Y-126378857D01*
X136358285Y-126414571D01*
X136429714Y-126450285D01*
X136644000Y-126450285D01*
X136715428Y-126414571D01*
X136751142Y-126378857D01*
X135644000Y-125950285D02*
X135644000Y-126450285D01*
X135822571Y-125664571D02*
X136001142Y-126200285D01*
X135536857Y-126200285D01*
X136751142Y-133701285D02*
X136286857Y-133701285D01*
X136536857Y-133987000D01*
X136429714Y-133987000D01*
X136358285Y-134022714D01*
X136322571Y-134058428D01*
X136286857Y-134129857D01*
X136286857Y-134308428D01*
X136322571Y-134379857D01*
X136358285Y-134415571D01*
X136429714Y-134451285D01*
X136644000Y-134451285D01*
X136715428Y-134415571D01*
X136751142Y-134379857D01*
X135644000Y-133951285D02*
X135644000Y-134451285D01*
X135822571Y-133665571D02*
X136001142Y-134201285D01*
X135536857Y-134201285D01*
X179603428Y-129012904D02*
X180060571Y-129012904D01*
X179832000Y-129012904D02*
X179832000Y-128212904D01*
X179908190Y-128327190D01*
X179984380Y-128403380D01*
X180060571Y-128441476D01*
X179603428Y-120757904D02*
X180060571Y-120757904D01*
X179832000Y-120757904D02*
X179832000Y-119957904D01*
X179908190Y-120072190D01*
X179984380Y-120148380D01*
X180060571Y-120186476D01*
X175950476Y-126468142D02*
X175998095Y-126515761D01*
X176140952Y-126563380D01*
X176236190Y-126563380D01*
X176379047Y-126515761D01*
X176474285Y-126420523D01*
X176521904Y-126325285D01*
X176569523Y-126134809D01*
X176569523Y-125991952D01*
X176521904Y-125801476D01*
X176474285Y-125706238D01*
X176379047Y-125611000D01*
X176236190Y-125563380D01*
X176140952Y-125563380D01*
X175998095Y-125611000D01*
X175950476Y-125658619D01*
X175521904Y-126563380D02*
X175521904Y-125563380D01*
X174950476Y-126563380D01*
X174950476Y-125563380D01*
X174521904Y-125658619D02*
X174474285Y-125611000D01*
X174379047Y-125563380D01*
X174140952Y-125563380D01*
X174045714Y-125611000D01*
X173998095Y-125658619D01*
X173950476Y-125753857D01*
X173950476Y-125849095D01*
X173998095Y-125991952D01*
X174569523Y-126563380D01*
X173950476Y-126563380D01*
X175823476Y-134596142D02*
X175871095Y-134643761D01*
X176013952Y-134691380D01*
X176109190Y-134691380D01*
X176252047Y-134643761D01*
X176347285Y-134548523D01*
X176394904Y-134453285D01*
X176442523Y-134262809D01*
X176442523Y-134119952D01*
X176394904Y-133929476D01*
X176347285Y-133834238D01*
X176252047Y-133739000D01*
X176109190Y-133691380D01*
X176013952Y-133691380D01*
X175871095Y-133739000D01*
X175823476Y-133786619D01*
X175394904Y-134691380D02*
X175394904Y-133691380D01*
X174823476Y-134691380D01*
X174823476Y-133691380D01*
X173823476Y-134691380D02*
X174394904Y-134691380D01*
X174109190Y-134691380D02*
X174109190Y-133691380D01*
X174204428Y-133834238D01*
X174299666Y-133929476D01*
X174394904Y-133977095D01*
X179546285Y-136342380D02*
X180117714Y-136342380D01*
X179832000Y-136342380D02*
X179832000Y-135342380D01*
X179927238Y-135485238D01*
X180022476Y-135580476D01*
X180117714Y-135628095D01*
X137017023Y-141882880D02*
X136397976Y-141882880D01*
X136731309Y-142263833D01*
X136588452Y-142263833D01*
X136493214Y-142311452D01*
X136445595Y-142359071D01*
X136397976Y-142454309D01*
X136397976Y-142692404D01*
X136445595Y-142787642D01*
X136493214Y-142835261D01*
X136588452Y-142882880D01*
X136874166Y-142882880D01*
X136969404Y-142835261D01*
X137017023Y-142787642D01*
X135540833Y-142216214D02*
X135540833Y-142882880D01*
X135778928Y-141835261D02*
X136017023Y-142549547D01*
X135397976Y-142549547D01*
D11*
X131682800Y-137350500D02*
X131682800Y-136020500D01*
X131682800Y-136020500D02*
X130352800Y-136020500D01*
X129082800Y-136020500D02*
X121402800Y-136020500D01*
X121402800Y-138680500D02*
X121402800Y-136020500D01*
X129082800Y-138680500D02*
X121402800Y-138680500D01*
X129082800Y-138680500D02*
X129082800Y-136020500D01*
X179130000Y-137350500D02*
X179130000Y-136020500D01*
X179130000Y-136020500D02*
X177800000Y-136020500D01*
X179130000Y-138620500D02*
X176530000Y-138620500D01*
X176530000Y-138620500D02*
X176530000Y-136020500D01*
X176530000Y-136020500D02*
X135830000Y-136020500D01*
X135830000Y-141220500D02*
X135830000Y-136020500D01*
X179130000Y-141220500D02*
X135830000Y-141220500D01*
X179130000Y-141220500D02*
X179130000Y-138620500D01*
D12*
X133575180Y-136612404D02*
X132575180Y-136612404D01*
X132575180Y-136993357D01*
X132622800Y-137088595D01*
X132670419Y-137136214D01*
X132765657Y-137183833D01*
X132908514Y-137183833D01*
X133003752Y-137136214D01*
X133051371Y-137088595D01*
X133098990Y-136993357D01*
X133098990Y-136612404D01*
X132575180Y-137802880D02*
X132575180Y-137898119D01*
X132622800Y-137993357D01*
X132670419Y-138040976D01*
X132765657Y-138088595D01*
X132956133Y-138136214D01*
X133194228Y-138136214D01*
X133384704Y-138088595D01*
X133479942Y-138040976D01*
X133527561Y-137993357D01*
X133575180Y-137898119D01*
X133575180Y-137802880D01*
X133527561Y-137707642D01*
X133479942Y-137660023D01*
X133384704Y-137612404D01*
X133194228Y-137564785D01*
X132956133Y-137564785D01*
X132765657Y-137612404D01*
X132670419Y-137660023D01*
X132622800Y-137707642D01*
X132575180Y-137802880D01*
X180443142Y-137993523D02*
X180490761Y-137945904D01*
X180538380Y-137803047D01*
X180538380Y-137707809D01*
X180490761Y-137564952D01*
X180395523Y-137469714D01*
X180300285Y-137422095D01*
X180109809Y-137374476D01*
X179966952Y-137374476D01*
X179776476Y-137422095D01*
X179681238Y-137469714D01*
X179586000Y-137564952D01*
X179538380Y-137707809D01*
X179538380Y-137803047D01*
X179586000Y-137945904D01*
X179633619Y-137993523D01*
X180538380Y-138422095D02*
X179538380Y-138422095D01*
X180538380Y-138993523D01*
X179538380Y-138993523D01*
X179538380Y-139660190D02*
X179538380Y-139755428D01*
X179586000Y-139850666D01*
X179633619Y-139898285D01*
X179728857Y-139945904D01*
X179919333Y-139993523D01*
X180157428Y-139993523D01*
X180347904Y-139945904D01*
X180443142Y-139898285D01*
X180490761Y-139850666D01*
X180538380Y-139755428D01*
X180538380Y-139660190D01*
X180490761Y-139564952D01*
X180443142Y-139517333D01*
X180347904Y-139469714D01*
X180157428Y-139422095D01*
X179919333Y-139422095D01*
X179728857Y-139469714D01*
X179633619Y-139517333D01*
X179586000Y-139564952D01*
X179538380Y-139660190D01*
M02*
