G04 #@! TF.GenerationSoftware,KiCad,Pcbnew,(5.1.9)-1*
G04 #@! TF.CreationDate,2021-09-22T10:05:06+01:00*
G04 #@! TF.ProjectId,Amiga DF0 DF1 Switcher - Design B - Rev 2,416d6967-6120-4444-9630-204446312053,1*
G04 #@! TF.SameCoordinates,Original*
G04 #@! TF.FileFunction,Legend,Top*
G04 #@! TF.FilePolarity,Positive*
%FSLAX46Y46*%
G04 Gerber Fmt 4.6, Leading zero omitted, Abs format (unit mm)*
G04 Created by KiCad (PCBNEW (5.1.9)-1) date 2021-09-22 10:05:06*
%MOMM*%
%LPD*%
G01*
G04 APERTURE LIST*
%ADD10C,0.125000*%
%ADD11C,0.100000*%
%ADD12C,0.120000*%
%ADD13C,0.075000*%
%ADD14C,0.150000*%
G04 APERTURE END LIST*
D10*
X154040314Y-126226857D02*
X154126028Y-126255428D01*
X154268885Y-126255428D01*
X154326028Y-126226857D01*
X154354600Y-126198285D01*
X154383171Y-126141142D01*
X154383171Y-126084000D01*
X154354600Y-126026857D01*
X154326028Y-125998285D01*
X154268885Y-125969714D01*
X154154600Y-125941142D01*
X154097457Y-125912571D01*
X154068885Y-125884000D01*
X154040314Y-125826857D01*
X154040314Y-125769714D01*
X154068885Y-125712571D01*
X154097457Y-125684000D01*
X154154600Y-125655428D01*
X154297457Y-125655428D01*
X154383171Y-125684000D01*
X154868885Y-126226857D02*
X154811742Y-126255428D01*
X154697457Y-126255428D01*
X154640314Y-126226857D01*
X154611742Y-126169714D01*
X154611742Y-125941142D01*
X154640314Y-125884000D01*
X154697457Y-125855428D01*
X154811742Y-125855428D01*
X154868885Y-125884000D01*
X154897457Y-125941142D01*
X154897457Y-125998285D01*
X154611742Y-126055428D01*
X155068885Y-125855428D02*
X155297457Y-125855428D01*
X155154600Y-125655428D02*
X155154600Y-126169714D01*
X155183171Y-126226857D01*
X155240314Y-126255428D01*
X155297457Y-126255428D01*
X155954600Y-126255428D02*
X155954600Y-125655428D01*
X156097457Y-125655428D01*
X156183171Y-125684000D01*
X156240314Y-125741142D01*
X156268885Y-125798285D01*
X156297457Y-125912571D01*
X156297457Y-125998285D01*
X156268885Y-126112571D01*
X156240314Y-126169714D01*
X156183171Y-126226857D01*
X156097457Y-126255428D01*
X155954600Y-126255428D01*
X156554600Y-126255428D02*
X156554600Y-125855428D01*
X156554600Y-125969714D02*
X156583171Y-125912571D01*
X156611742Y-125884000D01*
X156668885Y-125855428D01*
X156726028Y-125855428D01*
X156926028Y-126255428D02*
X156926028Y-125855428D01*
X156926028Y-125655428D02*
X156897457Y-125684000D01*
X156926028Y-125712571D01*
X156954600Y-125684000D01*
X156926028Y-125655428D01*
X156926028Y-125712571D01*
X157154600Y-125855428D02*
X157297457Y-126255428D01*
X157440314Y-125855428D01*
X157897457Y-126226857D02*
X157840314Y-126255428D01*
X157726028Y-126255428D01*
X157668885Y-126226857D01*
X157640314Y-126169714D01*
X157640314Y-125941142D01*
X157668885Y-125884000D01*
X157726028Y-125855428D01*
X157840314Y-125855428D01*
X157897457Y-125884000D01*
X157926028Y-125941142D01*
X157926028Y-125998285D01*
X157640314Y-126055428D01*
X158554600Y-125855428D02*
X158783171Y-125855428D01*
X158640314Y-125655428D02*
X158640314Y-126169714D01*
X158668885Y-126226857D01*
X158726028Y-126255428D01*
X158783171Y-126255428D01*
X159068885Y-126255428D02*
X159011742Y-126226857D01*
X158983171Y-126198285D01*
X158954600Y-126141142D01*
X158954600Y-125969714D01*
X158983171Y-125912571D01*
X159011742Y-125884000D01*
X159068885Y-125855428D01*
X159154600Y-125855428D01*
X159211742Y-125884000D01*
X159240314Y-125912571D01*
X159268885Y-125969714D01*
X159268885Y-126141142D01*
X159240314Y-126198285D01*
X159211742Y-126226857D01*
X159154600Y-126255428D01*
X159068885Y-126255428D01*
X159954600Y-126226857D02*
X160040314Y-126255428D01*
X160183171Y-126255428D01*
X160240314Y-126226857D01*
X160268885Y-126198285D01*
X160297457Y-126141142D01*
X160297457Y-126084000D01*
X160268885Y-126026857D01*
X160240314Y-125998285D01*
X160183171Y-125969714D01*
X160068885Y-125941142D01*
X160011742Y-125912571D01*
X159983171Y-125884000D01*
X159954600Y-125826857D01*
X159954600Y-125769714D01*
X159983171Y-125712571D01*
X160011742Y-125684000D01*
X160068885Y-125655428D01*
X160211742Y-125655428D01*
X160297457Y-125684000D01*
X160668885Y-125655428D02*
X160726028Y-125655428D01*
X160783171Y-125684000D01*
X160811742Y-125712571D01*
X160840314Y-125769714D01*
X160868885Y-125884000D01*
X160868885Y-126026857D01*
X160840314Y-126141142D01*
X160811742Y-126198285D01*
X160783171Y-126226857D01*
X160726028Y-126255428D01*
X160668885Y-126255428D01*
X160611742Y-126226857D01*
X160583171Y-126198285D01*
X160554600Y-126141142D01*
X160526028Y-126026857D01*
X160526028Y-125884000D01*
X160554600Y-125769714D01*
X160583171Y-125712571D01*
X160611742Y-125684000D01*
X160668885Y-125655428D01*
X154065714Y-134329457D02*
X154151428Y-134358028D01*
X154294285Y-134358028D01*
X154351428Y-134329457D01*
X154380000Y-134300885D01*
X154408571Y-134243742D01*
X154408571Y-134186600D01*
X154380000Y-134129457D01*
X154351428Y-134100885D01*
X154294285Y-134072314D01*
X154180000Y-134043742D01*
X154122857Y-134015171D01*
X154094285Y-133986600D01*
X154065714Y-133929457D01*
X154065714Y-133872314D01*
X154094285Y-133815171D01*
X154122857Y-133786600D01*
X154180000Y-133758028D01*
X154322857Y-133758028D01*
X154408571Y-133786600D01*
X154894285Y-134329457D02*
X154837142Y-134358028D01*
X154722857Y-134358028D01*
X154665714Y-134329457D01*
X154637142Y-134272314D01*
X154637142Y-134043742D01*
X154665714Y-133986600D01*
X154722857Y-133958028D01*
X154837142Y-133958028D01*
X154894285Y-133986600D01*
X154922857Y-134043742D01*
X154922857Y-134100885D01*
X154637142Y-134158028D01*
X155094285Y-133958028D02*
X155322857Y-133958028D01*
X155180000Y-133758028D02*
X155180000Y-134272314D01*
X155208571Y-134329457D01*
X155265714Y-134358028D01*
X155322857Y-134358028D01*
X155980000Y-134358028D02*
X155980000Y-133758028D01*
X156122857Y-133758028D01*
X156208571Y-133786600D01*
X156265714Y-133843742D01*
X156294285Y-133900885D01*
X156322857Y-134015171D01*
X156322857Y-134100885D01*
X156294285Y-134215171D01*
X156265714Y-134272314D01*
X156208571Y-134329457D01*
X156122857Y-134358028D01*
X155980000Y-134358028D01*
X156580000Y-134358028D02*
X156580000Y-133958028D01*
X156580000Y-134072314D02*
X156608571Y-134015171D01*
X156637142Y-133986600D01*
X156694285Y-133958028D01*
X156751428Y-133958028D01*
X156951428Y-134358028D02*
X156951428Y-133958028D01*
X156951428Y-133758028D02*
X156922857Y-133786600D01*
X156951428Y-133815171D01*
X156980000Y-133786600D01*
X156951428Y-133758028D01*
X156951428Y-133815171D01*
X157180000Y-133958028D02*
X157322857Y-134358028D01*
X157465714Y-133958028D01*
X157922857Y-134329457D02*
X157865714Y-134358028D01*
X157751428Y-134358028D01*
X157694285Y-134329457D01*
X157665714Y-134272314D01*
X157665714Y-134043742D01*
X157694285Y-133986600D01*
X157751428Y-133958028D01*
X157865714Y-133958028D01*
X157922857Y-133986600D01*
X157951428Y-134043742D01*
X157951428Y-134100885D01*
X157665714Y-134158028D01*
X158580000Y-133958028D02*
X158808571Y-133958028D01*
X158665714Y-133758028D02*
X158665714Y-134272314D01*
X158694285Y-134329457D01*
X158751428Y-134358028D01*
X158808571Y-134358028D01*
X159094285Y-134358028D02*
X159037142Y-134329457D01*
X159008571Y-134300885D01*
X158980000Y-134243742D01*
X158980000Y-134072314D01*
X159008571Y-134015171D01*
X159037142Y-133986600D01*
X159094285Y-133958028D01*
X159180000Y-133958028D01*
X159237142Y-133986600D01*
X159265714Y-134015171D01*
X159294285Y-134072314D01*
X159294285Y-134243742D01*
X159265714Y-134300885D01*
X159237142Y-134329457D01*
X159180000Y-134358028D01*
X159094285Y-134358028D01*
X159980000Y-134329457D02*
X160065714Y-134358028D01*
X160208571Y-134358028D01*
X160265714Y-134329457D01*
X160294285Y-134300885D01*
X160322857Y-134243742D01*
X160322857Y-134186600D01*
X160294285Y-134129457D01*
X160265714Y-134100885D01*
X160208571Y-134072314D01*
X160094285Y-134043742D01*
X160037142Y-134015171D01*
X160008571Y-133986600D01*
X159980000Y-133929457D01*
X159980000Y-133872314D01*
X160008571Y-133815171D01*
X160037142Y-133786600D01*
X160094285Y-133758028D01*
X160237142Y-133758028D01*
X160322857Y-133786600D01*
X160694285Y-133758028D02*
X160751428Y-133758028D01*
X160808571Y-133786600D01*
X160837142Y-133815171D01*
X160865714Y-133872314D01*
X160894285Y-133986600D01*
X160894285Y-134129457D01*
X160865714Y-134243742D01*
X160837142Y-134300885D01*
X160808571Y-134329457D01*
X160751428Y-134358028D01*
X160694285Y-134358028D01*
X160637142Y-134329457D01*
X160608571Y-134300885D01*
X160580000Y-134243742D01*
X160551428Y-134129457D01*
X160551428Y-133986600D01*
X160580000Y-133872314D01*
X160608571Y-133815171D01*
X160637142Y-133786600D01*
X160694285Y-133758028D01*
D11*
X122558666Y-135416952D02*
X122787238Y-135416952D01*
X122672952Y-135816952D02*
X122672952Y-135416952D01*
X122977714Y-135816952D02*
X122939619Y-135797904D01*
X122920571Y-135778857D01*
X122901523Y-135740761D01*
X122901523Y-135626476D01*
X122920571Y-135588380D01*
X122939619Y-135569333D01*
X122977714Y-135550285D01*
X123034857Y-135550285D01*
X123072952Y-135569333D01*
X123092000Y-135588380D01*
X123111047Y-135626476D01*
X123111047Y-135740761D01*
X123092000Y-135778857D01*
X123072952Y-135797904D01*
X123034857Y-135816952D01*
X122977714Y-135816952D01*
X123720571Y-135607428D02*
X123587238Y-135607428D01*
X123587238Y-135816952D02*
X123587238Y-135416952D01*
X123777714Y-135416952D01*
X123987238Y-135816952D02*
X123949142Y-135797904D01*
X123930095Y-135759809D01*
X123930095Y-135416952D01*
X124196761Y-135816952D02*
X124158666Y-135797904D01*
X124139619Y-135778857D01*
X124120571Y-135740761D01*
X124120571Y-135626476D01*
X124139619Y-135588380D01*
X124158666Y-135569333D01*
X124196761Y-135550285D01*
X124253904Y-135550285D01*
X124292000Y-135569333D01*
X124311047Y-135588380D01*
X124330095Y-135626476D01*
X124330095Y-135740761D01*
X124311047Y-135778857D01*
X124292000Y-135797904D01*
X124253904Y-135816952D01*
X124196761Y-135816952D01*
X124501523Y-135550285D02*
X124501523Y-135950285D01*
X124501523Y-135569333D02*
X124539619Y-135550285D01*
X124615809Y-135550285D01*
X124653904Y-135569333D01*
X124672952Y-135588380D01*
X124692000Y-135626476D01*
X124692000Y-135740761D01*
X124672952Y-135778857D01*
X124653904Y-135797904D01*
X124615809Y-135816952D01*
X124539619Y-135816952D01*
X124501523Y-135797904D01*
X124863428Y-135550285D02*
X124863428Y-135950285D01*
X124863428Y-135569333D02*
X124901523Y-135550285D01*
X124977714Y-135550285D01*
X125015809Y-135569333D01*
X125034857Y-135588380D01*
X125053904Y-135626476D01*
X125053904Y-135740761D01*
X125034857Y-135778857D01*
X125015809Y-135797904D01*
X124977714Y-135816952D01*
X124901523Y-135816952D01*
X124863428Y-135797904D01*
X125187238Y-135550285D02*
X125282476Y-135816952D01*
X125377714Y-135550285D02*
X125282476Y-135816952D01*
X125244380Y-135912190D01*
X125225333Y-135931238D01*
X125187238Y-135950285D01*
X125834857Y-135816952D02*
X125834857Y-135416952D01*
X125987238Y-135416952D01*
X126025333Y-135436000D01*
X126044380Y-135455047D01*
X126063428Y-135493142D01*
X126063428Y-135550285D01*
X126044380Y-135588380D01*
X126025333Y-135607428D01*
X125987238Y-135626476D01*
X125834857Y-135626476D01*
X126292000Y-135816952D02*
X126253904Y-135797904D01*
X126234857Y-135778857D01*
X126215809Y-135740761D01*
X126215809Y-135626476D01*
X126234857Y-135588380D01*
X126253904Y-135569333D01*
X126292000Y-135550285D01*
X126349142Y-135550285D01*
X126387238Y-135569333D01*
X126406285Y-135588380D01*
X126425333Y-135626476D01*
X126425333Y-135740761D01*
X126406285Y-135778857D01*
X126387238Y-135797904D01*
X126349142Y-135816952D01*
X126292000Y-135816952D01*
X126558666Y-135550285D02*
X126634857Y-135816952D01*
X126711047Y-135626476D01*
X126787238Y-135816952D01*
X126863428Y-135550285D01*
X127168190Y-135797904D02*
X127130095Y-135816952D01*
X127053904Y-135816952D01*
X127015809Y-135797904D01*
X126996761Y-135759809D01*
X126996761Y-135607428D01*
X127015809Y-135569333D01*
X127053904Y-135550285D01*
X127130095Y-135550285D01*
X127168190Y-135569333D01*
X127187238Y-135607428D01*
X127187238Y-135645523D01*
X126996761Y-135683619D01*
X127358666Y-135816952D02*
X127358666Y-135550285D01*
X127358666Y-135626476D02*
X127377714Y-135588380D01*
X127396761Y-135569333D01*
X127434857Y-135550285D01*
X127472952Y-135550285D01*
X127911047Y-135816952D02*
X127911047Y-135416952D01*
X128101523Y-135550285D02*
X128101523Y-135816952D01*
X128101523Y-135588380D02*
X128120571Y-135569333D01*
X128158666Y-135550285D01*
X128215809Y-135550285D01*
X128253904Y-135569333D01*
X128272952Y-135607428D01*
X128272952Y-135816952D01*
X128406285Y-135550285D02*
X128558666Y-135550285D01*
X128463428Y-135416952D02*
X128463428Y-135759809D01*
X128482476Y-135797904D01*
X128520571Y-135816952D01*
X128558666Y-135816952D01*
X128844380Y-135797904D02*
X128806285Y-135816952D01*
X128730095Y-135816952D01*
X128692000Y-135797904D01*
X128672952Y-135759809D01*
X128672952Y-135607428D01*
X128692000Y-135569333D01*
X128730095Y-135550285D01*
X128806285Y-135550285D01*
X128844380Y-135569333D01*
X128863428Y-135607428D01*
X128863428Y-135645523D01*
X128672952Y-135683619D01*
X129034857Y-135816952D02*
X129034857Y-135550285D01*
X129034857Y-135626476D02*
X129053904Y-135588380D01*
X129072952Y-135569333D01*
X129111047Y-135550285D01*
X129149142Y-135550285D01*
X129225333Y-135550285D02*
X129377714Y-135550285D01*
X129282476Y-135816952D02*
X129282476Y-135474095D01*
X129301523Y-135436000D01*
X129339619Y-135416952D01*
X129377714Y-135416952D01*
X129682476Y-135816952D02*
X129682476Y-135607428D01*
X129663428Y-135569333D01*
X129625333Y-135550285D01*
X129549142Y-135550285D01*
X129511047Y-135569333D01*
X129682476Y-135797904D02*
X129644380Y-135816952D01*
X129549142Y-135816952D01*
X129511047Y-135797904D01*
X129492000Y-135759809D01*
X129492000Y-135721714D01*
X129511047Y-135683619D01*
X129549142Y-135664571D01*
X129644380Y-135664571D01*
X129682476Y-135645523D01*
X130044380Y-135797904D02*
X130006285Y-135816952D01*
X129930095Y-135816952D01*
X129892000Y-135797904D01*
X129872952Y-135778857D01*
X129853904Y-135740761D01*
X129853904Y-135626476D01*
X129872952Y-135588380D01*
X129892000Y-135569333D01*
X129930095Y-135550285D01*
X130006285Y-135550285D01*
X130044380Y-135569333D01*
X130368190Y-135797904D02*
X130330095Y-135816952D01*
X130253904Y-135816952D01*
X130215809Y-135797904D01*
X130196761Y-135759809D01*
X130196761Y-135607428D01*
X130215809Y-135569333D01*
X130253904Y-135550285D01*
X130330095Y-135550285D01*
X130368190Y-135569333D01*
X130387238Y-135607428D01*
X130387238Y-135645523D01*
X130196761Y-135683619D01*
D10*
X132103904Y-137764780D02*
X132103904Y-136764780D01*
X132484857Y-136764780D01*
X132580095Y-136812400D01*
X132627714Y-136860019D01*
X132675333Y-136955257D01*
X132675333Y-137098114D01*
X132627714Y-137193352D01*
X132580095Y-137240971D01*
X132484857Y-137288590D01*
X132103904Y-137288590D01*
X133294380Y-136764780D02*
X133389619Y-136764780D01*
X133484857Y-136812400D01*
X133532476Y-136860019D01*
X133580095Y-136955257D01*
X133627714Y-137145733D01*
X133627714Y-137383828D01*
X133580095Y-137574304D01*
X133532476Y-137669542D01*
X133484857Y-137717161D01*
X133389619Y-137764780D01*
X133294380Y-137764780D01*
X133199142Y-137717161D01*
X133151523Y-137669542D01*
X133103904Y-137574304D01*
X133056285Y-137383828D01*
X133056285Y-137145733D01*
X133103904Y-136955257D01*
X133151523Y-136860019D01*
X133199142Y-136812400D01*
X133294380Y-136764780D01*
D11*
X177088800Y-138684000D02*
X177342800Y-138938000D01*
X176834800Y-138684000D02*
X177088800Y-138684000D01*
X174548800Y-138684000D02*
X174802800Y-138938000D01*
X174294800Y-138684000D02*
X174548800Y-138684000D01*
X172034200Y-138684000D02*
X172288200Y-138938000D01*
X169468800Y-138684000D02*
X169722800Y-138938000D01*
X171780200Y-138684000D02*
X172034200Y-138684000D01*
X169214800Y-138684000D02*
X169468800Y-138684000D01*
D10*
X152825238Y-138283190D02*
X153110952Y-138283190D01*
X152968095Y-138783190D02*
X152968095Y-138283190D01*
X153349047Y-138783190D02*
X153301428Y-138759380D01*
X153277619Y-138735571D01*
X153253809Y-138687952D01*
X153253809Y-138545095D01*
X153277619Y-138497476D01*
X153301428Y-138473666D01*
X153349047Y-138449857D01*
X153420476Y-138449857D01*
X153468095Y-138473666D01*
X153491904Y-138497476D01*
X153515714Y-138545095D01*
X153515714Y-138687952D01*
X153491904Y-138735571D01*
X153468095Y-138759380D01*
X153420476Y-138783190D01*
X153349047Y-138783190D01*
X154277619Y-138521285D02*
X154110952Y-138521285D01*
X154110952Y-138783190D02*
X154110952Y-138283190D01*
X154349047Y-138283190D01*
X154610952Y-138783190D02*
X154563333Y-138759380D01*
X154539523Y-138711761D01*
X154539523Y-138283190D01*
X154872857Y-138783190D02*
X154825238Y-138759380D01*
X154801428Y-138735571D01*
X154777619Y-138687952D01*
X154777619Y-138545095D01*
X154801428Y-138497476D01*
X154825238Y-138473666D01*
X154872857Y-138449857D01*
X154944285Y-138449857D01*
X154991904Y-138473666D01*
X155015714Y-138497476D01*
X155039523Y-138545095D01*
X155039523Y-138687952D01*
X155015714Y-138735571D01*
X154991904Y-138759380D01*
X154944285Y-138783190D01*
X154872857Y-138783190D01*
X155253809Y-138449857D02*
X155253809Y-138949857D01*
X155253809Y-138473666D02*
X155301428Y-138449857D01*
X155396666Y-138449857D01*
X155444285Y-138473666D01*
X155468095Y-138497476D01*
X155491904Y-138545095D01*
X155491904Y-138687952D01*
X155468095Y-138735571D01*
X155444285Y-138759380D01*
X155396666Y-138783190D01*
X155301428Y-138783190D01*
X155253809Y-138759380D01*
X155706190Y-138449857D02*
X155706190Y-138949857D01*
X155706190Y-138473666D02*
X155753809Y-138449857D01*
X155849047Y-138449857D01*
X155896666Y-138473666D01*
X155920476Y-138497476D01*
X155944285Y-138545095D01*
X155944285Y-138687952D01*
X155920476Y-138735571D01*
X155896666Y-138759380D01*
X155849047Y-138783190D01*
X155753809Y-138783190D01*
X155706190Y-138759380D01*
X156110952Y-138449857D02*
X156230000Y-138783190D01*
X156349047Y-138449857D02*
X156230000Y-138783190D01*
X156182380Y-138902238D01*
X156158571Y-138926047D01*
X156110952Y-138949857D01*
X156920476Y-138783190D02*
X156920476Y-138283190D01*
X157039523Y-138283190D01*
X157110952Y-138307000D01*
X157158571Y-138354619D01*
X157182380Y-138402238D01*
X157206190Y-138497476D01*
X157206190Y-138568904D01*
X157182380Y-138664142D01*
X157158571Y-138711761D01*
X157110952Y-138759380D01*
X157039523Y-138783190D01*
X156920476Y-138783190D01*
X157634761Y-138783190D02*
X157634761Y-138521285D01*
X157610952Y-138473666D01*
X157563333Y-138449857D01*
X157468095Y-138449857D01*
X157420476Y-138473666D01*
X157634761Y-138759380D02*
X157587142Y-138783190D01*
X157468095Y-138783190D01*
X157420476Y-138759380D01*
X157396666Y-138711761D01*
X157396666Y-138664142D01*
X157420476Y-138616523D01*
X157468095Y-138592714D01*
X157587142Y-138592714D01*
X157634761Y-138568904D01*
X157801428Y-138449857D02*
X157991904Y-138449857D01*
X157872857Y-138283190D02*
X157872857Y-138711761D01*
X157896666Y-138759380D01*
X157944285Y-138783190D01*
X157991904Y-138783190D01*
X158372857Y-138783190D02*
X158372857Y-138521285D01*
X158349047Y-138473666D01*
X158301428Y-138449857D01*
X158206190Y-138449857D01*
X158158571Y-138473666D01*
X158372857Y-138759380D02*
X158325238Y-138783190D01*
X158206190Y-138783190D01*
X158158571Y-138759380D01*
X158134761Y-138711761D01*
X158134761Y-138664142D01*
X158158571Y-138616523D01*
X158206190Y-138592714D01*
X158325238Y-138592714D01*
X158372857Y-138568904D01*
X158991904Y-138783190D02*
X158991904Y-138283190D01*
X159230000Y-138449857D02*
X159230000Y-138783190D01*
X159230000Y-138497476D02*
X159253809Y-138473666D01*
X159301428Y-138449857D01*
X159372857Y-138449857D01*
X159420476Y-138473666D01*
X159444285Y-138521285D01*
X159444285Y-138783190D01*
X159610952Y-138449857D02*
X159801428Y-138449857D01*
X159682380Y-138283190D02*
X159682380Y-138711761D01*
X159706190Y-138759380D01*
X159753809Y-138783190D01*
X159801428Y-138783190D01*
X160158571Y-138759380D02*
X160110952Y-138783190D01*
X160015714Y-138783190D01*
X159968095Y-138759380D01*
X159944285Y-138711761D01*
X159944285Y-138521285D01*
X159968095Y-138473666D01*
X160015714Y-138449857D01*
X160110952Y-138449857D01*
X160158571Y-138473666D01*
X160182380Y-138521285D01*
X160182380Y-138568904D01*
X159944285Y-138616523D01*
X160396666Y-138783190D02*
X160396666Y-138449857D01*
X160396666Y-138545095D02*
X160420476Y-138497476D01*
X160444285Y-138473666D01*
X160491904Y-138449857D01*
X160539523Y-138449857D01*
X160634761Y-138449857D02*
X160825238Y-138449857D01*
X160706190Y-138783190D02*
X160706190Y-138354619D01*
X160730000Y-138307000D01*
X160777619Y-138283190D01*
X160825238Y-138283190D01*
X161206190Y-138783190D02*
X161206190Y-138521285D01*
X161182380Y-138473666D01*
X161134761Y-138449857D01*
X161039523Y-138449857D01*
X160991904Y-138473666D01*
X161206190Y-138759380D02*
X161158571Y-138783190D01*
X161039523Y-138783190D01*
X160991904Y-138759380D01*
X160968095Y-138711761D01*
X160968095Y-138664142D01*
X160991904Y-138616523D01*
X161039523Y-138592714D01*
X161158571Y-138592714D01*
X161206190Y-138568904D01*
X161658571Y-138759380D02*
X161610952Y-138783190D01*
X161515714Y-138783190D01*
X161468095Y-138759380D01*
X161444285Y-138735571D01*
X161420476Y-138687952D01*
X161420476Y-138545095D01*
X161444285Y-138497476D01*
X161468095Y-138473666D01*
X161515714Y-138449857D01*
X161610952Y-138449857D01*
X161658571Y-138473666D01*
X162063333Y-138759380D02*
X162015714Y-138783190D01*
X161920476Y-138783190D01*
X161872857Y-138759380D01*
X161849047Y-138711761D01*
X161849047Y-138521285D01*
X161872857Y-138473666D01*
X161920476Y-138449857D01*
X162015714Y-138449857D01*
X162063333Y-138473666D01*
X162087142Y-138521285D01*
X162087142Y-138568904D01*
X161849047Y-138616523D01*
X135536857Y-125700285D02*
X136001142Y-125700285D01*
X135751142Y-125986000D01*
X135858285Y-125986000D01*
X135929714Y-126021714D01*
X135965428Y-126057428D01*
X136001142Y-126128857D01*
X136001142Y-126307428D01*
X135965428Y-126378857D01*
X135929714Y-126414571D01*
X135858285Y-126450285D01*
X135644000Y-126450285D01*
X135572571Y-126414571D01*
X135536857Y-126378857D01*
X136644000Y-125950285D02*
X136644000Y-126450285D01*
X136465428Y-125664571D02*
X136286857Y-126200285D01*
X136751142Y-126200285D01*
X135536857Y-133701285D02*
X136001142Y-133701285D01*
X135751142Y-133987000D01*
X135858285Y-133987000D01*
X135929714Y-134022714D01*
X135965428Y-134058428D01*
X136001142Y-134129857D01*
X136001142Y-134308428D01*
X135965428Y-134379857D01*
X135929714Y-134415571D01*
X135858285Y-134451285D01*
X135644000Y-134451285D01*
X135572571Y-134415571D01*
X135536857Y-134379857D01*
X136644000Y-133951285D02*
X136644000Y-134451285D01*
X136465428Y-133665571D02*
X136286857Y-134201285D01*
X136751142Y-134201285D01*
D12*
X184404000Y-130175000D02*
X184404000Y-133096000D01*
D10*
X135028857Y-141321285D02*
X135493142Y-141321285D01*
X135243142Y-141607000D01*
X135350285Y-141607000D01*
X135421714Y-141642714D01*
X135457428Y-141678428D01*
X135493142Y-141749857D01*
X135493142Y-141928428D01*
X135457428Y-141999857D01*
X135421714Y-142035571D01*
X135350285Y-142071285D01*
X135136000Y-142071285D01*
X135064571Y-142035571D01*
X135028857Y-141999857D01*
X136136000Y-141571285D02*
X136136000Y-142071285D01*
X135957428Y-141285571D02*
X135778857Y-141821285D01*
X136243142Y-141821285D01*
X180443142Y-139374476D02*
X180490761Y-139422095D01*
X180538380Y-139564952D01*
X180538380Y-139660190D01*
X180490761Y-139803047D01*
X180395523Y-139898285D01*
X180300285Y-139945904D01*
X180109809Y-139993523D01*
X179966952Y-139993523D01*
X179776476Y-139945904D01*
X179681238Y-139898285D01*
X179586000Y-139803047D01*
X179538380Y-139660190D01*
X179538380Y-139564952D01*
X179586000Y-139422095D01*
X179633619Y-139374476D01*
X180538380Y-138945904D02*
X179538380Y-138945904D01*
X180538380Y-138374476D01*
X179538380Y-138374476D01*
X179538380Y-137707809D02*
X179538380Y-137612571D01*
X179586000Y-137517333D01*
X179633619Y-137469714D01*
X179728857Y-137422095D01*
X179919333Y-137374476D01*
X180157428Y-137374476D01*
X180347904Y-137422095D01*
X180443142Y-137469714D01*
X180490761Y-137517333D01*
X180538380Y-137612571D01*
X180538380Y-137707809D01*
X180490761Y-137803047D01*
X180443142Y-137850666D01*
X180347904Y-137898285D01*
X180157428Y-137945904D01*
X179919333Y-137945904D01*
X179728857Y-137898285D01*
X179633619Y-137850666D01*
X179586000Y-137803047D01*
X179538380Y-137707809D01*
X186013285Y-133078000D02*
X185263285Y-133078000D01*
X185263285Y-132899428D01*
X185299000Y-132792285D01*
X185370428Y-132720857D01*
X185441857Y-132685142D01*
X185584714Y-132649428D01*
X185691857Y-132649428D01*
X185834714Y-132685142D01*
X185906142Y-132720857D01*
X185977571Y-132792285D01*
X186013285Y-132899428D01*
X186013285Y-133078000D01*
X185620428Y-132078000D02*
X185620428Y-132328000D01*
X186013285Y-132328000D02*
X185263285Y-132328000D01*
X185263285Y-131970857D01*
X186013285Y-131292285D02*
X186013285Y-131720857D01*
X186013285Y-131506571D02*
X185263285Y-131506571D01*
X185370428Y-131578000D01*
X185441857Y-131649428D01*
X185477571Y-131720857D01*
X186299000Y-130756571D02*
X186299000Y-130792285D01*
X186263285Y-130863714D01*
X186191857Y-130899428D01*
X185834714Y-130899428D01*
X185763285Y-130935142D01*
X185727571Y-131006571D01*
X185691857Y-130935142D01*
X185620428Y-130899428D01*
X185263285Y-130899428D01*
X185191857Y-130863714D01*
X185156142Y-130792285D01*
X185156142Y-130756571D01*
X183473285Y-133078000D02*
X182723285Y-133078000D01*
X182723285Y-132899428D01*
X182759000Y-132792285D01*
X182830428Y-132720857D01*
X182901857Y-132685142D01*
X183044714Y-132649428D01*
X183151857Y-132649428D01*
X183294714Y-132685142D01*
X183366142Y-132720857D01*
X183437571Y-132792285D01*
X183473285Y-132899428D01*
X183473285Y-133078000D01*
X183080428Y-132078000D02*
X183080428Y-132328000D01*
X183473285Y-132328000D02*
X182723285Y-132328000D01*
X182723285Y-131970857D01*
X182723285Y-131542285D02*
X182723285Y-131470857D01*
X182759000Y-131399428D01*
X182794714Y-131363714D01*
X182866142Y-131328000D01*
X183009000Y-131292285D01*
X183187571Y-131292285D01*
X183330428Y-131328000D01*
X183401857Y-131363714D01*
X183437571Y-131399428D01*
X183473285Y-131470857D01*
X183473285Y-131542285D01*
X183437571Y-131613714D01*
X183401857Y-131649428D01*
X183330428Y-131685142D01*
X183187571Y-131720857D01*
X183009000Y-131720857D01*
X182866142Y-131685142D01*
X182794714Y-131649428D01*
X182759000Y-131613714D01*
X182723285Y-131542285D01*
X183759000Y-130756571D02*
X183759000Y-130792285D01*
X183723285Y-130863714D01*
X183651857Y-130899428D01*
X183294714Y-130899428D01*
X183223285Y-130935142D01*
X183187571Y-131006571D01*
X183151857Y-130935142D01*
X183080428Y-130899428D01*
X182723285Y-130899428D01*
X182651857Y-130863714D01*
X182616142Y-130792285D01*
X182616142Y-130756571D01*
X121325714Y-145887000D02*
X121611428Y-145887000D01*
X121268571Y-146058428D02*
X121468571Y-145458428D01*
X121668571Y-146058428D01*
X121868571Y-146058428D02*
X121868571Y-145658428D01*
X121868571Y-145715571D02*
X121897142Y-145687000D01*
X121954285Y-145658428D01*
X122040000Y-145658428D01*
X122097142Y-145687000D01*
X122125714Y-145744142D01*
X122125714Y-146058428D01*
X122125714Y-145744142D02*
X122154285Y-145687000D01*
X122211428Y-145658428D01*
X122297142Y-145658428D01*
X122354285Y-145687000D01*
X122382857Y-145744142D01*
X122382857Y-146058428D01*
X122668571Y-146058428D02*
X122668571Y-145658428D01*
X122668571Y-145458428D02*
X122640000Y-145487000D01*
X122668571Y-145515571D01*
X122697142Y-145487000D01*
X122668571Y-145458428D01*
X122668571Y-145515571D01*
X123211428Y-145658428D02*
X123211428Y-146144142D01*
X123182857Y-146201285D01*
X123154285Y-146229857D01*
X123097142Y-146258428D01*
X123011428Y-146258428D01*
X122954285Y-146229857D01*
X123211428Y-146029857D02*
X123154285Y-146058428D01*
X123040000Y-146058428D01*
X122982857Y-146029857D01*
X122954285Y-146001285D01*
X122925714Y-145944142D01*
X122925714Y-145772714D01*
X122954285Y-145715571D01*
X122982857Y-145687000D01*
X123040000Y-145658428D01*
X123154285Y-145658428D01*
X123211428Y-145687000D01*
X123754285Y-146058428D02*
X123754285Y-145744142D01*
X123725714Y-145687000D01*
X123668571Y-145658428D01*
X123554285Y-145658428D01*
X123497142Y-145687000D01*
X123754285Y-146029857D02*
X123697142Y-146058428D01*
X123554285Y-146058428D01*
X123497142Y-146029857D01*
X123468571Y-145972714D01*
X123468571Y-145915571D01*
X123497142Y-145858428D01*
X123554285Y-145829857D01*
X123697142Y-145829857D01*
X123754285Y-145801285D01*
X124497142Y-146058428D02*
X124497142Y-145458428D01*
X124640000Y-145458428D01*
X124725714Y-145487000D01*
X124782857Y-145544142D01*
X124811428Y-145601285D01*
X124840000Y-145715571D01*
X124840000Y-145801285D01*
X124811428Y-145915571D01*
X124782857Y-145972714D01*
X124725714Y-146029857D01*
X124640000Y-146058428D01*
X124497142Y-146058428D01*
X125297142Y-145744142D02*
X125097142Y-145744142D01*
X125097142Y-146058428D02*
X125097142Y-145458428D01*
X125382857Y-145458428D01*
X125725714Y-145458428D02*
X125782857Y-145458428D01*
X125840000Y-145487000D01*
X125868571Y-145515571D01*
X125897142Y-145572714D01*
X125925714Y-145687000D01*
X125925714Y-145829857D01*
X125897142Y-145944142D01*
X125868571Y-146001285D01*
X125840000Y-146029857D01*
X125782857Y-146058428D01*
X125725714Y-146058428D01*
X125668571Y-146029857D01*
X125640000Y-146001285D01*
X125611428Y-145944142D01*
X125582857Y-145829857D01*
X125582857Y-145687000D01*
X125611428Y-145572714D01*
X125640000Y-145515571D01*
X125668571Y-145487000D01*
X125725714Y-145458428D01*
X126611428Y-145429857D02*
X126097142Y-146201285D01*
X126811428Y-146058428D02*
X126811428Y-145458428D01*
X126954285Y-145458428D01*
X127040000Y-145487000D01*
X127097142Y-145544142D01*
X127125714Y-145601285D01*
X127154285Y-145715571D01*
X127154285Y-145801285D01*
X127125714Y-145915571D01*
X127097142Y-145972714D01*
X127040000Y-146029857D01*
X126954285Y-146058428D01*
X126811428Y-146058428D01*
X127611428Y-145744142D02*
X127411428Y-145744142D01*
X127411428Y-146058428D02*
X127411428Y-145458428D01*
X127697142Y-145458428D01*
X128240000Y-146058428D02*
X127897142Y-146058428D01*
X128068571Y-146058428D02*
X128068571Y-145458428D01*
X128011428Y-145544142D01*
X127954285Y-145601285D01*
X127897142Y-145629857D01*
X128925714Y-146029857D02*
X129011428Y-146058428D01*
X129154285Y-146058428D01*
X129211428Y-146029857D01*
X129240000Y-146001285D01*
X129268571Y-145944142D01*
X129268571Y-145887000D01*
X129240000Y-145829857D01*
X129211428Y-145801285D01*
X129154285Y-145772714D01*
X129040000Y-145744142D01*
X128982857Y-145715571D01*
X128954285Y-145687000D01*
X128925714Y-145629857D01*
X128925714Y-145572714D01*
X128954285Y-145515571D01*
X128982857Y-145487000D01*
X129040000Y-145458428D01*
X129182857Y-145458428D01*
X129268571Y-145487000D01*
X129468571Y-145658428D02*
X129582857Y-146058428D01*
X129697142Y-145772714D01*
X129811428Y-146058428D01*
X129925714Y-145658428D01*
X130154285Y-146058428D02*
X130154285Y-145658428D01*
X130154285Y-145458428D02*
X130125714Y-145487000D01*
X130154285Y-145515571D01*
X130182857Y-145487000D01*
X130154285Y-145458428D01*
X130154285Y-145515571D01*
X130354285Y-145658428D02*
X130582857Y-145658428D01*
X130440000Y-145458428D02*
X130440000Y-145972714D01*
X130468571Y-146029857D01*
X130525714Y-146058428D01*
X130582857Y-146058428D01*
X131040000Y-146029857D02*
X130982857Y-146058428D01*
X130868571Y-146058428D01*
X130811428Y-146029857D01*
X130782857Y-146001285D01*
X130754285Y-145944142D01*
X130754285Y-145772714D01*
X130782857Y-145715571D01*
X130811428Y-145687000D01*
X130868571Y-145658428D01*
X130982857Y-145658428D01*
X131040000Y-145687000D01*
X131297142Y-146058428D02*
X131297142Y-145458428D01*
X131554285Y-146058428D02*
X131554285Y-145744142D01*
X131525714Y-145687000D01*
X131468571Y-145658428D01*
X131382857Y-145658428D01*
X131325714Y-145687000D01*
X131297142Y-145715571D01*
X132068571Y-146029857D02*
X132011428Y-146058428D01*
X131897142Y-146058428D01*
X131840000Y-146029857D01*
X131811428Y-145972714D01*
X131811428Y-145744142D01*
X131840000Y-145687000D01*
X131897142Y-145658428D01*
X132011428Y-145658428D01*
X132068571Y-145687000D01*
X132097142Y-145744142D01*
X132097142Y-145801285D01*
X131811428Y-145858428D01*
X132354285Y-146058428D02*
X132354285Y-145658428D01*
X132354285Y-145772714D02*
X132382857Y-145715571D01*
X132411428Y-145687000D01*
X132468571Y-145658428D01*
X132525714Y-145658428D01*
X133354285Y-146287000D02*
X133325714Y-146258428D01*
X133268571Y-146172714D01*
X133240000Y-146115571D01*
X133211428Y-146029857D01*
X133182857Y-145887000D01*
X133182857Y-145772714D01*
X133211428Y-145629857D01*
X133240000Y-145544142D01*
X133268571Y-145487000D01*
X133325714Y-145401285D01*
X133354285Y-145372714D01*
X133582857Y-146058428D02*
X133582857Y-145458428D01*
X133725714Y-145458428D01*
X133811428Y-145487000D01*
X133868571Y-145544142D01*
X133897142Y-145601285D01*
X133925714Y-145715571D01*
X133925714Y-145801285D01*
X133897142Y-145915571D01*
X133868571Y-145972714D01*
X133811428Y-146029857D01*
X133725714Y-146058428D01*
X133582857Y-146058428D01*
X134411428Y-146029857D02*
X134354285Y-146058428D01*
X134240000Y-146058428D01*
X134182857Y-146029857D01*
X134154285Y-145972714D01*
X134154285Y-145744142D01*
X134182857Y-145687000D01*
X134240000Y-145658428D01*
X134354285Y-145658428D01*
X134411428Y-145687000D01*
X134440000Y-145744142D01*
X134440000Y-145801285D01*
X134154285Y-145858428D01*
X134668571Y-146029857D02*
X134725714Y-146058428D01*
X134840000Y-146058428D01*
X134897142Y-146029857D01*
X134925714Y-145972714D01*
X134925714Y-145944142D01*
X134897142Y-145887000D01*
X134840000Y-145858428D01*
X134754285Y-145858428D01*
X134697142Y-145829857D01*
X134668571Y-145772714D01*
X134668571Y-145744142D01*
X134697142Y-145687000D01*
X134754285Y-145658428D01*
X134840000Y-145658428D01*
X134897142Y-145687000D01*
X135182857Y-146058428D02*
X135182857Y-145658428D01*
X135182857Y-145458428D02*
X135154285Y-145487000D01*
X135182857Y-145515571D01*
X135211428Y-145487000D01*
X135182857Y-145458428D01*
X135182857Y-145515571D01*
X135725714Y-145658428D02*
X135725714Y-146144142D01*
X135697142Y-146201285D01*
X135668571Y-146229857D01*
X135611428Y-146258428D01*
X135525714Y-146258428D01*
X135468571Y-146229857D01*
X135725714Y-146029857D02*
X135668571Y-146058428D01*
X135554285Y-146058428D01*
X135497142Y-146029857D01*
X135468571Y-146001285D01*
X135440000Y-145944142D01*
X135440000Y-145772714D01*
X135468571Y-145715571D01*
X135497142Y-145687000D01*
X135554285Y-145658428D01*
X135668571Y-145658428D01*
X135725714Y-145687000D01*
X136011428Y-145658428D02*
X136011428Y-146058428D01*
X136011428Y-145715571D02*
X136040000Y-145687000D01*
X136097142Y-145658428D01*
X136182857Y-145658428D01*
X136240000Y-145687000D01*
X136268571Y-145744142D01*
X136268571Y-146058428D01*
X137211428Y-145744142D02*
X137297142Y-145772714D01*
X137325714Y-145801285D01*
X137354285Y-145858428D01*
X137354285Y-145944142D01*
X137325714Y-146001285D01*
X137297142Y-146029857D01*
X137240000Y-146058428D01*
X137011428Y-146058428D01*
X137011428Y-145458428D01*
X137211428Y-145458428D01*
X137268571Y-145487000D01*
X137297142Y-145515571D01*
X137325714Y-145572714D01*
X137325714Y-145629857D01*
X137297142Y-145687000D01*
X137268571Y-145715571D01*
X137211428Y-145744142D01*
X137011428Y-145744142D01*
X137554285Y-146287000D02*
X137582857Y-146258428D01*
X137640000Y-146172714D01*
X137668571Y-146115571D01*
X137697142Y-146029857D01*
X137725714Y-145887000D01*
X137725714Y-145772714D01*
X137697142Y-145629857D01*
X137668571Y-145544142D01*
X137640000Y-145487000D01*
X137582857Y-145401285D01*
X137554285Y-145372714D01*
X128725714Y-147083428D02*
X128525714Y-146797714D01*
X128382857Y-147083428D02*
X128382857Y-146483428D01*
X128611428Y-146483428D01*
X128668571Y-146512000D01*
X128697142Y-146540571D01*
X128725714Y-146597714D01*
X128725714Y-146683428D01*
X128697142Y-146740571D01*
X128668571Y-146769142D01*
X128611428Y-146797714D01*
X128382857Y-146797714D01*
X129211428Y-147054857D02*
X129154285Y-147083428D01*
X129040000Y-147083428D01*
X128982857Y-147054857D01*
X128954285Y-146997714D01*
X128954285Y-146769142D01*
X128982857Y-146712000D01*
X129040000Y-146683428D01*
X129154285Y-146683428D01*
X129211428Y-146712000D01*
X129240000Y-146769142D01*
X129240000Y-146826285D01*
X128954285Y-146883428D01*
X129440000Y-146683428D02*
X129582857Y-147083428D01*
X129725714Y-146683428D01*
X130382857Y-146540571D02*
X130411428Y-146512000D01*
X130468571Y-146483428D01*
X130611428Y-146483428D01*
X130668571Y-146512000D01*
X130697142Y-146540571D01*
X130725714Y-146597714D01*
X130725714Y-146654857D01*
X130697142Y-146740571D01*
X130354285Y-147083428D01*
X130725714Y-147083428D01*
X122925714Y-148108428D02*
X122925714Y-147508428D01*
X123182857Y-148108428D02*
X123182857Y-147794142D01*
X123154285Y-147737000D01*
X123097142Y-147708428D01*
X123011428Y-147708428D01*
X122954285Y-147737000D01*
X122925714Y-147765571D01*
X123382857Y-147708428D02*
X123611428Y-147708428D01*
X123468571Y-147508428D02*
X123468571Y-148022714D01*
X123497142Y-148079857D01*
X123554285Y-148108428D01*
X123611428Y-148108428D01*
X123725714Y-147708428D02*
X123954285Y-147708428D01*
X123811428Y-147508428D02*
X123811428Y-148022714D01*
X123839999Y-148079857D01*
X123897142Y-148108428D01*
X123954285Y-148108428D01*
X124154285Y-147708428D02*
X124154285Y-148308428D01*
X124154285Y-147737000D02*
X124211428Y-147708428D01*
X124325714Y-147708428D01*
X124382857Y-147737000D01*
X124411428Y-147765571D01*
X124439999Y-147822714D01*
X124439999Y-147994142D01*
X124411428Y-148051285D01*
X124382857Y-148079857D01*
X124325714Y-148108428D01*
X124211428Y-148108428D01*
X124154285Y-148079857D01*
X124668571Y-148079857D02*
X124725714Y-148108428D01*
X124839999Y-148108428D01*
X124897142Y-148079857D01*
X124925714Y-148022714D01*
X124925714Y-147994142D01*
X124897142Y-147937000D01*
X124839999Y-147908428D01*
X124754285Y-147908428D01*
X124697142Y-147879857D01*
X124668571Y-147822714D01*
X124668571Y-147794142D01*
X124697142Y-147737000D01*
X124754285Y-147708428D01*
X124839999Y-147708428D01*
X124897142Y-147737000D01*
X125182857Y-148051285D02*
X125211428Y-148079857D01*
X125182857Y-148108428D01*
X125154285Y-148079857D01*
X125182857Y-148051285D01*
X125182857Y-148108428D01*
X125182857Y-147737000D02*
X125211428Y-147765571D01*
X125182857Y-147794142D01*
X125154285Y-147765571D01*
X125182857Y-147737000D01*
X125182857Y-147794142D01*
X125897142Y-147479857D02*
X125382857Y-148251285D01*
X126525714Y-147479857D02*
X126011428Y-148251285D01*
X126982857Y-147708428D02*
X126982857Y-148194142D01*
X126954285Y-148251285D01*
X126925714Y-148279857D01*
X126868571Y-148308428D01*
X126782857Y-148308428D01*
X126725714Y-148279857D01*
X126982857Y-148079857D02*
X126925714Y-148108428D01*
X126811428Y-148108428D01*
X126754285Y-148079857D01*
X126725714Y-148051285D01*
X126697142Y-147994142D01*
X126697142Y-147822714D01*
X126725714Y-147765571D01*
X126754285Y-147737000D01*
X126811428Y-147708428D01*
X126925714Y-147708428D01*
X126982857Y-147737000D01*
X127268571Y-148108428D02*
X127268571Y-147708428D01*
X127268571Y-147508428D02*
X127239999Y-147537000D01*
X127268571Y-147565571D01*
X127297142Y-147537000D01*
X127268571Y-147508428D01*
X127268571Y-147565571D01*
X127468571Y-147708428D02*
X127697142Y-147708428D01*
X127554285Y-147508428D02*
X127554285Y-148022714D01*
X127582857Y-148079857D01*
X127639999Y-148108428D01*
X127697142Y-148108428D01*
X127897142Y-148108428D02*
X127897142Y-147508428D01*
X128154285Y-148108428D02*
X128154285Y-147794142D01*
X128125714Y-147737000D01*
X128068571Y-147708428D01*
X127982857Y-147708428D01*
X127925714Y-147737000D01*
X127897142Y-147765571D01*
X128697142Y-147708428D02*
X128697142Y-148108428D01*
X128439999Y-147708428D02*
X128439999Y-148022714D01*
X128468571Y-148079857D01*
X128525714Y-148108428D01*
X128611428Y-148108428D01*
X128668571Y-148079857D01*
X128697142Y-148051285D01*
X128982857Y-148108428D02*
X128982857Y-147508428D01*
X128982857Y-147737000D02*
X129039999Y-147708428D01*
X129154285Y-147708428D01*
X129211428Y-147737000D01*
X129239999Y-147765571D01*
X129268571Y-147822714D01*
X129268571Y-147994142D01*
X129239999Y-148051285D01*
X129211428Y-148079857D01*
X129154285Y-148108428D01*
X129039999Y-148108428D01*
X128982857Y-148079857D01*
X129525714Y-148051285D02*
X129554285Y-148079857D01*
X129525714Y-148108428D01*
X129497142Y-148079857D01*
X129525714Y-148051285D01*
X129525714Y-148108428D01*
X130068571Y-148079857D02*
X130011428Y-148108428D01*
X129897142Y-148108428D01*
X129839999Y-148079857D01*
X129811428Y-148051285D01*
X129782857Y-147994142D01*
X129782857Y-147822714D01*
X129811428Y-147765571D01*
X129839999Y-147737000D01*
X129897142Y-147708428D01*
X130011428Y-147708428D01*
X130068571Y-147737000D01*
X130411428Y-148108428D02*
X130354285Y-148079857D01*
X130325714Y-148051285D01*
X130297142Y-147994142D01*
X130297142Y-147822714D01*
X130325714Y-147765571D01*
X130354285Y-147737000D01*
X130411428Y-147708428D01*
X130497142Y-147708428D01*
X130554285Y-147737000D01*
X130582857Y-147765571D01*
X130611428Y-147822714D01*
X130611428Y-147994142D01*
X130582857Y-148051285D01*
X130554285Y-148079857D01*
X130497142Y-148108428D01*
X130411428Y-148108428D01*
X130868571Y-148108428D02*
X130868571Y-147708428D01*
X130868571Y-147765571D02*
X130897142Y-147737000D01*
X130954285Y-147708428D01*
X131039999Y-147708428D01*
X131097142Y-147737000D01*
X131125714Y-147794142D01*
X131125714Y-148108428D01*
X131125714Y-147794142D02*
X131154285Y-147737000D01*
X131211428Y-147708428D01*
X131297142Y-147708428D01*
X131354285Y-147737000D01*
X131382857Y-147794142D01*
X131382857Y-148108428D01*
X132097142Y-147479857D02*
X131582857Y-148251285D01*
X132268571Y-148079857D02*
X132325714Y-148108428D01*
X132439999Y-148108428D01*
X132497142Y-148079857D01*
X132525714Y-148022714D01*
X132525714Y-147994142D01*
X132497142Y-147937000D01*
X132439999Y-147908428D01*
X132354285Y-147908428D01*
X132297142Y-147879857D01*
X132268571Y-147822714D01*
X132268571Y-147794142D01*
X132297142Y-147737000D01*
X132354285Y-147708428D01*
X132439999Y-147708428D01*
X132497142Y-147737000D01*
X132868571Y-148108428D02*
X132811428Y-148079857D01*
X132782857Y-148051285D01*
X132754285Y-147994142D01*
X132754285Y-147822714D01*
X132782857Y-147765571D01*
X132811428Y-147737000D01*
X132868571Y-147708428D01*
X132954285Y-147708428D01*
X133011428Y-147737000D01*
X133039999Y-147765571D01*
X133068571Y-147822714D01*
X133068571Y-147994142D01*
X133039999Y-148051285D01*
X133011428Y-148079857D01*
X132954285Y-148108428D01*
X132868571Y-148108428D01*
X133411428Y-148108428D02*
X133354285Y-148079857D01*
X133325714Y-148022714D01*
X133325714Y-147508428D01*
X133897142Y-148108428D02*
X133897142Y-147794142D01*
X133868571Y-147737000D01*
X133811428Y-147708428D01*
X133697142Y-147708428D01*
X133640000Y-147737000D01*
X133897142Y-148079857D02*
X133840000Y-148108428D01*
X133697142Y-148108428D01*
X133640000Y-148079857D01*
X133611428Y-148022714D01*
X133611428Y-147965571D01*
X133640000Y-147908428D01*
X133697142Y-147879857D01*
X133840000Y-147879857D01*
X133897142Y-147851285D01*
X134182857Y-148108428D02*
X134182857Y-147708428D01*
X134182857Y-147822714D02*
X134211428Y-147765571D01*
X134240000Y-147737000D01*
X134297142Y-147708428D01*
X134354285Y-147708428D01*
X134554285Y-148108428D02*
X134554285Y-147708428D01*
X134554285Y-147765571D02*
X134582857Y-147737000D01*
X134640000Y-147708428D01*
X134725714Y-147708428D01*
X134782857Y-147737000D01*
X134811428Y-147794142D01*
X134811428Y-148108428D01*
X134811428Y-147794142D02*
X134840000Y-147737000D01*
X134897142Y-147708428D01*
X134982857Y-147708428D01*
X135040000Y-147737000D01*
X135068571Y-147794142D01*
X135068571Y-148108428D01*
X135440000Y-148108428D02*
X135382857Y-148079857D01*
X135354285Y-148051285D01*
X135325714Y-147994142D01*
X135325714Y-147822714D01*
X135354285Y-147765571D01*
X135382857Y-147737000D01*
X135440000Y-147708428D01*
X135525714Y-147708428D01*
X135582857Y-147737000D01*
X135611428Y-147765571D01*
X135640000Y-147822714D01*
X135640000Y-147994142D01*
X135611428Y-148051285D01*
X135582857Y-148079857D01*
X135525714Y-148108428D01*
X135440000Y-148108428D01*
X135897142Y-147708428D02*
X135897142Y-148108428D01*
X135897142Y-147765571D02*
X135925714Y-147737000D01*
X135982857Y-147708428D01*
X136068571Y-147708428D01*
X136125714Y-147737000D01*
X136154285Y-147794142D01*
X136154285Y-148108428D01*
X187973857Y-129613357D02*
X188009571Y-129649071D01*
X188045285Y-129756214D01*
X188045285Y-129827642D01*
X188009571Y-129934785D01*
X187938142Y-130006214D01*
X187866714Y-130041928D01*
X187723857Y-130077642D01*
X187616714Y-130077642D01*
X187473857Y-130041928D01*
X187402428Y-130006214D01*
X187331000Y-129934785D01*
X187295285Y-129827642D01*
X187295285Y-129756214D01*
X187331000Y-129649071D01*
X187366714Y-129613357D01*
X188045285Y-129291928D02*
X187295285Y-129291928D01*
X188045285Y-128863357D01*
X187295285Y-128863357D01*
X188045285Y-128113357D02*
X188045285Y-128541928D01*
X188045285Y-128327642D02*
X187295285Y-128327642D01*
X187402428Y-128399071D01*
X187473857Y-128470500D01*
X187509571Y-128541928D01*
X187973857Y-124342857D02*
X188009571Y-124378571D01*
X188045285Y-124485714D01*
X188045285Y-124557142D01*
X188009571Y-124664285D01*
X187938142Y-124735714D01*
X187866714Y-124771428D01*
X187723857Y-124807142D01*
X187616714Y-124807142D01*
X187473857Y-124771428D01*
X187402428Y-124735714D01*
X187331000Y-124664285D01*
X187295285Y-124557142D01*
X187295285Y-124485714D01*
X187331000Y-124378571D01*
X187366714Y-124342857D01*
X188045285Y-124021428D02*
X187295285Y-124021428D01*
X188045285Y-123592857D01*
X187295285Y-123592857D01*
X187366714Y-123271428D02*
X187331000Y-123235714D01*
X187295285Y-123164285D01*
X187295285Y-122985714D01*
X187331000Y-122914285D01*
X187366714Y-122878571D01*
X187438142Y-122842857D01*
X187509571Y-122842857D01*
X187616714Y-122878571D01*
X188045285Y-123307142D01*
X188045285Y-122842857D01*
X181433357Y-129422857D02*
X181469071Y-129458571D01*
X181504785Y-129565714D01*
X181504785Y-129637142D01*
X181469071Y-129744285D01*
X181397642Y-129815714D01*
X181326214Y-129851428D01*
X181183357Y-129887142D01*
X181076214Y-129887142D01*
X180933357Y-129851428D01*
X180861928Y-129815714D01*
X180790500Y-129744285D01*
X180754785Y-129637142D01*
X180754785Y-129565714D01*
X180790500Y-129458571D01*
X180826214Y-129422857D01*
X181504785Y-129101428D02*
X180754785Y-129101428D01*
X181504785Y-128672857D01*
X180754785Y-128672857D01*
X180826214Y-128351428D02*
X180790500Y-128315714D01*
X180754785Y-128244285D01*
X180754785Y-128065714D01*
X180790500Y-127994285D01*
X180826214Y-127958571D01*
X180897642Y-127922857D01*
X180969071Y-127922857D01*
X181076214Y-127958571D01*
X181504785Y-128387142D01*
X181504785Y-127922857D01*
X181433357Y-124342857D02*
X181469071Y-124378571D01*
X181504785Y-124485714D01*
X181504785Y-124557142D01*
X181469071Y-124664285D01*
X181397642Y-124735714D01*
X181326214Y-124771428D01*
X181183357Y-124807142D01*
X181076214Y-124807142D01*
X180933357Y-124771428D01*
X180861928Y-124735714D01*
X180790500Y-124664285D01*
X180754785Y-124557142D01*
X180754785Y-124485714D01*
X180790500Y-124378571D01*
X180826214Y-124342857D01*
X181504785Y-124021428D02*
X180754785Y-124021428D01*
X181504785Y-123592857D01*
X180754785Y-123592857D01*
X181504785Y-122842857D02*
X181504785Y-123271428D01*
X181504785Y-123057142D02*
X180754785Y-123057142D01*
X180861928Y-123128571D01*
X180933357Y-123200000D01*
X180969071Y-123271428D01*
D13*
X144272047Y-148534000D02*
X144224428Y-148510190D01*
X144153000Y-148510190D01*
X144081571Y-148534000D01*
X144033952Y-148581619D01*
X144010142Y-148629238D01*
X143986333Y-148724476D01*
X143986333Y-148795904D01*
X144010142Y-148891142D01*
X144033952Y-148938761D01*
X144081571Y-148986380D01*
X144153000Y-149010190D01*
X144200619Y-149010190D01*
X144272047Y-148986380D01*
X144295857Y-148962571D01*
X144295857Y-148795904D01*
X144200619Y-148795904D01*
X144510142Y-149010190D02*
X144510142Y-148510190D01*
X144795857Y-149010190D01*
X144795857Y-148510190D01*
X145033952Y-149010190D02*
X145033952Y-148510190D01*
X145153000Y-148510190D01*
X145224428Y-148534000D01*
X145272047Y-148581619D01*
X145295857Y-148629238D01*
X145319666Y-148724476D01*
X145319666Y-148795904D01*
X145295857Y-148891142D01*
X145272047Y-148938761D01*
X145224428Y-148986380D01*
X145153000Y-149010190D01*
X145033952Y-149010190D01*
X146812047Y-148534000D02*
X146764428Y-148510190D01*
X146693000Y-148510190D01*
X146621571Y-148534000D01*
X146573952Y-148581619D01*
X146550142Y-148629238D01*
X146526333Y-148724476D01*
X146526333Y-148795904D01*
X146550142Y-148891142D01*
X146573952Y-148938761D01*
X146621571Y-148986380D01*
X146693000Y-149010190D01*
X146740619Y-149010190D01*
X146812047Y-148986380D01*
X146835857Y-148962571D01*
X146835857Y-148795904D01*
X146740619Y-148795904D01*
X147050142Y-149010190D02*
X147050142Y-148510190D01*
X147335857Y-149010190D01*
X147335857Y-148510190D01*
X147573952Y-149010190D02*
X147573952Y-148510190D01*
X147693000Y-148510190D01*
X147764428Y-148534000D01*
X147812047Y-148581619D01*
X147835857Y-148629238D01*
X147859666Y-148724476D01*
X147859666Y-148795904D01*
X147835857Y-148891142D01*
X147812047Y-148938761D01*
X147764428Y-148986380D01*
X147693000Y-149010190D01*
X147573952Y-149010190D01*
X141232047Y-148819714D02*
X141613000Y-148819714D01*
X141422523Y-149010190D02*
X141422523Y-148629238D01*
X142113000Y-149010190D02*
X141827285Y-149010190D01*
X141970142Y-149010190D02*
X141970142Y-148510190D01*
X141922523Y-148581619D01*
X141874904Y-148629238D01*
X141827285Y-148653047D01*
X142303476Y-148557809D02*
X142327285Y-148534000D01*
X142374904Y-148510190D01*
X142493952Y-148510190D01*
X142541571Y-148534000D01*
X142565380Y-148557809D01*
X142589190Y-148605428D01*
X142589190Y-148653047D01*
X142565380Y-148724476D01*
X142279666Y-149010190D01*
X142589190Y-149010190D01*
X142732047Y-148510190D02*
X142898714Y-149010190D01*
X143065380Y-148510190D01*
X149090142Y-148819714D02*
X149471095Y-148819714D01*
X149280619Y-149010190D02*
X149280619Y-148629238D01*
X149947285Y-148510190D02*
X149709190Y-148510190D01*
X149685380Y-148748285D01*
X149709190Y-148724476D01*
X149756809Y-148700666D01*
X149875857Y-148700666D01*
X149923476Y-148724476D01*
X149947285Y-148748285D01*
X149971095Y-148795904D01*
X149971095Y-148914952D01*
X149947285Y-148962571D01*
X149923476Y-148986380D01*
X149875857Y-149010190D01*
X149756809Y-149010190D01*
X149709190Y-148986380D01*
X149685380Y-148962571D01*
X150113952Y-148510190D02*
X150280619Y-149010190D01*
X150447285Y-148510190D01*
X156472047Y-148819714D02*
X156853000Y-148819714D01*
X156662523Y-149010190D02*
X156662523Y-148629238D01*
X157353000Y-149010190D02*
X157067285Y-149010190D01*
X157210142Y-149010190D02*
X157210142Y-148510190D01*
X157162523Y-148581619D01*
X157114904Y-148629238D01*
X157067285Y-148653047D01*
X157543476Y-148557809D02*
X157567285Y-148534000D01*
X157614904Y-148510190D01*
X157733952Y-148510190D01*
X157781571Y-148534000D01*
X157805380Y-148557809D01*
X157829190Y-148605428D01*
X157829190Y-148653047D01*
X157805380Y-148724476D01*
X157519666Y-149010190D01*
X157829190Y-149010190D01*
X157972047Y-148510190D02*
X158138714Y-149010190D01*
X158305380Y-148510190D01*
D10*
X181695285Y-130468714D02*
X181695285Y-130897285D01*
X181695285Y-130683000D02*
X180945285Y-130683000D01*
X181052428Y-130754428D01*
X181123857Y-130825857D01*
X181159571Y-130897285D01*
X187041285Y-121904142D02*
X187041285Y-122047000D01*
X187077000Y-122118428D01*
X187112714Y-122154142D01*
X187219857Y-122225571D01*
X187362714Y-122261285D01*
X187648428Y-122261285D01*
X187719857Y-122225571D01*
X187755571Y-122189857D01*
X187791285Y-122118428D01*
X187791285Y-121975571D01*
X187755571Y-121904142D01*
X187719857Y-121868428D01*
X187648428Y-121832714D01*
X187469857Y-121832714D01*
X187398428Y-121868428D01*
X187362714Y-121904142D01*
X187327000Y-121975571D01*
X187327000Y-122118428D01*
X187362714Y-122189857D01*
X187398428Y-122225571D01*
X187469857Y-122261285D01*
X132294285Y-139531285D02*
X131865714Y-139531285D01*
X132080000Y-139531285D02*
X132080000Y-138781285D01*
X132008571Y-138888428D01*
X131937142Y-138959857D01*
X131865714Y-138995571D01*
X167219285Y-145119285D02*
X166790714Y-145119285D01*
X167005000Y-145119285D02*
X167005000Y-144369285D01*
X166933571Y-144476428D01*
X166862142Y-144547857D01*
X166790714Y-144583571D01*
X151979285Y-145119285D02*
X151550714Y-145119285D01*
X151765000Y-145119285D02*
X151765000Y-144369285D01*
X151693571Y-144476428D01*
X151622142Y-144547857D01*
X151550714Y-144583571D01*
X187291285Y-130540142D02*
X187791285Y-130540142D01*
X187005571Y-130718714D02*
X187541285Y-130897285D01*
X187541285Y-130433000D01*
D13*
X159512047Y-148534000D02*
X159464428Y-148510190D01*
X159393000Y-148510190D01*
X159321571Y-148534000D01*
X159273952Y-148581619D01*
X159250142Y-148629238D01*
X159226333Y-148724476D01*
X159226333Y-148795904D01*
X159250142Y-148891142D01*
X159273952Y-148938761D01*
X159321571Y-148986380D01*
X159393000Y-149010190D01*
X159440619Y-149010190D01*
X159512047Y-148986380D01*
X159535857Y-148962571D01*
X159535857Y-148795904D01*
X159440619Y-148795904D01*
X159750142Y-149010190D02*
X159750142Y-148510190D01*
X160035857Y-149010190D01*
X160035857Y-148510190D01*
X160273952Y-149010190D02*
X160273952Y-148510190D01*
X160393000Y-148510190D01*
X160464428Y-148534000D01*
X160512047Y-148581619D01*
X160535857Y-148629238D01*
X160559666Y-148724476D01*
X160559666Y-148795904D01*
X160535857Y-148891142D01*
X160512047Y-148938761D01*
X160464428Y-148986380D01*
X160393000Y-149010190D01*
X160273952Y-149010190D01*
X162052047Y-148534000D02*
X162004428Y-148510190D01*
X161933000Y-148510190D01*
X161861571Y-148534000D01*
X161813952Y-148581619D01*
X161790142Y-148629238D01*
X161766333Y-148724476D01*
X161766333Y-148795904D01*
X161790142Y-148891142D01*
X161813952Y-148938761D01*
X161861571Y-148986380D01*
X161933000Y-149010190D01*
X161980619Y-149010190D01*
X162052047Y-148986380D01*
X162075857Y-148962571D01*
X162075857Y-148795904D01*
X161980619Y-148795904D01*
X162290142Y-149010190D02*
X162290142Y-148510190D01*
X162575857Y-149010190D01*
X162575857Y-148510190D01*
X162813952Y-149010190D02*
X162813952Y-148510190D01*
X162933000Y-148510190D01*
X163004428Y-148534000D01*
X163052047Y-148581619D01*
X163075857Y-148629238D01*
X163099666Y-148724476D01*
X163099666Y-148795904D01*
X163075857Y-148891142D01*
X163052047Y-148938761D01*
X163004428Y-148986380D01*
X162933000Y-149010190D01*
X162813952Y-149010190D01*
X164330142Y-148819714D02*
X164711095Y-148819714D01*
X164520619Y-149010190D02*
X164520619Y-148629238D01*
X165187285Y-148510190D02*
X164949190Y-148510190D01*
X164925380Y-148748285D01*
X164949190Y-148724476D01*
X164996809Y-148700666D01*
X165115857Y-148700666D01*
X165163476Y-148724476D01*
X165187285Y-148748285D01*
X165211095Y-148795904D01*
X165211095Y-148914952D01*
X165187285Y-148962571D01*
X165163476Y-148986380D01*
X165115857Y-149010190D01*
X164996809Y-149010190D01*
X164949190Y-148986380D01*
X164925380Y-148962571D01*
X165353952Y-148510190D02*
X165520619Y-149010190D01*
X165687285Y-148510190D01*
X162786190Y-141990167D02*
X162286190Y-141990167D01*
X162786190Y-141704452D01*
X162286190Y-141704452D01*
X162738571Y-141180643D02*
X162762380Y-141204452D01*
X162786190Y-141275881D01*
X162786190Y-141323500D01*
X162762380Y-141394929D01*
X162714761Y-141442548D01*
X162667142Y-141466357D01*
X162571904Y-141490167D01*
X162500476Y-141490167D01*
X162405238Y-141466357D01*
X162357619Y-141442548D01*
X162310000Y-141394929D01*
X162286190Y-141323500D01*
X162286190Y-141275881D01*
X162310000Y-141204452D01*
X162333809Y-141180643D01*
X171656352Y-138998285D02*
X171256352Y-138998285D01*
X171656352Y-138769714D01*
X171256352Y-138769714D01*
X171618257Y-138350666D02*
X171637304Y-138369714D01*
X171656352Y-138426857D01*
X171656352Y-138464952D01*
X171637304Y-138522095D01*
X171599209Y-138560190D01*
X171561114Y-138579238D01*
X171484923Y-138598285D01*
X171427780Y-138598285D01*
X171351590Y-138579238D01*
X171313495Y-138560190D01*
X171275400Y-138522095D01*
X171256352Y-138464952D01*
X171256352Y-138426857D01*
X171275400Y-138369714D01*
X171294447Y-138350666D01*
X176749047Y-139909428D02*
X176749047Y-139604666D01*
X176672857Y-139280857D02*
X176691904Y-139299904D01*
X176710952Y-139357047D01*
X176710952Y-139395142D01*
X176691904Y-139452285D01*
X176653809Y-139490380D01*
X176615714Y-139509428D01*
X176539523Y-139528476D01*
X176482380Y-139528476D01*
X176406190Y-139509428D01*
X176368095Y-139490380D01*
X176330000Y-139452285D01*
X176310952Y-139395142D01*
X176310952Y-139357047D01*
X176330000Y-139299904D01*
X176349047Y-139280857D01*
X176710952Y-139109428D02*
X176310952Y-139109428D01*
X176501428Y-139109428D02*
X176501428Y-138880857D01*
X176710952Y-138880857D02*
X176310952Y-138880857D01*
X176710952Y-138690380D02*
X176310952Y-138690380D01*
X176710952Y-138461809D01*
X176310952Y-138461809D01*
X176330000Y-138061809D02*
X176310952Y-138099904D01*
X176310952Y-138157047D01*
X176330000Y-138214190D01*
X176368095Y-138252285D01*
X176406190Y-138271333D01*
X176482380Y-138290380D01*
X176539523Y-138290380D01*
X176615714Y-138271333D01*
X176653809Y-138252285D01*
X176691904Y-138214190D01*
X176710952Y-138157047D01*
X176710952Y-138118952D01*
X176691904Y-138061809D01*
X176672857Y-138042761D01*
X176539523Y-138042761D01*
X176539523Y-138118952D01*
X174209047Y-139722095D02*
X174209047Y-139417333D01*
X174170952Y-139322095D02*
X173770952Y-139322095D01*
X174170952Y-139131619D02*
X173770952Y-139131619D01*
X174170952Y-138903047D01*
X173770952Y-138903047D01*
X173770952Y-138712571D02*
X174094761Y-138712571D01*
X174132857Y-138693523D01*
X174151904Y-138674476D01*
X174170952Y-138636380D01*
X174170952Y-138560190D01*
X174151904Y-138522095D01*
X174132857Y-138503047D01*
X174094761Y-138484000D01*
X173770952Y-138484000D01*
X174151904Y-138312571D02*
X174170952Y-138255428D01*
X174170952Y-138160190D01*
X174151904Y-138122095D01*
X174132857Y-138103047D01*
X174094761Y-138084000D01*
X174056666Y-138084000D01*
X174018571Y-138103047D01*
X173999523Y-138122095D01*
X173980476Y-138160190D01*
X173961428Y-138236380D01*
X173942380Y-138274476D01*
X173923333Y-138293523D01*
X173885238Y-138312571D01*
X173847142Y-138312571D01*
X173809047Y-138293523D01*
X173790000Y-138274476D01*
X173770952Y-138236380D01*
X173770952Y-138141142D01*
X173790000Y-138084000D01*
X173961428Y-137912571D02*
X173961428Y-137779238D01*
X174170952Y-137722095D02*
X174170952Y-137912571D01*
X173770952Y-137912571D01*
X173770952Y-137722095D01*
X169129047Y-139712571D02*
X169129047Y-139407809D01*
X169090952Y-139312571D02*
X168690952Y-139312571D01*
X169090952Y-139122095D02*
X168690952Y-139122095D01*
X169090952Y-138893523D01*
X168690952Y-138893523D01*
X169090952Y-138703047D02*
X168690952Y-138703047D01*
X168690952Y-138607809D01*
X168710000Y-138550666D01*
X168748095Y-138512571D01*
X168786190Y-138493523D01*
X168862380Y-138474476D01*
X168919523Y-138474476D01*
X168995714Y-138493523D01*
X169033809Y-138512571D01*
X169071904Y-138550666D01*
X169090952Y-138607809D01*
X169090952Y-138703047D01*
X168881428Y-138303047D02*
X168881428Y-138169714D01*
X169090952Y-138112571D02*
X169090952Y-138303047D01*
X168690952Y-138303047D01*
X168690952Y-138112571D01*
X168690952Y-137979238D02*
X169090952Y-137712571D01*
X168690952Y-137712571D02*
X169090952Y-137979238D01*
D10*
X167888409Y-143335238D02*
X167888409Y-142954285D01*
X167816980Y-142859047D02*
X167840790Y-142787619D01*
X167840790Y-142668571D01*
X167816980Y-142620952D01*
X167793171Y-142597142D01*
X167745552Y-142573333D01*
X167697933Y-142573333D01*
X167650314Y-142597142D01*
X167626504Y-142620952D01*
X167602695Y-142668571D01*
X167578885Y-142763809D01*
X167555076Y-142811428D01*
X167531266Y-142835238D01*
X167483647Y-142859047D01*
X167436028Y-142859047D01*
X167388409Y-142835238D01*
X167364600Y-142811428D01*
X167340790Y-142763809D01*
X167340790Y-142644761D01*
X167364600Y-142573333D01*
X167578885Y-142359047D02*
X167578885Y-142192380D01*
X167840790Y-142120952D02*
X167840790Y-142359047D01*
X167340790Y-142359047D01*
X167340790Y-142120952D01*
X167840790Y-141668571D02*
X167840790Y-141906666D01*
X167340790Y-141906666D01*
X167340790Y-141406666D02*
X167340790Y-141359047D01*
X167364600Y-141311428D01*
X167388409Y-141287619D01*
X167436028Y-141263809D01*
X167531266Y-141240000D01*
X167650314Y-141240000D01*
X167745552Y-141263809D01*
X167793171Y-141287619D01*
X167816980Y-141311428D01*
X167840790Y-141359047D01*
X167840790Y-141406666D01*
X167816980Y-141454285D01*
X167793171Y-141478095D01*
X167745552Y-141501904D01*
X167650314Y-141525714D01*
X167531266Y-141525714D01*
X167436028Y-141501904D01*
X167388409Y-141478095D01*
X167364600Y-141454285D01*
X167340790Y-141406666D01*
X165373809Y-143309838D02*
X165373809Y-142928885D01*
X165302380Y-142833647D02*
X165326190Y-142762219D01*
X165326190Y-142643171D01*
X165302380Y-142595552D01*
X165278571Y-142571742D01*
X165230952Y-142547933D01*
X165183333Y-142547933D01*
X165135714Y-142571742D01*
X165111904Y-142595552D01*
X165088095Y-142643171D01*
X165064285Y-142738409D01*
X165040476Y-142786028D01*
X165016666Y-142809838D01*
X164969047Y-142833647D01*
X164921428Y-142833647D01*
X164873809Y-142809838D01*
X164850000Y-142786028D01*
X164826190Y-142738409D01*
X164826190Y-142619361D01*
X164850000Y-142547933D01*
X165064285Y-142333647D02*
X165064285Y-142166980D01*
X165326190Y-142095552D02*
X165326190Y-142333647D01*
X164826190Y-142333647D01*
X164826190Y-142095552D01*
X165326190Y-141643171D02*
X165326190Y-141881266D01*
X164826190Y-141881266D01*
X165326190Y-141214600D02*
X165326190Y-141500314D01*
X165326190Y-141357457D02*
X164826190Y-141357457D01*
X164897619Y-141405076D01*
X164945238Y-141452695D01*
X164969047Y-141500314D01*
D11*
X160293809Y-142931238D02*
X160293809Y-142550286D01*
X160246190Y-142431238D02*
X159746190Y-142431238D01*
X160103333Y-142264572D01*
X159746190Y-142097905D01*
X160246190Y-142097905D01*
X159746190Y-141931238D02*
X159746190Y-141645524D01*
X160246190Y-141788381D02*
X159746190Y-141788381D01*
X160246190Y-141193143D02*
X160008095Y-141359810D01*
X160246190Y-141478857D02*
X159746190Y-141478857D01*
X159746190Y-141288381D01*
X159770000Y-141240762D01*
X159793809Y-141216952D01*
X159841428Y-141193143D01*
X159912857Y-141193143D01*
X159960476Y-141216952D01*
X159984285Y-141240762D01*
X160008095Y-141288381D01*
X160008095Y-141478857D01*
X157753809Y-142716952D02*
X157753809Y-142336000D01*
X157706190Y-142216952D02*
X157206190Y-142216952D01*
X157206190Y-142097905D01*
X157230000Y-142026476D01*
X157277619Y-141978857D01*
X157325238Y-141955048D01*
X157420476Y-141931238D01*
X157491904Y-141931238D01*
X157587142Y-141955048D01*
X157634761Y-141978857D01*
X157682380Y-142026476D01*
X157706190Y-142097905D01*
X157706190Y-142216952D01*
X157706190Y-141716952D02*
X157206190Y-141716952D01*
X157706190Y-141193143D02*
X157468095Y-141359809D01*
X157706190Y-141478857D02*
X157206190Y-141478857D01*
X157206190Y-141288381D01*
X157230000Y-141240762D01*
X157253809Y-141216952D01*
X157301428Y-141193143D01*
X157372857Y-141193143D01*
X157420476Y-141216952D01*
X157444285Y-141240762D01*
X157468095Y-141288381D01*
X157468095Y-141478857D01*
X155213809Y-143288381D02*
X155213809Y-142907428D01*
X155142380Y-142812190D02*
X155166190Y-142740762D01*
X155166190Y-142621714D01*
X155142380Y-142574095D01*
X155118571Y-142550285D01*
X155070952Y-142526476D01*
X155023333Y-142526476D01*
X154975714Y-142550285D01*
X154951904Y-142574095D01*
X154928095Y-142621714D01*
X154904285Y-142716952D01*
X154880476Y-142764571D01*
X154856666Y-142788381D01*
X154809047Y-142812190D01*
X154761428Y-142812190D01*
X154713809Y-142788381D01*
X154690000Y-142764571D01*
X154666190Y-142716952D01*
X154666190Y-142597904D01*
X154690000Y-142526476D01*
X154666190Y-142383619D02*
X154666190Y-142097904D01*
X155166190Y-142240762D02*
X154666190Y-142240762D01*
X154904285Y-141931238D02*
X154904285Y-141764571D01*
X155166190Y-141693143D02*
X155166190Y-141931238D01*
X154666190Y-141931238D01*
X154666190Y-141693143D01*
X155166190Y-141478857D02*
X154666190Y-141478857D01*
X154666190Y-141288381D01*
X154690000Y-141240762D01*
X154713809Y-141216952D01*
X154761428Y-141193143D01*
X154832857Y-141193143D01*
X154880476Y-141216952D01*
X154904285Y-141240762D01*
X154928095Y-141288381D01*
X154928095Y-141478857D01*
X152673809Y-143550286D02*
X152673809Y-143169334D01*
X152626190Y-143050286D02*
X152126190Y-143050286D01*
X152126190Y-142931238D01*
X152150000Y-142859810D01*
X152197619Y-142812191D01*
X152245238Y-142788381D01*
X152340476Y-142764572D01*
X152411904Y-142764572D01*
X152507142Y-142788381D01*
X152554761Y-142812191D01*
X152602380Y-142859810D01*
X152626190Y-142931238D01*
X152626190Y-143050286D01*
X152626190Y-142550286D02*
X152126190Y-142550286D01*
X152626190Y-142264572D02*
X152340476Y-142478857D01*
X152126190Y-142264572D02*
X152411904Y-142550286D01*
X152126190Y-142097905D02*
X152626190Y-141978857D01*
X152269047Y-141883619D01*
X152626190Y-141788381D01*
X152126190Y-141669334D01*
X152626190Y-141478857D02*
X152126190Y-141478857D01*
X152126190Y-141359810D01*
X152150000Y-141288381D01*
X152197619Y-141240762D01*
X152245238Y-141216953D01*
X152340476Y-141193143D01*
X152411904Y-141193143D01*
X152507142Y-141216953D01*
X152554761Y-141240762D01*
X152602380Y-141288381D01*
X152626190Y-141359810D01*
X152626190Y-141478857D01*
X150133809Y-143502666D02*
X150133809Y-143121714D01*
X150086190Y-143002666D02*
X149586190Y-143002666D01*
X149586190Y-142883619D01*
X149610000Y-142812190D01*
X149657619Y-142764571D01*
X149705238Y-142740762D01*
X149800476Y-142716952D01*
X149871904Y-142716952D01*
X149967142Y-142740762D01*
X150014761Y-142764571D01*
X150062380Y-142812190D01*
X150086190Y-142883619D01*
X150086190Y-143002666D01*
X150086190Y-142502666D02*
X149586190Y-142502666D01*
X150086190Y-142216952D02*
X149800476Y-142431238D01*
X149586190Y-142216952D02*
X149871904Y-142502666D01*
X149586190Y-142050286D02*
X150086190Y-141931238D01*
X149729047Y-141836000D01*
X150086190Y-141740762D01*
X149586190Y-141621714D01*
X149824285Y-141431238D02*
X149824285Y-141264571D01*
X150086190Y-141193143D02*
X150086190Y-141431238D01*
X149586190Y-141431238D01*
X149586190Y-141193143D01*
X147593809Y-143336000D02*
X147593809Y-142955048D01*
X147046190Y-142907429D02*
X147046190Y-142621714D01*
X147546190Y-142764572D02*
X147046190Y-142764572D01*
X147546190Y-142169333D02*
X147308095Y-142336000D01*
X147546190Y-142455048D02*
X147046190Y-142455048D01*
X147046190Y-142264572D01*
X147070000Y-142216953D01*
X147093809Y-142193143D01*
X147141428Y-142169333D01*
X147212857Y-142169333D01*
X147260476Y-142193143D01*
X147284285Y-142216953D01*
X147308095Y-142264572D01*
X147308095Y-142455048D01*
X147546190Y-141955048D02*
X147046190Y-141955048D01*
X147546190Y-141669333D02*
X147260476Y-141883619D01*
X147046190Y-141669333D02*
X147331904Y-141955048D01*
X147046190Y-141359810D02*
X147046190Y-141312191D01*
X147070000Y-141264572D01*
X147093809Y-141240762D01*
X147141428Y-141216953D01*
X147236666Y-141193143D01*
X147355714Y-141193143D01*
X147450952Y-141216953D01*
X147498571Y-141240762D01*
X147522380Y-141264572D01*
X147546190Y-141312191D01*
X147546190Y-141359810D01*
X147522380Y-141407429D01*
X147498571Y-141431238D01*
X147450952Y-141455048D01*
X147355714Y-141478857D01*
X147236666Y-141478857D01*
X147141428Y-141455048D01*
X147093809Y-141431238D01*
X147070000Y-141407429D01*
X147046190Y-141359810D01*
X144999047Y-143836857D02*
X144999047Y-143532095D01*
X144560952Y-143474952D02*
X144960952Y-143379714D01*
X144675238Y-143303523D01*
X144960952Y-143227333D01*
X144560952Y-143132095D01*
X144960952Y-142751142D02*
X144770476Y-142884476D01*
X144960952Y-142979714D02*
X144560952Y-142979714D01*
X144560952Y-142827333D01*
X144580000Y-142789238D01*
X144599047Y-142770190D01*
X144637142Y-142751142D01*
X144694285Y-142751142D01*
X144732380Y-142770190D01*
X144751428Y-142789238D01*
X144770476Y-142827333D01*
X144770476Y-142979714D01*
X144960952Y-142579714D02*
X144560952Y-142579714D01*
X144560952Y-142427333D01*
X144580000Y-142389238D01*
X144599047Y-142370190D01*
X144637142Y-142351142D01*
X144694285Y-142351142D01*
X144732380Y-142370190D01*
X144751428Y-142389238D01*
X144770476Y-142427333D01*
X144770476Y-142579714D01*
X144960952Y-141951142D02*
X144770476Y-142084476D01*
X144960952Y-142179714D02*
X144560952Y-142179714D01*
X144560952Y-142027333D01*
X144580000Y-141989238D01*
X144599047Y-141970190D01*
X144637142Y-141951142D01*
X144694285Y-141951142D01*
X144732380Y-141970190D01*
X144751428Y-141989238D01*
X144770476Y-142027333D01*
X144770476Y-142179714D01*
X144560952Y-141703523D02*
X144560952Y-141627333D01*
X144580000Y-141589238D01*
X144618095Y-141551142D01*
X144694285Y-141532095D01*
X144827619Y-141532095D01*
X144903809Y-141551142D01*
X144941904Y-141589238D01*
X144960952Y-141627333D01*
X144960952Y-141703523D01*
X144941904Y-141741619D01*
X144903809Y-141779714D01*
X144827619Y-141798761D01*
X144694285Y-141798761D01*
X144618095Y-141779714D01*
X144580000Y-141741619D01*
X144560952Y-141703523D01*
X144560952Y-141417809D02*
X144560952Y-141189238D01*
X144960952Y-141303523D02*
X144560952Y-141303523D01*
X142513809Y-143478857D02*
X142513809Y-143097904D01*
X142466190Y-142978857D02*
X141966190Y-142978857D01*
X141966190Y-142859809D01*
X141990000Y-142788381D01*
X142037619Y-142740761D01*
X142085238Y-142716952D01*
X142180476Y-142693142D01*
X142251904Y-142693142D01*
X142347142Y-142716952D01*
X142394761Y-142740761D01*
X142442380Y-142788381D01*
X142466190Y-142859809D01*
X142466190Y-142978857D01*
X142466190Y-142478857D02*
X141966190Y-142478857D01*
X142466190Y-142193142D02*
X142180476Y-142407428D01*
X141966190Y-142193142D02*
X142251904Y-142478857D01*
X142466190Y-141693142D02*
X142228095Y-141859809D01*
X142466190Y-141978857D02*
X141966190Y-141978857D01*
X141966190Y-141788381D01*
X141990000Y-141740761D01*
X142013809Y-141716952D01*
X142061428Y-141693142D01*
X142132857Y-141693142D01*
X142180476Y-141716952D01*
X142204285Y-141740761D01*
X142228095Y-141788381D01*
X142228095Y-141978857D01*
X142466190Y-141478857D02*
X141966190Y-141478857D01*
X141966190Y-141359809D01*
X141990000Y-141288381D01*
X142037619Y-141240761D01*
X142085238Y-141216952D01*
X142180476Y-141193142D01*
X142251904Y-141193142D01*
X142347142Y-141216952D01*
X142394761Y-141240761D01*
X142442380Y-141288381D01*
X142466190Y-141359809D01*
X142466190Y-141478857D01*
X139973809Y-143145524D02*
X139973809Y-142764572D01*
X139902380Y-142669334D02*
X139926190Y-142597905D01*
X139926190Y-142478857D01*
X139902380Y-142431238D01*
X139878571Y-142407429D01*
X139830952Y-142383619D01*
X139783333Y-142383619D01*
X139735714Y-142407429D01*
X139711904Y-142431238D01*
X139688095Y-142478857D01*
X139664285Y-142574095D01*
X139640476Y-142621715D01*
X139616666Y-142645524D01*
X139569047Y-142669334D01*
X139521428Y-142669334D01*
X139473809Y-142645524D01*
X139450000Y-142621715D01*
X139426190Y-142574095D01*
X139426190Y-142455048D01*
X139450000Y-142383619D01*
X139926190Y-142169334D02*
X139426190Y-142169334D01*
X139926190Y-141931238D02*
X139426190Y-141931238D01*
X139426190Y-141812191D01*
X139450000Y-141740762D01*
X139497619Y-141693143D01*
X139545238Y-141669334D01*
X139640476Y-141645524D01*
X139711904Y-141645524D01*
X139807142Y-141669334D01*
X139854761Y-141693143D01*
X139902380Y-141740762D01*
X139926190Y-141812191D01*
X139926190Y-141931238D01*
X139664285Y-141431238D02*
X139664285Y-141264572D01*
X139926190Y-141193143D02*
X139926190Y-141431238D01*
X139426190Y-141431238D01*
X139426190Y-141193143D01*
X137433809Y-142907428D02*
X137433809Y-142526476D01*
X137386190Y-142121714D02*
X137148095Y-142288381D01*
X137386190Y-142407428D02*
X136886190Y-142407428D01*
X136886190Y-142216952D01*
X136910000Y-142169333D01*
X136933809Y-142145524D01*
X136981428Y-142121714D01*
X137052857Y-142121714D01*
X137100476Y-142145524D01*
X137124285Y-142169333D01*
X137148095Y-142216952D01*
X137148095Y-142407428D01*
X137386190Y-141907428D02*
X136886190Y-141907428D01*
X136886190Y-141788381D01*
X136910000Y-141716952D01*
X136957619Y-141669333D01*
X137005238Y-141645524D01*
X137100476Y-141621714D01*
X137171904Y-141621714D01*
X137267142Y-141645524D01*
X137314761Y-141669333D01*
X137362380Y-141716952D01*
X137386190Y-141788381D01*
X137386190Y-141907428D01*
X137148095Y-141312190D02*
X137386190Y-141312190D01*
X136886190Y-141478857D02*
X137148095Y-141312190D01*
X136886190Y-141145524D01*
D10*
X129608342Y-139761114D02*
X129989295Y-139761114D01*
X129798819Y-139951590D02*
X129798819Y-139570638D01*
X130465485Y-139451590D02*
X130227390Y-139451590D01*
X130203580Y-139689685D01*
X130227390Y-139665876D01*
X130275009Y-139642066D01*
X130394057Y-139642066D01*
X130441676Y-139665876D01*
X130465485Y-139689685D01*
X130489295Y-139737304D01*
X130489295Y-139856352D01*
X130465485Y-139903971D01*
X130441676Y-139927780D01*
X130394057Y-139951590D01*
X130275009Y-139951590D01*
X130227390Y-139927780D01*
X130203580Y-139903971D01*
X130632152Y-139451590D02*
X130798819Y-139951590D01*
X130965485Y-139451590D01*
X127330247Y-139475400D02*
X127282628Y-139451590D01*
X127211200Y-139451590D01*
X127139771Y-139475400D01*
X127092152Y-139523019D01*
X127068342Y-139570638D01*
X127044533Y-139665876D01*
X127044533Y-139737304D01*
X127068342Y-139832542D01*
X127092152Y-139880161D01*
X127139771Y-139927780D01*
X127211200Y-139951590D01*
X127258819Y-139951590D01*
X127330247Y-139927780D01*
X127354057Y-139903971D01*
X127354057Y-139737304D01*
X127258819Y-139737304D01*
X127568342Y-139951590D02*
X127568342Y-139451590D01*
X127854057Y-139951590D01*
X127854057Y-139451590D01*
X128092152Y-139951590D02*
X128092152Y-139451590D01*
X128211200Y-139451590D01*
X128282628Y-139475400D01*
X128330247Y-139523019D01*
X128354057Y-139570638D01*
X128377866Y-139665876D01*
X128377866Y-139737304D01*
X128354057Y-139832542D01*
X128330247Y-139880161D01*
X128282628Y-139927780D01*
X128211200Y-139951590D01*
X128092152Y-139951590D01*
X125044247Y-139475400D02*
X124996628Y-139451590D01*
X124925200Y-139451590D01*
X124853771Y-139475400D01*
X124806152Y-139523019D01*
X124782342Y-139570638D01*
X124758533Y-139665876D01*
X124758533Y-139737304D01*
X124782342Y-139832542D01*
X124806152Y-139880161D01*
X124853771Y-139927780D01*
X124925200Y-139951590D01*
X124972819Y-139951590D01*
X125044247Y-139927780D01*
X125068057Y-139903971D01*
X125068057Y-139737304D01*
X124972819Y-139737304D01*
X125282342Y-139951590D02*
X125282342Y-139451590D01*
X125568057Y-139951590D01*
X125568057Y-139451590D01*
X125806152Y-139951590D02*
X125806152Y-139451590D01*
X125925200Y-139451590D01*
X125996628Y-139475400D01*
X126044247Y-139523019D01*
X126068057Y-139570638D01*
X126091866Y-139665876D01*
X126091866Y-139737304D01*
X126068057Y-139832542D01*
X126044247Y-139880161D01*
X125996628Y-139927780D01*
X125925200Y-139951590D01*
X125806152Y-139951590D01*
X121750247Y-139761114D02*
X122131200Y-139761114D01*
X121940723Y-139951590D02*
X121940723Y-139570638D01*
X122631200Y-139951590D02*
X122345485Y-139951590D01*
X122488342Y-139951590D02*
X122488342Y-139451590D01*
X122440723Y-139523019D01*
X122393104Y-139570638D01*
X122345485Y-139594447D01*
X122821676Y-139499209D02*
X122845485Y-139475400D01*
X122893104Y-139451590D01*
X123012152Y-139451590D01*
X123059771Y-139475400D01*
X123083580Y-139499209D01*
X123107390Y-139546828D01*
X123107390Y-139594447D01*
X123083580Y-139665876D01*
X122797866Y-139951590D01*
X123107390Y-139951590D01*
X123250247Y-139451590D02*
X123416914Y-139951590D01*
X123583580Y-139451590D01*
X180060571Y-120757904D02*
X179603428Y-120757904D01*
X179832000Y-120757904D02*
X179832000Y-119957904D01*
X179755809Y-120072190D01*
X179679619Y-120148380D01*
X179603428Y-120186476D01*
X180060571Y-129012904D02*
X179603428Y-129012904D01*
X179832000Y-129012904D02*
X179832000Y-128212904D01*
X179755809Y-128327190D01*
X179679619Y-128403380D01*
X179603428Y-128441476D01*
X180117714Y-136342380D02*
X179546285Y-136342380D01*
X179832000Y-136342380D02*
X179832000Y-135342380D01*
X179736761Y-135485238D01*
X179641523Y-135580476D01*
X179546285Y-135628095D01*
X180945285Y-122297000D02*
X180945285Y-121832714D01*
X181231000Y-122082714D01*
X181231000Y-121975571D01*
X181266714Y-121904142D01*
X181302428Y-121868428D01*
X181373857Y-121832714D01*
X181552428Y-121832714D01*
X181623857Y-121868428D01*
X181659571Y-121904142D01*
X181695285Y-121975571D01*
X181695285Y-122189857D01*
X181659571Y-122261285D01*
X181623857Y-122297000D01*
D11*
X187852809Y-127460238D02*
X187852809Y-127079285D01*
X187781380Y-126984047D02*
X187805190Y-126912619D01*
X187805190Y-126793571D01*
X187781380Y-126745952D01*
X187757571Y-126722142D01*
X187709952Y-126698333D01*
X187662333Y-126698333D01*
X187614714Y-126722142D01*
X187590904Y-126745952D01*
X187567095Y-126793571D01*
X187543285Y-126888809D01*
X187519476Y-126936428D01*
X187495666Y-126960238D01*
X187448047Y-126984047D01*
X187400428Y-126984047D01*
X187352809Y-126960238D01*
X187329000Y-126936428D01*
X187305190Y-126888809D01*
X187305190Y-126769761D01*
X187329000Y-126698333D01*
X187543285Y-126484047D02*
X187543285Y-126317380D01*
X187805190Y-126245952D02*
X187805190Y-126484047D01*
X187305190Y-126484047D01*
X187305190Y-126245952D01*
X187805190Y-125793571D02*
X187805190Y-126031666D01*
X187305190Y-126031666D01*
X187805190Y-125365000D02*
X187805190Y-125650714D01*
X187805190Y-125507857D02*
X187305190Y-125507857D01*
X187376619Y-125555476D01*
X187424238Y-125603095D01*
X187448047Y-125650714D01*
X181566309Y-127460238D02*
X181566309Y-127079285D01*
X181494880Y-126984047D02*
X181518690Y-126912619D01*
X181518690Y-126793571D01*
X181494880Y-126745952D01*
X181471071Y-126722142D01*
X181423452Y-126698333D01*
X181375833Y-126698333D01*
X181328214Y-126722142D01*
X181304404Y-126745952D01*
X181280595Y-126793571D01*
X181256785Y-126888809D01*
X181232976Y-126936428D01*
X181209166Y-126960238D01*
X181161547Y-126984047D01*
X181113928Y-126984047D01*
X181066309Y-126960238D01*
X181042500Y-126936428D01*
X181018690Y-126888809D01*
X181018690Y-126769761D01*
X181042500Y-126698333D01*
X181256785Y-126484047D02*
X181256785Y-126317380D01*
X181518690Y-126245952D02*
X181518690Y-126484047D01*
X181018690Y-126484047D01*
X181018690Y-126245952D01*
X181518690Y-125793571D02*
X181518690Y-126031666D01*
X181018690Y-126031666D01*
X181018690Y-125531666D02*
X181018690Y-125484047D01*
X181042500Y-125436428D01*
X181066309Y-125412619D01*
X181113928Y-125388809D01*
X181209166Y-125365000D01*
X181328214Y-125365000D01*
X181423452Y-125388809D01*
X181471071Y-125412619D01*
X181494880Y-125436428D01*
X181518690Y-125484047D01*
X181518690Y-125531666D01*
X181494880Y-125579285D01*
X181471071Y-125603095D01*
X181423452Y-125626904D01*
X181328214Y-125650714D01*
X181209166Y-125650714D01*
X181113928Y-125626904D01*
X181066309Y-125603095D01*
X181042500Y-125579285D01*
X181018690Y-125531666D01*
X172212000Y-144399000D02*
X172847000Y-144399000D01*
G36*
X172212000Y-146304000D02*
G01*
X171577000Y-146304000D01*
X171577000Y-145669000D01*
X172212000Y-145669000D01*
X172212000Y-146304000D01*
G37*
X172212000Y-146304000D02*
X171577000Y-146304000D01*
X171577000Y-145669000D01*
X172212000Y-145669000D01*
X172212000Y-146304000D01*
G36*
X172847000Y-144399000D02*
G01*
X172212000Y-144399000D01*
X172212000Y-143764000D01*
X172847000Y-143764000D01*
X172847000Y-144399000D01*
G37*
X172847000Y-144399000D02*
X172212000Y-144399000D01*
X172212000Y-143764000D01*
X172847000Y-143764000D01*
X172847000Y-144399000D01*
G36*
X171577000Y-144399000D02*
G01*
X170942000Y-144399000D01*
X170942000Y-143764000D01*
X171577000Y-143764000D01*
X171577000Y-144399000D01*
G37*
X171577000Y-144399000D02*
X170942000Y-144399000D01*
X170942000Y-143764000D01*
X171577000Y-143764000D01*
X171577000Y-144399000D01*
X172212000Y-145669000D02*
X172212000Y-146304000D01*
X171577000Y-145669000D02*
X171577000Y-146304000D01*
X173482000Y-146939000D02*
X174117000Y-146939000D01*
X173482000Y-143764000D02*
X174117000Y-143764000D01*
X173482000Y-143129000D02*
X174117000Y-143129000D01*
X174117000Y-143129000D02*
X174117000Y-147574000D01*
X173482000Y-143129000D02*
X173482000Y-147574000D01*
X173482000Y-147574000D02*
X174117000Y-147574000D01*
X172212000Y-147574000D02*
X172847000Y-147574000D01*
X169672000Y-147574000D02*
X170307000Y-147574000D01*
X172212000Y-146939000D02*
X172212000Y-147574000D01*
X170307000Y-146939000D02*
X170307000Y-147574000D01*
X169672000Y-146939000D02*
X172847000Y-146939000D01*
X169037000Y-146304000D02*
X172847000Y-146304000D01*
X169037000Y-145669000D02*
X174117000Y-145669000D01*
X169037000Y-146304000D02*
X169037000Y-145034000D01*
X169037000Y-145034000D02*
X174117000Y-145034000D01*
X172212000Y-143764000D02*
X172212000Y-144399000D01*
X171577000Y-143764000D02*
X171577000Y-144399000D01*
X170942000Y-143764000D02*
X170942000Y-145034000D01*
X170307000Y-144399000D02*
X171577000Y-144399000D01*
X170307000Y-143764000D02*
X170307000Y-144399000D01*
X172847000Y-142494000D02*
X172847000Y-147574000D01*
X172212000Y-142494000D02*
X172212000Y-143129000D01*
X171577000Y-143129000D02*
X172212000Y-143129000D01*
X171577000Y-142494000D02*
X171577000Y-143129000D01*
X170942000Y-142494000D02*
X170942000Y-143129000D01*
X169672000Y-142494000D02*
X172847000Y-142494000D01*
X169037000Y-143764000D02*
X169037000Y-143129000D01*
X172847000Y-143764000D02*
X169037000Y-143764000D01*
X169672000Y-142494000D02*
X169672000Y-147574000D01*
X169037000Y-143129000D02*
X170942000Y-143129000D01*
D12*
X179130000Y-142180000D02*
X176470000Y-142180000D01*
X179130000Y-144780000D02*
X179130000Y-142180000D01*
X176470000Y-144780000D02*
X176470000Y-142180000D01*
X179130000Y-144780000D02*
X176470000Y-144780000D01*
X179130000Y-146050000D02*
X179130000Y-147380000D01*
X179130000Y-147380000D02*
X177800000Y-147380000D01*
X131632000Y-140910000D02*
X131632000Y-142240000D01*
X130302000Y-140910000D02*
X131632000Y-140910000D01*
X129032000Y-140910000D02*
X129032000Y-143570000D01*
X129032000Y-143570000D02*
X121352000Y-143570000D01*
X129032000Y-140910000D02*
X121352000Y-140910000D01*
X121352000Y-140910000D02*
X121352000Y-143570000D01*
X181804000Y-130175000D02*
X183134000Y-130175000D01*
X181800500Y-130175000D02*
X181800500Y-128845000D01*
X181804000Y-122491500D02*
X187004000Y-122495000D01*
X184404000Y-130238500D02*
X184404000Y-127638500D01*
X181804000Y-127638500D02*
X184404000Y-127638500D01*
X187004000Y-122495000D02*
X187004000Y-130235000D01*
X181804000Y-122491500D02*
X181804000Y-127631500D01*
X184404000Y-130238500D02*
X187004000Y-130235000D01*
X135830000Y-128210000D02*
X135830000Y-133410000D01*
X176530000Y-128210000D02*
X135830000Y-128210000D01*
X179130000Y-133410000D02*
X135830000Y-133410000D01*
X176530000Y-128210000D02*
X176530000Y-130810000D01*
X176530000Y-130810000D02*
X179130000Y-130810000D01*
X179130000Y-130810000D02*
X179130000Y-133410000D01*
X177800000Y-128210000D02*
X179130000Y-128210000D01*
X179130000Y-128210000D02*
X179130000Y-129540000D01*
X135830000Y-119955000D02*
X135830000Y-125155000D01*
X176530000Y-119955000D02*
X135830000Y-119955000D01*
X179130000Y-125155000D02*
X135830000Y-125155000D01*
X176530000Y-119955000D02*
X176530000Y-122555000D01*
X176530000Y-122555000D02*
X179130000Y-122555000D01*
X179130000Y-122555000D02*
X179130000Y-125155000D01*
X177800000Y-119955000D02*
X179130000Y-119955000D01*
X179130000Y-119955000D02*
X179130000Y-121285000D01*
X156150000Y-144593000D02*
X156150000Y-147253000D01*
X163830000Y-144593000D02*
X156150000Y-144593000D01*
X163830000Y-147253000D02*
X156150000Y-147253000D01*
X163830000Y-144593000D02*
X163830000Y-147253000D01*
X165100000Y-144593000D02*
X166430000Y-144593000D01*
X166430000Y-144593000D02*
X166430000Y-145923000D01*
X140910000Y-144593000D02*
X140910000Y-147253000D01*
X148590000Y-144593000D02*
X140910000Y-144593000D01*
X148590000Y-147253000D02*
X140910000Y-147253000D01*
X148590000Y-144593000D02*
X148590000Y-147253000D01*
X149860000Y-144593000D02*
X151190000Y-144593000D01*
X151190000Y-144593000D02*
X151190000Y-145923000D01*
D14*
X169130571Y-148639571D02*
X169202000Y-148675285D01*
X169344857Y-148675285D01*
X169416285Y-148639571D01*
X169452000Y-148568142D01*
X169452000Y-148532428D01*
X169416285Y-148461000D01*
X169344857Y-148425285D01*
X169237714Y-148425285D01*
X169166285Y-148389571D01*
X169130571Y-148318142D01*
X169130571Y-148282428D01*
X169166285Y-148211000D01*
X169237714Y-148175285D01*
X169344857Y-148175285D01*
X169416285Y-148211000D01*
X169880571Y-148675285D02*
X169809142Y-148639571D01*
X169773428Y-148603857D01*
X169737714Y-148532428D01*
X169737714Y-148318142D01*
X169773428Y-148246714D01*
X169809142Y-148211000D01*
X169880571Y-148175285D01*
X169987714Y-148175285D01*
X170059142Y-148211000D01*
X170094857Y-148246714D01*
X170130571Y-148318142D01*
X170130571Y-148532428D01*
X170094857Y-148603857D01*
X170059142Y-148639571D01*
X169987714Y-148675285D01*
X169880571Y-148675285D01*
X170559142Y-148675285D02*
X170487714Y-148639571D01*
X170452000Y-148568142D01*
X170452000Y-147925285D01*
X171166285Y-148675285D02*
X171166285Y-148282428D01*
X171130571Y-148211000D01*
X171059142Y-148175285D01*
X170916285Y-148175285D01*
X170844857Y-148211000D01*
X171166285Y-148639571D02*
X171094857Y-148675285D01*
X170916285Y-148675285D01*
X170844857Y-148639571D01*
X170809142Y-148568142D01*
X170809142Y-148496714D01*
X170844857Y-148425285D01*
X170916285Y-148389571D01*
X171094857Y-148389571D01*
X171166285Y-148353857D01*
X171523428Y-148675285D02*
X171523428Y-148175285D01*
X171523428Y-148318142D02*
X171559142Y-148246714D01*
X171594857Y-148211000D01*
X171666285Y-148175285D01*
X171737714Y-148175285D01*
X171987714Y-148675285D02*
X171987714Y-148175285D01*
X171987714Y-148246714D02*
X172023428Y-148211000D01*
X172094857Y-148175285D01*
X172202000Y-148175285D01*
X172273428Y-148211000D01*
X172309142Y-148282428D01*
X172309142Y-148675285D01*
X172309142Y-148282428D02*
X172344857Y-148211000D01*
X172416285Y-148175285D01*
X172523428Y-148175285D01*
X172594857Y-148211000D01*
X172630571Y-148282428D01*
X172630571Y-148675285D01*
X173094857Y-148675285D02*
X173023428Y-148639571D01*
X172987714Y-148603857D01*
X172952000Y-148532428D01*
X172952000Y-148318142D01*
X172987714Y-148246714D01*
X173023428Y-148211000D01*
X173094857Y-148175285D01*
X173202000Y-148175285D01*
X173273428Y-148211000D01*
X173309142Y-148246714D01*
X173344857Y-148318142D01*
X173344857Y-148532428D01*
X173309142Y-148603857D01*
X173273428Y-148639571D01*
X173202000Y-148675285D01*
X173094857Y-148675285D01*
X173666285Y-148175285D02*
X173666285Y-148675285D01*
X173666285Y-148246714D02*
X173702000Y-148211000D01*
X173773428Y-148175285D01*
X173880571Y-148175285D01*
X173952000Y-148211000D01*
X173987714Y-148282428D01*
X173987714Y-148675285D01*
X176966666Y-147832380D02*
X176966666Y-148546666D01*
X176919047Y-148689523D01*
X176823809Y-148784761D01*
X176680952Y-148832380D01*
X176585714Y-148832380D01*
X177442857Y-148832380D02*
X177442857Y-147832380D01*
X177823809Y-147832380D01*
X177919047Y-147880000D01*
X177966666Y-147927619D01*
X178014285Y-148022857D01*
X178014285Y-148165714D01*
X177966666Y-148260952D01*
X177919047Y-148308571D01*
X177823809Y-148356190D01*
X177442857Y-148356190D01*
X178966666Y-148832380D02*
X178395238Y-148832380D01*
X178680952Y-148832380D02*
X178680952Y-147832380D01*
X178585714Y-147975238D01*
X178490476Y-148070476D01*
X178395238Y-148118095D01*
X132357904Y-142501880D02*
X132357904Y-141501880D01*
X132738857Y-141501880D01*
X132834095Y-141549500D01*
X132881714Y-141597119D01*
X132929333Y-141692357D01*
X132929333Y-141835214D01*
X132881714Y-141930452D01*
X132834095Y-141978071D01*
X132738857Y-142025690D01*
X132357904Y-142025690D01*
X133262666Y-141501880D02*
X133881714Y-141501880D01*
X133548380Y-141882833D01*
X133691238Y-141882833D01*
X133786476Y-141930452D01*
X133834095Y-141978071D01*
X133881714Y-142073309D01*
X133881714Y-142311404D01*
X133834095Y-142406642D01*
X133786476Y-142454261D01*
X133691238Y-142501880D01*
X133405523Y-142501880D01*
X133310285Y-142454261D01*
X133262666Y-142406642D01*
D10*
X132028547Y-143609166D02*
X132004738Y-143585357D01*
X131957119Y-143513928D01*
X131933309Y-143466309D01*
X131909500Y-143394880D01*
X131885690Y-143275833D01*
X131885690Y-143180595D01*
X131909500Y-143061547D01*
X131933309Y-142990119D01*
X131957119Y-142942500D01*
X132004738Y-142871071D01*
X132028547Y-142847261D01*
X132195214Y-143394880D02*
X132266642Y-143418690D01*
X132385690Y-143418690D01*
X132433309Y-143394880D01*
X132457119Y-143371071D01*
X132480928Y-143323452D01*
X132480928Y-143275833D01*
X132457119Y-143228214D01*
X132433309Y-143204404D01*
X132385690Y-143180595D01*
X132290452Y-143156785D01*
X132242833Y-143132976D01*
X132219023Y-143109166D01*
X132195214Y-143061547D01*
X132195214Y-143013928D01*
X132219023Y-142966309D01*
X132242833Y-142942500D01*
X132290452Y-142918690D01*
X132409500Y-142918690D01*
X132480928Y-142942500D01*
X132695214Y-143085357D02*
X132695214Y-143585357D01*
X132695214Y-143109166D02*
X132742833Y-143085357D01*
X132838071Y-143085357D01*
X132885690Y-143109166D01*
X132909500Y-143132976D01*
X132933309Y-143180595D01*
X132933309Y-143323452D01*
X132909500Y-143371071D01*
X132885690Y-143394880D01*
X132838071Y-143418690D01*
X132742833Y-143418690D01*
X132695214Y-143394880D01*
X133361880Y-143418690D02*
X133361880Y-143156785D01*
X133338071Y-143109166D01*
X133290452Y-143085357D01*
X133195214Y-143085357D01*
X133147595Y-143109166D01*
X133361880Y-143394880D02*
X133314261Y-143418690D01*
X133195214Y-143418690D01*
X133147595Y-143394880D01*
X133123785Y-143347261D01*
X133123785Y-143299642D01*
X133147595Y-143252023D01*
X133195214Y-143228214D01*
X133314261Y-143228214D01*
X133361880Y-143204404D01*
X133599976Y-143418690D02*
X133599976Y-143085357D01*
X133599976Y-143180595D02*
X133623785Y-143132976D01*
X133647595Y-143109166D01*
X133695214Y-143085357D01*
X133742833Y-143085357D01*
X134099976Y-143394880D02*
X134052357Y-143418690D01*
X133957119Y-143418690D01*
X133909500Y-143394880D01*
X133885690Y-143347261D01*
X133885690Y-143156785D01*
X133909500Y-143109166D01*
X133957119Y-143085357D01*
X134052357Y-143085357D01*
X134099976Y-143109166D01*
X134123785Y-143156785D01*
X134123785Y-143204404D01*
X133885690Y-143252023D01*
X134290452Y-143609166D02*
X134314261Y-143585357D01*
X134361880Y-143513928D01*
X134385690Y-143466309D01*
X134409500Y-143394880D01*
X134433309Y-143275833D01*
X134433309Y-143180595D01*
X134409500Y-143061547D01*
X134385690Y-142990119D01*
X134361880Y-142942500D01*
X134314261Y-142871071D01*
X134290452Y-142847261D01*
D14*
X183070666Y-121054761D02*
X183213523Y-121102380D01*
X183451619Y-121102380D01*
X183546857Y-121054761D01*
X183594476Y-121007142D01*
X183642095Y-120911904D01*
X183642095Y-120816666D01*
X183594476Y-120721428D01*
X183546857Y-120673809D01*
X183451619Y-120626190D01*
X183261142Y-120578571D01*
X183165904Y-120530952D01*
X183118285Y-120483333D01*
X183070666Y-120388095D01*
X183070666Y-120292857D01*
X183118285Y-120197619D01*
X183165904Y-120150000D01*
X183261142Y-120102380D01*
X183499238Y-120102380D01*
X183642095Y-120150000D01*
X183975428Y-120102380D02*
X184213523Y-121102380D01*
X184404000Y-120388095D01*
X184594476Y-121102380D01*
X184832571Y-120102380D01*
X185737333Y-121102380D02*
X185165904Y-121102380D01*
X185451619Y-121102380D02*
X185451619Y-120102380D01*
X185356380Y-120245238D01*
X185261142Y-120340476D01*
X185165904Y-120388095D01*
X174569523Y-134596142D02*
X174521904Y-134643761D01*
X174379047Y-134691380D01*
X174283809Y-134691380D01*
X174140952Y-134643761D01*
X174045714Y-134548523D01*
X173998095Y-134453285D01*
X173950476Y-134262809D01*
X173950476Y-134119952D01*
X173998095Y-133929476D01*
X174045714Y-133834238D01*
X174140952Y-133739000D01*
X174283809Y-133691380D01*
X174379047Y-133691380D01*
X174521904Y-133739000D01*
X174569523Y-133786619D01*
X174998095Y-134691380D02*
X174998095Y-133691380D01*
X175569523Y-134691380D01*
X175569523Y-133691380D01*
X176569523Y-134691380D02*
X175998095Y-134691380D01*
X176283809Y-134691380D02*
X176283809Y-133691380D01*
X176188571Y-133834238D01*
X176093333Y-133929476D01*
X175998095Y-133977095D01*
X174569523Y-126341142D02*
X174521904Y-126388761D01*
X174379047Y-126436380D01*
X174283809Y-126436380D01*
X174140952Y-126388761D01*
X174045714Y-126293523D01*
X173998095Y-126198285D01*
X173950476Y-126007809D01*
X173950476Y-125864952D01*
X173998095Y-125674476D01*
X174045714Y-125579238D01*
X174140952Y-125484000D01*
X174283809Y-125436380D01*
X174379047Y-125436380D01*
X174521904Y-125484000D01*
X174569523Y-125531619D01*
X174998095Y-126436380D02*
X174998095Y-125436380D01*
X175569523Y-126436380D01*
X175569523Y-125436380D01*
X175998095Y-125531619D02*
X176045714Y-125484000D01*
X176140952Y-125436380D01*
X176379047Y-125436380D01*
X176474285Y-125484000D01*
X176521904Y-125531619D01*
X176569523Y-125626857D01*
X176569523Y-125722095D01*
X176521904Y-125864952D01*
X175950476Y-126436380D01*
X176569523Y-126436380D01*
X154201904Y-146629380D02*
X154201904Y-145629380D01*
X154582857Y-145629380D01*
X154678095Y-145677000D01*
X154725714Y-145724619D01*
X154773333Y-145819857D01*
X154773333Y-145962714D01*
X154725714Y-146057952D01*
X154678095Y-146105571D01*
X154582857Y-146153190D01*
X154201904Y-146153190D01*
X155154285Y-145724619D02*
X155201904Y-145677000D01*
X155297142Y-145629380D01*
X155535238Y-145629380D01*
X155630476Y-145677000D01*
X155678095Y-145724619D01*
X155725714Y-145819857D01*
X155725714Y-145915095D01*
X155678095Y-146057952D01*
X155106666Y-146629380D01*
X155725714Y-146629380D01*
X138961904Y-146375380D02*
X138961904Y-145375380D01*
X139342857Y-145375380D01*
X139438095Y-145423000D01*
X139485714Y-145470619D01*
X139533333Y-145565857D01*
X139533333Y-145708714D01*
X139485714Y-145803952D01*
X139438095Y-145851571D01*
X139342857Y-145899190D01*
X138961904Y-145899190D01*
X140485714Y-146375380D02*
X139914285Y-146375380D01*
X140200000Y-146375380D02*
X140200000Y-145375380D01*
X140104761Y-145518238D01*
X140009523Y-145613476D01*
X139914285Y-145661095D01*
M02*
