G04 #@! TF.GenerationSoftware,KiCad,Pcbnew,(5.1.2)-2*
G04 #@! TF.CreationDate,2020-12-20T10:56:28+00:00*
G04 #@! TF.ProjectId,Roctec 26-pin to Amiga 34-pin Adapter,526f6374-6563-4203-9236-2d70696e2074,rev?*
G04 #@! TF.SameCoordinates,Original*
G04 #@! TF.FileFunction,Copper,L1,Top*
G04 #@! TF.FilePolarity,Positive*
%FSLAX46Y46*%
G04 Gerber Fmt 4.6, Leading zero omitted, Abs format (unit mm)*
G04 Created by KiCad (PCBNEW (5.1.2)-2) date 2020-12-20 10:56:28*
%MOMM*%
%LPD*%
G04 APERTURE LIST*
%ADD10C,1.000000*%
%ADD11O,1.700000X1.700000*%
%ADD12R,1.700000X1.700000*%
%ADD13C,0.250000*%
G04 APERTURE END LIST*
D10*
X132080000Y-97790000D03*
X134620000Y-97790000D03*
X137160000Y-97790000D03*
X139700000Y-97790000D03*
X142240000Y-97790000D03*
X144780000Y-97790000D03*
X147320000Y-97790000D03*
X111760000Y-107950000D03*
X114300000Y-107950000D03*
X116840000Y-107950000D03*
X119380000Y-107950000D03*
X121920000Y-107950000D03*
X124460000Y-107950000D03*
X127000000Y-107950000D03*
X129540000Y-107950000D03*
X132080000Y-107950000D03*
X134620000Y-107950000D03*
X137160000Y-107950000D03*
X139700000Y-107950000D03*
X142240000Y-107950000D03*
X144780000Y-107950000D03*
X147320000Y-90170000D03*
X144780000Y-90170000D03*
X142240000Y-90170000D03*
X139700000Y-90170000D03*
X137160000Y-90170000D03*
X134620000Y-90170000D03*
X132080000Y-90170000D03*
X129540000Y-90170000D03*
X127000000Y-90170000D03*
X124460000Y-90170000D03*
X121920000Y-90170000D03*
X119380000Y-90170000D03*
X116840000Y-90170000D03*
X129540000Y-97790000D03*
X127000000Y-97790000D03*
X124460000Y-97790000D03*
X121920000Y-97790000D03*
X119380000Y-97790000D03*
X116840000Y-97790000D03*
X102870000Y-114300000D03*
X100330000Y-114300000D03*
X97790000Y-114300000D03*
X95250000Y-114300000D03*
X95250000Y-109220000D03*
X102870000Y-109220000D03*
X100330000Y-109220000D03*
X97790000Y-109220000D03*
X147320000Y-107950000D03*
X149860000Y-107950000D03*
X152400000Y-107950000D03*
X111760000Y-115570000D03*
X114300000Y-115570000D03*
X116840000Y-115570000D03*
X119380000Y-115570000D03*
X121920000Y-115570000D03*
X124460000Y-115570000D03*
X127000000Y-115570000D03*
X129540000Y-115570000D03*
X132080000Y-115570000D03*
X134620000Y-115570000D03*
X137160000Y-115570000D03*
X139700000Y-115570000D03*
X142240000Y-115570000D03*
X144780000Y-115570000D03*
X147320000Y-115570000D03*
X149860000Y-115570000D03*
X152400000Y-115570000D03*
D11*
X111760000Y-113030000D03*
X111760000Y-110490000D03*
X114300000Y-113030000D03*
X114300000Y-110490000D03*
X116840000Y-113030000D03*
X116840000Y-110490000D03*
X119380000Y-113030000D03*
X119380000Y-110490000D03*
X121920000Y-113030000D03*
X121920000Y-110490000D03*
X124460000Y-113030000D03*
X124460000Y-110490000D03*
X127000000Y-113030000D03*
X127000000Y-110490000D03*
X129540000Y-113030000D03*
X129540000Y-110490000D03*
X132080000Y-113030000D03*
X132080000Y-110490000D03*
X134620000Y-113030000D03*
X134620000Y-110490000D03*
X137160000Y-113030000D03*
X137160000Y-110490000D03*
X139700000Y-113030000D03*
X139700000Y-110490000D03*
X142240000Y-113030000D03*
X142240000Y-110490000D03*
X144780000Y-113030000D03*
X144780000Y-110490000D03*
X147320000Y-113030000D03*
X147320000Y-110490000D03*
X149860000Y-113030000D03*
X149860000Y-110490000D03*
X152400000Y-113030000D03*
D12*
X152400000Y-110490000D03*
D11*
X147320000Y-92710000D03*
X147320000Y-95250000D03*
X144780000Y-92710000D03*
X144780000Y-95250000D03*
X142240000Y-92710000D03*
X142240000Y-95250000D03*
X139700000Y-92710000D03*
X139700000Y-95250000D03*
X137160000Y-92710000D03*
X137160000Y-95250000D03*
X134620000Y-92710000D03*
X134620000Y-95250000D03*
X132080000Y-92710000D03*
X132080000Y-95250000D03*
X129540000Y-92710000D03*
X129540000Y-95250000D03*
X127000000Y-92710000D03*
X127000000Y-95250000D03*
X124460000Y-92710000D03*
X124460000Y-95250000D03*
X121920000Y-92710000D03*
X121920000Y-95250000D03*
X119380000Y-92710000D03*
X119380000Y-95250000D03*
X116840000Y-92710000D03*
D12*
X116840000Y-95250000D03*
D11*
X95250000Y-111760000D03*
X97790000Y-111760000D03*
X100330000Y-111760000D03*
D12*
X102870000Y-111760000D03*
D13*
X115316000Y-114300000D02*
X114300000Y-113030000D01*
X115316000Y-121666000D02*
X115316000Y-114300000D01*
X116586000Y-123698000D02*
X115316000Y-121666000D01*
X160274000Y-117094000D02*
X152623430Y-123728570D01*
X149098000Y-94488000D02*
X149098000Y-98298000D01*
X147320000Y-92710000D02*
X149098000Y-94488000D01*
X152623430Y-123728570D02*
X116586000Y-123698000D01*
X149098000Y-98298000D02*
X150057407Y-99624593D01*
X150057407Y-99624593D02*
X157226000Y-99568000D01*
X157226000Y-99568000D02*
X160274000Y-103378000D01*
X160274000Y-103378000D02*
X160274000Y-117094000D01*
X117856000Y-114300000D02*
X116840000Y-113030000D01*
X117856000Y-120904000D02*
X117856000Y-114300000D01*
X152367962Y-123222038D02*
X119380000Y-123190000D01*
X159766000Y-116840000D02*
X152367962Y-123222038D01*
X119380000Y-123190000D02*
X117856000Y-120904000D01*
X146050000Y-93980000D02*
X146050000Y-98552000D01*
X144780000Y-92710000D02*
X146050000Y-93980000D01*
X146050000Y-98552000D02*
X147320000Y-100330000D01*
X147320000Y-100330000D02*
X156789437Y-100258563D01*
X156789437Y-100258563D02*
X159766000Y-103632000D01*
X159766000Y-103632000D02*
X159766000Y-116840000D01*
X120650000Y-114300000D02*
X119380000Y-113030000D01*
X120650000Y-120396000D02*
X120650000Y-114300000D01*
X159258000Y-116586000D02*
X152112363Y-122715637D01*
X143510000Y-93980000D02*
X143510000Y-99060000D01*
X143510000Y-99060000D02*
X144780000Y-100838000D01*
X152112363Y-122715637D02*
X122174000Y-122682000D01*
X144780000Y-100838000D02*
X156309785Y-100738215D01*
X156309785Y-100738215D02*
X159258000Y-104140000D01*
X122174000Y-122682000D02*
X120650000Y-120396000D01*
X142240000Y-92710000D02*
X143510000Y-93980000D01*
X159258000Y-104140000D02*
X159258000Y-116586000D01*
X122936000Y-119888000D02*
X122936000Y-114300000D01*
X151856569Y-122209431D02*
X124460000Y-122174000D01*
X122936000Y-114300000D02*
X121920000Y-113030000D01*
X158750000Y-116332000D02*
X151856569Y-122209431D01*
X140970000Y-93980000D02*
X140970000Y-100330000D01*
X139700000Y-92710000D02*
X140970000Y-93980000D01*
X140970000Y-100330000D02*
X142240000Y-101346000D01*
X124460000Y-122174000D02*
X122936000Y-119888000D01*
X142240000Y-101346000D02*
X155956000Y-101346000D01*
X155956000Y-101346000D02*
X158750000Y-104394000D01*
X158750000Y-104394000D02*
X158750000Y-116332000D01*
X125476000Y-114300000D02*
X124460000Y-113030000D01*
X125476000Y-119380000D02*
X125476000Y-114300000D01*
X151638000Y-121666000D02*
X126746000Y-121666000D01*
X158242000Y-116078000D02*
X151638000Y-121666000D01*
X137160000Y-92710000D02*
X138430000Y-93980000D01*
X139700000Y-101854000D02*
X155702000Y-101854000D01*
X138430000Y-93980000D02*
X138430000Y-100330000D01*
X138430000Y-100330000D02*
X139700000Y-101854000D01*
X155702000Y-101854000D02*
X158242000Y-104648000D01*
X126746000Y-121666000D02*
X125476000Y-119380000D01*
X158242000Y-104648000D02*
X158242000Y-116078000D01*
X128270000Y-114300000D02*
X127000000Y-113030000D01*
X128270000Y-118872000D02*
X128270000Y-114300000D01*
X129286000Y-121158000D02*
X128270000Y-118872000D01*
X151384000Y-121158000D02*
X129286000Y-121158000D01*
X157734000Y-115824000D02*
X151384000Y-121158000D01*
X135890000Y-93980000D02*
X135890000Y-101600000D01*
X134620000Y-92710000D02*
X135890000Y-93980000D01*
X135890000Y-101600000D02*
X137160000Y-102362000D01*
X137160000Y-102362000D02*
X155448000Y-102362000D01*
X155448000Y-102362000D02*
X157734000Y-104902000D01*
X157734000Y-104902000D02*
X157734000Y-115824000D01*
X130810000Y-118872000D02*
X130810000Y-114300000D01*
X132080000Y-120650000D02*
X130810000Y-118872000D01*
X130810000Y-114300000D02*
X129540000Y-113030000D01*
X151130000Y-120650000D02*
X132080000Y-120650000D01*
X157226000Y-115570000D02*
X151130000Y-120650000D01*
X132080000Y-92710000D02*
X133350000Y-93980000D01*
X133350000Y-101600000D02*
X134620000Y-102870000D01*
X134620000Y-102870000D02*
X155194000Y-102870000D01*
X133350000Y-93980000D02*
X133350000Y-101600000D01*
X155194000Y-102870000D02*
X157226000Y-105156000D01*
X157226000Y-105156000D02*
X157226000Y-115570000D01*
X133096000Y-114046000D02*
X132080000Y-113030000D01*
X133096000Y-117856000D02*
X133096000Y-114046000D01*
X150876000Y-120142000D02*
X134366000Y-120142000D01*
X156718000Y-115316000D02*
X150876000Y-120142000D01*
X130810000Y-93980000D02*
X130810000Y-101600000D01*
X129540000Y-92710000D02*
X130810000Y-93980000D01*
X130810000Y-101600000D02*
X132080000Y-103378000D01*
X132080000Y-103378000D02*
X154686000Y-103378000D01*
X134366000Y-120142000D02*
X133096000Y-117856000D01*
X154686000Y-103378000D02*
X156718000Y-105664000D01*
X156718000Y-105664000D02*
X156718000Y-115316000D01*
X135890000Y-111760000D02*
X134620000Y-113030000D01*
X137922000Y-111760000D02*
X135890000Y-111760000D01*
X138430000Y-116332000D02*
X138430000Y-112268000D01*
X138938000Y-116840000D02*
X138430000Y-116332000D01*
X148590000Y-111760000D02*
X144018000Y-111760000D01*
X149860000Y-113030000D02*
X148590000Y-111760000D01*
X144018000Y-111760000D02*
X143510000Y-112268000D01*
X138430000Y-112268000D02*
X137922000Y-111760000D01*
X143510000Y-112268000D02*
X143510000Y-116332000D01*
X143510000Y-116332000D02*
X143002000Y-116840000D01*
X143002000Y-116840000D02*
X138938000Y-116840000D01*
X135890000Y-114300000D02*
X134620000Y-113030000D01*
X137062308Y-119477692D02*
X135890000Y-117602000D01*
X150790527Y-119548527D02*
X137062308Y-119477692D01*
X156210000Y-115062000D02*
X150790527Y-119548527D01*
X135890000Y-117602000D02*
X135890000Y-114300000D01*
X128270000Y-93980000D02*
X128270000Y-102870000D01*
X127000000Y-92710000D02*
X128270000Y-93980000D01*
X128270000Y-102870000D02*
X129540000Y-103886000D01*
X154178000Y-103886000D02*
X156210000Y-106172000D01*
X129540000Y-103886000D02*
X154178000Y-103886000D01*
X156210000Y-106172000D02*
X156210000Y-115062000D01*
X113030000Y-111760000D02*
X113030000Y-89662000D01*
X111760000Y-113030000D02*
X113030000Y-111760000D01*
X113030000Y-89662000D02*
X114554000Y-88138000D01*
X125730000Y-91694000D02*
X124460000Y-92710000D01*
X114554000Y-88138000D02*
X124968000Y-88138000D01*
X124968000Y-88138000D02*
X125730000Y-88900000D01*
X125730000Y-88900000D02*
X125730000Y-91694000D01*
X151130000Y-111760000D02*
X152400000Y-113030000D01*
X120650000Y-94234000D02*
X120650000Y-103632000D01*
X121920000Y-92710000D02*
X120650000Y-94234000D01*
X120650000Y-103632000D02*
X121920000Y-104902000D01*
X121920000Y-104902000D02*
X149606000Y-104902000D01*
X149606000Y-104902000D02*
X151130000Y-106426000D01*
X151130000Y-106426000D02*
X151130000Y-111760000D01*
X140970000Y-111760000D02*
X142240000Y-113030000D01*
X118110000Y-94234000D02*
X118110000Y-104140000D01*
X119380000Y-92710000D02*
X118110000Y-94234000D01*
X118110000Y-104140000D02*
X119380000Y-105410000D01*
X119380000Y-105410000D02*
X139954000Y-105410000D01*
X139954000Y-105410000D02*
X140970000Y-106426000D01*
X140970000Y-106426000D02*
X140970000Y-111760000D01*
X146558000Y-118872000D02*
X146050000Y-118110000D01*
X150837773Y-118910227D02*
X146558000Y-118872000D01*
X155702000Y-114808000D02*
X150837773Y-118910227D01*
X155702000Y-106680000D02*
X155702000Y-114808000D01*
X153670000Y-104394000D02*
X155702000Y-106680000D01*
X123190000Y-103124000D02*
X124460000Y-104394000D01*
X118110000Y-91440000D02*
X118110000Y-89408000D01*
X124460000Y-104394000D02*
X153670000Y-104394000D01*
X116840000Y-92710000D02*
X118110000Y-91440000D01*
X146050000Y-118110000D02*
X146050000Y-114300000D01*
X118110000Y-89408000D02*
X118618000Y-88900000D01*
X146050000Y-114300000D02*
X144780000Y-113030000D01*
X118618000Y-88900000D02*
X122555000Y-88900000D01*
X122555000Y-88900000D02*
X123190000Y-89408000D01*
X123190000Y-89408000D02*
X123190000Y-103124000D01*
M02*
