G04 #@! TF.GenerationSoftware,KiCad,Pcbnew,(5.1.2)-2*
G04 #@! TF.CreationDate,2020-12-20T10:56:28+00:00*
G04 #@! TF.ProjectId,Roctec 26-pin to Amiga 34-pin Adapter,526f6374-6563-4203-9236-2d70696e2074,rev?*
G04 #@! TF.SameCoordinates,Original*
G04 #@! TF.FileFunction,Copper,L2,Bot*
G04 #@! TF.FilePolarity,Positive*
%FSLAX46Y46*%
G04 Gerber Fmt 4.6, Leading zero omitted, Abs format (unit mm)*
G04 Created by KiCad (PCBNEW (5.1.2)-2) date 2020-12-20 10:56:28*
%MOMM*%
%LPD*%
G04 APERTURE LIST*
%ADD10C,1.000000*%
%ADD11O,1.700000X1.700000*%
%ADD12R,1.700000X1.700000*%
%ADD13C,0.250000*%
%ADD14C,1.000000*%
%ADD15C,0.254000*%
G04 APERTURE END LIST*
D10*
X132080000Y-97790000D03*
X134620000Y-97790000D03*
X137160000Y-97790000D03*
X139700000Y-97790000D03*
X142240000Y-97790000D03*
X144780000Y-97790000D03*
X147320000Y-97790000D03*
X111760000Y-107950000D03*
X114300000Y-107950000D03*
X116840000Y-107950000D03*
X119380000Y-107950000D03*
X121920000Y-107950000D03*
X124460000Y-107950000D03*
X127000000Y-107950000D03*
X129540000Y-107950000D03*
X132080000Y-107950000D03*
X134620000Y-107950000D03*
X137160000Y-107950000D03*
X139700000Y-107950000D03*
X142240000Y-107950000D03*
X144780000Y-107950000D03*
X147320000Y-90170000D03*
X144780000Y-90170000D03*
X142240000Y-90170000D03*
X139700000Y-90170000D03*
X137160000Y-90170000D03*
X134620000Y-90170000D03*
X132080000Y-90170000D03*
X129540000Y-90170000D03*
X127000000Y-90170000D03*
X124460000Y-90170000D03*
X121920000Y-90170000D03*
X119380000Y-90170000D03*
X116840000Y-90170000D03*
X129540000Y-97790000D03*
X127000000Y-97790000D03*
X124460000Y-97790000D03*
X121920000Y-97790000D03*
X119380000Y-97790000D03*
X116840000Y-97790000D03*
X102870000Y-114300000D03*
X100330000Y-114300000D03*
X97790000Y-114300000D03*
X95250000Y-114300000D03*
X95250000Y-109220000D03*
X102870000Y-109220000D03*
X100330000Y-109220000D03*
X97790000Y-109220000D03*
X147320000Y-107950000D03*
X149860000Y-107950000D03*
X152400000Y-107950000D03*
X111760000Y-115570000D03*
X114300000Y-115570000D03*
X116840000Y-115570000D03*
X119380000Y-115570000D03*
X121920000Y-115570000D03*
X124460000Y-115570000D03*
X127000000Y-115570000D03*
X129540000Y-115570000D03*
X132080000Y-115570000D03*
X134620000Y-115570000D03*
X137160000Y-115570000D03*
X139700000Y-115570000D03*
X142240000Y-115570000D03*
X144780000Y-115570000D03*
X147320000Y-115570000D03*
X149860000Y-115570000D03*
X152400000Y-115570000D03*
D11*
X111760000Y-113030000D03*
X111760000Y-110490000D03*
X114300000Y-113030000D03*
X114300000Y-110490000D03*
X116840000Y-113030000D03*
X116840000Y-110490000D03*
X119380000Y-113030000D03*
X119380000Y-110490000D03*
X121920000Y-113030000D03*
X121920000Y-110490000D03*
X124460000Y-113030000D03*
X124460000Y-110490000D03*
X127000000Y-113030000D03*
X127000000Y-110490000D03*
X129540000Y-113030000D03*
X129540000Y-110490000D03*
X132080000Y-113030000D03*
X132080000Y-110490000D03*
X134620000Y-113030000D03*
X134620000Y-110490000D03*
X137160000Y-113030000D03*
X137160000Y-110490000D03*
X139700000Y-113030000D03*
X139700000Y-110490000D03*
X142240000Y-113030000D03*
X142240000Y-110490000D03*
X144780000Y-113030000D03*
X144780000Y-110490000D03*
X147320000Y-113030000D03*
X147320000Y-110490000D03*
X149860000Y-113030000D03*
X149860000Y-110490000D03*
X152400000Y-113030000D03*
D12*
X152400000Y-110490000D03*
D11*
X147320000Y-92710000D03*
X147320000Y-95250000D03*
X144780000Y-92710000D03*
X144780000Y-95250000D03*
X142240000Y-92710000D03*
X142240000Y-95250000D03*
X139700000Y-92710000D03*
X139700000Y-95250000D03*
X137160000Y-92710000D03*
X137160000Y-95250000D03*
X134620000Y-92710000D03*
X134620000Y-95250000D03*
X132080000Y-92710000D03*
X132080000Y-95250000D03*
X129540000Y-92710000D03*
X129540000Y-95250000D03*
X127000000Y-92710000D03*
X127000000Y-95250000D03*
X124460000Y-92710000D03*
X124460000Y-95250000D03*
X121920000Y-92710000D03*
X121920000Y-95250000D03*
X119380000Y-92710000D03*
X119380000Y-95250000D03*
X116840000Y-92710000D03*
D12*
X116840000Y-95250000D03*
D11*
X95250000Y-111760000D03*
X97790000Y-111760000D03*
X100330000Y-111760000D03*
D12*
X102870000Y-111760000D03*
D13*
X114300000Y-113030000D02*
X114300000Y-115570000D01*
X147320000Y-92710000D02*
X147320000Y-90170000D01*
X111760000Y-110490000D02*
X111760000Y-107950000D01*
X114300000Y-107950000D02*
X114300000Y-110490000D01*
X116840000Y-107950000D02*
X116840000Y-110490000D01*
X119380000Y-107950000D02*
X119380000Y-110490000D01*
X121920000Y-107950000D02*
X121920000Y-110490000D01*
X124460000Y-107950000D02*
X124460000Y-110490000D01*
X127000000Y-107950000D02*
X127000000Y-110490000D01*
X129540000Y-107950000D02*
X129540000Y-110490000D01*
X132080000Y-107950000D02*
X132080000Y-110490000D01*
X134620000Y-107950000D02*
X134620000Y-110490000D01*
X137160000Y-107950000D02*
X137160000Y-110490000D01*
X139700000Y-107950000D02*
X139700000Y-110490000D01*
X142240000Y-107950000D02*
X142240000Y-110490000D01*
X144780000Y-107950000D02*
X144780000Y-110490000D01*
X147320000Y-107950000D02*
X147320000Y-110490000D01*
X149860000Y-107950000D02*
X149860000Y-110490000D01*
X152400000Y-107950000D02*
X152400000Y-110490000D01*
X132080000Y-95250000D02*
X132080000Y-97790000D01*
X134620000Y-95250000D02*
X134620000Y-97790000D01*
X137160000Y-95250000D02*
X137160000Y-97790000D01*
X139700000Y-95250000D02*
X139700000Y-97790000D01*
X142240000Y-95250000D02*
X142240000Y-97790000D01*
X144780000Y-95250000D02*
X144780000Y-97790000D01*
X147320000Y-95250000D02*
X147320000Y-97790000D01*
X97790000Y-111760000D02*
X97790000Y-114300000D01*
X100330000Y-111760000D02*
X100330000Y-114300000D01*
X97790000Y-111760000D02*
X97790000Y-109220000D01*
X100330000Y-111760000D02*
X100330000Y-109220000D01*
X116840000Y-113030000D02*
X116840000Y-115570000D01*
X144780000Y-92710000D02*
X144780000Y-90170000D01*
X142240000Y-92710000D02*
X142240000Y-90170000D01*
X119380000Y-113030000D02*
X119380000Y-115570000D01*
X139700000Y-92710000D02*
X139700000Y-90170000D01*
X121920000Y-113030000D02*
X121920000Y-115570000D01*
X137160000Y-92710000D02*
X137160000Y-90170000D01*
X124460000Y-113030000D02*
X124460000Y-115570000D01*
X134620000Y-92710000D02*
X134620000Y-90170000D01*
X127000000Y-113030000D02*
X127000000Y-115570000D01*
X132080000Y-92710000D02*
X132080000Y-90170000D01*
X129540000Y-113030000D02*
X129540000Y-115570000D01*
X129540000Y-92710000D02*
X129540000Y-90170000D01*
X132080000Y-113030000D02*
X132080000Y-115570000D01*
X129540000Y-95250000D02*
X129540000Y-97790000D01*
X127000000Y-92710000D02*
X127000000Y-90170000D01*
X134620000Y-113030000D02*
X134620000Y-115570000D01*
X149860000Y-113030000D02*
X149860000Y-115570000D01*
X127000000Y-95250000D02*
X127000000Y-97790000D01*
X111760000Y-113030000D02*
X111760000Y-115570000D01*
X124460000Y-90170000D02*
X124460000Y-92710000D01*
D14*
X124460000Y-95250000D02*
X116840000Y-95250000D01*
X102870000Y-111760000D02*
X102870000Y-114300000D01*
X121920000Y-95250000D02*
X121920000Y-97790000D01*
X124460000Y-95250000D02*
X124460000Y-97790000D01*
X119380000Y-95250000D02*
X119380000Y-97790000D01*
X116840000Y-95250000D02*
X116840000Y-97790000D01*
X116840000Y-97790000D02*
X124460000Y-97790000D01*
X105410000Y-109220000D02*
X102870000Y-111760000D01*
X105410000Y-102870000D02*
X105410000Y-109220000D01*
X116840000Y-97790000D02*
X111760000Y-97790000D01*
X111760000Y-97790000D02*
X105410000Y-102870000D01*
X102870000Y-101600000D02*
X102870000Y-111760000D01*
X116840000Y-95250000D02*
X110490000Y-95250000D01*
X110490000Y-95250000D02*
X102870000Y-101600000D01*
D13*
X121920000Y-92710000D02*
X121920000Y-90170000D01*
X152400000Y-113030000D02*
X152400000Y-115570000D01*
X119380000Y-92710000D02*
X119380000Y-90170000D01*
X142240000Y-113030000D02*
X142240000Y-115570000D01*
X116840000Y-92710000D02*
X116840000Y-90170000D01*
X144780000Y-113030000D02*
X144780000Y-115570000D01*
X137160000Y-113030000D02*
X137160000Y-115570000D01*
X139700000Y-113030000D02*
X139700000Y-115570000D01*
X147320000Y-113030000D02*
X147320000Y-115570000D01*
X95250000Y-109220000D02*
X95250000Y-111760000D01*
X95250000Y-114300000D02*
X95250000Y-111760000D01*
D15*
G36*
X160137869Y-85764722D02*
G01*
X160251246Y-85798953D01*
X160355819Y-85854555D01*
X160447596Y-85929407D01*
X160523091Y-86020664D01*
X160579419Y-86124844D01*
X160614440Y-86237976D01*
X160630000Y-86386022D01*
X160630001Y-123792711D01*
X160615278Y-123942869D01*
X160581047Y-124056246D01*
X160525446Y-124160817D01*
X160450594Y-124252595D01*
X160359335Y-124328091D01*
X160255160Y-124384419D01*
X160142024Y-124419440D01*
X159993979Y-124435000D01*
X92615279Y-124435000D01*
X92465131Y-124420278D01*
X92351754Y-124386047D01*
X92247183Y-124330446D01*
X92155405Y-124255594D01*
X92079909Y-124164335D01*
X92023581Y-124060160D01*
X91988560Y-123947024D01*
X91973000Y-123798979D01*
X91973000Y-122384117D01*
X92118000Y-122384117D01*
X92118000Y-122725883D01*
X92184675Y-123061081D01*
X92315463Y-123376831D01*
X92505337Y-123660998D01*
X92747002Y-123902663D01*
X93031169Y-124092537D01*
X93346919Y-124223325D01*
X93682117Y-124290000D01*
X94023883Y-124290000D01*
X94359081Y-124223325D01*
X94674831Y-124092537D01*
X94958998Y-123902663D01*
X95200663Y-123660998D01*
X95390537Y-123376831D01*
X95521325Y-123061081D01*
X95588000Y-122725883D01*
X95588000Y-122384117D01*
X157015000Y-122384117D01*
X157015000Y-122725883D01*
X157081675Y-123061081D01*
X157212463Y-123376831D01*
X157402337Y-123660998D01*
X157644002Y-123902663D01*
X157928169Y-124092537D01*
X158243919Y-124223325D01*
X158579117Y-124290000D01*
X158920883Y-124290000D01*
X159256081Y-124223325D01*
X159571831Y-124092537D01*
X159855998Y-123902663D01*
X160097663Y-123660998D01*
X160287537Y-123376831D01*
X160418325Y-123061081D01*
X160485000Y-122725883D01*
X160485000Y-122384117D01*
X160418325Y-122048919D01*
X160287537Y-121733169D01*
X160097663Y-121449002D01*
X159855998Y-121207337D01*
X159571831Y-121017463D01*
X159256081Y-120886675D01*
X158920883Y-120820000D01*
X158579117Y-120820000D01*
X158243919Y-120886675D01*
X157928169Y-121017463D01*
X157644002Y-121207337D01*
X157402337Y-121449002D01*
X157212463Y-121733169D01*
X157081675Y-122048919D01*
X157015000Y-122384117D01*
X95588000Y-122384117D01*
X95521325Y-122048919D01*
X95390537Y-121733169D01*
X95200663Y-121449002D01*
X94958998Y-121207337D01*
X94674831Y-121017463D01*
X94359081Y-120886675D01*
X94023883Y-120820000D01*
X93682117Y-120820000D01*
X93346919Y-120886675D01*
X93031169Y-121017463D01*
X92747002Y-121207337D01*
X92505337Y-121449002D01*
X92315463Y-121733169D01*
X92184675Y-122048919D01*
X92118000Y-122384117D01*
X91973000Y-122384117D01*
X91973000Y-111760000D01*
X93757815Y-111760000D01*
X93786487Y-112051111D01*
X93871401Y-112331034D01*
X94009294Y-112589014D01*
X94194866Y-112815134D01*
X94420986Y-113000706D01*
X94490000Y-113037595D01*
X94490000Y-113454868D01*
X94368388Y-113576480D01*
X94244176Y-113762376D01*
X94158617Y-113968933D01*
X94115000Y-114188212D01*
X94115000Y-114411788D01*
X94158617Y-114631067D01*
X94244176Y-114837624D01*
X94368388Y-115023520D01*
X94526480Y-115181612D01*
X94712376Y-115305824D01*
X94918933Y-115391383D01*
X95138212Y-115435000D01*
X95361788Y-115435000D01*
X95581067Y-115391383D01*
X95787624Y-115305824D01*
X95973520Y-115181612D01*
X96076966Y-115078166D01*
X97191439Y-115078166D01*
X97226550Y-115291588D01*
X97430826Y-115382458D01*
X97648905Y-115431731D01*
X97872406Y-115437511D01*
X98092740Y-115399577D01*
X98301440Y-115319387D01*
X98353450Y-115291588D01*
X98388561Y-115078166D01*
X99731439Y-115078166D01*
X99766550Y-115291588D01*
X99970826Y-115382458D01*
X100188905Y-115431731D01*
X100412406Y-115437511D01*
X100632740Y-115399577D01*
X100841440Y-115319387D01*
X100893450Y-115291588D01*
X100928561Y-115078166D01*
X100330000Y-114479605D01*
X99731439Y-115078166D01*
X98388561Y-115078166D01*
X97790000Y-114479605D01*
X97191439Y-115078166D01*
X96076966Y-115078166D01*
X96131612Y-115023520D01*
X96255824Y-114837624D01*
X96341383Y-114631067D01*
X96385000Y-114411788D01*
X96385000Y-114382406D01*
X96652489Y-114382406D01*
X96690423Y-114602740D01*
X96770613Y-114811440D01*
X96798412Y-114863450D01*
X97011834Y-114898561D01*
X97610395Y-114300000D01*
X97969605Y-114300000D01*
X98568166Y-114898561D01*
X98781588Y-114863450D01*
X98872458Y-114659174D01*
X98921731Y-114441095D01*
X98923248Y-114382406D01*
X99192489Y-114382406D01*
X99230423Y-114602740D01*
X99310613Y-114811440D01*
X99338412Y-114863450D01*
X99551834Y-114898561D01*
X100150395Y-114300000D01*
X100509605Y-114300000D01*
X101108166Y-114898561D01*
X101321588Y-114863450D01*
X101412458Y-114659174D01*
X101461731Y-114441095D01*
X101467511Y-114217594D01*
X101429577Y-113997260D01*
X101349387Y-113788560D01*
X101321588Y-113736550D01*
X101108166Y-113701439D01*
X100509605Y-114300000D01*
X100150395Y-114300000D01*
X99551834Y-113701439D01*
X99338412Y-113736550D01*
X99247542Y-113940826D01*
X99198269Y-114158905D01*
X99192489Y-114382406D01*
X98923248Y-114382406D01*
X98927511Y-114217594D01*
X98889577Y-113997260D01*
X98809387Y-113788560D01*
X98781588Y-113736550D01*
X98568166Y-113701439D01*
X97969605Y-114300000D01*
X97610395Y-114300000D01*
X97011834Y-113701439D01*
X96798412Y-113736550D01*
X96707542Y-113940826D01*
X96658269Y-114158905D01*
X96652489Y-114382406D01*
X96385000Y-114382406D01*
X96385000Y-114188212D01*
X96341383Y-113968933D01*
X96255824Y-113762376D01*
X96131612Y-113576480D01*
X96010000Y-113454868D01*
X96010000Y-113037595D01*
X96079014Y-113000706D01*
X96305134Y-112815134D01*
X96490706Y-112589014D01*
X96525201Y-112524477D01*
X96594822Y-112641355D01*
X96789731Y-112857588D01*
X97023080Y-113031641D01*
X97285901Y-113156825D01*
X97433110Y-113201476D01*
X97662998Y-113080156D01*
X97662998Y-113170167D01*
X97487260Y-113200423D01*
X97278560Y-113280613D01*
X97226550Y-113308412D01*
X97191439Y-113521834D01*
X97790000Y-114120395D01*
X98388561Y-113521834D01*
X98353450Y-113308412D01*
X98149174Y-113217542D01*
X97931095Y-113168269D01*
X97917002Y-113167905D01*
X97917002Y-113080156D01*
X98146890Y-113201476D01*
X98294099Y-113156825D01*
X98556920Y-113031641D01*
X98790269Y-112857588D01*
X98985178Y-112641355D01*
X99060000Y-112515745D01*
X99134822Y-112641355D01*
X99329731Y-112857588D01*
X99563080Y-113031641D01*
X99825901Y-113156825D01*
X99973110Y-113201476D01*
X100202998Y-113080156D01*
X100202998Y-113170167D01*
X100027260Y-113200423D01*
X99818560Y-113280613D01*
X99766550Y-113308412D01*
X99731439Y-113521834D01*
X100330000Y-114120395D01*
X100928561Y-113521834D01*
X100893450Y-113308412D01*
X100689174Y-113217542D01*
X100471095Y-113168269D01*
X100457002Y-113167905D01*
X100457002Y-113080156D01*
X100686890Y-113201476D01*
X100834099Y-113156825D01*
X101096920Y-113031641D01*
X101330269Y-112857588D01*
X101406034Y-112773534D01*
X101430498Y-112854180D01*
X101489463Y-112964494D01*
X101568815Y-113061185D01*
X101665506Y-113140537D01*
X101735001Y-113177683D01*
X101735001Y-114188207D01*
X101735000Y-114188212D01*
X101735000Y-114411788D01*
X101745934Y-114466757D01*
X101751424Y-114522499D01*
X101767683Y-114576096D01*
X101778617Y-114631067D01*
X101800067Y-114682851D01*
X101816325Y-114736447D01*
X101842728Y-114785843D01*
X101864176Y-114837624D01*
X101895312Y-114884222D01*
X101921717Y-114933623D01*
X101957254Y-114976925D01*
X101988388Y-115023520D01*
X102028014Y-115063146D01*
X102063552Y-115106449D01*
X102106855Y-115141987D01*
X102146480Y-115181612D01*
X102193074Y-115212745D01*
X102236378Y-115248284D01*
X102285782Y-115274691D01*
X102332376Y-115305824D01*
X102384153Y-115327271D01*
X102433554Y-115353676D01*
X102487155Y-115369936D01*
X102538933Y-115391383D01*
X102593897Y-115402316D01*
X102647502Y-115418577D01*
X102703252Y-115424068D01*
X102758212Y-115435000D01*
X102814249Y-115435000D01*
X102870000Y-115440491D01*
X102925752Y-115435000D01*
X102981788Y-115435000D01*
X103036747Y-115424068D01*
X103092499Y-115418577D01*
X103146106Y-115402315D01*
X103201067Y-115391383D01*
X103252842Y-115369937D01*
X103306447Y-115353676D01*
X103355851Y-115327269D01*
X103407624Y-115305824D01*
X103454214Y-115274693D01*
X103503623Y-115248284D01*
X103546932Y-115212741D01*
X103593520Y-115181612D01*
X103633141Y-115141991D01*
X103676449Y-115106449D01*
X103711991Y-115063141D01*
X103751612Y-115023520D01*
X103782741Y-114976932D01*
X103818284Y-114933623D01*
X103844693Y-114884214D01*
X103875824Y-114837624D01*
X103897269Y-114785851D01*
X103923676Y-114736447D01*
X103939937Y-114682842D01*
X103961383Y-114631067D01*
X103972315Y-114576106D01*
X103988577Y-114522499D01*
X103994068Y-114466747D01*
X104005000Y-114411788D01*
X104005000Y-113177683D01*
X104074494Y-113140537D01*
X104171185Y-113061185D01*
X104196777Y-113030000D01*
X110267815Y-113030000D01*
X110296487Y-113321111D01*
X110381401Y-113601034D01*
X110519294Y-113859014D01*
X110704866Y-114085134D01*
X110930986Y-114270706D01*
X111000001Y-114307595D01*
X111000001Y-114724867D01*
X110878388Y-114846480D01*
X110754176Y-115032376D01*
X110668617Y-115238933D01*
X110625000Y-115458212D01*
X110625000Y-115681788D01*
X110668617Y-115901067D01*
X110754176Y-116107624D01*
X110878388Y-116293520D01*
X111036480Y-116451612D01*
X111222376Y-116575824D01*
X111428933Y-116661383D01*
X111648212Y-116705000D01*
X111871788Y-116705000D01*
X112091067Y-116661383D01*
X112297624Y-116575824D01*
X112483520Y-116451612D01*
X112641612Y-116293520D01*
X112765824Y-116107624D01*
X112851383Y-115901067D01*
X112895000Y-115681788D01*
X112895000Y-115458212D01*
X112851383Y-115238933D01*
X112765824Y-115032376D01*
X112641612Y-114846480D01*
X112520000Y-114724868D01*
X112520000Y-114307595D01*
X112589014Y-114270706D01*
X112815134Y-114085134D01*
X113000706Y-113859014D01*
X113030000Y-113804209D01*
X113059294Y-113859014D01*
X113244866Y-114085134D01*
X113470986Y-114270706D01*
X113540001Y-114307595D01*
X113540001Y-114724867D01*
X113418388Y-114846480D01*
X113294176Y-115032376D01*
X113208617Y-115238933D01*
X113165000Y-115458212D01*
X113165000Y-115681788D01*
X113208617Y-115901067D01*
X113294176Y-116107624D01*
X113418388Y-116293520D01*
X113576480Y-116451612D01*
X113762376Y-116575824D01*
X113968933Y-116661383D01*
X114188212Y-116705000D01*
X114411788Y-116705000D01*
X114631067Y-116661383D01*
X114837624Y-116575824D01*
X115023520Y-116451612D01*
X115181612Y-116293520D01*
X115305824Y-116107624D01*
X115391383Y-115901067D01*
X115435000Y-115681788D01*
X115435000Y-115458212D01*
X115391383Y-115238933D01*
X115305824Y-115032376D01*
X115181612Y-114846480D01*
X115060000Y-114724868D01*
X115060000Y-114307595D01*
X115129014Y-114270706D01*
X115355134Y-114085134D01*
X115540706Y-113859014D01*
X115570000Y-113804209D01*
X115599294Y-113859014D01*
X115784866Y-114085134D01*
X116010986Y-114270706D01*
X116080001Y-114307595D01*
X116080001Y-114724867D01*
X115958388Y-114846480D01*
X115834176Y-115032376D01*
X115748617Y-115238933D01*
X115705000Y-115458212D01*
X115705000Y-115681788D01*
X115748617Y-115901067D01*
X115834176Y-116107624D01*
X115958388Y-116293520D01*
X116116480Y-116451612D01*
X116302376Y-116575824D01*
X116508933Y-116661383D01*
X116728212Y-116705000D01*
X116951788Y-116705000D01*
X117171067Y-116661383D01*
X117377624Y-116575824D01*
X117563520Y-116451612D01*
X117721612Y-116293520D01*
X117845824Y-116107624D01*
X117931383Y-115901067D01*
X117975000Y-115681788D01*
X117975000Y-115458212D01*
X117931383Y-115238933D01*
X117845824Y-115032376D01*
X117721612Y-114846480D01*
X117600000Y-114724868D01*
X117600000Y-114307595D01*
X117669014Y-114270706D01*
X117895134Y-114085134D01*
X118080706Y-113859014D01*
X118110000Y-113804209D01*
X118139294Y-113859014D01*
X118324866Y-114085134D01*
X118550986Y-114270706D01*
X118620001Y-114307595D01*
X118620001Y-114724867D01*
X118498388Y-114846480D01*
X118374176Y-115032376D01*
X118288617Y-115238933D01*
X118245000Y-115458212D01*
X118245000Y-115681788D01*
X118288617Y-115901067D01*
X118374176Y-116107624D01*
X118498388Y-116293520D01*
X118656480Y-116451612D01*
X118842376Y-116575824D01*
X119048933Y-116661383D01*
X119268212Y-116705000D01*
X119491788Y-116705000D01*
X119711067Y-116661383D01*
X119917624Y-116575824D01*
X120103520Y-116451612D01*
X120261612Y-116293520D01*
X120385824Y-116107624D01*
X120471383Y-115901067D01*
X120515000Y-115681788D01*
X120515000Y-115458212D01*
X120471383Y-115238933D01*
X120385824Y-115032376D01*
X120261612Y-114846480D01*
X120140000Y-114724868D01*
X120140000Y-114307595D01*
X120209014Y-114270706D01*
X120435134Y-114085134D01*
X120620706Y-113859014D01*
X120650000Y-113804209D01*
X120679294Y-113859014D01*
X120864866Y-114085134D01*
X121090986Y-114270706D01*
X121160001Y-114307595D01*
X121160001Y-114724867D01*
X121038388Y-114846480D01*
X120914176Y-115032376D01*
X120828617Y-115238933D01*
X120785000Y-115458212D01*
X120785000Y-115681788D01*
X120828617Y-115901067D01*
X120914176Y-116107624D01*
X121038388Y-116293520D01*
X121196480Y-116451612D01*
X121382376Y-116575824D01*
X121588933Y-116661383D01*
X121808212Y-116705000D01*
X122031788Y-116705000D01*
X122251067Y-116661383D01*
X122457624Y-116575824D01*
X122643520Y-116451612D01*
X122801612Y-116293520D01*
X122925824Y-116107624D01*
X123011383Y-115901067D01*
X123055000Y-115681788D01*
X123055000Y-115458212D01*
X123011383Y-115238933D01*
X122925824Y-115032376D01*
X122801612Y-114846480D01*
X122680000Y-114724868D01*
X122680000Y-114307595D01*
X122749014Y-114270706D01*
X122975134Y-114085134D01*
X123160706Y-113859014D01*
X123190000Y-113804209D01*
X123219294Y-113859014D01*
X123404866Y-114085134D01*
X123630986Y-114270706D01*
X123700001Y-114307595D01*
X123700001Y-114724867D01*
X123578388Y-114846480D01*
X123454176Y-115032376D01*
X123368617Y-115238933D01*
X123325000Y-115458212D01*
X123325000Y-115681788D01*
X123368617Y-115901067D01*
X123454176Y-116107624D01*
X123578388Y-116293520D01*
X123736480Y-116451612D01*
X123922376Y-116575824D01*
X124128933Y-116661383D01*
X124348212Y-116705000D01*
X124571788Y-116705000D01*
X124791067Y-116661383D01*
X124997624Y-116575824D01*
X125183520Y-116451612D01*
X125341612Y-116293520D01*
X125465824Y-116107624D01*
X125551383Y-115901067D01*
X125595000Y-115681788D01*
X125595000Y-115458212D01*
X125551383Y-115238933D01*
X125465824Y-115032376D01*
X125341612Y-114846480D01*
X125220000Y-114724868D01*
X125220000Y-114307595D01*
X125289014Y-114270706D01*
X125515134Y-114085134D01*
X125700706Y-113859014D01*
X125730000Y-113804209D01*
X125759294Y-113859014D01*
X125944866Y-114085134D01*
X126170986Y-114270706D01*
X126240001Y-114307595D01*
X126240001Y-114724867D01*
X126118388Y-114846480D01*
X125994176Y-115032376D01*
X125908617Y-115238933D01*
X125865000Y-115458212D01*
X125865000Y-115681788D01*
X125908617Y-115901067D01*
X125994176Y-116107624D01*
X126118388Y-116293520D01*
X126276480Y-116451612D01*
X126462376Y-116575824D01*
X126668933Y-116661383D01*
X126888212Y-116705000D01*
X127111788Y-116705000D01*
X127331067Y-116661383D01*
X127537624Y-116575824D01*
X127723520Y-116451612D01*
X127881612Y-116293520D01*
X128005824Y-116107624D01*
X128091383Y-115901067D01*
X128135000Y-115681788D01*
X128135000Y-115458212D01*
X128091383Y-115238933D01*
X128005824Y-115032376D01*
X127881612Y-114846480D01*
X127760000Y-114724868D01*
X127760000Y-114307595D01*
X127829014Y-114270706D01*
X128055134Y-114085134D01*
X128240706Y-113859014D01*
X128270000Y-113804209D01*
X128299294Y-113859014D01*
X128484866Y-114085134D01*
X128710986Y-114270706D01*
X128780001Y-114307595D01*
X128780001Y-114724867D01*
X128658388Y-114846480D01*
X128534176Y-115032376D01*
X128448617Y-115238933D01*
X128405000Y-115458212D01*
X128405000Y-115681788D01*
X128448617Y-115901067D01*
X128534176Y-116107624D01*
X128658388Y-116293520D01*
X128816480Y-116451612D01*
X129002376Y-116575824D01*
X129208933Y-116661383D01*
X129428212Y-116705000D01*
X129651788Y-116705000D01*
X129871067Y-116661383D01*
X130077624Y-116575824D01*
X130263520Y-116451612D01*
X130421612Y-116293520D01*
X130545824Y-116107624D01*
X130631383Y-115901067D01*
X130675000Y-115681788D01*
X130675000Y-115458212D01*
X130631383Y-115238933D01*
X130545824Y-115032376D01*
X130421612Y-114846480D01*
X130300000Y-114724868D01*
X130300000Y-114307595D01*
X130369014Y-114270706D01*
X130595134Y-114085134D01*
X130780706Y-113859014D01*
X130810000Y-113804209D01*
X130839294Y-113859014D01*
X131024866Y-114085134D01*
X131250986Y-114270706D01*
X131320001Y-114307595D01*
X131320001Y-114724867D01*
X131198388Y-114846480D01*
X131074176Y-115032376D01*
X130988617Y-115238933D01*
X130945000Y-115458212D01*
X130945000Y-115681788D01*
X130988617Y-115901067D01*
X131074176Y-116107624D01*
X131198388Y-116293520D01*
X131356480Y-116451612D01*
X131542376Y-116575824D01*
X131748933Y-116661383D01*
X131968212Y-116705000D01*
X132191788Y-116705000D01*
X132411067Y-116661383D01*
X132617624Y-116575824D01*
X132803520Y-116451612D01*
X132961612Y-116293520D01*
X133085824Y-116107624D01*
X133171383Y-115901067D01*
X133215000Y-115681788D01*
X133215000Y-115458212D01*
X133171383Y-115238933D01*
X133085824Y-115032376D01*
X132961612Y-114846480D01*
X132840000Y-114724868D01*
X132840000Y-114307595D01*
X132909014Y-114270706D01*
X133135134Y-114085134D01*
X133320706Y-113859014D01*
X133350000Y-113804209D01*
X133379294Y-113859014D01*
X133564866Y-114085134D01*
X133790986Y-114270706D01*
X133860001Y-114307595D01*
X133860001Y-114724867D01*
X133738388Y-114846480D01*
X133614176Y-115032376D01*
X133528617Y-115238933D01*
X133485000Y-115458212D01*
X133485000Y-115681788D01*
X133528617Y-115901067D01*
X133614176Y-116107624D01*
X133738388Y-116293520D01*
X133896480Y-116451612D01*
X134082376Y-116575824D01*
X134288933Y-116661383D01*
X134508212Y-116705000D01*
X134731788Y-116705000D01*
X134951067Y-116661383D01*
X135157624Y-116575824D01*
X135343520Y-116451612D01*
X135501612Y-116293520D01*
X135625824Y-116107624D01*
X135711383Y-115901067D01*
X135755000Y-115681788D01*
X135755000Y-115458212D01*
X135711383Y-115238933D01*
X135625824Y-115032376D01*
X135501612Y-114846480D01*
X135380000Y-114724868D01*
X135380000Y-114307595D01*
X135449014Y-114270706D01*
X135675134Y-114085134D01*
X135860706Y-113859014D01*
X135890000Y-113804209D01*
X135919294Y-113859014D01*
X136104866Y-114085134D01*
X136330986Y-114270706D01*
X136400001Y-114307595D01*
X136400001Y-114724867D01*
X136278388Y-114846480D01*
X136154176Y-115032376D01*
X136068617Y-115238933D01*
X136025000Y-115458212D01*
X136025000Y-115681788D01*
X136068617Y-115901067D01*
X136154176Y-116107624D01*
X136278388Y-116293520D01*
X136436480Y-116451612D01*
X136622376Y-116575824D01*
X136828933Y-116661383D01*
X137048212Y-116705000D01*
X137271788Y-116705000D01*
X137491067Y-116661383D01*
X137697624Y-116575824D01*
X137883520Y-116451612D01*
X138041612Y-116293520D01*
X138165824Y-116107624D01*
X138251383Y-115901067D01*
X138295000Y-115681788D01*
X138295000Y-115458212D01*
X138251383Y-115238933D01*
X138165824Y-115032376D01*
X138041612Y-114846480D01*
X137920000Y-114724868D01*
X137920000Y-114307595D01*
X137989014Y-114270706D01*
X138215134Y-114085134D01*
X138400706Y-113859014D01*
X138430000Y-113804209D01*
X138459294Y-113859014D01*
X138644866Y-114085134D01*
X138870986Y-114270706D01*
X138940001Y-114307595D01*
X138940001Y-114724867D01*
X138818388Y-114846480D01*
X138694176Y-115032376D01*
X138608617Y-115238933D01*
X138565000Y-115458212D01*
X138565000Y-115681788D01*
X138608617Y-115901067D01*
X138694176Y-116107624D01*
X138818388Y-116293520D01*
X138976480Y-116451612D01*
X139162376Y-116575824D01*
X139368933Y-116661383D01*
X139588212Y-116705000D01*
X139811788Y-116705000D01*
X140031067Y-116661383D01*
X140237624Y-116575824D01*
X140423520Y-116451612D01*
X140581612Y-116293520D01*
X140705824Y-116107624D01*
X140791383Y-115901067D01*
X140835000Y-115681788D01*
X140835000Y-115458212D01*
X140791383Y-115238933D01*
X140705824Y-115032376D01*
X140581612Y-114846480D01*
X140460000Y-114724868D01*
X140460000Y-114307595D01*
X140529014Y-114270706D01*
X140755134Y-114085134D01*
X140940706Y-113859014D01*
X140970000Y-113804209D01*
X140999294Y-113859014D01*
X141184866Y-114085134D01*
X141410986Y-114270706D01*
X141480001Y-114307595D01*
X141480001Y-114724867D01*
X141358388Y-114846480D01*
X141234176Y-115032376D01*
X141148617Y-115238933D01*
X141105000Y-115458212D01*
X141105000Y-115681788D01*
X141148617Y-115901067D01*
X141234176Y-116107624D01*
X141358388Y-116293520D01*
X141516480Y-116451612D01*
X141702376Y-116575824D01*
X141908933Y-116661383D01*
X142128212Y-116705000D01*
X142351788Y-116705000D01*
X142571067Y-116661383D01*
X142777624Y-116575824D01*
X142963520Y-116451612D01*
X143121612Y-116293520D01*
X143245824Y-116107624D01*
X143331383Y-115901067D01*
X143375000Y-115681788D01*
X143375000Y-115458212D01*
X143331383Y-115238933D01*
X143245824Y-115032376D01*
X143121612Y-114846480D01*
X143000000Y-114724868D01*
X143000000Y-114307595D01*
X143069014Y-114270706D01*
X143295134Y-114085134D01*
X143480706Y-113859014D01*
X143510000Y-113804209D01*
X143539294Y-113859014D01*
X143724866Y-114085134D01*
X143950986Y-114270706D01*
X144020001Y-114307595D01*
X144020001Y-114724867D01*
X143898388Y-114846480D01*
X143774176Y-115032376D01*
X143688617Y-115238933D01*
X143645000Y-115458212D01*
X143645000Y-115681788D01*
X143688617Y-115901067D01*
X143774176Y-116107624D01*
X143898388Y-116293520D01*
X144056480Y-116451612D01*
X144242376Y-116575824D01*
X144448933Y-116661383D01*
X144668212Y-116705000D01*
X144891788Y-116705000D01*
X145111067Y-116661383D01*
X145317624Y-116575824D01*
X145503520Y-116451612D01*
X145661612Y-116293520D01*
X145785824Y-116107624D01*
X145871383Y-115901067D01*
X145915000Y-115681788D01*
X145915000Y-115458212D01*
X145871383Y-115238933D01*
X145785824Y-115032376D01*
X145661612Y-114846480D01*
X145540000Y-114724868D01*
X145540000Y-114307595D01*
X145609014Y-114270706D01*
X145835134Y-114085134D01*
X146020706Y-113859014D01*
X146050000Y-113804209D01*
X146079294Y-113859014D01*
X146264866Y-114085134D01*
X146490986Y-114270706D01*
X146560001Y-114307595D01*
X146560001Y-114724867D01*
X146438388Y-114846480D01*
X146314176Y-115032376D01*
X146228617Y-115238933D01*
X146185000Y-115458212D01*
X146185000Y-115681788D01*
X146228617Y-115901067D01*
X146314176Y-116107624D01*
X146438388Y-116293520D01*
X146596480Y-116451612D01*
X146782376Y-116575824D01*
X146988933Y-116661383D01*
X147208212Y-116705000D01*
X147431788Y-116705000D01*
X147651067Y-116661383D01*
X147857624Y-116575824D01*
X148043520Y-116451612D01*
X148201612Y-116293520D01*
X148325824Y-116107624D01*
X148411383Y-115901067D01*
X148455000Y-115681788D01*
X148455000Y-115458212D01*
X148411383Y-115238933D01*
X148325824Y-115032376D01*
X148201612Y-114846480D01*
X148080000Y-114724868D01*
X148080000Y-114307595D01*
X148149014Y-114270706D01*
X148375134Y-114085134D01*
X148560706Y-113859014D01*
X148590000Y-113804209D01*
X148619294Y-113859014D01*
X148804866Y-114085134D01*
X149030986Y-114270706D01*
X149100001Y-114307595D01*
X149100001Y-114724867D01*
X148978388Y-114846480D01*
X148854176Y-115032376D01*
X148768617Y-115238933D01*
X148725000Y-115458212D01*
X148725000Y-115681788D01*
X148768617Y-115901067D01*
X148854176Y-116107624D01*
X148978388Y-116293520D01*
X149136480Y-116451612D01*
X149322376Y-116575824D01*
X149528933Y-116661383D01*
X149748212Y-116705000D01*
X149971788Y-116705000D01*
X150191067Y-116661383D01*
X150397624Y-116575824D01*
X150583520Y-116451612D01*
X150741612Y-116293520D01*
X150865824Y-116107624D01*
X150951383Y-115901067D01*
X150995000Y-115681788D01*
X150995000Y-115458212D01*
X150951383Y-115238933D01*
X150865824Y-115032376D01*
X150741612Y-114846480D01*
X150620000Y-114724868D01*
X150620000Y-114307595D01*
X150689014Y-114270706D01*
X150915134Y-114085134D01*
X151100706Y-113859014D01*
X151130000Y-113804209D01*
X151159294Y-113859014D01*
X151344866Y-114085134D01*
X151570986Y-114270706D01*
X151640001Y-114307595D01*
X151640001Y-114724867D01*
X151518388Y-114846480D01*
X151394176Y-115032376D01*
X151308617Y-115238933D01*
X151265000Y-115458212D01*
X151265000Y-115681788D01*
X151308617Y-115901067D01*
X151394176Y-116107624D01*
X151518388Y-116293520D01*
X151676480Y-116451612D01*
X151862376Y-116575824D01*
X152068933Y-116661383D01*
X152288212Y-116705000D01*
X152511788Y-116705000D01*
X152731067Y-116661383D01*
X152937624Y-116575824D01*
X153123520Y-116451612D01*
X153281612Y-116293520D01*
X153405824Y-116107624D01*
X153491383Y-115901067D01*
X153535000Y-115681788D01*
X153535000Y-115458212D01*
X153491383Y-115238933D01*
X153405824Y-115032376D01*
X153281612Y-114846480D01*
X153160000Y-114724868D01*
X153160000Y-114307595D01*
X153229014Y-114270706D01*
X153455134Y-114085134D01*
X153640706Y-113859014D01*
X153778599Y-113601034D01*
X153863513Y-113321111D01*
X153892185Y-113030000D01*
X153863513Y-112738889D01*
X153778599Y-112458966D01*
X153640706Y-112200986D01*
X153455134Y-111974866D01*
X153425313Y-111950393D01*
X153494180Y-111929502D01*
X153604494Y-111870537D01*
X153701185Y-111791185D01*
X153780537Y-111694494D01*
X153839502Y-111584180D01*
X153875812Y-111464482D01*
X153888072Y-111340000D01*
X153885000Y-110775750D01*
X153726250Y-110617000D01*
X152527000Y-110617000D01*
X152527000Y-110637000D01*
X152273000Y-110637000D01*
X152273000Y-110617000D01*
X149987000Y-110617000D01*
X149987000Y-110637000D01*
X149733000Y-110637000D01*
X149733000Y-110617000D01*
X147447000Y-110617000D01*
X147447000Y-110637000D01*
X147193000Y-110637000D01*
X147193000Y-110617000D01*
X144907000Y-110617000D01*
X144907000Y-110637000D01*
X144653000Y-110637000D01*
X144653000Y-110617000D01*
X142367000Y-110617000D01*
X142367000Y-110637000D01*
X142113000Y-110637000D01*
X142113000Y-110617000D01*
X139827000Y-110617000D01*
X139827000Y-110637000D01*
X139573000Y-110637000D01*
X139573000Y-110617000D01*
X137287000Y-110617000D01*
X137287000Y-110637000D01*
X137033000Y-110637000D01*
X137033000Y-110617000D01*
X134747000Y-110617000D01*
X134747000Y-110637000D01*
X134493000Y-110637000D01*
X134493000Y-110617000D01*
X132207000Y-110617000D01*
X132207000Y-110637000D01*
X131953000Y-110637000D01*
X131953000Y-110617000D01*
X129667000Y-110617000D01*
X129667000Y-110637000D01*
X129413000Y-110637000D01*
X129413000Y-110617000D01*
X127127000Y-110617000D01*
X127127000Y-110637000D01*
X126873000Y-110637000D01*
X126873000Y-110617000D01*
X124587000Y-110617000D01*
X124587000Y-110637000D01*
X124333000Y-110637000D01*
X124333000Y-110617000D01*
X122047000Y-110617000D01*
X122047000Y-110637000D01*
X121793000Y-110637000D01*
X121793000Y-110617000D01*
X119507000Y-110617000D01*
X119507000Y-110637000D01*
X119253000Y-110637000D01*
X119253000Y-110617000D01*
X116967000Y-110617000D01*
X116967000Y-110637000D01*
X116713000Y-110637000D01*
X116713000Y-110617000D01*
X114427000Y-110617000D01*
X114427000Y-110637000D01*
X114173000Y-110637000D01*
X114173000Y-110617000D01*
X111887000Y-110617000D01*
X111887000Y-110637000D01*
X111633000Y-110637000D01*
X111633000Y-110617000D01*
X110439186Y-110617000D01*
X110318519Y-110846891D01*
X110415843Y-111121252D01*
X110564822Y-111371355D01*
X110759731Y-111587588D01*
X110988756Y-111758416D01*
X110930986Y-111789294D01*
X110704866Y-111974866D01*
X110519294Y-112200986D01*
X110381401Y-112458966D01*
X110296487Y-112738889D01*
X110267815Y-113030000D01*
X104196777Y-113030000D01*
X104250537Y-112964494D01*
X104309502Y-112854180D01*
X104345812Y-112734482D01*
X104358072Y-112610000D01*
X104358072Y-111877059D01*
X106102022Y-110133109D01*
X110318519Y-110133109D01*
X110439186Y-110363000D01*
X111633000Y-110363000D01*
X111633000Y-110343000D01*
X111887000Y-110343000D01*
X111887000Y-110363000D01*
X114173000Y-110363000D01*
X114173000Y-110343000D01*
X114427000Y-110343000D01*
X114427000Y-110363000D01*
X116713000Y-110363000D01*
X116713000Y-110343000D01*
X116967000Y-110343000D01*
X116967000Y-110363000D01*
X119253000Y-110363000D01*
X119253000Y-110343000D01*
X119507000Y-110343000D01*
X119507000Y-110363000D01*
X121793000Y-110363000D01*
X121793000Y-110343000D01*
X122047000Y-110343000D01*
X122047000Y-110363000D01*
X124333000Y-110363000D01*
X124333000Y-110343000D01*
X124587000Y-110343000D01*
X124587000Y-110363000D01*
X126873000Y-110363000D01*
X126873000Y-110343000D01*
X127127000Y-110343000D01*
X127127000Y-110363000D01*
X129413000Y-110363000D01*
X129413000Y-110343000D01*
X129667000Y-110343000D01*
X129667000Y-110363000D01*
X131953000Y-110363000D01*
X131953000Y-110343000D01*
X132207000Y-110343000D01*
X132207000Y-110363000D01*
X134493000Y-110363000D01*
X134493000Y-110343000D01*
X134747000Y-110343000D01*
X134747000Y-110363000D01*
X137033000Y-110363000D01*
X137033000Y-110343000D01*
X137287000Y-110343000D01*
X137287000Y-110363000D01*
X139573000Y-110363000D01*
X139573000Y-110343000D01*
X139827000Y-110343000D01*
X139827000Y-110363000D01*
X142113000Y-110363000D01*
X142113000Y-110343000D01*
X142367000Y-110343000D01*
X142367000Y-110363000D01*
X144653000Y-110363000D01*
X144653000Y-110343000D01*
X144907000Y-110343000D01*
X144907000Y-110363000D01*
X147193000Y-110363000D01*
X147193000Y-110343000D01*
X147447000Y-110343000D01*
X147447000Y-110363000D01*
X149733000Y-110363000D01*
X149733000Y-110343000D01*
X149987000Y-110343000D01*
X149987000Y-110363000D01*
X152273000Y-110363000D01*
X152273000Y-110343000D01*
X152527000Y-110343000D01*
X152527000Y-110363000D01*
X153726250Y-110363000D01*
X153885000Y-110204250D01*
X153888072Y-109640000D01*
X153875812Y-109515518D01*
X153839502Y-109395820D01*
X153780537Y-109285506D01*
X153701185Y-109188815D01*
X153604494Y-109109463D01*
X153494180Y-109050498D01*
X153374482Y-109014188D01*
X153250000Y-109001928D01*
X152820666Y-109004265D01*
X152911440Y-108969387D01*
X152963450Y-108941588D01*
X152998561Y-108728166D01*
X152400000Y-108129605D01*
X151801439Y-108728166D01*
X151836550Y-108941588D01*
X151977426Y-109004255D01*
X151550000Y-109001928D01*
X151425518Y-109014188D01*
X151305820Y-109050498D01*
X151195506Y-109109463D01*
X151098815Y-109188815D01*
X151019463Y-109285506D01*
X150960498Y-109395820D01*
X150936034Y-109476466D01*
X150860269Y-109392412D01*
X150626920Y-109218359D01*
X150364099Y-109093175D01*
X150216890Y-109048524D01*
X149987002Y-109169844D01*
X149987002Y-109079833D01*
X150162740Y-109049577D01*
X150371440Y-108969387D01*
X150423450Y-108941588D01*
X150458561Y-108728166D01*
X149860000Y-108129605D01*
X149261439Y-108728166D01*
X149296550Y-108941588D01*
X149500826Y-109032458D01*
X149718905Y-109081731D01*
X149732998Y-109082095D01*
X149732998Y-109169844D01*
X149503110Y-109048524D01*
X149355901Y-109093175D01*
X149093080Y-109218359D01*
X148859731Y-109392412D01*
X148664822Y-109608645D01*
X148590000Y-109734255D01*
X148515178Y-109608645D01*
X148320269Y-109392412D01*
X148086920Y-109218359D01*
X147824099Y-109093175D01*
X147676890Y-109048524D01*
X147447002Y-109169844D01*
X147447002Y-109079833D01*
X147622740Y-109049577D01*
X147831440Y-108969387D01*
X147883450Y-108941588D01*
X147918561Y-108728166D01*
X147320000Y-108129605D01*
X146721439Y-108728166D01*
X146756550Y-108941588D01*
X146960826Y-109032458D01*
X147178905Y-109081731D01*
X147192998Y-109082095D01*
X147192998Y-109169844D01*
X146963110Y-109048524D01*
X146815901Y-109093175D01*
X146553080Y-109218359D01*
X146319731Y-109392412D01*
X146124822Y-109608645D01*
X146050000Y-109734255D01*
X145975178Y-109608645D01*
X145780269Y-109392412D01*
X145546920Y-109218359D01*
X145284099Y-109093175D01*
X145136890Y-109048524D01*
X144907002Y-109169844D01*
X144907002Y-109079833D01*
X145082740Y-109049577D01*
X145291440Y-108969387D01*
X145343450Y-108941588D01*
X145378561Y-108728166D01*
X144780000Y-108129605D01*
X144181439Y-108728166D01*
X144216550Y-108941588D01*
X144420826Y-109032458D01*
X144638905Y-109081731D01*
X144652998Y-109082095D01*
X144652998Y-109169844D01*
X144423110Y-109048524D01*
X144275901Y-109093175D01*
X144013080Y-109218359D01*
X143779731Y-109392412D01*
X143584822Y-109608645D01*
X143510000Y-109734255D01*
X143435178Y-109608645D01*
X143240269Y-109392412D01*
X143006920Y-109218359D01*
X142744099Y-109093175D01*
X142596890Y-109048524D01*
X142367002Y-109169844D01*
X142367002Y-109079833D01*
X142542740Y-109049577D01*
X142751440Y-108969387D01*
X142803450Y-108941588D01*
X142838561Y-108728166D01*
X142240000Y-108129605D01*
X141641439Y-108728166D01*
X141676550Y-108941588D01*
X141880826Y-109032458D01*
X142098905Y-109081731D01*
X142112998Y-109082095D01*
X142112998Y-109169844D01*
X141883110Y-109048524D01*
X141735901Y-109093175D01*
X141473080Y-109218359D01*
X141239731Y-109392412D01*
X141044822Y-109608645D01*
X140970000Y-109734255D01*
X140895178Y-109608645D01*
X140700269Y-109392412D01*
X140466920Y-109218359D01*
X140204099Y-109093175D01*
X140056890Y-109048524D01*
X139827002Y-109169844D01*
X139827002Y-109079833D01*
X140002740Y-109049577D01*
X140211440Y-108969387D01*
X140263450Y-108941588D01*
X140298561Y-108728166D01*
X139700000Y-108129605D01*
X139101439Y-108728166D01*
X139136550Y-108941588D01*
X139340826Y-109032458D01*
X139558905Y-109081731D01*
X139572998Y-109082095D01*
X139572998Y-109169844D01*
X139343110Y-109048524D01*
X139195901Y-109093175D01*
X138933080Y-109218359D01*
X138699731Y-109392412D01*
X138504822Y-109608645D01*
X138430000Y-109734255D01*
X138355178Y-109608645D01*
X138160269Y-109392412D01*
X137926920Y-109218359D01*
X137664099Y-109093175D01*
X137516890Y-109048524D01*
X137287002Y-109169844D01*
X137287002Y-109079833D01*
X137462740Y-109049577D01*
X137671440Y-108969387D01*
X137723450Y-108941588D01*
X137758561Y-108728166D01*
X137160000Y-108129605D01*
X136561439Y-108728166D01*
X136596550Y-108941588D01*
X136800826Y-109032458D01*
X137018905Y-109081731D01*
X137032998Y-109082095D01*
X137032998Y-109169844D01*
X136803110Y-109048524D01*
X136655901Y-109093175D01*
X136393080Y-109218359D01*
X136159731Y-109392412D01*
X135964822Y-109608645D01*
X135890000Y-109734255D01*
X135815178Y-109608645D01*
X135620269Y-109392412D01*
X135386920Y-109218359D01*
X135124099Y-109093175D01*
X134976890Y-109048524D01*
X134747002Y-109169844D01*
X134747002Y-109079833D01*
X134922740Y-109049577D01*
X135131440Y-108969387D01*
X135183450Y-108941588D01*
X135218561Y-108728166D01*
X134620000Y-108129605D01*
X134021439Y-108728166D01*
X134056550Y-108941588D01*
X134260826Y-109032458D01*
X134478905Y-109081731D01*
X134492998Y-109082095D01*
X134492998Y-109169844D01*
X134263110Y-109048524D01*
X134115901Y-109093175D01*
X133853080Y-109218359D01*
X133619731Y-109392412D01*
X133424822Y-109608645D01*
X133350000Y-109734255D01*
X133275178Y-109608645D01*
X133080269Y-109392412D01*
X132846920Y-109218359D01*
X132584099Y-109093175D01*
X132436890Y-109048524D01*
X132207002Y-109169844D01*
X132207002Y-109079833D01*
X132382740Y-109049577D01*
X132591440Y-108969387D01*
X132643450Y-108941588D01*
X132678561Y-108728166D01*
X132080000Y-108129605D01*
X131481439Y-108728166D01*
X131516550Y-108941588D01*
X131720826Y-109032458D01*
X131938905Y-109081731D01*
X131952998Y-109082095D01*
X131952998Y-109169844D01*
X131723110Y-109048524D01*
X131575901Y-109093175D01*
X131313080Y-109218359D01*
X131079731Y-109392412D01*
X130884822Y-109608645D01*
X130810000Y-109734255D01*
X130735178Y-109608645D01*
X130540269Y-109392412D01*
X130306920Y-109218359D01*
X130044099Y-109093175D01*
X129896890Y-109048524D01*
X129667002Y-109169844D01*
X129667002Y-109079833D01*
X129842740Y-109049577D01*
X130051440Y-108969387D01*
X130103450Y-108941588D01*
X130138561Y-108728166D01*
X129540000Y-108129605D01*
X128941439Y-108728166D01*
X128976550Y-108941588D01*
X129180826Y-109032458D01*
X129398905Y-109081731D01*
X129412998Y-109082095D01*
X129412998Y-109169844D01*
X129183110Y-109048524D01*
X129035901Y-109093175D01*
X128773080Y-109218359D01*
X128539731Y-109392412D01*
X128344822Y-109608645D01*
X128270000Y-109734255D01*
X128195178Y-109608645D01*
X128000269Y-109392412D01*
X127766920Y-109218359D01*
X127504099Y-109093175D01*
X127356890Y-109048524D01*
X127127002Y-109169844D01*
X127127002Y-109079833D01*
X127302740Y-109049577D01*
X127511440Y-108969387D01*
X127563450Y-108941588D01*
X127598561Y-108728166D01*
X127000000Y-108129605D01*
X126401439Y-108728166D01*
X126436550Y-108941588D01*
X126640826Y-109032458D01*
X126858905Y-109081731D01*
X126872998Y-109082095D01*
X126872998Y-109169844D01*
X126643110Y-109048524D01*
X126495901Y-109093175D01*
X126233080Y-109218359D01*
X125999731Y-109392412D01*
X125804822Y-109608645D01*
X125730000Y-109734255D01*
X125655178Y-109608645D01*
X125460269Y-109392412D01*
X125226920Y-109218359D01*
X124964099Y-109093175D01*
X124816890Y-109048524D01*
X124587002Y-109169844D01*
X124587002Y-109079833D01*
X124762740Y-109049577D01*
X124971440Y-108969387D01*
X125023450Y-108941588D01*
X125058561Y-108728166D01*
X124460000Y-108129605D01*
X123861439Y-108728166D01*
X123896550Y-108941588D01*
X124100826Y-109032458D01*
X124318905Y-109081731D01*
X124332998Y-109082095D01*
X124332998Y-109169844D01*
X124103110Y-109048524D01*
X123955901Y-109093175D01*
X123693080Y-109218359D01*
X123459731Y-109392412D01*
X123264822Y-109608645D01*
X123190000Y-109734255D01*
X123115178Y-109608645D01*
X122920269Y-109392412D01*
X122686920Y-109218359D01*
X122424099Y-109093175D01*
X122276890Y-109048524D01*
X122047002Y-109169844D01*
X122047002Y-109079833D01*
X122222740Y-109049577D01*
X122431440Y-108969387D01*
X122483450Y-108941588D01*
X122518561Y-108728166D01*
X121920000Y-108129605D01*
X121321439Y-108728166D01*
X121356550Y-108941588D01*
X121560826Y-109032458D01*
X121778905Y-109081731D01*
X121792998Y-109082095D01*
X121792998Y-109169844D01*
X121563110Y-109048524D01*
X121415901Y-109093175D01*
X121153080Y-109218359D01*
X120919731Y-109392412D01*
X120724822Y-109608645D01*
X120650000Y-109734255D01*
X120575178Y-109608645D01*
X120380269Y-109392412D01*
X120146920Y-109218359D01*
X119884099Y-109093175D01*
X119736890Y-109048524D01*
X119507002Y-109169844D01*
X119507002Y-109079833D01*
X119682740Y-109049577D01*
X119891440Y-108969387D01*
X119943450Y-108941588D01*
X119978561Y-108728166D01*
X119380000Y-108129605D01*
X118781439Y-108728166D01*
X118816550Y-108941588D01*
X119020826Y-109032458D01*
X119238905Y-109081731D01*
X119252998Y-109082095D01*
X119252998Y-109169844D01*
X119023110Y-109048524D01*
X118875901Y-109093175D01*
X118613080Y-109218359D01*
X118379731Y-109392412D01*
X118184822Y-109608645D01*
X118110000Y-109734255D01*
X118035178Y-109608645D01*
X117840269Y-109392412D01*
X117606920Y-109218359D01*
X117344099Y-109093175D01*
X117196890Y-109048524D01*
X116967002Y-109169844D01*
X116967002Y-109079833D01*
X117142740Y-109049577D01*
X117351440Y-108969387D01*
X117403450Y-108941588D01*
X117438561Y-108728166D01*
X116840000Y-108129605D01*
X116241439Y-108728166D01*
X116276550Y-108941588D01*
X116480826Y-109032458D01*
X116698905Y-109081731D01*
X116712998Y-109082095D01*
X116712998Y-109169844D01*
X116483110Y-109048524D01*
X116335901Y-109093175D01*
X116073080Y-109218359D01*
X115839731Y-109392412D01*
X115644822Y-109608645D01*
X115570000Y-109734255D01*
X115495178Y-109608645D01*
X115300269Y-109392412D01*
X115066920Y-109218359D01*
X114804099Y-109093175D01*
X114656890Y-109048524D01*
X114427002Y-109169844D01*
X114427002Y-109079833D01*
X114602740Y-109049577D01*
X114811440Y-108969387D01*
X114863450Y-108941588D01*
X114898561Y-108728166D01*
X114300000Y-108129605D01*
X113701439Y-108728166D01*
X113736550Y-108941588D01*
X113940826Y-109032458D01*
X114158905Y-109081731D01*
X114172998Y-109082095D01*
X114172998Y-109169844D01*
X113943110Y-109048524D01*
X113795901Y-109093175D01*
X113533080Y-109218359D01*
X113299731Y-109392412D01*
X113104822Y-109608645D01*
X113030000Y-109734255D01*
X112955178Y-109608645D01*
X112760269Y-109392412D01*
X112526920Y-109218359D01*
X112264099Y-109093175D01*
X112116890Y-109048524D01*
X111887002Y-109169844D01*
X111887002Y-109079833D01*
X112062740Y-109049577D01*
X112271440Y-108969387D01*
X112323450Y-108941588D01*
X112358561Y-108728166D01*
X111760000Y-108129605D01*
X111161439Y-108728166D01*
X111196550Y-108941588D01*
X111400826Y-109032458D01*
X111618905Y-109081731D01*
X111632998Y-109082095D01*
X111632998Y-109169844D01*
X111403110Y-109048524D01*
X111255901Y-109093175D01*
X110993080Y-109218359D01*
X110759731Y-109392412D01*
X110564822Y-109608645D01*
X110415843Y-109858748D01*
X110318519Y-110133109D01*
X106102022Y-110133109D01*
X106173141Y-110061991D01*
X106216449Y-110026449D01*
X106358284Y-109853623D01*
X106463676Y-109656447D01*
X106528577Y-109442499D01*
X106545000Y-109275752D01*
X106545000Y-109275743D01*
X106550490Y-109220001D01*
X106545000Y-109164259D01*
X106545000Y-108032406D01*
X110622489Y-108032406D01*
X110660423Y-108252740D01*
X110740613Y-108461440D01*
X110768412Y-108513450D01*
X110981834Y-108548561D01*
X111580395Y-107950000D01*
X111939605Y-107950000D01*
X112538166Y-108548561D01*
X112751588Y-108513450D01*
X112842458Y-108309174D01*
X112891731Y-108091095D01*
X112893248Y-108032406D01*
X113162489Y-108032406D01*
X113200423Y-108252740D01*
X113280613Y-108461440D01*
X113308412Y-108513450D01*
X113521834Y-108548561D01*
X114120395Y-107950000D01*
X114479605Y-107950000D01*
X115078166Y-108548561D01*
X115291588Y-108513450D01*
X115382458Y-108309174D01*
X115431731Y-108091095D01*
X115433248Y-108032406D01*
X115702489Y-108032406D01*
X115740423Y-108252740D01*
X115820613Y-108461440D01*
X115848412Y-108513450D01*
X116061834Y-108548561D01*
X116660395Y-107950000D01*
X117019605Y-107950000D01*
X117618166Y-108548561D01*
X117831588Y-108513450D01*
X117922458Y-108309174D01*
X117971731Y-108091095D01*
X117973248Y-108032406D01*
X118242489Y-108032406D01*
X118280423Y-108252740D01*
X118360613Y-108461440D01*
X118388412Y-108513450D01*
X118601834Y-108548561D01*
X119200395Y-107950000D01*
X119559605Y-107950000D01*
X120158166Y-108548561D01*
X120371588Y-108513450D01*
X120462458Y-108309174D01*
X120511731Y-108091095D01*
X120513248Y-108032406D01*
X120782489Y-108032406D01*
X120820423Y-108252740D01*
X120900613Y-108461440D01*
X120928412Y-108513450D01*
X121141834Y-108548561D01*
X121740395Y-107950000D01*
X122099605Y-107950000D01*
X122698166Y-108548561D01*
X122911588Y-108513450D01*
X123002458Y-108309174D01*
X123051731Y-108091095D01*
X123053248Y-108032406D01*
X123322489Y-108032406D01*
X123360423Y-108252740D01*
X123440613Y-108461440D01*
X123468412Y-108513450D01*
X123681834Y-108548561D01*
X124280395Y-107950000D01*
X124639605Y-107950000D01*
X125238166Y-108548561D01*
X125451588Y-108513450D01*
X125542458Y-108309174D01*
X125591731Y-108091095D01*
X125593248Y-108032406D01*
X125862489Y-108032406D01*
X125900423Y-108252740D01*
X125980613Y-108461440D01*
X126008412Y-108513450D01*
X126221834Y-108548561D01*
X126820395Y-107950000D01*
X127179605Y-107950000D01*
X127778166Y-108548561D01*
X127991588Y-108513450D01*
X128082458Y-108309174D01*
X128131731Y-108091095D01*
X128133248Y-108032406D01*
X128402489Y-108032406D01*
X128440423Y-108252740D01*
X128520613Y-108461440D01*
X128548412Y-108513450D01*
X128761834Y-108548561D01*
X129360395Y-107950000D01*
X129719605Y-107950000D01*
X130318166Y-108548561D01*
X130531588Y-108513450D01*
X130622458Y-108309174D01*
X130671731Y-108091095D01*
X130673248Y-108032406D01*
X130942489Y-108032406D01*
X130980423Y-108252740D01*
X131060613Y-108461440D01*
X131088412Y-108513450D01*
X131301834Y-108548561D01*
X131900395Y-107950000D01*
X132259605Y-107950000D01*
X132858166Y-108548561D01*
X133071588Y-108513450D01*
X133162458Y-108309174D01*
X133211731Y-108091095D01*
X133213248Y-108032406D01*
X133482489Y-108032406D01*
X133520423Y-108252740D01*
X133600613Y-108461440D01*
X133628412Y-108513450D01*
X133841834Y-108548561D01*
X134440395Y-107950000D01*
X134799605Y-107950000D01*
X135398166Y-108548561D01*
X135611588Y-108513450D01*
X135702458Y-108309174D01*
X135751731Y-108091095D01*
X135753248Y-108032406D01*
X136022489Y-108032406D01*
X136060423Y-108252740D01*
X136140613Y-108461440D01*
X136168412Y-108513450D01*
X136381834Y-108548561D01*
X136980395Y-107950000D01*
X137339605Y-107950000D01*
X137938166Y-108548561D01*
X138151588Y-108513450D01*
X138242458Y-108309174D01*
X138291731Y-108091095D01*
X138293248Y-108032406D01*
X138562489Y-108032406D01*
X138600423Y-108252740D01*
X138680613Y-108461440D01*
X138708412Y-108513450D01*
X138921834Y-108548561D01*
X139520395Y-107950000D01*
X139879605Y-107950000D01*
X140478166Y-108548561D01*
X140691588Y-108513450D01*
X140782458Y-108309174D01*
X140831731Y-108091095D01*
X140833248Y-108032406D01*
X141102489Y-108032406D01*
X141140423Y-108252740D01*
X141220613Y-108461440D01*
X141248412Y-108513450D01*
X141461834Y-108548561D01*
X142060395Y-107950000D01*
X142419605Y-107950000D01*
X143018166Y-108548561D01*
X143231588Y-108513450D01*
X143322458Y-108309174D01*
X143371731Y-108091095D01*
X143373248Y-108032406D01*
X143642489Y-108032406D01*
X143680423Y-108252740D01*
X143760613Y-108461440D01*
X143788412Y-108513450D01*
X144001834Y-108548561D01*
X144600395Y-107950000D01*
X144959605Y-107950000D01*
X145558166Y-108548561D01*
X145771588Y-108513450D01*
X145862458Y-108309174D01*
X145911731Y-108091095D01*
X145913248Y-108032406D01*
X146182489Y-108032406D01*
X146220423Y-108252740D01*
X146300613Y-108461440D01*
X146328412Y-108513450D01*
X146541834Y-108548561D01*
X147140395Y-107950000D01*
X147499605Y-107950000D01*
X148098166Y-108548561D01*
X148311588Y-108513450D01*
X148402458Y-108309174D01*
X148451731Y-108091095D01*
X148453248Y-108032406D01*
X148722489Y-108032406D01*
X148760423Y-108252740D01*
X148840613Y-108461440D01*
X148868412Y-108513450D01*
X149081834Y-108548561D01*
X149680395Y-107950000D01*
X150039605Y-107950000D01*
X150638166Y-108548561D01*
X150851588Y-108513450D01*
X150942458Y-108309174D01*
X150991731Y-108091095D01*
X150993248Y-108032406D01*
X151262489Y-108032406D01*
X151300423Y-108252740D01*
X151380613Y-108461440D01*
X151408412Y-108513450D01*
X151621834Y-108548561D01*
X152220395Y-107950000D01*
X152579605Y-107950000D01*
X153178166Y-108548561D01*
X153391588Y-108513450D01*
X153482458Y-108309174D01*
X153531731Y-108091095D01*
X153537511Y-107867594D01*
X153499577Y-107647260D01*
X153419387Y-107438560D01*
X153391588Y-107386550D01*
X153178166Y-107351439D01*
X152579605Y-107950000D01*
X152220395Y-107950000D01*
X151621834Y-107351439D01*
X151408412Y-107386550D01*
X151317542Y-107590826D01*
X151268269Y-107808905D01*
X151262489Y-108032406D01*
X150993248Y-108032406D01*
X150997511Y-107867594D01*
X150959577Y-107647260D01*
X150879387Y-107438560D01*
X150851588Y-107386550D01*
X150638166Y-107351439D01*
X150039605Y-107950000D01*
X149680395Y-107950000D01*
X149081834Y-107351439D01*
X148868412Y-107386550D01*
X148777542Y-107590826D01*
X148728269Y-107808905D01*
X148722489Y-108032406D01*
X148453248Y-108032406D01*
X148457511Y-107867594D01*
X148419577Y-107647260D01*
X148339387Y-107438560D01*
X148311588Y-107386550D01*
X148098166Y-107351439D01*
X147499605Y-107950000D01*
X147140395Y-107950000D01*
X146541834Y-107351439D01*
X146328412Y-107386550D01*
X146237542Y-107590826D01*
X146188269Y-107808905D01*
X146182489Y-108032406D01*
X145913248Y-108032406D01*
X145917511Y-107867594D01*
X145879577Y-107647260D01*
X145799387Y-107438560D01*
X145771588Y-107386550D01*
X145558166Y-107351439D01*
X144959605Y-107950000D01*
X144600395Y-107950000D01*
X144001834Y-107351439D01*
X143788412Y-107386550D01*
X143697542Y-107590826D01*
X143648269Y-107808905D01*
X143642489Y-108032406D01*
X143373248Y-108032406D01*
X143377511Y-107867594D01*
X143339577Y-107647260D01*
X143259387Y-107438560D01*
X143231588Y-107386550D01*
X143018166Y-107351439D01*
X142419605Y-107950000D01*
X142060395Y-107950000D01*
X141461834Y-107351439D01*
X141248412Y-107386550D01*
X141157542Y-107590826D01*
X141108269Y-107808905D01*
X141102489Y-108032406D01*
X140833248Y-108032406D01*
X140837511Y-107867594D01*
X140799577Y-107647260D01*
X140719387Y-107438560D01*
X140691588Y-107386550D01*
X140478166Y-107351439D01*
X139879605Y-107950000D01*
X139520395Y-107950000D01*
X138921834Y-107351439D01*
X138708412Y-107386550D01*
X138617542Y-107590826D01*
X138568269Y-107808905D01*
X138562489Y-108032406D01*
X138293248Y-108032406D01*
X138297511Y-107867594D01*
X138259577Y-107647260D01*
X138179387Y-107438560D01*
X138151588Y-107386550D01*
X137938166Y-107351439D01*
X137339605Y-107950000D01*
X136980395Y-107950000D01*
X136381834Y-107351439D01*
X136168412Y-107386550D01*
X136077542Y-107590826D01*
X136028269Y-107808905D01*
X136022489Y-108032406D01*
X135753248Y-108032406D01*
X135757511Y-107867594D01*
X135719577Y-107647260D01*
X135639387Y-107438560D01*
X135611588Y-107386550D01*
X135398166Y-107351439D01*
X134799605Y-107950000D01*
X134440395Y-107950000D01*
X133841834Y-107351439D01*
X133628412Y-107386550D01*
X133537542Y-107590826D01*
X133488269Y-107808905D01*
X133482489Y-108032406D01*
X133213248Y-108032406D01*
X133217511Y-107867594D01*
X133179577Y-107647260D01*
X133099387Y-107438560D01*
X133071588Y-107386550D01*
X132858166Y-107351439D01*
X132259605Y-107950000D01*
X131900395Y-107950000D01*
X131301834Y-107351439D01*
X131088412Y-107386550D01*
X130997542Y-107590826D01*
X130948269Y-107808905D01*
X130942489Y-108032406D01*
X130673248Y-108032406D01*
X130677511Y-107867594D01*
X130639577Y-107647260D01*
X130559387Y-107438560D01*
X130531588Y-107386550D01*
X130318166Y-107351439D01*
X129719605Y-107950000D01*
X129360395Y-107950000D01*
X128761834Y-107351439D01*
X128548412Y-107386550D01*
X128457542Y-107590826D01*
X128408269Y-107808905D01*
X128402489Y-108032406D01*
X128133248Y-108032406D01*
X128137511Y-107867594D01*
X128099577Y-107647260D01*
X128019387Y-107438560D01*
X127991588Y-107386550D01*
X127778166Y-107351439D01*
X127179605Y-107950000D01*
X126820395Y-107950000D01*
X126221834Y-107351439D01*
X126008412Y-107386550D01*
X125917542Y-107590826D01*
X125868269Y-107808905D01*
X125862489Y-108032406D01*
X125593248Y-108032406D01*
X125597511Y-107867594D01*
X125559577Y-107647260D01*
X125479387Y-107438560D01*
X125451588Y-107386550D01*
X125238166Y-107351439D01*
X124639605Y-107950000D01*
X124280395Y-107950000D01*
X123681834Y-107351439D01*
X123468412Y-107386550D01*
X123377542Y-107590826D01*
X123328269Y-107808905D01*
X123322489Y-108032406D01*
X123053248Y-108032406D01*
X123057511Y-107867594D01*
X123019577Y-107647260D01*
X122939387Y-107438560D01*
X122911588Y-107386550D01*
X122698166Y-107351439D01*
X122099605Y-107950000D01*
X121740395Y-107950000D01*
X121141834Y-107351439D01*
X120928412Y-107386550D01*
X120837542Y-107590826D01*
X120788269Y-107808905D01*
X120782489Y-108032406D01*
X120513248Y-108032406D01*
X120517511Y-107867594D01*
X120479577Y-107647260D01*
X120399387Y-107438560D01*
X120371588Y-107386550D01*
X120158166Y-107351439D01*
X119559605Y-107950000D01*
X119200395Y-107950000D01*
X118601834Y-107351439D01*
X118388412Y-107386550D01*
X118297542Y-107590826D01*
X118248269Y-107808905D01*
X118242489Y-108032406D01*
X117973248Y-108032406D01*
X117977511Y-107867594D01*
X117939577Y-107647260D01*
X117859387Y-107438560D01*
X117831588Y-107386550D01*
X117618166Y-107351439D01*
X117019605Y-107950000D01*
X116660395Y-107950000D01*
X116061834Y-107351439D01*
X115848412Y-107386550D01*
X115757542Y-107590826D01*
X115708269Y-107808905D01*
X115702489Y-108032406D01*
X115433248Y-108032406D01*
X115437511Y-107867594D01*
X115399577Y-107647260D01*
X115319387Y-107438560D01*
X115291588Y-107386550D01*
X115078166Y-107351439D01*
X114479605Y-107950000D01*
X114120395Y-107950000D01*
X113521834Y-107351439D01*
X113308412Y-107386550D01*
X113217542Y-107590826D01*
X113168269Y-107808905D01*
X113162489Y-108032406D01*
X112893248Y-108032406D01*
X112897511Y-107867594D01*
X112859577Y-107647260D01*
X112779387Y-107438560D01*
X112751588Y-107386550D01*
X112538166Y-107351439D01*
X111939605Y-107950000D01*
X111580395Y-107950000D01*
X110981834Y-107351439D01*
X110768412Y-107386550D01*
X110677542Y-107590826D01*
X110628269Y-107808905D01*
X110622489Y-108032406D01*
X106545000Y-108032406D01*
X106545000Y-107171834D01*
X111161439Y-107171834D01*
X111760000Y-107770395D01*
X112358561Y-107171834D01*
X113701439Y-107171834D01*
X114300000Y-107770395D01*
X114898561Y-107171834D01*
X116241439Y-107171834D01*
X116840000Y-107770395D01*
X117438561Y-107171834D01*
X118781439Y-107171834D01*
X119380000Y-107770395D01*
X119978561Y-107171834D01*
X121321439Y-107171834D01*
X121920000Y-107770395D01*
X122518561Y-107171834D01*
X123861439Y-107171834D01*
X124460000Y-107770395D01*
X125058561Y-107171834D01*
X126401439Y-107171834D01*
X127000000Y-107770395D01*
X127598561Y-107171834D01*
X128941439Y-107171834D01*
X129540000Y-107770395D01*
X130138561Y-107171834D01*
X131481439Y-107171834D01*
X132080000Y-107770395D01*
X132678561Y-107171834D01*
X134021439Y-107171834D01*
X134620000Y-107770395D01*
X135218561Y-107171834D01*
X136561439Y-107171834D01*
X137160000Y-107770395D01*
X137758561Y-107171834D01*
X139101439Y-107171834D01*
X139700000Y-107770395D01*
X140298561Y-107171834D01*
X141641439Y-107171834D01*
X142240000Y-107770395D01*
X142838561Y-107171834D01*
X144181439Y-107171834D01*
X144780000Y-107770395D01*
X145378561Y-107171834D01*
X146721439Y-107171834D01*
X147320000Y-107770395D01*
X147918561Y-107171834D01*
X149261439Y-107171834D01*
X149860000Y-107770395D01*
X150458561Y-107171834D01*
X151801439Y-107171834D01*
X152400000Y-107770395D01*
X152998561Y-107171834D01*
X152963450Y-106958412D01*
X152759174Y-106867542D01*
X152541095Y-106818269D01*
X152317594Y-106812489D01*
X152097260Y-106850423D01*
X151888560Y-106930613D01*
X151836550Y-106958412D01*
X151801439Y-107171834D01*
X150458561Y-107171834D01*
X150423450Y-106958412D01*
X150219174Y-106867542D01*
X150001095Y-106818269D01*
X149777594Y-106812489D01*
X149557260Y-106850423D01*
X149348560Y-106930613D01*
X149296550Y-106958412D01*
X149261439Y-107171834D01*
X147918561Y-107171834D01*
X147883450Y-106958412D01*
X147679174Y-106867542D01*
X147461095Y-106818269D01*
X147237594Y-106812489D01*
X147017260Y-106850423D01*
X146808560Y-106930613D01*
X146756550Y-106958412D01*
X146721439Y-107171834D01*
X145378561Y-107171834D01*
X145343450Y-106958412D01*
X145139174Y-106867542D01*
X144921095Y-106818269D01*
X144697594Y-106812489D01*
X144477260Y-106850423D01*
X144268560Y-106930613D01*
X144216550Y-106958412D01*
X144181439Y-107171834D01*
X142838561Y-107171834D01*
X142803450Y-106958412D01*
X142599174Y-106867542D01*
X142381095Y-106818269D01*
X142157594Y-106812489D01*
X141937260Y-106850423D01*
X141728560Y-106930613D01*
X141676550Y-106958412D01*
X141641439Y-107171834D01*
X140298561Y-107171834D01*
X140263450Y-106958412D01*
X140059174Y-106867542D01*
X139841095Y-106818269D01*
X139617594Y-106812489D01*
X139397260Y-106850423D01*
X139188560Y-106930613D01*
X139136550Y-106958412D01*
X139101439Y-107171834D01*
X137758561Y-107171834D01*
X137723450Y-106958412D01*
X137519174Y-106867542D01*
X137301095Y-106818269D01*
X137077594Y-106812489D01*
X136857260Y-106850423D01*
X136648560Y-106930613D01*
X136596550Y-106958412D01*
X136561439Y-107171834D01*
X135218561Y-107171834D01*
X135183450Y-106958412D01*
X134979174Y-106867542D01*
X134761095Y-106818269D01*
X134537594Y-106812489D01*
X134317260Y-106850423D01*
X134108560Y-106930613D01*
X134056550Y-106958412D01*
X134021439Y-107171834D01*
X132678561Y-107171834D01*
X132643450Y-106958412D01*
X132439174Y-106867542D01*
X132221095Y-106818269D01*
X131997594Y-106812489D01*
X131777260Y-106850423D01*
X131568560Y-106930613D01*
X131516550Y-106958412D01*
X131481439Y-107171834D01*
X130138561Y-107171834D01*
X130103450Y-106958412D01*
X129899174Y-106867542D01*
X129681095Y-106818269D01*
X129457594Y-106812489D01*
X129237260Y-106850423D01*
X129028560Y-106930613D01*
X128976550Y-106958412D01*
X128941439Y-107171834D01*
X127598561Y-107171834D01*
X127563450Y-106958412D01*
X127359174Y-106867542D01*
X127141095Y-106818269D01*
X126917594Y-106812489D01*
X126697260Y-106850423D01*
X126488560Y-106930613D01*
X126436550Y-106958412D01*
X126401439Y-107171834D01*
X125058561Y-107171834D01*
X125023450Y-106958412D01*
X124819174Y-106867542D01*
X124601095Y-106818269D01*
X124377594Y-106812489D01*
X124157260Y-106850423D01*
X123948560Y-106930613D01*
X123896550Y-106958412D01*
X123861439Y-107171834D01*
X122518561Y-107171834D01*
X122483450Y-106958412D01*
X122279174Y-106867542D01*
X122061095Y-106818269D01*
X121837594Y-106812489D01*
X121617260Y-106850423D01*
X121408560Y-106930613D01*
X121356550Y-106958412D01*
X121321439Y-107171834D01*
X119978561Y-107171834D01*
X119943450Y-106958412D01*
X119739174Y-106867542D01*
X119521095Y-106818269D01*
X119297594Y-106812489D01*
X119077260Y-106850423D01*
X118868560Y-106930613D01*
X118816550Y-106958412D01*
X118781439Y-107171834D01*
X117438561Y-107171834D01*
X117403450Y-106958412D01*
X117199174Y-106867542D01*
X116981095Y-106818269D01*
X116757594Y-106812489D01*
X116537260Y-106850423D01*
X116328560Y-106930613D01*
X116276550Y-106958412D01*
X116241439Y-107171834D01*
X114898561Y-107171834D01*
X114863450Y-106958412D01*
X114659174Y-106867542D01*
X114441095Y-106818269D01*
X114217594Y-106812489D01*
X113997260Y-106850423D01*
X113788560Y-106930613D01*
X113736550Y-106958412D01*
X113701439Y-107171834D01*
X112358561Y-107171834D01*
X112323450Y-106958412D01*
X112119174Y-106867542D01*
X111901095Y-106818269D01*
X111677594Y-106812489D01*
X111457260Y-106850423D01*
X111248560Y-106930613D01*
X111196550Y-106958412D01*
X111161439Y-107171834D01*
X106545000Y-107171834D01*
X106545000Y-103415508D01*
X112158136Y-98925000D01*
X116784249Y-98925000D01*
X116840000Y-98930491D01*
X116895752Y-98925000D01*
X119324249Y-98925000D01*
X119380000Y-98930491D01*
X119435752Y-98925000D01*
X121864249Y-98925000D01*
X121920000Y-98930491D01*
X121975752Y-98925000D01*
X124404249Y-98925000D01*
X124460000Y-98930491D01*
X124515752Y-98925000D01*
X124571788Y-98925000D01*
X124626747Y-98914068D01*
X124682499Y-98908577D01*
X124736106Y-98892315D01*
X124791067Y-98881383D01*
X124842842Y-98859937D01*
X124896447Y-98843676D01*
X124945851Y-98817269D01*
X124997624Y-98795824D01*
X125044214Y-98764693D01*
X125093623Y-98738284D01*
X125136932Y-98702741D01*
X125183520Y-98671612D01*
X125223141Y-98631991D01*
X125266449Y-98596449D01*
X125301991Y-98553141D01*
X125341612Y-98513520D01*
X125372741Y-98466932D01*
X125408284Y-98423623D01*
X125434693Y-98374214D01*
X125465824Y-98327624D01*
X125487269Y-98275851D01*
X125513676Y-98226447D01*
X125529937Y-98172842D01*
X125551383Y-98121067D01*
X125562315Y-98066106D01*
X125578577Y-98012499D01*
X125584068Y-97956747D01*
X125595000Y-97901788D01*
X125595000Y-97845752D01*
X125600491Y-97790000D01*
X125595000Y-97734248D01*
X125595000Y-96207817D01*
X125700706Y-96079014D01*
X125730000Y-96024209D01*
X125759294Y-96079014D01*
X125944866Y-96305134D01*
X126170986Y-96490706D01*
X126240001Y-96527595D01*
X126240001Y-96944867D01*
X126118388Y-97066480D01*
X125994176Y-97252376D01*
X125908617Y-97458933D01*
X125865000Y-97678212D01*
X125865000Y-97901788D01*
X125908617Y-98121067D01*
X125994176Y-98327624D01*
X126118388Y-98513520D01*
X126276480Y-98671612D01*
X126462376Y-98795824D01*
X126668933Y-98881383D01*
X126888212Y-98925000D01*
X127111788Y-98925000D01*
X127331067Y-98881383D01*
X127537624Y-98795824D01*
X127723520Y-98671612D01*
X127881612Y-98513520D01*
X128005824Y-98327624D01*
X128091383Y-98121067D01*
X128135000Y-97901788D01*
X128135000Y-97678212D01*
X128091383Y-97458933D01*
X128005824Y-97252376D01*
X127881612Y-97066480D01*
X127760000Y-96944868D01*
X127760000Y-96527595D01*
X127829014Y-96490706D01*
X128055134Y-96305134D01*
X128240706Y-96079014D01*
X128270000Y-96024209D01*
X128299294Y-96079014D01*
X128484866Y-96305134D01*
X128710986Y-96490706D01*
X128780001Y-96527595D01*
X128780001Y-96944867D01*
X128658388Y-97066480D01*
X128534176Y-97252376D01*
X128448617Y-97458933D01*
X128405000Y-97678212D01*
X128405000Y-97901788D01*
X128448617Y-98121067D01*
X128534176Y-98327624D01*
X128658388Y-98513520D01*
X128816480Y-98671612D01*
X129002376Y-98795824D01*
X129208933Y-98881383D01*
X129428212Y-98925000D01*
X129651788Y-98925000D01*
X129871067Y-98881383D01*
X130077624Y-98795824D01*
X130263520Y-98671612D01*
X130366966Y-98568166D01*
X131481439Y-98568166D01*
X131516550Y-98781588D01*
X131720826Y-98872458D01*
X131938905Y-98921731D01*
X132162406Y-98927511D01*
X132382740Y-98889577D01*
X132591440Y-98809387D01*
X132643450Y-98781588D01*
X132678561Y-98568166D01*
X134021439Y-98568166D01*
X134056550Y-98781588D01*
X134260826Y-98872458D01*
X134478905Y-98921731D01*
X134702406Y-98927511D01*
X134922740Y-98889577D01*
X135131440Y-98809387D01*
X135183450Y-98781588D01*
X135218561Y-98568166D01*
X136561439Y-98568166D01*
X136596550Y-98781588D01*
X136800826Y-98872458D01*
X137018905Y-98921731D01*
X137242406Y-98927511D01*
X137462740Y-98889577D01*
X137671440Y-98809387D01*
X137723450Y-98781588D01*
X137758561Y-98568166D01*
X139101439Y-98568166D01*
X139136550Y-98781588D01*
X139340826Y-98872458D01*
X139558905Y-98921731D01*
X139782406Y-98927511D01*
X140002740Y-98889577D01*
X140211440Y-98809387D01*
X140263450Y-98781588D01*
X140298561Y-98568166D01*
X141641439Y-98568166D01*
X141676550Y-98781588D01*
X141880826Y-98872458D01*
X142098905Y-98921731D01*
X142322406Y-98927511D01*
X142542740Y-98889577D01*
X142751440Y-98809387D01*
X142803450Y-98781588D01*
X142838561Y-98568166D01*
X144181439Y-98568166D01*
X144216550Y-98781588D01*
X144420826Y-98872458D01*
X144638905Y-98921731D01*
X144862406Y-98927511D01*
X145082740Y-98889577D01*
X145291440Y-98809387D01*
X145343450Y-98781588D01*
X145378561Y-98568166D01*
X146721439Y-98568166D01*
X146756550Y-98781588D01*
X146960826Y-98872458D01*
X147178905Y-98921731D01*
X147402406Y-98927511D01*
X147622740Y-98889577D01*
X147831440Y-98809387D01*
X147883450Y-98781588D01*
X147918561Y-98568166D01*
X147320000Y-97969605D01*
X146721439Y-98568166D01*
X145378561Y-98568166D01*
X144780000Y-97969605D01*
X144181439Y-98568166D01*
X142838561Y-98568166D01*
X142240000Y-97969605D01*
X141641439Y-98568166D01*
X140298561Y-98568166D01*
X139700000Y-97969605D01*
X139101439Y-98568166D01*
X137758561Y-98568166D01*
X137160000Y-97969605D01*
X136561439Y-98568166D01*
X135218561Y-98568166D01*
X134620000Y-97969605D01*
X134021439Y-98568166D01*
X132678561Y-98568166D01*
X132080000Y-97969605D01*
X131481439Y-98568166D01*
X130366966Y-98568166D01*
X130421612Y-98513520D01*
X130545824Y-98327624D01*
X130631383Y-98121067D01*
X130675000Y-97901788D01*
X130675000Y-97872406D01*
X130942489Y-97872406D01*
X130980423Y-98092740D01*
X131060613Y-98301440D01*
X131088412Y-98353450D01*
X131301834Y-98388561D01*
X131900395Y-97790000D01*
X132259605Y-97790000D01*
X132858166Y-98388561D01*
X133071588Y-98353450D01*
X133162458Y-98149174D01*
X133211731Y-97931095D01*
X133213248Y-97872406D01*
X133482489Y-97872406D01*
X133520423Y-98092740D01*
X133600613Y-98301440D01*
X133628412Y-98353450D01*
X133841834Y-98388561D01*
X134440395Y-97790000D01*
X134799605Y-97790000D01*
X135398166Y-98388561D01*
X135611588Y-98353450D01*
X135702458Y-98149174D01*
X135751731Y-97931095D01*
X135753248Y-97872406D01*
X136022489Y-97872406D01*
X136060423Y-98092740D01*
X136140613Y-98301440D01*
X136168412Y-98353450D01*
X136381834Y-98388561D01*
X136980395Y-97790000D01*
X137339605Y-97790000D01*
X137938166Y-98388561D01*
X138151588Y-98353450D01*
X138242458Y-98149174D01*
X138291731Y-97931095D01*
X138293248Y-97872406D01*
X138562489Y-97872406D01*
X138600423Y-98092740D01*
X138680613Y-98301440D01*
X138708412Y-98353450D01*
X138921834Y-98388561D01*
X139520395Y-97790000D01*
X139879605Y-97790000D01*
X140478166Y-98388561D01*
X140691588Y-98353450D01*
X140782458Y-98149174D01*
X140831731Y-97931095D01*
X140833248Y-97872406D01*
X141102489Y-97872406D01*
X141140423Y-98092740D01*
X141220613Y-98301440D01*
X141248412Y-98353450D01*
X141461834Y-98388561D01*
X142060395Y-97790000D01*
X142419605Y-97790000D01*
X143018166Y-98388561D01*
X143231588Y-98353450D01*
X143322458Y-98149174D01*
X143371731Y-97931095D01*
X143373248Y-97872406D01*
X143642489Y-97872406D01*
X143680423Y-98092740D01*
X143760613Y-98301440D01*
X143788412Y-98353450D01*
X144001834Y-98388561D01*
X144600395Y-97790000D01*
X144959605Y-97790000D01*
X145558166Y-98388561D01*
X145771588Y-98353450D01*
X145862458Y-98149174D01*
X145911731Y-97931095D01*
X145913248Y-97872406D01*
X146182489Y-97872406D01*
X146220423Y-98092740D01*
X146300613Y-98301440D01*
X146328412Y-98353450D01*
X146541834Y-98388561D01*
X147140395Y-97790000D01*
X147499605Y-97790000D01*
X148098166Y-98388561D01*
X148311588Y-98353450D01*
X148402458Y-98149174D01*
X148451731Y-97931095D01*
X148457511Y-97707594D01*
X148419577Y-97487260D01*
X148339387Y-97278560D01*
X148311588Y-97226550D01*
X148098166Y-97191439D01*
X147499605Y-97790000D01*
X147140395Y-97790000D01*
X146541834Y-97191439D01*
X146328412Y-97226550D01*
X146237542Y-97430826D01*
X146188269Y-97648905D01*
X146182489Y-97872406D01*
X145913248Y-97872406D01*
X145917511Y-97707594D01*
X145879577Y-97487260D01*
X145799387Y-97278560D01*
X145771588Y-97226550D01*
X145558166Y-97191439D01*
X144959605Y-97790000D01*
X144600395Y-97790000D01*
X144001834Y-97191439D01*
X143788412Y-97226550D01*
X143697542Y-97430826D01*
X143648269Y-97648905D01*
X143642489Y-97872406D01*
X143373248Y-97872406D01*
X143377511Y-97707594D01*
X143339577Y-97487260D01*
X143259387Y-97278560D01*
X143231588Y-97226550D01*
X143018166Y-97191439D01*
X142419605Y-97790000D01*
X142060395Y-97790000D01*
X141461834Y-97191439D01*
X141248412Y-97226550D01*
X141157542Y-97430826D01*
X141108269Y-97648905D01*
X141102489Y-97872406D01*
X140833248Y-97872406D01*
X140837511Y-97707594D01*
X140799577Y-97487260D01*
X140719387Y-97278560D01*
X140691588Y-97226550D01*
X140478166Y-97191439D01*
X139879605Y-97790000D01*
X139520395Y-97790000D01*
X138921834Y-97191439D01*
X138708412Y-97226550D01*
X138617542Y-97430826D01*
X138568269Y-97648905D01*
X138562489Y-97872406D01*
X138293248Y-97872406D01*
X138297511Y-97707594D01*
X138259577Y-97487260D01*
X138179387Y-97278560D01*
X138151588Y-97226550D01*
X137938166Y-97191439D01*
X137339605Y-97790000D01*
X136980395Y-97790000D01*
X136381834Y-97191439D01*
X136168412Y-97226550D01*
X136077542Y-97430826D01*
X136028269Y-97648905D01*
X136022489Y-97872406D01*
X135753248Y-97872406D01*
X135757511Y-97707594D01*
X135719577Y-97487260D01*
X135639387Y-97278560D01*
X135611588Y-97226550D01*
X135398166Y-97191439D01*
X134799605Y-97790000D01*
X134440395Y-97790000D01*
X133841834Y-97191439D01*
X133628412Y-97226550D01*
X133537542Y-97430826D01*
X133488269Y-97648905D01*
X133482489Y-97872406D01*
X133213248Y-97872406D01*
X133217511Y-97707594D01*
X133179577Y-97487260D01*
X133099387Y-97278560D01*
X133071588Y-97226550D01*
X132858166Y-97191439D01*
X132259605Y-97790000D01*
X131900395Y-97790000D01*
X131301834Y-97191439D01*
X131088412Y-97226550D01*
X130997542Y-97430826D01*
X130948269Y-97648905D01*
X130942489Y-97872406D01*
X130675000Y-97872406D01*
X130675000Y-97678212D01*
X130631383Y-97458933D01*
X130545824Y-97252376D01*
X130421612Y-97066480D01*
X130300000Y-96944868D01*
X130300000Y-96527595D01*
X130369014Y-96490706D01*
X130595134Y-96305134D01*
X130780706Y-96079014D01*
X130815201Y-96014477D01*
X130884822Y-96131355D01*
X131079731Y-96347588D01*
X131313080Y-96521641D01*
X131575901Y-96646825D01*
X131723110Y-96691476D01*
X131952998Y-96570156D01*
X131952998Y-96660167D01*
X131777260Y-96690423D01*
X131568560Y-96770613D01*
X131516550Y-96798412D01*
X131481439Y-97011834D01*
X132080000Y-97610395D01*
X132678561Y-97011834D01*
X132643450Y-96798412D01*
X132439174Y-96707542D01*
X132221095Y-96658269D01*
X132207002Y-96657905D01*
X132207002Y-96570156D01*
X132436890Y-96691476D01*
X132584099Y-96646825D01*
X132846920Y-96521641D01*
X133080269Y-96347588D01*
X133275178Y-96131355D01*
X133350000Y-96005745D01*
X133424822Y-96131355D01*
X133619731Y-96347588D01*
X133853080Y-96521641D01*
X134115901Y-96646825D01*
X134263110Y-96691476D01*
X134492998Y-96570156D01*
X134492998Y-96660167D01*
X134317260Y-96690423D01*
X134108560Y-96770613D01*
X134056550Y-96798412D01*
X134021439Y-97011834D01*
X134620000Y-97610395D01*
X135218561Y-97011834D01*
X135183450Y-96798412D01*
X134979174Y-96707542D01*
X134761095Y-96658269D01*
X134747002Y-96657905D01*
X134747002Y-96570156D01*
X134976890Y-96691476D01*
X135124099Y-96646825D01*
X135386920Y-96521641D01*
X135620269Y-96347588D01*
X135815178Y-96131355D01*
X135890000Y-96005745D01*
X135964822Y-96131355D01*
X136159731Y-96347588D01*
X136393080Y-96521641D01*
X136655901Y-96646825D01*
X136803110Y-96691476D01*
X137032998Y-96570156D01*
X137032998Y-96660167D01*
X136857260Y-96690423D01*
X136648560Y-96770613D01*
X136596550Y-96798412D01*
X136561439Y-97011834D01*
X137160000Y-97610395D01*
X137758561Y-97011834D01*
X137723450Y-96798412D01*
X137519174Y-96707542D01*
X137301095Y-96658269D01*
X137287002Y-96657905D01*
X137287002Y-96570156D01*
X137516890Y-96691476D01*
X137664099Y-96646825D01*
X137926920Y-96521641D01*
X138160269Y-96347588D01*
X138355178Y-96131355D01*
X138430000Y-96005745D01*
X138504822Y-96131355D01*
X138699731Y-96347588D01*
X138933080Y-96521641D01*
X139195901Y-96646825D01*
X139343110Y-96691476D01*
X139572998Y-96570156D01*
X139572998Y-96660167D01*
X139397260Y-96690423D01*
X139188560Y-96770613D01*
X139136550Y-96798412D01*
X139101439Y-97011834D01*
X139700000Y-97610395D01*
X140298561Y-97011834D01*
X140263450Y-96798412D01*
X140059174Y-96707542D01*
X139841095Y-96658269D01*
X139827002Y-96657905D01*
X139827002Y-96570156D01*
X140056890Y-96691476D01*
X140204099Y-96646825D01*
X140466920Y-96521641D01*
X140700269Y-96347588D01*
X140895178Y-96131355D01*
X140970000Y-96005745D01*
X141044822Y-96131355D01*
X141239731Y-96347588D01*
X141473080Y-96521641D01*
X141735901Y-96646825D01*
X141883110Y-96691476D01*
X142112998Y-96570156D01*
X142112998Y-96660167D01*
X141937260Y-96690423D01*
X141728560Y-96770613D01*
X141676550Y-96798412D01*
X141641439Y-97011834D01*
X142240000Y-97610395D01*
X142838561Y-97011834D01*
X142803450Y-96798412D01*
X142599174Y-96707542D01*
X142381095Y-96658269D01*
X142367002Y-96657905D01*
X142367002Y-96570156D01*
X142596890Y-96691476D01*
X142744099Y-96646825D01*
X143006920Y-96521641D01*
X143240269Y-96347588D01*
X143435178Y-96131355D01*
X143510000Y-96005745D01*
X143584822Y-96131355D01*
X143779731Y-96347588D01*
X144013080Y-96521641D01*
X144275901Y-96646825D01*
X144423110Y-96691476D01*
X144652998Y-96570156D01*
X144652998Y-96660167D01*
X144477260Y-96690423D01*
X144268560Y-96770613D01*
X144216550Y-96798412D01*
X144181439Y-97011834D01*
X144780000Y-97610395D01*
X145378561Y-97011834D01*
X145343450Y-96798412D01*
X145139174Y-96707542D01*
X144921095Y-96658269D01*
X144907002Y-96657905D01*
X144907002Y-96570156D01*
X145136890Y-96691476D01*
X145284099Y-96646825D01*
X145546920Y-96521641D01*
X145780269Y-96347588D01*
X145975178Y-96131355D01*
X146050000Y-96005745D01*
X146124822Y-96131355D01*
X146319731Y-96347588D01*
X146553080Y-96521641D01*
X146815901Y-96646825D01*
X146963110Y-96691476D01*
X147192998Y-96570156D01*
X147192998Y-96660167D01*
X147017260Y-96690423D01*
X146808560Y-96770613D01*
X146756550Y-96798412D01*
X146721439Y-97011834D01*
X147320000Y-97610395D01*
X147918561Y-97011834D01*
X147883450Y-96798412D01*
X147679174Y-96707542D01*
X147461095Y-96658269D01*
X147447002Y-96657905D01*
X147447002Y-96570156D01*
X147676890Y-96691476D01*
X147824099Y-96646825D01*
X148086920Y-96521641D01*
X148320269Y-96347588D01*
X148515178Y-96131355D01*
X148664157Y-95881252D01*
X148761481Y-95606891D01*
X148640814Y-95377000D01*
X147447000Y-95377000D01*
X147447000Y-95397000D01*
X147193000Y-95397000D01*
X147193000Y-95377000D01*
X144907000Y-95377000D01*
X144907000Y-95397000D01*
X144653000Y-95397000D01*
X144653000Y-95377000D01*
X142367000Y-95377000D01*
X142367000Y-95397000D01*
X142113000Y-95397000D01*
X142113000Y-95377000D01*
X139827000Y-95377000D01*
X139827000Y-95397000D01*
X139573000Y-95397000D01*
X139573000Y-95377000D01*
X137287000Y-95377000D01*
X137287000Y-95397000D01*
X137033000Y-95397000D01*
X137033000Y-95377000D01*
X134747000Y-95377000D01*
X134747000Y-95397000D01*
X134493000Y-95397000D01*
X134493000Y-95377000D01*
X132207000Y-95377000D01*
X132207000Y-95397000D01*
X131953000Y-95397000D01*
X131953000Y-95377000D01*
X131933000Y-95377000D01*
X131933000Y-95123000D01*
X131953000Y-95123000D01*
X131953000Y-95103000D01*
X132207000Y-95103000D01*
X132207000Y-95123000D01*
X134493000Y-95123000D01*
X134493000Y-95103000D01*
X134747000Y-95103000D01*
X134747000Y-95123000D01*
X137033000Y-95123000D01*
X137033000Y-95103000D01*
X137287000Y-95103000D01*
X137287000Y-95123000D01*
X139573000Y-95123000D01*
X139573000Y-95103000D01*
X139827000Y-95103000D01*
X139827000Y-95123000D01*
X142113000Y-95123000D01*
X142113000Y-95103000D01*
X142367000Y-95103000D01*
X142367000Y-95123000D01*
X144653000Y-95123000D01*
X144653000Y-95103000D01*
X144907000Y-95103000D01*
X144907000Y-95123000D01*
X147193000Y-95123000D01*
X147193000Y-95103000D01*
X147447000Y-95103000D01*
X147447000Y-95123000D01*
X148640814Y-95123000D01*
X148761481Y-94893109D01*
X148664157Y-94618748D01*
X148515178Y-94368645D01*
X148320269Y-94152412D01*
X148091244Y-93981584D01*
X148149014Y-93950706D01*
X148375134Y-93765134D01*
X148560706Y-93539014D01*
X148698599Y-93281034D01*
X148783513Y-93001111D01*
X148812185Y-92710000D01*
X148783513Y-92418889D01*
X148698599Y-92138966D01*
X148560706Y-91880986D01*
X148375134Y-91654866D01*
X148149014Y-91469294D01*
X148080000Y-91432405D01*
X148080000Y-91015132D01*
X148201612Y-90893520D01*
X148325824Y-90707624D01*
X148411383Y-90501067D01*
X148455000Y-90281788D01*
X148455000Y-90058212D01*
X148411383Y-89838933D01*
X148325824Y-89632376D01*
X148201612Y-89446480D01*
X148043520Y-89288388D01*
X147857624Y-89164176D01*
X147651067Y-89078617D01*
X147431788Y-89035000D01*
X147208212Y-89035000D01*
X146988933Y-89078617D01*
X146782376Y-89164176D01*
X146596480Y-89288388D01*
X146438388Y-89446480D01*
X146314176Y-89632376D01*
X146228617Y-89838933D01*
X146185000Y-90058212D01*
X146185000Y-90281788D01*
X146228617Y-90501067D01*
X146314176Y-90707624D01*
X146438388Y-90893520D01*
X146560001Y-91015133D01*
X146560001Y-91432405D01*
X146490986Y-91469294D01*
X146264866Y-91654866D01*
X146079294Y-91880986D01*
X146050000Y-91935791D01*
X146020706Y-91880986D01*
X145835134Y-91654866D01*
X145609014Y-91469294D01*
X145540000Y-91432405D01*
X145540000Y-91015132D01*
X145661612Y-90893520D01*
X145785824Y-90707624D01*
X145871383Y-90501067D01*
X145915000Y-90281788D01*
X145915000Y-90058212D01*
X145871383Y-89838933D01*
X145785824Y-89632376D01*
X145661612Y-89446480D01*
X145503520Y-89288388D01*
X145317624Y-89164176D01*
X145111067Y-89078617D01*
X144891788Y-89035000D01*
X144668212Y-89035000D01*
X144448933Y-89078617D01*
X144242376Y-89164176D01*
X144056480Y-89288388D01*
X143898388Y-89446480D01*
X143774176Y-89632376D01*
X143688617Y-89838933D01*
X143645000Y-90058212D01*
X143645000Y-90281788D01*
X143688617Y-90501067D01*
X143774176Y-90707624D01*
X143898388Y-90893520D01*
X144020001Y-91015133D01*
X144020001Y-91432405D01*
X143950986Y-91469294D01*
X143724866Y-91654866D01*
X143539294Y-91880986D01*
X143510000Y-91935791D01*
X143480706Y-91880986D01*
X143295134Y-91654866D01*
X143069014Y-91469294D01*
X143000000Y-91432405D01*
X143000000Y-91015132D01*
X143121612Y-90893520D01*
X143245824Y-90707624D01*
X143331383Y-90501067D01*
X143375000Y-90281788D01*
X143375000Y-90058212D01*
X143331383Y-89838933D01*
X143245824Y-89632376D01*
X143121612Y-89446480D01*
X142963520Y-89288388D01*
X142777624Y-89164176D01*
X142571067Y-89078617D01*
X142351788Y-89035000D01*
X142128212Y-89035000D01*
X141908933Y-89078617D01*
X141702376Y-89164176D01*
X141516480Y-89288388D01*
X141358388Y-89446480D01*
X141234176Y-89632376D01*
X141148617Y-89838933D01*
X141105000Y-90058212D01*
X141105000Y-90281788D01*
X141148617Y-90501067D01*
X141234176Y-90707624D01*
X141358388Y-90893520D01*
X141480001Y-91015133D01*
X141480001Y-91432405D01*
X141410986Y-91469294D01*
X141184866Y-91654866D01*
X140999294Y-91880986D01*
X140970000Y-91935791D01*
X140940706Y-91880986D01*
X140755134Y-91654866D01*
X140529014Y-91469294D01*
X140460000Y-91432405D01*
X140460000Y-91015132D01*
X140581612Y-90893520D01*
X140705824Y-90707624D01*
X140791383Y-90501067D01*
X140835000Y-90281788D01*
X140835000Y-90058212D01*
X140791383Y-89838933D01*
X140705824Y-89632376D01*
X140581612Y-89446480D01*
X140423520Y-89288388D01*
X140237624Y-89164176D01*
X140031067Y-89078617D01*
X139811788Y-89035000D01*
X139588212Y-89035000D01*
X139368933Y-89078617D01*
X139162376Y-89164176D01*
X138976480Y-89288388D01*
X138818388Y-89446480D01*
X138694176Y-89632376D01*
X138608617Y-89838933D01*
X138565000Y-90058212D01*
X138565000Y-90281788D01*
X138608617Y-90501067D01*
X138694176Y-90707624D01*
X138818388Y-90893520D01*
X138940001Y-91015133D01*
X138940001Y-91432405D01*
X138870986Y-91469294D01*
X138644866Y-91654866D01*
X138459294Y-91880986D01*
X138430000Y-91935791D01*
X138400706Y-91880986D01*
X138215134Y-91654866D01*
X137989014Y-91469294D01*
X137920000Y-91432405D01*
X137920000Y-91015132D01*
X138041612Y-90893520D01*
X138165824Y-90707624D01*
X138251383Y-90501067D01*
X138295000Y-90281788D01*
X138295000Y-90058212D01*
X138251383Y-89838933D01*
X138165824Y-89632376D01*
X138041612Y-89446480D01*
X137883520Y-89288388D01*
X137697624Y-89164176D01*
X137491067Y-89078617D01*
X137271788Y-89035000D01*
X137048212Y-89035000D01*
X136828933Y-89078617D01*
X136622376Y-89164176D01*
X136436480Y-89288388D01*
X136278388Y-89446480D01*
X136154176Y-89632376D01*
X136068617Y-89838933D01*
X136025000Y-90058212D01*
X136025000Y-90281788D01*
X136068617Y-90501067D01*
X136154176Y-90707624D01*
X136278388Y-90893520D01*
X136400001Y-91015133D01*
X136400001Y-91432405D01*
X136330986Y-91469294D01*
X136104866Y-91654866D01*
X135919294Y-91880986D01*
X135890000Y-91935791D01*
X135860706Y-91880986D01*
X135675134Y-91654866D01*
X135449014Y-91469294D01*
X135380000Y-91432405D01*
X135380000Y-91015132D01*
X135501612Y-90893520D01*
X135625824Y-90707624D01*
X135711383Y-90501067D01*
X135755000Y-90281788D01*
X135755000Y-90058212D01*
X135711383Y-89838933D01*
X135625824Y-89632376D01*
X135501612Y-89446480D01*
X135343520Y-89288388D01*
X135157624Y-89164176D01*
X134951067Y-89078617D01*
X134731788Y-89035000D01*
X134508212Y-89035000D01*
X134288933Y-89078617D01*
X134082376Y-89164176D01*
X133896480Y-89288388D01*
X133738388Y-89446480D01*
X133614176Y-89632376D01*
X133528617Y-89838933D01*
X133485000Y-90058212D01*
X133485000Y-90281788D01*
X133528617Y-90501067D01*
X133614176Y-90707624D01*
X133738388Y-90893520D01*
X133860001Y-91015133D01*
X133860001Y-91432405D01*
X133790986Y-91469294D01*
X133564866Y-91654866D01*
X133379294Y-91880986D01*
X133350000Y-91935791D01*
X133320706Y-91880986D01*
X133135134Y-91654866D01*
X132909014Y-91469294D01*
X132840000Y-91432405D01*
X132840000Y-91015132D01*
X132961612Y-90893520D01*
X133085824Y-90707624D01*
X133171383Y-90501067D01*
X133215000Y-90281788D01*
X133215000Y-90058212D01*
X133171383Y-89838933D01*
X133085824Y-89632376D01*
X132961612Y-89446480D01*
X132803520Y-89288388D01*
X132617624Y-89164176D01*
X132411067Y-89078617D01*
X132191788Y-89035000D01*
X131968212Y-89035000D01*
X131748933Y-89078617D01*
X131542376Y-89164176D01*
X131356480Y-89288388D01*
X131198388Y-89446480D01*
X131074176Y-89632376D01*
X130988617Y-89838933D01*
X130945000Y-90058212D01*
X130945000Y-90281788D01*
X130988617Y-90501067D01*
X131074176Y-90707624D01*
X131198388Y-90893520D01*
X131320001Y-91015133D01*
X131320001Y-91432405D01*
X131250986Y-91469294D01*
X131024866Y-91654866D01*
X130839294Y-91880986D01*
X130810000Y-91935791D01*
X130780706Y-91880986D01*
X130595134Y-91654866D01*
X130369014Y-91469294D01*
X130300000Y-91432405D01*
X130300000Y-91015132D01*
X130421612Y-90893520D01*
X130545824Y-90707624D01*
X130631383Y-90501067D01*
X130675000Y-90281788D01*
X130675000Y-90058212D01*
X130631383Y-89838933D01*
X130545824Y-89632376D01*
X130421612Y-89446480D01*
X130263520Y-89288388D01*
X130077624Y-89164176D01*
X129871067Y-89078617D01*
X129651788Y-89035000D01*
X129428212Y-89035000D01*
X129208933Y-89078617D01*
X129002376Y-89164176D01*
X128816480Y-89288388D01*
X128658388Y-89446480D01*
X128534176Y-89632376D01*
X128448617Y-89838933D01*
X128405000Y-90058212D01*
X128405000Y-90281788D01*
X128448617Y-90501067D01*
X128534176Y-90707624D01*
X128658388Y-90893520D01*
X128780001Y-91015133D01*
X128780001Y-91432405D01*
X128710986Y-91469294D01*
X128484866Y-91654866D01*
X128299294Y-91880986D01*
X128270000Y-91935791D01*
X128240706Y-91880986D01*
X128055134Y-91654866D01*
X127829014Y-91469294D01*
X127760000Y-91432405D01*
X127760000Y-91015132D01*
X127881612Y-90893520D01*
X128005824Y-90707624D01*
X128091383Y-90501067D01*
X128135000Y-90281788D01*
X128135000Y-90058212D01*
X128091383Y-89838933D01*
X128005824Y-89632376D01*
X127881612Y-89446480D01*
X127723520Y-89288388D01*
X127537624Y-89164176D01*
X127331067Y-89078617D01*
X127111788Y-89035000D01*
X126888212Y-89035000D01*
X126668933Y-89078617D01*
X126462376Y-89164176D01*
X126276480Y-89288388D01*
X126118388Y-89446480D01*
X125994176Y-89632376D01*
X125908617Y-89838933D01*
X125865000Y-90058212D01*
X125865000Y-90281788D01*
X125908617Y-90501067D01*
X125994176Y-90707624D01*
X126118388Y-90893520D01*
X126240001Y-91015133D01*
X126240001Y-91432405D01*
X126170986Y-91469294D01*
X125944866Y-91654866D01*
X125759294Y-91880986D01*
X125730000Y-91935791D01*
X125700706Y-91880986D01*
X125515134Y-91654866D01*
X125289014Y-91469294D01*
X125220000Y-91432405D01*
X125220000Y-91015132D01*
X125341612Y-90893520D01*
X125465824Y-90707624D01*
X125551383Y-90501067D01*
X125595000Y-90281788D01*
X125595000Y-90058212D01*
X125551383Y-89838933D01*
X125465824Y-89632376D01*
X125341612Y-89446480D01*
X125183520Y-89288388D01*
X124997624Y-89164176D01*
X124791067Y-89078617D01*
X124571788Y-89035000D01*
X124348212Y-89035000D01*
X124128933Y-89078617D01*
X123922376Y-89164176D01*
X123736480Y-89288388D01*
X123578388Y-89446480D01*
X123454176Y-89632376D01*
X123368617Y-89838933D01*
X123325000Y-90058212D01*
X123325000Y-90281788D01*
X123368617Y-90501067D01*
X123454176Y-90707624D01*
X123578388Y-90893520D01*
X123700000Y-91015132D01*
X123700000Y-91432405D01*
X123630986Y-91469294D01*
X123404866Y-91654866D01*
X123219294Y-91880986D01*
X123190000Y-91935791D01*
X123160706Y-91880986D01*
X122975134Y-91654866D01*
X122749014Y-91469294D01*
X122680000Y-91432405D01*
X122680000Y-91015132D01*
X122801612Y-90893520D01*
X122925824Y-90707624D01*
X123011383Y-90501067D01*
X123055000Y-90281788D01*
X123055000Y-90058212D01*
X123011383Y-89838933D01*
X122925824Y-89632376D01*
X122801612Y-89446480D01*
X122643520Y-89288388D01*
X122457624Y-89164176D01*
X122251067Y-89078617D01*
X122031788Y-89035000D01*
X121808212Y-89035000D01*
X121588933Y-89078617D01*
X121382376Y-89164176D01*
X121196480Y-89288388D01*
X121038388Y-89446480D01*
X120914176Y-89632376D01*
X120828617Y-89838933D01*
X120785000Y-90058212D01*
X120785000Y-90281788D01*
X120828617Y-90501067D01*
X120914176Y-90707624D01*
X121038388Y-90893520D01*
X121160001Y-91015133D01*
X121160001Y-91432405D01*
X121090986Y-91469294D01*
X120864866Y-91654866D01*
X120679294Y-91880986D01*
X120650000Y-91935791D01*
X120620706Y-91880986D01*
X120435134Y-91654866D01*
X120209014Y-91469294D01*
X120140000Y-91432405D01*
X120140000Y-91015132D01*
X120261612Y-90893520D01*
X120385824Y-90707624D01*
X120471383Y-90501067D01*
X120515000Y-90281788D01*
X120515000Y-90058212D01*
X120471383Y-89838933D01*
X120385824Y-89632376D01*
X120261612Y-89446480D01*
X120103520Y-89288388D01*
X119917624Y-89164176D01*
X119711067Y-89078617D01*
X119491788Y-89035000D01*
X119268212Y-89035000D01*
X119048933Y-89078617D01*
X118842376Y-89164176D01*
X118656480Y-89288388D01*
X118498388Y-89446480D01*
X118374176Y-89632376D01*
X118288617Y-89838933D01*
X118245000Y-90058212D01*
X118245000Y-90281788D01*
X118288617Y-90501067D01*
X118374176Y-90707624D01*
X118498388Y-90893520D01*
X118620001Y-91015133D01*
X118620001Y-91432405D01*
X118550986Y-91469294D01*
X118324866Y-91654866D01*
X118139294Y-91880986D01*
X118110000Y-91935791D01*
X118080706Y-91880986D01*
X117895134Y-91654866D01*
X117669014Y-91469294D01*
X117600000Y-91432405D01*
X117600000Y-91015132D01*
X117721612Y-90893520D01*
X117845824Y-90707624D01*
X117931383Y-90501067D01*
X117975000Y-90281788D01*
X117975000Y-90058212D01*
X117931383Y-89838933D01*
X117845824Y-89632376D01*
X117721612Y-89446480D01*
X117563520Y-89288388D01*
X117377624Y-89164176D01*
X117171067Y-89078617D01*
X116951788Y-89035000D01*
X116728212Y-89035000D01*
X116508933Y-89078617D01*
X116302376Y-89164176D01*
X116116480Y-89288388D01*
X115958388Y-89446480D01*
X115834176Y-89632376D01*
X115748617Y-89838933D01*
X115705000Y-90058212D01*
X115705000Y-90281788D01*
X115748617Y-90501067D01*
X115834176Y-90707624D01*
X115958388Y-90893520D01*
X116080001Y-91015133D01*
X116080001Y-91432405D01*
X116010986Y-91469294D01*
X115784866Y-91654866D01*
X115599294Y-91880986D01*
X115461401Y-92138966D01*
X115376487Y-92418889D01*
X115347815Y-92710000D01*
X115376487Y-93001111D01*
X115461401Y-93281034D01*
X115599294Y-93539014D01*
X115784866Y-93765134D01*
X115814687Y-93789607D01*
X115745820Y-93810498D01*
X115635506Y-93869463D01*
X115538815Y-93948815D01*
X115459463Y-94045506D01*
X115422317Y-94115000D01*
X110597478Y-94115000D01*
X110593255Y-94114193D01*
X110485862Y-94115000D01*
X110434248Y-94115000D01*
X110429985Y-94115420D01*
X110369685Y-94115873D01*
X110319008Y-94126350D01*
X110267501Y-94131423D01*
X110209787Y-94148931D01*
X110150740Y-94161138D01*
X110103082Y-94181299D01*
X110053553Y-94196324D01*
X110000367Y-94224752D01*
X109944832Y-94248246D01*
X109902022Y-94277318D01*
X109856377Y-94301716D01*
X109809758Y-94339975D01*
X109806220Y-94342378D01*
X109766632Y-94375368D01*
X109683551Y-94443551D01*
X109680822Y-94446876D01*
X102146671Y-100725336D01*
X102063551Y-100793551D01*
X102025293Y-100840168D01*
X101982976Y-100883126D01*
X101954551Y-100926367D01*
X101921716Y-100966377D01*
X101893284Y-101019570D01*
X101860166Y-101069951D01*
X101840723Y-101117907D01*
X101816324Y-101163554D01*
X101798819Y-101221259D01*
X101776161Y-101277144D01*
X101766446Y-101327978D01*
X101751423Y-101377502D01*
X101745512Y-101437517D01*
X101734193Y-101496745D01*
X101735000Y-101604138D01*
X101735001Y-109108208D01*
X101735000Y-109108212D01*
X101735000Y-109331788D01*
X101735001Y-109331792D01*
X101735001Y-110342317D01*
X101665506Y-110379463D01*
X101568815Y-110458815D01*
X101489463Y-110555506D01*
X101430498Y-110665820D01*
X101406034Y-110746466D01*
X101330269Y-110662412D01*
X101096920Y-110488359D01*
X100834099Y-110363175D01*
X100686890Y-110318524D01*
X100457002Y-110439844D01*
X100457002Y-110349833D01*
X100632740Y-110319577D01*
X100841440Y-110239387D01*
X100893450Y-110211588D01*
X100928561Y-109998166D01*
X100330000Y-109399605D01*
X99731439Y-109998166D01*
X99766550Y-110211588D01*
X99970826Y-110302458D01*
X100188905Y-110351731D01*
X100202998Y-110352095D01*
X100202998Y-110439844D01*
X99973110Y-110318524D01*
X99825901Y-110363175D01*
X99563080Y-110488359D01*
X99329731Y-110662412D01*
X99134822Y-110878645D01*
X99060000Y-111004255D01*
X98985178Y-110878645D01*
X98790269Y-110662412D01*
X98556920Y-110488359D01*
X98294099Y-110363175D01*
X98146890Y-110318524D01*
X97917002Y-110439844D01*
X97917002Y-110349833D01*
X98092740Y-110319577D01*
X98301440Y-110239387D01*
X98353450Y-110211588D01*
X98388561Y-109998166D01*
X97790000Y-109399605D01*
X97191439Y-109998166D01*
X97226550Y-110211588D01*
X97430826Y-110302458D01*
X97648905Y-110351731D01*
X97662998Y-110352095D01*
X97662998Y-110439844D01*
X97433110Y-110318524D01*
X97285901Y-110363175D01*
X97023080Y-110488359D01*
X96789731Y-110662412D01*
X96594822Y-110878645D01*
X96525201Y-110995523D01*
X96490706Y-110930986D01*
X96305134Y-110704866D01*
X96079014Y-110519294D01*
X96010000Y-110482405D01*
X96010000Y-110065132D01*
X96131612Y-109943520D01*
X96255824Y-109757624D01*
X96341383Y-109551067D01*
X96385000Y-109331788D01*
X96385000Y-109302406D01*
X96652489Y-109302406D01*
X96690423Y-109522740D01*
X96770613Y-109731440D01*
X96798412Y-109783450D01*
X97011834Y-109818561D01*
X97610395Y-109220000D01*
X97969605Y-109220000D01*
X98568166Y-109818561D01*
X98781588Y-109783450D01*
X98872458Y-109579174D01*
X98921731Y-109361095D01*
X98923248Y-109302406D01*
X99192489Y-109302406D01*
X99230423Y-109522740D01*
X99310613Y-109731440D01*
X99338412Y-109783450D01*
X99551834Y-109818561D01*
X100150395Y-109220000D01*
X100509605Y-109220000D01*
X101108166Y-109818561D01*
X101321588Y-109783450D01*
X101412458Y-109579174D01*
X101461731Y-109361095D01*
X101467511Y-109137594D01*
X101429577Y-108917260D01*
X101349387Y-108708560D01*
X101321588Y-108656550D01*
X101108166Y-108621439D01*
X100509605Y-109220000D01*
X100150395Y-109220000D01*
X99551834Y-108621439D01*
X99338412Y-108656550D01*
X99247542Y-108860826D01*
X99198269Y-109078905D01*
X99192489Y-109302406D01*
X98923248Y-109302406D01*
X98927511Y-109137594D01*
X98889577Y-108917260D01*
X98809387Y-108708560D01*
X98781588Y-108656550D01*
X98568166Y-108621439D01*
X97969605Y-109220000D01*
X97610395Y-109220000D01*
X97011834Y-108621439D01*
X96798412Y-108656550D01*
X96707542Y-108860826D01*
X96658269Y-109078905D01*
X96652489Y-109302406D01*
X96385000Y-109302406D01*
X96385000Y-109108212D01*
X96341383Y-108888933D01*
X96255824Y-108682376D01*
X96131612Y-108496480D01*
X96076966Y-108441834D01*
X97191439Y-108441834D01*
X97790000Y-109040395D01*
X98388561Y-108441834D01*
X99731439Y-108441834D01*
X100330000Y-109040395D01*
X100928561Y-108441834D01*
X100893450Y-108228412D01*
X100689174Y-108137542D01*
X100471095Y-108088269D01*
X100247594Y-108082489D01*
X100027260Y-108120423D01*
X99818560Y-108200613D01*
X99766550Y-108228412D01*
X99731439Y-108441834D01*
X98388561Y-108441834D01*
X98353450Y-108228412D01*
X98149174Y-108137542D01*
X97931095Y-108088269D01*
X97707594Y-108082489D01*
X97487260Y-108120423D01*
X97278560Y-108200613D01*
X97226550Y-108228412D01*
X97191439Y-108441834D01*
X96076966Y-108441834D01*
X95973520Y-108338388D01*
X95787624Y-108214176D01*
X95581067Y-108128617D01*
X95361788Y-108085000D01*
X95138212Y-108085000D01*
X94918933Y-108128617D01*
X94712376Y-108214176D01*
X94526480Y-108338388D01*
X94368388Y-108496480D01*
X94244176Y-108682376D01*
X94158617Y-108888933D01*
X94115000Y-109108212D01*
X94115000Y-109331788D01*
X94158617Y-109551067D01*
X94244176Y-109757624D01*
X94368388Y-109943520D01*
X94490000Y-110065132D01*
X94490000Y-110482405D01*
X94420986Y-110519294D01*
X94194866Y-110704866D01*
X94009294Y-110930986D01*
X93871401Y-111188966D01*
X93786487Y-111468889D01*
X93757815Y-111760000D01*
X91973000Y-111760000D01*
X91973000Y-87459117D01*
X92118000Y-87459117D01*
X92118000Y-87800883D01*
X92184675Y-88136081D01*
X92315463Y-88451831D01*
X92505337Y-88735998D01*
X92747002Y-88977663D01*
X93031169Y-89167537D01*
X93346919Y-89298325D01*
X93682117Y-89365000D01*
X94023883Y-89365000D01*
X94359081Y-89298325D01*
X94674831Y-89167537D01*
X94958998Y-88977663D01*
X95200663Y-88735998D01*
X95390537Y-88451831D01*
X95521325Y-88136081D01*
X95588000Y-87800883D01*
X95588000Y-87459117D01*
X157015000Y-87459117D01*
X157015000Y-87800883D01*
X157081675Y-88136081D01*
X157212463Y-88451831D01*
X157402337Y-88735998D01*
X157644002Y-88977663D01*
X157928169Y-89167537D01*
X158243919Y-89298325D01*
X158579117Y-89365000D01*
X158920883Y-89365000D01*
X159256081Y-89298325D01*
X159571831Y-89167537D01*
X159855998Y-88977663D01*
X160097663Y-88735998D01*
X160287537Y-88451831D01*
X160418325Y-88136081D01*
X160485000Y-87800883D01*
X160485000Y-87459117D01*
X160418325Y-87123919D01*
X160287537Y-86808169D01*
X160097663Y-86524002D01*
X159855998Y-86282337D01*
X159571831Y-86092463D01*
X159256081Y-85961675D01*
X158920883Y-85895000D01*
X158579117Y-85895000D01*
X158243919Y-85961675D01*
X157928169Y-86092463D01*
X157644002Y-86282337D01*
X157402337Y-86524002D01*
X157212463Y-86808169D01*
X157081675Y-87123919D01*
X157015000Y-87459117D01*
X95588000Y-87459117D01*
X95521325Y-87123919D01*
X95390537Y-86808169D01*
X95200663Y-86524002D01*
X94958998Y-86282337D01*
X94674831Y-86092463D01*
X94359081Y-85961675D01*
X94023883Y-85895000D01*
X93682117Y-85895000D01*
X93346919Y-85961675D01*
X93031169Y-86092463D01*
X92747002Y-86282337D01*
X92505337Y-86524002D01*
X92315463Y-86808169D01*
X92184675Y-87123919D01*
X92118000Y-87459117D01*
X91973000Y-87459117D01*
X91973000Y-86392279D01*
X91987722Y-86242131D01*
X92021953Y-86128754D01*
X92077555Y-86024181D01*
X92152407Y-85932404D01*
X92243664Y-85856909D01*
X92347844Y-85800581D01*
X92460976Y-85765560D01*
X92609022Y-85750000D01*
X159987721Y-85750000D01*
X160137869Y-85764722D01*
X160137869Y-85764722D01*
G37*
X160137869Y-85764722D02*
X160251246Y-85798953D01*
X160355819Y-85854555D01*
X160447596Y-85929407D01*
X160523091Y-86020664D01*
X160579419Y-86124844D01*
X160614440Y-86237976D01*
X160630000Y-86386022D01*
X160630001Y-123792711D01*
X160615278Y-123942869D01*
X160581047Y-124056246D01*
X160525446Y-124160817D01*
X160450594Y-124252595D01*
X160359335Y-124328091D01*
X160255160Y-124384419D01*
X160142024Y-124419440D01*
X159993979Y-124435000D01*
X92615279Y-124435000D01*
X92465131Y-124420278D01*
X92351754Y-124386047D01*
X92247183Y-124330446D01*
X92155405Y-124255594D01*
X92079909Y-124164335D01*
X92023581Y-124060160D01*
X91988560Y-123947024D01*
X91973000Y-123798979D01*
X91973000Y-122384117D01*
X92118000Y-122384117D01*
X92118000Y-122725883D01*
X92184675Y-123061081D01*
X92315463Y-123376831D01*
X92505337Y-123660998D01*
X92747002Y-123902663D01*
X93031169Y-124092537D01*
X93346919Y-124223325D01*
X93682117Y-124290000D01*
X94023883Y-124290000D01*
X94359081Y-124223325D01*
X94674831Y-124092537D01*
X94958998Y-123902663D01*
X95200663Y-123660998D01*
X95390537Y-123376831D01*
X95521325Y-123061081D01*
X95588000Y-122725883D01*
X95588000Y-122384117D01*
X157015000Y-122384117D01*
X157015000Y-122725883D01*
X157081675Y-123061081D01*
X157212463Y-123376831D01*
X157402337Y-123660998D01*
X157644002Y-123902663D01*
X157928169Y-124092537D01*
X158243919Y-124223325D01*
X158579117Y-124290000D01*
X158920883Y-124290000D01*
X159256081Y-124223325D01*
X159571831Y-124092537D01*
X159855998Y-123902663D01*
X160097663Y-123660998D01*
X160287537Y-123376831D01*
X160418325Y-123061081D01*
X160485000Y-122725883D01*
X160485000Y-122384117D01*
X160418325Y-122048919D01*
X160287537Y-121733169D01*
X160097663Y-121449002D01*
X159855998Y-121207337D01*
X159571831Y-121017463D01*
X159256081Y-120886675D01*
X158920883Y-120820000D01*
X158579117Y-120820000D01*
X158243919Y-120886675D01*
X157928169Y-121017463D01*
X157644002Y-121207337D01*
X157402337Y-121449002D01*
X157212463Y-121733169D01*
X157081675Y-122048919D01*
X157015000Y-122384117D01*
X95588000Y-122384117D01*
X95521325Y-122048919D01*
X95390537Y-121733169D01*
X95200663Y-121449002D01*
X94958998Y-121207337D01*
X94674831Y-121017463D01*
X94359081Y-120886675D01*
X94023883Y-120820000D01*
X93682117Y-120820000D01*
X93346919Y-120886675D01*
X93031169Y-121017463D01*
X92747002Y-121207337D01*
X92505337Y-121449002D01*
X92315463Y-121733169D01*
X92184675Y-122048919D01*
X92118000Y-122384117D01*
X91973000Y-122384117D01*
X91973000Y-111760000D01*
X93757815Y-111760000D01*
X93786487Y-112051111D01*
X93871401Y-112331034D01*
X94009294Y-112589014D01*
X94194866Y-112815134D01*
X94420986Y-113000706D01*
X94490000Y-113037595D01*
X94490000Y-113454868D01*
X94368388Y-113576480D01*
X94244176Y-113762376D01*
X94158617Y-113968933D01*
X94115000Y-114188212D01*
X94115000Y-114411788D01*
X94158617Y-114631067D01*
X94244176Y-114837624D01*
X94368388Y-115023520D01*
X94526480Y-115181612D01*
X94712376Y-115305824D01*
X94918933Y-115391383D01*
X95138212Y-115435000D01*
X95361788Y-115435000D01*
X95581067Y-115391383D01*
X95787624Y-115305824D01*
X95973520Y-115181612D01*
X96076966Y-115078166D01*
X97191439Y-115078166D01*
X97226550Y-115291588D01*
X97430826Y-115382458D01*
X97648905Y-115431731D01*
X97872406Y-115437511D01*
X98092740Y-115399577D01*
X98301440Y-115319387D01*
X98353450Y-115291588D01*
X98388561Y-115078166D01*
X99731439Y-115078166D01*
X99766550Y-115291588D01*
X99970826Y-115382458D01*
X100188905Y-115431731D01*
X100412406Y-115437511D01*
X100632740Y-115399577D01*
X100841440Y-115319387D01*
X100893450Y-115291588D01*
X100928561Y-115078166D01*
X100330000Y-114479605D01*
X99731439Y-115078166D01*
X98388561Y-115078166D01*
X97790000Y-114479605D01*
X97191439Y-115078166D01*
X96076966Y-115078166D01*
X96131612Y-115023520D01*
X96255824Y-114837624D01*
X96341383Y-114631067D01*
X96385000Y-114411788D01*
X96385000Y-114382406D01*
X96652489Y-114382406D01*
X96690423Y-114602740D01*
X96770613Y-114811440D01*
X96798412Y-114863450D01*
X97011834Y-114898561D01*
X97610395Y-114300000D01*
X97969605Y-114300000D01*
X98568166Y-114898561D01*
X98781588Y-114863450D01*
X98872458Y-114659174D01*
X98921731Y-114441095D01*
X98923248Y-114382406D01*
X99192489Y-114382406D01*
X99230423Y-114602740D01*
X99310613Y-114811440D01*
X99338412Y-114863450D01*
X99551834Y-114898561D01*
X100150395Y-114300000D01*
X100509605Y-114300000D01*
X101108166Y-114898561D01*
X101321588Y-114863450D01*
X101412458Y-114659174D01*
X101461731Y-114441095D01*
X101467511Y-114217594D01*
X101429577Y-113997260D01*
X101349387Y-113788560D01*
X101321588Y-113736550D01*
X101108166Y-113701439D01*
X100509605Y-114300000D01*
X100150395Y-114300000D01*
X99551834Y-113701439D01*
X99338412Y-113736550D01*
X99247542Y-113940826D01*
X99198269Y-114158905D01*
X99192489Y-114382406D01*
X98923248Y-114382406D01*
X98927511Y-114217594D01*
X98889577Y-113997260D01*
X98809387Y-113788560D01*
X98781588Y-113736550D01*
X98568166Y-113701439D01*
X97969605Y-114300000D01*
X97610395Y-114300000D01*
X97011834Y-113701439D01*
X96798412Y-113736550D01*
X96707542Y-113940826D01*
X96658269Y-114158905D01*
X96652489Y-114382406D01*
X96385000Y-114382406D01*
X96385000Y-114188212D01*
X96341383Y-113968933D01*
X96255824Y-113762376D01*
X96131612Y-113576480D01*
X96010000Y-113454868D01*
X96010000Y-113037595D01*
X96079014Y-113000706D01*
X96305134Y-112815134D01*
X96490706Y-112589014D01*
X96525201Y-112524477D01*
X96594822Y-112641355D01*
X96789731Y-112857588D01*
X97023080Y-113031641D01*
X97285901Y-113156825D01*
X97433110Y-113201476D01*
X97662998Y-113080156D01*
X97662998Y-113170167D01*
X97487260Y-113200423D01*
X97278560Y-113280613D01*
X97226550Y-113308412D01*
X97191439Y-113521834D01*
X97790000Y-114120395D01*
X98388561Y-113521834D01*
X98353450Y-113308412D01*
X98149174Y-113217542D01*
X97931095Y-113168269D01*
X97917002Y-113167905D01*
X97917002Y-113080156D01*
X98146890Y-113201476D01*
X98294099Y-113156825D01*
X98556920Y-113031641D01*
X98790269Y-112857588D01*
X98985178Y-112641355D01*
X99060000Y-112515745D01*
X99134822Y-112641355D01*
X99329731Y-112857588D01*
X99563080Y-113031641D01*
X99825901Y-113156825D01*
X99973110Y-113201476D01*
X100202998Y-113080156D01*
X100202998Y-113170167D01*
X100027260Y-113200423D01*
X99818560Y-113280613D01*
X99766550Y-113308412D01*
X99731439Y-113521834D01*
X100330000Y-114120395D01*
X100928561Y-113521834D01*
X100893450Y-113308412D01*
X100689174Y-113217542D01*
X100471095Y-113168269D01*
X100457002Y-113167905D01*
X100457002Y-113080156D01*
X100686890Y-113201476D01*
X100834099Y-113156825D01*
X101096920Y-113031641D01*
X101330269Y-112857588D01*
X101406034Y-112773534D01*
X101430498Y-112854180D01*
X101489463Y-112964494D01*
X101568815Y-113061185D01*
X101665506Y-113140537D01*
X101735001Y-113177683D01*
X101735001Y-114188207D01*
X101735000Y-114188212D01*
X101735000Y-114411788D01*
X101745934Y-114466757D01*
X101751424Y-114522499D01*
X101767683Y-114576096D01*
X101778617Y-114631067D01*
X101800067Y-114682851D01*
X101816325Y-114736447D01*
X101842728Y-114785843D01*
X101864176Y-114837624D01*
X101895312Y-114884222D01*
X101921717Y-114933623D01*
X101957254Y-114976925D01*
X101988388Y-115023520D01*
X102028014Y-115063146D01*
X102063552Y-115106449D01*
X102106855Y-115141987D01*
X102146480Y-115181612D01*
X102193074Y-115212745D01*
X102236378Y-115248284D01*
X102285782Y-115274691D01*
X102332376Y-115305824D01*
X102384153Y-115327271D01*
X102433554Y-115353676D01*
X102487155Y-115369936D01*
X102538933Y-115391383D01*
X102593897Y-115402316D01*
X102647502Y-115418577D01*
X102703252Y-115424068D01*
X102758212Y-115435000D01*
X102814249Y-115435000D01*
X102870000Y-115440491D01*
X102925752Y-115435000D01*
X102981788Y-115435000D01*
X103036747Y-115424068D01*
X103092499Y-115418577D01*
X103146106Y-115402315D01*
X103201067Y-115391383D01*
X103252842Y-115369937D01*
X103306447Y-115353676D01*
X103355851Y-115327269D01*
X103407624Y-115305824D01*
X103454214Y-115274693D01*
X103503623Y-115248284D01*
X103546932Y-115212741D01*
X103593520Y-115181612D01*
X103633141Y-115141991D01*
X103676449Y-115106449D01*
X103711991Y-115063141D01*
X103751612Y-115023520D01*
X103782741Y-114976932D01*
X103818284Y-114933623D01*
X103844693Y-114884214D01*
X103875824Y-114837624D01*
X103897269Y-114785851D01*
X103923676Y-114736447D01*
X103939937Y-114682842D01*
X103961383Y-114631067D01*
X103972315Y-114576106D01*
X103988577Y-114522499D01*
X103994068Y-114466747D01*
X104005000Y-114411788D01*
X104005000Y-113177683D01*
X104074494Y-113140537D01*
X104171185Y-113061185D01*
X104196777Y-113030000D01*
X110267815Y-113030000D01*
X110296487Y-113321111D01*
X110381401Y-113601034D01*
X110519294Y-113859014D01*
X110704866Y-114085134D01*
X110930986Y-114270706D01*
X111000001Y-114307595D01*
X111000001Y-114724867D01*
X110878388Y-114846480D01*
X110754176Y-115032376D01*
X110668617Y-115238933D01*
X110625000Y-115458212D01*
X110625000Y-115681788D01*
X110668617Y-115901067D01*
X110754176Y-116107624D01*
X110878388Y-116293520D01*
X111036480Y-116451612D01*
X111222376Y-116575824D01*
X111428933Y-116661383D01*
X111648212Y-116705000D01*
X111871788Y-116705000D01*
X112091067Y-116661383D01*
X112297624Y-116575824D01*
X112483520Y-116451612D01*
X112641612Y-116293520D01*
X112765824Y-116107624D01*
X112851383Y-115901067D01*
X112895000Y-115681788D01*
X112895000Y-115458212D01*
X112851383Y-115238933D01*
X112765824Y-115032376D01*
X112641612Y-114846480D01*
X112520000Y-114724868D01*
X112520000Y-114307595D01*
X112589014Y-114270706D01*
X112815134Y-114085134D01*
X113000706Y-113859014D01*
X113030000Y-113804209D01*
X113059294Y-113859014D01*
X113244866Y-114085134D01*
X113470986Y-114270706D01*
X113540001Y-114307595D01*
X113540001Y-114724867D01*
X113418388Y-114846480D01*
X113294176Y-115032376D01*
X113208617Y-115238933D01*
X113165000Y-115458212D01*
X113165000Y-115681788D01*
X113208617Y-115901067D01*
X113294176Y-116107624D01*
X113418388Y-116293520D01*
X113576480Y-116451612D01*
X113762376Y-116575824D01*
X113968933Y-116661383D01*
X114188212Y-116705000D01*
X114411788Y-116705000D01*
X114631067Y-116661383D01*
X114837624Y-116575824D01*
X115023520Y-116451612D01*
X115181612Y-116293520D01*
X115305824Y-116107624D01*
X115391383Y-115901067D01*
X115435000Y-115681788D01*
X115435000Y-115458212D01*
X115391383Y-115238933D01*
X115305824Y-115032376D01*
X115181612Y-114846480D01*
X115060000Y-114724868D01*
X115060000Y-114307595D01*
X115129014Y-114270706D01*
X115355134Y-114085134D01*
X115540706Y-113859014D01*
X115570000Y-113804209D01*
X115599294Y-113859014D01*
X115784866Y-114085134D01*
X116010986Y-114270706D01*
X116080001Y-114307595D01*
X116080001Y-114724867D01*
X115958388Y-114846480D01*
X115834176Y-115032376D01*
X115748617Y-115238933D01*
X115705000Y-115458212D01*
X115705000Y-115681788D01*
X115748617Y-115901067D01*
X115834176Y-116107624D01*
X115958388Y-116293520D01*
X116116480Y-116451612D01*
X116302376Y-116575824D01*
X116508933Y-116661383D01*
X116728212Y-116705000D01*
X116951788Y-116705000D01*
X117171067Y-116661383D01*
X117377624Y-116575824D01*
X117563520Y-116451612D01*
X117721612Y-116293520D01*
X117845824Y-116107624D01*
X117931383Y-115901067D01*
X117975000Y-115681788D01*
X117975000Y-115458212D01*
X117931383Y-115238933D01*
X117845824Y-115032376D01*
X117721612Y-114846480D01*
X117600000Y-114724868D01*
X117600000Y-114307595D01*
X117669014Y-114270706D01*
X117895134Y-114085134D01*
X118080706Y-113859014D01*
X118110000Y-113804209D01*
X118139294Y-113859014D01*
X118324866Y-114085134D01*
X118550986Y-114270706D01*
X118620001Y-114307595D01*
X118620001Y-114724867D01*
X118498388Y-114846480D01*
X118374176Y-115032376D01*
X118288617Y-115238933D01*
X118245000Y-115458212D01*
X118245000Y-115681788D01*
X118288617Y-115901067D01*
X118374176Y-116107624D01*
X118498388Y-116293520D01*
X118656480Y-116451612D01*
X118842376Y-116575824D01*
X119048933Y-116661383D01*
X119268212Y-116705000D01*
X119491788Y-116705000D01*
X119711067Y-116661383D01*
X119917624Y-116575824D01*
X120103520Y-116451612D01*
X120261612Y-116293520D01*
X120385824Y-116107624D01*
X120471383Y-115901067D01*
X120515000Y-115681788D01*
X120515000Y-115458212D01*
X120471383Y-115238933D01*
X120385824Y-115032376D01*
X120261612Y-114846480D01*
X120140000Y-114724868D01*
X120140000Y-114307595D01*
X120209014Y-114270706D01*
X120435134Y-114085134D01*
X120620706Y-113859014D01*
X120650000Y-113804209D01*
X120679294Y-113859014D01*
X120864866Y-114085134D01*
X121090986Y-114270706D01*
X121160001Y-114307595D01*
X121160001Y-114724867D01*
X121038388Y-114846480D01*
X120914176Y-115032376D01*
X120828617Y-115238933D01*
X120785000Y-115458212D01*
X120785000Y-115681788D01*
X120828617Y-115901067D01*
X120914176Y-116107624D01*
X121038388Y-116293520D01*
X121196480Y-116451612D01*
X121382376Y-116575824D01*
X121588933Y-116661383D01*
X121808212Y-116705000D01*
X122031788Y-116705000D01*
X122251067Y-116661383D01*
X122457624Y-116575824D01*
X122643520Y-116451612D01*
X122801612Y-116293520D01*
X122925824Y-116107624D01*
X123011383Y-115901067D01*
X123055000Y-115681788D01*
X123055000Y-115458212D01*
X123011383Y-115238933D01*
X122925824Y-115032376D01*
X122801612Y-114846480D01*
X122680000Y-114724868D01*
X122680000Y-114307595D01*
X122749014Y-114270706D01*
X122975134Y-114085134D01*
X123160706Y-113859014D01*
X123190000Y-113804209D01*
X123219294Y-113859014D01*
X123404866Y-114085134D01*
X123630986Y-114270706D01*
X123700001Y-114307595D01*
X123700001Y-114724867D01*
X123578388Y-114846480D01*
X123454176Y-115032376D01*
X123368617Y-115238933D01*
X123325000Y-115458212D01*
X123325000Y-115681788D01*
X123368617Y-115901067D01*
X123454176Y-116107624D01*
X123578388Y-116293520D01*
X123736480Y-116451612D01*
X123922376Y-116575824D01*
X124128933Y-116661383D01*
X124348212Y-116705000D01*
X124571788Y-116705000D01*
X124791067Y-116661383D01*
X124997624Y-116575824D01*
X125183520Y-116451612D01*
X125341612Y-116293520D01*
X125465824Y-116107624D01*
X125551383Y-115901067D01*
X125595000Y-115681788D01*
X125595000Y-115458212D01*
X125551383Y-115238933D01*
X125465824Y-115032376D01*
X125341612Y-114846480D01*
X125220000Y-114724868D01*
X125220000Y-114307595D01*
X125289014Y-114270706D01*
X125515134Y-114085134D01*
X125700706Y-113859014D01*
X125730000Y-113804209D01*
X125759294Y-113859014D01*
X125944866Y-114085134D01*
X126170986Y-114270706D01*
X126240001Y-114307595D01*
X126240001Y-114724867D01*
X126118388Y-114846480D01*
X125994176Y-115032376D01*
X125908617Y-115238933D01*
X125865000Y-115458212D01*
X125865000Y-115681788D01*
X125908617Y-115901067D01*
X125994176Y-116107624D01*
X126118388Y-116293520D01*
X126276480Y-116451612D01*
X126462376Y-116575824D01*
X126668933Y-116661383D01*
X126888212Y-116705000D01*
X127111788Y-116705000D01*
X127331067Y-116661383D01*
X127537624Y-116575824D01*
X127723520Y-116451612D01*
X127881612Y-116293520D01*
X128005824Y-116107624D01*
X128091383Y-115901067D01*
X128135000Y-115681788D01*
X128135000Y-115458212D01*
X128091383Y-115238933D01*
X128005824Y-115032376D01*
X127881612Y-114846480D01*
X127760000Y-114724868D01*
X127760000Y-114307595D01*
X127829014Y-114270706D01*
X128055134Y-114085134D01*
X128240706Y-113859014D01*
X128270000Y-113804209D01*
X128299294Y-113859014D01*
X128484866Y-114085134D01*
X128710986Y-114270706D01*
X128780001Y-114307595D01*
X128780001Y-114724867D01*
X128658388Y-114846480D01*
X128534176Y-115032376D01*
X128448617Y-115238933D01*
X128405000Y-115458212D01*
X128405000Y-115681788D01*
X128448617Y-115901067D01*
X128534176Y-116107624D01*
X128658388Y-116293520D01*
X128816480Y-116451612D01*
X129002376Y-116575824D01*
X129208933Y-116661383D01*
X129428212Y-116705000D01*
X129651788Y-116705000D01*
X129871067Y-116661383D01*
X130077624Y-116575824D01*
X130263520Y-116451612D01*
X130421612Y-116293520D01*
X130545824Y-116107624D01*
X130631383Y-115901067D01*
X130675000Y-115681788D01*
X130675000Y-115458212D01*
X130631383Y-115238933D01*
X130545824Y-115032376D01*
X130421612Y-114846480D01*
X130300000Y-114724868D01*
X130300000Y-114307595D01*
X130369014Y-114270706D01*
X130595134Y-114085134D01*
X130780706Y-113859014D01*
X130810000Y-113804209D01*
X130839294Y-113859014D01*
X131024866Y-114085134D01*
X131250986Y-114270706D01*
X131320001Y-114307595D01*
X131320001Y-114724867D01*
X131198388Y-114846480D01*
X131074176Y-115032376D01*
X130988617Y-115238933D01*
X130945000Y-115458212D01*
X130945000Y-115681788D01*
X130988617Y-115901067D01*
X131074176Y-116107624D01*
X131198388Y-116293520D01*
X131356480Y-116451612D01*
X131542376Y-116575824D01*
X131748933Y-116661383D01*
X131968212Y-116705000D01*
X132191788Y-116705000D01*
X132411067Y-116661383D01*
X132617624Y-116575824D01*
X132803520Y-116451612D01*
X132961612Y-116293520D01*
X133085824Y-116107624D01*
X133171383Y-115901067D01*
X133215000Y-115681788D01*
X133215000Y-115458212D01*
X133171383Y-115238933D01*
X133085824Y-115032376D01*
X132961612Y-114846480D01*
X132840000Y-114724868D01*
X132840000Y-114307595D01*
X132909014Y-114270706D01*
X133135134Y-114085134D01*
X133320706Y-113859014D01*
X133350000Y-113804209D01*
X133379294Y-113859014D01*
X133564866Y-114085134D01*
X133790986Y-114270706D01*
X133860001Y-114307595D01*
X133860001Y-114724867D01*
X133738388Y-114846480D01*
X133614176Y-115032376D01*
X133528617Y-115238933D01*
X133485000Y-115458212D01*
X133485000Y-115681788D01*
X133528617Y-115901067D01*
X133614176Y-116107624D01*
X133738388Y-116293520D01*
X133896480Y-116451612D01*
X134082376Y-116575824D01*
X134288933Y-116661383D01*
X134508212Y-116705000D01*
X134731788Y-116705000D01*
X134951067Y-116661383D01*
X135157624Y-116575824D01*
X135343520Y-116451612D01*
X135501612Y-116293520D01*
X135625824Y-116107624D01*
X135711383Y-115901067D01*
X135755000Y-115681788D01*
X135755000Y-115458212D01*
X135711383Y-115238933D01*
X135625824Y-115032376D01*
X135501612Y-114846480D01*
X135380000Y-114724868D01*
X135380000Y-114307595D01*
X135449014Y-114270706D01*
X135675134Y-114085134D01*
X135860706Y-113859014D01*
X135890000Y-113804209D01*
X135919294Y-113859014D01*
X136104866Y-114085134D01*
X136330986Y-114270706D01*
X136400001Y-114307595D01*
X136400001Y-114724867D01*
X136278388Y-114846480D01*
X136154176Y-115032376D01*
X136068617Y-115238933D01*
X136025000Y-115458212D01*
X136025000Y-115681788D01*
X136068617Y-115901067D01*
X136154176Y-116107624D01*
X136278388Y-116293520D01*
X136436480Y-116451612D01*
X136622376Y-116575824D01*
X136828933Y-116661383D01*
X137048212Y-116705000D01*
X137271788Y-116705000D01*
X137491067Y-116661383D01*
X137697624Y-116575824D01*
X137883520Y-116451612D01*
X138041612Y-116293520D01*
X138165824Y-116107624D01*
X138251383Y-115901067D01*
X138295000Y-115681788D01*
X138295000Y-115458212D01*
X138251383Y-115238933D01*
X138165824Y-115032376D01*
X138041612Y-114846480D01*
X137920000Y-114724868D01*
X137920000Y-114307595D01*
X137989014Y-114270706D01*
X138215134Y-114085134D01*
X138400706Y-113859014D01*
X138430000Y-113804209D01*
X138459294Y-113859014D01*
X138644866Y-114085134D01*
X138870986Y-114270706D01*
X138940001Y-114307595D01*
X138940001Y-114724867D01*
X138818388Y-114846480D01*
X138694176Y-115032376D01*
X138608617Y-115238933D01*
X138565000Y-115458212D01*
X138565000Y-115681788D01*
X138608617Y-115901067D01*
X138694176Y-116107624D01*
X138818388Y-116293520D01*
X138976480Y-116451612D01*
X139162376Y-116575824D01*
X139368933Y-116661383D01*
X139588212Y-116705000D01*
X139811788Y-116705000D01*
X140031067Y-116661383D01*
X140237624Y-116575824D01*
X140423520Y-116451612D01*
X140581612Y-116293520D01*
X140705824Y-116107624D01*
X140791383Y-115901067D01*
X140835000Y-115681788D01*
X140835000Y-115458212D01*
X140791383Y-115238933D01*
X140705824Y-115032376D01*
X140581612Y-114846480D01*
X140460000Y-114724868D01*
X140460000Y-114307595D01*
X140529014Y-114270706D01*
X140755134Y-114085134D01*
X140940706Y-113859014D01*
X140970000Y-113804209D01*
X140999294Y-113859014D01*
X141184866Y-114085134D01*
X141410986Y-114270706D01*
X141480001Y-114307595D01*
X141480001Y-114724867D01*
X141358388Y-114846480D01*
X141234176Y-115032376D01*
X141148617Y-115238933D01*
X141105000Y-115458212D01*
X141105000Y-115681788D01*
X141148617Y-115901067D01*
X141234176Y-116107624D01*
X141358388Y-116293520D01*
X141516480Y-116451612D01*
X141702376Y-116575824D01*
X141908933Y-116661383D01*
X142128212Y-116705000D01*
X142351788Y-116705000D01*
X142571067Y-116661383D01*
X142777624Y-116575824D01*
X142963520Y-116451612D01*
X143121612Y-116293520D01*
X143245824Y-116107624D01*
X143331383Y-115901067D01*
X143375000Y-115681788D01*
X143375000Y-115458212D01*
X143331383Y-115238933D01*
X143245824Y-115032376D01*
X143121612Y-114846480D01*
X143000000Y-114724868D01*
X143000000Y-114307595D01*
X143069014Y-114270706D01*
X143295134Y-114085134D01*
X143480706Y-113859014D01*
X143510000Y-113804209D01*
X143539294Y-113859014D01*
X143724866Y-114085134D01*
X143950986Y-114270706D01*
X144020001Y-114307595D01*
X144020001Y-114724867D01*
X143898388Y-114846480D01*
X143774176Y-115032376D01*
X143688617Y-115238933D01*
X143645000Y-115458212D01*
X143645000Y-115681788D01*
X143688617Y-115901067D01*
X143774176Y-116107624D01*
X143898388Y-116293520D01*
X144056480Y-116451612D01*
X144242376Y-116575824D01*
X144448933Y-116661383D01*
X144668212Y-116705000D01*
X144891788Y-116705000D01*
X145111067Y-116661383D01*
X145317624Y-116575824D01*
X145503520Y-116451612D01*
X145661612Y-116293520D01*
X145785824Y-116107624D01*
X145871383Y-115901067D01*
X145915000Y-115681788D01*
X145915000Y-115458212D01*
X145871383Y-115238933D01*
X145785824Y-115032376D01*
X145661612Y-114846480D01*
X145540000Y-114724868D01*
X145540000Y-114307595D01*
X145609014Y-114270706D01*
X145835134Y-114085134D01*
X146020706Y-113859014D01*
X146050000Y-113804209D01*
X146079294Y-113859014D01*
X146264866Y-114085134D01*
X146490986Y-114270706D01*
X146560001Y-114307595D01*
X146560001Y-114724867D01*
X146438388Y-114846480D01*
X146314176Y-115032376D01*
X146228617Y-115238933D01*
X146185000Y-115458212D01*
X146185000Y-115681788D01*
X146228617Y-115901067D01*
X146314176Y-116107624D01*
X146438388Y-116293520D01*
X146596480Y-116451612D01*
X146782376Y-116575824D01*
X146988933Y-116661383D01*
X147208212Y-116705000D01*
X147431788Y-116705000D01*
X147651067Y-116661383D01*
X147857624Y-116575824D01*
X148043520Y-116451612D01*
X148201612Y-116293520D01*
X148325824Y-116107624D01*
X148411383Y-115901067D01*
X148455000Y-115681788D01*
X148455000Y-115458212D01*
X148411383Y-115238933D01*
X148325824Y-115032376D01*
X148201612Y-114846480D01*
X148080000Y-114724868D01*
X148080000Y-114307595D01*
X148149014Y-114270706D01*
X148375134Y-114085134D01*
X148560706Y-113859014D01*
X148590000Y-113804209D01*
X148619294Y-113859014D01*
X148804866Y-114085134D01*
X149030986Y-114270706D01*
X149100001Y-114307595D01*
X149100001Y-114724867D01*
X148978388Y-114846480D01*
X148854176Y-115032376D01*
X148768617Y-115238933D01*
X148725000Y-115458212D01*
X148725000Y-115681788D01*
X148768617Y-115901067D01*
X148854176Y-116107624D01*
X148978388Y-116293520D01*
X149136480Y-116451612D01*
X149322376Y-116575824D01*
X149528933Y-116661383D01*
X149748212Y-116705000D01*
X149971788Y-116705000D01*
X150191067Y-116661383D01*
X150397624Y-116575824D01*
X150583520Y-116451612D01*
X150741612Y-116293520D01*
X150865824Y-116107624D01*
X150951383Y-115901067D01*
X150995000Y-115681788D01*
X150995000Y-115458212D01*
X150951383Y-115238933D01*
X150865824Y-115032376D01*
X150741612Y-114846480D01*
X150620000Y-114724868D01*
X150620000Y-114307595D01*
X150689014Y-114270706D01*
X150915134Y-114085134D01*
X151100706Y-113859014D01*
X151130000Y-113804209D01*
X151159294Y-113859014D01*
X151344866Y-114085134D01*
X151570986Y-114270706D01*
X151640001Y-114307595D01*
X151640001Y-114724867D01*
X151518388Y-114846480D01*
X151394176Y-115032376D01*
X151308617Y-115238933D01*
X151265000Y-115458212D01*
X151265000Y-115681788D01*
X151308617Y-115901067D01*
X151394176Y-116107624D01*
X151518388Y-116293520D01*
X151676480Y-116451612D01*
X151862376Y-116575824D01*
X152068933Y-116661383D01*
X152288212Y-116705000D01*
X152511788Y-116705000D01*
X152731067Y-116661383D01*
X152937624Y-116575824D01*
X153123520Y-116451612D01*
X153281612Y-116293520D01*
X153405824Y-116107624D01*
X153491383Y-115901067D01*
X153535000Y-115681788D01*
X153535000Y-115458212D01*
X153491383Y-115238933D01*
X153405824Y-115032376D01*
X153281612Y-114846480D01*
X153160000Y-114724868D01*
X153160000Y-114307595D01*
X153229014Y-114270706D01*
X153455134Y-114085134D01*
X153640706Y-113859014D01*
X153778599Y-113601034D01*
X153863513Y-113321111D01*
X153892185Y-113030000D01*
X153863513Y-112738889D01*
X153778599Y-112458966D01*
X153640706Y-112200986D01*
X153455134Y-111974866D01*
X153425313Y-111950393D01*
X153494180Y-111929502D01*
X153604494Y-111870537D01*
X153701185Y-111791185D01*
X153780537Y-111694494D01*
X153839502Y-111584180D01*
X153875812Y-111464482D01*
X153888072Y-111340000D01*
X153885000Y-110775750D01*
X153726250Y-110617000D01*
X152527000Y-110617000D01*
X152527000Y-110637000D01*
X152273000Y-110637000D01*
X152273000Y-110617000D01*
X149987000Y-110617000D01*
X149987000Y-110637000D01*
X149733000Y-110637000D01*
X149733000Y-110617000D01*
X147447000Y-110617000D01*
X147447000Y-110637000D01*
X147193000Y-110637000D01*
X147193000Y-110617000D01*
X144907000Y-110617000D01*
X144907000Y-110637000D01*
X144653000Y-110637000D01*
X144653000Y-110617000D01*
X142367000Y-110617000D01*
X142367000Y-110637000D01*
X142113000Y-110637000D01*
X142113000Y-110617000D01*
X139827000Y-110617000D01*
X139827000Y-110637000D01*
X139573000Y-110637000D01*
X139573000Y-110617000D01*
X137287000Y-110617000D01*
X137287000Y-110637000D01*
X137033000Y-110637000D01*
X137033000Y-110617000D01*
X134747000Y-110617000D01*
X134747000Y-110637000D01*
X134493000Y-110637000D01*
X134493000Y-110617000D01*
X132207000Y-110617000D01*
X132207000Y-110637000D01*
X131953000Y-110637000D01*
X131953000Y-110617000D01*
X129667000Y-110617000D01*
X129667000Y-110637000D01*
X129413000Y-110637000D01*
X129413000Y-110617000D01*
X127127000Y-110617000D01*
X127127000Y-110637000D01*
X126873000Y-110637000D01*
X126873000Y-110617000D01*
X124587000Y-110617000D01*
X124587000Y-110637000D01*
X124333000Y-110637000D01*
X124333000Y-110617000D01*
X122047000Y-110617000D01*
X122047000Y-110637000D01*
X121793000Y-110637000D01*
X121793000Y-110617000D01*
X119507000Y-110617000D01*
X119507000Y-110637000D01*
X119253000Y-110637000D01*
X119253000Y-110617000D01*
X116967000Y-110617000D01*
X116967000Y-110637000D01*
X116713000Y-110637000D01*
X116713000Y-110617000D01*
X114427000Y-110617000D01*
X114427000Y-110637000D01*
X114173000Y-110637000D01*
X114173000Y-110617000D01*
X111887000Y-110617000D01*
X111887000Y-110637000D01*
X111633000Y-110637000D01*
X111633000Y-110617000D01*
X110439186Y-110617000D01*
X110318519Y-110846891D01*
X110415843Y-111121252D01*
X110564822Y-111371355D01*
X110759731Y-111587588D01*
X110988756Y-111758416D01*
X110930986Y-111789294D01*
X110704866Y-111974866D01*
X110519294Y-112200986D01*
X110381401Y-112458966D01*
X110296487Y-112738889D01*
X110267815Y-113030000D01*
X104196777Y-113030000D01*
X104250537Y-112964494D01*
X104309502Y-112854180D01*
X104345812Y-112734482D01*
X104358072Y-112610000D01*
X104358072Y-111877059D01*
X106102022Y-110133109D01*
X110318519Y-110133109D01*
X110439186Y-110363000D01*
X111633000Y-110363000D01*
X111633000Y-110343000D01*
X111887000Y-110343000D01*
X111887000Y-110363000D01*
X114173000Y-110363000D01*
X114173000Y-110343000D01*
X114427000Y-110343000D01*
X114427000Y-110363000D01*
X116713000Y-110363000D01*
X116713000Y-110343000D01*
X116967000Y-110343000D01*
X116967000Y-110363000D01*
X119253000Y-110363000D01*
X119253000Y-110343000D01*
X119507000Y-110343000D01*
X119507000Y-110363000D01*
X121793000Y-110363000D01*
X121793000Y-110343000D01*
X122047000Y-110343000D01*
X122047000Y-110363000D01*
X124333000Y-110363000D01*
X124333000Y-110343000D01*
X124587000Y-110343000D01*
X124587000Y-110363000D01*
X126873000Y-110363000D01*
X126873000Y-110343000D01*
X127127000Y-110343000D01*
X127127000Y-110363000D01*
X129413000Y-110363000D01*
X129413000Y-110343000D01*
X129667000Y-110343000D01*
X129667000Y-110363000D01*
X131953000Y-110363000D01*
X131953000Y-110343000D01*
X132207000Y-110343000D01*
X132207000Y-110363000D01*
X134493000Y-110363000D01*
X134493000Y-110343000D01*
X134747000Y-110343000D01*
X134747000Y-110363000D01*
X137033000Y-110363000D01*
X137033000Y-110343000D01*
X137287000Y-110343000D01*
X137287000Y-110363000D01*
X139573000Y-110363000D01*
X139573000Y-110343000D01*
X139827000Y-110343000D01*
X139827000Y-110363000D01*
X142113000Y-110363000D01*
X142113000Y-110343000D01*
X142367000Y-110343000D01*
X142367000Y-110363000D01*
X144653000Y-110363000D01*
X144653000Y-110343000D01*
X144907000Y-110343000D01*
X144907000Y-110363000D01*
X147193000Y-110363000D01*
X147193000Y-110343000D01*
X147447000Y-110343000D01*
X147447000Y-110363000D01*
X149733000Y-110363000D01*
X149733000Y-110343000D01*
X149987000Y-110343000D01*
X149987000Y-110363000D01*
X152273000Y-110363000D01*
X152273000Y-110343000D01*
X152527000Y-110343000D01*
X152527000Y-110363000D01*
X153726250Y-110363000D01*
X153885000Y-110204250D01*
X153888072Y-109640000D01*
X153875812Y-109515518D01*
X153839502Y-109395820D01*
X153780537Y-109285506D01*
X153701185Y-109188815D01*
X153604494Y-109109463D01*
X153494180Y-109050498D01*
X153374482Y-109014188D01*
X153250000Y-109001928D01*
X152820666Y-109004265D01*
X152911440Y-108969387D01*
X152963450Y-108941588D01*
X152998561Y-108728166D01*
X152400000Y-108129605D01*
X151801439Y-108728166D01*
X151836550Y-108941588D01*
X151977426Y-109004255D01*
X151550000Y-109001928D01*
X151425518Y-109014188D01*
X151305820Y-109050498D01*
X151195506Y-109109463D01*
X151098815Y-109188815D01*
X151019463Y-109285506D01*
X150960498Y-109395820D01*
X150936034Y-109476466D01*
X150860269Y-109392412D01*
X150626920Y-109218359D01*
X150364099Y-109093175D01*
X150216890Y-109048524D01*
X149987002Y-109169844D01*
X149987002Y-109079833D01*
X150162740Y-109049577D01*
X150371440Y-108969387D01*
X150423450Y-108941588D01*
X150458561Y-108728166D01*
X149860000Y-108129605D01*
X149261439Y-108728166D01*
X149296550Y-108941588D01*
X149500826Y-109032458D01*
X149718905Y-109081731D01*
X149732998Y-109082095D01*
X149732998Y-109169844D01*
X149503110Y-109048524D01*
X149355901Y-109093175D01*
X149093080Y-109218359D01*
X148859731Y-109392412D01*
X148664822Y-109608645D01*
X148590000Y-109734255D01*
X148515178Y-109608645D01*
X148320269Y-109392412D01*
X148086920Y-109218359D01*
X147824099Y-109093175D01*
X147676890Y-109048524D01*
X147447002Y-109169844D01*
X147447002Y-109079833D01*
X147622740Y-109049577D01*
X147831440Y-108969387D01*
X147883450Y-108941588D01*
X147918561Y-108728166D01*
X147320000Y-108129605D01*
X146721439Y-108728166D01*
X146756550Y-108941588D01*
X146960826Y-109032458D01*
X147178905Y-109081731D01*
X147192998Y-109082095D01*
X147192998Y-109169844D01*
X146963110Y-109048524D01*
X146815901Y-109093175D01*
X146553080Y-109218359D01*
X146319731Y-109392412D01*
X146124822Y-109608645D01*
X146050000Y-109734255D01*
X145975178Y-109608645D01*
X145780269Y-109392412D01*
X145546920Y-109218359D01*
X145284099Y-109093175D01*
X145136890Y-109048524D01*
X144907002Y-109169844D01*
X144907002Y-109079833D01*
X145082740Y-109049577D01*
X145291440Y-108969387D01*
X145343450Y-108941588D01*
X145378561Y-108728166D01*
X144780000Y-108129605D01*
X144181439Y-108728166D01*
X144216550Y-108941588D01*
X144420826Y-109032458D01*
X144638905Y-109081731D01*
X144652998Y-109082095D01*
X144652998Y-109169844D01*
X144423110Y-109048524D01*
X144275901Y-109093175D01*
X144013080Y-109218359D01*
X143779731Y-109392412D01*
X143584822Y-109608645D01*
X143510000Y-109734255D01*
X143435178Y-109608645D01*
X143240269Y-109392412D01*
X143006920Y-109218359D01*
X142744099Y-109093175D01*
X142596890Y-109048524D01*
X142367002Y-109169844D01*
X142367002Y-109079833D01*
X142542740Y-109049577D01*
X142751440Y-108969387D01*
X142803450Y-108941588D01*
X142838561Y-108728166D01*
X142240000Y-108129605D01*
X141641439Y-108728166D01*
X141676550Y-108941588D01*
X141880826Y-109032458D01*
X142098905Y-109081731D01*
X142112998Y-109082095D01*
X142112998Y-109169844D01*
X141883110Y-109048524D01*
X141735901Y-109093175D01*
X141473080Y-109218359D01*
X141239731Y-109392412D01*
X141044822Y-109608645D01*
X140970000Y-109734255D01*
X140895178Y-109608645D01*
X140700269Y-109392412D01*
X140466920Y-109218359D01*
X140204099Y-109093175D01*
X140056890Y-109048524D01*
X139827002Y-109169844D01*
X139827002Y-109079833D01*
X140002740Y-109049577D01*
X140211440Y-108969387D01*
X140263450Y-108941588D01*
X140298561Y-108728166D01*
X139700000Y-108129605D01*
X139101439Y-108728166D01*
X139136550Y-108941588D01*
X139340826Y-109032458D01*
X139558905Y-109081731D01*
X139572998Y-109082095D01*
X139572998Y-109169844D01*
X139343110Y-109048524D01*
X139195901Y-109093175D01*
X138933080Y-109218359D01*
X138699731Y-109392412D01*
X138504822Y-109608645D01*
X138430000Y-109734255D01*
X138355178Y-109608645D01*
X138160269Y-109392412D01*
X137926920Y-109218359D01*
X137664099Y-109093175D01*
X137516890Y-109048524D01*
X137287002Y-109169844D01*
X137287002Y-109079833D01*
X137462740Y-109049577D01*
X137671440Y-108969387D01*
X137723450Y-108941588D01*
X137758561Y-108728166D01*
X137160000Y-108129605D01*
X136561439Y-108728166D01*
X136596550Y-108941588D01*
X136800826Y-109032458D01*
X137018905Y-109081731D01*
X137032998Y-109082095D01*
X137032998Y-109169844D01*
X136803110Y-109048524D01*
X136655901Y-109093175D01*
X136393080Y-109218359D01*
X136159731Y-109392412D01*
X135964822Y-109608645D01*
X135890000Y-109734255D01*
X135815178Y-109608645D01*
X135620269Y-109392412D01*
X135386920Y-109218359D01*
X135124099Y-109093175D01*
X134976890Y-109048524D01*
X134747002Y-109169844D01*
X134747002Y-109079833D01*
X134922740Y-109049577D01*
X135131440Y-108969387D01*
X135183450Y-108941588D01*
X135218561Y-108728166D01*
X134620000Y-108129605D01*
X134021439Y-108728166D01*
X134056550Y-108941588D01*
X134260826Y-109032458D01*
X134478905Y-109081731D01*
X134492998Y-109082095D01*
X134492998Y-109169844D01*
X134263110Y-109048524D01*
X134115901Y-109093175D01*
X133853080Y-109218359D01*
X133619731Y-109392412D01*
X133424822Y-109608645D01*
X133350000Y-109734255D01*
X133275178Y-109608645D01*
X133080269Y-109392412D01*
X132846920Y-109218359D01*
X132584099Y-109093175D01*
X132436890Y-109048524D01*
X132207002Y-109169844D01*
X132207002Y-109079833D01*
X132382740Y-109049577D01*
X132591440Y-108969387D01*
X132643450Y-108941588D01*
X132678561Y-108728166D01*
X132080000Y-108129605D01*
X131481439Y-108728166D01*
X131516550Y-108941588D01*
X131720826Y-109032458D01*
X131938905Y-109081731D01*
X131952998Y-109082095D01*
X131952998Y-109169844D01*
X131723110Y-109048524D01*
X131575901Y-109093175D01*
X131313080Y-109218359D01*
X131079731Y-109392412D01*
X130884822Y-109608645D01*
X130810000Y-109734255D01*
X130735178Y-109608645D01*
X130540269Y-109392412D01*
X130306920Y-109218359D01*
X130044099Y-109093175D01*
X129896890Y-109048524D01*
X129667002Y-109169844D01*
X129667002Y-109079833D01*
X129842740Y-109049577D01*
X130051440Y-108969387D01*
X130103450Y-108941588D01*
X130138561Y-108728166D01*
X129540000Y-108129605D01*
X128941439Y-108728166D01*
X128976550Y-108941588D01*
X129180826Y-109032458D01*
X129398905Y-109081731D01*
X129412998Y-109082095D01*
X129412998Y-109169844D01*
X129183110Y-109048524D01*
X129035901Y-109093175D01*
X128773080Y-109218359D01*
X128539731Y-109392412D01*
X128344822Y-109608645D01*
X128270000Y-109734255D01*
X128195178Y-109608645D01*
X128000269Y-109392412D01*
X127766920Y-109218359D01*
X127504099Y-109093175D01*
X127356890Y-109048524D01*
X127127002Y-109169844D01*
X127127002Y-109079833D01*
X127302740Y-109049577D01*
X127511440Y-108969387D01*
X127563450Y-108941588D01*
X127598561Y-108728166D01*
X127000000Y-108129605D01*
X126401439Y-108728166D01*
X126436550Y-108941588D01*
X126640826Y-109032458D01*
X126858905Y-109081731D01*
X126872998Y-109082095D01*
X126872998Y-109169844D01*
X126643110Y-109048524D01*
X126495901Y-109093175D01*
X126233080Y-109218359D01*
X125999731Y-109392412D01*
X125804822Y-109608645D01*
X125730000Y-109734255D01*
X125655178Y-109608645D01*
X125460269Y-109392412D01*
X125226920Y-109218359D01*
X124964099Y-109093175D01*
X124816890Y-109048524D01*
X124587002Y-109169844D01*
X124587002Y-109079833D01*
X124762740Y-109049577D01*
X124971440Y-108969387D01*
X125023450Y-108941588D01*
X125058561Y-108728166D01*
X124460000Y-108129605D01*
X123861439Y-108728166D01*
X123896550Y-108941588D01*
X124100826Y-109032458D01*
X124318905Y-109081731D01*
X124332998Y-109082095D01*
X124332998Y-109169844D01*
X124103110Y-109048524D01*
X123955901Y-109093175D01*
X123693080Y-109218359D01*
X123459731Y-109392412D01*
X123264822Y-109608645D01*
X123190000Y-109734255D01*
X123115178Y-109608645D01*
X122920269Y-109392412D01*
X122686920Y-109218359D01*
X122424099Y-109093175D01*
X122276890Y-109048524D01*
X122047002Y-109169844D01*
X122047002Y-109079833D01*
X122222740Y-109049577D01*
X122431440Y-108969387D01*
X122483450Y-108941588D01*
X122518561Y-108728166D01*
X121920000Y-108129605D01*
X121321439Y-108728166D01*
X121356550Y-108941588D01*
X121560826Y-109032458D01*
X121778905Y-109081731D01*
X121792998Y-109082095D01*
X121792998Y-109169844D01*
X121563110Y-109048524D01*
X121415901Y-109093175D01*
X121153080Y-109218359D01*
X120919731Y-109392412D01*
X120724822Y-109608645D01*
X120650000Y-109734255D01*
X120575178Y-109608645D01*
X120380269Y-109392412D01*
X120146920Y-109218359D01*
X119884099Y-109093175D01*
X119736890Y-109048524D01*
X119507002Y-109169844D01*
X119507002Y-109079833D01*
X119682740Y-109049577D01*
X119891440Y-108969387D01*
X119943450Y-108941588D01*
X119978561Y-108728166D01*
X119380000Y-108129605D01*
X118781439Y-108728166D01*
X118816550Y-108941588D01*
X119020826Y-109032458D01*
X119238905Y-109081731D01*
X119252998Y-109082095D01*
X119252998Y-109169844D01*
X119023110Y-109048524D01*
X118875901Y-109093175D01*
X118613080Y-109218359D01*
X118379731Y-109392412D01*
X118184822Y-109608645D01*
X118110000Y-109734255D01*
X118035178Y-109608645D01*
X117840269Y-109392412D01*
X117606920Y-109218359D01*
X117344099Y-109093175D01*
X117196890Y-109048524D01*
X116967002Y-109169844D01*
X116967002Y-109079833D01*
X117142740Y-109049577D01*
X117351440Y-108969387D01*
X117403450Y-108941588D01*
X117438561Y-108728166D01*
X116840000Y-108129605D01*
X116241439Y-108728166D01*
X116276550Y-108941588D01*
X116480826Y-109032458D01*
X116698905Y-109081731D01*
X116712998Y-109082095D01*
X116712998Y-109169844D01*
X116483110Y-109048524D01*
X116335901Y-109093175D01*
X116073080Y-109218359D01*
X115839731Y-109392412D01*
X115644822Y-109608645D01*
X115570000Y-109734255D01*
X115495178Y-109608645D01*
X115300269Y-109392412D01*
X115066920Y-109218359D01*
X114804099Y-109093175D01*
X114656890Y-109048524D01*
X114427002Y-109169844D01*
X114427002Y-109079833D01*
X114602740Y-109049577D01*
X114811440Y-108969387D01*
X114863450Y-108941588D01*
X114898561Y-108728166D01*
X114300000Y-108129605D01*
X113701439Y-108728166D01*
X113736550Y-108941588D01*
X113940826Y-109032458D01*
X114158905Y-109081731D01*
X114172998Y-109082095D01*
X114172998Y-109169844D01*
X113943110Y-109048524D01*
X113795901Y-109093175D01*
X113533080Y-109218359D01*
X113299731Y-109392412D01*
X113104822Y-109608645D01*
X113030000Y-109734255D01*
X112955178Y-109608645D01*
X112760269Y-109392412D01*
X112526920Y-109218359D01*
X112264099Y-109093175D01*
X112116890Y-109048524D01*
X111887002Y-109169844D01*
X111887002Y-109079833D01*
X112062740Y-109049577D01*
X112271440Y-108969387D01*
X112323450Y-108941588D01*
X112358561Y-108728166D01*
X111760000Y-108129605D01*
X111161439Y-108728166D01*
X111196550Y-108941588D01*
X111400826Y-109032458D01*
X111618905Y-109081731D01*
X111632998Y-109082095D01*
X111632998Y-109169844D01*
X111403110Y-109048524D01*
X111255901Y-109093175D01*
X110993080Y-109218359D01*
X110759731Y-109392412D01*
X110564822Y-109608645D01*
X110415843Y-109858748D01*
X110318519Y-110133109D01*
X106102022Y-110133109D01*
X106173141Y-110061991D01*
X106216449Y-110026449D01*
X106358284Y-109853623D01*
X106463676Y-109656447D01*
X106528577Y-109442499D01*
X106545000Y-109275752D01*
X106545000Y-109275743D01*
X106550490Y-109220001D01*
X106545000Y-109164259D01*
X106545000Y-108032406D01*
X110622489Y-108032406D01*
X110660423Y-108252740D01*
X110740613Y-108461440D01*
X110768412Y-108513450D01*
X110981834Y-108548561D01*
X111580395Y-107950000D01*
X111939605Y-107950000D01*
X112538166Y-108548561D01*
X112751588Y-108513450D01*
X112842458Y-108309174D01*
X112891731Y-108091095D01*
X112893248Y-108032406D01*
X113162489Y-108032406D01*
X113200423Y-108252740D01*
X113280613Y-108461440D01*
X113308412Y-108513450D01*
X113521834Y-108548561D01*
X114120395Y-107950000D01*
X114479605Y-107950000D01*
X115078166Y-108548561D01*
X115291588Y-108513450D01*
X115382458Y-108309174D01*
X115431731Y-108091095D01*
X115433248Y-108032406D01*
X115702489Y-108032406D01*
X115740423Y-108252740D01*
X115820613Y-108461440D01*
X115848412Y-108513450D01*
X116061834Y-108548561D01*
X116660395Y-107950000D01*
X117019605Y-107950000D01*
X117618166Y-108548561D01*
X117831588Y-108513450D01*
X117922458Y-108309174D01*
X117971731Y-108091095D01*
X117973248Y-108032406D01*
X118242489Y-108032406D01*
X118280423Y-108252740D01*
X118360613Y-108461440D01*
X118388412Y-108513450D01*
X118601834Y-108548561D01*
X119200395Y-107950000D01*
X119559605Y-107950000D01*
X120158166Y-108548561D01*
X120371588Y-108513450D01*
X120462458Y-108309174D01*
X120511731Y-108091095D01*
X120513248Y-108032406D01*
X120782489Y-108032406D01*
X120820423Y-108252740D01*
X120900613Y-108461440D01*
X120928412Y-108513450D01*
X121141834Y-108548561D01*
X121740395Y-107950000D01*
X122099605Y-107950000D01*
X122698166Y-108548561D01*
X122911588Y-108513450D01*
X123002458Y-108309174D01*
X123051731Y-108091095D01*
X123053248Y-108032406D01*
X123322489Y-108032406D01*
X123360423Y-108252740D01*
X123440613Y-108461440D01*
X123468412Y-108513450D01*
X123681834Y-108548561D01*
X124280395Y-107950000D01*
X124639605Y-107950000D01*
X125238166Y-108548561D01*
X125451588Y-108513450D01*
X125542458Y-108309174D01*
X125591731Y-108091095D01*
X125593248Y-108032406D01*
X125862489Y-108032406D01*
X125900423Y-108252740D01*
X125980613Y-108461440D01*
X126008412Y-108513450D01*
X126221834Y-108548561D01*
X126820395Y-107950000D01*
X127179605Y-107950000D01*
X127778166Y-108548561D01*
X127991588Y-108513450D01*
X128082458Y-108309174D01*
X128131731Y-108091095D01*
X128133248Y-108032406D01*
X128402489Y-108032406D01*
X128440423Y-108252740D01*
X128520613Y-108461440D01*
X128548412Y-108513450D01*
X128761834Y-108548561D01*
X129360395Y-107950000D01*
X129719605Y-107950000D01*
X130318166Y-108548561D01*
X130531588Y-108513450D01*
X130622458Y-108309174D01*
X130671731Y-108091095D01*
X130673248Y-108032406D01*
X130942489Y-108032406D01*
X130980423Y-108252740D01*
X131060613Y-108461440D01*
X131088412Y-108513450D01*
X131301834Y-108548561D01*
X131900395Y-107950000D01*
X132259605Y-107950000D01*
X132858166Y-108548561D01*
X133071588Y-108513450D01*
X133162458Y-108309174D01*
X133211731Y-108091095D01*
X133213248Y-108032406D01*
X133482489Y-108032406D01*
X133520423Y-108252740D01*
X133600613Y-108461440D01*
X133628412Y-108513450D01*
X133841834Y-108548561D01*
X134440395Y-107950000D01*
X134799605Y-107950000D01*
X135398166Y-108548561D01*
X135611588Y-108513450D01*
X135702458Y-108309174D01*
X135751731Y-108091095D01*
X135753248Y-108032406D01*
X136022489Y-108032406D01*
X136060423Y-108252740D01*
X136140613Y-108461440D01*
X136168412Y-108513450D01*
X136381834Y-108548561D01*
X136980395Y-107950000D01*
X137339605Y-107950000D01*
X137938166Y-108548561D01*
X138151588Y-108513450D01*
X138242458Y-108309174D01*
X138291731Y-108091095D01*
X138293248Y-108032406D01*
X138562489Y-108032406D01*
X138600423Y-108252740D01*
X138680613Y-108461440D01*
X138708412Y-108513450D01*
X138921834Y-108548561D01*
X139520395Y-107950000D01*
X139879605Y-107950000D01*
X140478166Y-108548561D01*
X140691588Y-108513450D01*
X140782458Y-108309174D01*
X140831731Y-108091095D01*
X140833248Y-108032406D01*
X141102489Y-108032406D01*
X141140423Y-108252740D01*
X141220613Y-108461440D01*
X141248412Y-108513450D01*
X141461834Y-108548561D01*
X142060395Y-107950000D01*
X142419605Y-107950000D01*
X143018166Y-108548561D01*
X143231588Y-108513450D01*
X143322458Y-108309174D01*
X143371731Y-108091095D01*
X143373248Y-108032406D01*
X143642489Y-108032406D01*
X143680423Y-108252740D01*
X143760613Y-108461440D01*
X143788412Y-108513450D01*
X144001834Y-108548561D01*
X144600395Y-107950000D01*
X144959605Y-107950000D01*
X145558166Y-108548561D01*
X145771588Y-108513450D01*
X145862458Y-108309174D01*
X145911731Y-108091095D01*
X145913248Y-108032406D01*
X146182489Y-108032406D01*
X146220423Y-108252740D01*
X146300613Y-108461440D01*
X146328412Y-108513450D01*
X146541834Y-108548561D01*
X147140395Y-107950000D01*
X147499605Y-107950000D01*
X148098166Y-108548561D01*
X148311588Y-108513450D01*
X148402458Y-108309174D01*
X148451731Y-108091095D01*
X148453248Y-108032406D01*
X148722489Y-108032406D01*
X148760423Y-108252740D01*
X148840613Y-108461440D01*
X148868412Y-108513450D01*
X149081834Y-108548561D01*
X149680395Y-107950000D01*
X150039605Y-107950000D01*
X150638166Y-108548561D01*
X150851588Y-108513450D01*
X150942458Y-108309174D01*
X150991731Y-108091095D01*
X150993248Y-108032406D01*
X151262489Y-108032406D01*
X151300423Y-108252740D01*
X151380613Y-108461440D01*
X151408412Y-108513450D01*
X151621834Y-108548561D01*
X152220395Y-107950000D01*
X152579605Y-107950000D01*
X153178166Y-108548561D01*
X153391588Y-108513450D01*
X153482458Y-108309174D01*
X153531731Y-108091095D01*
X153537511Y-107867594D01*
X153499577Y-107647260D01*
X153419387Y-107438560D01*
X153391588Y-107386550D01*
X153178166Y-107351439D01*
X152579605Y-107950000D01*
X152220395Y-107950000D01*
X151621834Y-107351439D01*
X151408412Y-107386550D01*
X151317542Y-107590826D01*
X151268269Y-107808905D01*
X151262489Y-108032406D01*
X150993248Y-108032406D01*
X150997511Y-107867594D01*
X150959577Y-107647260D01*
X150879387Y-107438560D01*
X150851588Y-107386550D01*
X150638166Y-107351439D01*
X150039605Y-107950000D01*
X149680395Y-107950000D01*
X149081834Y-107351439D01*
X148868412Y-107386550D01*
X148777542Y-107590826D01*
X148728269Y-107808905D01*
X148722489Y-108032406D01*
X148453248Y-108032406D01*
X148457511Y-107867594D01*
X148419577Y-107647260D01*
X148339387Y-107438560D01*
X148311588Y-107386550D01*
X148098166Y-107351439D01*
X147499605Y-107950000D01*
X147140395Y-107950000D01*
X146541834Y-107351439D01*
X146328412Y-107386550D01*
X146237542Y-107590826D01*
X146188269Y-107808905D01*
X146182489Y-108032406D01*
X145913248Y-108032406D01*
X145917511Y-107867594D01*
X145879577Y-107647260D01*
X145799387Y-107438560D01*
X145771588Y-107386550D01*
X145558166Y-107351439D01*
X144959605Y-107950000D01*
X144600395Y-107950000D01*
X144001834Y-107351439D01*
X143788412Y-107386550D01*
X143697542Y-107590826D01*
X143648269Y-107808905D01*
X143642489Y-108032406D01*
X143373248Y-108032406D01*
X143377511Y-107867594D01*
X143339577Y-107647260D01*
X143259387Y-107438560D01*
X143231588Y-107386550D01*
X143018166Y-107351439D01*
X142419605Y-107950000D01*
X142060395Y-107950000D01*
X141461834Y-107351439D01*
X141248412Y-107386550D01*
X141157542Y-107590826D01*
X141108269Y-107808905D01*
X141102489Y-108032406D01*
X140833248Y-108032406D01*
X140837511Y-107867594D01*
X140799577Y-107647260D01*
X140719387Y-107438560D01*
X140691588Y-107386550D01*
X140478166Y-107351439D01*
X139879605Y-107950000D01*
X139520395Y-107950000D01*
X138921834Y-107351439D01*
X138708412Y-107386550D01*
X138617542Y-107590826D01*
X138568269Y-107808905D01*
X138562489Y-108032406D01*
X138293248Y-108032406D01*
X138297511Y-107867594D01*
X138259577Y-107647260D01*
X138179387Y-107438560D01*
X138151588Y-107386550D01*
X137938166Y-107351439D01*
X137339605Y-107950000D01*
X136980395Y-107950000D01*
X136381834Y-107351439D01*
X136168412Y-107386550D01*
X136077542Y-107590826D01*
X136028269Y-107808905D01*
X136022489Y-108032406D01*
X135753248Y-108032406D01*
X135757511Y-107867594D01*
X135719577Y-107647260D01*
X135639387Y-107438560D01*
X135611588Y-107386550D01*
X135398166Y-107351439D01*
X134799605Y-107950000D01*
X134440395Y-107950000D01*
X133841834Y-107351439D01*
X133628412Y-107386550D01*
X133537542Y-107590826D01*
X133488269Y-107808905D01*
X133482489Y-108032406D01*
X133213248Y-108032406D01*
X133217511Y-107867594D01*
X133179577Y-107647260D01*
X133099387Y-107438560D01*
X133071588Y-107386550D01*
X132858166Y-107351439D01*
X132259605Y-107950000D01*
X131900395Y-107950000D01*
X131301834Y-107351439D01*
X131088412Y-107386550D01*
X130997542Y-107590826D01*
X130948269Y-107808905D01*
X130942489Y-108032406D01*
X130673248Y-108032406D01*
X130677511Y-107867594D01*
X130639577Y-107647260D01*
X130559387Y-107438560D01*
X130531588Y-107386550D01*
X130318166Y-107351439D01*
X129719605Y-107950000D01*
X129360395Y-107950000D01*
X128761834Y-107351439D01*
X128548412Y-107386550D01*
X128457542Y-107590826D01*
X128408269Y-107808905D01*
X128402489Y-108032406D01*
X128133248Y-108032406D01*
X128137511Y-107867594D01*
X128099577Y-107647260D01*
X128019387Y-107438560D01*
X127991588Y-107386550D01*
X127778166Y-107351439D01*
X127179605Y-107950000D01*
X126820395Y-107950000D01*
X126221834Y-107351439D01*
X126008412Y-107386550D01*
X125917542Y-107590826D01*
X125868269Y-107808905D01*
X125862489Y-108032406D01*
X125593248Y-108032406D01*
X125597511Y-107867594D01*
X125559577Y-107647260D01*
X125479387Y-107438560D01*
X125451588Y-107386550D01*
X125238166Y-107351439D01*
X124639605Y-107950000D01*
X124280395Y-107950000D01*
X123681834Y-107351439D01*
X123468412Y-107386550D01*
X123377542Y-107590826D01*
X123328269Y-107808905D01*
X123322489Y-108032406D01*
X123053248Y-108032406D01*
X123057511Y-107867594D01*
X123019577Y-107647260D01*
X122939387Y-107438560D01*
X122911588Y-107386550D01*
X122698166Y-107351439D01*
X122099605Y-107950000D01*
X121740395Y-107950000D01*
X121141834Y-107351439D01*
X120928412Y-107386550D01*
X120837542Y-107590826D01*
X120788269Y-107808905D01*
X120782489Y-108032406D01*
X120513248Y-108032406D01*
X120517511Y-107867594D01*
X120479577Y-107647260D01*
X120399387Y-107438560D01*
X120371588Y-107386550D01*
X120158166Y-107351439D01*
X119559605Y-107950000D01*
X119200395Y-107950000D01*
X118601834Y-107351439D01*
X118388412Y-107386550D01*
X118297542Y-107590826D01*
X118248269Y-107808905D01*
X118242489Y-108032406D01*
X117973248Y-108032406D01*
X117977511Y-107867594D01*
X117939577Y-107647260D01*
X117859387Y-107438560D01*
X117831588Y-107386550D01*
X117618166Y-107351439D01*
X117019605Y-107950000D01*
X116660395Y-107950000D01*
X116061834Y-107351439D01*
X115848412Y-107386550D01*
X115757542Y-107590826D01*
X115708269Y-107808905D01*
X115702489Y-108032406D01*
X115433248Y-108032406D01*
X115437511Y-107867594D01*
X115399577Y-107647260D01*
X115319387Y-107438560D01*
X115291588Y-107386550D01*
X115078166Y-107351439D01*
X114479605Y-107950000D01*
X114120395Y-107950000D01*
X113521834Y-107351439D01*
X113308412Y-107386550D01*
X113217542Y-107590826D01*
X113168269Y-107808905D01*
X113162489Y-108032406D01*
X112893248Y-108032406D01*
X112897511Y-107867594D01*
X112859577Y-107647260D01*
X112779387Y-107438560D01*
X112751588Y-107386550D01*
X112538166Y-107351439D01*
X111939605Y-107950000D01*
X111580395Y-107950000D01*
X110981834Y-107351439D01*
X110768412Y-107386550D01*
X110677542Y-107590826D01*
X110628269Y-107808905D01*
X110622489Y-108032406D01*
X106545000Y-108032406D01*
X106545000Y-107171834D01*
X111161439Y-107171834D01*
X111760000Y-107770395D01*
X112358561Y-107171834D01*
X113701439Y-107171834D01*
X114300000Y-107770395D01*
X114898561Y-107171834D01*
X116241439Y-107171834D01*
X116840000Y-107770395D01*
X117438561Y-107171834D01*
X118781439Y-107171834D01*
X119380000Y-107770395D01*
X119978561Y-107171834D01*
X121321439Y-107171834D01*
X121920000Y-107770395D01*
X122518561Y-107171834D01*
X123861439Y-107171834D01*
X124460000Y-107770395D01*
X125058561Y-107171834D01*
X126401439Y-107171834D01*
X127000000Y-107770395D01*
X127598561Y-107171834D01*
X128941439Y-107171834D01*
X129540000Y-107770395D01*
X130138561Y-107171834D01*
X131481439Y-107171834D01*
X132080000Y-107770395D01*
X132678561Y-107171834D01*
X134021439Y-107171834D01*
X134620000Y-107770395D01*
X135218561Y-107171834D01*
X136561439Y-107171834D01*
X137160000Y-107770395D01*
X137758561Y-107171834D01*
X139101439Y-107171834D01*
X139700000Y-107770395D01*
X140298561Y-107171834D01*
X141641439Y-107171834D01*
X142240000Y-107770395D01*
X142838561Y-107171834D01*
X144181439Y-107171834D01*
X144780000Y-107770395D01*
X145378561Y-107171834D01*
X146721439Y-107171834D01*
X147320000Y-107770395D01*
X147918561Y-107171834D01*
X149261439Y-107171834D01*
X149860000Y-107770395D01*
X150458561Y-107171834D01*
X151801439Y-107171834D01*
X152400000Y-107770395D01*
X152998561Y-107171834D01*
X152963450Y-106958412D01*
X152759174Y-106867542D01*
X152541095Y-106818269D01*
X152317594Y-106812489D01*
X152097260Y-106850423D01*
X151888560Y-106930613D01*
X151836550Y-106958412D01*
X151801439Y-107171834D01*
X150458561Y-107171834D01*
X150423450Y-106958412D01*
X150219174Y-106867542D01*
X150001095Y-106818269D01*
X149777594Y-106812489D01*
X149557260Y-106850423D01*
X149348560Y-106930613D01*
X149296550Y-106958412D01*
X149261439Y-107171834D01*
X147918561Y-107171834D01*
X147883450Y-106958412D01*
X147679174Y-106867542D01*
X147461095Y-106818269D01*
X147237594Y-106812489D01*
X147017260Y-106850423D01*
X146808560Y-106930613D01*
X146756550Y-106958412D01*
X146721439Y-107171834D01*
X145378561Y-107171834D01*
X145343450Y-106958412D01*
X145139174Y-106867542D01*
X144921095Y-106818269D01*
X144697594Y-106812489D01*
X144477260Y-106850423D01*
X144268560Y-106930613D01*
X144216550Y-106958412D01*
X144181439Y-107171834D01*
X142838561Y-107171834D01*
X142803450Y-106958412D01*
X142599174Y-106867542D01*
X142381095Y-106818269D01*
X142157594Y-106812489D01*
X141937260Y-106850423D01*
X141728560Y-106930613D01*
X141676550Y-106958412D01*
X141641439Y-107171834D01*
X140298561Y-107171834D01*
X140263450Y-106958412D01*
X140059174Y-106867542D01*
X139841095Y-106818269D01*
X139617594Y-106812489D01*
X139397260Y-106850423D01*
X139188560Y-106930613D01*
X139136550Y-106958412D01*
X139101439Y-107171834D01*
X137758561Y-107171834D01*
X137723450Y-106958412D01*
X137519174Y-106867542D01*
X137301095Y-106818269D01*
X137077594Y-106812489D01*
X136857260Y-106850423D01*
X136648560Y-106930613D01*
X136596550Y-106958412D01*
X136561439Y-107171834D01*
X135218561Y-107171834D01*
X135183450Y-106958412D01*
X134979174Y-106867542D01*
X134761095Y-106818269D01*
X134537594Y-106812489D01*
X134317260Y-106850423D01*
X134108560Y-106930613D01*
X134056550Y-106958412D01*
X134021439Y-107171834D01*
X132678561Y-107171834D01*
X132643450Y-106958412D01*
X132439174Y-106867542D01*
X132221095Y-106818269D01*
X131997594Y-106812489D01*
X131777260Y-106850423D01*
X131568560Y-106930613D01*
X131516550Y-106958412D01*
X131481439Y-107171834D01*
X130138561Y-107171834D01*
X130103450Y-106958412D01*
X129899174Y-106867542D01*
X129681095Y-106818269D01*
X129457594Y-106812489D01*
X129237260Y-106850423D01*
X129028560Y-106930613D01*
X128976550Y-106958412D01*
X128941439Y-107171834D01*
X127598561Y-107171834D01*
X127563450Y-106958412D01*
X127359174Y-106867542D01*
X127141095Y-106818269D01*
X126917594Y-106812489D01*
X126697260Y-106850423D01*
X126488560Y-106930613D01*
X126436550Y-106958412D01*
X126401439Y-107171834D01*
X125058561Y-107171834D01*
X125023450Y-106958412D01*
X124819174Y-106867542D01*
X124601095Y-106818269D01*
X124377594Y-106812489D01*
X124157260Y-106850423D01*
X123948560Y-106930613D01*
X123896550Y-106958412D01*
X123861439Y-107171834D01*
X122518561Y-107171834D01*
X122483450Y-106958412D01*
X122279174Y-106867542D01*
X122061095Y-106818269D01*
X121837594Y-106812489D01*
X121617260Y-106850423D01*
X121408560Y-106930613D01*
X121356550Y-106958412D01*
X121321439Y-107171834D01*
X119978561Y-107171834D01*
X119943450Y-106958412D01*
X119739174Y-106867542D01*
X119521095Y-106818269D01*
X119297594Y-106812489D01*
X119077260Y-106850423D01*
X118868560Y-106930613D01*
X118816550Y-106958412D01*
X118781439Y-107171834D01*
X117438561Y-107171834D01*
X117403450Y-106958412D01*
X117199174Y-106867542D01*
X116981095Y-106818269D01*
X116757594Y-106812489D01*
X116537260Y-106850423D01*
X116328560Y-106930613D01*
X116276550Y-106958412D01*
X116241439Y-107171834D01*
X114898561Y-107171834D01*
X114863450Y-106958412D01*
X114659174Y-106867542D01*
X114441095Y-106818269D01*
X114217594Y-106812489D01*
X113997260Y-106850423D01*
X113788560Y-106930613D01*
X113736550Y-106958412D01*
X113701439Y-107171834D01*
X112358561Y-107171834D01*
X112323450Y-106958412D01*
X112119174Y-106867542D01*
X111901095Y-106818269D01*
X111677594Y-106812489D01*
X111457260Y-106850423D01*
X111248560Y-106930613D01*
X111196550Y-106958412D01*
X111161439Y-107171834D01*
X106545000Y-107171834D01*
X106545000Y-103415508D01*
X112158136Y-98925000D01*
X116784249Y-98925000D01*
X116840000Y-98930491D01*
X116895752Y-98925000D01*
X119324249Y-98925000D01*
X119380000Y-98930491D01*
X119435752Y-98925000D01*
X121864249Y-98925000D01*
X121920000Y-98930491D01*
X121975752Y-98925000D01*
X124404249Y-98925000D01*
X124460000Y-98930491D01*
X124515752Y-98925000D01*
X124571788Y-98925000D01*
X124626747Y-98914068D01*
X124682499Y-98908577D01*
X124736106Y-98892315D01*
X124791067Y-98881383D01*
X124842842Y-98859937D01*
X124896447Y-98843676D01*
X124945851Y-98817269D01*
X124997624Y-98795824D01*
X125044214Y-98764693D01*
X125093623Y-98738284D01*
X125136932Y-98702741D01*
X125183520Y-98671612D01*
X125223141Y-98631991D01*
X125266449Y-98596449D01*
X125301991Y-98553141D01*
X125341612Y-98513520D01*
X125372741Y-98466932D01*
X125408284Y-98423623D01*
X125434693Y-98374214D01*
X125465824Y-98327624D01*
X125487269Y-98275851D01*
X125513676Y-98226447D01*
X125529937Y-98172842D01*
X125551383Y-98121067D01*
X125562315Y-98066106D01*
X125578577Y-98012499D01*
X125584068Y-97956747D01*
X125595000Y-97901788D01*
X125595000Y-97845752D01*
X125600491Y-97790000D01*
X125595000Y-97734248D01*
X125595000Y-96207817D01*
X125700706Y-96079014D01*
X125730000Y-96024209D01*
X125759294Y-96079014D01*
X125944866Y-96305134D01*
X126170986Y-96490706D01*
X126240001Y-96527595D01*
X126240001Y-96944867D01*
X126118388Y-97066480D01*
X125994176Y-97252376D01*
X125908617Y-97458933D01*
X125865000Y-97678212D01*
X125865000Y-97901788D01*
X125908617Y-98121067D01*
X125994176Y-98327624D01*
X126118388Y-98513520D01*
X126276480Y-98671612D01*
X126462376Y-98795824D01*
X126668933Y-98881383D01*
X126888212Y-98925000D01*
X127111788Y-98925000D01*
X127331067Y-98881383D01*
X127537624Y-98795824D01*
X127723520Y-98671612D01*
X127881612Y-98513520D01*
X128005824Y-98327624D01*
X128091383Y-98121067D01*
X128135000Y-97901788D01*
X128135000Y-97678212D01*
X128091383Y-97458933D01*
X128005824Y-97252376D01*
X127881612Y-97066480D01*
X127760000Y-96944868D01*
X127760000Y-96527595D01*
X127829014Y-96490706D01*
X128055134Y-96305134D01*
X128240706Y-96079014D01*
X128270000Y-96024209D01*
X128299294Y-96079014D01*
X128484866Y-96305134D01*
X128710986Y-96490706D01*
X128780001Y-96527595D01*
X128780001Y-96944867D01*
X128658388Y-97066480D01*
X128534176Y-97252376D01*
X128448617Y-97458933D01*
X128405000Y-97678212D01*
X128405000Y-97901788D01*
X128448617Y-98121067D01*
X128534176Y-98327624D01*
X128658388Y-98513520D01*
X128816480Y-98671612D01*
X129002376Y-98795824D01*
X129208933Y-98881383D01*
X129428212Y-98925000D01*
X129651788Y-98925000D01*
X129871067Y-98881383D01*
X130077624Y-98795824D01*
X130263520Y-98671612D01*
X130366966Y-98568166D01*
X131481439Y-98568166D01*
X131516550Y-98781588D01*
X131720826Y-98872458D01*
X131938905Y-98921731D01*
X132162406Y-98927511D01*
X132382740Y-98889577D01*
X132591440Y-98809387D01*
X132643450Y-98781588D01*
X132678561Y-98568166D01*
X134021439Y-98568166D01*
X134056550Y-98781588D01*
X134260826Y-98872458D01*
X134478905Y-98921731D01*
X134702406Y-98927511D01*
X134922740Y-98889577D01*
X135131440Y-98809387D01*
X135183450Y-98781588D01*
X135218561Y-98568166D01*
X136561439Y-98568166D01*
X136596550Y-98781588D01*
X136800826Y-98872458D01*
X137018905Y-98921731D01*
X137242406Y-98927511D01*
X137462740Y-98889577D01*
X137671440Y-98809387D01*
X137723450Y-98781588D01*
X137758561Y-98568166D01*
X139101439Y-98568166D01*
X139136550Y-98781588D01*
X139340826Y-98872458D01*
X139558905Y-98921731D01*
X139782406Y-98927511D01*
X140002740Y-98889577D01*
X140211440Y-98809387D01*
X140263450Y-98781588D01*
X140298561Y-98568166D01*
X141641439Y-98568166D01*
X141676550Y-98781588D01*
X141880826Y-98872458D01*
X142098905Y-98921731D01*
X142322406Y-98927511D01*
X142542740Y-98889577D01*
X142751440Y-98809387D01*
X142803450Y-98781588D01*
X142838561Y-98568166D01*
X144181439Y-98568166D01*
X144216550Y-98781588D01*
X144420826Y-98872458D01*
X144638905Y-98921731D01*
X144862406Y-98927511D01*
X145082740Y-98889577D01*
X145291440Y-98809387D01*
X145343450Y-98781588D01*
X145378561Y-98568166D01*
X146721439Y-98568166D01*
X146756550Y-98781588D01*
X146960826Y-98872458D01*
X147178905Y-98921731D01*
X147402406Y-98927511D01*
X147622740Y-98889577D01*
X147831440Y-98809387D01*
X147883450Y-98781588D01*
X147918561Y-98568166D01*
X147320000Y-97969605D01*
X146721439Y-98568166D01*
X145378561Y-98568166D01*
X144780000Y-97969605D01*
X144181439Y-98568166D01*
X142838561Y-98568166D01*
X142240000Y-97969605D01*
X141641439Y-98568166D01*
X140298561Y-98568166D01*
X139700000Y-97969605D01*
X139101439Y-98568166D01*
X137758561Y-98568166D01*
X137160000Y-97969605D01*
X136561439Y-98568166D01*
X135218561Y-98568166D01*
X134620000Y-97969605D01*
X134021439Y-98568166D01*
X132678561Y-98568166D01*
X132080000Y-97969605D01*
X131481439Y-98568166D01*
X130366966Y-98568166D01*
X130421612Y-98513520D01*
X130545824Y-98327624D01*
X130631383Y-98121067D01*
X130675000Y-97901788D01*
X130675000Y-97872406D01*
X130942489Y-97872406D01*
X130980423Y-98092740D01*
X131060613Y-98301440D01*
X131088412Y-98353450D01*
X131301834Y-98388561D01*
X131900395Y-97790000D01*
X132259605Y-97790000D01*
X132858166Y-98388561D01*
X133071588Y-98353450D01*
X133162458Y-98149174D01*
X133211731Y-97931095D01*
X133213248Y-97872406D01*
X133482489Y-97872406D01*
X133520423Y-98092740D01*
X133600613Y-98301440D01*
X133628412Y-98353450D01*
X133841834Y-98388561D01*
X134440395Y-97790000D01*
X134799605Y-97790000D01*
X135398166Y-98388561D01*
X135611588Y-98353450D01*
X135702458Y-98149174D01*
X135751731Y-97931095D01*
X135753248Y-97872406D01*
X136022489Y-97872406D01*
X136060423Y-98092740D01*
X136140613Y-98301440D01*
X136168412Y-98353450D01*
X136381834Y-98388561D01*
X136980395Y-97790000D01*
X137339605Y-97790000D01*
X137938166Y-98388561D01*
X138151588Y-98353450D01*
X138242458Y-98149174D01*
X138291731Y-97931095D01*
X138293248Y-97872406D01*
X138562489Y-97872406D01*
X138600423Y-98092740D01*
X138680613Y-98301440D01*
X138708412Y-98353450D01*
X138921834Y-98388561D01*
X139520395Y-97790000D01*
X139879605Y-97790000D01*
X140478166Y-98388561D01*
X140691588Y-98353450D01*
X140782458Y-98149174D01*
X140831731Y-97931095D01*
X140833248Y-97872406D01*
X141102489Y-97872406D01*
X141140423Y-98092740D01*
X141220613Y-98301440D01*
X141248412Y-98353450D01*
X141461834Y-98388561D01*
X142060395Y-97790000D01*
X142419605Y-97790000D01*
X143018166Y-98388561D01*
X143231588Y-98353450D01*
X143322458Y-98149174D01*
X143371731Y-97931095D01*
X143373248Y-97872406D01*
X143642489Y-97872406D01*
X143680423Y-98092740D01*
X143760613Y-98301440D01*
X143788412Y-98353450D01*
X144001834Y-98388561D01*
X144600395Y-97790000D01*
X144959605Y-97790000D01*
X145558166Y-98388561D01*
X145771588Y-98353450D01*
X145862458Y-98149174D01*
X145911731Y-97931095D01*
X145913248Y-97872406D01*
X146182489Y-97872406D01*
X146220423Y-98092740D01*
X146300613Y-98301440D01*
X146328412Y-98353450D01*
X146541834Y-98388561D01*
X147140395Y-97790000D01*
X147499605Y-97790000D01*
X148098166Y-98388561D01*
X148311588Y-98353450D01*
X148402458Y-98149174D01*
X148451731Y-97931095D01*
X148457511Y-97707594D01*
X148419577Y-97487260D01*
X148339387Y-97278560D01*
X148311588Y-97226550D01*
X148098166Y-97191439D01*
X147499605Y-97790000D01*
X147140395Y-97790000D01*
X146541834Y-97191439D01*
X146328412Y-97226550D01*
X146237542Y-97430826D01*
X146188269Y-97648905D01*
X146182489Y-97872406D01*
X145913248Y-97872406D01*
X145917511Y-97707594D01*
X145879577Y-97487260D01*
X145799387Y-97278560D01*
X145771588Y-97226550D01*
X145558166Y-97191439D01*
X144959605Y-97790000D01*
X144600395Y-97790000D01*
X144001834Y-97191439D01*
X143788412Y-97226550D01*
X143697542Y-97430826D01*
X143648269Y-97648905D01*
X143642489Y-97872406D01*
X143373248Y-97872406D01*
X143377511Y-97707594D01*
X143339577Y-97487260D01*
X143259387Y-97278560D01*
X143231588Y-97226550D01*
X143018166Y-97191439D01*
X142419605Y-97790000D01*
X142060395Y-97790000D01*
X141461834Y-97191439D01*
X141248412Y-97226550D01*
X141157542Y-97430826D01*
X141108269Y-97648905D01*
X141102489Y-97872406D01*
X140833248Y-97872406D01*
X140837511Y-97707594D01*
X140799577Y-97487260D01*
X140719387Y-97278560D01*
X140691588Y-97226550D01*
X140478166Y-97191439D01*
X139879605Y-97790000D01*
X139520395Y-97790000D01*
X138921834Y-97191439D01*
X138708412Y-97226550D01*
X138617542Y-97430826D01*
X138568269Y-97648905D01*
X138562489Y-97872406D01*
X138293248Y-97872406D01*
X138297511Y-97707594D01*
X138259577Y-97487260D01*
X138179387Y-97278560D01*
X138151588Y-97226550D01*
X137938166Y-97191439D01*
X137339605Y-97790000D01*
X136980395Y-97790000D01*
X136381834Y-97191439D01*
X136168412Y-97226550D01*
X136077542Y-97430826D01*
X136028269Y-97648905D01*
X136022489Y-97872406D01*
X135753248Y-97872406D01*
X135757511Y-97707594D01*
X135719577Y-97487260D01*
X135639387Y-97278560D01*
X135611588Y-97226550D01*
X135398166Y-97191439D01*
X134799605Y-97790000D01*
X134440395Y-97790000D01*
X133841834Y-97191439D01*
X133628412Y-97226550D01*
X133537542Y-97430826D01*
X133488269Y-97648905D01*
X133482489Y-97872406D01*
X133213248Y-97872406D01*
X133217511Y-97707594D01*
X133179577Y-97487260D01*
X133099387Y-97278560D01*
X133071588Y-97226550D01*
X132858166Y-97191439D01*
X132259605Y-97790000D01*
X131900395Y-97790000D01*
X131301834Y-97191439D01*
X131088412Y-97226550D01*
X130997542Y-97430826D01*
X130948269Y-97648905D01*
X130942489Y-97872406D01*
X130675000Y-97872406D01*
X130675000Y-97678212D01*
X130631383Y-97458933D01*
X130545824Y-97252376D01*
X130421612Y-97066480D01*
X130300000Y-96944868D01*
X130300000Y-96527595D01*
X130369014Y-96490706D01*
X130595134Y-96305134D01*
X130780706Y-96079014D01*
X130815201Y-96014477D01*
X130884822Y-96131355D01*
X131079731Y-96347588D01*
X131313080Y-96521641D01*
X131575901Y-96646825D01*
X131723110Y-96691476D01*
X131952998Y-96570156D01*
X131952998Y-96660167D01*
X131777260Y-96690423D01*
X131568560Y-96770613D01*
X131516550Y-96798412D01*
X131481439Y-97011834D01*
X132080000Y-97610395D01*
X132678561Y-97011834D01*
X132643450Y-96798412D01*
X132439174Y-96707542D01*
X132221095Y-96658269D01*
X132207002Y-96657905D01*
X132207002Y-96570156D01*
X132436890Y-96691476D01*
X132584099Y-96646825D01*
X132846920Y-96521641D01*
X133080269Y-96347588D01*
X133275178Y-96131355D01*
X133350000Y-96005745D01*
X133424822Y-96131355D01*
X133619731Y-96347588D01*
X133853080Y-96521641D01*
X134115901Y-96646825D01*
X134263110Y-96691476D01*
X134492998Y-96570156D01*
X134492998Y-96660167D01*
X134317260Y-96690423D01*
X134108560Y-96770613D01*
X134056550Y-96798412D01*
X134021439Y-97011834D01*
X134620000Y-97610395D01*
X135218561Y-97011834D01*
X135183450Y-96798412D01*
X134979174Y-96707542D01*
X134761095Y-96658269D01*
X134747002Y-96657905D01*
X134747002Y-96570156D01*
X134976890Y-96691476D01*
X135124099Y-96646825D01*
X135386920Y-96521641D01*
X135620269Y-96347588D01*
X135815178Y-96131355D01*
X135890000Y-96005745D01*
X135964822Y-96131355D01*
X136159731Y-96347588D01*
X136393080Y-96521641D01*
X136655901Y-96646825D01*
X136803110Y-96691476D01*
X137032998Y-96570156D01*
X137032998Y-96660167D01*
X136857260Y-96690423D01*
X136648560Y-96770613D01*
X136596550Y-96798412D01*
X136561439Y-97011834D01*
X137160000Y-97610395D01*
X137758561Y-97011834D01*
X137723450Y-96798412D01*
X137519174Y-96707542D01*
X137301095Y-96658269D01*
X137287002Y-96657905D01*
X137287002Y-96570156D01*
X137516890Y-96691476D01*
X137664099Y-96646825D01*
X137926920Y-96521641D01*
X138160269Y-96347588D01*
X138355178Y-96131355D01*
X138430000Y-96005745D01*
X138504822Y-96131355D01*
X138699731Y-96347588D01*
X138933080Y-96521641D01*
X139195901Y-96646825D01*
X139343110Y-96691476D01*
X139572998Y-96570156D01*
X139572998Y-96660167D01*
X139397260Y-96690423D01*
X139188560Y-96770613D01*
X139136550Y-96798412D01*
X139101439Y-97011834D01*
X139700000Y-97610395D01*
X140298561Y-97011834D01*
X140263450Y-96798412D01*
X140059174Y-96707542D01*
X139841095Y-96658269D01*
X139827002Y-96657905D01*
X139827002Y-96570156D01*
X140056890Y-96691476D01*
X140204099Y-96646825D01*
X140466920Y-96521641D01*
X140700269Y-96347588D01*
X140895178Y-96131355D01*
X140970000Y-96005745D01*
X141044822Y-96131355D01*
X141239731Y-96347588D01*
X141473080Y-96521641D01*
X141735901Y-96646825D01*
X141883110Y-96691476D01*
X142112998Y-96570156D01*
X142112998Y-96660167D01*
X141937260Y-96690423D01*
X141728560Y-96770613D01*
X141676550Y-96798412D01*
X141641439Y-97011834D01*
X142240000Y-97610395D01*
X142838561Y-97011834D01*
X142803450Y-96798412D01*
X142599174Y-96707542D01*
X142381095Y-96658269D01*
X142367002Y-96657905D01*
X142367002Y-96570156D01*
X142596890Y-96691476D01*
X142744099Y-96646825D01*
X143006920Y-96521641D01*
X143240269Y-96347588D01*
X143435178Y-96131355D01*
X143510000Y-96005745D01*
X143584822Y-96131355D01*
X143779731Y-96347588D01*
X144013080Y-96521641D01*
X144275901Y-96646825D01*
X144423110Y-96691476D01*
X144652998Y-96570156D01*
X144652998Y-96660167D01*
X144477260Y-96690423D01*
X144268560Y-96770613D01*
X144216550Y-96798412D01*
X144181439Y-97011834D01*
X144780000Y-97610395D01*
X145378561Y-97011834D01*
X145343450Y-96798412D01*
X145139174Y-96707542D01*
X144921095Y-96658269D01*
X144907002Y-96657905D01*
X144907002Y-96570156D01*
X145136890Y-96691476D01*
X145284099Y-96646825D01*
X145546920Y-96521641D01*
X145780269Y-96347588D01*
X145975178Y-96131355D01*
X146050000Y-96005745D01*
X146124822Y-96131355D01*
X146319731Y-96347588D01*
X146553080Y-96521641D01*
X146815901Y-96646825D01*
X146963110Y-96691476D01*
X147192998Y-96570156D01*
X147192998Y-96660167D01*
X147017260Y-96690423D01*
X146808560Y-96770613D01*
X146756550Y-96798412D01*
X146721439Y-97011834D01*
X147320000Y-97610395D01*
X147918561Y-97011834D01*
X147883450Y-96798412D01*
X147679174Y-96707542D01*
X147461095Y-96658269D01*
X147447002Y-96657905D01*
X147447002Y-96570156D01*
X147676890Y-96691476D01*
X147824099Y-96646825D01*
X148086920Y-96521641D01*
X148320269Y-96347588D01*
X148515178Y-96131355D01*
X148664157Y-95881252D01*
X148761481Y-95606891D01*
X148640814Y-95377000D01*
X147447000Y-95377000D01*
X147447000Y-95397000D01*
X147193000Y-95397000D01*
X147193000Y-95377000D01*
X144907000Y-95377000D01*
X144907000Y-95397000D01*
X144653000Y-95397000D01*
X144653000Y-95377000D01*
X142367000Y-95377000D01*
X142367000Y-95397000D01*
X142113000Y-95397000D01*
X142113000Y-95377000D01*
X139827000Y-95377000D01*
X139827000Y-95397000D01*
X139573000Y-95397000D01*
X139573000Y-95377000D01*
X137287000Y-95377000D01*
X137287000Y-95397000D01*
X137033000Y-95397000D01*
X137033000Y-95377000D01*
X134747000Y-95377000D01*
X134747000Y-95397000D01*
X134493000Y-95397000D01*
X134493000Y-95377000D01*
X132207000Y-95377000D01*
X132207000Y-95397000D01*
X131953000Y-95397000D01*
X131953000Y-95377000D01*
X131933000Y-95377000D01*
X131933000Y-95123000D01*
X131953000Y-95123000D01*
X131953000Y-95103000D01*
X132207000Y-95103000D01*
X132207000Y-95123000D01*
X134493000Y-95123000D01*
X134493000Y-95103000D01*
X134747000Y-95103000D01*
X134747000Y-95123000D01*
X137033000Y-95123000D01*
X137033000Y-95103000D01*
X137287000Y-95103000D01*
X137287000Y-95123000D01*
X139573000Y-95123000D01*
X139573000Y-95103000D01*
X139827000Y-95103000D01*
X139827000Y-95123000D01*
X142113000Y-95123000D01*
X142113000Y-95103000D01*
X142367000Y-95103000D01*
X142367000Y-95123000D01*
X144653000Y-95123000D01*
X144653000Y-95103000D01*
X144907000Y-95103000D01*
X144907000Y-95123000D01*
X147193000Y-95123000D01*
X147193000Y-95103000D01*
X147447000Y-95103000D01*
X147447000Y-95123000D01*
X148640814Y-95123000D01*
X148761481Y-94893109D01*
X148664157Y-94618748D01*
X148515178Y-94368645D01*
X148320269Y-94152412D01*
X148091244Y-93981584D01*
X148149014Y-93950706D01*
X148375134Y-93765134D01*
X148560706Y-93539014D01*
X148698599Y-93281034D01*
X148783513Y-93001111D01*
X148812185Y-92710000D01*
X148783513Y-92418889D01*
X148698599Y-92138966D01*
X148560706Y-91880986D01*
X148375134Y-91654866D01*
X148149014Y-91469294D01*
X148080000Y-91432405D01*
X148080000Y-91015132D01*
X148201612Y-90893520D01*
X148325824Y-90707624D01*
X148411383Y-90501067D01*
X148455000Y-90281788D01*
X148455000Y-90058212D01*
X148411383Y-89838933D01*
X148325824Y-89632376D01*
X148201612Y-89446480D01*
X148043520Y-89288388D01*
X147857624Y-89164176D01*
X147651067Y-89078617D01*
X147431788Y-89035000D01*
X147208212Y-89035000D01*
X146988933Y-89078617D01*
X146782376Y-89164176D01*
X146596480Y-89288388D01*
X146438388Y-89446480D01*
X146314176Y-89632376D01*
X146228617Y-89838933D01*
X146185000Y-90058212D01*
X146185000Y-90281788D01*
X146228617Y-90501067D01*
X146314176Y-90707624D01*
X146438388Y-90893520D01*
X146560001Y-91015133D01*
X146560001Y-91432405D01*
X146490986Y-91469294D01*
X146264866Y-91654866D01*
X146079294Y-91880986D01*
X146050000Y-91935791D01*
X146020706Y-91880986D01*
X145835134Y-91654866D01*
X145609014Y-91469294D01*
X145540000Y-91432405D01*
X145540000Y-91015132D01*
X145661612Y-90893520D01*
X145785824Y-90707624D01*
X145871383Y-90501067D01*
X145915000Y-90281788D01*
X145915000Y-90058212D01*
X145871383Y-89838933D01*
X145785824Y-89632376D01*
X145661612Y-89446480D01*
X145503520Y-89288388D01*
X145317624Y-89164176D01*
X145111067Y-89078617D01*
X144891788Y-89035000D01*
X144668212Y-89035000D01*
X144448933Y-89078617D01*
X144242376Y-89164176D01*
X144056480Y-89288388D01*
X143898388Y-89446480D01*
X143774176Y-89632376D01*
X143688617Y-89838933D01*
X143645000Y-90058212D01*
X143645000Y-90281788D01*
X143688617Y-90501067D01*
X143774176Y-90707624D01*
X143898388Y-90893520D01*
X144020001Y-91015133D01*
X144020001Y-91432405D01*
X143950986Y-91469294D01*
X143724866Y-91654866D01*
X143539294Y-91880986D01*
X143510000Y-91935791D01*
X143480706Y-91880986D01*
X143295134Y-91654866D01*
X143069014Y-91469294D01*
X143000000Y-91432405D01*
X143000000Y-91015132D01*
X143121612Y-90893520D01*
X143245824Y-90707624D01*
X143331383Y-90501067D01*
X143375000Y-90281788D01*
X143375000Y-90058212D01*
X143331383Y-89838933D01*
X143245824Y-89632376D01*
X143121612Y-89446480D01*
X142963520Y-89288388D01*
X142777624Y-89164176D01*
X142571067Y-89078617D01*
X142351788Y-89035000D01*
X142128212Y-89035000D01*
X141908933Y-89078617D01*
X141702376Y-89164176D01*
X141516480Y-89288388D01*
X141358388Y-89446480D01*
X141234176Y-89632376D01*
X141148617Y-89838933D01*
X141105000Y-90058212D01*
X141105000Y-90281788D01*
X141148617Y-90501067D01*
X141234176Y-90707624D01*
X141358388Y-90893520D01*
X141480001Y-91015133D01*
X141480001Y-91432405D01*
X141410986Y-91469294D01*
X141184866Y-91654866D01*
X140999294Y-91880986D01*
X140970000Y-91935791D01*
X140940706Y-91880986D01*
X140755134Y-91654866D01*
X140529014Y-91469294D01*
X140460000Y-91432405D01*
X140460000Y-91015132D01*
X140581612Y-90893520D01*
X140705824Y-90707624D01*
X140791383Y-90501067D01*
X140835000Y-90281788D01*
X140835000Y-90058212D01*
X140791383Y-89838933D01*
X140705824Y-89632376D01*
X140581612Y-89446480D01*
X140423520Y-89288388D01*
X140237624Y-89164176D01*
X140031067Y-89078617D01*
X139811788Y-89035000D01*
X139588212Y-89035000D01*
X139368933Y-89078617D01*
X139162376Y-89164176D01*
X138976480Y-89288388D01*
X138818388Y-89446480D01*
X138694176Y-89632376D01*
X138608617Y-89838933D01*
X138565000Y-90058212D01*
X138565000Y-90281788D01*
X138608617Y-90501067D01*
X138694176Y-90707624D01*
X138818388Y-90893520D01*
X138940001Y-91015133D01*
X138940001Y-91432405D01*
X138870986Y-91469294D01*
X138644866Y-91654866D01*
X138459294Y-91880986D01*
X138430000Y-91935791D01*
X138400706Y-91880986D01*
X138215134Y-91654866D01*
X137989014Y-91469294D01*
X137920000Y-91432405D01*
X137920000Y-91015132D01*
X138041612Y-90893520D01*
X138165824Y-90707624D01*
X138251383Y-90501067D01*
X138295000Y-90281788D01*
X138295000Y-90058212D01*
X138251383Y-89838933D01*
X138165824Y-89632376D01*
X138041612Y-89446480D01*
X137883520Y-89288388D01*
X137697624Y-89164176D01*
X137491067Y-89078617D01*
X137271788Y-89035000D01*
X137048212Y-89035000D01*
X136828933Y-89078617D01*
X136622376Y-89164176D01*
X136436480Y-89288388D01*
X136278388Y-89446480D01*
X136154176Y-89632376D01*
X136068617Y-89838933D01*
X136025000Y-90058212D01*
X136025000Y-90281788D01*
X136068617Y-90501067D01*
X136154176Y-90707624D01*
X136278388Y-90893520D01*
X136400001Y-91015133D01*
X136400001Y-91432405D01*
X136330986Y-91469294D01*
X136104866Y-91654866D01*
X135919294Y-91880986D01*
X135890000Y-91935791D01*
X135860706Y-91880986D01*
X135675134Y-91654866D01*
X135449014Y-91469294D01*
X135380000Y-91432405D01*
X135380000Y-91015132D01*
X135501612Y-90893520D01*
X135625824Y-90707624D01*
X135711383Y-90501067D01*
X135755000Y-90281788D01*
X135755000Y-90058212D01*
X135711383Y-89838933D01*
X135625824Y-89632376D01*
X135501612Y-89446480D01*
X135343520Y-89288388D01*
X135157624Y-89164176D01*
X134951067Y-89078617D01*
X134731788Y-89035000D01*
X134508212Y-89035000D01*
X134288933Y-89078617D01*
X134082376Y-89164176D01*
X133896480Y-89288388D01*
X133738388Y-89446480D01*
X133614176Y-89632376D01*
X133528617Y-89838933D01*
X133485000Y-90058212D01*
X133485000Y-90281788D01*
X133528617Y-90501067D01*
X133614176Y-90707624D01*
X133738388Y-90893520D01*
X133860001Y-91015133D01*
X133860001Y-91432405D01*
X133790986Y-91469294D01*
X133564866Y-91654866D01*
X133379294Y-91880986D01*
X133350000Y-91935791D01*
X133320706Y-91880986D01*
X133135134Y-91654866D01*
X132909014Y-91469294D01*
X132840000Y-91432405D01*
X132840000Y-91015132D01*
X132961612Y-90893520D01*
X133085824Y-90707624D01*
X133171383Y-90501067D01*
X133215000Y-90281788D01*
X133215000Y-90058212D01*
X133171383Y-89838933D01*
X133085824Y-89632376D01*
X132961612Y-89446480D01*
X132803520Y-89288388D01*
X132617624Y-89164176D01*
X132411067Y-89078617D01*
X132191788Y-89035000D01*
X131968212Y-89035000D01*
X131748933Y-89078617D01*
X131542376Y-89164176D01*
X131356480Y-89288388D01*
X131198388Y-89446480D01*
X131074176Y-89632376D01*
X130988617Y-89838933D01*
X130945000Y-90058212D01*
X130945000Y-90281788D01*
X130988617Y-90501067D01*
X131074176Y-90707624D01*
X131198388Y-90893520D01*
X131320001Y-91015133D01*
X131320001Y-91432405D01*
X131250986Y-91469294D01*
X131024866Y-91654866D01*
X130839294Y-91880986D01*
X130810000Y-91935791D01*
X130780706Y-91880986D01*
X130595134Y-91654866D01*
X130369014Y-91469294D01*
X130300000Y-91432405D01*
X130300000Y-91015132D01*
X130421612Y-90893520D01*
X130545824Y-90707624D01*
X130631383Y-90501067D01*
X130675000Y-90281788D01*
X130675000Y-90058212D01*
X130631383Y-89838933D01*
X130545824Y-89632376D01*
X130421612Y-89446480D01*
X130263520Y-89288388D01*
X130077624Y-89164176D01*
X129871067Y-89078617D01*
X129651788Y-89035000D01*
X129428212Y-89035000D01*
X129208933Y-89078617D01*
X129002376Y-89164176D01*
X128816480Y-89288388D01*
X128658388Y-89446480D01*
X128534176Y-89632376D01*
X128448617Y-89838933D01*
X128405000Y-90058212D01*
X128405000Y-90281788D01*
X128448617Y-90501067D01*
X128534176Y-90707624D01*
X128658388Y-90893520D01*
X128780001Y-91015133D01*
X128780001Y-91432405D01*
X128710986Y-91469294D01*
X128484866Y-91654866D01*
X128299294Y-91880986D01*
X128270000Y-91935791D01*
X128240706Y-91880986D01*
X128055134Y-91654866D01*
X127829014Y-91469294D01*
X127760000Y-91432405D01*
X127760000Y-91015132D01*
X127881612Y-90893520D01*
X128005824Y-90707624D01*
X128091383Y-90501067D01*
X128135000Y-90281788D01*
X128135000Y-90058212D01*
X128091383Y-89838933D01*
X128005824Y-89632376D01*
X127881612Y-89446480D01*
X127723520Y-89288388D01*
X127537624Y-89164176D01*
X127331067Y-89078617D01*
X127111788Y-89035000D01*
X126888212Y-89035000D01*
X126668933Y-89078617D01*
X126462376Y-89164176D01*
X126276480Y-89288388D01*
X126118388Y-89446480D01*
X125994176Y-89632376D01*
X125908617Y-89838933D01*
X125865000Y-90058212D01*
X125865000Y-90281788D01*
X125908617Y-90501067D01*
X125994176Y-90707624D01*
X126118388Y-90893520D01*
X126240001Y-91015133D01*
X126240001Y-91432405D01*
X126170986Y-91469294D01*
X125944866Y-91654866D01*
X125759294Y-91880986D01*
X125730000Y-91935791D01*
X125700706Y-91880986D01*
X125515134Y-91654866D01*
X125289014Y-91469294D01*
X125220000Y-91432405D01*
X125220000Y-91015132D01*
X125341612Y-90893520D01*
X125465824Y-90707624D01*
X125551383Y-90501067D01*
X125595000Y-90281788D01*
X125595000Y-90058212D01*
X125551383Y-89838933D01*
X125465824Y-89632376D01*
X125341612Y-89446480D01*
X125183520Y-89288388D01*
X124997624Y-89164176D01*
X124791067Y-89078617D01*
X124571788Y-89035000D01*
X124348212Y-89035000D01*
X124128933Y-89078617D01*
X123922376Y-89164176D01*
X123736480Y-89288388D01*
X123578388Y-89446480D01*
X123454176Y-89632376D01*
X123368617Y-89838933D01*
X123325000Y-90058212D01*
X123325000Y-90281788D01*
X123368617Y-90501067D01*
X123454176Y-90707624D01*
X123578388Y-90893520D01*
X123700000Y-91015132D01*
X123700000Y-91432405D01*
X123630986Y-91469294D01*
X123404866Y-91654866D01*
X123219294Y-91880986D01*
X123190000Y-91935791D01*
X123160706Y-91880986D01*
X122975134Y-91654866D01*
X122749014Y-91469294D01*
X122680000Y-91432405D01*
X122680000Y-91015132D01*
X122801612Y-90893520D01*
X122925824Y-90707624D01*
X123011383Y-90501067D01*
X123055000Y-90281788D01*
X123055000Y-90058212D01*
X123011383Y-89838933D01*
X122925824Y-89632376D01*
X122801612Y-89446480D01*
X122643520Y-89288388D01*
X122457624Y-89164176D01*
X122251067Y-89078617D01*
X122031788Y-89035000D01*
X121808212Y-89035000D01*
X121588933Y-89078617D01*
X121382376Y-89164176D01*
X121196480Y-89288388D01*
X121038388Y-89446480D01*
X120914176Y-89632376D01*
X120828617Y-89838933D01*
X120785000Y-90058212D01*
X120785000Y-90281788D01*
X120828617Y-90501067D01*
X120914176Y-90707624D01*
X121038388Y-90893520D01*
X121160001Y-91015133D01*
X121160001Y-91432405D01*
X121090986Y-91469294D01*
X120864866Y-91654866D01*
X120679294Y-91880986D01*
X120650000Y-91935791D01*
X120620706Y-91880986D01*
X120435134Y-91654866D01*
X120209014Y-91469294D01*
X120140000Y-91432405D01*
X120140000Y-91015132D01*
X120261612Y-90893520D01*
X120385824Y-90707624D01*
X120471383Y-90501067D01*
X120515000Y-90281788D01*
X120515000Y-90058212D01*
X120471383Y-89838933D01*
X120385824Y-89632376D01*
X120261612Y-89446480D01*
X120103520Y-89288388D01*
X119917624Y-89164176D01*
X119711067Y-89078617D01*
X119491788Y-89035000D01*
X119268212Y-89035000D01*
X119048933Y-89078617D01*
X118842376Y-89164176D01*
X118656480Y-89288388D01*
X118498388Y-89446480D01*
X118374176Y-89632376D01*
X118288617Y-89838933D01*
X118245000Y-90058212D01*
X118245000Y-90281788D01*
X118288617Y-90501067D01*
X118374176Y-90707624D01*
X118498388Y-90893520D01*
X118620001Y-91015133D01*
X118620001Y-91432405D01*
X118550986Y-91469294D01*
X118324866Y-91654866D01*
X118139294Y-91880986D01*
X118110000Y-91935791D01*
X118080706Y-91880986D01*
X117895134Y-91654866D01*
X117669014Y-91469294D01*
X117600000Y-91432405D01*
X117600000Y-91015132D01*
X117721612Y-90893520D01*
X117845824Y-90707624D01*
X117931383Y-90501067D01*
X117975000Y-90281788D01*
X117975000Y-90058212D01*
X117931383Y-89838933D01*
X117845824Y-89632376D01*
X117721612Y-89446480D01*
X117563520Y-89288388D01*
X117377624Y-89164176D01*
X117171067Y-89078617D01*
X116951788Y-89035000D01*
X116728212Y-89035000D01*
X116508933Y-89078617D01*
X116302376Y-89164176D01*
X116116480Y-89288388D01*
X115958388Y-89446480D01*
X115834176Y-89632376D01*
X115748617Y-89838933D01*
X115705000Y-90058212D01*
X115705000Y-90281788D01*
X115748617Y-90501067D01*
X115834176Y-90707624D01*
X115958388Y-90893520D01*
X116080001Y-91015133D01*
X116080001Y-91432405D01*
X116010986Y-91469294D01*
X115784866Y-91654866D01*
X115599294Y-91880986D01*
X115461401Y-92138966D01*
X115376487Y-92418889D01*
X115347815Y-92710000D01*
X115376487Y-93001111D01*
X115461401Y-93281034D01*
X115599294Y-93539014D01*
X115784866Y-93765134D01*
X115814687Y-93789607D01*
X115745820Y-93810498D01*
X115635506Y-93869463D01*
X115538815Y-93948815D01*
X115459463Y-94045506D01*
X115422317Y-94115000D01*
X110597478Y-94115000D01*
X110593255Y-94114193D01*
X110485862Y-94115000D01*
X110434248Y-94115000D01*
X110429985Y-94115420D01*
X110369685Y-94115873D01*
X110319008Y-94126350D01*
X110267501Y-94131423D01*
X110209787Y-94148931D01*
X110150740Y-94161138D01*
X110103082Y-94181299D01*
X110053553Y-94196324D01*
X110000367Y-94224752D01*
X109944832Y-94248246D01*
X109902022Y-94277318D01*
X109856377Y-94301716D01*
X109809758Y-94339975D01*
X109806220Y-94342378D01*
X109766632Y-94375368D01*
X109683551Y-94443551D01*
X109680822Y-94446876D01*
X102146671Y-100725336D01*
X102063551Y-100793551D01*
X102025293Y-100840168D01*
X101982976Y-100883126D01*
X101954551Y-100926367D01*
X101921716Y-100966377D01*
X101893284Y-101019570D01*
X101860166Y-101069951D01*
X101840723Y-101117907D01*
X101816324Y-101163554D01*
X101798819Y-101221259D01*
X101776161Y-101277144D01*
X101766446Y-101327978D01*
X101751423Y-101377502D01*
X101745512Y-101437517D01*
X101734193Y-101496745D01*
X101735000Y-101604138D01*
X101735001Y-109108208D01*
X101735000Y-109108212D01*
X101735000Y-109331788D01*
X101735001Y-109331792D01*
X101735001Y-110342317D01*
X101665506Y-110379463D01*
X101568815Y-110458815D01*
X101489463Y-110555506D01*
X101430498Y-110665820D01*
X101406034Y-110746466D01*
X101330269Y-110662412D01*
X101096920Y-110488359D01*
X100834099Y-110363175D01*
X100686890Y-110318524D01*
X100457002Y-110439844D01*
X100457002Y-110349833D01*
X100632740Y-110319577D01*
X100841440Y-110239387D01*
X100893450Y-110211588D01*
X100928561Y-109998166D01*
X100330000Y-109399605D01*
X99731439Y-109998166D01*
X99766550Y-110211588D01*
X99970826Y-110302458D01*
X100188905Y-110351731D01*
X100202998Y-110352095D01*
X100202998Y-110439844D01*
X99973110Y-110318524D01*
X99825901Y-110363175D01*
X99563080Y-110488359D01*
X99329731Y-110662412D01*
X99134822Y-110878645D01*
X99060000Y-111004255D01*
X98985178Y-110878645D01*
X98790269Y-110662412D01*
X98556920Y-110488359D01*
X98294099Y-110363175D01*
X98146890Y-110318524D01*
X97917002Y-110439844D01*
X97917002Y-110349833D01*
X98092740Y-110319577D01*
X98301440Y-110239387D01*
X98353450Y-110211588D01*
X98388561Y-109998166D01*
X97790000Y-109399605D01*
X97191439Y-109998166D01*
X97226550Y-110211588D01*
X97430826Y-110302458D01*
X97648905Y-110351731D01*
X97662998Y-110352095D01*
X97662998Y-110439844D01*
X97433110Y-110318524D01*
X97285901Y-110363175D01*
X97023080Y-110488359D01*
X96789731Y-110662412D01*
X96594822Y-110878645D01*
X96525201Y-110995523D01*
X96490706Y-110930986D01*
X96305134Y-110704866D01*
X96079014Y-110519294D01*
X96010000Y-110482405D01*
X96010000Y-110065132D01*
X96131612Y-109943520D01*
X96255824Y-109757624D01*
X96341383Y-109551067D01*
X96385000Y-109331788D01*
X96385000Y-109302406D01*
X96652489Y-109302406D01*
X96690423Y-109522740D01*
X96770613Y-109731440D01*
X96798412Y-109783450D01*
X97011834Y-109818561D01*
X97610395Y-109220000D01*
X97969605Y-109220000D01*
X98568166Y-109818561D01*
X98781588Y-109783450D01*
X98872458Y-109579174D01*
X98921731Y-109361095D01*
X98923248Y-109302406D01*
X99192489Y-109302406D01*
X99230423Y-109522740D01*
X99310613Y-109731440D01*
X99338412Y-109783450D01*
X99551834Y-109818561D01*
X100150395Y-109220000D01*
X100509605Y-109220000D01*
X101108166Y-109818561D01*
X101321588Y-109783450D01*
X101412458Y-109579174D01*
X101461731Y-109361095D01*
X101467511Y-109137594D01*
X101429577Y-108917260D01*
X101349387Y-108708560D01*
X101321588Y-108656550D01*
X101108166Y-108621439D01*
X100509605Y-109220000D01*
X100150395Y-109220000D01*
X99551834Y-108621439D01*
X99338412Y-108656550D01*
X99247542Y-108860826D01*
X99198269Y-109078905D01*
X99192489Y-109302406D01*
X98923248Y-109302406D01*
X98927511Y-109137594D01*
X98889577Y-108917260D01*
X98809387Y-108708560D01*
X98781588Y-108656550D01*
X98568166Y-108621439D01*
X97969605Y-109220000D01*
X97610395Y-109220000D01*
X97011834Y-108621439D01*
X96798412Y-108656550D01*
X96707542Y-108860826D01*
X96658269Y-109078905D01*
X96652489Y-109302406D01*
X96385000Y-109302406D01*
X96385000Y-109108212D01*
X96341383Y-108888933D01*
X96255824Y-108682376D01*
X96131612Y-108496480D01*
X96076966Y-108441834D01*
X97191439Y-108441834D01*
X97790000Y-109040395D01*
X98388561Y-108441834D01*
X99731439Y-108441834D01*
X100330000Y-109040395D01*
X100928561Y-108441834D01*
X100893450Y-108228412D01*
X100689174Y-108137542D01*
X100471095Y-108088269D01*
X100247594Y-108082489D01*
X100027260Y-108120423D01*
X99818560Y-108200613D01*
X99766550Y-108228412D01*
X99731439Y-108441834D01*
X98388561Y-108441834D01*
X98353450Y-108228412D01*
X98149174Y-108137542D01*
X97931095Y-108088269D01*
X97707594Y-108082489D01*
X97487260Y-108120423D01*
X97278560Y-108200613D01*
X97226550Y-108228412D01*
X97191439Y-108441834D01*
X96076966Y-108441834D01*
X95973520Y-108338388D01*
X95787624Y-108214176D01*
X95581067Y-108128617D01*
X95361788Y-108085000D01*
X95138212Y-108085000D01*
X94918933Y-108128617D01*
X94712376Y-108214176D01*
X94526480Y-108338388D01*
X94368388Y-108496480D01*
X94244176Y-108682376D01*
X94158617Y-108888933D01*
X94115000Y-109108212D01*
X94115000Y-109331788D01*
X94158617Y-109551067D01*
X94244176Y-109757624D01*
X94368388Y-109943520D01*
X94490000Y-110065132D01*
X94490000Y-110482405D01*
X94420986Y-110519294D01*
X94194866Y-110704866D01*
X94009294Y-110930986D01*
X93871401Y-111188966D01*
X93786487Y-111468889D01*
X93757815Y-111760000D01*
X91973000Y-111760000D01*
X91973000Y-87459117D01*
X92118000Y-87459117D01*
X92118000Y-87800883D01*
X92184675Y-88136081D01*
X92315463Y-88451831D01*
X92505337Y-88735998D01*
X92747002Y-88977663D01*
X93031169Y-89167537D01*
X93346919Y-89298325D01*
X93682117Y-89365000D01*
X94023883Y-89365000D01*
X94359081Y-89298325D01*
X94674831Y-89167537D01*
X94958998Y-88977663D01*
X95200663Y-88735998D01*
X95390537Y-88451831D01*
X95521325Y-88136081D01*
X95588000Y-87800883D01*
X95588000Y-87459117D01*
X157015000Y-87459117D01*
X157015000Y-87800883D01*
X157081675Y-88136081D01*
X157212463Y-88451831D01*
X157402337Y-88735998D01*
X157644002Y-88977663D01*
X157928169Y-89167537D01*
X158243919Y-89298325D01*
X158579117Y-89365000D01*
X158920883Y-89365000D01*
X159256081Y-89298325D01*
X159571831Y-89167537D01*
X159855998Y-88977663D01*
X160097663Y-88735998D01*
X160287537Y-88451831D01*
X160418325Y-88136081D01*
X160485000Y-87800883D01*
X160485000Y-87459117D01*
X160418325Y-87123919D01*
X160287537Y-86808169D01*
X160097663Y-86524002D01*
X159855998Y-86282337D01*
X159571831Y-86092463D01*
X159256081Y-85961675D01*
X158920883Y-85895000D01*
X158579117Y-85895000D01*
X158243919Y-85961675D01*
X157928169Y-86092463D01*
X157644002Y-86282337D01*
X157402337Y-86524002D01*
X157212463Y-86808169D01*
X157081675Y-87123919D01*
X157015000Y-87459117D01*
X95588000Y-87459117D01*
X95521325Y-87123919D01*
X95390537Y-86808169D01*
X95200663Y-86524002D01*
X94958998Y-86282337D01*
X94674831Y-86092463D01*
X94359081Y-85961675D01*
X94023883Y-85895000D01*
X93682117Y-85895000D01*
X93346919Y-85961675D01*
X93031169Y-86092463D01*
X92747002Y-86282337D01*
X92505337Y-86524002D01*
X92315463Y-86808169D01*
X92184675Y-87123919D01*
X92118000Y-87459117D01*
X91973000Y-87459117D01*
X91973000Y-86392279D01*
X91987722Y-86242131D01*
X92021953Y-86128754D01*
X92077555Y-86024181D01*
X92152407Y-85932404D01*
X92243664Y-85856909D01*
X92347844Y-85800581D01*
X92460976Y-85765560D01*
X92609022Y-85750000D01*
X159987721Y-85750000D01*
X160137869Y-85764722D01*
G36*
X97917000Y-111633000D02*
G01*
X100203000Y-111633000D01*
X100203000Y-111613000D01*
X100457000Y-111613000D01*
X100457000Y-111633000D01*
X100477000Y-111633000D01*
X100477000Y-111887000D01*
X100457000Y-111887000D01*
X100457000Y-111907000D01*
X100203000Y-111907000D01*
X100203000Y-111887000D01*
X97917000Y-111887000D01*
X97917000Y-111907000D01*
X97663000Y-111907000D01*
X97663000Y-111887000D01*
X97643000Y-111887000D01*
X97643000Y-111633000D01*
X97663000Y-111633000D01*
X97663000Y-111613000D01*
X97917000Y-111613000D01*
X97917000Y-111633000D01*
X97917000Y-111633000D01*
G37*
X97917000Y-111633000D02*
X100203000Y-111633000D01*
X100203000Y-111613000D01*
X100457000Y-111613000D01*
X100457000Y-111633000D01*
X100477000Y-111633000D01*
X100477000Y-111887000D01*
X100457000Y-111887000D01*
X100457000Y-111907000D01*
X100203000Y-111907000D01*
X100203000Y-111887000D01*
X97917000Y-111887000D01*
X97917000Y-111907000D01*
X97663000Y-111907000D01*
X97663000Y-111887000D01*
X97643000Y-111887000D01*
X97643000Y-111633000D01*
X97663000Y-111633000D01*
X97663000Y-111613000D01*
X97917000Y-111613000D01*
X97917000Y-111633000D01*
G36*
X115355000Y-95377002D02*
G01*
X115513748Y-95377002D01*
X115355000Y-95535750D01*
X115351928Y-96100000D01*
X115364188Y-96224482D01*
X115400498Y-96344180D01*
X115459463Y-96454494D01*
X115538815Y-96551185D01*
X115635506Y-96630537D01*
X115745820Y-96689502D01*
X115865518Y-96725812D01*
X115990000Y-96738072D01*
X116419334Y-96735735D01*
X116328560Y-96770613D01*
X116276550Y-96798412D01*
X116241439Y-97011834D01*
X116840000Y-97610395D01*
X117438561Y-97011834D01*
X117403450Y-96798412D01*
X117262574Y-96735745D01*
X117690000Y-96738072D01*
X117814482Y-96725812D01*
X117934180Y-96689502D01*
X118044494Y-96630537D01*
X118141185Y-96551185D01*
X118220537Y-96454494D01*
X118279502Y-96344180D01*
X118303966Y-96263534D01*
X118379731Y-96347588D01*
X118613080Y-96521641D01*
X118875901Y-96646825D01*
X119023110Y-96691476D01*
X119252998Y-96570156D01*
X119252998Y-96660167D01*
X119077260Y-96690423D01*
X118868560Y-96770613D01*
X118816550Y-96798412D01*
X118781439Y-97011834D01*
X119380000Y-97610395D01*
X119978561Y-97011834D01*
X119943450Y-96798412D01*
X119739174Y-96707542D01*
X119521095Y-96658269D01*
X119507002Y-96657905D01*
X119507002Y-96570156D01*
X119736890Y-96691476D01*
X119884099Y-96646825D01*
X120146920Y-96521641D01*
X120380269Y-96347588D01*
X120575178Y-96131355D01*
X120650000Y-96005745D01*
X120724822Y-96131355D01*
X120919731Y-96347588D01*
X121153080Y-96521641D01*
X121415901Y-96646825D01*
X121563110Y-96691476D01*
X121792998Y-96570156D01*
X121792998Y-96660167D01*
X121617260Y-96690423D01*
X121408560Y-96770613D01*
X121356550Y-96798412D01*
X121321439Y-97011834D01*
X121920000Y-97610395D01*
X122518561Y-97011834D01*
X122483450Y-96798412D01*
X122279174Y-96707542D01*
X122061095Y-96658269D01*
X122047002Y-96657905D01*
X122047002Y-96570156D01*
X122276890Y-96691476D01*
X122424099Y-96646825D01*
X122686920Y-96521641D01*
X122920269Y-96347588D01*
X123115178Y-96131355D01*
X123190000Y-96005745D01*
X123264822Y-96131355D01*
X123459731Y-96347588D01*
X123693080Y-96521641D01*
X123955901Y-96646825D01*
X124103110Y-96691476D01*
X124332998Y-96570156D01*
X124332998Y-96660167D01*
X124157260Y-96690423D01*
X123948560Y-96770613D01*
X123896550Y-96798412D01*
X123861439Y-97011834D01*
X124333000Y-97483395D01*
X124333000Y-97663000D01*
X124153395Y-97663000D01*
X123681834Y-97191439D01*
X123468412Y-97226550D01*
X123377542Y-97430826D01*
X123328269Y-97648905D01*
X123327904Y-97663000D01*
X123049833Y-97663000D01*
X123019577Y-97487260D01*
X122939387Y-97278560D01*
X122911588Y-97226550D01*
X122698166Y-97191439D01*
X122226605Y-97663000D01*
X121613395Y-97663000D01*
X121141834Y-97191439D01*
X120928412Y-97226550D01*
X120837542Y-97430826D01*
X120788269Y-97648905D01*
X120787904Y-97663000D01*
X120509833Y-97663000D01*
X120479577Y-97487260D01*
X120399387Y-97278560D01*
X120371588Y-97226550D01*
X120158166Y-97191439D01*
X119686605Y-97663000D01*
X119073395Y-97663000D01*
X118601834Y-97191439D01*
X118388412Y-97226550D01*
X118297542Y-97430826D01*
X118248269Y-97648905D01*
X118247904Y-97663000D01*
X117969833Y-97663000D01*
X117939577Y-97487260D01*
X117859387Y-97278560D01*
X117831588Y-97226550D01*
X117618166Y-97191439D01*
X117146605Y-97663000D01*
X116533395Y-97663000D01*
X116061834Y-97191439D01*
X115848412Y-97226550D01*
X115757542Y-97430826D01*
X115708269Y-97648905D01*
X115707904Y-97663000D01*
X111760000Y-97663000D01*
X111735224Y-97665440D01*
X111711399Y-97672667D01*
X111680664Y-97690830D01*
X105330664Y-102770830D01*
X105312841Y-102788213D01*
X105298752Y-102808739D01*
X105288938Y-102831620D01*
X105283777Y-102855975D01*
X105283000Y-102870000D01*
X105283000Y-109167394D01*
X104072172Y-110378222D01*
X103964180Y-110320498D01*
X103844482Y-110284188D01*
X103720000Y-110271928D01*
X103290666Y-110274265D01*
X103381440Y-110239387D01*
X103433450Y-110211588D01*
X103468561Y-109998166D01*
X102997000Y-109526605D01*
X102997000Y-109220000D01*
X103049605Y-109220000D01*
X103648166Y-109818561D01*
X103861588Y-109783450D01*
X103952458Y-109579174D01*
X104001731Y-109361095D01*
X104007511Y-109137594D01*
X103969577Y-108917260D01*
X103889387Y-108708560D01*
X103861588Y-108656550D01*
X103648166Y-108621439D01*
X103049605Y-109220000D01*
X102997000Y-109220000D01*
X102997000Y-108913395D01*
X103468561Y-108441834D01*
X103433450Y-108228412D01*
X103229174Y-108137542D01*
X103011095Y-108088269D01*
X102997000Y-108087904D01*
X102997000Y-101659483D01*
X110535980Y-95377000D01*
X115355000Y-95377000D01*
X115355000Y-95377002D01*
X115355000Y-95377002D01*
G37*
X115355000Y-95377002D02*
X115513748Y-95377002D01*
X115355000Y-95535750D01*
X115351928Y-96100000D01*
X115364188Y-96224482D01*
X115400498Y-96344180D01*
X115459463Y-96454494D01*
X115538815Y-96551185D01*
X115635506Y-96630537D01*
X115745820Y-96689502D01*
X115865518Y-96725812D01*
X115990000Y-96738072D01*
X116419334Y-96735735D01*
X116328560Y-96770613D01*
X116276550Y-96798412D01*
X116241439Y-97011834D01*
X116840000Y-97610395D01*
X117438561Y-97011834D01*
X117403450Y-96798412D01*
X117262574Y-96735745D01*
X117690000Y-96738072D01*
X117814482Y-96725812D01*
X117934180Y-96689502D01*
X118044494Y-96630537D01*
X118141185Y-96551185D01*
X118220537Y-96454494D01*
X118279502Y-96344180D01*
X118303966Y-96263534D01*
X118379731Y-96347588D01*
X118613080Y-96521641D01*
X118875901Y-96646825D01*
X119023110Y-96691476D01*
X119252998Y-96570156D01*
X119252998Y-96660167D01*
X119077260Y-96690423D01*
X118868560Y-96770613D01*
X118816550Y-96798412D01*
X118781439Y-97011834D01*
X119380000Y-97610395D01*
X119978561Y-97011834D01*
X119943450Y-96798412D01*
X119739174Y-96707542D01*
X119521095Y-96658269D01*
X119507002Y-96657905D01*
X119507002Y-96570156D01*
X119736890Y-96691476D01*
X119884099Y-96646825D01*
X120146920Y-96521641D01*
X120380269Y-96347588D01*
X120575178Y-96131355D01*
X120650000Y-96005745D01*
X120724822Y-96131355D01*
X120919731Y-96347588D01*
X121153080Y-96521641D01*
X121415901Y-96646825D01*
X121563110Y-96691476D01*
X121792998Y-96570156D01*
X121792998Y-96660167D01*
X121617260Y-96690423D01*
X121408560Y-96770613D01*
X121356550Y-96798412D01*
X121321439Y-97011834D01*
X121920000Y-97610395D01*
X122518561Y-97011834D01*
X122483450Y-96798412D01*
X122279174Y-96707542D01*
X122061095Y-96658269D01*
X122047002Y-96657905D01*
X122047002Y-96570156D01*
X122276890Y-96691476D01*
X122424099Y-96646825D01*
X122686920Y-96521641D01*
X122920269Y-96347588D01*
X123115178Y-96131355D01*
X123190000Y-96005745D01*
X123264822Y-96131355D01*
X123459731Y-96347588D01*
X123693080Y-96521641D01*
X123955901Y-96646825D01*
X124103110Y-96691476D01*
X124332998Y-96570156D01*
X124332998Y-96660167D01*
X124157260Y-96690423D01*
X123948560Y-96770613D01*
X123896550Y-96798412D01*
X123861439Y-97011834D01*
X124333000Y-97483395D01*
X124333000Y-97663000D01*
X124153395Y-97663000D01*
X123681834Y-97191439D01*
X123468412Y-97226550D01*
X123377542Y-97430826D01*
X123328269Y-97648905D01*
X123327904Y-97663000D01*
X123049833Y-97663000D01*
X123019577Y-97487260D01*
X122939387Y-97278560D01*
X122911588Y-97226550D01*
X122698166Y-97191439D01*
X122226605Y-97663000D01*
X121613395Y-97663000D01*
X121141834Y-97191439D01*
X120928412Y-97226550D01*
X120837542Y-97430826D01*
X120788269Y-97648905D01*
X120787904Y-97663000D01*
X120509833Y-97663000D01*
X120479577Y-97487260D01*
X120399387Y-97278560D01*
X120371588Y-97226550D01*
X120158166Y-97191439D01*
X119686605Y-97663000D01*
X119073395Y-97663000D01*
X118601834Y-97191439D01*
X118388412Y-97226550D01*
X118297542Y-97430826D01*
X118248269Y-97648905D01*
X118247904Y-97663000D01*
X117969833Y-97663000D01*
X117939577Y-97487260D01*
X117859387Y-97278560D01*
X117831588Y-97226550D01*
X117618166Y-97191439D01*
X117146605Y-97663000D01*
X116533395Y-97663000D01*
X116061834Y-97191439D01*
X115848412Y-97226550D01*
X115757542Y-97430826D01*
X115708269Y-97648905D01*
X115707904Y-97663000D01*
X111760000Y-97663000D01*
X111735224Y-97665440D01*
X111711399Y-97672667D01*
X111680664Y-97690830D01*
X105330664Y-102770830D01*
X105312841Y-102788213D01*
X105298752Y-102808739D01*
X105288938Y-102831620D01*
X105283777Y-102855975D01*
X105283000Y-102870000D01*
X105283000Y-109167394D01*
X104072172Y-110378222D01*
X103964180Y-110320498D01*
X103844482Y-110284188D01*
X103720000Y-110271928D01*
X103290666Y-110274265D01*
X103381440Y-110239387D01*
X103433450Y-110211588D01*
X103468561Y-109998166D01*
X102997000Y-109526605D01*
X102997000Y-109220000D01*
X103049605Y-109220000D01*
X103648166Y-109818561D01*
X103861588Y-109783450D01*
X103952458Y-109579174D01*
X104001731Y-109361095D01*
X104007511Y-109137594D01*
X103969577Y-108917260D01*
X103889387Y-108708560D01*
X103861588Y-108656550D01*
X103648166Y-108621439D01*
X103049605Y-109220000D01*
X102997000Y-109220000D01*
X102997000Y-108913395D01*
X103468561Y-108441834D01*
X103433450Y-108228412D01*
X103229174Y-108137542D01*
X103011095Y-108088269D01*
X102997000Y-108087904D01*
X102997000Y-101659483D01*
X110535980Y-95377000D01*
X115355000Y-95377000D01*
X115355000Y-95377002D01*
G36*
X122047000Y-95397000D02*
G01*
X121793000Y-95397000D01*
X121793000Y-95377000D01*
X122047000Y-95377000D01*
X122047000Y-95397000D01*
X122047000Y-95397000D01*
G37*
X122047000Y-95397000D02*
X121793000Y-95397000D01*
X121793000Y-95377000D01*
X122047000Y-95377000D01*
X122047000Y-95397000D01*
G36*
X119507000Y-95397000D02*
G01*
X119253000Y-95397000D01*
X119253000Y-95377000D01*
X119507000Y-95377000D01*
X119507000Y-95397000D01*
X119507000Y-95397000D01*
G37*
X119507000Y-95397000D02*
X119253000Y-95397000D01*
X119253000Y-95377000D01*
X119507000Y-95377000D01*
X119507000Y-95397000D01*
G36*
X116967000Y-95397000D02*
G01*
X116713000Y-95397000D01*
X116713000Y-95377000D01*
X116967000Y-95377000D01*
X116967000Y-95397000D01*
X116967000Y-95397000D01*
G37*
X116967000Y-95397000D02*
X116713000Y-95397000D01*
X116713000Y-95377000D01*
X116967000Y-95377000D01*
X116967000Y-95397000D01*
M02*
