%TF.GenerationSoftware,KiCad,Pcbnew,(5.1.9)-1*%
%TF.CreationDate,2021-05-08T11:56:35+01:00*%
%TF.ProjectId,Blue Pill Kickstart Switcher,426c7565-2050-4696-9c6c-204b69636b73,1*%
%TF.SameCoordinates,Original*%
%TF.FileFunction,Soldermask,Top*%
%TF.FilePolarity,Negative*%
%FSLAX46Y46*%
G04 Gerber Fmt 4.6, Leading zero omitted, Abs format (unit mm)*
G04 Created by KiCad (PCBNEW (5.1.9)-1) date 2021-05-08 11:56:35*
%MOMM*%
%LPD*%
G01*
G04 APERTURE LIST*
%ADD10O,1.900000X1.900000*%
%ADD11O,2.000000X2.000000*%
%ADD12C,2.000000*%
%ADD13C,1.700000*%
G04 APERTURE END LIST*
%TO.C,D4*%
G36*
G01*
X140000000Y-71654784D02*
X140000000Y-70585216D01*
G75*
G02*
X140315216Y-70270000I315216J0D01*
G01*
X141134784Y-70270000D01*
G75*
G02*
X141450000Y-70585216I0J-315216D01*
G01*
X141450000Y-71654784D01*
G75*
G02*
X141134784Y-71970000I-315216J0D01*
G01*
X140315216Y-71970000D01*
G75*
G02*
X140000000Y-71654784I0J315216D01*
G01*
G37*
G36*
G01*
X137950000Y-71654784D02*
X137950000Y-70585216D01*
G75*
G02*
X138265216Y-70270000I315216J0D01*
G01*
X139084784Y-70270000D01*
G75*
G02*
X139400000Y-70585216I0J-315216D01*
G01*
X139400000Y-71654784D01*
G75*
G02*
X139084784Y-71970000I-315216J0D01*
G01*
X138265216Y-71970000D01*
G75*
G02*
X137950000Y-71654784I0J315216D01*
G01*
G37*
%TD*%
D10*
%TO.C,RN2*%
X142367000Y-78740000D03*
X142367000Y-81280000D03*
X142367000Y-83820000D03*
X142367000Y-86360000D03*
X142367000Y-88900000D03*
X142367000Y-91440000D03*
X142367000Y-93980000D03*
X142367000Y-96520000D03*
X142367000Y-99060000D03*
G36*
G01*
X143167000Y-102550000D02*
X141567000Y-102550000D01*
G75*
G02*
X141417000Y-102400000I0J150000D01*
G01*
X141417000Y-100800000D01*
G75*
G02*
X141567000Y-100650000I150000J0D01*
G01*
X143167000Y-100650000D01*
G75*
G02*
X143317000Y-100800000I0J-150000D01*
G01*
X143317000Y-102400000D01*
G75*
G02*
X143167000Y-102550000I-150000J0D01*
G01*
G37*
%TD*%
%TO.C,RN1*%
G36*
G01*
X127800000Y-102550000D02*
X126200000Y-102550000D01*
G75*
G02*
X126050000Y-102400000I0J150000D01*
G01*
X126050000Y-100800000D01*
G75*
G02*
X126200000Y-100650000I150000J0D01*
G01*
X127800000Y-100650000D01*
G75*
G02*
X127950000Y-100800000I0J-150000D01*
G01*
X127950000Y-102400000D01*
G75*
G02*
X127800000Y-102550000I-150000J0D01*
G01*
G37*
X127000000Y-99060000D03*
X127000000Y-96520000D03*
X127000000Y-93980000D03*
X127000000Y-91440000D03*
X127000000Y-88900000D03*
X127000000Y-86360000D03*
X127000000Y-83820000D03*
X127000000Y-81280000D03*
X127000000Y-78740000D03*
%TD*%
D11*
%TO.C,J9*%
X129540000Y-134620000D03*
G36*
G01*
X131230000Y-133620000D02*
X132930000Y-133620000D01*
G75*
G02*
X133080000Y-133770000I0J-150000D01*
G01*
X133080000Y-135470000D01*
G75*
G02*
X132930000Y-135620000I-150000J0D01*
G01*
X131230000Y-135620000D01*
G75*
G02*
X131080000Y-135470000I0J150000D01*
G01*
X131080000Y-133770000D01*
G75*
G02*
X131230000Y-133620000I150000J0D01*
G01*
G37*
%TD*%
%TO.C,J8*%
X121920000Y-134620000D03*
G36*
G01*
X123610000Y-133620000D02*
X125310000Y-133620000D01*
G75*
G02*
X125460000Y-133770000I0J-150000D01*
G01*
X125460000Y-135470000D01*
G75*
G02*
X125310000Y-135620000I-150000J0D01*
G01*
X123610000Y-135620000D01*
G75*
G02*
X123460000Y-135470000I0J150000D01*
G01*
X123460000Y-133770000D01*
G75*
G02*
X123610000Y-133620000I150000J0D01*
G01*
G37*
%TD*%
%TO.C,D3*%
G36*
G01*
X164130000Y-71654784D02*
X164130000Y-70585216D01*
G75*
G02*
X164445216Y-70270000I315216J0D01*
G01*
X165264784Y-70270000D01*
G75*
G02*
X165580000Y-70585216I0J-315216D01*
G01*
X165580000Y-71654784D01*
G75*
G02*
X165264784Y-71970000I-315216J0D01*
G01*
X164445216Y-71970000D01*
G75*
G02*
X164130000Y-71654784I0J315216D01*
G01*
G37*
G36*
G01*
X162080000Y-71654784D02*
X162080000Y-70585216D01*
G75*
G02*
X162395216Y-70270000I315216J0D01*
G01*
X163214784Y-70270000D01*
G75*
G02*
X163530000Y-70585216I0J-315216D01*
G01*
X163530000Y-71654784D01*
G75*
G02*
X163214784Y-71970000I-315216J0D01*
G01*
X162395216Y-71970000D01*
G75*
G02*
X162080000Y-71654784I0J315216D01*
G01*
G37*
%TD*%
%TO.C,D2*%
G36*
G01*
X156510000Y-71654784D02*
X156510000Y-70585216D01*
G75*
G02*
X156825216Y-70270000I315216J0D01*
G01*
X157644784Y-70270000D01*
G75*
G02*
X157960000Y-70585216I0J-315216D01*
G01*
X157960000Y-71654784D01*
G75*
G02*
X157644784Y-71970000I-315216J0D01*
G01*
X156825216Y-71970000D01*
G75*
G02*
X156510000Y-71654784I0J315216D01*
G01*
G37*
G36*
G01*
X154460000Y-71654784D02*
X154460000Y-70585216D01*
G75*
G02*
X154775216Y-70270000I315216J0D01*
G01*
X155594784Y-70270000D01*
G75*
G02*
X155910000Y-70585216I0J-315216D01*
G01*
X155910000Y-71654784D01*
G75*
G02*
X155594784Y-71970000I-315216J0D01*
G01*
X154775216Y-71970000D01*
G75*
G02*
X154460000Y-71654784I0J315216D01*
G01*
G37*
%TD*%
%TO.C,D1*%
G36*
G01*
X148890000Y-71654784D02*
X148890000Y-70585216D01*
G75*
G02*
X149205216Y-70270000I315216J0D01*
G01*
X150024784Y-70270000D01*
G75*
G02*
X150340000Y-70585216I0J-315216D01*
G01*
X150340000Y-71654784D01*
G75*
G02*
X150024784Y-71970000I-315216J0D01*
G01*
X149205216Y-71970000D01*
G75*
G02*
X148890000Y-71654784I0J315216D01*
G01*
G37*
G36*
G01*
X146840000Y-71654784D02*
X146840000Y-70585216D01*
G75*
G02*
X147155216Y-70270000I315216J0D01*
G01*
X147974784Y-70270000D01*
G75*
G02*
X148290000Y-70585216I0J-315216D01*
G01*
X148290000Y-71654784D01*
G75*
G02*
X147974784Y-71970000I-315216J0D01*
G01*
X147155216Y-71970000D01*
G75*
G02*
X146840000Y-71654784I0J315216D01*
G01*
G37*
%TD*%
%TO.C,J6*%
X121920000Y-78105000D03*
G36*
G01*
X120230000Y-79105000D02*
X118530000Y-79105000D01*
G75*
G02*
X118380000Y-78955000I0J150000D01*
G01*
X118380000Y-77255000D01*
G75*
G02*
X118530000Y-77105000I150000J0D01*
G01*
X120230000Y-77105000D01*
G75*
G02*
X120380000Y-77255000I0J-150000D01*
G01*
X120380000Y-78955000D01*
G75*
G02*
X120230000Y-79105000I-150000J0D01*
G01*
G37*
%TD*%
D12*
%TO.C,U3*%
X163830000Y-76200000D03*
G36*
G01*
X147590000Y-77050000D02*
X147590000Y-75350000D01*
G75*
G02*
X147740000Y-75200000I150000J0D01*
G01*
X149440000Y-75200000D01*
G75*
G02*
X149590000Y-75350000I0J-150000D01*
G01*
X149590000Y-77050000D01*
G75*
G02*
X149440000Y-77200000I-150000J0D01*
G01*
X147740000Y-77200000D01*
G75*
G02*
X147590000Y-77050000I0J150000D01*
G01*
G37*
X163830000Y-78740000D03*
X148590000Y-78740000D03*
X163830000Y-81280000D03*
X148590000Y-81280000D03*
X163830000Y-83820000D03*
X148590000Y-83820000D03*
X163830000Y-86360000D03*
X148590000Y-86360000D03*
X163830000Y-88900000D03*
X148590000Y-88900000D03*
X163830000Y-91440000D03*
X148590000Y-91440000D03*
X163830000Y-93980000D03*
X148590000Y-93980000D03*
X163830000Y-96520000D03*
X148590000Y-96520000D03*
X163830000Y-99060000D03*
X148590000Y-99060000D03*
X163830000Y-101600000D03*
X148590000Y-101600000D03*
X163830000Y-104140000D03*
X148590000Y-104140000D03*
X163830000Y-106680000D03*
X148590000Y-106680000D03*
X163830000Y-109220000D03*
X148590000Y-109220000D03*
X163830000Y-111760000D03*
X148590000Y-111760000D03*
X163830000Y-114300000D03*
X148590000Y-114300000D03*
X163830000Y-116840000D03*
X148590000Y-116840000D03*
X163830000Y-119380000D03*
X148590000Y-119380000D03*
X163830000Y-121920000D03*
X148590000Y-121920000D03*
X163830000Y-124460000D03*
X148590000Y-124460000D03*
%TD*%
D11*
%TO.C,J7*%
X172720000Y-130810000D03*
G36*
G01*
X171720000Y-129120000D02*
X171720000Y-127420000D01*
G75*
G02*
X171870000Y-127270000I150000J0D01*
G01*
X173570000Y-127270000D01*
G75*
G02*
X173720000Y-127420000I0J-150000D01*
G01*
X173720000Y-129120000D01*
G75*
G02*
X173570000Y-129270000I-150000J0D01*
G01*
X171870000Y-129270000D01*
G75*
G02*
X171720000Y-129120000I0J150000D01*
G01*
G37*
%TD*%
%TO.C,J5*%
X172720000Y-140970000D03*
X172720000Y-138430000D03*
G36*
G01*
X171720000Y-136740000D02*
X171720000Y-135040000D01*
G75*
G02*
X171870000Y-134890000I150000J0D01*
G01*
X173570000Y-134890000D01*
G75*
G02*
X173720000Y-135040000I0J-150000D01*
G01*
X173720000Y-136740000D01*
G75*
G02*
X173570000Y-136890000I-150000J0D01*
G01*
X171870000Y-136890000D01*
G75*
G02*
X171720000Y-136740000I0J150000D01*
G01*
G37*
%TD*%
%TO.C,J4*%
X172720000Y-123190000D03*
X172720000Y-120650000D03*
X172720000Y-118110000D03*
G36*
G01*
X171720000Y-116420000D02*
X171720000Y-114720000D01*
G75*
G02*
X171870000Y-114570000I150000J0D01*
G01*
X173570000Y-114570000D01*
G75*
G02*
X173720000Y-114720000I0J-150000D01*
G01*
X173720000Y-116420000D01*
G75*
G02*
X173570000Y-116570000I-150000J0D01*
G01*
X171870000Y-116570000D01*
G75*
G02*
X171720000Y-116420000I0J150000D01*
G01*
G37*
%TD*%
%TO.C,J3*%
X172720000Y-110490000D03*
X172720000Y-107950000D03*
G36*
G01*
X171720000Y-106260000D02*
X171720000Y-104560000D01*
G75*
G02*
X171870000Y-104410000I150000J0D01*
G01*
X173570000Y-104410000D01*
G75*
G02*
X173720000Y-104560000I0J-150000D01*
G01*
X173720000Y-106260000D01*
G75*
G02*
X173570000Y-106410000I-150000J0D01*
G01*
X171870000Y-106410000D01*
G75*
G02*
X171720000Y-106260000I0J150000D01*
G01*
G37*
%TD*%
%TO.C,J2*%
X172720000Y-100330000D03*
X172720000Y-97790000D03*
G36*
G01*
X171720000Y-96100000D02*
X171720000Y-94400000D01*
G75*
G02*
X171870000Y-94250000I150000J0D01*
G01*
X173570000Y-94250000D01*
G75*
G02*
X173720000Y-94400000I0J-150000D01*
G01*
X173720000Y-96100000D01*
G75*
G02*
X173570000Y-96250000I-150000J0D01*
G01*
X171870000Y-96250000D01*
G75*
G02*
X171720000Y-96100000I0J150000D01*
G01*
G37*
%TD*%
%TO.C,J1*%
X172720000Y-90170000D03*
G36*
G01*
X171720000Y-88480000D02*
X171720000Y-86780000D01*
G75*
G02*
X171870000Y-86630000I150000J0D01*
G01*
X173570000Y-86630000D01*
G75*
G02*
X173720000Y-86780000I0J-150000D01*
G01*
X173720000Y-88480000D01*
G75*
G02*
X173570000Y-88630000I-150000J0D01*
G01*
X171870000Y-88630000D01*
G75*
G02*
X171720000Y-88480000I0J150000D01*
G01*
G37*
%TD*%
%TO.C,B1*%
G36*
G01*
X177050000Y-80580000D02*
X182050000Y-80580000D01*
G75*
G02*
X182200000Y-80730000I0J-150000D01*
G01*
X182200000Y-82130000D01*
G75*
G02*
X182050000Y-82280000I-150000J0D01*
G01*
X177050000Y-82280000D01*
G75*
G02*
X176900000Y-82130000I0J150000D01*
G01*
X176900000Y-80730000D01*
G75*
G02*
X177050000Y-80580000I150000J0D01*
G01*
G37*
G36*
G01*
X177050000Y-74080000D02*
X182050000Y-74080000D01*
G75*
G02*
X182200000Y-74230000I0J-150000D01*
G01*
X182200000Y-75630000D01*
G75*
G02*
X182050000Y-75780000I-150000J0D01*
G01*
X177050000Y-75780000D01*
G75*
G02*
X176900000Y-75630000I0J150000D01*
G01*
X176900000Y-74230000D01*
G75*
G02*
X177050000Y-74080000I150000J0D01*
G01*
G37*
D13*
X177800000Y-81430000D03*
X177800000Y-74930000D03*
%TD*%
D10*
%TO.C,U2*%
X139700000Y-76200000D03*
X124460000Y-127000000D03*
X139700000Y-78740000D03*
X124460000Y-124460000D03*
X139700000Y-81280000D03*
X124460000Y-121920000D03*
X139700000Y-83820000D03*
X124460000Y-119380000D03*
X139700000Y-86360000D03*
X124460000Y-116840000D03*
X139700000Y-88900000D03*
X124460000Y-114300000D03*
X139700000Y-91440000D03*
X124460000Y-111760000D03*
X139700000Y-93980000D03*
X124460000Y-109220000D03*
X139700000Y-96520000D03*
X124460000Y-106680000D03*
X139700000Y-99060000D03*
X124460000Y-104140000D03*
X139700000Y-101600000D03*
X124460000Y-101600000D03*
X139700000Y-104140000D03*
X124460000Y-99060000D03*
X139700000Y-106680000D03*
X124460000Y-96520000D03*
X139700000Y-109220000D03*
X124460000Y-93980000D03*
X139700000Y-111760000D03*
X124460000Y-91440000D03*
X139700000Y-114300000D03*
X124460000Y-88900000D03*
X139700000Y-116840000D03*
X124460000Y-86360000D03*
X139700000Y-119380000D03*
X124460000Y-83820000D03*
X139700000Y-121920000D03*
X124460000Y-81280000D03*
X139700000Y-124460000D03*
X124460000Y-78740000D03*
X139700000Y-127000000D03*
G36*
G01*
X123510000Y-77000000D02*
X123510000Y-75400000D01*
G75*
G02*
X123660000Y-75250000I150000J0D01*
G01*
X125260000Y-75250000D01*
G75*
G02*
X125410000Y-75400000I0J-150000D01*
G01*
X125410000Y-77000000D01*
G75*
G02*
X125260000Y-77150000I-150000J0D01*
G01*
X123660000Y-77150000D01*
G75*
G02*
X123510000Y-77000000I0J150000D01*
G01*
G37*
%TD*%
%TO.C,U1*%
X134620000Y-91440000D03*
X119380000Y-142240000D03*
X134620000Y-93980000D03*
X119380000Y-139700000D03*
X134620000Y-96520000D03*
X119380000Y-137160000D03*
X134620000Y-99060000D03*
X119380000Y-134620000D03*
X134620000Y-101600000D03*
X119380000Y-132080000D03*
X134620000Y-104140000D03*
X119380000Y-129540000D03*
X134620000Y-106680000D03*
X119380000Y-127000000D03*
X134620000Y-109220000D03*
X119380000Y-124460000D03*
X134620000Y-111760000D03*
X119380000Y-121920000D03*
X134620000Y-114300000D03*
X119380000Y-119380000D03*
X134620000Y-116840000D03*
X119380000Y-116840000D03*
X134620000Y-119380000D03*
X119380000Y-114300000D03*
X134620000Y-121920000D03*
X119380000Y-111760000D03*
X134620000Y-124460000D03*
X119380000Y-109220000D03*
X134620000Y-127000000D03*
X119380000Y-106680000D03*
X134620000Y-129540000D03*
X119380000Y-104140000D03*
X134620000Y-132080000D03*
X119380000Y-101600000D03*
X134620000Y-134620000D03*
X119380000Y-99060000D03*
X134620000Y-137160000D03*
X119380000Y-96520000D03*
X134620000Y-139700000D03*
X119380000Y-93980000D03*
X134620000Y-142240000D03*
G36*
G01*
X118430000Y-92240000D02*
X118430000Y-90640000D01*
G75*
G02*
X118580000Y-90490000I150000J0D01*
G01*
X120180000Y-90490000D01*
G75*
G02*
X120330000Y-90640000I0J-150000D01*
G01*
X120330000Y-92240000D01*
G75*
G02*
X120180000Y-92390000I-150000J0D01*
G01*
X118580000Y-92390000D01*
G75*
G02*
X118430000Y-92240000I0J150000D01*
G01*
G37*
%TD*%
M02*
