%TF.GenerationSoftware,KiCad,Pcbnew,(5.1.9)-1*%
%TF.CreationDate,2021-09-04T20:40:44+01:00*%
%TF.ProjectId,Blue Pill Kickstart Switcher,426c7565-2050-4696-9c6c-204b69636b73,1*%
%TF.SameCoordinates,Original*%
%TF.FileFunction,Legend,Bot*%
%TF.FilePolarity,Positive*%
%FSLAX46Y46*%
G04 Gerber Fmt 4.6, Leading zero omitted, Abs format (unit mm)*
G04 Created by KiCad (PCBNEW (5.1.9)-1) date 2021-09-04 20:40:44*
%MOMM*%
%LPD*%
G01*
G04 APERTURE LIST*
%ADD10C,0.150000*%
%ADD11C,0.120000*%
G04 APERTURE END LIST*
D10*
X182198666Y-123740000D02*
X182365333Y-123740000D01*
X182365333Y-122740000D01*
X182198666Y-122740000D01*
X181932000Y-123506666D02*
X181932000Y-122806666D01*
X181665333Y-122806666D01*
X181598666Y-122840000D01*
X181565333Y-122873333D01*
X181532000Y-122940000D01*
X181532000Y-123040000D01*
X181565333Y-123106666D01*
X181598666Y-123140000D01*
X181665333Y-123173333D01*
X181932000Y-123173333D01*
X181265333Y-123306666D02*
X180932000Y-123306666D01*
X181332000Y-123506666D02*
X181098666Y-122806666D01*
X180865333Y-123506666D01*
X180265333Y-123506666D02*
X180665333Y-123506666D01*
X180465333Y-123506666D02*
X180465333Y-122806666D01*
X180532000Y-122906666D01*
X180598666Y-122973333D01*
X180665333Y-123006666D01*
X179832000Y-122806666D02*
X179765333Y-122806666D01*
X179698666Y-122840000D01*
X179665333Y-122873333D01*
X179632000Y-122940000D01*
X179598666Y-123073333D01*
X179598666Y-123240000D01*
X179632000Y-123373333D01*
X179665333Y-123440000D01*
X179698666Y-123473333D01*
X179765333Y-123506666D01*
X179832000Y-123506666D01*
X179898666Y-123473333D01*
X179932000Y-123440000D01*
X179965333Y-123373333D01*
X179998666Y-123240000D01*
X179998666Y-123073333D01*
X179965333Y-122940000D01*
X179932000Y-122873333D01*
X179898666Y-122840000D01*
X179832000Y-122806666D01*
X179365333Y-123740000D02*
X179198666Y-123740000D01*
X179198666Y-122740000D01*
X179365333Y-122740000D01*
X177898666Y-123506666D02*
X178132000Y-123173333D01*
X178298666Y-123506666D02*
X178298666Y-122806666D01*
X178032000Y-122806666D01*
X177965333Y-122840000D01*
X177932000Y-122873333D01*
X177898666Y-122940000D01*
X177898666Y-123040000D01*
X177932000Y-123106666D01*
X177965333Y-123140000D01*
X178032000Y-123173333D01*
X178298666Y-123173333D01*
X177665333Y-122806666D02*
X177198666Y-123506666D01*
X177198666Y-122806666D02*
X177665333Y-123506666D01*
X182290000Y-121200000D02*
X182456666Y-121200000D01*
X182456666Y-120200000D01*
X182290000Y-120200000D01*
X182023333Y-120966666D02*
X182023333Y-120266666D01*
X181756666Y-120266666D01*
X181690000Y-120300000D01*
X181656666Y-120333333D01*
X181623333Y-120400000D01*
X181623333Y-120500000D01*
X181656666Y-120566666D01*
X181690000Y-120600000D01*
X181756666Y-120633333D01*
X182023333Y-120633333D01*
X181356666Y-120766666D02*
X181023333Y-120766666D01*
X181423333Y-120966666D02*
X181190000Y-120266666D01*
X180956666Y-120966666D01*
X180690000Y-120966666D02*
X180556666Y-120966666D01*
X180490000Y-120933333D01*
X180456666Y-120900000D01*
X180390000Y-120800000D01*
X180356666Y-120666666D01*
X180356666Y-120400000D01*
X180390000Y-120333333D01*
X180423333Y-120300000D01*
X180490000Y-120266666D01*
X180623333Y-120266666D01*
X180690000Y-120300000D01*
X180723333Y-120333333D01*
X180756666Y-120400000D01*
X180756666Y-120566666D01*
X180723333Y-120633333D01*
X180690000Y-120666666D01*
X180623333Y-120700000D01*
X180490000Y-120700000D01*
X180423333Y-120666666D01*
X180390000Y-120633333D01*
X180356666Y-120566666D01*
X180123333Y-121200000D02*
X179956666Y-121200000D01*
X179956666Y-120200000D01*
X180123333Y-120200000D01*
X179156666Y-120266666D02*
X178756666Y-120266666D01*
X178956666Y-120966666D02*
X178956666Y-120266666D01*
X178590000Y-120266666D02*
X178123333Y-120966666D01*
X178123333Y-120266666D02*
X178590000Y-120966666D01*
X181965523Y-117710000D02*
X182041714Y-117671904D01*
X182156000Y-117671904D01*
X182270285Y-117710000D01*
X182346476Y-117786190D01*
X182384571Y-117862380D01*
X182422666Y-118014761D01*
X182422666Y-118129047D01*
X182384571Y-118281428D01*
X182346476Y-118357619D01*
X182270285Y-118433809D01*
X182156000Y-118471904D01*
X182079809Y-118471904D01*
X181965523Y-118433809D01*
X181927428Y-118395714D01*
X181927428Y-118129047D01*
X182079809Y-118129047D01*
X181584571Y-118471904D02*
X181584571Y-117671904D01*
X181127428Y-118471904D01*
X181127428Y-117671904D01*
X180746476Y-118471904D02*
X180746476Y-117671904D01*
X180556000Y-117671904D01*
X180441714Y-117710000D01*
X180365523Y-117786190D01*
X180327428Y-117862380D01*
X180289333Y-118014761D01*
X180289333Y-118129047D01*
X180327428Y-118281428D01*
X180365523Y-118357619D01*
X180441714Y-118433809D01*
X180556000Y-118471904D01*
X180746476Y-118471904D01*
X182384571Y-115627142D02*
X181775047Y-115627142D01*
X182079809Y-115931904D02*
X182079809Y-115322380D01*
X181013142Y-115131904D02*
X181394095Y-115131904D01*
X181432190Y-115512857D01*
X181394095Y-115474761D01*
X181317904Y-115436666D01*
X181127428Y-115436666D01*
X181051238Y-115474761D01*
X181013142Y-115512857D01*
X180975047Y-115589047D01*
X180975047Y-115779523D01*
X181013142Y-115855714D01*
X181051238Y-115893809D01*
X181127428Y-115931904D01*
X181317904Y-115931904D01*
X181394095Y-115893809D01*
X181432190Y-115855714D01*
X180746476Y-115131904D02*
X180479809Y-115931904D01*
X180213142Y-115131904D01*
X175924333Y-116063333D02*
X175957666Y-116163333D01*
X175957666Y-116330000D01*
X175924333Y-116396666D01*
X175891000Y-116430000D01*
X175824333Y-116463333D01*
X175757666Y-116463333D01*
X175691000Y-116430000D01*
X175657666Y-116396666D01*
X175624333Y-116330000D01*
X175591000Y-116196666D01*
X175557666Y-116130000D01*
X175524333Y-116096666D01*
X175457666Y-116063333D01*
X175391000Y-116063333D01*
X175324333Y-116096666D01*
X175291000Y-116130000D01*
X175257666Y-116196666D01*
X175257666Y-116363333D01*
X175291000Y-116463333D01*
X175924333Y-117030000D02*
X175957666Y-116963333D01*
X175957666Y-116830000D01*
X175924333Y-116763333D01*
X175857666Y-116730000D01*
X175591000Y-116730000D01*
X175524333Y-116763333D01*
X175491000Y-116830000D01*
X175491000Y-116963333D01*
X175524333Y-117030000D01*
X175591000Y-117063333D01*
X175657666Y-117063333D01*
X175724333Y-116730000D01*
X175957666Y-117363333D02*
X175491000Y-117363333D01*
X175624333Y-117363333D02*
X175557666Y-117396666D01*
X175524333Y-117430000D01*
X175491000Y-117496666D01*
X175491000Y-117563333D01*
X175957666Y-117796666D02*
X175491000Y-117796666D01*
X175257666Y-117796666D02*
X175291000Y-117763333D01*
X175324333Y-117796666D01*
X175291000Y-117830000D01*
X175257666Y-117796666D01*
X175324333Y-117796666D01*
X175957666Y-118430000D02*
X175591000Y-118430000D01*
X175524333Y-118396666D01*
X175491000Y-118330000D01*
X175491000Y-118196666D01*
X175524333Y-118130000D01*
X175924333Y-118430000D02*
X175957666Y-118363333D01*
X175957666Y-118196666D01*
X175924333Y-118130000D01*
X175857666Y-118096666D01*
X175791000Y-118096666D01*
X175724333Y-118130000D01*
X175691000Y-118196666D01*
X175691000Y-118363333D01*
X175657666Y-118430000D01*
X175957666Y-118863333D02*
X175924333Y-118796666D01*
X175857666Y-118763333D01*
X175257666Y-118763333D01*
X175891000Y-120063333D02*
X175924333Y-120030000D01*
X175957666Y-119930000D01*
X175957666Y-119863333D01*
X175924333Y-119763333D01*
X175857666Y-119696666D01*
X175791000Y-119663333D01*
X175657666Y-119630000D01*
X175557666Y-119630000D01*
X175424333Y-119663333D01*
X175357666Y-119696666D01*
X175291000Y-119763333D01*
X175257666Y-119863333D01*
X175257666Y-119930000D01*
X175291000Y-120030000D01*
X175324333Y-120063333D01*
X175957666Y-120463333D02*
X175924333Y-120396666D01*
X175891000Y-120363333D01*
X175824333Y-120330000D01*
X175624333Y-120330000D01*
X175557666Y-120363333D01*
X175524333Y-120396666D01*
X175491000Y-120463333D01*
X175491000Y-120563333D01*
X175524333Y-120630000D01*
X175557666Y-120663333D01*
X175624333Y-120696666D01*
X175824333Y-120696666D01*
X175891000Y-120663333D01*
X175924333Y-120630000D01*
X175957666Y-120563333D01*
X175957666Y-120463333D01*
X175491000Y-120996666D02*
X175957666Y-120996666D01*
X175557666Y-120996666D02*
X175524333Y-121030000D01*
X175491000Y-121096666D01*
X175491000Y-121196666D01*
X175524333Y-121263333D01*
X175591000Y-121296666D01*
X175957666Y-121296666D01*
X175491000Y-121530000D02*
X175491000Y-121796666D01*
X175957666Y-121630000D02*
X175357666Y-121630000D01*
X175291000Y-121663333D01*
X175257666Y-121730000D01*
X175257666Y-121796666D01*
X175957666Y-122030000D02*
X175491000Y-122030000D01*
X175257666Y-122030000D02*
X175291000Y-121996666D01*
X175324333Y-122030000D01*
X175291000Y-122063333D01*
X175257666Y-122030000D01*
X175324333Y-122030000D01*
X175491000Y-122663333D02*
X176057666Y-122663333D01*
X176124333Y-122630000D01*
X176157666Y-122596666D01*
X176191000Y-122530000D01*
X176191000Y-122430000D01*
X176157666Y-122363333D01*
X175924333Y-122663333D02*
X175957666Y-122596666D01*
X175957666Y-122463333D01*
X175924333Y-122396666D01*
X175891000Y-122363333D01*
X175824333Y-122330000D01*
X175624333Y-122330000D01*
X175557666Y-122363333D01*
X175524333Y-122396666D01*
X175491000Y-122463333D01*
X175491000Y-122596666D01*
X175524333Y-122663333D01*
X154042619Y-140634404D02*
X155042619Y-140634404D01*
X155042619Y-140253452D01*
X154995000Y-140158214D01*
X154947380Y-140110595D01*
X154852142Y-140062976D01*
X154709285Y-140062976D01*
X154614047Y-140110595D01*
X154566428Y-140158214D01*
X154518809Y-140253452D01*
X154518809Y-140634404D01*
X154137857Y-139062976D02*
X154090238Y-139110595D01*
X154042619Y-139253452D01*
X154042619Y-139348690D01*
X154090238Y-139491547D01*
X154185476Y-139586785D01*
X154280714Y-139634404D01*
X154471190Y-139682023D01*
X154614047Y-139682023D01*
X154804523Y-139634404D01*
X154899761Y-139586785D01*
X154995000Y-139491547D01*
X155042619Y-139348690D01*
X155042619Y-139253452D01*
X154995000Y-139110595D01*
X154947380Y-139062976D01*
X154566428Y-138301071D02*
X154518809Y-138158214D01*
X154471190Y-138110595D01*
X154375952Y-138062976D01*
X154233095Y-138062976D01*
X154137857Y-138110595D01*
X154090238Y-138158214D01*
X154042619Y-138253452D01*
X154042619Y-138634404D01*
X155042619Y-138634404D01*
X155042619Y-138301071D01*
X154995000Y-138205833D01*
X154947380Y-138158214D01*
X154852142Y-138110595D01*
X154756904Y-138110595D01*
X154661666Y-138158214D01*
X154614047Y-138205833D01*
X154566428Y-138301071D01*
X154566428Y-138634404D01*
X154042619Y-136443928D02*
X155042619Y-136443928D01*
X154090238Y-136443928D02*
X154042619Y-136539166D01*
X154042619Y-136729642D01*
X154090238Y-136824880D01*
X154137857Y-136872500D01*
X154233095Y-136920119D01*
X154518809Y-136920119D01*
X154614047Y-136872500D01*
X154661666Y-136824880D01*
X154709285Y-136729642D01*
X154709285Y-136539166D01*
X154661666Y-136443928D01*
X154090238Y-135586785D02*
X154042619Y-135682023D01*
X154042619Y-135872500D01*
X154090238Y-135967738D01*
X154185476Y-136015357D01*
X154566428Y-136015357D01*
X154661666Y-135967738D01*
X154709285Y-135872500D01*
X154709285Y-135682023D01*
X154661666Y-135586785D01*
X154566428Y-135539166D01*
X154471190Y-135539166D01*
X154375952Y-136015357D01*
X154090238Y-135158214D02*
X154042619Y-135062976D01*
X154042619Y-134872500D01*
X154090238Y-134777261D01*
X154185476Y-134729642D01*
X154233095Y-134729642D01*
X154328333Y-134777261D01*
X154375952Y-134872500D01*
X154375952Y-135015357D01*
X154423571Y-135110595D01*
X154518809Y-135158214D01*
X154566428Y-135158214D01*
X154661666Y-135110595D01*
X154709285Y-135015357D01*
X154709285Y-134872500D01*
X154661666Y-134777261D01*
X154042619Y-134301071D02*
X154709285Y-134301071D01*
X155042619Y-134301071D02*
X154995000Y-134348690D01*
X154947380Y-134301071D01*
X154995000Y-134253452D01*
X155042619Y-134301071D01*
X154947380Y-134301071D01*
X154709285Y-133396309D02*
X153899761Y-133396309D01*
X153804523Y-133443928D01*
X153756904Y-133491547D01*
X153709285Y-133586785D01*
X153709285Y-133729642D01*
X153756904Y-133824880D01*
X154090238Y-133396309D02*
X154042619Y-133491547D01*
X154042619Y-133682023D01*
X154090238Y-133777261D01*
X154137857Y-133824880D01*
X154233095Y-133872500D01*
X154518809Y-133872500D01*
X154614047Y-133824880D01*
X154661666Y-133777261D01*
X154709285Y-133682023D01*
X154709285Y-133491547D01*
X154661666Y-133396309D01*
X154709285Y-132920119D02*
X154042619Y-132920119D01*
X154614047Y-132920119D02*
X154661666Y-132872500D01*
X154709285Y-132777261D01*
X154709285Y-132634404D01*
X154661666Y-132539166D01*
X154566428Y-132491547D01*
X154042619Y-132491547D01*
X154042619Y-131253452D02*
X155042619Y-131253452D01*
X154661666Y-131253452D02*
X154709285Y-131158214D01*
X154709285Y-130967738D01*
X154661666Y-130872500D01*
X154614047Y-130824880D01*
X154518809Y-130777261D01*
X154233095Y-130777261D01*
X154137857Y-130824880D01*
X154090238Y-130872500D01*
X154042619Y-130967738D01*
X154042619Y-131158214D01*
X154090238Y-131253452D01*
X154709285Y-130443928D02*
X154042619Y-130205833D01*
X154709285Y-129967738D02*
X154042619Y-130205833D01*
X153804523Y-130301071D01*
X153756904Y-130348690D01*
X153709285Y-130443928D01*
X154090238Y-128872500D02*
X154042619Y-128777261D01*
X154042619Y-128586785D01*
X154090238Y-128491547D01*
X154185476Y-128443928D01*
X154233095Y-128443928D01*
X154328333Y-128491547D01*
X154375952Y-128586785D01*
X154375952Y-128729642D01*
X154423571Y-128824880D01*
X154518809Y-128872500D01*
X154566428Y-128872500D01*
X154661666Y-128824880D01*
X154709285Y-128729642D01*
X154709285Y-128586785D01*
X154661666Y-128491547D01*
X154042619Y-127872500D02*
X154090238Y-127967738D01*
X154137857Y-128015357D01*
X154233095Y-128062976D01*
X154518809Y-128062976D01*
X154614047Y-128015357D01*
X154661666Y-127967738D01*
X154709285Y-127872500D01*
X154709285Y-127729642D01*
X154661666Y-127634404D01*
X154614047Y-127586785D01*
X154518809Y-127539166D01*
X154233095Y-127539166D01*
X154137857Y-127586785D01*
X154090238Y-127634404D01*
X154042619Y-127729642D01*
X154042619Y-127872500D01*
X154042619Y-126967738D02*
X154090238Y-127062976D01*
X154185476Y-127110595D01*
X155042619Y-127110595D01*
X154042619Y-126158214D02*
X154566428Y-126158214D01*
X154661666Y-126205833D01*
X154709285Y-126301071D01*
X154709285Y-126491547D01*
X154661666Y-126586785D01*
X154090238Y-126158214D02*
X154042619Y-126253452D01*
X154042619Y-126491547D01*
X154090238Y-126586785D01*
X154185476Y-126634404D01*
X154280714Y-126634404D01*
X154375952Y-126586785D01*
X154423571Y-126491547D01*
X154423571Y-126253452D01*
X154471190Y-126158214D01*
X154042619Y-125682023D02*
X154709285Y-125682023D01*
X154518809Y-125682023D02*
X154614047Y-125634404D01*
X154661666Y-125586785D01*
X154709285Y-125491547D01*
X154709285Y-125396309D01*
X154042619Y-125062976D02*
X154709285Y-125062976D01*
X154614047Y-125062976D02*
X154661666Y-125015357D01*
X154709285Y-124920119D01*
X154709285Y-124777261D01*
X154661666Y-124682023D01*
X154566428Y-124634404D01*
X154042619Y-124634404D01*
X154566428Y-124634404D02*
X154661666Y-124586785D01*
X154709285Y-124491547D01*
X154709285Y-124348690D01*
X154661666Y-124253452D01*
X154566428Y-124205833D01*
X154042619Y-124205833D01*
X154042619Y-123586785D02*
X154090238Y-123682023D01*
X154137857Y-123729642D01*
X154233095Y-123777261D01*
X154518809Y-123777261D01*
X154614047Y-123729642D01*
X154661666Y-123682023D01*
X154709285Y-123586785D01*
X154709285Y-123443928D01*
X154661666Y-123348690D01*
X154614047Y-123301071D01*
X154518809Y-123253452D01*
X154233095Y-123253452D01*
X154137857Y-123301071D01*
X154090238Y-123348690D01*
X154042619Y-123443928D01*
X154042619Y-123586785D01*
X154709285Y-122824880D02*
X154042619Y-122824880D01*
X154614047Y-122824880D02*
X154661666Y-122777261D01*
X154709285Y-122682023D01*
X154709285Y-122539166D01*
X154661666Y-122443928D01*
X154566428Y-122396309D01*
X154042619Y-122396309D01*
X152392619Y-140634404D02*
X153392619Y-140634404D01*
X152392619Y-140205833D02*
X152916428Y-140205833D01*
X153011666Y-140253452D01*
X153059285Y-140348690D01*
X153059285Y-140491547D01*
X153011666Y-140586785D01*
X152964047Y-140634404D01*
X153059285Y-139872500D02*
X153059285Y-139491547D01*
X153392619Y-139729642D02*
X152535476Y-139729642D01*
X152440238Y-139682023D01*
X152392619Y-139586785D01*
X152392619Y-139491547D01*
X153059285Y-139301071D02*
X153059285Y-138920119D01*
X153392619Y-139158214D02*
X152535476Y-139158214D01*
X152440238Y-139110595D01*
X152392619Y-139015357D01*
X152392619Y-138920119D01*
X153059285Y-138586785D02*
X152059285Y-138586785D01*
X153011666Y-138586785D02*
X153059285Y-138491547D01*
X153059285Y-138301071D01*
X153011666Y-138205833D01*
X152964047Y-138158214D01*
X152868809Y-138110595D01*
X152583095Y-138110595D01*
X152487857Y-138158214D01*
X152440238Y-138205833D01*
X152392619Y-138301071D01*
X152392619Y-138491547D01*
X152440238Y-138586785D01*
X152440238Y-137729642D02*
X152392619Y-137634404D01*
X152392619Y-137443928D01*
X152440238Y-137348690D01*
X152535476Y-137301071D01*
X152583095Y-137301071D01*
X152678333Y-137348690D01*
X152725952Y-137443928D01*
X152725952Y-137586785D01*
X152773571Y-137682023D01*
X152868809Y-137729642D01*
X152916428Y-137729642D01*
X153011666Y-137682023D01*
X153059285Y-137586785D01*
X153059285Y-137443928D01*
X153011666Y-137348690D01*
X152487857Y-136872500D02*
X152440238Y-136824880D01*
X152392619Y-136872500D01*
X152440238Y-136920119D01*
X152487857Y-136872500D01*
X152392619Y-136872500D01*
X153011666Y-136872500D02*
X152964047Y-136824880D01*
X152916428Y-136872500D01*
X152964047Y-136920119D01*
X153011666Y-136872500D01*
X152916428Y-136872500D01*
X153440238Y-135682023D02*
X152154523Y-136539166D01*
X153440238Y-134634404D02*
X152154523Y-135491547D01*
X153059285Y-133872500D02*
X152249761Y-133872500D01*
X152154523Y-133920119D01*
X152106904Y-133967738D01*
X152059285Y-134062976D01*
X152059285Y-134205833D01*
X152106904Y-134301071D01*
X152440238Y-133872500D02*
X152392619Y-133967738D01*
X152392619Y-134158214D01*
X152440238Y-134253452D01*
X152487857Y-134301071D01*
X152583095Y-134348690D01*
X152868809Y-134348690D01*
X152964047Y-134301071D01*
X153011666Y-134253452D01*
X153059285Y-134158214D01*
X153059285Y-133967738D01*
X153011666Y-133872500D01*
X152392619Y-133396309D02*
X153059285Y-133396309D01*
X153392619Y-133396309D02*
X153345000Y-133443928D01*
X153297380Y-133396309D01*
X153345000Y-133348690D01*
X153392619Y-133396309D01*
X153297380Y-133396309D01*
X153059285Y-133062976D02*
X153059285Y-132682023D01*
X153392619Y-132920119D02*
X152535476Y-132920119D01*
X152440238Y-132872500D01*
X152392619Y-132777261D01*
X152392619Y-132682023D01*
X152392619Y-132348690D02*
X153392619Y-132348690D01*
X152392619Y-131920119D02*
X152916428Y-131920119D01*
X153011666Y-131967738D01*
X153059285Y-132062976D01*
X153059285Y-132205833D01*
X153011666Y-132301071D01*
X152964047Y-132348690D01*
X153059285Y-131015357D02*
X152392619Y-131015357D01*
X153059285Y-131443928D02*
X152535476Y-131443928D01*
X152440238Y-131396309D01*
X152392619Y-131301071D01*
X152392619Y-131158214D01*
X152440238Y-131062976D01*
X152487857Y-131015357D01*
X152392619Y-130539166D02*
X153392619Y-130539166D01*
X153011666Y-130539166D02*
X153059285Y-130443928D01*
X153059285Y-130253452D01*
X153011666Y-130158214D01*
X152964047Y-130110595D01*
X152868809Y-130062976D01*
X152583095Y-130062976D01*
X152487857Y-130110595D01*
X152440238Y-130158214D01*
X152392619Y-130253452D01*
X152392619Y-130443928D01*
X152440238Y-130539166D01*
X152487857Y-129634404D02*
X152440238Y-129586785D01*
X152392619Y-129634404D01*
X152440238Y-129682023D01*
X152487857Y-129634404D01*
X152392619Y-129634404D01*
X152440238Y-128729642D02*
X152392619Y-128824880D01*
X152392619Y-129015357D01*
X152440238Y-129110595D01*
X152487857Y-129158214D01*
X152583095Y-129205833D01*
X152868809Y-129205833D01*
X152964047Y-129158214D01*
X153011666Y-129110595D01*
X153059285Y-129015357D01*
X153059285Y-128824880D01*
X153011666Y-128729642D01*
X152392619Y-128158214D02*
X152440238Y-128253452D01*
X152487857Y-128301071D01*
X152583095Y-128348690D01*
X152868809Y-128348690D01*
X152964047Y-128301071D01*
X153011666Y-128253452D01*
X153059285Y-128158214D01*
X153059285Y-128015357D01*
X153011666Y-127920119D01*
X152964047Y-127872500D01*
X152868809Y-127824880D01*
X152583095Y-127824880D01*
X152487857Y-127872500D01*
X152440238Y-127920119D01*
X152392619Y-128015357D01*
X152392619Y-128158214D01*
X152392619Y-127396309D02*
X153059285Y-127396309D01*
X152964047Y-127396309D02*
X153011666Y-127348690D01*
X153059285Y-127253452D01*
X153059285Y-127110595D01*
X153011666Y-127015357D01*
X152916428Y-126967738D01*
X152392619Y-126967738D01*
X152916428Y-126967738D02*
X153011666Y-126920119D01*
X153059285Y-126824880D01*
X153059285Y-126682023D01*
X153011666Y-126586785D01*
X152916428Y-126539166D01*
X152392619Y-126539166D01*
X153440238Y-125348690D02*
X152154523Y-126205833D01*
X152440238Y-125062976D02*
X152392619Y-124967738D01*
X152392619Y-124777261D01*
X152440238Y-124682023D01*
X152535476Y-124634404D01*
X152583095Y-124634404D01*
X152678333Y-124682023D01*
X152725952Y-124777261D01*
X152725952Y-124920119D01*
X152773571Y-125015357D01*
X152868809Y-125062976D01*
X152916428Y-125062976D01*
X153011666Y-125015357D01*
X153059285Y-124920119D01*
X153059285Y-124777261D01*
X153011666Y-124682023D01*
X152392619Y-124062976D02*
X152440238Y-124158214D01*
X152487857Y-124205833D01*
X152583095Y-124253452D01*
X152868809Y-124253452D01*
X152964047Y-124205833D01*
X153011666Y-124158214D01*
X153059285Y-124062976D01*
X153059285Y-123920119D01*
X153011666Y-123824880D01*
X152964047Y-123777261D01*
X152868809Y-123729642D01*
X152583095Y-123729642D01*
X152487857Y-123777261D01*
X152440238Y-123824880D01*
X152392619Y-123920119D01*
X152392619Y-124062976D01*
X152392619Y-123158214D02*
X152440238Y-123253452D01*
X152535476Y-123301071D01*
X153392619Y-123301071D01*
X152392619Y-122348690D02*
X152916428Y-122348690D01*
X153011666Y-122396309D01*
X153059285Y-122491547D01*
X153059285Y-122682023D01*
X153011666Y-122777261D01*
X152440238Y-122348690D02*
X152392619Y-122443928D01*
X152392619Y-122682023D01*
X152440238Y-122777261D01*
X152535476Y-122824880D01*
X152630714Y-122824880D01*
X152725952Y-122777261D01*
X152773571Y-122682023D01*
X152773571Y-122443928D01*
X152821190Y-122348690D01*
X152392619Y-121872500D02*
X153059285Y-121872500D01*
X152868809Y-121872500D02*
X152964047Y-121824880D01*
X153011666Y-121777261D01*
X153059285Y-121682023D01*
X153059285Y-121586785D01*
X152392619Y-121253452D02*
X153059285Y-121253452D01*
X152964047Y-121253452D02*
X153011666Y-121205833D01*
X153059285Y-121110595D01*
X153059285Y-120967738D01*
X153011666Y-120872500D01*
X152916428Y-120824880D01*
X152392619Y-120824880D01*
X152916428Y-120824880D02*
X153011666Y-120777261D01*
X153059285Y-120682023D01*
X153059285Y-120539166D01*
X153011666Y-120443928D01*
X152916428Y-120396309D01*
X152392619Y-120396309D01*
X152392619Y-119777261D02*
X152440238Y-119872500D01*
X152487857Y-119920119D01*
X152583095Y-119967738D01*
X152868809Y-119967738D01*
X152964047Y-119920119D01*
X153011666Y-119872500D01*
X153059285Y-119777261D01*
X153059285Y-119634404D01*
X153011666Y-119539166D01*
X152964047Y-119491547D01*
X152868809Y-119443928D01*
X152583095Y-119443928D01*
X152487857Y-119491547D01*
X152440238Y-119539166D01*
X152392619Y-119634404D01*
X152392619Y-119777261D01*
X153059285Y-119015357D02*
X152392619Y-119015357D01*
X152964047Y-119015357D02*
X153011666Y-118967738D01*
X153059285Y-118872500D01*
X153059285Y-118729642D01*
X153011666Y-118634404D01*
X152916428Y-118586785D01*
X152392619Y-118586785D01*
X159122619Y-140634404D02*
X160122619Y-140634404D01*
X159122619Y-140062976D02*
X159694047Y-140491547D01*
X160122619Y-140062976D02*
X159551190Y-140634404D01*
X159170238Y-139253452D02*
X159122619Y-139348690D01*
X159122619Y-139539166D01*
X159170238Y-139634404D01*
X159265476Y-139682023D01*
X159646428Y-139682023D01*
X159741666Y-139634404D01*
X159789285Y-139539166D01*
X159789285Y-139348690D01*
X159741666Y-139253452D01*
X159646428Y-139205833D01*
X159551190Y-139205833D01*
X159455952Y-139682023D01*
X159122619Y-138777261D02*
X159789285Y-138777261D01*
X160122619Y-138777261D02*
X160075000Y-138824880D01*
X160027380Y-138777261D01*
X160075000Y-138729642D01*
X160122619Y-138777261D01*
X160027380Y-138777261D01*
X159122619Y-138301071D02*
X159789285Y-138301071D01*
X159598809Y-138301071D02*
X159694047Y-138253452D01*
X159741666Y-138205833D01*
X159789285Y-138110595D01*
X159789285Y-138015357D01*
X159646428Y-136586785D02*
X159646428Y-136920119D01*
X159122619Y-136920119D02*
X160122619Y-136920119D01*
X160122619Y-136443928D01*
X159122619Y-136062976D02*
X159789285Y-136062976D01*
X159598809Y-136062976D02*
X159694047Y-136015357D01*
X159741666Y-135967738D01*
X159789285Y-135872500D01*
X159789285Y-135777261D01*
X159122619Y-135015357D02*
X159646428Y-135015357D01*
X159741666Y-135062976D01*
X159789285Y-135158214D01*
X159789285Y-135348690D01*
X159741666Y-135443928D01*
X159170238Y-135015357D02*
X159122619Y-135110595D01*
X159122619Y-135348690D01*
X159170238Y-135443928D01*
X159265476Y-135491547D01*
X159360714Y-135491547D01*
X159455952Y-135443928D01*
X159503571Y-135348690D01*
X159503571Y-135110595D01*
X159551190Y-135015357D01*
X159170238Y-134586785D02*
X159122619Y-134491547D01*
X159122619Y-134301071D01*
X159170238Y-134205833D01*
X159265476Y-134158214D01*
X159313095Y-134158214D01*
X159408333Y-134205833D01*
X159455952Y-134301071D01*
X159455952Y-134443928D01*
X159503571Y-134539166D01*
X159598809Y-134586785D01*
X159646428Y-134586785D01*
X159741666Y-134539166D01*
X159789285Y-134443928D01*
X159789285Y-134301071D01*
X159741666Y-134205833D01*
X159170238Y-133348690D02*
X159122619Y-133443928D01*
X159122619Y-133634404D01*
X159170238Y-133729642D01*
X159265476Y-133777261D01*
X159646428Y-133777261D01*
X159741666Y-133729642D01*
X159789285Y-133634404D01*
X159789285Y-133443928D01*
X159741666Y-133348690D01*
X159646428Y-133301071D01*
X159551190Y-133301071D01*
X159455952Y-133777261D01*
X159122619Y-132872500D02*
X159789285Y-132872500D01*
X159598809Y-132872500D02*
X159694047Y-132824880D01*
X159741666Y-132777261D01*
X159789285Y-132682023D01*
X159789285Y-132586785D01*
X160122619Y-132205833D02*
X159932142Y-132301071D01*
X159170238Y-131824880D02*
X159122619Y-131729642D01*
X159122619Y-131539166D01*
X159170238Y-131443928D01*
X159265476Y-131396309D01*
X159313095Y-131396309D01*
X159408333Y-131443928D01*
X159455952Y-131539166D01*
X159455952Y-131682023D01*
X159503571Y-131777261D01*
X159598809Y-131824880D01*
X159646428Y-131824880D01*
X159741666Y-131777261D01*
X159789285Y-131682023D01*
X159789285Y-131539166D01*
X159741666Y-131443928D01*
X159122619Y-130205833D02*
X160122619Y-130205833D01*
X159122619Y-129634404D02*
X159694047Y-130062976D01*
X160122619Y-129634404D02*
X159551190Y-130205833D01*
X159122619Y-129205833D02*
X159789285Y-129205833D01*
X160122619Y-129205833D02*
X160075000Y-129253452D01*
X160027380Y-129205833D01*
X160075000Y-129158214D01*
X160122619Y-129205833D01*
X160027380Y-129205833D01*
X159170238Y-128301071D02*
X159122619Y-128396309D01*
X159122619Y-128586785D01*
X159170238Y-128682023D01*
X159217857Y-128729642D01*
X159313095Y-128777261D01*
X159598809Y-128777261D01*
X159694047Y-128729642D01*
X159741666Y-128682023D01*
X159789285Y-128586785D01*
X159789285Y-128396309D01*
X159741666Y-128301071D01*
X159122619Y-127872500D02*
X160122619Y-127872500D01*
X159503571Y-127777261D02*
X159122619Y-127491547D01*
X159789285Y-127491547D02*
X159408333Y-127872500D01*
X159170238Y-127110595D02*
X159122619Y-127015357D01*
X159122619Y-126824880D01*
X159170238Y-126729642D01*
X159265476Y-126682023D01*
X159313095Y-126682023D01*
X159408333Y-126729642D01*
X159455952Y-126824880D01*
X159455952Y-126967738D01*
X159503571Y-127062976D01*
X159598809Y-127110595D01*
X159646428Y-127110595D01*
X159741666Y-127062976D01*
X159789285Y-126967738D01*
X159789285Y-126824880D01*
X159741666Y-126729642D01*
X159789285Y-126396309D02*
X159789285Y-126015357D01*
X160122619Y-126253452D02*
X159265476Y-126253452D01*
X159170238Y-126205833D01*
X159122619Y-126110595D01*
X159122619Y-126015357D01*
X159122619Y-125253452D02*
X159646428Y-125253452D01*
X159741666Y-125301071D01*
X159789285Y-125396309D01*
X159789285Y-125586785D01*
X159741666Y-125682023D01*
X159170238Y-125253452D02*
X159122619Y-125348690D01*
X159122619Y-125586785D01*
X159170238Y-125682023D01*
X159265476Y-125729642D01*
X159360714Y-125729642D01*
X159455952Y-125682023D01*
X159503571Y-125586785D01*
X159503571Y-125348690D01*
X159551190Y-125253452D01*
X159122619Y-124777261D02*
X159789285Y-124777261D01*
X159598809Y-124777261D02*
X159694047Y-124729642D01*
X159741666Y-124682023D01*
X159789285Y-124586785D01*
X159789285Y-124491547D01*
X159789285Y-124301071D02*
X159789285Y-123920119D01*
X160122619Y-124158214D02*
X159265476Y-124158214D01*
X159170238Y-124110595D01*
X159122619Y-124015357D01*
X159122619Y-123920119D01*
X159170238Y-122872500D02*
X159122619Y-122729642D01*
X159122619Y-122491547D01*
X159170238Y-122396309D01*
X159217857Y-122348690D01*
X159313095Y-122301071D01*
X159408333Y-122301071D01*
X159503571Y-122348690D01*
X159551190Y-122396309D01*
X159598809Y-122491547D01*
X159646428Y-122682023D01*
X159694047Y-122777261D01*
X159741666Y-122824880D01*
X159836904Y-122872500D01*
X159932142Y-122872500D01*
X160027380Y-122824880D01*
X160075000Y-122777261D01*
X160122619Y-122682023D01*
X160122619Y-122443928D01*
X160075000Y-122301071D01*
X159789285Y-121967738D02*
X159122619Y-121777261D01*
X159598809Y-121586785D01*
X159122619Y-121396309D01*
X159789285Y-121205833D01*
X159122619Y-120824880D02*
X159789285Y-120824880D01*
X160122619Y-120824880D02*
X160075000Y-120872500D01*
X160027380Y-120824880D01*
X160075000Y-120777261D01*
X160122619Y-120824880D01*
X160027380Y-120824880D01*
X159789285Y-120491547D02*
X159789285Y-120110595D01*
X160122619Y-120348690D02*
X159265476Y-120348690D01*
X159170238Y-120301071D01*
X159122619Y-120205833D01*
X159122619Y-120110595D01*
X159170238Y-119348690D02*
X159122619Y-119443928D01*
X159122619Y-119634404D01*
X159170238Y-119729642D01*
X159217857Y-119777261D01*
X159313095Y-119824880D01*
X159598809Y-119824880D01*
X159694047Y-119777261D01*
X159741666Y-119729642D01*
X159789285Y-119634404D01*
X159789285Y-119443928D01*
X159741666Y-119348690D01*
X159122619Y-118920119D02*
X160122619Y-118920119D01*
X159122619Y-118491547D02*
X159646428Y-118491547D01*
X159741666Y-118539166D01*
X159789285Y-118634404D01*
X159789285Y-118777261D01*
X159741666Y-118872500D01*
X159694047Y-118920119D01*
X159170238Y-117634404D02*
X159122619Y-117729642D01*
X159122619Y-117920119D01*
X159170238Y-118015357D01*
X159265476Y-118062976D01*
X159646428Y-118062976D01*
X159741666Y-118015357D01*
X159789285Y-117920119D01*
X159789285Y-117729642D01*
X159741666Y-117634404D01*
X159646428Y-117586785D01*
X159551190Y-117586785D01*
X159455952Y-118062976D01*
X159122619Y-117158214D02*
X159789285Y-117158214D01*
X159598809Y-117158214D02*
X159694047Y-117110595D01*
X159741666Y-117062976D01*
X159789285Y-116967738D01*
X159789285Y-116872500D01*
X159789285Y-115872500D02*
X159122619Y-115634404D01*
X159789285Y-115396309D01*
X160027380Y-115062976D02*
X160075000Y-115015357D01*
X160122619Y-114920119D01*
X160122619Y-114682023D01*
X160075000Y-114586785D01*
X160027380Y-114539166D01*
X159932142Y-114491547D01*
X159836904Y-114491547D01*
X159694047Y-114539166D01*
X159122619Y-115110595D01*
X159122619Y-114491547D01*
X158741666Y-113015357D02*
X158789285Y-113062976D01*
X158932142Y-113158214D01*
X159027380Y-113205833D01*
X159170238Y-113253452D01*
X159408333Y-113301071D01*
X159598809Y-113301071D01*
X159836904Y-113253452D01*
X159979761Y-113205833D01*
X160075000Y-113158214D01*
X160217857Y-113062976D01*
X160265476Y-113015357D01*
X159646428Y-112301071D02*
X159598809Y-112158214D01*
X159551190Y-112110595D01*
X159455952Y-112062976D01*
X159313095Y-112062976D01*
X159217857Y-112110595D01*
X159170238Y-112158214D01*
X159122619Y-112253452D01*
X159122619Y-112634404D01*
X160122619Y-112634404D01*
X160122619Y-112301071D01*
X160075000Y-112205833D01*
X160027380Y-112158214D01*
X159932142Y-112110595D01*
X159836904Y-112110595D01*
X159741666Y-112158214D01*
X159694047Y-112205833D01*
X159646428Y-112301071D01*
X159646428Y-112634404D01*
X159122619Y-111491547D02*
X159170238Y-111586785D01*
X159265476Y-111634404D01*
X160122619Y-111634404D01*
X159789285Y-110682023D02*
X159122619Y-110682023D01*
X159789285Y-111110595D02*
X159265476Y-111110595D01*
X159170238Y-111062976D01*
X159122619Y-110967738D01*
X159122619Y-110824880D01*
X159170238Y-110729642D01*
X159217857Y-110682023D01*
X159170238Y-109824880D02*
X159122619Y-109920119D01*
X159122619Y-110110595D01*
X159170238Y-110205833D01*
X159265476Y-110253452D01*
X159646428Y-110253452D01*
X159741666Y-110205833D01*
X159789285Y-110110595D01*
X159789285Y-109920119D01*
X159741666Y-109824880D01*
X159646428Y-109777261D01*
X159551190Y-109777261D01*
X159455952Y-110253452D01*
X159122619Y-108586785D02*
X160122619Y-108586785D01*
X160122619Y-108205833D01*
X160075000Y-108110595D01*
X160027380Y-108062976D01*
X159932142Y-108015357D01*
X159789285Y-108015357D01*
X159694047Y-108062976D01*
X159646428Y-108110595D01*
X159598809Y-108205833D01*
X159598809Y-108586785D01*
X159122619Y-107586785D02*
X159789285Y-107586785D01*
X160122619Y-107586785D02*
X160075000Y-107634404D01*
X160027380Y-107586785D01*
X160075000Y-107539166D01*
X160122619Y-107586785D01*
X160027380Y-107586785D01*
X159122619Y-106967738D02*
X159170238Y-107062976D01*
X159265476Y-107110595D01*
X160122619Y-107110595D01*
X159122619Y-106443928D02*
X159170238Y-106539166D01*
X159265476Y-106586785D01*
X160122619Y-106586785D01*
X158741666Y-106158214D02*
X158789285Y-106110595D01*
X158932142Y-106015357D01*
X159027380Y-105967738D01*
X159170238Y-105920119D01*
X159408333Y-105872500D01*
X159598809Y-105872500D01*
X159836904Y-105920119D01*
X159979761Y-105967738D01*
X160075000Y-106015357D01*
X160217857Y-106110595D01*
X160265476Y-106158214D01*
X157472619Y-140634404D02*
X158472619Y-140634404D01*
X157472619Y-140205833D02*
X157996428Y-140205833D01*
X158091666Y-140253452D01*
X158139285Y-140348690D01*
X158139285Y-140491547D01*
X158091666Y-140586785D01*
X158044047Y-140634404D01*
X158139285Y-139872500D02*
X158139285Y-139491547D01*
X158472619Y-139729642D02*
X157615476Y-139729642D01*
X157520238Y-139682023D01*
X157472619Y-139586785D01*
X157472619Y-139491547D01*
X158139285Y-139301071D02*
X158139285Y-138920119D01*
X158472619Y-139158214D02*
X157615476Y-139158214D01*
X157520238Y-139110595D01*
X157472619Y-139015357D01*
X157472619Y-138920119D01*
X158139285Y-138586785D02*
X157139285Y-138586785D01*
X158091666Y-138586785D02*
X158139285Y-138491547D01*
X158139285Y-138301071D01*
X158091666Y-138205833D01*
X158044047Y-138158214D01*
X157948809Y-138110595D01*
X157663095Y-138110595D01*
X157567857Y-138158214D01*
X157520238Y-138205833D01*
X157472619Y-138301071D01*
X157472619Y-138491547D01*
X157520238Y-138586785D01*
X157520238Y-137729642D02*
X157472619Y-137634404D01*
X157472619Y-137443928D01*
X157520238Y-137348690D01*
X157615476Y-137301071D01*
X157663095Y-137301071D01*
X157758333Y-137348690D01*
X157805952Y-137443928D01*
X157805952Y-137586785D01*
X157853571Y-137682023D01*
X157948809Y-137729642D01*
X157996428Y-137729642D01*
X158091666Y-137682023D01*
X158139285Y-137586785D01*
X158139285Y-137443928D01*
X158091666Y-137348690D01*
X157567857Y-136872500D02*
X157520238Y-136824880D01*
X157472619Y-136872500D01*
X157520238Y-136920119D01*
X157567857Y-136872500D01*
X157472619Y-136872500D01*
X158091666Y-136872500D02*
X158044047Y-136824880D01*
X157996428Y-136872500D01*
X158044047Y-136920119D01*
X158091666Y-136872500D01*
X157996428Y-136872500D01*
X158520238Y-135682023D02*
X157234523Y-136539166D01*
X158520238Y-134634404D02*
X157234523Y-135491547D01*
X158139285Y-133872500D02*
X157329761Y-133872500D01*
X157234523Y-133920119D01*
X157186904Y-133967738D01*
X157139285Y-134062976D01*
X157139285Y-134205833D01*
X157186904Y-134301071D01*
X157520238Y-133872500D02*
X157472619Y-133967738D01*
X157472619Y-134158214D01*
X157520238Y-134253452D01*
X157567857Y-134301071D01*
X157663095Y-134348690D01*
X157948809Y-134348690D01*
X158044047Y-134301071D01*
X158091666Y-134253452D01*
X158139285Y-134158214D01*
X158139285Y-133967738D01*
X158091666Y-133872500D01*
X157472619Y-133396309D02*
X158139285Y-133396309D01*
X158472619Y-133396309D02*
X158425000Y-133443928D01*
X158377380Y-133396309D01*
X158425000Y-133348690D01*
X158472619Y-133396309D01*
X158377380Y-133396309D01*
X158139285Y-133062976D02*
X158139285Y-132682023D01*
X158472619Y-132920119D02*
X157615476Y-132920119D01*
X157520238Y-132872500D01*
X157472619Y-132777261D01*
X157472619Y-132682023D01*
X157472619Y-132348690D02*
X158472619Y-132348690D01*
X157472619Y-131920119D02*
X157996428Y-131920119D01*
X158091666Y-131967738D01*
X158139285Y-132062976D01*
X158139285Y-132205833D01*
X158091666Y-132301071D01*
X158044047Y-132348690D01*
X158139285Y-131015357D02*
X157472619Y-131015357D01*
X158139285Y-131443928D02*
X157615476Y-131443928D01*
X157520238Y-131396309D01*
X157472619Y-131301071D01*
X157472619Y-131158214D01*
X157520238Y-131062976D01*
X157567857Y-131015357D01*
X157472619Y-130539166D02*
X158472619Y-130539166D01*
X158091666Y-130539166D02*
X158139285Y-130443928D01*
X158139285Y-130253452D01*
X158091666Y-130158214D01*
X158044047Y-130110595D01*
X157948809Y-130062976D01*
X157663095Y-130062976D01*
X157567857Y-130110595D01*
X157520238Y-130158214D01*
X157472619Y-130253452D01*
X157472619Y-130443928D01*
X157520238Y-130539166D01*
X157567857Y-129634404D02*
X157520238Y-129586785D01*
X157472619Y-129634404D01*
X157520238Y-129682023D01*
X157567857Y-129634404D01*
X157472619Y-129634404D01*
X157520238Y-128729642D02*
X157472619Y-128824880D01*
X157472619Y-129015357D01*
X157520238Y-129110595D01*
X157567857Y-129158214D01*
X157663095Y-129205833D01*
X157948809Y-129205833D01*
X158044047Y-129158214D01*
X158091666Y-129110595D01*
X158139285Y-129015357D01*
X158139285Y-128824880D01*
X158091666Y-128729642D01*
X157472619Y-128158214D02*
X157520238Y-128253452D01*
X157567857Y-128301071D01*
X157663095Y-128348690D01*
X157948809Y-128348690D01*
X158044047Y-128301071D01*
X158091666Y-128253452D01*
X158139285Y-128158214D01*
X158139285Y-128015357D01*
X158091666Y-127920119D01*
X158044047Y-127872500D01*
X157948809Y-127824880D01*
X157663095Y-127824880D01*
X157567857Y-127872500D01*
X157520238Y-127920119D01*
X157472619Y-128015357D01*
X157472619Y-128158214D01*
X157472619Y-127396309D02*
X158139285Y-127396309D01*
X158044047Y-127396309D02*
X158091666Y-127348690D01*
X158139285Y-127253452D01*
X158139285Y-127110595D01*
X158091666Y-127015357D01*
X157996428Y-126967738D01*
X157472619Y-126967738D01*
X157996428Y-126967738D02*
X158091666Y-126920119D01*
X158139285Y-126824880D01*
X158139285Y-126682023D01*
X158091666Y-126586785D01*
X157996428Y-126539166D01*
X157472619Y-126539166D01*
X158520238Y-125348690D02*
X157234523Y-126205833D01*
X157472619Y-125015357D02*
X158472619Y-125015357D01*
X157853571Y-124920119D02*
X157472619Y-124634404D01*
X158139285Y-124634404D02*
X157758333Y-125015357D01*
X157520238Y-123824880D02*
X157472619Y-123920119D01*
X157472619Y-124110595D01*
X157520238Y-124205833D01*
X157615476Y-124253452D01*
X157996428Y-124253452D01*
X158091666Y-124205833D01*
X158139285Y-124110595D01*
X158139285Y-123920119D01*
X158091666Y-123824880D01*
X157996428Y-123777261D01*
X157901190Y-123777261D01*
X157805952Y-124253452D01*
X157472619Y-123348690D02*
X158139285Y-123348690D01*
X158472619Y-123348690D02*
X158425000Y-123396309D01*
X158377380Y-123348690D01*
X158425000Y-123301071D01*
X158472619Y-123348690D01*
X158377380Y-123348690D01*
X157472619Y-122872500D02*
X158139285Y-122872500D01*
X157948809Y-122872500D02*
X158044047Y-122824880D01*
X158091666Y-122777261D01*
X158139285Y-122682023D01*
X158139285Y-122586785D01*
X158139285Y-122396309D02*
X158139285Y-122015357D01*
X157472619Y-122253452D02*
X158329761Y-122253452D01*
X158425000Y-122205833D01*
X158472619Y-122110595D01*
X158472619Y-122015357D01*
X158520238Y-120967738D02*
X157234523Y-121824880D01*
X157472619Y-120634404D02*
X158472619Y-120634404D01*
X158472619Y-120253452D01*
X158425000Y-120158214D01*
X158377380Y-120110595D01*
X158282142Y-120062976D01*
X158139285Y-120062976D01*
X158044047Y-120110595D01*
X157996428Y-120158214D01*
X157948809Y-120253452D01*
X157948809Y-120634404D01*
X157567857Y-119062976D02*
X157520238Y-119110595D01*
X157472619Y-119253452D01*
X157472619Y-119348690D01*
X157520238Y-119491547D01*
X157615476Y-119586785D01*
X157710714Y-119634404D01*
X157901190Y-119682023D01*
X158044047Y-119682023D01*
X158234523Y-119634404D01*
X158329761Y-119586785D01*
X158425000Y-119491547D01*
X158472619Y-119348690D01*
X158472619Y-119253452D01*
X158425000Y-119110595D01*
X158377380Y-119062976D01*
X157996428Y-118301071D02*
X157948809Y-118158214D01*
X157901190Y-118110595D01*
X157805952Y-118062976D01*
X157663095Y-118062976D01*
X157567857Y-118110595D01*
X157520238Y-118158214D01*
X157472619Y-118253452D01*
X157472619Y-118634404D01*
X158472619Y-118634404D01*
X158472619Y-118301071D01*
X158425000Y-118205833D01*
X158377380Y-118158214D01*
X158282142Y-118110595D01*
X158186904Y-118110595D01*
X158091666Y-118158214D01*
X158044047Y-118205833D01*
X157996428Y-118301071D01*
X157996428Y-118634404D01*
X157853571Y-117634404D02*
X157853571Y-116872500D01*
X157472619Y-116396309D02*
X158472619Y-116396309D01*
X158472619Y-116015357D01*
X158425000Y-115920119D01*
X158377380Y-115872500D01*
X158282142Y-115824880D01*
X158139285Y-115824880D01*
X158044047Y-115872500D01*
X157996428Y-115920119D01*
X157948809Y-116015357D01*
X157948809Y-116396309D01*
X157472619Y-115396309D02*
X158139285Y-115396309D01*
X157948809Y-115396309D02*
X158044047Y-115348690D01*
X158091666Y-115301071D01*
X158139285Y-115205833D01*
X158139285Y-115110595D01*
X157472619Y-114634404D02*
X157520238Y-114729642D01*
X157567857Y-114777261D01*
X157663095Y-114824880D01*
X157948809Y-114824880D01*
X158044047Y-114777261D01*
X158091666Y-114729642D01*
X158139285Y-114634404D01*
X158139285Y-114491547D01*
X158091666Y-114396309D01*
X158044047Y-114348690D01*
X157948809Y-114301071D01*
X157663095Y-114301071D01*
X157567857Y-114348690D01*
X157520238Y-114396309D01*
X157472619Y-114491547D01*
X157472619Y-114634404D01*
X158139285Y-113872500D02*
X157282142Y-113872500D01*
X157186904Y-113920119D01*
X157139285Y-114015357D01*
X157139285Y-114062976D01*
X158472619Y-113872500D02*
X158425000Y-113920119D01*
X158377380Y-113872500D01*
X158425000Y-113824880D01*
X158472619Y-113872500D01*
X158377380Y-113872500D01*
X157520238Y-113015357D02*
X157472619Y-113110595D01*
X157472619Y-113301071D01*
X157520238Y-113396309D01*
X157615476Y-113443928D01*
X157996428Y-113443928D01*
X158091666Y-113396309D01*
X158139285Y-113301071D01*
X158139285Y-113110595D01*
X158091666Y-113015357D01*
X157996428Y-112967738D01*
X157901190Y-112967738D01*
X157805952Y-113443928D01*
X157520238Y-112110595D02*
X157472619Y-112205833D01*
X157472619Y-112396309D01*
X157520238Y-112491547D01*
X157567857Y-112539166D01*
X157663095Y-112586785D01*
X157948809Y-112586785D01*
X158044047Y-112539166D01*
X158091666Y-112491547D01*
X158139285Y-112396309D01*
X158139285Y-112205833D01*
X158091666Y-112110595D01*
X158139285Y-111824880D02*
X158139285Y-111443928D01*
X158472619Y-111682023D02*
X157615476Y-111682023D01*
X157520238Y-111634404D01*
X157472619Y-111539166D01*
X157472619Y-111443928D01*
X157520238Y-111158214D02*
X157472619Y-111062976D01*
X157472619Y-110872500D01*
X157520238Y-110777261D01*
X157615476Y-110729642D01*
X157663095Y-110729642D01*
X157758333Y-110777261D01*
X157805952Y-110872500D01*
X157805952Y-111015357D01*
X157853571Y-111110595D01*
X157948809Y-111158214D01*
X157996428Y-111158214D01*
X158091666Y-111110595D01*
X158139285Y-111015357D01*
X158139285Y-110872500D01*
X158091666Y-110777261D01*
X158520238Y-109586785D02*
X157234523Y-110443928D01*
X158139285Y-109348690D02*
X157472619Y-109158214D01*
X157948809Y-108967738D01*
X157472619Y-108777261D01*
X158139285Y-108586785D01*
X157472619Y-108205833D02*
X158139285Y-108205833D01*
X158472619Y-108205833D02*
X158425000Y-108253452D01*
X158377380Y-108205833D01*
X158425000Y-108158214D01*
X158472619Y-108205833D01*
X158377380Y-108205833D01*
X157472619Y-107729642D02*
X158472619Y-107729642D01*
X157853571Y-107634404D02*
X157472619Y-107348690D01*
X158139285Y-107348690D02*
X157758333Y-107729642D01*
X157472619Y-106920119D02*
X158139285Y-106920119D01*
X158472619Y-106920119D02*
X158425000Y-106967738D01*
X158377380Y-106920119D01*
X158425000Y-106872500D01*
X158472619Y-106920119D01*
X158377380Y-106920119D01*
X158520238Y-105729642D02*
X157234523Y-106586785D01*
X157472619Y-105396309D02*
X158472619Y-105396309D01*
X157472619Y-104824880D02*
X158044047Y-105253452D01*
X158472619Y-104824880D02*
X157901190Y-105396309D01*
X157472619Y-104396309D02*
X158139285Y-104396309D01*
X158472619Y-104396309D02*
X158425000Y-104443928D01*
X158377380Y-104396309D01*
X158425000Y-104348690D01*
X158472619Y-104396309D01*
X158377380Y-104396309D01*
X157520238Y-103491547D02*
X157472619Y-103586785D01*
X157472619Y-103777261D01*
X157520238Y-103872500D01*
X157567857Y-103920119D01*
X157663095Y-103967738D01*
X157948809Y-103967738D01*
X158044047Y-103920119D01*
X158091666Y-103872500D01*
X158139285Y-103777261D01*
X158139285Y-103586785D01*
X158091666Y-103491547D01*
X157472619Y-103062976D02*
X158472619Y-103062976D01*
X157853571Y-102967738D02*
X157472619Y-102682023D01*
X158139285Y-102682023D02*
X157758333Y-103062976D01*
X157520238Y-102301071D02*
X157472619Y-102205833D01*
X157472619Y-102015357D01*
X157520238Y-101920119D01*
X157615476Y-101872500D01*
X157663095Y-101872500D01*
X157758333Y-101920119D01*
X157805952Y-102015357D01*
X157805952Y-102158214D01*
X157853571Y-102253452D01*
X157948809Y-102301071D01*
X157996428Y-102301071D01*
X158091666Y-102253452D01*
X158139285Y-102158214D01*
X158139285Y-102015357D01*
X158091666Y-101920119D01*
X158139285Y-101586785D02*
X158139285Y-101205833D01*
X158472619Y-101443928D02*
X157615476Y-101443928D01*
X157520238Y-101396309D01*
X157472619Y-101301071D01*
X157472619Y-101205833D01*
X157472619Y-100443928D02*
X157996428Y-100443928D01*
X158091666Y-100491547D01*
X158139285Y-100586785D01*
X158139285Y-100777261D01*
X158091666Y-100872500D01*
X157520238Y-100443928D02*
X157472619Y-100539166D01*
X157472619Y-100777261D01*
X157520238Y-100872500D01*
X157615476Y-100920119D01*
X157710714Y-100920119D01*
X157805952Y-100872500D01*
X157853571Y-100777261D01*
X157853571Y-100539166D01*
X157901190Y-100443928D01*
X157472619Y-99967738D02*
X158139285Y-99967738D01*
X157948809Y-99967738D02*
X158044047Y-99920119D01*
X158091666Y-99872500D01*
X158139285Y-99777261D01*
X158139285Y-99682023D01*
X158139285Y-99491547D02*
X158139285Y-99110595D01*
X158472619Y-99348690D02*
X157615476Y-99348690D01*
X157520238Y-99301071D01*
X157472619Y-99205833D01*
X157472619Y-99110595D01*
X157853571Y-98777261D02*
X157853571Y-98015357D01*
X157520238Y-97586785D02*
X157472619Y-97443928D01*
X157472619Y-97205833D01*
X157520238Y-97110595D01*
X157567857Y-97062976D01*
X157663095Y-97015357D01*
X157758333Y-97015357D01*
X157853571Y-97062976D01*
X157901190Y-97110595D01*
X157948809Y-97205833D01*
X157996428Y-97396309D01*
X158044047Y-97491547D01*
X158091666Y-97539166D01*
X158186904Y-97586785D01*
X158282142Y-97586785D01*
X158377380Y-97539166D01*
X158425000Y-97491547D01*
X158472619Y-97396309D01*
X158472619Y-97158214D01*
X158425000Y-97015357D01*
X158139285Y-96682023D02*
X157472619Y-96491547D01*
X157948809Y-96301071D01*
X157472619Y-96110595D01*
X158139285Y-95920119D01*
X157472619Y-95539166D02*
X158139285Y-95539166D01*
X158472619Y-95539166D02*
X158425000Y-95586785D01*
X158377380Y-95539166D01*
X158425000Y-95491547D01*
X158472619Y-95539166D01*
X158377380Y-95539166D01*
X158139285Y-95205833D02*
X158139285Y-94824880D01*
X158472619Y-95062976D02*
X157615476Y-95062976D01*
X157520238Y-95015357D01*
X157472619Y-94920119D01*
X157472619Y-94824880D01*
X157520238Y-94062976D02*
X157472619Y-94158214D01*
X157472619Y-94348690D01*
X157520238Y-94443928D01*
X157567857Y-94491547D01*
X157663095Y-94539166D01*
X157948809Y-94539166D01*
X158044047Y-94491547D01*
X158091666Y-94443928D01*
X158139285Y-94348690D01*
X158139285Y-94158214D01*
X158091666Y-94062976D01*
X157472619Y-93634404D02*
X158472619Y-93634404D01*
X157472619Y-93205833D02*
X157996428Y-93205833D01*
X158091666Y-93253452D01*
X158139285Y-93348690D01*
X158139285Y-93491547D01*
X158091666Y-93586785D01*
X158044047Y-93634404D01*
X157520238Y-92348690D02*
X157472619Y-92443928D01*
X157472619Y-92634404D01*
X157520238Y-92729642D01*
X157615476Y-92777261D01*
X157996428Y-92777261D01*
X158091666Y-92729642D01*
X158139285Y-92634404D01*
X158139285Y-92443928D01*
X158091666Y-92348690D01*
X157996428Y-92301071D01*
X157901190Y-92301071D01*
X157805952Y-92777261D01*
X157472619Y-91872500D02*
X158139285Y-91872500D01*
X157948809Y-91872500D02*
X158044047Y-91824880D01*
X158091666Y-91777261D01*
X158139285Y-91682023D01*
X158139285Y-91586785D01*
X157853571Y-91253452D02*
X157853571Y-90491547D01*
X158139285Y-90110595D02*
X157472619Y-89872500D01*
X158139285Y-89634404D01*
X158377380Y-89301071D02*
X158425000Y-89253452D01*
X158472619Y-89158214D01*
X158472619Y-88920119D01*
X158425000Y-88824880D01*
X158377380Y-88777261D01*
X158282142Y-88729642D01*
X158186904Y-88729642D01*
X158044047Y-88777261D01*
X157472619Y-89348690D01*
X157472619Y-88729642D01*
D11*
%TO.C,R4*%
X139927064Y-70385000D02*
X139472936Y-70385000D01*
X139927064Y-71855000D02*
X139472936Y-71855000D01*
%TO.C,R3*%
X164057064Y-70385000D02*
X163602936Y-70385000D01*
X164057064Y-71855000D02*
X163602936Y-71855000D01*
%TO.C,R2*%
X156437064Y-70385000D02*
X155982936Y-70385000D01*
X156437064Y-71855000D02*
X155982936Y-71855000D01*
%TO.C,R1*%
X148817064Y-70385000D02*
X148362936Y-70385000D01*
X148817064Y-71855000D02*
X148362936Y-71855000D01*
%TO.C,U1*%
X120523000Y-90050000D02*
X118050000Y-90050000D01*
X135950000Y-143630000D02*
X135950000Y-90050000D01*
X118050000Y-143630000D02*
X120523000Y-143630000D01*
X118050000Y-90050000D02*
X118050000Y-143630000D01*
X133460000Y-143570000D02*
X133460000Y-90110000D01*
X120540000Y-90110000D02*
X120540000Y-143570000D01*
X133477000Y-143630000D02*
X135950000Y-143630000D01*
X135923500Y-90050000D02*
X133450500Y-90050000D01*
%TO.C,R4*%
D10*
X136691666Y-71572380D02*
X137025000Y-71096190D01*
X137263095Y-71572380D02*
X137263095Y-70572380D01*
X136882142Y-70572380D01*
X136786904Y-70620000D01*
X136739285Y-70667619D01*
X136691666Y-70762857D01*
X136691666Y-70905714D01*
X136739285Y-71000952D01*
X136786904Y-71048571D01*
X136882142Y-71096190D01*
X137263095Y-71096190D01*
X135834523Y-70905714D02*
X135834523Y-71572380D01*
X136072619Y-70524761D02*
X136310714Y-71239047D01*
X135691666Y-71239047D01*
X140485714Y-72555714D02*
X140485714Y-73222380D01*
X140723809Y-72174761D02*
X140961904Y-72889047D01*
X140342857Y-72889047D01*
X139961904Y-73222380D02*
X139961904Y-72222380D01*
X139390476Y-73222380D02*
X139819047Y-72650952D01*
X139390476Y-72222380D02*
X139961904Y-72793809D01*
X139057142Y-72222380D02*
X138390476Y-72222380D01*
X138819047Y-73222380D01*
%TO.C,R3*%
X160821666Y-71572380D02*
X161155000Y-71096190D01*
X161393095Y-71572380D02*
X161393095Y-70572380D01*
X161012142Y-70572380D01*
X160916904Y-70620000D01*
X160869285Y-70667619D01*
X160821666Y-70762857D01*
X160821666Y-70905714D01*
X160869285Y-71000952D01*
X160916904Y-71048571D01*
X161012142Y-71096190D01*
X161393095Y-71096190D01*
X160488333Y-70572380D02*
X159869285Y-70572380D01*
X160202619Y-70953333D01*
X160059761Y-70953333D01*
X159964523Y-71000952D01*
X159916904Y-71048571D01*
X159869285Y-71143809D01*
X159869285Y-71381904D01*
X159916904Y-71477142D01*
X159964523Y-71524761D01*
X160059761Y-71572380D01*
X160345476Y-71572380D01*
X160440714Y-71524761D01*
X160488333Y-71477142D01*
X164615714Y-72555714D02*
X164615714Y-73222380D01*
X164853809Y-72174761D02*
X165091904Y-72889047D01*
X164472857Y-72889047D01*
X164091904Y-73222380D02*
X164091904Y-72222380D01*
X163520476Y-73222380D02*
X163949047Y-72650952D01*
X163520476Y-72222380D02*
X164091904Y-72793809D01*
X163187142Y-72222380D02*
X162520476Y-72222380D01*
X162949047Y-73222380D01*
%TO.C,R2*%
X153328666Y-71572380D02*
X153662000Y-71096190D01*
X153900095Y-71572380D02*
X153900095Y-70572380D01*
X153519142Y-70572380D01*
X153423904Y-70620000D01*
X153376285Y-70667619D01*
X153328666Y-70762857D01*
X153328666Y-70905714D01*
X153376285Y-71000952D01*
X153423904Y-71048571D01*
X153519142Y-71096190D01*
X153900095Y-71096190D01*
X152947714Y-70667619D02*
X152900095Y-70620000D01*
X152804857Y-70572380D01*
X152566761Y-70572380D01*
X152471523Y-70620000D01*
X152423904Y-70667619D01*
X152376285Y-70762857D01*
X152376285Y-70858095D01*
X152423904Y-71000952D01*
X152995333Y-71572380D01*
X152376285Y-71572380D01*
X156995714Y-72555714D02*
X156995714Y-73222380D01*
X157233809Y-72174761D02*
X157471904Y-72889047D01*
X156852857Y-72889047D01*
X156471904Y-73222380D02*
X156471904Y-72222380D01*
X155900476Y-73222380D02*
X156329047Y-72650952D01*
X155900476Y-72222380D02*
X156471904Y-72793809D01*
X155567142Y-72222380D02*
X154900476Y-72222380D01*
X155329047Y-73222380D01*
%TO.C,R1*%
X145454666Y-71572380D02*
X145788000Y-71096190D01*
X146026095Y-71572380D02*
X146026095Y-70572380D01*
X145645142Y-70572380D01*
X145549904Y-70620000D01*
X145502285Y-70667619D01*
X145454666Y-70762857D01*
X145454666Y-70905714D01*
X145502285Y-71000952D01*
X145549904Y-71048571D01*
X145645142Y-71096190D01*
X146026095Y-71096190D01*
X144502285Y-71572380D02*
X145073714Y-71572380D01*
X144788000Y-71572380D02*
X144788000Y-70572380D01*
X144883238Y-70715238D01*
X144978476Y-70810476D01*
X145073714Y-70858095D01*
X149375714Y-72555714D02*
X149375714Y-73222380D01*
X149613809Y-72174761D02*
X149851904Y-72889047D01*
X149232857Y-72889047D01*
X148851904Y-73222380D02*
X148851904Y-72222380D01*
X148280476Y-73222380D02*
X148709047Y-72650952D01*
X148280476Y-72222380D02*
X148851904Y-72793809D01*
X147947142Y-72222380D02*
X147280476Y-72222380D01*
X147709047Y-73222380D01*
%TO.C,U1*%
X127380904Y-143216380D02*
X127380904Y-144025904D01*
X127333285Y-144121142D01*
X127285666Y-144168761D01*
X127190428Y-144216380D01*
X126999952Y-144216380D01*
X126904714Y-144168761D01*
X126857095Y-144121142D01*
X126809476Y-144025904D01*
X126809476Y-143216380D01*
X125809476Y-144216380D02*
X126380904Y-144216380D01*
X126095190Y-144216380D02*
X126095190Y-143216380D01*
X126190428Y-143359238D01*
X126285666Y-143454476D01*
X126380904Y-143502095D01*
%TD*%
M02*
