M48
; DRILL file {KiCad (5.1.9)-1} date 05/08/21 11:56:34
; FORMAT={-:-/ absolute / inch / decimal}
; #@! TF.CreationDate,2021-05-08T11:56:34+01:00
; #@! TF.GenerationSoftware,Kicad,Pcbnew,(5.1.9)-1
; #@! TF.FileFunction,Plated,1,2,PTH
FMAT,2
INCH
T1C0.0157
T2C0.0315
T3C0.0394
%
G90
G05
T1
X5.075Y-3.4
X5.075Y-3.5
X5.075Y-3.6
X5.075Y-3.7
X5.075Y-3.8
X5.075Y-3.9
X5.075Y-4.1
X5.075Y-4.3
X5.075Y-4.4
X5.075Y-4.5
X5.075Y-4.6
X5.075Y-4.7
X5.075Y-4.9
X5.075Y-5.0
X5.2Y-3.005
X5.6Y-2.8
X5.925Y-5.4
X5.95Y-2.8
X6.15Y-3.0
X6.15Y-3.1
X6.15Y-3.2
X6.15Y-3.3
X6.15Y-3.4
X6.15Y-3.5
X6.15Y-3.6
X6.15Y-3.7
X6.15Y-3.8
X6.15Y-3.9
X6.15Y-4.0
X6.15Y-4.1
X6.15Y-4.2
X6.15Y-4.3
X6.15Y-4.4
X6.15Y-4.5
X6.15Y-4.6
X6.15Y-4.7
X6.15Y-4.8
X6.25Y-2.8
X6.55Y-2.8
X6.575Y-5.275
X6.575Y-5.4
X6.575Y-5.525
X6.8Y-3.275
X6.8Y-3.65
X6.8Y-4.05
X6.8Y-4.45
X7.0Y-5.225
X7.0Y-5.375
X7.075Y-3.075
X7.15Y-3.5
X7.15Y-3.8
X7.15Y-3.9
X7.15Y-4.05
X7.15Y-4.2
X7.15Y-4.3
X7.15Y-4.45
X7.15Y-4.6
X7.15Y-4.7
X7.15Y-4.8
X7.15Y-4.925
X7.15Y-5.1
X7.15Y-5.225
X7.15Y-5.375
T2
X4.7Y-3.6
X4.7Y-3.7
X4.7Y-3.8
X4.7Y-3.9
X4.7Y-4.0
X4.7Y-4.1
X4.7Y-4.2
X4.7Y-4.3
X4.7Y-4.4
X4.7Y-4.5
X4.7Y-4.6
X4.7Y-4.7
X4.7Y-4.8
X4.7Y-4.9
X4.7Y-5.0
X4.7Y-5.1
X4.7Y-5.2
X4.7Y-5.3
X4.7Y-5.4
X4.7Y-5.5
X4.7Y-5.6
X4.9Y-3.0
X4.9Y-3.1
X4.9Y-3.2
X4.9Y-3.3
X4.9Y-3.4
X4.9Y-3.5
X4.9Y-3.6
X4.9Y-3.7
X4.9Y-3.8
X4.9Y-3.9
X4.9Y-4.0
X4.9Y-4.1
X4.9Y-4.2
X4.9Y-4.3
X4.9Y-4.4
X4.9Y-4.5
X4.9Y-4.6
X4.9Y-4.7
X4.9Y-4.8
X4.9Y-4.9
X4.9Y-5.0
X5.0Y-3.1
X5.0Y-3.2
X5.0Y-3.3
X5.0Y-3.4
X5.0Y-3.5
X5.0Y-3.6
X5.0Y-3.7
X5.0Y-3.8
X5.0Y-3.9
X5.0Y-4.0
X5.3Y-3.6
X5.3Y-3.7
X5.3Y-3.8
X5.3Y-3.9
X5.3Y-4.0
X5.3Y-4.1
X5.3Y-4.2
X5.3Y-4.3
X5.3Y-4.4
X5.3Y-4.5
X5.3Y-4.6
X5.3Y-4.7
X5.3Y-4.8
X5.3Y-4.9
X5.3Y-5.0
X5.3Y-5.1
X5.3Y-5.2
X5.3Y-5.3
X5.3Y-5.4
X5.3Y-5.5
X5.3Y-5.6
X5.5Y-3.0
X5.5Y-3.1
X5.5Y-3.2
X5.5Y-3.3
X5.5Y-3.4
X5.5Y-3.5
X5.5Y-3.6
X5.5Y-3.7
X5.5Y-3.8
X5.5Y-3.9
X5.5Y-4.0
X5.5Y-4.1
X5.5Y-4.2
X5.5Y-4.3
X5.5Y-4.4
X5.5Y-4.5
X5.5Y-4.6
X5.5Y-4.7
X5.5Y-4.8
X5.5Y-4.9
X5.5Y-5.0
X5.605Y-3.1
X5.605Y-3.2
X5.605Y-3.3
X5.605Y-3.4
X5.605Y-3.5
X5.605Y-3.6
X5.605Y-3.7
X5.605Y-3.8
X5.605Y-3.9
X5.605Y-4.0
X7.0Y-2.95
X7.0Y-3.2059
T3
X4.7Y-3.075
X4.8Y-3.075
X4.8Y-5.3
X4.9Y-5.3
X5.1Y-5.3
X5.2Y-5.3
X5.85Y-3.0
X5.85Y-3.1
X5.85Y-3.2
X5.85Y-3.3
X5.85Y-3.4
X5.85Y-3.5
X5.85Y-3.6
X5.85Y-3.7
X5.85Y-3.8
X5.85Y-3.9
X5.85Y-4.0
X5.85Y-4.1
X5.85Y-4.2
X5.85Y-4.3
X5.85Y-4.4
X5.85Y-4.5
X5.85Y-4.6
X5.85Y-4.7
X5.85Y-4.8
X5.85Y-4.9
X6.45Y-3.0
X6.45Y-3.1
X6.45Y-3.2
X6.45Y-3.3
X6.45Y-3.4
X6.45Y-3.5
X6.45Y-3.6
X6.45Y-3.7
X6.45Y-3.8
X6.45Y-3.9
X6.45Y-4.0
X6.45Y-4.1
X6.45Y-4.2
X6.45Y-4.3
X6.45Y-4.4
X6.45Y-4.5
X6.45Y-4.6
X6.45Y-4.7
X6.45Y-4.8
X6.45Y-4.9
X6.8Y-3.45
X6.8Y-3.55
X6.8Y-3.75
X6.8Y-3.85
X6.8Y-3.95
X6.8Y-4.15
X6.8Y-4.25
X6.8Y-4.35
X6.8Y-4.55
X6.8Y-4.65
X6.8Y-4.75
X6.8Y-4.85
X6.8Y-5.05
X6.8Y-5.15
X6.8Y-5.35
X6.8Y-5.45
X6.8Y-5.55
T0
M30
