%TF.GenerationSoftware,KiCad,Pcbnew,(5.1.9)-1*%
%TF.CreationDate,2021-05-08T11:56:35+01:00*%
%TF.ProjectId,Blue Pill Kickstart Switcher,426c7565-2050-4696-9c6c-204b69636b73,1*%
%TF.SameCoordinates,Original*%
%TF.FileFunction,Paste,Top*%
%TF.FilePolarity,Positive*%
%FSLAX46Y46*%
G04 Gerber Fmt 4.6, Leading zero omitted, Abs format (unit mm)*
G04 Created by KiCad (PCBNEW (5.1.9)-1) date 2021-05-08 11:56:35*
%MOMM*%
%LPD*%
G01*
G04 APERTURE LIST*
G04 APERTURE END LIST*
%TO.C,D4*%
G36*
G01*
X140150000Y-71570001D02*
X140150000Y-70669999D01*
G75*
G02*
X140399999Y-70420000I249999J0D01*
G01*
X141050001Y-70420000D01*
G75*
G02*
X141300000Y-70669999I0J-249999D01*
G01*
X141300000Y-71570001D01*
G75*
G02*
X141050001Y-71820000I-249999J0D01*
G01*
X140399999Y-71820000D01*
G75*
G02*
X140150000Y-71570001I0J249999D01*
G01*
G37*
G36*
G01*
X138100000Y-71570001D02*
X138100000Y-70669999D01*
G75*
G02*
X138349999Y-70420000I249999J0D01*
G01*
X139000001Y-70420000D01*
G75*
G02*
X139250000Y-70669999I0J-249999D01*
G01*
X139250000Y-71570001D01*
G75*
G02*
X139000001Y-71820000I-249999J0D01*
G01*
X138349999Y-71820000D01*
G75*
G02*
X138100000Y-71570001I0J249999D01*
G01*
G37*
%TD*%
%TO.C,D3*%
G36*
G01*
X164280000Y-71570001D02*
X164280000Y-70669999D01*
G75*
G02*
X164529999Y-70420000I249999J0D01*
G01*
X165180001Y-70420000D01*
G75*
G02*
X165430000Y-70669999I0J-249999D01*
G01*
X165430000Y-71570001D01*
G75*
G02*
X165180001Y-71820000I-249999J0D01*
G01*
X164529999Y-71820000D01*
G75*
G02*
X164280000Y-71570001I0J249999D01*
G01*
G37*
G36*
G01*
X162230000Y-71570001D02*
X162230000Y-70669999D01*
G75*
G02*
X162479999Y-70420000I249999J0D01*
G01*
X163130001Y-70420000D01*
G75*
G02*
X163380000Y-70669999I0J-249999D01*
G01*
X163380000Y-71570001D01*
G75*
G02*
X163130001Y-71820000I-249999J0D01*
G01*
X162479999Y-71820000D01*
G75*
G02*
X162230000Y-71570001I0J249999D01*
G01*
G37*
%TD*%
%TO.C,D2*%
G36*
G01*
X156660000Y-71570001D02*
X156660000Y-70669999D01*
G75*
G02*
X156909999Y-70420000I249999J0D01*
G01*
X157560001Y-70420000D01*
G75*
G02*
X157810000Y-70669999I0J-249999D01*
G01*
X157810000Y-71570001D01*
G75*
G02*
X157560001Y-71820000I-249999J0D01*
G01*
X156909999Y-71820000D01*
G75*
G02*
X156660000Y-71570001I0J249999D01*
G01*
G37*
G36*
G01*
X154610000Y-71570001D02*
X154610000Y-70669999D01*
G75*
G02*
X154859999Y-70420000I249999J0D01*
G01*
X155510001Y-70420000D01*
G75*
G02*
X155760000Y-70669999I0J-249999D01*
G01*
X155760000Y-71570001D01*
G75*
G02*
X155510001Y-71820000I-249999J0D01*
G01*
X154859999Y-71820000D01*
G75*
G02*
X154610000Y-71570001I0J249999D01*
G01*
G37*
%TD*%
%TO.C,D1*%
G36*
G01*
X149040000Y-71570001D02*
X149040000Y-70669999D01*
G75*
G02*
X149289999Y-70420000I249999J0D01*
G01*
X149940001Y-70420000D01*
G75*
G02*
X150190000Y-70669999I0J-249999D01*
G01*
X150190000Y-71570001D01*
G75*
G02*
X149940001Y-71820000I-249999J0D01*
G01*
X149289999Y-71820000D01*
G75*
G02*
X149040000Y-71570001I0J249999D01*
G01*
G37*
G36*
G01*
X146990000Y-71570001D02*
X146990000Y-70669999D01*
G75*
G02*
X147239999Y-70420000I249999J0D01*
G01*
X147890001Y-70420000D01*
G75*
G02*
X148140000Y-70669999I0J-249999D01*
G01*
X148140000Y-71570001D01*
G75*
G02*
X147890001Y-71820000I-249999J0D01*
G01*
X147239999Y-71820000D01*
G75*
G02*
X146990000Y-71570001I0J249999D01*
G01*
G37*
%TD*%
M02*
