G04 #@! TF.GenerationSoftware,KiCad,Pcbnew,(5.1.9)-1*
G04 #@! TF.CreationDate,2021-03-28T09:00:11+01:00*
G04 #@! TF.ProjectId,Greaseweazle F1 3.5 Inch Rev 2B,47726561-7365-4776-9561-7a6c65204631,2B*
G04 #@! TF.SameCoordinates,PX6312cb0PY6bcb370*
G04 #@! TF.FileFunction,Soldermask,Top*
G04 #@! TF.FilePolarity,Negative*
%FSLAX46Y46*%
G04 Gerber Fmt 4.6, Leading zero omitted, Abs format (unit mm)*
G04 Created by KiCad (PCBNEW (5.1.9)-1) date 2021-03-28 09:00:11*
%MOMM*%
%LPD*%
G01*
G04 APERTURE LIST*
%ADD10R,1.700000X1.700000*%
%ADD11C,1.700000*%
%ADD12R,0.650000X1.560000*%
%ADD13R,1.560000X0.650000*%
%ADD14R,0.650000X2.000000*%
%ADD15R,0.800000X1.900000*%
%ADD16O,1.700000X1.700000*%
%ADD17C,4.064000*%
%ADD18O,1.600000X1.600000*%
%ADD19R,1.600000X1.600000*%
%ADD20R,2.500000X1.900000*%
%ADD21C,3.500120*%
%ADD22C,1.501140*%
%ADD23C,1.600000*%
%ADD24R,1.800000X1.800000*%
%ADD25C,1.800000*%
%ADD26R,3.500000X3.500000*%
%ADD27C,1.950000*%
%ADD28C,1.508000*%
%ADD29C,0.600000*%
%ADD30C,1.000000*%
%ADD31C,0.100000*%
G04 APERTURE END LIST*
D10*
X48514000Y3810000D03*
D11*
X51054000Y3810000D03*
X53594000Y3810000D03*
X56134000Y3810000D03*
X59944000Y48260000D03*
D10*
X44704000Y48260000D03*
D11*
X59944000Y45720000D03*
X44704000Y45720000D03*
X59944000Y43180000D03*
X44704000Y43180000D03*
X59944000Y40640000D03*
X44704000Y40640000D03*
X59944000Y38100000D03*
X44704000Y38100000D03*
X59944000Y35560000D03*
X44704000Y35560000D03*
X59944000Y33020000D03*
X44704000Y33020000D03*
X59944000Y30480000D03*
X44704000Y30480000D03*
X59944000Y27940000D03*
X44704000Y27940000D03*
X59944000Y25400000D03*
X44704000Y25400000D03*
X59944000Y22860000D03*
X44704000Y22860000D03*
X59944000Y20320000D03*
X44704000Y20320000D03*
X59944000Y17780000D03*
X44704000Y17780000D03*
X59944000Y15240000D03*
X44704000Y15240000D03*
X59944000Y12700000D03*
X44704000Y12700000D03*
X59944000Y10160000D03*
X44704000Y10160000D03*
X59944000Y7620000D03*
X44704000Y7620000D03*
X59944000Y5080000D03*
X44704000Y5080000D03*
X59944000Y2540000D03*
X44704000Y2540000D03*
X59944000Y0D03*
X44704000Y0D03*
X56273700Y35814000D03*
X56273700Y38354000D03*
D10*
X56273700Y33274000D03*
D11*
X53797200Y38354000D03*
X53733700Y35814000D03*
X53733700Y33274000D03*
X92329000Y-22860000D03*
X92329000Y-25400000D03*
X92329000Y-27940000D03*
X92329000Y-30480000D03*
X92329000Y-33020000D03*
D10*
X92329000Y-35560000D03*
D11*
X94869000Y-22860000D03*
X94869000Y-25400000D03*
X94869000Y-27940000D03*
X94869000Y-30480000D03*
X94869000Y-33020000D03*
D10*
X94869000Y-35560000D03*
D12*
X-19725999Y47857400D03*
X-17825999Y47857400D03*
X-17825999Y45157400D03*
X-18775999Y45157400D03*
X-19725999Y45157400D03*
D13*
X-23796000Y53594000D03*
X-23796000Y54544000D03*
X-23796000Y52644000D03*
X-26496000Y52644000D03*
X-26496000Y53594000D03*
X-26496000Y54544000D03*
D14*
X-18481000Y31818000D03*
X-19431000Y31818000D03*
X-20381000Y31818000D03*
X-20381000Y35238000D03*
X-19431000Y35238000D03*
X-18481000Y35238000D03*
D15*
X-27686000Y42775000D03*
X-26736000Y39775000D03*
X-28636000Y39775000D03*
G36*
G01*
X-33922000Y41265000D02*
X-33922000Y40015000D01*
G75*
G02*
X-34172000Y39765000I-250000J0D01*
G01*
X-35097000Y39765000D01*
G75*
G02*
X-35347000Y40015000I0J250000D01*
G01*
X-35347000Y41265000D01*
G75*
G02*
X-35097000Y41515000I250000J0D01*
G01*
X-34172000Y41515000D01*
G75*
G02*
X-33922000Y41265000I0J-250000D01*
G01*
G37*
G36*
G01*
X-30947000Y41265000D02*
X-30947000Y40015000D01*
G75*
G02*
X-31197000Y39765000I-250000J0D01*
G01*
X-32122000Y39765000D01*
G75*
G02*
X-32372000Y40015000I0J250000D01*
G01*
X-32372000Y41265000D01*
G75*
G02*
X-32122000Y41515000I250000J0D01*
G01*
X-31197000Y41515000D01*
G75*
G02*
X-30947000Y41265000I0J-250000D01*
G01*
G37*
D16*
X-32004000Y45085000D03*
D10*
X-34544000Y45085000D03*
D17*
X86113620Y-34935160D03*
X16113760Y59065160D03*
X16113760Y-34935160D03*
X86113620Y59065160D03*
D16*
X104394000Y58420000D03*
D10*
X104394000Y55880000D03*
D16*
X-17526000Y-27940000D03*
D10*
X-14986000Y-27940000D03*
D16*
X-27686000Y-27940000D03*
D10*
X-25146000Y-27940000D03*
D11*
X97409000Y-22860000D03*
X97409000Y-25400000D03*
X97409000Y-27940000D03*
X97409000Y-30480000D03*
X97409000Y-33020000D03*
D10*
X97409000Y-35560000D03*
D16*
X-35306000Y27152600D03*
X-35306000Y24612600D03*
X-35306000Y22072600D03*
D10*
X-35306000Y19532600D03*
D16*
X-32131000Y57150000D03*
X-32131000Y54610000D03*
X-32131000Y52070000D03*
D10*
X-32131000Y49530000D03*
D18*
X7874000Y13970000D03*
X-7366000Y13970000D03*
X7874000Y49530000D03*
X-7366000Y16510000D03*
X7874000Y46990000D03*
X-7366000Y19050000D03*
X7874000Y44450000D03*
X-7366000Y21590000D03*
X7874000Y41910000D03*
X-7366000Y24130000D03*
X7874000Y39370000D03*
X-7366000Y26670000D03*
X7874000Y36830000D03*
X-7366000Y29210000D03*
X7874000Y34290000D03*
X-7366000Y31750000D03*
X7874000Y31750000D03*
X-7366000Y34290000D03*
X7874000Y29210000D03*
X-7366000Y36830000D03*
X7874000Y26670000D03*
X-7366000Y39370000D03*
X7874000Y24130000D03*
X-7366000Y41910000D03*
X7874000Y21590000D03*
X-7366000Y44450000D03*
X7874000Y19050000D03*
X-7366000Y46990000D03*
X7874000Y16510000D03*
D19*
X-7366000Y49530000D03*
D20*
X-21463000Y19544000D03*
X-21463000Y24144000D03*
G36*
G01*
X-19881000Y38550001D02*
X-19881000Y37649999D01*
G75*
G02*
X-20130999Y37400000I-249999J0D01*
G01*
X-20781001Y37400000D01*
G75*
G02*
X-21031000Y37649999I0J249999D01*
G01*
X-21031000Y38550001D01*
G75*
G02*
X-20781001Y38800000I249999J0D01*
G01*
X-20130999Y38800000D01*
G75*
G02*
X-19881000Y38550001I0J-249999D01*
G01*
G37*
G36*
G01*
X-17831000Y38550001D02*
X-17831000Y37649999D01*
G75*
G02*
X-18080999Y37400000I-249999J0D01*
G01*
X-18731001Y37400000D01*
G75*
G02*
X-18981000Y37649999I0J249999D01*
G01*
X-18981000Y38550001D01*
G75*
G02*
X-18731001Y38800000I249999J0D01*
G01*
X-18080999Y38800000D01*
G75*
G02*
X-17831000Y38550001I0J-249999D01*
G01*
G37*
G36*
G01*
X-15690000Y35375001D02*
X-15690000Y34474999D01*
G75*
G02*
X-15939999Y34225000I-249999J0D01*
G01*
X-16590001Y34225000D01*
G75*
G02*
X-16840000Y34474999I0J249999D01*
G01*
X-16840000Y35375001D01*
G75*
G02*
X-16590001Y35625000I249999J0D01*
G01*
X-15939999Y35625000D01*
G75*
G02*
X-15690000Y35375001I0J-249999D01*
G01*
G37*
G36*
G01*
X-13640000Y35375001D02*
X-13640000Y34474999D01*
G75*
G02*
X-13889999Y34225000I-249999J0D01*
G01*
X-14540001Y34225000D01*
G75*
G02*
X-14790000Y34474999I0J249999D01*
G01*
X-14790000Y35375001D01*
G75*
G02*
X-14540001Y35625000I249999J0D01*
G01*
X-13889999Y35625000D01*
G75*
G02*
X-13640000Y35375001I0J-249999D01*
G01*
G37*
D16*
X-27686000Y20828000D03*
X-27686000Y23368000D03*
D10*
X-27686000Y25908000D03*
D16*
X-35306000Y31750000D03*
D10*
X-35306000Y34290000D03*
G36*
G01*
X-14409000Y19107999D02*
X-14409000Y20008001D01*
G75*
G02*
X-14159001Y20258000I249999J0D01*
G01*
X-13508999Y20258000D01*
G75*
G02*
X-13259000Y20008001I0J-249999D01*
G01*
X-13259000Y19107999D01*
G75*
G02*
X-13508999Y18858000I-249999J0D01*
G01*
X-14159001Y18858000D01*
G75*
G02*
X-14409000Y19107999I0J249999D01*
G01*
G37*
G36*
G01*
X-16459000Y19107999D02*
X-16459000Y20008001D01*
G75*
G02*
X-16209001Y20258000I249999J0D01*
G01*
X-15558999Y20258000D01*
G75*
G02*
X-15309000Y20008001I0J-249999D01*
G01*
X-15309000Y19107999D01*
G75*
G02*
X-15558999Y18858000I-249999J0D01*
G01*
X-16209001Y18858000D01*
G75*
G02*
X-16459000Y19107999I0J249999D01*
G01*
G37*
G36*
G01*
X-14409000Y23679999D02*
X-14409000Y24580001D01*
G75*
G02*
X-14159001Y24830000I249999J0D01*
G01*
X-13508999Y24830000D01*
G75*
G02*
X-13259000Y24580001I0J-249999D01*
G01*
X-13259000Y23679999D01*
G75*
G02*
X-13508999Y23430000I-249999J0D01*
G01*
X-14159001Y23430000D01*
G75*
G02*
X-14409000Y23679999I0J249999D01*
G01*
G37*
G36*
G01*
X-16459000Y23679999D02*
X-16459000Y24580001D01*
G75*
G02*
X-16209001Y24830000I249999J0D01*
G01*
X-15558999Y24830000D01*
G75*
G02*
X-15309000Y24580001I0J-249999D01*
G01*
X-15309000Y23679999D01*
G75*
G02*
X-15558999Y23430000I-249999J0D01*
G01*
X-16209001Y23430000D01*
G75*
G02*
X-16459000Y23679999I0J249999D01*
G01*
G37*
G36*
G01*
X-15690000Y32073001D02*
X-15690000Y31172999D01*
G75*
G02*
X-15939999Y30923000I-249999J0D01*
G01*
X-16590001Y30923000D01*
G75*
G02*
X-16840000Y31172999I0J249999D01*
G01*
X-16840000Y32073001D01*
G75*
G02*
X-16590001Y32323000I249999J0D01*
G01*
X-15939999Y32323000D01*
G75*
G02*
X-15690000Y32073001I0J-249999D01*
G01*
G37*
G36*
G01*
X-13640000Y32073001D02*
X-13640000Y31172999D01*
G75*
G02*
X-13889999Y30923000I-249999J0D01*
G01*
X-14540001Y30923000D01*
G75*
G02*
X-14790000Y31172999I0J249999D01*
G01*
X-14790000Y32073001D01*
G75*
G02*
X-14540001Y32323000I249999J0D01*
G01*
X-13889999Y32323000D01*
G75*
G02*
X-13640000Y32073001I0J-249999D01*
G01*
G37*
G36*
G01*
X-19997000Y27362999D02*
X-19997000Y28263001D01*
G75*
G02*
X-19747001Y28513000I249999J0D01*
G01*
X-19096999Y28513000D01*
G75*
G02*
X-18847000Y28263001I0J-249999D01*
G01*
X-18847000Y27362999D01*
G75*
G02*
X-19096999Y27113000I-249999J0D01*
G01*
X-19747001Y27113000D01*
G75*
G02*
X-19997000Y27362999I0J249999D01*
G01*
G37*
G36*
G01*
X-22047000Y27362999D02*
X-22047000Y28263001D01*
G75*
G02*
X-21797001Y28513000I249999J0D01*
G01*
X-21146999Y28513000D01*
G75*
G02*
X-20897000Y28263001I0J-249999D01*
G01*
X-20897000Y27362999D01*
G75*
G02*
X-21146999Y27113000I-249999J0D01*
G01*
X-21797001Y27113000D01*
G75*
G02*
X-22047000Y27362999I0J249999D01*
G01*
G37*
G36*
G01*
X-22790999Y33724000D02*
X-23691001Y33724000D01*
G75*
G02*
X-23941000Y33973999I0J249999D01*
G01*
X-23941000Y34624001D01*
G75*
G02*
X-23691001Y34874000I249999J0D01*
G01*
X-22790999Y34874000D01*
G75*
G02*
X-22541000Y34624001I0J-249999D01*
G01*
X-22541000Y33973999D01*
G75*
G02*
X-22790999Y33724000I-249999J0D01*
G01*
G37*
G36*
G01*
X-22790999Y31674000D02*
X-23691001Y31674000D01*
G75*
G02*
X-23941000Y31923999I0J249999D01*
G01*
X-23941000Y32574001D01*
G75*
G02*
X-23691001Y32824000I249999J0D01*
G01*
X-22790999Y32824000D01*
G75*
G02*
X-22541000Y32574001I0J-249999D01*
G01*
X-22541000Y31923999D01*
G75*
G02*
X-22790999Y31674000I-249999J0D01*
G01*
G37*
D21*
X-42621200Y47345600D03*
X-42621200Y59385200D03*
D22*
X-37896800Y54610000D03*
X-37896800Y52120800D03*
X-39903400Y52120800D03*
X-39903400Y54610000D03*
D16*
X103124000Y-1270000D03*
X103124000Y-3810000D03*
D10*
X103124000Y-6350000D03*
D16*
X109474000Y8890000D03*
X109474000Y11430000D03*
X109474000Y13970000D03*
D10*
X109474000Y16510000D03*
D16*
X29464000Y-27940000D03*
X26924000Y-27940000D03*
D10*
X24384000Y-27940000D03*
D16*
X42926000Y-27829200D03*
X40386000Y-27829200D03*
D10*
X37846000Y-27829200D03*
D16*
X55626000Y-27889200D03*
X53086000Y-27889200D03*
D10*
X50546000Y-27889200D03*
D16*
X-18796000Y51587400D03*
X-16256000Y51587400D03*
D10*
X-13716000Y51587400D03*
D16*
X104394000Y24130000D03*
X104394000Y21590000D03*
X104394000Y19050000D03*
D10*
X104394000Y16510000D03*
X106934000Y-20320000D03*
D16*
X106934000Y-17780000D03*
X106934000Y-15240000D03*
D11*
X106934000Y-12700000D03*
X103124000Y-12700000D03*
D16*
X103124000Y-15240000D03*
X103124000Y-17780000D03*
D10*
X103124000Y-20320000D03*
G36*
G01*
X-14801001Y46057400D02*
X-13900999Y46057400D01*
G75*
G02*
X-13651000Y45807401I0J-249999D01*
G01*
X-13651000Y45157399D01*
G75*
G02*
X-13900999Y44907400I-249999J0D01*
G01*
X-14801001Y44907400D01*
G75*
G02*
X-15051000Y45157399I0J249999D01*
G01*
X-15051000Y45807401D01*
G75*
G02*
X-14801001Y46057400I249999J0D01*
G01*
G37*
G36*
G01*
X-14801001Y48107400D02*
X-13900999Y48107400D01*
G75*
G02*
X-13651000Y47857401I0J-249999D01*
G01*
X-13651000Y47207399D01*
G75*
G02*
X-13900999Y46957400I-249999J0D01*
G01*
X-14801001Y46957400D01*
G75*
G02*
X-15051000Y47207399I0J249999D01*
G01*
X-15051000Y47857401D01*
G75*
G02*
X-14801001Y48107400I249999J0D01*
G01*
G37*
G36*
G01*
X-22790999Y46957400D02*
X-23691001Y46957400D01*
G75*
G02*
X-23941000Y47207399I0J249999D01*
G01*
X-23941000Y47857401D01*
G75*
G02*
X-23691001Y48107400I249999J0D01*
G01*
X-22790999Y48107400D01*
G75*
G02*
X-22541000Y47857401I0J-249999D01*
G01*
X-22541000Y47207399D01*
G75*
G02*
X-22790999Y46957400I-249999J0D01*
G01*
G37*
G36*
G01*
X-22790999Y44907400D02*
X-23691001Y44907400D01*
G75*
G02*
X-23941000Y45157399I0J249999D01*
G01*
X-23941000Y45807401D01*
G75*
G02*
X-23691001Y46057400I249999J0D01*
G01*
X-22790999Y46057400D01*
G75*
G02*
X-22541000Y45807401I0J-249999D01*
G01*
X-22541000Y45157399D01*
G75*
G02*
X-22790999Y44907400I-249999J0D01*
G01*
G37*
D23*
X103886000Y51308000D03*
D18*
X88646000Y51308000D03*
D24*
X109474000Y48768000D03*
D25*
X109474000Y51308000D03*
G36*
G01*
X95816000Y51758001D02*
X95816000Y50857999D01*
G75*
G02*
X95566001Y50608000I-249999J0D01*
G01*
X94915999Y50608000D01*
G75*
G02*
X94666000Y50857999I0J249999D01*
G01*
X94666000Y51758001D01*
G75*
G02*
X94915999Y52008000I249999J0D01*
G01*
X95566001Y52008000D01*
G75*
G02*
X95816000Y51758001I0J-249999D01*
G01*
G37*
G36*
G01*
X97866000Y51758001D02*
X97866000Y50857999D01*
G75*
G02*
X97616001Y50608000I-249999J0D01*
G01*
X96965999Y50608000D01*
G75*
G02*
X96716000Y50857999I0J249999D01*
G01*
X96716000Y51758001D01*
G75*
G02*
X96965999Y52008000I249999J0D01*
G01*
X97616001Y52008000D01*
G75*
G02*
X97866000Y51758001I0J-249999D01*
G01*
G37*
G36*
G01*
X113607001Y50488000D02*
X112706999Y50488000D01*
G75*
G02*
X112457000Y50737999I0J249999D01*
G01*
X112457000Y51388001D01*
G75*
G02*
X112706999Y51638000I249999J0D01*
G01*
X113607001Y51638000D01*
G75*
G02*
X113857000Y51388001I0J-249999D01*
G01*
X113857000Y50737999D01*
G75*
G02*
X113607001Y50488000I-249999J0D01*
G01*
G37*
G36*
G01*
X113607001Y48438000D02*
X112706999Y48438000D01*
G75*
G02*
X112457000Y48687999I0J249999D01*
G01*
X112457000Y49338001D01*
G75*
G02*
X112706999Y49588000I249999J0D01*
G01*
X113607001Y49588000D01*
G75*
G02*
X113857000Y49338001I0J-249999D01*
G01*
X113857000Y48687999D01*
G75*
G02*
X113607001Y48438000I-249999J0D01*
G01*
G37*
G36*
G01*
X95816000Y46170001D02*
X95816000Y45269999D01*
G75*
G02*
X95566001Y45020000I-249999J0D01*
G01*
X94915999Y45020000D01*
G75*
G02*
X94666000Y45269999I0J249999D01*
G01*
X94666000Y46170001D01*
G75*
G02*
X94915999Y46420000I249999J0D01*
G01*
X95566001Y46420000D01*
G75*
G02*
X95816000Y46170001I0J-249999D01*
G01*
G37*
G36*
G01*
X97866000Y46170001D02*
X97866000Y45269999D01*
G75*
G02*
X97616001Y45020000I-249999J0D01*
G01*
X96965999Y45020000D01*
G75*
G02*
X96716000Y45269999I0J249999D01*
G01*
X96716000Y46170001D01*
G75*
G02*
X96965999Y46420000I249999J0D01*
G01*
X97616001Y46420000D01*
G75*
G02*
X97866000Y46170001I0J-249999D01*
G01*
G37*
G36*
G01*
X95816000Y34740001D02*
X95816000Y33839999D01*
G75*
G02*
X95566001Y33590000I-249999J0D01*
G01*
X94915999Y33590000D01*
G75*
G02*
X94666000Y33839999I0J249999D01*
G01*
X94666000Y34740001D01*
G75*
G02*
X94915999Y34990000I249999J0D01*
G01*
X95566001Y34990000D01*
G75*
G02*
X95816000Y34740001I0J-249999D01*
G01*
G37*
G36*
G01*
X97866000Y34740001D02*
X97866000Y33839999D01*
G75*
G02*
X97616001Y33590000I-249999J0D01*
G01*
X96965999Y33590000D01*
G75*
G02*
X96716000Y33839999I0J249999D01*
G01*
X96716000Y34740001D01*
G75*
G02*
X96965999Y34990000I249999J0D01*
G01*
X97616001Y34990000D01*
G75*
G02*
X97866000Y34740001I0J-249999D01*
G01*
G37*
G36*
G01*
X95790600Y40582001D02*
X95790600Y39681999D01*
G75*
G02*
X95540601Y39432000I-249999J0D01*
G01*
X94890599Y39432000D01*
G75*
G02*
X94640600Y39681999I0J249999D01*
G01*
X94640600Y40582001D01*
G75*
G02*
X94890599Y40832000I249999J0D01*
G01*
X95540601Y40832000D01*
G75*
G02*
X95790600Y40582001I0J-249999D01*
G01*
G37*
G36*
G01*
X97840600Y40582001D02*
X97840600Y39681999D01*
G75*
G02*
X97590601Y39432000I-249999J0D01*
G01*
X96940599Y39432000D01*
G75*
G02*
X96690600Y39681999I0J249999D01*
G01*
X96690600Y40582001D01*
G75*
G02*
X96940599Y40832000I249999J0D01*
G01*
X97590601Y40832000D01*
G75*
G02*
X97840600Y40582001I0J-249999D01*
G01*
G37*
G36*
G01*
X81984000Y13519999D02*
X81984000Y14420001D01*
G75*
G02*
X82233999Y14670000I249999J0D01*
G01*
X82884001Y14670000D01*
G75*
G02*
X83134000Y14420001I0J-249999D01*
G01*
X83134000Y13519999D01*
G75*
G02*
X82884001Y13270000I-249999J0D01*
G01*
X82233999Y13270000D01*
G75*
G02*
X81984000Y13519999I0J249999D01*
G01*
G37*
G36*
G01*
X79934000Y13519999D02*
X79934000Y14420001D01*
G75*
G02*
X80183999Y14670000I249999J0D01*
G01*
X80834001Y14670000D01*
G75*
G02*
X81084000Y14420001I0J-249999D01*
G01*
X81084000Y13519999D01*
G75*
G02*
X80834001Y13270000I-249999J0D01*
G01*
X80183999Y13270000D01*
G75*
G02*
X79934000Y13519999I0J249999D01*
G01*
G37*
G36*
G01*
X704000Y-11880001D02*
X704000Y-10979999D01*
G75*
G02*
X953999Y-10730000I249999J0D01*
G01*
X1604001Y-10730000D01*
G75*
G02*
X1854000Y-10979999I0J-249999D01*
G01*
X1854000Y-11880001D01*
G75*
G02*
X1604001Y-12130000I-249999J0D01*
G01*
X953999Y-12130000D01*
G75*
G02*
X704000Y-11880001I0J249999D01*
G01*
G37*
G36*
G01*
X-1346000Y-11880001D02*
X-1346000Y-10979999D01*
G75*
G02*
X-1096001Y-10730000I249999J0D01*
G01*
X-445999Y-10730000D01*
G75*
G02*
X-196000Y-10979999I0J-249999D01*
G01*
X-196000Y-11880001D01*
G75*
G02*
X-445999Y-12130000I-249999J0D01*
G01*
X-1096001Y-12130000D01*
G75*
G02*
X-1346000Y-11880001I0J249999D01*
G01*
G37*
G36*
G01*
X704000Y-17493401D02*
X704000Y-16593399D01*
G75*
G02*
X953999Y-16343400I249999J0D01*
G01*
X1604001Y-16343400D01*
G75*
G02*
X1854000Y-16593399I0J-249999D01*
G01*
X1854000Y-17493401D01*
G75*
G02*
X1604001Y-17743400I-249999J0D01*
G01*
X953999Y-17743400D01*
G75*
G02*
X704000Y-17493401I0J249999D01*
G01*
G37*
G36*
G01*
X-1346000Y-17493401D02*
X-1346000Y-16593399D01*
G75*
G02*
X-1096001Y-16343400I249999J0D01*
G01*
X-445999Y-16343400D01*
G75*
G02*
X-196000Y-16593399I0J-249999D01*
G01*
X-196000Y-17493401D01*
G75*
G02*
X-445999Y-17743400I-249999J0D01*
G01*
X-1096001Y-17743400D01*
G75*
G02*
X-1346000Y-17493401I0J249999D01*
G01*
G37*
G36*
G01*
X704000Y-22573401D02*
X704000Y-21673399D01*
G75*
G02*
X953999Y-21423400I249999J0D01*
G01*
X1604001Y-21423400D01*
G75*
G02*
X1854000Y-21673399I0J-249999D01*
G01*
X1854000Y-22573401D01*
G75*
G02*
X1604001Y-22823400I-249999J0D01*
G01*
X953999Y-22823400D01*
G75*
G02*
X704000Y-22573401I0J249999D01*
G01*
G37*
G36*
G01*
X-1346000Y-22573401D02*
X-1346000Y-21673399D01*
G75*
G02*
X-1096001Y-21423400I249999J0D01*
G01*
X-445999Y-21423400D01*
G75*
G02*
X-196000Y-21673399I0J-249999D01*
G01*
X-196000Y-22573401D01*
G75*
G02*
X-445999Y-22823400I-249999J0D01*
G01*
X-1096001Y-22823400D01*
G75*
G02*
X-1346000Y-22573401I0J249999D01*
G01*
G37*
G36*
G01*
X704000Y-27120001D02*
X704000Y-26219999D01*
G75*
G02*
X953999Y-25970000I249999J0D01*
G01*
X1604001Y-25970000D01*
G75*
G02*
X1854000Y-26219999I0J-249999D01*
G01*
X1854000Y-27120001D01*
G75*
G02*
X1604001Y-27370000I-249999J0D01*
G01*
X953999Y-27370000D01*
G75*
G02*
X704000Y-27120001I0J249999D01*
G01*
G37*
G36*
G01*
X-1346000Y-27120001D02*
X-1346000Y-26219999D01*
G75*
G02*
X-1096001Y-25970000I249999J0D01*
G01*
X-445999Y-25970000D01*
G75*
G02*
X-196000Y-26219999I0J-249999D01*
G01*
X-196000Y-27120001D01*
G75*
G02*
X-445999Y-27370000I-249999J0D01*
G01*
X-1096001Y-27370000D01*
G75*
G02*
X-1346000Y-27120001I0J249999D01*
G01*
G37*
G36*
G01*
X113607001Y44900000D02*
X112706999Y44900000D01*
G75*
G02*
X112457000Y45149999I0J249999D01*
G01*
X112457000Y45800001D01*
G75*
G02*
X112706999Y46050000I249999J0D01*
G01*
X113607001Y46050000D01*
G75*
G02*
X113857000Y45800001I0J-249999D01*
G01*
X113857000Y45149999D01*
G75*
G02*
X113607001Y44900000I-249999J0D01*
G01*
G37*
G36*
G01*
X113607001Y42850000D02*
X112706999Y42850000D01*
G75*
G02*
X112457000Y43099999I0J249999D01*
G01*
X112457000Y43750001D01*
G75*
G02*
X112706999Y44000000I249999J0D01*
G01*
X113607001Y44000000D01*
G75*
G02*
X113857000Y43750001I0J-249999D01*
G01*
X113857000Y43099999D01*
G75*
G02*
X113607001Y42850000I-249999J0D01*
G01*
G37*
G36*
G01*
X113607001Y31420000D02*
X112706999Y31420000D01*
G75*
G02*
X112457000Y31669999I0J249999D01*
G01*
X112457000Y32320001D01*
G75*
G02*
X112706999Y32570000I249999J0D01*
G01*
X113607001Y32570000D01*
G75*
G02*
X113857000Y32320001I0J-249999D01*
G01*
X113857000Y31669999D01*
G75*
G02*
X113607001Y31420000I-249999J0D01*
G01*
G37*
G36*
G01*
X113607001Y33470000D02*
X112706999Y33470000D01*
G75*
G02*
X112457000Y33719999I0J249999D01*
G01*
X112457000Y34370001D01*
G75*
G02*
X112706999Y34620000I249999J0D01*
G01*
X113607001Y34620000D01*
G75*
G02*
X113857000Y34370001I0J-249999D01*
G01*
X113857000Y33719999D01*
G75*
G02*
X113607001Y33470000I-249999J0D01*
G01*
G37*
G36*
G01*
X113607001Y39312000D02*
X112706999Y39312000D01*
G75*
G02*
X112457000Y39561999I0J249999D01*
G01*
X112457000Y40212001D01*
G75*
G02*
X112706999Y40462000I249999J0D01*
G01*
X113607001Y40462000D01*
G75*
G02*
X113857000Y40212001I0J-249999D01*
G01*
X113857000Y39561999D01*
G75*
G02*
X113607001Y39312000I-249999J0D01*
G01*
G37*
G36*
G01*
X113607001Y37262000D02*
X112706999Y37262000D01*
G75*
G02*
X112457000Y37511999I0J249999D01*
G01*
X112457000Y38162001D01*
G75*
G02*
X112706999Y38412000I249999J0D01*
G01*
X113607001Y38412000D01*
G75*
G02*
X113857000Y38162001I0J-249999D01*
G01*
X113857000Y37511999D01*
G75*
G02*
X113607001Y37262000I-249999J0D01*
G01*
G37*
X109474000Y34290000D03*
D24*
X109474000Y31750000D03*
X109474000Y37592000D03*
D25*
X109474000Y40132000D03*
X109474000Y45720000D03*
D24*
X109474000Y43180000D03*
D23*
X73914000Y13970000D03*
D18*
X89154000Y13970000D03*
X-7366000Y-11430000D03*
D23*
X7874000Y-11430000D03*
X7874000Y-17018000D03*
D18*
X-7366000Y-17018000D03*
X-7366000Y-22098000D03*
D23*
X7874000Y-22098000D03*
X7874000Y-26670000D03*
D18*
X-7366000Y-26670000D03*
X88646000Y34290000D03*
D23*
X103886000Y34290000D03*
X103886000Y40132000D03*
D18*
X88646000Y40132000D03*
X88646000Y45720000D03*
D23*
X103886000Y45720000D03*
D16*
X34544000Y0D03*
X34544000Y2540000D03*
X34544000Y5080000D03*
X34544000Y7620000D03*
X34544000Y10160000D03*
X34544000Y12700000D03*
X34544000Y15240000D03*
X34544000Y17780000D03*
X34544000Y20320000D03*
X34544000Y22860000D03*
X34544000Y25400000D03*
X34544000Y27940000D03*
X34544000Y30480000D03*
X34544000Y33020000D03*
X34544000Y35560000D03*
X34544000Y38100000D03*
X34544000Y40640000D03*
X34544000Y43180000D03*
X34544000Y45720000D03*
D11*
X34544000Y48260000D03*
D16*
X70104000Y48260000D03*
X70104000Y45720000D03*
X70104000Y43180000D03*
X70104000Y40640000D03*
X70104000Y38100000D03*
X70104000Y35560000D03*
X70104000Y33020000D03*
X70104000Y30480000D03*
X70104000Y27940000D03*
X70104000Y25400000D03*
X70104000Y22860000D03*
X70104000Y20320000D03*
X70104000Y17780000D03*
X70104000Y15240000D03*
X70104000Y12700000D03*
X70104000Y10160000D03*
X70104000Y7620000D03*
X70104000Y5080000D03*
X70104000Y2540000D03*
D11*
X70104000Y0D03*
D16*
X79603600Y-24130000D03*
X77063600Y-24130000D03*
D10*
X74523600Y-24130000D03*
D16*
X67564000Y-24130000D03*
X65024000Y-24130000D03*
D10*
X62484000Y-24130000D03*
X62484000Y-27940000D03*
D16*
X65024000Y-27940000D03*
D11*
X67564000Y-27940000D03*
D10*
X74523600Y-27940000D03*
D16*
X77063600Y-27940000D03*
D11*
X79603600Y-27940000D03*
D16*
X106934000Y-33020000D03*
X106934000Y-30480000D03*
X106934000Y-27940000D03*
D10*
X106934000Y-25400000D03*
G36*
G01*
X-43888600Y32551400D02*
X-43888600Y34301400D01*
G75*
G02*
X-43013600Y35176400I875000J0D01*
G01*
X-41263600Y35176400D01*
G75*
G02*
X-40388600Y34301400I0J-875000D01*
G01*
X-40388600Y32551400D01*
G75*
G02*
X-41263600Y31676400I-875000J0D01*
G01*
X-43013600Y31676400D01*
G75*
G02*
X-43888600Y32551400I0J875000D01*
G01*
G37*
G36*
G01*
X-46638600Y37126400D02*
X-46638600Y39126400D01*
G75*
G02*
X-45888600Y39876400I750000J0D01*
G01*
X-44388600Y39876400D01*
G75*
G02*
X-43638600Y39126400I0J-750000D01*
G01*
X-43638600Y37126400D01*
G75*
G02*
X-44388600Y36376400I-750000J0D01*
G01*
X-45888600Y36376400D01*
G75*
G02*
X-46638600Y37126400I0J750000D01*
G01*
G37*
D26*
X-39138600Y38126400D03*
D27*
X108244000Y60650000D03*
X108244000Y53650000D03*
D28*
X110744000Y59425000D03*
X110744000Y54875000D03*
D10*
X-42367200Y19532600D03*
D16*
X-42367200Y22072600D03*
X-42367200Y24612600D03*
X-42367200Y27152600D03*
X-39852600Y-31800800D03*
X-42392600Y-31800800D03*
X-39852600Y-29260800D03*
X-42392600Y-29260800D03*
X-39852600Y-26720800D03*
X-42392600Y-26720800D03*
X-39852600Y-24180800D03*
X-42392600Y-24180800D03*
X-39852600Y-21640800D03*
X-42392600Y-21640800D03*
X-39852600Y-19100800D03*
X-42392600Y-19100800D03*
X-39852600Y-16560800D03*
X-42392600Y-16560800D03*
X-39852600Y-14020800D03*
X-42392600Y-14020800D03*
X-39852600Y-11480800D03*
X-42392600Y-11480800D03*
X-39852600Y-8940800D03*
X-42392600Y-8940800D03*
X-39852600Y-6400800D03*
X-42392600Y-6400800D03*
X-39852600Y-3860800D03*
X-42392600Y-3860800D03*
X-39852600Y-1320800D03*
X-42392600Y-1320800D03*
X-39852600Y1219200D03*
X-42392600Y1219200D03*
X-39852600Y3759200D03*
X-42392600Y3759200D03*
X-39852600Y6299200D03*
X-42392600Y6299200D03*
X-39852600Y8839200D03*
D10*
X-42392600Y8839200D03*
D29*
X5334000Y29210000D03*
X2794000Y21590000D03*
X-51816000Y15240000D03*
X-51816000Y-7620000D03*
X-51816000Y-15240000D03*
X-51816000Y-36830000D03*
X-51714400Y45516800D03*
X96901000Y60833000D03*
X115824000Y-36830000D03*
X105410000Y36576000D03*
X52476400Y20116800D03*
X49149000Y40640000D03*
X-2286000Y27940000D03*
X14224000Y41910000D03*
X97409000Y29845000D03*
X77089000Y25400000D03*
X57404000Y30480000D03*
X57404000Y27940000D03*
X27559000Y46355000D03*
X-51816000Y60960000D03*
X115824000Y-9017000D03*
X112014000Y29210000D03*
X112014000Y24130000D03*
X112014000Y21590000D03*
X112014000Y6350000D03*
X112014000Y3683000D03*
X112014000Y-2286000D03*
X112014000Y-7620000D03*
X115824000Y-24765000D03*
X51689000Y60960000D03*
X33274000Y-36830000D03*
X46609000Y-36830000D03*
X59944000Y-36830000D03*
X70739000Y-36830000D03*
X99949000Y-36830000D03*
X115697000Y60833000D03*
X115697000Y35941000D03*
X115697000Y41656000D03*
X115697000Y52959000D03*
X99314000Y-8890000D03*
X91694000Y-3810000D03*
X81534000Y-1270000D03*
X81534000Y19050000D03*
X85471000Y-24130000D03*
X18034000Y31750000D03*
X28194000Y31750000D03*
X20574000Y21590000D03*
X254000Y11430000D03*
X-9144000Y-6680200D03*
X-17526000Y-13970000D03*
X-11176000Y-34925000D03*
X76454000Y34290000D03*
X84734400Y40614600D03*
X89636600Y26060400D03*
X78994000Y46990000D03*
X30734000Y57150000D03*
X63754000Y57150000D03*
X23114000Y29210000D03*
X25654000Y-1270000D03*
X56134000Y-19050000D03*
X43434000Y-19050000D03*
X33274000Y-19050000D03*
X-32131000Y-34925000D03*
X-25146000Y3810000D03*
X-31496000Y16510000D03*
X-3556000Y48514000D03*
X15494000Y-24130000D03*
X18034000Y-19050000D03*
X9017000Y-8788400D03*
X-28194000Y-22606000D03*
X-2286000Y-33274000D03*
X-7366000Y57150000D03*
X20320000Y43434000D03*
X27940000Y43434000D03*
X14224000Y47752000D03*
X2794000Y46990000D03*
X-3048000Y41148000D03*
X4572000Y40640000D03*
X5334000Y13970000D03*
X20066000Y13970000D03*
X28448000Y10668000D03*
X18288000Y10922000D03*
X19304000Y3556000D03*
X30480000Y2286000D03*
X-20447000Y36830000D03*
X-21717000Y34417000D03*
X-29057600Y53594000D03*
X-21463000Y48514000D03*
X-15875000Y45466000D03*
X-13843000Y18288000D03*
X-13843000Y25400000D03*
X-26416000Y48260000D03*
X-46736000Y53340000D03*
X-2286000Y57150000D03*
X4064000Y57150000D03*
X28194000Y22860000D03*
X-18796000Y5080000D03*
X7874000Y0D03*
X-31496000Y27940000D03*
X-51816000Y5080000D03*
X-51816000Y-25400000D03*
X96774000Y-1270000D03*
X100584000Y3810000D03*
X76454000Y21590000D03*
X84074000Y21590000D03*
X86614000Y17780000D03*
X25654000Y19050000D03*
X18034000Y25400000D03*
X52324000Y48260000D03*
X51054000Y10160000D03*
X91694000Y57150000D03*
X77724000Y57150000D03*
X56134000Y57150000D03*
X47244000Y57150000D03*
X39624000Y57150000D03*
X-32766000Y5080000D03*
X-30226000Y-6350000D03*
X-28956000Y-17780000D03*
X-30226000Y-12700000D03*
X-28956000Y-25400000D03*
X-21336000Y-35052000D03*
X-14986000Y-22860000D03*
X-16891000Y-19939000D03*
X10414000Y-15240000D03*
X20574000Y-15240000D03*
X68834000Y-19050000D03*
X73914000Y-19050000D03*
X80264000Y-19050000D03*
X254000Y5080000D03*
X-27686000Y7620000D03*
X-16256000Y10160000D03*
X-32766000Y10160000D03*
X-36576000Y12446000D03*
X-23114000Y12192000D03*
X-6375400Y2997200D03*
X-4292600Y6680200D03*
X-1828800Y38430200D03*
X-11303000Y52374800D03*
X88366600Y-27559000D03*
X-29083000Y37465000D03*
X-28956000Y34290000D03*
X-13716000Y38100000D03*
X-28956000Y46990000D03*
X-18796000Y25400000D03*
X-13843000Y20828000D03*
X-13843000Y22860000D03*
X-22733000Y54483000D03*
X-22748190Y52644000D03*
D30*
X40132000Y51562000D03*
X-23240998Y40386000D03*
D29*
X-16738600Y-6070602D03*
X-9017002Y-24180800D03*
X-14935200Y-24180800D03*
X-19266801Y-20790801D03*
X-9005201Y-20790801D03*
X-22656800Y-16560800D03*
X5867400Y-3733800D03*
X-11277600Y16256000D03*
X-11887200Y-3860800D03*
X28149001Y36785001D03*
X46990000Y36830000D03*
X15113000Y6197600D03*
X12522198Y6375400D03*
X95427800Y8890000D03*
D30*
X75031602Y53721000D03*
D29*
X47117000Y39358849D03*
X14605000Y37236400D03*
X10490200Y6223000D03*
D31*
G36*
X-43886610Y32551596D02*
G01*
X-43869817Y32381091D01*
X-43820138Y32217321D01*
X-43739465Y32066392D01*
X-43630897Y31934103D01*
X-43498608Y31825535D01*
X-43347679Y31744862D01*
X-43183909Y31695183D01*
X-43013404Y31678390D01*
X-43011778Y31677225D01*
X-43011974Y31675235D01*
X-43013600Y31674400D01*
X-43069960Y31674400D01*
X-43070156Y31674410D01*
X-43234687Y31690615D01*
X-43235072Y31690691D01*
X-43387383Y31736894D01*
X-43387745Y31737044D01*
X-43528108Y31812069D01*
X-43528434Y31812287D01*
X-43651466Y31913257D01*
X-43651743Y31913534D01*
X-43752713Y32036566D01*
X-43752931Y32036892D01*
X-43827956Y32177255D01*
X-43828106Y32177617D01*
X-43874309Y32329928D01*
X-43874385Y32330313D01*
X-43890590Y32494844D01*
X-43890600Y32495040D01*
X-43890600Y32551400D01*
X-43889600Y32553132D01*
X-43887600Y32553132D01*
X-43886610Y32551596D01*
G37*
G36*
X-40387435Y32553026D02*
G01*
X-40386600Y32551400D01*
X-40386600Y32495040D01*
X-40386610Y32494844D01*
X-40402815Y32330313D01*
X-40402891Y32329928D01*
X-40449094Y32177617D01*
X-40449244Y32177255D01*
X-40524269Y32036892D01*
X-40524487Y32036566D01*
X-40625457Y31913534D01*
X-40625734Y31913257D01*
X-40748766Y31812287D01*
X-40749092Y31812069D01*
X-40889455Y31737044D01*
X-40889817Y31736894D01*
X-41042128Y31690691D01*
X-41042513Y31690615D01*
X-41207044Y31674410D01*
X-41207240Y31674400D01*
X-41263600Y31674400D01*
X-41265332Y31675400D01*
X-41265332Y31677400D01*
X-41263796Y31678390D01*
X-41093291Y31695183D01*
X-40929521Y31744862D01*
X-40778592Y31825535D01*
X-40646303Y31934103D01*
X-40537735Y32066392D01*
X-40457062Y32217321D01*
X-40407383Y32381091D01*
X-40390590Y32551596D01*
X-40389425Y32553222D01*
X-40387435Y32553026D01*
G37*
G36*
X-43011868Y35177400D02*
G01*
X-43011868Y35175400D01*
X-43013404Y35174410D01*
X-43183909Y35157617D01*
X-43347679Y35107938D01*
X-43498608Y35027265D01*
X-43630897Y34918697D01*
X-43739465Y34786408D01*
X-43820138Y34635479D01*
X-43869817Y34471709D01*
X-43886610Y34301204D01*
X-43887775Y34299578D01*
X-43889765Y34299774D01*
X-43890600Y34301400D01*
X-43890600Y34357760D01*
X-43890590Y34357956D01*
X-43874385Y34522487D01*
X-43874309Y34522872D01*
X-43828106Y34675183D01*
X-43827956Y34675545D01*
X-43752931Y34815908D01*
X-43752713Y34816234D01*
X-43651743Y34939266D01*
X-43651466Y34939543D01*
X-43528434Y35040513D01*
X-43528108Y35040731D01*
X-43387745Y35115756D01*
X-43387383Y35115906D01*
X-43235072Y35162109D01*
X-43234687Y35162185D01*
X-43070156Y35178390D01*
X-43069960Y35178400D01*
X-43013600Y35178400D01*
X-43011868Y35177400D01*
G37*
G36*
X-41207044Y35178390D02*
G01*
X-41042513Y35162185D01*
X-41042128Y35162109D01*
X-40889817Y35115906D01*
X-40889455Y35115756D01*
X-40749092Y35040731D01*
X-40748766Y35040513D01*
X-40625734Y34939543D01*
X-40625457Y34939266D01*
X-40524487Y34816234D01*
X-40524269Y34815908D01*
X-40449244Y34675545D01*
X-40449094Y34675183D01*
X-40402891Y34522872D01*
X-40402815Y34522487D01*
X-40386610Y34357956D01*
X-40386600Y34357760D01*
X-40386600Y34301400D01*
X-40387600Y34299668D01*
X-40389600Y34299668D01*
X-40390590Y34301204D01*
X-40407383Y34471709D01*
X-40457062Y34635479D01*
X-40537735Y34786408D01*
X-40646303Y34918697D01*
X-40778592Y35027265D01*
X-40929521Y35107938D01*
X-41093291Y35157617D01*
X-41263796Y35174410D01*
X-41265422Y35175575D01*
X-41265226Y35177565D01*
X-41263600Y35178400D01*
X-41207240Y35178400D01*
X-41207044Y35178390D01*
G37*
G36*
X-43637435Y37128026D02*
G01*
X-43636600Y37126400D01*
X-43636600Y37070040D01*
X-43636610Y37069844D01*
X-43650413Y36929699D01*
X-43650489Y36929314D01*
X-43689579Y36800453D01*
X-43689729Y36800091D01*
X-43753203Y36681340D01*
X-43753421Y36681014D01*
X-43838845Y36576922D01*
X-43839122Y36576645D01*
X-43943214Y36491221D01*
X-43943540Y36491003D01*
X-44062291Y36427529D01*
X-44062653Y36427379D01*
X-44191514Y36388289D01*
X-44191899Y36388213D01*
X-44332044Y36374410D01*
X-44332240Y36374400D01*
X-44388600Y36374400D01*
X-44390332Y36375400D01*
X-44390332Y36377400D01*
X-44388796Y36378390D01*
X-44242677Y36392781D01*
X-44102356Y36435347D01*
X-43973038Y36504469D01*
X-43859691Y36597491D01*
X-43766669Y36710838D01*
X-43697547Y36840156D01*
X-43654981Y36980477D01*
X-43640590Y37126596D01*
X-43639425Y37128222D01*
X-43637435Y37128026D01*
G37*
G36*
X-46636610Y37126596D02*
G01*
X-46622219Y36980477D01*
X-46579653Y36840156D01*
X-46510531Y36710838D01*
X-46417509Y36597491D01*
X-46304162Y36504469D01*
X-46174844Y36435347D01*
X-46034523Y36392781D01*
X-45888404Y36378390D01*
X-45886778Y36377225D01*
X-45886974Y36375235D01*
X-45888600Y36374400D01*
X-45944960Y36374400D01*
X-45945156Y36374410D01*
X-46085301Y36388213D01*
X-46085686Y36388289D01*
X-46214547Y36427379D01*
X-46214909Y36427529D01*
X-46333660Y36491003D01*
X-46333986Y36491221D01*
X-46438078Y36576645D01*
X-46438355Y36576922D01*
X-46523779Y36681014D01*
X-46523997Y36681340D01*
X-46587471Y36800091D01*
X-46587621Y36800453D01*
X-46626711Y36929314D01*
X-46626787Y36929699D01*
X-46640590Y37069844D01*
X-46640600Y37070040D01*
X-46640600Y37126400D01*
X-46639600Y37128132D01*
X-46637600Y37128132D01*
X-46636610Y37126596D01*
G37*
G36*
X-45886868Y39877400D02*
G01*
X-45886868Y39875400D01*
X-45888404Y39874410D01*
X-46034523Y39860019D01*
X-46174844Y39817453D01*
X-46304162Y39748331D01*
X-46417509Y39655309D01*
X-46510531Y39541962D01*
X-46579653Y39412644D01*
X-46622219Y39272323D01*
X-46636610Y39126204D01*
X-46637775Y39124578D01*
X-46639765Y39124774D01*
X-46640600Y39126400D01*
X-46640600Y39182760D01*
X-46640590Y39182956D01*
X-46626787Y39323101D01*
X-46626711Y39323486D01*
X-46587621Y39452347D01*
X-46587471Y39452709D01*
X-46523997Y39571460D01*
X-46523779Y39571786D01*
X-46438355Y39675878D01*
X-46438078Y39676155D01*
X-46333986Y39761579D01*
X-46333660Y39761797D01*
X-46214909Y39825271D01*
X-46214547Y39825421D01*
X-46085686Y39864511D01*
X-46085301Y39864587D01*
X-45945156Y39878390D01*
X-45944960Y39878400D01*
X-45888600Y39878400D01*
X-45886868Y39877400D01*
G37*
G36*
X-44332044Y39878390D02*
G01*
X-44191899Y39864587D01*
X-44191514Y39864511D01*
X-44062653Y39825421D01*
X-44062291Y39825271D01*
X-43943540Y39761797D01*
X-43943214Y39761579D01*
X-43839122Y39676155D01*
X-43838845Y39675878D01*
X-43753421Y39571786D01*
X-43753203Y39571460D01*
X-43689729Y39452709D01*
X-43689579Y39452347D01*
X-43650489Y39323486D01*
X-43650413Y39323101D01*
X-43636610Y39182956D01*
X-43636600Y39182760D01*
X-43636600Y39126400D01*
X-43637600Y39124668D01*
X-43639600Y39124668D01*
X-43640590Y39126204D01*
X-43654981Y39272323D01*
X-43697547Y39412644D01*
X-43766669Y39541962D01*
X-43859691Y39655309D01*
X-43973038Y39748331D01*
X-44102356Y39817453D01*
X-44242677Y39860019D01*
X-44388796Y39874410D01*
X-44390422Y39875575D01*
X-44390226Y39877565D01*
X-44388600Y39878400D01*
X-44332240Y39878400D01*
X-44332044Y39878390D01*
G37*
G36*
X-23014152Y52511154D02*
G01*
X-23010993Y52503528D01*
X-22978539Y52454956D01*
X-22937234Y52413651D01*
X-22888662Y52381197D01*
X-22848271Y52364466D01*
X-22847053Y52362879D01*
X-22847818Y52361031D01*
X-22849617Y52360704D01*
X-22867012Y52365981D01*
X-22891003Y52368343D01*
X-22914994Y52365980D01*
X-22938069Y52358979D01*
X-22959332Y52347614D01*
X-22977969Y52332318D01*
X-22989940Y52317731D01*
X-22991486Y52317000D01*
X-23016000Y52317000D01*
X-23017732Y52318000D01*
X-23018000Y52319000D01*
X-23018000Y52510389D01*
X-23017000Y52512121D01*
X-23015000Y52512121D01*
X-23014152Y52511154D01*
G37*
G36*
X-22989940Y52970269D02*
G01*
X-22977968Y52955680D01*
X-22959331Y52940385D01*
X-22938067Y52929020D01*
X-22914992Y52922020D01*
X-22891001Y52919657D01*
X-22867009Y52922021D01*
X-22849615Y52927296D01*
X-22847668Y52926842D01*
X-22847087Y52924928D01*
X-22848270Y52923534D01*
X-22888662Y52906803D01*
X-22937234Y52874349D01*
X-22978539Y52833044D01*
X-23010993Y52784472D01*
X-23014152Y52776846D01*
X-23015739Y52775628D01*
X-23017587Y52776393D01*
X-23018000Y52777611D01*
X-23018000Y52969000D01*
X-23017000Y52970732D01*
X-23016000Y52971000D01*
X-22991486Y52971000D01*
X-22989940Y52970269D01*
G37*
G36*
X-23014152Y54386825D02*
G01*
X-22995803Y54342528D01*
X-22963349Y54293956D01*
X-22922044Y54252651D01*
X-22873472Y54220197D01*
X-22856375Y54213115D01*
X-22855157Y54211528D01*
X-22855922Y54209680D01*
X-22857721Y54209353D01*
X-22875110Y54214628D01*
X-22899196Y54217000D01*
X-23016000Y54217000D01*
X-23017732Y54218000D01*
X-23018000Y54219000D01*
X-23018000Y54386060D01*
X-23017000Y54387792D01*
X-23015000Y54387792D01*
X-23014152Y54386825D01*
G37*
G36*
X-23013384Y54869196D02*
G01*
X-23011628Y54851364D01*
X-23004628Y54828289D01*
X-22993263Y54807025D01*
X-22977968Y54788388D01*
X-22959331Y54773093D01*
X-22938067Y54761728D01*
X-22914992Y54754728D01*
X-22891001Y54752365D01*
X-22867010Y54754728D01*
X-22849612Y54760006D01*
X-22847664Y54759552D01*
X-22847083Y54757638D01*
X-22848266Y54756244D01*
X-22873472Y54745803D01*
X-22922044Y54713349D01*
X-22963349Y54672044D01*
X-22995803Y54623472D01*
X-23014152Y54579175D01*
X-23015739Y54577957D01*
X-23017587Y54578722D01*
X-23018000Y54579940D01*
X-23018000Y54869000D01*
X-23017000Y54870732D01*
X-23016000Y54871000D01*
X-23015374Y54871000D01*
X-23013384Y54869196D01*
G37*
M02*
