M48
INCH,TZ
T1C0.0157
T2C0.0315
T3C0.0354
T4C0.0374
T5C0.0394
T6C0.0512
T7C0.0906
T8C0.1200
%
G90
G05
T1
X-20400Y24000
X-20400Y6000
X-20400Y2000
X-20400Y-3000
X-20400Y-6000
X-20400Y-10000
X-20400Y-14500
X-20360Y17920
X-18400Y21000
X-14400Y4900
X-12900Y4000
X-12900Y2000
X-12650Y-13750
X-12400Y11000
X-12400Y6500
X-11900Y-2500
X-11900Y-5000
X-11450Y14750
X-11440Y21100
X-11400Y18500
X-11400Y13500
X-11400Y-7000
X-11400Y-10000
X-11100Y-8900
X-10900Y3000
X-10400Y19000
X-9900Y1500
X-9150Y15900
X-9100Y4800
X-8956Y20726
X-8950Y21450
X-8920Y-6520
X-8550Y13550
X-8450Y19100
X-8400Y-13800
X-8050Y14500
X-7585Y-8185
X-7400Y10000
X-7400Y2000
X-6900Y-5500
X-6650Y-7850
X-6590Y-2390
X-6400Y4000
X-6250Y17900
X-5900Y-9000
X-5880Y-9520
X-5450Y10000
X-5450Y9000
X-5450Y8200
X-5450Y7200
X-5400Y15000
X-4680Y-1520
X-4450Y20620
X-4440Y6400
X-4400Y-13750
X-3600Y-2630
X-3550Y-9520
X-3545Y-8185
X-2900Y22500
X-2510Y1180
X-1690Y2630
X-1400Y19100
X-1200Y16200
X-900Y22500
X-900Y11000
X-900Y-13100
X-720Y15130
X100Y4500
X100Y2000
X1100Y18500
X1100Y8500
X1600Y22500
X1800Y16000
X2100Y11500
X2100Y5500
X2310Y-1470
X3100Y0
X3550Y-3460
X4100Y-6000
X4130Y2450
X4930Y2510
X5600Y18800
X5600Y16500
X5750Y14660
X5950Y2440
X6100Y-9500
X7100Y12500
X7100Y10000
X7100Y-7500
X7200Y4300
X7600Y1400
X7900Y5500
X8000Y17100
X8100Y8500
X8100Y-6000
X9100Y11500
X10100Y7500
X10100Y-500
X10850Y18250
X11000Y17100
X11082Y14482
X11100Y12500
X11100Y9000
X11200Y4200
X12000Y900
X12100Y22500
X13100Y-7500
X13100Y-14500
X15600Y22500
X15800Y20300
X17100Y-7500
X18350Y-14500
X18500Y14500
X18550Y15496
X18600Y22500
X19350Y16000
X20100Y4000
X20350Y24000
X20600Y19000
X20660Y7920
X22100Y22500
X22100Y-7500
X22600Y12000
X22600Y11000
X23600Y-14500
X25100Y22500
X27100Y-7500
X27850Y-14500
X29100Y-7500
X29540Y21150
X30100Y13500
X30100Y8500
X30350Y10000
X30600Y22500
X31100Y18500
X31600Y-7500
X32100Y7500
X32100Y-500
X33100Y8500
X33360Y15990
X33650Y-9500
X34100Y7000
X34790Y-10850
X35290Y10260
X36100Y22500
X36100Y-1500
X37570Y3500
X38100Y-500
X38150Y23950
X38350Y11750
X39100Y-3500
X39350Y-14500
X39600Y1500
X41500Y14400
X44100Y11500
X44100Y9500
X44100Y8500
X44100Y2500
X44100Y1450
X44100Y-900
X44100Y-3000
X45550Y23950
X45550Y20850
X45550Y16400
X45550Y14150
X45600Y-3550
X45600Y-9750
X45600Y-14500
T2
X-2900Y19500
X-2900Y18500
X-2900Y17500
X-2900Y16500
X-2900Y15500
X-2900Y14500
X-2900Y13500
X-2900Y12500
X-2900Y11500
X-2900Y10500
X-2900Y9500
X-2900Y8500
X-2900Y7500
X-2900Y6500
X-2900Y5500
X-2900Y-4500
X-2900Y-6700
X-2900Y-8700
X-2900Y-10500
X3100Y19500
X3100Y18500
X3100Y17500
X3100Y16500
X3100Y15500
X3100Y14500
X3100Y13500
X3100Y12500
X3100Y11500
X3100Y10500
X3100Y9500
X3100Y8500
X3100Y7500
X3100Y6500
X3100Y5500
X3100Y-4500
X3100Y-6700
X3100Y-8700
X3100Y-10500
X29100Y5500
X34900Y20200
X34900Y18000
X34900Y15800
X34900Y13500
X35100Y5500
X40900Y20200
X40900Y18000
X40900Y15800
X40900Y13500
T3
X43100Y20200
X43100Y19200
X43100Y18000
X43100Y17000
X43100Y15800
X43100Y14800
X43100Y13500
X43100Y12500
T4
X-15710Y21500
X-15710Y20520
X-14920Y21500
X-14920Y20520
T5
X-16690Y3480
X-16690Y2480
X-16690Y1480
X-16690Y480
X-16690Y-520
X-16690Y-1520
X-16690Y-2520
X-16690Y-3520
X-16690Y-4520
X-16690Y-5520
X-16690Y-6520
X-16690Y-7520
X-16690Y-8520
X-16690Y-9520
X-16690Y-10520
X-16690Y-11520
X-16690Y-12520
X-16680Y10690
X-16680Y9690
X-16680Y8690
X-16680Y7690
X-15690Y3480
X-15690Y2480
X-15690Y1480
X-15690Y480
X-15690Y-520
X-15690Y-1520
X-15690Y-2520
X-15690Y-3520
X-15690Y-4520
X-15690Y-5520
X-15690Y-6520
X-15690Y-7520
X-15690Y-8520
X-15690Y-9520
X-15690Y-10520
X-15690Y-11520
X-15690Y-12520
X-13900Y13500
X-13900Y12500
X-13900Y10690
X-13900Y9690
X-13900Y8690
X-13900Y7690
X-13600Y17750
X-12650Y22500
X-12650Y21500
X-12650Y20500
X-12650Y19500
X-12600Y17750
X-10900Y10200
X-10900Y9200
X-10900Y8200
X-10900Y-11000
X-9900Y-11000
X-7400Y20310
X-6900Y-11000
X-6400Y20310
X-5900Y-11000
X-5400Y20310
X9600Y-11000
X10600Y-11000
X11600Y-11000
X13600Y19000
X13600Y18000
X13600Y17000
X13600Y16000
X13600Y15000
X13600Y14000
X13600Y13000
X13600Y12000
X13600Y11000
X13600Y10000
X13600Y9000
X13600Y8000
X13600Y7000
X13600Y6000
X13600Y5000
X13600Y4000
X13600Y3000
X13600Y2000
X13600Y1000
X13600Y0
X14900Y-10956
X15900Y-10956
X16900Y-10956
X17600Y19000
X17600Y18000
X17600Y17000
X17600Y16000
X17600Y15000
X17600Y14000
X17600Y13000
X17600Y12000
X17600Y11000
X17600Y10000
X17600Y9000
X17600Y8000
X17600Y7000
X17600Y6000
X17600Y5000
X17600Y4000
X17600Y3000
X17600Y2000
X17600Y1000
X17600Y0
X19100Y1500
X19900Y-10980
X20100Y1500
X20900Y-10980
X21100Y1500
X21155Y14100
X21155Y13100
X21180Y15100
X21900Y-10980
X22100Y1500
X22155Y15100
X22155Y14100
X22155Y13100
X23600Y19000
X23600Y18000
X23600Y17000
X23600Y16000
X23600Y15000
X23600Y14000
X23600Y13000
X23600Y12000
X23600Y11000
X23600Y10000
X23600Y9000
X23600Y8000
X23600Y7000
X23600Y6000
X23600Y5000
X23600Y4000
X23600Y3000
X23600Y2000
X23600Y1000
X23600Y0
X24600Y-9500
X24600Y-11000
X25600Y-9500
X25600Y-11000
X26600Y-9500
X26600Y-11000
X27600Y19000
X27600Y18000
X27600Y17000
X27600Y16000
X27600Y15000
X27600Y14000
X27600Y13000
X27600Y12000
X27600Y11000
X27600Y10000
X27600Y9000
X27600Y8000
X27600Y7000
X27600Y6000
X27600Y5000
X27600Y4000
X27600Y3000
X27600Y2000
X27600Y1000
X27600Y0
X29340Y-9500
X29340Y-11000
X30340Y-9500
X30340Y-11000
X31340Y-9500
X31340Y-11000
X36350Y-9000
X36350Y-10000
X36350Y-11000
X36350Y-12000
X36350Y-13000
X36350Y-14000
X37350Y-9000
X37350Y-10000
X37350Y-11000
X37350Y-12000
X37350Y-13000
X37350Y-14000
X38350Y-9000
X38350Y-10000
X38350Y-11000
X38350Y-12000
X38350Y-13000
X38350Y-14000
X40600Y-500
X40600Y-1500
X40600Y-2500
X40600Y-5000
X40600Y-6000
X40600Y-7000
X40600Y-8000
X41100Y23000
X41100Y22000
X41100Y9500
X41100Y8500
X41100Y7500
X41100Y6500
X42100Y-5000
X42100Y-6000
X42100Y-7000
X42100Y-8000
X42100Y-10000
X42100Y-11000
X42100Y-12000
X42100Y-13000
X43100Y6500
X43100Y5500
X43100Y4500
X43100Y3500
X43600Y23396
X43600Y21604
T6
X42616Y23878
X42616Y21122
T7
X-16780Y23380
X-16780Y18640
T8
X6344Y23254
X6344Y-13754
X33903Y23254
X33903Y-13754
T5
G00X-17771Y15404
M15
G01X-17771Y14617
M16
G05
G00X-16984Y13160
M15
G01X-16196Y13160
M16
G05
G00X-15409Y15404
M15
G01X-15409Y14617
M16
G05
T0
M30
