G04 #@! TF.GenerationSoftware,KiCad,Pcbnew,(5.1.9)-1*
G04 #@! TF.CreationDate,2021-03-14T14:47:40+00:00*
G04 #@! TF.ProjectId,Greaseweazle F1 3.5 Inch Rev 2B,47726561-7365-4776-9561-7a6c65204631,2B*
G04 #@! TF.SameCoordinates,PX6312cb0PY6bcb370*
G04 #@! TF.FileFunction,Legend,Bot*
G04 #@! TF.FilePolarity,Positive*
%FSLAX46Y46*%
G04 Gerber Fmt 4.6, Leading zero omitted, Abs format (unit mm)*
G04 Created by KiCad (PCBNEW (5.1.9)-1) date 2021-03-14 14:47:40*
%MOMM*%
%LPD*%
G01*
G04 APERTURE LIST*
%ADD10C,0.125000*%
%ADD11C,0.304800*%
%ADD12C,0.150000*%
%ADD13C,0.120000*%
G04 APERTURE END LIST*
D10*
X102425428Y16885000D02*
X102496857Y16920715D01*
X102604000Y16920715D01*
X102711142Y16885000D01*
X102782571Y16813572D01*
X102818285Y16742143D01*
X102854000Y16599286D01*
X102854000Y16492143D01*
X102818285Y16349286D01*
X102782571Y16277858D01*
X102711142Y16206429D01*
X102604000Y16170715D01*
X102532571Y16170715D01*
X102425428Y16206429D01*
X102389714Y16242143D01*
X102389714Y16492143D01*
X102532571Y16492143D01*
X102068285Y16170715D02*
X102068285Y16920715D01*
X101639714Y16170715D01*
X101639714Y16920715D01*
X101282571Y16170715D02*
X101282571Y16920715D01*
X101104000Y16920715D01*
X100996857Y16885000D01*
X100925428Y16813572D01*
X100889714Y16742143D01*
X100854000Y16599286D01*
X100854000Y16492143D01*
X100889714Y16349286D01*
X100925428Y16277858D01*
X100996857Y16206429D01*
X101104000Y16170715D01*
X101282571Y16170715D01*
X102782571Y11162143D02*
X102818285Y11126429D01*
X102925428Y11090715D01*
X102996857Y11090715D01*
X103104000Y11126429D01*
X103175428Y11197858D01*
X103211142Y11269286D01*
X103246857Y11412143D01*
X103246857Y11519286D01*
X103211142Y11662143D01*
X103175428Y11733572D01*
X103104000Y11805000D01*
X102996857Y11840715D01*
X102925428Y11840715D01*
X102818285Y11805000D01*
X102782571Y11769286D01*
X102354000Y11090715D02*
X102425428Y11126429D01*
X102461142Y11197858D01*
X102461142Y11840715D01*
X101961142Y11090715D02*
X102032571Y11126429D01*
X102068285Y11162143D01*
X102104000Y11233572D01*
X102104000Y11447858D01*
X102068285Y11519286D01*
X102032571Y11555000D01*
X101961142Y11590715D01*
X101854000Y11590715D01*
X101782571Y11555000D01*
X101746857Y11519286D01*
X101711142Y11447858D01*
X101711142Y11233572D01*
X101746857Y11162143D01*
X101782571Y11126429D01*
X101854000Y11090715D01*
X101961142Y11090715D01*
X101068285Y11126429D02*
X101139714Y11090715D01*
X101282571Y11090715D01*
X101354000Y11126429D01*
X101389714Y11162143D01*
X101425428Y11233572D01*
X101425428Y11447858D01*
X101389714Y11519286D01*
X101354000Y11555000D01*
X101282571Y11590715D01*
X101139714Y11590715D01*
X101068285Y11555000D01*
X100746857Y11090715D02*
X100746857Y11840715D01*
X100675428Y11376429D02*
X100461142Y11090715D01*
X100461142Y11590715D02*
X100746857Y11305000D01*
X102943285Y8550715D02*
X102943285Y9300715D01*
X102764714Y9300715D01*
X102657571Y9265000D01*
X102586142Y9193572D01*
X102550428Y9122143D01*
X102514714Y8979286D01*
X102514714Y8872143D01*
X102550428Y8729286D01*
X102586142Y8657858D01*
X102657571Y8586429D01*
X102764714Y8550715D01*
X102943285Y8550715D01*
X101871857Y8550715D02*
X101871857Y8943572D01*
X101907571Y9015000D01*
X101979000Y9050715D01*
X102121857Y9050715D01*
X102193285Y9015000D01*
X101871857Y8586429D02*
X101943285Y8550715D01*
X102121857Y8550715D01*
X102193285Y8586429D01*
X102229000Y8657858D01*
X102229000Y8729286D01*
X102193285Y8800715D01*
X102121857Y8836429D01*
X101943285Y8836429D01*
X101871857Y8872143D01*
X101621857Y9050715D02*
X101336142Y9050715D01*
X101514714Y9300715D02*
X101514714Y8657858D01*
X101479000Y8586429D01*
X101407571Y8550715D01*
X101336142Y8550715D01*
X100764714Y8550715D02*
X100764714Y8943572D01*
X100800428Y9015000D01*
X100871857Y9050715D01*
X101014714Y9050715D01*
X101086142Y9015000D01*
X100764714Y8586429D02*
X100836142Y8550715D01*
X101014714Y8550715D01*
X101086142Y8586429D01*
X101121857Y8657858D01*
X101121857Y8729286D01*
X101086142Y8800715D01*
X101014714Y8836429D01*
X100836142Y8836429D01*
X100764714Y8872143D01*
X102854000Y14380715D02*
X102604000Y13630715D01*
X102354000Y14380715D01*
X101675428Y13702143D02*
X101711142Y13666429D01*
X101818285Y13630715D01*
X101889714Y13630715D01*
X101996857Y13666429D01*
X102068285Y13737858D01*
X102104000Y13809286D01*
X102139714Y13952143D01*
X102139714Y14059286D01*
X102104000Y14202143D01*
X102068285Y14273572D01*
X101996857Y14345000D01*
X101889714Y14380715D01*
X101818285Y14380715D01*
X101711142Y14345000D01*
X101675428Y14309286D01*
X100925428Y13702143D02*
X100961142Y13666429D01*
X101068285Y13630715D01*
X101139714Y13630715D01*
X101246857Y13666429D01*
X101318285Y13737858D01*
X101354000Y13809286D01*
X101389714Y13952143D01*
X101389714Y14059286D01*
X101354000Y14202143D01*
X101318285Y14273572D01*
X101246857Y14345000D01*
X101139714Y14380715D01*
X101068285Y14380715D01*
X100961142Y14345000D01*
X100925428Y14309286D01*
X96519714Y14628572D02*
X96769714Y14628572D01*
X96769714Y14235715D02*
X96769714Y14985715D01*
X96412571Y14985715D01*
X96019714Y14235715D02*
X96091142Y14271429D01*
X96126857Y14307143D01*
X96162571Y14378572D01*
X96162571Y14592858D01*
X96126857Y14664286D01*
X96091142Y14700000D01*
X96019714Y14735715D01*
X95912571Y14735715D01*
X95841142Y14700000D01*
X95805428Y14664286D01*
X95769714Y14592858D01*
X95769714Y14378572D01*
X95805428Y14307143D01*
X95841142Y14271429D01*
X95912571Y14235715D01*
X96019714Y14235715D01*
X95448285Y14235715D02*
X95448285Y14735715D01*
X95448285Y14592858D02*
X95412571Y14664286D01*
X95376857Y14700000D01*
X95305428Y14735715D01*
X95234000Y14735715D01*
X94269714Y14985715D02*
X94198285Y14985715D01*
X94126857Y14950000D01*
X94091142Y14914286D01*
X94055428Y14842858D01*
X94019714Y14700000D01*
X94019714Y14521429D01*
X94055428Y14378572D01*
X94091142Y14307143D01*
X94126857Y14271429D01*
X94198285Y14235715D01*
X94269714Y14235715D01*
X94341142Y14271429D01*
X94376857Y14307143D01*
X94412571Y14378572D01*
X94448285Y14521429D01*
X94448285Y14700000D01*
X94412571Y14842858D01*
X94376857Y14914286D01*
X94341142Y14950000D01*
X94269714Y14985715D01*
X93698285Y14307143D02*
X93662571Y14271429D01*
X93698285Y14235715D01*
X93734000Y14271429D01*
X93698285Y14307143D01*
X93698285Y14235715D01*
X93305428Y14235715D02*
X93162571Y14235715D01*
X93091142Y14271429D01*
X93055428Y14307143D01*
X92984000Y14414286D01*
X92948285Y14557143D01*
X92948285Y14842858D01*
X92984000Y14914286D01*
X93019714Y14950000D01*
X93091142Y14985715D01*
X93234000Y14985715D01*
X93305428Y14950000D01*
X93341142Y14914286D01*
X93376857Y14842858D01*
X93376857Y14664286D01*
X93341142Y14592858D01*
X93305428Y14557143D01*
X93234000Y14521429D01*
X93091142Y14521429D01*
X93019714Y14557143D01*
X92984000Y14592858D01*
X92948285Y14664286D01*
X92305428Y14985715D02*
X92448285Y14985715D01*
X92519714Y14950000D01*
X92555428Y14914286D01*
X92626857Y14807143D01*
X92662571Y14664286D01*
X92662571Y14378572D01*
X92626857Y14307143D01*
X92591142Y14271429D01*
X92519714Y14235715D01*
X92376857Y14235715D01*
X92305428Y14271429D01*
X92269714Y14307143D01*
X92234000Y14378572D01*
X92234000Y14557143D01*
X92269714Y14628572D01*
X92305428Y14664286D01*
X92376857Y14700000D01*
X92519714Y14700000D01*
X92591142Y14664286D01*
X92626857Y14628572D01*
X92662571Y14557143D01*
X91948285Y14985715D02*
X91948285Y14842858D01*
X91662571Y14985715D02*
X91662571Y14842858D01*
X95751857Y12985715D02*
X96180428Y12985715D01*
X95966142Y12985715D02*
X95966142Y13735715D01*
X96037571Y13628572D01*
X96109000Y13557143D01*
X96180428Y13521429D01*
X95466142Y13664286D02*
X95430428Y13700000D01*
X95359000Y13735715D01*
X95180428Y13735715D01*
X95109000Y13700000D01*
X95073285Y13664286D01*
X95037571Y13592858D01*
X95037571Y13521429D01*
X95073285Y13414286D01*
X95501857Y12985715D01*
X95037571Y12985715D01*
X94609000Y13414286D02*
X94680428Y13450000D01*
X94716142Y13485715D01*
X94751857Y13557143D01*
X94751857Y13592858D01*
X94716142Y13664286D01*
X94680428Y13700000D01*
X94609000Y13735715D01*
X94466142Y13735715D01*
X94394714Y13700000D01*
X94359000Y13664286D01*
X94323285Y13592858D01*
X94323285Y13557143D01*
X94359000Y13485715D01*
X94394714Y13450000D01*
X94466142Y13414286D01*
X94609000Y13414286D01*
X94680428Y13378572D01*
X94716142Y13342858D01*
X94751857Y13271429D01*
X94751857Y13128572D01*
X94716142Y13057143D01*
X94680428Y13021429D01*
X94609000Y12985715D01*
X94466142Y12985715D01*
X94394714Y13021429D01*
X94359000Y13057143D01*
X94323285Y13128572D01*
X94323285Y13271429D01*
X94359000Y13342858D01*
X94394714Y13378572D01*
X94466142Y13414286D01*
X94073285Y12985715D02*
X93680428Y13485715D01*
X94073285Y13485715D02*
X93680428Y12985715D01*
X93073285Y13735715D02*
X93216142Y13735715D01*
X93287571Y13700000D01*
X93323285Y13664286D01*
X93394714Y13557143D01*
X93430428Y13414286D01*
X93430428Y13128572D01*
X93394714Y13057143D01*
X93359000Y13021429D01*
X93287571Y12985715D01*
X93144714Y12985715D01*
X93073285Y13021429D01*
X93037571Y13057143D01*
X93001857Y13128572D01*
X93001857Y13307143D01*
X93037571Y13378572D01*
X93073285Y13414286D01*
X93144714Y13450000D01*
X93287571Y13450000D01*
X93359000Y13414286D01*
X93394714Y13378572D01*
X93430428Y13307143D01*
X92359000Y13485715D02*
X92359000Y12985715D01*
X92537571Y13771429D02*
X92716142Y13235715D01*
X92251857Y13235715D01*
X95323285Y12485715D02*
X95180428Y12485715D01*
X95109000Y12450000D01*
X95037571Y12378572D01*
X95001857Y12235715D01*
X95001857Y11985715D01*
X95037571Y11842858D01*
X95109000Y11771429D01*
X95180428Y11735715D01*
X95323285Y11735715D01*
X95394714Y11771429D01*
X95466142Y11842858D01*
X95501857Y11985715D01*
X95501857Y12235715D01*
X95466142Y12378572D01*
X95394714Y12450000D01*
X95323285Y12485715D01*
X94323285Y11735715D02*
X94680428Y11735715D01*
X94680428Y12485715D01*
X94073285Y12128572D02*
X93823285Y12128572D01*
X93716142Y11735715D02*
X94073285Y11735715D01*
X94073285Y12485715D01*
X93716142Y12485715D01*
X93394714Y11735715D02*
X93394714Y12485715D01*
X93216142Y12485715D01*
X93109000Y12450000D01*
X93037571Y12378572D01*
X93001857Y12307143D01*
X92966142Y12164286D01*
X92966142Y12057143D01*
X93001857Y11914286D01*
X93037571Y11842858D01*
X93109000Y11771429D01*
X93216142Y11735715D01*
X93394714Y11735715D01*
X97948285Y10200000D02*
X97984000Y10235715D01*
X98055428Y10342858D01*
X98091142Y10414286D01*
X98126857Y10521429D01*
X98162571Y10700000D01*
X98162571Y10842858D01*
X98126857Y11021429D01*
X98091142Y11128572D01*
X98055428Y11200000D01*
X97984000Y11307143D01*
X97948285Y11342858D01*
X97662571Y11235715D02*
X97662571Y10628572D01*
X97626857Y10557143D01*
X97591142Y10521429D01*
X97519714Y10485715D01*
X97376857Y10485715D01*
X97305428Y10521429D01*
X97269714Y10557143D01*
X97234000Y10628572D01*
X97234000Y11235715D01*
X96876857Y10985715D02*
X96876857Y10235715D01*
X96876857Y10950000D02*
X96805428Y10985715D01*
X96662571Y10985715D01*
X96591142Y10950000D01*
X96555428Y10914286D01*
X96519714Y10842858D01*
X96519714Y10628572D01*
X96555428Y10557143D01*
X96591142Y10521429D01*
X96662571Y10485715D01*
X96805428Y10485715D01*
X96876857Y10521429D01*
X96234000Y10521429D02*
X96162571Y10485715D01*
X96019714Y10485715D01*
X95948285Y10521429D01*
X95912571Y10592858D01*
X95912571Y10628572D01*
X95948285Y10700000D01*
X96019714Y10735715D01*
X96126857Y10735715D01*
X96198285Y10771429D01*
X96234000Y10842858D01*
X96234000Y10878572D01*
X96198285Y10950000D01*
X96126857Y10985715D01*
X96019714Y10985715D01*
X95948285Y10950000D01*
X95591142Y10485715D02*
X95591142Y10985715D01*
X95591142Y11235715D02*
X95626857Y11200000D01*
X95591142Y11164286D01*
X95555428Y11200000D01*
X95591142Y11235715D01*
X95591142Y11164286D01*
X94912571Y10485715D02*
X94912571Y11235715D01*
X94912571Y10521429D02*
X94984000Y10485715D01*
X95126857Y10485715D01*
X95198285Y10521429D01*
X95234000Y10557143D01*
X95269714Y10628572D01*
X95269714Y10842858D01*
X95234000Y10914286D01*
X95198285Y10950000D01*
X95126857Y10985715D01*
X94984000Y10985715D01*
X94912571Y10950000D01*
X94269714Y10521429D02*
X94341142Y10485715D01*
X94484000Y10485715D01*
X94555428Y10521429D01*
X94591142Y10592858D01*
X94591142Y10878572D01*
X94555428Y10950000D01*
X94484000Y10985715D01*
X94341142Y10985715D01*
X94269714Y10950000D01*
X94234000Y10878572D01*
X94234000Y10807143D01*
X94591142Y10735715D01*
X93341142Y10485715D02*
X93341142Y11235715D01*
X93162571Y11235715D01*
X93055428Y11200000D01*
X92984000Y11128572D01*
X92948285Y11057143D01*
X92912571Y10914286D01*
X92912571Y10807143D01*
X92948285Y10664286D01*
X92984000Y10592858D01*
X93055428Y10521429D01*
X93162571Y10485715D01*
X93341142Y10485715D01*
X92484000Y10485715D02*
X92555428Y10521429D01*
X92591142Y10557143D01*
X92626857Y10628572D01*
X92626857Y10842858D01*
X92591142Y10914286D01*
X92555428Y10950000D01*
X92484000Y10985715D01*
X92376857Y10985715D01*
X92305428Y10950000D01*
X92269714Y10914286D01*
X92234000Y10842858D01*
X92234000Y10628572D01*
X92269714Y10557143D01*
X92305428Y10521429D01*
X92376857Y10485715D01*
X92484000Y10485715D01*
X91984000Y10985715D02*
X91841142Y10485715D01*
X91698285Y10842858D01*
X91555428Y10485715D01*
X91412571Y10985715D01*
X91126857Y10985715D02*
X91126857Y10485715D01*
X91126857Y10914286D02*
X91091142Y10950000D01*
X91019714Y10985715D01*
X90912571Y10985715D01*
X90841142Y10950000D01*
X90805428Y10878572D01*
X90805428Y10485715D01*
X90519714Y10200000D02*
X90484000Y10235715D01*
X90412571Y10342858D01*
X90376857Y10414286D01*
X90341142Y10521429D01*
X90305428Y10700000D01*
X90305428Y10842858D01*
X90341142Y11021429D01*
X90376857Y11128572D01*
X90412571Y11200000D01*
X90484000Y11307143D01*
X90519714Y11342858D01*
X100647333Y17898334D02*
X100314000Y17898334D01*
X99647333Y17565000D01*
X99314000Y16898334D01*
X99314000Y13565000D01*
X98980666Y12898334D01*
X98314000Y12565000D01*
X98980666Y12231667D01*
X99314000Y11565000D01*
X99314000Y8231667D01*
X99647333Y7565000D01*
X100314000Y7231667D01*
X100647333Y7231667D01*
D11*
X87051118Y-5735000D02*
X87289213Y-5615952D01*
X87646356Y-5615952D01*
X88003499Y-5735000D01*
X88241594Y-5973095D01*
X88360641Y-6211190D01*
X88479689Y-6687380D01*
X88479689Y-7044523D01*
X88360641Y-7520714D01*
X88241594Y-7758809D01*
X88003499Y-7996904D01*
X87646356Y-8115952D01*
X87408260Y-8115952D01*
X87051118Y-7996904D01*
X86932070Y-7877857D01*
X86932070Y-7044523D01*
X87408260Y-7044523D01*
X85860641Y-8115952D02*
X85860641Y-6449285D01*
X85860641Y-6925476D02*
X85741594Y-6687380D01*
X85622546Y-6568333D01*
X85384451Y-6449285D01*
X85146356Y-6449285D01*
X83360641Y-7996904D02*
X83598737Y-8115952D01*
X84074927Y-8115952D01*
X84313022Y-7996904D01*
X84432070Y-7758809D01*
X84432070Y-6806428D01*
X84313022Y-6568333D01*
X84074927Y-6449285D01*
X83598737Y-6449285D01*
X83360641Y-6568333D01*
X83241594Y-6806428D01*
X83241594Y-7044523D01*
X84432070Y-7282619D01*
X81098737Y-8115952D02*
X81098737Y-6806428D01*
X81217784Y-6568333D01*
X81455880Y-6449285D01*
X81932070Y-6449285D01*
X82170165Y-6568333D01*
X81098737Y-7996904D02*
X81336832Y-8115952D01*
X81932070Y-8115952D01*
X82170165Y-7996904D01*
X82289213Y-7758809D01*
X82289213Y-7520714D01*
X82170165Y-7282619D01*
X81932070Y-7163571D01*
X81336832Y-7163571D01*
X81098737Y-7044523D01*
X80027308Y-7996904D02*
X79789213Y-8115952D01*
X79313022Y-8115952D01*
X79074927Y-7996904D01*
X78955880Y-7758809D01*
X78955880Y-7639761D01*
X79074927Y-7401666D01*
X79313022Y-7282619D01*
X79670165Y-7282619D01*
X79908260Y-7163571D01*
X80027308Y-6925476D01*
X80027308Y-6806428D01*
X79908260Y-6568333D01*
X79670165Y-6449285D01*
X79313022Y-6449285D01*
X79074927Y-6568333D01*
X76932070Y-7996904D02*
X77170165Y-8115952D01*
X77646356Y-8115952D01*
X77884451Y-7996904D01*
X78003499Y-7758809D01*
X78003499Y-6806428D01*
X77884451Y-6568333D01*
X77646356Y-6449285D01*
X77170165Y-6449285D01*
X76932070Y-6568333D01*
X76813022Y-6806428D01*
X76813022Y-7044523D01*
X78003499Y-7282619D01*
X75979689Y-6449285D02*
X75503499Y-8115952D01*
X75027308Y-6925476D01*
X74551118Y-8115952D01*
X74074927Y-6449285D01*
X72170165Y-7996904D02*
X72408260Y-8115952D01*
X72884451Y-8115952D01*
X73122546Y-7996904D01*
X73241594Y-7758809D01*
X73241594Y-6806428D01*
X73122546Y-6568333D01*
X72884451Y-6449285D01*
X72408260Y-6449285D01*
X72170165Y-6568333D01*
X72051118Y-6806428D01*
X72051118Y-7044523D01*
X73241594Y-7282619D01*
X69908260Y-8115952D02*
X69908260Y-6806428D01*
X70027308Y-6568333D01*
X70265403Y-6449285D01*
X70741594Y-6449285D01*
X70979689Y-6568333D01*
X69908260Y-7996904D02*
X70146356Y-8115952D01*
X70741594Y-8115952D01*
X70979689Y-7996904D01*
X71098737Y-7758809D01*
X71098737Y-7520714D01*
X70979689Y-7282619D01*
X70741594Y-7163571D01*
X70146356Y-7163571D01*
X69908260Y-7044523D01*
X68955880Y-6449285D02*
X67646356Y-6449285D01*
X68955880Y-8115952D01*
X67646356Y-8115952D01*
X66336832Y-8115952D02*
X66574927Y-7996904D01*
X66693975Y-7758809D01*
X66693975Y-5615952D01*
X64432070Y-7996904D02*
X64670165Y-8115952D01*
X65146356Y-8115952D01*
X65384451Y-7996904D01*
X65503499Y-7758809D01*
X65503499Y-6806428D01*
X65384451Y-6568333D01*
X65146356Y-6449285D01*
X64670165Y-6449285D01*
X64432070Y-6568333D01*
X64313022Y-6806428D01*
X64313022Y-7044523D01*
X65503499Y-7282619D01*
X60503499Y-6806428D02*
X61336832Y-6806428D01*
X61336832Y-8115952D02*
X61336832Y-5615952D01*
X60146356Y-5615952D01*
X57884451Y-8115952D02*
X59313022Y-8115952D01*
X58598737Y-8115952D02*
X58598737Y-5615952D01*
X58836832Y-5973095D01*
X59074927Y-6211190D01*
X59313022Y-6330238D01*
X55146356Y-5615952D02*
X53598737Y-5615952D01*
X54432070Y-6568333D01*
X54074927Y-6568333D01*
X53836832Y-6687380D01*
X53717784Y-6806428D01*
X53598737Y-7044523D01*
X53598737Y-7639761D01*
X53717784Y-7877857D01*
X53836832Y-7996904D01*
X54074927Y-8115952D01*
X54789213Y-8115952D01*
X55027308Y-7996904D01*
X55146356Y-7877857D01*
X52527308Y-7877857D02*
X52408260Y-7996904D01*
X52527308Y-8115952D01*
X52646356Y-7996904D01*
X52527308Y-7877857D01*
X52527308Y-8115952D01*
X50146356Y-5615952D02*
X51336832Y-5615952D01*
X51455880Y-6806428D01*
X51336832Y-6687380D01*
X51098737Y-6568333D01*
X50503499Y-6568333D01*
X50265403Y-6687380D01*
X50146356Y-6806428D01*
X50027308Y-7044523D01*
X50027308Y-7639761D01*
X50146356Y-7877857D01*
X50265403Y-7996904D01*
X50503499Y-8115952D01*
X51098737Y-8115952D01*
X51336832Y-7996904D01*
X51455880Y-7877857D01*
X45622546Y-8115952D02*
X46455880Y-6925476D01*
X47051118Y-8115952D02*
X47051118Y-5615952D01*
X46098737Y-5615952D01*
X45860641Y-5735000D01*
X45741594Y-5854047D01*
X45622546Y-6092142D01*
X45622546Y-6449285D01*
X45741594Y-6687380D01*
X45860641Y-6806428D01*
X46098737Y-6925476D01*
X47051118Y-6925476D01*
X43598737Y-7996904D02*
X43836832Y-8115952D01*
X44313022Y-8115952D01*
X44551118Y-7996904D01*
X44670165Y-7758809D01*
X44670165Y-6806428D01*
X44551118Y-6568333D01*
X44313022Y-6449285D01*
X43836832Y-6449285D01*
X43598737Y-6568333D01*
X43479689Y-6806428D01*
X43479689Y-7044523D01*
X44670165Y-7282619D01*
X42646356Y-6449285D02*
X42051118Y-8115952D01*
X41455880Y-6449285D01*
X38717784Y-5854047D02*
X38598737Y-5735000D01*
X38360641Y-5615952D01*
X37765403Y-5615952D01*
X37527308Y-5735000D01*
X37408260Y-5854047D01*
X37289213Y-6092142D01*
X37289213Y-6330238D01*
X37408260Y-6687380D01*
X38836832Y-8115952D01*
X37289213Y-8115952D01*
X35384451Y-6806428D02*
X35027308Y-6925476D01*
X34908260Y-7044523D01*
X34789213Y-7282619D01*
X34789213Y-7639761D01*
X34908260Y-7877857D01*
X35027308Y-7996904D01*
X35265403Y-8115952D01*
X36217784Y-8115952D01*
X36217784Y-5615952D01*
X35384451Y-5615952D01*
X35146356Y-5735000D01*
X35027308Y-5854047D01*
X34908260Y-6092142D01*
X34908260Y-6330238D01*
X35027308Y-6568333D01*
X35146356Y-6687380D01*
X35384451Y-6806428D01*
X36217784Y-6806428D01*
D12*
X88285004Y-11057380D02*
X88285004Y-10057380D01*
X87808814Y-10390714D02*
X87808814Y-11057380D01*
X87808814Y-10485952D02*
X87761195Y-10438333D01*
X87665957Y-10390714D01*
X87523100Y-10390714D01*
X87427861Y-10438333D01*
X87380242Y-10533571D01*
X87380242Y-11057380D01*
X86951671Y-11009761D02*
X86856433Y-11057380D01*
X86665957Y-11057380D01*
X86570719Y-11009761D01*
X86523100Y-10914523D01*
X86523100Y-10866904D01*
X86570719Y-10771666D01*
X86665957Y-10724047D01*
X86808814Y-10724047D01*
X86904052Y-10676428D01*
X86951671Y-10581190D01*
X86951671Y-10533571D01*
X86904052Y-10438333D01*
X86808814Y-10390714D01*
X86665957Y-10390714D01*
X86570719Y-10438333D01*
X86094528Y-10390714D02*
X86094528Y-11390714D01*
X86094528Y-10438333D02*
X85999290Y-10390714D01*
X85808814Y-10390714D01*
X85713576Y-10438333D01*
X85665957Y-10485952D01*
X85618338Y-10581190D01*
X85618338Y-10866904D01*
X85665957Y-10962142D01*
X85713576Y-11009761D01*
X85808814Y-11057380D01*
X85999290Y-11057380D01*
X86094528Y-11009761D01*
X85189766Y-11057380D02*
X85189766Y-10390714D01*
X85189766Y-10057380D02*
X85237385Y-10105000D01*
X85189766Y-10152619D01*
X85142147Y-10105000D01*
X85189766Y-10057380D01*
X85189766Y-10152619D01*
X84713576Y-11057380D02*
X84713576Y-10390714D01*
X84713576Y-10581190D02*
X84665957Y-10485952D01*
X84618338Y-10438333D01*
X84523100Y-10390714D01*
X84427861Y-10390714D01*
X83713576Y-11009761D02*
X83808814Y-11057380D01*
X83999290Y-11057380D01*
X84094528Y-11009761D01*
X84142147Y-10914523D01*
X84142147Y-10533571D01*
X84094528Y-10438333D01*
X83999290Y-10390714D01*
X83808814Y-10390714D01*
X83713576Y-10438333D01*
X83665957Y-10533571D01*
X83665957Y-10628809D01*
X84142147Y-10724047D01*
X82808814Y-11057380D02*
X82808814Y-10057380D01*
X82808814Y-11009761D02*
X82904052Y-11057380D01*
X83094528Y-11057380D01*
X83189766Y-11009761D01*
X83237385Y-10962142D01*
X83285004Y-10866904D01*
X83285004Y-10581190D01*
X83237385Y-10485952D01*
X83189766Y-10438333D01*
X83094528Y-10390714D01*
X82904052Y-10390714D01*
X82808814Y-10438333D01*
X81570719Y-11057380D02*
X81570719Y-10057380D01*
X81570719Y-10438333D02*
X81475480Y-10390714D01*
X81285004Y-10390714D01*
X81189766Y-10438333D01*
X81142147Y-10485952D01*
X81094528Y-10581190D01*
X81094528Y-10866904D01*
X81142147Y-10962142D01*
X81189766Y-11009761D01*
X81285004Y-11057380D01*
X81475480Y-11057380D01*
X81570719Y-11009761D01*
X80761195Y-10390714D02*
X80523100Y-11057380D01*
X80285004Y-10390714D02*
X80523100Y-11057380D01*
X80618338Y-11295476D01*
X80665957Y-11343095D01*
X80761195Y-11390714D01*
X79142147Y-11057380D02*
X79142147Y-10057380D01*
X78570719Y-11057380D02*
X78999290Y-10485952D01*
X78570719Y-10057380D02*
X79142147Y-10628809D01*
X77761195Y-11009761D02*
X77856433Y-11057380D01*
X78046909Y-11057380D01*
X78142147Y-11009761D01*
X78189766Y-10914523D01*
X78189766Y-10533571D01*
X78142147Y-10438333D01*
X78046909Y-10390714D01*
X77856433Y-10390714D01*
X77761195Y-10438333D01*
X77713576Y-10533571D01*
X77713576Y-10628809D01*
X78189766Y-10724047D01*
X77285004Y-11057380D02*
X77285004Y-10390714D01*
X77285004Y-10057380D02*
X77332623Y-10105000D01*
X77285004Y-10152619D01*
X77237385Y-10105000D01*
X77285004Y-10057380D01*
X77285004Y-10152619D01*
X76808814Y-11057380D02*
X76808814Y-10390714D01*
X76808814Y-10581190D02*
X76761195Y-10485952D01*
X76713576Y-10438333D01*
X76618338Y-10390714D01*
X76523100Y-10390714D01*
X75094528Y-10533571D02*
X75427861Y-10533571D01*
X75427861Y-11057380D02*
X75427861Y-10057380D01*
X74951671Y-10057380D01*
X74570719Y-11057380D02*
X74570719Y-10390714D01*
X74570719Y-10581190D02*
X74523100Y-10485952D01*
X74475480Y-10438333D01*
X74380242Y-10390714D01*
X74285004Y-10390714D01*
X73523100Y-11057380D02*
X73523100Y-10533571D01*
X73570719Y-10438333D01*
X73665957Y-10390714D01*
X73856433Y-10390714D01*
X73951671Y-10438333D01*
X73523100Y-11009761D02*
X73618338Y-11057380D01*
X73856433Y-11057380D01*
X73951671Y-11009761D01*
X73999290Y-10914523D01*
X73999290Y-10819285D01*
X73951671Y-10724047D01*
X73856433Y-10676428D01*
X73618338Y-10676428D01*
X73523100Y-10628809D01*
X73094528Y-11009761D02*
X72999290Y-11057380D01*
X72808814Y-11057380D01*
X72713576Y-11009761D01*
X72665957Y-10914523D01*
X72665957Y-10866904D01*
X72713576Y-10771666D01*
X72808814Y-10724047D01*
X72951671Y-10724047D01*
X73046909Y-10676428D01*
X73094528Y-10581190D01*
X73094528Y-10533571D01*
X73046909Y-10438333D01*
X72951671Y-10390714D01*
X72808814Y-10390714D01*
X72713576Y-10438333D01*
X71856433Y-11009761D02*
X71951671Y-11057380D01*
X72142147Y-11057380D01*
X72237385Y-11009761D01*
X72285004Y-10914523D01*
X72285004Y-10533571D01*
X72237385Y-10438333D01*
X72142147Y-10390714D01*
X71951671Y-10390714D01*
X71856433Y-10438333D01*
X71808814Y-10533571D01*
X71808814Y-10628809D01*
X72285004Y-10724047D01*
X71380242Y-11057380D02*
X71380242Y-10390714D01*
X71380242Y-10581190D02*
X71332623Y-10485952D01*
X71285004Y-10438333D01*
X71189766Y-10390714D01*
X71094528Y-10390714D01*
X70713576Y-10057380D02*
X70808814Y-10247857D01*
X70332623Y-11009761D02*
X70237385Y-11057380D01*
X70046909Y-11057380D01*
X69951671Y-11009761D01*
X69904052Y-10914523D01*
X69904052Y-10866904D01*
X69951671Y-10771666D01*
X70046909Y-10724047D01*
X70189766Y-10724047D01*
X70285004Y-10676428D01*
X70332623Y-10581190D01*
X70332623Y-10533571D01*
X70285004Y-10438333D01*
X70189766Y-10390714D01*
X70046909Y-10390714D01*
X69951671Y-10438333D01*
X68189766Y-10105000D02*
X68285004Y-10057380D01*
X68427861Y-10057380D01*
X68570719Y-10105000D01*
X68665957Y-10200238D01*
X68713576Y-10295476D01*
X68761195Y-10485952D01*
X68761195Y-10628809D01*
X68713576Y-10819285D01*
X68665957Y-10914523D01*
X68570719Y-11009761D01*
X68427861Y-11057380D01*
X68332623Y-11057380D01*
X68189766Y-11009761D01*
X68142147Y-10962142D01*
X68142147Y-10628809D01*
X68332623Y-10628809D01*
X67713576Y-11057380D02*
X67713576Y-10390714D01*
X67713576Y-10581190D02*
X67665957Y-10485952D01*
X67618338Y-10438333D01*
X67523100Y-10390714D01*
X67427861Y-10390714D01*
X66713576Y-11009761D02*
X66808814Y-11057380D01*
X66999290Y-11057380D01*
X67094528Y-11009761D01*
X67142147Y-10914523D01*
X67142147Y-10533571D01*
X67094528Y-10438333D01*
X66999290Y-10390714D01*
X66808814Y-10390714D01*
X66713576Y-10438333D01*
X66665957Y-10533571D01*
X66665957Y-10628809D01*
X67142147Y-10724047D01*
X65808814Y-11057380D02*
X65808814Y-10533571D01*
X65856433Y-10438333D01*
X65951671Y-10390714D01*
X66142147Y-10390714D01*
X66237385Y-10438333D01*
X65808814Y-11009761D02*
X65904052Y-11057380D01*
X66142147Y-11057380D01*
X66237385Y-11009761D01*
X66285004Y-10914523D01*
X66285004Y-10819285D01*
X66237385Y-10724047D01*
X66142147Y-10676428D01*
X65904052Y-10676428D01*
X65808814Y-10628809D01*
X65380242Y-11009761D02*
X65285004Y-11057380D01*
X65094528Y-11057380D01*
X64999290Y-11009761D01*
X64951671Y-10914523D01*
X64951671Y-10866904D01*
X64999290Y-10771666D01*
X65094528Y-10724047D01*
X65237385Y-10724047D01*
X65332623Y-10676428D01*
X65380242Y-10581190D01*
X65380242Y-10533571D01*
X65332623Y-10438333D01*
X65237385Y-10390714D01*
X65094528Y-10390714D01*
X64999290Y-10438333D01*
X64142147Y-11009761D02*
X64237385Y-11057380D01*
X64427861Y-11057380D01*
X64523100Y-11009761D01*
X64570719Y-10914523D01*
X64570719Y-10533571D01*
X64523100Y-10438333D01*
X64427861Y-10390714D01*
X64237385Y-10390714D01*
X64142147Y-10438333D01*
X64094528Y-10533571D01*
X64094528Y-10628809D01*
X64570719Y-10724047D01*
X63761195Y-10390714D02*
X63570719Y-11057380D01*
X63380242Y-10581190D01*
X63189766Y-11057380D01*
X62999290Y-10390714D01*
X62237385Y-11009761D02*
X62332623Y-11057380D01*
X62523100Y-11057380D01*
X62618338Y-11009761D01*
X62665957Y-10914523D01*
X62665957Y-10533571D01*
X62618338Y-10438333D01*
X62523100Y-10390714D01*
X62332623Y-10390714D01*
X62237385Y-10438333D01*
X62189766Y-10533571D01*
X62189766Y-10628809D01*
X62665957Y-10724047D01*
X61332623Y-11057380D02*
X61332623Y-10533571D01*
X61380242Y-10438333D01*
X61475480Y-10390714D01*
X61665957Y-10390714D01*
X61761195Y-10438333D01*
X61332623Y-11009761D02*
X61427861Y-11057380D01*
X61665957Y-11057380D01*
X61761195Y-11009761D01*
X61808814Y-10914523D01*
X61808814Y-10819285D01*
X61761195Y-10724047D01*
X61665957Y-10676428D01*
X61427861Y-10676428D01*
X61332623Y-10628809D01*
X60951671Y-10390714D02*
X60427861Y-10390714D01*
X60951671Y-11057380D01*
X60427861Y-11057380D01*
X59904052Y-11057380D02*
X59999290Y-11009761D01*
X60046909Y-10914523D01*
X60046909Y-10057380D01*
X59142147Y-11009761D02*
X59237385Y-11057380D01*
X59427861Y-11057380D01*
X59523100Y-11009761D01*
X59570719Y-10914523D01*
X59570719Y-10533571D01*
X59523100Y-10438333D01*
X59427861Y-10390714D01*
X59237385Y-10390714D01*
X59142147Y-10438333D01*
X59094528Y-10533571D01*
X59094528Y-10628809D01*
X59570719Y-10724047D01*
X57904052Y-10676428D02*
X57142147Y-10676428D01*
X55904052Y-11057380D02*
X55904052Y-10057380D01*
X55475480Y-11057380D02*
X55475480Y-10533571D01*
X55523100Y-10438333D01*
X55618338Y-10390714D01*
X55761195Y-10390714D01*
X55856433Y-10438333D01*
X55904052Y-10485952D01*
X55142147Y-10390714D02*
X54761195Y-10390714D01*
X54999290Y-10057380D02*
X54999290Y-10914523D01*
X54951671Y-11009761D01*
X54856433Y-11057380D01*
X54761195Y-11057380D01*
X54570719Y-10390714D02*
X54189766Y-10390714D01*
X54427861Y-10057380D02*
X54427861Y-10914523D01*
X54380242Y-11009761D01*
X54285004Y-11057380D01*
X54189766Y-11057380D01*
X53856433Y-10390714D02*
X53856433Y-11390714D01*
X53856433Y-10438333D02*
X53761195Y-10390714D01*
X53570719Y-10390714D01*
X53475480Y-10438333D01*
X53427861Y-10485952D01*
X53380242Y-10581190D01*
X53380242Y-10866904D01*
X53427861Y-10962142D01*
X53475480Y-11009761D01*
X53570719Y-11057380D01*
X53761195Y-11057380D01*
X53856433Y-11009761D01*
X52999290Y-11009761D02*
X52904052Y-11057380D01*
X52713576Y-11057380D01*
X52618338Y-11009761D01*
X52570719Y-10914523D01*
X52570719Y-10866904D01*
X52618338Y-10771666D01*
X52713576Y-10724047D01*
X52856433Y-10724047D01*
X52951671Y-10676428D01*
X52999290Y-10581190D01*
X52999290Y-10533571D01*
X52951671Y-10438333D01*
X52856433Y-10390714D01*
X52713576Y-10390714D01*
X52618338Y-10438333D01*
X52142147Y-10962142D02*
X52094528Y-11009761D01*
X52142147Y-11057380D01*
X52189766Y-11009761D01*
X52142147Y-10962142D01*
X52142147Y-11057380D01*
X52142147Y-10438333D02*
X52094528Y-10485952D01*
X52142147Y-10533571D01*
X52189766Y-10485952D01*
X52142147Y-10438333D01*
X52142147Y-10533571D01*
X50951671Y-10009761D02*
X51808814Y-11295476D01*
X49904052Y-10009761D02*
X50761195Y-11295476D01*
X49142147Y-10390714D02*
X49142147Y-11200238D01*
X49189766Y-11295476D01*
X49237385Y-11343095D01*
X49332623Y-11390714D01*
X49475480Y-11390714D01*
X49570719Y-11343095D01*
X49142147Y-11009761D02*
X49237385Y-11057380D01*
X49427861Y-11057380D01*
X49523100Y-11009761D01*
X49570719Y-10962142D01*
X49618338Y-10866904D01*
X49618338Y-10581190D01*
X49570719Y-10485952D01*
X49523100Y-10438333D01*
X49427861Y-10390714D01*
X49237385Y-10390714D01*
X49142147Y-10438333D01*
X48665957Y-11057380D02*
X48665957Y-10390714D01*
X48665957Y-10057380D02*
X48713576Y-10105000D01*
X48665957Y-10152619D01*
X48618338Y-10105000D01*
X48665957Y-10057380D01*
X48665957Y-10152619D01*
X48332623Y-10390714D02*
X47951671Y-10390714D01*
X48189766Y-10057380D02*
X48189766Y-10914523D01*
X48142147Y-11009761D01*
X48046909Y-11057380D01*
X47951671Y-11057380D01*
X47618338Y-11057380D02*
X47618338Y-10057380D01*
X47189766Y-11057380D02*
X47189766Y-10533571D01*
X47237385Y-10438333D01*
X47332623Y-10390714D01*
X47475480Y-10390714D01*
X47570719Y-10438333D01*
X47618338Y-10485952D01*
X46285004Y-10390714D02*
X46285004Y-11057380D01*
X46713576Y-10390714D02*
X46713576Y-10914523D01*
X46665957Y-11009761D01*
X46570719Y-11057380D01*
X46427861Y-11057380D01*
X46332623Y-11009761D01*
X46285004Y-10962142D01*
X45808814Y-11057380D02*
X45808814Y-10057380D01*
X45808814Y-10438333D02*
X45713576Y-10390714D01*
X45523100Y-10390714D01*
X45427861Y-10438333D01*
X45380242Y-10485952D01*
X45332623Y-10581190D01*
X45332623Y-10866904D01*
X45380242Y-10962142D01*
X45427861Y-11009761D01*
X45523100Y-11057380D01*
X45713576Y-11057380D01*
X45808814Y-11009761D01*
X44904052Y-10962142D02*
X44856433Y-11009761D01*
X44904052Y-11057380D01*
X44951671Y-11009761D01*
X44904052Y-10962142D01*
X44904052Y-11057380D01*
X43999290Y-11009761D02*
X44094528Y-11057380D01*
X44285004Y-11057380D01*
X44380242Y-11009761D01*
X44427861Y-10962142D01*
X44475480Y-10866904D01*
X44475480Y-10581190D01*
X44427861Y-10485952D01*
X44380242Y-10438333D01*
X44285004Y-10390714D01*
X44094528Y-10390714D01*
X43999290Y-10438333D01*
X43427861Y-11057380D02*
X43523100Y-11009761D01*
X43570719Y-10962142D01*
X43618338Y-10866904D01*
X43618338Y-10581190D01*
X43570719Y-10485952D01*
X43523100Y-10438333D01*
X43427861Y-10390714D01*
X43285004Y-10390714D01*
X43189766Y-10438333D01*
X43142147Y-10485952D01*
X43094528Y-10581190D01*
X43094528Y-10866904D01*
X43142147Y-10962142D01*
X43189766Y-11009761D01*
X43285004Y-11057380D01*
X43427861Y-11057380D01*
X42665957Y-11057380D02*
X42665957Y-10390714D01*
X42665957Y-10485952D02*
X42618338Y-10438333D01*
X42523100Y-10390714D01*
X42380242Y-10390714D01*
X42285004Y-10438333D01*
X42237385Y-10533571D01*
X42237385Y-11057380D01*
X42237385Y-10533571D02*
X42189766Y-10438333D01*
X42094528Y-10390714D01*
X41951671Y-10390714D01*
X41856433Y-10438333D01*
X41808814Y-10533571D01*
X41808814Y-11057380D01*
X40618338Y-10009761D02*
X41475480Y-11295476D01*
X40285004Y-11057380D02*
X40285004Y-10057380D01*
X40189766Y-10676428D02*
X39904052Y-11057380D01*
X39904052Y-10390714D02*
X40285004Y-10771666D01*
X39094528Y-11009761D02*
X39189766Y-11057380D01*
X39380242Y-11057380D01*
X39475480Y-11009761D01*
X39523100Y-10914523D01*
X39523100Y-10533571D01*
X39475480Y-10438333D01*
X39380242Y-10390714D01*
X39189766Y-10390714D01*
X39094528Y-10438333D01*
X39046909Y-10533571D01*
X39046909Y-10628809D01*
X39523100Y-10724047D01*
X38618338Y-11057380D02*
X38618338Y-10390714D01*
X38618338Y-10057380D02*
X38665957Y-10105000D01*
X38618338Y-10152619D01*
X38570719Y-10105000D01*
X38618338Y-10057380D01*
X38618338Y-10152619D01*
X38142147Y-11057380D02*
X38142147Y-10390714D01*
X38142147Y-10581190D02*
X38094528Y-10485952D01*
X38046909Y-10438333D01*
X37951671Y-10390714D01*
X37856433Y-10390714D01*
X37665957Y-10390714D02*
X37285004Y-10390714D01*
X37523100Y-11057380D02*
X37523100Y-10200238D01*
X37475480Y-10105000D01*
X37380242Y-10057380D01*
X37285004Y-10057380D01*
X36237385Y-10009761D02*
X37094528Y-11295476D01*
X35380242Y-10105000D02*
X35475480Y-10057380D01*
X35618338Y-10057380D01*
X35761195Y-10105000D01*
X35856433Y-10200238D01*
X35904052Y-10295476D01*
X35951671Y-10485952D01*
X35951671Y-10628809D01*
X35904052Y-10819285D01*
X35856433Y-10914523D01*
X35761195Y-11009761D01*
X35618338Y-11057380D01*
X35523100Y-11057380D01*
X35380242Y-11009761D01*
X35332623Y-10962142D01*
X35332623Y-10628809D01*
X35523100Y-10628809D01*
X34904052Y-11057380D02*
X34904052Y-10390714D01*
X34904052Y-10581190D02*
X34856433Y-10485952D01*
X34808814Y-10438333D01*
X34713576Y-10390714D01*
X34618338Y-10390714D01*
X33904052Y-11009761D02*
X33999290Y-11057380D01*
X34189766Y-11057380D01*
X34285004Y-11009761D01*
X34332623Y-10914523D01*
X34332623Y-10533571D01*
X34285004Y-10438333D01*
X34189766Y-10390714D01*
X33999290Y-10390714D01*
X33904052Y-10438333D01*
X33856433Y-10533571D01*
X33856433Y-10628809D01*
X34332623Y-10724047D01*
X32999290Y-11057380D02*
X32999290Y-10533571D01*
X33046909Y-10438333D01*
X33142147Y-10390714D01*
X33332623Y-10390714D01*
X33427861Y-10438333D01*
X32999290Y-11009761D02*
X33094528Y-11057380D01*
X33332623Y-11057380D01*
X33427861Y-11009761D01*
X33475480Y-10914523D01*
X33475480Y-10819285D01*
X33427861Y-10724047D01*
X33332623Y-10676428D01*
X33094528Y-10676428D01*
X32999290Y-10628809D01*
X32570719Y-11009761D02*
X32475480Y-11057380D01*
X32285004Y-11057380D01*
X32189766Y-11009761D01*
X32142147Y-10914523D01*
X32142147Y-10866904D01*
X32189766Y-10771666D01*
X32285004Y-10724047D01*
X32427861Y-10724047D01*
X32523100Y-10676428D01*
X32570719Y-10581190D01*
X32570719Y-10533571D01*
X32523100Y-10438333D01*
X32427861Y-10390714D01*
X32285004Y-10390714D01*
X32189766Y-10438333D01*
X31332623Y-11009761D02*
X31427861Y-11057380D01*
X31618338Y-11057380D01*
X31713576Y-11009761D01*
X31761195Y-10914523D01*
X31761195Y-10533571D01*
X31713576Y-10438333D01*
X31618338Y-10390714D01*
X31427861Y-10390714D01*
X31332623Y-10438333D01*
X31285004Y-10533571D01*
X31285004Y-10628809D01*
X31761195Y-10724047D01*
X30951671Y-10390714D02*
X30761195Y-11057380D01*
X30570719Y-10581190D01*
X30380242Y-11057380D01*
X30189766Y-10390714D01*
X29427861Y-11009761D02*
X29523100Y-11057380D01*
X29713576Y-11057380D01*
X29808814Y-11009761D01*
X29856433Y-10914523D01*
X29856433Y-10533571D01*
X29808814Y-10438333D01*
X29713576Y-10390714D01*
X29523100Y-10390714D01*
X29427861Y-10438333D01*
X29380242Y-10533571D01*
X29380242Y-10628809D01*
X29856433Y-10724047D01*
X28523100Y-11057380D02*
X28523100Y-10533571D01*
X28570719Y-10438333D01*
X28665957Y-10390714D01*
X28856433Y-10390714D01*
X28951671Y-10438333D01*
X28523100Y-11009761D02*
X28618338Y-11057380D01*
X28856433Y-11057380D01*
X28951671Y-11009761D01*
X28999290Y-10914523D01*
X28999290Y-10819285D01*
X28951671Y-10724047D01*
X28856433Y-10676428D01*
X28618338Y-10676428D01*
X28523100Y-10628809D01*
X28142147Y-10390714D02*
X27618338Y-10390714D01*
X28142147Y-11057380D01*
X27618338Y-11057380D01*
X27094528Y-11057380D02*
X27189766Y-11009761D01*
X27237385Y-10914523D01*
X27237385Y-10057380D01*
X26332623Y-11009761D02*
X26427861Y-11057380D01*
X26618338Y-11057380D01*
X26713576Y-11009761D01*
X26761195Y-10914523D01*
X26761195Y-10533571D01*
X26713576Y-10438333D01*
X26618338Y-10390714D01*
X26427861Y-10390714D01*
X26332623Y-10438333D01*
X26285004Y-10533571D01*
X26285004Y-10628809D01*
X26761195Y-10724047D01*
X87856433Y-12707380D02*
X87856433Y-12183571D01*
X87904052Y-12088333D01*
X87999290Y-12040714D01*
X88189766Y-12040714D01*
X88285004Y-12088333D01*
X87856433Y-12659761D02*
X87951671Y-12707380D01*
X88189766Y-12707380D01*
X88285004Y-12659761D01*
X88332623Y-12564523D01*
X88332623Y-12469285D01*
X88285004Y-12374047D01*
X88189766Y-12326428D01*
X87951671Y-12326428D01*
X87856433Y-12278809D01*
X87380242Y-12040714D02*
X87380242Y-12707380D01*
X87380242Y-12135952D02*
X87332623Y-12088333D01*
X87237385Y-12040714D01*
X87094528Y-12040714D01*
X86999290Y-12088333D01*
X86951671Y-12183571D01*
X86951671Y-12707380D01*
X86046909Y-12707380D02*
X86046909Y-11707380D01*
X86046909Y-12659761D02*
X86142147Y-12707380D01*
X86332623Y-12707380D01*
X86427861Y-12659761D01*
X86475480Y-12612142D01*
X86523100Y-12516904D01*
X86523100Y-12231190D01*
X86475480Y-12135952D01*
X86427861Y-12088333D01*
X86332623Y-12040714D01*
X86142147Y-12040714D01*
X86046909Y-12088333D01*
X84856433Y-12659761D02*
X84713576Y-12707380D01*
X84475480Y-12707380D01*
X84380242Y-12659761D01*
X84332623Y-12612142D01*
X84285004Y-12516904D01*
X84285004Y-12421666D01*
X84332623Y-12326428D01*
X84380242Y-12278809D01*
X84475480Y-12231190D01*
X84665957Y-12183571D01*
X84761195Y-12135952D01*
X84808814Y-12088333D01*
X84856433Y-11993095D01*
X84856433Y-11897857D01*
X84808814Y-11802619D01*
X84761195Y-11755000D01*
X84665957Y-11707380D01*
X84427861Y-11707380D01*
X84285004Y-11755000D01*
X83475480Y-12659761D02*
X83570719Y-12707380D01*
X83761195Y-12707380D01*
X83856433Y-12659761D01*
X83904052Y-12564523D01*
X83904052Y-12183571D01*
X83856433Y-12088333D01*
X83761195Y-12040714D01*
X83570719Y-12040714D01*
X83475480Y-12088333D01*
X83427861Y-12183571D01*
X83427861Y-12278809D01*
X83904052Y-12374047D01*
X82999290Y-12707380D02*
X82999290Y-12040714D01*
X82999290Y-12231190D02*
X82951671Y-12135952D01*
X82904052Y-12088333D01*
X82808814Y-12040714D01*
X82713576Y-12040714D01*
X81951671Y-12040714D02*
X81951671Y-12850238D01*
X81999290Y-12945476D01*
X82046909Y-12993095D01*
X82142147Y-13040714D01*
X82285004Y-13040714D01*
X82380242Y-12993095D01*
X81951671Y-12659761D02*
X82046909Y-12707380D01*
X82237385Y-12707380D01*
X82332623Y-12659761D01*
X82380242Y-12612142D01*
X82427861Y-12516904D01*
X82427861Y-12231190D01*
X82380242Y-12135952D01*
X82332623Y-12088333D01*
X82237385Y-12040714D01*
X82046909Y-12040714D01*
X81951671Y-12088333D01*
X81094528Y-12659761D02*
X81189766Y-12707380D01*
X81380242Y-12707380D01*
X81475480Y-12659761D01*
X81523100Y-12564523D01*
X81523100Y-12183571D01*
X81475480Y-12088333D01*
X81380242Y-12040714D01*
X81189766Y-12040714D01*
X81094528Y-12088333D01*
X81046909Y-12183571D01*
X81046909Y-12278809D01*
X81523100Y-12374047D01*
X80713576Y-12040714D02*
X80475480Y-12707380D01*
X80237385Y-12040714D02*
X80475480Y-12707380D01*
X80570719Y-12945476D01*
X80618338Y-12993095D01*
X80713576Y-13040714D01*
X79094528Y-12707380D02*
X79094528Y-11707380D01*
X78523100Y-12707380D02*
X78951671Y-12135952D01*
X78523100Y-11707380D02*
X79094528Y-12278809D01*
X78094528Y-12707380D02*
X78094528Y-12040714D01*
X78094528Y-11707380D02*
X78142147Y-11755000D01*
X78094528Y-11802619D01*
X78046909Y-11755000D01*
X78094528Y-11707380D01*
X78094528Y-11802619D01*
X77665957Y-12659761D02*
X77570719Y-12707380D01*
X77380242Y-12707380D01*
X77285004Y-12659761D01*
X77237385Y-12564523D01*
X77237385Y-12516904D01*
X77285004Y-12421666D01*
X77380242Y-12374047D01*
X77523100Y-12374047D01*
X77618338Y-12326428D01*
X77665957Y-12231190D01*
X77665957Y-12183571D01*
X77618338Y-12088333D01*
X77523100Y-12040714D01*
X77380242Y-12040714D01*
X77285004Y-12088333D01*
X76427861Y-12659761D02*
X76523100Y-12707380D01*
X76713576Y-12707380D01*
X76808814Y-12659761D01*
X76856433Y-12564523D01*
X76856433Y-12183571D01*
X76808814Y-12088333D01*
X76713576Y-12040714D01*
X76523100Y-12040714D01*
X76427861Y-12088333D01*
X76380242Y-12183571D01*
X76380242Y-12278809D01*
X76856433Y-12374047D01*
X75808814Y-12707380D02*
X75904052Y-12659761D01*
X75951671Y-12564523D01*
X75951671Y-11707380D01*
X75046909Y-12659761D02*
X75142147Y-12707380D01*
X75332623Y-12707380D01*
X75427861Y-12659761D01*
X75475480Y-12564523D01*
X75475480Y-12183571D01*
X75427861Y-12088333D01*
X75332623Y-12040714D01*
X75142147Y-12040714D01*
X75046909Y-12088333D01*
X74999290Y-12183571D01*
X74999290Y-12278809D01*
X75475480Y-12374047D01*
X74665957Y-12040714D02*
X74427861Y-12707380D01*
X74189766Y-12040714D01*
X73761195Y-11707380D02*
X73856433Y-11897857D01*
X73380242Y-12659761D02*
X73285004Y-12707380D01*
X73094528Y-12707380D01*
X72999290Y-12659761D01*
X72951671Y-12564523D01*
X72951671Y-12516904D01*
X72999290Y-12421666D01*
X73094528Y-12374047D01*
X73237385Y-12374047D01*
X73332623Y-12326428D01*
X73380242Y-12231190D01*
X73380242Y-12183571D01*
X73332623Y-12088333D01*
X73237385Y-12040714D01*
X73094528Y-12040714D01*
X72999290Y-12088333D01*
X71856433Y-11707380D02*
X71189766Y-11707380D01*
X71856433Y-12707380D01*
X71189766Y-12707380D01*
X70427861Y-12659761D02*
X70523100Y-12707380D01*
X70713576Y-12707380D01*
X70808814Y-12659761D01*
X70856433Y-12564523D01*
X70856433Y-12183571D01*
X70808814Y-12088333D01*
X70713576Y-12040714D01*
X70523100Y-12040714D01*
X70427861Y-12088333D01*
X70380242Y-12183571D01*
X70380242Y-12278809D01*
X70856433Y-12374047D01*
X70094528Y-12040714D02*
X69713576Y-12040714D01*
X69951671Y-11707380D02*
X69951671Y-12564523D01*
X69904052Y-12659761D01*
X69808814Y-12707380D01*
X69713576Y-12707380D01*
X68951671Y-12707380D02*
X68951671Y-12183571D01*
X68999290Y-12088333D01*
X69094528Y-12040714D01*
X69285004Y-12040714D01*
X69380242Y-12088333D01*
X68951671Y-12659761D02*
X69046909Y-12707380D01*
X69285004Y-12707380D01*
X69380242Y-12659761D01*
X69427861Y-12564523D01*
X69427861Y-12469285D01*
X69380242Y-12374047D01*
X69285004Y-12326428D01*
X69046909Y-12326428D01*
X68951671Y-12278809D01*
X67761195Y-12659761D02*
X67618338Y-12707380D01*
X67380242Y-12707380D01*
X67285004Y-12659761D01*
X67237385Y-12612142D01*
X67189766Y-12516904D01*
X67189766Y-12421666D01*
X67237385Y-12326428D01*
X67285004Y-12278809D01*
X67380242Y-12231190D01*
X67570719Y-12183571D01*
X67665957Y-12135952D01*
X67713576Y-12088333D01*
X67761195Y-11993095D01*
X67761195Y-11897857D01*
X67713576Y-11802619D01*
X67665957Y-11755000D01*
X67570719Y-11707380D01*
X67332623Y-11707380D01*
X67189766Y-11755000D01*
X66427861Y-12183571D02*
X66285004Y-12231190D01*
X66237385Y-12278809D01*
X66189766Y-12374047D01*
X66189766Y-12516904D01*
X66237385Y-12612142D01*
X66285004Y-12659761D01*
X66380242Y-12707380D01*
X66761195Y-12707380D01*
X66761195Y-11707380D01*
X66427861Y-11707380D01*
X66332623Y-11755000D01*
X66285004Y-11802619D01*
X66237385Y-11897857D01*
X66237385Y-11993095D01*
X66285004Y-12088333D01*
X66332623Y-12135952D01*
X66427861Y-12183571D01*
X66761195Y-12183571D01*
X65189766Y-12612142D02*
X65237385Y-12659761D01*
X65380242Y-12707380D01*
X65475480Y-12707380D01*
X65618338Y-12659761D01*
X65713576Y-12564523D01*
X65761195Y-12469285D01*
X65808814Y-12278809D01*
X65808814Y-12135952D01*
X65761195Y-11945476D01*
X65713576Y-11850238D01*
X65618338Y-11755000D01*
X65475480Y-11707380D01*
X65380242Y-11707380D01*
X65237385Y-11755000D01*
X65189766Y-11802619D01*
X63999290Y-12326428D02*
X63237385Y-12326428D01*
X61999290Y-12707380D02*
X61999290Y-11707380D01*
X61570719Y-12707380D02*
X61570719Y-12183571D01*
X61618338Y-12088333D01*
X61713576Y-12040714D01*
X61856433Y-12040714D01*
X61951671Y-12088333D01*
X61999290Y-12135952D01*
X61237385Y-12040714D02*
X60856433Y-12040714D01*
X61094528Y-11707380D02*
X61094528Y-12564523D01*
X61046909Y-12659761D01*
X60951671Y-12707380D01*
X60856433Y-12707380D01*
X60665957Y-12040714D02*
X60285004Y-12040714D01*
X60523100Y-11707380D02*
X60523100Y-12564523D01*
X60475480Y-12659761D01*
X60380242Y-12707380D01*
X60285004Y-12707380D01*
X59951671Y-12040714D02*
X59951671Y-13040714D01*
X59951671Y-12088333D02*
X59856433Y-12040714D01*
X59665957Y-12040714D01*
X59570719Y-12088333D01*
X59523100Y-12135952D01*
X59475480Y-12231190D01*
X59475480Y-12516904D01*
X59523100Y-12612142D01*
X59570719Y-12659761D01*
X59665957Y-12707380D01*
X59856433Y-12707380D01*
X59951671Y-12659761D01*
X59046909Y-12612142D02*
X58999290Y-12659761D01*
X59046909Y-12707380D01*
X59094528Y-12659761D01*
X59046909Y-12612142D01*
X59046909Y-12707380D01*
X59046909Y-12088333D02*
X58999290Y-12135952D01*
X59046909Y-12183571D01*
X59094528Y-12135952D01*
X59046909Y-12088333D01*
X59046909Y-12183571D01*
X57856433Y-11659761D02*
X58713576Y-12945476D01*
X56808814Y-11659761D02*
X57665957Y-12945476D01*
X56570719Y-12040714D02*
X56380242Y-12707380D01*
X56189766Y-12231190D01*
X55999290Y-12707380D01*
X55808814Y-12040714D01*
X55523100Y-12040714D02*
X55332623Y-12707380D01*
X55142147Y-12231190D01*
X54951671Y-12707380D01*
X54761195Y-12040714D01*
X54475480Y-12040714D02*
X54285004Y-12707380D01*
X54094528Y-12231190D01*
X53904052Y-12707380D01*
X53713576Y-12040714D01*
X53332623Y-12612142D02*
X53285004Y-12659761D01*
X53332623Y-12707380D01*
X53380242Y-12659761D01*
X53332623Y-12612142D01*
X53332623Y-12707380D01*
X52856433Y-12707380D02*
X52856433Y-12040714D01*
X52856433Y-12135952D02*
X52808814Y-12088333D01*
X52713576Y-12040714D01*
X52570719Y-12040714D01*
X52475480Y-12088333D01*
X52427861Y-12183571D01*
X52427861Y-12707380D01*
X52427861Y-12183571D02*
X52380242Y-12088333D01*
X52285004Y-12040714D01*
X52142147Y-12040714D01*
X52046909Y-12088333D01*
X51999290Y-12183571D01*
X51999290Y-12707380D01*
X51094528Y-12707380D02*
X51094528Y-12183571D01*
X51142147Y-12088333D01*
X51237385Y-12040714D01*
X51427861Y-12040714D01*
X51523100Y-12088333D01*
X51094528Y-12659761D02*
X51189766Y-12707380D01*
X51427861Y-12707380D01*
X51523100Y-12659761D01*
X51570719Y-12564523D01*
X51570719Y-12469285D01*
X51523100Y-12374047D01*
X51427861Y-12326428D01*
X51189766Y-12326428D01*
X51094528Y-12278809D01*
X50475480Y-12707380D02*
X50570719Y-12659761D01*
X50618338Y-12564523D01*
X50618338Y-11707380D01*
X50094528Y-12707380D02*
X50094528Y-12040714D01*
X50094528Y-11707380D02*
X50142147Y-11755000D01*
X50094528Y-11802619D01*
X50046909Y-11755000D01*
X50094528Y-11707380D01*
X50094528Y-11802619D01*
X49618338Y-12040714D02*
X49618338Y-12707380D01*
X49618338Y-12135952D02*
X49570719Y-12088333D01*
X49475480Y-12040714D01*
X49332623Y-12040714D01*
X49237385Y-12088333D01*
X49189766Y-12183571D01*
X49189766Y-12707380D01*
X48570719Y-12707380D02*
X48665957Y-12659761D01*
X48713576Y-12612142D01*
X48761195Y-12516904D01*
X48761195Y-12231190D01*
X48713576Y-12135952D01*
X48665957Y-12088333D01*
X48570719Y-12040714D01*
X48427861Y-12040714D01*
X48332623Y-12088333D01*
X48285004Y-12135952D01*
X48237385Y-12231190D01*
X48237385Y-12516904D01*
X48285004Y-12612142D01*
X48332623Y-12659761D01*
X48427861Y-12707380D01*
X48570719Y-12707380D01*
X47904052Y-12040714D02*
X47665957Y-12707380D01*
X47427861Y-12040714D01*
X47046909Y-12612142D02*
X46999290Y-12659761D01*
X47046909Y-12707380D01*
X47094528Y-12659761D01*
X47046909Y-12612142D01*
X47046909Y-12707380D01*
X46142147Y-12659761D02*
X46237385Y-12707380D01*
X46427861Y-12707380D01*
X46523100Y-12659761D01*
X46570719Y-12612142D01*
X46618338Y-12516904D01*
X46618338Y-12231190D01*
X46570719Y-12135952D01*
X46523100Y-12088333D01*
X46427861Y-12040714D01*
X46237385Y-12040714D01*
X46142147Y-12088333D01*
X45570719Y-12707380D02*
X45665957Y-12659761D01*
X45713576Y-12612142D01*
X45761195Y-12516904D01*
X45761195Y-12231190D01*
X45713576Y-12135952D01*
X45665957Y-12088333D01*
X45570719Y-12040714D01*
X45427861Y-12040714D01*
X45332623Y-12088333D01*
X45285004Y-12135952D01*
X45237385Y-12231190D01*
X45237385Y-12516904D01*
X45285004Y-12612142D01*
X45332623Y-12659761D01*
X45427861Y-12707380D01*
X45570719Y-12707380D01*
X44808814Y-12707380D02*
X44808814Y-12040714D01*
X44808814Y-12135952D02*
X44761195Y-12088333D01*
X44665957Y-12040714D01*
X44523100Y-12040714D01*
X44427861Y-12088333D01*
X44380242Y-12183571D01*
X44380242Y-12707380D01*
X44380242Y-12183571D02*
X44332623Y-12088333D01*
X44237385Y-12040714D01*
X44094528Y-12040714D01*
X43999290Y-12088333D01*
X43951671Y-12183571D01*
X43951671Y-12707380D01*
X42761195Y-11659761D02*
X43618338Y-12945476D01*
X42427861Y-12707380D02*
X42427861Y-11707380D01*
X42427861Y-12183571D02*
X41856433Y-12183571D01*
X41856433Y-12707380D02*
X41856433Y-11707380D01*
X41237385Y-12707380D02*
X41332623Y-12659761D01*
X41380242Y-12612142D01*
X41427861Y-12516904D01*
X41427861Y-12231190D01*
X41380242Y-12135952D01*
X41332623Y-12088333D01*
X41237385Y-12040714D01*
X41094528Y-12040714D01*
X40999290Y-12088333D01*
X40951671Y-12135952D01*
X40904052Y-12231190D01*
X40904052Y-12516904D01*
X40951671Y-12612142D01*
X40999290Y-12659761D01*
X41094528Y-12707380D01*
X41237385Y-12707380D01*
X40475480Y-12707380D02*
X40475480Y-12040714D01*
X40475480Y-12135952D02*
X40427861Y-12088333D01*
X40332623Y-12040714D01*
X40189766Y-12040714D01*
X40094528Y-12088333D01*
X40046909Y-12183571D01*
X40046909Y-12707380D01*
X40046909Y-12183571D02*
X39999290Y-12088333D01*
X39904052Y-12040714D01*
X39761195Y-12040714D01*
X39665957Y-12088333D01*
X39618338Y-12183571D01*
X39618338Y-12707380D01*
X38761195Y-12659761D02*
X38856433Y-12707380D01*
X39046909Y-12707380D01*
X39142147Y-12659761D01*
X39189766Y-12564523D01*
X39189766Y-12183571D01*
X39142147Y-12088333D01*
X39046909Y-12040714D01*
X38856433Y-12040714D01*
X38761195Y-12088333D01*
X38713576Y-12183571D01*
X38713576Y-12278809D01*
X39189766Y-12374047D01*
X37570719Y-11659761D02*
X38427861Y-12945476D01*
X37285004Y-12659761D02*
X37189766Y-12707380D01*
X36999290Y-12707380D01*
X36904052Y-12659761D01*
X36856433Y-12564523D01*
X36856433Y-12516904D01*
X36904052Y-12421666D01*
X36999290Y-12374047D01*
X37142147Y-12374047D01*
X37237385Y-12326428D01*
X37285004Y-12231190D01*
X37285004Y-12183571D01*
X37237385Y-12088333D01*
X37142147Y-12040714D01*
X36999290Y-12040714D01*
X36904052Y-12088333D01*
X36046909Y-12659761D02*
X36142147Y-12707380D01*
X36332623Y-12707380D01*
X36427861Y-12659761D01*
X36475480Y-12564523D01*
X36475480Y-12183571D01*
X36427861Y-12088333D01*
X36332623Y-12040714D01*
X36142147Y-12040714D01*
X36046909Y-12088333D01*
X35999290Y-12183571D01*
X35999290Y-12278809D01*
X36475480Y-12374047D01*
X35570719Y-12707380D02*
X35570719Y-12040714D01*
X35570719Y-12231190D02*
X35523100Y-12135952D01*
X35475480Y-12088333D01*
X35380242Y-12040714D01*
X35285004Y-12040714D01*
X34523100Y-12040714D02*
X34523100Y-12850238D01*
X34570719Y-12945476D01*
X34618338Y-12993095D01*
X34713576Y-13040714D01*
X34856433Y-13040714D01*
X34951671Y-12993095D01*
X34523100Y-12659761D02*
X34618338Y-12707380D01*
X34808814Y-12707380D01*
X34904052Y-12659761D01*
X34951671Y-12612142D01*
X34999290Y-12516904D01*
X34999290Y-12231190D01*
X34951671Y-12135952D01*
X34904052Y-12088333D01*
X34808814Y-12040714D01*
X34618338Y-12040714D01*
X34523100Y-12088333D01*
X33665957Y-12659761D02*
X33761195Y-12707380D01*
X33951671Y-12707380D01*
X34046909Y-12659761D01*
X34094528Y-12564523D01*
X34094528Y-12183571D01*
X34046909Y-12088333D01*
X33951671Y-12040714D01*
X33761195Y-12040714D01*
X33665957Y-12088333D01*
X33618338Y-12183571D01*
X33618338Y-12278809D01*
X34094528Y-12374047D01*
X33285004Y-12040714D02*
X33046909Y-12707380D01*
X32808814Y-12040714D02*
X33046909Y-12707380D01*
X33142147Y-12945476D01*
X33189766Y-12993095D01*
X33285004Y-13040714D01*
X32475480Y-12659761D02*
X32380242Y-12707380D01*
X32189766Y-12707380D01*
X32094528Y-12659761D01*
X32046909Y-12564523D01*
X32046909Y-12516904D01*
X32094528Y-12421666D01*
X32189766Y-12374047D01*
X32332623Y-12374047D01*
X32427861Y-12326428D01*
X32475480Y-12231190D01*
X32475480Y-12183571D01*
X32427861Y-12088333D01*
X32332623Y-12040714D01*
X32189766Y-12040714D01*
X32094528Y-12088333D01*
X31618338Y-12326428D02*
X30856433Y-12326428D01*
X30380242Y-12040714D02*
X30380242Y-13040714D01*
X30380242Y-12088333D02*
X30285004Y-12040714D01*
X30094528Y-12040714D01*
X29999290Y-12088333D01*
X29951671Y-12135952D01*
X29904052Y-12231190D01*
X29904052Y-12516904D01*
X29951671Y-12612142D01*
X29999290Y-12659761D01*
X30094528Y-12707380D01*
X30285004Y-12707380D01*
X30380242Y-12659761D01*
X29475480Y-12707380D02*
X29475480Y-12040714D01*
X29475480Y-12231190D02*
X29427861Y-12135952D01*
X29380242Y-12088333D01*
X29285004Y-12040714D01*
X29189766Y-12040714D01*
X28713576Y-12707380D02*
X28808814Y-12659761D01*
X28856433Y-12612142D01*
X28904052Y-12516904D01*
X28904052Y-12231190D01*
X28856433Y-12135952D01*
X28808814Y-12088333D01*
X28713576Y-12040714D01*
X28570719Y-12040714D01*
X28475480Y-12088333D01*
X28427861Y-12135952D01*
X28380242Y-12231190D01*
X28380242Y-12516904D01*
X28427861Y-12612142D01*
X28475480Y-12659761D01*
X28570719Y-12707380D01*
X28713576Y-12707380D01*
X27951671Y-12040714D02*
X27951671Y-12897857D01*
X27999290Y-12993095D01*
X28094528Y-13040714D01*
X28142147Y-13040714D01*
X27951671Y-11707380D02*
X27999290Y-11755000D01*
X27951671Y-11802619D01*
X27904052Y-11755000D01*
X27951671Y-11707380D01*
X27951671Y-11802619D01*
X27094528Y-12659761D02*
X27189766Y-12707380D01*
X27380242Y-12707380D01*
X27475480Y-12659761D01*
X27523100Y-12564523D01*
X27523100Y-12183571D01*
X27475480Y-12088333D01*
X27380242Y-12040714D01*
X27189766Y-12040714D01*
X27094528Y-12088333D01*
X27046909Y-12183571D01*
X27046909Y-12278809D01*
X27523100Y-12374047D01*
X26189766Y-12659761D02*
X26285004Y-12707380D01*
X26475480Y-12707380D01*
X26570719Y-12659761D01*
X26618338Y-12612142D01*
X26665957Y-12516904D01*
X26665957Y-12231190D01*
X26618338Y-12135952D01*
X26570719Y-12088333D01*
X26475480Y-12040714D01*
X26285004Y-12040714D01*
X26189766Y-12088333D01*
X25904052Y-12040714D02*
X25523100Y-12040714D01*
X25761195Y-11707380D02*
X25761195Y-12564523D01*
X25713576Y-12659761D01*
X25618338Y-12707380D01*
X25523100Y-12707380D01*
X25237385Y-12659761D02*
X25142147Y-12707380D01*
X24951671Y-12707380D01*
X24856433Y-12659761D01*
X24808814Y-12564523D01*
X24808814Y-12516904D01*
X24856433Y-12421666D01*
X24951671Y-12374047D01*
X25094528Y-12374047D01*
X25189766Y-12326428D01*
X25237385Y-12231190D01*
X25237385Y-12183571D01*
X25189766Y-12088333D01*
X25094528Y-12040714D01*
X24951671Y-12040714D01*
X24856433Y-12088333D01*
X23665957Y-11659761D02*
X24523100Y-12945476D01*
X23427861Y-12040714D02*
X22904052Y-12040714D01*
X23427861Y-12707380D01*
X22904052Y-12707380D01*
X22142147Y-12659761D02*
X22237385Y-12707380D01*
X22427861Y-12707380D01*
X22523100Y-12659761D01*
X22570719Y-12564523D01*
X22570719Y-12183571D01*
X22523100Y-12088333D01*
X22427861Y-12040714D01*
X22237385Y-12040714D01*
X22142147Y-12088333D01*
X22094528Y-12183571D01*
X22094528Y-12278809D01*
X22570719Y-12374047D01*
X21808814Y-12040714D02*
X21427861Y-12040714D01*
X21665957Y-11707380D02*
X21665957Y-12564523D01*
X21618338Y-12659761D01*
X21523100Y-12707380D01*
X21427861Y-12707380D01*
X20665957Y-12707380D02*
X20665957Y-12183571D01*
X20713576Y-12088333D01*
X20808814Y-12040714D01*
X20999290Y-12040714D01*
X21094528Y-12088333D01*
X20665957Y-12659761D02*
X20761195Y-12707380D01*
X20999290Y-12707380D01*
X21094528Y-12659761D01*
X21142147Y-12564523D01*
X21142147Y-12469285D01*
X21094528Y-12374047D01*
X20999290Y-12326428D01*
X20761195Y-12326428D01*
X20665957Y-12278809D01*
X20189766Y-12326428D02*
X19427861Y-12326428D01*
X18999290Y-12659761D02*
X18904052Y-12707380D01*
X18713576Y-12707380D01*
X18618338Y-12659761D01*
X18570719Y-12564523D01*
X18570719Y-12516904D01*
X18618338Y-12421666D01*
X18713576Y-12374047D01*
X18856433Y-12374047D01*
X18951671Y-12326428D01*
X18999290Y-12231190D01*
X18999290Y-12183571D01*
X18951671Y-12088333D01*
X18856433Y-12040714D01*
X18713576Y-12040714D01*
X18618338Y-12088333D01*
X18142147Y-12707380D02*
X18142147Y-11707380D01*
X18142147Y-12088333D02*
X18046909Y-12040714D01*
X17856433Y-12040714D01*
X17761195Y-12088333D01*
X17713576Y-12135952D01*
X17665957Y-12231190D01*
X17665957Y-12516904D01*
X17713576Y-12612142D01*
X17761195Y-12659761D01*
X17856433Y-12707380D01*
X18046909Y-12707380D01*
X18142147Y-12659761D01*
X16808814Y-12659761D02*
X16904052Y-12707380D01*
X17094528Y-12707380D01*
X17189766Y-12659761D01*
X17237385Y-12612142D01*
X17285004Y-12516904D01*
X17285004Y-12231190D01*
X17237385Y-12135952D01*
X17189766Y-12088333D01*
X17094528Y-12040714D01*
X16904052Y-12040714D01*
X16808814Y-12088333D01*
X16380242Y-12326428D02*
X15618338Y-12326428D01*
X15237385Y-12040714D02*
X14999290Y-12707380D01*
X14761195Y-12040714D01*
X14427861Y-11802619D02*
X14380242Y-11755000D01*
X14285004Y-11707380D01*
X14046909Y-11707380D01*
X13951671Y-11755000D01*
X13904052Y-11802619D01*
X13856433Y-11897857D01*
X13856433Y-11993095D01*
X13904052Y-12135952D01*
X14475480Y-12707380D01*
X13856433Y-12707380D01*
X88078671Y-15168571D02*
X87935814Y-15216190D01*
X87888195Y-15263809D01*
X87840576Y-15359047D01*
X87840576Y-15501904D01*
X87888195Y-15597142D01*
X87935814Y-15644761D01*
X88031052Y-15692380D01*
X88412004Y-15692380D01*
X88412004Y-14692380D01*
X88078671Y-14692380D01*
X87983433Y-14740000D01*
X87935814Y-14787619D01*
X87888195Y-14882857D01*
X87888195Y-14978095D01*
X87935814Y-15073333D01*
X87983433Y-15120952D01*
X88078671Y-15168571D01*
X88412004Y-15168571D01*
X87269147Y-15692380D02*
X87364385Y-15644761D01*
X87412004Y-15597142D01*
X87459623Y-15501904D01*
X87459623Y-15216190D01*
X87412004Y-15120952D01*
X87364385Y-15073333D01*
X87269147Y-15025714D01*
X87126290Y-15025714D01*
X87031052Y-15073333D01*
X86983433Y-15120952D01*
X86935814Y-15216190D01*
X86935814Y-15501904D01*
X86983433Y-15597142D01*
X87031052Y-15644761D01*
X87126290Y-15692380D01*
X87269147Y-15692380D01*
X86078671Y-15692380D02*
X86078671Y-15168571D01*
X86126290Y-15073333D01*
X86221528Y-15025714D01*
X86412004Y-15025714D01*
X86507242Y-15073333D01*
X86078671Y-15644761D02*
X86173909Y-15692380D01*
X86412004Y-15692380D01*
X86507242Y-15644761D01*
X86554861Y-15549523D01*
X86554861Y-15454285D01*
X86507242Y-15359047D01*
X86412004Y-15311428D01*
X86173909Y-15311428D01*
X86078671Y-15263809D01*
X85602480Y-15692380D02*
X85602480Y-15025714D01*
X85602480Y-15216190D02*
X85554861Y-15120952D01*
X85507242Y-15073333D01*
X85412004Y-15025714D01*
X85316766Y-15025714D01*
X84554861Y-15692380D02*
X84554861Y-14692380D01*
X84554861Y-15644761D02*
X84650100Y-15692380D01*
X84840576Y-15692380D01*
X84935814Y-15644761D01*
X84983433Y-15597142D01*
X85031052Y-15501904D01*
X85031052Y-15216190D01*
X84983433Y-15120952D01*
X84935814Y-15073333D01*
X84840576Y-15025714D01*
X84650100Y-15025714D01*
X84554861Y-15073333D01*
X82888195Y-15692380D02*
X82888195Y-14692380D01*
X82888195Y-15644761D02*
X82983433Y-15692380D01*
X83173909Y-15692380D01*
X83269147Y-15644761D01*
X83316766Y-15597142D01*
X83364385Y-15501904D01*
X83364385Y-15216190D01*
X83316766Y-15120952D01*
X83269147Y-15073333D01*
X83173909Y-15025714D01*
X82983433Y-15025714D01*
X82888195Y-15073333D01*
X82031052Y-15644761D02*
X82126290Y-15692380D01*
X82316766Y-15692380D01*
X82412004Y-15644761D01*
X82459623Y-15549523D01*
X82459623Y-15168571D01*
X82412004Y-15073333D01*
X82316766Y-15025714D01*
X82126290Y-15025714D01*
X82031052Y-15073333D01*
X81983433Y-15168571D01*
X81983433Y-15263809D01*
X82459623Y-15359047D01*
X81602480Y-15644761D02*
X81507242Y-15692380D01*
X81316766Y-15692380D01*
X81221528Y-15644761D01*
X81173909Y-15549523D01*
X81173909Y-15501904D01*
X81221528Y-15406666D01*
X81316766Y-15359047D01*
X81459623Y-15359047D01*
X81554861Y-15311428D01*
X81602480Y-15216190D01*
X81602480Y-15168571D01*
X81554861Y-15073333D01*
X81459623Y-15025714D01*
X81316766Y-15025714D01*
X81221528Y-15073333D01*
X80745338Y-15692380D02*
X80745338Y-15025714D01*
X80745338Y-14692380D02*
X80792957Y-14740000D01*
X80745338Y-14787619D01*
X80697719Y-14740000D01*
X80745338Y-14692380D01*
X80745338Y-14787619D01*
X79840576Y-15025714D02*
X79840576Y-15835238D01*
X79888195Y-15930476D01*
X79935814Y-15978095D01*
X80031052Y-16025714D01*
X80173909Y-16025714D01*
X80269147Y-15978095D01*
X79840576Y-15644761D02*
X79935814Y-15692380D01*
X80126290Y-15692380D01*
X80221528Y-15644761D01*
X80269147Y-15597142D01*
X80316766Y-15501904D01*
X80316766Y-15216190D01*
X80269147Y-15120952D01*
X80221528Y-15073333D01*
X80126290Y-15025714D01*
X79935814Y-15025714D01*
X79840576Y-15073333D01*
X79364385Y-15025714D02*
X79364385Y-15692380D01*
X79364385Y-15120952D02*
X79316766Y-15073333D01*
X79221528Y-15025714D01*
X79078671Y-15025714D01*
X78983433Y-15073333D01*
X78935814Y-15168571D01*
X78935814Y-15692380D01*
X77697719Y-15692380D02*
X77697719Y-14692380D01*
X77697719Y-15073333D02*
X77602480Y-15025714D01*
X77412004Y-15025714D01*
X77316766Y-15073333D01*
X77269147Y-15120952D01*
X77221528Y-15216190D01*
X77221528Y-15501904D01*
X77269147Y-15597142D01*
X77316766Y-15644761D01*
X77412004Y-15692380D01*
X77602480Y-15692380D01*
X77697719Y-15644761D01*
X76888195Y-15025714D02*
X76650100Y-15692380D01*
X76412004Y-15025714D02*
X76650100Y-15692380D01*
X76745338Y-15930476D01*
X76792957Y-15978095D01*
X76888195Y-16025714D01*
X75316766Y-15644761D02*
X75221528Y-15692380D01*
X75031052Y-15692380D01*
X74935814Y-15644761D01*
X74888195Y-15549523D01*
X74888195Y-15501904D01*
X74935814Y-15406666D01*
X75031052Y-15359047D01*
X75173909Y-15359047D01*
X75269147Y-15311428D01*
X75316766Y-15216190D01*
X75316766Y-15168571D01*
X75269147Y-15073333D01*
X75173909Y-15025714D01*
X75031052Y-15025714D01*
X74935814Y-15073333D01*
X74316766Y-15692380D02*
X74412004Y-15644761D01*
X74459623Y-15597142D01*
X74507242Y-15501904D01*
X74507242Y-15216190D01*
X74459623Y-15120952D01*
X74412004Y-15073333D01*
X74316766Y-15025714D01*
X74173909Y-15025714D01*
X74078671Y-15073333D01*
X74031052Y-15120952D01*
X73983433Y-15216190D01*
X73983433Y-15501904D01*
X74031052Y-15597142D01*
X74078671Y-15644761D01*
X74173909Y-15692380D01*
X74316766Y-15692380D01*
X73412004Y-15692380D02*
X73507242Y-15644761D01*
X73554861Y-15549523D01*
X73554861Y-14692380D01*
X72602480Y-15692380D02*
X72602480Y-15168571D01*
X72650100Y-15073333D01*
X72745338Y-15025714D01*
X72935814Y-15025714D01*
X73031052Y-15073333D01*
X72602480Y-15644761D02*
X72697719Y-15692380D01*
X72935814Y-15692380D01*
X73031052Y-15644761D01*
X73078671Y-15549523D01*
X73078671Y-15454285D01*
X73031052Y-15359047D01*
X72935814Y-15311428D01*
X72697719Y-15311428D01*
X72602480Y-15263809D01*
X72126290Y-15692380D02*
X72126290Y-15025714D01*
X72126290Y-15216190D02*
X72078671Y-15120952D01*
X72031052Y-15073333D01*
X71935814Y-15025714D01*
X71840576Y-15025714D01*
X71507242Y-15692380D02*
X71507242Y-15025714D01*
X71507242Y-15120952D02*
X71459623Y-15073333D01*
X71364385Y-15025714D01*
X71221528Y-15025714D01*
X71126290Y-15073333D01*
X71078671Y-15168571D01*
X71078671Y-15692380D01*
X71078671Y-15168571D02*
X71031052Y-15073333D01*
X70935814Y-15025714D01*
X70792957Y-15025714D01*
X70697719Y-15073333D01*
X70650100Y-15168571D01*
X70650100Y-15692380D01*
X70031052Y-15692380D02*
X70126290Y-15644761D01*
X70173909Y-15597142D01*
X70221528Y-15501904D01*
X70221528Y-15216190D01*
X70173909Y-15120952D01*
X70126290Y-15073333D01*
X70031052Y-15025714D01*
X69888195Y-15025714D01*
X69792957Y-15073333D01*
X69745338Y-15120952D01*
X69697719Y-15216190D01*
X69697719Y-15501904D01*
X69745338Y-15597142D01*
X69792957Y-15644761D01*
X69888195Y-15692380D01*
X70031052Y-15692380D01*
X69269147Y-15025714D02*
X69269147Y-15692380D01*
X69269147Y-15120952D02*
X69221528Y-15073333D01*
X69126290Y-15025714D01*
X68983433Y-15025714D01*
X68888195Y-15073333D01*
X68840576Y-15168571D01*
X68840576Y-15692380D01*
X67602480Y-15311428D02*
X66840576Y-15311428D01*
X65602480Y-15692380D02*
X65602480Y-14692380D01*
X65173909Y-15692380D02*
X65173909Y-15168571D01*
X65221528Y-15073333D01*
X65316766Y-15025714D01*
X65459623Y-15025714D01*
X65554861Y-15073333D01*
X65602480Y-15120952D01*
X64840576Y-15025714D02*
X64459623Y-15025714D01*
X64697719Y-14692380D02*
X64697719Y-15549523D01*
X64650100Y-15644761D01*
X64554861Y-15692380D01*
X64459623Y-15692380D01*
X64269147Y-15025714D02*
X63888195Y-15025714D01*
X64126290Y-14692380D02*
X64126290Y-15549523D01*
X64078671Y-15644761D01*
X63983433Y-15692380D01*
X63888195Y-15692380D01*
X63554861Y-15025714D02*
X63554861Y-16025714D01*
X63554861Y-15073333D02*
X63459623Y-15025714D01*
X63269147Y-15025714D01*
X63173909Y-15073333D01*
X63126290Y-15120952D01*
X63078671Y-15216190D01*
X63078671Y-15501904D01*
X63126290Y-15597142D01*
X63173909Y-15644761D01*
X63269147Y-15692380D01*
X63459623Y-15692380D01*
X63554861Y-15644761D01*
X62697719Y-15644761D02*
X62602480Y-15692380D01*
X62412004Y-15692380D01*
X62316766Y-15644761D01*
X62269147Y-15549523D01*
X62269147Y-15501904D01*
X62316766Y-15406666D01*
X62412004Y-15359047D01*
X62554861Y-15359047D01*
X62650100Y-15311428D01*
X62697719Y-15216190D01*
X62697719Y-15168571D01*
X62650100Y-15073333D01*
X62554861Y-15025714D01*
X62412004Y-15025714D01*
X62316766Y-15073333D01*
X61840576Y-15597142D02*
X61792957Y-15644761D01*
X61840576Y-15692380D01*
X61888195Y-15644761D01*
X61840576Y-15597142D01*
X61840576Y-15692380D01*
X61840576Y-15073333D02*
X61792957Y-15120952D01*
X61840576Y-15168571D01*
X61888195Y-15120952D01*
X61840576Y-15073333D01*
X61840576Y-15168571D01*
X60650100Y-14644761D02*
X61507242Y-15930476D01*
X59602480Y-14644761D02*
X60459623Y-15930476D01*
X58840576Y-15025714D02*
X58840576Y-15835238D01*
X58888195Y-15930476D01*
X58935814Y-15978095D01*
X59031052Y-16025714D01*
X59173909Y-16025714D01*
X59269147Y-15978095D01*
X58840576Y-15644761D02*
X58935814Y-15692380D01*
X59126290Y-15692380D01*
X59221528Y-15644761D01*
X59269147Y-15597142D01*
X59316766Y-15501904D01*
X59316766Y-15216190D01*
X59269147Y-15120952D01*
X59221528Y-15073333D01*
X59126290Y-15025714D01*
X58935814Y-15025714D01*
X58840576Y-15073333D01*
X58364385Y-15692380D02*
X58364385Y-15025714D01*
X58364385Y-14692380D02*
X58412004Y-14740000D01*
X58364385Y-14787619D01*
X58316766Y-14740000D01*
X58364385Y-14692380D01*
X58364385Y-14787619D01*
X58031052Y-15025714D02*
X57650100Y-15025714D01*
X57888195Y-14692380D02*
X57888195Y-15549523D01*
X57840576Y-15644761D01*
X57745338Y-15692380D01*
X57650100Y-15692380D01*
X57316766Y-15692380D02*
X57316766Y-14692380D01*
X56888195Y-15692380D02*
X56888195Y-15168571D01*
X56935814Y-15073333D01*
X57031052Y-15025714D01*
X57173909Y-15025714D01*
X57269147Y-15073333D01*
X57316766Y-15120952D01*
X55983433Y-15025714D02*
X55983433Y-15692380D01*
X56412004Y-15025714D02*
X56412004Y-15549523D01*
X56364385Y-15644761D01*
X56269147Y-15692380D01*
X56126290Y-15692380D01*
X56031052Y-15644761D01*
X55983433Y-15597142D01*
X55507242Y-15692380D02*
X55507242Y-14692380D01*
X55507242Y-15073333D02*
X55412004Y-15025714D01*
X55221528Y-15025714D01*
X55126290Y-15073333D01*
X55078671Y-15120952D01*
X55031052Y-15216190D01*
X55031052Y-15501904D01*
X55078671Y-15597142D01*
X55126290Y-15644761D01*
X55221528Y-15692380D01*
X55412004Y-15692380D01*
X55507242Y-15644761D01*
X54602480Y-15597142D02*
X54554861Y-15644761D01*
X54602480Y-15692380D01*
X54650100Y-15644761D01*
X54602480Y-15597142D01*
X54602480Y-15692380D01*
X53697719Y-15644761D02*
X53792957Y-15692380D01*
X53983433Y-15692380D01*
X54078671Y-15644761D01*
X54126290Y-15597142D01*
X54173909Y-15501904D01*
X54173909Y-15216190D01*
X54126290Y-15120952D01*
X54078671Y-15073333D01*
X53983433Y-15025714D01*
X53792957Y-15025714D01*
X53697719Y-15073333D01*
X53126290Y-15692380D02*
X53221528Y-15644761D01*
X53269147Y-15597142D01*
X53316766Y-15501904D01*
X53316766Y-15216190D01*
X53269147Y-15120952D01*
X53221528Y-15073333D01*
X53126290Y-15025714D01*
X52983433Y-15025714D01*
X52888195Y-15073333D01*
X52840576Y-15120952D01*
X52792957Y-15216190D01*
X52792957Y-15501904D01*
X52840576Y-15597142D01*
X52888195Y-15644761D01*
X52983433Y-15692380D01*
X53126290Y-15692380D01*
X52364385Y-15692380D02*
X52364385Y-15025714D01*
X52364385Y-15120952D02*
X52316766Y-15073333D01*
X52221528Y-15025714D01*
X52078671Y-15025714D01*
X51983433Y-15073333D01*
X51935814Y-15168571D01*
X51935814Y-15692380D01*
X51935814Y-15168571D02*
X51888195Y-15073333D01*
X51792957Y-15025714D01*
X51650100Y-15025714D01*
X51554861Y-15073333D01*
X51507242Y-15168571D01*
X51507242Y-15692380D01*
X50316766Y-14644761D02*
X51173909Y-15930476D01*
X50031052Y-15644761D02*
X49935814Y-15692380D01*
X49745338Y-15692380D01*
X49650100Y-15644761D01*
X49602480Y-15549523D01*
X49602480Y-15501904D01*
X49650100Y-15406666D01*
X49745338Y-15359047D01*
X49888195Y-15359047D01*
X49983433Y-15311428D01*
X50031052Y-15216190D01*
X50031052Y-15168571D01*
X49983433Y-15073333D01*
X49888195Y-15025714D01*
X49745338Y-15025714D01*
X49650100Y-15073333D01*
X49031052Y-15692380D02*
X49126290Y-15644761D01*
X49173909Y-15597142D01*
X49221528Y-15501904D01*
X49221528Y-15216190D01*
X49173909Y-15120952D01*
X49126290Y-15073333D01*
X49031052Y-15025714D01*
X48888195Y-15025714D01*
X48792957Y-15073333D01*
X48745338Y-15120952D01*
X48697719Y-15216190D01*
X48697719Y-15501904D01*
X48745338Y-15597142D01*
X48792957Y-15644761D01*
X48888195Y-15692380D01*
X49031052Y-15692380D01*
X48126290Y-15692380D02*
X48221528Y-15644761D01*
X48269147Y-15549523D01*
X48269147Y-14692380D01*
X47316766Y-15692380D02*
X47316766Y-15168571D01*
X47364385Y-15073333D01*
X47459623Y-15025714D01*
X47650100Y-15025714D01*
X47745338Y-15073333D01*
X47316766Y-15644761D02*
X47412004Y-15692380D01*
X47650100Y-15692380D01*
X47745338Y-15644761D01*
X47792957Y-15549523D01*
X47792957Y-15454285D01*
X47745338Y-15359047D01*
X47650100Y-15311428D01*
X47412004Y-15311428D01*
X47316766Y-15263809D01*
X46840576Y-15692380D02*
X46840576Y-15025714D01*
X46840576Y-15216190D02*
X46792957Y-15120952D01*
X46745338Y-15073333D01*
X46650100Y-15025714D01*
X46554861Y-15025714D01*
X46221528Y-15692380D02*
X46221528Y-15025714D01*
X46221528Y-15120952D02*
X46173909Y-15073333D01*
X46078671Y-15025714D01*
X45935814Y-15025714D01*
X45840576Y-15073333D01*
X45792957Y-15168571D01*
X45792957Y-15692380D01*
X45792957Y-15168571D02*
X45745338Y-15073333D01*
X45650100Y-15025714D01*
X45507242Y-15025714D01*
X45412004Y-15073333D01*
X45364385Y-15168571D01*
X45364385Y-15692380D01*
X44745338Y-15692380D02*
X44840576Y-15644761D01*
X44888195Y-15597142D01*
X44935814Y-15501904D01*
X44935814Y-15216190D01*
X44888195Y-15120952D01*
X44840576Y-15073333D01*
X44745338Y-15025714D01*
X44602480Y-15025714D01*
X44507242Y-15073333D01*
X44459623Y-15120952D01*
X44412004Y-15216190D01*
X44412004Y-15501904D01*
X44459623Y-15597142D01*
X44507242Y-15644761D01*
X44602480Y-15692380D01*
X44745338Y-15692380D01*
X43983433Y-15025714D02*
X43983433Y-15692380D01*
X43983433Y-15120952D02*
X43935814Y-15073333D01*
X43840576Y-15025714D01*
X43697719Y-15025714D01*
X43602480Y-15073333D01*
X43554861Y-15168571D01*
X43554861Y-15692380D01*
D13*
X110804000Y17840000D02*
X109474000Y17840000D01*
X110804000Y16510000D02*
X110804000Y17840000D01*
X110804000Y15240000D02*
X108144000Y15240000D01*
X108144000Y15240000D02*
X108144000Y7560000D01*
X110804000Y15240000D02*
X110804000Y7560000D01*
X110804000Y7560000D02*
X108144000Y7560000D01*
D12*
X110283523Y19387620D02*
X110283523Y18673334D01*
X110331142Y18530477D01*
X110426380Y18435239D01*
X110569238Y18387620D01*
X110664476Y18387620D01*
X109283523Y18387620D02*
X109854952Y18387620D01*
X109569238Y18387620D02*
X109569238Y19387620D01*
X109664476Y19244762D01*
X109759714Y19149524D01*
X109854952Y19101905D01*
X108950190Y19387620D02*
X108331142Y19387620D01*
X108664476Y19006667D01*
X108521619Y19006667D01*
X108426380Y18959048D01*
X108378761Y18911429D01*
X108331142Y18816191D01*
X108331142Y18578096D01*
X108378761Y18482858D01*
X108426380Y18435239D01*
X108521619Y18387620D01*
X108807333Y18387620D01*
X108902571Y18435239D01*
X108950190Y18482858D01*
M02*
